<?xml version="1.0" encoding="utf-8" standalone="no"?>
<!DOCTYPE svg PUBLIC "-//W3C//DTD SVG 1.1//EN"
  "http://www.w3.org/Graphics/SVG/1.1/DTD/svg11.dtd">
<svg xmlns:xlink="http://www.w3.org/1999/xlink" width="1073.4375pt" height="562.7875pt" viewBox="0 0 1073.4375 562.7875" xmlns="http://www.w3.org/2000/svg" version="1.1">
 <metadata>
  <rdf:RDF xmlns:dc="http://purl.org/dc/elements/1.1/" xmlns:cc="http://creativecommons.org/ns#" xmlns:rdf="http://www.w3.org/1999/02/22-rdf-syntax-ns#">
   <cc:Work>
    <dc:type rdf:resource="http://purl.org/dc/dcmitype/StillImage"/>
    <dc:date>2023-06-13T12:03:26.013068</dc:date>
    <dc:format>image/svg+xml</dc:format>
    <dc:creator>
     <cc:Agent>
      <dc:title>Matplotlib v3.7.1, https://matplotlib.org/</dc:title>
     </cc:Agent>
    </dc:creator>
   </cc:Work>
  </rdf:RDF>
 </metadata>
 <defs>
  <style type="text/css">*{stroke-linejoin: round; stroke-linecap: butt}</style>
 </defs>
 <g id="figure_1">
  <g id="patch_1">
   <path d="M 0 562.7875 
L 1073.4375 562.7875 
L 1073.4375 0 
L 0 0 
z
" style="fill: #ffffff"/>
  </g>
  <g id="axes_1">
   <g id="patch_2">
    <path d="M 65.4375 520.7175 
L 1069.8375 520.7175 
L 1069.8375 21.7575 
L 65.4375 21.7575 
z
" style="fill: #ffffff"/>
   </g>
   <g id="matplotlib.axis_1">
    <g id="xtick_1">
     <g id="line2d_1">
      <path d="M 111.092045 520.7175 
L 111.092045 21.7575 
" clip-path="url(#p1741b1d920)" style="fill: none; stroke-dasharray: 1.85,0.8; stroke-dashoffset: 0; stroke: #000000; stroke-opacity: 0.5; stroke-width: 0.5"/>
     </g>
     <g id="line2d_2">
      <defs>
       <path id="mc4ea976fb6" d="M 0 0 
L 0 -6 
" style="stroke: #000000"/>
      </defs>
      <g>
       <use xlink:href="#mc4ea976fb6" x="111.092045" y="520.7175" style="stroke: #000000"/>
      </g>
     </g>
     <g id="line2d_3">
      <defs>
       <path id="mcbfa3703a0" d="M 0 0 
L 0 6 
" style="stroke: #000000"/>
      </defs>
      <g>
       <use xlink:href="#mcbfa3703a0" x="111.092045" y="21.7575" style="stroke: #000000"/>
      </g>
     </g>
     <g id="text_1">
      <!-- 0 -->
      <g transform="translate(106.002045 536.375) scale(0.16 -0.16)">
       <defs>
        <path id="DejaVuSans-30" d="M 2034 4250 
Q 1547 4250 1301 3770 
Q 1056 3291 1056 2328 
Q 1056 1369 1301 889 
Q 1547 409 2034 409 
Q 2525 409 2770 889 
Q 3016 1369 3016 2328 
Q 3016 3291 2770 3770 
Q 2525 4250 2034 4250 
z
M 2034 4750 
Q 2819 4750 3233 4129 
Q 3647 3509 3647 2328 
Q 3647 1150 3233 529 
Q 2819 -91 2034 -91 
Q 1250 -91 836 529 
Q 422 1150 422 2328 
Q 422 3509 836 4129 
Q 1250 4750 2034 4750 
z
" transform="scale(0.015625)"/>
       </defs>
       <use xlink:href="#DejaVuSans-30"/>
      </g>
     </g>
    </g>
    <g id="xtick_2">
     <g id="line2d_4">
      <path d="M 249.52305 520.7175 
L 249.52305 21.7575 
" clip-path="url(#p1741b1d920)" style="fill: none; stroke-dasharray: 1.85,0.8; stroke-dashoffset: 0; stroke: #000000; stroke-opacity: 0.5; stroke-width: 0.5"/>
     </g>
     <g id="line2d_5">
      <g>
       <use xlink:href="#mc4ea976fb6" x="249.52305" y="520.7175" style="stroke: #000000"/>
      </g>
     </g>
     <g id="line2d_6">
      <g>
       <use xlink:href="#mcbfa3703a0" x="249.52305" y="21.7575" style="stroke: #000000"/>
      </g>
     </g>
     <g id="text_2">
      <!-- 5 -->
      <g transform="translate(244.43305 536.375) scale(0.16 -0.16)">
       <defs>
        <path id="DejaVuSans-35" d="M 691 4666 
L 3169 4666 
L 3169 4134 
L 1269 4134 
L 1269 2991 
Q 1406 3038 1543 3061 
Q 1681 3084 1819 3084 
Q 2600 3084 3056 2656 
Q 3513 2228 3513 1497 
Q 3513 744 3044 326 
Q 2575 -91 1722 -91 
Q 1428 -91 1123 -41 
Q 819 9 494 109 
L 494 744 
Q 775 591 1075 516 
Q 1375 441 1709 441 
Q 2250 441 2565 725 
Q 2881 1009 2881 1497 
Q 2881 1984 2565 2268 
Q 2250 2553 1709 2553 
Q 1456 2553 1204 2497 
Q 953 2441 691 2322 
L 691 4666 
z
" transform="scale(0.015625)"/>
       </defs>
       <use xlink:href="#DejaVuSans-35"/>
      </g>
     </g>
    </g>
    <g id="xtick_3">
     <g id="line2d_7">
      <path d="M 387.954055 520.7175 
L 387.954055 21.7575 
" clip-path="url(#p1741b1d920)" style="fill: none; stroke-dasharray: 1.85,0.8; stroke-dashoffset: 0; stroke: #000000; stroke-opacity: 0.5; stroke-width: 0.5"/>
     </g>
     <g id="line2d_8">
      <g>
       <use xlink:href="#mc4ea976fb6" x="387.954055" y="520.7175" style="stroke: #000000"/>
      </g>
     </g>
     <g id="line2d_9">
      <g>
       <use xlink:href="#mcbfa3703a0" x="387.954055" y="21.7575" style="stroke: #000000"/>
      </g>
     </g>
     <g id="text_3">
      <!-- 10 -->
      <g transform="translate(377.774055 536.375) scale(0.16 -0.16)">
       <defs>
        <path id="DejaVuSans-31" d="M 794 531 
L 1825 531 
L 1825 4091 
L 703 3866 
L 703 4441 
L 1819 4666 
L 2450 4666 
L 2450 531 
L 3481 531 
L 3481 0 
L 794 0 
L 794 531 
z
" transform="scale(0.015625)"/>
       </defs>
       <use xlink:href="#DejaVuSans-31"/>
       <use xlink:href="#DejaVuSans-30" x="63.623047"/>
      </g>
     </g>
    </g>
    <g id="xtick_4">
     <g id="line2d_10">
      <path d="M 526.385061 520.7175 
L 526.385061 21.7575 
" clip-path="url(#p1741b1d920)" style="fill: none; stroke-dasharray: 1.85,0.8; stroke-dashoffset: 0; stroke: #000000; stroke-opacity: 0.5; stroke-width: 0.5"/>
     </g>
     <g id="line2d_11">
      <g>
       <use xlink:href="#mc4ea976fb6" x="526.385061" y="520.7175" style="stroke: #000000"/>
      </g>
     </g>
     <g id="line2d_12">
      <g>
       <use xlink:href="#mcbfa3703a0" x="526.385061" y="21.7575" style="stroke: #000000"/>
      </g>
     </g>
     <g id="text_4">
      <!-- 15 -->
      <g transform="translate(516.205061 536.375) scale(0.16 -0.16)">
       <use xlink:href="#DejaVuSans-31"/>
       <use xlink:href="#DejaVuSans-35" x="63.623047"/>
      </g>
     </g>
    </g>
    <g id="xtick_5">
     <g id="line2d_13">
      <path d="M 664.816066 520.7175 
L 664.816066 21.7575 
" clip-path="url(#p1741b1d920)" style="fill: none; stroke-dasharray: 1.85,0.8; stroke-dashoffset: 0; stroke: #000000; stroke-opacity: 0.5; stroke-width: 0.5"/>
     </g>
     <g id="line2d_14">
      <g>
       <use xlink:href="#mc4ea976fb6" x="664.816066" y="520.7175" style="stroke: #000000"/>
      </g>
     </g>
     <g id="line2d_15">
      <g>
       <use xlink:href="#mcbfa3703a0" x="664.816066" y="21.7575" style="stroke: #000000"/>
      </g>
     </g>
     <g id="text_5">
      <!-- 20 -->
      <g transform="translate(654.636066 536.375) scale(0.16 -0.16)">
       <defs>
        <path id="DejaVuSans-32" d="M 1228 531 
L 3431 531 
L 3431 0 
L 469 0 
L 469 531 
Q 828 903 1448 1529 
Q 2069 2156 2228 2338 
Q 2531 2678 2651 2914 
Q 2772 3150 2772 3378 
Q 2772 3750 2511 3984 
Q 2250 4219 1831 4219 
Q 1534 4219 1204 4116 
Q 875 4013 500 3803 
L 500 4441 
Q 881 4594 1212 4672 
Q 1544 4750 1819 4750 
Q 2544 4750 2975 4387 
Q 3406 4025 3406 3419 
Q 3406 3131 3298 2873 
Q 3191 2616 2906 2266 
Q 2828 2175 2409 1742 
Q 1991 1309 1228 531 
z
" transform="scale(0.015625)"/>
       </defs>
       <use xlink:href="#DejaVuSans-32"/>
       <use xlink:href="#DejaVuSans-30" x="63.623047"/>
      </g>
     </g>
    </g>
    <g id="xtick_6">
     <g id="line2d_16">
      <path d="M 803.247071 520.7175 
L 803.247071 21.7575 
" clip-path="url(#p1741b1d920)" style="fill: none; stroke-dasharray: 1.85,0.8; stroke-dashoffset: 0; stroke: #000000; stroke-opacity: 0.5; stroke-width: 0.5"/>
     </g>
     <g id="line2d_17">
      <g>
       <use xlink:href="#mc4ea976fb6" x="803.247071" y="520.7175" style="stroke: #000000"/>
      </g>
     </g>
     <g id="line2d_18">
      <g>
       <use xlink:href="#mcbfa3703a0" x="803.247071" y="21.7575" style="stroke: #000000"/>
      </g>
     </g>
     <g id="text_6">
      <!-- 25 -->
      <g transform="translate(793.067071 536.375) scale(0.16 -0.16)">
       <use xlink:href="#DejaVuSans-32"/>
       <use xlink:href="#DejaVuSans-35" x="63.623047"/>
      </g>
     </g>
    </g>
    <g id="xtick_7">
     <g id="line2d_19">
      <path d="M 941.678076 520.7175 
L 941.678076 21.7575 
" clip-path="url(#p1741b1d920)" style="fill: none; stroke-dasharray: 1.85,0.8; stroke-dashoffset: 0; stroke: #000000; stroke-opacity: 0.5; stroke-width: 0.5"/>
     </g>
     <g id="line2d_20">
      <g>
       <use xlink:href="#mc4ea976fb6" x="941.678076" y="520.7175" style="stroke: #000000"/>
      </g>
     </g>
     <g id="line2d_21">
      <g>
       <use xlink:href="#mcbfa3703a0" x="941.678076" y="21.7575" style="stroke: #000000"/>
      </g>
     </g>
     <g id="text_7">
      <!-- 30 -->
      <g transform="translate(931.498076 536.375) scale(0.16 -0.16)">
       <defs>
        <path id="DejaVuSans-33" d="M 2597 2516 
Q 3050 2419 3304 2112 
Q 3559 1806 3559 1356 
Q 3559 666 3084 287 
Q 2609 -91 1734 -91 
Q 1441 -91 1130 -33 
Q 819 25 488 141 
L 488 750 
Q 750 597 1062 519 
Q 1375 441 1716 441 
Q 2309 441 2620 675 
Q 2931 909 2931 1356 
Q 2931 1769 2642 2001 
Q 2353 2234 1838 2234 
L 1294 2234 
L 1294 2753 
L 1863 2753 
Q 2328 2753 2575 2939 
Q 2822 3125 2822 3475 
Q 2822 3834 2567 4026 
Q 2313 4219 1838 4219 
Q 1578 4219 1281 4162 
Q 984 4106 628 3988 
L 628 4550 
Q 988 4650 1302 4700 
Q 1616 4750 1894 4750 
Q 2613 4750 3031 4423 
Q 3450 4097 3450 3541 
Q 3450 3153 3228 2886 
Q 3006 2619 2597 2516 
z
" transform="scale(0.015625)"/>
       </defs>
       <use xlink:href="#DejaVuSans-33"/>
       <use xlink:href="#DejaVuSans-30" x="63.623047"/>
      </g>
     </g>
    </g>
    <g id="xtick_8">
     <g id="line2d_22">
      <defs>
       <path id="ma7baf3fa60" d="M 0 0 
L 0 -3 
" style="stroke: #000000"/>
      </defs>
      <g>
       <use xlink:href="#ma7baf3fa60" x="83.405844" y="520.7175" style="stroke: #000000"/>
      </g>
     </g>
     <g id="line2d_23">
      <defs>
       <path id="mf7dc1411f1" d="M 0 0 
L 0 3 
" style="stroke: #000000"/>
      </defs>
      <g>
       <use xlink:href="#mf7dc1411f1" x="83.405844" y="21.7575" style="stroke: #000000"/>
      </g>
     </g>
    </g>
    <g id="xtick_9">
     <g id="line2d_24">
      <g>
       <use xlink:href="#ma7baf3fa60" x="138.778246" y="520.7175" style="stroke: #000000"/>
      </g>
     </g>
     <g id="line2d_25">
      <g>
       <use xlink:href="#mf7dc1411f1" x="138.778246" y="21.7575" style="stroke: #000000"/>
      </g>
     </g>
    </g>
    <g id="xtick_10">
     <g id="line2d_26">
      <g>
       <use xlink:href="#ma7baf3fa60" x="166.464447" y="520.7175" style="stroke: #000000"/>
      </g>
     </g>
     <g id="line2d_27">
      <g>
       <use xlink:href="#mf7dc1411f1" x="166.464447" y="21.7575" style="stroke: #000000"/>
      </g>
     </g>
    </g>
    <g id="xtick_11">
     <g id="line2d_28">
      <g>
       <use xlink:href="#ma7baf3fa60" x="194.150648" y="520.7175" style="stroke: #000000"/>
      </g>
     </g>
     <g id="line2d_29">
      <g>
       <use xlink:href="#mf7dc1411f1" x="194.150648" y="21.7575" style="stroke: #000000"/>
      </g>
     </g>
    </g>
    <g id="xtick_12">
     <g id="line2d_30">
      <g>
       <use xlink:href="#ma7baf3fa60" x="221.836849" y="520.7175" style="stroke: #000000"/>
      </g>
     </g>
     <g id="line2d_31">
      <g>
       <use xlink:href="#mf7dc1411f1" x="221.836849" y="21.7575" style="stroke: #000000"/>
      </g>
     </g>
    </g>
    <g id="xtick_13">
     <g id="line2d_32">
      <g>
       <use xlink:href="#ma7baf3fa60" x="277.209251" y="520.7175" style="stroke: #000000"/>
      </g>
     </g>
     <g id="line2d_33">
      <g>
       <use xlink:href="#mf7dc1411f1" x="277.209251" y="21.7575" style="stroke: #000000"/>
      </g>
     </g>
    </g>
    <g id="xtick_14">
     <g id="line2d_34">
      <g>
       <use xlink:href="#ma7baf3fa60" x="304.895452" y="520.7175" style="stroke: #000000"/>
      </g>
     </g>
     <g id="line2d_35">
      <g>
       <use xlink:href="#mf7dc1411f1" x="304.895452" y="21.7575" style="stroke: #000000"/>
      </g>
     </g>
    </g>
    <g id="xtick_15">
     <g id="line2d_36">
      <g>
       <use xlink:href="#ma7baf3fa60" x="332.581653" y="520.7175" style="stroke: #000000"/>
      </g>
     </g>
     <g id="line2d_37">
      <g>
       <use xlink:href="#mf7dc1411f1" x="332.581653" y="21.7575" style="stroke: #000000"/>
      </g>
     </g>
    </g>
    <g id="xtick_16">
     <g id="line2d_38">
      <g>
       <use xlink:href="#ma7baf3fa60" x="360.267854" y="520.7175" style="stroke: #000000"/>
      </g>
     </g>
     <g id="line2d_39">
      <g>
       <use xlink:href="#mf7dc1411f1" x="360.267854" y="21.7575" style="stroke: #000000"/>
      </g>
     </g>
    </g>
    <g id="xtick_17">
     <g id="line2d_40">
      <g>
       <use xlink:href="#ma7baf3fa60" x="415.640256" y="520.7175" style="stroke: #000000"/>
      </g>
     </g>
     <g id="line2d_41">
      <g>
       <use xlink:href="#mf7dc1411f1" x="415.640256" y="21.7575" style="stroke: #000000"/>
      </g>
     </g>
    </g>
    <g id="xtick_18">
     <g id="line2d_42">
      <g>
       <use xlink:href="#ma7baf3fa60" x="443.326457" y="520.7175" style="stroke: #000000"/>
      </g>
     </g>
     <g id="line2d_43">
      <g>
       <use xlink:href="#mf7dc1411f1" x="443.326457" y="21.7575" style="stroke: #000000"/>
      </g>
     </g>
    </g>
    <g id="xtick_19">
     <g id="line2d_44">
      <g>
       <use xlink:href="#ma7baf3fa60" x="471.012658" y="520.7175" style="stroke: #000000"/>
      </g>
     </g>
     <g id="line2d_45">
      <g>
       <use xlink:href="#mf7dc1411f1" x="471.012658" y="21.7575" style="stroke: #000000"/>
      </g>
     </g>
    </g>
    <g id="xtick_20">
     <g id="line2d_46">
      <g>
       <use xlink:href="#ma7baf3fa60" x="498.69886" y="520.7175" style="stroke: #000000"/>
      </g>
     </g>
     <g id="line2d_47">
      <g>
       <use xlink:href="#mf7dc1411f1" x="498.69886" y="21.7575" style="stroke: #000000"/>
      </g>
     </g>
    </g>
    <g id="xtick_21">
     <g id="line2d_48">
      <g>
       <use xlink:href="#ma7baf3fa60" x="554.071262" y="520.7175" style="stroke: #000000"/>
      </g>
     </g>
     <g id="line2d_49">
      <g>
       <use xlink:href="#mf7dc1411f1" x="554.071262" y="21.7575" style="stroke: #000000"/>
      </g>
     </g>
    </g>
    <g id="xtick_22">
     <g id="line2d_50">
      <g>
       <use xlink:href="#ma7baf3fa60" x="581.757463" y="520.7175" style="stroke: #000000"/>
      </g>
     </g>
     <g id="line2d_51">
      <g>
       <use xlink:href="#mf7dc1411f1" x="581.757463" y="21.7575" style="stroke: #000000"/>
      </g>
     </g>
    </g>
    <g id="xtick_23">
     <g id="line2d_52">
      <g>
       <use xlink:href="#ma7baf3fa60" x="609.443664" y="520.7175" style="stroke: #000000"/>
      </g>
     </g>
     <g id="line2d_53">
      <g>
       <use xlink:href="#mf7dc1411f1" x="609.443664" y="21.7575" style="stroke: #000000"/>
      </g>
     </g>
    </g>
    <g id="xtick_24">
     <g id="line2d_54">
      <g>
       <use xlink:href="#ma7baf3fa60" x="637.129865" y="520.7175" style="stroke: #000000"/>
      </g>
     </g>
     <g id="line2d_55">
      <g>
       <use xlink:href="#mf7dc1411f1" x="637.129865" y="21.7575" style="stroke: #000000"/>
      </g>
     </g>
    </g>
    <g id="xtick_25">
     <g id="line2d_56">
      <g>
       <use xlink:href="#ma7baf3fa60" x="692.502267" y="520.7175" style="stroke: #000000"/>
      </g>
     </g>
     <g id="line2d_57">
      <g>
       <use xlink:href="#mf7dc1411f1" x="692.502267" y="21.7575" style="stroke: #000000"/>
      </g>
     </g>
    </g>
    <g id="xtick_26">
     <g id="line2d_58">
      <g>
       <use xlink:href="#ma7baf3fa60" x="720.188468" y="520.7175" style="stroke: #000000"/>
      </g>
     </g>
     <g id="line2d_59">
      <g>
       <use xlink:href="#mf7dc1411f1" x="720.188468" y="21.7575" style="stroke: #000000"/>
      </g>
     </g>
    </g>
    <g id="xtick_27">
     <g id="line2d_60">
      <g>
       <use xlink:href="#ma7baf3fa60" x="747.874669" y="520.7175" style="stroke: #000000"/>
      </g>
     </g>
     <g id="line2d_61">
      <g>
       <use xlink:href="#mf7dc1411f1" x="747.874669" y="21.7575" style="stroke: #000000"/>
      </g>
     </g>
    </g>
    <g id="xtick_28">
     <g id="line2d_62">
      <g>
       <use xlink:href="#ma7baf3fa60" x="775.56087" y="520.7175" style="stroke: #000000"/>
      </g>
     </g>
     <g id="line2d_63">
      <g>
       <use xlink:href="#mf7dc1411f1" x="775.56087" y="21.7575" style="stroke: #000000"/>
      </g>
     </g>
    </g>
    <g id="xtick_29">
     <g id="line2d_64">
      <g>
       <use xlink:href="#ma7baf3fa60" x="830.933272" y="520.7175" style="stroke: #000000"/>
      </g>
     </g>
     <g id="line2d_65">
      <g>
       <use xlink:href="#mf7dc1411f1" x="830.933272" y="21.7575" style="stroke: #000000"/>
      </g>
     </g>
    </g>
    <g id="xtick_30">
     <g id="line2d_66">
      <g>
       <use xlink:href="#ma7baf3fa60" x="858.619473" y="520.7175" style="stroke: #000000"/>
      </g>
     </g>
     <g id="line2d_67">
      <g>
       <use xlink:href="#mf7dc1411f1" x="858.619473" y="21.7575" style="stroke: #000000"/>
      </g>
     </g>
    </g>
    <g id="xtick_31">
     <g id="line2d_68">
      <g>
       <use xlink:href="#ma7baf3fa60" x="886.305674" y="520.7175" style="stroke: #000000"/>
      </g>
     </g>
     <g id="line2d_69">
      <g>
       <use xlink:href="#mf7dc1411f1" x="886.305674" y="21.7575" style="stroke: #000000"/>
      </g>
     </g>
    </g>
    <g id="xtick_32">
     <g id="line2d_70">
      <g>
       <use xlink:href="#ma7baf3fa60" x="913.991875" y="520.7175" style="stroke: #000000"/>
      </g>
     </g>
     <g id="line2d_71">
      <g>
       <use xlink:href="#mf7dc1411f1" x="913.991875" y="21.7575" style="stroke: #000000"/>
      </g>
     </g>
    </g>
    <g id="xtick_33">
     <g id="line2d_72">
      <g>
       <use xlink:href="#ma7baf3fa60" x="969.364277" y="520.7175" style="stroke: #000000"/>
      </g>
     </g>
     <g id="line2d_73">
      <g>
       <use xlink:href="#mf7dc1411f1" x="969.364277" y="21.7575" style="stroke: #000000"/>
      </g>
     </g>
    </g>
    <g id="xtick_34">
     <g id="line2d_74">
      <g>
       <use xlink:href="#ma7baf3fa60" x="997.050478" y="520.7175" style="stroke: #000000"/>
      </g>
     </g>
     <g id="line2d_75">
      <g>
       <use xlink:href="#mf7dc1411f1" x="997.050478" y="21.7575" style="stroke: #000000"/>
      </g>
     </g>
    </g>
    <g id="xtick_35">
     <g id="line2d_76">
      <g>
       <use xlink:href="#ma7baf3fa60" x="1024.736679" y="520.7175" style="stroke: #000000"/>
      </g>
     </g>
     <g id="line2d_77">
      <g>
       <use xlink:href="#mf7dc1411f1" x="1024.736679" y="21.7575" style="stroke: #000000"/>
      </g>
     </g>
    </g>
    <g id="xtick_36">
     <g id="line2d_78">
      <g>
       <use xlink:href="#ma7baf3fa60" x="1052.42288" y="520.7175" style="stroke: #000000"/>
      </g>
     </g>
     <g id="line2d_79">
      <g>
       <use xlink:href="#mf7dc1411f1" x="1052.42288" y="21.7575" style="stroke: #000000"/>
      </g>
     </g>
    </g>
    <g id="text_8">
     <!-- Time (s) -->
     <g transform="translate(535.11125 555.86) scale(0.16 -0.16)">
      <defs>
       <path id="DejaVuSans-54" d="M -19 4666 
L 3928 4666 
L 3928 4134 
L 2272 4134 
L 2272 0 
L 1638 0 
L 1638 4134 
L -19 4134 
L -19 4666 
z
" transform="scale(0.015625)"/>
       <path id="DejaVuSans-69" d="M 603 3500 
L 1178 3500 
L 1178 0 
L 603 0 
L 603 3500 
z
M 603 4863 
L 1178 4863 
L 1178 4134 
L 603 4134 
L 603 4863 
z
" transform="scale(0.015625)"/>
       <path id="DejaVuSans-6d" d="M 3328 2828 
Q 3544 3216 3844 3400 
Q 4144 3584 4550 3584 
Q 5097 3584 5394 3201 
Q 5691 2819 5691 2113 
L 5691 0 
L 5113 0 
L 5113 2094 
Q 5113 2597 4934 2840 
Q 4756 3084 4391 3084 
Q 3944 3084 3684 2787 
Q 3425 2491 3425 1978 
L 3425 0 
L 2847 0 
L 2847 2094 
Q 2847 2600 2669 2842 
Q 2491 3084 2119 3084 
Q 1678 3084 1418 2786 
Q 1159 2488 1159 1978 
L 1159 0 
L 581 0 
L 581 3500 
L 1159 3500 
L 1159 2956 
Q 1356 3278 1631 3431 
Q 1906 3584 2284 3584 
Q 2666 3584 2933 3390 
Q 3200 3197 3328 2828 
z
" transform="scale(0.015625)"/>
       <path id="DejaVuSans-65" d="M 3597 1894 
L 3597 1613 
L 953 1613 
Q 991 1019 1311 708 
Q 1631 397 2203 397 
Q 2534 397 2845 478 
Q 3156 559 3463 722 
L 3463 178 
Q 3153 47 2828 -22 
Q 2503 -91 2169 -91 
Q 1331 -91 842 396 
Q 353 884 353 1716 
Q 353 2575 817 3079 
Q 1281 3584 2069 3584 
Q 2775 3584 3186 3129 
Q 3597 2675 3597 1894 
z
M 3022 2063 
Q 3016 2534 2758 2815 
Q 2500 3097 2075 3097 
Q 1594 3097 1305 2825 
Q 1016 2553 972 2059 
L 3022 2063 
z
" transform="scale(0.015625)"/>
       <path id="DejaVuSans-20" transform="scale(0.015625)"/>
       <path id="DejaVuSans-28" d="M 1984 4856 
Q 1566 4138 1362 3434 
Q 1159 2731 1159 2009 
Q 1159 1288 1364 580 
Q 1569 -128 1984 -844 
L 1484 -844 
Q 1016 -109 783 600 
Q 550 1309 550 2009 
Q 550 2706 781 3412 
Q 1013 4119 1484 4856 
L 1984 4856 
z
" transform="scale(0.015625)"/>
       <path id="DejaVuSans-73" d="M 2834 3397 
L 2834 2853 
Q 2591 2978 2328 3040 
Q 2066 3103 1784 3103 
Q 1356 3103 1142 2972 
Q 928 2841 928 2578 
Q 928 2378 1081 2264 
Q 1234 2150 1697 2047 
L 1894 2003 
Q 2506 1872 2764 1633 
Q 3022 1394 3022 966 
Q 3022 478 2636 193 
Q 2250 -91 1575 -91 
Q 1294 -91 989 -36 
Q 684 19 347 128 
L 347 722 
Q 666 556 975 473 
Q 1284 391 1588 391 
Q 1994 391 2212 530 
Q 2431 669 2431 922 
Q 2431 1156 2273 1281 
Q 2116 1406 1581 1522 
L 1381 1569 
Q 847 1681 609 1914 
Q 372 2147 372 2553 
Q 372 3047 722 3315 
Q 1072 3584 1716 3584 
Q 2034 3584 2315 3537 
Q 2597 3491 2834 3397 
z
" transform="scale(0.015625)"/>
       <path id="DejaVuSans-29" d="M 513 4856 
L 1013 4856 
Q 1481 4119 1714 3412 
Q 1947 2706 1947 2009 
Q 1947 1309 1714 600 
Q 1481 -109 1013 -844 
L 513 -844 
Q 928 -128 1133 580 
Q 1338 1288 1338 2009 
Q 1338 2731 1133 3434 
Q 928 4138 513 4856 
z
" transform="scale(0.015625)"/>
      </defs>
      <use xlink:href="#DejaVuSans-54"/>
      <use xlink:href="#DejaVuSans-69" x="57.958984"/>
      <use xlink:href="#DejaVuSans-6d" x="85.742188"/>
      <use xlink:href="#DejaVuSans-65" x="183.154297"/>
      <use xlink:href="#DejaVuSans-20" x="244.677734"/>
      <use xlink:href="#DejaVuSans-28" x="276.464844"/>
      <use xlink:href="#DejaVuSans-73" x="315.478516"/>
      <use xlink:href="#DejaVuSans-29" x="367.578125"/>
     </g>
    </g>
   </g>
   <g id="matplotlib.axis_2">
    <g id="ytick_1">
     <g id="line2d_80">
      <path d="M 65.4375 427.509126 
L 1069.8375 427.509126 
" clip-path="url(#p1741b1d920)" style="fill: none; stroke-dasharray: 1.85,0.8; stroke-dashoffset: 0; stroke: #000000; stroke-opacity: 0.5; stroke-width: 0.5"/>
     </g>
     <g id="line2d_81">
      <defs>
       <path id="mcc21bff04e" d="M 0 0 
L 6 0 
" style="stroke: #000000"/>
      </defs>
      <g>
       <use xlink:href="#mcc21bff04e" x="65.4375" y="427.509126" style="stroke: #000000"/>
      </g>
     </g>
     <g id="line2d_82">
      <defs>
       <path id="m3ed6b853ab" d="M 0 0 
L -6 0 
" style="stroke: #000000"/>
      </defs>
      <g>
       <use xlink:href="#m3ed6b853ab" x="1069.8375" y="427.509126" style="stroke: #000000"/>
      </g>
     </g>
     <g id="text_9">
      <!-- −0.1 -->
      <g transform="translate(23.085 433.587876) scale(0.16 -0.16)">
       <defs>
        <path id="DejaVuSans-2212" d="M 678 2272 
L 4684 2272 
L 4684 1741 
L 678 1741 
L 678 2272 
z
" transform="scale(0.015625)"/>
        <path id="DejaVuSans-2e" d="M 684 794 
L 1344 794 
L 1344 0 
L 684 0 
L 684 794 
z
" transform="scale(0.015625)"/>
       </defs>
       <use xlink:href="#DejaVuSans-2212"/>
       <use xlink:href="#DejaVuSans-30" x="83.789062"/>
       <use xlink:href="#DejaVuSans-2e" x="147.412109"/>
       <use xlink:href="#DejaVuSans-31" x="179.199219"/>
      </g>
     </g>
    </g>
    <g id="ytick_2">
     <g id="line2d_83">
      <path d="M 65.4375 333.208272 
L 1069.8375 333.208272 
" clip-path="url(#p1741b1d920)" style="fill: none; stroke-dasharray: 1.85,0.8; stroke-dashoffset: 0; stroke: #000000; stroke-opacity: 0.5; stroke-width: 0.5"/>
     </g>
     <g id="line2d_84">
      <g>
       <use xlink:href="#mcc21bff04e" x="65.4375" y="333.208272" style="stroke: #000000"/>
      </g>
     </g>
     <g id="line2d_85">
      <g>
       <use xlink:href="#m3ed6b853ab" x="1069.8375" y="333.208272" style="stroke: #000000"/>
      </g>
     </g>
     <g id="text_10">
      <!-- 0.0 -->
      <g transform="translate(36.4925 339.287022) scale(0.16 -0.16)">
       <use xlink:href="#DejaVuSans-30"/>
       <use xlink:href="#DejaVuSans-2e" x="63.623047"/>
       <use xlink:href="#DejaVuSans-30" x="95.410156"/>
      </g>
     </g>
    </g>
    <g id="ytick_3">
     <g id="line2d_86">
      <path d="M 65.4375 238.907418 
L 1069.8375 238.907418 
" clip-path="url(#p1741b1d920)" style="fill: none; stroke-dasharray: 1.85,0.8; stroke-dashoffset: 0; stroke: #000000; stroke-opacity: 0.5; stroke-width: 0.5"/>
     </g>
     <g id="line2d_87">
      <g>
       <use xlink:href="#mcc21bff04e" x="65.4375" y="238.907418" style="stroke: #000000"/>
      </g>
     </g>
     <g id="line2d_88">
      <g>
       <use xlink:href="#m3ed6b853ab" x="1069.8375" y="238.907418" style="stroke: #000000"/>
      </g>
     </g>
     <g id="text_11">
      <!-- 0.1 -->
      <g transform="translate(36.4925 244.986168) scale(0.16 -0.16)">
       <use xlink:href="#DejaVuSans-30"/>
       <use xlink:href="#DejaVuSans-2e" x="63.623047"/>
       <use xlink:href="#DejaVuSans-31" x="95.410156"/>
      </g>
     </g>
    </g>
    <g id="ytick_4">
     <g id="line2d_89">
      <path d="M 65.4375 144.606565 
L 1069.8375 144.606565 
" clip-path="url(#p1741b1d920)" style="fill: none; stroke-dasharray: 1.85,0.8; stroke-dashoffset: 0; stroke: #000000; stroke-opacity: 0.5; stroke-width: 0.5"/>
     </g>
     <g id="line2d_90">
      <g>
       <use xlink:href="#mcc21bff04e" x="65.4375" y="144.606565" style="stroke: #000000"/>
      </g>
     </g>
     <g id="line2d_91">
      <g>
       <use xlink:href="#m3ed6b853ab" x="1069.8375" y="144.606565" style="stroke: #000000"/>
      </g>
     </g>
     <g id="text_12">
      <!-- 0.2 -->
      <g transform="translate(36.4925 150.685315) scale(0.16 -0.16)">
       <use xlink:href="#DejaVuSans-30"/>
       <use xlink:href="#DejaVuSans-2e" x="63.623047"/>
       <use xlink:href="#DejaVuSans-32" x="95.410156"/>
      </g>
     </g>
    </g>
    <g id="ytick_5">
     <g id="line2d_92">
      <path d="M 65.4375 50.305711 
L 1069.8375 50.305711 
" clip-path="url(#p1741b1d920)" style="fill: none; stroke-dasharray: 1.85,0.8; stroke-dashoffset: 0; stroke: #000000; stroke-opacity: 0.5; stroke-width: 0.5"/>
     </g>
     <g id="line2d_93">
      <g>
       <use xlink:href="#mcc21bff04e" x="65.4375" y="50.305711" style="stroke: #000000"/>
      </g>
     </g>
     <g id="line2d_94">
      <g>
       <use xlink:href="#m3ed6b853ab" x="1069.8375" y="50.305711" style="stroke: #000000"/>
      </g>
     </g>
     <g id="text_13">
      <!-- 0.3 -->
      <g transform="translate(36.4925 56.384461) scale(0.16 -0.16)">
       <use xlink:href="#DejaVuSans-30"/>
       <use xlink:href="#DejaVuSans-2e" x="63.623047"/>
       <use xlink:href="#DejaVuSans-33" x="95.410156"/>
      </g>
     </g>
    </g>
    <g id="ytick_6">
     <g id="line2d_95">
      <defs>
       <path id="m00cda8c96a" d="M 0 0 
L 3 0 
" style="stroke: #000000"/>
      </defs>
      <g>
       <use xlink:href="#m00cda8c96a" x="65.4375" y="502.949808" style="stroke: #000000"/>
      </g>
     </g>
     <g id="line2d_96">
      <defs>
       <path id="mc3e9aace5d" d="M 0 0 
L -3 0 
" style="stroke: #000000"/>
      </defs>
      <g>
       <use xlink:href="#mc3e9aace5d" x="1069.8375" y="502.949808" style="stroke: #000000"/>
      </g>
     </g>
    </g>
    <g id="ytick_7">
     <g id="line2d_97">
      <g>
       <use xlink:href="#m00cda8c96a" x="65.4375" y="484.089638" style="stroke: #000000"/>
      </g>
     </g>
     <g id="line2d_98">
      <g>
       <use xlink:href="#mc3e9aace5d" x="1069.8375" y="484.089638" style="stroke: #000000"/>
      </g>
     </g>
    </g>
    <g id="ytick_8">
     <g id="line2d_99">
      <g>
       <use xlink:href="#m00cda8c96a" x="65.4375" y="465.229467" style="stroke: #000000"/>
      </g>
     </g>
     <g id="line2d_100">
      <g>
       <use xlink:href="#mc3e9aace5d" x="1069.8375" y="465.229467" style="stroke: #000000"/>
      </g>
     </g>
    </g>
    <g id="ytick_9">
     <g id="line2d_101">
      <g>
       <use xlink:href="#m00cda8c96a" x="65.4375" y="446.369296" style="stroke: #000000"/>
      </g>
     </g>
     <g id="line2d_102">
      <g>
       <use xlink:href="#mc3e9aace5d" x="1069.8375" y="446.369296" style="stroke: #000000"/>
      </g>
     </g>
    </g>
    <g id="ytick_10">
     <g id="line2d_103">
      <g>
       <use xlink:href="#m00cda8c96a" x="65.4375" y="408.648955" style="stroke: #000000"/>
      </g>
     </g>
     <g id="line2d_104">
      <g>
       <use xlink:href="#mc3e9aace5d" x="1069.8375" y="408.648955" style="stroke: #000000"/>
      </g>
     </g>
    </g>
    <g id="ytick_11">
     <g id="line2d_105">
      <g>
       <use xlink:href="#m00cda8c96a" x="65.4375" y="389.788784" style="stroke: #000000"/>
      </g>
     </g>
     <g id="line2d_106">
      <g>
       <use xlink:href="#mc3e9aace5d" x="1069.8375" y="389.788784" style="stroke: #000000"/>
      </g>
     </g>
    </g>
    <g id="ytick_12">
     <g id="line2d_107">
      <g>
       <use xlink:href="#m00cda8c96a" x="65.4375" y="370.928613" style="stroke: #000000"/>
      </g>
     </g>
     <g id="line2d_108">
      <g>
       <use xlink:href="#mc3e9aace5d" x="1069.8375" y="370.928613" style="stroke: #000000"/>
      </g>
     </g>
    </g>
    <g id="ytick_13">
     <g id="line2d_109">
      <g>
       <use xlink:href="#m00cda8c96a" x="65.4375" y="352.068443" style="stroke: #000000"/>
      </g>
     </g>
     <g id="line2d_110">
      <g>
       <use xlink:href="#mc3e9aace5d" x="1069.8375" y="352.068443" style="stroke: #000000"/>
      </g>
     </g>
    </g>
    <g id="ytick_14">
     <g id="line2d_111">
      <g>
       <use xlink:href="#m00cda8c96a" x="65.4375" y="314.348101" style="stroke: #000000"/>
      </g>
     </g>
     <g id="line2d_112">
      <g>
       <use xlink:href="#mc3e9aace5d" x="1069.8375" y="314.348101" style="stroke: #000000"/>
      </g>
     </g>
    </g>
    <g id="ytick_15">
     <g id="line2d_113">
      <g>
       <use xlink:href="#m00cda8c96a" x="65.4375" y="295.487931" style="stroke: #000000"/>
      </g>
     </g>
     <g id="line2d_114">
      <g>
       <use xlink:href="#mc3e9aace5d" x="1069.8375" y="295.487931" style="stroke: #000000"/>
      </g>
     </g>
    </g>
    <g id="ytick_16">
     <g id="line2d_115">
      <g>
       <use xlink:href="#m00cda8c96a" x="65.4375" y="276.62776" style="stroke: #000000"/>
      </g>
     </g>
     <g id="line2d_116">
      <g>
       <use xlink:href="#mc3e9aace5d" x="1069.8375" y="276.62776" style="stroke: #000000"/>
      </g>
     </g>
    </g>
    <g id="ytick_17">
     <g id="line2d_117">
      <g>
       <use xlink:href="#m00cda8c96a" x="65.4375" y="257.767589" style="stroke: #000000"/>
      </g>
     </g>
     <g id="line2d_118">
      <g>
       <use xlink:href="#mc3e9aace5d" x="1069.8375" y="257.767589" style="stroke: #000000"/>
      </g>
     </g>
    </g>
    <g id="ytick_18">
     <g id="line2d_119">
      <g>
       <use xlink:href="#m00cda8c96a" x="65.4375" y="220.047248" style="stroke: #000000"/>
      </g>
     </g>
     <g id="line2d_120">
      <g>
       <use xlink:href="#mc3e9aace5d" x="1069.8375" y="220.047248" style="stroke: #000000"/>
      </g>
     </g>
    </g>
    <g id="ytick_19">
     <g id="line2d_121">
      <g>
       <use xlink:href="#m00cda8c96a" x="65.4375" y="201.187077" style="stroke: #000000"/>
      </g>
     </g>
     <g id="line2d_122">
      <g>
       <use xlink:href="#mc3e9aace5d" x="1069.8375" y="201.187077" style="stroke: #000000"/>
      </g>
     </g>
    </g>
    <g id="ytick_20">
     <g id="line2d_123">
      <g>
       <use xlink:href="#m00cda8c96a" x="65.4375" y="182.326906" style="stroke: #000000"/>
      </g>
     </g>
     <g id="line2d_124">
      <g>
       <use xlink:href="#mc3e9aace5d" x="1069.8375" y="182.326906" style="stroke: #000000"/>
      </g>
     </g>
    </g>
    <g id="ytick_21">
     <g id="line2d_125">
      <g>
       <use xlink:href="#m00cda8c96a" x="65.4375" y="163.466736" style="stroke: #000000"/>
      </g>
     </g>
     <g id="line2d_126">
      <g>
       <use xlink:href="#mc3e9aace5d" x="1069.8375" y="163.466736" style="stroke: #000000"/>
      </g>
     </g>
    </g>
    <g id="ytick_22">
     <g id="line2d_127">
      <g>
       <use xlink:href="#m00cda8c96a" x="65.4375" y="125.746394" style="stroke: #000000"/>
      </g>
     </g>
     <g id="line2d_128">
      <g>
       <use xlink:href="#mc3e9aace5d" x="1069.8375" y="125.746394" style="stroke: #000000"/>
      </g>
     </g>
    </g>
    <g id="ytick_23">
     <g id="line2d_129">
      <g>
       <use xlink:href="#m00cda8c96a" x="65.4375" y="106.886223" style="stroke: #000000"/>
      </g>
     </g>
     <g id="line2d_130">
      <g>
       <use xlink:href="#mc3e9aace5d" x="1069.8375" y="106.886223" style="stroke: #000000"/>
      </g>
     </g>
    </g>
    <g id="ytick_24">
     <g id="line2d_131">
      <g>
       <use xlink:href="#m00cda8c96a" x="65.4375" y="88.026053" style="stroke: #000000"/>
      </g>
     </g>
     <g id="line2d_132">
      <g>
       <use xlink:href="#mc3e9aace5d" x="1069.8375" y="88.026053" style="stroke: #000000"/>
      </g>
     </g>
    </g>
    <g id="ytick_25">
     <g id="line2d_133">
      <g>
       <use xlink:href="#m00cda8c96a" x="65.4375" y="69.165882" style="stroke: #000000"/>
      </g>
     </g>
     <g id="line2d_134">
      <g>
       <use xlink:href="#mc3e9aace5d" x="1069.8375" y="69.165882" style="stroke: #000000"/>
      </g>
     </g>
    </g>
    <g id="ytick_26">
     <g id="line2d_135">
      <g>
       <use xlink:href="#m00cda8c96a" x="65.4375" y="31.445541" style="stroke: #000000"/>
      </g>
     </g>
     <g id="line2d_136">
      <g>
       <use xlink:href="#mc3e9aace5d" x="1069.8375" y="31.445541" style="stroke: #000000"/>
      </g>
     </g>
    </g>
    <g id="text_14">
     <!-- Base Displacement -->
     <g transform="translate(15.7575 348.2575) rotate(-90) scale(0.16 -0.16)">
      <defs>
       <path id="DejaVuSans-42" d="M 1259 2228 
L 1259 519 
L 2272 519 
Q 2781 519 3026 730 
Q 3272 941 3272 1375 
Q 3272 1813 3026 2020 
Q 2781 2228 2272 2228 
L 1259 2228 
z
M 1259 4147 
L 1259 2741 
L 2194 2741 
Q 2656 2741 2882 2914 
Q 3109 3088 3109 3444 
Q 3109 3797 2882 3972 
Q 2656 4147 2194 4147 
L 1259 4147 
z
M 628 4666 
L 2241 4666 
Q 2963 4666 3353 4366 
Q 3744 4066 3744 3513 
Q 3744 3084 3544 2831 
Q 3344 2578 2956 2516 
Q 3422 2416 3680 2098 
Q 3938 1781 3938 1306 
Q 3938 681 3513 340 
Q 3088 0 2303 0 
L 628 0 
L 628 4666 
z
" transform="scale(0.015625)"/>
       <path id="DejaVuSans-61" d="M 2194 1759 
Q 1497 1759 1228 1600 
Q 959 1441 959 1056 
Q 959 750 1161 570 
Q 1363 391 1709 391 
Q 2188 391 2477 730 
Q 2766 1069 2766 1631 
L 2766 1759 
L 2194 1759 
z
M 3341 1997 
L 3341 0 
L 2766 0 
L 2766 531 
Q 2569 213 2275 61 
Q 1981 -91 1556 -91 
Q 1019 -91 701 211 
Q 384 513 384 1019 
Q 384 1609 779 1909 
Q 1175 2209 1959 2209 
L 2766 2209 
L 2766 2266 
Q 2766 2663 2505 2880 
Q 2244 3097 1772 3097 
Q 1472 3097 1187 3025 
Q 903 2953 641 2809 
L 641 3341 
Q 956 3463 1253 3523 
Q 1550 3584 1831 3584 
Q 2591 3584 2966 3190 
Q 3341 2797 3341 1997 
z
" transform="scale(0.015625)"/>
       <path id="DejaVuSans-44" d="M 1259 4147 
L 1259 519 
L 2022 519 
Q 2988 519 3436 956 
Q 3884 1394 3884 2338 
Q 3884 3275 3436 3711 
Q 2988 4147 2022 4147 
L 1259 4147 
z
M 628 4666 
L 1925 4666 
Q 3281 4666 3915 4102 
Q 4550 3538 4550 2338 
Q 4550 1131 3912 565 
Q 3275 0 1925 0 
L 628 0 
L 628 4666 
z
" transform="scale(0.015625)"/>
       <path id="DejaVuSans-70" d="M 1159 525 
L 1159 -1331 
L 581 -1331 
L 581 3500 
L 1159 3500 
L 1159 2969 
Q 1341 3281 1617 3432 
Q 1894 3584 2278 3584 
Q 2916 3584 3314 3078 
Q 3713 2572 3713 1747 
Q 3713 922 3314 415 
Q 2916 -91 2278 -91 
Q 1894 -91 1617 61 
Q 1341 213 1159 525 
z
M 3116 1747 
Q 3116 2381 2855 2742 
Q 2594 3103 2138 3103 
Q 1681 3103 1420 2742 
Q 1159 2381 1159 1747 
Q 1159 1113 1420 752 
Q 1681 391 2138 391 
Q 2594 391 2855 752 
Q 3116 1113 3116 1747 
z
" transform="scale(0.015625)"/>
       <path id="DejaVuSans-6c" d="M 603 4863 
L 1178 4863 
L 1178 0 
L 603 0 
L 603 4863 
z
" transform="scale(0.015625)"/>
       <path id="DejaVuSans-63" d="M 3122 3366 
L 3122 2828 
Q 2878 2963 2633 3030 
Q 2388 3097 2138 3097 
Q 1578 3097 1268 2742 
Q 959 2388 959 1747 
Q 959 1106 1268 751 
Q 1578 397 2138 397 
Q 2388 397 2633 464 
Q 2878 531 3122 666 
L 3122 134 
Q 2881 22 2623 -34 
Q 2366 -91 2075 -91 
Q 1284 -91 818 406 
Q 353 903 353 1747 
Q 353 2603 823 3093 
Q 1294 3584 2113 3584 
Q 2378 3584 2631 3529 
Q 2884 3475 3122 3366 
z
" transform="scale(0.015625)"/>
       <path id="DejaVuSans-6e" d="M 3513 2113 
L 3513 0 
L 2938 0 
L 2938 2094 
Q 2938 2591 2744 2837 
Q 2550 3084 2163 3084 
Q 1697 3084 1428 2787 
Q 1159 2491 1159 1978 
L 1159 0 
L 581 0 
L 581 3500 
L 1159 3500 
L 1159 2956 
Q 1366 3272 1645 3428 
Q 1925 3584 2291 3584 
Q 2894 3584 3203 3211 
Q 3513 2838 3513 2113 
z
" transform="scale(0.015625)"/>
       <path id="DejaVuSans-74" d="M 1172 4494 
L 1172 3500 
L 2356 3500 
L 2356 3053 
L 1172 3053 
L 1172 1153 
Q 1172 725 1289 603 
Q 1406 481 1766 481 
L 2356 481 
L 2356 0 
L 1766 0 
Q 1100 0 847 248 
Q 594 497 594 1153 
L 594 3053 
L 172 3053 
L 172 3500 
L 594 3500 
L 594 4494 
L 1172 4494 
z
" transform="scale(0.015625)"/>
      </defs>
      <use xlink:href="#DejaVuSans-42"/>
      <use xlink:href="#DejaVuSans-61" x="68.603516"/>
      <use xlink:href="#DejaVuSans-73" x="129.882812"/>
      <use xlink:href="#DejaVuSans-65" x="181.982422"/>
      <use xlink:href="#DejaVuSans-20" x="243.505859"/>
      <use xlink:href="#DejaVuSans-44" x="275.292969"/>
      <use xlink:href="#DejaVuSans-69" x="352.294922"/>
      <use xlink:href="#DejaVuSans-73" x="380.078125"/>
      <use xlink:href="#DejaVuSans-70" x="432.177734"/>
      <use xlink:href="#DejaVuSans-6c" x="495.654297"/>
      <use xlink:href="#DejaVuSans-61" x="523.4375"/>
      <use xlink:href="#DejaVuSans-63" x="584.716797"/>
      <use xlink:href="#DejaVuSans-65" x="639.697266"/>
      <use xlink:href="#DejaVuSans-6d" x="701.220703"/>
      <use xlink:href="#DejaVuSans-65" x="798.632812"/>
      <use xlink:href="#DejaVuSans-6e" x="860.15625"/>
      <use xlink:href="#DejaVuSans-74" x="923.535156"/>
     </g>
    </g>
   </g>
   <g id="line2d_137">
    <path d="M 111.092045 333.208272 
L 233.465054 333.199204 
L 234.018778 333.319151 
L 234.572502 333.688099 
L 236.233674 335.331631 
L 237.894846 336.447336 
L 238.44857 337.109005 
L 239.556018 339.146049 
L 241.770914 343.511526 
L 242.324638 344.548061 
L 242.878362 345.315428 
L 243.432086 345.524881 
L 244.539534 345.491761 
L 245.093258 345.217672 
L 247.308154 343.028804 
L 247.861878 341.949502 
L 250.076774 336.636534 
L 251.737947 333.110351 
L 252.291671 332.250625 
L 252.845395 331.886261 
L 254.506567 331.930987 
L 255.060291 332.259664 
L 255.614015 332.975307 
L 256.167739 334.054588 
L 257.275187 337.271208 
L 257.828911 338.933225 
L 258.382635 340.080679 
L 258.936359 340.540458 
L 262.812427 340.543719 
L 263.366151 340.427869 
L 263.919875 339.815707 
L 265.027323 337.4106 
L 266.134771 335.111446 
L 267.242219 333.34546 
L 269.457115 330.948099 
L 270.010839 330.829658 
L 271.672011 330.9113 
L 272.225735 331.14021 
L 273.333183 331.241796 
L 273.886907 331.246698 
L 274.440631 331.367405 
L 274.994355 331.79863 
L 276.101803 332.970665 
L 276.655527 333.27597 
L 279.977872 333.291713 
L 299.358212 333.14524 
L 299.911936 332.889982 
L 300.46566 332.453122 
L 301.019384 332.194816 
L 304.895452 332.121853 
L 305.449176 332.002342 
L 309.878969 331.879133 
L 311.540141 331.834682 
L 323.722069 331.870465 
L 324.275793 332.296791 
L 324.829517 333.153559 
L 326.490689 336.562039 
L 327.598137 339.489921 
L 328.705585 341.81846 
L 329.813033 343.551909 
L 330.366757 344.395234 
L 332.027929 348.088537 
L 332.581653 348.557368 
L 334.242826 348.60004 
L 335.350274 348.591183 
L 335.903998 348.186821 
L 336.457722 346.797362 
L 337.56517 342.808469 
L 338.118894 341.741848 
L 338.672618 341.182005 
L 339.226342 340.858829 
L 340.887514 340.803459 
L 341.441238 340.855036 
L 341.994962 341.344469 
L 343.10241 343.186182 
L 344.209858 343.297106 
L 351.961994 343.365503 
L 352.515718 343.515062 
L 353.623166 343.511774 
L 354.17689 343.298434 
L 354.730614 342.963578 
L 355.284338 342.852372 
L 355.838062 342.865068 
L 356.94551 343.257388 
L 359.71413 343.277786 
L 360.821579 343.359196 
L 361.375303 342.999381 
L 361.929027 341.662206 
L 363.590199 335.953544 
L 364.143923 335.551403 
L 364.697647 335.557124 
L 365.251371 335.760048 
L 366.358819 336.93104 
L 367.466267 337.62446 
L 368.019991 338.297449 
L 368.573715 339.24947 
L 369.127439 339.890143 
L 370.788611 339.941018 
L 371.896059 340.001591 
L 372.449783 340.599022 
L 373.557231 342.664531 
L 374.110955 343.168882 
L 375.772127 343.357035 
L 376.325851 343.664508 
L 376.879575 344.188027 
L 377.987023 345.888966 
L 378.540747 346.022306 
L 379.648195 345.998967 
L 381.863091 345.353376 
L 382.416815 344.664534 
L 382.970539 343.078277 
L 384.631711 337.037175 
L 385.185435 335.839063 
L 385.739159 335.654166 
L 386.846607 335.600867 
L 387.954055 334.133485 
L 388.50778 334.216565 
L 389.061504 335.854105 
L 389.615228 339.657343 
L 390.722676 352.225333 
L 391.2764 358.788501 
L 392.383848 368.198667 
L 393.491296 378.492565 
L 394.598744 390.671222 
L 395.706192 404.741339 
L 396.259916 409.837069 
L 396.81364 412.798916 
L 397.367364 413.423833 
L 397.921088 412.460351 
L 398.474812 409.502005 
L 399.028536 404.597742 
L 400.135984 390.344604 
L 402.35088 355.488499 
L 402.904604 348.973659 
L 403.458328 344.116388 
L 404.012052 341.599353 
L 404.565776 341.583443 
L 405.1195 343.720007 
L 406.226948 351.945069 
L 406.780672 354.55157 
L 407.334396 355.067671 
L 407.88812 354.233619 
L 408.441844 351.645121 
L 408.995568 348.017618 
L 409.549292 345.421734 
L 410.103016 345.42045 
L 411.210464 348.741656 
L 411.764188 349.129183 
L 412.317912 348.048415 
L 412.871636 344.368241 
L 413.42536 338.338485 
L 414.532808 322.770604 
L 416.193981 294.695969 
L 416.747705 289.205752 
L 417.301429 287.421041 
L 417.855153 287.386943 
L 418.408877 287.16789 
L 418.962601 285.314084 
L 419.516325 281.227951 
L 420.623773 268.126048 
L 422.284945 244.537201 
L 423.392393 225.358543 
L 425.607289 181.668538 
L 427.268461 155.215947 
L 428.375909 141.125885 
L 431.144529 109.601702 
L 433.913149 83.71945 
L 435.020597 75.12432 
L 435.574321 72.683832 
L 436.128045 71.186699 
L 436.681769 70.212979 
L 437.235493 69.728057 
L 437.789217 69.405608 
L 438.342941 68.672534 
L 438.896665 67.267039 
L 439.450389 65.207227 
L 440.557837 59.212343 
L 441.111561 56.067719 
L 441.665285 53.891968 
L 442.219009 53.115759 
L 443.880182 53.129955 
L 444.433906 52.834828 
L 444.98763 51.586074 
L 446.095078 47.550189 
L 446.648802 46.015505 
L 447.202526 44.901145 
L 447.75625 44.4375 
L 448.309974 44.531139 
L 448.863698 45.6309 
L 449.417422 48.158492 
L 449.971146 51.840755 
L 451.078594 61.561553 
L 452.739766 77.845873 
L 454.400938 91.894241 
L 455.508386 103.416925 
L 456.615834 115.584148 
L 457.169558 120.108143 
L 457.723282 122.557795 
L 458.277006 123.066947 
L 459.384454 123.025641 
L 459.938178 122.671815 
L 460.491902 121.888931 
L 461.045626 120.769216 
L 461.59935 119.110563 
L 462.706798 114.950568 
L 463.260522 114.675904 
L 463.814246 115.439447 
L 464.36797 116.59914 
L 464.921694 116.925107 
L 465.475418 116.534473 
L 466.029142 114.819909 
L 467.13659 109.491656 
L 467.690314 108.352185 
L 468.244038 108.432164 
L 468.797762 109.260134 
L 469.351486 111.088654 
L 470.458934 115.755007 
L 471.566383 119.198115 
L 472.120107 122.043309 
L 475.442451 142.384308 
L 477.657347 153.871427 
L 478.764795 161.547728 
L 479.318519 164.569793 
L 479.872243 166.442642 
L 480.425967 167.004573 
L 480.979691 166.996724 
L 481.533415 166.814444 
L 482.640863 166.163122 
L 483.748311 166.059992 
L 484.302035 165.105531 
L 484.855759 162.44686 
L 486.516931 150.30736 
L 487.070655 148.559687 
L 487.624379 148.339663 
L 488.178103 148.408133 
L 488.731827 148.837542 
L 489.285551 149.587315 
L 489.839275 150.864355 
L 490.392999 153.528719 
L 490.946723 157.938094 
L 492.054171 169.5065 
L 493.715343 190.284255 
L 494.822791 205.317191 
L 495.930239 223.292833 
L 498.145135 261.698702 
L 500.913756 302.890344 
L 503.128652 345.153322 
L 506.450996 411.037841 
L 507.558444 427.462537 
L 511.988236 487.345667 
L 512.54196 492.255419 
L 513.095684 495.702176 
L 513.649408 497.332566 
L 514.203132 497.498424 
L 515.31058 497.595117 
L 515.864304 497.740713 
L 518.632924 497.760051 
L 519.186648 497.970384 
L 519.740372 498.0375 
L 520.294096 497.846013 
L 520.84782 496.662625 
L 521.955268 493.520813 
L 522.508992 492.806539 
L 523.062716 492.688175 
L 524.723888 492.679136 
L 525.277612 492.031887 
L 525.831336 490.07164 
L 526.385061 487.527063 
L 526.938785 485.782587 
L 527.492509 485.474551 
L 528.046233 485.530154 
L 528.599957 485.918978 
L 529.153681 486.565987 
L 529.707405 486.772727 
L 530.261129 486.619017 
L 530.814853 485.968187 
L 531.368577 485.61211 
L 531.922301 485.631621 
L 532.476025 485.884921 
L 533.029749 486.007583 
L 533.583473 485.987325 
L 534.137197 485.548906 
L 535.244645 483.71301 
L 535.798369 483.296769 
L 538.013265 483.260824 
L 540.781885 483.227173 
L 541.335609 482.957819 
L 541.889333 482.217613 
L 542.443057 481.037676 
L 542.996781 479.467791 
L 543.550505 477.401769 
L 544.104229 474.639909 
L 544.657953 471.026957 
L 545.765401 461.77295 
L 546.872849 452.4017 
L 547.426573 448.623125 
L 547.980297 445.933466 
L 549.087745 442.666755 
L 549.641469 441.422031 
L 550.195193 441.006982 
L 556.286158 441.100657 
L 556.839882 440.879127 
L 557.94733 440.804396 
L 562.377122 441.045832 
L 565.699466 441.060242 
L 569.02181 441.025646 
L 569.575534 440.87327 
L 571.236706 439.704662 
L 576.220222 439.708908 
L 576.773946 439.942219 
L 577.32767 440.379458 
L 577.881394 440.493994 
L 578.988842 440.457756 
L 580.09629 440.023745 
L 585.633531 439.973879 
L 586.187255 440.0579 
L 586.740979 440.321381 
L 587.294703 440.459129 
L 590.617047 440.53778 
L 592.278219 441.016088 
L 596.154287 441.012094 
L 600.030355 440.974921 
L 600.584079 440.586663 
L 602.245251 438.091858 
L 602.798975 437.942051 
L 615.534628 437.828121 
L 616.088352 437.750558 
L 616.642076 437.475971 
L 617.749524 436.699878 
L 619.410696 436.701248 
L 620.518144 436.787497 
L 622.179316 436.809763 
L 622.73304 437.21163 
L 623.286764 438.255925 
L 624.394212 441.513423 
L 625.50166 445.473568 
L 627.162832 452.352637 
L 628.27028 458.502869 
L 629.377728 465.333326 
L 631.0389 473.459354 
L 631.592624 475.892187 
L 632.146348 477.745963 
L 632.700072 478.642722 
L 633.80752 478.704191 
L 635.468692 478.792038 
L 636.57614 479.784837 
L 637.683589 479.831187 
L 639.344761 479.487743 
L 641.559657 479.486001 
L 643.220829 479.092337 
L 645.435725 479.115719 
L 645.989449 479.581197 
L 647.650621 482.386418 
L 648.204345 482.981594 
L 649.311793 483.080267 
L 651.526689 483.060243 
L 652.080413 483.361589 
L 652.634137 484.428682 
L 653.741585 487.475109 
L 654.295309 488.584663 
L 654.849033 489.146499 
L 655.402757 489.157774 
L 655.956481 488.986505 
L 657.063929 488.000956 
L 659.832549 487.984146 
L 663.154893 487.89278 
L 664.262342 487.445768 
L 666.477238 487.41498 
L 667.030962 487.768254 
L 667.584686 488.921896 
L 668.692134 491.733793 
L 669.245858 492.296148 
L 671.460754 492.314478 
L 673.67565 492.297209 
L 674.229374 491.737718 
L 674.783098 490.678905 
L 675.336822 489.961677 
L 676.44427 489.891483 
L 678.105442 489.807786 
L 678.659166 488.818731 
L 680.320338 483.298892 
L 680.874062 482.321372 
L 681.427786 481.675722 
L 681.98151 481.404604 
L 683.088958 481.367549 
L 683.642682 481.120306 
L 684.75013 480.126357 
L 685.303854 479.957848 
L 694.163439 479.888551 
L 694.717163 479.650598 
L 696.932059 479.620923 
L 699.146955 479.700913 
L 700.254403 479.816826 
L 705.791643 479.867606 
L 706.899091 479.950505 
L 710.221435 479.881073 
L 711.328883 479.503129 
L 712.990055 479.554129 
L 714.097503 479.736997 
L 715.204951 479.695554 
L 715.758675 479.443313 
L 716.312399 479.317235 
L 725.725708 479.28142 
L 727.940604 479.050066 
L 728.494328 479.300075 
L 730.1555 481.541284 
L 732.370396 481.564283 
L 732.92412 481.790283 
L 733.477844 482.537539 
L 734.585292 484.651154 
L 735.139016 485.424861 
L 735.69274 485.946987 
L 736.246464 486.074422 
L 738.46136 486.07864 
L 739.015084 486.245797 
L 740.122532 487.285983 
L 740.676256 487.575755 
L 741.783704 487.645935 
L 742.891152 487.609051 
L 743.9986 487.205732 
L 746.76722 487.171632 
L 747.320945 486.975408 
L 748.428393 486.091327 
L 748.982117 485.894616 
L 752.858185 485.955082 
L 754.519357 486.141844 
L 756.180529 486.136467 
L 756.734253 486.280535 
L 757.287977 486.939301 
L 760.056597 491.945378 
L 760.610321 492.608582 
L 761.164045 492.859897 
L 766.701285 492.80353 
L 789.957694 492.676116 
L 791.065142 492.11563 
L 791.618866 491.776406 
L 792.17259 491.593421 
L 795.494934 491.488555 
L 796.048658 491.026254 
L 797.156106 489.951072 
L 797.70983 489.659898 
L 798.263554 489.504075 
L 804.908243 489.456425 
L 864.156713 489.548256 
L 866.371609 489.597911 
L 888.52057 489.598499 
L 940.570628 489.410702 
L 964.38076 489.424546 
L 1024.182955 489.427604 
L 1024.182955 489.427604 
" clip-path="url(#p1741b1d920)" style="fill: none; stroke: #0c5da5; stroke-width: 2; stroke-linecap: square"/>
   </g>
   <g id="patch_3">
    <path d="M 65.4375 520.7175 
L 65.4375 21.7575 
" style="fill: none; stroke: #000000; stroke-linejoin: miter; stroke-linecap: square"/>
   </g>
   <g id="patch_4">
    <path d="M 1069.8375 520.7175 
L 1069.8375 21.7575 
" style="fill: none; stroke: #000000; stroke-linejoin: miter; stroke-linecap: square"/>
   </g>
   <g id="patch_5">
    <path d="M 65.4375 520.7175 
L 1069.8375 520.7175 
" style="fill: none; stroke: #000000; stroke-linejoin: miter; stroke-linecap: square"/>
   </g>
   <g id="patch_6">
    <path d="M 65.4375 21.7575 
L 1069.8375 21.7575 
" style="fill: none; stroke: #000000; stroke-linejoin: miter; stroke-linecap: square"/>
   </g>
   <g id="text_15">
    <!-- Tabas_ Iran Record no. 143 -->
    <g transform="translate(459.94875 15.7575) scale(0.16 -0.16)">
     <defs>
      <path id="DejaVuSans-62" d="M 3116 1747 
Q 3116 2381 2855 2742 
Q 2594 3103 2138 3103 
Q 1681 3103 1420 2742 
Q 1159 2381 1159 1747 
Q 1159 1113 1420 752 
Q 1681 391 2138 391 
Q 2594 391 2855 752 
Q 3116 1113 3116 1747 
z
M 1159 2969 
Q 1341 3281 1617 3432 
Q 1894 3584 2278 3584 
Q 2916 3584 3314 3078 
Q 3713 2572 3713 1747 
Q 3713 922 3314 415 
Q 2916 -91 2278 -91 
Q 1894 -91 1617 61 
Q 1341 213 1159 525 
L 1159 0 
L 581 0 
L 581 4863 
L 1159 4863 
L 1159 2969 
z
" transform="scale(0.015625)"/>
      <path id="DejaVuSans-5f" d="M 3263 -1063 
L 3263 -1509 
L -63 -1509 
L -63 -1063 
L 3263 -1063 
z
" transform="scale(0.015625)"/>
      <path id="DejaVuSans-49" d="M 628 4666 
L 1259 4666 
L 1259 0 
L 628 0 
L 628 4666 
z
" transform="scale(0.015625)"/>
      <path id="DejaVuSans-72" d="M 2631 2963 
Q 2534 3019 2420 3045 
Q 2306 3072 2169 3072 
Q 1681 3072 1420 2755 
Q 1159 2438 1159 1844 
L 1159 0 
L 581 0 
L 581 3500 
L 1159 3500 
L 1159 2956 
Q 1341 3275 1631 3429 
Q 1922 3584 2338 3584 
Q 2397 3584 2469 3576 
Q 2541 3569 2628 3553 
L 2631 2963 
z
" transform="scale(0.015625)"/>
      <path id="DejaVuSans-52" d="M 2841 2188 
Q 3044 2119 3236 1894 
Q 3428 1669 3622 1275 
L 4263 0 
L 3584 0 
L 2988 1197 
Q 2756 1666 2539 1819 
Q 2322 1972 1947 1972 
L 1259 1972 
L 1259 0 
L 628 0 
L 628 4666 
L 2053 4666 
Q 2853 4666 3247 4331 
Q 3641 3997 3641 3322 
Q 3641 2881 3436 2590 
Q 3231 2300 2841 2188 
z
M 1259 4147 
L 1259 2491 
L 2053 2491 
Q 2509 2491 2742 2702 
Q 2975 2913 2975 3322 
Q 2975 3731 2742 3939 
Q 2509 4147 2053 4147 
L 1259 4147 
z
" transform="scale(0.015625)"/>
      <path id="DejaVuSans-6f" d="M 1959 3097 
Q 1497 3097 1228 2736 
Q 959 2375 959 1747 
Q 959 1119 1226 758 
Q 1494 397 1959 397 
Q 2419 397 2687 759 
Q 2956 1122 2956 1747 
Q 2956 2369 2687 2733 
Q 2419 3097 1959 3097 
z
M 1959 3584 
Q 2709 3584 3137 3096 
Q 3566 2609 3566 1747 
Q 3566 888 3137 398 
Q 2709 -91 1959 -91 
Q 1206 -91 779 398 
Q 353 888 353 1747 
Q 353 2609 779 3096 
Q 1206 3584 1959 3584 
z
" transform="scale(0.015625)"/>
      <path id="DejaVuSans-64" d="M 2906 2969 
L 2906 4863 
L 3481 4863 
L 3481 0 
L 2906 0 
L 2906 525 
Q 2725 213 2448 61 
Q 2172 -91 1784 -91 
Q 1150 -91 751 415 
Q 353 922 353 1747 
Q 353 2572 751 3078 
Q 1150 3584 1784 3584 
Q 2172 3584 2448 3432 
Q 2725 3281 2906 2969 
z
M 947 1747 
Q 947 1113 1208 752 
Q 1469 391 1925 391 
Q 2381 391 2643 752 
Q 2906 1113 2906 1747 
Q 2906 2381 2643 2742 
Q 2381 3103 1925 3103 
Q 1469 3103 1208 2742 
Q 947 2381 947 1747 
z
" transform="scale(0.015625)"/>
      <path id="DejaVuSans-34" d="M 2419 4116 
L 825 1625 
L 2419 1625 
L 2419 4116 
z
M 2253 4666 
L 3047 4666 
L 3047 1625 
L 3713 1625 
L 3713 1100 
L 3047 1100 
L 3047 0 
L 2419 0 
L 2419 1100 
L 313 1100 
L 313 1709 
L 2253 4666 
z
" transform="scale(0.015625)"/>
     </defs>
     <use xlink:href="#DejaVuSans-54"/>
     <use xlink:href="#DejaVuSans-61" x="44.583984"/>
     <use xlink:href="#DejaVuSans-62" x="105.863281"/>
     <use xlink:href="#DejaVuSans-61" x="169.339844"/>
     <use xlink:href="#DejaVuSans-73" x="230.619141"/>
     <use xlink:href="#DejaVuSans-5f" x="282.71875"/>
     <use xlink:href="#DejaVuSans-20" x="332.71875"/>
     <use xlink:href="#DejaVuSans-49" x="364.505859"/>
     <use xlink:href="#DejaVuSans-72" x="393.998047"/>
     <use xlink:href="#DejaVuSans-61" x="435.111328"/>
     <use xlink:href="#DejaVuSans-6e" x="496.390625"/>
     <use xlink:href="#DejaVuSans-20" x="559.769531"/>
     <use xlink:href="#DejaVuSans-52" x="591.556641"/>
     <use xlink:href="#DejaVuSans-65" x="656.539062"/>
     <use xlink:href="#DejaVuSans-63" x="718.0625"/>
     <use xlink:href="#DejaVuSans-6f" x="773.042969"/>
     <use xlink:href="#DejaVuSans-72" x="834.224609"/>
     <use xlink:href="#DejaVuSans-64" x="873.587891"/>
     <use xlink:href="#DejaVuSans-20" x="937.064453"/>
     <use xlink:href="#DejaVuSans-6e" x="968.851562"/>
     <use xlink:href="#DejaVuSans-6f" x="1032.230469"/>
     <use xlink:href="#DejaVuSans-2e" x="1091.662109"/>
     <use xlink:href="#DejaVuSans-20" x="1123.449219"/>
     <use xlink:href="#DejaVuSans-31" x="1155.236328"/>
     <use xlink:href="#DejaVuSans-34" x="1218.859375"/>
     <use xlink:href="#DejaVuSans-33" x="1282.482422"/>
    </g>
   </g>
   <g id="legend_1">
    <g id="patch_7">
     <path d="M 698.425 58.0425 
L 1058.6375 58.0425 
Q 1061.8375 58.0425 1061.8375 54.8425 
L 1061.8375 32.9575 
Q 1061.8375 29.7575 1058.6375 29.7575 
L 698.425 29.7575 
Q 695.225 29.7575 695.225 32.9575 
L 695.225 54.8425 
Q 695.225 58.0425 698.425 58.0425 
z
" style="fill: #ffffff; stroke: #cccccc; stroke-linejoin: miter"/>
    </g>
    <g id="line2d_138">
     <path d="M 701.625 42.715 
L 717.625 42.715 
L 733.625 42.715 
" style="fill: none; stroke: #0c5da5; stroke-width: 2; stroke-linecap: square"/>
    </g>
    <g id="text_16">
     <!-- Residual Displacement = -0.165661 m -->
     <g transform="translate(746.425 48.315) scale(0.16 -0.16)">
      <defs>
       <path id="DejaVuSans-75" d="M 544 1381 
L 544 3500 
L 1119 3500 
L 1119 1403 
Q 1119 906 1312 657 
Q 1506 409 1894 409 
Q 2359 409 2629 706 
Q 2900 1003 2900 1516 
L 2900 3500 
L 3475 3500 
L 3475 0 
L 2900 0 
L 2900 538 
Q 2691 219 2414 64 
Q 2138 -91 1772 -91 
Q 1169 -91 856 284 
Q 544 659 544 1381 
z
M 1991 3584 
L 1991 3584 
z
" transform="scale(0.015625)"/>
       <path id="DejaVuSans-3d" d="M 678 2906 
L 4684 2906 
L 4684 2381 
L 678 2381 
L 678 2906 
z
M 678 1631 
L 4684 1631 
L 4684 1100 
L 678 1100 
L 678 1631 
z
" transform="scale(0.015625)"/>
       <path id="DejaVuSans-2d" d="M 313 2009 
L 1997 2009 
L 1997 1497 
L 313 1497 
L 313 2009 
z
" transform="scale(0.015625)"/>
       <path id="DejaVuSans-36" d="M 2113 2584 
Q 1688 2584 1439 2293 
Q 1191 2003 1191 1497 
Q 1191 994 1439 701 
Q 1688 409 2113 409 
Q 2538 409 2786 701 
Q 3034 994 3034 1497 
Q 3034 2003 2786 2293 
Q 2538 2584 2113 2584 
z
M 3366 4563 
L 3366 3988 
Q 3128 4100 2886 4159 
Q 2644 4219 2406 4219 
Q 1781 4219 1451 3797 
Q 1122 3375 1075 2522 
Q 1259 2794 1537 2939 
Q 1816 3084 2150 3084 
Q 2853 3084 3261 2657 
Q 3669 2231 3669 1497 
Q 3669 778 3244 343 
Q 2819 -91 2113 -91 
Q 1303 -91 875 529 
Q 447 1150 447 2328 
Q 447 3434 972 4092 
Q 1497 4750 2381 4750 
Q 2619 4750 2861 4703 
Q 3103 4656 3366 4563 
z
" transform="scale(0.015625)"/>
      </defs>
      <use xlink:href="#DejaVuSans-52"/>
      <use xlink:href="#DejaVuSans-65" x="64.982422"/>
      <use xlink:href="#DejaVuSans-73" x="126.505859"/>
      <use xlink:href="#DejaVuSans-69" x="178.605469"/>
      <use xlink:href="#DejaVuSans-64" x="206.388672"/>
      <use xlink:href="#DejaVuSans-75" x="269.865234"/>
      <use xlink:href="#DejaVuSans-61" x="333.244141"/>
      <use xlink:href="#DejaVuSans-6c" x="394.523438"/>
      <use xlink:href="#DejaVuSans-20" x="422.306641"/>
      <use xlink:href="#DejaVuSans-44" x="454.09375"/>
      <use xlink:href="#DejaVuSans-69" x="531.095703"/>
      <use xlink:href="#DejaVuSans-73" x="558.878906"/>
      <use xlink:href="#DejaVuSans-70" x="610.978516"/>
      <use xlink:href="#DejaVuSans-6c" x="674.455078"/>
      <use xlink:href="#DejaVuSans-61" x="702.238281"/>
      <use xlink:href="#DejaVuSans-63" x="763.517578"/>
      <use xlink:href="#DejaVuSans-65" x="818.498047"/>
      <use xlink:href="#DejaVuSans-6d" x="880.021484"/>
      <use xlink:href="#DejaVuSans-65" x="977.433594"/>
      <use xlink:href="#DejaVuSans-6e" x="1038.957031"/>
      <use xlink:href="#DejaVuSans-74" x="1102.335938"/>
      <use xlink:href="#DejaVuSans-20" x="1141.544922"/>
      <use xlink:href="#DejaVuSans-3d" x="1173.332031"/>
      <use xlink:href="#DejaVuSans-20" x="1257.121094"/>
      <use xlink:href="#DejaVuSans-2d" x="1288.908203"/>
      <use xlink:href="#DejaVuSans-30" x="1324.992188"/>
      <use xlink:href="#DejaVuSans-2e" x="1388.615234"/>
      <use xlink:href="#DejaVuSans-31" x="1420.402344"/>
      <use xlink:href="#DejaVuSans-36" x="1484.025391"/>
      <use xlink:href="#DejaVuSans-35" x="1547.648438"/>
      <use xlink:href="#DejaVuSans-36" x="1611.271484"/>
      <use xlink:href="#DejaVuSans-36" x="1674.894531"/>
      <use xlink:href="#DejaVuSans-31" x="1738.517578"/>
      <use xlink:href="#DejaVuSans-20" x="1802.140625"/>
      <use xlink:href="#DejaVuSans-6d" x="1833.927734"/>
     </g>
    </g>
   </g>
  </g>
 </g>
 <defs>
  <clipPath id="p1741b1d920">
   <rect x="65.4375" y="21.7575" width="1004.4" height="498.96"/>
  </clipPath>
 </defs>
</svg>
