<?xml version="1.0" encoding="utf-8" standalone="no"?>
<!DOCTYPE svg PUBLIC "-//W3C//DTD SVG 1.1//EN"
  "http://www.w3.org/Graphics/SVG/1.1/DTD/svg11.dtd">
<svg xmlns:xlink="http://www.w3.org/1999/xlink" width="1065.125pt" height="562.7875pt" viewBox="0 0 1065.125 562.7875" xmlns="http://www.w3.org/2000/svg" version="1.1">
 <metadata>
  <rdf:RDF xmlns:dc="http://purl.org/dc/elements/1.1/" xmlns:cc="http://creativecommons.org/ns#" xmlns:rdf="http://www.w3.org/1999/02/22-rdf-syntax-ns#">
   <cc:Work>
    <dc:type rdf:resource="http://purl.org/dc/dcmitype/StillImage"/>
    <dc:date>2023-06-06T08:22:33.680932</dc:date>
    <dc:format>image/svg+xml</dc:format>
    <dc:creator>
     <cc:Agent>
      <dc:title>Matplotlib v3.7.1, https://matplotlib.org/</dc:title>
     </cc:Agent>
    </dc:creator>
   </cc:Work>
  </rdf:RDF>
 </metadata>
 <defs>
  <style type="text/css">*{stroke-linejoin: round; stroke-linecap: butt}</style>
 </defs>
 <g id="figure_1">
  <g id="patch_1">
   <path d="M 0 562.7875 
L 1065.125 562.7875 
L 1065.125 0 
L 0 0 
z
" style="fill: #ffffff"/>
  </g>
  <g id="axes_1">
   <g id="patch_2">
    <path d="M 57.125 520.7175 
L 1061.525 520.7175 
L 1061.525 21.7575 
L 57.125 21.7575 
z
" style="fill: #ffffff"/>
   </g>
   <g id="matplotlib.axis_1">
    <g id="xtick_1">
     <g id="line2d_1">
      <path d="M 265.146549 520.7175 
L 265.146549 21.7575 
" clip-path="url(#p658ec6656f)" style="fill: none; stroke-dasharray: 1.85,0.8; stroke-dashoffset: 0; stroke: #000000; stroke-opacity: 0.5; stroke-width: 0.5"/>
     </g>
     <g id="line2d_2">
      <defs>
       <path id="m83c1687372" d="M 0 0 
L 0 -6 
" style="stroke: #000000"/>
      </defs>
      <g>
       <use xlink:href="#m83c1687372" x="265.146549" y="520.7175" style="stroke: #000000"/>
      </g>
     </g>
     <g id="line2d_3">
      <defs>
       <path id="m5ebb95403b" d="M 0 0 
L 0 6 
" style="stroke: #000000"/>
      </defs>
      <g>
       <use xlink:href="#m5ebb95403b" x="265.146549" y="21.7575" style="stroke: #000000"/>
      </g>
     </g>
     <g id="text_1">
      <!-- $\mathdefault{10^{-1}}$ -->
      <g transform="translate(246.346549 536.375) scale(0.16 -0.16)">
       <defs>
        <path id="DejaVuSans-31" d="M 794 531 
L 1825 531 
L 1825 4091 
L 703 3866 
L 703 4441 
L 1819 4666 
L 2450 4666 
L 2450 531 
L 3481 531 
L 3481 0 
L 794 0 
L 794 531 
z
" transform="scale(0.015625)"/>
        <path id="DejaVuSans-30" d="M 2034 4250 
Q 1547 4250 1301 3770 
Q 1056 3291 1056 2328 
Q 1056 1369 1301 889 
Q 1547 409 2034 409 
Q 2525 409 2770 889 
Q 3016 1369 3016 2328 
Q 3016 3291 2770 3770 
Q 2525 4250 2034 4250 
z
M 2034 4750 
Q 2819 4750 3233 4129 
Q 3647 3509 3647 2328 
Q 3647 1150 3233 529 
Q 2819 -91 2034 -91 
Q 1250 -91 836 529 
Q 422 1150 422 2328 
Q 422 3509 836 4129 
Q 1250 4750 2034 4750 
z
" transform="scale(0.015625)"/>
        <path id="DejaVuSans-2212" d="M 678 2272 
L 4684 2272 
L 4684 1741 
L 678 1741 
L 678 2272 
z
" transform="scale(0.015625)"/>
       </defs>
       <use xlink:href="#DejaVuSans-31" transform="translate(0 0.684375)"/>
       <use xlink:href="#DejaVuSans-30" transform="translate(63.623047 0.684375)"/>
       <use xlink:href="#DejaVuSans-2212" transform="translate(128.203125 38.965625) scale(0.7)"/>
       <use xlink:href="#DejaVuSans-31" transform="translate(186.855469 38.965625) scale(0.7)"/>
      </g>
     </g>
    </g>
    <g id="xtick_2">
     <g id="line2d_4">
      <path d="M 578.285679 520.7175 
L 578.285679 21.7575 
" clip-path="url(#p658ec6656f)" style="fill: none; stroke-dasharray: 1.85,0.8; stroke-dashoffset: 0; stroke: #000000; stroke-opacity: 0.5; stroke-width: 0.5"/>
     </g>
     <g id="line2d_5">
      <g>
       <use xlink:href="#m83c1687372" x="578.285679" y="520.7175" style="stroke: #000000"/>
      </g>
     </g>
     <g id="line2d_6">
      <g>
       <use xlink:href="#m5ebb95403b" x="578.285679" y="21.7575" style="stroke: #000000"/>
      </g>
     </g>
     <g id="text_2">
      <!-- $\mathdefault{10^{0}}$ -->
      <g transform="translate(564.205679 536.375) scale(0.16 -0.16)">
       <use xlink:href="#DejaVuSans-31" transform="translate(0 0.765625)"/>
       <use xlink:href="#DejaVuSans-30" transform="translate(63.623047 0.765625)"/>
       <use xlink:href="#DejaVuSans-30" transform="translate(128.203125 39.046875) scale(0.7)"/>
      </g>
     </g>
    </g>
    <g id="xtick_3">
     <g id="line2d_7">
      <path d="M 891.424809 520.7175 
L 891.424809 21.7575 
" clip-path="url(#p658ec6656f)" style="fill: none; stroke-dasharray: 1.85,0.8; stroke-dashoffset: 0; stroke: #000000; stroke-opacity: 0.5; stroke-width: 0.5"/>
     </g>
     <g id="line2d_8">
      <g>
       <use xlink:href="#m83c1687372" x="891.424809" y="520.7175" style="stroke: #000000"/>
      </g>
     </g>
     <g id="line2d_9">
      <g>
       <use xlink:href="#m5ebb95403b" x="891.424809" y="21.7575" style="stroke: #000000"/>
      </g>
     </g>
     <g id="text_3">
      <!-- $\mathdefault{10^{1}}$ -->
      <g transform="translate(877.344809 536.375) scale(0.16 -0.16)">
       <use xlink:href="#DejaVuSans-31" transform="translate(0 0.684375)"/>
       <use xlink:href="#DejaVuSans-30" transform="translate(63.623047 0.684375)"/>
       <use xlink:href="#DejaVuSans-31" transform="translate(128.203125 38.965625) scale(0.7)"/>
      </g>
     </g>
    </g>
    <g id="xtick_4">
     <g id="line2d_10">
      <defs>
       <path id="m0dedd67d81" d="M 0 0 
L 0 -3 
" style="stroke: #000000"/>
      </defs>
      <g>
       <use xlink:href="#m0dedd67d81" x="101.412754" y="520.7175" style="stroke: #000000"/>
      </g>
     </g>
     <g id="line2d_11">
      <defs>
       <path id="m1589bd690d" d="M 0 0 
L 0 3 
" style="stroke: #000000"/>
      </defs>
      <g>
       <use xlink:href="#m1589bd690d" x="101.412754" y="21.7575" style="stroke: #000000"/>
      </g>
     </g>
    </g>
    <g id="xtick_5">
     <g id="line2d_12">
      <g>
       <use xlink:href="#m0dedd67d81" x="140.535961" y="520.7175" style="stroke: #000000"/>
      </g>
     </g>
     <g id="line2d_13">
      <g>
       <use xlink:href="#m1589bd690d" x="140.535961" y="21.7575" style="stroke: #000000"/>
      </g>
     </g>
    </g>
    <g id="xtick_6">
     <g id="line2d_14">
      <g>
       <use xlink:href="#m0dedd67d81" x="170.882278" y="520.7175" style="stroke: #000000"/>
      </g>
     </g>
     <g id="line2d_15">
      <g>
       <use xlink:href="#m1589bd690d" x="170.882278" y="21.7575" style="stroke: #000000"/>
      </g>
     </g>
    </g>
    <g id="xtick_7">
     <g id="line2d_16">
      <g>
       <use xlink:href="#m0dedd67d81" x="195.677025" y="520.7175" style="stroke: #000000"/>
      </g>
     </g>
     <g id="line2d_17">
      <g>
       <use xlink:href="#m1589bd690d" x="195.677025" y="21.7575" style="stroke: #000000"/>
      </g>
     </g>
    </g>
    <g id="xtick_8">
     <g id="line2d_18">
      <g>
       <use xlink:href="#m0dedd67d81" x="216.640684" y="520.7175" style="stroke: #000000"/>
      </g>
     </g>
     <g id="line2d_19">
      <g>
       <use xlink:href="#m1589bd690d" x="216.640684" y="21.7575" style="stroke: #000000"/>
      </g>
     </g>
    </g>
    <g id="xtick_9">
     <g id="line2d_20">
      <g>
       <use xlink:href="#m0dedd67d81" x="234.800232" y="520.7175" style="stroke: #000000"/>
      </g>
     </g>
     <g id="line2d_21">
      <g>
       <use xlink:href="#m1589bd690d" x="234.800232" y="21.7575" style="stroke: #000000"/>
      </g>
     </g>
    </g>
    <g id="xtick_10">
     <g id="line2d_22">
      <g>
       <use xlink:href="#m0dedd67d81" x="250.818089" y="520.7175" style="stroke: #000000"/>
      </g>
     </g>
     <g id="line2d_23">
      <g>
       <use xlink:href="#m1589bd690d" x="250.818089" y="21.7575" style="stroke: #000000"/>
      </g>
     </g>
    </g>
    <g id="xtick_11">
     <g id="line2d_24">
      <g>
       <use xlink:href="#m0dedd67d81" x="359.41082" y="520.7175" style="stroke: #000000"/>
      </g>
     </g>
     <g id="line2d_25">
      <g>
       <use xlink:href="#m1589bd690d" x="359.41082" y="21.7575" style="stroke: #000000"/>
      </g>
     </g>
    </g>
    <g id="xtick_12">
     <g id="line2d_26">
      <g>
       <use xlink:href="#m0dedd67d81" x="414.551884" y="520.7175" style="stroke: #000000"/>
      </g>
     </g>
     <g id="line2d_27">
      <g>
       <use xlink:href="#m1589bd690d" x="414.551884" y="21.7575" style="stroke: #000000"/>
      </g>
     </g>
    </g>
    <g id="xtick_13">
     <g id="line2d_28">
      <g>
       <use xlink:href="#m0dedd67d81" x="453.675091" y="520.7175" style="stroke: #000000"/>
      </g>
     </g>
     <g id="line2d_29">
      <g>
       <use xlink:href="#m1589bd690d" x="453.675091" y="21.7575" style="stroke: #000000"/>
      </g>
     </g>
    </g>
    <g id="xtick_14">
     <g id="line2d_30">
      <g>
       <use xlink:href="#m0dedd67d81" x="484.021408" y="520.7175" style="stroke: #000000"/>
      </g>
     </g>
     <g id="line2d_31">
      <g>
       <use xlink:href="#m1589bd690d" x="484.021408" y="21.7575" style="stroke: #000000"/>
      </g>
     </g>
    </g>
    <g id="xtick_15">
     <g id="line2d_32">
      <g>
       <use xlink:href="#m0dedd67d81" x="508.816155" y="520.7175" style="stroke: #000000"/>
      </g>
     </g>
     <g id="line2d_33">
      <g>
       <use xlink:href="#m1589bd690d" x="508.816155" y="21.7575" style="stroke: #000000"/>
      </g>
     </g>
    </g>
    <g id="xtick_16">
     <g id="line2d_34">
      <g>
       <use xlink:href="#m0dedd67d81" x="529.779814" y="520.7175" style="stroke: #000000"/>
      </g>
     </g>
     <g id="line2d_35">
      <g>
       <use xlink:href="#m1589bd690d" x="529.779814" y="21.7575" style="stroke: #000000"/>
      </g>
     </g>
    </g>
    <g id="xtick_17">
     <g id="line2d_36">
      <g>
       <use xlink:href="#m0dedd67d81" x="547.939362" y="520.7175" style="stroke: #000000"/>
      </g>
     </g>
     <g id="line2d_37">
      <g>
       <use xlink:href="#m1589bd690d" x="547.939362" y="21.7575" style="stroke: #000000"/>
      </g>
     </g>
    </g>
    <g id="xtick_18">
     <g id="line2d_38">
      <g>
       <use xlink:href="#m0dedd67d81" x="563.957218" y="520.7175" style="stroke: #000000"/>
      </g>
     </g>
     <g id="line2d_39">
      <g>
       <use xlink:href="#m1589bd690d" x="563.957218" y="21.7575" style="stroke: #000000"/>
      </g>
     </g>
    </g>
    <g id="xtick_19">
     <g id="line2d_40">
      <g>
       <use xlink:href="#m0dedd67d81" x="672.54995" y="520.7175" style="stroke: #000000"/>
      </g>
     </g>
     <g id="line2d_41">
      <g>
       <use xlink:href="#m1589bd690d" x="672.54995" y="21.7575" style="stroke: #000000"/>
      </g>
     </g>
    </g>
    <g id="xtick_20">
     <g id="line2d_42">
      <g>
       <use xlink:href="#m0dedd67d81" x="727.691013" y="520.7175" style="stroke: #000000"/>
      </g>
     </g>
     <g id="line2d_43">
      <g>
       <use xlink:href="#m1589bd690d" x="727.691013" y="21.7575" style="stroke: #000000"/>
      </g>
     </g>
    </g>
    <g id="xtick_21">
     <g id="line2d_44">
      <g>
       <use xlink:href="#m0dedd67d81" x="766.814221" y="520.7175" style="stroke: #000000"/>
      </g>
     </g>
     <g id="line2d_45">
      <g>
       <use xlink:href="#m1589bd690d" x="766.814221" y="21.7575" style="stroke: #000000"/>
      </g>
     </g>
    </g>
    <g id="xtick_22">
     <g id="line2d_46">
      <g>
       <use xlink:href="#m0dedd67d81" x="797.160538" y="520.7175" style="stroke: #000000"/>
      </g>
     </g>
     <g id="line2d_47">
      <g>
       <use xlink:href="#m1589bd690d" x="797.160538" y="21.7575" style="stroke: #000000"/>
      </g>
     </g>
    </g>
    <g id="xtick_23">
     <g id="line2d_48">
      <g>
       <use xlink:href="#m0dedd67d81" x="821.955284" y="520.7175" style="stroke: #000000"/>
      </g>
     </g>
     <g id="line2d_49">
      <g>
       <use xlink:href="#m1589bd690d" x="821.955284" y="21.7575" style="stroke: #000000"/>
      </g>
     </g>
    </g>
    <g id="xtick_24">
     <g id="line2d_50">
      <g>
       <use xlink:href="#m0dedd67d81" x="842.918944" y="520.7175" style="stroke: #000000"/>
      </g>
     </g>
     <g id="line2d_51">
      <g>
       <use xlink:href="#m1589bd690d" x="842.918944" y="21.7575" style="stroke: #000000"/>
      </g>
     </g>
    </g>
    <g id="xtick_25">
     <g id="line2d_52">
      <g>
       <use xlink:href="#m0dedd67d81" x="861.078491" y="520.7175" style="stroke: #000000"/>
      </g>
     </g>
     <g id="line2d_53">
      <g>
       <use xlink:href="#m1589bd690d" x="861.078491" y="21.7575" style="stroke: #000000"/>
      </g>
     </g>
    </g>
    <g id="xtick_26">
     <g id="line2d_54">
      <g>
       <use xlink:href="#m0dedd67d81" x="877.096348" y="520.7175" style="stroke: #000000"/>
      </g>
     </g>
     <g id="line2d_55">
      <g>
       <use xlink:href="#m1589bd690d" x="877.096348" y="21.7575" style="stroke: #000000"/>
      </g>
     </g>
    </g>
    <g id="xtick_27">
     <g id="line2d_56">
      <g>
       <use xlink:href="#m0dedd67d81" x="985.689079" y="520.7175" style="stroke: #000000"/>
      </g>
     </g>
     <g id="line2d_57">
      <g>
       <use xlink:href="#m1589bd690d" x="985.689079" y="21.7575" style="stroke: #000000"/>
      </g>
     </g>
    </g>
    <g id="xtick_28">
     <g id="line2d_58">
      <g>
       <use xlink:href="#m0dedd67d81" x="1040.830143" y="520.7175" style="stroke: #000000"/>
      </g>
     </g>
     <g id="line2d_59">
      <g>
       <use xlink:href="#m1589bd690d" x="1040.830143" y="21.7575" style="stroke: #000000"/>
      </g>
     </g>
    </g>
    <g id="text_4">
     <!-- Frequency (Hz) -->
     <g transform="translate(498.9975 555.86) scale(0.16 -0.16)">
      <defs>
       <path id="DejaVuSans-46" d="M 628 4666 
L 3309 4666 
L 3309 4134 
L 1259 4134 
L 1259 2759 
L 3109 2759 
L 3109 2228 
L 1259 2228 
L 1259 0 
L 628 0 
L 628 4666 
z
" transform="scale(0.015625)"/>
       <path id="DejaVuSans-72" d="M 2631 2963 
Q 2534 3019 2420 3045 
Q 2306 3072 2169 3072 
Q 1681 3072 1420 2755 
Q 1159 2438 1159 1844 
L 1159 0 
L 581 0 
L 581 3500 
L 1159 3500 
L 1159 2956 
Q 1341 3275 1631 3429 
Q 1922 3584 2338 3584 
Q 2397 3584 2469 3576 
Q 2541 3569 2628 3553 
L 2631 2963 
z
" transform="scale(0.015625)"/>
       <path id="DejaVuSans-65" d="M 3597 1894 
L 3597 1613 
L 953 1613 
Q 991 1019 1311 708 
Q 1631 397 2203 397 
Q 2534 397 2845 478 
Q 3156 559 3463 722 
L 3463 178 
Q 3153 47 2828 -22 
Q 2503 -91 2169 -91 
Q 1331 -91 842 396 
Q 353 884 353 1716 
Q 353 2575 817 3079 
Q 1281 3584 2069 3584 
Q 2775 3584 3186 3129 
Q 3597 2675 3597 1894 
z
M 3022 2063 
Q 3016 2534 2758 2815 
Q 2500 3097 2075 3097 
Q 1594 3097 1305 2825 
Q 1016 2553 972 2059 
L 3022 2063 
z
" transform="scale(0.015625)"/>
       <path id="DejaVuSans-71" d="M 947 1747 
Q 947 1113 1208 752 
Q 1469 391 1925 391 
Q 2381 391 2643 752 
Q 2906 1113 2906 1747 
Q 2906 2381 2643 2742 
Q 2381 3103 1925 3103 
Q 1469 3103 1208 2742 
Q 947 2381 947 1747 
z
M 2906 525 
Q 2725 213 2448 61 
Q 2172 -91 1784 -91 
Q 1150 -91 751 415 
Q 353 922 353 1747 
Q 353 2572 751 3078 
Q 1150 3584 1784 3584 
Q 2172 3584 2448 3432 
Q 2725 3281 2906 2969 
L 2906 3500 
L 3481 3500 
L 3481 -1331 
L 2906 -1331 
L 2906 525 
z
" transform="scale(0.015625)"/>
       <path id="DejaVuSans-75" d="M 544 1381 
L 544 3500 
L 1119 3500 
L 1119 1403 
Q 1119 906 1312 657 
Q 1506 409 1894 409 
Q 2359 409 2629 706 
Q 2900 1003 2900 1516 
L 2900 3500 
L 3475 3500 
L 3475 0 
L 2900 0 
L 2900 538 
Q 2691 219 2414 64 
Q 2138 -91 1772 -91 
Q 1169 -91 856 284 
Q 544 659 544 1381 
z
M 1991 3584 
L 1991 3584 
z
" transform="scale(0.015625)"/>
       <path id="DejaVuSans-6e" d="M 3513 2113 
L 3513 0 
L 2938 0 
L 2938 2094 
Q 2938 2591 2744 2837 
Q 2550 3084 2163 3084 
Q 1697 3084 1428 2787 
Q 1159 2491 1159 1978 
L 1159 0 
L 581 0 
L 581 3500 
L 1159 3500 
L 1159 2956 
Q 1366 3272 1645 3428 
Q 1925 3584 2291 3584 
Q 2894 3584 3203 3211 
Q 3513 2838 3513 2113 
z
" transform="scale(0.015625)"/>
       <path id="DejaVuSans-63" d="M 3122 3366 
L 3122 2828 
Q 2878 2963 2633 3030 
Q 2388 3097 2138 3097 
Q 1578 3097 1268 2742 
Q 959 2388 959 1747 
Q 959 1106 1268 751 
Q 1578 397 2138 397 
Q 2388 397 2633 464 
Q 2878 531 3122 666 
L 3122 134 
Q 2881 22 2623 -34 
Q 2366 -91 2075 -91 
Q 1284 -91 818 406 
Q 353 903 353 1747 
Q 353 2603 823 3093 
Q 1294 3584 2113 3584 
Q 2378 3584 2631 3529 
Q 2884 3475 3122 3366 
z
" transform="scale(0.015625)"/>
       <path id="DejaVuSans-79" d="M 2059 -325 
Q 1816 -950 1584 -1140 
Q 1353 -1331 966 -1331 
L 506 -1331 
L 506 -850 
L 844 -850 
Q 1081 -850 1212 -737 
Q 1344 -625 1503 -206 
L 1606 56 
L 191 3500 
L 800 3500 
L 1894 763 
L 2988 3500 
L 3597 3500 
L 2059 -325 
z
" transform="scale(0.015625)"/>
       <path id="DejaVuSans-20" transform="scale(0.015625)"/>
       <path id="DejaVuSans-28" d="M 1984 4856 
Q 1566 4138 1362 3434 
Q 1159 2731 1159 2009 
Q 1159 1288 1364 580 
Q 1569 -128 1984 -844 
L 1484 -844 
Q 1016 -109 783 600 
Q 550 1309 550 2009 
Q 550 2706 781 3412 
Q 1013 4119 1484 4856 
L 1984 4856 
z
" transform="scale(0.015625)"/>
       <path id="DejaVuSans-48" d="M 628 4666 
L 1259 4666 
L 1259 2753 
L 3553 2753 
L 3553 4666 
L 4184 4666 
L 4184 0 
L 3553 0 
L 3553 2222 
L 1259 2222 
L 1259 0 
L 628 0 
L 628 4666 
z
" transform="scale(0.015625)"/>
       <path id="DejaVuSans-7a" d="M 353 3500 
L 3084 3500 
L 3084 2975 
L 922 459 
L 3084 459 
L 3084 0 
L 275 0 
L 275 525 
L 2438 3041 
L 353 3041 
L 353 3500 
z
" transform="scale(0.015625)"/>
       <path id="DejaVuSans-29" d="M 513 4856 
L 1013 4856 
Q 1481 4119 1714 3412 
Q 1947 2706 1947 2009 
Q 1947 1309 1714 600 
Q 1481 -109 1013 -844 
L 513 -844 
Q 928 -128 1133 580 
Q 1338 1288 1338 2009 
Q 1338 2731 1133 3434 
Q 928 4138 513 4856 
z
" transform="scale(0.015625)"/>
      </defs>
      <use xlink:href="#DejaVuSans-46"/>
      <use xlink:href="#DejaVuSans-72" x="50.269531"/>
      <use xlink:href="#DejaVuSans-65" x="89.132812"/>
      <use xlink:href="#DejaVuSans-71" x="150.65625"/>
      <use xlink:href="#DejaVuSans-75" x="214.132812"/>
      <use xlink:href="#DejaVuSans-65" x="277.511719"/>
      <use xlink:href="#DejaVuSans-6e" x="339.035156"/>
      <use xlink:href="#DejaVuSans-63" x="402.414062"/>
      <use xlink:href="#DejaVuSans-79" x="457.394531"/>
      <use xlink:href="#DejaVuSans-20" x="516.574219"/>
      <use xlink:href="#DejaVuSans-28" x="548.361328"/>
      <use xlink:href="#DejaVuSans-48" x="587.375"/>
      <use xlink:href="#DejaVuSans-7a" x="662.570312"/>
      <use xlink:href="#DejaVuSans-29" x="715.060547"/>
     </g>
    </g>
   </g>
   <g id="matplotlib.axis_2">
    <g id="ytick_1">
     <g id="line2d_60">
      <path d="M 57.125 498.058976 
L 1061.525 498.058976 
" clip-path="url(#p658ec6656f)" style="fill: none; stroke-dasharray: 1.85,0.8; stroke-dashoffset: 0; stroke: #000000; stroke-opacity: 0.5; stroke-width: 0.5"/>
     </g>
     <g id="line2d_61">
      <defs>
       <path id="m78cbd08147" d="M 0 0 
L 6 0 
" style="stroke: #000000"/>
      </defs>
      <g>
       <use xlink:href="#m78cbd08147" x="57.125" y="498.058976" style="stroke: #000000"/>
      </g>
     </g>
     <g id="line2d_62">
      <defs>
       <path id="m1bab4bf334" d="M 0 0 
L -6 0 
" style="stroke: #000000"/>
      </defs>
      <g>
       <use xlink:href="#m1bab4bf334" x="1061.525" y="498.058976" style="stroke: #000000"/>
      </g>
     </g>
     <g id="text_5">
      <!-- 0 -->
      <g transform="translate(43.445 504.137726) scale(0.16 -0.16)">
       <use xlink:href="#DejaVuSans-30"/>
      </g>
     </g>
    </g>
    <g id="ytick_2">
     <g id="line2d_63">
      <path d="M 57.125 419.652842 
L 1061.525 419.652842 
" clip-path="url(#p658ec6656f)" style="fill: none; stroke-dasharray: 1.85,0.8; stroke-dashoffset: 0; stroke: #000000; stroke-opacity: 0.5; stroke-width: 0.5"/>
     </g>
     <g id="line2d_64">
      <g>
       <use xlink:href="#m78cbd08147" x="57.125" y="419.652842" style="stroke: #000000"/>
      </g>
     </g>
     <g id="line2d_65">
      <g>
       <use xlink:href="#m1bab4bf334" x="1061.525" y="419.652842" style="stroke: #000000"/>
      </g>
     </g>
     <g id="text_6">
      <!-- 50 -->
      <g transform="translate(33.265 425.731592) scale(0.16 -0.16)">
       <defs>
        <path id="DejaVuSans-35" d="M 691 4666 
L 3169 4666 
L 3169 4134 
L 1269 4134 
L 1269 2991 
Q 1406 3038 1543 3061 
Q 1681 3084 1819 3084 
Q 2600 3084 3056 2656 
Q 3513 2228 3513 1497 
Q 3513 744 3044 326 
Q 2575 -91 1722 -91 
Q 1428 -91 1123 -41 
Q 819 9 494 109 
L 494 744 
Q 775 591 1075 516 
Q 1375 441 1709 441 
Q 2250 441 2565 725 
Q 2881 1009 2881 1497 
Q 2881 1984 2565 2268 
Q 2250 2553 1709 2553 
Q 1456 2553 1204 2497 
Q 953 2441 691 2322 
L 691 4666 
z
" transform="scale(0.015625)"/>
       </defs>
       <use xlink:href="#DejaVuSans-35"/>
       <use xlink:href="#DejaVuSans-30" x="63.623047"/>
      </g>
     </g>
    </g>
    <g id="ytick_3">
     <g id="line2d_66">
      <path d="M 57.125 341.246709 
L 1061.525 341.246709 
" clip-path="url(#p658ec6656f)" style="fill: none; stroke-dasharray: 1.85,0.8; stroke-dashoffset: 0; stroke: #000000; stroke-opacity: 0.5; stroke-width: 0.5"/>
     </g>
     <g id="line2d_67">
      <g>
       <use xlink:href="#m78cbd08147" x="57.125" y="341.246709" style="stroke: #000000"/>
      </g>
     </g>
     <g id="line2d_68">
      <g>
       <use xlink:href="#m1bab4bf334" x="1061.525" y="341.246709" style="stroke: #000000"/>
      </g>
     </g>
     <g id="text_7">
      <!-- 100 -->
      <g transform="translate(23.085 347.325459) scale(0.16 -0.16)">
       <use xlink:href="#DejaVuSans-31"/>
       <use xlink:href="#DejaVuSans-30" x="63.623047"/>
       <use xlink:href="#DejaVuSans-30" x="127.246094"/>
      </g>
     </g>
    </g>
    <g id="ytick_4">
     <g id="line2d_69">
      <path d="M 57.125 262.840576 
L 1061.525 262.840576 
" clip-path="url(#p658ec6656f)" style="fill: none; stroke-dasharray: 1.85,0.8; stroke-dashoffset: 0; stroke: #000000; stroke-opacity: 0.5; stroke-width: 0.5"/>
     </g>
     <g id="line2d_70">
      <g>
       <use xlink:href="#m78cbd08147" x="57.125" y="262.840576" style="stroke: #000000"/>
      </g>
     </g>
     <g id="line2d_71">
      <g>
       <use xlink:href="#m1bab4bf334" x="1061.525" y="262.840576" style="stroke: #000000"/>
      </g>
     </g>
     <g id="text_8">
      <!-- 150 -->
      <g transform="translate(23.085 268.919326) scale(0.16 -0.16)">
       <use xlink:href="#DejaVuSans-31"/>
       <use xlink:href="#DejaVuSans-35" x="63.623047"/>
       <use xlink:href="#DejaVuSans-30" x="127.246094"/>
      </g>
     </g>
    </g>
    <g id="ytick_5">
     <g id="line2d_72">
      <path d="M 57.125 184.434442 
L 1061.525 184.434442 
" clip-path="url(#p658ec6656f)" style="fill: none; stroke-dasharray: 1.85,0.8; stroke-dashoffset: 0; stroke: #000000; stroke-opacity: 0.5; stroke-width: 0.5"/>
     </g>
     <g id="line2d_73">
      <g>
       <use xlink:href="#m78cbd08147" x="57.125" y="184.434442" style="stroke: #000000"/>
      </g>
     </g>
     <g id="line2d_74">
      <g>
       <use xlink:href="#m1bab4bf334" x="1061.525" y="184.434442" style="stroke: #000000"/>
      </g>
     </g>
     <g id="text_9">
      <!-- 200 -->
      <g transform="translate(23.085 190.513192) scale(0.16 -0.16)">
       <defs>
        <path id="DejaVuSans-32" d="M 1228 531 
L 3431 531 
L 3431 0 
L 469 0 
L 469 531 
Q 828 903 1448 1529 
Q 2069 2156 2228 2338 
Q 2531 2678 2651 2914 
Q 2772 3150 2772 3378 
Q 2772 3750 2511 3984 
Q 2250 4219 1831 4219 
Q 1534 4219 1204 4116 
Q 875 4013 500 3803 
L 500 4441 
Q 881 4594 1212 4672 
Q 1544 4750 1819 4750 
Q 2544 4750 2975 4387 
Q 3406 4025 3406 3419 
Q 3406 3131 3298 2873 
Q 3191 2616 2906 2266 
Q 2828 2175 2409 1742 
Q 1991 1309 1228 531 
z
" transform="scale(0.015625)"/>
       </defs>
       <use xlink:href="#DejaVuSans-32"/>
       <use xlink:href="#DejaVuSans-30" x="63.623047"/>
       <use xlink:href="#DejaVuSans-30" x="127.246094"/>
      </g>
     </g>
    </g>
    <g id="ytick_6">
     <g id="line2d_75">
      <path d="M 57.125 106.028309 
L 1061.525 106.028309 
" clip-path="url(#p658ec6656f)" style="fill: none; stroke-dasharray: 1.85,0.8; stroke-dashoffset: 0; stroke: #000000; stroke-opacity: 0.5; stroke-width: 0.5"/>
     </g>
     <g id="line2d_76">
      <g>
       <use xlink:href="#m78cbd08147" x="57.125" y="106.028309" style="stroke: #000000"/>
      </g>
     </g>
     <g id="line2d_77">
      <g>
       <use xlink:href="#m1bab4bf334" x="1061.525" y="106.028309" style="stroke: #000000"/>
      </g>
     </g>
     <g id="text_10">
      <!-- 250 -->
      <g transform="translate(23.085 112.107059) scale(0.16 -0.16)">
       <use xlink:href="#DejaVuSans-32"/>
       <use xlink:href="#DejaVuSans-35" x="63.623047"/>
       <use xlink:href="#DejaVuSans-30" x="127.246094"/>
      </g>
     </g>
    </g>
    <g id="ytick_7">
     <g id="line2d_78">
      <path d="M 57.125 27.622175 
L 1061.525 27.622175 
" clip-path="url(#p658ec6656f)" style="fill: none; stroke-dasharray: 1.85,0.8; stroke-dashoffset: 0; stroke: #000000; stroke-opacity: 0.5; stroke-width: 0.5"/>
     </g>
     <g id="line2d_79">
      <g>
       <use xlink:href="#m78cbd08147" x="57.125" y="27.622175" style="stroke: #000000"/>
      </g>
     </g>
     <g id="line2d_80">
      <g>
       <use xlink:href="#m1bab4bf334" x="1061.525" y="27.622175" style="stroke: #000000"/>
      </g>
     </g>
     <g id="text_11">
      <!-- 300 -->
      <g transform="translate(23.085 33.700925) scale(0.16 -0.16)">
       <defs>
        <path id="DejaVuSans-33" d="M 2597 2516 
Q 3050 2419 3304 2112 
Q 3559 1806 3559 1356 
Q 3559 666 3084 287 
Q 2609 -91 1734 -91 
Q 1441 -91 1130 -33 
Q 819 25 488 141 
L 488 750 
Q 750 597 1062 519 
Q 1375 441 1716 441 
Q 2309 441 2620 675 
Q 2931 909 2931 1356 
Q 2931 1769 2642 2001 
Q 2353 2234 1838 2234 
L 1294 2234 
L 1294 2753 
L 1863 2753 
Q 2328 2753 2575 2939 
Q 2822 3125 2822 3475 
Q 2822 3834 2567 4026 
Q 2313 4219 1838 4219 
Q 1578 4219 1281 4162 
Q 984 4106 628 3988 
L 628 4550 
Q 988 4650 1302 4700 
Q 1616 4750 1894 4750 
Q 2613 4750 3031 4423 
Q 3450 4097 3450 3541 
Q 3450 3153 3228 2886 
Q 3006 2619 2597 2516 
z
" transform="scale(0.015625)"/>
       </defs>
       <use xlink:href="#DejaVuSans-33"/>
       <use xlink:href="#DejaVuSans-30" x="63.623047"/>
       <use xlink:href="#DejaVuSans-30" x="127.246094"/>
      </g>
     </g>
    </g>
    <g id="ytick_8">
     <g id="line2d_81">
      <defs>
       <path id="mc281bf6b19" d="M 0 0 
L 3 0 
" style="stroke: #000000"/>
      </defs>
      <g>
       <use xlink:href="#mc281bf6b19" x="57.125" y="513.740202" style="stroke: #000000"/>
      </g>
     </g>
     <g id="line2d_82">
      <defs>
       <path id="ma38f552a71" d="M 0 0 
L -3 0 
" style="stroke: #000000"/>
      </defs>
      <g>
       <use xlink:href="#ma38f552a71" x="1061.525" y="513.740202" style="stroke: #000000"/>
      </g>
     </g>
    </g>
    <g id="ytick_9">
     <g id="line2d_83">
      <g>
       <use xlink:href="#mc281bf6b19" x="57.125" y="482.377749" style="stroke: #000000"/>
      </g>
     </g>
     <g id="line2d_84">
      <g>
       <use xlink:href="#ma38f552a71" x="1061.525" y="482.377749" style="stroke: #000000"/>
      </g>
     </g>
    </g>
    <g id="ytick_10">
     <g id="line2d_85">
      <g>
       <use xlink:href="#mc281bf6b19" x="57.125" y="466.696522" style="stroke: #000000"/>
      </g>
     </g>
     <g id="line2d_86">
      <g>
       <use xlink:href="#ma38f552a71" x="1061.525" y="466.696522" style="stroke: #000000"/>
      </g>
     </g>
    </g>
    <g id="ytick_11">
     <g id="line2d_87">
      <g>
       <use xlink:href="#mc281bf6b19" x="57.125" y="451.015296" style="stroke: #000000"/>
      </g>
     </g>
     <g id="line2d_88">
      <g>
       <use xlink:href="#ma38f552a71" x="1061.525" y="451.015296" style="stroke: #000000"/>
      </g>
     </g>
    </g>
    <g id="ytick_12">
     <g id="line2d_89">
      <g>
       <use xlink:href="#mc281bf6b19" x="57.125" y="435.334069" style="stroke: #000000"/>
      </g>
     </g>
     <g id="line2d_90">
      <g>
       <use xlink:href="#ma38f552a71" x="1061.525" y="435.334069" style="stroke: #000000"/>
      </g>
     </g>
    </g>
    <g id="ytick_13">
     <g id="line2d_91">
      <g>
       <use xlink:href="#mc281bf6b19" x="57.125" y="403.971616" style="stroke: #000000"/>
      </g>
     </g>
     <g id="line2d_92">
      <g>
       <use xlink:href="#ma38f552a71" x="1061.525" y="403.971616" style="stroke: #000000"/>
      </g>
     </g>
    </g>
    <g id="ytick_14">
     <g id="line2d_93">
      <g>
       <use xlink:href="#mc281bf6b19" x="57.125" y="388.290389" style="stroke: #000000"/>
      </g>
     </g>
     <g id="line2d_94">
      <g>
       <use xlink:href="#ma38f552a71" x="1061.525" y="388.290389" style="stroke: #000000"/>
      </g>
     </g>
    </g>
    <g id="ytick_15">
     <g id="line2d_95">
      <g>
       <use xlink:href="#mc281bf6b19" x="57.125" y="372.609162" style="stroke: #000000"/>
      </g>
     </g>
     <g id="line2d_96">
      <g>
       <use xlink:href="#ma38f552a71" x="1061.525" y="372.609162" style="stroke: #000000"/>
      </g>
     </g>
    </g>
    <g id="ytick_16">
     <g id="line2d_97">
      <g>
       <use xlink:href="#mc281bf6b19" x="57.125" y="356.927936" style="stroke: #000000"/>
      </g>
     </g>
     <g id="line2d_98">
      <g>
       <use xlink:href="#ma38f552a71" x="1061.525" y="356.927936" style="stroke: #000000"/>
      </g>
     </g>
    </g>
    <g id="ytick_17">
     <g id="line2d_99">
      <g>
       <use xlink:href="#mc281bf6b19" x="57.125" y="325.565482" style="stroke: #000000"/>
      </g>
     </g>
     <g id="line2d_100">
      <g>
       <use xlink:href="#ma38f552a71" x="1061.525" y="325.565482" style="stroke: #000000"/>
      </g>
     </g>
    </g>
    <g id="ytick_18">
     <g id="line2d_101">
      <g>
       <use xlink:href="#mc281bf6b19" x="57.125" y="309.884256" style="stroke: #000000"/>
      </g>
     </g>
     <g id="line2d_102">
      <g>
       <use xlink:href="#ma38f552a71" x="1061.525" y="309.884256" style="stroke: #000000"/>
      </g>
     </g>
    </g>
    <g id="ytick_19">
     <g id="line2d_103">
      <g>
       <use xlink:href="#mc281bf6b19" x="57.125" y="294.203029" style="stroke: #000000"/>
      </g>
     </g>
     <g id="line2d_104">
      <g>
       <use xlink:href="#ma38f552a71" x="1061.525" y="294.203029" style="stroke: #000000"/>
      </g>
     </g>
    </g>
    <g id="ytick_20">
     <g id="line2d_105">
      <g>
       <use xlink:href="#mc281bf6b19" x="57.125" y="278.521802" style="stroke: #000000"/>
      </g>
     </g>
     <g id="line2d_106">
      <g>
       <use xlink:href="#ma38f552a71" x="1061.525" y="278.521802" style="stroke: #000000"/>
      </g>
     </g>
    </g>
    <g id="ytick_21">
     <g id="line2d_107">
      <g>
       <use xlink:href="#mc281bf6b19" x="57.125" y="247.159349" style="stroke: #000000"/>
      </g>
     </g>
     <g id="line2d_108">
      <g>
       <use xlink:href="#ma38f552a71" x="1061.525" y="247.159349" style="stroke: #000000"/>
      </g>
     </g>
    </g>
    <g id="ytick_22">
     <g id="line2d_109">
      <g>
       <use xlink:href="#mc281bf6b19" x="57.125" y="231.478122" style="stroke: #000000"/>
      </g>
     </g>
     <g id="line2d_110">
      <g>
       <use xlink:href="#ma38f552a71" x="1061.525" y="231.478122" style="stroke: #000000"/>
      </g>
     </g>
    </g>
    <g id="ytick_23">
     <g id="line2d_111">
      <g>
       <use xlink:href="#mc281bf6b19" x="57.125" y="215.796896" style="stroke: #000000"/>
      </g>
     </g>
     <g id="line2d_112">
      <g>
       <use xlink:href="#ma38f552a71" x="1061.525" y="215.796896" style="stroke: #000000"/>
      </g>
     </g>
    </g>
    <g id="ytick_24">
     <g id="line2d_113">
      <g>
       <use xlink:href="#mc281bf6b19" x="57.125" y="200.115669" style="stroke: #000000"/>
      </g>
     </g>
     <g id="line2d_114">
      <g>
       <use xlink:href="#ma38f552a71" x="1061.525" y="200.115669" style="stroke: #000000"/>
      </g>
     </g>
    </g>
    <g id="ytick_25">
     <g id="line2d_115">
      <g>
       <use xlink:href="#mc281bf6b19" x="57.125" y="168.753216" style="stroke: #000000"/>
      </g>
     </g>
     <g id="line2d_116">
      <g>
       <use xlink:href="#ma38f552a71" x="1061.525" y="168.753216" style="stroke: #000000"/>
      </g>
     </g>
    </g>
    <g id="ytick_26">
     <g id="line2d_117">
      <g>
       <use xlink:href="#mc281bf6b19" x="57.125" y="153.071989" style="stroke: #000000"/>
      </g>
     </g>
     <g id="line2d_118">
      <g>
       <use xlink:href="#ma38f552a71" x="1061.525" y="153.071989" style="stroke: #000000"/>
      </g>
     </g>
    </g>
    <g id="ytick_27">
     <g id="line2d_119">
      <g>
       <use xlink:href="#mc281bf6b19" x="57.125" y="137.390762" style="stroke: #000000"/>
      </g>
     </g>
     <g id="line2d_120">
      <g>
       <use xlink:href="#ma38f552a71" x="1061.525" y="137.390762" style="stroke: #000000"/>
      </g>
     </g>
    </g>
    <g id="ytick_28">
     <g id="line2d_121">
      <g>
       <use xlink:href="#mc281bf6b19" x="57.125" y="121.709535" style="stroke: #000000"/>
      </g>
     </g>
     <g id="line2d_122">
      <g>
       <use xlink:href="#ma38f552a71" x="1061.525" y="121.709535" style="stroke: #000000"/>
      </g>
     </g>
    </g>
    <g id="ytick_29">
     <g id="line2d_123">
      <g>
       <use xlink:href="#mc281bf6b19" x="57.125" y="90.347082" style="stroke: #000000"/>
      </g>
     </g>
     <g id="line2d_124">
      <g>
       <use xlink:href="#ma38f552a71" x="1061.525" y="90.347082" style="stroke: #000000"/>
      </g>
     </g>
    </g>
    <g id="ytick_30">
     <g id="line2d_125">
      <g>
       <use xlink:href="#mc281bf6b19" x="57.125" y="74.665855" style="stroke: #000000"/>
      </g>
     </g>
     <g id="line2d_126">
      <g>
       <use xlink:href="#ma38f552a71" x="1061.525" y="74.665855" style="stroke: #000000"/>
      </g>
     </g>
    </g>
    <g id="ytick_31">
     <g id="line2d_127">
      <g>
       <use xlink:href="#mc281bf6b19" x="57.125" y="58.984629" style="stroke: #000000"/>
      </g>
     </g>
     <g id="line2d_128">
      <g>
       <use xlink:href="#ma38f552a71" x="1061.525" y="58.984629" style="stroke: #000000"/>
      </g>
     </g>
    </g>
    <g id="ytick_32">
     <g id="line2d_129">
      <g>
       <use xlink:href="#mc281bf6b19" x="57.125" y="43.303402" style="stroke: #000000"/>
      </g>
     </g>
     <g id="line2d_130">
      <g>
       <use xlink:href="#ma38f552a71" x="1061.525" y="43.303402" style="stroke: #000000"/>
      </g>
     </g>
    </g>
    <g id="text_12">
     <!-- Frequency Amplitude -->
     <g transform="translate(15.7575 356.10375) rotate(-90) scale(0.16 -0.16)">
      <defs>
       <path id="DejaVuSans-41" d="M 2188 4044 
L 1331 1722 
L 3047 1722 
L 2188 4044 
z
M 1831 4666 
L 2547 4666 
L 4325 0 
L 3669 0 
L 3244 1197 
L 1141 1197 
L 716 0 
L 50 0 
L 1831 4666 
z
" transform="scale(0.015625)"/>
       <path id="DejaVuSans-6d" d="M 3328 2828 
Q 3544 3216 3844 3400 
Q 4144 3584 4550 3584 
Q 5097 3584 5394 3201 
Q 5691 2819 5691 2113 
L 5691 0 
L 5113 0 
L 5113 2094 
Q 5113 2597 4934 2840 
Q 4756 3084 4391 3084 
Q 3944 3084 3684 2787 
Q 3425 2491 3425 1978 
L 3425 0 
L 2847 0 
L 2847 2094 
Q 2847 2600 2669 2842 
Q 2491 3084 2119 3084 
Q 1678 3084 1418 2786 
Q 1159 2488 1159 1978 
L 1159 0 
L 581 0 
L 581 3500 
L 1159 3500 
L 1159 2956 
Q 1356 3278 1631 3431 
Q 1906 3584 2284 3584 
Q 2666 3584 2933 3390 
Q 3200 3197 3328 2828 
z
" transform="scale(0.015625)"/>
       <path id="DejaVuSans-70" d="M 1159 525 
L 1159 -1331 
L 581 -1331 
L 581 3500 
L 1159 3500 
L 1159 2969 
Q 1341 3281 1617 3432 
Q 1894 3584 2278 3584 
Q 2916 3584 3314 3078 
Q 3713 2572 3713 1747 
Q 3713 922 3314 415 
Q 2916 -91 2278 -91 
Q 1894 -91 1617 61 
Q 1341 213 1159 525 
z
M 3116 1747 
Q 3116 2381 2855 2742 
Q 2594 3103 2138 3103 
Q 1681 3103 1420 2742 
Q 1159 2381 1159 1747 
Q 1159 1113 1420 752 
Q 1681 391 2138 391 
Q 2594 391 2855 752 
Q 3116 1113 3116 1747 
z
" transform="scale(0.015625)"/>
       <path id="DejaVuSans-6c" d="M 603 4863 
L 1178 4863 
L 1178 0 
L 603 0 
L 603 4863 
z
" transform="scale(0.015625)"/>
       <path id="DejaVuSans-69" d="M 603 3500 
L 1178 3500 
L 1178 0 
L 603 0 
L 603 3500 
z
M 603 4863 
L 1178 4863 
L 1178 4134 
L 603 4134 
L 603 4863 
z
" transform="scale(0.015625)"/>
       <path id="DejaVuSans-74" d="M 1172 4494 
L 1172 3500 
L 2356 3500 
L 2356 3053 
L 1172 3053 
L 1172 1153 
Q 1172 725 1289 603 
Q 1406 481 1766 481 
L 2356 481 
L 2356 0 
L 1766 0 
Q 1100 0 847 248 
Q 594 497 594 1153 
L 594 3053 
L 172 3053 
L 172 3500 
L 594 3500 
L 594 4494 
L 1172 4494 
z
" transform="scale(0.015625)"/>
       <path id="DejaVuSans-64" d="M 2906 2969 
L 2906 4863 
L 3481 4863 
L 3481 0 
L 2906 0 
L 2906 525 
Q 2725 213 2448 61 
Q 2172 -91 1784 -91 
Q 1150 -91 751 415 
Q 353 922 353 1747 
Q 353 2572 751 3078 
Q 1150 3584 1784 3584 
Q 2172 3584 2448 3432 
Q 2725 3281 2906 2969 
z
M 947 1747 
Q 947 1113 1208 752 
Q 1469 391 1925 391 
Q 2381 391 2643 752 
Q 2906 1113 2906 1747 
Q 2906 2381 2643 2742 
Q 2381 3103 1925 3103 
Q 1469 3103 1208 2742 
Q 947 2381 947 1747 
z
" transform="scale(0.015625)"/>
      </defs>
      <use xlink:href="#DejaVuSans-46"/>
      <use xlink:href="#DejaVuSans-72" x="50.269531"/>
      <use xlink:href="#DejaVuSans-65" x="89.132812"/>
      <use xlink:href="#DejaVuSans-71" x="150.65625"/>
      <use xlink:href="#DejaVuSans-75" x="214.132812"/>
      <use xlink:href="#DejaVuSans-65" x="277.511719"/>
      <use xlink:href="#DejaVuSans-6e" x="339.035156"/>
      <use xlink:href="#DejaVuSans-63" x="402.414062"/>
      <use xlink:href="#DejaVuSans-79" x="457.394531"/>
      <use xlink:href="#DejaVuSans-20" x="516.574219"/>
      <use xlink:href="#DejaVuSans-41" x="548.361328"/>
      <use xlink:href="#DejaVuSans-6d" x="616.769531"/>
      <use xlink:href="#DejaVuSans-70" x="714.181641"/>
      <use xlink:href="#DejaVuSans-6c" x="777.658203"/>
      <use xlink:href="#DejaVuSans-69" x="805.441406"/>
      <use xlink:href="#DejaVuSans-74" x="833.224609"/>
      <use xlink:href="#DejaVuSans-75" x="872.433594"/>
      <use xlink:href="#DejaVuSans-64" x="935.8125"/>
      <use xlink:href="#DejaVuSans-65" x="999.289062"/>
     </g>
    </g>
   </g>
   <g id="line2d_131">
    <path d="M -1 497.47898 
L 102.779545 497.478795 
L 197.043816 486.187223 
L 252.18488 445.955406 
L 291.308087 386.197603 
L 321.654404 293.413165 
L 346.449151 211.55966 
L 367.41281 45.307161 
L 385.572358 213.454423 
L 401.590214 374.355666 
L 415.918675 321.613536 
L 428.880344 401.513726 
L 440.713422 409.479584 
L 451.598797 391.45494 
L 461.677081 281.548602 
L 471.059739 307.655147 
L 479.836629 355.906788 
L 488.08125 318.180036 
L 495.854485 355.461559 
L 503.207335 462.067626 
L 510.182946 375.372778 
L 516.818145 341.576036 
L 523.144615 302.231641 
L 529.189815 449.565464 
L 534.977692 329.649426 
L 540.529263 374.68313 
L 545.863068 370.944389 
L 550.995549 345.148567 
L 555.941352 328.053918 
L 560.713582 372.299448 
L 565.324009 374.110666 
L 569.783248 296.362378 
L 574.1009 272.369233 
L 578.285679 403.989647 
L 582.345521 462.769696 
L 586.287669 235.375475 
L 590.118756 300.014488 
L 593.844868 347.668314 
L 597.471606 354.694372 
L 601.004132 417.53422 
L 604.447217 347.469678 
L 607.805279 336.757106 
L 611.082415 44.4375 
L 614.282436 138.750133 
L 617.408886 282.653383 
L 620.465073 120.087936 
L 623.454086 142.539164 
L 626.378813 122.470285 
L 629.241963 349.934662 
L 632.046075 354.102427 
L 634.793534 363.469602 
L 637.486584 333.430367 
L 640.127339 417.308657 
L 642.71779 408.162364 
L 645.25982 288.748902 
L 647.755203 141.278988 
L 650.205623 274.361967 
L 652.612669 369.415079 
L 654.977852 380.619571 
L 657.302603 356.791769 
L 659.58828 346.310014 
L 661.836176 341.399148 
L 664.047519 225.385034 
L 666.223479 212.123298 
L 668.36517 306.663732 
L 670.473656 317.641891 
L 672.54995 350.276782 
L 674.59502 391.707848 
L 676.609791 391.234651 
L 678.595149 417.2884 
L 680.55194 358.537275 
L 682.480973 401.568173 
L 686.258844 228.355895 
L 688.109139 169.068485 
L 689.934597 144.109932 
L 691.735877 241.915143 
L 693.513609 395.60129 
L 695.268402 417.713634 
L 697.000841 364.426963 
L 698.711488 429.116316 
L 700.400883 415.70327 
L 702.069549 397.556603 
L 703.717989 384.010903 
L 705.346686 388.512107 
L 706.956109 410.803847 
L 708.546707 401.918942 
L 710.118916 312.615477 
L 711.673157 402.663695 
L 713.209835 395.767516 
L 714.729344 394.473275 
L 716.232062 401.690042 
L 717.718356 425.051213 
L 719.188583 419.596749 
L 720.643084 406.80033 
L 722.082194 354.546734 
L 723.506234 363.992568 
L 724.915517 363.466354 
L 726.310346 320.233614 
L 729.057805 473.804192 
L 730.410996 452.446175 
L 731.750855 419.683468 
L 733.077642 442.624065 
L 734.39161 444.202939 
L 735.693003 331.295791 
L 736.982061 375.510065 
L 738.259015 308.808929 
L 739.52409 348.736294 
L 740.777506 346.12294 
L 742.019474 373.57167 
L 743.250203 487.812553 
L 744.469893 427.93428 
L 746.87694 372.258946 
L 748.064674 464.510039 
L 749.242123 398.494144 
L 750.409466 268.563148 
L 751.566874 295.333068 
L 752.714514 299.335377 
L 753.852551 224.20137 
L 754.981143 162.513339 
L 757.210613 365.136284 
L 758.31179 290.349535 
L 759.404122 448.128713 
L 760.48775 400.545759 
L 761.562812 391.860498 
L 762.629441 388.520677 
L 763.68777 322.323091 
L 764.737927 437.519843 
L 765.780036 392.334422 
L 767.8406 490.073045 
L 768.859291 376.262862 
L 770.874062 206.44284 
L 771.870364 370.091813 
L 772.85942 139.176395 
L 773.841335 144.198125 
L 774.816211 242.030772 
L 775.784148 229.70679 
L 776.745244 242.09863 
L 778.647298 389.766855 
L 779.58844 379.286137 
L 780.523115 313.46714 
L 782.37341 381.074632 
L 783.289202 468.463591 
L 784.198868 422.020925 
L 785.10249 367.040942 
L 786.000148 445.502278 
L 786.891919 437.634278 
L 787.77788 412.12093 
L 788.658107 361.802954 
L 789.532673 377.303218 
L 790.401651 412.284086 
L 791.265112 364.026972 
L 792.123125 354.516799 
L 792.975758 375.260758 
L 793.823079 392.3181 
L 794.665154 340.106629 
L 795.502046 384.534549 
L 796.33382 363.364165 
L 797.160538 385.328511 
L 797.98226 255.203846 
L 798.799047 328.356368 
L 799.610957 420.989011 
L 800.418049 312.906398 
L 801.220379 258.318053 
L 802.018004 277.830621 
L 802.810978 266.842409 
L 803.599354 380.599162 
L 804.383187 378.363655 
L 805.162528 256.74761 
L 805.937428 277.877269 
L 806.707937 412.138124 
L 807.474106 272.907155 
L 808.235983 322.928305 
L 808.993615 410.572302 
L 809.747049 367.659686 
L 810.496333 415.537539 
L 811.24151 447.516938 
L 811.982627 363.809409 
L 812.719727 368.862574 
L 813.452853 380.030898 
L 814.182049 456.119391 
L 814.907355 425.295524 
L 815.628813 406.10626 
L 816.346465 451.6495 
L 817.060349 416.016395 
L 817.770505 392.363223 
L 818.476972 343.16898 
L 819.179788 359.150152 
L 819.87899 405.042418 
L 821.266702 267.032531 
L 821.955284 267.499773 
L 822.640397 287.838354 
L 823.322076 302.983099 
L 824.675267 273.858108 
L 825.346846 275.217383 
L 826.015126 395.625249 
L 826.680137 465.068938 
L 827.341913 388.269883 
L 828.000484 374.786797 
L 828.655881 352.214742 
L 829.308134 419.429236 
L 829.957274 358.057954 
L 830.60333 338.82515 
L 831.246332 373.303345 
L 831.886308 453.278482 
L 832.523286 481.358777 
L 833.157295 420.803819 
L 833.788361 456.378896 
L 834.416513 381.214132 
L 835.041777 331.673372 
L 835.664178 356.258651 
L 836.283745 418.277325 
L 837.514474 313.475664 
L 838.125686 190.016805 
L 838.734164 319.956836 
L 839.339932 375.128396 
L 839.943013 298.095574 
L 840.543432 369.166328 
L 841.141211 458.835883 
L 841.736374 484.291169 
L 842.328944 409.335272 
L 842.918944 298.992808 
L 843.506394 340.419176 
L 844.091318 342.362007 
L 844.673737 427.785141 
L 845.253672 452.176992 
L 845.831145 436.488335 
L 846.406176 450.963082 
L 846.978785 409.684132 
L 847.548994 345.242179 
L 848.116822 300.183155 
L 848.682289 348.784724 
L 849.245414 436.323734 
L 849.806218 452.118547 
L 850.364718 462.87983 
L 851.474884 350.482962 
L 852.026587 431.137427 
L 852.576061 452.441224 
L 853.123323 488.989335 
L 853.668393 405.101512 
L 854.211286 409.554275 
L 854.752021 327.400161 
L 855.290614 345.576353 
L 855.827082 349.263527 
L 856.361443 425.704024 
L 856.893712 382.805383 
L 857.423906 460.459076 
L 857.952041 398.187353 
L 858.478133 413.454567 
L 859.002198 420.808876 
L 859.524251 386.60424 
L 860.044307 405.564405 
L 860.562382 412.161965 
L 861.078491 363.986629 
L 862.104871 422.468127 
L 863.123561 473.362526 
L 863.63006 439.482241 
L 864.134678 454.585279 
L 864.637432 461.805257 
L 865.138333 451.812066 
L 865.637396 458.770724 
L 866.134635 496.642268 
L 866.630062 486.099768 
L 867.123691 456.30498 
L 867.615534 465.341297 
L 868.105606 438.576678 
L 868.593917 465.22992 
L 869.080481 468.046107 
L 869.565311 482.077493 
L 870.048419 446.490217 
L 870.529816 450.272383 
L 871.009515 474.69555 
L 871.487528 454.003519 
L 871.963867 444.941565 
L 872.438543 465.490778 
L 873.382954 426.051681 
L 873.852711 457.476754 
L 874.320851 462.49405 
L 874.787386 470.761435 
L 875.252325 466.298266 
L 875.71568 458.127166 
L 876.177462 425.301898 
L 876.637681 446.878167 
L 877.096348 453.088991 
L 877.553473 404.469297 
L 878.009067 400.330834 
L 878.463139 457.438678 
L 878.915701 449.536127 
L 879.366761 439.396164 
L 879.81633 455.996339 
L 880.264418 490.142488 
L 880.711035 477.020477 
L 881.156189 450.924853 
L 881.599892 450.646441 
L 882.042151 469.129355 
L 882.922378 434.565118 
L 883.360364 434.121999 
L 883.796944 456.293805 
L 884.232127 414.266213 
L 884.665922 426.64262 
L 885.098338 426.428289 
L 885.959066 461.093334 
L 886.387396 478.844883 
L 886.814381 482.510586 
L 887.240029 473.249656 
L 887.66435 474.875193 
L 888.509039 452.391271 
L 888.929425 452.116747 
L 889.348515 460.396909 
L 889.766317 482.270706 
L 890.18284 470.923631 
L 890.598091 455.40129 
L 891.012078 448.403735 
L 891.83629 488.71959 
L 892.246531 482.36373 
L 892.655537 480.012252 
L 893.063317 469.174179 
L 893.469879 474.274447 
L 893.875228 480.877579 
L 894.279373 476.655226 
L 894.68232 459.07799 
L 895.084077 480.114478 
L 895.48465 471.997642 
L 895.884047 455.462009 
L 896.282275 466.76331 
L 896.67934 453.946295 
L 897.075248 453.243818 
L 897.470008 467.105215 
L 897.863625 469.682459 
L 898.256106 439.46043 
L 898.647458 442.110782 
L 899.037686 443.284426 
L 899.426799 449.199237 
L 899.814801 446.234648 
L 900.201699 452.362626 
L 900.587499 490.068249 
L 900.972208 456.831217 
L 901.355832 458.401825 
L 901.738377 476.116456 
L 902.119849 471.582341 
L 902.500254 464.15793 
L 902.879597 472.913933 
L 903.257886 486.289901 
L 903.635125 462.36373 
L 904.01132 458.067775 
L 904.386478 433.700859 
L 904.760604 436.587579 
L 905.133703 428.707363 
L 905.505781 437.451637 
L 905.876845 470.286938 
L 906.246898 473.853127 
L 906.615947 470.63107 
L 906.983998 469.884368 
L 907.351055 446.997043 
L 907.717124 414.199846 
L 908.082211 411.549954 
L 908.44632 438.320036 
L 908.809456 439.090988 
L 909.171626 429.170805 
L 909.532833 415.877176 
L 909.893084 430.599464 
L 910.252383 424.701912 
L 910.968146 489.128475 
L 911.680161 441.824984 
L 912.034776 430.862985 
L 912.741243 457.578737 
L 913.093105 428.479233 
L 913.794109 437.703017 
L 914.143261 453.930713 
L 914.491519 433.90073 
L 914.838887 458.770625 
L 915.185371 443.990243 
L 915.530973 467.542782 
L 915.8757 434.319183 
L 916.219555 447.350423 
L 916.562543 480.841851 
L 916.904668 469.209939 
L 917.245934 475.405164 
L 917.586346 435.953778 
L 917.925909 422.597429 
L 918.264625 439.395386 
L 918.6025 464.904692 
L 918.939538 444.389557 
L 919.275742 449.377978 
L 919.611117 434.306443 
L 919.945667 457.955333 
L 920.279397 461.92036 
L 920.612309 462.130164 
L 920.944408 460.377587 
L 921.275699 448.437011 
L 921.606184 405.413749 
L 921.935868 455.904517 
L 922.264754 451.436701 
L 922.592848 476.832994 
L 922.920151 456.781203 
L 923.246669 445.962036 
L 923.572405 425.124207 
L 923.897362 439.727578 
L 924.221545 473.370892 
L 924.544957 462.027139 
L 924.867601 474.867943 
L 925.189482 466.331201 
L 925.510603 465.646012 
L 925.830967 450.919342 
L 926.150579 398.928353 
L 926.469441 418.598221 
L 926.787557 456.749552 
L 927.104931 413.143289 
L 927.421566 415.677364 
L 928.052632 493.697477 
L 928.367071 438.316437 
L 928.680784 450.574445 
L 928.993775 495.81839 
L 929.617604 454.337352 
L 929.928449 482.926513 
L 930.238585 454.721433 
L 930.548016 454.54766 
L 930.856744 453.061912 
L 931.164772 481.733325 
L 931.472105 477.697161 
L 931.778744 477.294559 
L 932.084694 464.202314 
L 932.389957 468.233477 
L 932.694536 482.951632 
L 932.998435 481.282832 
L 933.301656 467.520943 
L 933.604203 462.231916 
L 933.906078 476.256269 
L 934.207284 450.013483 
L 934.507825 450.902136 
L 934.807703 478.837197 
L 935.106921 471.917131 
L 935.405482 469.171815 
L 935.703389 481.359114 
L 936.000645 483.30786 
L 936.297253 487.558234 
L 936.888535 462.821274 
L 937.183214 466.511768 
L 937.477257 488.758505 
L 937.770665 465.931252 
L 938.063441 461.82823 
L 938.355589 488.785619 
L 938.64711 489.286966 
L 938.938008 475.618341 
L 939.228284 483.675853 
L 939.517943 463.021747 
L 939.806986 454.035507 
L 940.095416 472.790841 
L 940.670446 452.662177 
L 940.957053 463.349406 
L 941.243056 460.7044 
L 941.528459 443.081139 
L 941.813265 450.614629 
L 942.097475 468.064819 
L 942.66412 481.671567 
L 942.94656 482.988305 
L 943.228414 494.214711 
L 943.509685 491.027019 
L 943.790376 479.630301 
L 944.070488 485.80311 
L 944.350025 474.281947 
L 944.628989 472.743329 
L 944.907381 493.128148 
L 945.185204 493.583861 
L 945.462462 476.915855 
L 945.739155 479.272558 
L 946.015286 483.797733 
L 946.290858 464.086628 
L 946.840332 459.579645 
L 947.387594 470.58244 
L 947.660402 491.719149 
L 948.204381 486.019468 
L 948.475557 486.712727 
L 948.746193 487.785794 
L 949.016291 477.494115 
L 949.285855 488.861742 
L 949.554885 486.669242 
L 949.823383 489.927068 
L 950.091353 490.494887 
L 950.625714 495.051146 
L 951.157983 477.060377 
L 951.688177 494.817451 
L 952.216312 486.778784 
L 952.479612 476.862372 
L 952.742404 483.190122 
L 953.004689 495.141268 
L 953.266469 486.830425 
L 953.527745 488.716004 
L 953.788521 488.491498 
L 954.048798 473.580327 
L 954.308578 470.684208 
L 954.567862 481.543386 
L 954.826653 481.79318 
L 955.084952 471.684995 
L 955.600084 489.903419 
L 955.85692 475.684995 
L 956.62453 494.123494 
L 956.879441 485.370496 
L 957.387832 493.729903 
L 957.641317 495.859531 
L 957.89433 486.798535 
L 958.146874 492.541857 
L 958.398949 491.169819 
L 958.901702 480.231256 
L 959.152384 489.433623 
L 959.402604 493.233416 
L 959.652364 491.78617 
L 959.901667 491.088523 
L 960.150514 489.67569 
L 960.398906 489.272404 
L 960.894333 479.472336 
L 961.141371 481.66801 
L 961.387962 473.503451 
L 961.634106 471.50973 
L 961.879805 485.136691 
L 962.369876 475.151351 
L 962.614251 471.031868 
L 963.101688 486.323287 
L 963.344752 481.303925 
L 963.829582 494.06889 
L 964.07135 494.806092 
L 964.312689 493.817616 
L 964.553601 494.906986 
L 964.794087 493.356924 
L 965.034148 489.195546 
L 965.273786 479.543706 
L 965.513003 476.049787 
L 965.751799 479.004351 
L 966.228138 488.777758 
L 966.465683 485.331486 
L 966.702814 495.797451 
L 966.939532 493.621302 
L 967.175839 489.487472 
L 967.411736 490.813706 
L 967.647225 490.851381 
L 968.116982 480.658578 
L 968.351254 479.979956 
L 968.585122 484.825373 
L 968.818589 486.02493 
L 969.051657 484.698449 
L 969.516596 489.801093 
L 969.748471 488.999764 
L 969.979951 487.295468 
L 970.441733 491.744599 
L 970.672037 486.986291 
L 970.901952 488.301411 
L 971.131479 493.779712 
L 971.360619 491.567444 
L 971.589373 495.141919 
L 971.817744 493.065122 
L 972.045731 496.573022 
L 972.273337 492.122915 
L 972.500563 491.882936 
L 972.72741 495.937578 
L 972.953879 493.902074 
L 973.179971 495.937484 
L 973.405689 488.44605 
L 973.631032 494.320498 
L 973.856002 494.715698 
L 974.080601 488.733207 
L 974.30483 487.124848 
L 974.752181 489.80039 
L 974.975306 489.048394 
L 975.198065 489.981247 
L 975.42046 492.627213 
L 975.642492 491.804934 
L 975.864162 492.955544 
L 976.085472 497.899288 
L 976.306422 495.28454 
L 976.527013 495.537384 
L 976.747247 494.756095 
L 976.967125 496.214322 
L 977.186649 493.497847 
L 977.405818 493.245153 
L 977.624635 494.799791 
L 977.8431 495.456314 
L 978.061215 495.554573 
L 978.496398 491.230032 
L 978.713468 492.084665 
L 978.930193 492.464838 
L 979.146573 491.350988 
L 979.362609 496.647337 
L 979.793654 489.390018 
L 980.008665 490.558379 
L 980.223337 490.927314 
L 980.43767 492.634408 
L 980.651667 492.710177 
L 980.865327 495.197489 
L 981.078652 496.270807 
L 981.291642 496.551048 
L 981.5043 495.08355 
L 981.716626 495.482569 
L 981.928621 493.543347 
L 982.140285 492.967608 
L 982.351621 494.710517 
L 982.562629 493.986741 
L 982.77331 496.854856 
L 983.193696 495.348816 
L 983.612786 494.769872 
L 983.821847 492.541659 
L 984.030588 494.478708 
L 984.239009 494.913122 
L 984.447111 492.724133 
L 984.862362 495.713453 
L 985.069513 495.342077 
L 985.276349 497.467938 
L 985.482871 496.228825 
L 986.100561 497.043262 
L 986.510801 490.923502 
L 986.919808 495.695449 
L 987.123851 494.355647 
L 987.327588 495.295958 
L 987.531021 494.731277 
L 987.734149 492.826435 
L 987.936975 492.07207 
L 988.341721 494.277099 
L 988.543643 496.536365 
L 988.946591 494.501132 
L 989.348348 497.244024 
L 989.748921 493.778765 
L 989.948766 495.973597 
L 990.148318 494.700643 
L 990.347578 494.34378 
L 990.745223 495.731385 
L 990.94361 495.564911 
L 991.141709 496.317019 
L 991.537042 494.258854 
L 991.93123 496.917463 
L 992.127896 495.609066 
L 992.520377 497.182996 
L 992.716194 497.088588 
L 992.911729 496.836144 
L 993.106983 495.952782 
L 993.301957 496.203446 
L 993.496652 495.778128 
L 993.691069 496.528383 
L 993.885209 496.319403 
L 994.079071 496.312806 
L 994.659007 497.037659 
L 994.85177 496.638438 
L 995.236479 494.095575 
L 995.428426 496.022818 
L 995.620103 495.600829 
L 996.002648 493.898435 
L 996.193518 494.983389 
L 996.38412 495.215317 
L 996.574455 495.088419 
L 996.954328 496.828906 
L 997.143868 497.07263 
L 997.333144 496.745287 
L 997.522156 496.1046 
L 997.710907 496.842544 
L 997.899395 496.720383 
L 998.087623 495.9659 
L 998.275591 496.619727 
L 998.650749 495.685969 
L 998.83794 496.251996 
L 999.024874 496.360092 
L 999.211552 495.998293 
L 999.397974 496.761905 
L 999.58414 496.607682 
L 999.770052 497.641856 
L 999.95571 496.44554 
L 1000.141115 496.188191 
L 1000.326268 497.173677 
L 1000.511169 496.886938 
L 1000.880218 497.70887 
L 1001.248269 496.084751 
L 1001.431921 497.474196 
L 1001.615326 497.5388 
L 1001.798484 497.295602 
L 1001.981395 497.28692 
L 1002.164061 496.691506 
L 1002.346481 497.037731 
L 1002.528658 497.116504 
L 1002.89228 496.804442 
L 1003.073727 497.095898 
L 1003.254932 496.48007 
L 1003.435897 496.849902 
L 1003.61662 497.493919 
L 1003.797104 497.025916 
L 1003.977349 496.925203 
L 1004.157355 497.612711 
L 1004.337123 497.11963 
L 1004.516654 496.996227 
L 1004.695948 497.707466 
L 1005.053829 496.053648 
L 1005.232417 496.444669 
L 1005.41077 497.477761 
L 1005.58889 496.847013 
L 1005.944432 497.082963 
L 1006.121855 497.677022 
L 1006.299047 496.689484 
L 1006.476008 497.537134 
L 1006.652739 497.556685 
L 1006.829241 496.906864 
L 1007.005514 497.457356 
L 1007.181558 497.295607 
L 1007.357376 497.419961 
L 1007.70833 496.66026 
L 1008.233068 497.245266 
L 1008.407532 496.879709 
L 1008.581772 497.52726 
L 1008.75579 497.542748 
L 1009.103158 498.020635 
L 1009.795244 497.003979 
L 1009.967717 497.824295 
L 1010.139971 497.66219 
L 1010.312007 496.934829 
L 1010.483826 496.907019 
L 1010.826814 497.58835 
L 1010.997984 497.388057 
L 1011.339679 497.439907 
L 1011.510205 497.812881 
L 1011.680518 497.515495 
L 1011.850617 497.817746 
L 1012.359643 497.633775 
L 1012.528896 497.851949 
L 1012.697938 497.399908 
L 1012.866771 497.39701 
L 1013.035394 497.254311 
L 1013.203808 497.287353 
L 1013.372014 497.053798 
L 1013.707804 497.626741 
L 1013.875388 497.600071 
L 1014.209938 497.280192 
L 1014.376905 497.123936 
L 1014.543667 497.558481 
L 1014.710225 496.845325 
L 1014.87658 497.389387 
L 1015.042731 497.24655 
L 1015.208679 497.434515 
L 1015.539969 496.976523 
L 1015.705312 497.463184 
L 1015.870455 496.82523 
L 1015.870455 496.82523 
" clip-path="url(#p658ec6656f)" style="fill: none; stroke: #0c5da5; stroke-width: 2; stroke-linecap: square"/>
   </g>
   <g id="patch_3">
    <path d="M 57.125 520.7175 
L 57.125 21.7575 
" style="fill: none; stroke: #000000; stroke-linejoin: miter; stroke-linecap: square"/>
   </g>
   <g id="patch_4">
    <path d="M 1061.525 520.7175 
L 1061.525 21.7575 
" style="fill: none; stroke: #000000; stroke-linejoin: miter; stroke-linecap: square"/>
   </g>
   <g id="patch_5">
    <path d="M 57.125 520.7175 
L 1061.525 520.7175 
" style="fill: none; stroke: #000000; stroke-linejoin: miter; stroke-linecap: square"/>
   </g>
   <g id="patch_6">
    <path d="M 57.125 21.7575 
L 1061.525 21.7575 
" style="fill: none; stroke: #000000; stroke-linejoin: miter; stroke-linecap: square"/>
   </g>
   <g id="text_13">
    <!-- Tabas_ Iran Record no. 143 -->
    <g transform="translate(451.63625 15.7575) scale(0.16 -0.16)">
     <defs>
      <path id="DejaVuSans-54" d="M -19 4666 
L 3928 4666 
L 3928 4134 
L 2272 4134 
L 2272 0 
L 1638 0 
L 1638 4134 
L -19 4134 
L -19 4666 
z
" transform="scale(0.015625)"/>
      <path id="DejaVuSans-61" d="M 2194 1759 
Q 1497 1759 1228 1600 
Q 959 1441 959 1056 
Q 959 750 1161 570 
Q 1363 391 1709 391 
Q 2188 391 2477 730 
Q 2766 1069 2766 1631 
L 2766 1759 
L 2194 1759 
z
M 3341 1997 
L 3341 0 
L 2766 0 
L 2766 531 
Q 2569 213 2275 61 
Q 1981 -91 1556 -91 
Q 1019 -91 701 211 
Q 384 513 384 1019 
Q 384 1609 779 1909 
Q 1175 2209 1959 2209 
L 2766 2209 
L 2766 2266 
Q 2766 2663 2505 2880 
Q 2244 3097 1772 3097 
Q 1472 3097 1187 3025 
Q 903 2953 641 2809 
L 641 3341 
Q 956 3463 1253 3523 
Q 1550 3584 1831 3584 
Q 2591 3584 2966 3190 
Q 3341 2797 3341 1997 
z
" transform="scale(0.015625)"/>
      <path id="DejaVuSans-62" d="M 3116 1747 
Q 3116 2381 2855 2742 
Q 2594 3103 2138 3103 
Q 1681 3103 1420 2742 
Q 1159 2381 1159 1747 
Q 1159 1113 1420 752 
Q 1681 391 2138 391 
Q 2594 391 2855 752 
Q 3116 1113 3116 1747 
z
M 1159 2969 
Q 1341 3281 1617 3432 
Q 1894 3584 2278 3584 
Q 2916 3584 3314 3078 
Q 3713 2572 3713 1747 
Q 3713 922 3314 415 
Q 2916 -91 2278 -91 
Q 1894 -91 1617 61 
Q 1341 213 1159 525 
L 1159 0 
L 581 0 
L 581 4863 
L 1159 4863 
L 1159 2969 
z
" transform="scale(0.015625)"/>
      <path id="DejaVuSans-73" d="M 2834 3397 
L 2834 2853 
Q 2591 2978 2328 3040 
Q 2066 3103 1784 3103 
Q 1356 3103 1142 2972 
Q 928 2841 928 2578 
Q 928 2378 1081 2264 
Q 1234 2150 1697 2047 
L 1894 2003 
Q 2506 1872 2764 1633 
Q 3022 1394 3022 966 
Q 3022 478 2636 193 
Q 2250 -91 1575 -91 
Q 1294 -91 989 -36 
Q 684 19 347 128 
L 347 722 
Q 666 556 975 473 
Q 1284 391 1588 391 
Q 1994 391 2212 530 
Q 2431 669 2431 922 
Q 2431 1156 2273 1281 
Q 2116 1406 1581 1522 
L 1381 1569 
Q 847 1681 609 1914 
Q 372 2147 372 2553 
Q 372 3047 722 3315 
Q 1072 3584 1716 3584 
Q 2034 3584 2315 3537 
Q 2597 3491 2834 3397 
z
" transform="scale(0.015625)"/>
      <path id="DejaVuSans-5f" d="M 3263 -1063 
L 3263 -1509 
L -63 -1509 
L -63 -1063 
L 3263 -1063 
z
" transform="scale(0.015625)"/>
      <path id="DejaVuSans-49" d="M 628 4666 
L 1259 4666 
L 1259 0 
L 628 0 
L 628 4666 
z
" transform="scale(0.015625)"/>
      <path id="DejaVuSans-52" d="M 2841 2188 
Q 3044 2119 3236 1894 
Q 3428 1669 3622 1275 
L 4263 0 
L 3584 0 
L 2988 1197 
Q 2756 1666 2539 1819 
Q 2322 1972 1947 1972 
L 1259 1972 
L 1259 0 
L 628 0 
L 628 4666 
L 2053 4666 
Q 2853 4666 3247 4331 
Q 3641 3997 3641 3322 
Q 3641 2881 3436 2590 
Q 3231 2300 2841 2188 
z
M 1259 4147 
L 1259 2491 
L 2053 2491 
Q 2509 2491 2742 2702 
Q 2975 2913 2975 3322 
Q 2975 3731 2742 3939 
Q 2509 4147 2053 4147 
L 1259 4147 
z
" transform="scale(0.015625)"/>
      <path id="DejaVuSans-6f" d="M 1959 3097 
Q 1497 3097 1228 2736 
Q 959 2375 959 1747 
Q 959 1119 1226 758 
Q 1494 397 1959 397 
Q 2419 397 2687 759 
Q 2956 1122 2956 1747 
Q 2956 2369 2687 2733 
Q 2419 3097 1959 3097 
z
M 1959 3584 
Q 2709 3584 3137 3096 
Q 3566 2609 3566 1747 
Q 3566 888 3137 398 
Q 2709 -91 1959 -91 
Q 1206 -91 779 398 
Q 353 888 353 1747 
Q 353 2609 779 3096 
Q 1206 3584 1959 3584 
z
" transform="scale(0.015625)"/>
      <path id="DejaVuSans-2e" d="M 684 794 
L 1344 794 
L 1344 0 
L 684 0 
L 684 794 
z
" transform="scale(0.015625)"/>
      <path id="DejaVuSans-34" d="M 2419 4116 
L 825 1625 
L 2419 1625 
L 2419 4116 
z
M 2253 4666 
L 3047 4666 
L 3047 1625 
L 3713 1625 
L 3713 1100 
L 3047 1100 
L 3047 0 
L 2419 0 
L 2419 1100 
L 313 1100 
L 313 1709 
L 2253 4666 
z
" transform="scale(0.015625)"/>
     </defs>
     <use xlink:href="#DejaVuSans-54"/>
     <use xlink:href="#DejaVuSans-61" x="44.583984"/>
     <use xlink:href="#DejaVuSans-62" x="105.863281"/>
     <use xlink:href="#DejaVuSans-61" x="169.339844"/>
     <use xlink:href="#DejaVuSans-73" x="230.619141"/>
     <use xlink:href="#DejaVuSans-5f" x="282.71875"/>
     <use xlink:href="#DejaVuSans-20" x="332.71875"/>
     <use xlink:href="#DejaVuSans-49" x="364.505859"/>
     <use xlink:href="#DejaVuSans-72" x="393.998047"/>
     <use xlink:href="#DejaVuSans-61" x="435.111328"/>
     <use xlink:href="#DejaVuSans-6e" x="496.390625"/>
     <use xlink:href="#DejaVuSans-20" x="559.769531"/>
     <use xlink:href="#DejaVuSans-52" x="591.556641"/>
     <use xlink:href="#DejaVuSans-65" x="656.539062"/>
     <use xlink:href="#DejaVuSans-63" x="718.0625"/>
     <use xlink:href="#DejaVuSans-6f" x="773.042969"/>
     <use xlink:href="#DejaVuSans-72" x="834.224609"/>
     <use xlink:href="#DejaVuSans-64" x="873.587891"/>
     <use xlink:href="#DejaVuSans-20" x="937.064453"/>
     <use xlink:href="#DejaVuSans-6e" x="968.851562"/>
     <use xlink:href="#DejaVuSans-6f" x="1032.230469"/>
     <use xlink:href="#DejaVuSans-2e" x="1091.662109"/>
     <use xlink:href="#DejaVuSans-20" x="1123.449219"/>
     <use xlink:href="#DejaVuSans-31" x="1155.236328"/>
     <use xlink:href="#DejaVuSans-34" x="1218.859375"/>
     <use xlink:href="#DejaVuSans-33" x="1282.482422"/>
    </g>
   </g>
   <g id="legend_1">
    <g id="patch_7">
     <path d="M 730.6225 58.0425 
L 1050.325 58.0425 
Q 1053.525 58.0425 1053.525 54.8425 
L 1053.525 32.9575 
Q 1053.525 29.7575 1050.325 29.7575 
L 730.6225 29.7575 
Q 727.4225 29.7575 727.4225 32.9575 
L 727.4225 54.8425 
Q 727.4225 58.0425 730.6225 58.0425 
z
" style="fill: #ffffff; stroke: #cccccc; stroke-linejoin: miter"/>
    </g>
    <g id="line2d_132">
     <path d="M 733.8225 42.715 
L 749.8225 42.715 
L 765.8225 42.715 
" style="fill: none; stroke: #0c5da5; stroke-width: 2; stroke-linecap: square"/>
    </g>
    <g id="text_14">
     <!-- Predominant Time Period = 4.94s -->
     <g transform="translate(778.6225 48.315) scale(0.16 -0.16)">
      <defs>
       <path id="DejaVuSans-50" d="M 1259 4147 
L 1259 2394 
L 2053 2394 
Q 2494 2394 2734 2622 
Q 2975 2850 2975 3272 
Q 2975 3691 2734 3919 
Q 2494 4147 2053 4147 
L 1259 4147 
z
M 628 4666 
L 2053 4666 
Q 2838 4666 3239 4311 
Q 3641 3956 3641 3272 
Q 3641 2581 3239 2228 
Q 2838 1875 2053 1875 
L 1259 1875 
L 1259 0 
L 628 0 
L 628 4666 
z
" transform="scale(0.015625)"/>
       <path id="DejaVuSans-3d" d="M 678 2906 
L 4684 2906 
L 4684 2381 
L 678 2381 
L 678 2906 
z
M 678 1631 
L 4684 1631 
L 4684 1100 
L 678 1100 
L 678 1631 
z
" transform="scale(0.015625)"/>
       <path id="DejaVuSans-39" d="M 703 97 
L 703 672 
Q 941 559 1184 500 
Q 1428 441 1663 441 
Q 2288 441 2617 861 
Q 2947 1281 2994 2138 
Q 2813 1869 2534 1725 
Q 2256 1581 1919 1581 
Q 1219 1581 811 2004 
Q 403 2428 403 3163 
Q 403 3881 828 4315 
Q 1253 4750 1959 4750 
Q 2769 4750 3195 4129 
Q 3622 3509 3622 2328 
Q 3622 1225 3098 567 
Q 2575 -91 1691 -91 
Q 1453 -91 1209 -44 
Q 966 3 703 97 
z
M 1959 2075 
Q 2384 2075 2632 2365 
Q 2881 2656 2881 3163 
Q 2881 3666 2632 3958 
Q 2384 4250 1959 4250 
Q 1534 4250 1286 3958 
Q 1038 3666 1038 3163 
Q 1038 2656 1286 2365 
Q 1534 2075 1959 2075 
z
" transform="scale(0.015625)"/>
      </defs>
      <use xlink:href="#DejaVuSans-50"/>
      <use xlink:href="#DejaVuSans-72" x="58.552734"/>
      <use xlink:href="#DejaVuSans-65" x="97.416016"/>
      <use xlink:href="#DejaVuSans-64" x="158.939453"/>
      <use xlink:href="#DejaVuSans-6f" x="222.416016"/>
      <use xlink:href="#DejaVuSans-6d" x="283.597656"/>
      <use xlink:href="#DejaVuSans-69" x="381.009766"/>
      <use xlink:href="#DejaVuSans-6e" x="408.792969"/>
      <use xlink:href="#DejaVuSans-61" x="472.171875"/>
      <use xlink:href="#DejaVuSans-6e" x="533.451172"/>
      <use xlink:href="#DejaVuSans-74" x="596.830078"/>
      <use xlink:href="#DejaVuSans-20" x="636.039062"/>
      <use xlink:href="#DejaVuSans-54" x="667.826172"/>
      <use xlink:href="#DejaVuSans-69" x="725.785156"/>
      <use xlink:href="#DejaVuSans-6d" x="753.568359"/>
      <use xlink:href="#DejaVuSans-65" x="850.980469"/>
      <use xlink:href="#DejaVuSans-20" x="912.503906"/>
      <use xlink:href="#DejaVuSans-50" x="944.291016"/>
      <use xlink:href="#DejaVuSans-65" x="1000.96875"/>
      <use xlink:href="#DejaVuSans-72" x="1062.492188"/>
      <use xlink:href="#DejaVuSans-69" x="1103.605469"/>
      <use xlink:href="#DejaVuSans-6f" x="1131.388672"/>
      <use xlink:href="#DejaVuSans-64" x="1192.570312"/>
      <use xlink:href="#DejaVuSans-20" x="1256.046875"/>
      <use xlink:href="#DejaVuSans-3d" x="1287.833984"/>
      <use xlink:href="#DejaVuSans-20" x="1371.623047"/>
      <use xlink:href="#DejaVuSans-34" x="1403.410156"/>
      <use xlink:href="#DejaVuSans-2e" x="1467.033203"/>
      <use xlink:href="#DejaVuSans-39" x="1498.820312"/>
      <use xlink:href="#DejaVuSans-34" x="1562.443359"/>
      <use xlink:href="#DejaVuSans-73" x="1626.066406"/>
     </g>
    </g>
   </g>
  </g>
 </g>
 <defs>
  <clipPath id="p658ec6656f">
   <rect x="57.125" y="21.7575" width="1004.4" height="498.96"/>
  </clipPath>
 </defs>
</svg>
