<?xml version="1.0" encoding="utf-8" standalone="no"?>
<!DOCTYPE svg PUBLIC "-//W3C//DTD SVG 1.1//EN"
  "http://www.w3.org/Graphics/SVG/1.1/DTD/svg11.dtd">
<svg xmlns:xlink="http://www.w3.org/1999/xlink" width="1083.6175pt" height="562.7875pt" viewBox="0 0 1083.6175 562.7875" xmlns="http://www.w3.org/2000/svg" version="1.1">
 <metadata>
  <rdf:RDF xmlns:dc="http://purl.org/dc/elements/1.1/" xmlns:cc="http://creativecommons.org/ns#" xmlns:rdf="http://www.w3.org/1999/02/22-rdf-syntax-ns#">
   <cc:Work>
    <dc:type rdf:resource="http://purl.org/dc/dcmitype/StillImage"/>
    <dc:date>2023-06-13T12:03:26.408610</dc:date>
    <dc:format>image/svg+xml</dc:format>
    <dc:creator>
     <cc:Agent>
      <dc:title>Matplotlib v3.7.1, https://matplotlib.org/</dc:title>
     </cc:Agent>
    </dc:creator>
   </cc:Work>
  </rdf:RDF>
 </metadata>
 <defs>
  <style type="text/css">*{stroke-linejoin: round; stroke-linecap: butt}</style>
 </defs>
 <g id="figure_1">
  <g id="patch_1">
   <path d="M 0 562.7875 
L 1083.6175 562.7875 
L 1083.6175 0 
L 0 0 
z
" style="fill: #ffffff"/>
  </g>
  <g id="axes_1">
   <g id="patch_2">
    <path d="M 75.6175 520.7175 
L 1080.0175 520.7175 
L 1080.0175 21.7575 
L 75.6175 21.7575 
z
" style="fill: #ffffff"/>
   </g>
   <g id="matplotlib.axis_1">
    <g id="xtick_1">
     <g id="line2d_1">
      <path d="M 121.272045 520.7175 
L 121.272045 21.7575 
" clip-path="url(#p31ad2bc1e2)" style="fill: none; stroke-dasharray: 1.85,0.8; stroke-dashoffset: 0; stroke: #000000; stroke-opacity: 0.5; stroke-width: 0.5"/>
     </g>
     <g id="line2d_2">
      <defs>
       <path id="mba28fb93ec" d="M 0 0 
L 0 -6 
" style="stroke: #000000"/>
      </defs>
      <g>
       <use xlink:href="#mba28fb93ec" x="121.272045" y="520.7175" style="stroke: #000000"/>
      </g>
     </g>
     <g id="line2d_3">
      <defs>
       <path id="mc1fb5be4cd" d="M 0 0 
L 0 6 
" style="stroke: #000000"/>
      </defs>
      <g>
       <use xlink:href="#mc1fb5be4cd" x="121.272045" y="21.7575" style="stroke: #000000"/>
      </g>
     </g>
     <g id="text_1">
      <!-- 0 -->
      <g transform="translate(116.182045 536.375) scale(0.16 -0.16)">
       <defs>
        <path id="DejaVuSans-30" d="M 2034 4250 
Q 1547 4250 1301 3770 
Q 1056 3291 1056 2328 
Q 1056 1369 1301 889 
Q 1547 409 2034 409 
Q 2525 409 2770 889 
Q 3016 1369 3016 2328 
Q 3016 3291 2770 3770 
Q 2525 4250 2034 4250 
z
M 2034 4750 
Q 2819 4750 3233 4129 
Q 3647 3509 3647 2328 
Q 3647 1150 3233 529 
Q 2819 -91 2034 -91 
Q 1250 -91 836 529 
Q 422 1150 422 2328 
Q 422 3509 836 4129 
Q 1250 4750 2034 4750 
z
" transform="scale(0.015625)"/>
       </defs>
       <use xlink:href="#DejaVuSans-30"/>
      </g>
     </g>
    </g>
    <g id="xtick_2">
     <g id="line2d_4">
      <path d="M 259.70305 520.7175 
L 259.70305 21.7575 
" clip-path="url(#p31ad2bc1e2)" style="fill: none; stroke-dasharray: 1.85,0.8; stroke-dashoffset: 0; stroke: #000000; stroke-opacity: 0.5; stroke-width: 0.5"/>
     </g>
     <g id="line2d_5">
      <g>
       <use xlink:href="#mba28fb93ec" x="259.70305" y="520.7175" style="stroke: #000000"/>
      </g>
     </g>
     <g id="line2d_6">
      <g>
       <use xlink:href="#mc1fb5be4cd" x="259.70305" y="21.7575" style="stroke: #000000"/>
      </g>
     </g>
     <g id="text_2">
      <!-- 5 -->
      <g transform="translate(254.61305 536.375) scale(0.16 -0.16)">
       <defs>
        <path id="DejaVuSans-35" d="M 691 4666 
L 3169 4666 
L 3169 4134 
L 1269 4134 
L 1269 2991 
Q 1406 3038 1543 3061 
Q 1681 3084 1819 3084 
Q 2600 3084 3056 2656 
Q 3513 2228 3513 1497 
Q 3513 744 3044 326 
Q 2575 -91 1722 -91 
Q 1428 -91 1123 -41 
Q 819 9 494 109 
L 494 744 
Q 775 591 1075 516 
Q 1375 441 1709 441 
Q 2250 441 2565 725 
Q 2881 1009 2881 1497 
Q 2881 1984 2565 2268 
Q 2250 2553 1709 2553 
Q 1456 2553 1204 2497 
Q 953 2441 691 2322 
L 691 4666 
z
" transform="scale(0.015625)"/>
       </defs>
       <use xlink:href="#DejaVuSans-35"/>
      </g>
     </g>
    </g>
    <g id="xtick_3">
     <g id="line2d_7">
      <path d="M 398.134055 520.7175 
L 398.134055 21.7575 
" clip-path="url(#p31ad2bc1e2)" style="fill: none; stroke-dasharray: 1.85,0.8; stroke-dashoffset: 0; stroke: #000000; stroke-opacity: 0.5; stroke-width: 0.5"/>
     </g>
     <g id="line2d_8">
      <g>
       <use xlink:href="#mba28fb93ec" x="398.134055" y="520.7175" style="stroke: #000000"/>
      </g>
     </g>
     <g id="line2d_9">
      <g>
       <use xlink:href="#mc1fb5be4cd" x="398.134055" y="21.7575" style="stroke: #000000"/>
      </g>
     </g>
     <g id="text_3">
      <!-- 10 -->
      <g transform="translate(387.954055 536.375) scale(0.16 -0.16)">
       <defs>
        <path id="DejaVuSans-31" d="M 794 531 
L 1825 531 
L 1825 4091 
L 703 3866 
L 703 4441 
L 1819 4666 
L 2450 4666 
L 2450 531 
L 3481 531 
L 3481 0 
L 794 0 
L 794 531 
z
" transform="scale(0.015625)"/>
       </defs>
       <use xlink:href="#DejaVuSans-31"/>
       <use xlink:href="#DejaVuSans-30" x="63.623047"/>
      </g>
     </g>
    </g>
    <g id="xtick_4">
     <g id="line2d_10">
      <path d="M 536.565061 520.7175 
L 536.565061 21.7575 
" clip-path="url(#p31ad2bc1e2)" style="fill: none; stroke-dasharray: 1.85,0.8; stroke-dashoffset: 0; stroke: #000000; stroke-opacity: 0.5; stroke-width: 0.5"/>
     </g>
     <g id="line2d_11">
      <g>
       <use xlink:href="#mba28fb93ec" x="536.565061" y="520.7175" style="stroke: #000000"/>
      </g>
     </g>
     <g id="line2d_12">
      <g>
       <use xlink:href="#mc1fb5be4cd" x="536.565061" y="21.7575" style="stroke: #000000"/>
      </g>
     </g>
     <g id="text_4">
      <!-- 15 -->
      <g transform="translate(526.385061 536.375) scale(0.16 -0.16)">
       <use xlink:href="#DejaVuSans-31"/>
       <use xlink:href="#DejaVuSans-35" x="63.623047"/>
      </g>
     </g>
    </g>
    <g id="xtick_5">
     <g id="line2d_13">
      <path d="M 674.996066 520.7175 
L 674.996066 21.7575 
" clip-path="url(#p31ad2bc1e2)" style="fill: none; stroke-dasharray: 1.85,0.8; stroke-dashoffset: 0; stroke: #000000; stroke-opacity: 0.5; stroke-width: 0.5"/>
     </g>
     <g id="line2d_14">
      <g>
       <use xlink:href="#mba28fb93ec" x="674.996066" y="520.7175" style="stroke: #000000"/>
      </g>
     </g>
     <g id="line2d_15">
      <g>
       <use xlink:href="#mc1fb5be4cd" x="674.996066" y="21.7575" style="stroke: #000000"/>
      </g>
     </g>
     <g id="text_5">
      <!-- 20 -->
      <g transform="translate(664.816066 536.375) scale(0.16 -0.16)">
       <defs>
        <path id="DejaVuSans-32" d="M 1228 531 
L 3431 531 
L 3431 0 
L 469 0 
L 469 531 
Q 828 903 1448 1529 
Q 2069 2156 2228 2338 
Q 2531 2678 2651 2914 
Q 2772 3150 2772 3378 
Q 2772 3750 2511 3984 
Q 2250 4219 1831 4219 
Q 1534 4219 1204 4116 
Q 875 4013 500 3803 
L 500 4441 
Q 881 4594 1212 4672 
Q 1544 4750 1819 4750 
Q 2544 4750 2975 4387 
Q 3406 4025 3406 3419 
Q 3406 3131 3298 2873 
Q 3191 2616 2906 2266 
Q 2828 2175 2409 1742 
Q 1991 1309 1228 531 
z
" transform="scale(0.015625)"/>
       </defs>
       <use xlink:href="#DejaVuSans-32"/>
       <use xlink:href="#DejaVuSans-30" x="63.623047"/>
      </g>
     </g>
    </g>
    <g id="xtick_6">
     <g id="line2d_16">
      <path d="M 813.427071 520.7175 
L 813.427071 21.7575 
" clip-path="url(#p31ad2bc1e2)" style="fill: none; stroke-dasharray: 1.85,0.8; stroke-dashoffset: 0; stroke: #000000; stroke-opacity: 0.5; stroke-width: 0.5"/>
     </g>
     <g id="line2d_17">
      <g>
       <use xlink:href="#mba28fb93ec" x="813.427071" y="520.7175" style="stroke: #000000"/>
      </g>
     </g>
     <g id="line2d_18">
      <g>
       <use xlink:href="#mc1fb5be4cd" x="813.427071" y="21.7575" style="stroke: #000000"/>
      </g>
     </g>
     <g id="text_6">
      <!-- 25 -->
      <g transform="translate(803.247071 536.375) scale(0.16 -0.16)">
       <use xlink:href="#DejaVuSans-32"/>
       <use xlink:href="#DejaVuSans-35" x="63.623047"/>
      </g>
     </g>
    </g>
    <g id="xtick_7">
     <g id="line2d_19">
      <path d="M 951.858076 520.7175 
L 951.858076 21.7575 
" clip-path="url(#p31ad2bc1e2)" style="fill: none; stroke-dasharray: 1.85,0.8; stroke-dashoffset: 0; stroke: #000000; stroke-opacity: 0.5; stroke-width: 0.5"/>
     </g>
     <g id="line2d_20">
      <g>
       <use xlink:href="#mba28fb93ec" x="951.858076" y="520.7175" style="stroke: #000000"/>
      </g>
     </g>
     <g id="line2d_21">
      <g>
       <use xlink:href="#mc1fb5be4cd" x="951.858076" y="21.7575" style="stroke: #000000"/>
      </g>
     </g>
     <g id="text_7">
      <!-- 30 -->
      <g transform="translate(941.678076 536.375) scale(0.16 -0.16)">
       <defs>
        <path id="DejaVuSans-33" d="M 2597 2516 
Q 3050 2419 3304 2112 
Q 3559 1806 3559 1356 
Q 3559 666 3084 287 
Q 2609 -91 1734 -91 
Q 1441 -91 1130 -33 
Q 819 25 488 141 
L 488 750 
Q 750 597 1062 519 
Q 1375 441 1716 441 
Q 2309 441 2620 675 
Q 2931 909 2931 1356 
Q 2931 1769 2642 2001 
Q 2353 2234 1838 2234 
L 1294 2234 
L 1294 2753 
L 1863 2753 
Q 2328 2753 2575 2939 
Q 2822 3125 2822 3475 
Q 2822 3834 2567 4026 
Q 2313 4219 1838 4219 
Q 1578 4219 1281 4162 
Q 984 4106 628 3988 
L 628 4550 
Q 988 4650 1302 4700 
Q 1616 4750 1894 4750 
Q 2613 4750 3031 4423 
Q 3450 4097 3450 3541 
Q 3450 3153 3228 2886 
Q 3006 2619 2597 2516 
z
" transform="scale(0.015625)"/>
       </defs>
       <use xlink:href="#DejaVuSans-33"/>
       <use xlink:href="#DejaVuSans-30" x="63.623047"/>
      </g>
     </g>
    </g>
    <g id="xtick_8">
     <g id="line2d_22">
      <defs>
       <path id="m2a1b856c23" d="M 0 0 
L 0 -3 
" style="stroke: #000000"/>
      </defs>
      <g>
       <use xlink:href="#m2a1b856c23" x="93.585844" y="520.7175" style="stroke: #000000"/>
      </g>
     </g>
     <g id="line2d_23">
      <defs>
       <path id="m9d92c784ee" d="M 0 0 
L 0 3 
" style="stroke: #000000"/>
      </defs>
      <g>
       <use xlink:href="#m9d92c784ee" x="93.585844" y="21.7575" style="stroke: #000000"/>
      </g>
     </g>
    </g>
    <g id="xtick_9">
     <g id="line2d_24">
      <g>
       <use xlink:href="#m2a1b856c23" x="148.958246" y="520.7175" style="stroke: #000000"/>
      </g>
     </g>
     <g id="line2d_25">
      <g>
       <use xlink:href="#m9d92c784ee" x="148.958246" y="21.7575" style="stroke: #000000"/>
      </g>
     </g>
    </g>
    <g id="xtick_10">
     <g id="line2d_26">
      <g>
       <use xlink:href="#m2a1b856c23" x="176.644447" y="520.7175" style="stroke: #000000"/>
      </g>
     </g>
     <g id="line2d_27">
      <g>
       <use xlink:href="#m9d92c784ee" x="176.644447" y="21.7575" style="stroke: #000000"/>
      </g>
     </g>
    </g>
    <g id="xtick_11">
     <g id="line2d_28">
      <g>
       <use xlink:href="#m2a1b856c23" x="204.330648" y="520.7175" style="stroke: #000000"/>
      </g>
     </g>
     <g id="line2d_29">
      <g>
       <use xlink:href="#m9d92c784ee" x="204.330648" y="21.7575" style="stroke: #000000"/>
      </g>
     </g>
    </g>
    <g id="xtick_12">
     <g id="line2d_30">
      <g>
       <use xlink:href="#m2a1b856c23" x="232.016849" y="520.7175" style="stroke: #000000"/>
      </g>
     </g>
     <g id="line2d_31">
      <g>
       <use xlink:href="#m9d92c784ee" x="232.016849" y="21.7575" style="stroke: #000000"/>
      </g>
     </g>
    </g>
    <g id="xtick_13">
     <g id="line2d_32">
      <g>
       <use xlink:href="#m2a1b856c23" x="287.389251" y="520.7175" style="stroke: #000000"/>
      </g>
     </g>
     <g id="line2d_33">
      <g>
       <use xlink:href="#m9d92c784ee" x="287.389251" y="21.7575" style="stroke: #000000"/>
      </g>
     </g>
    </g>
    <g id="xtick_14">
     <g id="line2d_34">
      <g>
       <use xlink:href="#m2a1b856c23" x="315.075452" y="520.7175" style="stroke: #000000"/>
      </g>
     </g>
     <g id="line2d_35">
      <g>
       <use xlink:href="#m9d92c784ee" x="315.075452" y="21.7575" style="stroke: #000000"/>
      </g>
     </g>
    </g>
    <g id="xtick_15">
     <g id="line2d_36">
      <g>
       <use xlink:href="#m2a1b856c23" x="342.761653" y="520.7175" style="stroke: #000000"/>
      </g>
     </g>
     <g id="line2d_37">
      <g>
       <use xlink:href="#m9d92c784ee" x="342.761653" y="21.7575" style="stroke: #000000"/>
      </g>
     </g>
    </g>
    <g id="xtick_16">
     <g id="line2d_38">
      <g>
       <use xlink:href="#m2a1b856c23" x="370.447854" y="520.7175" style="stroke: #000000"/>
      </g>
     </g>
     <g id="line2d_39">
      <g>
       <use xlink:href="#m9d92c784ee" x="370.447854" y="21.7575" style="stroke: #000000"/>
      </g>
     </g>
    </g>
    <g id="xtick_17">
     <g id="line2d_40">
      <g>
       <use xlink:href="#m2a1b856c23" x="425.820256" y="520.7175" style="stroke: #000000"/>
      </g>
     </g>
     <g id="line2d_41">
      <g>
       <use xlink:href="#m9d92c784ee" x="425.820256" y="21.7575" style="stroke: #000000"/>
      </g>
     </g>
    </g>
    <g id="xtick_18">
     <g id="line2d_42">
      <g>
       <use xlink:href="#m2a1b856c23" x="453.506457" y="520.7175" style="stroke: #000000"/>
      </g>
     </g>
     <g id="line2d_43">
      <g>
       <use xlink:href="#m9d92c784ee" x="453.506457" y="21.7575" style="stroke: #000000"/>
      </g>
     </g>
    </g>
    <g id="xtick_19">
     <g id="line2d_44">
      <g>
       <use xlink:href="#m2a1b856c23" x="481.192658" y="520.7175" style="stroke: #000000"/>
      </g>
     </g>
     <g id="line2d_45">
      <g>
       <use xlink:href="#m9d92c784ee" x="481.192658" y="21.7575" style="stroke: #000000"/>
      </g>
     </g>
    </g>
    <g id="xtick_20">
     <g id="line2d_46">
      <g>
       <use xlink:href="#m2a1b856c23" x="508.87886" y="520.7175" style="stroke: #000000"/>
      </g>
     </g>
     <g id="line2d_47">
      <g>
       <use xlink:href="#m9d92c784ee" x="508.87886" y="21.7575" style="stroke: #000000"/>
      </g>
     </g>
    </g>
    <g id="xtick_21">
     <g id="line2d_48">
      <g>
       <use xlink:href="#m2a1b856c23" x="564.251262" y="520.7175" style="stroke: #000000"/>
      </g>
     </g>
     <g id="line2d_49">
      <g>
       <use xlink:href="#m9d92c784ee" x="564.251262" y="21.7575" style="stroke: #000000"/>
      </g>
     </g>
    </g>
    <g id="xtick_22">
     <g id="line2d_50">
      <g>
       <use xlink:href="#m2a1b856c23" x="591.937463" y="520.7175" style="stroke: #000000"/>
      </g>
     </g>
     <g id="line2d_51">
      <g>
       <use xlink:href="#m9d92c784ee" x="591.937463" y="21.7575" style="stroke: #000000"/>
      </g>
     </g>
    </g>
    <g id="xtick_23">
     <g id="line2d_52">
      <g>
       <use xlink:href="#m2a1b856c23" x="619.623664" y="520.7175" style="stroke: #000000"/>
      </g>
     </g>
     <g id="line2d_53">
      <g>
       <use xlink:href="#m9d92c784ee" x="619.623664" y="21.7575" style="stroke: #000000"/>
      </g>
     </g>
    </g>
    <g id="xtick_24">
     <g id="line2d_54">
      <g>
       <use xlink:href="#m2a1b856c23" x="647.309865" y="520.7175" style="stroke: #000000"/>
      </g>
     </g>
     <g id="line2d_55">
      <g>
       <use xlink:href="#m9d92c784ee" x="647.309865" y="21.7575" style="stroke: #000000"/>
      </g>
     </g>
    </g>
    <g id="xtick_25">
     <g id="line2d_56">
      <g>
       <use xlink:href="#m2a1b856c23" x="702.682267" y="520.7175" style="stroke: #000000"/>
      </g>
     </g>
     <g id="line2d_57">
      <g>
       <use xlink:href="#m9d92c784ee" x="702.682267" y="21.7575" style="stroke: #000000"/>
      </g>
     </g>
    </g>
    <g id="xtick_26">
     <g id="line2d_58">
      <g>
       <use xlink:href="#m2a1b856c23" x="730.368468" y="520.7175" style="stroke: #000000"/>
      </g>
     </g>
     <g id="line2d_59">
      <g>
       <use xlink:href="#m9d92c784ee" x="730.368468" y="21.7575" style="stroke: #000000"/>
      </g>
     </g>
    </g>
    <g id="xtick_27">
     <g id="line2d_60">
      <g>
       <use xlink:href="#m2a1b856c23" x="758.054669" y="520.7175" style="stroke: #000000"/>
      </g>
     </g>
     <g id="line2d_61">
      <g>
       <use xlink:href="#m9d92c784ee" x="758.054669" y="21.7575" style="stroke: #000000"/>
      </g>
     </g>
    </g>
    <g id="xtick_28">
     <g id="line2d_62">
      <g>
       <use xlink:href="#m2a1b856c23" x="785.74087" y="520.7175" style="stroke: #000000"/>
      </g>
     </g>
     <g id="line2d_63">
      <g>
       <use xlink:href="#m9d92c784ee" x="785.74087" y="21.7575" style="stroke: #000000"/>
      </g>
     </g>
    </g>
    <g id="xtick_29">
     <g id="line2d_64">
      <g>
       <use xlink:href="#m2a1b856c23" x="841.113272" y="520.7175" style="stroke: #000000"/>
      </g>
     </g>
     <g id="line2d_65">
      <g>
       <use xlink:href="#m9d92c784ee" x="841.113272" y="21.7575" style="stroke: #000000"/>
      </g>
     </g>
    </g>
    <g id="xtick_30">
     <g id="line2d_66">
      <g>
       <use xlink:href="#m2a1b856c23" x="868.799473" y="520.7175" style="stroke: #000000"/>
      </g>
     </g>
     <g id="line2d_67">
      <g>
       <use xlink:href="#m9d92c784ee" x="868.799473" y="21.7575" style="stroke: #000000"/>
      </g>
     </g>
    </g>
    <g id="xtick_31">
     <g id="line2d_68">
      <g>
       <use xlink:href="#m2a1b856c23" x="896.485674" y="520.7175" style="stroke: #000000"/>
      </g>
     </g>
     <g id="line2d_69">
      <g>
       <use xlink:href="#m9d92c784ee" x="896.485674" y="21.7575" style="stroke: #000000"/>
      </g>
     </g>
    </g>
    <g id="xtick_32">
     <g id="line2d_70">
      <g>
       <use xlink:href="#m2a1b856c23" x="924.171875" y="520.7175" style="stroke: #000000"/>
      </g>
     </g>
     <g id="line2d_71">
      <g>
       <use xlink:href="#m9d92c784ee" x="924.171875" y="21.7575" style="stroke: #000000"/>
      </g>
     </g>
    </g>
    <g id="xtick_33">
     <g id="line2d_72">
      <g>
       <use xlink:href="#m2a1b856c23" x="979.544277" y="520.7175" style="stroke: #000000"/>
      </g>
     </g>
     <g id="line2d_73">
      <g>
       <use xlink:href="#m9d92c784ee" x="979.544277" y="21.7575" style="stroke: #000000"/>
      </g>
     </g>
    </g>
    <g id="xtick_34">
     <g id="line2d_74">
      <g>
       <use xlink:href="#m2a1b856c23" x="1007.230478" y="520.7175" style="stroke: #000000"/>
      </g>
     </g>
     <g id="line2d_75">
      <g>
       <use xlink:href="#m9d92c784ee" x="1007.230478" y="21.7575" style="stroke: #000000"/>
      </g>
     </g>
    </g>
    <g id="xtick_35">
     <g id="line2d_76">
      <g>
       <use xlink:href="#m2a1b856c23" x="1034.916679" y="520.7175" style="stroke: #000000"/>
      </g>
     </g>
     <g id="line2d_77">
      <g>
       <use xlink:href="#m9d92c784ee" x="1034.916679" y="21.7575" style="stroke: #000000"/>
      </g>
     </g>
    </g>
    <g id="xtick_36">
     <g id="line2d_78">
      <g>
       <use xlink:href="#m2a1b856c23" x="1062.60288" y="520.7175" style="stroke: #000000"/>
      </g>
     </g>
     <g id="line2d_79">
      <g>
       <use xlink:href="#m9d92c784ee" x="1062.60288" y="21.7575" style="stroke: #000000"/>
      </g>
     </g>
    </g>
    <g id="text_8">
     <!-- Time(s) -->
     <g transform="translate(547.83375 555.86) scale(0.16 -0.16)">
      <defs>
       <path id="DejaVuSans-54" d="M -19 4666 
L 3928 4666 
L 3928 4134 
L 2272 4134 
L 2272 0 
L 1638 0 
L 1638 4134 
L -19 4134 
L -19 4666 
z
" transform="scale(0.015625)"/>
       <path id="DejaVuSans-69" d="M 603 3500 
L 1178 3500 
L 1178 0 
L 603 0 
L 603 3500 
z
M 603 4863 
L 1178 4863 
L 1178 4134 
L 603 4134 
L 603 4863 
z
" transform="scale(0.015625)"/>
       <path id="DejaVuSans-6d" d="M 3328 2828 
Q 3544 3216 3844 3400 
Q 4144 3584 4550 3584 
Q 5097 3584 5394 3201 
Q 5691 2819 5691 2113 
L 5691 0 
L 5113 0 
L 5113 2094 
Q 5113 2597 4934 2840 
Q 4756 3084 4391 3084 
Q 3944 3084 3684 2787 
Q 3425 2491 3425 1978 
L 3425 0 
L 2847 0 
L 2847 2094 
Q 2847 2600 2669 2842 
Q 2491 3084 2119 3084 
Q 1678 3084 1418 2786 
Q 1159 2488 1159 1978 
L 1159 0 
L 581 0 
L 581 3500 
L 1159 3500 
L 1159 2956 
Q 1356 3278 1631 3431 
Q 1906 3584 2284 3584 
Q 2666 3584 2933 3390 
Q 3200 3197 3328 2828 
z
" transform="scale(0.015625)"/>
       <path id="DejaVuSans-65" d="M 3597 1894 
L 3597 1613 
L 953 1613 
Q 991 1019 1311 708 
Q 1631 397 2203 397 
Q 2534 397 2845 478 
Q 3156 559 3463 722 
L 3463 178 
Q 3153 47 2828 -22 
Q 2503 -91 2169 -91 
Q 1331 -91 842 396 
Q 353 884 353 1716 
Q 353 2575 817 3079 
Q 1281 3584 2069 3584 
Q 2775 3584 3186 3129 
Q 3597 2675 3597 1894 
z
M 3022 2063 
Q 3016 2534 2758 2815 
Q 2500 3097 2075 3097 
Q 1594 3097 1305 2825 
Q 1016 2553 972 2059 
L 3022 2063 
z
" transform="scale(0.015625)"/>
       <path id="DejaVuSans-28" d="M 1984 4856 
Q 1566 4138 1362 3434 
Q 1159 2731 1159 2009 
Q 1159 1288 1364 580 
Q 1569 -128 1984 -844 
L 1484 -844 
Q 1016 -109 783 600 
Q 550 1309 550 2009 
Q 550 2706 781 3412 
Q 1013 4119 1484 4856 
L 1984 4856 
z
" transform="scale(0.015625)"/>
       <path id="DejaVuSans-73" d="M 2834 3397 
L 2834 2853 
Q 2591 2978 2328 3040 
Q 2066 3103 1784 3103 
Q 1356 3103 1142 2972 
Q 928 2841 928 2578 
Q 928 2378 1081 2264 
Q 1234 2150 1697 2047 
L 1894 2003 
Q 2506 1872 2764 1633 
Q 3022 1394 3022 966 
Q 3022 478 2636 193 
Q 2250 -91 1575 -91 
Q 1294 -91 989 -36 
Q 684 19 347 128 
L 347 722 
Q 666 556 975 473 
Q 1284 391 1588 391 
Q 1994 391 2212 530 
Q 2431 669 2431 922 
Q 2431 1156 2273 1281 
Q 2116 1406 1581 1522 
L 1381 1569 
Q 847 1681 609 1914 
Q 372 2147 372 2553 
Q 372 3047 722 3315 
Q 1072 3584 1716 3584 
Q 2034 3584 2315 3537 
Q 2597 3491 2834 3397 
z
" transform="scale(0.015625)"/>
       <path id="DejaVuSans-29" d="M 513 4856 
L 1013 4856 
Q 1481 4119 1714 3412 
Q 1947 2706 1947 2009 
Q 1947 1309 1714 600 
Q 1481 -109 1013 -844 
L 513 -844 
Q 928 -128 1133 580 
Q 1338 1288 1338 2009 
Q 1338 2731 1133 3434 
Q 928 4138 513 4856 
z
" transform="scale(0.015625)"/>
      </defs>
      <use xlink:href="#DejaVuSans-54"/>
      <use xlink:href="#DejaVuSans-69" x="57.958984"/>
      <use xlink:href="#DejaVuSans-6d" x="85.742188"/>
      <use xlink:href="#DejaVuSans-65" x="183.154297"/>
      <use xlink:href="#DejaVuSans-28" x="244.677734"/>
      <use xlink:href="#DejaVuSans-73" x="283.691406"/>
      <use xlink:href="#DejaVuSans-29" x="335.791016"/>
     </g>
    </g>
   </g>
   <g id="matplotlib.axis_2">
    <g id="ytick_1">
     <g id="line2d_80">
      <path d="M 75.6175 519.446438 
L 1080.0175 519.446438 
" clip-path="url(#p31ad2bc1e2)" style="fill: none; stroke-dasharray: 1.85,0.8; stroke-dashoffset: 0; stroke: #000000; stroke-opacity: 0.5; stroke-width: 0.5"/>
     </g>
     <g id="line2d_81">
      <defs>
       <path id="mbe5f50711e" d="M 0 0 
L 6 0 
" style="stroke: #000000"/>
      </defs>
      <g>
       <use xlink:href="#mbe5f50711e" x="75.6175" y="519.446438" style="stroke: #000000"/>
      </g>
     </g>
     <g id="line2d_82">
      <defs>
       <path id="m91731a8733" d="M 0 0 
L -6 0 
" style="stroke: #000000"/>
      </defs>
      <g>
       <use xlink:href="#m91731a8733" x="1080.0175" y="519.446438" style="stroke: #000000"/>
      </g>
     </g>
     <g id="text_9">
      <!-- −0.06 -->
      <g transform="translate(23.085 525.525188) scale(0.16 -0.16)">
       <defs>
        <path id="DejaVuSans-2212" d="M 678 2272 
L 4684 2272 
L 4684 1741 
L 678 1741 
L 678 2272 
z
" transform="scale(0.015625)"/>
        <path id="DejaVuSans-2e" d="M 684 794 
L 1344 794 
L 1344 0 
L 684 0 
L 684 794 
z
" transform="scale(0.015625)"/>
        <path id="DejaVuSans-36" d="M 2113 2584 
Q 1688 2584 1439 2293 
Q 1191 2003 1191 1497 
Q 1191 994 1439 701 
Q 1688 409 2113 409 
Q 2538 409 2786 701 
Q 3034 994 3034 1497 
Q 3034 2003 2786 2293 
Q 2538 2584 2113 2584 
z
M 3366 4563 
L 3366 3988 
Q 3128 4100 2886 4159 
Q 2644 4219 2406 4219 
Q 1781 4219 1451 3797 
Q 1122 3375 1075 2522 
Q 1259 2794 1537 2939 
Q 1816 3084 2150 3084 
Q 2853 3084 3261 2657 
Q 3669 2231 3669 1497 
Q 3669 778 3244 343 
Q 2819 -91 2113 -91 
Q 1303 -91 875 529 
Q 447 1150 447 2328 
Q 447 3434 972 4092 
Q 1497 4750 2381 4750 
Q 2619 4750 2861 4703 
Q 3103 4656 3366 4563 
z
" transform="scale(0.015625)"/>
       </defs>
       <use xlink:href="#DejaVuSans-2212"/>
       <use xlink:href="#DejaVuSans-30" x="83.789062"/>
       <use xlink:href="#DejaVuSans-2e" x="147.412109"/>
       <use xlink:href="#DejaVuSans-30" x="179.199219"/>
       <use xlink:href="#DejaVuSans-36" x="242.822266"/>
      </g>
     </g>
    </g>
    <g id="ytick_2">
     <g id="line2d_83">
      <path d="M 75.6175 437.027214 
L 1080.0175 437.027214 
" clip-path="url(#p31ad2bc1e2)" style="fill: none; stroke-dasharray: 1.85,0.8; stroke-dashoffset: 0; stroke: #000000; stroke-opacity: 0.5; stroke-width: 0.5"/>
     </g>
     <g id="line2d_84">
      <g>
       <use xlink:href="#mbe5f50711e" x="75.6175" y="437.027214" style="stroke: #000000"/>
      </g>
     </g>
     <g id="line2d_85">
      <g>
       <use xlink:href="#m91731a8733" x="1080.0175" y="437.027214" style="stroke: #000000"/>
      </g>
     </g>
     <g id="text_10">
      <!-- −0.04 -->
      <g transform="translate(23.085 443.105964) scale(0.16 -0.16)">
       <defs>
        <path id="DejaVuSans-34" d="M 2419 4116 
L 825 1625 
L 2419 1625 
L 2419 4116 
z
M 2253 4666 
L 3047 4666 
L 3047 1625 
L 3713 1625 
L 3713 1100 
L 3047 1100 
L 3047 0 
L 2419 0 
L 2419 1100 
L 313 1100 
L 313 1709 
L 2253 4666 
z
" transform="scale(0.015625)"/>
       </defs>
       <use xlink:href="#DejaVuSans-2212"/>
       <use xlink:href="#DejaVuSans-30" x="83.789062"/>
       <use xlink:href="#DejaVuSans-2e" x="147.412109"/>
       <use xlink:href="#DejaVuSans-30" x="179.199219"/>
       <use xlink:href="#DejaVuSans-34" x="242.822266"/>
      </g>
     </g>
    </g>
    <g id="ytick_3">
     <g id="line2d_86">
      <path d="M 75.6175 354.607991 
L 1080.0175 354.607991 
" clip-path="url(#p31ad2bc1e2)" style="fill: none; stroke-dasharray: 1.85,0.8; stroke-dashoffset: 0; stroke: #000000; stroke-opacity: 0.5; stroke-width: 0.5"/>
     </g>
     <g id="line2d_87">
      <g>
       <use xlink:href="#mbe5f50711e" x="75.6175" y="354.607991" style="stroke: #000000"/>
      </g>
     </g>
     <g id="line2d_88">
      <g>
       <use xlink:href="#m91731a8733" x="1080.0175" y="354.607991" style="stroke: #000000"/>
      </g>
     </g>
     <g id="text_11">
      <!-- −0.02 -->
      <g transform="translate(23.085 360.686741) scale(0.16 -0.16)">
       <use xlink:href="#DejaVuSans-2212"/>
       <use xlink:href="#DejaVuSans-30" x="83.789062"/>
       <use xlink:href="#DejaVuSans-2e" x="147.412109"/>
       <use xlink:href="#DejaVuSans-30" x="179.199219"/>
       <use xlink:href="#DejaVuSans-32" x="242.822266"/>
      </g>
     </g>
    </g>
    <g id="ytick_4">
     <g id="line2d_89">
      <path d="M 75.6175 272.188768 
L 1080.0175 272.188768 
" clip-path="url(#p31ad2bc1e2)" style="fill: none; stroke-dasharray: 1.85,0.8; stroke-dashoffset: 0; stroke: #000000; stroke-opacity: 0.5; stroke-width: 0.5"/>
     </g>
     <g id="line2d_90">
      <g>
       <use xlink:href="#mbe5f50711e" x="75.6175" y="272.188768" style="stroke: #000000"/>
      </g>
     </g>
     <g id="line2d_91">
      <g>
       <use xlink:href="#m91731a8733" x="1080.0175" y="272.188768" style="stroke: #000000"/>
      </g>
     </g>
     <g id="text_12">
      <!-- 0.00 -->
      <g transform="translate(36.4925 278.267518) scale(0.16 -0.16)">
       <use xlink:href="#DejaVuSans-30"/>
       <use xlink:href="#DejaVuSans-2e" x="63.623047"/>
       <use xlink:href="#DejaVuSans-30" x="95.410156"/>
       <use xlink:href="#DejaVuSans-30" x="159.033203"/>
      </g>
     </g>
    </g>
    <g id="ytick_5">
     <g id="line2d_92">
      <path d="M 75.6175 189.769545 
L 1080.0175 189.769545 
" clip-path="url(#p31ad2bc1e2)" style="fill: none; stroke-dasharray: 1.85,0.8; stroke-dashoffset: 0; stroke: #000000; stroke-opacity: 0.5; stroke-width: 0.5"/>
     </g>
     <g id="line2d_93">
      <g>
       <use xlink:href="#mbe5f50711e" x="75.6175" y="189.769545" style="stroke: #000000"/>
      </g>
     </g>
     <g id="line2d_94">
      <g>
       <use xlink:href="#m91731a8733" x="1080.0175" y="189.769545" style="stroke: #000000"/>
      </g>
     </g>
     <g id="text_13">
      <!-- 0.02 -->
      <g transform="translate(36.4925 195.848295) scale(0.16 -0.16)">
       <use xlink:href="#DejaVuSans-30"/>
       <use xlink:href="#DejaVuSans-2e" x="63.623047"/>
       <use xlink:href="#DejaVuSans-30" x="95.410156"/>
       <use xlink:href="#DejaVuSans-32" x="159.033203"/>
      </g>
     </g>
    </g>
    <g id="ytick_6">
     <g id="line2d_95">
      <path d="M 75.6175 107.350322 
L 1080.0175 107.350322 
" clip-path="url(#p31ad2bc1e2)" style="fill: none; stroke-dasharray: 1.85,0.8; stroke-dashoffset: 0; stroke: #000000; stroke-opacity: 0.5; stroke-width: 0.5"/>
     </g>
     <g id="line2d_96">
      <g>
       <use xlink:href="#mbe5f50711e" x="75.6175" y="107.350322" style="stroke: #000000"/>
      </g>
     </g>
     <g id="line2d_97">
      <g>
       <use xlink:href="#m91731a8733" x="1080.0175" y="107.350322" style="stroke: #000000"/>
      </g>
     </g>
     <g id="text_14">
      <!-- 0.04 -->
      <g transform="translate(36.4925 113.429072) scale(0.16 -0.16)">
       <use xlink:href="#DejaVuSans-30"/>
       <use xlink:href="#DejaVuSans-2e" x="63.623047"/>
       <use xlink:href="#DejaVuSans-30" x="95.410156"/>
       <use xlink:href="#DejaVuSans-34" x="159.033203"/>
      </g>
     </g>
    </g>
    <g id="ytick_7">
     <g id="line2d_98">
      <path d="M 75.6175 24.931098 
L 1080.0175 24.931098 
" clip-path="url(#p31ad2bc1e2)" style="fill: none; stroke-dasharray: 1.85,0.8; stroke-dashoffset: 0; stroke: #000000; stroke-opacity: 0.5; stroke-width: 0.5"/>
     </g>
     <g id="line2d_99">
      <g>
       <use xlink:href="#mbe5f50711e" x="75.6175" y="24.931098" style="stroke: #000000"/>
      </g>
     </g>
     <g id="line2d_100">
      <g>
       <use xlink:href="#m91731a8733" x="1080.0175" y="24.931098" style="stroke: #000000"/>
      </g>
     </g>
     <g id="text_15">
      <!-- 0.06 -->
      <g transform="translate(36.4925 31.009848) scale(0.16 -0.16)">
       <use xlink:href="#DejaVuSans-30"/>
       <use xlink:href="#DejaVuSans-2e" x="63.623047"/>
       <use xlink:href="#DejaVuSans-30" x="95.410156"/>
       <use xlink:href="#DejaVuSans-36" x="159.033203"/>
      </g>
     </g>
    </g>
    <g id="ytick_8">
     <g id="line2d_101">
      <defs>
       <path id="m5dc56db8e7" d="M 0 0 
L 3 0 
" style="stroke: #000000"/>
      </defs>
      <g>
       <use xlink:href="#m5dc56db8e7" x="75.6175" y="498.841632" style="stroke: #000000"/>
      </g>
     </g>
     <g id="line2d_102">
      <defs>
       <path id="m729f615590" d="M 0 0 
L -3 0 
" style="stroke: #000000"/>
      </defs>
      <g>
       <use xlink:href="#m729f615590" x="1080.0175" y="498.841632" style="stroke: #000000"/>
      </g>
     </g>
    </g>
    <g id="ytick_9">
     <g id="line2d_103">
      <g>
       <use xlink:href="#m5dc56db8e7" x="75.6175" y="478.236826" style="stroke: #000000"/>
      </g>
     </g>
     <g id="line2d_104">
      <g>
       <use xlink:href="#m729f615590" x="1080.0175" y="478.236826" style="stroke: #000000"/>
      </g>
     </g>
    </g>
    <g id="ytick_10">
     <g id="line2d_105">
      <g>
       <use xlink:href="#m5dc56db8e7" x="75.6175" y="457.63202" style="stroke: #000000"/>
      </g>
     </g>
     <g id="line2d_106">
      <g>
       <use xlink:href="#m729f615590" x="1080.0175" y="457.63202" style="stroke: #000000"/>
      </g>
     </g>
    </g>
    <g id="ytick_11">
     <g id="line2d_107">
      <g>
       <use xlink:href="#m5dc56db8e7" x="75.6175" y="416.422409" style="stroke: #000000"/>
      </g>
     </g>
     <g id="line2d_108">
      <g>
       <use xlink:href="#m729f615590" x="1080.0175" y="416.422409" style="stroke: #000000"/>
      </g>
     </g>
    </g>
    <g id="ytick_12">
     <g id="line2d_109">
      <g>
       <use xlink:href="#m5dc56db8e7" x="75.6175" y="395.817603" style="stroke: #000000"/>
      </g>
     </g>
     <g id="line2d_110">
      <g>
       <use xlink:href="#m729f615590" x="1080.0175" y="395.817603" style="stroke: #000000"/>
      </g>
     </g>
    </g>
    <g id="ytick_13">
     <g id="line2d_111">
      <g>
       <use xlink:href="#m5dc56db8e7" x="75.6175" y="375.212797" style="stroke: #000000"/>
      </g>
     </g>
     <g id="line2d_112">
      <g>
       <use xlink:href="#m729f615590" x="1080.0175" y="375.212797" style="stroke: #000000"/>
      </g>
     </g>
    </g>
    <g id="ytick_14">
     <g id="line2d_113">
      <g>
       <use xlink:href="#m5dc56db8e7" x="75.6175" y="334.003185" style="stroke: #000000"/>
      </g>
     </g>
     <g id="line2d_114">
      <g>
       <use xlink:href="#m729f615590" x="1080.0175" y="334.003185" style="stroke: #000000"/>
      </g>
     </g>
    </g>
    <g id="ytick_15">
     <g id="line2d_115">
      <g>
       <use xlink:href="#m5dc56db8e7" x="75.6175" y="313.39838" style="stroke: #000000"/>
      </g>
     </g>
     <g id="line2d_116">
      <g>
       <use xlink:href="#m729f615590" x="1080.0175" y="313.39838" style="stroke: #000000"/>
      </g>
     </g>
    </g>
    <g id="ytick_16">
     <g id="line2d_117">
      <g>
       <use xlink:href="#m5dc56db8e7" x="75.6175" y="292.793574" style="stroke: #000000"/>
      </g>
     </g>
     <g id="line2d_118">
      <g>
       <use xlink:href="#m729f615590" x="1080.0175" y="292.793574" style="stroke: #000000"/>
      </g>
     </g>
    </g>
    <g id="ytick_17">
     <g id="line2d_119">
      <g>
       <use xlink:href="#m5dc56db8e7" x="75.6175" y="251.583962" style="stroke: #000000"/>
      </g>
     </g>
     <g id="line2d_120">
      <g>
       <use xlink:href="#m729f615590" x="1080.0175" y="251.583962" style="stroke: #000000"/>
      </g>
     </g>
    </g>
    <g id="ytick_18">
     <g id="line2d_121">
      <g>
       <use xlink:href="#m5dc56db8e7" x="75.6175" y="230.979156" style="stroke: #000000"/>
      </g>
     </g>
     <g id="line2d_122">
      <g>
       <use xlink:href="#m729f615590" x="1080.0175" y="230.979156" style="stroke: #000000"/>
      </g>
     </g>
    </g>
    <g id="ytick_19">
     <g id="line2d_123">
      <g>
       <use xlink:href="#m5dc56db8e7" x="75.6175" y="210.374351" style="stroke: #000000"/>
      </g>
     </g>
     <g id="line2d_124">
      <g>
       <use xlink:href="#m729f615590" x="1080.0175" y="210.374351" style="stroke: #000000"/>
      </g>
     </g>
    </g>
    <g id="ytick_20">
     <g id="line2d_125">
      <g>
       <use xlink:href="#m5dc56db8e7" x="75.6175" y="169.164739" style="stroke: #000000"/>
      </g>
     </g>
     <g id="line2d_126">
      <g>
       <use xlink:href="#m729f615590" x="1080.0175" y="169.164739" style="stroke: #000000"/>
      </g>
     </g>
    </g>
    <g id="ytick_21">
     <g id="line2d_127">
      <g>
       <use xlink:href="#m5dc56db8e7" x="75.6175" y="148.559933" style="stroke: #000000"/>
      </g>
     </g>
     <g id="line2d_128">
      <g>
       <use xlink:href="#m729f615590" x="1080.0175" y="148.559933" style="stroke: #000000"/>
      </g>
     </g>
    </g>
    <g id="ytick_22">
     <g id="line2d_129">
      <g>
       <use xlink:href="#m5dc56db8e7" x="75.6175" y="127.955127" style="stroke: #000000"/>
      </g>
     </g>
     <g id="line2d_130">
      <g>
       <use xlink:href="#m729f615590" x="1080.0175" y="127.955127" style="stroke: #000000"/>
      </g>
     </g>
    </g>
    <g id="ytick_23">
     <g id="line2d_131">
      <g>
       <use xlink:href="#m5dc56db8e7" x="75.6175" y="86.745516" style="stroke: #000000"/>
      </g>
     </g>
     <g id="line2d_132">
      <g>
       <use xlink:href="#m729f615590" x="1080.0175" y="86.745516" style="stroke: #000000"/>
      </g>
     </g>
    </g>
    <g id="ytick_24">
     <g id="line2d_133">
      <g>
       <use xlink:href="#m5dc56db8e7" x="75.6175" y="66.14071" style="stroke: #000000"/>
      </g>
     </g>
     <g id="line2d_134">
      <g>
       <use xlink:href="#m729f615590" x="1080.0175" y="66.14071" style="stroke: #000000"/>
      </g>
     </g>
    </g>
    <g id="ytick_25">
     <g id="line2d_135">
      <g>
       <use xlink:href="#m5dc56db8e7" x="75.6175" y="45.535904" style="stroke: #000000"/>
      </g>
     </g>
     <g id="line2d_136">
      <g>
       <use xlink:href="#m729f615590" x="1080.0175" y="45.535904" style="stroke: #000000"/>
      </g>
     </g>
    </g>
    <g id="text_16">
     <!-- IDR (%) -->
     <g transform="translate(15.7575 301.7025) rotate(-90) scale(0.16 -0.16)">
      <defs>
       <path id="DejaVuSans-49" d="M 628 4666 
L 1259 4666 
L 1259 0 
L 628 0 
L 628 4666 
z
" transform="scale(0.015625)"/>
       <path id="DejaVuSans-44" d="M 1259 4147 
L 1259 519 
L 2022 519 
Q 2988 519 3436 956 
Q 3884 1394 3884 2338 
Q 3884 3275 3436 3711 
Q 2988 4147 2022 4147 
L 1259 4147 
z
M 628 4666 
L 1925 4666 
Q 3281 4666 3915 4102 
Q 4550 3538 4550 2338 
Q 4550 1131 3912 565 
Q 3275 0 1925 0 
L 628 0 
L 628 4666 
z
" transform="scale(0.015625)"/>
       <path id="DejaVuSans-52" d="M 2841 2188 
Q 3044 2119 3236 1894 
Q 3428 1669 3622 1275 
L 4263 0 
L 3584 0 
L 2988 1197 
Q 2756 1666 2539 1819 
Q 2322 1972 1947 1972 
L 1259 1972 
L 1259 0 
L 628 0 
L 628 4666 
L 2053 4666 
Q 2853 4666 3247 4331 
Q 3641 3997 3641 3322 
Q 3641 2881 3436 2590 
Q 3231 2300 2841 2188 
z
M 1259 4147 
L 1259 2491 
L 2053 2491 
Q 2509 2491 2742 2702 
Q 2975 2913 2975 3322 
Q 2975 3731 2742 3939 
Q 2509 4147 2053 4147 
L 1259 4147 
z
" transform="scale(0.015625)"/>
       <path id="DejaVuSans-20" transform="scale(0.015625)"/>
       <path id="DejaVuSans-25" d="M 4653 2053 
Q 4381 2053 4226 1822 
Q 4072 1591 4072 1178 
Q 4072 772 4226 539 
Q 4381 306 4653 306 
Q 4919 306 5073 539 
Q 5228 772 5228 1178 
Q 5228 1588 5073 1820 
Q 4919 2053 4653 2053 
z
M 4653 2450 
Q 5147 2450 5437 2106 
Q 5728 1763 5728 1178 
Q 5728 594 5436 251 
Q 5144 -91 4653 -91 
Q 4153 -91 3862 251 
Q 3572 594 3572 1178 
Q 3572 1766 3864 2108 
Q 4156 2450 4653 2450 
z
M 1428 4353 
Q 1159 4353 1004 4120 
Q 850 3888 850 3481 
Q 850 3069 1003 2837 
Q 1156 2606 1428 2606 
Q 1700 2606 1854 2837 
Q 2009 3069 2009 3481 
Q 2009 3884 1853 4118 
Q 1697 4353 1428 4353 
z
M 4250 4750 
L 4750 4750 
L 1831 -91 
L 1331 -91 
L 4250 4750 
z
M 1428 4750 
Q 1922 4750 2215 4408 
Q 2509 4066 2509 3481 
Q 2509 2891 2217 2550 
Q 1925 2209 1428 2209 
Q 931 2209 642 2551 
Q 353 2894 353 3481 
Q 353 4063 643 4406 
Q 934 4750 1428 4750 
z
" transform="scale(0.015625)"/>
      </defs>
      <use xlink:href="#DejaVuSans-49"/>
      <use xlink:href="#DejaVuSans-44" x="29.492188"/>
      <use xlink:href="#DejaVuSans-52" x="106.494141"/>
      <use xlink:href="#DejaVuSans-20" x="175.976562"/>
      <use xlink:href="#DejaVuSans-28" x="207.763672"/>
      <use xlink:href="#DejaVuSans-25" x="246.777344"/>
      <use xlink:href="#DejaVuSans-29" x="341.796875"/>
     </g>
    </g>
   </g>
   <g id="line2d_137">
    <path d="M 121.272045 272.188768 
L 121.825769 271.577802 
L 122.379493 269.656803 
L 122.933218 268.788408 
L 123.486942 269.883203 
L 124.040666 271.379577 
L 124.59439 271.609157 
L 125.701838 269.656933 
L 126.255562 269.85743 
L 126.809286 270.860841 
L 127.36301 271.387103 
L 127.916734 270.941824 
L 128.470458 270.260035 
L 129.024182 270.013913 
L 129.577906 270.335805 
L 130.13163 271.037216 
L 130.685354 271.528354 
L 131.239078 271.140281 
L 131.792802 270.274047 
L 132.346526 270.097563 
L 133.453974 271.911105 
L 134.007698 271.540265 
L 134.561422 270.525011 
L 135.115146 270.226475 
L 135.66887 270.46509 
L 136.776318 270.413253 
L 137.330042 271.380328 
L 137.883766 272.886793 
L 138.43749 273.066155 
L 138.991214 271.524407 
L 139.544938 270.446188 
L 140.652386 272.466187 
L 141.20611 270.330362 
L 141.759834 267.414793 
L 142.313558 269.504944 
L 142.867282 275.184967 
L 143.421006 276.012256 
L 143.97473 270.072772 
L 144.528454 265.427969 
L 145.082178 268.069007 
L 145.635902 274.023977 
L 146.189626 275.723269 
L 146.74335 272.01143 
L 147.297074 267.029615 
L 147.850798 263.627048 
L 148.404522 265.595994 
L 149.51197 288.362816 
L 150.065694 283.612721 
L 150.619419 265.44347 
L 151.173143 258.508044 
L 152.280591 283.271853 
L 152.834315 278.265852 
L 153.388039 265.498994 
L 153.941763 261.032874 
L 154.495487 268.394412 
L 155.049211 278.760309 
L 155.602935 282.185668 
L 156.156659 277.948498 
L 157.264107 266.168868 
L 157.817831 265.799727 
L 158.925279 278.904677 
L 159.479003 276.461528 
L 160.032727 267.162715 
L 160.586451 262.508448 
L 161.140175 266.426974 
L 161.693899 272.247483 
L 162.247623 275.974139 
L 162.801347 277.264014 
L 163.355071 271.672803 
L 163.908795 261.008637 
L 164.462519 259.917715 
L 165.569967 284.686989 
L 166.123691 279.45059 
L 166.677415 266.443127 
L 167.231139 260.846118 
L 167.784863 263.554449 
L 168.338587 270.97817 
L 168.892311 282.603404 
L 169.446035 288.126846 
L 169.999759 274.327683 
L 170.553483 253.502087 
L 171.107207 255.20491 
L 171.660931 279.267453 
L 172.214655 293.482337 
L 172.768379 285.225804 
L 173.322103 272.780413 
L 173.875827 268.870354 
L 174.429551 269.079374 
L 174.983275 270.394793 
L 175.536999 274.568111 
L 176.090723 274.746034 
L 176.644447 264.814319 
L 177.198171 258.02792 
L 177.751896 267.698996 
L 178.30562 280.617106 
L 178.859344 281.171709 
L 179.966792 270.324259 
L 180.520516 262.976954 
L 181.07424 263.941109 
L 181.627964 278.003177 
L 182.181688 286.341581 
L 182.735412 274.672052 
L 183.289136 259.564302 
L 183.84286 262.999395 
L 184.396584 273.766223 
L 185.504032 268.538458 
L 186.057756 280.414949 
L 186.61148 286.917451 
L 187.165204 269.69078 
L 187.718928 246.876164 
L 188.272652 246.319905 
L 188.826376 266.703528 
L 189.3801 278.559457 
L 189.933824 271.553759 
L 190.487548 261.699145 
L 191.041272 257.884485 
L 191.594996 262.344085 
L 192.14872 276.439417 
L 192.702444 293.486909 
L 193.256168 299.527894 
L 193.809892 283.68823 
L 194.363616 251.949188 
L 194.91734 228.940385 
L 195.471064 242.062725 
L 196.578512 343.409255 
L 197.132236 339.533009 
L 198.239684 211.521279 
L 198.793408 190.794398 
L 199.347132 239.753827 
L 199.900856 320.022106 
L 200.45458 351.380247 
L 201.008304 299.728648 
L 201.562028 224.237125 
L 202.115752 210.17411 
L 203.2232 350.045985 
L 203.776924 351.843858 
L 204.884372 206.91324 
L 205.438097 205.99032 
L 206.545545 331.186134 
L 207.099269 332.552406 
L 208.206717 208.597229 
L 208.760441 201.312701 
L 209.867889 312.901193 
L 210.421613 330.422987 
L 210.975337 298.253711 
L 211.529061 243.465522 
L 212.082785 209.101637 
L 212.636509 229.069257 
L 213.190233 288.525064 
L 213.743957 327.97722 
L 214.297681 306.152906 
L 214.851405 250.030958 
L 215.405129 225.889371 
L 216.512577 288.031982 
L 217.066301 287.266168 
L 217.620025 269.620691 
L 218.173749 266.515803 
L 218.727473 276.154029 
L 219.281197 283.398791 
L 219.834921 282.66605 
L 220.388645 268.567979 
L 220.942369 249.55895 
L 221.496093 258.471703 
L 222.049817 298.275476 
L 222.603541 319.677867 
L 223.157265 291.346369 
L 223.710989 242.307054 
L 224.264713 218.757312 
L 224.818437 237.695298 
L 225.372161 281.864343 
L 225.925885 311.147003 
L 226.479609 296.259012 
L 227.033333 253.081827 
L 227.587057 224.766603 
L 228.140781 236.154967 
L 228.694505 269.175217 
L 229.248229 283.328521 
L 229.801953 269.187852 
L 230.355677 258.362084 
L 230.909401 264.130308 
L 231.463125 260.252744 
L 232.016849 238.804715 
L 232.570573 225.529427 
L 233.124298 236.814795 
L 234.231746 293.962366 
L 234.78547 293.336192 
L 235.892918 235.945718 
L 236.446642 242.335201 
L 237.000366 273.888254 
L 237.55409 288.550963 
L 238.107814 265.315958 
L 238.661538 229.029525 
L 239.215262 211.630973 
L 239.768986 219.524375 
L 240.32271 246.064893 
L 241.430158 319.173032 
L 241.983882 325.038407 
L 242.537606 302.063913 
L 243.09133 292.474591 
L 244.198778 371.286793 
L 244.752502 358.226164 
L 245.306226 321.840543 
L 245.85995 324.210003 
L 246.413674 354.009976 
L 246.967398 358.742827 
L 247.521122 335.712927 
L 248.074846 326.746292 
L 248.62857 343.396712 
L 249.182294 354.449771 
L 250.289742 332.196097 
L 250.843466 338.446211 
L 251.39719 349.003497 
L 251.950914 346.332004 
L 252.504638 337.234961 
L 253.058362 337.289554 
L 253.612086 342.166733 
L 254.16581 267.117673 
L 254.719534 144.39835 
L 255.273258 141.507258 
L 255.826982 235.691109 
L 256.380706 258.970731 
L 256.93443 188.703322 
L 257.488154 153.922907 
L 258.041878 202.631863 
L 258.595602 241.559655 
L 259.149326 211.063919 
L 259.70305 172.816601 
L 260.256774 188.828917 
L 260.810499 223.25039 
L 261.364223 218.083652 
L 261.917947 189.190285 
L 262.471671 186.878252 
L 263.025395 209.78376 
L 263.579119 259.095965 
L 264.132843 345.604664 
L 264.686567 381.843132 
L 265.794015 310.337094 
L 266.347739 331.812269 
L 266.901463 365.10306 
L 267.455187 355.328599 
L 268.008911 326.313918 
L 268.562635 327.672407 
L 269.116359 351.208156 
L 269.670083 335.135701 
L 270.223807 243.720673 
L 270.777531 184.799346 
L 271.331255 205.925638 
L 271.884979 253.876895 
L 272.438703 269.964428 
L 272.992427 234.698963 
L 273.546151 173.850298 
L 274.099875 171.302417 
L 274.653599 218.584563 
L 275.207323 230.983298 
L 275.761047 195.920024 
L 276.314771 177.98204 
L 277.422219 222.151818 
L 277.975943 207.14141 
L 278.529667 187.746743 
L 279.083391 195.451612 
L 279.637115 212.78481 
L 280.190839 215.834379 
L 280.744563 270.020606 
L 281.298287 352.301185 
L 281.852011 382.994738 
L 282.959459 307.174559 
L 283.513183 303.304347 
L 284.066907 315.385765 
L 284.620631 354.640727 
L 285.174355 364.905171 
L 285.728079 336.787702 
L 286.281803 322.249508 
L 286.835527 341.351222 
L 287.389251 341.35906 
L 287.942975 258.759702 
L 288.4967 195.981396 
L 289.050424 241.854335 
L 289.604148 318.152111 
L 290.157872 297.514743 
L 290.711596 190.379596 
L 291.26532 136.03027 
L 291.819044 201.180586 
L 292.372768 304.393014 
L 292.926492 351.497734 
L 293.480216 320.69885 
L 294.03394 264.849307 
L 294.587664 222.001972 
L 295.141388 214.822195 
L 295.695112 258.095976 
L 296.248836 312.023929 
L 296.80256 308.57057 
L 297.910008 195.283345 
L 298.463732 201.906902 
L 300.678628 343.632277 
L 301.232352 339.04358 
L 302.893524 232.180696 
L 303.447248 230.128703 
L 304.000972 263.443529 
L 304.554696 303.602073 
L 305.10842 319.073622 
L 305.662144 311.31565 
L 306.769592 270.359592 
L 307.323316 268.814657 
L 307.87704 290.126096 
L 308.430764 299.548446 
L 308.984488 255.589152 
L 309.538212 176.221383 
L 310.091936 157.635391 
L 310.64566 214.099693 
L 311.199384 241.210343 
L 311.753108 226.843607 
L 312.306832 266.646538 
L 312.860556 329.290478 
L 313.41428 337.841446 
L 313.968004 270.45088 
L 314.521728 184.945923 
L 315.075452 160.534436 
L 316.182901 264.494332 
L 316.736625 328.57239 
L 317.290349 368.863838 
L 317.844073 350.553015 
L 319.505245 178.533126 
L 320.058969 177.869372 
L 320.612693 222.127496 
L 321.166417 283.292525 
L 321.720141 300.091339 
L 322.827589 165.536001 
L 323.381313 175.209489 
L 324.488761 316.644113 
L 325.042485 320.732322 
L 325.596209 283.089415 
L 326.703657 189.53712 
L 327.257381 197.271584 
L 328.364829 327.987007 
L 328.918553 344.915289 
L 329.472277 330.685895 
L 330.579725 295.519973 
L 331.133449 270.551354 
L 331.687173 260.612148 
L 333.348345 305.980001 
L 333.902069 351.657566 
L 334.455793 371.195996 
L 335.009517 340.432197 
L 335.563241 318.150298 
L 336.670689 360.164853 
L 337.224413 349.43711 
L 337.778137 328.971222 
L 338.331861 333.001038 
L 338.885585 350.362745 
L 339.439309 351.008891 
L 339.993033 337.164759 
L 340.546757 333.491391 
L 341.100481 343.858853 
L 341.654205 349.184796 
L 342.761653 336.030743 
L 343.315378 332.630735 
L 343.869102 298.318014 
L 344.422826 273.226292 
L 344.97655 279.861721 
L 345.530274 244.852303 
L 346.083998 161.705826 
L 346.637722 160.300317 
L 347.191446 225.433662 
L 347.74517 241.459878 
L 348.298894 192.760722 
L 348.852618 168.899871 
L 349.960066 234.718045 
L 350.51379 257.85572 
L 351.067514 296.053107 
L 351.621238 358.34776 
L 352.174962 379.721107 
L 352.728686 336.755986 
L 353.28241 310.548995 
L 353.836134 327.005997 
L 354.389858 290.193502 
L 354.943582 284.299661 
L 355.497306 318.472884 
L 356.05103 288.908745 
L 356.604754 210.382639 
L 357.158478 186.91583 
L 357.712202 249.348488 
L 358.265926 327.404062 
L 358.81965 362.253195 
L 359.373374 348.108373 
L 360.480822 266.299219 
L 361.034546 278.676365 
L 362.141994 359.755346 
L 362.695718 357.043594 
L 363.249442 308.715188 
L 363.803166 180.010278 
L 364.35689 118.50418 
L 365.464338 275.41719 
L 366.571786 380.719196 
L 367.12551 358.366784 
L 368.232958 112.908706 
L 368.786682 183.807442 
L 369.340406 366.802776 
L 369.89413 441.397897 
L 370.447854 340.652301 
L 371.001579 205.172991 
L 371.555303 123.396307 
L 372.109027 184.633821 
L 372.662751 261.799715 
L 373.216475 229.845605 
L 373.770199 160.971174 
L 374.323923 172.962989 
L 375.431371 459.631403 
L 375.985095 379.38506 
L 376.538819 256.162586 
L 377.092543 292.245948 
L 377.646267 399.485539 
L 378.199991 394.7222 
L 378.753715 307.425986 
L 379.307439 291.60172 
L 379.861163 339.886342 
L 380.414887 280.913429 
L 380.968611 191.993345 
L 381.522335 226.94558 
L 382.076059 381.521394 
L 382.629783 440.03273 
L 383.183507 331.401157 
L 383.737231 260.968644 
L 384.844679 395.203524 
L 385.398403 331.294643 
L 385.952127 289.540327 
L 387.059575 382.941585 
L 387.613299 354.628281 
L 388.167023 311.702732 
L 388.720747 311.324262 
L 389.828195 145.752158 
L 390.381919 169.154885 
L 390.935643 240.947552 
L 391.489367 238.691774 
L 392.043091 180.985601 
L 392.596815 168.859911 
L 393.150539 212.21252 
L 393.704263 231.626543 
L 394.257987 201.084991 
L 394.811711 178.589024 
L 395.365435 198.150358 
L 395.919159 232.911764 
L 396.472883 318.186219 
L 397.026607 273.818153 
L 397.580331 129.795091 
L 398.134055 130.14857 
L 399.241504 498.0375 
L 399.795228 397.066739 
L 400.348952 229.608596 
L 400.902676 272.399499 
L 401.4564 416.666797 
L 402.010124 414.892927 
L 402.563848 298.392264 
L 403.117572 273.412634 
L 403.671296 361.664775 
L 404.22502 401.615819 
L 404.778744 339.582437 
L 405.332468 293.467595 
L 406.439916 379.051498 
L 406.99364 357.530607 
L 407.547364 303.51353 
L 408.101088 153.960983 
L 408.654812 112.699752 
L 409.208536 221.486699 
L 409.76226 278.278424 
L 410.869708 141.655061 
L 411.423432 187.121107 
L 411.977156 247.868446 
L 412.53088 224.890315 
L 413.084604 170.839822 
L 413.638328 177.185482 
L 414.192052 222.120532 
L 414.745776 280.881136 
L 415.2995 411.381222 
L 415.853224 403.688621 
L 416.406948 300.840995 
L 416.960672 283.164053 
L 417.514396 348.140068 
L 418.621844 92.168168 
L 419.175568 161.801851 
L 419.729292 281.443951 
L 420.283016 310.321104 
L 420.83674 371.991782 
L 421.390464 371.139545 
L 421.944188 309.290939 
L 422.497912 138.908464 
L 423.051636 104.585198 
L 423.60536 231.694513 
L 424.159084 287.14064 
L 424.712808 198.262248 
L 425.266532 133.095733 
L 426.373981 255.372488 
L 426.927705 224.1778 
L 427.481429 164.666911 
L 428.035153 219.218405 
L 428.588877 291.462676 
L 429.696325 133.604007 
L 430.250049 181.111198 
L 430.803773 252.98499 
L 431.357497 230.907448 
L 431.911221 168.006568 
L 432.464945 171.677773 
L 433.018669 223.126212 
L 433.572393 231.722379 
L 434.126117 192.299097 
L 434.679841 176.368999 
L 435.233565 204.596159 
L 435.787289 223.76082 
L 436.894737 185.783538 
L 437.448461 196.197105 
L 438.002185 214.29551 
L 438.555909 209.979038 
L 439.109633 194.441394 
L 439.663357 194.401528 
L 440.217081 206.936314 
L 440.770805 209.801895 
L 441.324529 200.35689 
L 441.878253 195.874373 
L 442.431977 202.480942 
L 442.985701 207.572691 
L 443.539425 203.399582 
L 444.093149 198.360744 
L 444.646873 200.581532 
L 445.200597 205.144125 
L 445.754321 204.397256 
L 446.308045 200.583923 
L 446.861769 200.367921 
L 447.415493 203.481953 
L 447.969217 204.541537 
L 448.522941 202.178292 
L 449.076665 200.624448 
L 450.184113 203.688104 
L 450.737837 202.827589 
L 451.291561 201.365014 
L 451.845285 201.738587 
L 452.399009 203.0785 
L 452.952733 279.730565 
L 453.506457 416.904954 
L 454.060182 332.209289 
L 454.613906 89.218575 
L 455.16763 74.353483 
L 455.721354 264.316618 
L 456.275078 319.256767 
L 456.828802 178.870171 
L 457.382526 102.96103 
L 457.93625 199.39281 
L 458.489974 382.003932 
L 459.043698 460.96929 
L 459.597422 334.363805 
L 460.151146 245.249415 
L 461.258594 416.161073 
L 461.812318 371.403681 
L 462.366042 288.733845 
L 462.919766 306.282156 
L 463.47349 376.742366 
L 464.027214 378.468904 
L 464.580938 322.136165 
L 465.134662 308.086785 
L 465.688386 350.240633 
L 466.24211 371.109546 
L 467.349558 318.441722 
L 468.457006 356.693714 
L 469.01073 248.732288 
L 469.564454 115.330178 
L 470.118178 149.062489 
L 470.671902 260.342139 
L 471.225626 258.411044 
L 471.77935 168.380414 
L 472.333074 149.591709 
L 473.440522 277.798376 
L 473.994246 395.523096 
L 474.54797 402.485421 
L 475.101694 303.360485 
L 475.655418 130.838245 
L 476.209142 106.800762 
L 476.762866 239.158943 
L 477.31659 286.840581 
L 477.870314 192.057521 
L 478.424038 220.863303 
L 478.977762 431.17083 
L 479.531486 457.101229 
L 480.08521 296.889414 
L 480.638934 238.989538 
L 481.192658 354.909036 
L 481.746383 427.757144 
L 482.853831 274.864912 
L 483.407555 319.781514 
L 483.961279 391.12515 
L 484.515003 370.81596 
L 485.068727 308.85584 
L 485.622451 311.26323 
L 486.176175 361.678422 
L 486.729899 371.071973 
L 487.283623 332.607932 
L 487.837347 316.4063 
L 488.391071 343.721412 
L 488.944795 362.907463 
L 490.052243 325.795945 
L 490.605967 335.074479 
L 491.159691 262.016265 
L 491.713415 121.54157 
L 492.267139 138.584734 
L 492.820863 252.715378 
L 493.374587 273.898559 
L 493.928311 198.432518 
L 494.482035 145.233475 
L 495.589483 246.169182 
L 496.143207 219.497229 
L 496.696931 170.988009 
L 497.250655 181.512325 
L 497.804379 240.324134 
L 498.358103 385.071028 
L 498.911827 429.723236 
L 499.465551 326.277879 
L 500.019275 268.254856 
L 501.126723 400.341206 
L 501.680447 358.532428 
L 502.234171 298.674234 
L 502.787895 318.897225 
L 503.341619 371.619449 
L 503.895343 367.194493 
L 504.449067 323.781605 
L 505.002791 317.598049 
L 505.556515 351.150515 
L 506.110239 363.663028 
L 506.663963 339.475473 
L 507.217687 323.970414 
L 508.325135 356.044845 
L 508.87886 346.780354 
L 509.432584 331.749933 
L 509.986308 335.826829 
L 510.540032 348.814702 
L 511.093756 348.598427 
L 511.64748 338.049779 
L 512.201204 335.771059 
L 512.754928 343.769708 
L 513.308652 347.411655 
L 513.862376 341.797137 
L 514.4161 337.602863 
L 515.523548 345.374379 
L 516.077272 343.470891 
L 516.630996 339.644944 
L 517.18472 340.283186 
L 517.738444 343.532589 
L 518.292168 343.751541 
L 518.845892 341.189161 
L 519.399616 340.436503 
L 519.95334 342.333503 
L 520.507064 343.371052 
L 521.614512 340.952636 
L 522.168236 341.730561 
L 522.72196 342.819214 
L 523.275684 342.435576 
L 523.829408 341.441493 
L 524.383132 327.8026 
L 524.936856 271.783628 
L 525.49058 316.740711 
L 526.044304 390.845332 
L 526.598028 346.879196 
L 527.151752 190.2065 
L 527.705476 122.987585 
L 528.2592 248.173383 
L 528.812924 427.242446 
L 529.366648 430.126032 
L 530.474096 108.505024 
L 531.02782 122.719012 
L 531.581544 260.89095 
L 532.135268 279.156966 
L 532.688992 172.943788 
L 533.242716 140.767662 
L 534.350164 441.244753 
L 534.903888 286.708298 
L 535.457612 44.4375 
L 536.011336 100.781406 
L 536.565061 306.235517 
L 537.118785 307.549964 
L 537.672509 153.519727 
L 538.226233 253.215043 
L 538.779957 469.92795 
L 539.333681 441.254423 
L 540.441129 98.345864 
L 540.994853 140.52613 
L 541.548577 274.190698 
L 542.102301 364.579167 
L 542.656025 392.929182 
L 543.209749 328.335883 
L 543.763473 191.547075 
L 544.317197 108.409269 
L 545.424645 275.161829 
L 545.978369 227.620573 
L 546.532093 156.675194 
L 547.085817 197.934944 
L 547.639541 280.637596 
L 548.193265 320.660903 
L 548.746989 300.033939 
L 549.300713 236.093525 
L 549.854437 191.946336 
L 550.961885 232.011231 
L 552.069333 179.886322 
L 552.623057 194.698285 
L 553.176781 218.886442 
L 553.730505 212.378981 
L 554.284229 191.40009 
L 554.837953 191.930049 
L 555.391677 208.902026 
L 555.945401 212.353867 
L 556.499125 199.436371 
L 557.052849 193.71685 
L 557.606573 202.839096 
L 558.160297 209.511975 
L 559.267745 197.039563 
L 559.821469 200.221942 
L 560.375193 207.786227 
L 560.928917 303.147637 
L 561.482641 423.290394 
L 562.036365 373.60174 
L 562.590089 236.341581 
L 563.143813 209.747668 
L 563.697537 290.449096 
L 564.251262 343.737763 
L 564.804986 348.39651 
L 565.35871 337.675785 
L 565.912434 289.22389 
L 566.466158 170.664539 
L 567.019882 129.950259 
L 567.573606 218.529467 
L 568.12733 353.535753 
L 568.681054 411.695321 
L 570.342226 204.672603 
L 570.89595 185.138925 
L 571.449674 258.514722 
L 572.003398 375.061783 
L 572.557122 402.422714 
L 573.110846 319.717377 
L 573.66457 218.757092 
L 574.218294 194.177176 
L 574.772018 257.491942 
L 575.325742 298.052883 
L 576.43319 174.960801 
L 576.986914 210.228736 
L 577.540638 275.17603 
L 578.094362 254.46702 
L 578.648086 187.587941 
L 579.20181 175.675496 
L 579.755534 212.323344 
L 580.309258 226.87629 
L 580.862982 200.16367 
L 581.416706 182.526845 
L 581.97043 221.855001 
L 582.524154 321.740513 
L 583.077878 372.735169 
L 583.631602 340.468621 
L 584.73905 224.342378 
L 585.292774 187.461526 
L 585.846498 227.678481 
L 586.400222 354.752919 
L 586.953946 425.761408 
L 588.061394 269.32917 
L 589.168842 184.083293 
L 589.722566 186.08248 
L 590.830014 240.028591 
L 591.383738 294.849056 
L 591.937463 329.226325 
L 592.491187 310.347003 
L 593.598635 178.739363 
L 594.152359 176.429829 
L 596.367255 372.863114 
L 596.920979 370.524538 
L 598.582151 221.699525 
L 599.135875 241.63464 
L 599.689599 312.455598 
L 600.243323 364.154925 
L 600.797047 359.962034 
L 601.350771 326.584168 
L 601.904495 323.452916 
L 602.458219 349.429667 
L 603.011943 347.90638 
L 604.119391 185.406673 
L 604.673115 170.429805 
L 605.780563 293.588038 
L 606.334287 284.732728 
L 606.888011 205.917456 
L 607.441735 167.103946 
L 607.995459 244.484388 
L 608.549183 364.324922 
L 609.102907 381.854399 
L 610.210355 131.395817 
L 610.764079 142.680173 
L 611.317803 246.936347 
L 611.871527 260.300256 
L 612.425251 179.808927 
L 612.978975 153.043676 
L 614.086423 365.381813 
L 614.640147 351.497314 
L 615.193871 271.151172 
L 615.747595 221.602148 
L 616.301319 225.283507 
L 616.855043 236.046471 
L 617.408767 231.0582 
L 617.962491 231.816531 
L 618.516215 252.692449 
L 619.623664 311.388951 
L 620.177388 318.823597 
L 620.731112 297.575877 
L 621.284836 252.578607 
L 621.83856 217.332234 
L 622.392284 209.976421 
L 622.946008 204.549301 
L 623.499732 200.930957 
L 624.053456 254.295699 
L 624.60718 340.245059 
L 625.160904 307.681619 
L 625.714628 172.18113 
L 626.268352 122.892069 
L 626.822076 210.235176 
L 627.3758 268.441806 
L 627.929524 211.257898 
L 628.483248 175.435278 
L 629.590696 430.867711 
L 630.14442 385.736837 
L 630.698144 265.957773 
L 631.251868 208.114169 
L 631.805592 253.349026 
L 632.359316 364.774898 
L 632.91304 411.672149 
L 633.466764 338.315051 
L 634.020488 285.367401 
L 635.127936 385.357005 
L 635.68166 359.698208 
L 636.235384 311.027996 
L 636.789108 320.832304 
L 637.342832 362.162383 
L 637.896556 363.594289 
L 638.45028 330.620602 
L 639.004004 322.047535 
L 639.557728 346.678484 
L 640.111452 359.123509 
L 641.2189 328.237904 
L 641.772624 338.804022 
L 642.326348 352.382529 
L 642.880072 346.862 
L 643.433796 312.224396 
L 643.98752 212.25448 
L 644.541244 183.523596 
L 645.094968 285.955365 
L 645.648692 416.554726 
L 646.202416 401.709354 
L 646.75614 294.938987 
L 647.309865 263.148584 
L 647.863589 224.707664 
L 648.417313 169.678337 
L 648.971037 178.56701 
L 649.524761 254.606842 
L 650.078485 348.655528 
L 650.632209 341.20774 
L 651.739657 188.87359 
L 652.293381 170.686183 
L 653.400829 240.029385 
L 653.954553 259.887001 
L 654.508277 243.488267 
L 655.062001 236.720145 
L 656.169449 416.441459 
L 656.723173 370.487914 
L 657.276897 288.787942 
L 657.830621 306.941816 
L 658.384345 376.790184 
L 658.938069 369.595367 
L 659.491793 239.047508 
L 660.045517 162.185757 
L 660.599241 199.851371 
L 661.152965 249.542525 
L 661.706689 309.679006 
L 662.260413 387.922602 
L 662.814137 376.609428 
L 663.367861 313.152717 
L 663.921585 307.696861 
L 664.475309 357.362464 
L 665.029033 372.986372 
L 665.582757 288.349101 
L 666.136481 116.930039 
L 666.690205 116.796664 
L 667.243929 251.973642 
L 667.797653 309.468299 
L 668.351377 319.292747 
L 668.905101 325.3676 
L 669.458825 314.090277 
L 670.566273 213.732483 
L 671.119997 230.608791 
L 671.673721 292.717351 
L 672.227445 299.165896 
L 673.334893 138.950006 
L 673.888617 183.470602 
L 674.442342 249.673881 
L 674.996066 234.108358 
L 675.54979 199.257376 
L 676.103514 217.663465 
L 677.210962 418.282342 
L 677.764686 377.301532 
L 678.31841 288.819276 
L 678.872134 301.665213 
L 679.425858 375.57532 
L 679.979582 363.016277 
L 680.533306 214.650039 
L 681.08703 121.574608 
L 681.640754 195.166735 
L 682.194478 338.456941 
L 682.748202 401.807449 
L 683.301926 329.72067 
L 683.85565 170.443631 
L 684.409374 102.191508 
L 684.963098 207.025569 
L 685.516822 283.697257 
L 686.070546 230.366851 
L 686.62427 220.835988 
L 687.177994 304.647498 
L 687.731718 357.924826 
L 688.839166 86.607682 
L 689.39289 157.928511 
L 689.946614 285.127123 
L 690.500338 256.994201 
L 691.054062 148.231341 
L 691.607786 146.410325 
L 692.16151 233.780188 
L 692.715234 266.975931 
L 693.822682 155.479991 
L 694.376406 184.274608 
L 694.93013 236.238768 
L 695.483854 226.32409 
L 696.037578 235.850847 
L 696.591302 302.143234 
L 697.145026 312.596598 
L 697.69875 261.148854 
L 698.252474 227.703746 
L 699.359922 193.437357 
L 699.913646 203.053767 
L 700.46737 263.787894 
L 701.021094 312.0732 
L 701.574818 318.335368 
L 702.128543 331.593055 
L 702.682267 354.052269 
L 703.235991 338.759015 
L 704.343439 131.96095 
L 704.897163 159.479419 
L 706.004611 361.5935 
L 706.558335 357.514931 
L 707.112059 255.716668 
L 707.665783 178.064594 
L 708.219507 229.818855 
L 708.773231 362.734124 
L 709.326955 418.763066 
L 710.434403 248.033135 
L 710.988127 217.303793 
L 711.541851 267.101299 
L 712.095575 331.824935 
L 712.649299 328.308344 
L 713.203023 260.551166 
L 713.756747 213.199381 
L 714.310471 237.347076 
L 714.864195 301.139263 
L 715.417919 349.717436 
L 715.971643 359.786455 
L 717.079091 311.199386 
L 717.632815 285.618266 
L 718.186539 281.320799 
L 718.740263 289.32722 
L 719.293987 273.997138 
L 720.401435 168.494428 
L 720.955159 181.382928 
L 722.062607 267.301061 
L 722.616331 337.027056 
L 723.170055 381.623478 
L 723.723779 352.776933 
L 724.831227 254.020599 
L 725.384951 176.602066 
L 725.938675 158.878217 
L 726.492399 215.604662 
L 727.046123 294.297775 
L 727.599847 319.146154 
L 728.707295 210.366917 
L 729.261019 216.433492 
L 730.368468 271.926213 
L 730.922192 312.329399 
L 731.475916 312.389904 
L 732.583364 166.085825 
L 733.137088 192.411476 
L 733.690812 262.433273 
L 734.244536 289.187912 
L 734.79826 263.830245 
L 735.351984 221.198873 
L 735.905708 190.435889 
L 736.459432 190.747164 
L 737.56688 227.761174 
L 738.120604 305.405974 
L 738.674328 405.814897 
L 739.228052 384.209651 
L 739.781776 300.375767 
L 740.3355 298.565527 
L 740.889224 338.717374 
L 741.442948 285.087157 
L 741.996672 244.920883 
L 742.550396 315.726572 
L 743.10412 405.371257 
L 743.657844 376.630556 
L 744.211568 298.768405 
L 744.765292 304.333187 
L 745.319016 368.274076 
L 745.87274 378.10857 
L 746.426464 324.660507 
L 746.980188 231.914787 
L 747.533912 183.498754 
L 748.087636 260.086679 
L 748.64136 379.389828 
L 749.195084 403.962304 
L 749.748808 324.741875 
L 750.302532 288.212636 
L 750.856256 343.539492 
L 751.40998 384.186691 
L 751.963704 335.412269 
L 752.517428 234.430568 
L 753.071152 153.91989 
L 753.624876 169.815324 
L 754.1786 235.245038 
L 754.732324 268.173575 
L 755.286048 265.165766 
L 755.839772 231.580722 
L 756.393496 209.293307 
L 756.94722 202.880811 
L 757.500945 200.117147 
L 758.608393 204.385717 
L 759.162117 204.007142 
L 759.715841 259.993357 
L 760.269565 382.069593 
L 760.823289 408.960143 
L 761.930737 195.400003 
L 762.484461 234.85021 
L 763.038185 364.403908 
L 763.591909 416.721183 
L 764.145633 338.74012 
L 764.699357 240.769898 
L 765.253081 178.721143 
L 765.806805 200.544202 
L 766.914253 418.250669 
L 767.467977 381.185848 
L 768.021701 289.382456 
L 768.575425 298.736876 
L 769.129149 374.44738 
L 769.682873 384.060299 
L 770.236597 325.252054 
L 770.790321 304.285576 
L 771.344045 346.688833 
L 771.897769 353.332401 
L 773.005217 161.760455 
L 773.558941 158.771016 
L 774.112665 235.419172 
L 774.666389 290.509825 
L 775.220113 282.391698 
L 775.773837 289.621407 
L 776.327561 339.189572 
L 776.881285 333.025773 
L 777.435009 239.354736 
L 777.988733 165.843458 
L 778.542457 189.664695 
L 779.649905 344.227825 
L 780.203629 371.953709 
L 780.757353 326.375666 
L 781.311077 226.568104 
L 781.864801 168.059861 
L 782.418525 220.718011 
L 782.972249 327.190989 
L 783.525973 375.893367 
L 784.079697 340.493349 
L 784.633421 288.283362 
L 785.74087 238.25712 
L 786.294594 222.964166 
L 786.848318 253.87387 
L 787.402042 316.861636 
L 787.955766 338.080235 
L 789.063214 261.511655 
L 789.616938 278.588399 
L 790.170662 322.898266 
L 790.724386 356.58374 
L 791.27811 351.813021 
L 791.831834 292.207826 
L 792.385558 203.489999 
L 792.939282 160.685262 
L 793.493006 196.708742 
L 794.04673 255.924786 
L 794.600454 301.845957 
L 795.154178 328.876906 
L 795.707902 338.352467 
L 796.261626 318.54273 
L 796.81535 274.322387 
L 797.369074 243.731471 
L 797.922798 247.211082 
L 798.476522 252.748883 
L 799.030246 227.417694 
L 799.58397 189.747799 
L 800.137694 184.061941 
L 800.691418 209.564072 
L 801.245142 219.218132 
L 801.798866 200.845893 
L 802.35259 189.049663 
L 802.906314 226.984726 
L 803.460038 325.696901 
L 804.013762 379.930545 
L 804.567486 321.288301 
L 805.12121 201.632387 
L 805.674934 134.907282 
L 806.782382 254.10048 
L 807.336106 224.286021 
L 807.88983 166.175228 
L 808.443554 177.286673 
L 808.997278 236.283307 
L 809.551002 273.102695 
L 810.104726 245.222703 
L 810.65845 208.271951 
L 811.212174 222.355227 
L 811.765898 265.262137 
L 812.319622 286.765953 
L 812.873347 272.257793 
L 813.980795 192.151862 
L 814.534519 187.771155 
L 815.088243 239.27967 
L 815.641967 307.464169 
L 816.195691 324.516669 
L 817.303139 238.824104 
L 817.856863 234.457163 
L 818.410587 263.462395 
L 818.964311 298.71381 
L 819.518035 324.960992 
L 820.071759 335.724678 
L 820.625483 323.540917 
L 821.732931 244.155111 
L 822.286655 230.799666 
L 822.840379 251.931509 
L 823.394103 277.757599 
L 823.947827 282.290881 
L 824.501551 264.327765 
L 825.055275 239.874638 
L 825.608999 240.027961 
L 826.716447 340.208643 
L 827.270171 336.847923 
L 827.823895 285.366746 
L 828.377619 254.799456 
L 828.931343 271.871189 
L 829.485067 297.777269 
L 830.038791 294.640183 
L 830.592515 269.362323 
L 831.146239 253.094765 
L 831.699963 259.815334 
L 832.253687 279.344304 
L 832.807411 293.029653 
L 833.361135 283.309539 
L 834.468583 215.996177 
L 835.022307 225.074832 
L 835.576031 267.063299 
L 836.129755 286.605991 
L 836.683479 264.096338 
L 837.237203 247.840743 
L 837.790927 265.447544 
L 838.344651 274.710969 
L 839.452099 217.392488 
L 840.005824 221.401597 
L 840.559548 254.660655 
L 841.113272 295.761689 
L 841.666996 322.487055 
L 842.22072 312.133962 
L 842.774444 271.119238 
L 843.328168 239.764302 
L 843.881892 243.154423 
L 844.98934 293.082648 
L 845.543064 306.054156 
L 846.096788 308.105094 
L 846.650512 305.613859 
L 847.75796 298.60695 
L 848.311684 291.549742 
L 848.865408 270.985769 
L 849.419132 240.562035 
L 849.972856 237.98689 
L 851.080304 342.604581 
L 851.634028 339.406017 
L 852.187752 308.012901 
L 853.848924 254.41457 
L 854.402648 276.557706 
L 854.956372 326.941948 
L 855.510096 349.494004 
L 856.06382 330.80448 
L 857.171268 272.594385 
L 857.724992 268.045377 
L 858.278716 291.205165 
L 858.83244 304.962083 
L 859.386164 278.125426 
L 859.939888 243.503175 
L 860.493612 243.264903 
L 861.047336 275.93549 
L 861.60106 326.228933 
L 862.154784 360.496564 
L 862.708508 326.480117 
L 863.262232 233.207764 
L 863.815956 167.311628 
L 864.36968 189.201157 
L 865.477128 341.42953 
L 866.030852 360.036644 
L 866.584576 337.188492 
L 867.692025 278.02585 
L 868.245749 260.604298 
L 868.799473 265.298616 
L 869.906921 313.86294 
L 870.460645 326.009271 
L 871.014369 318.973136 
L 871.568093 281.634541 
L 872.121817 222.90399 
L 872.675541 198.614878 
L 873.229265 256.460148 
L 873.782989 349.34338 
L 874.336713 381.426523 
L 875.444161 298.933074 
L 875.997885 296.701312 
L 877.105333 321.327045 
L 877.659057 324.658685 
L 878.212781 307.828021 
L 879.320229 232.748762 
L 879.873953 244.70956 
L 880.427677 291.342341 
L 880.981401 311.890872 
L 882.088849 245.336853 
L 882.642573 253.03424 
L 883.196297 284.971955 
L 883.750021 299.000113 
L 884.303745 284.002216 
L 884.857469 259.429425 
L 885.964917 233.607422 
L 886.518641 213.47575 
L 887.072365 218.780606 
L 888.179813 367.249569 
L 888.733537 371.009077 
L 889.840985 228.199066 
L 890.394709 221.733003 
L 890.948433 252.089248 
L 891.502157 264.335314 
L 892.609605 229.862788 
L 893.163329 230.724674 
L 893.717053 248.958406 
L 894.824501 301.48716 
L 895.378226 303.052381 
L 895.93195 279.729426 
L 896.485674 262.879058 
L 897.039398 270.802667 
L 897.593122 269.583443 
L 898.70057 196.885701 
L 899.254294 210.274698 
L 899.808018 265.335413 
L 900.361742 307.412581 
L 900.915466 301.831434 
L 901.46919 253.639421 
L 902.022914 193.440839 
L 902.576638 175.576163 
L 903.130362 223.284103 
L 903.684086 294.682982 
L 904.23781 330.135917 
L 904.791534 318.988655 
L 905.345258 293.455366 
L 905.898982 277.839601 
L 906.452706 268.931742 
L 907.00643 256.017465 
L 907.560154 246.540034 
L 908.113878 262.090561 
L 908.667602 299.92205 
L 909.221326 321.326011 
L 910.328774 295.645261 
L 910.882498 302.446783 
L 911.436222 286.952149 
L 911.989946 229.785151 
L 912.54367 190.624013 
L 913.097394 213.877004 
L 913.651118 254.939982 
L 914.204842 261.901434 
L 914.758566 251.133077 
L 915.31229 252.330526 
L 916.419738 270.237137 
L 916.973462 286.410096 
L 917.527186 294.398124 
L 918.08091 266.266109 
L 918.634634 209.764774 
L 919.188358 173.973254 
L 919.742082 193.420596 
L 920.84953 257.529214 
L 921.403254 280.515102 
L 921.956978 289.852675 
L 922.510702 282.879065 
L 924.725599 221.244944 
L 925.279323 218.875147 
L 925.833047 229.437836 
L 926.386771 247.815048 
L 927.494219 319.305653 
L 928.047943 327.316143 
L 929.155391 243.220541 
L 929.709115 243.494462 
L 930.816563 320.183628 
L 931.370287 316.863596 
L 932.477735 237.351943 
L 933.031459 223.405632 
L 934.138907 245.967356 
L 934.692631 244.576157 
L 935.246355 236.145655 
L 935.800079 229.834496 
L 936.353803 235.112445 
L 937.461251 280.62101 
L 938.014975 265.551774 
L 938.568699 230.848997 
L 939.122423 226.020317 
L 939.676147 254.652838 
L 940.229871 273.026487 
L 940.783595 258.802244 
L 941.337319 238.229749 
L 941.891043 241.625145 
L 942.444767 262.071509 
L 942.998491 276.873676 
L 943.552215 277.666483 
L 944.105939 264.163348 
L 944.659663 245.480475 
L 945.213387 242.816163 
L 945.767111 272.146226 
L 946.320835 318.819764 
L 946.874559 332.790264 
L 947.982007 226.8617 
L 948.535731 240.803887 
L 949.089455 309.884471 
L 949.643179 350.725566 
L 950.196903 335.953994 
L 950.750628 312.442184 
L 951.304352 308.493698 
L 951.858076 302.554376 
L 952.4118 289.585913 
L 953.519248 285.103078 
L 954.072972 259.797259 
L 954.626696 223.448642 
L 955.18042 217.698249 
L 955.734144 262.888562 
L 956.287868 320.345516 
L 956.841592 330.689544 
L 957.94904 240.720688 
L 958.502764 225.344723 
L 959.056488 239.410812 
L 960.163936 285.308277 
L 960.71766 290.902145 
L 961.271384 277.214251 
L 962.378832 235.136191 
L 962.932556 229.944271 
L 963.48628 246.859542 
L 964.593728 319.195018 
L 965.147452 326.379933 
L 966.2549 286.4284 
L 966.808624 288.246551 
L 967.362348 303.865776 
L 967.916072 308.358391 
L 969.02352 279.551833 
L 969.577244 278.492362 
L 970.684692 301.684015 
L 971.238416 299.831821 
L 972.345864 251.954662 
L 972.899588 252.770042 
L 973.453312 276.620996 
L 974.007036 289.667726 
L 974.56076 284.088775 
L 975.114484 281.011869 
L 975.668208 285.1288 
L 976.221932 284.793006 
L 976.775656 276.78746 
L 977.883104 252.383918 
L 978.436829 250.934912 
L 978.990553 260.353064 
L 979.544277 266.165081 
L 980.098001 260.221258 
L 980.651725 257.706993 
L 981.205449 274.261823 
L 981.759173 296.439625 
L 982.312897 297.721771 
L 982.866621 278.574533 
L 983.420345 263.701445 
L 983.974069 265.042711 
L 985.081517 285.238409 
L 985.635241 286.380449 
L 986.188965 276.109462 
L 986.742689 259.75147 
L 987.296413 247.59245 
L 987.850137 249.34156 
L 988.957585 285.658242 
L 989.511309 294.327114 
L 990.065033 290.170791 
L 990.618757 282.465941 
L 991.172481 278.630993 
L 991.726205 277.927069 
L 992.279929 278.038026 
L 992.833653 277.309455 
L 993.387377 270.830732 
L 993.941101 260.291652 
L 994.494825 260.096018 
L 995.048549 273.579566 
L 995.602273 281.402841 
L 996.709721 263.635283 
L 997.263445 266.984193 
L 997.817169 272.744808 
L 998.370893 270.696575 
L 998.924617 267.309154 
L 999.478341 268.855904 
L 1001.139513 281.395375 
L 1001.693237 280.819749 
L 1002.246961 276.968955 
L 1002.800685 275.404708 
L 1003.354409 275.879265 
L 1003.908133 274.579271 
L 1004.461857 272.726263 
L 1005.015581 273.659549 
L 1006.12303 279.884658 
L 1006.676754 280.610169 
L 1007.230478 277.708378 
L 1007.784202 272.808719 
L 1008.337926 270.058516 
L 1008.89165 271.900797 
L 1009.999098 280.532653 
L 1010.552822 281.159164 
L 1011.106546 277.469361 
L 1011.66027 271.842075 
L 1012.213994 269.451361 
L 1012.767718 272.078318 
L 1013.321442 275.468817 
L 1013.875166 275.323161 
L 1014.42889 272.658194 
L 1014.982614 271.30695 
L 1015.536338 272.770532 
L 1016.090062 274.876318 
L 1016.643786 274.901558 
L 1017.751234 271.141236 
L 1018.304958 271.03427 
L 1019.412406 272.668015 
L 1019.96613 273.077139 
L 1020.519854 272.8872 
L 1021.627302 271.541439 
L 1022.181026 271.543532 
L 1022.73475 272.033724 
L 1023.288474 272.353332 
L 1023.842198 272.042395 
L 1024.949646 270.800638 
L 1025.50337 270.728739 
L 1026.610818 271.054519 
L 1027.164542 270.846595 
L 1028.27199 270.117665 
L 1029.933162 270.105319 
L 1031.04061 269.543759 
L 1031.594334 269.433652 
L 1032.701782 269.497144 
L 1033.809231 269.142607 
L 1034.362955 268.983066 
L 1034.362955 268.983066 
" clip-path="url(#p31ad2bc1e2)" style="fill: none; stroke: #0c5da5; stroke-width: 2; stroke-linecap: square"/>
   </g>
   <g id="patch_3">
    <path d="M 75.6175 520.7175 
L 75.6175 21.7575 
" style="fill: none; stroke: #000000; stroke-linejoin: miter; stroke-linecap: square"/>
   </g>
   <g id="patch_4">
    <path d="M 1080.0175 520.7175 
L 1080.0175 21.7575 
" style="fill: none; stroke: #000000; stroke-linejoin: miter; stroke-linecap: square"/>
   </g>
   <g id="patch_5">
    <path d="M 75.6175 520.7175 
L 1080.0175 520.7175 
" style="fill: none; stroke: #000000; stroke-linejoin: miter; stroke-linecap: square"/>
   </g>
   <g id="patch_6">
    <path d="M 75.6175 21.7575 
L 1080.0175 21.7575 
" style="fill: none; stroke: #000000; stroke-linejoin: miter; stroke-linecap: square"/>
   </g>
   <g id="text_17">
    <!-- Tabas_ Iran Record no. 143 -->
    <g transform="translate(470.12875 15.7575) scale(0.16 -0.16)">
     <defs>
      <path id="DejaVuSans-61" d="M 2194 1759 
Q 1497 1759 1228 1600 
Q 959 1441 959 1056 
Q 959 750 1161 570 
Q 1363 391 1709 391 
Q 2188 391 2477 730 
Q 2766 1069 2766 1631 
L 2766 1759 
L 2194 1759 
z
M 3341 1997 
L 3341 0 
L 2766 0 
L 2766 531 
Q 2569 213 2275 61 
Q 1981 -91 1556 -91 
Q 1019 -91 701 211 
Q 384 513 384 1019 
Q 384 1609 779 1909 
Q 1175 2209 1959 2209 
L 2766 2209 
L 2766 2266 
Q 2766 2663 2505 2880 
Q 2244 3097 1772 3097 
Q 1472 3097 1187 3025 
Q 903 2953 641 2809 
L 641 3341 
Q 956 3463 1253 3523 
Q 1550 3584 1831 3584 
Q 2591 3584 2966 3190 
Q 3341 2797 3341 1997 
z
" transform="scale(0.015625)"/>
      <path id="DejaVuSans-62" d="M 3116 1747 
Q 3116 2381 2855 2742 
Q 2594 3103 2138 3103 
Q 1681 3103 1420 2742 
Q 1159 2381 1159 1747 
Q 1159 1113 1420 752 
Q 1681 391 2138 391 
Q 2594 391 2855 752 
Q 3116 1113 3116 1747 
z
M 1159 2969 
Q 1341 3281 1617 3432 
Q 1894 3584 2278 3584 
Q 2916 3584 3314 3078 
Q 3713 2572 3713 1747 
Q 3713 922 3314 415 
Q 2916 -91 2278 -91 
Q 1894 -91 1617 61 
Q 1341 213 1159 525 
L 1159 0 
L 581 0 
L 581 4863 
L 1159 4863 
L 1159 2969 
z
" transform="scale(0.015625)"/>
      <path id="DejaVuSans-5f" d="M 3263 -1063 
L 3263 -1509 
L -63 -1509 
L -63 -1063 
L 3263 -1063 
z
" transform="scale(0.015625)"/>
      <path id="DejaVuSans-72" d="M 2631 2963 
Q 2534 3019 2420 3045 
Q 2306 3072 2169 3072 
Q 1681 3072 1420 2755 
Q 1159 2438 1159 1844 
L 1159 0 
L 581 0 
L 581 3500 
L 1159 3500 
L 1159 2956 
Q 1341 3275 1631 3429 
Q 1922 3584 2338 3584 
Q 2397 3584 2469 3576 
Q 2541 3569 2628 3553 
L 2631 2963 
z
" transform="scale(0.015625)"/>
      <path id="DejaVuSans-6e" d="M 3513 2113 
L 3513 0 
L 2938 0 
L 2938 2094 
Q 2938 2591 2744 2837 
Q 2550 3084 2163 3084 
Q 1697 3084 1428 2787 
Q 1159 2491 1159 1978 
L 1159 0 
L 581 0 
L 581 3500 
L 1159 3500 
L 1159 2956 
Q 1366 3272 1645 3428 
Q 1925 3584 2291 3584 
Q 2894 3584 3203 3211 
Q 3513 2838 3513 2113 
z
" transform="scale(0.015625)"/>
      <path id="DejaVuSans-63" d="M 3122 3366 
L 3122 2828 
Q 2878 2963 2633 3030 
Q 2388 3097 2138 3097 
Q 1578 3097 1268 2742 
Q 959 2388 959 1747 
Q 959 1106 1268 751 
Q 1578 397 2138 397 
Q 2388 397 2633 464 
Q 2878 531 3122 666 
L 3122 134 
Q 2881 22 2623 -34 
Q 2366 -91 2075 -91 
Q 1284 -91 818 406 
Q 353 903 353 1747 
Q 353 2603 823 3093 
Q 1294 3584 2113 3584 
Q 2378 3584 2631 3529 
Q 2884 3475 3122 3366 
z
" transform="scale(0.015625)"/>
      <path id="DejaVuSans-6f" d="M 1959 3097 
Q 1497 3097 1228 2736 
Q 959 2375 959 1747 
Q 959 1119 1226 758 
Q 1494 397 1959 397 
Q 2419 397 2687 759 
Q 2956 1122 2956 1747 
Q 2956 2369 2687 2733 
Q 2419 3097 1959 3097 
z
M 1959 3584 
Q 2709 3584 3137 3096 
Q 3566 2609 3566 1747 
Q 3566 888 3137 398 
Q 2709 -91 1959 -91 
Q 1206 -91 779 398 
Q 353 888 353 1747 
Q 353 2609 779 3096 
Q 1206 3584 1959 3584 
z
" transform="scale(0.015625)"/>
      <path id="DejaVuSans-64" d="M 2906 2969 
L 2906 4863 
L 3481 4863 
L 3481 0 
L 2906 0 
L 2906 525 
Q 2725 213 2448 61 
Q 2172 -91 1784 -91 
Q 1150 -91 751 415 
Q 353 922 353 1747 
Q 353 2572 751 3078 
Q 1150 3584 1784 3584 
Q 2172 3584 2448 3432 
Q 2725 3281 2906 2969 
z
M 947 1747 
Q 947 1113 1208 752 
Q 1469 391 1925 391 
Q 2381 391 2643 752 
Q 2906 1113 2906 1747 
Q 2906 2381 2643 2742 
Q 2381 3103 1925 3103 
Q 1469 3103 1208 2742 
Q 947 2381 947 1747 
z
" transform="scale(0.015625)"/>
     </defs>
     <use xlink:href="#DejaVuSans-54"/>
     <use xlink:href="#DejaVuSans-61" x="44.583984"/>
     <use xlink:href="#DejaVuSans-62" x="105.863281"/>
     <use xlink:href="#DejaVuSans-61" x="169.339844"/>
     <use xlink:href="#DejaVuSans-73" x="230.619141"/>
     <use xlink:href="#DejaVuSans-5f" x="282.71875"/>
     <use xlink:href="#DejaVuSans-20" x="332.71875"/>
     <use xlink:href="#DejaVuSans-49" x="364.505859"/>
     <use xlink:href="#DejaVuSans-72" x="393.998047"/>
     <use xlink:href="#DejaVuSans-61" x="435.111328"/>
     <use xlink:href="#DejaVuSans-6e" x="496.390625"/>
     <use xlink:href="#DejaVuSans-20" x="559.769531"/>
     <use xlink:href="#DejaVuSans-52" x="591.556641"/>
     <use xlink:href="#DejaVuSans-65" x="656.539062"/>
     <use xlink:href="#DejaVuSans-63" x="718.0625"/>
     <use xlink:href="#DejaVuSans-6f" x="773.042969"/>
     <use xlink:href="#DejaVuSans-72" x="834.224609"/>
     <use xlink:href="#DejaVuSans-64" x="873.587891"/>
     <use xlink:href="#DejaVuSans-20" x="937.064453"/>
     <use xlink:href="#DejaVuSans-6e" x="968.851562"/>
     <use xlink:href="#DejaVuSans-6f" x="1032.230469"/>
     <use xlink:href="#DejaVuSans-2e" x="1091.662109"/>
     <use xlink:href="#DejaVuSans-20" x="1123.449219"/>
     <use xlink:href="#DejaVuSans-31" x="1155.236328"/>
     <use xlink:href="#DejaVuSans-34" x="1218.859375"/>
     <use xlink:href="#DejaVuSans-33" x="1282.482422"/>
    </g>
   </g>
  </g>
 </g>
 <defs>
  <clipPath id="p31ad2bc1e2">
   <rect x="75.6175" y="21.7575" width="1004.4" height="498.96"/>
  </clipPath>
 </defs>
</svg>
