<?xml version="1.0" encoding="utf-8" standalone="no"?>
<!DOCTYPE svg PUBLIC "-//W3C//DTD SVG 1.1//EN"
  "http://www.w3.org/Graphics/SVG/1.1/DTD/svg11.dtd">
<svg xmlns:xlink="http://www.w3.org/1999/xlink" width="1059.4875pt" height="562.7875pt" viewBox="0 0 1059.4875 562.7875" xmlns="http://www.w3.org/2000/svg" version="1.1">
 <metadata>
  <rdf:RDF xmlns:dc="http://purl.org/dc/elements/1.1/" xmlns:cc="http://creativecommons.org/ns#" xmlns:rdf="http://www.w3.org/1999/02/22-rdf-syntax-ns#">
   <cc:Work>
    <dc:type rdf:resource="http://purl.org/dc/dcmitype/StillImage"/>
    <dc:date>2023-05-16T14:30:23.666508</dc:date>
    <dc:format>image/svg+xml</dc:format>
    <dc:creator>
     <cc:Agent>
      <dc:title>Matplotlib v3.7.1, https://matplotlib.org/</dc:title>
     </cc:Agent>
    </dc:creator>
   </cc:Work>
  </rdf:RDF>
 </metadata>
 <defs>
  <style type="text/css">*{stroke-linejoin: round; stroke-linecap: butt}</style>
 </defs>
 <g id="figure_1">
  <g id="patch_1">
   <path d="M 0 562.7875 
L 1059.4875 562.7875 
L 1059.4875 0 
L 0 0 
z
" style="fill: #ffffff"/>
  </g>
  <g id="axes_1">
   <g id="patch_2">
    <path d="M 51.4875 520.7175 
L 1055.8875 520.7175 
L 1055.8875 21.7575 
L 51.4875 21.7575 
z
" style="fill: #ffffff"/>
   </g>
   <g id="matplotlib.axis_1">
    <g id="xtick_1">
     <g id="line2d_1">
      <path d="M 97.142045 520.7175 
L 97.142045 21.7575 
" clip-path="url(#p0190a8a424)" style="fill: none; stroke-dasharray: 1.85,0.8; stroke-dashoffset: 0; stroke: #000000; stroke-opacity: 0.5; stroke-width: 0.5"/>
     </g>
     <g id="line2d_2">
      <defs>
       <path id="m21565a615d" d="M 0 0 
L 0 -6 
" style="stroke: #000000"/>
      </defs>
      <g>
       <use xlink:href="#m21565a615d" x="97.142045" y="520.7175" style="stroke: #000000"/>
      </g>
     </g>
     <g id="line2d_3">
      <defs>
       <path id="m968f631354" d="M 0 0 
L 0 6 
" style="stroke: #000000"/>
      </defs>
      <g>
       <use xlink:href="#m968f631354" x="97.142045" y="21.7575" style="stroke: #000000"/>
      </g>
     </g>
     <g id="text_1">
      <!-- 0 -->
      <g transform="translate(92.052045 536.375) scale(0.16 -0.16)">
       <defs>
        <path id="DejaVuSans-30" d="M 2034 4250 
Q 1547 4250 1301 3770 
Q 1056 3291 1056 2328 
Q 1056 1369 1301 889 
Q 1547 409 2034 409 
Q 2525 409 2770 889 
Q 3016 1369 3016 2328 
Q 3016 3291 2770 3770 
Q 2525 4250 2034 4250 
z
M 2034 4750 
Q 2819 4750 3233 4129 
Q 3647 3509 3647 2328 
Q 3647 1150 3233 529 
Q 2819 -91 2034 -91 
Q 1250 -91 836 529 
Q 422 1150 422 2328 
Q 422 3509 836 4129 
Q 1250 4750 2034 4750 
z
" transform="scale(0.015625)"/>
       </defs>
       <use xlink:href="#DejaVuSans-30"/>
      </g>
     </g>
    </g>
    <g id="xtick_2">
     <g id="line2d_4">
      <path d="M 235.57305 520.7175 
L 235.57305 21.7575 
" clip-path="url(#p0190a8a424)" style="fill: none; stroke-dasharray: 1.85,0.8; stroke-dashoffset: 0; stroke: #000000; stroke-opacity: 0.5; stroke-width: 0.5"/>
     </g>
     <g id="line2d_5">
      <g>
       <use xlink:href="#m21565a615d" x="235.57305" y="520.7175" style="stroke: #000000"/>
      </g>
     </g>
     <g id="line2d_6">
      <g>
       <use xlink:href="#m968f631354" x="235.57305" y="21.7575" style="stroke: #000000"/>
      </g>
     </g>
     <g id="text_2">
      <!-- 5 -->
      <g transform="translate(230.48305 536.375) scale(0.16 -0.16)">
       <defs>
        <path id="DejaVuSans-35" d="M 691 4666 
L 3169 4666 
L 3169 4134 
L 1269 4134 
L 1269 2991 
Q 1406 3038 1543 3061 
Q 1681 3084 1819 3084 
Q 2600 3084 3056 2656 
Q 3513 2228 3513 1497 
Q 3513 744 3044 326 
Q 2575 -91 1722 -91 
Q 1428 -91 1123 -41 
Q 819 9 494 109 
L 494 744 
Q 775 591 1075 516 
Q 1375 441 1709 441 
Q 2250 441 2565 725 
Q 2881 1009 2881 1497 
Q 2881 1984 2565 2268 
Q 2250 2553 1709 2553 
Q 1456 2553 1204 2497 
Q 953 2441 691 2322 
L 691 4666 
z
" transform="scale(0.015625)"/>
       </defs>
       <use xlink:href="#DejaVuSans-35"/>
      </g>
     </g>
    </g>
    <g id="xtick_3">
     <g id="line2d_7">
      <path d="M 374.004055 520.7175 
L 374.004055 21.7575 
" clip-path="url(#p0190a8a424)" style="fill: none; stroke-dasharray: 1.85,0.8; stroke-dashoffset: 0; stroke: #000000; stroke-opacity: 0.5; stroke-width: 0.5"/>
     </g>
     <g id="line2d_8">
      <g>
       <use xlink:href="#m21565a615d" x="374.004055" y="520.7175" style="stroke: #000000"/>
      </g>
     </g>
     <g id="line2d_9">
      <g>
       <use xlink:href="#m968f631354" x="374.004055" y="21.7575" style="stroke: #000000"/>
      </g>
     </g>
     <g id="text_3">
      <!-- 10 -->
      <g transform="translate(363.824055 536.375) scale(0.16 -0.16)">
       <defs>
        <path id="DejaVuSans-31" d="M 794 531 
L 1825 531 
L 1825 4091 
L 703 3866 
L 703 4441 
L 1819 4666 
L 2450 4666 
L 2450 531 
L 3481 531 
L 3481 0 
L 794 0 
L 794 531 
z
" transform="scale(0.015625)"/>
       </defs>
       <use xlink:href="#DejaVuSans-31"/>
       <use xlink:href="#DejaVuSans-30" x="63.623047"/>
      </g>
     </g>
    </g>
    <g id="xtick_4">
     <g id="line2d_10">
      <path d="M 512.435061 520.7175 
L 512.435061 21.7575 
" clip-path="url(#p0190a8a424)" style="fill: none; stroke-dasharray: 1.85,0.8; stroke-dashoffset: 0; stroke: #000000; stroke-opacity: 0.5; stroke-width: 0.5"/>
     </g>
     <g id="line2d_11">
      <g>
       <use xlink:href="#m21565a615d" x="512.435061" y="520.7175" style="stroke: #000000"/>
      </g>
     </g>
     <g id="line2d_12">
      <g>
       <use xlink:href="#m968f631354" x="512.435061" y="21.7575" style="stroke: #000000"/>
      </g>
     </g>
     <g id="text_4">
      <!-- 15 -->
      <g transform="translate(502.255061 536.375) scale(0.16 -0.16)">
       <use xlink:href="#DejaVuSans-31"/>
       <use xlink:href="#DejaVuSans-35" x="63.623047"/>
      </g>
     </g>
    </g>
    <g id="xtick_5">
     <g id="line2d_13">
      <path d="M 650.866066 520.7175 
L 650.866066 21.7575 
" clip-path="url(#p0190a8a424)" style="fill: none; stroke-dasharray: 1.85,0.8; stroke-dashoffset: 0; stroke: #000000; stroke-opacity: 0.5; stroke-width: 0.5"/>
     </g>
     <g id="line2d_14">
      <g>
       <use xlink:href="#m21565a615d" x="650.866066" y="520.7175" style="stroke: #000000"/>
      </g>
     </g>
     <g id="line2d_15">
      <g>
       <use xlink:href="#m968f631354" x="650.866066" y="21.7575" style="stroke: #000000"/>
      </g>
     </g>
     <g id="text_5">
      <!-- 20 -->
      <g transform="translate(640.686066 536.375) scale(0.16 -0.16)">
       <defs>
        <path id="DejaVuSans-32" d="M 1228 531 
L 3431 531 
L 3431 0 
L 469 0 
L 469 531 
Q 828 903 1448 1529 
Q 2069 2156 2228 2338 
Q 2531 2678 2651 2914 
Q 2772 3150 2772 3378 
Q 2772 3750 2511 3984 
Q 2250 4219 1831 4219 
Q 1534 4219 1204 4116 
Q 875 4013 500 3803 
L 500 4441 
Q 881 4594 1212 4672 
Q 1544 4750 1819 4750 
Q 2544 4750 2975 4387 
Q 3406 4025 3406 3419 
Q 3406 3131 3298 2873 
Q 3191 2616 2906 2266 
Q 2828 2175 2409 1742 
Q 1991 1309 1228 531 
z
" transform="scale(0.015625)"/>
       </defs>
       <use xlink:href="#DejaVuSans-32"/>
       <use xlink:href="#DejaVuSans-30" x="63.623047"/>
      </g>
     </g>
    </g>
    <g id="xtick_6">
     <g id="line2d_16">
      <path d="M 789.297071 520.7175 
L 789.297071 21.7575 
" clip-path="url(#p0190a8a424)" style="fill: none; stroke-dasharray: 1.85,0.8; stroke-dashoffset: 0; stroke: #000000; stroke-opacity: 0.5; stroke-width: 0.5"/>
     </g>
     <g id="line2d_17">
      <g>
       <use xlink:href="#m21565a615d" x="789.297071" y="520.7175" style="stroke: #000000"/>
      </g>
     </g>
     <g id="line2d_18">
      <g>
       <use xlink:href="#m968f631354" x="789.297071" y="21.7575" style="stroke: #000000"/>
      </g>
     </g>
     <g id="text_6">
      <!-- 25 -->
      <g transform="translate(779.117071 536.375) scale(0.16 -0.16)">
       <use xlink:href="#DejaVuSans-32"/>
       <use xlink:href="#DejaVuSans-35" x="63.623047"/>
      </g>
     </g>
    </g>
    <g id="xtick_7">
     <g id="line2d_19">
      <path d="M 927.728076 520.7175 
L 927.728076 21.7575 
" clip-path="url(#p0190a8a424)" style="fill: none; stroke-dasharray: 1.85,0.8; stroke-dashoffset: 0; stroke: #000000; stroke-opacity: 0.5; stroke-width: 0.5"/>
     </g>
     <g id="line2d_20">
      <g>
       <use xlink:href="#m21565a615d" x="927.728076" y="520.7175" style="stroke: #000000"/>
      </g>
     </g>
     <g id="line2d_21">
      <g>
       <use xlink:href="#m968f631354" x="927.728076" y="21.7575" style="stroke: #000000"/>
      </g>
     </g>
     <g id="text_7">
      <!-- 30 -->
      <g transform="translate(917.548076 536.375) scale(0.16 -0.16)">
       <defs>
        <path id="DejaVuSans-33" d="M 2597 2516 
Q 3050 2419 3304 2112 
Q 3559 1806 3559 1356 
Q 3559 666 3084 287 
Q 2609 -91 1734 -91 
Q 1441 -91 1130 -33 
Q 819 25 488 141 
L 488 750 
Q 750 597 1062 519 
Q 1375 441 1716 441 
Q 2309 441 2620 675 
Q 2931 909 2931 1356 
Q 2931 1769 2642 2001 
Q 2353 2234 1838 2234 
L 1294 2234 
L 1294 2753 
L 1863 2753 
Q 2328 2753 2575 2939 
Q 2822 3125 2822 3475 
Q 2822 3834 2567 4026 
Q 2313 4219 1838 4219 
Q 1578 4219 1281 4162 
Q 984 4106 628 3988 
L 628 4550 
Q 988 4650 1302 4700 
Q 1616 4750 1894 4750 
Q 2613 4750 3031 4423 
Q 3450 4097 3450 3541 
Q 3450 3153 3228 2886 
Q 3006 2619 2597 2516 
z
" transform="scale(0.015625)"/>
       </defs>
       <use xlink:href="#DejaVuSans-33"/>
       <use xlink:href="#DejaVuSans-30" x="63.623047"/>
      </g>
     </g>
    </g>
    <g id="xtick_8">
     <g id="line2d_22">
      <defs>
       <path id="mcd2d5fccad" d="M 0 0 
L 0 -3 
" style="stroke: #000000"/>
      </defs>
      <g>
       <use xlink:href="#mcd2d5fccad" x="69.455844" y="520.7175" style="stroke: #000000"/>
      </g>
     </g>
     <g id="line2d_23">
      <defs>
       <path id="m4e2d6ccf7e" d="M 0 0 
L 0 3 
" style="stroke: #000000"/>
      </defs>
      <g>
       <use xlink:href="#m4e2d6ccf7e" x="69.455844" y="21.7575" style="stroke: #000000"/>
      </g>
     </g>
    </g>
    <g id="xtick_9">
     <g id="line2d_24">
      <g>
       <use xlink:href="#mcd2d5fccad" x="124.828246" y="520.7175" style="stroke: #000000"/>
      </g>
     </g>
     <g id="line2d_25">
      <g>
       <use xlink:href="#m4e2d6ccf7e" x="124.828246" y="21.7575" style="stroke: #000000"/>
      </g>
     </g>
    </g>
    <g id="xtick_10">
     <g id="line2d_26">
      <g>
       <use xlink:href="#mcd2d5fccad" x="152.514447" y="520.7175" style="stroke: #000000"/>
      </g>
     </g>
     <g id="line2d_27">
      <g>
       <use xlink:href="#m4e2d6ccf7e" x="152.514447" y="21.7575" style="stroke: #000000"/>
      </g>
     </g>
    </g>
    <g id="xtick_11">
     <g id="line2d_28">
      <g>
       <use xlink:href="#mcd2d5fccad" x="180.200648" y="520.7175" style="stroke: #000000"/>
      </g>
     </g>
     <g id="line2d_29">
      <g>
       <use xlink:href="#m4e2d6ccf7e" x="180.200648" y="21.7575" style="stroke: #000000"/>
      </g>
     </g>
    </g>
    <g id="xtick_12">
     <g id="line2d_30">
      <g>
       <use xlink:href="#mcd2d5fccad" x="207.886849" y="520.7175" style="stroke: #000000"/>
      </g>
     </g>
     <g id="line2d_31">
      <g>
       <use xlink:href="#m4e2d6ccf7e" x="207.886849" y="21.7575" style="stroke: #000000"/>
      </g>
     </g>
    </g>
    <g id="xtick_13">
     <g id="line2d_32">
      <g>
       <use xlink:href="#mcd2d5fccad" x="263.259251" y="520.7175" style="stroke: #000000"/>
      </g>
     </g>
     <g id="line2d_33">
      <g>
       <use xlink:href="#m4e2d6ccf7e" x="263.259251" y="21.7575" style="stroke: #000000"/>
      </g>
     </g>
    </g>
    <g id="xtick_14">
     <g id="line2d_34">
      <g>
       <use xlink:href="#mcd2d5fccad" x="290.945452" y="520.7175" style="stroke: #000000"/>
      </g>
     </g>
     <g id="line2d_35">
      <g>
       <use xlink:href="#m4e2d6ccf7e" x="290.945452" y="21.7575" style="stroke: #000000"/>
      </g>
     </g>
    </g>
    <g id="xtick_15">
     <g id="line2d_36">
      <g>
       <use xlink:href="#mcd2d5fccad" x="318.631653" y="520.7175" style="stroke: #000000"/>
      </g>
     </g>
     <g id="line2d_37">
      <g>
       <use xlink:href="#m4e2d6ccf7e" x="318.631653" y="21.7575" style="stroke: #000000"/>
      </g>
     </g>
    </g>
    <g id="xtick_16">
     <g id="line2d_38">
      <g>
       <use xlink:href="#mcd2d5fccad" x="346.317854" y="520.7175" style="stroke: #000000"/>
      </g>
     </g>
     <g id="line2d_39">
      <g>
       <use xlink:href="#m4e2d6ccf7e" x="346.317854" y="21.7575" style="stroke: #000000"/>
      </g>
     </g>
    </g>
    <g id="xtick_17">
     <g id="line2d_40">
      <g>
       <use xlink:href="#mcd2d5fccad" x="401.690256" y="520.7175" style="stroke: #000000"/>
      </g>
     </g>
     <g id="line2d_41">
      <g>
       <use xlink:href="#m4e2d6ccf7e" x="401.690256" y="21.7575" style="stroke: #000000"/>
      </g>
     </g>
    </g>
    <g id="xtick_18">
     <g id="line2d_42">
      <g>
       <use xlink:href="#mcd2d5fccad" x="429.376457" y="520.7175" style="stroke: #000000"/>
      </g>
     </g>
     <g id="line2d_43">
      <g>
       <use xlink:href="#m4e2d6ccf7e" x="429.376457" y="21.7575" style="stroke: #000000"/>
      </g>
     </g>
    </g>
    <g id="xtick_19">
     <g id="line2d_44">
      <g>
       <use xlink:href="#mcd2d5fccad" x="457.062658" y="520.7175" style="stroke: #000000"/>
      </g>
     </g>
     <g id="line2d_45">
      <g>
       <use xlink:href="#m4e2d6ccf7e" x="457.062658" y="21.7575" style="stroke: #000000"/>
      </g>
     </g>
    </g>
    <g id="xtick_20">
     <g id="line2d_46">
      <g>
       <use xlink:href="#mcd2d5fccad" x="484.74886" y="520.7175" style="stroke: #000000"/>
      </g>
     </g>
     <g id="line2d_47">
      <g>
       <use xlink:href="#m4e2d6ccf7e" x="484.74886" y="21.7575" style="stroke: #000000"/>
      </g>
     </g>
    </g>
    <g id="xtick_21">
     <g id="line2d_48">
      <g>
       <use xlink:href="#mcd2d5fccad" x="540.121262" y="520.7175" style="stroke: #000000"/>
      </g>
     </g>
     <g id="line2d_49">
      <g>
       <use xlink:href="#m4e2d6ccf7e" x="540.121262" y="21.7575" style="stroke: #000000"/>
      </g>
     </g>
    </g>
    <g id="xtick_22">
     <g id="line2d_50">
      <g>
       <use xlink:href="#mcd2d5fccad" x="567.807463" y="520.7175" style="stroke: #000000"/>
      </g>
     </g>
     <g id="line2d_51">
      <g>
       <use xlink:href="#m4e2d6ccf7e" x="567.807463" y="21.7575" style="stroke: #000000"/>
      </g>
     </g>
    </g>
    <g id="xtick_23">
     <g id="line2d_52">
      <g>
       <use xlink:href="#mcd2d5fccad" x="595.493664" y="520.7175" style="stroke: #000000"/>
      </g>
     </g>
     <g id="line2d_53">
      <g>
       <use xlink:href="#m4e2d6ccf7e" x="595.493664" y="21.7575" style="stroke: #000000"/>
      </g>
     </g>
    </g>
    <g id="xtick_24">
     <g id="line2d_54">
      <g>
       <use xlink:href="#mcd2d5fccad" x="623.179865" y="520.7175" style="stroke: #000000"/>
      </g>
     </g>
     <g id="line2d_55">
      <g>
       <use xlink:href="#m4e2d6ccf7e" x="623.179865" y="21.7575" style="stroke: #000000"/>
      </g>
     </g>
    </g>
    <g id="xtick_25">
     <g id="line2d_56">
      <g>
       <use xlink:href="#mcd2d5fccad" x="678.552267" y="520.7175" style="stroke: #000000"/>
      </g>
     </g>
     <g id="line2d_57">
      <g>
       <use xlink:href="#m4e2d6ccf7e" x="678.552267" y="21.7575" style="stroke: #000000"/>
      </g>
     </g>
    </g>
    <g id="xtick_26">
     <g id="line2d_58">
      <g>
       <use xlink:href="#mcd2d5fccad" x="706.238468" y="520.7175" style="stroke: #000000"/>
      </g>
     </g>
     <g id="line2d_59">
      <g>
       <use xlink:href="#m4e2d6ccf7e" x="706.238468" y="21.7575" style="stroke: #000000"/>
      </g>
     </g>
    </g>
    <g id="xtick_27">
     <g id="line2d_60">
      <g>
       <use xlink:href="#mcd2d5fccad" x="733.924669" y="520.7175" style="stroke: #000000"/>
      </g>
     </g>
     <g id="line2d_61">
      <g>
       <use xlink:href="#m4e2d6ccf7e" x="733.924669" y="21.7575" style="stroke: #000000"/>
      </g>
     </g>
    </g>
    <g id="xtick_28">
     <g id="line2d_62">
      <g>
       <use xlink:href="#mcd2d5fccad" x="761.61087" y="520.7175" style="stroke: #000000"/>
      </g>
     </g>
     <g id="line2d_63">
      <g>
       <use xlink:href="#m4e2d6ccf7e" x="761.61087" y="21.7575" style="stroke: #000000"/>
      </g>
     </g>
    </g>
    <g id="xtick_29">
     <g id="line2d_64">
      <g>
       <use xlink:href="#mcd2d5fccad" x="816.983272" y="520.7175" style="stroke: #000000"/>
      </g>
     </g>
     <g id="line2d_65">
      <g>
       <use xlink:href="#m4e2d6ccf7e" x="816.983272" y="21.7575" style="stroke: #000000"/>
      </g>
     </g>
    </g>
    <g id="xtick_30">
     <g id="line2d_66">
      <g>
       <use xlink:href="#mcd2d5fccad" x="844.669473" y="520.7175" style="stroke: #000000"/>
      </g>
     </g>
     <g id="line2d_67">
      <g>
       <use xlink:href="#m4e2d6ccf7e" x="844.669473" y="21.7575" style="stroke: #000000"/>
      </g>
     </g>
    </g>
    <g id="xtick_31">
     <g id="line2d_68">
      <g>
       <use xlink:href="#mcd2d5fccad" x="872.355674" y="520.7175" style="stroke: #000000"/>
      </g>
     </g>
     <g id="line2d_69">
      <g>
       <use xlink:href="#m4e2d6ccf7e" x="872.355674" y="21.7575" style="stroke: #000000"/>
      </g>
     </g>
    </g>
    <g id="xtick_32">
     <g id="line2d_70">
      <g>
       <use xlink:href="#mcd2d5fccad" x="900.041875" y="520.7175" style="stroke: #000000"/>
      </g>
     </g>
     <g id="line2d_71">
      <g>
       <use xlink:href="#m4e2d6ccf7e" x="900.041875" y="21.7575" style="stroke: #000000"/>
      </g>
     </g>
    </g>
    <g id="xtick_33">
     <g id="line2d_72">
      <g>
       <use xlink:href="#mcd2d5fccad" x="955.414277" y="520.7175" style="stroke: #000000"/>
      </g>
     </g>
     <g id="line2d_73">
      <g>
       <use xlink:href="#m4e2d6ccf7e" x="955.414277" y="21.7575" style="stroke: #000000"/>
      </g>
     </g>
    </g>
    <g id="xtick_34">
     <g id="line2d_74">
      <g>
       <use xlink:href="#mcd2d5fccad" x="983.100478" y="520.7175" style="stroke: #000000"/>
      </g>
     </g>
     <g id="line2d_75">
      <g>
       <use xlink:href="#m4e2d6ccf7e" x="983.100478" y="21.7575" style="stroke: #000000"/>
      </g>
     </g>
    </g>
    <g id="xtick_35">
     <g id="line2d_76">
      <g>
       <use xlink:href="#mcd2d5fccad" x="1010.786679" y="520.7175" style="stroke: #000000"/>
      </g>
     </g>
     <g id="line2d_77">
      <g>
       <use xlink:href="#m4e2d6ccf7e" x="1010.786679" y="21.7575" style="stroke: #000000"/>
      </g>
     </g>
    </g>
    <g id="xtick_36">
     <g id="line2d_78">
      <g>
       <use xlink:href="#mcd2d5fccad" x="1038.47288" y="520.7175" style="stroke: #000000"/>
      </g>
     </g>
     <g id="line2d_79">
      <g>
       <use xlink:href="#m4e2d6ccf7e" x="1038.47288" y="21.7575" style="stroke: #000000"/>
      </g>
     </g>
    </g>
    <g id="text_8">
     <!-- Time(s) -->
     <g transform="translate(523.70375 555.86) scale(0.16 -0.16)">
      <defs>
       <path id="DejaVuSans-54" d="M -19 4666 
L 3928 4666 
L 3928 4134 
L 2272 4134 
L 2272 0 
L 1638 0 
L 1638 4134 
L -19 4134 
L -19 4666 
z
" transform="scale(0.015625)"/>
       <path id="DejaVuSans-69" d="M 603 3500 
L 1178 3500 
L 1178 0 
L 603 0 
L 603 3500 
z
M 603 4863 
L 1178 4863 
L 1178 4134 
L 603 4134 
L 603 4863 
z
" transform="scale(0.015625)"/>
       <path id="DejaVuSans-6d" d="M 3328 2828 
Q 3544 3216 3844 3400 
Q 4144 3584 4550 3584 
Q 5097 3584 5394 3201 
Q 5691 2819 5691 2113 
L 5691 0 
L 5113 0 
L 5113 2094 
Q 5113 2597 4934 2840 
Q 4756 3084 4391 3084 
Q 3944 3084 3684 2787 
Q 3425 2491 3425 1978 
L 3425 0 
L 2847 0 
L 2847 2094 
Q 2847 2600 2669 2842 
Q 2491 3084 2119 3084 
Q 1678 3084 1418 2786 
Q 1159 2488 1159 1978 
L 1159 0 
L 581 0 
L 581 3500 
L 1159 3500 
L 1159 2956 
Q 1356 3278 1631 3431 
Q 1906 3584 2284 3584 
Q 2666 3584 2933 3390 
Q 3200 3197 3328 2828 
z
" transform="scale(0.015625)"/>
       <path id="DejaVuSans-65" d="M 3597 1894 
L 3597 1613 
L 953 1613 
Q 991 1019 1311 708 
Q 1631 397 2203 397 
Q 2534 397 2845 478 
Q 3156 559 3463 722 
L 3463 178 
Q 3153 47 2828 -22 
Q 2503 -91 2169 -91 
Q 1331 -91 842 396 
Q 353 884 353 1716 
Q 353 2575 817 3079 
Q 1281 3584 2069 3584 
Q 2775 3584 3186 3129 
Q 3597 2675 3597 1894 
z
M 3022 2063 
Q 3016 2534 2758 2815 
Q 2500 3097 2075 3097 
Q 1594 3097 1305 2825 
Q 1016 2553 972 2059 
L 3022 2063 
z
" transform="scale(0.015625)"/>
       <path id="DejaVuSans-28" d="M 1984 4856 
Q 1566 4138 1362 3434 
Q 1159 2731 1159 2009 
Q 1159 1288 1364 580 
Q 1569 -128 1984 -844 
L 1484 -844 
Q 1016 -109 783 600 
Q 550 1309 550 2009 
Q 550 2706 781 3412 
Q 1013 4119 1484 4856 
L 1984 4856 
z
" transform="scale(0.015625)"/>
       <path id="DejaVuSans-73" d="M 2834 3397 
L 2834 2853 
Q 2591 2978 2328 3040 
Q 2066 3103 1784 3103 
Q 1356 3103 1142 2972 
Q 928 2841 928 2578 
Q 928 2378 1081 2264 
Q 1234 2150 1697 2047 
L 1894 2003 
Q 2506 1872 2764 1633 
Q 3022 1394 3022 966 
Q 3022 478 2636 193 
Q 2250 -91 1575 -91 
Q 1294 -91 989 -36 
Q 684 19 347 128 
L 347 722 
Q 666 556 975 473 
Q 1284 391 1588 391 
Q 1994 391 2212 530 
Q 2431 669 2431 922 
Q 2431 1156 2273 1281 
Q 2116 1406 1581 1522 
L 1381 1569 
Q 847 1681 609 1914 
Q 372 2147 372 2553 
Q 372 3047 722 3315 
Q 1072 3584 1716 3584 
Q 2034 3584 2315 3537 
Q 2597 3491 2834 3397 
z
" transform="scale(0.015625)"/>
       <path id="DejaVuSans-29" d="M 513 4856 
L 1013 4856 
Q 1481 4119 1714 3412 
Q 1947 2706 1947 2009 
Q 1947 1309 1714 600 
Q 1481 -109 1013 -844 
L 513 -844 
Q 928 -128 1133 580 
Q 1338 1288 1338 2009 
Q 1338 2731 1133 3434 
Q 928 4138 513 4856 
z
" transform="scale(0.015625)"/>
      </defs>
      <use xlink:href="#DejaVuSans-54"/>
      <use xlink:href="#DejaVuSans-69" x="57.958984"/>
      <use xlink:href="#DejaVuSans-6d" x="85.742188"/>
      <use xlink:href="#DejaVuSans-65" x="183.154297"/>
      <use xlink:href="#DejaVuSans-28" x="244.677734"/>
      <use xlink:href="#DejaVuSans-73" x="283.691406"/>
      <use xlink:href="#DejaVuSans-29" x="335.791016"/>
     </g>
    </g>
   </g>
   <g id="matplotlib.axis_2">
    <g id="ytick_1">
     <g id="line2d_80">
      <path d="M 51.4875 494.928144 
L 1055.8875 494.928144 
" clip-path="url(#p0190a8a424)" style="fill: none; stroke-dasharray: 1.85,0.8; stroke-dashoffset: 0; stroke: #000000; stroke-opacity: 0.5; stroke-width: 0.5"/>
     </g>
     <g id="line2d_81">
      <defs>
       <path id="mb16089e7a5" d="M 0 0 
L 6 0 
" style="stroke: #000000"/>
      </defs>
      <g>
       <use xlink:href="#mb16089e7a5" x="51.4875" y="494.928144" style="stroke: #000000"/>
      </g>
     </g>
     <g id="line2d_82">
      <defs>
       <path id="ma669b67195" d="M 0 0 
L -6 0 
" style="stroke: #000000"/>
      </defs>
      <g>
       <use xlink:href="#ma669b67195" x="1055.8875" y="494.928144" style="stroke: #000000"/>
      </g>
     </g>
     <g id="text_9">
      <!-- −3 -->
      <g transform="translate(24.4 501.006894) scale(0.16 -0.16)">
       <defs>
        <path id="DejaVuSans-2212" d="M 678 2272 
L 4684 2272 
L 4684 1741 
L 678 1741 
L 678 2272 
z
" transform="scale(0.015625)"/>
       </defs>
       <use xlink:href="#DejaVuSans-2212"/>
       <use xlink:href="#DejaVuSans-33" x="83.789062"/>
      </g>
     </g>
    </g>
    <g id="ytick_2">
     <g id="line2d_83">
      <path d="M 51.4875 431.347541 
L 1055.8875 431.347541 
" clip-path="url(#p0190a8a424)" style="fill: none; stroke-dasharray: 1.85,0.8; stroke-dashoffset: 0; stroke: #000000; stroke-opacity: 0.5; stroke-width: 0.5"/>
     </g>
     <g id="line2d_84">
      <g>
       <use xlink:href="#mb16089e7a5" x="51.4875" y="431.347541" style="stroke: #000000"/>
      </g>
     </g>
     <g id="line2d_85">
      <g>
       <use xlink:href="#ma669b67195" x="1055.8875" y="431.347541" style="stroke: #000000"/>
      </g>
     </g>
     <g id="text_10">
      <!-- −2 -->
      <g transform="translate(24.4 437.426291) scale(0.16 -0.16)">
       <use xlink:href="#DejaVuSans-2212"/>
       <use xlink:href="#DejaVuSans-32" x="83.789062"/>
      </g>
     </g>
    </g>
    <g id="ytick_3">
     <g id="line2d_86">
      <path d="M 51.4875 367.766939 
L 1055.8875 367.766939 
" clip-path="url(#p0190a8a424)" style="fill: none; stroke-dasharray: 1.85,0.8; stroke-dashoffset: 0; stroke: #000000; stroke-opacity: 0.5; stroke-width: 0.5"/>
     </g>
     <g id="line2d_87">
      <g>
       <use xlink:href="#mb16089e7a5" x="51.4875" y="367.766939" style="stroke: #000000"/>
      </g>
     </g>
     <g id="line2d_88">
      <g>
       <use xlink:href="#ma669b67195" x="1055.8875" y="367.766939" style="stroke: #000000"/>
      </g>
     </g>
     <g id="text_11">
      <!-- −1 -->
      <g transform="translate(24.4 373.845689) scale(0.16 -0.16)">
       <use xlink:href="#DejaVuSans-2212"/>
       <use xlink:href="#DejaVuSans-31" x="83.789062"/>
      </g>
     </g>
    </g>
    <g id="ytick_4">
     <g id="line2d_89">
      <path d="M 51.4875 304.186337 
L 1055.8875 304.186337 
" clip-path="url(#p0190a8a424)" style="fill: none; stroke-dasharray: 1.85,0.8; stroke-dashoffset: 0; stroke: #000000; stroke-opacity: 0.5; stroke-width: 0.5"/>
     </g>
     <g id="line2d_90">
      <g>
       <use xlink:href="#mb16089e7a5" x="51.4875" y="304.186337" style="stroke: #000000"/>
      </g>
     </g>
     <g id="line2d_91">
      <g>
       <use xlink:href="#ma669b67195" x="1055.8875" y="304.186337" style="stroke: #000000"/>
      </g>
     </g>
     <g id="text_12">
      <!-- 0 -->
      <g transform="translate(37.8075 310.265087) scale(0.16 -0.16)">
       <use xlink:href="#DejaVuSans-30"/>
      </g>
     </g>
    </g>
    <g id="ytick_5">
     <g id="line2d_92">
      <path d="M 51.4875 240.605735 
L 1055.8875 240.605735 
" clip-path="url(#p0190a8a424)" style="fill: none; stroke-dasharray: 1.85,0.8; stroke-dashoffset: 0; stroke: #000000; stroke-opacity: 0.5; stroke-width: 0.5"/>
     </g>
     <g id="line2d_93">
      <g>
       <use xlink:href="#mb16089e7a5" x="51.4875" y="240.605735" style="stroke: #000000"/>
      </g>
     </g>
     <g id="line2d_94">
      <g>
       <use xlink:href="#ma669b67195" x="1055.8875" y="240.605735" style="stroke: #000000"/>
      </g>
     </g>
     <g id="text_13">
      <!-- 1 -->
      <g transform="translate(37.8075 246.684485) scale(0.16 -0.16)">
       <use xlink:href="#DejaVuSans-31"/>
      </g>
     </g>
    </g>
    <g id="ytick_6">
     <g id="line2d_95">
      <path d="M 51.4875 177.025132 
L 1055.8875 177.025132 
" clip-path="url(#p0190a8a424)" style="fill: none; stroke-dasharray: 1.85,0.8; stroke-dashoffset: 0; stroke: #000000; stroke-opacity: 0.5; stroke-width: 0.5"/>
     </g>
     <g id="line2d_96">
      <g>
       <use xlink:href="#mb16089e7a5" x="51.4875" y="177.025132" style="stroke: #000000"/>
      </g>
     </g>
     <g id="line2d_97">
      <g>
       <use xlink:href="#ma669b67195" x="1055.8875" y="177.025132" style="stroke: #000000"/>
      </g>
     </g>
     <g id="text_14">
      <!-- 2 -->
      <g transform="translate(37.8075 183.103882) scale(0.16 -0.16)">
       <use xlink:href="#DejaVuSans-32"/>
      </g>
     </g>
    </g>
    <g id="ytick_7">
     <g id="line2d_98">
      <path d="M 51.4875 113.44453 
L 1055.8875 113.44453 
" clip-path="url(#p0190a8a424)" style="fill: none; stroke-dasharray: 1.85,0.8; stroke-dashoffset: 0; stroke: #000000; stroke-opacity: 0.5; stroke-width: 0.5"/>
     </g>
     <g id="line2d_99">
      <g>
       <use xlink:href="#mb16089e7a5" x="51.4875" y="113.44453" style="stroke: #000000"/>
      </g>
     </g>
     <g id="line2d_100">
      <g>
       <use xlink:href="#ma669b67195" x="1055.8875" y="113.44453" style="stroke: #000000"/>
      </g>
     </g>
     <g id="text_15">
      <!-- 3 -->
      <g transform="translate(37.8075 119.52328) scale(0.16 -0.16)">
       <use xlink:href="#DejaVuSans-33"/>
      </g>
     </g>
    </g>
    <g id="ytick_8">
     <g id="line2d_101">
      <path d="M 51.4875 49.863928 
L 1055.8875 49.863928 
" clip-path="url(#p0190a8a424)" style="fill: none; stroke-dasharray: 1.85,0.8; stroke-dashoffset: 0; stroke: #000000; stroke-opacity: 0.5; stroke-width: 0.5"/>
     </g>
     <g id="line2d_102">
      <g>
       <use xlink:href="#mb16089e7a5" x="51.4875" y="49.863928" style="stroke: #000000"/>
      </g>
     </g>
     <g id="line2d_103">
      <g>
       <use xlink:href="#ma669b67195" x="1055.8875" y="49.863928" style="stroke: #000000"/>
      </g>
     </g>
     <g id="text_16">
      <!-- 4 -->
      <g transform="translate(37.8075 55.942678) scale(0.16 -0.16)">
       <defs>
        <path id="DejaVuSans-34" d="M 2419 4116 
L 825 1625 
L 2419 1625 
L 2419 4116 
z
M 2253 4666 
L 3047 4666 
L 3047 1625 
L 3713 1625 
L 3713 1100 
L 3047 1100 
L 3047 0 
L 2419 0 
L 2419 1100 
L 313 1100 
L 313 1709 
L 2253 4666 
z
" transform="scale(0.015625)"/>
       </defs>
       <use xlink:href="#DejaVuSans-34"/>
      </g>
     </g>
    </g>
    <g id="ytick_9">
     <g id="line2d_104">
      <defs>
       <path id="mce94134e4e" d="M 0 0 
L 3 0 
" style="stroke: #000000"/>
      </defs>
      <g>
       <use xlink:href="#mce94134e4e" x="51.4875" y="520.360385" style="stroke: #000000"/>
      </g>
     </g>
     <g id="line2d_105">
      <defs>
       <path id="m6d7548f32f" d="M 0 0 
L -3 0 
" style="stroke: #000000"/>
      </defs>
      <g>
       <use xlink:href="#m6d7548f32f" x="1055.8875" y="520.360385" style="stroke: #000000"/>
      </g>
     </g>
    </g>
    <g id="ytick_10">
     <g id="line2d_106">
      <g>
       <use xlink:href="#mce94134e4e" x="51.4875" y="507.644264" style="stroke: #000000"/>
      </g>
     </g>
     <g id="line2d_107">
      <g>
       <use xlink:href="#m6d7548f32f" x="1055.8875" y="507.644264" style="stroke: #000000"/>
      </g>
     </g>
    </g>
    <g id="ytick_11">
     <g id="line2d_108">
      <g>
       <use xlink:href="#mce94134e4e" x="51.4875" y="482.212023" style="stroke: #000000"/>
      </g>
     </g>
     <g id="line2d_109">
      <g>
       <use xlink:href="#m6d7548f32f" x="1055.8875" y="482.212023" style="stroke: #000000"/>
      </g>
     </g>
    </g>
    <g id="ytick_12">
     <g id="line2d_110">
      <g>
       <use xlink:href="#mce94134e4e" x="51.4875" y="469.495903" style="stroke: #000000"/>
      </g>
     </g>
     <g id="line2d_111">
      <g>
       <use xlink:href="#m6d7548f32f" x="1055.8875" y="469.495903" style="stroke: #000000"/>
      </g>
     </g>
    </g>
    <g id="ytick_13">
     <g id="line2d_112">
      <g>
       <use xlink:href="#mce94134e4e" x="51.4875" y="456.779782" style="stroke: #000000"/>
      </g>
     </g>
     <g id="line2d_113">
      <g>
       <use xlink:href="#m6d7548f32f" x="1055.8875" y="456.779782" style="stroke: #000000"/>
      </g>
     </g>
    </g>
    <g id="ytick_14">
     <g id="line2d_114">
      <g>
       <use xlink:href="#mce94134e4e" x="51.4875" y="444.063662" style="stroke: #000000"/>
      </g>
     </g>
     <g id="line2d_115">
      <g>
       <use xlink:href="#m6d7548f32f" x="1055.8875" y="444.063662" style="stroke: #000000"/>
      </g>
     </g>
    </g>
    <g id="ytick_15">
     <g id="line2d_116">
      <g>
       <use xlink:href="#mce94134e4e" x="51.4875" y="418.631421" style="stroke: #000000"/>
      </g>
     </g>
     <g id="line2d_117">
      <g>
       <use xlink:href="#m6d7548f32f" x="1055.8875" y="418.631421" style="stroke: #000000"/>
      </g>
     </g>
    </g>
    <g id="ytick_16">
     <g id="line2d_118">
      <g>
       <use xlink:href="#mce94134e4e" x="51.4875" y="405.915301" style="stroke: #000000"/>
      </g>
     </g>
     <g id="line2d_119">
      <g>
       <use xlink:href="#m6d7548f32f" x="1055.8875" y="405.915301" style="stroke: #000000"/>
      </g>
     </g>
    </g>
    <g id="ytick_17">
     <g id="line2d_120">
      <g>
       <use xlink:href="#mce94134e4e" x="51.4875" y="393.19918" style="stroke: #000000"/>
      </g>
     </g>
     <g id="line2d_121">
      <g>
       <use xlink:href="#m6d7548f32f" x="1055.8875" y="393.19918" style="stroke: #000000"/>
      </g>
     </g>
    </g>
    <g id="ytick_18">
     <g id="line2d_122">
      <g>
       <use xlink:href="#mce94134e4e" x="51.4875" y="380.48306" style="stroke: #000000"/>
      </g>
     </g>
     <g id="line2d_123">
      <g>
       <use xlink:href="#m6d7548f32f" x="1055.8875" y="380.48306" style="stroke: #000000"/>
      </g>
     </g>
    </g>
    <g id="ytick_19">
     <g id="line2d_124">
      <g>
       <use xlink:href="#mce94134e4e" x="51.4875" y="355.050819" style="stroke: #000000"/>
      </g>
     </g>
     <g id="line2d_125">
      <g>
       <use xlink:href="#m6d7548f32f" x="1055.8875" y="355.050819" style="stroke: #000000"/>
      </g>
     </g>
    </g>
    <g id="ytick_20">
     <g id="line2d_126">
      <g>
       <use xlink:href="#mce94134e4e" x="51.4875" y="342.334698" style="stroke: #000000"/>
      </g>
     </g>
     <g id="line2d_127">
      <g>
       <use xlink:href="#m6d7548f32f" x="1055.8875" y="342.334698" style="stroke: #000000"/>
      </g>
     </g>
    </g>
    <g id="ytick_21">
     <g id="line2d_128">
      <g>
       <use xlink:href="#mce94134e4e" x="51.4875" y="329.618578" style="stroke: #000000"/>
      </g>
     </g>
     <g id="line2d_129">
      <g>
       <use xlink:href="#m6d7548f32f" x="1055.8875" y="329.618578" style="stroke: #000000"/>
      </g>
     </g>
    </g>
    <g id="ytick_22">
     <g id="line2d_130">
      <g>
       <use xlink:href="#mce94134e4e" x="51.4875" y="316.902457" style="stroke: #000000"/>
      </g>
     </g>
     <g id="line2d_131">
      <g>
       <use xlink:href="#m6d7548f32f" x="1055.8875" y="316.902457" style="stroke: #000000"/>
      </g>
     </g>
    </g>
    <g id="ytick_23">
     <g id="line2d_132">
      <g>
       <use xlink:href="#mce94134e4e" x="51.4875" y="291.470216" style="stroke: #000000"/>
      </g>
     </g>
     <g id="line2d_133">
      <g>
       <use xlink:href="#m6d7548f32f" x="1055.8875" y="291.470216" style="stroke: #000000"/>
      </g>
     </g>
    </g>
    <g id="ytick_24">
     <g id="line2d_134">
      <g>
       <use xlink:href="#mce94134e4e" x="51.4875" y="278.754096" style="stroke: #000000"/>
      </g>
     </g>
     <g id="line2d_135">
      <g>
       <use xlink:href="#m6d7548f32f" x="1055.8875" y="278.754096" style="stroke: #000000"/>
      </g>
     </g>
    </g>
    <g id="ytick_25">
     <g id="line2d_136">
      <g>
       <use xlink:href="#mce94134e4e" x="51.4875" y="266.037975" style="stroke: #000000"/>
      </g>
     </g>
     <g id="line2d_137">
      <g>
       <use xlink:href="#m6d7548f32f" x="1055.8875" y="266.037975" style="stroke: #000000"/>
      </g>
     </g>
    </g>
    <g id="ytick_26">
     <g id="line2d_138">
      <g>
       <use xlink:href="#mce94134e4e" x="51.4875" y="253.321855" style="stroke: #000000"/>
      </g>
     </g>
     <g id="line2d_139">
      <g>
       <use xlink:href="#m6d7548f32f" x="1055.8875" y="253.321855" style="stroke: #000000"/>
      </g>
     </g>
    </g>
    <g id="ytick_27">
     <g id="line2d_140">
      <g>
       <use xlink:href="#mce94134e4e" x="51.4875" y="227.889614" style="stroke: #000000"/>
      </g>
     </g>
     <g id="line2d_141">
      <g>
       <use xlink:href="#m6d7548f32f" x="1055.8875" y="227.889614" style="stroke: #000000"/>
      </g>
     </g>
    </g>
    <g id="ytick_28">
     <g id="line2d_142">
      <g>
       <use xlink:href="#mce94134e4e" x="51.4875" y="215.173494" style="stroke: #000000"/>
      </g>
     </g>
     <g id="line2d_143">
      <g>
       <use xlink:href="#m6d7548f32f" x="1055.8875" y="215.173494" style="stroke: #000000"/>
      </g>
     </g>
    </g>
    <g id="ytick_29">
     <g id="line2d_144">
      <g>
       <use xlink:href="#mce94134e4e" x="51.4875" y="202.457373" style="stroke: #000000"/>
      </g>
     </g>
     <g id="line2d_145">
      <g>
       <use xlink:href="#m6d7548f32f" x="1055.8875" y="202.457373" style="stroke: #000000"/>
      </g>
     </g>
    </g>
    <g id="ytick_30">
     <g id="line2d_146">
      <g>
       <use xlink:href="#mce94134e4e" x="51.4875" y="189.741253" style="stroke: #000000"/>
      </g>
     </g>
     <g id="line2d_147">
      <g>
       <use xlink:href="#m6d7548f32f" x="1055.8875" y="189.741253" style="stroke: #000000"/>
      </g>
     </g>
    </g>
    <g id="ytick_31">
     <g id="line2d_148">
      <g>
       <use xlink:href="#mce94134e4e" x="51.4875" y="164.309012" style="stroke: #000000"/>
      </g>
     </g>
     <g id="line2d_149">
      <g>
       <use xlink:href="#m6d7548f32f" x="1055.8875" y="164.309012" style="stroke: #000000"/>
      </g>
     </g>
    </g>
    <g id="ytick_32">
     <g id="line2d_150">
      <g>
       <use xlink:href="#mce94134e4e" x="51.4875" y="151.592891" style="stroke: #000000"/>
      </g>
     </g>
     <g id="line2d_151">
      <g>
       <use xlink:href="#m6d7548f32f" x="1055.8875" y="151.592891" style="stroke: #000000"/>
      </g>
     </g>
    </g>
    <g id="ytick_33">
     <g id="line2d_152">
      <g>
       <use xlink:href="#mce94134e4e" x="51.4875" y="138.876771" style="stroke: #000000"/>
      </g>
     </g>
     <g id="line2d_153">
      <g>
       <use xlink:href="#m6d7548f32f" x="1055.8875" y="138.876771" style="stroke: #000000"/>
      </g>
     </g>
    </g>
    <g id="ytick_34">
     <g id="line2d_154">
      <g>
       <use xlink:href="#mce94134e4e" x="51.4875" y="126.16065" style="stroke: #000000"/>
      </g>
     </g>
     <g id="line2d_155">
      <g>
       <use xlink:href="#m6d7548f32f" x="1055.8875" y="126.16065" style="stroke: #000000"/>
      </g>
     </g>
    </g>
    <g id="ytick_35">
     <g id="line2d_156">
      <g>
       <use xlink:href="#mce94134e4e" x="51.4875" y="100.728409" style="stroke: #000000"/>
      </g>
     </g>
     <g id="line2d_157">
      <g>
       <use xlink:href="#m6d7548f32f" x="1055.8875" y="100.728409" style="stroke: #000000"/>
      </g>
     </g>
    </g>
    <g id="ytick_36">
     <g id="line2d_158">
      <g>
       <use xlink:href="#mce94134e4e" x="51.4875" y="88.012289" style="stroke: #000000"/>
      </g>
     </g>
     <g id="line2d_159">
      <g>
       <use xlink:href="#m6d7548f32f" x="1055.8875" y="88.012289" style="stroke: #000000"/>
      </g>
     </g>
    </g>
    <g id="ytick_37">
     <g id="line2d_160">
      <g>
       <use xlink:href="#mce94134e4e" x="51.4875" y="75.296169" style="stroke: #000000"/>
      </g>
     </g>
     <g id="line2d_161">
      <g>
       <use xlink:href="#m6d7548f32f" x="1055.8875" y="75.296169" style="stroke: #000000"/>
      </g>
     </g>
    </g>
    <g id="ytick_38">
     <g id="line2d_162">
      <g>
       <use xlink:href="#mce94134e4e" x="51.4875" y="62.580048" style="stroke: #000000"/>
      </g>
     </g>
     <g id="line2d_163">
      <g>
       <use xlink:href="#m6d7548f32f" x="1055.8875" y="62.580048" style="stroke: #000000"/>
      </g>
     </g>
    </g>
    <g id="ytick_39">
     <g id="line2d_164">
      <g>
       <use xlink:href="#mce94134e4e" x="51.4875" y="37.147807" style="stroke: #000000"/>
      </g>
     </g>
     <g id="line2d_165">
      <g>
       <use xlink:href="#m6d7548f32f" x="1055.8875" y="37.147807" style="stroke: #000000"/>
      </g>
     </g>
    </g>
    <g id="ytick_40">
     <g id="line2d_166">
      <g>
       <use xlink:href="#mce94134e4e" x="51.4875" y="24.431687" style="stroke: #000000"/>
      </g>
     </g>
     <g id="line2d_167">
      <g>
       <use xlink:href="#m6d7548f32f" x="1055.8875" y="24.431687" style="stroke: #000000"/>
      </g>
     </g>
    </g>
    <g id="text_17">
     <!-- Absolute Roof Acceleration (m/s$^2$) -->
     <g transform="translate(17.0725 406.6775) rotate(-90) scale(0.16 -0.16)">
      <defs>
       <path id="DejaVuSans-41" d="M 2188 4044 
L 1331 1722 
L 3047 1722 
L 2188 4044 
z
M 1831 4666 
L 2547 4666 
L 4325 0 
L 3669 0 
L 3244 1197 
L 1141 1197 
L 716 0 
L 50 0 
L 1831 4666 
z
" transform="scale(0.015625)"/>
       <path id="DejaVuSans-62" d="M 3116 1747 
Q 3116 2381 2855 2742 
Q 2594 3103 2138 3103 
Q 1681 3103 1420 2742 
Q 1159 2381 1159 1747 
Q 1159 1113 1420 752 
Q 1681 391 2138 391 
Q 2594 391 2855 752 
Q 3116 1113 3116 1747 
z
M 1159 2969 
Q 1341 3281 1617 3432 
Q 1894 3584 2278 3584 
Q 2916 3584 3314 3078 
Q 3713 2572 3713 1747 
Q 3713 922 3314 415 
Q 2916 -91 2278 -91 
Q 1894 -91 1617 61 
Q 1341 213 1159 525 
L 1159 0 
L 581 0 
L 581 4863 
L 1159 4863 
L 1159 2969 
z
" transform="scale(0.015625)"/>
       <path id="DejaVuSans-6f" d="M 1959 3097 
Q 1497 3097 1228 2736 
Q 959 2375 959 1747 
Q 959 1119 1226 758 
Q 1494 397 1959 397 
Q 2419 397 2687 759 
Q 2956 1122 2956 1747 
Q 2956 2369 2687 2733 
Q 2419 3097 1959 3097 
z
M 1959 3584 
Q 2709 3584 3137 3096 
Q 3566 2609 3566 1747 
Q 3566 888 3137 398 
Q 2709 -91 1959 -91 
Q 1206 -91 779 398 
Q 353 888 353 1747 
Q 353 2609 779 3096 
Q 1206 3584 1959 3584 
z
" transform="scale(0.015625)"/>
       <path id="DejaVuSans-6c" d="M 603 4863 
L 1178 4863 
L 1178 0 
L 603 0 
L 603 4863 
z
" transform="scale(0.015625)"/>
       <path id="DejaVuSans-75" d="M 544 1381 
L 544 3500 
L 1119 3500 
L 1119 1403 
Q 1119 906 1312 657 
Q 1506 409 1894 409 
Q 2359 409 2629 706 
Q 2900 1003 2900 1516 
L 2900 3500 
L 3475 3500 
L 3475 0 
L 2900 0 
L 2900 538 
Q 2691 219 2414 64 
Q 2138 -91 1772 -91 
Q 1169 -91 856 284 
Q 544 659 544 1381 
z
M 1991 3584 
L 1991 3584 
z
" transform="scale(0.015625)"/>
       <path id="DejaVuSans-74" d="M 1172 4494 
L 1172 3500 
L 2356 3500 
L 2356 3053 
L 1172 3053 
L 1172 1153 
Q 1172 725 1289 603 
Q 1406 481 1766 481 
L 2356 481 
L 2356 0 
L 1766 0 
Q 1100 0 847 248 
Q 594 497 594 1153 
L 594 3053 
L 172 3053 
L 172 3500 
L 594 3500 
L 594 4494 
L 1172 4494 
z
" transform="scale(0.015625)"/>
       <path id="DejaVuSans-20" transform="scale(0.015625)"/>
       <path id="DejaVuSans-52" d="M 2841 2188 
Q 3044 2119 3236 1894 
Q 3428 1669 3622 1275 
L 4263 0 
L 3584 0 
L 2988 1197 
Q 2756 1666 2539 1819 
Q 2322 1972 1947 1972 
L 1259 1972 
L 1259 0 
L 628 0 
L 628 4666 
L 2053 4666 
Q 2853 4666 3247 4331 
Q 3641 3997 3641 3322 
Q 3641 2881 3436 2590 
Q 3231 2300 2841 2188 
z
M 1259 4147 
L 1259 2491 
L 2053 2491 
Q 2509 2491 2742 2702 
Q 2975 2913 2975 3322 
Q 2975 3731 2742 3939 
Q 2509 4147 2053 4147 
L 1259 4147 
z
" transform="scale(0.015625)"/>
       <path id="DejaVuSans-66" d="M 2375 4863 
L 2375 4384 
L 1825 4384 
Q 1516 4384 1395 4259 
Q 1275 4134 1275 3809 
L 1275 3500 
L 2222 3500 
L 2222 3053 
L 1275 3053 
L 1275 0 
L 697 0 
L 697 3053 
L 147 3053 
L 147 3500 
L 697 3500 
L 697 3744 
Q 697 4328 969 4595 
Q 1241 4863 1831 4863 
L 2375 4863 
z
" transform="scale(0.015625)"/>
       <path id="DejaVuSans-63" d="M 3122 3366 
L 3122 2828 
Q 2878 2963 2633 3030 
Q 2388 3097 2138 3097 
Q 1578 3097 1268 2742 
Q 959 2388 959 1747 
Q 959 1106 1268 751 
Q 1578 397 2138 397 
Q 2388 397 2633 464 
Q 2878 531 3122 666 
L 3122 134 
Q 2881 22 2623 -34 
Q 2366 -91 2075 -91 
Q 1284 -91 818 406 
Q 353 903 353 1747 
Q 353 2603 823 3093 
Q 1294 3584 2113 3584 
Q 2378 3584 2631 3529 
Q 2884 3475 3122 3366 
z
" transform="scale(0.015625)"/>
       <path id="DejaVuSans-72" d="M 2631 2963 
Q 2534 3019 2420 3045 
Q 2306 3072 2169 3072 
Q 1681 3072 1420 2755 
Q 1159 2438 1159 1844 
L 1159 0 
L 581 0 
L 581 3500 
L 1159 3500 
L 1159 2956 
Q 1341 3275 1631 3429 
Q 1922 3584 2338 3584 
Q 2397 3584 2469 3576 
Q 2541 3569 2628 3553 
L 2631 2963 
z
" transform="scale(0.015625)"/>
       <path id="DejaVuSans-61" d="M 2194 1759 
Q 1497 1759 1228 1600 
Q 959 1441 959 1056 
Q 959 750 1161 570 
Q 1363 391 1709 391 
Q 2188 391 2477 730 
Q 2766 1069 2766 1631 
L 2766 1759 
L 2194 1759 
z
M 3341 1997 
L 3341 0 
L 2766 0 
L 2766 531 
Q 2569 213 2275 61 
Q 1981 -91 1556 -91 
Q 1019 -91 701 211 
Q 384 513 384 1019 
Q 384 1609 779 1909 
Q 1175 2209 1959 2209 
L 2766 2209 
L 2766 2266 
Q 2766 2663 2505 2880 
Q 2244 3097 1772 3097 
Q 1472 3097 1187 3025 
Q 903 2953 641 2809 
L 641 3341 
Q 956 3463 1253 3523 
Q 1550 3584 1831 3584 
Q 2591 3584 2966 3190 
Q 3341 2797 3341 1997 
z
" transform="scale(0.015625)"/>
       <path id="DejaVuSans-6e" d="M 3513 2113 
L 3513 0 
L 2938 0 
L 2938 2094 
Q 2938 2591 2744 2837 
Q 2550 3084 2163 3084 
Q 1697 3084 1428 2787 
Q 1159 2491 1159 1978 
L 1159 0 
L 581 0 
L 581 3500 
L 1159 3500 
L 1159 2956 
Q 1366 3272 1645 3428 
Q 1925 3584 2291 3584 
Q 2894 3584 3203 3211 
Q 3513 2838 3513 2113 
z
" transform="scale(0.015625)"/>
       <path id="DejaVuSans-2f" d="M 1625 4666 
L 2156 4666 
L 531 -594 
L 0 -594 
L 1625 4666 
z
" transform="scale(0.015625)"/>
      </defs>
      <use xlink:href="#DejaVuSans-41" transform="translate(0 0.765625)"/>
      <use xlink:href="#DejaVuSans-62" transform="translate(68.408203 0.765625)"/>
      <use xlink:href="#DejaVuSans-73" transform="translate(131.884766 0.765625)"/>
      <use xlink:href="#DejaVuSans-6f" transform="translate(183.984375 0.765625)"/>
      <use xlink:href="#DejaVuSans-6c" transform="translate(245.166016 0.765625)"/>
      <use xlink:href="#DejaVuSans-75" transform="translate(272.949219 0.765625)"/>
      <use xlink:href="#DejaVuSans-74" transform="translate(336.328125 0.765625)"/>
      <use xlink:href="#DejaVuSans-65" transform="translate(375.537109 0.765625)"/>
      <use xlink:href="#DejaVuSans-20" transform="translate(437.060547 0.765625)"/>
      <use xlink:href="#DejaVuSans-52" transform="translate(468.847656 0.765625)"/>
      <use xlink:href="#DejaVuSans-6f" transform="translate(538.330078 0.765625)"/>
      <use xlink:href="#DejaVuSans-6f" transform="translate(599.511719 0.765625)"/>
      <use xlink:href="#DejaVuSans-66" transform="translate(660.693359 0.765625)"/>
      <use xlink:href="#DejaVuSans-20" transform="translate(695.898438 0.765625)"/>
      <use xlink:href="#DejaVuSans-41" transform="translate(727.685547 0.765625)"/>
      <use xlink:href="#DejaVuSans-63" transform="translate(796.09375 0.765625)"/>
      <use xlink:href="#DejaVuSans-63" transform="translate(851.074219 0.765625)"/>
      <use xlink:href="#DejaVuSans-65" transform="translate(906.054688 0.765625)"/>
      <use xlink:href="#DejaVuSans-6c" transform="translate(967.578125 0.765625)"/>
      <use xlink:href="#DejaVuSans-65" transform="translate(995.361328 0.765625)"/>
      <use xlink:href="#DejaVuSans-72" transform="translate(1056.884766 0.765625)"/>
      <use xlink:href="#DejaVuSans-61" transform="translate(1097.998047 0.765625)"/>
      <use xlink:href="#DejaVuSans-74" transform="translate(1159.277344 0.765625)"/>
      <use xlink:href="#DejaVuSans-69" transform="translate(1198.486328 0.765625)"/>
      <use xlink:href="#DejaVuSans-6f" transform="translate(1226.269531 0.765625)"/>
      <use xlink:href="#DejaVuSans-6e" transform="translate(1287.451172 0.765625)"/>
      <use xlink:href="#DejaVuSans-20" transform="translate(1350.830078 0.765625)"/>
      <use xlink:href="#DejaVuSans-28" transform="translate(1382.617188 0.765625)"/>
      <use xlink:href="#DejaVuSans-6d" transform="translate(1421.630859 0.765625)"/>
      <use xlink:href="#DejaVuSans-2f" transform="translate(1519.042969 0.765625)"/>
      <use xlink:href="#DejaVuSans-73" transform="translate(1552.734375 0.765625)"/>
      <use xlink:href="#DejaVuSans-32" transform="translate(1605.791016 39.046875) scale(0.7)"/>
      <use xlink:href="#DejaVuSans-29" transform="translate(1653.061523 0.765625)"/>
     </g>
    </g>
   </g>
   <g id="line2d_168">
    <path d="M 97.142045 304.186337 
L 97.695769 305.088885 
L 98.249493 307.178768 
L 98.803218 308.095279 
L 99.356942 307.421907 
L 99.910666 306.397916 
L 100.46439 305.979744 
L 101.018114 306.135787 
L 101.571838 306.439213 
L 102.125562 306.506329 
L 103.23301 306.177544 
L 104.340458 306.336373 
L 105.447906 306.45735 
L 106.00163 306.157563 
L 106.555354 305.707763 
L 107.109078 305.765709 
L 107.662802 306.249448 
L 108.216526 306.341769 
L 109.323974 305.284023 
L 109.877698 305.533794 
L 110.431422 306.034845 
L 111.53887 306.282107 
L 112.092594 306.863812 
L 112.646318 306.910166 
L 113.200042 305.501556 
L 113.753766 303.639447 
L 114.30749 303.309125 
L 114.861214 304.557847 
L 115.414938 305.289231 
L 115.968662 304.644153 
L 116.522386 304.800143 
L 117.07611 307.566344 
L 117.629834 309.609091 
L 118.183558 306.653945 
L 118.737282 301.766167 
L 119.291006 301.84685 
L 119.84473 306.490005 
L 120.398454 309.196213 
L 120.952178 307.355759 
L 121.505902 304.353035 
L 122.059626 303.835538 
L 122.61335 305.265682 
L 123.167074 307.779489 
L 123.720798 311.750541 
L 124.274522 311.873354 
L 125.38197 289.840582 
L 125.935694 292.314233 
L 126.489419 305.587763 
L 127.043143 310.429172 
L 127.596867 303.906333 
L 128.150591 300.634488 
L 129.258039 309.62523 
L 129.811763 309.10019 
L 131.472935 298.730548 
L 132.026659 297.40052 
L 132.580383 299.283251 
L 133.134107 305.598819 
L 133.687831 310.535702 
L 134.241555 307.865828 
L 134.795279 302.15303 
L 135.349003 302.087214 
L 135.902727 306.983184 
L 136.456451 309.986069 
L 137.010175 309.746242 
L 137.563899 308.619261 
L 138.117623 304.793369 
L 138.671347 299.654196 
L 139.225071 302.586871 
L 139.778795 312.824141 
L 140.332519 315.255824 
L 141.439967 297.518405 
L 141.993691 299.766445 
L 142.547415 305.518212 
L 143.654863 312.529843 
L 144.208587 311.08892 
L 145.316035 289.256318 
L 145.869759 298.703489 
L 146.423483 316.097442 
L 146.977207 316.168027 
L 147.530931 301.294752 
L 148.084655 293.374511 
L 148.638379 294.152225 
L 149.192103 293.577956 
L 149.745827 295.097178 
L 150.853275 311.255108 
L 151.960723 305.714984 
L 152.514447 312.21591 
L 153.068171 315.898342 
L 154.17562 299.723391 
L 154.729344 299.29529 
L 155.283068 298.144288 
L 155.836792 300.210956 
L 156.390516 310.181065 
L 156.94424 312.956982 
L 157.497964 302.07231 
L 158.051688 295.315309 
L 159.159136 311.049711 
L 159.71286 307.112769 
L 160.266584 305.585193 
L 160.820308 313.856412 
L 161.374032 310.727594 
L 161.927756 292.005803 
L 162.48148 286.799601 
L 163.588928 327.777702 
L 164.142652 329.926905 
L 164.696376 318.078511 
L 165.2501 312.426955 
L 165.803824 312.458388 
L 166.357548 310.423875 
L 166.911272 311.451743 
L 167.464996 312.839411 
L 168.01872 304.201544 
L 168.572444 286.48581 
L 169.126168 274.57038 
L 169.679892 284.348815 
L 170.78734 344.78901 
L 171.341064 342.265298 
L 172.448512 243.117845 
L 173.002236 228.910795 
L 173.55596 268.22386 
L 174.109684 334.751929 
L 174.663408 380.893271 
L 175.217132 365.309577 
L 175.770856 299.683533 
L 176.32458 249.999651 
L 176.878304 260.370399 
L 177.432028 305.572196 
L 177.985752 330.302734 
L 178.539476 307.451273 
L 179.0932 263.502812 
L 179.646924 248.743364 
L 180.200648 278.993583 
L 180.754372 324.923976 
L 181.308097 347.392473 
L 181.861821 330.146426 
L 182.415545 290.311069 
L 182.969269 266.113082 
L 183.522993 283.756527 
L 184.076717 328.164253 
L 184.630441 357.522154 
L 185.184165 346.904073 
L 186.291613 268.303399 
L 186.845337 260.386077 
L 187.399061 294.589177 
L 187.952785 343.266854 
L 188.506509 356.689079 
L 189.060233 322.434578 
L 189.613957 280.10302 
L 190.167681 272.31532 
L 191.275129 316.803077 
L 191.828853 318.061526 
L 192.382577 316.852073 
L 192.936301 318.340562 
L 193.490025 308.475094 
L 194.043749 290.625456 
L 194.597473 284.916989 
L 195.704921 298.903957 
L 196.812369 325.977243 
L 197.366093 314.327488 
L 197.919817 279.170521 
L 198.473541 262.475718 
L 199.027265 282.953768 
L 199.580989 319.14602 
L 200.134713 345.643012 
L 200.688437 347.33089 
L 201.242161 320.70823 
L 201.795885 288.233733 
L 202.349609 280.872829 
L 202.903333 302.116903 
L 203.457057 329.880941 
L 204.010781 340.581531 
L 205.671953 316.892403 
L 206.225677 304.578295 
L 206.779401 297.527786 
L 207.333125 318.230383 
L 207.886849 351.337096 
L 208.440573 364.959058 
L 208.994298 352.706012 
L 210.101746 291.639595 
L 210.65547 282.202312 
L 211.209194 300.899029 
L 211.762918 325.752251 
L 212.316642 330.969285 
L 212.870366 317.475043 
L 213.42409 310.382087 
L 213.977814 322.191621 
L 215.085262 360.452118 
L 215.638986 370.34797 
L 216.19271 357.419593 
L 216.746434 313.439451 
L 217.300158 258.816245 
L 217.853882 232.040287 
L 218.407606 240.846922 
L 218.96133 246.795534 
L 220.068778 197.104575 
L 220.622502 216.51896 
L 221.176226 216.003412 
L 221.72995 203.285683 
L 222.283674 212.979167 
L 222.837398 214.286306 
L 223.391122 207.154653 
L 223.944846 211.546395 
L 224.49857 212.717983 
L 225.052294 208.787909 
L 225.606018 210.864939 
L 226.159742 211.886724 
L 226.713466 209.762533 
L 227.820914 211.40771 
L 228.374638 210.258807 
L 228.928362 210.669673 
L 229.482086 213.855156 
L 230.03581 314.564273 
L 230.589534 440.29853 
L 231.696982 362.199768 
L 232.250706 418.814687 
L 232.80443 405.145624 
L 233.358154 378.101087 
L 233.911878 407.163117 
L 234.465602 403.539148 
L 235.019326 387.104368 
L 235.57305 401.64394 
L 236.126774 401.721574 
L 236.680499 392.06418 
L 237.234223 399.15873 
L 237.787947 400.272315 
L 238.341671 394.743506 
L 238.895395 397.990174 
L 239.449119 377.951777 
L 240.556567 180.776955 
L 241.664015 234.470824 
L 242.217739 195.247951 
L 242.771463 206.528035 
L 243.325187 223.938694 
L 243.878911 203.63059 
L 244.432635 207.197815 
L 244.986359 218.002999 
L 245.540083 209.792227 
L 246.093807 271.690696 
L 246.647531 358.594562 
L 247.201255 394.685891 
L 247.754979 386.288449 
L 248.308703 365.825224 
L 248.862427 366.350839 
L 249.416151 405.751307 
L 249.969875 407.632807 
L 250.523599 384.265166 
L 251.077323 400.854491 
L 251.631047 404.108756 
L 252.184771 390.731209 
L 252.738495 398.469261 
L 253.292219 401.470081 
L 253.845943 394.061055 
L 254.399667 397.50476 
L 254.953391 399.876246 
L 255.507115 395.846798 
L 256.060839 383.922258 
L 257.168287 208.020697 
L 257.722011 194.06487 
L 258.275735 228.603457 
L 258.829459 209.869717 
L 259.383183 203.620084 
L 259.936907 227.235462 
L 260.490631 212.410605 
L 261.044355 200.918821 
L 261.598079 217.429084 
L 262.151803 212.592665 
L 262.705527 205.615587 
L 263.259251 246.823318 
L 263.812975 339.0771 
L 264.3667 373.106604 
L 265.474148 280.242927 
L 266.027872 319.692354 
L 266.581596 400.015024 
L 267.13532 416.577142 
L 267.689044 374.185208 
L 268.796492 274.096579 
L 269.350216 248.953463 
L 269.90394 256.790371 
L 271.011388 357.988616 
L 271.565112 352.184461 
L 272.118836 307.335737 
L 272.67256 290.051779 
L 273.226284 318.027425 
L 273.780008 352.236709 
L 274.333732 369.295214 
L 274.887456 373.976922 
L 275.44118 348.255492 
L 276.548628 213.327867 
L 277.102352 202.19348 
L 277.656076 231.604646 
L 278.763524 340.243584 
L 279.317248 369.013342 
L 279.870972 345.554995 
L 280.97842 257.527044 
L 281.532144 239.479788 
L 282.085868 250.500204 
L 282.639592 282.218004 
L 283.193316 301.807125 
L 283.74704 295.418517 
L 284.300764 292.659348 
L 284.854488 334.071414 
L 285.408212 407.931019 
L 285.961936 414.43289 
L 286.51566 376.332613 
L 287.069384 401.52809 
L 287.623108 400.424526 
L 288.730556 224.13714 
L 289.28428 219.036945 
L 289.838004 288.258051 
L 290.391728 375.39124 
L 290.945452 419.766524 
L 291.499176 388.839977 
L 292.052901 369.16723 
L 292.606625 294.480821 
L 293.160349 199.877535 
L 293.714073 193.804403 
L 294.821521 282.751073 
L 295.375245 386.090998 
L 295.928969 433.999056 
L 296.482693 374.025928 
L 297.036417 361.310056 
L 297.590141 342.313258 
L 298.143865 347.709024 
L 298.697589 375.023639 
L 299.251313 381.150092 
L 299.805037 350.630365 
L 300.358761 308.430252 
L 300.912485 279.20868 
L 301.466209 269.764862 
L 302.019933 303.555949 
L 302.573657 372.173254 
L 303.127381 398.828563 
L 303.681105 353.923144 
L 304.234829 286.117776 
L 304.788553 232.079838 
L 305.342277 204.325714 
L 305.896001 212.717452 
L 306.449725 239.72415 
L 307.003449 292.141275 
L 307.557173 325.079903 
L 308.110897 320.278383 
L 308.664621 303.992187 
L 309.218345 266.309515 
L 309.772069 194.984042 
L 310.325793 196.438849 
L 310.879517 233.147278 
L 311.433241 203.850608 
L 311.986965 201.071165 
L 312.540689 222.38045 
L 313.094413 208.397219 
L 313.648137 204.66016 
L 314.201861 216.695218 
L 314.755585 210.264562 
L 315.309309 207.087704 
L 315.863033 213.740716 
L 316.970481 208.565914 
L 317.524205 212.119557 
L 318.077929 211.054052 
L 318.631653 209.620162 
L 319.185378 212.308097 
L 320.84655 296.496202 
L 321.953998 443.571571 
L 322.507722 381.880193 
L 323.061446 378.352412 
L 323.61517 422.237791 
L 324.168894 392.214369 
L 324.722618 385.420977 
L 325.276342 410.035152 
L 325.830066 395.898321 
L 326.38379 370.072642 
L 326.937514 293.952733 
L 327.491238 184.864951 
L 328.044962 191.834707 
L 328.598686 243.980525 
L 329.15241 198.987493 
L 329.706134 197.745209 
L 330.259858 245.138955 
L 330.813582 262.847909 
L 331.367306 260.89685 
L 331.92103 314.470225 
L 332.474754 381.496364 
L 333.028478 386.292676 
L 334.68965 226.306462 
L 335.243374 201.187058 
L 335.797098 221.587588 
L 336.350822 261.023846 
L 336.904546 277.284436 
L 337.45827 263.900334 
L 338.565718 195.706908 
L 339.119442 244.191073 
L 339.673166 395.150341 
L 340.22689 447.396247 
L 340.780614 357.923402 
L 341.334338 388.331765 
L 341.888062 335.6415 
L 342.441786 163.485325 
L 342.99551 184.986178 
L 343.549234 318.863317 
L 344.102958 420.666519 
L 344.656682 382.050856 
L 345.210406 264.789588 
L 345.76413 201.197883 
L 346.317854 221.615774 
L 346.871579 299.529863 
L 347.425303 438.053368 
L 347.979027 418.898063 
L 348.532751 353.151577 
L 349.086475 416.200733 
L 349.640199 413.276111 
L 350.193923 373.697593 
L 351.301371 150.379268 
L 351.855095 228.938534 
L 352.408819 238.61176 
L 352.962543 178.716893 
L 353.516267 216.281248 
L 354.069991 227.756568 
L 354.623715 194.521528 
L 355.177439 211.550507 
L 355.731163 224.747316 
L 356.838611 383.262904 
L 357.392335 339.361161 
L 357.946059 192.028317 
L 358.499783 169.663191 
L 359.053507 256.41073 
L 359.607231 204.66482 
L 360.160955 185.299743 
L 360.714679 233.851931 
L 361.268403 240.748128 
L 361.822127 203.813604 
L 362.375851 199.409904 
L 362.929575 224.209203 
L 363.483299 208.363487 
L 364.037023 203.652792 
L 364.590747 226.217388 
L 365.144471 352.211657 
L 365.698195 446.61729 
L 366.251919 382.284719 
L 366.805643 374.868309 
L 367.359367 423.816327 
L 367.913091 392.929939 
L 368.466815 383.784393 
L 369.020539 411.067432 
L 369.574263 396.969063 
L 370.127987 389.415361 
L 370.681711 404.309511 
L 371.789159 391.382483 
L 372.342883 320.756696 
L 372.896607 358.940017 
L 373.450331 454.677213 
L 374.004055 379.257391 
L 374.55778 225.497842 
L 375.111504 124.887719 
L 375.665228 268.807012 
L 376.218952 225.100491 
L 376.772676 161.814852 
L 377.3264 237.290721 
L 377.880124 223.131225 
L 378.433848 183.851833 
L 378.987572 222.217688 
L 379.541296 219.729424 
L 380.09502 196.26411 
L 380.648744 215.264636 
L 381.202468 216.671294 
L 381.756192 203.099031 
L 382.309916 212.21766 
L 382.86364 214.441383 
L 383.417364 233.546501 
L 383.971088 496.06036 
L 384.524812 424.888978 
L 385.078536 310.791278 
L 385.63226 443.735089 
L 386.185984 420.864533 
L 386.739708 350.264241 
L 387.293432 417.609592 
L 387.847156 414.346993 
L 388.40088 372.302249 
L 388.954604 405.560416 
L 389.508328 408.669023 
L 390.062052 384.406857 
L 390.615776 262.61929 
L 391.1695 95.230583 
L 391.723224 266.434403 
L 392.276948 246.479259 
L 392.830672 147.593524 
L 393.384396 238.080337 
L 393.93812 498.0375 
L 394.491844 419.143435 
L 395.045568 313.403367 
L 395.599292 445.391988 
L 396.153016 347.601669 
L 396.70674 44.4375 
L 397.260464 249.942942 
L 398.367912 430.155923 
L 398.921636 408.645126 
L 399.47536 366.650446 
L 400.029084 413.195726 
L 400.582808 406.736243 
L 401.136532 380.860057 
L 401.690256 404.278182 
L 402.243981 404.026516 
L 402.797705 388.776487 
L 403.351429 400.14318 
L 403.905153 292.572716 
L 404.458877 320.894122 
L 405.012601 495.952077 
L 405.566325 373.385383 
L 406.120049 350.394644 
L 406.673773 448.837802 
L 407.227497 391.150597 
L 407.781221 368.944702 
L 408.334945 423.457367 
L 408.888669 397.761086 
L 409.442393 380.797313 
L 409.996117 410.324733 
L 411.103565 388.051709 
L 411.657289 403.73652 
L 412.211013 399.782509 
L 412.764737 392.362691 
L 413.318461 400.466351 
L 413.872185 399.363807 
L 414.425909 394.837915 
L 414.979633 398.914817 
L 415.533357 398.884584 
L 416.087081 396.196712 
L 416.640805 398.226669 
L 417.194529 398.509787 
L 417.748253 396.958943 
L 418.301977 397.921391 
L 418.855701 398.236563 
L 419.409425 397.371083 
L 419.963149 397.806293 
L 420.516873 398.056814 
L 421.070597 397.57962 
L 422.178045 397.886327 
L 422.731769 397.600154 
L 423.839217 397.595214 
L 424.946665 397.817468 
L 426.054113 397.76759 
L 427.161561 397.77691 
L 428.269009 397.691534 
L 428.822733 306.080121 
L 429.376457 165.5508 
L 429.930182 267.58225 
L 430.483906 490.784184 
L 431.591354 329.966428 
L 432.145078 443.562924 
L 432.698802 408.471849 
L 433.252526 359.651319 
L 433.80625 415.25249 
L 434.913698 105.943222 
L 435.467422 257.14843 
L 436.021146 246.653919 
L 436.57487 153.802995 
L 437.128594 229.201415 
L 437.682318 234.484322 
L 438.236042 180.953673 
L 438.789766 217.103336 
L 439.34349 225.661789 
L 439.897214 195.4657 
L 440.450938 212.157609 
L 441.004662 219.692067 
L 441.558386 203.069755 
L 442.11211 210.436475 
L 442.665834 215.935018 
L 443.219558 207.026812 
L 443.773282 210.017627 
L 444.327006 219.228287 
L 444.88073 356.373099 
L 445.434454 450.406019 
L 445.988178 377.153371 
L 446.541902 376.45193 
L 447.095626 426.542043 
L 447.64935 390.369322 
L 448.203074 384.217536 
L 448.756798 412.631375 
L 449.310522 363.58608 
L 449.864246 110.400075 
L 450.41797 193.247768 
L 451.525418 430.37683 
L 452.079142 422.466964 
L 452.632866 355.670058 
L 453.18659 412.133537 
L 453.740314 414.771924 
L 454.847762 100.06473 
L 455.401486 267.076406 
L 455.95521 243.159272 
L 456.508934 149.836185 
L 457.062658 234.473169 
L 457.616383 233.343271 
L 458.170107 178.379614 
L 458.723831 219.777052 
L 459.277555 225.287199 
L 459.831279 193.839172 
L 460.385003 213.581499 
L 460.938727 219.715351 
L 461.492451 202.164218 
L 462.046175 211.105403 
L 462.599899 216.07735 
L 463.153623 206.494387 
L 464.261071 213.780435 
L 464.814795 208.686353 
L 465.368519 210.161807 
L 465.922243 212.467706 
L 466.475967 209.910738 
L 467.029691 296.992518 
L 467.583415 462.744047 
L 468.690863 348.948554 
L 469.244587 419.755641 
L 469.798311 406.44435 
L 470.352035 376.252063 
L 470.905759 407.809109 
L 471.459483 404.485939 
L 472.013207 386.178566 
L 472.566931 401.91508 
L 473.120655 402.303969 
L 473.674379 362.653905 
L 474.228103 189.203848 
L 474.781827 163.562187 
L 475.335551 263.55612 
L 475.889275 203.664754 
L 476.442999 181.331895 
L 476.996723 237.126078 
L 477.550447 210.513047 
L 478.104171 193.361908 
L 478.657895 223.611676 
L 479.765343 200.746066 
L 480.319067 216.805813 
L 480.872791 212.708043 
L 481.426515 205.087938 
L 481.980239 213.461224 
L 482.533963 212.281239 
L 483.087687 207.617316 
L 483.641411 211.823646 
L 484.195135 211.831396 
L 484.74886 209.011177 
L 485.302584 211.10144 
L 485.856308 211.412445 
L 486.410032 209.794309 
L 486.963756 210.780759 
L 487.51748 211.108919 
L 488.071204 210.204897 
L 488.624928 210.650365 
L 489.178652 210.909728 
L 489.732376 210.416385 
L 490.839824 210.782422 
L 491.393548 210.519061 
L 492.500996 210.705519 
L 493.05472 210.569681 
L 496.377064 210.596442 
L 499.699408 210.657437 
L 500.253132 228.006168 
L 500.806856 282.161525 
L 501.36058 207.365974 
L 501.914304 177.121849 
L 502.468028 253.874003 
L 503.021752 369.176699 
L 503.575476 412.062415 
L 504.1292 325.460573 
L 504.682924 201.288426 
L 505.236648 185.746966 
L 505.790372 269.378231 
L 506.344096 427.981402 
L 506.89782 435.547276 
L 507.451544 346.50168 
L 508.005268 409.790831 
L 508.558992 422.121128 
L 509.112716 369.247475 
L 509.66644 262.56092 
L 510.220164 201.132579 
L 511.327612 491.190372 
L 511.881336 353.502412 
L 512.435061 367.555454 
L 512.988785 448.75526 
L 513.542509 379.497369 
L 514.096233 205.976398 
L 514.649957 140.137018 
L 515.203681 270.193344 
L 515.757405 242.067122 
L 516.864853 463.101691 
L 517.418577 377.027862 
L 517.972301 241.032252 
L 518.526025 158.681998 
L 519.079749 235.778307 
L 520.187197 456.059698 
L 520.740921 381.794376 
L 521.294645 369.311076 
L 521.848369 428.491155 
L 522.402093 392.966991 
L 523.509541 343.52397 
L 524.063265 303.957008 
L 524.616989 278.789849 
L 525.170713 305.894594 
L 525.724437 350.890848 
L 526.278161 370.541382 
L 526.831885 395.325693 
L 527.385609 408.687001 
L 527.939333 389.833 
L 528.493057 395.86223 
L 529.046781 404.056948 
L 529.600505 394.042146 
L 530.154229 396.105099 
L 530.707953 401.235008 
L 531.261677 396.089085 
L 531.815401 396.510679 
L 532.369125 399.621975 
L 532.922849 397.027855 
L 533.476573 396.897832 
L 534.030297 398.690663 
L 534.584021 397.409171 
L 535.137745 397.138995 
L 535.691469 398.162272 
L 536.245193 397.40027 
L 536.798917 291.141552 
L 537.352641 160.791606 
L 537.906365 213.487481 
L 538.460089 280.946713 
L 539.013813 279.223502 
L 539.567537 266.437606 
L 540.121262 283.691388 
L 540.674986 262.015437 
L 541.22871 209.379061 
L 541.782434 251.3077 
L 542.336158 398.418736 
L 542.889882 444.633412 
L 543.443606 357.816382 
L 544.551054 222.070925 
L 545.104778 194.544516 
L 545.658502 229.202124 
L 546.76595 396.996303 
L 547.319674 363.278281 
L 547.873398 251.026776 
L 548.427122 186.882191 
L 548.980846 219.539909 
L 549.53457 287.056246 
L 550.088294 335.549134 
L 550.642018 338.955929 
L 551.195742 349.899257 
L 551.749466 394.542692 
L 552.30319 400.907515 
L 552.856914 343.70965 
L 553.410638 314.822208 
L 554.518086 410.505995 
L 555.07181 394.24496 
L 555.625534 387.262921 
L 556.179258 405.838269 
L 556.732982 397.89701 
L 557.286706 391.617035 
L 557.84043 364.808289 
L 558.394154 270.693651 
L 558.947878 212.884695 
L 559.501602 214.407005 
L 560.055326 244.227592 
L 561.162774 392.311351 
L 561.716498 381.090263 
L 562.270222 255.959474 
L 562.823946 157.131224 
L 563.37767 227.570961 
L 563.931394 243.162941 
L 564.485118 282.817854 
L 565.038842 394.509899 
L 565.592566 434.838546 
L 566.14629 368.513619 
L 566.700014 389.543388 
L 567.253738 360.359695 
L 567.807463 269.957707 
L 568.361187 228.001622 
L 568.914911 280.518275 
L 569.468635 373.567372 
L 570.022359 416.293507 
L 570.576083 389.352981 
L 571.129807 372.341606 
L 571.683531 297.454216 
L 572.237255 176.311301 
L 572.790979 194.980211 
L 573.344703 247.350184 
L 573.898427 223.41463 
L 575.005875 337.006805 
L 575.559599 315.976545 
L 576.667047 199.25257 
L 577.220771 205.004781 
L 577.774495 224.487525 
L 578.328219 205.010375 
L 578.881943 206.726078 
L 579.435667 266.908877 
L 579.989391 369.223747 
L 580.543115 418.892738 
L 581.096839 388.344881 
L 581.650563 349.474472 
L 582.204287 338.410944 
L 582.758011 367.170139 
L 583.311735 374.075958 
L 583.865459 313.867081 
L 584.419183 235.515647 
L 584.972907 227.133616 
L 585.526631 305.839458 
L 586.080355 403.937362 
L 586.634079 420.239461 
L 587.187803 373.482879 
L 587.741527 399.84336 
L 588.295251 411.687935 
L 588.848975 385.453041 
L 589.402699 333.625214 
L 589.956423 266.76637 
L 590.510147 251.534826 
L 591.063871 266.781018 
L 591.617595 290.658168 
L 592.171319 328.028419 
L 592.725043 377.454451 
L 593.278767 401.583167 
L 593.832491 379.493848 
L 594.939939 285.110994 
L 595.493664 252.610311 
L 596.047388 240.465152 
L 596.601112 259.645396 
L 597.70856 356.895781 
L 598.262284 387.210691 
L 598.816008 406.600211 
L 599.369732 394.394917 
L 599.923456 349.362621 
L 600.47718 263.216335 
L 601.030904 282.784804 
L 601.584628 385.787751 
L 602.138352 422.818852 
L 602.692076 380.359585 
L 603.2458 392.253041 
L 603.799524 412.40842 
L 604.353248 380.879501 
L 604.906972 253.062199 
L 605.460696 164.729786 
L 606.01442 226.469138 
L 606.568144 248.274499 
L 607.121868 263.043275 
L 607.675592 282.436132 
L 608.229316 244.575099 
L 608.78304 181.012357 
L 609.336764 213.66488 
L 609.890488 228.700754 
L 610.444212 195.474705 
L 610.997936 210.02757 
L 611.55166 221.136293 
L 612.105384 203.209295 
L 612.659108 209.242829 
L 613.212832 216.622486 
L 613.766556 207.086811 
L 614.32028 209.2593 
L 614.874004 213.97178 
L 615.427728 209.051019 
L 615.981452 209.591339 
L 616.535176 212.447881 
L 617.0889 209.980287 
L 617.642624 209.922782 
L 618.196348 211.629834 
L 618.750072 210.526957 
L 619.303796 269.394381 
L 619.85752 385.297212 
L 620.411244 386.864404 
L 621.518692 169.273491 
L 622.62614 242.192171 
L 623.179865 214.126154 
L 623.733589 325.033227 
L 624.287313 458.97585 
L 624.841037 390.842537 
L 625.394761 350.642207 
L 625.948485 323.826668 
L 626.502209 285.829091 
L 627.055933 277.008351 
L 627.609657 318.262866 
L 628.163381 403.725748 
L 628.717105 419.775558 
L 629.270829 373.61007 
L 629.824553 357.237257 
L 630.378277 356.368203 
L 630.932001 325.71935 
L 631.485725 210.04503 
L 632.039449 166.021703 
L 632.593173 247.122744 
L 633.700621 184.474523 
L 634.254345 228.047119 
L 634.808069 217.468457 
L 635.361793 275.915573 
L 635.915517 351.223846 
L 636.469241 386.857208 
L 637.022965 399.537445 
L 637.576689 322.364683 
L 638.130413 158.6594 
L 638.684137 189.537669 
L 639.237861 262.862627 
L 639.791585 186.447629 
L 640.345309 194.230185 
L 640.899033 238.850228 
L 641.452757 256.198403 
L 642.006481 424.127995 
L 642.560205 442.327703 
L 643.113929 343.824003 
L 643.667653 359.260245 
L 644.221377 305.710558 
L 644.775101 215.664201 
L 645.328825 197.744237 
L 646.436273 353.35053 
L 646.989997 362.883285 
L 647.543721 320.538472 
L 648.097445 318.264711 
L 648.651169 383.750207 
L 649.204893 422.253635 
L 649.758617 384.46693 
L 650.312342 389.243564 
L 650.866066 407.697833 
L 651.41979 387.713567 
L 651.973514 340.381365 
L 652.527238 239.896396 
L 653.080962 161.045181 
L 653.634686 232.494382 
L 654.18841 228.181283 
L 654.742134 183.518527 
L 655.295858 219.299078 
L 655.849582 232.725849 
L 656.95703 401.446969 
L 657.510754 384.013017 
L 658.618202 239.35526 
L 659.171926 245.891936 
L 660.279374 456.885667 
L 660.833098 377.824358 
L 661.386822 371.924261 
L 661.940546 414.303985 
L 662.49427 332.071033 
L 663.047994 220.539776 
L 663.601718 212.833839 
L 664.155442 393.267972 
L 664.709166 477.72506 
L 665.26289 337.223828 
L 666.370338 443.853698 
L 666.924062 369.277438 
L 667.477786 388.034413 
L 668.03151 422.852795 
L 668.585234 384.140778 
L 669.138958 389.650263 
L 669.692682 411.49403 
L 670.246406 392.242207 
L 670.80013 392.166617 
L 671.353854 404.544411 
L 671.907578 349.415087 
L 672.461302 258.500443 
L 673.015026 256.35404 
L 673.56875 305.554462 
L 674.122474 332.453041 
L 674.676198 369.365996 
L 675.229922 416.300601 
L 675.783646 396.074252 
L 676.891094 291.955096 
L 677.444818 251.807939 
L 677.998543 200.989721 
L 678.552267 201.303007 
L 679.105991 226.390992 
L 679.659715 297.836787 
L 680.213439 427.250222 
L 680.767163 418.857921 
L 681.874611 296.876186 
L 682.428335 256.998267 
L 682.982059 279.890702 
L 683.535783 322.616611 
L 684.089507 307.330715 
L 684.643231 239.87792 
L 685.196955 197.899365 
L 685.750679 220.656199 
L 686.304403 274.488793 
L 686.858127 312.545588 
L 687.411851 308.257915 
L 687.965575 284.850674 
L 688.519299 285.323644 
L 689.073023 311.220986 
L 689.626747 326.902251 
L 690.180471 317.087466 
L 690.734195 290.385989 
L 691.841643 207.418734 
L 692.395367 202.431299 
L 692.949091 224.100848 
L 694.056539 278.728591 
L 694.610263 299.219077 
L 695.163987 327.583219 
L 696.271435 417.286113 
L 696.825159 392.696035 
L 697.378883 386.840562 
L 697.932607 364.28289 
L 698.486331 254.651437 
L 699.040055 170.404584 
L 699.593779 220.187334 
L 700.147503 232.161091 
L 700.701227 235.945813 
L 701.254951 371.448066 
L 701.808675 457.00995 
L 702.362399 365.863905 
L 702.916123 349.446563 
L 703.469847 341.149616 
L 704.577295 312.600043 
L 705.131019 319.332801 
L 705.684744 349.108323 
L 706.238468 344.529389 
L 706.792192 288.143692 
L 707.345916 264.274263 
L 708.453364 389.248092 
L 709.007088 386.258764 
L 709.560812 357.994242 
L 710.114536 341.719231 
L 710.66826 332.444617 
L 711.221984 338.399875 
L 712.329432 406.099962 
L 712.883156 400.781966 
L 713.43688 378.313574 
L 713.990604 280.923842 
L 714.544328 151.409557 
L 715.098052 215.665069 
L 715.651776 247.629155 
L 716.2055 180.502187 
L 716.759224 209.109594 
L 717.312948 282.911133 
L 717.866672 315.209962 
L 718.97412 169.476904 
L 719.527844 223.177314 
L 720.081568 229.458395 
L 720.635292 188.691667 
L 721.189016 214.665872 
L 721.74274 222.348347 
L 722.296464 211.224759 
L 723.403912 376.484882 
L 723.957636 330.27429 
L 724.51136 234.280619 
L 725.065084 184.591814 
L 725.618808 220.87724 
L 726.172532 221.693788 
L 726.726256 196.329924 
L 727.27998 214.510075 
L 727.833704 228.454654 
L 728.387428 292.454059 
L 728.941152 400.353572 
L 729.494876 428.026696 
L 730.0486 369.59564 
L 730.602324 382.463754 
L 731.156048 374.35803 
L 731.709772 347.932037 
L 732.263496 337.256192 
L 732.81722 368.308359 
L 733.370945 418.705899 
L 733.924669 397.493413 
L 734.478393 382.961924 
L 735.032117 407.771738 
L 735.585841 338.034614 
L 736.139565 188.906983 
L 736.693289 180.399114 
L 737.247013 255.946804 
L 737.800737 286.156454 
L 738.354461 270.941172 
L 738.908185 229.916313 
L 739.461909 211.739389 
L 740.015633 235.476783 
L 741.123081 362.179191 
L 741.676805 380.322499 
L 742.230529 302.633322 
L 742.784253 181.119565 
L 743.337977 191.072101 
L 743.891701 247.054909 
L 744.445425 197.211156 
L 744.999149 196.757108 
L 745.552873 229.884936 
L 746.106597 205.661498 
L 746.660321 201.81808 
L 747.214045 220.736034 
L 747.767769 220.209616 
L 748.321493 294.236535 
L 748.875217 395.846991 
L 749.428941 419.678911 
L 749.982665 376.859024 
L 750.536389 365.626021 
L 751.090113 341.039444 
L 752.197561 181.699491 
L 752.751285 217.321949 
L 753.305009 324.990905 
L 753.858733 402.484413 
L 754.412457 399.691485 
L 754.966181 353.123064 
L 756.073629 203.931086 
L 756.627353 207.776047 
L 757.734801 376.352277 
L 758.288525 371.802011 
L 759.395973 245.878294 
L 759.949697 221.000695 
L 760.503421 221.673716 
L 761.057146 256.748074 
L 761.61087 331.560081 
L 762.164594 387.419945 
L 762.718318 360.201263 
L 763.272042 282.736878 
L 763.825766 241.468992 
L 764.37949 255.043655 
L 764.933214 271.403316 
L 765.486938 266.436758 
L 766.040662 251.764138 
L 766.594386 227.855147 
L 767.14811 216.810799 
L 767.701834 261.896737 
L 768.255558 350.634856 
L 768.809282 415.592977 
L 769.363006 399.318726 
L 769.91673 375.740895 
L 770.470454 335.901509 
L 771.024178 256.007904 
L 771.577902 194.072227 
L 772.131626 210.099247 
L 773.239074 313.455111 
L 773.792798 342.791472 
L 774.346522 362.057325 
L 774.900246 388.153875 
L 775.45397 404.474394 
L 776.007694 394.480445 
L 776.561418 393.969557 
L 777.115142 401.640767 
L 777.668866 396.601611 
L 778.22259 395.182217 
L 778.776314 368.762892 
L 779.330038 268.215861 
L 779.883762 201.494735 
L 780.437486 235.041375 
L 781.544934 423.830099 
L 782.098658 405.209026 
L 782.652382 372.468851 
L 783.206106 410.641416 
L 783.75983 404.257241 
L 784.313554 383.795432 
L 784.867278 399.017141 
L 785.421002 384.06454 
L 787.082174 324.726596 
L 787.635898 312.800603 
L 788.189622 314.791348 
L 788.743347 321.988188 
L 789.297071 343.161788 
L 789.850795 381.258552 
L 790.404519 399.000059 
L 790.958243 363.244128 
L 791.511967 300.920742 
L 792.065691 266.993495 
L 792.619415 274.474249 
L 793.726863 318.662158 
L 794.280587 324.279066 
L 794.834311 305.866861 
L 795.941759 223.017007 
L 796.495483 217.313192 
L 797.049207 257.131038 
L 797.602931 316.31138 
L 798.156655 351.894784 
L 798.710379 350.056881 
L 799.817827 311.52474 
L 800.371551 308.643929 
L 800.925275 322.762878 
L 801.478999 326.609194 
L 802.032723 291.334118 
L 802.586447 246.013464 
L 803.140171 240.780605 
L 803.693895 266.978511 
L 804.247619 283.877366 
L 804.801343 285.969096 
L 805.355067 291.93461 
L 805.908791 304.693776 
L 806.462515 312.940021 
L 807.016239 311.762928 
L 807.569963 306.871232 
L 808.677411 293.193847 
L 809.231135 298.142229 
L 810.338583 356.425771 
L 810.892307 356.767425 
L 811.446031 330.761919 
L 811.999755 317.145941 
L 812.553479 322.192313 
L 813.107203 313.599851 
L 813.660927 294.410292 
L 814.214651 305.911607 
L 814.768375 345.827675 
L 815.322099 370.438645 
L 815.875824 363.033649 
L 816.429548 335.747332 
L 817.536996 255.508285 
L 818.09072 247.739526 
L 818.644444 277.553073 
L 819.198168 314.427845 
L 819.751892 333.453132 
L 820.305616 330.344039 
L 820.85934 307.456116 
L 821.413064 275.225772 
L 821.966788 249.774005 
L 822.520512 241.328283 
L 823.074236 249.26666 
L 824.181684 281.658705 
L 825.289132 341.945606 
L 825.842856 342.341482 
L 826.950304 241.680834 
L 827.504028 232.208217 
L 828.057752 235.705675 
L 828.611476 244.428895 
L 829.718924 327.761902 
L 830.272648 312.32833 
L 830.826372 259.178528 
L 831.380096 225.043177 
L 831.93382 221.711838 
L 832.487544 238.541594 
L 833.041268 273.231835 
L 833.594992 300.313432 
L 834.148716 296.912112 
L 834.70244 290.629588 
L 835.809888 323.418878 
L 836.363612 320.863602 
L 836.917336 301.625703 
L 838.024784 214.454729 
L 838.578508 233.382949 
L 839.685956 389.27881 
L 840.23968 401.89118 
L 840.793404 356.465198 
L 841.900852 217.27518 
L 842.454576 196.368122 
L 843.562025 244.427121 
L 844.115749 293.604444 
L 844.669473 327.64017 
L 845.223197 316.904552 
L 846.330645 239.858141 
L 846.884369 229.771874 
L 847.438093 268.990863 
L 847.991817 342.952753 
L 848.545541 384.004933 
L 849.099265 340.783358 
L 849.652989 255.27835 
L 850.206713 204.394249 
L 850.760437 209.316795 
L 851.314161 220.559314 
L 851.867885 220.172719 
L 852.975333 264.946855 
L 853.529057 262.174292 
L 854.082781 263.639845 
L 855.190229 331.180466 
L 855.743953 332.938502 
L 856.297677 303.540094 
L 856.851401 287.282719 
L 857.958849 310.093323 
L 859.066297 293.077246 
L 859.620021 294.84984 
L 860.727469 308.633292 
L 861.281193 320.53856 
L 861.834917 349.197701 
L 862.388641 386.297028 
L 862.942365 379.910235 
L 864.049813 211.821492 
L 864.603537 197.067782 
L 865.157261 240.972297 
L 865.710985 294.006218 
L 866.264709 332.285421 
L 866.818433 355.809909 
L 867.372157 368.389942 
L 867.925881 365.076992 
L 869.033329 336.365944 
L 869.587053 327.681638 
L 870.140777 309.37181 
L 870.694501 282.255108 
L 871.248226 268.795303 
L 872.355674 292.954673 
L 872.909398 297.267102 
L 873.463122 319.672089 
L 874.016846 365.626719 
L 874.57057 395.221844 
L 875.124294 377.887954 
L 876.231742 290.408925 
L 876.785466 278.416428 
L 877.33919 305.815182 
L 877.892914 365.340762 
L 878.446638 404.840291 
L 879.000362 384.384903 
L 880.10781 271.164293 
L 880.661534 238.866778 
L 881.215258 233.809636 
L 881.768982 255.741115 
L 882.87643 337.877445 
L 883.430154 353.620682 
L 883.983878 328.095495 
L 884.537602 279.657809 
L 885.091326 250.801067 
L 885.64505 251.503164 
L 886.198774 251.062582 
L 886.752498 249.150902 
L 887.306222 286.994773 
L 887.859946 359.126916 
L 888.41367 398.464469 
L 888.967394 381.823707 
L 889.521118 357.40895 
L 890.074842 348.567333 
L 890.628566 332.786188 
L 891.18229 310.624802 
L 891.736014 304.338679 
L 892.289738 305.339818 
L 892.843462 293.226162 
L 893.397186 284.23987 
L 893.95091 311.016373 
L 894.504634 367.782697 
L 895.058358 410.954284 
L 896.71953 370.606054 
L 897.826978 272.031062 
L 898.380702 263.52855 
L 898.934427 285.315203 
L 900.041875 353.873997 
L 900.595599 378.679709 
L 901.149323 382.454899 
L 901.703047 370.227524 
L 902.256771 345.592796 
L 903.364219 248.667918 
L 903.917943 232.867808 
L 904.471667 266.169513 
L 905.025391 309.751453 
L 905.579115 322.579832 
L 906.132839 304.642371 
L 906.686563 278.75883 
L 907.240287 266.775644 
L 907.794011 280.638783 
L 908.901459 345.582702 
L 909.455183 363.916866 
L 910.008907 368.258933 
L 910.562631 362.122534 
L 911.116355 352.256731 
L 912.223803 343.307745 
L 913.331251 307.750961 
L 913.884975 320.083027 
L 914.438699 343.776214 
L 914.992423 344.578991 
L 915.546147 329.210473 
L 916.099871 325.635645 
L 916.653595 335.70005 
L 917.207319 338.923297 
L 918.314767 317.024433 
L 918.868491 311.162836 
L 919.422215 306.72561 
L 919.975939 311.008838 
L 920.529663 325.387662 
L 921.083387 331.511839 
L 921.637111 308.425596 
L 922.190835 264.227272 
L 922.744559 245.061372 
L 923.298283 279.966797 
L 923.852007 322.979771 
L 924.405731 316.324129 
L 924.959455 276.364853 
L 925.513179 249.954472 
L 926.066903 238.730625 
L 926.620628 223.572741 
L 927.174352 220.537854 
L 928.2818 285.671366 
L 928.835524 294.808714 
L 929.389248 298.071585 
L 929.942972 323.602158 
L 930.496696 358.418559 
L 931.05042 364.479616 
L 931.604144 325.278893 
L 932.157868 272.576063 
L 932.711592 251.432967 
L 933.265316 268.88405 
L 934.372764 335.296276 
L 934.926488 354.632312 
L 935.480212 347.739718 
L 936.58766 286.980201 
L 937.141384 282.568086 
L 937.695108 304.29058 
L 938.248832 336.988415 
L 938.802556 359.680045 
L 939.35628 351.441249 
L 941.017452 234.893489 
L 941.571176 239.556402 
L 942.1249 256.768153 
L 942.678624 267.905421 
L 943.232348 271.236775 
L 943.786072 275.514375 
L 944.339796 282.023057 
L 944.89352 285.246237 
L 945.447244 284.344965 
L 946.000968 280.633573 
L 946.554692 275.234042 
L 947.108416 276.231767 
L 947.66214 293.430236 
L 948.215864 315.832208 
L 948.769588 319.583594 
L 949.323312 307.921309 
L 949.877036 301.292486 
L 950.43076 296.540277 
L 950.984484 283.87141 
L 951.538208 276.102728 
L 952.091932 283.685682 
L 953.753104 328.15001 
L 954.306829 331.820407 
L 954.860553 325.626798 
L 955.414277 321.336723 
L 955.968001 323.04469 
L 956.521725 317.569406 
L 957.629173 277.946668 
L 958.182897 277.536821 
L 958.736621 290.427166 
L 959.290345 300.587603 
L 959.844069 305.306705 
L 960.397793 305.68273 
L 961.505241 293.268937 
L 962.058965 295.738741 
L 962.612689 309.729135 
L 963.166413 327.111988 
L 963.720137 333.836053 
L 964.273861 322.632353 
L 965.381309 282.788266 
L 965.935033 275.134156 
L 966.488757 277.01112 
L 967.042481 284.968511 
L 967.596205 295.149533 
L 968.149929 301.623274 
L 968.703653 303.291559 
L 969.257377 308.050083 
L 969.811101 316.412672 
L 970.364825 315.743507 
L 970.918549 305.125388 
L 971.472273 300.754909 
L 972.025997 306.422157 
L 972.579721 308.569647 
L 973.133445 304.219706 
L 973.687169 304.923666 
L 974.240893 311.140967 
L 974.794617 311.999968 
L 975.902065 302.781759 
L 977.009513 293.687636 
L 977.563237 292.740512 
L 978.116961 294.967571 
L 978.670685 296.525636 
L 979.224409 298.596726 
L 979.778133 302.52187 
L 980.331857 304.59497 
L 980.885581 302.56835 
L 981.99303 295.138534 
L 982.546754 293.561554 
L 983.100478 295.650785 
L 984.207926 304.563295 
L 984.76165 304.907068 
L 985.315374 301.626008 
L 985.869098 296.715583 
L 986.422822 293.406356 
L 986.976546 294.910426 
L 988.083994 304.682647 
L 988.637718 305.249171 
L 989.191442 304.008957 
L 989.745166 303.306278 
L 990.29889 303.034782 
L 991.406338 301.749907 
L 991.960062 301.597494 
L 992.513786 302.34105 
L 993.06751 303.458123 
L 993.621234 304.204689 
L 994.728682 304.918392 
L 995.282406 304.740103 
L 996.389854 303.261046 
L 996.943578 303.467751 
L 997.497302 304.236635 
L 998.051026 304.758106 
L 998.60475 304.804497 
L 999.158474 304.671183 
L 999.712198 304.699756 
L 1000.265922 305.008545 
L 1001.37337 305.893102 
L 1001.927094 306.155597 
L 1004.14199 306.562178 
L 1005.249438 307.132043 
L 1006.356886 307.431208 
L 1010.232955 308.336844 
L 1010.232955 308.336844 
" clip-path="url(#p0190a8a424)" style="fill: none; stroke: #0c5da5; stroke-width: 2; stroke-linecap: square"/>
   </g>
   <g id="patch_3">
    <path d="M 51.4875 520.7175 
L 51.4875 21.7575 
" style="fill: none; stroke: #000000; stroke-linejoin: miter; stroke-linecap: square"/>
   </g>
   <g id="patch_4">
    <path d="M 1055.8875 520.7175 
L 1055.8875 21.7575 
" style="fill: none; stroke: #000000; stroke-linejoin: miter; stroke-linecap: square"/>
   </g>
   <g id="patch_5">
    <path d="M 51.4875 520.7175 
L 1055.8875 520.7175 
" style="fill: none; stroke: #000000; stroke-linejoin: miter; stroke-linecap: square"/>
   </g>
   <g id="patch_6">
    <path d="M 51.4875 21.7575 
L 1055.8875 21.7575 
" style="fill: none; stroke: #000000; stroke-linejoin: miter; stroke-linecap: square"/>
   </g>
   <g id="text_18">
    <!-- Tabas_ Iran Record no. 143 -->
    <g transform="translate(445.99875 15.7575) scale(0.16 -0.16)">
     <defs>
      <path id="DejaVuSans-5f" d="M 3263 -1063 
L 3263 -1509 
L -63 -1509 
L -63 -1063 
L 3263 -1063 
z
" transform="scale(0.015625)"/>
      <path id="DejaVuSans-49" d="M 628 4666 
L 1259 4666 
L 1259 0 
L 628 0 
L 628 4666 
z
" transform="scale(0.015625)"/>
      <path id="DejaVuSans-64" d="M 2906 2969 
L 2906 4863 
L 3481 4863 
L 3481 0 
L 2906 0 
L 2906 525 
Q 2725 213 2448 61 
Q 2172 -91 1784 -91 
Q 1150 -91 751 415 
Q 353 922 353 1747 
Q 353 2572 751 3078 
Q 1150 3584 1784 3584 
Q 2172 3584 2448 3432 
Q 2725 3281 2906 2969 
z
M 947 1747 
Q 947 1113 1208 752 
Q 1469 391 1925 391 
Q 2381 391 2643 752 
Q 2906 1113 2906 1747 
Q 2906 2381 2643 2742 
Q 2381 3103 1925 3103 
Q 1469 3103 1208 2742 
Q 947 2381 947 1747 
z
" transform="scale(0.015625)"/>
      <path id="DejaVuSans-2e" d="M 684 794 
L 1344 794 
L 1344 0 
L 684 0 
L 684 794 
z
" transform="scale(0.015625)"/>
     </defs>
     <use xlink:href="#DejaVuSans-54"/>
     <use xlink:href="#DejaVuSans-61" x="44.583984"/>
     <use xlink:href="#DejaVuSans-62" x="105.863281"/>
     <use xlink:href="#DejaVuSans-61" x="169.339844"/>
     <use xlink:href="#DejaVuSans-73" x="230.619141"/>
     <use xlink:href="#DejaVuSans-5f" x="282.71875"/>
     <use xlink:href="#DejaVuSans-20" x="332.71875"/>
     <use xlink:href="#DejaVuSans-49" x="364.505859"/>
     <use xlink:href="#DejaVuSans-72" x="393.998047"/>
     <use xlink:href="#DejaVuSans-61" x="435.111328"/>
     <use xlink:href="#DejaVuSans-6e" x="496.390625"/>
     <use xlink:href="#DejaVuSans-20" x="559.769531"/>
     <use xlink:href="#DejaVuSans-52" x="591.556641"/>
     <use xlink:href="#DejaVuSans-65" x="656.539062"/>
     <use xlink:href="#DejaVuSans-63" x="718.0625"/>
     <use xlink:href="#DejaVuSans-6f" x="773.042969"/>
     <use xlink:href="#DejaVuSans-72" x="834.224609"/>
     <use xlink:href="#DejaVuSans-64" x="873.587891"/>
     <use xlink:href="#DejaVuSans-20" x="937.064453"/>
     <use xlink:href="#DejaVuSans-6e" x="968.851562"/>
     <use xlink:href="#DejaVuSans-6f" x="1032.230469"/>
     <use xlink:href="#DejaVuSans-2e" x="1091.662109"/>
     <use xlink:href="#DejaVuSans-20" x="1123.449219"/>
     <use xlink:href="#DejaVuSans-31" x="1155.236328"/>
     <use xlink:href="#DejaVuSans-34" x="1218.859375"/>
     <use xlink:href="#DejaVuSans-33" x="1282.482422"/>
    </g>
   </g>
  </g>
 </g>
 <defs>
  <clipPath id="p0190a8a424">
   <rect x="51.4875" y="21.7575" width="1004.4" height="498.96"/>
  </clipPath>
 </defs>
</svg>
