<?xml version="1.0" encoding="utf-8" standalone="no"?>
<!DOCTYPE svg PUBLIC "-//W3C//DTD SVG 1.1//EN"
  "http://www.w3.org/Graphics/SVG/1.1/DTD/svg11.dtd">
<svg xmlns:xlink="http://www.w3.org/1999/xlink" width="1065.125pt" height="562.7875pt" viewBox="0 0 1065.125 562.7875" xmlns="http://www.w3.org/2000/svg" version="1.1">
 <metadata>
  <rdf:RDF xmlns:dc="http://purl.org/dc/elements/1.1/" xmlns:cc="http://creativecommons.org/ns#" xmlns:rdf="http://www.w3.org/1999/02/22-rdf-syntax-ns#">
   <cc:Work>
    <dc:type rdf:resource="http://purl.org/dc/dcmitype/StillImage"/>
    <dc:date>2023-06-06T08:36:53.584068</dc:date>
    <dc:format>image/svg+xml</dc:format>
    <dc:creator>
     <cc:Agent>
      <dc:title>Matplotlib v3.7.1, https://matplotlib.org/</dc:title>
     </cc:Agent>
    </dc:creator>
   </cc:Work>
  </rdf:RDF>
 </metadata>
 <defs>
  <style type="text/css">*{stroke-linejoin: round; stroke-linecap: butt}</style>
 </defs>
 <g id="figure_1">
  <g id="patch_1">
   <path d="M 0 562.7875 
L 1065.125 562.7875 
L 1065.125 0 
L 0 0 
z
" style="fill: #ffffff"/>
  </g>
  <g id="axes_1">
   <g id="patch_2">
    <path d="M 57.125 520.7175 
L 1061.525 520.7175 
L 1061.525 21.7575 
L 57.125 21.7575 
z
" style="fill: #ffffff"/>
   </g>
   <g id="matplotlib.axis_1">
    <g id="xtick_1">
     <g id="line2d_1">
      <path d="M 223.171773 520.7175 
L 223.171773 21.7575 
" clip-path="url(#pb4bd99fa4b)" style="fill: none; stroke-dasharray: 1.85,0.8; stroke-dashoffset: 0; stroke: #000000; stroke-opacity: 0.5; stroke-width: 0.5"/>
     </g>
     <g id="line2d_2">
      <defs>
       <path id="m318c7b4251" d="M 0 0 
L 0 -6 
" style="stroke: #000000"/>
      </defs>
      <g>
       <use xlink:href="#m318c7b4251" x="223.171773" y="520.7175" style="stroke: #000000"/>
      </g>
     </g>
     <g id="line2d_3">
      <defs>
       <path id="me0026cd7c4" d="M 0 0 
L 0 6 
" style="stroke: #000000"/>
      </defs>
      <g>
       <use xlink:href="#me0026cd7c4" x="223.171773" y="21.7575" style="stroke: #000000"/>
      </g>
     </g>
     <g id="text_1">
      <!-- $\mathdefault{10^{-1}}$ -->
      <g transform="translate(204.371773 536.375) scale(0.16 -0.16)">
       <defs>
        <path id="DejaVuSans-31" d="M 794 531 
L 1825 531 
L 1825 4091 
L 703 3866 
L 703 4441 
L 1819 4666 
L 2450 4666 
L 2450 531 
L 3481 531 
L 3481 0 
L 794 0 
L 794 531 
z
" transform="scale(0.015625)"/>
        <path id="DejaVuSans-30" d="M 2034 4250 
Q 1547 4250 1301 3770 
Q 1056 3291 1056 2328 
Q 1056 1369 1301 889 
Q 1547 409 2034 409 
Q 2525 409 2770 889 
Q 3016 1369 3016 2328 
Q 3016 3291 2770 3770 
Q 2525 4250 2034 4250 
z
M 2034 4750 
Q 2819 4750 3233 4129 
Q 3647 3509 3647 2328 
Q 3647 1150 3233 529 
Q 2819 -91 2034 -91 
Q 1250 -91 836 529 
Q 422 1150 422 2328 
Q 422 3509 836 4129 
Q 1250 4750 2034 4750 
z
" transform="scale(0.015625)"/>
        <path id="DejaVuSans-2212" d="M 678 2272 
L 4684 2272 
L 4684 1741 
L 678 1741 
L 678 2272 
z
" transform="scale(0.015625)"/>
       </defs>
       <use xlink:href="#DejaVuSans-31" transform="translate(0 0.684375)"/>
       <use xlink:href="#DejaVuSans-30" transform="translate(63.623047 0.684375)"/>
       <use xlink:href="#DejaVuSans-2212" transform="translate(128.203125 38.965625) scale(0.7)"/>
       <use xlink:href="#DejaVuSans-31" transform="translate(186.855469 38.965625) scale(0.7)"/>
      </g>
     </g>
    </g>
    <g id="xtick_2">
     <g id="line2d_4">
      <path d="M 487.418068 520.7175 
L 487.418068 21.7575 
" clip-path="url(#pb4bd99fa4b)" style="fill: none; stroke-dasharray: 1.85,0.8; stroke-dashoffset: 0; stroke: #000000; stroke-opacity: 0.5; stroke-width: 0.5"/>
     </g>
     <g id="line2d_5">
      <g>
       <use xlink:href="#m318c7b4251" x="487.418068" y="520.7175" style="stroke: #000000"/>
      </g>
     </g>
     <g id="line2d_6">
      <g>
       <use xlink:href="#me0026cd7c4" x="487.418068" y="21.7575" style="stroke: #000000"/>
      </g>
     </g>
     <g id="text_2">
      <!-- $\mathdefault{10^{0}}$ -->
      <g transform="translate(473.338068 536.375) scale(0.16 -0.16)">
       <use xlink:href="#DejaVuSans-31" transform="translate(0 0.765625)"/>
       <use xlink:href="#DejaVuSans-30" transform="translate(63.623047 0.765625)"/>
       <use xlink:href="#DejaVuSans-30" transform="translate(128.203125 39.046875) scale(0.7)"/>
      </g>
     </g>
    </g>
    <g id="xtick_3">
     <g id="line2d_7">
      <path d="M 751.664363 520.7175 
L 751.664363 21.7575 
" clip-path="url(#pb4bd99fa4b)" style="fill: none; stroke-dasharray: 1.85,0.8; stroke-dashoffset: 0; stroke: #000000; stroke-opacity: 0.5; stroke-width: 0.5"/>
     </g>
     <g id="line2d_8">
      <g>
       <use xlink:href="#m318c7b4251" x="751.664363" y="520.7175" style="stroke: #000000"/>
      </g>
     </g>
     <g id="line2d_9">
      <g>
       <use xlink:href="#me0026cd7c4" x="751.664363" y="21.7575" style="stroke: #000000"/>
      </g>
     </g>
     <g id="text_3">
      <!-- $\mathdefault{10^{1}}$ -->
      <g transform="translate(737.584363 536.375) scale(0.16 -0.16)">
       <use xlink:href="#DejaVuSans-31" transform="translate(0 0.684375)"/>
       <use xlink:href="#DejaVuSans-30" transform="translate(63.623047 0.684375)"/>
       <use xlink:href="#DejaVuSans-31" transform="translate(128.203125 38.965625) scale(0.7)"/>
      </g>
     </g>
    </g>
    <g id="xtick_4">
     <g id="line2d_10">
      <path d="M 1015.910658 520.7175 
L 1015.910658 21.7575 
" clip-path="url(#pb4bd99fa4b)" style="fill: none; stroke-dasharray: 1.85,0.8; stroke-dashoffset: 0; stroke: #000000; stroke-opacity: 0.5; stroke-width: 0.5"/>
     </g>
     <g id="line2d_11">
      <g>
       <use xlink:href="#m318c7b4251" x="1015.910658" y="520.7175" style="stroke: #000000"/>
      </g>
     </g>
     <g id="line2d_12">
      <g>
       <use xlink:href="#me0026cd7c4" x="1015.910658" y="21.7575" style="stroke: #000000"/>
      </g>
     </g>
     <g id="text_4">
      <!-- $\mathdefault{10^{2}}$ -->
      <g transform="translate(1001.830658 536.375) scale(0.16 -0.16)">
       <defs>
        <path id="DejaVuSans-32" d="M 1228 531 
L 3431 531 
L 3431 0 
L 469 0 
L 469 531 
Q 828 903 1448 1529 
Q 2069 2156 2228 2338 
Q 2531 2678 2651 2914 
Q 2772 3150 2772 3378 
Q 2772 3750 2511 3984 
Q 2250 4219 1831 4219 
Q 1534 4219 1204 4116 
Q 875 4013 500 3803 
L 500 4441 
Q 881 4594 1212 4672 
Q 1544 4750 1819 4750 
Q 2544 4750 2975 4387 
Q 3406 4025 3406 3419 
Q 3406 3131 3298 2873 
Q 3191 2616 2906 2266 
Q 2828 2175 2409 1742 
Q 1991 1309 1228 531 
z
" transform="scale(0.015625)"/>
       </defs>
       <use xlink:href="#DejaVuSans-31" transform="translate(0 0.765625)"/>
       <use xlink:href="#DejaVuSans-30" transform="translate(63.623047 0.765625)"/>
       <use xlink:href="#DejaVuSans-32" transform="translate(128.203125 39.046875) scale(0.7)"/>
      </g>
     </g>
    </g>
    <g id="xtick_5">
     <g id="line2d_13">
      <defs>
       <path id="m29a436649d" d="M 0 0 
L 0 -3 
" style="stroke: #000000"/>
      </defs>
      <g>
       <use xlink:href="#m29a436649d" x="85.003002" y="520.7175" style="stroke: #000000"/>
      </g>
     </g>
     <g id="line2d_14">
      <defs>
       <path id="m5b5f3578ca" d="M 0 0 
L 0 3 
" style="stroke: #000000"/>
      </defs>
      <g>
       <use xlink:href="#m5b5f3578ca" x="85.003002" y="21.7575" style="stroke: #000000"/>
      </g>
     </g>
    </g>
    <g id="xtick_6">
     <g id="line2d_15">
      <g>
       <use xlink:href="#m29a436649d" x="118.0176" y="520.7175" style="stroke: #000000"/>
      </g>
     </g>
     <g id="line2d_16">
      <g>
       <use xlink:href="#m5b5f3578ca" x="118.0176" y="21.7575" style="stroke: #000000"/>
      </g>
     </g>
    </g>
    <g id="xtick_7">
     <g id="line2d_17">
      <g>
       <use xlink:href="#m29a436649d" x="143.625712" y="520.7175" style="stroke: #000000"/>
      </g>
     </g>
     <g id="line2d_18">
      <g>
       <use xlink:href="#m5b5f3578ca" x="143.625712" y="21.7575" style="stroke: #000000"/>
      </g>
     </g>
    </g>
    <g id="xtick_8">
     <g id="line2d_19">
      <g>
       <use xlink:href="#m29a436649d" x="164.549063" y="520.7175" style="stroke: #000000"/>
      </g>
     </g>
     <g id="line2d_20">
      <g>
       <use xlink:href="#m5b5f3578ca" x="164.549063" y="21.7575" style="stroke: #000000"/>
      </g>
     </g>
    </g>
    <g id="xtick_9">
     <g id="line2d_21">
      <g>
       <use xlink:href="#m29a436649d" x="182.239504" y="520.7175" style="stroke: #000000"/>
      </g>
     </g>
     <g id="line2d_22">
      <g>
       <use xlink:href="#m5b5f3578ca" x="182.239504" y="21.7575" style="stroke: #000000"/>
      </g>
     </g>
    </g>
    <g id="xtick_10">
     <g id="line2d_23">
      <g>
       <use xlink:href="#m29a436649d" x="197.563661" y="520.7175" style="stroke: #000000"/>
      </g>
     </g>
     <g id="line2d_24">
      <g>
       <use xlink:href="#m5b5f3578ca" x="197.563661" y="21.7575" style="stroke: #000000"/>
      </g>
     </g>
    </g>
    <g id="xtick_11">
     <g id="line2d_25">
      <g>
       <use xlink:href="#m29a436649d" x="211.080525" y="520.7175" style="stroke: #000000"/>
      </g>
     </g>
     <g id="line2d_26">
      <g>
       <use xlink:href="#m5b5f3578ca" x="211.080525" y="21.7575" style="stroke: #000000"/>
      </g>
     </g>
    </g>
    <g id="xtick_12">
     <g id="line2d_27">
      <g>
       <use xlink:href="#m29a436649d" x="302.717834" y="520.7175" style="stroke: #000000"/>
      </g>
     </g>
     <g id="line2d_28">
      <g>
       <use xlink:href="#m5b5f3578ca" x="302.717834" y="21.7575" style="stroke: #000000"/>
      </g>
     </g>
    </g>
    <g id="xtick_13">
     <g id="line2d_29">
      <g>
       <use xlink:href="#m29a436649d" x="349.249297" y="520.7175" style="stroke: #000000"/>
      </g>
     </g>
     <g id="line2d_30">
      <g>
       <use xlink:href="#m5b5f3578ca" x="349.249297" y="21.7575" style="stroke: #000000"/>
      </g>
     </g>
    </g>
    <g id="xtick_14">
     <g id="line2d_31">
      <g>
       <use xlink:href="#m29a436649d" x="382.263895" y="520.7175" style="stroke: #000000"/>
      </g>
     </g>
     <g id="line2d_32">
      <g>
       <use xlink:href="#m5b5f3578ca" x="382.263895" y="21.7575" style="stroke: #000000"/>
      </g>
     </g>
    </g>
    <g id="xtick_15">
     <g id="line2d_33">
      <g>
       <use xlink:href="#m29a436649d" x="407.872007" y="520.7175" style="stroke: #000000"/>
      </g>
     </g>
     <g id="line2d_34">
      <g>
       <use xlink:href="#m5b5f3578ca" x="407.872007" y="21.7575" style="stroke: #000000"/>
      </g>
     </g>
    </g>
    <g id="xtick_16">
     <g id="line2d_35">
      <g>
       <use xlink:href="#m29a436649d" x="428.795358" y="520.7175" style="stroke: #000000"/>
      </g>
     </g>
     <g id="line2d_36">
      <g>
       <use xlink:href="#m5b5f3578ca" x="428.795358" y="21.7575" style="stroke: #000000"/>
      </g>
     </g>
    </g>
    <g id="xtick_17">
     <g id="line2d_37">
      <g>
       <use xlink:href="#m29a436649d" x="446.485799" y="520.7175" style="stroke: #000000"/>
      </g>
     </g>
     <g id="line2d_38">
      <g>
       <use xlink:href="#m5b5f3578ca" x="446.485799" y="21.7575" style="stroke: #000000"/>
      </g>
     </g>
    </g>
    <g id="xtick_18">
     <g id="line2d_39">
      <g>
       <use xlink:href="#m29a436649d" x="461.809956" y="520.7175" style="stroke: #000000"/>
      </g>
     </g>
     <g id="line2d_40">
      <g>
       <use xlink:href="#m5b5f3578ca" x="461.809956" y="21.7575" style="stroke: #000000"/>
      </g>
     </g>
    </g>
    <g id="xtick_19">
     <g id="line2d_41">
      <g>
       <use xlink:href="#m29a436649d" x="475.32682" y="520.7175" style="stroke: #000000"/>
      </g>
     </g>
     <g id="line2d_42">
      <g>
       <use xlink:href="#m5b5f3578ca" x="475.32682" y="21.7575" style="stroke: #000000"/>
      </g>
     </g>
    </g>
    <g id="xtick_20">
     <g id="line2d_43">
      <g>
       <use xlink:href="#m29a436649d" x="566.964129" y="520.7175" style="stroke: #000000"/>
      </g>
     </g>
     <g id="line2d_44">
      <g>
       <use xlink:href="#m5b5f3578ca" x="566.964129" y="21.7575" style="stroke: #000000"/>
      </g>
     </g>
    </g>
    <g id="xtick_21">
     <g id="line2d_45">
      <g>
       <use xlink:href="#m29a436649d" x="613.495592" y="520.7175" style="stroke: #000000"/>
      </g>
     </g>
     <g id="line2d_46">
      <g>
       <use xlink:href="#m5b5f3578ca" x="613.495592" y="21.7575" style="stroke: #000000"/>
      </g>
     </g>
    </g>
    <g id="xtick_22">
     <g id="line2d_47">
      <g>
       <use xlink:href="#m29a436649d" x="646.51019" y="520.7175" style="stroke: #000000"/>
      </g>
     </g>
     <g id="line2d_48">
      <g>
       <use xlink:href="#m5b5f3578ca" x="646.51019" y="21.7575" style="stroke: #000000"/>
      </g>
     </g>
    </g>
    <g id="xtick_23">
     <g id="line2d_49">
      <g>
       <use xlink:href="#m29a436649d" x="672.118302" y="520.7175" style="stroke: #000000"/>
      </g>
     </g>
     <g id="line2d_50">
      <g>
       <use xlink:href="#m5b5f3578ca" x="672.118302" y="21.7575" style="stroke: #000000"/>
      </g>
     </g>
    </g>
    <g id="xtick_24">
     <g id="line2d_51">
      <g>
       <use xlink:href="#m29a436649d" x="693.041653" y="520.7175" style="stroke: #000000"/>
      </g>
     </g>
     <g id="line2d_52">
      <g>
       <use xlink:href="#m5b5f3578ca" x="693.041653" y="21.7575" style="stroke: #000000"/>
      </g>
     </g>
    </g>
    <g id="xtick_25">
     <g id="line2d_53">
      <g>
       <use xlink:href="#m29a436649d" x="710.732094" y="520.7175" style="stroke: #000000"/>
      </g>
     </g>
     <g id="line2d_54">
      <g>
       <use xlink:href="#m5b5f3578ca" x="710.732094" y="21.7575" style="stroke: #000000"/>
      </g>
     </g>
    </g>
    <g id="xtick_26">
     <g id="line2d_55">
      <g>
       <use xlink:href="#m29a436649d" x="726.056251" y="520.7175" style="stroke: #000000"/>
      </g>
     </g>
     <g id="line2d_56">
      <g>
       <use xlink:href="#m5b5f3578ca" x="726.056251" y="21.7575" style="stroke: #000000"/>
      </g>
     </g>
    </g>
    <g id="xtick_27">
     <g id="line2d_57">
      <g>
       <use xlink:href="#m29a436649d" x="739.573116" y="520.7175" style="stroke: #000000"/>
      </g>
     </g>
     <g id="line2d_58">
      <g>
       <use xlink:href="#m5b5f3578ca" x="739.573116" y="21.7575" style="stroke: #000000"/>
      </g>
     </g>
    </g>
    <g id="xtick_28">
     <g id="line2d_59">
      <g>
       <use xlink:href="#m29a436649d" x="831.210424" y="520.7175" style="stroke: #000000"/>
      </g>
     </g>
     <g id="line2d_60">
      <g>
       <use xlink:href="#m5b5f3578ca" x="831.210424" y="21.7575" style="stroke: #000000"/>
      </g>
     </g>
    </g>
    <g id="xtick_29">
     <g id="line2d_61">
      <g>
       <use xlink:href="#m29a436649d" x="877.741887" y="520.7175" style="stroke: #000000"/>
      </g>
     </g>
     <g id="line2d_62">
      <g>
       <use xlink:href="#m5b5f3578ca" x="877.741887" y="21.7575" style="stroke: #000000"/>
      </g>
     </g>
    </g>
    <g id="xtick_30">
     <g id="line2d_63">
      <g>
       <use xlink:href="#m29a436649d" x="910.756485" y="520.7175" style="stroke: #000000"/>
      </g>
     </g>
     <g id="line2d_64">
      <g>
       <use xlink:href="#m5b5f3578ca" x="910.756485" y="21.7575" style="stroke: #000000"/>
      </g>
     </g>
    </g>
    <g id="xtick_31">
     <g id="line2d_65">
      <g>
       <use xlink:href="#m29a436649d" x="936.364597" y="520.7175" style="stroke: #000000"/>
      </g>
     </g>
     <g id="line2d_66">
      <g>
       <use xlink:href="#m5b5f3578ca" x="936.364597" y="21.7575" style="stroke: #000000"/>
      </g>
     </g>
    </g>
    <g id="xtick_32">
     <g id="line2d_67">
      <g>
       <use xlink:href="#m29a436649d" x="957.287948" y="520.7175" style="stroke: #000000"/>
      </g>
     </g>
     <g id="line2d_68">
      <g>
       <use xlink:href="#m5b5f3578ca" x="957.287948" y="21.7575" style="stroke: #000000"/>
      </g>
     </g>
    </g>
    <g id="xtick_33">
     <g id="line2d_69">
      <g>
       <use xlink:href="#m29a436649d" x="974.978389" y="520.7175" style="stroke: #000000"/>
      </g>
     </g>
     <g id="line2d_70">
      <g>
       <use xlink:href="#m5b5f3578ca" x="974.978389" y="21.7575" style="stroke: #000000"/>
      </g>
     </g>
    </g>
    <g id="xtick_34">
     <g id="line2d_71">
      <g>
       <use xlink:href="#m29a436649d" x="990.302546" y="520.7175" style="stroke: #000000"/>
      </g>
     </g>
     <g id="line2d_72">
      <g>
       <use xlink:href="#m5b5f3578ca" x="990.302546" y="21.7575" style="stroke: #000000"/>
      </g>
     </g>
    </g>
    <g id="xtick_35">
     <g id="line2d_73">
      <g>
       <use xlink:href="#m29a436649d" x="1003.819411" y="520.7175" style="stroke: #000000"/>
      </g>
     </g>
     <g id="line2d_74">
      <g>
       <use xlink:href="#m5b5f3578ca" x="1003.819411" y="21.7575" style="stroke: #000000"/>
      </g>
     </g>
    </g>
    <g id="text_5">
     <!-- Frequency (Hz) -->
     <g transform="translate(498.9975 555.86) scale(0.16 -0.16)">
      <defs>
       <path id="DejaVuSans-46" d="M 628 4666 
L 3309 4666 
L 3309 4134 
L 1259 4134 
L 1259 2759 
L 3109 2759 
L 3109 2228 
L 1259 2228 
L 1259 0 
L 628 0 
L 628 4666 
z
" transform="scale(0.015625)"/>
       <path id="DejaVuSans-72" d="M 2631 2963 
Q 2534 3019 2420 3045 
Q 2306 3072 2169 3072 
Q 1681 3072 1420 2755 
Q 1159 2438 1159 1844 
L 1159 0 
L 581 0 
L 581 3500 
L 1159 3500 
L 1159 2956 
Q 1341 3275 1631 3429 
Q 1922 3584 2338 3584 
Q 2397 3584 2469 3576 
Q 2541 3569 2628 3553 
L 2631 2963 
z
" transform="scale(0.015625)"/>
       <path id="DejaVuSans-65" d="M 3597 1894 
L 3597 1613 
L 953 1613 
Q 991 1019 1311 708 
Q 1631 397 2203 397 
Q 2534 397 2845 478 
Q 3156 559 3463 722 
L 3463 178 
Q 3153 47 2828 -22 
Q 2503 -91 2169 -91 
Q 1331 -91 842 396 
Q 353 884 353 1716 
Q 353 2575 817 3079 
Q 1281 3584 2069 3584 
Q 2775 3584 3186 3129 
Q 3597 2675 3597 1894 
z
M 3022 2063 
Q 3016 2534 2758 2815 
Q 2500 3097 2075 3097 
Q 1594 3097 1305 2825 
Q 1016 2553 972 2059 
L 3022 2063 
z
" transform="scale(0.015625)"/>
       <path id="DejaVuSans-71" d="M 947 1747 
Q 947 1113 1208 752 
Q 1469 391 1925 391 
Q 2381 391 2643 752 
Q 2906 1113 2906 1747 
Q 2906 2381 2643 2742 
Q 2381 3103 1925 3103 
Q 1469 3103 1208 2742 
Q 947 2381 947 1747 
z
M 2906 525 
Q 2725 213 2448 61 
Q 2172 -91 1784 -91 
Q 1150 -91 751 415 
Q 353 922 353 1747 
Q 353 2572 751 3078 
Q 1150 3584 1784 3584 
Q 2172 3584 2448 3432 
Q 2725 3281 2906 2969 
L 2906 3500 
L 3481 3500 
L 3481 -1331 
L 2906 -1331 
L 2906 525 
z
" transform="scale(0.015625)"/>
       <path id="DejaVuSans-75" d="M 544 1381 
L 544 3500 
L 1119 3500 
L 1119 1403 
Q 1119 906 1312 657 
Q 1506 409 1894 409 
Q 2359 409 2629 706 
Q 2900 1003 2900 1516 
L 2900 3500 
L 3475 3500 
L 3475 0 
L 2900 0 
L 2900 538 
Q 2691 219 2414 64 
Q 2138 -91 1772 -91 
Q 1169 -91 856 284 
Q 544 659 544 1381 
z
M 1991 3584 
L 1991 3584 
z
" transform="scale(0.015625)"/>
       <path id="DejaVuSans-6e" d="M 3513 2113 
L 3513 0 
L 2938 0 
L 2938 2094 
Q 2938 2591 2744 2837 
Q 2550 3084 2163 3084 
Q 1697 3084 1428 2787 
Q 1159 2491 1159 1978 
L 1159 0 
L 581 0 
L 581 3500 
L 1159 3500 
L 1159 2956 
Q 1366 3272 1645 3428 
Q 1925 3584 2291 3584 
Q 2894 3584 3203 3211 
Q 3513 2838 3513 2113 
z
" transform="scale(0.015625)"/>
       <path id="DejaVuSans-63" d="M 3122 3366 
L 3122 2828 
Q 2878 2963 2633 3030 
Q 2388 3097 2138 3097 
Q 1578 3097 1268 2742 
Q 959 2388 959 1747 
Q 959 1106 1268 751 
Q 1578 397 2138 397 
Q 2388 397 2633 464 
Q 2878 531 3122 666 
L 3122 134 
Q 2881 22 2623 -34 
Q 2366 -91 2075 -91 
Q 1284 -91 818 406 
Q 353 903 353 1747 
Q 353 2603 823 3093 
Q 1294 3584 2113 3584 
Q 2378 3584 2631 3529 
Q 2884 3475 3122 3366 
z
" transform="scale(0.015625)"/>
       <path id="DejaVuSans-79" d="M 2059 -325 
Q 1816 -950 1584 -1140 
Q 1353 -1331 966 -1331 
L 506 -1331 
L 506 -850 
L 844 -850 
Q 1081 -850 1212 -737 
Q 1344 -625 1503 -206 
L 1606 56 
L 191 3500 
L 800 3500 
L 1894 763 
L 2988 3500 
L 3597 3500 
L 2059 -325 
z
" transform="scale(0.015625)"/>
       <path id="DejaVuSans-20" transform="scale(0.015625)"/>
       <path id="DejaVuSans-28" d="M 1984 4856 
Q 1566 4138 1362 3434 
Q 1159 2731 1159 2009 
Q 1159 1288 1364 580 
Q 1569 -128 1984 -844 
L 1484 -844 
Q 1016 -109 783 600 
Q 550 1309 550 2009 
Q 550 2706 781 3412 
Q 1013 4119 1484 4856 
L 1984 4856 
z
" transform="scale(0.015625)"/>
       <path id="DejaVuSans-48" d="M 628 4666 
L 1259 4666 
L 1259 2753 
L 3553 2753 
L 3553 4666 
L 4184 4666 
L 4184 0 
L 3553 0 
L 3553 2222 
L 1259 2222 
L 1259 0 
L 628 0 
L 628 4666 
z
" transform="scale(0.015625)"/>
       <path id="DejaVuSans-7a" d="M 353 3500 
L 3084 3500 
L 3084 2975 
L 922 459 
L 3084 459 
L 3084 0 
L 275 0 
L 275 525 
L 2438 3041 
L 353 3041 
L 353 3500 
z
" transform="scale(0.015625)"/>
       <path id="DejaVuSans-29" d="M 513 4856 
L 1013 4856 
Q 1481 4119 1714 3412 
Q 1947 2706 1947 2009 
Q 1947 1309 1714 600 
Q 1481 -109 1013 -844 
L 513 -844 
Q 928 -128 1133 580 
Q 1338 1288 1338 2009 
Q 1338 2731 1133 3434 
Q 928 4138 513 4856 
z
" transform="scale(0.015625)"/>
      </defs>
      <use xlink:href="#DejaVuSans-46"/>
      <use xlink:href="#DejaVuSans-72" x="50.269531"/>
      <use xlink:href="#DejaVuSans-65" x="89.132812"/>
      <use xlink:href="#DejaVuSans-71" x="150.65625"/>
      <use xlink:href="#DejaVuSans-75" x="214.132812"/>
      <use xlink:href="#DejaVuSans-65" x="277.511719"/>
      <use xlink:href="#DejaVuSans-6e" x="339.035156"/>
      <use xlink:href="#DejaVuSans-63" x="402.414062"/>
      <use xlink:href="#DejaVuSans-79" x="457.394531"/>
      <use xlink:href="#DejaVuSans-20" x="516.574219"/>
      <use xlink:href="#DejaVuSans-28" x="548.361328"/>
      <use xlink:href="#DejaVuSans-48" x="587.375"/>
      <use xlink:href="#DejaVuSans-7a" x="662.570312"/>
      <use xlink:href="#DejaVuSans-29" x="715.060547"/>
     </g>
    </g>
   </g>
   <g id="matplotlib.axis_2">
    <g id="ytick_1">
     <g id="line2d_75">
      <path d="M 57.125 498.037989 
L 1061.525 498.037989 
" clip-path="url(#pb4bd99fa4b)" style="fill: none; stroke-dasharray: 1.85,0.8; stroke-dashoffset: 0; stroke: #000000; stroke-opacity: 0.5; stroke-width: 0.5"/>
     </g>
     <g id="line2d_76">
      <defs>
       <path id="m7ca977f1b6" d="M 0 0 
L 6 0 
" style="stroke: #000000"/>
      </defs>
      <g>
       <use xlink:href="#m7ca977f1b6" x="57.125" y="498.037989" style="stroke: #000000"/>
      </g>
     </g>
     <g id="line2d_77">
      <defs>
       <path id="m060b793623" d="M 0 0 
L -6 0 
" style="stroke: #000000"/>
      </defs>
      <g>
       <use xlink:href="#m060b793623" x="1061.525" y="498.037989" style="stroke: #000000"/>
      </g>
     </g>
     <g id="text_6">
      <!-- 0 -->
      <g transform="translate(43.445 504.116739) scale(0.16 -0.16)">
       <use xlink:href="#DejaVuSans-30"/>
      </g>
     </g>
    </g>
    <g id="ytick_2">
     <g id="line2d_78">
      <path d="M 57.125 415.274581 
L 1061.525 415.274581 
" clip-path="url(#pb4bd99fa4b)" style="fill: none; stroke-dasharray: 1.85,0.8; stroke-dashoffset: 0; stroke: #000000; stroke-opacity: 0.5; stroke-width: 0.5"/>
     </g>
     <g id="line2d_79">
      <g>
       <use xlink:href="#m7ca977f1b6" x="57.125" y="415.274581" style="stroke: #000000"/>
      </g>
     </g>
     <g id="line2d_80">
      <g>
       <use xlink:href="#m060b793623" x="1061.525" y="415.274581" style="stroke: #000000"/>
      </g>
     </g>
     <g id="text_7">
      <!-- 50 -->
      <g transform="translate(33.265 421.353331) scale(0.16 -0.16)">
       <defs>
        <path id="DejaVuSans-35" d="M 691 4666 
L 3169 4666 
L 3169 4134 
L 1269 4134 
L 1269 2991 
Q 1406 3038 1543 3061 
Q 1681 3084 1819 3084 
Q 2600 3084 3056 2656 
Q 3513 2228 3513 1497 
Q 3513 744 3044 326 
Q 2575 -91 1722 -91 
Q 1428 -91 1123 -41 
Q 819 9 494 109 
L 494 744 
Q 775 591 1075 516 
Q 1375 441 1709 441 
Q 2250 441 2565 725 
Q 2881 1009 2881 1497 
Q 2881 1984 2565 2268 
Q 2250 2553 1709 2553 
Q 1456 2553 1204 2497 
Q 953 2441 691 2322 
L 691 4666 
z
" transform="scale(0.015625)"/>
       </defs>
       <use xlink:href="#DejaVuSans-35"/>
       <use xlink:href="#DejaVuSans-30" x="63.623047"/>
      </g>
     </g>
    </g>
    <g id="ytick_3">
     <g id="line2d_81">
      <path d="M 57.125 332.511173 
L 1061.525 332.511173 
" clip-path="url(#pb4bd99fa4b)" style="fill: none; stroke-dasharray: 1.85,0.8; stroke-dashoffset: 0; stroke: #000000; stroke-opacity: 0.5; stroke-width: 0.5"/>
     </g>
     <g id="line2d_82">
      <g>
       <use xlink:href="#m7ca977f1b6" x="57.125" y="332.511173" style="stroke: #000000"/>
      </g>
     </g>
     <g id="line2d_83">
      <g>
       <use xlink:href="#m060b793623" x="1061.525" y="332.511173" style="stroke: #000000"/>
      </g>
     </g>
     <g id="text_8">
      <!-- 100 -->
      <g transform="translate(23.085 338.589923) scale(0.16 -0.16)">
       <use xlink:href="#DejaVuSans-31"/>
       <use xlink:href="#DejaVuSans-30" x="63.623047"/>
       <use xlink:href="#DejaVuSans-30" x="127.246094"/>
      </g>
     </g>
    </g>
    <g id="ytick_4">
     <g id="line2d_84">
      <path d="M 57.125 249.747765 
L 1061.525 249.747765 
" clip-path="url(#pb4bd99fa4b)" style="fill: none; stroke-dasharray: 1.85,0.8; stroke-dashoffset: 0; stroke: #000000; stroke-opacity: 0.5; stroke-width: 0.5"/>
     </g>
     <g id="line2d_85">
      <g>
       <use xlink:href="#m7ca977f1b6" x="57.125" y="249.747765" style="stroke: #000000"/>
      </g>
     </g>
     <g id="line2d_86">
      <g>
       <use xlink:href="#m060b793623" x="1061.525" y="249.747765" style="stroke: #000000"/>
      </g>
     </g>
     <g id="text_9">
      <!-- 150 -->
      <g transform="translate(23.085 255.826515) scale(0.16 -0.16)">
       <use xlink:href="#DejaVuSans-31"/>
       <use xlink:href="#DejaVuSans-35" x="63.623047"/>
       <use xlink:href="#DejaVuSans-30" x="127.246094"/>
      </g>
     </g>
    </g>
    <g id="ytick_5">
     <g id="line2d_87">
      <path d="M 57.125 166.984357 
L 1061.525 166.984357 
" clip-path="url(#pb4bd99fa4b)" style="fill: none; stroke-dasharray: 1.85,0.8; stroke-dashoffset: 0; stroke: #000000; stroke-opacity: 0.5; stroke-width: 0.5"/>
     </g>
     <g id="line2d_88">
      <g>
       <use xlink:href="#m7ca977f1b6" x="57.125" y="166.984357" style="stroke: #000000"/>
      </g>
     </g>
     <g id="line2d_89">
      <g>
       <use xlink:href="#m060b793623" x="1061.525" y="166.984357" style="stroke: #000000"/>
      </g>
     </g>
     <g id="text_10">
      <!-- 200 -->
      <g transform="translate(23.085 173.063107) scale(0.16 -0.16)">
       <use xlink:href="#DejaVuSans-32"/>
       <use xlink:href="#DejaVuSans-30" x="63.623047"/>
       <use xlink:href="#DejaVuSans-30" x="127.246094"/>
      </g>
     </g>
    </g>
    <g id="ytick_6">
     <g id="line2d_90">
      <path d="M 57.125 84.220949 
L 1061.525 84.220949 
" clip-path="url(#pb4bd99fa4b)" style="fill: none; stroke-dasharray: 1.85,0.8; stroke-dashoffset: 0; stroke: #000000; stroke-opacity: 0.5; stroke-width: 0.5"/>
     </g>
     <g id="line2d_91">
      <g>
       <use xlink:href="#m7ca977f1b6" x="57.125" y="84.220949" style="stroke: #000000"/>
      </g>
     </g>
     <g id="line2d_92">
      <g>
       <use xlink:href="#m060b793623" x="1061.525" y="84.220949" style="stroke: #000000"/>
      </g>
     </g>
     <g id="text_11">
      <!-- 250 -->
      <g transform="translate(23.085 90.299699) scale(0.16 -0.16)">
       <use xlink:href="#DejaVuSans-32"/>
       <use xlink:href="#DejaVuSans-35" x="63.623047"/>
       <use xlink:href="#DejaVuSans-30" x="127.246094"/>
      </g>
     </g>
    </g>
    <g id="ytick_7">
     <g id="line2d_93">
      <defs>
       <path id="meb4d2ea1ab" d="M 0 0 
L 3 0 
" style="stroke: #000000"/>
      </defs>
      <g>
       <use xlink:href="#meb4d2ea1ab" x="57.125" y="514.59067" style="stroke: #000000"/>
      </g>
     </g>
     <g id="line2d_94">
      <defs>
       <path id="mecc188a79a" d="M 0 0 
L -3 0 
" style="stroke: #000000"/>
      </defs>
      <g>
       <use xlink:href="#mecc188a79a" x="1061.525" y="514.59067" style="stroke: #000000"/>
      </g>
     </g>
    </g>
    <g id="ytick_8">
     <g id="line2d_95">
      <g>
       <use xlink:href="#meb4d2ea1ab" x="57.125" y="481.485307" style="stroke: #000000"/>
      </g>
     </g>
     <g id="line2d_96">
      <g>
       <use xlink:href="#mecc188a79a" x="1061.525" y="481.485307" style="stroke: #000000"/>
      </g>
     </g>
    </g>
    <g id="ytick_9">
     <g id="line2d_97">
      <g>
       <use xlink:href="#meb4d2ea1ab" x="57.125" y="464.932625" style="stroke: #000000"/>
      </g>
     </g>
     <g id="line2d_98">
      <g>
       <use xlink:href="#mecc188a79a" x="1061.525" y="464.932625" style="stroke: #000000"/>
      </g>
     </g>
    </g>
    <g id="ytick_10">
     <g id="line2d_99">
      <g>
       <use xlink:href="#meb4d2ea1ab" x="57.125" y="448.379944" style="stroke: #000000"/>
      </g>
     </g>
     <g id="line2d_100">
      <g>
       <use xlink:href="#mecc188a79a" x="1061.525" y="448.379944" style="stroke: #000000"/>
      </g>
     </g>
    </g>
    <g id="ytick_11">
     <g id="line2d_101">
      <g>
       <use xlink:href="#meb4d2ea1ab" x="57.125" y="431.827262" style="stroke: #000000"/>
      </g>
     </g>
     <g id="line2d_102">
      <g>
       <use xlink:href="#mecc188a79a" x="1061.525" y="431.827262" style="stroke: #000000"/>
      </g>
     </g>
    </g>
    <g id="ytick_12">
     <g id="line2d_103">
      <g>
       <use xlink:href="#meb4d2ea1ab" x="57.125" y="398.721899" style="stroke: #000000"/>
      </g>
     </g>
     <g id="line2d_104">
      <g>
       <use xlink:href="#mecc188a79a" x="1061.525" y="398.721899" style="stroke: #000000"/>
      </g>
     </g>
    </g>
    <g id="ytick_13">
     <g id="line2d_105">
      <g>
       <use xlink:href="#meb4d2ea1ab" x="57.125" y="382.169217" style="stroke: #000000"/>
      </g>
     </g>
     <g id="line2d_106">
      <g>
       <use xlink:href="#mecc188a79a" x="1061.525" y="382.169217" style="stroke: #000000"/>
      </g>
     </g>
    </g>
    <g id="ytick_14">
     <g id="line2d_107">
      <g>
       <use xlink:href="#meb4d2ea1ab" x="57.125" y="365.616536" style="stroke: #000000"/>
      </g>
     </g>
     <g id="line2d_108">
      <g>
       <use xlink:href="#mecc188a79a" x="1061.525" y="365.616536" style="stroke: #000000"/>
      </g>
     </g>
    </g>
    <g id="ytick_15">
     <g id="line2d_109">
      <g>
       <use xlink:href="#meb4d2ea1ab" x="57.125" y="349.063854" style="stroke: #000000"/>
      </g>
     </g>
     <g id="line2d_110">
      <g>
       <use xlink:href="#mecc188a79a" x="1061.525" y="349.063854" style="stroke: #000000"/>
      </g>
     </g>
    </g>
    <g id="ytick_16">
     <g id="line2d_111">
      <g>
       <use xlink:href="#meb4d2ea1ab" x="57.125" y="315.958491" style="stroke: #000000"/>
      </g>
     </g>
     <g id="line2d_112">
      <g>
       <use xlink:href="#mecc188a79a" x="1061.525" y="315.958491" style="stroke: #000000"/>
      </g>
     </g>
    </g>
    <g id="ytick_17">
     <g id="line2d_113">
      <g>
       <use xlink:href="#meb4d2ea1ab" x="57.125" y="299.40581" style="stroke: #000000"/>
      </g>
     </g>
     <g id="line2d_114">
      <g>
       <use xlink:href="#mecc188a79a" x="1061.525" y="299.40581" style="stroke: #000000"/>
      </g>
     </g>
    </g>
    <g id="ytick_18">
     <g id="line2d_115">
      <g>
       <use xlink:href="#meb4d2ea1ab" x="57.125" y="282.853128" style="stroke: #000000"/>
      </g>
     </g>
     <g id="line2d_116">
      <g>
       <use xlink:href="#mecc188a79a" x="1061.525" y="282.853128" style="stroke: #000000"/>
      </g>
     </g>
    </g>
    <g id="ytick_19">
     <g id="line2d_117">
      <g>
       <use xlink:href="#meb4d2ea1ab" x="57.125" y="266.300446" style="stroke: #000000"/>
      </g>
     </g>
     <g id="line2d_118">
      <g>
       <use xlink:href="#mecc188a79a" x="1061.525" y="266.300446" style="stroke: #000000"/>
      </g>
     </g>
    </g>
    <g id="ytick_20">
     <g id="line2d_119">
      <g>
       <use xlink:href="#meb4d2ea1ab" x="57.125" y="233.195083" style="stroke: #000000"/>
      </g>
     </g>
     <g id="line2d_120">
      <g>
       <use xlink:href="#mecc188a79a" x="1061.525" y="233.195083" style="stroke: #000000"/>
      </g>
     </g>
    </g>
    <g id="ytick_21">
     <g id="line2d_121">
      <g>
       <use xlink:href="#meb4d2ea1ab" x="57.125" y="216.642402" style="stroke: #000000"/>
      </g>
     </g>
     <g id="line2d_122">
      <g>
       <use xlink:href="#mecc188a79a" x="1061.525" y="216.642402" style="stroke: #000000"/>
      </g>
     </g>
    </g>
    <g id="ytick_22">
     <g id="line2d_123">
      <g>
       <use xlink:href="#meb4d2ea1ab" x="57.125" y="200.08972" style="stroke: #000000"/>
      </g>
     </g>
     <g id="line2d_124">
      <g>
       <use xlink:href="#mecc188a79a" x="1061.525" y="200.08972" style="stroke: #000000"/>
      </g>
     </g>
    </g>
    <g id="ytick_23">
     <g id="line2d_125">
      <g>
       <use xlink:href="#meb4d2ea1ab" x="57.125" y="183.537039" style="stroke: #000000"/>
      </g>
     </g>
     <g id="line2d_126">
      <g>
       <use xlink:href="#mecc188a79a" x="1061.525" y="183.537039" style="stroke: #000000"/>
      </g>
     </g>
    </g>
    <g id="ytick_24">
     <g id="line2d_127">
      <g>
       <use xlink:href="#meb4d2ea1ab" x="57.125" y="150.431675" style="stroke: #000000"/>
      </g>
     </g>
     <g id="line2d_128">
      <g>
       <use xlink:href="#mecc188a79a" x="1061.525" y="150.431675" style="stroke: #000000"/>
      </g>
     </g>
    </g>
    <g id="ytick_25">
     <g id="line2d_129">
      <g>
       <use xlink:href="#meb4d2ea1ab" x="57.125" y="133.878994" style="stroke: #000000"/>
      </g>
     </g>
     <g id="line2d_130">
      <g>
       <use xlink:href="#mecc188a79a" x="1061.525" y="133.878994" style="stroke: #000000"/>
      </g>
     </g>
    </g>
    <g id="ytick_26">
     <g id="line2d_131">
      <g>
       <use xlink:href="#meb4d2ea1ab" x="57.125" y="117.326312" style="stroke: #000000"/>
      </g>
     </g>
     <g id="line2d_132">
      <g>
       <use xlink:href="#mecc188a79a" x="1061.525" y="117.326312" style="stroke: #000000"/>
      </g>
     </g>
    </g>
    <g id="ytick_27">
     <g id="line2d_133">
      <g>
       <use xlink:href="#meb4d2ea1ab" x="57.125" y="100.773631" style="stroke: #000000"/>
      </g>
     </g>
     <g id="line2d_134">
      <g>
       <use xlink:href="#mecc188a79a" x="1061.525" y="100.773631" style="stroke: #000000"/>
      </g>
     </g>
    </g>
    <g id="ytick_28">
     <g id="line2d_135">
      <g>
       <use xlink:href="#meb4d2ea1ab" x="57.125" y="67.668267" style="stroke: #000000"/>
      </g>
     </g>
     <g id="line2d_136">
      <g>
       <use xlink:href="#mecc188a79a" x="1061.525" y="67.668267" style="stroke: #000000"/>
      </g>
     </g>
    </g>
    <g id="ytick_29">
     <g id="line2d_137">
      <g>
       <use xlink:href="#meb4d2ea1ab" x="57.125" y="51.115586" style="stroke: #000000"/>
      </g>
     </g>
     <g id="line2d_138">
      <g>
       <use xlink:href="#mecc188a79a" x="1061.525" y="51.115586" style="stroke: #000000"/>
      </g>
     </g>
    </g>
    <g id="ytick_30">
     <g id="line2d_139">
      <g>
       <use xlink:href="#meb4d2ea1ab" x="57.125" y="34.562904" style="stroke: #000000"/>
      </g>
     </g>
     <g id="line2d_140">
      <g>
       <use xlink:href="#mecc188a79a" x="1061.525" y="34.562904" style="stroke: #000000"/>
      </g>
     </g>
    </g>
    <g id="text_12">
     <!-- Frequency Amplitude -->
     <g transform="translate(15.7575 356.10375) rotate(-90) scale(0.16 -0.16)">
      <defs>
       <path id="DejaVuSans-41" d="M 2188 4044 
L 1331 1722 
L 3047 1722 
L 2188 4044 
z
M 1831 4666 
L 2547 4666 
L 4325 0 
L 3669 0 
L 3244 1197 
L 1141 1197 
L 716 0 
L 50 0 
L 1831 4666 
z
" transform="scale(0.015625)"/>
       <path id="DejaVuSans-6d" d="M 3328 2828 
Q 3544 3216 3844 3400 
Q 4144 3584 4550 3584 
Q 5097 3584 5394 3201 
Q 5691 2819 5691 2113 
L 5691 0 
L 5113 0 
L 5113 2094 
Q 5113 2597 4934 2840 
Q 4756 3084 4391 3084 
Q 3944 3084 3684 2787 
Q 3425 2491 3425 1978 
L 3425 0 
L 2847 0 
L 2847 2094 
Q 2847 2600 2669 2842 
Q 2491 3084 2119 3084 
Q 1678 3084 1418 2786 
Q 1159 2488 1159 1978 
L 1159 0 
L 581 0 
L 581 3500 
L 1159 3500 
L 1159 2956 
Q 1356 3278 1631 3431 
Q 1906 3584 2284 3584 
Q 2666 3584 2933 3390 
Q 3200 3197 3328 2828 
z
" transform="scale(0.015625)"/>
       <path id="DejaVuSans-70" d="M 1159 525 
L 1159 -1331 
L 581 -1331 
L 581 3500 
L 1159 3500 
L 1159 2969 
Q 1341 3281 1617 3432 
Q 1894 3584 2278 3584 
Q 2916 3584 3314 3078 
Q 3713 2572 3713 1747 
Q 3713 922 3314 415 
Q 2916 -91 2278 -91 
Q 1894 -91 1617 61 
Q 1341 213 1159 525 
z
M 3116 1747 
Q 3116 2381 2855 2742 
Q 2594 3103 2138 3103 
Q 1681 3103 1420 2742 
Q 1159 2381 1159 1747 
Q 1159 1113 1420 752 
Q 1681 391 2138 391 
Q 2594 391 2855 752 
Q 3116 1113 3116 1747 
z
" transform="scale(0.015625)"/>
       <path id="DejaVuSans-6c" d="M 603 4863 
L 1178 4863 
L 1178 0 
L 603 0 
L 603 4863 
z
" transform="scale(0.015625)"/>
       <path id="DejaVuSans-69" d="M 603 3500 
L 1178 3500 
L 1178 0 
L 603 0 
L 603 3500 
z
M 603 4863 
L 1178 4863 
L 1178 4134 
L 603 4134 
L 603 4863 
z
" transform="scale(0.015625)"/>
       <path id="DejaVuSans-74" d="M 1172 4494 
L 1172 3500 
L 2356 3500 
L 2356 3053 
L 1172 3053 
L 1172 1153 
Q 1172 725 1289 603 
Q 1406 481 1766 481 
L 2356 481 
L 2356 0 
L 1766 0 
Q 1100 0 847 248 
Q 594 497 594 1153 
L 594 3053 
L 172 3053 
L 172 3500 
L 594 3500 
L 594 4494 
L 1172 4494 
z
" transform="scale(0.015625)"/>
       <path id="DejaVuSans-64" d="M 2906 2969 
L 2906 4863 
L 3481 4863 
L 3481 0 
L 2906 0 
L 2906 525 
Q 2725 213 2448 61 
Q 2172 -91 1784 -91 
Q 1150 -91 751 415 
Q 353 922 353 1747 
Q 353 2572 751 3078 
Q 1150 3584 1784 3584 
Q 2172 3584 2448 3432 
Q 2725 3281 2906 2969 
z
M 947 1747 
Q 947 1113 1208 752 
Q 1469 391 1925 391 
Q 2381 391 2643 752 
Q 2906 1113 2906 1747 
Q 2906 2381 2643 2742 
Q 2381 3103 1925 3103 
Q 1469 3103 1208 2742 
Q 947 2381 947 1747 
z
" transform="scale(0.015625)"/>
      </defs>
      <use xlink:href="#DejaVuSans-46"/>
      <use xlink:href="#DejaVuSans-72" x="50.269531"/>
      <use xlink:href="#DejaVuSans-65" x="89.132812"/>
      <use xlink:href="#DejaVuSans-71" x="150.65625"/>
      <use xlink:href="#DejaVuSans-75" x="214.132812"/>
      <use xlink:href="#DejaVuSans-65" x="277.511719"/>
      <use xlink:href="#DejaVuSans-6e" x="339.035156"/>
      <use xlink:href="#DejaVuSans-63" x="402.414062"/>
      <use xlink:href="#DejaVuSans-79" x="457.394531"/>
      <use xlink:href="#DejaVuSans-20" x="516.574219"/>
      <use xlink:href="#DejaVuSans-41" x="548.361328"/>
      <use xlink:href="#DejaVuSans-6d" x="616.769531"/>
      <use xlink:href="#DejaVuSans-70" x="714.181641"/>
      <use xlink:href="#DejaVuSans-6c" x="777.658203"/>
      <use xlink:href="#DejaVuSans-69" x="805.441406"/>
      <use xlink:href="#DejaVuSans-74" x="833.224609"/>
      <use xlink:href="#DejaVuSans-75" x="872.433594"/>
      <use xlink:href="#DejaVuSans-64" x="935.8125"/>
      <use xlink:href="#DejaVuSans-65" x="999.289062"/>
     </g>
    </g>
   </g>
   <g id="line2d_141">
    <path d="M -1 496.420558 
L 102.779545 496.419931 
L 182.325607 484.155277 
L 228.857069 471.99001 
L 261.871668 466.275166 
L 287.479779 351.769761 
L 308.40313 235.287784 
L 326.093572 238.467497 
L 341.417729 241.99193 
L 354.934593 207.810957 
L 367.025841 333.953141 
L 377.963704 360.391421 
L 387.949191 250.381577 
L 397.134949 108.582542 
L 405.639633 157.936683 
L 413.557303 332.457643 
L 420.96379 213.375253 
L 427.921114 131.263163 
L 434.480654 122.307266 
L 440.685447 101.597506 
L 446.571902 280.7208 
L 452.171095 335.150695 
L 457.509765 252.281783 
L 462.611081 181.632099 
L 467.495253 129.736251 
L 472.180013 44.4375 
L 476.68101 272.032915 
L 481.012117 352.692266 
L 485.185694 222.838897 
L 489.212798 415.892195 
L 493.103364 276.937057 
L 496.866348 371.505974 
L 500.509851 253.097647 
L 504.041228 353.979711 
L 507.467175 411.288877 
L 510.793806 343.456709 
L 514.026715 376.527468 
L 517.171041 298.713498 
L 520.231508 410.913334 
L 523.212473 436.643452 
L 526.117963 248.712945 
L 528.951704 236.435838 
L 531.717156 219.39399 
L 534.417533 162.425911 
L 537.055826 344.541054 
L 539.634827 221.710961 
L 542.157142 356.247127 
L 544.625209 282.213547 
L 547.041314 151.814129 
L 549.407598 194.676186 
L 551.726075 67.212725 
L 553.998638 45.176053 
L 556.227071 152.738903 
L 558.413056 171.708324 
L 560.558178 354.997295 
L 562.663938 395.786836 
L 564.731755 318.823203 
L 566.762971 297.063015 
L 568.758859 110.375881 
L 570.720629 212.351622 
L 572.649425 51.771417 
L 574.54634 186.677632 
L 576.412409 283.027567 
L 578.248619 314.689331 
L 580.055912 353.831941 
L 581.835183 274.149596 
L 583.587289 302.000119 
L 585.313047 284.534914 
L 587.013236 279.863533 
L 588.688605 387.444233 
L 590.339867 367.60537 
L 591.967705 239.190096 
L 593.572776 353.397719 
L 595.155708 216.275852 
L 596.717102 196.249408 
L 598.257537 250.830625 
L 599.777569 244.098456 
L 601.27773 361.160726 
L 602.758534 348.019288 
L 604.220474 355.745928 
L 605.664024 305.660999 
L 607.089641 350.425774 
L 608.497765 285.993201 
L 609.888821 359.440424 
L 611.263218 334.896812 
L 612.621348 377.919743 
L 613.963594 416.032366 
L 615.290322 411.520082 
L 616.601887 442.271542 
L 617.898632 429.378836 
L 619.180888 437.840128 
L 620.448975 363.543272 
L 621.703203 395.414806 
L 622.943872 390.760565 
L 624.17127 384.585887 
L 625.385681 319.812174 
L 626.587375 374.71281 
L 627.776615 363.809889 
L 628.953659 305.707022 
L 630.118752 383.146608 
L 631.272136 408.274298 
L 632.414043 436.678316 
L 633.544699 394.338366 
L 634.664325 453.410858 
L 635.773132 469.684559 
L 636.871329 452.319479 
L 637.959117 405.998558 
L 639.03669 322.406505 
L 640.104239 363.320044 
L 641.161949 354.541861 
L 642.209999 347.823099 
L 643.248565 428.668379 
L 644.277816 408.320127 
L 645.297918 469.118694 
L 646.309032 420.456961 
L 647.311315 409.208182 
L 648.30492 487.988003 
L 649.289997 412.082143 
L 650.26669 360.654952 
L 651.23514 476.483496 
L 652.195487 342.36841 
L 653.147863 385.622248 
L 654.092401 417.845487 
L 655.95847 367.913501 
L 656.880248 449.878943 
L 657.79468 473.338368 
L 658.701884 431.662748 
L 659.601973 471.494505 
L 661.381244 355.657684 
L 662.260641 468.844612 
L 663.13335 346.037229 
L 663.999473 441.29468 
L 664.859108 483.915533 
L 665.712351 433.885619 
L 666.559297 440.049049 
L 667.400039 376.967589 
L 668.234666 463.587622 
L 669.063267 484.449338 
L 669.885928 456.26888 
L 670.702733 437.547256 
L 671.513766 473.013502 
L 672.319108 476.672626 
L 673.118837 428.07323 
L 673.913032 486.509258 
L 674.701769 416.636922 
L 675.485121 491.545218 
L 676.263163 461.00043 
L 677.035965 447.183813 
L 677.803598 413.387147 
L 678.566131 464.364483 
L 679.32363 434.086907 
L 680.076162 467.494672 
L 680.823791 473.042691 
L 681.566582 455.994039 
L 683.037893 472.404036 
L 683.766535 467.1523 
L 684.49058 483.978288 
L 685.210085 486.622279 
L 685.925107 478.105005 
L 686.635702 473.989733 
L 687.341924 483.772826 
L 688.043826 490.029422 
L 688.741462 480.688333 
L 689.434882 462.264557 
L 690.124138 468.950756 
L 690.809279 458.771701 
L 691.490353 456.062672 
L 692.167409 464.975791 
L 692.840495 496.33984 
L 694.174936 458.446817 
L 694.836383 463.388783 
L 695.49404 461.728559 
L 696.147948 438.805926 
L 696.798153 469.197174 
L 697.444693 446.087875 
L 698.087612 436.924637 
L 698.726949 478.442017 
L 699.362744 456.391524 
L 699.995036 462.500262 
L 700.623864 458.826039 
L 701.249264 442.354752 
L 701.871275 465.566584 
L 702.489933 475.393213 
L 703.105273 490.492626 
L 703.717332 489.293693 
L 704.326143 486.119026 
L 704.931742 475.994447 
L 705.534162 460.745345 
L 706.133436 463.037808 
L 706.729597 476.654133 
L 707.322676 465.568339 
L 707.912707 471.822823 
L 708.49972 479.264803 
L 709.083745 463.072506 
L 709.664813 466.081473 
L 710.818197 481.122507 
L 711.39057 471.281368 
L 711.960104 465.422806 
L 712.526824 473.190327 
L 713.09076 478.612857 
L 713.651938 450.69715 
L 714.210386 462.601872 
L 714.766129 450.239139 
L 715.319193 456.997165 
L 715.869606 461.483688 
L 716.41739 448.313031 
L 716.962573 464.430513 
L 717.505178 484.992083 
L 718.582751 477.430463 
L 719.117767 489.447013 
L 719.6503 466.793708 
L 720.180374 488.524863 
L 720.70801 460.189369 
L 721.233232 487.133953 
L 721.75606 491.925253 
L 722.276518 470.520869 
L 722.794626 457.900979 
L 723.310405 476.23726 
L 723.823877 470.356672 
L 724.843979 490.428365 
L 725.350649 488.7599 
L 725.855093 468.955242 
L 726.357329 490.114912 
L 726.857376 466.438996 
L 727.355254 454.284811 
L 727.850982 478.194792 
L 728.344577 463.467077 
L 728.836058 460.108239 
L 729.325443 477.8647 
L 729.812751 488.148835 
L 730.297998 489.222094 
L 730.781201 486.2322 
L 731.262379 487.158538 
L 731.741548 491.511541 
L 732.218724 472.744711 
L 732.693924 458.462934 
L 733.167165 473.405994 
L 733.638462 478.360263 
L 734.107832 460.869025 
L 735.040851 484.452676 
L 735.504531 489.993962 
L 735.966345 479.865773 
L 736.426309 482.01344 
L 736.884436 468.18719 
L 737.340741 468.54083 
L 737.79524 484.091321 
L 738.247945 489.314088 
L 738.698872 486.842993 
L 739.148034 482.354027 
L 739.595445 483.455 
L 740.041118 489.238348 
L 740.485067 475.634694 
L 740.927305 484.151362 
L 741.367846 477.122687 
L 741.806702 481.645656 
L 742.243886 475.732151 
L 743.11329 487.204458 
L 743.545534 475.727847 
L 743.976156 496.120177 
L 744.405169 482.268299 
L 744.832583 493.107077 
L 745.682667 491.162699 
L 746.105358 491.01091 
L 746.9461 479.057614 
L 747.364172 488.061645 
L 747.780727 482.27627 
L 748.195775 491.295314 
L 748.609328 486.517133 
L 749.021395 489.625939 
L 749.431989 482.004473 
L 749.841118 487.955178 
L 750.248794 487.63206 
L 750.655027 486.976015 
L 751.059827 490.466313 
L 751.463205 484.44194 
L 751.865169 485.950234 
L 752.26573 493.10479 
L 752.664899 492.861779 
L 753.062683 494.875059 
L 753.459093 489.440859 
L 753.854139 488.769255 
L 754.24783 486.253198 
L 754.640175 487.608894 
L 755.031183 493.5689 
L 755.420863 489.339236 
L 755.809224 490.227813 
L 756.196276 495.515751 
L 756.582026 485.666822 
L 756.966485 485.095715 
L 757.349659 492.489888 
L 757.731559 491.852812 
L 758.112192 486.056124 
L 758.491567 493.704157 
L 758.869691 485.907368 
L 759.246574 493.229711 
L 759.622223 492.731317 
L 759.996647 490.697038 
L 760.741849 497.356839 
L 761.112643 495.252761 
L 761.482243 485.176572 
L 761.850656 486.881568 
L 762.217891 485.935131 
L 762.583954 480.578102 
L 762.948853 483.901485 
L 763.312596 481.700786 
L 763.675189 484.305161 
L 764.036641 493.894173 
L 764.396957 496.447746 
L 765.114214 491.538543 
L 765.471168 494.925315 
L 765.827016 494.151509 
L 766.181763 490.558734 
L 766.535417 483.705733 
L 766.887985 487.956801 
L 767.239473 482.153425 
L 767.589888 492.246661 
L 767.939235 486.205259 
L 768.287523 488.469312 
L 768.634757 493.244445 
L 768.980943 494.407172 
L 769.326089 490.984891 
L 769.670199 489.897198 
L 770.013281 494.822876 
L 770.35534 495.675217 
L 770.696382 492.657546 
L 771.036414 492.797145 
L 771.375442 497.278271 
L 771.71347 492.295355 
L 772.050506 489.464446 
L 772.386556 495.449449 
L 772.721624 484.317553 
L 773.055716 492.190246 
L 773.388839 487.914999 
L 773.720998 489.359472 
L 774.052197 494.910112 
L 774.382444 497.404944 
L 775.040101 487.645553 
L 775.367521 496.850624 
L 775.69401 492.133416 
L 776.019572 496.572853 
L 776.344214 493.080211 
L 776.667939 493.432788 
L 776.990755 493.357896 
L 777.312664 491.36938 
L 777.633673 493.873713 
L 777.953787 494.448634 
L 778.27301 493.517924 
L 778.591348 494.425416 
L 778.908805 494.116289 
L 779.225387 494.522904 
L 779.855942 492.429405 
L 780.169925 493.592656 
L 780.483051 492.808314 
L 780.795325 489.889856 
L 781.106752 496.719198 
L 781.417336 492.419666 
L 781.727082 490.954114 
L 782.035994 492.828328 
L 782.344076 493.234868 
L 782.651334 490.153619 
L 782.957771 492.541823 
L 783.568202 491.381178 
L 783.872204 493.021252 
L 784.175403 490.776785 
L 784.477803 495.65806 
L 784.779408 492.685595 
L 785.080223 493.971574 
L 785.380251 492.465353 
L 785.679497 493.681619 
L 785.977964 496.557554 
L 786.275658 495.910978 
L 786.572581 496.846684 
L 786.868738 491.421063 
L 787.164132 496.245451 
L 787.458768 493.453881 
L 787.75265 495.469348 
L 788.045781 495.295963 
L 788.338165 496.522196 
L 788.629806 496.672478 
L 788.920708 494.615956 
L 789.210874 498.019143 
L 789.500309 496.083022 
L 789.789015 492.254353 
L 790.076997 491.866084 
L 790.364258 484.349318 
L 790.650801 492.939903 
L 790.936632 492.482657 
L 791.221751 495.724022 
L 791.506165 496.455511 
L 791.789875 494.960798 
L 792.072885 495.405688 
L 792.3552 496.546241 
L 792.636821 496.656087 
L 792.917753 493.916103 
L 793.197999 494.077303 
L 793.477563 493.599835 
L 793.756447 494.257954 
L 794.034655 495.400249 
L 794.31219 497.399727 
L 794.589055 495.550099 
L 795.140791 494.825039 
L 795.415667 495.005791 
L 795.689886 496.79021 
L 795.963452 495.537933 
L 796.236367 497.327101 
L 796.508634 496.456079 
L 796.780257 496.389185 
L 797.051239 496.104932 
L 797.59129 496.806459 
L 797.860366 497.774634 
L 798.128812 496.98131 
L 798.396632 495.811506 
L 798.663828 497.095666 
L 799.196361 494.195705 
L 799.461704 496.900682 
L 799.726435 496.558486 
L 799.990556 495.848715 
L 800.254071 496.644448 
L 800.516982 496.503407 
L 800.779293 496.855861 
L 801.041005 495.57889 
L 801.562645 497.841637 
L 801.822579 495.702728 
L 802.081925 496.742878 
L 802.340687 495.03983 
L 802.856466 496.957316 
L 803.113489 495.616297 
L 803.369938 496.047102 
L 803.625815 495.967866 
L 803.881122 495.76361 
L 804.135863 497.442094 
L 804.39004 496.183294 
L 804.643655 496.343961 
L 804.89671 497.354921 
L 805.149209 496.245673 
L 805.401154 496.15766 
L 805.652547 494.762145 
L 805.90339 495.236185 
L 806.153686 495.355671 
L 806.403437 496.778561 
L 806.652646 496.242126 
L 806.901315 495.375275 
L 807.397043 497.796739 
L 807.644106 496.542365 
L 807.890638 496.633557 
L 808.136642 497.283834 
L 808.382119 496.115618 
L 808.627073 496.346238 
L 808.871505 497.377182 
L 809.115417 496.958641 
L 809.358812 497.331968 
L 809.601692 497.0775 
L 809.844059 495.774517 
L 810.085915 496.981683 
L 810.327262 497.275739 
L 810.568103 496.504683 
L 810.80844 497.130277 
L 811.048274 496.397653 
L 811.287609 497.316023 
L 811.526445 496.931515 
L 812.002631 496.983265 
L 812.239985 497.870746 
L 812.476849 495.506067 
L 812.713226 497.42298 
L 812.949116 496.215684 
L 813.184523 497.832841 
L 813.419448 495.231417 
L 813.653893 494.197048 
L 813.88786 496.855376 
L 814.354367 496.033839 
L 814.586912 496.390824 
L 814.818986 495.820109 
L 815.050592 497.324322 
L 815.281731 497.450091 
L 815.742618 496.308088 
L 815.97237 496.609595 
L 816.201662 497.135149 
L 816.430497 496.771729 
L 816.658876 496.923783 
L 816.886802 496.066425 
L 817.114277 495.779714 
L 817.341301 496.412355 
L 817.567877 496.027412 
L 817.794006 497.381177 
L 818.019691 496.307097 
L 818.244933 496.550108 
L 818.469734 496.35916 
L 818.694095 497.670989 
L 818.918018 496.866896 
L 819.141506 493.648767 
L 819.364559 495.461972 
L 819.587179 495.742149 
L 819.809368 494.267134 
L 820.031128 496.122425 
L 820.25246 495.503556 
L 820.473366 496.038393 
L 820.913907 496.046983 
L 821.133545 495.786644 
L 821.571563 495.976499 
L 821.789947 495.897245 
L 822.007916 497.602933 
L 822.225472 496.412452 
L 822.659351 496.807711 
L 822.875676 497.529572 
L 823.091595 497.234802 
L 823.307108 495.855949 
L 823.522217 496.125207 
L 823.736924 495.91757 
L 823.95123 496.532503 
L 824.165136 496.417323 
L 824.378644 496.654655 
L 824.591756 497.129617 
L 824.804473 497.286096 
L 825.016796 496.902376 
L 825.228728 495.96311 
L 825.440268 496.987483 
L 826.07256 496.357748 
L 826.492161 495.864721 
L 826.701388 496.343085 
L 826.910233 496.306761 
L 827.1187 496.752355 
L 827.326788 496.874834 
L 827.741836 496.334691 
L 827.948799 496.976574 
L 828.155389 497.024515 
L 828.361608 496.559499 
L 828.567456 497.610305 
L 828.772937 496.765666 
L 828.97805 497.743395 
L 829.182797 497.299535 
L 829.387179 497.95669 
L 829.591198 496.1955 
L 829.794855 497.334096 
L 829.998152 497.133621 
L 830.201088 496.19724 
L 830.403667 497.038626 
L 830.605889 496.435766 
L 831.009266 497.344107 
L 831.210424 494.698351 
L 831.611686 497.088237 
L 831.811791 495.980303 
L 832.21096 497.633562 
L 832.410024 497.570404 
L 832.608744 496.993223 
L 832.80712 497.353424 
L 833.202847 496.872069 
L 833.597214 497.740414 
L 833.793891 496.214244 
L 834.186236 497.577661 
L 834.577244 496.725484 
L 834.772249 497.031574 
L 834.966924 497.830919 
L 835.161269 497.438095 
L 835.355285 497.632338 
L 835.548974 497.600052 
L 835.742337 497.793708 
L 835.935374 497.433817 
L 836.128088 497.591503 
L 836.320478 497.491543 
L 836.704293 497.065341 
L 836.895721 496.996354 
L 837.086829 497.184143 
L 837.27762 496.682124 
L 837.468094 497.389988 
L 837.658253 496.426726 
L 837.848097 497.710934 
L 838.037628 497.283767 
L 838.226846 497.228979 
L 838.415752 497.558564 
L 838.604348 496.885543 
L 838.792635 497.098588 
L 838.980613 497.720799 
L 839.168284 497.874267 
L 839.355649 497.429457 
L 839.542708 497.35589 
L 839.915913 496.871121 
L 840.102062 496.857601 
L 840.28791 497.48686 
L 840.473456 497.121835 
L 840.658704 497.555843 
L 840.843653 496.837742 
L 841.212658 497.655874 
L 841.763952 497.429564 
L 841.947129 497.755237 
L 842.130015 496.40106 
L 842.494914 497.21664 
L 842.67693 497.046045 
L 842.858657 497.472016 
L 843.040097 497.612525 
L 843.402118 497.010734 
L 843.582702 497.568843 
L 843.763001 497.664366 
L 843.943018 497.263769 
L 844.122753 497.812994 
L 845.017229 497.563834 
L 845.195291 497.840471 
L 845.373077 497.806747 
L 845.727824 496.702399 
L 845.904787 497.450979 
L 846.081478 497.344064 
L 846.257898 497.052647 
L 846.434046 497.56944 
L 846.609925 497.577582 
L 846.785534 496.94923 
L 846.960875 497.476848 
L 847.135949 496.88458 
L 847.485297 497.300326 
L 847.659573 497.068884 
L 848.007333 497.468683 
L 848.180818 497.569388 
L 848.354042 497.398696 
L 848.527005 497.710578 
L 848.699707 497.368834 
L 848.87215 497.381787 
L 849.21626 497.830503 
L 849.387929 497.507421 
L 849.559342 497.481342 
L 849.901401 497.232808 
L 850.072049 497.224405 
L 850.242443 497.391972 
L 850.412585 496.524232 
L 850.752114 497.586831 
L 850.921503 497.767607 
L 851.090641 497.026332 
L 851.596568 497.455021 
L 851.764715 497.3149 
L 851.932617 497.326441 
L 852.100273 497.092721 
L 852.267685 497.724302 
L 852.601777 497.957341 
L 852.768459 497.731428 
L 852.9349 497.898596 
L 853.101099 497.191417 
L 853.267059 497.981351 
L 853.432778 497.231664 
L 853.763501 497.944191 
L 853.928505 497.569744 
L 854.093273 497.760292 
L 854.257805 497.440394 
L 854.422101 497.849135 
L 854.586162 497.333965 
L 854.749989 497.320391 
L 854.913582 498.014287 
L 855.240071 497.554701 
L 855.402967 497.705356 
L 855.565633 497.442129 
L 856.052252 497.740643 
L 856.214 497.579059 
L 856.375522 497.845217 
L 856.697883 497.069381 
L 857.499848 497.849568 
L 857.978351 497.420669 
L 858.137409 497.880783 
L 858.296248 497.951547 
L 858.454866 497.500262 
L 858.613266 497.448928 
L 858.771448 497.522766 
L 858.929412 497.808985 
L 859.087158 497.409686 
L 859.402003 497.467127 
L 859.559102 497.821453 
L 859.872656 497.948668 
L 860.029112 497.366373 
L 860.185355 497.433718 
L 860.341386 497.727376 
L 860.652813 497.679379 
L 860.80821 497.323325 
L 860.963397 497.507916 
L 861.118374 497.448799 
L 861.273143 497.001161 
L 861.427703 497.847577 
L 861.582055 497.394978 
L 861.736199 497.858576 
L 862.043869 497.542073 
L 862.350716 497.892939 
L 862.503832 497.62342 
L 862.656745 497.598525 
L 862.809454 497.215021 
L 863.266365 497.365013 
L 863.418265 497.718187 
L 863.569965 497.719727 
L 863.721464 497.852907 
L 863.872764 497.538697 
L 864.023864 497.630468 
L 864.325469 497.482082 
L 864.475975 497.801528 
L 864.626284 497.691735 
L 864.776396 497.254914 
L 864.926312 497.176146 
L 865.225558 497.857968 
L 865.374889 497.847319 
L 865.524025 497.723734 
L 865.672969 497.844657 
L 865.821719 497.624539 
L 866.266816 497.616432 
L 866.414799 497.471913 
L 866.562591 497.666994 
L 866.857606 497.579652 
L 867.004829 497.969782 
L 867.298711 497.452688 
L 867.44537 497.988283 
L 867.591842 497.969093 
L 867.738127 497.814267 
L 867.884226 497.838932 
L 868.175867 497.665588 
L 868.466769 497.932018 
L 868.611944 497.396866 
L 868.756935 497.678666 
L 868.901744 497.408268 
L 869.04637 497.515196 
L 869.190814 497.862531 
L 869.623058 497.911838 
L 869.766778 497.08206 
L 869.910319 497.722963 
L 870.05368 497.451705 
L 870.196863 497.75994 
L 870.339867 497.649943 
L 870.482693 497.241583 
L 870.767813 497.571032 
L 870.910107 497.903494 
L 871.052226 497.682576 
L 871.194169 497.8788 
L 871.335936 497.579965 
L 871.477529 497.602716 
L 871.76019 497.917542 
L 871.901261 497.624892 
L 872.042158 497.765537 
L 872.182882 497.57323 
L 872.463814 497.963347 
L 872.604023 497.894921 
L 872.883927 497.331798 
L 873.023624 497.671133 
L 873.163151 497.646089 
L 873.441696 497.942807 
L 873.580716 497.868746 
L 873.719567 497.584876 
L 873.858251 497.76367 
L 874.135116 497.722837 
L 874.549166 497.853597 
L 874.686852 497.527734 
L 874.961728 497.938662 
L 875.235947 497.614903 
L 875.509513 497.872957 
L 875.646051 497.942918 
L 875.782428 497.575989 
L 875.918642 497.56058 
L 876.190587 497.852959 
L 876.461889 497.514883 
L 876.732551 497.912079 
L 876.867643 497.601073 
L 877.002577 497.76768 
L 877.137351 497.717057 
L 877.271968 497.84271 
L 877.674873 497.495892 
L 878.076369 497.936186 
L 878.343254 497.675884 
L 878.476465 497.854982 
L 878.609521 497.658087 
L 878.742422 497.891025 
L 878.87517 497.771874 
L 879.007765 497.837758 
L 879.140207 497.769665 
L 879.272496 497.872847 
L 879.404633 497.520394 
L 879.66845 497.851579 
L 879.800132 497.566211 
L 879.931663 497.858716 
L 880.063043 497.528317 
L 880.194274 497.832307 
L 880.587066 497.864296 
L 880.717698 497.674755 
L 880.848183 497.908974 
L 880.978518 497.750816 
L 881.108706 497.944373 
L 881.238747 497.582818 
L 881.498387 497.868134 
L 881.627986 497.854578 
L 881.75744 497.724928 
L 881.886748 497.924887 
L 882.01591 497.689585 
L 882.144927 497.933117 
L 882.2738 497.816448 
L 882.402527 497.937233 
L 882.65955 497.623197 
L 882.787846 497.833098 
L 883.427183 497.809188 
L 883.809083 497.900901 
L 884.062978 497.611621 
L 884.189716 497.93203 
L 884.316313 497.803676 
L 884.442771 497.909143 
L 884.821312 497.627842 
L 885.07298 497.946267 
L 885.699747 497.89864 
L 885.824691 497.927225 
L 885.949498 497.740774 
L 886.07417 497.985295 
L 886.323109 497.845054 
L 886.447376 497.759927 
L 886.571509 497.901672 
L 886.819372 497.809921 
L 887.190167 497.908866 
L 887.313499 497.743266 
L 887.436699 497.867821 
L 887.682703 497.603845 
L 887.92818 497.982767 
L 888.050722 497.820592 
L 888.173134 497.909822 
L 888.539587 497.671994 
L 888.78324 497.924632 
L 888.904873 497.721476 
L 889.147753 497.920486 
L 889.269 497.829391 
L 889.39012 497.89262 
L 889.511112 497.622593 
L 889.631976 497.898418 
L 889.752713 497.717765 
L 889.873323 497.963098 
L 889.993807 497.94479 
L 890.234396 497.735618 
L 890.474481 497.923418 
L 890.714065 497.833857 
L 890.83367 497.666576 
L 891.072506 497.930362 
L 891.191738 497.713882 
L 891.429831 497.920471 
L 891.66743 497.797292 
L 891.786046 497.997619 
L 891.904539 497.740797 
L 892.612941 497.914555 
L 892.848107 497.894162 
L 892.965509 497.924415 
L 893.082791 497.667319 
L 893.316997 497.981681 
L 893.433921 497.779683 
L 893.550725 497.957858 
L 893.900428 497.78377 
L 894.132973 497.959104 
L 894.249069 497.973472 
L 894.480908 497.874898 
L 894.712281 497.77078 
L 894.943188 497.980928 
L 895.173631 497.81173 
L 895.403613 497.949983 
L 895.518431 497.7433 
L 896.090805 497.86976 
L 896.204937 497.794987 
L 896.318957 497.934253 
L 896.432864 497.775584 
L 896.660338 497.956181 
L 896.773906 497.824233 
L 897.113938 497.981835 
L 897.340067 497.947844 
L 897.452965 497.596528 
L 897.565752 497.95771 
L 897.90345 497.863664 
L 898.12803 497.85252 
L 898.240156 497.79421 
L 898.464079 497.846364 
L 898.799147 497.832196 
L 898.91062 498.015986 
L 899.021984 497.858194 
L 899.244388 497.93076 
L 899.355429 497.872818 
L 899.577189 497.94942 
L 899.687909 497.851964 
L 899.909028 497.922127 
L 900.019428 497.807412 
L 900.129721 497.985534 
L 900.239909 497.874945 
L 900.349991 498.010173 
L 900.459968 497.837941 
L 900.56984 498.010686 
L 900.679606 497.722671 
L 900.898824 497.883874 
L 901.117624 497.870009 
L 901.445045 497.965332 
L 901.771533 497.923735 
L 901.988678 497.885778 
L 902.097096 497.803511 
L 902.313626 497.984698 
L 902.421737 497.860785 
L 902.637656 497.996544 
L 902.853169 497.796325 
L 902.960774 497.941313 
L 903.068278 497.837086 
L 903.282985 497.926479 
L 903.604294 497.962586 
L 903.711197 497.887406 
L 903.818001 497.965047 
L 904.031311 497.831959 
L 904.137817 497.94659 
L 904.244225 497.67218 
L 904.350534 498.032413 
L 904.456745 497.801145 
L 904.562858 497.920722 
L 904.668872 497.825376 
L 904.880608 497.906042 
L 904.986329 497.84111 
L 905.091954 497.97754 
L 905.302911 497.935988 
L 905.408244 498.004071 
L 905.618621 497.905413 
L 905.828613 497.932508 
L 906.142883 497.626955 
L 906.247449 497.946767 
L 906.351919 497.871136 
L 906.456294 498.008714 
L 906.664761 497.981582 
L 908.216304 497.872152 
L 908.318998 498.004754 
L 908.524111 497.912329 
L 908.62653 498.004689 
L 908.728858 497.869276 
L 908.831095 497.941602 
L 908.93324 497.83421 
L 909.035295 497.984471 
L 909.239133 497.81818 
L 909.44261 497.93824 
L 910.454615 497.884159 
L 910.65595 497.940613 
L 911.257843 497.951153 
L 911.457775 498.014841 
L 911.856596 497.791542 
L 912.055488 497.948707 
L 912.154805 497.836471 
L 912.353181 497.894958 
L 912.551216 497.933793 
L 912.650105 497.776635 
L 912.946261 497.964983 
L 913.044811 498.025959 
L 913.143276 497.878375 
L 913.241656 497.97708 
L 913.339952 497.893068 
L 913.438164 497.977291 
L 913.536292 497.864334 
L 913.732297 497.948477 
L 916.058607 498.009847 
L 916.154521 497.837282 
L 916.441782 498.023295 
L 916.63289 497.924314 
L 916.823681 497.964953 
L 917.394158 497.983176 
L 917.488962 497.868729 
L 917.678337 498.000249 
L 917.961813 497.923424 
L 918.526674 497.994286 
L 918.714345 497.813617 
L 918.90171 497.967658 
L 919.088769 497.936589 
L 919.555087 497.943489 
L 919.741085 497.892124 
L 919.926782 498.030448 
L 920.112179 497.903919 
L 920.297277 497.944509 
L 920.389714 497.957353 
L 920.482076 497.784366 
L 920.850786 498.002746 
L 920.942778 497.921264 
L 921.126543 497.944663 
L 921.401638 497.983497 
L 921.676076 497.891672 
L 921.858671 497.952276 
L 922.040975 497.970581 
L 922.132019 497.998322 
L 922.222991 497.907986 
L 922.404718 497.956983 
L 922.495474 497.993974 
L 922.586158 497.773057 
L 922.67677 497.834657 
L 923.128763 497.992209 
L 923.309062 497.914848 
L 923.399106 497.987526 
L 923.578982 497.959959 
L 923.758576 497.957133 
L 923.848268 497.898704 
L 924.116924 498.027121 
L 924.206336 497.900886 
L 924.384952 497.967546 
L 924.741352 498.021386 
L 925.007927 497.938117 
L 926.769446 498.005416 
L 926.94412 497.937129 
L 927.031358 497.892847 
L 927.118529 497.988781 
L 927.292672 497.803843 
L 927.466552 497.957184 
L 928.590395 497.974764 
L 928.762321 497.942988 
L 929.105403 497.922274 
L 929.191013 498.025183 
L 929.362043 497.931406 
L 929.532817 497.936915 
L 930.889944 497.985273 
L 931.058462 497.930748 
L 931.226733 497.986926 
L 931.310776 498.012563 
L 931.478678 497.930776 
L 931.646334 497.971781 
L 931.73007 497.921994 
L 931.813746 498.019513 
L 931.89736 497.866411 
L 932.147838 497.975961 
L 932.397771 497.996452 
L 932.480961 497.991154 
L 932.564091 497.869606 
L 932.73017 498.029255 
L 932.896009 497.939321 
L 934.377875 497.983401 
L 934.459643 497.874338 
L 934.541352 497.973011 
L 934.623003 497.85896 
L 934.786132 497.991512 
L 934.867609 497.937729 
L 934.949028 498.02815 
L 935.03039 497.893329 
L 935.27413 498.006974 
L 936.002258 497.946008 
L 936.082877 498.036263 
L 936.243944 497.891034 
L 936.404786 497.909317 
L 936.805908 497.989873 
L 936.965964 497.963348 
L 937.68347 497.966768 
L 937.842309 497.966849 
L 938.159327 497.94048 
L 938.317509 497.936071 
L 939.496972 498.009043 
L 939.731417 497.949056 
L 939.887447 497.985697 
L 940.043266 497.974868 
L 940.819204 497.984344 
L 940.973764 497.894087 
L 941.128116 498.019678 
L 942.049894 497.963278 
L 942.202806 497.971535 
L 942.279186 497.914369 
L 942.431793 497.929788 
L 942.812426 498.01017 
L 943.3432 497.985206 
L 943.720827 498.024012 
L 943.946808 497.908558 
L 944.172345 497.993885 
L 944.39744 497.996496 
L 944.547258 498.000138 
L 944.771619 497.927239 
L 944.92095 498.001993 
L 945.144582 498.015483 
L 945.96086 497.929005 
L 946.108652 497.965338 
L 946.403667 497.981698 
L 946.624431 497.986897 
L 946.771372 497.984258 
L 946.918125 497.980078 
L 947.06469 497.947945 
L 947.284188 498.031044 
L 947.430287 497.954409 
L 947.721928 498.003041 
L 947.940174 497.988847 
L 948.302996 497.944952 
L 948.664675 498.027585 
L 948.881137 497.955456 
L 949.025218 497.989034 
L 949.241002 497.971756 
L 951.02359 497.974041 
L 951.165008 497.902008 
L 951.376808 498.012077 
L 951.517792 498.013551 
L 952.63947 497.974696 
L 952.709212 497.896692 
L 952.918184 497.992981 
L 953.265628 497.944575 
L 953.473591 497.921991 
L 953.681177 498.011716 
L 954.095227 497.955866 
L 954.301693 498.010332 
L 954.507789 497.916641 
L 954.64498 498.017519 
L 954.918872 497.921024 
L 955.055574 498.016392 
L 955.53275 497.964212 
L 955.736648 498.013562 
L 956.143361 497.981466 
L 957.220934 497.964665 
L 957.488754 497.977648 
L 957.822652 497.937437 
L 957.889315 498.028792 
L 957.95594 497.937965 
L 958.222052 497.997684 
L 958.354877 497.992207 
L 958.487548 498.021731 
L 958.686268 497.970699 
L 959.016705 497.988262 
L 959.280371 498.003601 
L 960.198462 497.960838 
L 960.654767 497.965103 
L 960.784808 497.972124 
L 960.979593 498.024225 
L 961.174048 497.985802 
L 961.497408 497.995459 
L 962.077172 497.972996 
L 962.398002 498.004358 
L 962.845662 497.9765 
L 963.291582 497.986036 
L 963.672426 497.972069 
L 963.799093 497.988531 
L 964.115151 497.935477 
L 964.304369 498.014496 
L 964.744669 497.985143 
L 966.241569 497.992354 
L 966.612763 497.976174 
L 966.921177 498.029117 
L 967.105828 497.945427 
L 967.902567 497.997882 
L 969.600063 498.000941 
L 969.900562 497.977563 
L 972.394168 497.991032 
L 972.570226 497.962307 
L 972.746015 498.00787 
L 974.662125 497.959307 
L 974.719692 497.923078 
L 974.777231 498.036008 
L 974.834741 497.979863 
L 975.064492 497.970903 
L 975.636866 498.005134 
L 978.233628 497.970164 
L 978.512376 498.013891 
L 981.913755 498.006263 
L 982.021816 497.975047 
L 982.129776 497.98063 
L 983.790286 497.998468 
L 984.108919 497.993844 
L 984.479542 497.978063 
L 984.638015 497.981777 
L 985.112124 498.007954 
L 985.322213 497.994461 
L 985.89798 497.977841 
L 986.262879 498.011962 
L 986.41891 498.009815 
L 986.989215 497.997991 
L 987.865059 497.969022 
L 988.172591 498.012482 
L 988.683321 497.990601 
L 988.886978 497.978891 
L 989.039484 498.002807 
L 992.245578 497.988526 
L 992.541608 497.985817 
L 992.738537 498.008965 
L 993.278358 497.990516 
L 994.15626 498.027902 
L 994.301926 497.991822 
L 996.131204 497.993035 
L 996.369742 498.012227 
L 998.447771 498.00095 
L 998.774924 498.012925 
L 999.426447 498.001273 
L 999.843338 497.994115 
L 1001.222137 498.002362 
L 1001.450335 497.982813 
L 1001.814511 497.994876 
L 1002.313372 497.97183 
L 1002.539413 498.012753 
L 1003.214875 497.976533 
L 1003.439149 498.00263 
L 1004.37634 498.012717 
L 1004.553989 497.976709 
L 1005.085289 498.017481 
L 1005.526168 497.99421 
L 1005.745974 497.988658 
L 1006.096791 498.008494 
L 1012.027022 498.011844 
L 1012.317713 498.000456 
L 1013.061842 497.997305 
L 1013.760226 497.996508 
L 1014.005704 497.996743 
L 1014.61711 498.005083 
L 1014.860764 498.000602 
L 1015.063414 497.99043 
L 1015.588635 498.004143 
L 1015.870455 497.986234 
L 1015.870455 497.986234 
" clip-path="url(#pb4bd99fa4b)" style="fill: none; stroke: #0c5da5; stroke-width: 2; stroke-linecap: square"/>
   </g>
   <g id="patch_3">
    <path d="M 57.125 520.7175 
L 57.125 21.7575 
" style="fill: none; stroke: #000000; stroke-linejoin: miter; stroke-linecap: square"/>
   </g>
   <g id="patch_4">
    <path d="M 1061.525 520.7175 
L 1061.525 21.7575 
" style="fill: none; stroke: #000000; stroke-linejoin: miter; stroke-linecap: square"/>
   </g>
   <g id="patch_5">
    <path d="M 57.125 520.7175 
L 1061.525 520.7175 
" style="fill: none; stroke: #000000; stroke-linejoin: miter; stroke-linecap: square"/>
   </g>
   <g id="patch_6">
    <path d="M 57.125 21.7575 
L 1061.525 21.7575 
" style="fill: none; stroke: #000000; stroke-linejoin: miter; stroke-linecap: square"/>
   </g>
   <g id="text_13">
    <!-- Cape Mendocino Record no. 3744 -->
    <g transform="translate(424.84 15.7575) scale(0.16 -0.16)">
     <defs>
      <path id="DejaVuSans-43" d="M 4122 4306 
L 4122 3641 
Q 3803 3938 3442 4084 
Q 3081 4231 2675 4231 
Q 1875 4231 1450 3742 
Q 1025 3253 1025 2328 
Q 1025 1406 1450 917 
Q 1875 428 2675 428 
Q 3081 428 3442 575 
Q 3803 722 4122 1019 
L 4122 359 
Q 3791 134 3420 21 
Q 3050 -91 2638 -91 
Q 1578 -91 968 557 
Q 359 1206 359 2328 
Q 359 3453 968 4101 
Q 1578 4750 2638 4750 
Q 3056 4750 3426 4639 
Q 3797 4528 4122 4306 
z
" transform="scale(0.015625)"/>
      <path id="DejaVuSans-61" d="M 2194 1759 
Q 1497 1759 1228 1600 
Q 959 1441 959 1056 
Q 959 750 1161 570 
Q 1363 391 1709 391 
Q 2188 391 2477 730 
Q 2766 1069 2766 1631 
L 2766 1759 
L 2194 1759 
z
M 3341 1997 
L 3341 0 
L 2766 0 
L 2766 531 
Q 2569 213 2275 61 
Q 1981 -91 1556 -91 
Q 1019 -91 701 211 
Q 384 513 384 1019 
Q 384 1609 779 1909 
Q 1175 2209 1959 2209 
L 2766 2209 
L 2766 2266 
Q 2766 2663 2505 2880 
Q 2244 3097 1772 3097 
Q 1472 3097 1187 3025 
Q 903 2953 641 2809 
L 641 3341 
Q 956 3463 1253 3523 
Q 1550 3584 1831 3584 
Q 2591 3584 2966 3190 
Q 3341 2797 3341 1997 
z
" transform="scale(0.015625)"/>
      <path id="DejaVuSans-4d" d="M 628 4666 
L 1569 4666 
L 2759 1491 
L 3956 4666 
L 4897 4666 
L 4897 0 
L 4281 0 
L 4281 4097 
L 3078 897 
L 2444 897 
L 1241 4097 
L 1241 0 
L 628 0 
L 628 4666 
z
" transform="scale(0.015625)"/>
      <path id="DejaVuSans-6f" d="M 1959 3097 
Q 1497 3097 1228 2736 
Q 959 2375 959 1747 
Q 959 1119 1226 758 
Q 1494 397 1959 397 
Q 2419 397 2687 759 
Q 2956 1122 2956 1747 
Q 2956 2369 2687 2733 
Q 2419 3097 1959 3097 
z
M 1959 3584 
Q 2709 3584 3137 3096 
Q 3566 2609 3566 1747 
Q 3566 888 3137 398 
Q 2709 -91 1959 -91 
Q 1206 -91 779 398 
Q 353 888 353 1747 
Q 353 2609 779 3096 
Q 1206 3584 1959 3584 
z
" transform="scale(0.015625)"/>
      <path id="DejaVuSans-52" d="M 2841 2188 
Q 3044 2119 3236 1894 
Q 3428 1669 3622 1275 
L 4263 0 
L 3584 0 
L 2988 1197 
Q 2756 1666 2539 1819 
Q 2322 1972 1947 1972 
L 1259 1972 
L 1259 0 
L 628 0 
L 628 4666 
L 2053 4666 
Q 2853 4666 3247 4331 
Q 3641 3997 3641 3322 
Q 3641 2881 3436 2590 
Q 3231 2300 2841 2188 
z
M 1259 4147 
L 1259 2491 
L 2053 2491 
Q 2509 2491 2742 2702 
Q 2975 2913 2975 3322 
Q 2975 3731 2742 3939 
Q 2509 4147 2053 4147 
L 1259 4147 
z
" transform="scale(0.015625)"/>
      <path id="DejaVuSans-2e" d="M 684 794 
L 1344 794 
L 1344 0 
L 684 0 
L 684 794 
z
" transform="scale(0.015625)"/>
      <path id="DejaVuSans-33" d="M 2597 2516 
Q 3050 2419 3304 2112 
Q 3559 1806 3559 1356 
Q 3559 666 3084 287 
Q 2609 -91 1734 -91 
Q 1441 -91 1130 -33 
Q 819 25 488 141 
L 488 750 
Q 750 597 1062 519 
Q 1375 441 1716 441 
Q 2309 441 2620 675 
Q 2931 909 2931 1356 
Q 2931 1769 2642 2001 
Q 2353 2234 1838 2234 
L 1294 2234 
L 1294 2753 
L 1863 2753 
Q 2328 2753 2575 2939 
Q 2822 3125 2822 3475 
Q 2822 3834 2567 4026 
Q 2313 4219 1838 4219 
Q 1578 4219 1281 4162 
Q 984 4106 628 3988 
L 628 4550 
Q 988 4650 1302 4700 
Q 1616 4750 1894 4750 
Q 2613 4750 3031 4423 
Q 3450 4097 3450 3541 
Q 3450 3153 3228 2886 
Q 3006 2619 2597 2516 
z
" transform="scale(0.015625)"/>
      <path id="DejaVuSans-37" d="M 525 4666 
L 3525 4666 
L 3525 4397 
L 1831 0 
L 1172 0 
L 2766 4134 
L 525 4134 
L 525 4666 
z
" transform="scale(0.015625)"/>
      <path id="DejaVuSans-34" d="M 2419 4116 
L 825 1625 
L 2419 1625 
L 2419 4116 
z
M 2253 4666 
L 3047 4666 
L 3047 1625 
L 3713 1625 
L 3713 1100 
L 3047 1100 
L 3047 0 
L 2419 0 
L 2419 1100 
L 313 1100 
L 313 1709 
L 2253 4666 
z
" transform="scale(0.015625)"/>
     </defs>
     <use xlink:href="#DejaVuSans-43"/>
     <use xlink:href="#DejaVuSans-61" x="69.824219"/>
     <use xlink:href="#DejaVuSans-70" x="131.103516"/>
     <use xlink:href="#DejaVuSans-65" x="194.580078"/>
     <use xlink:href="#DejaVuSans-20" x="256.103516"/>
     <use xlink:href="#DejaVuSans-4d" x="287.890625"/>
     <use xlink:href="#DejaVuSans-65" x="374.169922"/>
     <use xlink:href="#DejaVuSans-6e" x="435.693359"/>
     <use xlink:href="#DejaVuSans-64" x="499.072266"/>
     <use xlink:href="#DejaVuSans-6f" x="562.548828"/>
     <use xlink:href="#DejaVuSans-63" x="623.730469"/>
     <use xlink:href="#DejaVuSans-69" x="678.710938"/>
     <use xlink:href="#DejaVuSans-6e" x="706.494141"/>
     <use xlink:href="#DejaVuSans-6f" x="769.873047"/>
     <use xlink:href="#DejaVuSans-20" x="831.054688"/>
     <use xlink:href="#DejaVuSans-52" x="862.841797"/>
     <use xlink:href="#DejaVuSans-65" x="927.824219"/>
     <use xlink:href="#DejaVuSans-63" x="989.347656"/>
     <use xlink:href="#DejaVuSans-6f" x="1044.328125"/>
     <use xlink:href="#DejaVuSans-72" x="1105.509766"/>
     <use xlink:href="#DejaVuSans-64" x="1144.873047"/>
     <use xlink:href="#DejaVuSans-20" x="1208.349609"/>
     <use xlink:href="#DejaVuSans-6e" x="1240.136719"/>
     <use xlink:href="#DejaVuSans-6f" x="1303.515625"/>
     <use xlink:href="#DejaVuSans-2e" x="1362.947266"/>
     <use xlink:href="#DejaVuSans-20" x="1394.734375"/>
     <use xlink:href="#DejaVuSans-33" x="1426.521484"/>
     <use xlink:href="#DejaVuSans-37" x="1490.144531"/>
     <use xlink:href="#DejaVuSans-34" x="1553.767578"/>
     <use xlink:href="#DejaVuSans-34" x="1617.390625"/>
    </g>
   </g>
   <g id="legend_1">
    <g id="patch_7">
     <path d="M 730.6225 58.0425 
L 1050.325 58.0425 
Q 1053.525 58.0425 1053.525 54.8425 
L 1053.525 32.9575 
Q 1053.525 29.7575 1050.325 29.7575 
L 730.6225 29.7575 
Q 727.4225 29.7575 727.4225 32.9575 
L 727.4225 54.8425 
Q 727.4225 58.0425 730.6225 58.0425 
z
" style="fill: #ffffff; stroke: #cccccc; stroke-linejoin: miter"/>
    </g>
    <g id="line2d_142">
     <path d="M 733.8225 42.715 
L 749.8225 42.715 
L 765.8225 42.715 
" style="fill: none; stroke: #0c5da5; stroke-width: 2; stroke-linecap: square"/>
    </g>
    <g id="text_14">
     <!-- Predominant Time Period = 7.18s -->
     <g transform="translate(778.6225 48.315) scale(0.16 -0.16)">
      <defs>
       <path id="DejaVuSans-50" d="M 1259 4147 
L 1259 2394 
L 2053 2394 
Q 2494 2394 2734 2622 
Q 2975 2850 2975 3272 
Q 2975 3691 2734 3919 
Q 2494 4147 2053 4147 
L 1259 4147 
z
M 628 4666 
L 2053 4666 
Q 2838 4666 3239 4311 
Q 3641 3956 3641 3272 
Q 3641 2581 3239 2228 
Q 2838 1875 2053 1875 
L 1259 1875 
L 1259 0 
L 628 0 
L 628 4666 
z
" transform="scale(0.015625)"/>
       <path id="DejaVuSans-54" d="M -19 4666 
L 3928 4666 
L 3928 4134 
L 2272 4134 
L 2272 0 
L 1638 0 
L 1638 4134 
L -19 4134 
L -19 4666 
z
" transform="scale(0.015625)"/>
       <path id="DejaVuSans-3d" d="M 678 2906 
L 4684 2906 
L 4684 2381 
L 678 2381 
L 678 2906 
z
M 678 1631 
L 4684 1631 
L 4684 1100 
L 678 1100 
L 678 1631 
z
" transform="scale(0.015625)"/>
       <path id="DejaVuSans-38" d="M 2034 2216 
Q 1584 2216 1326 1975 
Q 1069 1734 1069 1313 
Q 1069 891 1326 650 
Q 1584 409 2034 409 
Q 2484 409 2743 651 
Q 3003 894 3003 1313 
Q 3003 1734 2745 1975 
Q 2488 2216 2034 2216 
z
M 1403 2484 
Q 997 2584 770 2862 
Q 544 3141 544 3541 
Q 544 4100 942 4425 
Q 1341 4750 2034 4750 
Q 2731 4750 3128 4425 
Q 3525 4100 3525 3541 
Q 3525 3141 3298 2862 
Q 3072 2584 2669 2484 
Q 3125 2378 3379 2068 
Q 3634 1759 3634 1313 
Q 3634 634 3220 271 
Q 2806 -91 2034 -91 
Q 1263 -91 848 271 
Q 434 634 434 1313 
Q 434 1759 690 2068 
Q 947 2378 1403 2484 
z
M 1172 3481 
Q 1172 3119 1398 2916 
Q 1625 2713 2034 2713 
Q 2441 2713 2670 2916 
Q 2900 3119 2900 3481 
Q 2900 3844 2670 4047 
Q 2441 4250 2034 4250 
Q 1625 4250 1398 4047 
Q 1172 3844 1172 3481 
z
" transform="scale(0.015625)"/>
       <path id="DejaVuSans-73" d="M 2834 3397 
L 2834 2853 
Q 2591 2978 2328 3040 
Q 2066 3103 1784 3103 
Q 1356 3103 1142 2972 
Q 928 2841 928 2578 
Q 928 2378 1081 2264 
Q 1234 2150 1697 2047 
L 1894 2003 
Q 2506 1872 2764 1633 
Q 3022 1394 3022 966 
Q 3022 478 2636 193 
Q 2250 -91 1575 -91 
Q 1294 -91 989 -36 
Q 684 19 347 128 
L 347 722 
Q 666 556 975 473 
Q 1284 391 1588 391 
Q 1994 391 2212 530 
Q 2431 669 2431 922 
Q 2431 1156 2273 1281 
Q 2116 1406 1581 1522 
L 1381 1569 
Q 847 1681 609 1914 
Q 372 2147 372 2553 
Q 372 3047 722 3315 
Q 1072 3584 1716 3584 
Q 2034 3584 2315 3537 
Q 2597 3491 2834 3397 
z
" transform="scale(0.015625)"/>
      </defs>
      <use xlink:href="#DejaVuSans-50"/>
      <use xlink:href="#DejaVuSans-72" x="58.552734"/>
      <use xlink:href="#DejaVuSans-65" x="97.416016"/>
      <use xlink:href="#DejaVuSans-64" x="158.939453"/>
      <use xlink:href="#DejaVuSans-6f" x="222.416016"/>
      <use xlink:href="#DejaVuSans-6d" x="283.597656"/>
      <use xlink:href="#DejaVuSans-69" x="381.009766"/>
      <use xlink:href="#DejaVuSans-6e" x="408.792969"/>
      <use xlink:href="#DejaVuSans-61" x="472.171875"/>
      <use xlink:href="#DejaVuSans-6e" x="533.451172"/>
      <use xlink:href="#DejaVuSans-74" x="596.830078"/>
      <use xlink:href="#DejaVuSans-20" x="636.039062"/>
      <use xlink:href="#DejaVuSans-54" x="667.826172"/>
      <use xlink:href="#DejaVuSans-69" x="725.785156"/>
      <use xlink:href="#DejaVuSans-6d" x="753.568359"/>
      <use xlink:href="#DejaVuSans-65" x="850.980469"/>
      <use xlink:href="#DejaVuSans-20" x="912.503906"/>
      <use xlink:href="#DejaVuSans-50" x="944.291016"/>
      <use xlink:href="#DejaVuSans-65" x="1000.96875"/>
      <use xlink:href="#DejaVuSans-72" x="1062.492188"/>
      <use xlink:href="#DejaVuSans-69" x="1103.605469"/>
      <use xlink:href="#DejaVuSans-6f" x="1131.388672"/>
      <use xlink:href="#DejaVuSans-64" x="1192.570312"/>
      <use xlink:href="#DejaVuSans-20" x="1256.046875"/>
      <use xlink:href="#DejaVuSans-3d" x="1287.833984"/>
      <use xlink:href="#DejaVuSans-20" x="1371.623047"/>
      <use xlink:href="#DejaVuSans-37" x="1403.410156"/>
      <use xlink:href="#DejaVuSans-2e" x="1467.033203"/>
      <use xlink:href="#DejaVuSans-31" x="1498.820312"/>
      <use xlink:href="#DejaVuSans-38" x="1562.443359"/>
      <use xlink:href="#DejaVuSans-73" x="1626.066406"/>
     </g>
    </g>
   </g>
  </g>
 </g>
 <defs>
  <clipPath id="pb4bd99fa4b">
   <rect x="57.125" y="21.7575" width="1004.4" height="498.96"/>
  </clipPath>
 </defs>
</svg>
