<?xml version="1.0" encoding="utf-8" standalone="no"?>
<!DOCTYPE svg PUBLIC "-//W3C//DTD SVG 1.1//EN"
  "http://www.w3.org/Graphics/SVG/1.1/DTD/svg11.dtd">
<svg xmlns:xlink="http://www.w3.org/1999/xlink" width="1083.6175pt" height="562.7875pt" viewBox="0 0 1083.6175 562.7875" xmlns="http://www.w3.org/2000/svg" version="1.1">
 <metadata>
  <rdf:RDF xmlns:dc="http://purl.org/dc/elements/1.1/" xmlns:cc="http://creativecommons.org/ns#" xmlns:rdf="http://www.w3.org/1999/02/22-rdf-syntax-ns#">
   <cc:Work>
    <dc:type rdf:resource="http://purl.org/dc/dcmitype/StillImage"/>
    <dc:date>2023-05-16T14:41:19.632756</dc:date>
    <dc:format>image/svg+xml</dc:format>
    <dc:creator>
     <cc:Agent>
      <dc:title>Matplotlib v3.7.1, https://matplotlib.org/</dc:title>
     </cc:Agent>
    </dc:creator>
   </cc:Work>
  </rdf:RDF>
 </metadata>
 <defs>
  <style type="text/css">*{stroke-linejoin: round; stroke-linecap: butt}</style>
 </defs>
 <g id="figure_1">
  <g id="patch_1">
   <path d="M 0 562.7875 
L 1083.6175 562.7875 
L 1083.6175 0 
L 0 0 
z
" style="fill: #ffffff"/>
  </g>
  <g id="axes_1">
   <g id="patch_2">
    <path d="M 75.6175 520.7175 
L 1080.0175 520.7175 
L 1080.0175 21.7575 
L 75.6175 21.7575 
z
" style="fill: #ffffff"/>
   </g>
   <g id="matplotlib.axis_1">
    <g id="xtick_1">
     <g id="line2d_1">
      <path d="M 121.272045 520.7175 
L 121.272045 21.7575 
" clip-path="url(#p492f12b6b9)" style="fill: none; stroke-dasharray: 1.85,0.8; stroke-dashoffset: 0; stroke: #000000; stroke-opacity: 0.5; stroke-width: 0.5"/>
     </g>
     <g id="line2d_2">
      <defs>
       <path id="m16a70217ee" d="M 0 0 
L 0 -6 
" style="stroke: #000000"/>
      </defs>
      <g>
       <use xlink:href="#m16a70217ee" x="121.272045" y="520.7175" style="stroke: #000000"/>
      </g>
     </g>
     <g id="line2d_3">
      <defs>
       <path id="m08b874ac1c" d="M 0 0 
L 0 6 
" style="stroke: #000000"/>
      </defs>
      <g>
       <use xlink:href="#m08b874ac1c" x="121.272045" y="21.7575" style="stroke: #000000"/>
      </g>
     </g>
     <g id="text_1">
      <!-- 0 -->
      <g transform="translate(116.182045 536.375) scale(0.16 -0.16)">
       <defs>
        <path id="DejaVuSans-30" d="M 2034 4250 
Q 1547 4250 1301 3770 
Q 1056 3291 1056 2328 
Q 1056 1369 1301 889 
Q 1547 409 2034 409 
Q 2525 409 2770 889 
Q 3016 1369 3016 2328 
Q 3016 3291 2770 3770 
Q 2525 4250 2034 4250 
z
M 2034 4750 
Q 2819 4750 3233 4129 
Q 3647 3509 3647 2328 
Q 3647 1150 3233 529 
Q 2819 -91 2034 -91 
Q 1250 -91 836 529 
Q 422 1150 422 2328 
Q 422 3509 836 4129 
Q 1250 4750 2034 4750 
z
" transform="scale(0.015625)"/>
       </defs>
       <use xlink:href="#DejaVuSans-30"/>
      </g>
     </g>
    </g>
    <g id="xtick_2">
     <g id="line2d_4">
      <path d="M 281.210898 520.7175 
L 281.210898 21.7575 
" clip-path="url(#p492f12b6b9)" style="fill: none; stroke-dasharray: 1.85,0.8; stroke-dashoffset: 0; stroke: #000000; stroke-opacity: 0.5; stroke-width: 0.5"/>
     </g>
     <g id="line2d_5">
      <g>
       <use xlink:href="#m16a70217ee" x="281.210898" y="520.7175" style="stroke: #000000"/>
      </g>
     </g>
     <g id="line2d_6">
      <g>
       <use xlink:href="#m08b874ac1c" x="281.210898" y="21.7575" style="stroke: #000000"/>
      </g>
     </g>
     <g id="text_2">
      <!-- 5 -->
      <g transform="translate(276.120898 536.375) scale(0.16 -0.16)">
       <defs>
        <path id="DejaVuSans-35" d="M 691 4666 
L 3169 4666 
L 3169 4134 
L 1269 4134 
L 1269 2991 
Q 1406 3038 1543 3061 
Q 1681 3084 1819 3084 
Q 2600 3084 3056 2656 
Q 3513 2228 3513 1497 
Q 3513 744 3044 326 
Q 2575 -91 1722 -91 
Q 1428 -91 1123 -41 
Q 819 9 494 109 
L 494 744 
Q 775 591 1075 516 
Q 1375 441 1709 441 
Q 2250 441 2565 725 
Q 2881 1009 2881 1497 
Q 2881 1984 2565 2268 
Q 2250 2553 1709 2553 
Q 1456 2553 1204 2497 
Q 953 2441 691 2322 
L 691 4666 
z
" transform="scale(0.015625)"/>
       </defs>
       <use xlink:href="#DejaVuSans-35"/>
      </g>
     </g>
    </g>
    <g id="xtick_3">
     <g id="line2d_7">
      <path d="M 441.149751 520.7175 
L 441.149751 21.7575 
" clip-path="url(#p492f12b6b9)" style="fill: none; stroke-dasharray: 1.85,0.8; stroke-dashoffset: 0; stroke: #000000; stroke-opacity: 0.5; stroke-width: 0.5"/>
     </g>
     <g id="line2d_8">
      <g>
       <use xlink:href="#m16a70217ee" x="441.149751" y="520.7175" style="stroke: #000000"/>
      </g>
     </g>
     <g id="line2d_9">
      <g>
       <use xlink:href="#m08b874ac1c" x="441.149751" y="21.7575" style="stroke: #000000"/>
      </g>
     </g>
     <g id="text_3">
      <!-- 10 -->
      <g transform="translate(430.969751 536.375) scale(0.16 -0.16)">
       <defs>
        <path id="DejaVuSans-31" d="M 794 531 
L 1825 531 
L 1825 4091 
L 703 3866 
L 703 4441 
L 1819 4666 
L 2450 4666 
L 2450 531 
L 3481 531 
L 3481 0 
L 794 0 
L 794 531 
z
" transform="scale(0.015625)"/>
       </defs>
       <use xlink:href="#DejaVuSans-31"/>
       <use xlink:href="#DejaVuSans-30" x="63.623047"/>
      </g>
     </g>
    </g>
    <g id="xtick_4">
     <g id="line2d_10">
      <path d="M 601.088603 520.7175 
L 601.088603 21.7575 
" clip-path="url(#p492f12b6b9)" style="fill: none; stroke-dasharray: 1.85,0.8; stroke-dashoffset: 0; stroke: #000000; stroke-opacity: 0.5; stroke-width: 0.5"/>
     </g>
     <g id="line2d_11">
      <g>
       <use xlink:href="#m16a70217ee" x="601.088603" y="520.7175" style="stroke: #000000"/>
      </g>
     </g>
     <g id="line2d_12">
      <g>
       <use xlink:href="#m08b874ac1c" x="601.088603" y="21.7575" style="stroke: #000000"/>
      </g>
     </g>
     <g id="text_4">
      <!-- 15 -->
      <g transform="translate(590.908603 536.375) scale(0.16 -0.16)">
       <use xlink:href="#DejaVuSans-31"/>
       <use xlink:href="#DejaVuSans-35" x="63.623047"/>
      </g>
     </g>
    </g>
    <g id="xtick_5">
     <g id="line2d_13">
      <path d="M 761.027456 520.7175 
L 761.027456 21.7575 
" clip-path="url(#p492f12b6b9)" style="fill: none; stroke-dasharray: 1.85,0.8; stroke-dashoffset: 0; stroke: #000000; stroke-opacity: 0.5; stroke-width: 0.5"/>
     </g>
     <g id="line2d_14">
      <g>
       <use xlink:href="#m16a70217ee" x="761.027456" y="520.7175" style="stroke: #000000"/>
      </g>
     </g>
     <g id="line2d_15">
      <g>
       <use xlink:href="#m08b874ac1c" x="761.027456" y="21.7575" style="stroke: #000000"/>
      </g>
     </g>
     <g id="text_5">
      <!-- 20 -->
      <g transform="translate(750.847456 536.375) scale(0.16 -0.16)">
       <defs>
        <path id="DejaVuSans-32" d="M 1228 531 
L 3431 531 
L 3431 0 
L 469 0 
L 469 531 
Q 828 903 1448 1529 
Q 2069 2156 2228 2338 
Q 2531 2678 2651 2914 
Q 2772 3150 2772 3378 
Q 2772 3750 2511 3984 
Q 2250 4219 1831 4219 
Q 1534 4219 1204 4116 
Q 875 4013 500 3803 
L 500 4441 
Q 881 4594 1212 4672 
Q 1544 4750 1819 4750 
Q 2544 4750 2975 4387 
Q 3406 4025 3406 3419 
Q 3406 3131 3298 2873 
Q 3191 2616 2906 2266 
Q 2828 2175 2409 1742 
Q 1991 1309 1228 531 
z
" transform="scale(0.015625)"/>
       </defs>
       <use xlink:href="#DejaVuSans-32"/>
       <use xlink:href="#DejaVuSans-30" x="63.623047"/>
      </g>
     </g>
    </g>
    <g id="xtick_6">
     <g id="line2d_16">
      <path d="M 920.966308 520.7175 
L 920.966308 21.7575 
" clip-path="url(#p492f12b6b9)" style="fill: none; stroke-dasharray: 1.85,0.8; stroke-dashoffset: 0; stroke: #000000; stroke-opacity: 0.5; stroke-width: 0.5"/>
     </g>
     <g id="line2d_17">
      <g>
       <use xlink:href="#m16a70217ee" x="920.966308" y="520.7175" style="stroke: #000000"/>
      </g>
     </g>
     <g id="line2d_18">
      <g>
       <use xlink:href="#m08b874ac1c" x="920.966308" y="21.7575" style="stroke: #000000"/>
      </g>
     </g>
     <g id="text_6">
      <!-- 25 -->
      <g transform="translate(910.786308 536.375) scale(0.16 -0.16)">
       <use xlink:href="#DejaVuSans-32"/>
       <use xlink:href="#DejaVuSans-35" x="63.623047"/>
      </g>
     </g>
    </g>
    <g id="xtick_7">
     <g id="line2d_19">
      <defs>
       <path id="m7f5c73fa21" d="M 0 0 
L 0 -3 
" style="stroke: #000000"/>
      </defs>
      <g>
       <use xlink:href="#m7f5c73fa21" x="89.284275" y="520.7175" style="stroke: #000000"/>
      </g>
     </g>
     <g id="line2d_20">
      <defs>
       <path id="m391dd045d4" d="M 0 0 
L 0 3 
" style="stroke: #000000"/>
      </defs>
      <g>
       <use xlink:href="#m391dd045d4" x="89.284275" y="21.7575" style="stroke: #000000"/>
      </g>
     </g>
    </g>
    <g id="xtick_8">
     <g id="line2d_21">
      <g>
       <use xlink:href="#m7f5c73fa21" x="153.259816" y="520.7175" style="stroke: #000000"/>
      </g>
     </g>
     <g id="line2d_22">
      <g>
       <use xlink:href="#m391dd045d4" x="153.259816" y="21.7575" style="stroke: #000000"/>
      </g>
     </g>
    </g>
    <g id="xtick_9">
     <g id="line2d_23">
      <g>
       <use xlink:href="#m7f5c73fa21" x="185.247586" y="520.7175" style="stroke: #000000"/>
      </g>
     </g>
     <g id="line2d_24">
      <g>
       <use xlink:href="#m391dd045d4" x="185.247586" y="21.7575" style="stroke: #000000"/>
      </g>
     </g>
    </g>
    <g id="xtick_10">
     <g id="line2d_25">
      <g>
       <use xlink:href="#m7f5c73fa21" x="217.235357" y="520.7175" style="stroke: #000000"/>
      </g>
     </g>
     <g id="line2d_26">
      <g>
       <use xlink:href="#m391dd045d4" x="217.235357" y="21.7575" style="stroke: #000000"/>
      </g>
     </g>
    </g>
    <g id="xtick_11">
     <g id="line2d_27">
      <g>
       <use xlink:href="#m7f5c73fa21" x="249.223127" y="520.7175" style="stroke: #000000"/>
      </g>
     </g>
     <g id="line2d_28">
      <g>
       <use xlink:href="#m391dd045d4" x="249.223127" y="21.7575" style="stroke: #000000"/>
      </g>
     </g>
    </g>
    <g id="xtick_12">
     <g id="line2d_29">
      <g>
       <use xlink:href="#m7f5c73fa21" x="313.198668" y="520.7175" style="stroke: #000000"/>
      </g>
     </g>
     <g id="line2d_30">
      <g>
       <use xlink:href="#m391dd045d4" x="313.198668" y="21.7575" style="stroke: #000000"/>
      </g>
     </g>
    </g>
    <g id="xtick_13">
     <g id="line2d_31">
      <g>
       <use xlink:href="#m7f5c73fa21" x="345.186439" y="520.7175" style="stroke: #000000"/>
      </g>
     </g>
     <g id="line2d_32">
      <g>
       <use xlink:href="#m391dd045d4" x="345.186439" y="21.7575" style="stroke: #000000"/>
      </g>
     </g>
    </g>
    <g id="xtick_14">
     <g id="line2d_33">
      <g>
       <use xlink:href="#m7f5c73fa21" x="377.17421" y="520.7175" style="stroke: #000000"/>
      </g>
     </g>
     <g id="line2d_34">
      <g>
       <use xlink:href="#m391dd045d4" x="377.17421" y="21.7575" style="stroke: #000000"/>
      </g>
     </g>
    </g>
    <g id="xtick_15">
     <g id="line2d_35">
      <g>
       <use xlink:href="#m7f5c73fa21" x="409.16198" y="520.7175" style="stroke: #000000"/>
      </g>
     </g>
     <g id="line2d_36">
      <g>
       <use xlink:href="#m391dd045d4" x="409.16198" y="21.7575" style="stroke: #000000"/>
      </g>
     </g>
    </g>
    <g id="xtick_16">
     <g id="line2d_37">
      <g>
       <use xlink:href="#m7f5c73fa21" x="473.137521" y="520.7175" style="stroke: #000000"/>
      </g>
     </g>
     <g id="line2d_38">
      <g>
       <use xlink:href="#m391dd045d4" x="473.137521" y="21.7575" style="stroke: #000000"/>
      </g>
     </g>
    </g>
    <g id="xtick_17">
     <g id="line2d_39">
      <g>
       <use xlink:href="#m7f5c73fa21" x="505.125292" y="520.7175" style="stroke: #000000"/>
      </g>
     </g>
     <g id="line2d_40">
      <g>
       <use xlink:href="#m391dd045d4" x="505.125292" y="21.7575" style="stroke: #000000"/>
      </g>
     </g>
    </g>
    <g id="xtick_18">
     <g id="line2d_41">
      <g>
       <use xlink:href="#m7f5c73fa21" x="537.113062" y="520.7175" style="stroke: #000000"/>
      </g>
     </g>
     <g id="line2d_42">
      <g>
       <use xlink:href="#m391dd045d4" x="537.113062" y="21.7575" style="stroke: #000000"/>
      </g>
     </g>
    </g>
    <g id="xtick_19">
     <g id="line2d_43">
      <g>
       <use xlink:href="#m7f5c73fa21" x="569.100833" y="520.7175" style="stroke: #000000"/>
      </g>
     </g>
     <g id="line2d_44">
      <g>
       <use xlink:href="#m391dd045d4" x="569.100833" y="21.7575" style="stroke: #000000"/>
      </g>
     </g>
    </g>
    <g id="xtick_20">
     <g id="line2d_45">
      <g>
       <use xlink:href="#m7f5c73fa21" x="633.076374" y="520.7175" style="stroke: #000000"/>
      </g>
     </g>
     <g id="line2d_46">
      <g>
       <use xlink:href="#m391dd045d4" x="633.076374" y="21.7575" style="stroke: #000000"/>
      </g>
     </g>
    </g>
    <g id="xtick_21">
     <g id="line2d_47">
      <g>
       <use xlink:href="#m7f5c73fa21" x="665.064144" y="520.7175" style="stroke: #000000"/>
      </g>
     </g>
     <g id="line2d_48">
      <g>
       <use xlink:href="#m391dd045d4" x="665.064144" y="21.7575" style="stroke: #000000"/>
      </g>
     </g>
    </g>
    <g id="xtick_22">
     <g id="line2d_49">
      <g>
       <use xlink:href="#m7f5c73fa21" x="697.051915" y="520.7175" style="stroke: #000000"/>
      </g>
     </g>
     <g id="line2d_50">
      <g>
       <use xlink:href="#m391dd045d4" x="697.051915" y="21.7575" style="stroke: #000000"/>
      </g>
     </g>
    </g>
    <g id="xtick_23">
     <g id="line2d_51">
      <g>
       <use xlink:href="#m7f5c73fa21" x="729.039685" y="520.7175" style="stroke: #000000"/>
      </g>
     </g>
     <g id="line2d_52">
      <g>
       <use xlink:href="#m391dd045d4" x="729.039685" y="21.7575" style="stroke: #000000"/>
      </g>
     </g>
    </g>
    <g id="xtick_24">
     <g id="line2d_53">
      <g>
       <use xlink:href="#m7f5c73fa21" x="793.015226" y="520.7175" style="stroke: #000000"/>
      </g>
     </g>
     <g id="line2d_54">
      <g>
       <use xlink:href="#m391dd045d4" x="793.015226" y="21.7575" style="stroke: #000000"/>
      </g>
     </g>
    </g>
    <g id="xtick_25">
     <g id="line2d_55">
      <g>
       <use xlink:href="#m7f5c73fa21" x="825.002997" y="520.7175" style="stroke: #000000"/>
      </g>
     </g>
     <g id="line2d_56">
      <g>
       <use xlink:href="#m391dd045d4" x="825.002997" y="21.7575" style="stroke: #000000"/>
      </g>
     </g>
    </g>
    <g id="xtick_26">
     <g id="line2d_57">
      <g>
       <use xlink:href="#m7f5c73fa21" x="856.990767" y="520.7175" style="stroke: #000000"/>
      </g>
     </g>
     <g id="line2d_58">
      <g>
       <use xlink:href="#m391dd045d4" x="856.990767" y="21.7575" style="stroke: #000000"/>
      </g>
     </g>
    </g>
    <g id="xtick_27">
     <g id="line2d_59">
      <g>
       <use xlink:href="#m7f5c73fa21" x="888.978538" y="520.7175" style="stroke: #000000"/>
      </g>
     </g>
     <g id="line2d_60">
      <g>
       <use xlink:href="#m391dd045d4" x="888.978538" y="21.7575" style="stroke: #000000"/>
      </g>
     </g>
    </g>
    <g id="xtick_28">
     <g id="line2d_61">
      <g>
       <use xlink:href="#m7f5c73fa21" x="952.954079" y="520.7175" style="stroke: #000000"/>
      </g>
     </g>
     <g id="line2d_62">
      <g>
       <use xlink:href="#m391dd045d4" x="952.954079" y="21.7575" style="stroke: #000000"/>
      </g>
     </g>
    </g>
    <g id="xtick_29">
     <g id="line2d_63">
      <g>
       <use xlink:href="#m7f5c73fa21" x="984.941849" y="520.7175" style="stroke: #000000"/>
      </g>
     </g>
     <g id="line2d_64">
      <g>
       <use xlink:href="#m391dd045d4" x="984.941849" y="21.7575" style="stroke: #000000"/>
      </g>
     </g>
    </g>
    <g id="xtick_30">
     <g id="line2d_65">
      <g>
       <use xlink:href="#m7f5c73fa21" x="1016.92962" y="520.7175" style="stroke: #000000"/>
      </g>
     </g>
     <g id="line2d_66">
      <g>
       <use xlink:href="#m391dd045d4" x="1016.92962" y="21.7575" style="stroke: #000000"/>
      </g>
     </g>
    </g>
    <g id="xtick_31">
     <g id="line2d_67">
      <g>
       <use xlink:href="#m7f5c73fa21" x="1048.91739" y="520.7175" style="stroke: #000000"/>
      </g>
     </g>
     <g id="line2d_68">
      <g>
       <use xlink:href="#m391dd045d4" x="1048.91739" y="21.7575" style="stroke: #000000"/>
      </g>
     </g>
    </g>
    <g id="text_7">
     <!-- Time(s) -->
     <g transform="translate(547.83375 555.86) scale(0.16 -0.16)">
      <defs>
       <path id="DejaVuSans-54" d="M -19 4666 
L 3928 4666 
L 3928 4134 
L 2272 4134 
L 2272 0 
L 1638 0 
L 1638 4134 
L -19 4134 
L -19 4666 
z
" transform="scale(0.015625)"/>
       <path id="DejaVuSans-69" d="M 603 3500 
L 1178 3500 
L 1178 0 
L 603 0 
L 603 3500 
z
M 603 4863 
L 1178 4863 
L 1178 4134 
L 603 4134 
L 603 4863 
z
" transform="scale(0.015625)"/>
       <path id="DejaVuSans-6d" d="M 3328 2828 
Q 3544 3216 3844 3400 
Q 4144 3584 4550 3584 
Q 5097 3584 5394 3201 
Q 5691 2819 5691 2113 
L 5691 0 
L 5113 0 
L 5113 2094 
Q 5113 2597 4934 2840 
Q 4756 3084 4391 3084 
Q 3944 3084 3684 2787 
Q 3425 2491 3425 1978 
L 3425 0 
L 2847 0 
L 2847 2094 
Q 2847 2600 2669 2842 
Q 2491 3084 2119 3084 
Q 1678 3084 1418 2786 
Q 1159 2488 1159 1978 
L 1159 0 
L 581 0 
L 581 3500 
L 1159 3500 
L 1159 2956 
Q 1356 3278 1631 3431 
Q 1906 3584 2284 3584 
Q 2666 3584 2933 3390 
Q 3200 3197 3328 2828 
z
" transform="scale(0.015625)"/>
       <path id="DejaVuSans-65" d="M 3597 1894 
L 3597 1613 
L 953 1613 
Q 991 1019 1311 708 
Q 1631 397 2203 397 
Q 2534 397 2845 478 
Q 3156 559 3463 722 
L 3463 178 
Q 3153 47 2828 -22 
Q 2503 -91 2169 -91 
Q 1331 -91 842 396 
Q 353 884 353 1716 
Q 353 2575 817 3079 
Q 1281 3584 2069 3584 
Q 2775 3584 3186 3129 
Q 3597 2675 3597 1894 
z
M 3022 2063 
Q 3016 2534 2758 2815 
Q 2500 3097 2075 3097 
Q 1594 3097 1305 2825 
Q 1016 2553 972 2059 
L 3022 2063 
z
" transform="scale(0.015625)"/>
       <path id="DejaVuSans-28" d="M 1984 4856 
Q 1566 4138 1362 3434 
Q 1159 2731 1159 2009 
Q 1159 1288 1364 580 
Q 1569 -128 1984 -844 
L 1484 -844 
Q 1016 -109 783 600 
Q 550 1309 550 2009 
Q 550 2706 781 3412 
Q 1013 4119 1484 4856 
L 1984 4856 
z
" transform="scale(0.015625)"/>
       <path id="DejaVuSans-73" d="M 2834 3397 
L 2834 2853 
Q 2591 2978 2328 3040 
Q 2066 3103 1784 3103 
Q 1356 3103 1142 2972 
Q 928 2841 928 2578 
Q 928 2378 1081 2264 
Q 1234 2150 1697 2047 
L 1894 2003 
Q 2506 1872 2764 1633 
Q 3022 1394 3022 966 
Q 3022 478 2636 193 
Q 2250 -91 1575 -91 
Q 1294 -91 989 -36 
Q 684 19 347 128 
L 347 722 
Q 666 556 975 473 
Q 1284 391 1588 391 
Q 1994 391 2212 530 
Q 2431 669 2431 922 
Q 2431 1156 2273 1281 
Q 2116 1406 1581 1522 
L 1381 1569 
Q 847 1681 609 1914 
Q 372 2147 372 2553 
Q 372 3047 722 3315 
Q 1072 3584 1716 3584 
Q 2034 3584 2315 3537 
Q 2597 3491 2834 3397 
z
" transform="scale(0.015625)"/>
       <path id="DejaVuSans-29" d="M 513 4856 
L 1013 4856 
Q 1481 4119 1714 3412 
Q 1947 2706 1947 2009 
Q 1947 1309 1714 600 
Q 1481 -109 1013 -844 
L 513 -844 
Q 928 -128 1133 580 
Q 1338 1288 1338 2009 
Q 1338 2731 1133 3434 
Q 928 4138 513 4856 
z
" transform="scale(0.015625)"/>
      </defs>
      <use xlink:href="#DejaVuSans-54"/>
      <use xlink:href="#DejaVuSans-69" x="57.958984"/>
      <use xlink:href="#DejaVuSans-6d" x="85.742188"/>
      <use xlink:href="#DejaVuSans-65" x="183.154297"/>
      <use xlink:href="#DejaVuSans-28" x="244.677734"/>
      <use xlink:href="#DejaVuSans-73" x="283.691406"/>
      <use xlink:href="#DejaVuSans-29" x="335.791016"/>
     </g>
    </g>
   </g>
   <g id="matplotlib.axis_2">
    <g id="ytick_1">
     <g id="line2d_69">
      <path d="M 75.6175 489.624941 
L 1080.0175 489.624941 
" clip-path="url(#p492f12b6b9)" style="fill: none; stroke-dasharray: 1.85,0.8; stroke-dashoffset: 0; stroke: #000000; stroke-opacity: 0.5; stroke-width: 0.5"/>
     </g>
     <g id="line2d_70">
      <defs>
       <path id="m84229fe755" d="M 0 0 
L 6 0 
" style="stroke: #000000"/>
      </defs>
      <g>
       <use xlink:href="#m84229fe755" x="75.6175" y="489.624941" style="stroke: #000000"/>
      </g>
     </g>
     <g id="line2d_71">
      <defs>
       <path id="m28ea4762cd" d="M 0 0 
L -6 0 
" style="stroke: #000000"/>
      </defs>
      <g>
       <use xlink:href="#m28ea4762cd" x="1080.0175" y="489.624941" style="stroke: #000000"/>
      </g>
     </g>
     <g id="text_8">
      <!-- −0.02 -->
      <g transform="translate(23.085 495.703691) scale(0.16 -0.16)">
       <defs>
        <path id="DejaVuSans-2212" d="M 678 2272 
L 4684 2272 
L 4684 1741 
L 678 1741 
L 678 2272 
z
" transform="scale(0.015625)"/>
        <path id="DejaVuSans-2e" d="M 684 794 
L 1344 794 
L 1344 0 
L 684 0 
L 684 794 
z
" transform="scale(0.015625)"/>
       </defs>
       <use xlink:href="#DejaVuSans-2212"/>
       <use xlink:href="#DejaVuSans-30" x="83.789062"/>
       <use xlink:href="#DejaVuSans-2e" x="147.412109"/>
       <use xlink:href="#DejaVuSans-30" x="179.199219"/>
       <use xlink:href="#DejaVuSans-32" x="242.822266"/>
      </g>
     </g>
    </g>
    <g id="ytick_2">
     <g id="line2d_72">
      <path d="M 75.6175 394.455279 
L 1080.0175 394.455279 
" clip-path="url(#p492f12b6b9)" style="fill: none; stroke-dasharray: 1.85,0.8; stroke-dashoffset: 0; stroke: #000000; stroke-opacity: 0.5; stroke-width: 0.5"/>
     </g>
     <g id="line2d_73">
      <g>
       <use xlink:href="#m84229fe755" x="75.6175" y="394.455279" style="stroke: #000000"/>
      </g>
     </g>
     <g id="line2d_74">
      <g>
       <use xlink:href="#m28ea4762cd" x="1080.0175" y="394.455279" style="stroke: #000000"/>
      </g>
     </g>
     <g id="text_9">
      <!-- −0.01 -->
      <g transform="translate(23.085 400.534029) scale(0.16 -0.16)">
       <use xlink:href="#DejaVuSans-2212"/>
       <use xlink:href="#DejaVuSans-30" x="83.789062"/>
       <use xlink:href="#DejaVuSans-2e" x="147.412109"/>
       <use xlink:href="#DejaVuSans-30" x="179.199219"/>
       <use xlink:href="#DejaVuSans-31" x="242.822266"/>
      </g>
     </g>
    </g>
    <g id="ytick_3">
     <g id="line2d_75">
      <path d="M 75.6175 299.285617 
L 1080.0175 299.285617 
" clip-path="url(#p492f12b6b9)" style="fill: none; stroke-dasharray: 1.85,0.8; stroke-dashoffset: 0; stroke: #000000; stroke-opacity: 0.5; stroke-width: 0.5"/>
     </g>
     <g id="line2d_76">
      <g>
       <use xlink:href="#m84229fe755" x="75.6175" y="299.285617" style="stroke: #000000"/>
      </g>
     </g>
     <g id="line2d_77">
      <g>
       <use xlink:href="#m28ea4762cd" x="1080.0175" y="299.285617" style="stroke: #000000"/>
      </g>
     </g>
     <g id="text_10">
      <!-- 0.00 -->
      <g transform="translate(36.4925 305.364367) scale(0.16 -0.16)">
       <use xlink:href="#DejaVuSans-30"/>
       <use xlink:href="#DejaVuSans-2e" x="63.623047"/>
       <use xlink:href="#DejaVuSans-30" x="95.410156"/>
       <use xlink:href="#DejaVuSans-30" x="159.033203"/>
      </g>
     </g>
    </g>
    <g id="ytick_4">
     <g id="line2d_78">
      <path d="M 75.6175 204.115955 
L 1080.0175 204.115955 
" clip-path="url(#p492f12b6b9)" style="fill: none; stroke-dasharray: 1.85,0.8; stroke-dashoffset: 0; stroke: #000000; stroke-opacity: 0.5; stroke-width: 0.5"/>
     </g>
     <g id="line2d_79">
      <g>
       <use xlink:href="#m84229fe755" x="75.6175" y="204.115955" style="stroke: #000000"/>
      </g>
     </g>
     <g id="line2d_80">
      <g>
       <use xlink:href="#m28ea4762cd" x="1080.0175" y="204.115955" style="stroke: #000000"/>
      </g>
     </g>
     <g id="text_11">
      <!-- 0.01 -->
      <g transform="translate(36.4925 210.194705) scale(0.16 -0.16)">
       <use xlink:href="#DejaVuSans-30"/>
       <use xlink:href="#DejaVuSans-2e" x="63.623047"/>
       <use xlink:href="#DejaVuSans-30" x="95.410156"/>
       <use xlink:href="#DejaVuSans-31" x="159.033203"/>
      </g>
     </g>
    </g>
    <g id="ytick_5">
     <g id="line2d_81">
      <path d="M 75.6175 108.946294 
L 1080.0175 108.946294 
" clip-path="url(#p492f12b6b9)" style="fill: none; stroke-dasharray: 1.85,0.8; stroke-dashoffset: 0; stroke: #000000; stroke-opacity: 0.5; stroke-width: 0.5"/>
     </g>
     <g id="line2d_82">
      <g>
       <use xlink:href="#m84229fe755" x="75.6175" y="108.946294" style="stroke: #000000"/>
      </g>
     </g>
     <g id="line2d_83">
      <g>
       <use xlink:href="#m28ea4762cd" x="1080.0175" y="108.946294" style="stroke: #000000"/>
      </g>
     </g>
     <g id="text_12">
      <!-- 0.02 -->
      <g transform="translate(36.4925 115.025044) scale(0.16 -0.16)">
       <use xlink:href="#DejaVuSans-30"/>
       <use xlink:href="#DejaVuSans-2e" x="63.623047"/>
       <use xlink:href="#DejaVuSans-30" x="95.410156"/>
       <use xlink:href="#DejaVuSans-32" x="159.033203"/>
      </g>
     </g>
    </g>
    <g id="ytick_6">
     <g id="line2d_84">
      <defs>
       <path id="ma49776d4b5" d="M 0 0 
L 3 0 
" style="stroke: #000000"/>
      </defs>
      <g>
       <use xlink:href="#ma49776d4b5" x="75.6175" y="508.658873" style="stroke: #000000"/>
      </g>
     </g>
     <g id="line2d_85">
      <defs>
       <path id="md543e64580" d="M 0 0 
L -3 0 
" style="stroke: #000000"/>
      </defs>
      <g>
       <use xlink:href="#md543e64580" x="1080.0175" y="508.658873" style="stroke: #000000"/>
      </g>
     </g>
    </g>
    <g id="ytick_7">
     <g id="line2d_86">
      <g>
       <use xlink:href="#ma49776d4b5" x="75.6175" y="470.591008" style="stroke: #000000"/>
      </g>
     </g>
     <g id="line2d_87">
      <g>
       <use xlink:href="#md543e64580" x="1080.0175" y="470.591008" style="stroke: #000000"/>
      </g>
     </g>
    </g>
    <g id="ytick_8">
     <g id="line2d_88">
      <g>
       <use xlink:href="#ma49776d4b5" x="75.6175" y="451.557076" style="stroke: #000000"/>
      </g>
     </g>
     <g id="line2d_89">
      <g>
       <use xlink:href="#md543e64580" x="1080.0175" y="451.557076" style="stroke: #000000"/>
      </g>
     </g>
    </g>
    <g id="ytick_9">
     <g id="line2d_90">
      <g>
       <use xlink:href="#ma49776d4b5" x="75.6175" y="432.523144" style="stroke: #000000"/>
      </g>
     </g>
     <g id="line2d_91">
      <g>
       <use xlink:href="#md543e64580" x="1080.0175" y="432.523144" style="stroke: #000000"/>
      </g>
     </g>
    </g>
    <g id="ytick_10">
     <g id="line2d_92">
      <g>
       <use xlink:href="#ma49776d4b5" x="75.6175" y="413.489211" style="stroke: #000000"/>
      </g>
     </g>
     <g id="line2d_93">
      <g>
       <use xlink:href="#md543e64580" x="1080.0175" y="413.489211" style="stroke: #000000"/>
      </g>
     </g>
    </g>
    <g id="ytick_11">
     <g id="line2d_94">
      <g>
       <use xlink:href="#ma49776d4b5" x="75.6175" y="375.421347" style="stroke: #000000"/>
      </g>
     </g>
     <g id="line2d_95">
      <g>
       <use xlink:href="#md543e64580" x="1080.0175" y="375.421347" style="stroke: #000000"/>
      </g>
     </g>
    </g>
    <g id="ytick_12">
     <g id="line2d_96">
      <g>
       <use xlink:href="#ma49776d4b5" x="75.6175" y="356.387414" style="stroke: #000000"/>
      </g>
     </g>
     <g id="line2d_97">
      <g>
       <use xlink:href="#md543e64580" x="1080.0175" y="356.387414" style="stroke: #000000"/>
      </g>
     </g>
    </g>
    <g id="ytick_13">
     <g id="line2d_98">
      <g>
       <use xlink:href="#ma49776d4b5" x="75.6175" y="337.353482" style="stroke: #000000"/>
      </g>
     </g>
     <g id="line2d_99">
      <g>
       <use xlink:href="#md543e64580" x="1080.0175" y="337.353482" style="stroke: #000000"/>
      </g>
     </g>
    </g>
    <g id="ytick_14">
     <g id="line2d_100">
      <g>
       <use xlink:href="#ma49776d4b5" x="75.6175" y="318.31955" style="stroke: #000000"/>
      </g>
     </g>
     <g id="line2d_101">
      <g>
       <use xlink:href="#md543e64580" x="1080.0175" y="318.31955" style="stroke: #000000"/>
      </g>
     </g>
    </g>
    <g id="ytick_15">
     <g id="line2d_102">
      <g>
       <use xlink:href="#ma49776d4b5" x="75.6175" y="280.251685" style="stroke: #000000"/>
      </g>
     </g>
     <g id="line2d_103">
      <g>
       <use xlink:href="#md543e64580" x="1080.0175" y="280.251685" style="stroke: #000000"/>
      </g>
     </g>
    </g>
    <g id="ytick_16">
     <g id="line2d_104">
      <g>
       <use xlink:href="#ma49776d4b5" x="75.6175" y="261.217753" style="stroke: #000000"/>
      </g>
     </g>
     <g id="line2d_105">
      <g>
       <use xlink:href="#md543e64580" x="1080.0175" y="261.217753" style="stroke: #000000"/>
      </g>
     </g>
    </g>
    <g id="ytick_17">
     <g id="line2d_106">
      <g>
       <use xlink:href="#ma49776d4b5" x="75.6175" y="242.18382" style="stroke: #000000"/>
      </g>
     </g>
     <g id="line2d_107">
      <g>
       <use xlink:href="#md543e64580" x="1080.0175" y="242.18382" style="stroke: #000000"/>
      </g>
     </g>
    </g>
    <g id="ytick_18">
     <g id="line2d_108">
      <g>
       <use xlink:href="#ma49776d4b5" x="75.6175" y="223.149888" style="stroke: #000000"/>
      </g>
     </g>
     <g id="line2d_109">
      <g>
       <use xlink:href="#md543e64580" x="1080.0175" y="223.149888" style="stroke: #000000"/>
      </g>
     </g>
    </g>
    <g id="ytick_19">
     <g id="line2d_110">
      <g>
       <use xlink:href="#ma49776d4b5" x="75.6175" y="185.082023" style="stroke: #000000"/>
      </g>
     </g>
     <g id="line2d_111">
      <g>
       <use xlink:href="#md543e64580" x="1080.0175" y="185.082023" style="stroke: #000000"/>
      </g>
     </g>
    </g>
    <g id="ytick_20">
     <g id="line2d_112">
      <g>
       <use xlink:href="#ma49776d4b5" x="75.6175" y="166.048091" style="stroke: #000000"/>
      </g>
     </g>
     <g id="line2d_113">
      <g>
       <use xlink:href="#md543e64580" x="1080.0175" y="166.048091" style="stroke: #000000"/>
      </g>
     </g>
    </g>
    <g id="ytick_21">
     <g id="line2d_114">
      <g>
       <use xlink:href="#ma49776d4b5" x="75.6175" y="147.014158" style="stroke: #000000"/>
      </g>
     </g>
     <g id="line2d_115">
      <g>
       <use xlink:href="#md543e64580" x="1080.0175" y="147.014158" style="stroke: #000000"/>
      </g>
     </g>
    </g>
    <g id="ytick_22">
     <g id="line2d_116">
      <g>
       <use xlink:href="#ma49776d4b5" x="75.6175" y="127.980226" style="stroke: #000000"/>
      </g>
     </g>
     <g id="line2d_117">
      <g>
       <use xlink:href="#md543e64580" x="1080.0175" y="127.980226" style="stroke: #000000"/>
      </g>
     </g>
    </g>
    <g id="ytick_23">
     <g id="line2d_118">
      <g>
       <use xlink:href="#ma49776d4b5" x="75.6175" y="89.912361" style="stroke: #000000"/>
      </g>
     </g>
     <g id="line2d_119">
      <g>
       <use xlink:href="#md543e64580" x="1080.0175" y="89.912361" style="stroke: #000000"/>
      </g>
     </g>
    </g>
    <g id="ytick_24">
     <g id="line2d_120">
      <g>
       <use xlink:href="#ma49776d4b5" x="75.6175" y="70.878429" style="stroke: #000000"/>
      </g>
     </g>
     <g id="line2d_121">
      <g>
       <use xlink:href="#md543e64580" x="1080.0175" y="70.878429" style="stroke: #000000"/>
      </g>
     </g>
    </g>
    <g id="ytick_25">
     <g id="line2d_122">
      <g>
       <use xlink:href="#ma49776d4b5" x="75.6175" y="51.844497" style="stroke: #000000"/>
      </g>
     </g>
     <g id="line2d_123">
      <g>
       <use xlink:href="#md543e64580" x="1080.0175" y="51.844497" style="stroke: #000000"/>
      </g>
     </g>
    </g>
    <g id="ytick_26">
     <g id="line2d_124">
      <g>
       <use xlink:href="#ma49776d4b5" x="75.6175" y="32.810564" style="stroke: #000000"/>
      </g>
     </g>
     <g id="line2d_125">
      <g>
       <use xlink:href="#md543e64580" x="1080.0175" y="32.810564" style="stroke: #000000"/>
      </g>
     </g>
    </g>
    <g id="text_13">
     <!-- IDR (%) -->
     <g transform="translate(15.7575 301.7025) rotate(-90) scale(0.16 -0.16)">
      <defs>
       <path id="DejaVuSans-49" d="M 628 4666 
L 1259 4666 
L 1259 0 
L 628 0 
L 628 4666 
z
" transform="scale(0.015625)"/>
       <path id="DejaVuSans-44" d="M 1259 4147 
L 1259 519 
L 2022 519 
Q 2988 519 3436 956 
Q 3884 1394 3884 2338 
Q 3884 3275 3436 3711 
Q 2988 4147 2022 4147 
L 1259 4147 
z
M 628 4666 
L 1925 4666 
Q 3281 4666 3915 4102 
Q 4550 3538 4550 2338 
Q 4550 1131 3912 565 
Q 3275 0 1925 0 
L 628 0 
L 628 4666 
z
" transform="scale(0.015625)"/>
       <path id="DejaVuSans-52" d="M 2841 2188 
Q 3044 2119 3236 1894 
Q 3428 1669 3622 1275 
L 4263 0 
L 3584 0 
L 2988 1197 
Q 2756 1666 2539 1819 
Q 2322 1972 1947 1972 
L 1259 1972 
L 1259 0 
L 628 0 
L 628 4666 
L 2053 4666 
Q 2853 4666 3247 4331 
Q 3641 3997 3641 3322 
Q 3641 2881 3436 2590 
Q 3231 2300 2841 2188 
z
M 1259 4147 
L 1259 2491 
L 2053 2491 
Q 2509 2491 2742 2702 
Q 2975 2913 2975 3322 
Q 2975 3731 2742 3939 
Q 2509 4147 2053 4147 
L 1259 4147 
z
" transform="scale(0.015625)"/>
       <path id="DejaVuSans-20" transform="scale(0.015625)"/>
       <path id="DejaVuSans-25" d="M 4653 2053 
Q 4381 2053 4226 1822 
Q 4072 1591 4072 1178 
Q 4072 772 4226 539 
Q 4381 306 4653 306 
Q 4919 306 5073 539 
Q 5228 772 5228 1178 
Q 5228 1588 5073 1820 
Q 4919 2053 4653 2053 
z
M 4653 2450 
Q 5147 2450 5437 2106 
Q 5728 1763 5728 1178 
Q 5728 594 5436 251 
Q 5144 -91 4653 -91 
Q 4153 -91 3862 251 
Q 3572 594 3572 1178 
Q 3572 1766 3864 2108 
Q 4156 2450 4653 2450 
z
M 1428 4353 
Q 1159 4353 1004 4120 
Q 850 3888 850 3481 
Q 850 3069 1003 2837 
Q 1156 2606 1428 2606 
Q 1700 2606 1854 2837 
Q 2009 3069 2009 3481 
Q 2009 3884 1853 4118 
Q 1697 4353 1428 4353 
z
M 4250 4750 
L 4750 4750 
L 1831 -91 
L 1331 -91 
L 4250 4750 
z
M 1428 4750 
Q 1922 4750 2215 4408 
Q 2509 4066 2509 3481 
Q 2509 2891 2217 2550 
Q 1925 2209 1428 2209 
Q 931 2209 642 2551 
Q 353 2894 353 3481 
Q 353 4063 643 4406 
Q 934 4750 1428 4750 
z
" transform="scale(0.015625)"/>
      </defs>
      <use xlink:href="#DejaVuSans-49"/>
      <use xlink:href="#DejaVuSans-44" x="29.492188"/>
      <use xlink:href="#DejaVuSans-52" x="106.494141"/>
      <use xlink:href="#DejaVuSans-20" x="175.976562"/>
      <use xlink:href="#DejaVuSans-28" x="207.763672"/>
      <use xlink:href="#DejaVuSans-25" x="246.777344"/>
      <use xlink:href="#DejaVuSans-29" x="341.796875"/>
     </g>
    </g>
   </g>
   <g id="line2d_126">
    <path d="M 121.272045 299.285617 
L 121.591923 299.452155 
L 121.911801 300.260031 
L 123.031373 304.65258 
L 123.191312 304.775616 
L 123.351251 304.742704 
L 123.671128 304.267215 
L 124.7907 301.902502 
L 125.110578 301.721169 
L 125.590394 301.751693 
L 127.189783 302.040325 
L 127.829538 301.894003 
L 128.94911 301.410801 
L 129.428927 301.474083 
L 130.068682 301.869619 
L 131.028315 302.431904 
L 132.467765 302.942812 
L 132.787643 302.658646 
L 133.587337 301.783884 
L 133.907215 301.915992 
L 134.227093 302.396095 
L 134.866848 303.513136 
L 135.186726 303.622238 
L 135.506603 303.213295 
L 135.98642 301.815025 
L 136.466236 300.62639 
L 136.626175 300.572861 
L 136.786114 300.763094 
L 137.105992 301.932081 
L 138.065625 307.231051 
L 138.225564 307.258324 
L 138.385503 306.823829 
L 138.70538 304.624399 
L 139.665013 295.747955 
L 139.824952 295.396484 
L 139.984891 295.527202 
L 140.304769 296.908111 
L 140.944524 300.182804 
L 141.104463 300.401888 
L 141.264402 300.282084 
L 141.58428 299.207403 
L 142.224035 296.380353 
L 142.543913 295.841405 
L 142.703852 295.840424 
L 143.023729 296.204398 
L 143.503546 297.19068 
L 143.983363 298.735115 
L 144.463179 301.331667 
L 144.942996 303.748109 
L 145.102934 304.05673 
L 145.262873 304.062322 
L 145.582751 303.4139 
L 146.062568 302.263337 
L 146.222506 302.151162 
L 146.382445 302.248447 
L 146.702323 303.056759 
L 147.502017 305.994972 
L 147.661956 306.058283 
L 147.821895 305.810328 
L 148.141773 304.493054 
L 148.621589 302.137776 
L 148.781528 301.820902 
L 148.941467 301.905637 
L 149.101406 302.440271 
L 149.421283 304.601773 
L 149.9011 308.028337 
L 150.061039 308.458053 
L 150.220978 308.321403 
L 150.380917 307.592928 
L 150.700794 304.705046 
L 151.180611 299.741028 
L 151.500489 298.459066 
L 151.660427 298.693326 
L 151.980305 300.37033 
L 152.460122 303.012982 
L 152.779999 303.625291 
L 153.099877 303.817047 
L 153.419755 304.407178 
L 153.899571 305.580694 
L 154.05951 305.508086 
L 154.219449 304.991532 
L 154.539327 302.472271 
L 155.49896 292.018826 
L 155.658899 292.126134 
L 155.818838 293.106273 
L 156.298654 299.485227 
L 156.618532 303.26632 
L 156.778471 303.95099 
L 156.93841 303.482047 
L 157.098348 301.73973 
L 157.418226 294.7849 
L 158.057982 278.317428 
L 158.21792 276.717637 
L 158.377859 276.848233 
L 158.537798 278.75762 
L 158.857676 287.135181 
L 159.817309 319.600209 
L 160.137187 324.391084 
L 160.297125 325.317792 
L 160.457064 325.380124 
L 160.617003 324.673502 
L 160.936881 321.326874 
L 161.416697 312.658149 
L 162.696208 285.766716 
L 163.016086 283.400814 
L 163.176025 283.415836 
L 163.335964 284.228096 
L 163.655841 287.956953 
L 164.295597 300.326013 
L 165.095291 314.579196 
L 165.415169 317.121915 
L 165.575108 317.055405 
L 165.735046 315.881316 
L 166.054924 309.976469 
L 166.534741 293.739416 
L 167.174496 271.351346 
L 167.494374 267.415428 
L 167.654313 268.203516 
L 167.97419 274.960938 
L 168.933824 306.61025 
L 169.093762 308.234929 
L 169.253701 308.061026 
L 169.41364 306.176362 
L 169.733518 298.308229 
L 170.533212 274.814061 
L 170.693151 272.818408 
L 170.85309 272.230454 
L 171.013029 273.003922 
L 171.332906 277.921725 
L 172.452478 302.2777 
L 172.772356 305.349592 
L 173.092234 306.344009 
L 173.252173 306.144192 
L 173.57205 304.477572 
L 173.891928 301.291149 
L 175.171439 285.553105 
L 175.331378 285.695572 
L 175.491316 286.611419 
L 175.811194 290.266447 
L 176.45095 298.17344 
L 176.610888 298.90468 
L 176.770827 298.966852 
L 177.090705 297.60897 
L 177.570522 295.26362 
L 177.73046 295.269852 
L 177.890399 295.882553 
L 178.210277 298.909693 
L 179.009971 309.193568 
L 179.16991 309.789507 
L 179.329849 309.476814 
L 179.489788 308.197881 
L 179.809665 302.853606 
L 181.089176 274.561655 
L 181.249115 274.513593 
L 181.409054 275.662782 
L 181.728932 280.925825 
L 182.688565 300.474715 
L 182.848504 301.582198 
L 183.008443 301.716853 
L 183.168381 300.912732 
L 183.488259 296.990958 
L 184.287953 284.763772 
L 184.447892 284.037375 
L 184.607831 284.357487 
L 184.76777 285.798946 
L 185.087648 291.864784 
L 186.047281 316.871548 
L 186.20722 318.42382 
L 186.367158 318.635204 
L 186.527097 317.536371 
L 186.846975 312.022699 
L 187.966547 286.232236 
L 188.126486 285.284272 
L 188.286425 285.454472 
L 188.446364 286.702794 
L 188.766241 292.012839 
L 189.405997 309.319193 
L 189.885813 320.922827 
L 190.205691 324.127516 
L 190.36563 323.91342 
L 190.525569 322.496709 
L 190.845446 316.583126 
L 191.805079 293.177239 
L 192.124957 290.952266 
L 192.284896 291.511521 
L 192.604774 295.355752 
L 193.404468 307.940475 
L 193.564407 308.917412 
L 193.724346 309.106885 
L 193.884285 308.540997 
L 194.204162 305.528542 
L 195.323734 291.367675 
L 195.483673 290.960314 
L 195.643612 291.213394 
L 195.96349 293.520468 
L 196.443306 300.313459 
L 198.042695 327.309012 
L 198.202634 328.01594 
L 198.362572 328.1093 
L 198.522511 327.698889 
L 199.162267 325.026479 
L 199.322205 324.968663 
L 199.482144 325.262109 
L 200.1219 327.254674 
L 200.281839 327.070293 
L 200.441777 326.326192 
L 200.761655 323.02897 
L 201.721288 309.656816 
L 201.881227 309.412337 
L 202.041166 310.018659 
L 202.361044 313.084686 
L 202.84086 318.31812 
L 203.160738 319.717715 
L 203.320677 319.638743 
L 203.640555 318.524767 
L 204.120371 316.911335 
L 204.28031 316.790212 
L 204.440249 316.88547 
L 204.760126 317.515675 
L 205.71976 319.809221 
L 206.519454 321.129134 
L 206.679393 321.193544 
L 206.839332 321.137467 
L 207.159209 320.691957 
L 207.639026 319.854389 
L 207.798965 319.799412 
L 207.958904 319.966858 
L 208.278781 321.082013 
L 208.598659 323.225697 
L 209.238414 329.740508 
L 210.038109 337.712089 
L 210.357986 339.267162 
L 210.517925 339.558223 
L 210.677864 339.560895 
L 210.997742 338.909703 
L 211.477558 337.69661 
L 211.637497 337.583291 
L 211.797436 337.698285 
L 212.117314 338.530461 
L 212.757069 340.511236 
L 212.917008 340.595259 
L 213.076947 340.451058 
L 213.876641 338.990452 
L 214.03658 339.352453 
L 214.356458 341.263612 
L 214.836274 346.567787 
L 215.795907 358.234948 
L 216.275724 361.178344 
L 216.435663 361.572763 
L 216.595602 361.670928 
L 216.75554 361.46914 
L 217.075418 360.144824 
L 217.395296 357.457823 
L 217.715174 352.847122 
L 218.035051 345.073618 
L 218.354929 332.651044 
L 218.834745 303.761952 
L 219.794379 222.277852 
L 220.434134 176.737914 
L 220.913951 157.57976 
L 221.233828 151.787261 
L 221.553706 150.080703 
L 221.713645 150.230041 
L 222.033523 151.559657 
L 222.513339 153.799775 
L 222.673278 154.148675 
L 222.833217 154.174994 
L 222.993156 153.827131 
L 223.313033 152.033208 
L 223.79285 147.28316 
L 224.432605 141.182165 
L 224.752483 140.178443 
L 224.912422 140.276641 
L 225.2323 141.24536 
L 225.712116 143.537514 
L 226.031994 146.914062 
L 226.351872 154.531218 
L 226.991627 180.49297 
L 227.631382 203.218412 
L 228.271138 221.517557 
L 228.591016 241.032701 
L 229.070832 294.18916 
L 230.510282 498.0375 
L 230.670221 495.978328 
L 230.990098 469.747313 
L 231.309976 440.275012 
L 231.469915 433.429514 
L 231.629854 433.863198 
L 231.949731 451.73721 
L 232.429548 479.43464 
L 232.589487 479.87466 
L 232.749426 475.457504 
L 233.389181 446.903196 
L 233.54912 446.053032 
L 233.709059 448.796766 
L 234.348814 469.749137 
L 234.508753 470.772767 
L 234.668692 469.132218 
L 235.468386 452.659953 
L 235.628325 453.481827 
L 235.788264 455.647566 
L 235.948203 452.065972 
L 236.108142 432.893514 
L 236.428019 349.179784 
L 237.227714 65.658475 
L 237.387652 44.4375 
L 237.547591 48.088994 
L 237.867469 111.805168 
L 238.187347 186.264101 
L 238.347286 204.490409 
L 238.507224 204.64925 
L 238.827102 161.66994 
L 239.306919 91.36849 
L 239.466857 89.325878 
L 239.626796 99.467167 
L 240.266552 171.176369 
L 240.426491 174.104739 
L 240.586429 167.99539 
L 241.226185 120.958113 
L 241.386124 130.899398 
L 241.706001 192.071533 
L 242.665635 447.186921 
L 242.985512 479.478141 
L 243.145451 482.702996 
L 243.30539 478.774305 
L 244.265023 427.020122 
L 244.584901 422.12618 
L 244.74484 421.414803 
L 245.224656 420.864409 
L 245.384595 419.743204 
L 245.704473 413.898884 
L 246.02435 401.647814 
L 246.504167 369.846742 
L 248.103556 242.120873 
L 248.423433 233.264644 
L 248.743311 230.762161 
L 248.90325 231.174725 
L 249.702944 236.54083 
L 249.862883 236.348499 
L 250.022822 235.423085 
L 250.342699 231.700099 
L 250.822516 225.288915 
L 250.982455 224.311221 
L 251.142394 224.462117 
L 251.302333 225.937413 
L 251.62221 232.859787 
L 252.421905 255.649822 
L 252.581843 256.33856 
L 252.741782 254.478637 
L 253.06166 242.392733 
L 253.541476 206.613823 
L 254.341171 139.332125 
L 254.661048 126.229061 
L 254.820987 125.370751 
L 254.980926 128.065774 
L 255.620682 148.130232 
L 255.78062 148.973351 
L 255.940559 147.278936 
L 256.740254 131.576987 
L 256.900192 132.490434 
L 257.699887 143.975329 
L 257.859826 143.471218 
L 258.179703 139.665182 
L 258.499581 135.865179 
L 258.65952 135.146269 
L 258.819459 135.41349 
L 259.139336 138.09015 
L 259.459214 141.062979 
L 259.619153 141.749138 
L 259.779092 141.717524 
L 260.098969 140.064651 
L 260.418847 138.285674 
L 260.578786 138.070436 
L 260.738725 138.535515 
L 261.058603 141.756659 
L 261.37848 149.643894 
L 262.657991 195.147971 
L 262.81793 195.958979 
L 262.977869 195.298737 
L 263.297747 190.500851 
L 264.097441 173.940053 
L 264.25738 172.9696 
L 264.417318 173.83457 
L 264.577257 177.027511 
L 264.897135 192.260102 
L 265.217013 221.462594 
L 265.696829 290.115625 
L 266.656462 437.218129 
L 266.97634 459.338713 
L 267.136279 463.052522 
L 267.296218 462.227994 
L 267.616096 449.664044 
L 268.095912 413.958361 
L 268.735667 364.659071 
L 269.055545 350.575165 
L 269.215484 347.341939 
L 269.375423 346.629548 
L 269.535362 348.212106 
L 269.855239 356.930994 
L 271.294689 412.477467 
L 271.454628 413.945962 
L 271.614567 413.687226 
L 271.774506 411.694786 
L 272.094383 402.845405 
L 272.5742 380.093976 
L 273.533833 329.57851 
L 273.853711 320.71457 
L 274.01365 318.865811 
L 274.173588 318.848413 
L 274.333527 320.626716 
L 274.653405 328.969258 
L 275.133222 349.669686 
L 276.412732 408.655326 
L 276.892549 420.039391 
L 277.212427 422.807506 
L 277.372366 422.825699 
L 277.532304 422.02768 
L 277.852182 418.458441 
L 279.291632 396.556805 
L 279.771448 393.643266 
L 280.091326 392.857315 
L 280.571143 392.145274 
L 280.89102 390.679106 
L 281.210898 387.289211 
L 281.530776 381.273783 
L 282.010592 366.557906 
L 283.450042 311.791286 
L 283.609981 309.962032 
L 283.76992 309.61433 
L 283.929858 310.717294 
L 284.249736 316.735694 
L 284.889492 337.520864 
L 285.529247 356.398391 
L 286.009064 363.50487 
L 287.128636 372.54539 
L 287.608452 380.793444 
L 288.248207 396.850445 
L 289.047902 416.062903 
L 289.367779 420.223811 
L 289.687657 422.014168 
L 289.847596 422.127787 
L 290.007535 421.791067 
L 290.327413 419.980604 
L 291.606923 409.806392 
L 291.766862 409.926957 
L 291.926801 410.570757 
L 292.246679 413.221038 
L 292.886434 419.700667 
L 293.046373 420.17867 
L 293.206312 419.571459 
L 293.366251 417.506163 
L 293.686128 407.492817 
L 294.006006 387.683317 
L 294.485823 339.178339 
L 295.445456 228.405475 
L 295.765334 208.996469 
L 296.085211 202.565845 
L 296.24515 203.614349 
L 296.565028 211.993325 
L 297.204783 241.052612 
L 298.964111 324.588863 
L 299.603866 345.130838 
L 300.083683 353.505769 
L 300.40356 356.157334 
L 300.563499 356.747798 
L 300.723438 356.858667 
L 300.883377 356.420432 
L 301.043316 355.295605 
L 301.363193 350.166129 
L 301.683071 339.782617 
L 302.162888 311.888899 
L 302.962582 240.790664 
L 303.602337 192.914746 
L 303.922215 181.211889 
L 304.082154 178.961226 
L 304.242093 179.087132 
L 304.402032 181.479652 
L 304.721909 192.322561 
L 305.201726 220.089491 
L 305.841481 270.578489 
L 307.44087 408.938569 
L 307.760748 417.768664 
L 307.920686 418.284691 
L 308.080625 416.317543 
L 308.400503 405.603152 
L 308.880319 375.714074 
L 309.520075 317.032383 
L 310.959525 167.840909 
L 311.279402 155.784425 
L 311.439341 154.570069 
L 311.59928 156.347325 
L 311.919158 167.218266 
L 312.878791 212.943846 
L 313.198668 218.09478 
L 313.358607 218.029656 
L 313.518546 216.504 
L 313.998363 206.716129 
L 314.478179 198.43939 
L 314.638118 198.352014 
L 314.798057 200.447391 
L 315.117935 212.781461 
L 315.437812 237.008899 
L 316.237507 328.39666 
L 316.717323 371.41252 
L 317.037201 384.702395 
L 317.19714 386.404239 
L 317.357079 385.112024 
L 317.676956 375.432469 
L 318.636589 333.794715 
L 318.956467 328.693264 
L 319.116406 328.585839 
L 319.276345 329.915828 
L 319.596223 335.756311 
L 320.395917 353.504314 
L 320.715795 356.931832 
L 320.875733 357.513146 
L 321.035672 357.368832 
L 321.195611 356.558799 
L 321.515489 353.282714 
L 322.954938 333.842236 
L 323.114877 333.343013 
L 323.274816 333.430325 
L 323.434755 334.121263 
L 323.754633 337.20239 
L 324.554327 347.261456 
L 324.714266 347.374362 
L 324.874205 346.069213 
L 325.194082 338.11665 
L 325.51396 322.259518 
L 326.793471 237.130793 
L 326.95341 234.522289 
L 327.113349 235.088176 
L 327.273288 238.617436 
L 327.593165 252.382449 
L 328.232921 283.259432 
L 328.552798 288.290092 
L 328.712737 286.895795 
L 329.032615 276.854062 
L 330.312126 214.635842 
L 330.472065 212.458199 
L 330.632003 212.352738 
L 330.791942 214.250432 
L 331.11182 223.14284 
L 332.071453 259.74348 
L 332.231392 262.12586 
L 332.391331 262.507455 
L 332.55127 260.84038 
L 332.871147 251.907661 
L 333.510903 220.751082 
L 333.990719 199.250653 
L 334.310597 192.865875 
L 334.470536 193.265523 
L 334.630475 196.392905 
L 334.950352 211.175696 
L 335.430169 252.720166 
L 336.70968 388.030047 
L 337.189496 411.997628 
L 337.509374 417.858912 
L 337.669313 418.456807 
L 337.829252 417.834386 
L 338.149129 413.818377 
L 338.628946 403.617726 
L 339.588579 382.360767 
L 339.908457 379.335264 
L 340.068396 379.105768 
L 340.228335 379.7264 
L 340.548212 383.278058 
L 341.028029 393.139568 
L 341.667784 407.599264 
L 341.987662 410.34788 
L 342.147601 409.706364 
L 342.30754 407.561541 
L 342.627417 398.876887 
L 343.107234 377.347871 
L 344.066867 331.083753 
L 344.546684 317.465542 
L 345.0265 310.224725 
L 345.506317 303.794525 
L 345.826194 295.049221 
L 346.146072 279.678869 
L 346.625889 243.465808 
L 347.585522 164.349507 
L 347.905399 152.39346 
L 348.065338 150.629341 
L 348.225277 151.685024 
L 348.545155 161.489114 
L 349.024971 190.139175 
L 349.984605 253.025434 
L 350.464421 271.452103 
L 350.944238 280.893517 
L 352.223749 297.243948 
L 352.863504 312.972889 
L 353.503259 334.810797 
L 354.622831 377.899992 
L 354.942709 382.807258 
L 355.102648 382.526586 
L 355.262587 380.205184 
L 355.582464 369.544288 
L 356.062281 342.537105 
L 356.861975 297.657273 
L 357.181853 288.08099 
L 357.501731 284.653835 
L 357.661669 285.016636 
L 357.981547 288.994232 
L 358.621303 303.766836 
L 359.261058 316.662469 
L 359.580936 319.789033 
L 359.740875 320.327549 
L 359.900813 320.14962 
L 360.060752 319.243562 
L 360.38063 315.231299 
L 360.700508 308.256708 
L 361.180324 292.124791 
L 361.82008 260.880988 
L 363.09959 193.900405 
L 363.419468 184.926213 
L 363.739346 181.533779 
L 363.899285 182.042547 
L 364.059224 183.987555 
L 364.379101 191.816931 
L 364.858918 210.939791 
L 365.818551 252.408863 
L 366.298368 264.6216 
L 366.618245 269.155674 
L 366.938123 271.536156 
L 367.258001 272.559138 
L 368.057695 274.034235 
L 368.69745 275.739249 
L 368.857389 275.697787 
L 369.017328 275.265037 
L 369.337206 273.015589 
L 369.657083 268.823633 
L 370.1369 259.127989 
L 370.936594 236.736864 
L 371.736289 215.651413 
L 372.376044 203.997127 
L 372.85586 198.989734 
L 373.175738 197.510532 
L 373.335677 197.346499 
L 373.495616 197.600716 
L 373.815494 199.504605 
L 374.135371 203.663644 
L 374.455249 210.700887 
L 374.935066 228.261169 
L 375.574821 264.043446 
L 376.214576 298.826013 
L 376.534454 308.249934 
L 376.694393 310.145442 
L 376.854332 310.178003 
L 377.014271 308.513922 
L 377.334148 301.258285 
L 378.293781 273.951446 
L 378.613659 271.041945 
L 378.773598 271.517013 
L 379.093476 276.179596 
L 379.573292 289.898071 
L 380.372987 313.634513 
L 380.692864 318.267626 
L 380.852803 319.024195 
L 381.012742 318.697213 
L 381.33262 315.116605 
L 382.292253 299.18337 
L 382.452192 298.536839 
L 382.61213 298.704201 
L 382.932008 300.943208 
L 383.731702 308.690275 
L 384.691336 314.962405 
L 385.171152 320.517077 
L 386.130785 333.176955 
L 386.450663 335.034699 
L 386.610602 335.104035 
L 386.770541 334.528648 
L 387.090418 331.288209 
L 387.410296 325.261623 
L 388.050051 306.881738 
L 388.689807 288.588418 
L 389.009685 283.351866 
L 389.169623 282.272014 
L 389.329562 282.370536 
L 389.489501 283.701014 
L 389.809379 290.096788 
L 390.289195 307.618091 
L 391.408767 354.620879 
L 391.728645 361.263915 
L 392.048523 363.686937 
L 392.208462 363.499787 
L 392.528339 360.967983 
L 393.008156 353.962192 
L 393.967789 336.599625 
L 394.447606 323.941813 
L 395.087361 299.877343 
L 395.887055 270.671356 
L 396.206933 265.054878 
L 396.366872 264.337715 
L 396.526811 265.161363 
L 396.846688 271.355703 
L 397.326505 289.708551 
L 398.446077 339.344739 
L 398.765955 346.358352 
L 398.925893 347.703975 
L 399.085832 347.441999 
L 399.245771 345.519429 
L 399.565649 336.84364 
L 400.045465 314.865678 
L 400.685221 284.676658 
L 401.005099 275.808531 
L 401.324976 272.652415 
L 401.484915 273.004896 
L 401.804793 276.558814 
L 403.084304 296.427787 
L 403.404181 297.675986 
L 403.56412 297.622438 
L 403.724059 297.162761 
L 404.043937 295.200824 
L 404.683692 288.637184 
L 405.323448 282.791842 
L 405.643325 281.765891 
L 405.803264 281.772528 
L 406.123142 282.476246 
L 406.44302 283.308247 
L 406.602958 283.453788 
L 406.762897 283.258633 
L 406.922836 282.641067 
L 407.242714 279.91951 
L 407.72253 272.405213 
L 408.842102 252.167338 
L 409.002041 251.123365 
L 409.16198 251.13985 
L 409.321919 252.379476 
L 409.641797 258.762442 
L 410.121613 276.977799 
L 411.241185 327.392333 
L 411.561063 335.061261 
L 411.721002 336.922784 
L 411.880941 337.348046 
L 412.040879 336.308339 
L 412.360757 330.062338 
L 412.840574 312.880989 
L 413.640268 282.150532 
L 413.960146 275.527698 
L 414.280023 273.251101 
L 414.439962 273.400349 
L 415.079718 276.249914 
L 415.239656 276.237916 
L 415.399595 275.629136 
L 415.719473 272.675333 
L 416.519167 262.688808 
L 416.679106 262.126014 
L 416.839045 262.489284 
L 416.998984 263.83764 
L 417.318861 269.363261 
L 417.798678 283.447123 
L 419.238128 332.589928 
L 419.717944 340.70987 
L 420.037822 342.821315 
L 420.197761 342.855041 
L 420.3577 342.206852 
L 420.677577 338.935222 
L 421.157394 329.846327 
L 422.596844 298.093312 
L 422.916721 294.639947 
L 423.236599 293.191377 
L 423.396538 293.393346 
L 423.556477 294.330221 
L 423.876354 298.651993 
L 424.356171 311.08674 
L 425.795621 357.627071 
L 426.275437 364.539266 
L 426.595315 366.246698 
L 426.755254 366.49343 
L 426.915193 366.474133 
L 427.395009 365.767701 
L 427.714887 365.401027 
L 428.67452 364.797418 
L 428.994398 363.841379 
L 429.314275 362.016356 
L 429.794092 357.565401 
L 432.193175 330.940437 
L 432.672991 328.359975 
L 432.83293 328.060702 
L 432.992869 328.068998 
L 433.152808 328.372985 
L 433.472686 329.694359 
L 434.112441 332.667362 
L 434.27238 332.807518 
L 434.432319 332.476581 
L 434.752196 330.142618 
L 435.072074 325.551729 
L 435.871768 308.479023 
L 436.511524 297.128333 
L 436.831401 294.119565 
L 437.151279 292.8062 
L 437.471157 292.504118 
L 437.791035 292.353926 
L 438.270851 291.87538 
L 438.43079 292.057845 
L 438.590729 292.738919 
L 438.910607 296.397024 
L 439.230484 304.04291 
L 439.710301 323.386399 
L 440.669934 368.835214 
L 440.989812 377.103425 
L 441.149751 379.052319 
L 441.309689 379.441135 
L 441.469628 378.227726 
L 441.789506 371.028183 
L 442.269322 350.256382 
L 443.388894 296.299858 
L 443.708772 289.053221 
L 444.02865 286.617183 
L 444.188589 286.972541 
L 444.508466 290.120706 
L 444.988283 298.69948 
L 446.267794 324.651539 
L 446.587671 327.705532 
L 446.74761 327.919503 
L 446.907549 327.130244 
L 447.227427 322.67241 
L 447.707243 311.020804 
L 448.666877 286.828605 
L 449.146693 280.076143 
L 449.466571 278.054698 
L 449.62651 277.710665 
L 449.786449 277.750297 
L 450.106326 278.729522 
L 450.746082 281.600432 
L 450.906021 281.802852 
L 451.065959 281.565918 
L 451.225898 280.815154 
L 451.545776 277.706759 
L 452.025592 269.911642 
L 452.665348 259.140011 
L 452.985226 257.052805 
L 453.145164 257.49695 
L 453.465042 261.62004 
L 453.944859 273.691359 
L 454.424675 285.576014 
L 454.744553 289.390051 
L 454.904492 289.621744 
L 455.064431 288.747284 
L 455.384308 284.169099 
L 456.663819 258.498243 
L 456.983697 256.12806 
L 457.143636 255.726629 
L 457.303575 255.802692 
L 457.463513 256.309772 
L 457.783391 258.389354 
L 458.423147 265.086668 
L 460.182474 285.01609 
L 460.502352 286.929772 
L 460.662291 287.080774 
L 460.822229 286.563679 
L 461.142107 283.461115 
L 462.421618 264.718189 
L 462.581557 264.248702 
L 462.741496 264.308363 
L 463.061373 265.630909 
L 464.021006 271.609816 
L 464.340884 272.438482 
L 464.660762 272.636391 
L 464.98064 272.680178 
L 465.140578 272.870863 
L 465.300517 273.323756 
L 465.620395 275.444624 
L 465.940273 279.68241 
L 466.580028 293.33478 
L 467.219783 305.440957 
L 467.539661 308.134898 
L 467.6996 308.582498 
L 467.859539 308.526351 
L 468.179417 307.277648 
L 468.979111 302.820686 
L 469.13905 302.720681 
L 469.298989 303.130396 
L 469.618866 305.666871 
L 470.098683 313.537594 
L 471.218255 335.618679 
L 471.538132 337.775132 
L 471.698071 337.756764 
L 471.85801 337.057307 
L 472.177888 334.063926 
L 473.137521 323.435973 
L 473.457399 322.288142 
L 473.617338 322.228006 
L 473.937215 322.766076 
L 474.417032 323.684398 
L 474.576971 323.596375 
L 474.73691 323.158426 
L 475.056787 320.975468 
L 475.376665 316.851399 
L 475.856482 307.095419 
L 476.656176 284.526582 
L 477.295931 267.604244 
L 477.775748 260.39601 
L 477.935687 259.519943 
L 478.095625 259.46447 
L 478.255564 260.201788 
L 478.575442 263.748829 
L 479.215197 275.568659 
L 479.854953 286.997501 
L 480.334769 292.04451 
L 480.654647 293.069964 
L 480.814586 292.867524 
L 481.134464 291.24924 
L 481.934158 284.080714 
L 482.413974 280.656638 
L 482.733852 279.450298 
L 482.893791 279.243258 
L 483.05373 279.306181 
L 483.373608 280.217071 
L 483.853424 283.129684 
L 485.932629 298.556147 
L 486.252507 299.462136 
L 486.572385 299.688202 
L 486.732323 299.546802 
L 487.052201 298.832749 
L 487.851895 296.543482 
L 488.011834 296.477639 
L 488.171773 296.6802 
L 488.491651 298.044075 
L 488.811529 300.765494 
L 490.250978 315.908788 
L 490.410917 316.193467 
L 490.570856 316.222641 
L 491.050673 316.021494 
L 491.210611 316.309722 
L 491.530489 318.099177 
L 491.850367 321.741122 
L 493.129878 340.31544 
L 493.289816 341.041344 
L 493.449755 341.17287 
L 493.609694 340.724014 
L 493.929572 338.311793 
L 494.409388 332.216103 
L 496.008777 310.00077 
L 496.328655 307.878542 
L 496.488593 307.574709 
L 496.648532 307.855977 
L 496.96841 310.221195 
L 497.448227 317.462723 
L 498.40786 334.543642 
L 498.727737 337.854782 
L 499.047615 339.309799 
L 499.207554 339.378191 
L 499.367493 339.06527 
L 499.687371 337.578635 
L 500.647004 332.106259 
L 500.966881 331.494155 
L 501.12682 331.490952 
L 501.446698 331.947422 
L 501.926514 332.965922 
L 502.086453 333.099759 
L 502.246392 332.963767 
L 502.406331 332.436777 
L 502.726209 329.650351 
L 503.046086 323.827858 
L 503.525903 309.437669 
L 504.325597 282.80204 
L 504.645475 276.493852 
L 504.965353 274.119178 
L 505.125292 274.30888 
L 505.445169 276.619394 
L 506.084925 282.45215 
L 506.244863 283.083293 
L 506.404802 283.199233 
L 506.564741 282.793205 
L 506.884619 280.591859 
L 507.524374 272.992972 
L 508.004191 267.796886 
L 508.324069 265.983446 
L 508.484007 265.737001 
L 508.643946 265.944288 
L 508.963824 267.550931 
L 510.243335 276.756061 
L 510.563213 277.673403 
L 510.88309 277.985777 
L 511.202968 277.87111 
L 511.842723 277.311627 
L 512.002662 277.298531 
L 512.162601 277.408415 
L 512.482479 278.137756 
L 512.802356 279.765625 
L 513.282173 284.267422 
L 513.921928 293.475393 
L 514.721623 304.825591 
L 515.0415 306.90597 
L 515.201439 307.006581 
L 515.361378 306.395811 
L 515.681256 303.036307 
L 516.161072 293.857277 
L 517.120705 273.851249 
L 517.600522 267.993532 
L 517.9204 266.366654 
L 518.080339 266.359739 
L 518.240277 266.962972 
L 518.560155 270.184592 
L 518.880033 276.357865 
L 519.359849 290.814529 
L 520.319483 321.569228 
L 520.63936 325.697993 
L 520.799299 326.122303 
L 520.959238 325.542726 
L 521.279116 321.967883 
L 522.07881 307.151961 
L 522.878504 294.674004 
L 525.437526 262.87471 
L 525.757404 260.941782 
L 525.917342 260.529262 
L 526.077281 260.587352 
L 526.23722 261.17019 
L 526.557098 263.942994 
L 527.036914 271.183785 
L 527.67667 281.165188 
L 527.996547 283.416066 
L 528.156486 283.447501 
L 528.316425 282.730864 
L 528.636303 279.31462 
L 529.595936 265.608998 
L 529.755875 264.930613 
L 529.915814 265.116463 
L 530.075753 266.216197 
L 530.39563 271.060943 
L 531.035386 287.713084 
L 531.83508 307.423062 
L 532.314896 314.382904 
L 532.634774 317.040836 
L 532.954652 318.254917 
L 533.114591 318.341149 
L 533.27453 318.075489 
L 533.594407 316.421129 
L 533.914285 313.162311 
L 534.394102 305.394433 
L 535.99349 275.806759 
L 536.313368 273.500773 
L 536.473307 273.237771 
L 536.633245 273.67304 
L 536.953123 276.896175 
L 537.273001 283.365452 
L 537.912756 303.049723 
L 538.712451 326.05573 
L 539.192267 333.349294 
L 539.512145 335.175067 
L 539.672084 335.187433 
L 539.832023 334.595196 
L 540.1519 331.601829 
L 540.631717 323.136335 
L 541.431411 307.011916 
L 541.751289 303.693731 
L 541.911228 302.994235 
L 542.071166 302.816104 
L 542.231105 303.047301 
L 542.710922 304.207897 
L 542.870861 304.032381 
L 543.0308 303.275374 
L 543.350677 299.698791 
L 543.830494 289.725147 
L 544.630188 271.508377 
L 544.950066 267.777953 
L 545.110005 267.044774 
L 545.269944 267.05732 
L 545.429882 267.76937 
L 545.74976 271.06771 
L 546.229577 279.839888 
L 547.349149 303.70057 
L 547.509087 304.560031 
L 547.669026 304.131821 
L 547.828965 302.357282 
L 548.148843 295.15307 
L 549.108476 267.661766 
L 549.428354 265.181769 
L 549.588293 265.64116 
L 549.90817 269.166212 
L 550.867803 284.051246 
L 551.187681 286.301394 
L 551.34762 286.764502 
L 551.507559 286.8731 
L 551.667498 286.721876 
L 552.78707 284.758276 
L 553.106947 284.289478 
L 553.426825 283.341276 
L 553.746703 281.738774 
L 554.226519 277.967688 
L 554.866275 270.455168 
L 555.50603 263.103656 
L 555.665969 262.205495 
L 555.825908 262.001384 
L 555.985847 262.648607 
L 556.305724 266.926151 
L 556.625602 275.305026 
L 557.425296 306.432228 
L 558.065052 328.038816 
L 558.384929 334.476108 
L 558.704807 337.481024 
L 558.864746 337.748189 
L 559.024685 337.27584 
L 559.344563 334.490523 
L 559.824379 327.337005 
L 560.784012 312.066099 
L 561.10389 309.209818 
L 561.263829 308.499313 
L 561.423768 308.297486 
L 561.583706 308.606051 
L 561.903584 310.690668 
L 562.383401 316.719333 
L 563.183095 327.940287 
L 563.502973 329.615072 
L 563.662912 329.439482 
L 563.82285 328.587616 
L 564.142728 325.175515 
L 565.102361 312.930183 
L 565.2623 312.437458 
L 565.422239 312.646928 
L 565.742117 314.905216 
L 566.381872 321.066105 
L 566.541811 321.404045 
L 566.70175 320.838936 
L 567.021627 316.760622 
L 567.501444 304.666581 
L 568.301138 283.779407 
L 568.621016 280.131662 
L 568.780955 279.746183 
L 568.940894 280.326043 
L 569.260771 284.10287 
L 570.540282 306.659346 
L 570.86016 307.667093 
L 571.020099 307.489278 
L 571.339976 306.420241 
L 571.979732 304.073229 
L 572.29961 303.702277 
L 572.459548 303.848081 
L 572.779426 304.857102 
L 573.259243 307.829814 
L 575.01857 320.913871 
L 575.338448 321.543404 
L 575.658325 321.542813 
L 575.978203 321.413023 
L 576.138142 321.478604 
L 576.298081 321.714529 
L 576.617959 322.842168 
L 577.097775 326.229962 
L 578.217347 336.510705 
L 578.377286 337.086297 
L 578.537225 337.114563 
L 578.697164 336.50303 
L 579.017041 333.192337 
L 579.496858 323.659384 
L 580.456491 301.872758 
L 580.936308 295.144543 
L 582.535696 277.959142 
L 583.815207 260.92296 
L 584.295024 257.582295 
L 584.77484 255.760412 
L 585.414595 254.309108 
L 585.734473 253.886203 
L 586.054351 253.827965 
L 586.21429 254.005364 
L 586.534167 254.943109 
L 586.854045 256.791128 
L 587.333862 261.127819 
L 588.133556 271.124684 
L 589.732945 293.861362 
L 590.052822 295.046498 
L 590.212761 295.097564 
L 590.3727 294.851753 
L 590.692578 293.725286 
L 591.332333 291.009048 
L 591.492272 290.694161 
L 591.652211 290.67724 
L 591.81215 291.012255 
L 592.132027 292.808808 
L 592.611844 297.673498 
L 593.251599 304.447227 
L 593.731416 307.251797 
L 594.051294 308.04917 
L 594.371171 308.282762 
L 594.691049 308.181498 
L 595.170865 307.939266 
L 595.330804 307.987369 
L 595.650682 308.465426 
L 595.97056 309.523248 
L 596.450376 312.058909 
L 597.569948 318.984888 
L 597.729887 319.358294 
L 597.889826 319.408419 
L 598.049765 319.105726 
L 598.369643 317.42717 
L 598.849459 312.439336 
L 599.489215 302.519067 
L 600.448848 287.30866 
L 600.928664 283.234852 
L 601.088603 282.7664 
L 601.248542 282.774042 
L 601.408481 283.237318 
L 601.728358 285.261107 
L 603.007869 296.661154 
L 603.487686 303.274969 
L 604.127441 316.393689 
L 604.767197 328.801666 
L 604.927136 330.331201 
L 605.087074 330.759012 
L 605.247013 329.943571 
L 605.566891 324.530156 
L 606.046707 309.264265 
L 607.006341 276.023185 
L 607.326218 269.415776 
L 607.646096 266.797318 
L 607.806035 267.342594 
L 607.965974 269.297358 
L 608.285851 277.676772 
L 608.765668 300.185538 
L 609.725301 351.959845 
L 610.045179 361.128718 
L 610.205118 363.324541 
L 610.365056 363.974317 
L 610.524995 363.225505 
L 610.844873 358.465629 
L 611.804506 338.805904 
L 612.124384 335.999795 
L 612.444262 335.131676 
L 612.6042 334.862394 
L 612.764139 334.281947 
L 612.924078 333.063784 
L 613.243956 327.689685 
L 613.563834 317.766024 
L 614.843344 267.529403 
L 615.163222 262.712733 
L 615.323161 261.996339 
L 615.4831 262.338647 
L 615.802977 265.882607 
L 616.282794 276.911153 
L 616.922549 299.462526 
L 617.562305 331.507544 
L 618.20206 362.574467 
L 618.521938 369.405411 
L 618.681877 369.411314 
L 618.841816 367.017006 
L 619.161693 355.535031 
L 619.64151 325.867653 
L 620.761082 250.850033 
L 621.08096 239.385626 
L 621.400837 233.929579 
L 621.560776 233.204785 
L 621.720715 233.653825 
L 622.040593 237.678418 
L 622.520409 250.224998 
L 623.160165 275.186482 
L 624.919492 351.739614 
L 625.23937 357.408601 
L 625.399309 358.572786 
L 625.559247 358.536696 
L 625.719186 357.212459 
L 626.039064 350.399726 
L 626.358942 337.963371 
L 626.998697 300.651248 
L 627.638453 264.259402 
L 627.95833 254.168658 
L 628.118269 251.873675 
L 628.278208 251.366224 
L 628.438147 252.469406 
L 628.758025 258.403555 
L 629.877596 284.796368 
L 630.197474 286.651181 
L 630.357413 286.512105 
L 630.677291 284.975696 
L 631.157107 282.522351 
L 631.317046 282.307492 
L 631.476985 282.560276 
L 631.796863 284.659116 
L 632.11674 288.949227 
L 632.596557 299.417336 
L 633.236312 320.40844 
L 633.876068 340.036564 
L 634.036007 342.001296 
L 634.195946 342.118953 
L 634.355884 340.292366 
L 634.675762 331.300863 
L 635.635395 293.456235 
L 635.795334 291.103133 
L 635.955273 290.734504 
L 636.115212 292.306189 
L 636.435089 300.325466 
L 637.394723 330.597699 
L 637.554661 331.833676 
L 637.7146 331.528091 
L 638.034478 327.421478 
L 638.514295 319.456886 
L 638.674233 318.201009 
L 638.834172 318.192521 
L 638.994111 319.560785 
L 639.313989 326.260382 
L 639.953744 349.298553 
L 640.5935 370.454062 
L 640.913377 376.558765 
L 641.233255 379.159852 
L 641.393194 379.184877 
L 641.553133 378.382322 
L 641.87301 374.32522 
L 642.192888 367.033842 
L 642.672705 350.40741 
L 644.272093 285.511548 
L 644.591971 279.404594 
L 644.911849 276.439865 
L 645.071787 276.016557 
L 645.231726 276.191093 
L 645.551604 277.848793 
L 646.031421 281.075236 
L 646.191359 281.553486 
L 646.351298 281.406926 
L 646.511237 280.488417 
L 646.831115 276.060077 
L 647.310931 263.902261 
L 648.110626 242.884527 
L 648.430503 239.279887 
L 648.590442 238.817069 
L 648.750381 239.169492 
L 649.070259 241.448376 
L 649.550075 245.256562 
L 649.710014 245.721451 
L 649.869953 245.544949 
L 650.029892 244.685995 
L 650.34977 241.173486 
L 651.309403 228.390208 
L 651.469342 227.616843 
L 651.62928 227.423575 
L 651.789219 227.782084 
L 652.109097 230.030019 
L 652.428975 234.253615 
L 652.908791 245.115212 
L 653.388608 262.895897 
L 654.188302 304.882347 
L 654.668119 327.265527 
L 654.987996 336.037107 
L 655.147935 338.068027 
L 655.307874 338.496164 
L 655.467813 337.399707 
L 655.787691 331.267739 
L 656.427446 309.668039 
L 657.067201 288.319678 
L 657.387079 281.496009 
L 657.706957 278.411929 
L 657.866896 278.336804 
L 658.026835 279.18645 
L 658.346712 283.302586 
L 658.986468 297.327589 
L 659.626223 309.537599 
L 659.946101 312.402458 
L 660.10604 313.005398 
L 660.265978 313.159582 
L 660.425917 312.974629 
L 660.905734 311.485703 
L 662.025306 307.548081 
L 662.505122 303.576598 
L 663.464756 294.493079 
L 663.784633 293.690262 
L 663.944572 293.890089 
L 664.26445 295.308128 
L 664.744266 299.152865 
L 665.543961 305.675672 
L 665.863838 306.678794 
L 666.023777 306.676816 
L 666.343655 305.910115 
L 667.623166 301.03372 
L 667.943043 297.532599 
L 668.262921 291.184285 
L 668.742738 276.147432 
L 669.542432 248.317131 
L 669.86231 241.944664 
L 670.022248 240.449087 
L 670.182187 240.116601 
L 670.342126 240.888561 
L 670.662004 245.261541 
L 671.14182 256.667649 
L 672.58127 295.747775 
L 673.061087 303.745136 
L 673.540903 308.309058 
L 673.860781 309.737151 
L 674.02072 310.028842 
L 674.180659 310.053332 
L 674.340598 309.811434 
L 674.660475 308.599721 
L 675.620108 303.597406 
L 675.939986 303.251501 
L 676.259864 303.288003 
L 676.419803 303.185909 
L 676.579741 302.859199 
L 676.899619 301.204026 
L 677.379436 296.063129 
L 677.859252 291.035351 
L 678.019191 290.6891 
L 678.17913 291.494494 
L 678.499008 297.229548 
L 678.978824 315.438263 
L 679.938457 357.187671 
L 680.258335 364.119022 
L 680.418274 365.763888 
L 680.578213 366.235783 
L 680.738152 365.599547 
L 681.058029 361.313697 
L 681.537846 348.737339 
L 682.977296 301.563222 
L 683.297173 296.985308 
L 683.457112 295.985762 
L 683.617051 295.841634 
L 683.77699 296.514865 
L 684.096868 299.913463 
L 684.896562 311.205338 
L 685.216439 312.56949 
L 685.376378 312.19736 
L 685.696256 309.750295 
L 686.975767 296.15124 
L 687.135706 296.156666 
L 687.295645 296.829256 
L 687.615522 299.980225 
L 688.895033 317.246259 
L 689.054972 317.620325 
L 689.214911 317.305516 
L 689.534788 314.614382 
L 690.014605 306.181765 
L 691.294116 278.101358 
L 691.613994 274.599389 
L 691.933871 273.433439 
L 692.09381 273.827103 
L 692.413688 276.735034 
L 692.893504 285.710085 
L 693.693199 302.115163 
L 694.013076 304.588676 
L 694.173015 304.510298 
L 694.332954 303.592758 
L 694.652832 299.69142 
L 695.612465 284.371377 
L 695.772404 283.314466 
L 695.932343 283.057242 
L 696.092281 283.623609 
L 696.412159 286.96584 
L 697.69167 306.722766 
L 697.851609 307.099813 
L 698.011548 306.745955 
L 698.331425 304.306392 
L 698.971181 298.398652 
L 699.13112 297.983511 
L 699.291058 298.303668 
L 699.610936 301.261849 
L 700.090753 310.502374 
L 701.050386 332.324839 
L 701.370264 335.841095 
L 701.530202 336.388132 
L 701.690141 336.115262 
L 702.010019 333.307413 
L 702.489836 324.619631 
L 703.609408 300.55212 
L 704.249163 292.579744 
L 704.728979 289.03278 
L 705.048857 287.975319 
L 705.208796 287.908356 
L 705.368735 288.160161 
L 705.688613 289.50043 
L 706.488307 293.986803 
L 706.648246 294.264789 
L 706.808185 294.14651 
L 706.968123 293.605009 
L 707.288001 291.291729 
L 707.927757 283.508261 
L 708.567512 276.197142 
L 708.88739 274.097277 
L 709.207267 273.324373 
L 709.367206 273.436748 
L 709.687084 274.588128 
L 710.1669 278.017118 
L 711.126534 285.425571 
L 711.60635 287.588042 
L 711.766289 287.887774 
L 711.926228 287.934687 
L 712.086167 287.72935 
L 712.406044 286.673043 
L 713.205739 283.271139 
L 713.525616 282.756268 
L 714.325311 282.328624 
L 715.125005 281.228364 
L 715.284944 281.301887 
L 715.444883 281.636512 
L 715.76476 283.275328 
L 716.244577 287.992637 
L 717.20421 298.835454 
L 717.843965 303.345804 
L 718.64366 307.505569 
L 718.963537 308.0222 
L 719.123476 307.861589 
L 719.443354 306.744427 
L 720.402987 301.864794 
L 720.562926 301.690258 
L 720.722865 301.860307 
L 721.042742 303.342461 
L 721.36262 306.321716 
L 722.482192 319.214122 
L 722.80207 320.482297 
L 722.962009 320.643764 
L 723.121948 320.575849 
L 723.441825 319.987448 
L 725.201153 315.02168 
L 725.680969 312.358888 
L 726.640602 306.188851 
L 726.96048 305.531836 
L 727.120419 305.768688 
L 727.440297 307.387557 
L 728.39993 314.449684 
L 728.559869 314.658752 
L 728.719807 314.37787 
L 729.039685 312.366347 
L 729.519502 306.415307 
L 730.799012 288.035562 
L 730.958951 287.265227 
L 731.11889 287.055145 
L 731.278829 287.362872 
L 731.598707 289.201445 
L 732.55834 296.69973 
L 732.718279 297.069966 
L 732.878218 296.965609 
L 733.038156 296.377993 
L 733.358034 293.936887 
L 734.157728 286.208101 
L 734.477606 284.963473 
L 734.637545 284.924316 
L 734.797484 285.239657 
L 735.117361 286.751855 
L 735.757117 291.799611 
L 736.236933 295.311438 
L 736.556811 296.447292 
L 736.71675 296.552974 
L 736.876689 296.372655 
L 737.196567 295.346185 
L 737.836322 292.739152 
L 737.996261 292.478889 
L 738.1562 292.520419 
L 738.316139 292.883707 
L 738.636016 294.517045 
L 739.915527 303.325698 
L 740.235405 304.290695 
L 740.715221 304.908636 
L 741.035099 305.282636 
L 741.354977 305.946201 
L 742.154671 308.071657 
L 742.31461 308.152481 
L 742.474549 308.010242 
L 742.794426 307.107329 
L 743.913998 302.732584 
L 744.233876 302.269963 
L 744.393815 302.264846 
L 744.713693 302.716239 
L 745.513387 304.754738 
L 745.673326 304.680715 
L 745.833265 304.247308 
L 746.153142 302.287333 
L 747.272714 293.053952 
L 747.592592 292.522721 
L 747.752531 292.665176 
L 748.712164 294.383171 
L 748.872103 294.112373 
L 749.19198 292.872867 
L 749.831736 289.881063 
L 749.991675 289.603004 
L 750.151614 289.618052 
L 750.311552 289.906673 
L 750.63143 291.132346 
L 751.431124 294.990566 
L 751.751002 295.701511 
L 751.910941 295.792881 
L 752.07088 295.725171 
L 752.390758 295.187212 
L 752.870574 293.554215 
L 753.51033 290.027429 
L 754.150085 286.753353 
L 754.469963 286.136841 
L 754.629901 286.202076 
L 754.78984 286.546479 
L 755.109718 288.093769 
L 755.589535 292.502491 
L 756.22929 301.328413 
L 757.028984 311.730562 
L 757.348862 314.057763 
L 757.66874 315.09725 
L 757.828679 315.159368 
L 757.988617 314.958079 
L 758.308495 313.865572 
L 758.788312 310.951053 
L 759.907884 302.898093 
L 760.227761 301.873466 
L 760.3877 301.83794 
L 760.547639 302.184674 
L 760.867517 304.136251 
L 761.347333 310.005246 
L 762.306966 323.251966 
L 764.066294 339.908335 
L 764.54611 342.882565 
L 764.706049 343.266446 
L 764.865988 343.319899 
L 765.025927 343.071314 
L 765.345805 341.844677 
L 765.825621 338.879782 
L 766.305438 334.509837 
L 766.785254 327.222105 
L 768.224704 300.803425 
L 768.544582 298.690894 
L 768.864459 297.995189 
L 769.184337 297.775584 
L 769.344276 297.483165 
L 769.664154 295.964152 
L 769.984031 293.022857 
L 771.743359 272.667472 
L 772.383114 268.74944 
L 773.02287 265.91544 
L 773.822564 263.478605 
L 774.462319 261.262194 
L 774.942136 258.706319 
L 776.221647 250.236706 
L 776.381585 250.067019 
L 776.541524 250.348328 
L 776.701463 251.145282 
L 777.021341 254.575213 
L 777.341219 260.831671 
L 777.821035 275.627176 
L 779.580362 340.342485 
L 780.060179 348.492556 
L 780.380057 350.933984 
L 780.539996 351.238054 
L 780.699934 350.919572 
L 781.019812 348.43544 
L 781.499629 340.746396 
L 782.459262 319.178239 
L 783.418895 298.606869 
L 783.898711 292.713268 
L 784.218589 291.526497 
L 784.378528 291.805423 
L 784.698406 293.962417 
L 785.178222 299.963033 
L 785.817978 307.679652 
L 786.137855 308.924124 
L 786.297794 308.540327 
L 786.617672 305.631573 
L 787.097489 296.955447 
L 787.897183 280.879265 
L 788.376999 275.02397 
L 789.016755 270.582668 
L 789.65651 265.953485 
L 790.776082 256.831862 
L 790.936021 256.328326 
L 791.09596 256.238174 
L 791.255899 256.612289 
L 791.575776 258.92307 
L 791.895654 263.538971 
L 792.375471 275.154373 
L 793.175165 304.073498 
L 793.81492 323.988903 
L 794.134798 329.010983 
L 794.294737 330.06608 
L 794.454676 330.150564 
L 794.614615 329.277613 
L 794.934492 324.781034 
L 795.414309 312.242828 
L 796.533881 277.839262 
L 796.853759 273.999836 
L 797.013697 273.965003 
L 797.173636 275.272396 
L 797.493514 281.805623 
L 797.973331 298.92816 
L 798.613086 322.801865 
L 798.932964 329.638449 
L 799.092902 331.196643 
L 799.252841 331.500714 
L 799.41278 330.620479 
L 799.732658 325.862003 
L 801.332046 292.390212 
L 802.451618 280.176262 
L 802.931435 276.213386 
L 803.251313 274.907337 
L 803.411251 274.893828 
L 803.57119 275.421254 
L 803.891068 278.301361 
L 804.370885 286.829565 
L 805.490457 310.072571 
L 805.810334 313.019089 
L 805.970273 313.523374 
L 806.130212 313.451433 
L 806.45009 311.974999 
L 807.729601 303.44085 
L 808.689234 300.127873 
L 810.288622 295.112045 
L 810.448561 294.980981 
L 810.6085 295.15807 
L 810.768439 295.741726 
L 811.088316 298.353033 
L 811.568133 305.680505 
L 812.527766 322.356196 
L 812.847644 324.31316 
L 813.007583 324.083603 
L 813.167521 323.043917 
L 813.487399 318.884606 
L 814.926849 295.293583 
L 815.406665 292.166523 
L 815.886482 290.588416 
L 816.046421 290.337243 
L 816.20636 290.297119 
L 816.366299 290.531802 
L 816.526237 291.14275 
L 816.846115 293.859577 
L 817.165993 298.96863 
L 817.645809 310.923704 
L 818.605442 336.975174 
L 818.92532 341.134716 
L 819.085259 341.867882 
L 819.245198 341.706676 
L 819.405137 340.717724 
L 819.725014 336.761146 
L 820.844586 320.050597 
L 821.164464 318.452256 
L 821.324403 318.253855 
L 821.484342 318.330257 
L 821.964158 319.000548 
L 822.124097 318.934509 
L 822.284036 318.545105 
L 822.603914 316.601124 
L 823.08373 310.838547 
L 824.683119 287.434712 
L 825.162935 284.062807 
L 825.96263 279.846682 
L 827.242141 270.821098 
L 827.402079 270.635289 
L 827.562018 270.822463 
L 827.881896 272.276967 
L 828.361712 276.491589 
L 829.161407 283.69411 
L 829.961101 288.489308 
L 830.280979 292.117822 
L 830.760795 300.922041 
L 832.040306 328.58504 
L 832.360184 331.249494 
L 832.520123 331.238805 
L 832.680062 330.255458 
L 832.999939 325.536682 
L 834.439389 296.125837 
L 834.759267 294.991831 
L 834.919205 295.252272 
L 835.239083 297.094777 
L 836.358655 306.759034 
L 836.678533 307.378448 
L 836.838472 307.215908 
L 837.158349 306.165635 
L 837.638166 303.409975 
L 839.397493 291.458442 
L 839.87731 290.081625 
L 841.156821 287.457053 
L 841.476698 287.273116 
L 841.796576 287.549853 
L 842.276393 288.624007 
L 844.675475 294.862067 
L 844.995353 295.072779 
L 845.635109 294.906162 
L 845.795047 295.093829 
L 846.114925 296.053397 
L 846.594742 298.916924 
L 848.19413 310.55108 
L 848.354069 310.891797 
L 848.514008 310.937365 
L 848.673947 310.669842 
L 848.993824 309.167676 
L 849.313702 306.394303 
L 849.953458 297.866102 
L 850.753152 286.847481 
L 851.07303 284.308657 
L 851.392907 283.458262 
L 851.552846 283.65935 
L 851.872724 285.077584 
L 852.512479 290.126999 
L 853.79199 300.840251 
L 854.591684 305.442332 
L 856.031134 312.355862 
L 856.351012 312.894141 
L 856.510951 312.837039 
L 856.670889 312.524128 
L 856.990767 311.079926 
L 857.470584 306.998425 
L 858.910033 291.330946 
L 859.229911 290.493341 
L 859.38985 290.793402 
L 859.709728 292.779005 
L 860.189544 298.199043 
L 860.8293 305.400782 
L 861.149177 307.456585 
L 861.469055 308.250128 
L 861.628994 308.226653 
L 861.948872 307.519682 
L 862.428688 305.288428 
L 862.908505 301.848077 
L 863.54826 295.328098 
L 864.507893 285.607267 
L 864.98771 282.836978 
L 865.307587 282.107265 
L 865.467526 282.088759 
L 865.627465 282.27708 
L 865.947343 283.153481 
L 867.70667 290.178325 
L 868.346426 294.416786 
L 869.14612 300.06505 
L 869.625936 301.871176 
L 870.745508 304.622482 
L 871.385264 307.925384 
L 871.86508 310.099385 
L 872.184958 310.604879 
L 872.344897 310.479889 
L 872.664775 309.482108 
L 873.144591 306.59913 
L 873.944285 299.905181 
L 874.74398 293.261203 
L 875.063857 291.693152 
L 875.383735 290.941152 
L 875.703613 290.777734 
L 876.983124 291.076136 
L 877.143063 291.268196 
L 877.46294 292.282683 
L 877.782818 294.557169 
L 878.262634 300.542241 
L 879.062329 311.558029 
L 879.382206 313.580524 
L 879.542145 313.845649 
L 879.702084 313.67261 
L 880.021962 312.346262 
L 880.661717 308.885492 
L 880.981595 308.146404 
L 881.141534 308.189666 
L 881.301473 308.513848 
L 881.62135 309.889863 
L 882.421045 314.426037 
L 882.580983 314.79098 
L 882.740922 314.800109 
L 882.900861 314.434979 
L 883.220739 312.617441 
L 883.700555 307.833534 
L 884.50025 299.399713 
L 884.980066 296.483068 
L 885.299944 295.857403 
L 885.459883 295.890026 
L 886.099638 296.514768 
L 886.259577 296.414459 
L 886.579455 295.745592 
L 887.858966 291.8344 
L 888.178843 291.593513 
L 888.978538 291.388269 
L 889.298415 290.942261 
L 889.618293 290.004845 
L 890.09811 287.655391 
L 890.737865 284.523168 
L 891.057743 283.968479 
L 891.217682 283.999095 
L 891.537559 284.513753 
L 892.81707 287.599727 
L 893.136948 289.077339 
L 893.456825 291.495272 
L 893.936642 297.103783 
L 895.376092 316.637244 
L 895.695969 318.267572 
L 895.855908 318.500919 
L 896.015847 318.380253 
L 896.335725 317.333422 
L 896.97548 314.611014 
L 897.135419 314.326513 
L 897.295358 314.310108 
L 897.455297 314.561996 
L 897.775174 315.71423 
L 898.41493 318.519676 
L 898.574869 318.800886 
L 898.734808 318.74777 
L 898.894746 318.299455 
L 899.214624 316.102038 
L 899.694441 309.967665 
L 900.654074 295.926028 
L 901.13389 292.178561 
L 901.613707 290.315169 
L 902.253462 287.955023 
L 902.733279 285.356929 
L 904.172729 276.466216 
L 904.492606 275.900289 
L 904.652545 275.850419 
L 904.972423 276.09371 
L 905.612178 277.187875 
L 906.251934 278.559948 
L 906.571811 279.894827 
L 906.891689 282.164921 
L 907.371506 287.480537 
L 908.331139 299.377849 
L 908.651016 301.437922 
L 908.970894 302.086645 
L 909.130833 301.961162 
L 909.450711 301.136568 
L 909.930527 299.813199 
L 910.090466 299.726497 
L 910.250405 299.951426 
L 910.570283 301.483356 
L 911.050099 306.242657 
L 912.169671 318.945597 
L 912.489549 320.765853 
L 912.649488 321.181839 
L 912.809427 321.253497 
L 912.969365 320.986426 
L 913.289243 319.549403 
L 914.728693 310.710159 
L 916.008204 306.715608 
L 916.48802 303.853197 
L 918.247348 291.800396 
L 918.727164 289.940785 
L 919.206981 288.858499 
L 919.686797 288.424881 
L 920.326553 288.28757 
L 920.966308 288.329218 
L 921.286186 288.643354 
L 921.766002 289.651759 
L 922.245819 290.598232 
L 922.725635 291.390955 
L 923.045513 292.57866 
L 923.52533 295.897072 
L 924.804841 306.546629 
L 925.124718 307.84712 
L 925.444596 308.47199 
L 926.084351 309.321141 
L 926.884046 311.004646 
L 927.043984 310.961554 
L 927.203923 310.690852 
L 927.523801 309.509724 
L 928.323495 305.993406 
L 928.483434 305.757589 
L 928.643373 305.723178 
L 928.963251 306.109164 
L 929.922884 307.804978 
L 931.202395 309.40591 
L 931.522272 309.421785 
L 931.84215 309.075094 
L 932.162028 308.273059 
L 932.641844 306.269683 
L 933.2816 303.418594 
L 933.601477 302.798987 
L 933.761416 302.848731 
L 933.921355 303.175638 
L 934.241233 304.664868 
L 934.721049 308.665242 
L 935.520744 316.204074 
L 935.840621 317.452378 
L 936.00056 317.27777 
L 936.160499 316.472387 
L 936.480377 312.986452 
L 937.599949 295.936551 
L 937.759888 295.131955 
L 937.919826 294.930519 
L 938.079765 295.233779 
L 938.87946 298.661413 
L 939.039398 298.694443 
L 939.199337 298.337394 
L 939.519215 296.624305 
L 940.318909 291.111201 
L 940.478848 290.735472 
L 940.638787 290.772922 
L 940.798726 291.209646 
L 941.118604 293.043836 
L 941.918298 298.799747 
L 942.238175 299.740549 
L 942.398114 299.699272 
L 942.717992 298.674262 
L 943.677625 292.993961 
L 944.637258 286.94792 
L 946.236647 275.143645 
L 946.876402 272.482624 
L 947.19628 271.60465 
L 947.356219 271.471705 
L 947.516158 271.67639 
L 947.676096 272.322057 
L 947.995974 275.22449 
L 948.475791 283.578929 
L 949.595363 306.17537 
L 949.91524 308.558544 
L 950.075179 308.720199 
L 950.235118 308.241441 
L 950.554996 305.746238 
L 951.514629 295.867762 
L 951.834507 294.519287 
L 951.994445 294.285491 
L 952.154384 294.263056 
L 952.634201 294.727509 
L 953.593834 295.715313 
L 953.913712 296.674766 
L 954.393528 298.951789 
L 955.353161 304.029458 
L 955.5131 304.323942 
L 955.673039 304.334321 
L 955.832978 304.054616 
L 956.152856 302.735049 
L 956.792611 299.406677 
L 957.112489 298.75929 
L 957.272428 298.790097 
L 957.592305 299.375119 
L 958.551938 301.842387 
L 958.711877 301.933106 
L 958.871816 301.842445 
L 959.191694 301.03708 
L 959.67151 298.42575 
L 960.311266 294.750493 
L 960.471205 294.332318 
L 960.631144 294.271332 
L 960.791082 294.632722 
L 961.11096 296.771728 
L 961.590777 303.157501 
L 962.230532 311.89872 
L 962.390471 312.724614 
L 962.55041 312.582735 
L 962.710349 311.334185 
L 963.030226 305.245221 
L 963.510043 288.427492 
L 964.309737 258.495262 
L 964.629615 253.508651 
L 964.789554 253.379331 
L 964.949493 254.844485 
L 965.26937 261.963125 
L 966.548881 300.319933 
L 966.70882 301.58849 
L 966.868759 301.698034 
L 967.028698 300.754695 
L 967.348575 296.505094 
L 967.988331 286.558592 
L 968.308208 284.961475 
L 968.468147 285.413497 
L 968.788025 288.40375 
L 969.587719 297.689969 
L 969.747658 298.071879 
L 969.907597 297.69767 
L 970.227475 294.979374 
L 970.86723 287.576287 
L 971.027169 286.87774 
L 971.187108 287.090824 
L 971.347047 288.338166 
L 971.666924 293.935944 
L 973.106374 328.295692 
L 973.266313 328.545141 
L 973.426252 327.755303 
L 973.746129 323.474125 
L 974.385885 308.776087 
L 975.02564 295.065112 
L 975.345518 291.422926 
L 975.505457 290.749752 
L 975.665396 290.881121 
L 975.825335 291.764721 
L 976.145212 295.2861 
L 976.784968 303.38275 
L 977.104845 304.885847 
L 977.264784 304.70873 
L 977.584662 302.75708 
L 978.544295 293.963318 
L 978.704234 293.521106 
L 978.864173 293.574779 
L 979.024112 294.103099 
L 979.503928 297.480787 
L 979.823806 299.61566 
L 979.983745 300.163601 
L 980.143684 300.2309 
L 980.303622 299.765393 
L 980.6235 297.383607 
L 981.743072 285.962491 
L 981.903011 285.429599 
L 982.06295 285.317983 
L 982.222889 285.600506 
L 982.542766 287.13992 
L 983.182522 292.458982 
L 984.78191 306.811776 
L 985.741543 313.311222 
L 986.061421 314.632053 
L 986.381299 315.202258 
L 986.541238 315.202141 
L 986.861115 314.751132 
L 987.500871 313.005686 
L 988.140626 310.791815 
L 989.580076 305.31314 
L 989.899954 304.934897 
L 990.059892 304.949596 
L 990.37977 305.356543 
L 991.339403 307.271284 
L 991.499342 307.254575 
L 991.659281 307.05351 
L 991.979159 306.081151 
L 992.458975 303.52654 
L 993.258669 299.310841 
L 993.578547 298.536659 
L 993.738486 298.403987 
L 993.898425 298.425699 
L 994.218303 298.82047 
L 994.858058 299.841294 
L 995.177936 299.928011 
L 995.497813 299.676397 
L 996.457446 298.486397 
L 996.777324 298.474521 
L 997.097202 298.789735 
L 997.577018 299.765336 
L 998.376713 301.445536 
L 998.69659 301.669597 
L 999.016468 301.599346 
L 999.496285 301.128075 
L 1000.13604 300.443669 
L 1000.455918 300.335613 
L 1000.775796 300.490661 
L 1001.255612 301.17047 
L 1002.055306 302.487637 
L 1002.375184 302.665004 
L 1002.695062 302.567569 
L 1003.814634 301.848055 
L 1004.134511 301.95763 
L 1005.414022 302.716185 
L 1005.893839 302.590878 
L 1007.493227 301.928397 
L 1009.092616 301.633851 
L 1009.89231 301.090747 
L 1011.011882 300.299603 
L 1011.651637 300.077334 
L 1012.771209 300.005086 
L 1016.449803 300.02994 
L 1018.049192 300.090182 
L 1019.488641 299.913904 
L 1027.645523 298.508518 
L 1034.362955 297.669539 
L 1034.362955 297.669539 
" clip-path="url(#p492f12b6b9)" style="fill: none; stroke: #0c5da5; stroke-width: 2; stroke-linecap: square"/>
   </g>
   <g id="patch_3">
    <path d="M 75.6175 520.7175 
L 75.6175 21.7575 
" style="fill: none; stroke: #000000; stroke-linejoin: miter; stroke-linecap: square"/>
   </g>
   <g id="patch_4">
    <path d="M 1080.0175 520.7175 
L 1080.0175 21.7575 
" style="fill: none; stroke: #000000; stroke-linejoin: miter; stroke-linecap: square"/>
   </g>
   <g id="patch_5">
    <path d="M 75.6175 520.7175 
L 1080.0175 520.7175 
" style="fill: none; stroke: #000000; stroke-linejoin: miter; stroke-linecap: square"/>
   </g>
   <g id="patch_6">
    <path d="M 75.6175 21.7575 
L 1080.0175 21.7575 
" style="fill: none; stroke: #000000; stroke-linejoin: miter; stroke-linecap: square"/>
   </g>
   <g id="text_14">
    <!-- Cape Mendocino Record no. 3744 -->
    <g transform="translate(443.3325 15.7575) scale(0.16 -0.16)">
     <defs>
      <path id="DejaVuSans-43" d="M 4122 4306 
L 4122 3641 
Q 3803 3938 3442 4084 
Q 3081 4231 2675 4231 
Q 1875 4231 1450 3742 
Q 1025 3253 1025 2328 
Q 1025 1406 1450 917 
Q 1875 428 2675 428 
Q 3081 428 3442 575 
Q 3803 722 4122 1019 
L 4122 359 
Q 3791 134 3420 21 
Q 3050 -91 2638 -91 
Q 1578 -91 968 557 
Q 359 1206 359 2328 
Q 359 3453 968 4101 
Q 1578 4750 2638 4750 
Q 3056 4750 3426 4639 
Q 3797 4528 4122 4306 
z
" transform="scale(0.015625)"/>
      <path id="DejaVuSans-61" d="M 2194 1759 
Q 1497 1759 1228 1600 
Q 959 1441 959 1056 
Q 959 750 1161 570 
Q 1363 391 1709 391 
Q 2188 391 2477 730 
Q 2766 1069 2766 1631 
L 2766 1759 
L 2194 1759 
z
M 3341 1997 
L 3341 0 
L 2766 0 
L 2766 531 
Q 2569 213 2275 61 
Q 1981 -91 1556 -91 
Q 1019 -91 701 211 
Q 384 513 384 1019 
Q 384 1609 779 1909 
Q 1175 2209 1959 2209 
L 2766 2209 
L 2766 2266 
Q 2766 2663 2505 2880 
Q 2244 3097 1772 3097 
Q 1472 3097 1187 3025 
Q 903 2953 641 2809 
L 641 3341 
Q 956 3463 1253 3523 
Q 1550 3584 1831 3584 
Q 2591 3584 2966 3190 
Q 3341 2797 3341 1997 
z
" transform="scale(0.015625)"/>
      <path id="DejaVuSans-70" d="M 1159 525 
L 1159 -1331 
L 581 -1331 
L 581 3500 
L 1159 3500 
L 1159 2969 
Q 1341 3281 1617 3432 
Q 1894 3584 2278 3584 
Q 2916 3584 3314 3078 
Q 3713 2572 3713 1747 
Q 3713 922 3314 415 
Q 2916 -91 2278 -91 
Q 1894 -91 1617 61 
Q 1341 213 1159 525 
z
M 3116 1747 
Q 3116 2381 2855 2742 
Q 2594 3103 2138 3103 
Q 1681 3103 1420 2742 
Q 1159 2381 1159 1747 
Q 1159 1113 1420 752 
Q 1681 391 2138 391 
Q 2594 391 2855 752 
Q 3116 1113 3116 1747 
z
" transform="scale(0.015625)"/>
      <path id="DejaVuSans-4d" d="M 628 4666 
L 1569 4666 
L 2759 1491 
L 3956 4666 
L 4897 4666 
L 4897 0 
L 4281 0 
L 4281 4097 
L 3078 897 
L 2444 897 
L 1241 4097 
L 1241 0 
L 628 0 
L 628 4666 
z
" transform="scale(0.015625)"/>
      <path id="DejaVuSans-6e" d="M 3513 2113 
L 3513 0 
L 2938 0 
L 2938 2094 
Q 2938 2591 2744 2837 
Q 2550 3084 2163 3084 
Q 1697 3084 1428 2787 
Q 1159 2491 1159 1978 
L 1159 0 
L 581 0 
L 581 3500 
L 1159 3500 
L 1159 2956 
Q 1366 3272 1645 3428 
Q 1925 3584 2291 3584 
Q 2894 3584 3203 3211 
Q 3513 2838 3513 2113 
z
" transform="scale(0.015625)"/>
      <path id="DejaVuSans-64" d="M 2906 2969 
L 2906 4863 
L 3481 4863 
L 3481 0 
L 2906 0 
L 2906 525 
Q 2725 213 2448 61 
Q 2172 -91 1784 -91 
Q 1150 -91 751 415 
Q 353 922 353 1747 
Q 353 2572 751 3078 
Q 1150 3584 1784 3584 
Q 2172 3584 2448 3432 
Q 2725 3281 2906 2969 
z
M 947 1747 
Q 947 1113 1208 752 
Q 1469 391 1925 391 
Q 2381 391 2643 752 
Q 2906 1113 2906 1747 
Q 2906 2381 2643 2742 
Q 2381 3103 1925 3103 
Q 1469 3103 1208 2742 
Q 947 2381 947 1747 
z
" transform="scale(0.015625)"/>
      <path id="DejaVuSans-6f" d="M 1959 3097 
Q 1497 3097 1228 2736 
Q 959 2375 959 1747 
Q 959 1119 1226 758 
Q 1494 397 1959 397 
Q 2419 397 2687 759 
Q 2956 1122 2956 1747 
Q 2956 2369 2687 2733 
Q 2419 3097 1959 3097 
z
M 1959 3584 
Q 2709 3584 3137 3096 
Q 3566 2609 3566 1747 
Q 3566 888 3137 398 
Q 2709 -91 1959 -91 
Q 1206 -91 779 398 
Q 353 888 353 1747 
Q 353 2609 779 3096 
Q 1206 3584 1959 3584 
z
" transform="scale(0.015625)"/>
      <path id="DejaVuSans-63" d="M 3122 3366 
L 3122 2828 
Q 2878 2963 2633 3030 
Q 2388 3097 2138 3097 
Q 1578 3097 1268 2742 
Q 959 2388 959 1747 
Q 959 1106 1268 751 
Q 1578 397 2138 397 
Q 2388 397 2633 464 
Q 2878 531 3122 666 
L 3122 134 
Q 2881 22 2623 -34 
Q 2366 -91 2075 -91 
Q 1284 -91 818 406 
Q 353 903 353 1747 
Q 353 2603 823 3093 
Q 1294 3584 2113 3584 
Q 2378 3584 2631 3529 
Q 2884 3475 3122 3366 
z
" transform="scale(0.015625)"/>
      <path id="DejaVuSans-72" d="M 2631 2963 
Q 2534 3019 2420 3045 
Q 2306 3072 2169 3072 
Q 1681 3072 1420 2755 
Q 1159 2438 1159 1844 
L 1159 0 
L 581 0 
L 581 3500 
L 1159 3500 
L 1159 2956 
Q 1341 3275 1631 3429 
Q 1922 3584 2338 3584 
Q 2397 3584 2469 3576 
Q 2541 3569 2628 3553 
L 2631 2963 
z
" transform="scale(0.015625)"/>
      <path id="DejaVuSans-33" d="M 2597 2516 
Q 3050 2419 3304 2112 
Q 3559 1806 3559 1356 
Q 3559 666 3084 287 
Q 2609 -91 1734 -91 
Q 1441 -91 1130 -33 
Q 819 25 488 141 
L 488 750 
Q 750 597 1062 519 
Q 1375 441 1716 441 
Q 2309 441 2620 675 
Q 2931 909 2931 1356 
Q 2931 1769 2642 2001 
Q 2353 2234 1838 2234 
L 1294 2234 
L 1294 2753 
L 1863 2753 
Q 2328 2753 2575 2939 
Q 2822 3125 2822 3475 
Q 2822 3834 2567 4026 
Q 2313 4219 1838 4219 
Q 1578 4219 1281 4162 
Q 984 4106 628 3988 
L 628 4550 
Q 988 4650 1302 4700 
Q 1616 4750 1894 4750 
Q 2613 4750 3031 4423 
Q 3450 4097 3450 3541 
Q 3450 3153 3228 2886 
Q 3006 2619 2597 2516 
z
" transform="scale(0.015625)"/>
      <path id="DejaVuSans-37" d="M 525 4666 
L 3525 4666 
L 3525 4397 
L 1831 0 
L 1172 0 
L 2766 4134 
L 525 4134 
L 525 4666 
z
" transform="scale(0.015625)"/>
      <path id="DejaVuSans-34" d="M 2419 4116 
L 825 1625 
L 2419 1625 
L 2419 4116 
z
M 2253 4666 
L 3047 4666 
L 3047 1625 
L 3713 1625 
L 3713 1100 
L 3047 1100 
L 3047 0 
L 2419 0 
L 2419 1100 
L 313 1100 
L 313 1709 
L 2253 4666 
z
" transform="scale(0.015625)"/>
     </defs>
     <use xlink:href="#DejaVuSans-43"/>
     <use xlink:href="#DejaVuSans-61" x="69.824219"/>
     <use xlink:href="#DejaVuSans-70" x="131.103516"/>
     <use xlink:href="#DejaVuSans-65" x="194.580078"/>
     <use xlink:href="#DejaVuSans-20" x="256.103516"/>
     <use xlink:href="#DejaVuSans-4d" x="287.890625"/>
     <use xlink:href="#DejaVuSans-65" x="374.169922"/>
     <use xlink:href="#DejaVuSans-6e" x="435.693359"/>
     <use xlink:href="#DejaVuSans-64" x="499.072266"/>
     <use xlink:href="#DejaVuSans-6f" x="562.548828"/>
     <use xlink:href="#DejaVuSans-63" x="623.730469"/>
     <use xlink:href="#DejaVuSans-69" x="678.710938"/>
     <use xlink:href="#DejaVuSans-6e" x="706.494141"/>
     <use xlink:href="#DejaVuSans-6f" x="769.873047"/>
     <use xlink:href="#DejaVuSans-20" x="831.054688"/>
     <use xlink:href="#DejaVuSans-52" x="862.841797"/>
     <use xlink:href="#DejaVuSans-65" x="927.824219"/>
     <use xlink:href="#DejaVuSans-63" x="989.347656"/>
     <use xlink:href="#DejaVuSans-6f" x="1044.328125"/>
     <use xlink:href="#DejaVuSans-72" x="1105.509766"/>
     <use xlink:href="#DejaVuSans-64" x="1144.873047"/>
     <use xlink:href="#DejaVuSans-20" x="1208.349609"/>
     <use xlink:href="#DejaVuSans-6e" x="1240.136719"/>
     <use xlink:href="#DejaVuSans-6f" x="1303.515625"/>
     <use xlink:href="#DejaVuSans-2e" x="1362.947266"/>
     <use xlink:href="#DejaVuSans-20" x="1394.734375"/>
     <use xlink:href="#DejaVuSans-33" x="1426.521484"/>
     <use xlink:href="#DejaVuSans-37" x="1490.144531"/>
     <use xlink:href="#DejaVuSans-34" x="1553.767578"/>
     <use xlink:href="#DejaVuSans-34" x="1617.390625"/>
    </g>
   </g>
  </g>
 </g>
 <defs>
  <clipPath id="p492f12b6b9">
   <rect x="75.6175" y="21.7575" width="1004.4" height="498.96"/>
  </clipPath>
 </defs>
</svg>
