<?xml version="1.0" encoding="utf-8" standalone="no"?>
<!DOCTYPE svg PUBLIC "-//W3C//DTD SVG 1.1//EN"
  "http://www.w3.org/Graphics/SVG/1.1/DTD/svg11.dtd">
<svg xmlns:xlink="http://www.w3.org/1999/xlink" width="1083.6175pt" height="562.7875pt" viewBox="0 0 1083.6175 562.7875" xmlns="http://www.w3.org/2000/svg" version="1.1">
 <metadata>
  <rdf:RDF xmlns:dc="http://purl.org/dc/elements/1.1/" xmlns:cc="http://creativecommons.org/ns#" xmlns:rdf="http://www.w3.org/1999/02/22-rdf-syntax-ns#">
   <cc:Work>
    <dc:type rdf:resource="http://purl.org/dc/dcmitype/StillImage"/>
    <dc:date>2023-06-13T12:12:58.954573</dc:date>
    <dc:format>image/svg+xml</dc:format>
    <dc:creator>
     <cc:Agent>
      <dc:title>Matplotlib v3.7.1, https://matplotlib.org/</dc:title>
     </cc:Agent>
    </dc:creator>
   </cc:Work>
  </rdf:RDF>
 </metadata>
 <defs>
  <style type="text/css">*{stroke-linejoin: round; stroke-linecap: butt}</style>
 </defs>
 <g id="figure_1">
  <g id="patch_1">
   <path d="M 0 562.7875 
L 1083.6175 562.7875 
L 1083.6175 0 
L 0 0 
z
" style="fill: #ffffff"/>
  </g>
  <g id="axes_1">
   <g id="patch_2">
    <path d="M 75.6175 520.7175 
L 1080.0175 520.7175 
L 1080.0175 21.7575 
L 75.6175 21.7575 
z
" style="fill: #ffffff"/>
   </g>
   <g id="matplotlib.axis_1">
    <g id="xtick_1">
     <g id="line2d_1">
      <path d="M 121.272045 520.7175 
L 121.272045 21.7575 
" clip-path="url(#p97cf501b3b)" style="fill: none; stroke-dasharray: 1.85,0.8; stroke-dashoffset: 0; stroke: #000000; stroke-opacity: 0.5; stroke-width: 0.5"/>
     </g>
     <g id="line2d_2">
      <defs>
       <path id="me8f9ae5d11" d="M 0 0 
L 0 -6 
" style="stroke: #000000"/>
      </defs>
      <g>
       <use xlink:href="#me8f9ae5d11" x="121.272045" y="520.7175" style="stroke: #000000"/>
      </g>
     </g>
     <g id="line2d_3">
      <defs>
       <path id="ma5701c3a4e" d="M 0 0 
L 0 6 
" style="stroke: #000000"/>
      </defs>
      <g>
       <use xlink:href="#ma5701c3a4e" x="121.272045" y="21.7575" style="stroke: #000000"/>
      </g>
     </g>
     <g id="text_1">
      <!-- 0 -->
      <g transform="translate(116.182045 536.375) scale(0.16 -0.16)">
       <defs>
        <path id="DejaVuSans-30" d="M 2034 4250 
Q 1547 4250 1301 3770 
Q 1056 3291 1056 2328 
Q 1056 1369 1301 889 
Q 1547 409 2034 409 
Q 2525 409 2770 889 
Q 3016 1369 3016 2328 
Q 3016 3291 2770 3770 
Q 2525 4250 2034 4250 
z
M 2034 4750 
Q 2819 4750 3233 4129 
Q 3647 3509 3647 2328 
Q 3647 1150 3233 529 
Q 2819 -91 2034 -91 
Q 1250 -91 836 529 
Q 422 1150 422 2328 
Q 422 3509 836 4129 
Q 1250 4750 2034 4750 
z
" transform="scale(0.015625)"/>
       </defs>
       <use xlink:href="#DejaVuSans-30"/>
      </g>
     </g>
    </g>
    <g id="xtick_2">
     <g id="line2d_4">
      <path d="M 344.221846 520.7175 
L 344.221846 21.7575 
" clip-path="url(#p97cf501b3b)" style="fill: none; stroke-dasharray: 1.85,0.8; stroke-dashoffset: 0; stroke: #000000; stroke-opacity: 0.5; stroke-width: 0.5"/>
     </g>
     <g id="line2d_5">
      <g>
       <use xlink:href="#me8f9ae5d11" x="344.221846" y="520.7175" style="stroke: #000000"/>
      </g>
     </g>
     <g id="line2d_6">
      <g>
       <use xlink:href="#ma5701c3a4e" x="344.221846" y="21.7575" style="stroke: #000000"/>
      </g>
     </g>
     <g id="text_2">
      <!-- 20 -->
      <g transform="translate(334.041846 536.375) scale(0.16 -0.16)">
       <defs>
        <path id="DejaVuSans-32" d="M 1228 531 
L 3431 531 
L 3431 0 
L 469 0 
L 469 531 
Q 828 903 1448 1529 
Q 2069 2156 2228 2338 
Q 2531 2678 2651 2914 
Q 2772 3150 2772 3378 
Q 2772 3750 2511 3984 
Q 2250 4219 1831 4219 
Q 1534 4219 1204 4116 
Q 875 4013 500 3803 
L 500 4441 
Q 881 4594 1212 4672 
Q 1544 4750 1819 4750 
Q 2544 4750 2975 4387 
Q 3406 4025 3406 3419 
Q 3406 3131 3298 2873 
Q 3191 2616 2906 2266 
Q 2828 2175 2409 1742 
Q 1991 1309 1228 531 
z
" transform="scale(0.015625)"/>
       </defs>
       <use xlink:href="#DejaVuSans-32"/>
       <use xlink:href="#DejaVuSans-30" x="63.623047"/>
      </g>
     </g>
    </g>
    <g id="xtick_3">
     <g id="line2d_7">
      <path d="M 567.171647 520.7175 
L 567.171647 21.7575 
" clip-path="url(#p97cf501b3b)" style="fill: none; stroke-dasharray: 1.85,0.8; stroke-dashoffset: 0; stroke: #000000; stroke-opacity: 0.5; stroke-width: 0.5"/>
     </g>
     <g id="line2d_8">
      <g>
       <use xlink:href="#me8f9ae5d11" x="567.171647" y="520.7175" style="stroke: #000000"/>
      </g>
     </g>
     <g id="line2d_9">
      <g>
       <use xlink:href="#ma5701c3a4e" x="567.171647" y="21.7575" style="stroke: #000000"/>
      </g>
     </g>
     <g id="text_3">
      <!-- 40 -->
      <g transform="translate(556.991647 536.375) scale(0.16 -0.16)">
       <defs>
        <path id="DejaVuSans-34" d="M 2419 4116 
L 825 1625 
L 2419 1625 
L 2419 4116 
z
M 2253 4666 
L 3047 4666 
L 3047 1625 
L 3713 1625 
L 3713 1100 
L 3047 1100 
L 3047 0 
L 2419 0 
L 2419 1100 
L 313 1100 
L 313 1709 
L 2253 4666 
z
" transform="scale(0.015625)"/>
       </defs>
       <use xlink:href="#DejaVuSans-34"/>
       <use xlink:href="#DejaVuSans-30" x="63.623047"/>
      </g>
     </g>
    </g>
    <g id="xtick_4">
     <g id="line2d_10">
      <path d="M 790.121448 520.7175 
L 790.121448 21.7575 
" clip-path="url(#p97cf501b3b)" style="fill: none; stroke-dasharray: 1.85,0.8; stroke-dashoffset: 0; stroke: #000000; stroke-opacity: 0.5; stroke-width: 0.5"/>
     </g>
     <g id="line2d_11">
      <g>
       <use xlink:href="#me8f9ae5d11" x="790.121448" y="520.7175" style="stroke: #000000"/>
      </g>
     </g>
     <g id="line2d_12">
      <g>
       <use xlink:href="#ma5701c3a4e" x="790.121448" y="21.7575" style="stroke: #000000"/>
      </g>
     </g>
     <g id="text_4">
      <!-- 60 -->
      <g transform="translate(779.941448 536.375) scale(0.16 -0.16)">
       <defs>
        <path id="DejaVuSans-36" d="M 2113 2584 
Q 1688 2584 1439 2293 
Q 1191 2003 1191 1497 
Q 1191 994 1439 701 
Q 1688 409 2113 409 
Q 2538 409 2786 701 
Q 3034 994 3034 1497 
Q 3034 2003 2786 2293 
Q 2538 2584 2113 2584 
z
M 3366 4563 
L 3366 3988 
Q 3128 4100 2886 4159 
Q 2644 4219 2406 4219 
Q 1781 4219 1451 3797 
Q 1122 3375 1075 2522 
Q 1259 2794 1537 2939 
Q 1816 3084 2150 3084 
Q 2853 3084 3261 2657 
Q 3669 2231 3669 1497 
Q 3669 778 3244 343 
Q 2819 -91 2113 -91 
Q 1303 -91 875 529 
Q 447 1150 447 2328 
Q 447 3434 972 4092 
Q 1497 4750 2381 4750 
Q 2619 4750 2861 4703 
Q 3103 4656 3366 4563 
z
" transform="scale(0.015625)"/>
       </defs>
       <use xlink:href="#DejaVuSans-36"/>
       <use xlink:href="#DejaVuSans-30" x="63.623047"/>
      </g>
     </g>
    </g>
    <g id="xtick_5">
     <g id="line2d_13">
      <path d="M 1013.071249 520.7175 
L 1013.071249 21.7575 
" clip-path="url(#p97cf501b3b)" style="fill: none; stroke-dasharray: 1.85,0.8; stroke-dashoffset: 0; stroke: #000000; stroke-opacity: 0.5; stroke-width: 0.5"/>
     </g>
     <g id="line2d_14">
      <g>
       <use xlink:href="#me8f9ae5d11" x="1013.071249" y="520.7175" style="stroke: #000000"/>
      </g>
     </g>
     <g id="line2d_15">
      <g>
       <use xlink:href="#ma5701c3a4e" x="1013.071249" y="21.7575" style="stroke: #000000"/>
      </g>
     </g>
     <g id="text_5">
      <!-- 80 -->
      <g transform="translate(1002.891249 536.375) scale(0.16 -0.16)">
       <defs>
        <path id="DejaVuSans-38" d="M 2034 2216 
Q 1584 2216 1326 1975 
Q 1069 1734 1069 1313 
Q 1069 891 1326 650 
Q 1584 409 2034 409 
Q 2484 409 2743 651 
Q 3003 894 3003 1313 
Q 3003 1734 2745 1975 
Q 2488 2216 2034 2216 
z
M 1403 2484 
Q 997 2584 770 2862 
Q 544 3141 544 3541 
Q 544 4100 942 4425 
Q 1341 4750 2034 4750 
Q 2731 4750 3128 4425 
Q 3525 4100 3525 3541 
Q 3525 3141 3298 2862 
Q 3072 2584 2669 2484 
Q 3125 2378 3379 2068 
Q 3634 1759 3634 1313 
Q 3634 634 3220 271 
Q 2806 -91 2034 -91 
Q 1263 -91 848 271 
Q 434 634 434 1313 
Q 434 1759 690 2068 
Q 947 2378 1403 2484 
z
M 1172 3481 
Q 1172 3119 1398 2916 
Q 1625 2713 2034 2713 
Q 2441 2713 2670 2916 
Q 2900 3119 2900 3481 
Q 2900 3844 2670 4047 
Q 2441 4250 2034 4250 
Q 1625 4250 1398 4047 
Q 1172 3844 1172 3481 
z
" transform="scale(0.015625)"/>
       </defs>
       <use xlink:href="#DejaVuSans-38"/>
       <use xlink:href="#DejaVuSans-30" x="63.623047"/>
      </g>
     </g>
    </g>
    <g id="xtick_6">
     <g id="line2d_16">
      <defs>
       <path id="ma865904d79" d="M 0 0 
L 0 -3 
" style="stroke: #000000"/>
      </defs>
      <g>
       <use xlink:href="#ma865904d79" x="177.009496" y="520.7175" style="stroke: #000000"/>
      </g>
     </g>
     <g id="line2d_17">
      <defs>
       <path id="m063b1a2fa9" d="M 0 0 
L 0 3 
" style="stroke: #000000"/>
      </defs>
      <g>
       <use xlink:href="#m063b1a2fa9" x="177.009496" y="21.7575" style="stroke: #000000"/>
      </g>
     </g>
    </g>
    <g id="xtick_7">
     <g id="line2d_18">
      <g>
       <use xlink:href="#ma865904d79" x="232.746946" y="520.7175" style="stroke: #000000"/>
      </g>
     </g>
     <g id="line2d_19">
      <g>
       <use xlink:href="#m063b1a2fa9" x="232.746946" y="21.7575" style="stroke: #000000"/>
      </g>
     </g>
    </g>
    <g id="xtick_8">
     <g id="line2d_20">
      <g>
       <use xlink:href="#ma865904d79" x="288.484396" y="520.7175" style="stroke: #000000"/>
      </g>
     </g>
     <g id="line2d_21">
      <g>
       <use xlink:href="#m063b1a2fa9" x="288.484396" y="21.7575" style="stroke: #000000"/>
      </g>
     </g>
    </g>
    <g id="xtick_9">
     <g id="line2d_22">
      <g>
       <use xlink:href="#ma865904d79" x="399.959296" y="520.7175" style="stroke: #000000"/>
      </g>
     </g>
     <g id="line2d_23">
      <g>
       <use xlink:href="#m063b1a2fa9" x="399.959296" y="21.7575" style="stroke: #000000"/>
      </g>
     </g>
    </g>
    <g id="xtick_10">
     <g id="line2d_24">
      <g>
       <use xlink:href="#ma865904d79" x="455.696747" y="520.7175" style="stroke: #000000"/>
      </g>
     </g>
     <g id="line2d_25">
      <g>
       <use xlink:href="#m063b1a2fa9" x="455.696747" y="21.7575" style="stroke: #000000"/>
      </g>
     </g>
    </g>
    <g id="xtick_11">
     <g id="line2d_26">
      <g>
       <use xlink:href="#ma865904d79" x="511.434197" y="520.7175" style="stroke: #000000"/>
      </g>
     </g>
     <g id="line2d_27">
      <g>
       <use xlink:href="#m063b1a2fa9" x="511.434197" y="21.7575" style="stroke: #000000"/>
      </g>
     </g>
    </g>
    <g id="xtick_12">
     <g id="line2d_28">
      <g>
       <use xlink:href="#ma865904d79" x="622.909097" y="520.7175" style="stroke: #000000"/>
      </g>
     </g>
     <g id="line2d_29">
      <g>
       <use xlink:href="#m063b1a2fa9" x="622.909097" y="21.7575" style="stroke: #000000"/>
      </g>
     </g>
    </g>
    <g id="xtick_13">
     <g id="line2d_30">
      <g>
       <use xlink:href="#ma865904d79" x="678.646547" y="520.7175" style="stroke: #000000"/>
      </g>
     </g>
     <g id="line2d_31">
      <g>
       <use xlink:href="#m063b1a2fa9" x="678.646547" y="21.7575" style="stroke: #000000"/>
      </g>
     </g>
    </g>
    <g id="xtick_14">
     <g id="line2d_32">
      <g>
       <use xlink:href="#ma865904d79" x="734.383998" y="520.7175" style="stroke: #000000"/>
      </g>
     </g>
     <g id="line2d_33">
      <g>
       <use xlink:href="#m063b1a2fa9" x="734.383998" y="21.7575" style="stroke: #000000"/>
      </g>
     </g>
    </g>
    <g id="xtick_15">
     <g id="line2d_34">
      <g>
       <use xlink:href="#ma865904d79" x="845.858898" y="520.7175" style="stroke: #000000"/>
      </g>
     </g>
     <g id="line2d_35">
      <g>
       <use xlink:href="#m063b1a2fa9" x="845.858898" y="21.7575" style="stroke: #000000"/>
      </g>
     </g>
    </g>
    <g id="xtick_16">
     <g id="line2d_36">
      <g>
       <use xlink:href="#ma865904d79" x="901.596348" y="520.7175" style="stroke: #000000"/>
      </g>
     </g>
     <g id="line2d_37">
      <g>
       <use xlink:href="#m063b1a2fa9" x="901.596348" y="21.7575" style="stroke: #000000"/>
      </g>
     </g>
    </g>
    <g id="xtick_17">
     <g id="line2d_38">
      <g>
       <use xlink:href="#ma865904d79" x="957.333798" y="520.7175" style="stroke: #000000"/>
      </g>
     </g>
     <g id="line2d_39">
      <g>
       <use xlink:href="#m063b1a2fa9" x="957.333798" y="21.7575" style="stroke: #000000"/>
      </g>
     </g>
    </g>
    <g id="xtick_18">
     <g id="line2d_40">
      <g>
       <use xlink:href="#ma865904d79" x="1068.808699" y="520.7175" style="stroke: #000000"/>
      </g>
     </g>
     <g id="line2d_41">
      <g>
       <use xlink:href="#m063b1a2fa9" x="1068.808699" y="21.7575" style="stroke: #000000"/>
      </g>
     </g>
    </g>
    <g id="text_6">
     <!-- Time(s) -->
     <g transform="translate(547.83375 555.86) scale(0.16 -0.16)">
      <defs>
       <path id="DejaVuSans-54" d="M -19 4666 
L 3928 4666 
L 3928 4134 
L 2272 4134 
L 2272 0 
L 1638 0 
L 1638 4134 
L -19 4134 
L -19 4666 
z
" transform="scale(0.015625)"/>
       <path id="DejaVuSans-69" d="M 603 3500 
L 1178 3500 
L 1178 0 
L 603 0 
L 603 3500 
z
M 603 4863 
L 1178 4863 
L 1178 4134 
L 603 4134 
L 603 4863 
z
" transform="scale(0.015625)"/>
       <path id="DejaVuSans-6d" d="M 3328 2828 
Q 3544 3216 3844 3400 
Q 4144 3584 4550 3584 
Q 5097 3584 5394 3201 
Q 5691 2819 5691 2113 
L 5691 0 
L 5113 0 
L 5113 2094 
Q 5113 2597 4934 2840 
Q 4756 3084 4391 3084 
Q 3944 3084 3684 2787 
Q 3425 2491 3425 1978 
L 3425 0 
L 2847 0 
L 2847 2094 
Q 2847 2600 2669 2842 
Q 2491 3084 2119 3084 
Q 1678 3084 1418 2786 
Q 1159 2488 1159 1978 
L 1159 0 
L 581 0 
L 581 3500 
L 1159 3500 
L 1159 2956 
Q 1356 3278 1631 3431 
Q 1906 3584 2284 3584 
Q 2666 3584 2933 3390 
Q 3200 3197 3328 2828 
z
" transform="scale(0.015625)"/>
       <path id="DejaVuSans-65" d="M 3597 1894 
L 3597 1613 
L 953 1613 
Q 991 1019 1311 708 
Q 1631 397 2203 397 
Q 2534 397 2845 478 
Q 3156 559 3463 722 
L 3463 178 
Q 3153 47 2828 -22 
Q 2503 -91 2169 -91 
Q 1331 -91 842 396 
Q 353 884 353 1716 
Q 353 2575 817 3079 
Q 1281 3584 2069 3584 
Q 2775 3584 3186 3129 
Q 3597 2675 3597 1894 
z
M 3022 2063 
Q 3016 2534 2758 2815 
Q 2500 3097 2075 3097 
Q 1594 3097 1305 2825 
Q 1016 2553 972 2059 
L 3022 2063 
z
" transform="scale(0.015625)"/>
       <path id="DejaVuSans-28" d="M 1984 4856 
Q 1566 4138 1362 3434 
Q 1159 2731 1159 2009 
Q 1159 1288 1364 580 
Q 1569 -128 1984 -844 
L 1484 -844 
Q 1016 -109 783 600 
Q 550 1309 550 2009 
Q 550 2706 781 3412 
Q 1013 4119 1484 4856 
L 1984 4856 
z
" transform="scale(0.015625)"/>
       <path id="DejaVuSans-73" d="M 2834 3397 
L 2834 2853 
Q 2591 2978 2328 3040 
Q 2066 3103 1784 3103 
Q 1356 3103 1142 2972 
Q 928 2841 928 2578 
Q 928 2378 1081 2264 
Q 1234 2150 1697 2047 
L 1894 2003 
Q 2506 1872 2764 1633 
Q 3022 1394 3022 966 
Q 3022 478 2636 193 
Q 2250 -91 1575 -91 
Q 1294 -91 989 -36 
Q 684 19 347 128 
L 347 722 
Q 666 556 975 473 
Q 1284 391 1588 391 
Q 1994 391 2212 530 
Q 2431 669 2431 922 
Q 2431 1156 2273 1281 
Q 2116 1406 1581 1522 
L 1381 1569 
Q 847 1681 609 1914 
Q 372 2147 372 2553 
Q 372 3047 722 3315 
Q 1072 3584 1716 3584 
Q 2034 3584 2315 3537 
Q 2597 3491 2834 3397 
z
" transform="scale(0.015625)"/>
       <path id="DejaVuSans-29" d="M 513 4856 
L 1013 4856 
Q 1481 4119 1714 3412 
Q 1947 2706 1947 2009 
Q 1947 1309 1714 600 
Q 1481 -109 1013 -844 
L 513 -844 
Q 928 -128 1133 580 
Q 1338 1288 1338 2009 
Q 1338 2731 1133 3434 
Q 928 4138 513 4856 
z
" transform="scale(0.015625)"/>
      </defs>
      <use xlink:href="#DejaVuSans-54"/>
      <use xlink:href="#DejaVuSans-69" x="57.958984"/>
      <use xlink:href="#DejaVuSans-6d" x="85.742188"/>
      <use xlink:href="#DejaVuSans-65" x="183.154297"/>
      <use xlink:href="#DejaVuSans-28" x="244.677734"/>
      <use xlink:href="#DejaVuSans-73" x="283.691406"/>
      <use xlink:href="#DejaVuSans-29" x="335.791016"/>
     </g>
    </g>
   </g>
   <g id="matplotlib.axis_2">
    <g id="ytick_1">
     <g id="line2d_42">
      <path d="M 75.6175 494.028493 
L 1080.0175 494.028493 
" clip-path="url(#p97cf501b3b)" style="fill: none; stroke-dasharray: 1.85,0.8; stroke-dashoffset: 0; stroke: #000000; stroke-opacity: 0.5; stroke-width: 0.5"/>
     </g>
     <g id="line2d_43">
      <defs>
       <path id="m62ee98d635" d="M 0 0 
L 6 0 
" style="stroke: #000000"/>
      </defs>
      <g>
       <use xlink:href="#m62ee98d635" x="75.6175" y="494.028493" style="stroke: #000000"/>
      </g>
     </g>
     <g id="line2d_44">
      <defs>
       <path id="m24acc4a424" d="M 0 0 
L -6 0 
" style="stroke: #000000"/>
      </defs>
      <g>
       <use xlink:href="#m24acc4a424" x="1080.0175" y="494.028493" style="stroke: #000000"/>
      </g>
     </g>
     <g id="text_7">
      <!-- −0.04 -->
      <g transform="translate(23.085 500.107243) scale(0.16 -0.16)">
       <defs>
        <path id="DejaVuSans-2212" d="M 678 2272 
L 4684 2272 
L 4684 1741 
L 678 1741 
L 678 2272 
z
" transform="scale(0.015625)"/>
        <path id="DejaVuSans-2e" d="M 684 794 
L 1344 794 
L 1344 0 
L 684 0 
L 684 794 
z
" transform="scale(0.015625)"/>
       </defs>
       <use xlink:href="#DejaVuSans-2212"/>
       <use xlink:href="#DejaVuSans-30" x="83.789062"/>
       <use xlink:href="#DejaVuSans-2e" x="147.412109"/>
       <use xlink:href="#DejaVuSans-30" x="179.199219"/>
       <use xlink:href="#DejaVuSans-34" x="242.822266"/>
      </g>
     </g>
    </g>
    <g id="ytick_2">
     <g id="line2d_45">
      <path d="M 75.6175 438.364507 
L 1080.0175 438.364507 
" clip-path="url(#p97cf501b3b)" style="fill: none; stroke-dasharray: 1.85,0.8; stroke-dashoffset: 0; stroke: #000000; stroke-opacity: 0.5; stroke-width: 0.5"/>
     </g>
     <g id="line2d_46">
      <g>
       <use xlink:href="#m62ee98d635" x="75.6175" y="438.364507" style="stroke: #000000"/>
      </g>
     </g>
     <g id="line2d_47">
      <g>
       <use xlink:href="#m24acc4a424" x="1080.0175" y="438.364507" style="stroke: #000000"/>
      </g>
     </g>
     <g id="text_8">
      <!-- −0.03 -->
      <g transform="translate(23.085 444.443257) scale(0.16 -0.16)">
       <defs>
        <path id="DejaVuSans-33" d="M 2597 2516 
Q 3050 2419 3304 2112 
Q 3559 1806 3559 1356 
Q 3559 666 3084 287 
Q 2609 -91 1734 -91 
Q 1441 -91 1130 -33 
Q 819 25 488 141 
L 488 750 
Q 750 597 1062 519 
Q 1375 441 1716 441 
Q 2309 441 2620 675 
Q 2931 909 2931 1356 
Q 2931 1769 2642 2001 
Q 2353 2234 1838 2234 
L 1294 2234 
L 1294 2753 
L 1863 2753 
Q 2328 2753 2575 2939 
Q 2822 3125 2822 3475 
Q 2822 3834 2567 4026 
Q 2313 4219 1838 4219 
Q 1578 4219 1281 4162 
Q 984 4106 628 3988 
L 628 4550 
Q 988 4650 1302 4700 
Q 1616 4750 1894 4750 
Q 2613 4750 3031 4423 
Q 3450 4097 3450 3541 
Q 3450 3153 3228 2886 
Q 3006 2619 2597 2516 
z
" transform="scale(0.015625)"/>
       </defs>
       <use xlink:href="#DejaVuSans-2212"/>
       <use xlink:href="#DejaVuSans-30" x="83.789062"/>
       <use xlink:href="#DejaVuSans-2e" x="147.412109"/>
       <use xlink:href="#DejaVuSans-30" x="179.199219"/>
       <use xlink:href="#DejaVuSans-33" x="242.822266"/>
      </g>
     </g>
    </g>
    <g id="ytick_3">
     <g id="line2d_48">
      <path d="M 75.6175 382.700522 
L 1080.0175 382.700522 
" clip-path="url(#p97cf501b3b)" style="fill: none; stroke-dasharray: 1.85,0.8; stroke-dashoffset: 0; stroke: #000000; stroke-opacity: 0.5; stroke-width: 0.5"/>
     </g>
     <g id="line2d_49">
      <g>
       <use xlink:href="#m62ee98d635" x="75.6175" y="382.700522" style="stroke: #000000"/>
      </g>
     </g>
     <g id="line2d_50">
      <g>
       <use xlink:href="#m24acc4a424" x="1080.0175" y="382.700522" style="stroke: #000000"/>
      </g>
     </g>
     <g id="text_9">
      <!-- −0.02 -->
      <g transform="translate(23.085 388.779272) scale(0.16 -0.16)">
       <use xlink:href="#DejaVuSans-2212"/>
       <use xlink:href="#DejaVuSans-30" x="83.789062"/>
       <use xlink:href="#DejaVuSans-2e" x="147.412109"/>
       <use xlink:href="#DejaVuSans-30" x="179.199219"/>
       <use xlink:href="#DejaVuSans-32" x="242.822266"/>
      </g>
     </g>
    </g>
    <g id="ytick_4">
     <g id="line2d_51">
      <path d="M 75.6175 327.036536 
L 1080.0175 327.036536 
" clip-path="url(#p97cf501b3b)" style="fill: none; stroke-dasharray: 1.85,0.8; stroke-dashoffset: 0; stroke: #000000; stroke-opacity: 0.5; stroke-width: 0.5"/>
     </g>
     <g id="line2d_52">
      <g>
       <use xlink:href="#m62ee98d635" x="75.6175" y="327.036536" style="stroke: #000000"/>
      </g>
     </g>
     <g id="line2d_53">
      <g>
       <use xlink:href="#m24acc4a424" x="1080.0175" y="327.036536" style="stroke: #000000"/>
      </g>
     </g>
     <g id="text_10">
      <!-- −0.01 -->
      <g transform="translate(23.085 333.115286) scale(0.16 -0.16)">
       <defs>
        <path id="DejaVuSans-31" d="M 794 531 
L 1825 531 
L 1825 4091 
L 703 3866 
L 703 4441 
L 1819 4666 
L 2450 4666 
L 2450 531 
L 3481 531 
L 3481 0 
L 794 0 
L 794 531 
z
" transform="scale(0.015625)"/>
       </defs>
       <use xlink:href="#DejaVuSans-2212"/>
       <use xlink:href="#DejaVuSans-30" x="83.789062"/>
       <use xlink:href="#DejaVuSans-2e" x="147.412109"/>
       <use xlink:href="#DejaVuSans-30" x="179.199219"/>
       <use xlink:href="#DejaVuSans-31" x="242.822266"/>
      </g>
     </g>
    </g>
    <g id="ytick_5">
     <g id="line2d_54">
      <path d="M 75.6175 271.372551 
L 1080.0175 271.372551 
" clip-path="url(#p97cf501b3b)" style="fill: none; stroke-dasharray: 1.85,0.8; stroke-dashoffset: 0; stroke: #000000; stroke-opacity: 0.5; stroke-width: 0.5"/>
     </g>
     <g id="line2d_55">
      <g>
       <use xlink:href="#m62ee98d635" x="75.6175" y="271.372551" style="stroke: #000000"/>
      </g>
     </g>
     <g id="line2d_56">
      <g>
       <use xlink:href="#m24acc4a424" x="1080.0175" y="271.372551" style="stroke: #000000"/>
      </g>
     </g>
     <g id="text_11">
      <!-- 0.00 -->
      <g transform="translate(36.4925 277.451301) scale(0.16 -0.16)">
       <use xlink:href="#DejaVuSans-30"/>
       <use xlink:href="#DejaVuSans-2e" x="63.623047"/>
       <use xlink:href="#DejaVuSans-30" x="95.410156"/>
       <use xlink:href="#DejaVuSans-30" x="159.033203"/>
      </g>
     </g>
    </g>
    <g id="ytick_6">
     <g id="line2d_57">
      <path d="M 75.6175 215.708566 
L 1080.0175 215.708566 
" clip-path="url(#p97cf501b3b)" style="fill: none; stroke-dasharray: 1.85,0.8; stroke-dashoffset: 0; stroke: #000000; stroke-opacity: 0.5; stroke-width: 0.5"/>
     </g>
     <g id="line2d_58">
      <g>
       <use xlink:href="#m62ee98d635" x="75.6175" y="215.708566" style="stroke: #000000"/>
      </g>
     </g>
     <g id="line2d_59">
      <g>
       <use xlink:href="#m24acc4a424" x="1080.0175" y="215.708566" style="stroke: #000000"/>
      </g>
     </g>
     <g id="text_12">
      <!-- 0.01 -->
      <g transform="translate(36.4925 221.787316) scale(0.16 -0.16)">
       <use xlink:href="#DejaVuSans-30"/>
       <use xlink:href="#DejaVuSans-2e" x="63.623047"/>
       <use xlink:href="#DejaVuSans-30" x="95.410156"/>
       <use xlink:href="#DejaVuSans-31" x="159.033203"/>
      </g>
     </g>
    </g>
    <g id="ytick_7">
     <g id="line2d_60">
      <path d="M 75.6175 160.04458 
L 1080.0175 160.04458 
" clip-path="url(#p97cf501b3b)" style="fill: none; stroke-dasharray: 1.85,0.8; stroke-dashoffset: 0; stroke: #000000; stroke-opacity: 0.5; stroke-width: 0.5"/>
     </g>
     <g id="line2d_61">
      <g>
       <use xlink:href="#m62ee98d635" x="75.6175" y="160.04458" style="stroke: #000000"/>
      </g>
     </g>
     <g id="line2d_62">
      <g>
       <use xlink:href="#m24acc4a424" x="1080.0175" y="160.04458" style="stroke: #000000"/>
      </g>
     </g>
     <g id="text_13">
      <!-- 0.02 -->
      <g transform="translate(36.4925 166.12333) scale(0.16 -0.16)">
       <use xlink:href="#DejaVuSans-30"/>
       <use xlink:href="#DejaVuSans-2e" x="63.623047"/>
       <use xlink:href="#DejaVuSans-30" x="95.410156"/>
       <use xlink:href="#DejaVuSans-32" x="159.033203"/>
      </g>
     </g>
    </g>
    <g id="ytick_8">
     <g id="line2d_63">
      <path d="M 75.6175 104.380595 
L 1080.0175 104.380595 
" clip-path="url(#p97cf501b3b)" style="fill: none; stroke-dasharray: 1.85,0.8; stroke-dashoffset: 0; stroke: #000000; stroke-opacity: 0.5; stroke-width: 0.5"/>
     </g>
     <g id="line2d_64">
      <g>
       <use xlink:href="#m62ee98d635" x="75.6175" y="104.380595" style="stroke: #000000"/>
      </g>
     </g>
     <g id="line2d_65">
      <g>
       <use xlink:href="#m24acc4a424" x="1080.0175" y="104.380595" style="stroke: #000000"/>
      </g>
     </g>
     <g id="text_14">
      <!-- 0.03 -->
      <g transform="translate(36.4925 110.459345) scale(0.16 -0.16)">
       <use xlink:href="#DejaVuSans-30"/>
       <use xlink:href="#DejaVuSans-2e" x="63.623047"/>
       <use xlink:href="#DejaVuSans-30" x="95.410156"/>
       <use xlink:href="#DejaVuSans-33" x="159.033203"/>
      </g>
     </g>
    </g>
    <g id="ytick_9">
     <g id="line2d_66">
      <path d="M 75.6175 48.716609 
L 1080.0175 48.716609 
" clip-path="url(#p97cf501b3b)" style="fill: none; stroke-dasharray: 1.85,0.8; stroke-dashoffset: 0; stroke: #000000; stroke-opacity: 0.5; stroke-width: 0.5"/>
     </g>
     <g id="line2d_67">
      <g>
       <use xlink:href="#m62ee98d635" x="75.6175" y="48.716609" style="stroke: #000000"/>
      </g>
     </g>
     <g id="line2d_68">
      <g>
       <use xlink:href="#m24acc4a424" x="1080.0175" y="48.716609" style="stroke: #000000"/>
      </g>
     </g>
     <g id="text_15">
      <!-- 0.04 -->
      <g transform="translate(36.4925 54.795359) scale(0.16 -0.16)">
       <use xlink:href="#DejaVuSans-30"/>
       <use xlink:href="#DejaVuSans-2e" x="63.623047"/>
       <use xlink:href="#DejaVuSans-30" x="95.410156"/>
       <use xlink:href="#DejaVuSans-34" x="159.033203"/>
      </g>
     </g>
    </g>
    <g id="ytick_10">
     <g id="line2d_69">
      <defs>
       <path id="m32ac7bf9dd" d="M 0 0 
L 3 0 
" style="stroke: #000000"/>
      </defs>
      <g>
       <use xlink:href="#m32ac7bf9dd" x="75.6175" y="516.294087" style="stroke: #000000"/>
      </g>
     </g>
     <g id="line2d_70">
      <defs>
       <path id="mc370b57c1b" d="M 0 0 
L -3 0 
" style="stroke: #000000"/>
      </defs>
      <g>
       <use xlink:href="#mc370b57c1b" x="1080.0175" y="516.294087" style="stroke: #000000"/>
      </g>
     </g>
    </g>
    <g id="ytick_11">
     <g id="line2d_71">
      <g>
       <use xlink:href="#m32ac7bf9dd" x="75.6175" y="505.16129" style="stroke: #000000"/>
      </g>
     </g>
     <g id="line2d_72">
      <g>
       <use xlink:href="#mc370b57c1b" x="1080.0175" y="505.16129" style="stroke: #000000"/>
      </g>
     </g>
    </g>
    <g id="ytick_12">
     <g id="line2d_73">
      <g>
       <use xlink:href="#m32ac7bf9dd" x="75.6175" y="482.895696" style="stroke: #000000"/>
      </g>
     </g>
     <g id="line2d_74">
      <g>
       <use xlink:href="#mc370b57c1b" x="1080.0175" y="482.895696" style="stroke: #000000"/>
      </g>
     </g>
    </g>
    <g id="ytick_13">
     <g id="line2d_75">
      <g>
       <use xlink:href="#m32ac7bf9dd" x="75.6175" y="471.762898" style="stroke: #000000"/>
      </g>
     </g>
     <g id="line2d_76">
      <g>
       <use xlink:href="#mc370b57c1b" x="1080.0175" y="471.762898" style="stroke: #000000"/>
      </g>
     </g>
    </g>
    <g id="ytick_14">
     <g id="line2d_77">
      <g>
       <use xlink:href="#m32ac7bf9dd" x="75.6175" y="460.630101" style="stroke: #000000"/>
      </g>
     </g>
     <g id="line2d_78">
      <g>
       <use xlink:href="#mc370b57c1b" x="1080.0175" y="460.630101" style="stroke: #000000"/>
      </g>
     </g>
    </g>
    <g id="ytick_15">
     <g id="line2d_79">
      <g>
       <use xlink:href="#m32ac7bf9dd" x="75.6175" y="449.497304" style="stroke: #000000"/>
      </g>
     </g>
     <g id="line2d_80">
      <g>
       <use xlink:href="#mc370b57c1b" x="1080.0175" y="449.497304" style="stroke: #000000"/>
      </g>
     </g>
    </g>
    <g id="ytick_16">
     <g id="line2d_81">
      <g>
       <use xlink:href="#m32ac7bf9dd" x="75.6175" y="427.23171" style="stroke: #000000"/>
      </g>
     </g>
     <g id="line2d_82">
      <g>
       <use xlink:href="#mc370b57c1b" x="1080.0175" y="427.23171" style="stroke: #000000"/>
      </g>
     </g>
    </g>
    <g id="ytick_17">
     <g id="line2d_83">
      <g>
       <use xlink:href="#m32ac7bf9dd" x="75.6175" y="416.098913" style="stroke: #000000"/>
      </g>
     </g>
     <g id="line2d_84">
      <g>
       <use xlink:href="#mc370b57c1b" x="1080.0175" y="416.098913" style="stroke: #000000"/>
      </g>
     </g>
    </g>
    <g id="ytick_18">
     <g id="line2d_85">
      <g>
       <use xlink:href="#m32ac7bf9dd" x="75.6175" y="404.966116" style="stroke: #000000"/>
      </g>
     </g>
     <g id="line2d_86">
      <g>
       <use xlink:href="#mc370b57c1b" x="1080.0175" y="404.966116" style="stroke: #000000"/>
      </g>
     </g>
    </g>
    <g id="ytick_19">
     <g id="line2d_87">
      <g>
       <use xlink:href="#m32ac7bf9dd" x="75.6175" y="393.833319" style="stroke: #000000"/>
      </g>
     </g>
     <g id="line2d_88">
      <g>
       <use xlink:href="#mc370b57c1b" x="1080.0175" y="393.833319" style="stroke: #000000"/>
      </g>
     </g>
    </g>
    <g id="ytick_20">
     <g id="line2d_89">
      <g>
       <use xlink:href="#m32ac7bf9dd" x="75.6175" y="371.567725" style="stroke: #000000"/>
      </g>
     </g>
     <g id="line2d_90">
      <g>
       <use xlink:href="#mc370b57c1b" x="1080.0175" y="371.567725" style="stroke: #000000"/>
      </g>
     </g>
    </g>
    <g id="ytick_21">
     <g id="line2d_91">
      <g>
       <use xlink:href="#m32ac7bf9dd" x="75.6175" y="360.434928" style="stroke: #000000"/>
      </g>
     </g>
     <g id="line2d_92">
      <g>
       <use xlink:href="#mc370b57c1b" x="1080.0175" y="360.434928" style="stroke: #000000"/>
      </g>
     </g>
    </g>
    <g id="ytick_22">
     <g id="line2d_93">
      <g>
       <use xlink:href="#m32ac7bf9dd" x="75.6175" y="349.302131" style="stroke: #000000"/>
      </g>
     </g>
     <g id="line2d_94">
      <g>
       <use xlink:href="#mc370b57c1b" x="1080.0175" y="349.302131" style="stroke: #000000"/>
      </g>
     </g>
    </g>
    <g id="ytick_23">
     <g id="line2d_95">
      <g>
       <use xlink:href="#m32ac7bf9dd" x="75.6175" y="338.169334" style="stroke: #000000"/>
      </g>
     </g>
     <g id="line2d_96">
      <g>
       <use xlink:href="#mc370b57c1b" x="1080.0175" y="338.169334" style="stroke: #000000"/>
      </g>
     </g>
    </g>
    <g id="ytick_24">
     <g id="line2d_97">
      <g>
       <use xlink:href="#m32ac7bf9dd" x="75.6175" y="315.903739" style="stroke: #000000"/>
      </g>
     </g>
     <g id="line2d_98">
      <g>
       <use xlink:href="#mc370b57c1b" x="1080.0175" y="315.903739" style="stroke: #000000"/>
      </g>
     </g>
    </g>
    <g id="ytick_25">
     <g id="line2d_99">
      <g>
       <use xlink:href="#m32ac7bf9dd" x="75.6175" y="304.770942" style="stroke: #000000"/>
      </g>
     </g>
     <g id="line2d_100">
      <g>
       <use xlink:href="#mc370b57c1b" x="1080.0175" y="304.770942" style="stroke: #000000"/>
      </g>
     </g>
    </g>
    <g id="ytick_26">
     <g id="line2d_101">
      <g>
       <use xlink:href="#m32ac7bf9dd" x="75.6175" y="293.638145" style="stroke: #000000"/>
      </g>
     </g>
     <g id="line2d_102">
      <g>
       <use xlink:href="#mc370b57c1b" x="1080.0175" y="293.638145" style="stroke: #000000"/>
      </g>
     </g>
    </g>
    <g id="ytick_27">
     <g id="line2d_103">
      <g>
       <use xlink:href="#m32ac7bf9dd" x="75.6175" y="282.505348" style="stroke: #000000"/>
      </g>
     </g>
     <g id="line2d_104">
      <g>
       <use xlink:href="#mc370b57c1b" x="1080.0175" y="282.505348" style="stroke: #000000"/>
      </g>
     </g>
    </g>
    <g id="ytick_28">
     <g id="line2d_105">
      <g>
       <use xlink:href="#m32ac7bf9dd" x="75.6175" y="260.239754" style="stroke: #000000"/>
      </g>
     </g>
     <g id="line2d_106">
      <g>
       <use xlink:href="#mc370b57c1b" x="1080.0175" y="260.239754" style="stroke: #000000"/>
      </g>
     </g>
    </g>
    <g id="ytick_29">
     <g id="line2d_107">
      <g>
       <use xlink:href="#m32ac7bf9dd" x="75.6175" y="249.106957" style="stroke: #000000"/>
      </g>
     </g>
     <g id="line2d_108">
      <g>
       <use xlink:href="#mc370b57c1b" x="1080.0175" y="249.106957" style="stroke: #000000"/>
      </g>
     </g>
    </g>
    <g id="ytick_30">
     <g id="line2d_109">
      <g>
       <use xlink:href="#m32ac7bf9dd" x="75.6175" y="237.97416" style="stroke: #000000"/>
      </g>
     </g>
     <g id="line2d_110">
      <g>
       <use xlink:href="#mc370b57c1b" x="1080.0175" y="237.97416" style="stroke: #000000"/>
      </g>
     </g>
    </g>
    <g id="ytick_31">
     <g id="line2d_111">
      <g>
       <use xlink:href="#m32ac7bf9dd" x="75.6175" y="226.841363" style="stroke: #000000"/>
      </g>
     </g>
     <g id="line2d_112">
      <g>
       <use xlink:href="#mc370b57c1b" x="1080.0175" y="226.841363" style="stroke: #000000"/>
      </g>
     </g>
    </g>
    <g id="ytick_32">
     <g id="line2d_113">
      <g>
       <use xlink:href="#m32ac7bf9dd" x="75.6175" y="204.575769" style="stroke: #000000"/>
      </g>
     </g>
     <g id="line2d_114">
      <g>
       <use xlink:href="#mc370b57c1b" x="1080.0175" y="204.575769" style="stroke: #000000"/>
      </g>
     </g>
    </g>
    <g id="ytick_33">
     <g id="line2d_115">
      <g>
       <use xlink:href="#m32ac7bf9dd" x="75.6175" y="193.442971" style="stroke: #000000"/>
      </g>
     </g>
     <g id="line2d_116">
      <g>
       <use xlink:href="#mc370b57c1b" x="1080.0175" y="193.442971" style="stroke: #000000"/>
      </g>
     </g>
    </g>
    <g id="ytick_34">
     <g id="line2d_117">
      <g>
       <use xlink:href="#m32ac7bf9dd" x="75.6175" y="182.310174" style="stroke: #000000"/>
      </g>
     </g>
     <g id="line2d_118">
      <g>
       <use xlink:href="#mc370b57c1b" x="1080.0175" y="182.310174" style="stroke: #000000"/>
      </g>
     </g>
    </g>
    <g id="ytick_35">
     <g id="line2d_119">
      <g>
       <use xlink:href="#m32ac7bf9dd" x="75.6175" y="171.177377" style="stroke: #000000"/>
      </g>
     </g>
     <g id="line2d_120">
      <g>
       <use xlink:href="#mc370b57c1b" x="1080.0175" y="171.177377" style="stroke: #000000"/>
      </g>
     </g>
    </g>
    <g id="ytick_36">
     <g id="line2d_121">
      <g>
       <use xlink:href="#m32ac7bf9dd" x="75.6175" y="148.911783" style="stroke: #000000"/>
      </g>
     </g>
     <g id="line2d_122">
      <g>
       <use xlink:href="#mc370b57c1b" x="1080.0175" y="148.911783" style="stroke: #000000"/>
      </g>
     </g>
    </g>
    <g id="ytick_37">
     <g id="line2d_123">
      <g>
       <use xlink:href="#m32ac7bf9dd" x="75.6175" y="137.778986" style="stroke: #000000"/>
      </g>
     </g>
     <g id="line2d_124">
      <g>
       <use xlink:href="#mc370b57c1b" x="1080.0175" y="137.778986" style="stroke: #000000"/>
      </g>
     </g>
    </g>
    <g id="ytick_38">
     <g id="line2d_125">
      <g>
       <use xlink:href="#m32ac7bf9dd" x="75.6175" y="126.646189" style="stroke: #000000"/>
      </g>
     </g>
     <g id="line2d_126">
      <g>
       <use xlink:href="#mc370b57c1b" x="1080.0175" y="126.646189" style="stroke: #000000"/>
      </g>
     </g>
    </g>
    <g id="ytick_39">
     <g id="line2d_127">
      <g>
       <use xlink:href="#m32ac7bf9dd" x="75.6175" y="115.513392" style="stroke: #000000"/>
      </g>
     </g>
     <g id="line2d_128">
      <g>
       <use xlink:href="#mc370b57c1b" x="1080.0175" y="115.513392" style="stroke: #000000"/>
      </g>
     </g>
    </g>
    <g id="ytick_40">
     <g id="line2d_129">
      <g>
       <use xlink:href="#m32ac7bf9dd" x="75.6175" y="93.247798" style="stroke: #000000"/>
      </g>
     </g>
     <g id="line2d_130">
      <g>
       <use xlink:href="#mc370b57c1b" x="1080.0175" y="93.247798" style="stroke: #000000"/>
      </g>
     </g>
    </g>
    <g id="ytick_41">
     <g id="line2d_131">
      <g>
       <use xlink:href="#m32ac7bf9dd" x="75.6175" y="82.115001" style="stroke: #000000"/>
      </g>
     </g>
     <g id="line2d_132">
      <g>
       <use xlink:href="#mc370b57c1b" x="1080.0175" y="82.115001" style="stroke: #000000"/>
      </g>
     </g>
    </g>
    <g id="ytick_42">
     <g id="line2d_133">
      <g>
       <use xlink:href="#m32ac7bf9dd" x="75.6175" y="70.982204" style="stroke: #000000"/>
      </g>
     </g>
     <g id="line2d_134">
      <g>
       <use xlink:href="#mc370b57c1b" x="1080.0175" y="70.982204" style="stroke: #000000"/>
      </g>
     </g>
    </g>
    <g id="ytick_43">
     <g id="line2d_135">
      <g>
       <use xlink:href="#m32ac7bf9dd" x="75.6175" y="59.849407" style="stroke: #000000"/>
      </g>
     </g>
     <g id="line2d_136">
      <g>
       <use xlink:href="#mc370b57c1b" x="1080.0175" y="59.849407" style="stroke: #000000"/>
      </g>
     </g>
    </g>
    <g id="ytick_44">
     <g id="line2d_137">
      <g>
       <use xlink:href="#m32ac7bf9dd" x="75.6175" y="37.583812" style="stroke: #000000"/>
      </g>
     </g>
     <g id="line2d_138">
      <g>
       <use xlink:href="#mc370b57c1b" x="1080.0175" y="37.583812" style="stroke: #000000"/>
      </g>
     </g>
    </g>
    <g id="ytick_45">
     <g id="line2d_139">
      <g>
       <use xlink:href="#m32ac7bf9dd" x="75.6175" y="26.451015" style="stroke: #000000"/>
      </g>
     </g>
     <g id="line2d_140">
      <g>
       <use xlink:href="#mc370b57c1b" x="1080.0175" y="26.451015" style="stroke: #000000"/>
      </g>
     </g>
    </g>
    <g id="text_16">
     <!-- IDR (%) -->
     <g transform="translate(15.7575 301.7025) rotate(-90) scale(0.16 -0.16)">
      <defs>
       <path id="DejaVuSans-49" d="M 628 4666 
L 1259 4666 
L 1259 0 
L 628 0 
L 628 4666 
z
" transform="scale(0.015625)"/>
       <path id="DejaVuSans-44" d="M 1259 4147 
L 1259 519 
L 2022 519 
Q 2988 519 3436 956 
Q 3884 1394 3884 2338 
Q 3884 3275 3436 3711 
Q 2988 4147 2022 4147 
L 1259 4147 
z
M 628 4666 
L 1925 4666 
Q 3281 4666 3915 4102 
Q 4550 3538 4550 2338 
Q 4550 1131 3912 565 
Q 3275 0 1925 0 
L 628 0 
L 628 4666 
z
" transform="scale(0.015625)"/>
       <path id="DejaVuSans-52" d="M 2841 2188 
Q 3044 2119 3236 1894 
Q 3428 1669 3622 1275 
L 4263 0 
L 3584 0 
L 2988 1197 
Q 2756 1666 2539 1819 
Q 2322 1972 1947 1972 
L 1259 1972 
L 1259 0 
L 628 0 
L 628 4666 
L 2053 4666 
Q 2853 4666 3247 4331 
Q 3641 3997 3641 3322 
Q 3641 2881 3436 2590 
Q 3231 2300 2841 2188 
z
M 1259 4147 
L 1259 2491 
L 2053 2491 
Q 2509 2491 2742 2702 
Q 2975 2913 2975 3322 
Q 2975 3731 2742 3939 
Q 2509 4147 2053 4147 
L 1259 4147 
z
" transform="scale(0.015625)"/>
       <path id="DejaVuSans-20" transform="scale(0.015625)"/>
       <path id="DejaVuSans-25" d="M 4653 2053 
Q 4381 2053 4226 1822 
Q 4072 1591 4072 1178 
Q 4072 772 4226 539 
Q 4381 306 4653 306 
Q 4919 306 5073 539 
Q 5228 772 5228 1178 
Q 5228 1588 5073 1820 
Q 4919 2053 4653 2053 
z
M 4653 2450 
Q 5147 2450 5437 2106 
Q 5728 1763 5728 1178 
Q 5728 594 5436 251 
Q 5144 -91 4653 -91 
Q 4153 -91 3862 251 
Q 3572 594 3572 1178 
Q 3572 1766 3864 2108 
Q 4156 2450 4653 2450 
z
M 1428 4353 
Q 1159 4353 1004 4120 
Q 850 3888 850 3481 
Q 850 3069 1003 2837 
Q 1156 2606 1428 2606 
Q 1700 2606 1854 2837 
Q 2009 3069 2009 3481 
Q 2009 3884 1853 4118 
Q 1697 4353 1428 4353 
z
M 4250 4750 
L 4750 4750 
L 1831 -91 
L 1331 -91 
L 4250 4750 
z
M 1428 4750 
Q 1922 4750 2215 4408 
Q 2509 4066 2509 3481 
Q 2509 2891 2217 2550 
Q 1925 2209 1428 2209 
Q 931 2209 642 2551 
Q 353 2894 353 3481 
Q 353 4063 643 4406 
Q 934 4750 1428 4750 
z
" transform="scale(0.015625)"/>
      </defs>
      <use xlink:href="#DejaVuSans-49"/>
      <use xlink:href="#DejaVuSans-44" x="29.492188"/>
      <use xlink:href="#DejaVuSans-52" x="106.494141"/>
      <use xlink:href="#DejaVuSans-20" x="175.976562"/>
      <use xlink:href="#DejaVuSans-28" x="207.763672"/>
      <use xlink:href="#DejaVuSans-25" x="246.777344"/>
      <use xlink:href="#DejaVuSans-29" x="341.796875"/>
     </g>
    </g>
   </g>
   <g id="line2d_141">
    <path d="M 121.272045 271.372551 
L 121.494995 271.552784 
L 121.940895 272.404354 
L 122.163845 272.092805 
L 122.498269 271.483529 
L 122.609744 271.485948 
L 122.944169 272.010524 
L 123.167119 272.188595 
L 123.390069 271.976903 
L 123.724493 271.604476 
L 123.947443 271.725897 
L 124.281868 271.998574 
L 125.173667 271.376626 
L 125.396617 271.269574 
L 125.731041 271.431999 
L 125.953991 271.213261 
L 126.176941 271.021727 
L 126.399891 271.416549 
L 126.622841 271.806898 
L 126.84579 271.648345 
L 127.06874 271.441113 
L 127.29169 271.750236 
L 127.51464 272.088592 
L 127.626115 271.98021 
L 127.960539 270.870128 
L 128.183489 270.362558 
L 128.294964 270.55728 
L 128.517914 272.144458 
L 128.740864 273.783701 
L 128.852339 273.723203 
L 129.075288 271.463653 
L 129.409713 268.376174 
L 129.521188 268.567827 
L 129.855613 271.133377 
L 130.190037 273.02459 
L 130.301512 272.896239 
L 130.635937 271.730729 
L 130.747412 271.947884 
L 131.081837 273.231613 
L 131.527736 271.53914 
L 131.862161 272.162939 
L 131.973636 272.255206 
L 132.196586 273.222072 
L 132.75396 276.705439 
L 132.97691 276.923642 
L 133.19986 277.497896 
L 133.311335 277.270468 
L 133.757234 273.509376 
L 134.091659 275.778157 
L 134.314609 273.775428 
L 134.537559 271.942774 
L 134.649034 272.258425 
L 134.983458 274.72514 
L 135.094933 274.381732 
L 135.317883 273.300596 
L 135.429358 273.885727 
L 135.652308 276.244933 
L 135.763783 276.04193 
L 136.209682 267.572442 
L 136.321157 268.880261 
L 136.655582 275.213436 
L 136.767057 274.13691 
L 137.212956 264.595104 
L 137.324431 264.914982 
L 137.770331 272.524023 
L 137.881806 272.469308 
L 138.327705 269.026213 
L 138.66213 266.031496 
L 138.773605 266.707567 
L 138.996555 273.912077 
L 139.219504 280.361149 
L 139.330979 278.83853 
L 139.776879 257.580627 
L 139.888354 259.496238 
L 140.445728 283.69035 
L 140.668678 276.036489 
L 140.891628 268.534894 
L 141.003103 267.281969 
L 141.114578 267.425918 
L 141.671952 273.381642 
L 142.006377 276.477938 
L 142.117852 274.16923 
L 142.563751 249.183885 
L 142.675226 249.915723 
L 143.232601 270.054333 
L 143.6785 263.76763 
L 143.90145 266.759165 
L 144.012925 266.694741 
L 144.235875 257.176267 
L 144.793249 221.866303 
L 144.904724 229.082675 
L 145.127674 273.352125 
L 145.462099 331.176991 
L 145.573574 322.955764 
L 146.019473 242.021692 
L 146.130948 244.154129 
L 146.576848 285.881457 
L 146.688323 283.705444 
L 147.357172 243.771639 
L 147.468647 244.001214 
L 147.580122 247.799955 
L 147.803072 268.83405 
L 148.137496 297.550671 
L 148.248971 296.907762 
L 148.694871 283.595862 
L 148.806346 283.770397 
L 148.917821 287.017883 
L 149.140771 307.344708 
L 149.475195 346.887073 
L 149.58667 348.940605 
L 149.698145 343.351299 
L 150.366994 285.59841 
L 150.812894 267.811232 
L 150.924369 268.445652 
L 151.258794 277.979625 
L 151.370269 271.498229 
L 151.816168 221.630595 
L 152.039118 262.653168 
L 152.262068 308.358037 
L 152.373543 312.466175 
L 152.596492 288.616959 
L 152.819442 265.096267 
L 152.930917 263.567919 
L 153.265342 273.095692 
L 153.376817 271.120899 
L 153.711241 257.944069 
L 153.822716 260.173421 
L 154.268616 289.326887 
L 154.603041 264.490661 
L 154.714516 265.347344 
L 154.937465 292.16746 
L 155.27189 329.79891 
L 155.383365 331.924275 
L 155.49484 329.890761 
L 155.71779 316.717343 
L 156.275164 280.94527 
L 156.609589 266.66678 
L 156.721064 266.059733 
L 156.944014 269.394914 
L 157.055488 268.947215 
L 157.278438 254.502377 
L 157.612863 221.732725 
L 157.724338 219.863066 
L 157.947288 230.750208 
L 158.170237 237.569721 
L 158.393187 227.018078 
L 158.616137 214.470332 
L 158.727612 214.157598 
L 158.950562 229.795738 
L 159.284986 255.399602 
L 159.396461 252.892584 
L 159.730886 236.351556 
L 159.842361 240.666346 
L 160.065311 272.087493 
L 160.399735 329.438524 
L 160.622685 338.232444 
L 160.845635 323.718037 
L 161.18006 293.302577 
L 161.291535 292.154341 
L 161.40301 297.409929 
L 161.848909 340.997881 
L 161.960384 337.835091 
L 162.183334 301.132967 
L 162.517759 250.18796 
L 162.629233 254.170044 
L 162.852183 268.389825 
L 162.963658 262.607771 
L 163.409558 199.111225 
L 163.521033 202.459568 
L 163.855457 226.779376 
L 163.966932 226.085517 
L 164.524307 204.963568 
L 164.635782 205.136462 
L 164.747257 204.148172 
L 164.970206 194.568687 
L 165.304631 180.378832 
L 165.416106 181.54741 
L 165.750531 189.659461 
L 165.862006 188.890153 
L 166.084955 180.425339 
L 166.307905 171.804465 
L 166.41938 171.617111 
L 166.86528 182.040469 
L 167.08823 177.557076 
L 167.311179 173.2751 
L 167.422654 173.823583 
L 167.868554 180.029101 
L 168.314453 174.625249 
L 168.425928 175.319863 
L 168.760353 178.975288 
L 168.871828 178.751637 
L 169.317728 175.596687 
L 169.986577 178.988713 
L 170.098052 220.316994 
L 170.432477 498.0375 
L 170.543951 493.603969 
L 170.989851 257.693387 
L 171.212801 360.642864 
L 171.435751 451.701809 
L 171.547226 436.470143 
L 171.88165 301.559952 
L 171.993125 301.755988 
L 172.439025 419.515267 
L 172.661975 369.577192 
L 172.884924 323.182917 
L 172.996399 329.797059 
L 173.330824 396.999379 
L 173.442299 397.934857 
L 173.888198 338.582458 
L 173.999673 346.500877 
L 174.334098 386.92741 
L 174.445573 384.148624 
L 174.891473 349.282236 
L 175.337372 379.216275 
L 175.448847 375.534746 
L 175.783272 355.038484 
L 175.894747 356.265677 
L 176.340646 374.033061 
L 176.786546 358.679784 
L 176.898021 360.349753 
L 177.009496 336.583102 
L 177.455395 44.4375 
L 177.678345 176.983424 
L 177.901295 283.275491 
L 178.01277 261.226276 
L 178.347194 96.96026 
L 178.458669 99.980954 
L 178.904569 242.800966 
L 179.127519 179.147519 
L 179.350469 124.706568 
L 179.461943 134.579855 
L 179.796368 216.286626 
L 179.907843 215.645798 
L 180.353743 144.485272 
L 180.576692 175.118908 
L 180.799642 203.080698 
L 180.911117 198.780925 
L 181.022592 186.874072 
L 181.134067 209.263827 
L 181.579967 492.957845 
L 181.802916 370.9771 
L 182.025866 264.859222 
L 182.137341 282.822946 
L 182.471766 440.607596 
L 182.583241 440.31789 
L 183.02914 302.657181 
L 183.25209 360.744191 
L 183.47504 413.766046 
L 183.586515 405.442202 
L 183.920939 328.172964 
L 184.032414 327.127233 
L 184.478314 385.377506 
L 184.589789 382.141277 
L 184.924214 349.676852 
L 185.035688 349.660335 
L 185.481588 378.449648 
L 185.704538 366.468768 
L 185.927488 350.620408 
L 186.484862 275.637425 
L 186.707812 269.380576 
L 186.930762 246.612384 
L 187.376661 180.930138 
L 187.488136 180.551989 
L 187.711086 191.832768 
L 187.934036 212.322333 
L 188.49141 309.636604 
L 188.602885 296.927213 
L 189.16026 167.28526 
L 189.38321 194.354372 
L 189.606159 212.743381 
L 189.717634 204.930454 
L 190.052059 155.733478 
L 190.163534 154.741434 
L 190.609433 195.913429 
L 190.720908 190.59035 
L 191.055333 162.578877 
L 191.166808 164.363251 
L 191.612708 188.439553 
L 192.058607 167.896356 
L 192.170082 170.455164 
L 192.281557 176.673015 
L 192.393032 200.060834 
L 192.950406 433.977869 
L 193.173356 363.621442 
L 193.396306 309.558111 
L 193.507781 322.265478 
L 193.842206 407.672238 
L 193.953681 405.14571 
L 194.39958 331.58036 
L 194.62253 365.399368 
L 194.84548 392.795439 
L 194.956955 386.987387 
L 195.06843 362.951713 
L 195.514329 147.042655 
L 195.625804 158.152324 
L 196.071704 353.332072 
L 196.183179 344.784929 
L 196.740553 136.441018 
L 196.963503 243.989722 
L 197.186453 383.512103 
L 197.297928 399.863529 
L 197.409402 365.054937 
L 197.855302 91.34296 
L 197.966777 100.203266 
L 198.635626 335.58718 
L 198.858576 267.909123 
L 199.193001 179.174612 
L 199.304476 187.265388 
L 199.86185 306.645846 
L 199.973325 298.967243 
L 200.419225 194.103126 
L 200.5307 195.130867 
L 200.753649 254.247175 
L 201.088074 336.727707 
L 201.199549 335.866987 
L 201.422499 297.997196 
L 201.756924 237.852027 
L 201.868398 238.609425 
L 202.091348 274.42975 
L 202.425773 347.752737 
L 202.537248 354.090387 
L 202.648723 340.731683 
L 203.206097 171.848247 
L 203.317572 176.084492 
L 203.540522 226.028206 
L 204.097896 402.501495 
L 204.320846 342.912269 
L 204.655271 231.746381 
L 204.766746 226.974278 
L 204.989696 260.752448 
L 205.212645 295.611633 
L 205.32412 294.882006 
L 205.658545 269.375429 
L 205.881495 298.503144 
L 206.104445 334.34174 
L 206.21592 338.987451 
L 206.327394 332.125798 
L 206.661819 271.02002 
L 207.219194 168.89605 
L 207.330669 170.751543 
L 207.553618 199.46028 
L 208.110993 281.15679 
L 208.222468 277.788877 
L 208.445418 236.449153 
L 208.779842 179.212129 
L 208.891317 184.349499 
L 209.783116 311.913233 
L 210.117541 387.539189 
L 210.229016 389.977828 
L 210.674916 340.73075 
L 210.78639 345.841498 
L 211.120815 381.997979 
L 211.23229 381.989389 
L 211.67819 351.481309 
L 211.901139 364.6255 
L 212.124089 376.707812 
L 212.235564 374.909677 
L 212.569989 357.410402 
L 212.681464 357.281201 
L 212.904414 366.588737 
L 213.015888 365.878072 
L 213.127363 333.935575 
L 213.573263 106.024722 
L 213.684738 115.940722 
L 214.130637 232.521839 
L 214.576537 131.526892 
L 214.688012 144.476255 
L 215.022437 212.755789 
L 215.133912 208.37932 
L 215.468336 151.605954 
L 215.579811 156.853182 
L 215.802761 259.928814 
L 216.025711 358.735307 
L 216.137186 359.024239 
L 216.360135 274.287401 
L 216.583085 189.210227 
L 216.69456 181.884504 
L 216.91751 239.150828 
L 217.251935 344.296208 
L 217.36341 347.227804 
L 217.586359 305.794604 
L 217.920784 237.569414 
L 218.032259 239.616967 
L 218.255209 285.081517 
L 218.589633 363.332042 
L 218.701108 367.547234 
L 218.812583 359.341319 
L 219.369958 287.768034 
L 219.481433 287.567915 
L 219.592908 288.966925 
L 219.704382 287.728435 
L 219.927332 270.045666 
L 220.261757 241.185472 
L 220.373232 245.616465 
L 220.819132 296.118239 
L 220.930606 286.30378 
L 221.376506 211.291911 
L 221.487981 214.566099 
L 222.045355 294.861408 
L 222.268305 270.810101 
L 222.60273 235.142738 
L 222.714205 237.383382 
L 223.04863 257.56176 
L 223.160104 255.754237 
L 223.383054 242.955421 
L 223.494529 243.931878 
L 223.717479 276.893667 
L 223.940429 314.923453 
L 224.051904 317.694802 
L 224.274853 287.209745 
L 224.609278 242.17791 
L 224.720753 249.208965 
L 225.278128 343.161111 
L 225.389602 334.765959 
L 225.946977 234.626389 
L 226.058452 238.69378 
L 226.504351 286.906935 
L 226.615826 285.733559 
L 226.838776 263.624075 
L 227.173201 232.980112 
L 227.284676 235.279602 
L 227.730575 265.542813 
L 227.84205 263.677803 
L 228.28795 242.820154 
L 228.399425 243.998201 
L 228.733849 250.257151 
L 228.845324 248.33979 
L 229.291224 235.466776 
L 229.402699 239.725544 
L 229.848598 286.249635 
L 229.960073 284.529413 
L 230.183023 255.559666 
L 230.405973 225.287287 
L 230.517448 222.531221 
L 230.740398 245.172703 
L 231.074822 282.426609 
L 231.186297 280.747202 
L 231.632197 258.117913 
L 231.743672 260.368524 
L 232.189571 283.506245 
L 232.301046 283.110755 
L 232.523996 267.6937 
L 232.746946 250.774113 
L 232.858421 249.656361 
L 233.081371 262.667152 
L 233.415795 287.313202 
L 233.638745 291.055694 
L 234.084645 282.972432 
L 234.307594 284.711875 
L 234.419069 283.747066 
L 234.864969 268.155086 
L 234.976444 268.788764 
L 235.199394 280.513289 
L 235.422343 294.169411 
L 235.533818 295.454933 
L 235.756768 283.602354 
L 235.979718 270.704816 
L 236.091193 271.840075 
L 236.537092 292.804476 
L 236.760042 282.326243 
L 236.982992 271.347098 
L 237.094467 271.003571 
L 237.428892 281.074994 
L 237.540367 279.555793 
L 238.097741 244.895695 
L 238.320691 256.122729 
L 238.76659 287.430202 
L 238.878065 288.178285 
L 239.101015 280.907643 
L 239.43544 270.935117 
L 239.546915 272.07853 
L 239.881339 279.313591 
L 239.992814 278.335563 
L 240.550189 264.562817 
L 240.661664 266.764301 
L 241.107563 284.350231 
L 241.219038 283.298101 
L 241.441988 276.443612 
L 241.553463 276.9364 
L 241.999363 301.421903 
L 242.110837 298.686155 
L 242.333787 274.789482 
L 242.668212 229.915809 
L 242.779687 226.820384 
L 242.891162 231.292385 
L 243.448536 275.750044 
L 243.560011 273.911511 
L 243.894436 260.253761 
L 244.005911 261.753793 
L 244.563285 290.196701 
L 244.67476 284.997121 
L 245.232135 228.45576 
L 245.34361 232.351756 
L 245.900984 278.574593 
L 246.012459 279.559688 
L 246.235409 273.76504 
L 246.458359 268.330441 
L 246.569833 269.467563 
L 247.015733 285.80184 
L 247.127208 283.577687 
L 247.461633 269.457673 
L 247.573108 270.266706 
L 248.019007 287.846551 
L 248.130482 287.804017 
L 248.464907 279.473614 
L 248.576382 280.009648 
L 248.910806 293.399009 
L 249.022281 292.783905 
L 249.245231 270.845857 
L 249.579656 235.828191 
L 249.691131 240.618975 
L 250.248505 310.433951 
L 250.35998 302.405619 
L 250.80588 235.147101 
L 250.917355 236.548895 
L 251.363254 283.680057 
L 251.474729 281.706942 
L 251.920629 250.848047 
L 252.032104 254.824012 
L 252.478003 282.968967 
L 252.589478 284.40896 
L 252.700953 283.878742 
L 253.035378 280.8591 
L 253.258328 286.305755 
L 253.369802 289.492439 
L 253.481277 289.496884 
L 253.592752 284.12239 
L 254.038652 239.617189 
L 254.150127 240.913254 
L 254.373077 264.300242 
L 254.707501 299.036012 
L 254.818976 298.049543 
L 255.041926 277.283885 
L 255.264876 253.882786 
L 255.376351 250.7064 
L 255.487826 255.267233 
L 256.0452 302.898426 
L 256.26815 290.329056 
L 256.602575 270.422776 
L 256.714049 270.270503 
L 256.936999 273.198351 
L 257.048474 272.711039 
L 257.271424 271.172371 
L 257.382899 274.100287 
L 257.717324 290.677206 
L 257.828798 290.474247 
L 258.051748 277.637112 
L 258.386173 257.322748 
L 258.497648 256.228272 
L 259.166497 262.38029 
L 259.612397 277.060059 
L 259.723872 275.867333 
L 259.946822 262.484123 
L 260.169771 248.252381 
L 260.281246 247.844579 
L 260.504196 262.540745 
L 260.838621 285.410563 
L 260.950096 286.611334 
L 261.061571 284.850046 
L 261.28452 274.467678 
L 261.841895 234.829827 
L 261.95337 238.277354 
L 262.510744 280.60354 
L 262.622219 279.007483 
L 262.956644 264.383753 
L 263.068119 264.913537 
L 263.514018 279.114428 
L 263.736968 269.022882 
L 264.071393 252.18541 
L 264.182868 253.185179 
L 264.405818 267.795934 
L 264.740242 292.301739 
L 264.851717 291.847626 
L 265.074667 276.50827 
L 265.409092 252.758247 
L 265.520567 252.879395 
L 265.743516 264.312409 
L 266.077941 284.202533 
L 266.300891 287.196893 
L 266.412366 285.828219 
L 266.96974 272.439258 
L 267.081215 274.765819 
L 267.527115 298.648138 
L 267.63859 298.142732 
L 267.861539 281.415334 
L 268.195964 255.47384 
L 268.307439 256.937159 
L 268.864814 289.944173 
L 269.087763 281.292488 
L 269.310713 273.022818 
L 269.422188 274.064951 
L 269.979563 294.465777 
L 270.202512 284.247613 
L 270.759887 246.484452 
L 270.871362 247.117644 
L 271.651686 267.67627 
L 271.874636 270.869943 
L 272.097586 278.765985 
L 272.43201 291.795074 
L 272.543485 291.735323 
L 272.766435 282.35943 
L 273.212335 256.242298 
L 273.32381 257.810198 
L 273.546759 274.791254 
L 273.769709 294.69226 
L 273.881184 296.942082 
L 273.992659 292.241357 
L 274.438559 254.951531 
L 274.550033 255.938816 
L 274.995933 280.424484 
L 275.107408 276.669744 
L 275.664782 238.394314 
L 275.776257 240.988143 
L 276.333632 277.864321 
L 276.445107 277.688278 
L 277.113956 260.874903 
L 277.448381 259.397939 
L 277.559856 260.913634 
L 277.894281 273.175512 
L 278.34018 289.70416 
L 278.56313 292.272324 
L 279.00903 293.761657 
L 279.120504 293.503211 
L 279.343454 291.475679 
L 279.566404 287.438683 
L 280.123779 269.811482 
L 280.235253 270.420289 
L 280.681153 281.30867 
L 280.792628 279.473013 
L 281.350002 256.442116 
L 281.461477 257.822107 
L 281.907377 271.761351 
L 282.018852 270.075293 
L 282.687701 246.920965 
L 282.799176 247.484394 
L 283.356551 258.77282 
L 283.690975 269.212248 
L 284.24835 290.818682 
L 284.4713 294.599904 
L 284.582775 294.72856 
L 284.694249 293.43849 
L 284.917199 286.334046 
L 285.251624 275.175178 
L 285.363099 275.103214 
L 285.697524 279.678682 
L 285.808998 278.464878 
L 286.254898 261.004636 
L 286.366373 261.040945 
L 286.589323 271.867304 
L 286.923747 289.879977 
L 287.035222 288.019274 
L 287.481122 267.25212 
L 287.592597 269.166347 
L 288.038496 288.494911 
L 288.149971 287.255947 
L 288.930296 260.837209 
L 289.041771 260.99519 
L 289.26472 264.604954 
L 289.93357 277.997813 
L 290.045045 277.763005 
L 290.267994 271.567009 
L 290.490944 265.425613 
L 290.602419 264.400591 
L 290.713894 264.453063 
L 291.048319 265.998422 
L 291.159794 265.238301 
L 291.494218 259.702843 
L 291.605693 261.296278 
L 292.163068 286.8544 
L 292.274543 284.099825 
L 292.720442 262.258782 
L 292.831917 263.356362 
L 293.166342 282.469168 
L 293.500767 295.887583 
L 293.612241 296.705455 
L 293.723716 295.134719 
L 293.946666 282.214979 
L 294.392566 243.442796 
L 294.504041 245.146462 
L 295.061415 285.535778 
L 295.284365 269.209377 
L 295.507315 254.709419 
L 295.61879 256.059944 
L 296.064689 286.583059 
L 296.176164 283.951 
L 296.622064 253.629704 
L 296.733539 254.791881 
L 297.179438 275.550848 
L 297.290913 273.878261 
L 297.625338 262.737238 
L 297.736813 263.545998 
L 298.182712 278.127849 
L 298.294187 277.997752 
L 298.517137 269.852719 
L 298.740087 261.392756 
L 298.851562 262.28563 
L 299.408936 287.164741 
L 299.631886 277.316137 
L 299.966311 257.114506 
L 300.077786 255.283981 
L 300.189261 256.629515 
L 300.63516 269.867574 
L 300.746635 269.704206 
L 300.969585 265.694812 
L 301.30401 257.287249 
L 301.415484 256.789467 
L 301.526959 258.099814 
L 301.972859 270.665751 
L 302.530233 289.131075 
L 302.753183 284.733789 
L 302.976133 279.700514 
L 303.087608 279.283302 
L 303.422033 282.357299 
L 303.533508 281.596437 
L 303.756457 273.128827 
L 304.090882 259.557525 
L 304.202357 260.568847 
L 304.648257 278.10982 
L 304.759731 277.136454 
L 305.317106 253.889358 
L 305.763006 263.398608 
L 305.87448 263.169012 
L 306.208905 259.822695 
L 306.32038 260.482286 
L 306.54333 266.712495 
L 306.877755 277.822362 
L 306.98923 277.669238 
L 307.212179 271.415157 
L 307.546604 258.347359 
L 307.658079 257.790376 
L 307.881029 267.219925 
L 308.215453 284.424029 
L 308.326928 283.967975 
L 308.772828 266.818499 
L 308.884303 267.534736 
L 309.441677 287.963088 
L 309.553152 287.251083 
L 310.110527 278.013407 
L 310.222002 278.00722 
L 310.333477 277.504969 
L 310.556426 273.566241 
L 310.779376 269.635082 
L 310.890851 269.379656 
L 311.113801 272.093159 
L 311.336751 274.528051 
L 311.448226 274.112044 
L 311.671175 269.413139 
L 311.894125 265.125431 
L 312.0056 265.873203 
L 312.562975 279.996818 
L 312.674449 278.883172 
L 312.897399 272.273315 
L 313.231824 261.483166 
L 313.343299 262.565984 
L 313.677724 273.507708 
L 313.789198 273.376766 
L 314.012148 265.437684 
L 314.235098 257.334591 
L 314.346573 256.499952 
L 314.458048 258.481368 
L 314.903947 272.447408 
L 315.015422 271.443968 
L 315.461322 263.990667 
L 315.572797 264.091758 
L 316.018696 266.475431 
L 316.353121 269.047525 
L 316.464596 269.192733 
L 316.687546 268.771681 
L 316.799021 269.21992 
L 317.46787 277.252776 
L 317.69082 280.003067 
L 317.91377 280.579283 
L 318.13672 280.107773 
L 318.248194 279.290898 
L 318.471144 274.159259 
L 318.917044 262.343883 
L 319.028519 262.228041 
L 319.251469 265.766672 
L 319.697368 277.01958 
L 319.808843 277.313976 
L 320.031793 275.222211 
L 320.700642 268.592642 
L 320.812117 270.021162 
L 321.258017 280.904984 
L 321.369492 279.467671 
L 322.149816 256.295527 
L 322.261291 255.995543 
L 322.372766 256.515736 
L 322.595716 259.343787 
L 323.15309 268.978589 
L 323.264565 268.593738 
L 323.710465 265.179193 
L 323.933414 264.509328 
L 324.044889 264.857515 
L 324.267839 269.050011 
L 324.602264 278.033551 
L 324.713739 278.729787 
L 324.825214 277.946266 
L 325.271113 272.491917 
L 325.494063 272.756059 
L 325.605538 272.21072 
L 326.051437 264.887366 
L 326.162912 265.206143 
L 326.385862 270.182302 
L 326.720287 278.592651 
L 326.831762 277.674243 
L 327.277661 266.952065 
L 327.389136 268.598679 
L 327.835036 287.04664 
L 327.946511 286.252055 
L 328.61536 263.794268 
L 328.83831 266.10953 
L 329.06126 268.325405 
L 329.172735 268.356622 
L 329.395684 266.489249 
L 329.953059 257.404585 
L 330.064534 258.298741 
L 330.621908 273.428828 
L 330.844858 269.461318 
L 331.179283 263.196461 
L 331.290758 263.060058 
L 331.402233 264.446186 
L 331.959607 279.697915 
L 332.071082 279.582912 
L 332.405507 274.291767 
L 332.516982 274.969266 
L 332.739931 281.773132 
L 333.074356 290.639166 
L 333.185831 289.155277 
L 333.743206 268.953612 
L 333.966155 275.284589 
L 334.189105 281.729612 
L 334.30058 281.469432 
L 334.74648 267.881607 
L 334.857955 268.302528 
L 335.415329 283.183709 
L 335.526804 281.519026 
L 336.195653 262.153688 
L 336.418603 263.992968 
L 336.864503 269.495543 
L 337.310402 278.114655 
L 337.421877 277.420031 
L 337.756302 268.195574 
L 337.979252 263.648262 
L 338.090727 263.013923 
L 338.202202 263.470958 
L 338.425151 267.667058 
L 338.759576 278.035182 
L 338.871051 278.54442 
L 338.982526 276.316792 
L 339.5399 257.849194 
L 339.76285 266.336294 
L 339.9858 276.357045 
L 340.097275 277.63113 
L 340.20875 276.005398 
L 340.543175 267.056509 
L 340.654649 266.7153 
L 340.766124 268.38422 
L 341.323499 284.204196 
L 341.546449 277.931339 
L 341.880873 268.512095 
L 342.103823 267.63832 
L 342.215298 267.514892 
L 342.438248 266.243944 
L 342.772673 262.122156 
L 342.995622 260.083306 
L 343.107097 260.830955 
L 343.441522 268.941497 
L 343.998896 283.692132 
L 344.110371 283.664953 
L 344.333321 277.031046 
L 344.667746 263.214584 
L 344.779221 261.926784 
L 344.890696 263.39255 
L 345.44807 283.852815 
L 345.67102 273.974624 
L 345.89397 262.605924 
L 346.005445 261.225479 
L 346.11692 263.484217 
L 346.562819 281.584073 
L 346.674294 279.966088 
L 347.008719 270.292302 
L 347.120194 270.182573 
L 347.566093 276.634674 
L 347.677568 275.703175 
L 347.900518 269.83322 
L 348.234943 259.51373 
L 348.346418 258.91797 
L 348.457892 260.920099 
L 349.126742 284.52476 
L 349.349692 279.542757 
L 349.684116 270.347607 
L 349.795591 270.18746 
L 350.130016 273.425056 
L 350.241491 272.362391 
L 350.575916 266.796242 
L 350.68739 267.666664 
L 351.13329 275.216116 
L 351.244765 274.149867 
L 351.802139 263.744548 
L 351.913614 263.812164 
L 352.136564 268.154194 
L 352.470989 277.304442 
L 352.582464 277.245816 
L 353.028363 271.812583 
L 353.139838 271.686096 
L 353.251313 271.846693 
L 353.585738 272.866557 
L 353.697213 271.737968 
L 354.143112 263.06293 
L 354.254587 266.000078 
L 354.700487 291.153032 
L 354.811962 290.691086 
L 355.034912 276.678869 
L 355.257861 260.570029 
L 355.369336 258.115587 
L 355.480811 260.182042 
L 355.815236 274.40107 
L 355.926711 275.162755 
L 356.149661 269.687821 
L 356.37261 265.446747 
L 356.484085 267.257571 
L 356.81851 278.240861 
L 356.929985 278.590932 
L 357.375884 272.177951 
L 357.598834 274.557154 
L 357.821784 276.539436 
L 358.267684 277.722115 
L 358.379159 277.670451 
L 358.602108 275.823422 
L 359.159483 268.716185 
L 359.270958 269.716476 
L 359.605382 276.348337 
L 359.716857 276.18963 
L 359.939807 268.851782 
L 360.274232 256.474393 
L 360.385707 257.688581 
L 360.943081 278.787356 
L 361.166031 271.905606 
L 361.500456 261.46842 
L 361.611931 262.850548 
L 362.169305 276.875477 
L 362.28078 275.703231 
L 362.72668 266.581937 
L 362.838155 266.715223 
L 363.061104 270.430998 
L 363.395529 277.418875 
L 363.507004 276.966009 
L 363.729954 268.901331 
L 364.064379 254.151329 
L 364.175853 253.515837 
L 364.287328 256.174962 
L 364.844703 283.124982 
L 364.956178 281.882248 
L 365.513552 268.907079 
L 365.847977 270.078159 
L 365.959452 269.395673 
L 366.182402 265.523547 
L 366.516826 259.328158 
L 366.628301 259.5014 
L 366.851251 263.686353 
L 367.185676 270.230266 
L 367.297151 270.399238 
L 367.74305 267.547609 
L 367.854525 268.662891 
L 368.077475 274.565607 
L 368.4119 282.714394 
L 368.523375 281.75592 
L 369.080749 267.82172 
L 369.303699 271.609354 
L 369.526649 275.11831 
L 369.638124 274.809565 
L 369.972548 271.66532 
L 370.084023 272.452143 
L 370.418448 280.29916 
L 370.641398 284.780891 
L 370.752873 285.043715 
L 370.975822 280.768964 
L 371.310247 272.401024 
L 371.421722 272.21827 
L 371.644672 275.357561 
L 371.867622 278.60234 
L 371.979096 279.088676 
L 372.090571 278.702597 
L 372.536471 275.377782 
L 372.647946 275.1469 
L 372.759421 275.567478 
L 373.20532 280.837701 
L 373.316795 279.244298 
L 373.762695 264.154105 
L 373.87417 264.485279 
L 374.09712 271.313604 
L 374.431544 280.061545 
L 374.543019 278.635189 
L 375.100394 260.610317 
L 375.211869 260.920189 
L 375.769243 267.75064 
L 375.880718 268.000358 
L 375.992193 268.678385 
L 376.215143 273.303865 
L 376.549567 282.101431 
L 376.661042 281.503104 
L 376.995467 269.437445 
L 377.218417 264.887838 
L 377.329892 265.604125 
L 377.887266 274.309765 
L 378.221691 270.316161 
L 378.333166 270.401471 
L 378.779065 276.449868 
L 378.89054 276.181081 
L 379.11349 273.285684 
L 379.447915 269.57116 
L 379.55939 269.964321 
L 380.005289 273.425288 
L 380.116764 273.533078 
L 380.228239 273.205253 
L 380.451189 271.204153 
L 380.785614 268.215683 
L 380.897088 268.579685 
L 381.342988 273.500261 
L 381.677413 277.239514 
L 381.788888 277.107115 
L 382.011837 273.729852 
L 382.457737 263.9318 
L 382.569212 263.530788 
L 382.680687 264.459426 
L 383.126586 270.821059 
L 383.461011 270.766414 
L 383.572486 271.125429 
L 383.795436 273.353271 
L 384.241335 280.085075 
L 384.35281 278.770448 
L 384.79871 268.318863 
L 384.910185 268.157029 
L 385.356084 273.337805 
L 385.467559 273.205132 
L 385.690509 271.320793 
L 386.359359 263.782396 
L 386.470833 264.401341 
L 386.693783 269.571752 
L 387.028208 276.302448 
L 387.139683 275.099785 
L 387.585582 264.159146 
L 387.697057 264.528811 
L 388.254432 275.034936 
L 388.365907 275.023227 
L 388.700331 272.954445 
L 388.811806 273.496661 
L 389.146231 277.29084 
L 389.257706 275.911205 
L 389.81508 259.069975 
L 390.03803 265.979669 
L 390.372455 275.619528 
L 390.48393 275.426371 
L 390.929829 271.654782 
L 391.041304 271.839554 
L 391.264254 272.76221 
L 391.375729 272.621541 
L 391.598679 270.292853 
L 391.821629 268.19457 
L 391.933104 268.555495 
L 392.379003 274.278617 
L 392.490478 273.518424 
L 392.936378 266.498568 
L 393.047853 266.901163 
L 393.270802 270.156877 
L 393.605227 275.273095 
L 393.716702 275.60883 
L 393.828177 275.158426 
L 394.162602 271.585683 
L 394.608501 264.264681 
L 394.942926 260.461113 
L 395.054401 261.141387 
L 395.72325 271.096367 
L 395.9462 269.969583 
L 396.057675 270.017929 
L 396.280625 272.600709 
L 396.615049 277.206582 
L 396.726524 277.616261 
L 396.837999 277.459721 
L 397.060949 275.955625 
L 397.395374 273.830199 
L 397.506849 273.801527 
L 397.618324 273.435091 
L 397.841273 269.668477 
L 398.175698 262.577656 
L 398.287173 263.164228 
L 398.844547 273.364566 
L 399.067497 268.1002 
L 399.290447 262.010249 
L 399.401922 261.332322 
L 399.513397 262.865981 
L 399.959296 275.295688 
L 400.070771 275.164558 
L 400.516671 269.972002 
L 400.739621 274.600734 
L 400.962571 277.990112 
L 401.074045 276.657788 
L 401.519945 264.912403 
L 401.63142 264.566145 
L 401.85437 267.461895 
L 402.188794 271.996379 
L 402.300269 272.319878 
L 402.411744 272.251525 
L 402.857644 271.384194 
L 403.080594 268.899391 
L 403.415018 263.687867 
L 403.526493 264.417526 
L 404.083868 275.808354 
L 404.306818 270.773443 
L 404.641242 260.995843 
L 404.752717 260.7261 
L 404.975667 265.196407 
L 405.310092 271.859281 
L 405.421567 271.781231 
L 405.644516 268.777943 
L 405.867466 265.905206 
L 405.978941 266.299047 
L 406.201891 271.544153 
L 406.536316 278.409326 
L 406.64779 277.773698 
L 407.09369 271.228364 
L 407.205165 272.304486 
L 407.53959 278.560579 
L 407.651065 278.059895 
L 408.096964 267.561255 
L 408.208439 268.336944 
L 408.765814 281.609634 
L 408.877288 280.493537 
L 409.546138 265.982817 
L 409.769088 268.414097 
L 410.103512 271.958935 
L 410.437937 273.961263 
L 410.549412 274.09816 
L 410.660887 273.727899 
L 411.106786 270.709756 
L 411.218261 271.0391 
L 411.887111 275.39804 
L 411.998586 274.78463 
L 412.444485 270.292064 
L 412.667435 270.215742 
L 412.77891 270.313955 
L 413.00186 271.036603 
L 413.447759 272.764962 
L 413.670709 273.137062 
L 413.782184 273.034282 
L 414.228084 271.142256 
L 414.451033 271.395035 
L 414.562508 271.163871 
L 414.785458 269.356159 
L 415.008408 267.211927 
L 415.119883 266.933252 
L 415.231358 267.543411 
L 415.677257 274.160633 
L 415.788732 274.047364 
L 416.234632 269.395687 
L 416.346107 270.547378 
L 416.903481 280.821923 
L 417.126431 276.613605 
L 417.460856 271.044037 
L 417.572331 271.095439 
L 418.24118 275.504592 
L 418.352655 274.937264 
L 418.575605 271.862568 
L 418.910029 267.730552 
L 419.021504 268.080449 
L 419.467404 271.314476 
L 419.578879 271.25121 
L 420.247728 269.405228 
L 420.359203 269.618081 
L 420.582153 271.478066 
L 420.805103 273.322305 
L 420.916578 273.216848 
L 421.251002 269.581925 
L 421.473952 267.836702 
L 421.696902 267.439822 
L 421.919852 268.183195 
L 422.477226 271.534579 
L 422.588701 271.440989 
L 423.034601 267.90601 
L 423.257551 270.568339 
L 423.591975 275.151715 
L 423.70345 275.289982 
L 423.814925 274.78458 
L 424.14935 270.582484 
L 424.483775 265.773928 
L 424.595249 265.374425 
L 424.706724 265.984219 
L 425.264099 271.325071 
L 425.375574 270.593338 
L 425.821473 263.353173 
L 425.932948 263.574541 
L 426.155898 268.437095 
L 426.490323 277.007052 
L 426.601798 277.32868 
L 426.824747 273.666476 
L 427.270647 264.933665 
L 427.382122 264.848808 
L 427.605072 268.134845 
L 427.939496 274.903648 
L 428.050971 275.345501 
L 428.273921 272.883671 
L 428.496871 270.564581 
L 428.608346 270.870005 
L 429.054245 276.217284 
L 429.16572 276.095802 
L 429.61162 271.327658 
L 429.723095 271.785687 
L 430.05752 274.51186 
L 430.168994 274.300384 
L 430.726369 270.385041 
L 430.949319 272.62036 
L 431.172269 275.06598 
L 431.283743 275.110089 
L 431.506693 272.357343 
L 431.952593 265.798541 
L 432.064068 265.76536 
L 432.287018 267.637949 
L 432.844392 274.085286 
L 433.067342 274.877768 
L 433.178817 274.727791 
L 433.401767 273.240039 
L 433.847666 268.744246 
L 433.959141 268.610356 
L 434.293566 270.315413 
L 434.405041 270.184948 
L 434.739465 268.811035 
L 434.85094 269.442335 
L 435.408315 276.519616 
L 435.51979 275.645553 
L 436.077164 265.716418 
L 436.188639 266.761188 
L 436.634539 273.645128 
L 436.746014 273.19783 
L 437.191913 269.275352 
L 437.414863 271.814369 
L 437.637813 275.212483 
L 437.749288 275.624937 
L 437.860763 274.78111 
L 438.195187 269.724621 
L 438.306662 269.603819 
L 438.529612 272.629117 
L 438.752562 276.194494 
L 438.864037 276.530429 
L 439.086986 274.159721 
L 439.309936 271.61651 
L 439.421411 271.538715 
L 439.644361 273.850556 
L 439.867311 276.288759 
L 439.978786 276.373793 
L 440.201735 273.95303 
L 440.647635 266.89434 
L 440.75911 266.694679 
L 441.427959 270.269562 
L 441.650909 270.329872 
L 441.873859 270.975786 
L 442.208284 271.925887 
L 442.431233 271.998116 
L 442.542708 272.135336 
L 442.765658 273.096768 
L 443.211558 275.884913 
L 443.434508 274.34094 
L 443.880407 270.319931 
L 443.991882 270.054528 
L 444.103357 270.368001 
L 444.437782 271.719247 
L 444.660731 270.461448 
L 444.883681 269.141746 
L 444.995156 269.099694 
L 445.218106 270.644857 
L 445.552531 273.17703 
L 445.664006 273.366278 
L 445.77548 273.102564 
L 446.109905 270.534872 
L 446.332855 268.959401 
L 446.44433 268.982097 
L 446.778755 270.857745 
L 447.001704 271.569924 
L 447.113179 271.070439 
L 447.559079 267.509066 
L 447.782029 269.103319 
L 448.116453 271.887934 
L 448.450878 272.756885 
L 448.673828 273.067298 
L 448.785303 272.959343 
L 449.231202 271.691703 
L 449.454152 271.650232 
L 449.677102 270.803124 
L 450.011527 269.405326 
L 450.123002 269.471229 
L 450.345951 270.609843 
L 450.903326 276.6659 
L 451.014801 275.99125 
L 451.572175 267.217377 
L 451.68365 267.654712 
L 452.12955 272.175626 
L 452.3525 270.204437 
L 452.575449 268.743003 
L 452.686924 269.081666 
L 453.467249 273.80264 
L 453.913148 275.388568 
L 454.024623 274.711224 
L 454.247573 271.315198 
L 454.581998 266.5517 
L 454.693473 266.869379 
L 455.250847 272.6069 
L 455.362322 272.435814 
L 455.585272 271.79766 
L 455.696747 272.06323 
L 456.031171 274.346241 
L 456.142646 274.211744 
L 456.365596 272.142816 
L 456.700021 269.55831 
L 456.922971 269.061583 
L 457.257395 268.066118 
L 457.36887 268.33937 
L 457.59182 270.724074 
L 457.926245 275.176434 
L 458.149194 275.963468 
L 458.260669 275.630599 
L 458.818044 272.26887 
L 458.929519 272.629486 
L 459.375418 275.155347 
L 459.486893 274.746396 
L 460.044268 269.457626 
L 460.267218 271.992446 
L 460.490167 274.519832 
L 460.601642 274.374064 
L 461.159017 268.577892 
L 461.381967 270.084829 
L 461.604916 271.837782 
L 461.716391 271.983566 
L 462.719665 267.851605 
L 462.83114 268.168684 
L 463.05409 271.33489 
L 463.27704 274.619375 
L 463.388515 274.752495 
L 463.611465 272.187162 
L 463.945889 268.145585 
L 464.057364 268.402371 
L 464.614739 273.588223 
L 465.060638 272.331367 
L 465.172113 272.289889 
L 465.395063 271.320957 
L 465.840963 268.559356 
L 465.952437 268.546881 
L 466.175387 269.294895 
L 466.509812 270.2827 
L 466.732762 270.32551 
L 466.955712 270.217007 
L 467.067186 269.95208 
L 467.401611 267.58294 
L 467.513086 267.676585 
L 467.736036 270.885692 
L 468.070461 275.412654 
L 468.181935 274.906561 
L 468.627835 266.823014 
L 468.73931 266.900448 
L 468.96226 270.159933 
L 469.296684 276.162336 
L 469.408159 276.867111 
L 469.519634 276.640892 
L 470.299959 269.742429 
L 470.411433 269.909189 
L 470.634383 271.945676 
L 470.968808 274.861487 
L 471.080283 274.273762 
L 471.526182 268.661159 
L 471.637657 268.713101 
L 471.972082 270.173414 
L 472.083557 270.1894 
L 472.306507 269.99497 
L 472.529457 270.311736 
L 472.975356 271.547343 
L 473.198306 272.744025 
L 473.421256 274.234702 
L 473.532731 274.363221 
L 473.75568 273.123505 
L 473.97863 272.173855 
L 474.090105 272.65204 
L 474.42453 275.330464 
L 474.536005 274.942784 
L 475.093379 268.213264 
L 475.204854 268.533362 
L 475.650754 271.393002 
L 475.873704 270.169144 
L 476.208128 268.197932 
L 476.319603 268.376819 
L 476.542553 270.109037 
L 476.988453 275.84146 
L 477.099927 275.716607 
L 477.768777 270.762226 
L 477.991727 271.418273 
L 478.326151 273.101788 
L 478.437626 272.930059 
L 478.883526 271.209812 
L 478.995001 271.182883 
L 479.106476 271.379459 
L 479.329426 272.609719 
L 479.66385 274.405053 
L 479.775325 274.009931 
L 480.3327 269.039893 
L 480.555649 271.482151 
L 480.890074 275.78985 
L 481.001549 275.68522 
L 481.558924 271.049274 
L 481.670398 271.367492 
L 482.116298 273.983499 
L 482.227773 273.819615 
L 482.785147 270.365647 
L 483.008097 270.834873 
L 483.119572 270.767008 
L 483.565472 269.344412 
L 484.234321 268.878126 
L 484.345796 269.192635 
L 484.568746 271.030396 
L 484.903171 273.855609 
L 485.014645 273.898669 
L 485.237595 272.213178 
L 485.460545 270.130056 
L 485.57202 269.807576 
L 485.683495 270.083108 
L 486.129394 272.425815 
L 486.352344 270.941202 
L 486.575294 269.645393 
L 486.686769 270.033533 
L 487.132669 273.908546 
L 487.244143 273.585931 
L 487.801518 269.072915 
L 488.024468 270.13599 
L 488.581842 273.92505 
L 488.693317 274.006563 
L 488.804792 273.645782 
L 489.139217 270.108855 
L 489.362167 268.644853 
L 489.473641 268.824192 
L 489.696591 270.610245 
L 490.031016 273.105575 
L 490.142491 272.843296 
L 490.365441 270.60537 
L 490.699865 267.702625 
L 490.81134 267.856761 
L 491.03429 269.521001 
L 491.25724 271.234816 
L 491.368715 271.526598 
L 491.48019 271.480347 
L 491.703139 271.183442 
L 491.926089 271.561389 
L 492.037564 271.717445 
L 492.149039 271.410318 
L 492.706414 267.813616 
L 492.817888 267.999125 
L 493.263788 270.22068 
L 493.375263 269.987826 
L 493.709688 268.040047 
L 493.821163 268.0954 
L 494.044112 270.102257 
L 494.378537 273.106039 
L 494.490012 273.046844 
L 494.712962 271.168574 
L 495.047386 268.210668 
L 495.158861 268.217431 
L 495.493286 269.458023 
L 495.716236 268.6756 
L 495.939186 267.749082 
L 496.050661 267.674077 
L 496.27361 268.273059 
L 496.830985 271.22505 
L 496.94246 271.105985 
L 497.499834 268.36229 
L 497.611309 268.603924 
L 498.057209 271.503993 
L 498.168684 271.162863 
L 498.726058 268.13377 
L 498.949008 269.027262 
L 499.171958 269.78878 
L 499.283433 269.592224 
L 499.506382 268.541776 
L 499.617857 268.53227 
L 499.840807 270.62503 
L 500.175232 274.918245 
L 500.286707 275.267853 
L 500.398182 274.906018 
L 500.955556 270.017312 
L 501.067031 270.284007 
L 501.73588 273.993453 
L 502.18178 272.529801 
L 502.40473 271.510134 
L 502.739155 269.527501 
L 502.850629 269.392008 
L 502.962104 269.686496 
L 503.519479 273.144166 
L 503.742429 271.876127 
L 503.965378 270.634895 
L 504.076853 270.617795 
L 504.522753 272.362292 
L 504.968653 274.337765 
L 505.080127 274.203066 
L 505.303077 272.389325 
L 505.637502 269.691362 
L 505.748977 269.916648 
L 506.194876 272.491135 
L 506.306351 272.196076 
L 506.640776 270.805207 
L 506.752251 271.275018 
L 507.309626 275.722447 
L 507.4211 275.41976 
L 508.08995 271.544729 
L 508.201425 271.656342 
L 508.535849 272.656282 
L 508.647324 272.424647 
L 509.093224 270.359877 
L 509.204699 270.721529 
L 509.762073 275.044191 
L 509.985023 272.942842 
L 510.319448 269.543676 
L 510.430923 269.252038 
L 510.542398 269.476315 
L 511.211247 272.865363 
L 511.434197 272.678188 
L 511.768622 272.842826 
L 511.991571 272.099589 
L 512.325996 270.942173 
L 512.548946 270.690618 
L 512.660421 270.722521 
L 512.883371 271.207419 
L 513.217795 272.907553 
L 513.440745 273.496765 
L 513.663695 271.659711 
L 513.99812 269.251564 
L 514.109594 269.37963 
L 514.332544 270.731131 
L 514.666969 272.746901 
L 514.778444 272.873371 
L 515.001394 272.334446 
L 515.224343 272.076138 
L 515.670243 272.82219 
L 515.893193 271.99835 
L 516.116143 271.141758 
L 516.227618 271.044846 
L 516.562042 271.232167 
L 516.784992 270.273118 
L 517.007942 268.884388 
L 517.119417 268.769705 
L 517.342367 269.808145 
L 517.788266 273.11263 
L 517.899741 273.012233 
L 518.457116 269.830031 
L 518.56859 269.919845 
L 518.79154 271.799098 
L 519.125965 275.752662 
L 519.23744 275.782451 
L 519.46039 273.538063 
L 519.794814 270.58186 
L 519.906289 270.758688 
L 520.129239 272.478358 
L 520.463664 275.246185 
L 520.575139 274.873817 
L 521.021038 270.59052 
L 521.132513 270.919214 
L 521.466938 273.142602 
L 521.578413 273.25797 
L 521.801363 272.530065 
L 522.135787 271.481951 
L 522.358737 271.438634 
L 522.581687 271.598629 
L 522.693162 271.488555 
L 523.139061 269.608411 
L 523.362011 271.409692 
L 523.696436 273.980076 
L 523.807911 273.919362 
L 524.030861 272.651867 
L 524.365285 270.849407 
L 525.034135 269.760432 
L 525.14561 269.873453 
L 525.368559 270.952841 
L 525.591509 272.176069 
L 525.702984 272.287817 
L 525.925934 271.06263 
L 526.260359 268.947802 
L 526.371833 269.010901 
L 526.594783 270.31806 
L 526.929208 272.247706 
L 527.040683 272.092827 
L 527.263633 270.654779 
L 527.598057 268.646223 
L 527.709532 269.040645 
L 527.932482 271.391969 
L 528.155432 273.990377 
L 528.266907 274.341485 
L 528.378382 273.90501 
L 528.824281 270.566064 
L 529.047231 272.38608 
L 529.270181 274.027743 
L 529.381656 273.875666 
L 529.93903 270.653517 
L 530.16198 271.449679 
L 530.38493 272.180478 
L 530.496405 271.83717 
L 530.942304 269.107389 
L 531.053779 269.240722 
L 531.276729 270.911139 
L 531.611154 274.507426 
L 531.722629 274.851485 
L 531.834104 274.514752 
L 532.280003 271.037429 
L 532.391478 271.270497 
L 532.948853 274.446289 
L 533.060327 274.297127 
L 533.283277 273.320741 
L 533.840652 269.585049 
L 533.952127 269.687946 
L 534.509501 271.923177 
L 534.620976 271.85817 
L 534.955401 270.299306 
L 535.178351 269.438764 
L 535.289826 269.372023 
L 535.4013 269.70121 
L 535.8472 272.350675 
L 535.958675 272.360307 
L 536.961949 270.062633 
L 537.073424 270.157611 
L 537.296374 271.422848 
L 537.519324 272.606814 
L 537.630798 272.587186 
L 538.188173 270.835105 
L 538.745547 271.664874 
L 538.968497 271.165338 
L 539.191447 270.5701 
L 539.302922 270.560433 
L 539.637347 270.95153 
L 540.083246 269.635794 
L 540.640621 270.751612 
L 540.975045 272.12734 
L 541.197995 272.919046 
L 541.30947 272.718031 
L 541.866845 269.267701 
L 542.201269 270.132988 
L 542.424219 270.61174 
L 542.535694 270.673858 
L 542.647169 270.567752 
L 542.870119 269.839992 
L 543.204543 268.693579 
L 543.316018 268.668575 
L 543.538968 269.340898 
L 543.873393 270.859273 
L 544.096343 271.033327 
L 544.207818 271.04861 
L 544.542242 271.461206 
L 544.653717 271.310509 
L 545.211092 269.559758 
L 545.322567 269.570713 
L 545.545516 270.056398 
L 545.879941 270.847017 
L 545.991416 270.869613 
L 546.214366 270.48808 
L 546.54879 269.616156 
L 546.660265 269.760455 
L 547.106165 271.62949 
L 547.329115 274.527379 
L 547.552065 277.51794 
L 547.663539 277.195776 
L 547.886489 271.857038 
L 548.109439 265.378421 
L 548.220914 264.516388 
L 548.332389 265.907025 
L 548.778288 276.803293 
L 548.889763 276.392442 
L 549.335663 269.282516 
L 549.447138 269.513885 
L 549.893037 272.574132 
L 550.004512 272.307043 
L 550.784837 268.300947 
L 551.007786 268.058265 
L 551.230736 269.323669 
L 551.565161 271.611259 
L 551.676636 271.626344 
L 551.899586 270.532865 
L 552.122535 269.23656 
L 552.23401 269.048337 
L 552.345485 269.290682 
L 552.90286 271.938657 
L 553.12581 271.926372 
L 553.683184 271.235288 
L 554.129084 271.540895 
L 554.686458 270.326171 
L 554.909408 271.161219 
L 555.243833 272.402084 
L 555.466782 271.385001 
L 555.689732 270.353914 
L 555.801207 270.395636 
L 556.358582 271.864468 
L 556.804481 271.165512 
L 557.027431 271.540003 
L 557.473331 272.796984 
L 557.584806 272.814703 
L 557.807755 272.262134 
L 558.253655 270.508516 
L 558.36513 270.462264 
L 558.58808 271.032894 
L 558.922504 271.944731 
L 559.033979 271.993884 
L 559.591354 271.537765 
L 560.260203 272.054384 
L 560.929053 271.506274 
L 561.374952 271.74379 
L 562.043802 271.299886 
L 562.712651 271.836699 
L 563.3815 271.274275 
L 563.938875 271.707305 
L 564.607724 271.310678 
L 565.388049 271.590762 
L 565.945423 271.33972 
L 566.279848 271.487584 
L 566.614273 271.615108 
L 567.506072 271.428966 
L 567.951971 271.57322 
L 568.955245 271.464226 
L 569.401145 271.568482 
L 570.292944 271.434612 
L 570.961794 271.514892 
L 571.853593 271.448918 
L 572.522442 271.504761 
L 573.414241 271.459078 
L 574.417516 271.45527 
L 576.981438 271.456607 
L 601.840341 271.41423 
L 1034.362955 271.271127 
L 1034.362955 271.271127 
" clip-path="url(#p97cf501b3b)" style="fill: none; stroke: #0c5da5; stroke-width: 2; stroke-linecap: square"/>
   </g>
   <g id="patch_3">
    <path d="M 75.6175 520.7175 
L 75.6175 21.7575 
" style="fill: none; stroke: #000000; stroke-linejoin: miter; stroke-linecap: square"/>
   </g>
   <g id="patch_4">
    <path d="M 1080.0175 520.7175 
L 1080.0175 21.7575 
" style="fill: none; stroke: #000000; stroke-linejoin: miter; stroke-linecap: square"/>
   </g>
   <g id="patch_5">
    <path d="M 75.6175 520.7175 
L 1080.0175 520.7175 
" style="fill: none; stroke: #000000; stroke-linejoin: miter; stroke-linecap: square"/>
   </g>
   <g id="patch_6">
    <path d="M 75.6175 21.7575 
L 1080.0175 21.7575 
" style="fill: none; stroke: #000000; stroke-linejoin: miter; stroke-linecap: square"/>
   </g>
   <g id="text_17">
    <!-- Loma Prieta Record no. 3548 -->
    <g transform="translate(462.21375 15.7575) scale(0.16 -0.16)">
     <defs>
      <path id="DejaVuSans-4c" d="M 628 4666 
L 1259 4666 
L 1259 531 
L 3531 531 
L 3531 0 
L 628 0 
L 628 4666 
z
" transform="scale(0.015625)"/>
      <path id="DejaVuSans-6f" d="M 1959 3097 
Q 1497 3097 1228 2736 
Q 959 2375 959 1747 
Q 959 1119 1226 758 
Q 1494 397 1959 397 
Q 2419 397 2687 759 
Q 2956 1122 2956 1747 
Q 2956 2369 2687 2733 
Q 2419 3097 1959 3097 
z
M 1959 3584 
Q 2709 3584 3137 3096 
Q 3566 2609 3566 1747 
Q 3566 888 3137 398 
Q 2709 -91 1959 -91 
Q 1206 -91 779 398 
Q 353 888 353 1747 
Q 353 2609 779 3096 
Q 1206 3584 1959 3584 
z
" transform="scale(0.015625)"/>
      <path id="DejaVuSans-61" d="M 2194 1759 
Q 1497 1759 1228 1600 
Q 959 1441 959 1056 
Q 959 750 1161 570 
Q 1363 391 1709 391 
Q 2188 391 2477 730 
Q 2766 1069 2766 1631 
L 2766 1759 
L 2194 1759 
z
M 3341 1997 
L 3341 0 
L 2766 0 
L 2766 531 
Q 2569 213 2275 61 
Q 1981 -91 1556 -91 
Q 1019 -91 701 211 
Q 384 513 384 1019 
Q 384 1609 779 1909 
Q 1175 2209 1959 2209 
L 2766 2209 
L 2766 2266 
Q 2766 2663 2505 2880 
Q 2244 3097 1772 3097 
Q 1472 3097 1187 3025 
Q 903 2953 641 2809 
L 641 3341 
Q 956 3463 1253 3523 
Q 1550 3584 1831 3584 
Q 2591 3584 2966 3190 
Q 3341 2797 3341 1997 
z
" transform="scale(0.015625)"/>
      <path id="DejaVuSans-50" d="M 1259 4147 
L 1259 2394 
L 2053 2394 
Q 2494 2394 2734 2622 
Q 2975 2850 2975 3272 
Q 2975 3691 2734 3919 
Q 2494 4147 2053 4147 
L 1259 4147 
z
M 628 4666 
L 2053 4666 
Q 2838 4666 3239 4311 
Q 3641 3956 3641 3272 
Q 3641 2581 3239 2228 
Q 2838 1875 2053 1875 
L 1259 1875 
L 1259 0 
L 628 0 
L 628 4666 
z
" transform="scale(0.015625)"/>
      <path id="DejaVuSans-72" d="M 2631 2963 
Q 2534 3019 2420 3045 
Q 2306 3072 2169 3072 
Q 1681 3072 1420 2755 
Q 1159 2438 1159 1844 
L 1159 0 
L 581 0 
L 581 3500 
L 1159 3500 
L 1159 2956 
Q 1341 3275 1631 3429 
Q 1922 3584 2338 3584 
Q 2397 3584 2469 3576 
Q 2541 3569 2628 3553 
L 2631 2963 
z
" transform="scale(0.015625)"/>
      <path id="DejaVuSans-74" d="M 1172 4494 
L 1172 3500 
L 2356 3500 
L 2356 3053 
L 1172 3053 
L 1172 1153 
Q 1172 725 1289 603 
Q 1406 481 1766 481 
L 2356 481 
L 2356 0 
L 1766 0 
Q 1100 0 847 248 
Q 594 497 594 1153 
L 594 3053 
L 172 3053 
L 172 3500 
L 594 3500 
L 594 4494 
L 1172 4494 
z
" transform="scale(0.015625)"/>
      <path id="DejaVuSans-63" d="M 3122 3366 
L 3122 2828 
Q 2878 2963 2633 3030 
Q 2388 3097 2138 3097 
Q 1578 3097 1268 2742 
Q 959 2388 959 1747 
Q 959 1106 1268 751 
Q 1578 397 2138 397 
Q 2388 397 2633 464 
Q 2878 531 3122 666 
L 3122 134 
Q 2881 22 2623 -34 
Q 2366 -91 2075 -91 
Q 1284 -91 818 406 
Q 353 903 353 1747 
Q 353 2603 823 3093 
Q 1294 3584 2113 3584 
Q 2378 3584 2631 3529 
Q 2884 3475 3122 3366 
z
" transform="scale(0.015625)"/>
      <path id="DejaVuSans-64" d="M 2906 2969 
L 2906 4863 
L 3481 4863 
L 3481 0 
L 2906 0 
L 2906 525 
Q 2725 213 2448 61 
Q 2172 -91 1784 -91 
Q 1150 -91 751 415 
Q 353 922 353 1747 
Q 353 2572 751 3078 
Q 1150 3584 1784 3584 
Q 2172 3584 2448 3432 
Q 2725 3281 2906 2969 
z
M 947 1747 
Q 947 1113 1208 752 
Q 1469 391 1925 391 
Q 2381 391 2643 752 
Q 2906 1113 2906 1747 
Q 2906 2381 2643 2742 
Q 2381 3103 1925 3103 
Q 1469 3103 1208 2742 
Q 947 2381 947 1747 
z
" transform="scale(0.015625)"/>
      <path id="DejaVuSans-6e" d="M 3513 2113 
L 3513 0 
L 2938 0 
L 2938 2094 
Q 2938 2591 2744 2837 
Q 2550 3084 2163 3084 
Q 1697 3084 1428 2787 
Q 1159 2491 1159 1978 
L 1159 0 
L 581 0 
L 581 3500 
L 1159 3500 
L 1159 2956 
Q 1366 3272 1645 3428 
Q 1925 3584 2291 3584 
Q 2894 3584 3203 3211 
Q 3513 2838 3513 2113 
z
" transform="scale(0.015625)"/>
      <path id="DejaVuSans-35" d="M 691 4666 
L 3169 4666 
L 3169 4134 
L 1269 4134 
L 1269 2991 
Q 1406 3038 1543 3061 
Q 1681 3084 1819 3084 
Q 2600 3084 3056 2656 
Q 3513 2228 3513 1497 
Q 3513 744 3044 326 
Q 2575 -91 1722 -91 
Q 1428 -91 1123 -41 
Q 819 9 494 109 
L 494 744 
Q 775 591 1075 516 
Q 1375 441 1709 441 
Q 2250 441 2565 725 
Q 2881 1009 2881 1497 
Q 2881 1984 2565 2268 
Q 2250 2553 1709 2553 
Q 1456 2553 1204 2497 
Q 953 2441 691 2322 
L 691 4666 
z
" transform="scale(0.015625)"/>
     </defs>
     <use xlink:href="#DejaVuSans-4c"/>
     <use xlink:href="#DejaVuSans-6f" x="53.962891"/>
     <use xlink:href="#DejaVuSans-6d" x="115.144531"/>
     <use xlink:href="#DejaVuSans-61" x="212.556641"/>
     <use xlink:href="#DejaVuSans-20" x="273.835938"/>
     <use xlink:href="#DejaVuSans-50" x="305.623047"/>
     <use xlink:href="#DejaVuSans-72" x="364.175781"/>
     <use xlink:href="#DejaVuSans-69" x="405.289062"/>
     <use xlink:href="#DejaVuSans-65" x="433.072266"/>
     <use xlink:href="#DejaVuSans-74" x="494.595703"/>
     <use xlink:href="#DejaVuSans-61" x="533.804688"/>
     <use xlink:href="#DejaVuSans-20" x="595.083984"/>
     <use xlink:href="#DejaVuSans-52" x="626.871094"/>
     <use xlink:href="#DejaVuSans-65" x="691.853516"/>
     <use xlink:href="#DejaVuSans-63" x="753.376953"/>
     <use xlink:href="#DejaVuSans-6f" x="808.357422"/>
     <use xlink:href="#DejaVuSans-72" x="869.539062"/>
     <use xlink:href="#DejaVuSans-64" x="908.902344"/>
     <use xlink:href="#DejaVuSans-20" x="972.378906"/>
     <use xlink:href="#DejaVuSans-6e" x="1004.166016"/>
     <use xlink:href="#DejaVuSans-6f" x="1067.544922"/>
     <use xlink:href="#DejaVuSans-2e" x="1126.976562"/>
     <use xlink:href="#DejaVuSans-20" x="1158.763672"/>
     <use xlink:href="#DejaVuSans-33" x="1190.550781"/>
     <use xlink:href="#DejaVuSans-35" x="1254.173828"/>
     <use xlink:href="#DejaVuSans-34" x="1317.796875"/>
     <use xlink:href="#DejaVuSans-38" x="1381.419922"/>
    </g>
   </g>
  </g>
 </g>
 <defs>
  <clipPath id="p97cf501b3b">
   <rect x="75.6175" y="21.7575" width="1004.4" height="498.96"/>
  </clipPath>
 </defs>
</svg>
