<?xml version="1.0" encoding="utf-8" standalone="no"?>
<!DOCTYPE svg PUBLIC "-//W3C//DTD SVG 1.1//EN"
  "http://www.w3.org/Graphics/SVG/1.1/DTD/svg11.dtd">
<svg xmlns:xlink="http://www.w3.org/1999/xlink" width="1083.6175pt" height="562.7875pt" viewBox="0 0 1083.6175 562.7875" xmlns="http://www.w3.org/2000/svg" version="1.1">
 <metadata>
  <rdf:RDF xmlns:dc="http://purl.org/dc/elements/1.1/" xmlns:cc="http://creativecommons.org/ns#" xmlns:rdf="http://www.w3.org/1999/02/22-rdf-syntax-ns#">
   <cc:Work>
    <dc:type rdf:resource="http://purl.org/dc/dcmitype/StillImage"/>
    <dc:date>2023-05-16T14:37:46.240529</dc:date>
    <dc:format>image/svg+xml</dc:format>
    <dc:creator>
     <cc:Agent>
      <dc:title>Matplotlib v3.7.1, https://matplotlib.org/</dc:title>
     </cc:Agent>
    </dc:creator>
   </cc:Work>
  </rdf:RDF>
 </metadata>
 <defs>
  <style type="text/css">*{stroke-linejoin: round; stroke-linecap: butt}</style>
 </defs>
 <g id="figure_1">
  <g id="patch_1">
   <path d="M 0 562.7875 
L 1083.6175 562.7875 
L 1083.6175 0 
L 0 0 
z
" style="fill: #ffffff"/>
  </g>
  <g id="axes_1">
   <g id="patch_2">
    <path d="M 75.6175 520.7175 
L 1080.0175 520.7175 
L 1080.0175 21.7575 
L 75.6175 21.7575 
z
" style="fill: #ffffff"/>
   </g>
   <g id="matplotlib.axis_1">
    <g id="xtick_1">
     <g id="line2d_1">
      <path d="M 121.272045 520.7175 
L 121.272045 21.7575 
" clip-path="url(#p268d2e4064)" style="fill: none; stroke-dasharray: 1.85,0.8; stroke-dashoffset: 0; stroke: #000000; stroke-opacity: 0.5; stroke-width: 0.5"/>
     </g>
     <g id="line2d_2">
      <defs>
       <path id="me229f16750" d="M 0 0 
L 0 -6 
" style="stroke: #000000"/>
      </defs>
      <g>
       <use xlink:href="#me229f16750" x="121.272045" y="520.7175" style="stroke: #000000"/>
      </g>
     </g>
     <g id="line2d_3">
      <defs>
       <path id="m79dd1b1b5d" d="M 0 0 
L 0 6 
" style="stroke: #000000"/>
      </defs>
      <g>
       <use xlink:href="#m79dd1b1b5d" x="121.272045" y="21.7575" style="stroke: #000000"/>
      </g>
     </g>
     <g id="text_1">
      <!-- 0 -->
      <g transform="translate(116.182045 536.375) scale(0.16 -0.16)">
       <defs>
        <path id="DejaVuSans-30" d="M 2034 4250 
Q 1547 4250 1301 3770 
Q 1056 3291 1056 2328 
Q 1056 1369 1301 889 
Q 1547 409 2034 409 
Q 2525 409 2770 889 
Q 3016 1369 3016 2328 
Q 3016 3291 2770 3770 
Q 2525 4250 2034 4250 
z
M 2034 4750 
Q 2819 4750 3233 4129 
Q 3647 3509 3647 2328 
Q 3647 1150 3233 529 
Q 2819 -91 2034 -91 
Q 1250 -91 836 529 
Q 422 1150 422 2328 
Q 422 3509 836 4129 
Q 1250 4750 2034 4750 
z
" transform="scale(0.015625)"/>
       </defs>
       <use xlink:href="#DejaVuSans-30"/>
      </g>
     </g>
    </g>
    <g id="xtick_2">
     <g id="line2d_4">
      <path d="M 284.353115 520.7175 
L 284.353115 21.7575 
" clip-path="url(#p268d2e4064)" style="fill: none; stroke-dasharray: 1.85,0.8; stroke-dashoffset: 0; stroke: #000000; stroke-opacity: 0.5; stroke-width: 0.5"/>
     </g>
     <g id="line2d_5">
      <g>
       <use xlink:href="#me229f16750" x="284.353115" y="520.7175" style="stroke: #000000"/>
      </g>
     </g>
     <g id="line2d_6">
      <g>
       <use xlink:href="#m79dd1b1b5d" x="284.353115" y="21.7575" style="stroke: #000000"/>
      </g>
     </g>
     <g id="text_2">
      <!-- 5 -->
      <g transform="translate(279.263115 536.375) scale(0.16 -0.16)">
       <defs>
        <path id="DejaVuSans-35" d="M 691 4666 
L 3169 4666 
L 3169 4134 
L 1269 4134 
L 1269 2991 
Q 1406 3038 1543 3061 
Q 1681 3084 1819 3084 
Q 2600 3084 3056 2656 
Q 3513 2228 3513 1497 
Q 3513 744 3044 326 
Q 2575 -91 1722 -91 
Q 1428 -91 1123 -41 
Q 819 9 494 109 
L 494 744 
Q 775 591 1075 516 
Q 1375 441 1709 441 
Q 2250 441 2565 725 
Q 2881 1009 2881 1497 
Q 2881 1984 2565 2268 
Q 2250 2553 1709 2553 
Q 1456 2553 1204 2497 
Q 953 2441 691 2322 
L 691 4666 
z
" transform="scale(0.015625)"/>
       </defs>
       <use xlink:href="#DejaVuSans-35"/>
      </g>
     </g>
    </g>
    <g id="xtick_3">
     <g id="line2d_7">
      <path d="M 447.434185 520.7175 
L 447.434185 21.7575 
" clip-path="url(#p268d2e4064)" style="fill: none; stroke-dasharray: 1.85,0.8; stroke-dashoffset: 0; stroke: #000000; stroke-opacity: 0.5; stroke-width: 0.5"/>
     </g>
     <g id="line2d_8">
      <g>
       <use xlink:href="#me229f16750" x="447.434185" y="520.7175" style="stroke: #000000"/>
      </g>
     </g>
     <g id="line2d_9">
      <g>
       <use xlink:href="#m79dd1b1b5d" x="447.434185" y="21.7575" style="stroke: #000000"/>
      </g>
     </g>
     <g id="text_3">
      <!-- 10 -->
      <g transform="translate(437.254185 536.375) scale(0.16 -0.16)">
       <defs>
        <path id="DejaVuSans-31" d="M 794 531 
L 1825 531 
L 1825 4091 
L 703 3866 
L 703 4441 
L 1819 4666 
L 2450 4666 
L 2450 531 
L 3481 531 
L 3481 0 
L 794 0 
L 794 531 
z
" transform="scale(0.015625)"/>
       </defs>
       <use xlink:href="#DejaVuSans-31"/>
       <use xlink:href="#DejaVuSans-30" x="63.623047"/>
      </g>
     </g>
    </g>
    <g id="xtick_4">
     <g id="line2d_10">
      <path d="M 610.515254 520.7175 
L 610.515254 21.7575 
" clip-path="url(#p268d2e4064)" style="fill: none; stroke-dasharray: 1.85,0.8; stroke-dashoffset: 0; stroke: #000000; stroke-opacity: 0.5; stroke-width: 0.5"/>
     </g>
     <g id="line2d_11">
      <g>
       <use xlink:href="#me229f16750" x="610.515254" y="520.7175" style="stroke: #000000"/>
      </g>
     </g>
     <g id="line2d_12">
      <g>
       <use xlink:href="#m79dd1b1b5d" x="610.515254" y="21.7575" style="stroke: #000000"/>
      </g>
     </g>
     <g id="text_4">
      <!-- 15 -->
      <g transform="translate(600.335254 536.375) scale(0.16 -0.16)">
       <use xlink:href="#DejaVuSans-31"/>
       <use xlink:href="#DejaVuSans-35" x="63.623047"/>
      </g>
     </g>
    </g>
    <g id="xtick_5">
     <g id="line2d_13">
      <path d="M 773.596324 520.7175 
L 773.596324 21.7575 
" clip-path="url(#p268d2e4064)" style="fill: none; stroke-dasharray: 1.85,0.8; stroke-dashoffset: 0; stroke: #000000; stroke-opacity: 0.5; stroke-width: 0.5"/>
     </g>
     <g id="line2d_14">
      <g>
       <use xlink:href="#me229f16750" x="773.596324" y="520.7175" style="stroke: #000000"/>
      </g>
     </g>
     <g id="line2d_15">
      <g>
       <use xlink:href="#m79dd1b1b5d" x="773.596324" y="21.7575" style="stroke: #000000"/>
      </g>
     </g>
     <g id="text_5">
      <!-- 20 -->
      <g transform="translate(763.416324 536.375) scale(0.16 -0.16)">
       <defs>
        <path id="DejaVuSans-32" d="M 1228 531 
L 3431 531 
L 3431 0 
L 469 0 
L 469 531 
Q 828 903 1448 1529 
Q 2069 2156 2228 2338 
Q 2531 2678 2651 2914 
Q 2772 3150 2772 3378 
Q 2772 3750 2511 3984 
Q 2250 4219 1831 4219 
Q 1534 4219 1204 4116 
Q 875 4013 500 3803 
L 500 4441 
Q 881 4594 1212 4672 
Q 1544 4750 1819 4750 
Q 2544 4750 2975 4387 
Q 3406 4025 3406 3419 
Q 3406 3131 3298 2873 
Q 3191 2616 2906 2266 
Q 2828 2175 2409 1742 
Q 1991 1309 1228 531 
z
" transform="scale(0.015625)"/>
       </defs>
       <use xlink:href="#DejaVuSans-32"/>
       <use xlink:href="#DejaVuSans-30" x="63.623047"/>
      </g>
     </g>
    </g>
    <g id="xtick_6">
     <g id="line2d_16">
      <path d="M 936.677394 520.7175 
L 936.677394 21.7575 
" clip-path="url(#p268d2e4064)" style="fill: none; stroke-dasharray: 1.85,0.8; stroke-dashoffset: 0; stroke: #000000; stroke-opacity: 0.5; stroke-width: 0.5"/>
     </g>
     <g id="line2d_17">
      <g>
       <use xlink:href="#me229f16750" x="936.677394" y="520.7175" style="stroke: #000000"/>
      </g>
     </g>
     <g id="line2d_18">
      <g>
       <use xlink:href="#m79dd1b1b5d" x="936.677394" y="21.7575" style="stroke: #000000"/>
      </g>
     </g>
     <g id="text_6">
      <!-- 25 -->
      <g transform="translate(926.497394 536.375) scale(0.16 -0.16)">
       <use xlink:href="#DejaVuSans-32"/>
       <use xlink:href="#DejaVuSans-35" x="63.623047"/>
      </g>
     </g>
    </g>
    <g id="xtick_7">
     <g id="line2d_19">
      <defs>
       <path id="m960a3bae79" d="M 0 0 
L 0 -3 
" style="stroke: #000000"/>
      </defs>
      <g>
       <use xlink:href="#m960a3bae79" x="88.655832" y="520.7175" style="stroke: #000000"/>
      </g>
     </g>
     <g id="line2d_20">
      <defs>
       <path id="m752c0f3f66" d="M 0 0 
L 0 3 
" style="stroke: #000000"/>
      </defs>
      <g>
       <use xlink:href="#m752c0f3f66" x="88.655832" y="21.7575" style="stroke: #000000"/>
      </g>
     </g>
    </g>
    <g id="xtick_8">
     <g id="line2d_21">
      <g>
       <use xlink:href="#m960a3bae79" x="153.888259" y="520.7175" style="stroke: #000000"/>
      </g>
     </g>
     <g id="line2d_22">
      <g>
       <use xlink:href="#m752c0f3f66" x="153.888259" y="21.7575" style="stroke: #000000"/>
      </g>
     </g>
    </g>
    <g id="xtick_9">
     <g id="line2d_23">
      <g>
       <use xlink:href="#m960a3bae79" x="186.504473" y="520.7175" style="stroke: #000000"/>
      </g>
     </g>
     <g id="line2d_24">
      <g>
       <use xlink:href="#m752c0f3f66" x="186.504473" y="21.7575" style="stroke: #000000"/>
      </g>
     </g>
    </g>
    <g id="xtick_10">
     <g id="line2d_25">
      <g>
       <use xlink:href="#m960a3bae79" x="219.120687" y="520.7175" style="stroke: #000000"/>
      </g>
     </g>
     <g id="line2d_26">
      <g>
       <use xlink:href="#m752c0f3f66" x="219.120687" y="21.7575" style="stroke: #000000"/>
      </g>
     </g>
    </g>
    <g id="xtick_11">
     <g id="line2d_27">
      <g>
       <use xlink:href="#m960a3bae79" x="251.736901" y="520.7175" style="stroke: #000000"/>
      </g>
     </g>
     <g id="line2d_28">
      <g>
       <use xlink:href="#m752c0f3f66" x="251.736901" y="21.7575" style="stroke: #000000"/>
      </g>
     </g>
    </g>
    <g id="xtick_12">
     <g id="line2d_29">
      <g>
       <use xlink:href="#m960a3bae79" x="316.969329" y="520.7175" style="stroke: #000000"/>
      </g>
     </g>
     <g id="line2d_30">
      <g>
       <use xlink:href="#m752c0f3f66" x="316.969329" y="21.7575" style="stroke: #000000"/>
      </g>
     </g>
    </g>
    <g id="xtick_13">
     <g id="line2d_31">
      <g>
       <use xlink:href="#m960a3bae79" x="349.585543" y="520.7175" style="stroke: #000000"/>
      </g>
     </g>
     <g id="line2d_32">
      <g>
       <use xlink:href="#m752c0f3f66" x="349.585543" y="21.7575" style="stroke: #000000"/>
      </g>
     </g>
    </g>
    <g id="xtick_14">
     <g id="line2d_33">
      <g>
       <use xlink:href="#m960a3bae79" x="382.201757" y="520.7175" style="stroke: #000000"/>
      </g>
     </g>
     <g id="line2d_34">
      <g>
       <use xlink:href="#m752c0f3f66" x="382.201757" y="21.7575" style="stroke: #000000"/>
      </g>
     </g>
    </g>
    <g id="xtick_15">
     <g id="line2d_35">
      <g>
       <use xlink:href="#m960a3bae79" x="414.817971" y="520.7175" style="stroke: #000000"/>
      </g>
     </g>
     <g id="line2d_36">
      <g>
       <use xlink:href="#m752c0f3f66" x="414.817971" y="21.7575" style="stroke: #000000"/>
      </g>
     </g>
    </g>
    <g id="xtick_16">
     <g id="line2d_37">
      <g>
       <use xlink:href="#m960a3bae79" x="480.050399" y="520.7175" style="stroke: #000000"/>
      </g>
     </g>
     <g id="line2d_38">
      <g>
       <use xlink:href="#m752c0f3f66" x="480.050399" y="21.7575" style="stroke: #000000"/>
      </g>
     </g>
    </g>
    <g id="xtick_17">
     <g id="line2d_39">
      <g>
       <use xlink:href="#m960a3bae79" x="512.666613" y="520.7175" style="stroke: #000000"/>
      </g>
     </g>
     <g id="line2d_40">
      <g>
       <use xlink:href="#m752c0f3f66" x="512.666613" y="21.7575" style="stroke: #000000"/>
      </g>
     </g>
    </g>
    <g id="xtick_18">
     <g id="line2d_41">
      <g>
       <use xlink:href="#m960a3bae79" x="545.282827" y="520.7175" style="stroke: #000000"/>
      </g>
     </g>
     <g id="line2d_42">
      <g>
       <use xlink:href="#m752c0f3f66" x="545.282827" y="21.7575" style="stroke: #000000"/>
      </g>
     </g>
    </g>
    <g id="xtick_19">
     <g id="line2d_43">
      <g>
       <use xlink:href="#m960a3bae79" x="577.899041" y="520.7175" style="stroke: #000000"/>
      </g>
     </g>
     <g id="line2d_44">
      <g>
       <use xlink:href="#m752c0f3f66" x="577.899041" y="21.7575" style="stroke: #000000"/>
      </g>
     </g>
    </g>
    <g id="xtick_20">
     <g id="line2d_45">
      <g>
       <use xlink:href="#m960a3bae79" x="643.131468" y="520.7175" style="stroke: #000000"/>
      </g>
     </g>
     <g id="line2d_46">
      <g>
       <use xlink:href="#m752c0f3f66" x="643.131468" y="21.7575" style="stroke: #000000"/>
      </g>
     </g>
    </g>
    <g id="xtick_21">
     <g id="line2d_47">
      <g>
       <use xlink:href="#m960a3bae79" x="675.747682" y="520.7175" style="stroke: #000000"/>
      </g>
     </g>
     <g id="line2d_48">
      <g>
       <use xlink:href="#m752c0f3f66" x="675.747682" y="21.7575" style="stroke: #000000"/>
      </g>
     </g>
    </g>
    <g id="xtick_22">
     <g id="line2d_49">
      <g>
       <use xlink:href="#m960a3bae79" x="708.363896" y="520.7175" style="stroke: #000000"/>
      </g>
     </g>
     <g id="line2d_50">
      <g>
       <use xlink:href="#m752c0f3f66" x="708.363896" y="21.7575" style="stroke: #000000"/>
      </g>
     </g>
    </g>
    <g id="xtick_23">
     <g id="line2d_51">
      <g>
       <use xlink:href="#m960a3bae79" x="740.98011" y="520.7175" style="stroke: #000000"/>
      </g>
     </g>
     <g id="line2d_52">
      <g>
       <use xlink:href="#m752c0f3f66" x="740.98011" y="21.7575" style="stroke: #000000"/>
      </g>
     </g>
    </g>
    <g id="xtick_24">
     <g id="line2d_53">
      <g>
       <use xlink:href="#m960a3bae79" x="806.212538" y="520.7175" style="stroke: #000000"/>
      </g>
     </g>
     <g id="line2d_54">
      <g>
       <use xlink:href="#m752c0f3f66" x="806.212538" y="21.7575" style="stroke: #000000"/>
      </g>
     </g>
    </g>
    <g id="xtick_25">
     <g id="line2d_55">
      <g>
       <use xlink:href="#m960a3bae79" x="838.828752" y="520.7175" style="stroke: #000000"/>
      </g>
     </g>
     <g id="line2d_56">
      <g>
       <use xlink:href="#m752c0f3f66" x="838.828752" y="21.7575" style="stroke: #000000"/>
      </g>
     </g>
    </g>
    <g id="xtick_26">
     <g id="line2d_57">
      <g>
       <use xlink:href="#m960a3bae79" x="871.444966" y="520.7175" style="stroke: #000000"/>
      </g>
     </g>
     <g id="line2d_58">
      <g>
       <use xlink:href="#m752c0f3f66" x="871.444966" y="21.7575" style="stroke: #000000"/>
      </g>
     </g>
    </g>
    <g id="xtick_27">
     <g id="line2d_59">
      <g>
       <use xlink:href="#m960a3bae79" x="904.06118" y="520.7175" style="stroke: #000000"/>
      </g>
     </g>
     <g id="line2d_60">
      <g>
       <use xlink:href="#m752c0f3f66" x="904.06118" y="21.7575" style="stroke: #000000"/>
      </g>
     </g>
    </g>
    <g id="xtick_28">
     <g id="line2d_61">
      <g>
       <use xlink:href="#m960a3bae79" x="969.293608" y="520.7175" style="stroke: #000000"/>
      </g>
     </g>
     <g id="line2d_62">
      <g>
       <use xlink:href="#m752c0f3f66" x="969.293608" y="21.7575" style="stroke: #000000"/>
      </g>
     </g>
    </g>
    <g id="xtick_29">
     <g id="line2d_63">
      <g>
       <use xlink:href="#m960a3bae79" x="1001.909822" y="520.7175" style="stroke: #000000"/>
      </g>
     </g>
     <g id="line2d_64">
      <g>
       <use xlink:href="#m752c0f3f66" x="1001.909822" y="21.7575" style="stroke: #000000"/>
      </g>
     </g>
    </g>
    <g id="xtick_30">
     <g id="line2d_65">
      <g>
       <use xlink:href="#m960a3bae79" x="1034.526036" y="520.7175" style="stroke: #000000"/>
      </g>
     </g>
     <g id="line2d_66">
      <g>
       <use xlink:href="#m752c0f3f66" x="1034.526036" y="21.7575" style="stroke: #000000"/>
      </g>
     </g>
    </g>
    <g id="xtick_31">
     <g id="line2d_67">
      <g>
       <use xlink:href="#m960a3bae79" x="1067.14225" y="520.7175" style="stroke: #000000"/>
      </g>
     </g>
     <g id="line2d_68">
      <g>
       <use xlink:href="#m752c0f3f66" x="1067.14225" y="21.7575" style="stroke: #000000"/>
      </g>
     </g>
    </g>
    <g id="text_7">
     <!-- Time(s) -->
     <g transform="translate(547.83375 555.86) scale(0.16 -0.16)">
      <defs>
       <path id="DejaVuSans-54" d="M -19 4666 
L 3928 4666 
L 3928 4134 
L 2272 4134 
L 2272 0 
L 1638 0 
L 1638 4134 
L -19 4134 
L -19 4666 
z
" transform="scale(0.015625)"/>
       <path id="DejaVuSans-69" d="M 603 3500 
L 1178 3500 
L 1178 0 
L 603 0 
L 603 3500 
z
M 603 4863 
L 1178 4863 
L 1178 4134 
L 603 4134 
L 603 4863 
z
" transform="scale(0.015625)"/>
       <path id="DejaVuSans-6d" d="M 3328 2828 
Q 3544 3216 3844 3400 
Q 4144 3584 4550 3584 
Q 5097 3584 5394 3201 
Q 5691 2819 5691 2113 
L 5691 0 
L 5113 0 
L 5113 2094 
Q 5113 2597 4934 2840 
Q 4756 3084 4391 3084 
Q 3944 3084 3684 2787 
Q 3425 2491 3425 1978 
L 3425 0 
L 2847 0 
L 2847 2094 
Q 2847 2600 2669 2842 
Q 2491 3084 2119 3084 
Q 1678 3084 1418 2786 
Q 1159 2488 1159 1978 
L 1159 0 
L 581 0 
L 581 3500 
L 1159 3500 
L 1159 2956 
Q 1356 3278 1631 3431 
Q 1906 3584 2284 3584 
Q 2666 3584 2933 3390 
Q 3200 3197 3328 2828 
z
" transform="scale(0.015625)"/>
       <path id="DejaVuSans-65" d="M 3597 1894 
L 3597 1613 
L 953 1613 
Q 991 1019 1311 708 
Q 1631 397 2203 397 
Q 2534 397 2845 478 
Q 3156 559 3463 722 
L 3463 178 
Q 3153 47 2828 -22 
Q 2503 -91 2169 -91 
Q 1331 -91 842 396 
Q 353 884 353 1716 
Q 353 2575 817 3079 
Q 1281 3584 2069 3584 
Q 2775 3584 3186 3129 
Q 3597 2675 3597 1894 
z
M 3022 2063 
Q 3016 2534 2758 2815 
Q 2500 3097 2075 3097 
Q 1594 3097 1305 2825 
Q 1016 2553 972 2059 
L 3022 2063 
z
" transform="scale(0.015625)"/>
       <path id="DejaVuSans-28" d="M 1984 4856 
Q 1566 4138 1362 3434 
Q 1159 2731 1159 2009 
Q 1159 1288 1364 580 
Q 1569 -128 1984 -844 
L 1484 -844 
Q 1016 -109 783 600 
Q 550 1309 550 2009 
Q 550 2706 781 3412 
Q 1013 4119 1484 4856 
L 1984 4856 
z
" transform="scale(0.015625)"/>
       <path id="DejaVuSans-73" d="M 2834 3397 
L 2834 2853 
Q 2591 2978 2328 3040 
Q 2066 3103 1784 3103 
Q 1356 3103 1142 2972 
Q 928 2841 928 2578 
Q 928 2378 1081 2264 
Q 1234 2150 1697 2047 
L 1894 2003 
Q 2506 1872 2764 1633 
Q 3022 1394 3022 966 
Q 3022 478 2636 193 
Q 2250 -91 1575 -91 
Q 1294 -91 989 -36 
Q 684 19 347 128 
L 347 722 
Q 666 556 975 473 
Q 1284 391 1588 391 
Q 1994 391 2212 530 
Q 2431 669 2431 922 
Q 2431 1156 2273 1281 
Q 2116 1406 1581 1522 
L 1381 1569 
Q 847 1681 609 1914 
Q 372 2147 372 2553 
Q 372 3047 722 3315 
Q 1072 3584 1716 3584 
Q 2034 3584 2315 3537 
Q 2597 3491 2834 3397 
z
" transform="scale(0.015625)"/>
       <path id="DejaVuSans-29" d="M 513 4856 
L 1013 4856 
Q 1481 4119 1714 3412 
Q 1947 2706 1947 2009 
Q 1947 1309 1714 600 
Q 1481 -109 1013 -844 
L 513 -844 
Q 928 -128 1133 580 
Q 1338 1288 1338 2009 
Q 1338 2731 1133 3434 
Q 928 4138 513 4856 
z
" transform="scale(0.015625)"/>
      </defs>
      <use xlink:href="#DejaVuSans-54"/>
      <use xlink:href="#DejaVuSans-69" x="57.958984"/>
      <use xlink:href="#DejaVuSans-6d" x="85.742188"/>
      <use xlink:href="#DejaVuSans-65" x="183.154297"/>
      <use xlink:href="#DejaVuSans-28" x="244.677734"/>
      <use xlink:href="#DejaVuSans-73" x="283.691406"/>
      <use xlink:href="#DejaVuSans-29" x="335.791016"/>
     </g>
    </g>
   </g>
   <g id="matplotlib.axis_2">
    <g id="ytick_1">
     <g id="line2d_69">
      <path d="M 75.6175 453.728466 
L 1080.0175 453.728466 
" clip-path="url(#p268d2e4064)" style="fill: none; stroke-dasharray: 1.85,0.8; stroke-dashoffset: 0; stroke: #000000; stroke-opacity: 0.5; stroke-width: 0.5"/>
     </g>
     <g id="line2d_70">
      <defs>
       <path id="m8c3fe45e2e" d="M 0 0 
L 6 0 
" style="stroke: #000000"/>
      </defs>
      <g>
       <use xlink:href="#m8c3fe45e2e" x="75.6175" y="453.728466" style="stroke: #000000"/>
      </g>
     </g>
     <g id="line2d_71">
      <defs>
       <path id="md3feec1056" d="M 0 0 
L -6 0 
" style="stroke: #000000"/>
      </defs>
      <g>
       <use xlink:href="#md3feec1056" x="1080.0175" y="453.728466" style="stroke: #000000"/>
      </g>
     </g>
     <g id="text_8">
      <!-- −0.02 -->
      <g transform="translate(23.085 459.807216) scale(0.16 -0.16)">
       <defs>
        <path id="DejaVuSans-2212" d="M 678 2272 
L 4684 2272 
L 4684 1741 
L 678 1741 
L 678 2272 
z
" transform="scale(0.015625)"/>
        <path id="DejaVuSans-2e" d="M 684 794 
L 1344 794 
L 1344 0 
L 684 0 
L 684 794 
z
" transform="scale(0.015625)"/>
       </defs>
       <use xlink:href="#DejaVuSans-2212"/>
       <use xlink:href="#DejaVuSans-30" x="83.789062"/>
       <use xlink:href="#DejaVuSans-2e" x="147.412109"/>
       <use xlink:href="#DejaVuSans-30" x="179.199219"/>
       <use xlink:href="#DejaVuSans-32" x="242.822266"/>
      </g>
     </g>
    </g>
    <g id="ytick_2">
     <g id="line2d_72">
      <path d="M 75.6175 360.747522 
L 1080.0175 360.747522 
" clip-path="url(#p268d2e4064)" style="fill: none; stroke-dasharray: 1.85,0.8; stroke-dashoffset: 0; stroke: #000000; stroke-opacity: 0.5; stroke-width: 0.5"/>
     </g>
     <g id="line2d_73">
      <g>
       <use xlink:href="#m8c3fe45e2e" x="75.6175" y="360.747522" style="stroke: #000000"/>
      </g>
     </g>
     <g id="line2d_74">
      <g>
       <use xlink:href="#md3feec1056" x="1080.0175" y="360.747522" style="stroke: #000000"/>
      </g>
     </g>
     <g id="text_9">
      <!-- −0.01 -->
      <g transform="translate(23.085 366.826272) scale(0.16 -0.16)">
       <use xlink:href="#DejaVuSans-2212"/>
       <use xlink:href="#DejaVuSans-30" x="83.789062"/>
       <use xlink:href="#DejaVuSans-2e" x="147.412109"/>
       <use xlink:href="#DejaVuSans-30" x="179.199219"/>
       <use xlink:href="#DejaVuSans-31" x="242.822266"/>
      </g>
     </g>
    </g>
    <g id="ytick_3">
     <g id="line2d_75">
      <path d="M 75.6175 267.766578 
L 1080.0175 267.766578 
" clip-path="url(#p268d2e4064)" style="fill: none; stroke-dasharray: 1.85,0.8; stroke-dashoffset: 0; stroke: #000000; stroke-opacity: 0.5; stroke-width: 0.5"/>
     </g>
     <g id="line2d_76">
      <g>
       <use xlink:href="#m8c3fe45e2e" x="75.6175" y="267.766578" style="stroke: #000000"/>
      </g>
     </g>
     <g id="line2d_77">
      <g>
       <use xlink:href="#md3feec1056" x="1080.0175" y="267.766578" style="stroke: #000000"/>
      </g>
     </g>
     <g id="text_10">
      <!-- 0.00 -->
      <g transform="translate(36.4925 273.845328) scale(0.16 -0.16)">
       <use xlink:href="#DejaVuSans-30"/>
       <use xlink:href="#DejaVuSans-2e" x="63.623047"/>
       <use xlink:href="#DejaVuSans-30" x="95.410156"/>
       <use xlink:href="#DejaVuSans-30" x="159.033203"/>
      </g>
     </g>
    </g>
    <g id="ytick_4">
     <g id="line2d_78">
      <path d="M 75.6175 174.785634 
L 1080.0175 174.785634 
" clip-path="url(#p268d2e4064)" style="fill: none; stroke-dasharray: 1.85,0.8; stroke-dashoffset: 0; stroke: #000000; stroke-opacity: 0.5; stroke-width: 0.5"/>
     </g>
     <g id="line2d_79">
      <g>
       <use xlink:href="#m8c3fe45e2e" x="75.6175" y="174.785634" style="stroke: #000000"/>
      </g>
     </g>
     <g id="line2d_80">
      <g>
       <use xlink:href="#md3feec1056" x="1080.0175" y="174.785634" style="stroke: #000000"/>
      </g>
     </g>
     <g id="text_11">
      <!-- 0.01 -->
      <g transform="translate(36.4925 180.864384) scale(0.16 -0.16)">
       <use xlink:href="#DejaVuSans-30"/>
       <use xlink:href="#DejaVuSans-2e" x="63.623047"/>
       <use xlink:href="#DejaVuSans-30" x="95.410156"/>
       <use xlink:href="#DejaVuSans-31" x="159.033203"/>
      </g>
     </g>
    </g>
    <g id="ytick_5">
     <g id="line2d_81">
      <path d="M 75.6175 81.80469 
L 1080.0175 81.80469 
" clip-path="url(#p268d2e4064)" style="fill: none; stroke-dasharray: 1.85,0.8; stroke-dashoffset: 0; stroke: #000000; stroke-opacity: 0.5; stroke-width: 0.5"/>
     </g>
     <g id="line2d_82">
      <g>
       <use xlink:href="#m8c3fe45e2e" x="75.6175" y="81.80469" style="stroke: #000000"/>
      </g>
     </g>
     <g id="line2d_83">
      <g>
       <use xlink:href="#md3feec1056" x="1080.0175" y="81.80469" style="stroke: #000000"/>
      </g>
     </g>
     <g id="text_12">
      <!-- 0.02 -->
      <g transform="translate(36.4925 87.88344) scale(0.16 -0.16)">
       <use xlink:href="#DejaVuSans-30"/>
       <use xlink:href="#DejaVuSans-2e" x="63.623047"/>
       <use xlink:href="#DejaVuSans-30" x="95.410156"/>
       <use xlink:href="#DejaVuSans-32" x="159.033203"/>
      </g>
     </g>
    </g>
    <g id="ytick_6">
     <g id="line2d_84">
      <defs>
       <path id="md34ce0ac75" d="M 0 0 
L 3 0 
" style="stroke: #000000"/>
      </defs>
      <g>
       <use xlink:href="#md34ce0ac75" x="75.6175" y="509.517032" style="stroke: #000000"/>
      </g>
     </g>
     <g id="line2d_85">
      <defs>
       <path id="m41cc052f10" d="M 0 0 
L -3 0 
" style="stroke: #000000"/>
      </defs>
      <g>
       <use xlink:href="#m41cc052f10" x="1080.0175" y="509.517032" style="stroke: #000000"/>
      </g>
     </g>
    </g>
    <g id="ytick_7">
     <g id="line2d_86">
      <g>
       <use xlink:href="#md34ce0ac75" x="75.6175" y="490.920843" style="stroke: #000000"/>
      </g>
     </g>
     <g id="line2d_87">
      <g>
       <use xlink:href="#m41cc052f10" x="1080.0175" y="490.920843" style="stroke: #000000"/>
      </g>
     </g>
    </g>
    <g id="ytick_8">
     <g id="line2d_88">
      <g>
       <use xlink:href="#md34ce0ac75" x="75.6175" y="472.324655" style="stroke: #000000"/>
      </g>
     </g>
     <g id="line2d_89">
      <g>
       <use xlink:href="#m41cc052f10" x="1080.0175" y="472.324655" style="stroke: #000000"/>
      </g>
     </g>
    </g>
    <g id="ytick_9">
     <g id="line2d_90">
      <g>
       <use xlink:href="#md34ce0ac75" x="75.6175" y="435.132277" style="stroke: #000000"/>
      </g>
     </g>
     <g id="line2d_91">
      <g>
       <use xlink:href="#m41cc052f10" x="1080.0175" y="435.132277" style="stroke: #000000"/>
      </g>
     </g>
    </g>
    <g id="ytick_10">
     <g id="line2d_92">
      <g>
       <use xlink:href="#md34ce0ac75" x="75.6175" y="416.536088" style="stroke: #000000"/>
      </g>
     </g>
     <g id="line2d_93">
      <g>
       <use xlink:href="#m41cc052f10" x="1080.0175" y="416.536088" style="stroke: #000000"/>
      </g>
     </g>
    </g>
    <g id="ytick_11">
     <g id="line2d_94">
      <g>
       <use xlink:href="#md34ce0ac75" x="75.6175" y="397.9399" style="stroke: #000000"/>
      </g>
     </g>
     <g id="line2d_95">
      <g>
       <use xlink:href="#m41cc052f10" x="1080.0175" y="397.9399" style="stroke: #000000"/>
      </g>
     </g>
    </g>
    <g id="ytick_12">
     <g id="line2d_96">
      <g>
       <use xlink:href="#md34ce0ac75" x="75.6175" y="379.343711" style="stroke: #000000"/>
      </g>
     </g>
     <g id="line2d_97">
      <g>
       <use xlink:href="#m41cc052f10" x="1080.0175" y="379.343711" style="stroke: #000000"/>
      </g>
     </g>
    </g>
    <g id="ytick_13">
     <g id="line2d_98">
      <g>
       <use xlink:href="#md34ce0ac75" x="75.6175" y="342.151333" style="stroke: #000000"/>
      </g>
     </g>
     <g id="line2d_99">
      <g>
       <use xlink:href="#m41cc052f10" x="1080.0175" y="342.151333" style="stroke: #000000"/>
      </g>
     </g>
    </g>
    <g id="ytick_14">
     <g id="line2d_100">
      <g>
       <use xlink:href="#md34ce0ac75" x="75.6175" y="323.555144" style="stroke: #000000"/>
      </g>
     </g>
     <g id="line2d_101">
      <g>
       <use xlink:href="#m41cc052f10" x="1080.0175" y="323.555144" style="stroke: #000000"/>
      </g>
     </g>
    </g>
    <g id="ytick_15">
     <g id="line2d_102">
      <g>
       <use xlink:href="#md34ce0ac75" x="75.6175" y="304.958956" style="stroke: #000000"/>
      </g>
     </g>
     <g id="line2d_103">
      <g>
       <use xlink:href="#m41cc052f10" x="1080.0175" y="304.958956" style="stroke: #000000"/>
      </g>
     </g>
    </g>
    <g id="ytick_16">
     <g id="line2d_104">
      <g>
       <use xlink:href="#md34ce0ac75" x="75.6175" y="286.362767" style="stroke: #000000"/>
      </g>
     </g>
     <g id="line2d_105">
      <g>
       <use xlink:href="#m41cc052f10" x="1080.0175" y="286.362767" style="stroke: #000000"/>
      </g>
     </g>
    </g>
    <g id="ytick_17">
     <g id="line2d_106">
      <g>
       <use xlink:href="#md34ce0ac75" x="75.6175" y="249.170389" style="stroke: #000000"/>
      </g>
     </g>
     <g id="line2d_107">
      <g>
       <use xlink:href="#m41cc052f10" x="1080.0175" y="249.170389" style="stroke: #000000"/>
      </g>
     </g>
    </g>
    <g id="ytick_18">
     <g id="line2d_108">
      <g>
       <use xlink:href="#md34ce0ac75" x="75.6175" y="230.5742" style="stroke: #000000"/>
      </g>
     </g>
     <g id="line2d_109">
      <g>
       <use xlink:href="#m41cc052f10" x="1080.0175" y="230.5742" style="stroke: #000000"/>
      </g>
     </g>
    </g>
    <g id="ytick_19">
     <g id="line2d_110">
      <g>
       <use xlink:href="#md34ce0ac75" x="75.6175" y="211.978012" style="stroke: #000000"/>
      </g>
     </g>
     <g id="line2d_111">
      <g>
       <use xlink:href="#m41cc052f10" x="1080.0175" y="211.978012" style="stroke: #000000"/>
      </g>
     </g>
    </g>
    <g id="ytick_20">
     <g id="line2d_112">
      <g>
       <use xlink:href="#md34ce0ac75" x="75.6175" y="193.381823" style="stroke: #000000"/>
      </g>
     </g>
     <g id="line2d_113">
      <g>
       <use xlink:href="#m41cc052f10" x="1080.0175" y="193.381823" style="stroke: #000000"/>
      </g>
     </g>
    </g>
    <g id="ytick_21">
     <g id="line2d_114">
      <g>
       <use xlink:href="#md34ce0ac75" x="75.6175" y="156.189445" style="stroke: #000000"/>
      </g>
     </g>
     <g id="line2d_115">
      <g>
       <use xlink:href="#m41cc052f10" x="1080.0175" y="156.189445" style="stroke: #000000"/>
      </g>
     </g>
    </g>
    <g id="ytick_22">
     <g id="line2d_116">
      <g>
       <use xlink:href="#md34ce0ac75" x="75.6175" y="137.593257" style="stroke: #000000"/>
      </g>
     </g>
     <g id="line2d_117">
      <g>
       <use xlink:href="#m41cc052f10" x="1080.0175" y="137.593257" style="stroke: #000000"/>
      </g>
     </g>
    </g>
    <g id="ytick_23">
     <g id="line2d_118">
      <g>
       <use xlink:href="#md34ce0ac75" x="75.6175" y="118.997068" style="stroke: #000000"/>
      </g>
     </g>
     <g id="line2d_119">
      <g>
       <use xlink:href="#m41cc052f10" x="1080.0175" y="118.997068" style="stroke: #000000"/>
      </g>
     </g>
    </g>
    <g id="ytick_24">
     <g id="line2d_120">
      <g>
       <use xlink:href="#md34ce0ac75" x="75.6175" y="100.400879" style="stroke: #000000"/>
      </g>
     </g>
     <g id="line2d_121">
      <g>
       <use xlink:href="#m41cc052f10" x="1080.0175" y="100.400879" style="stroke: #000000"/>
      </g>
     </g>
    </g>
    <g id="ytick_25">
     <g id="line2d_122">
      <g>
       <use xlink:href="#md34ce0ac75" x="75.6175" y="63.208501" style="stroke: #000000"/>
      </g>
     </g>
     <g id="line2d_123">
      <g>
       <use xlink:href="#m41cc052f10" x="1080.0175" y="63.208501" style="stroke: #000000"/>
      </g>
     </g>
    </g>
    <g id="ytick_26">
     <g id="line2d_124">
      <g>
       <use xlink:href="#md34ce0ac75" x="75.6175" y="44.612313" style="stroke: #000000"/>
      </g>
     </g>
     <g id="line2d_125">
      <g>
       <use xlink:href="#m41cc052f10" x="1080.0175" y="44.612313" style="stroke: #000000"/>
      </g>
     </g>
    </g>
    <g id="ytick_27">
     <g id="line2d_126">
      <g>
       <use xlink:href="#md34ce0ac75" x="75.6175" y="26.016124" style="stroke: #000000"/>
      </g>
     </g>
     <g id="line2d_127">
      <g>
       <use xlink:href="#m41cc052f10" x="1080.0175" y="26.016124" style="stroke: #000000"/>
      </g>
     </g>
    </g>
    <g id="text_13">
     <!-- IDR (%) -->
     <g transform="translate(15.7575 301.7025) rotate(-90) scale(0.16 -0.16)">
      <defs>
       <path id="DejaVuSans-49" d="M 628 4666 
L 1259 4666 
L 1259 0 
L 628 0 
L 628 4666 
z
" transform="scale(0.015625)"/>
       <path id="DejaVuSans-44" d="M 1259 4147 
L 1259 519 
L 2022 519 
Q 2988 519 3436 956 
Q 3884 1394 3884 2338 
Q 3884 3275 3436 3711 
Q 2988 4147 2022 4147 
L 1259 4147 
z
M 628 4666 
L 1925 4666 
Q 3281 4666 3915 4102 
Q 4550 3538 4550 2338 
Q 4550 1131 3912 565 
Q 3275 0 1925 0 
L 628 0 
L 628 4666 
z
" transform="scale(0.015625)"/>
       <path id="DejaVuSans-52" d="M 2841 2188 
Q 3044 2119 3236 1894 
Q 3428 1669 3622 1275 
L 4263 0 
L 3584 0 
L 2988 1197 
Q 2756 1666 2539 1819 
Q 2322 1972 1947 1972 
L 1259 1972 
L 1259 0 
L 628 0 
L 628 4666 
L 2053 4666 
Q 2853 4666 3247 4331 
Q 3641 3997 3641 3322 
Q 3641 2881 3436 2590 
Q 3231 2300 2841 2188 
z
M 1259 4147 
L 1259 2491 
L 2053 2491 
Q 2509 2491 2742 2702 
Q 2975 2913 2975 3322 
Q 2975 3731 2742 3939 
Q 2509 4147 2053 4147 
L 1259 4147 
z
" transform="scale(0.015625)"/>
       <path id="DejaVuSans-20" transform="scale(0.015625)"/>
       <path id="DejaVuSans-25" d="M 4653 2053 
Q 4381 2053 4226 1822 
Q 4072 1591 4072 1178 
Q 4072 772 4226 539 
Q 4381 306 4653 306 
Q 4919 306 5073 539 
Q 5228 772 5228 1178 
Q 5228 1588 5073 1820 
Q 4919 2053 4653 2053 
z
M 4653 2450 
Q 5147 2450 5437 2106 
Q 5728 1763 5728 1178 
Q 5728 594 5436 251 
Q 5144 -91 4653 -91 
Q 4153 -91 3862 251 
Q 3572 594 3572 1178 
Q 3572 1766 3864 2108 
Q 4156 2450 4653 2450 
z
M 1428 4353 
Q 1159 4353 1004 4120 
Q 850 3888 850 3481 
Q 850 3069 1003 2837 
Q 1156 2606 1428 2606 
Q 1700 2606 1854 2837 
Q 2009 3069 2009 3481 
Q 2009 3884 1853 4118 
Q 1697 4353 1428 4353 
z
M 4250 4750 
L 4750 4750 
L 1831 -91 
L 1331 -91 
L 4250 4750 
z
M 1428 4750 
Q 1922 4750 2215 4408 
Q 2509 4066 2509 3481 
Q 2509 2891 2217 2550 
Q 1925 2209 1428 2209 
Q 931 2209 642 2551 
Q 353 2894 353 3481 
Q 353 4063 643 4406 
Q 934 4750 1428 4750 
z
" transform="scale(0.015625)"/>
      </defs>
      <use xlink:href="#DejaVuSans-49"/>
      <use xlink:href="#DejaVuSans-44" x="29.492188"/>
      <use xlink:href="#DejaVuSans-52" x="106.494141"/>
      <use xlink:href="#DejaVuSans-20" x="175.976562"/>
      <use xlink:href="#DejaVuSans-28" x="207.763672"/>
      <use xlink:href="#DejaVuSans-25" x="246.777344"/>
      <use xlink:href="#DejaVuSans-29" x="341.796875"/>
     </g>
    </g>
   </g>
   <g id="line2d_128">
    <path d="M 121.272045 267.766578 
L 121.435127 267.838944 
L 121.598208 268.249487 
L 121.92437 270.703276 
L 123.065937 283.859181 
L 123.229018 284.242943 
L 123.392099 284.120314 
L 123.718261 282.700643 
L 124.859829 275.519852 
L 125.185991 274.832415 
L 125.349072 274.749581 
L 125.675234 274.962436 
L 126.327559 276.060565 
L 126.816802 276.766233 
L 127.306045 277.084893 
L 127.795288 277.048505 
L 128.610694 276.614135 
L 129.426099 276.232109 
L 130.893829 275.810862 
L 131.709234 275.401827 
L 132.198477 275.482316 
L 133.340045 275.967183 
L 133.829288 275.872311 
L 135.297017 275.370785 
L 136.112423 275.125036 
L 137.25399 274.506383 
L 137.580152 274.586735 
L 138.069396 275.090036 
L 138.72172 275.885628 
L 139.047882 275.945169 
L 139.374044 275.616626 
L 139.700206 274.899332 
L 141.004855 271.194873 
L 141.331017 271.045505 
L 141.657179 271.287006 
L 142.472585 272.09695 
L 142.961828 272.125457 
L 143.451071 272.083722 
L 143.777233 272.296751 
L 144.103395 272.82459 
L 144.918801 274.515066 
L 145.081882 274.553501 
L 145.244963 274.384863 
L 145.571125 273.422952 
L 146.549611 269.247199 
L 146.712692 269.01372 
L 146.875773 269.000109 
L 147.201936 269.563305 
L 149.485071 276.134545 
L 149.811233 276.544854 
L 149.974314 276.467964 
L 150.137395 276.121446 
L 150.463557 274.537634 
L 151.605124 266.531933 
L 151.768205 266.15973 
L 151.931287 266.107177 
L 152.094368 266.366905 
L 152.42053 267.593307 
L 153.235935 271.264303 
L 153.725178 272.360719 
L 154.703665 274.071992 
L 154.866746 274.109168 
L 155.192908 273.817852 
L 156.660638 271.731613 
L 156.9868 271.604971 
L 157.149881 271.765873 
L 157.476043 272.668313 
L 157.965286 275.375316 
L 158.61761 279.21335 
L 158.780691 279.442845 
L 158.943773 279.131689 
L 159.269935 276.740808 
L 160.411502 263.579974 
L 160.574583 263.585214 
L 160.737664 264.267951 
L 161.063826 267.151096 
L 161.55307 272.066988 
L 161.879232 273.502991 
L 162.042313 273.471419 
L 162.205394 272.993709 
L 162.531556 271.016803 
L 163.510042 264.031072 
L 163.673124 263.744946 
L 163.836205 263.958169 
L 164.162367 265.983573 
L 165.140853 275.060357 
L 165.303934 275.192917 
L 165.467015 274.679317 
L 165.793177 271.832576 
L 166.771664 260.442215 
L 166.934745 260.219742 
L 167.097826 260.793864 
L 167.423988 264.085965 
L 168.402475 277.771155 
L 168.565556 278.55517 
L 168.728637 278.6148 
L 168.891718 277.962315 
L 169.21788 274.996589 
L 169.870204 267.62053 
L 170.196366 266.236921 
L 170.359447 266.436247 
L 170.68561 268.270419 
L 171.501015 274.307671 
L 171.664096 274.732909 
L 171.827177 274.771211 
L 171.990258 274.461209 
L 172.31642 273.074436 
L 173.621069 265.850465 
L 173.947231 265.407557 
L 174.110312 265.465121 
L 174.436474 265.993367 
L 175.578042 268.635632 
L 176.393447 269.526437 
L 176.719609 270.699144 
L 177.208852 272.682529 
L 177.371933 272.889569 
L 177.535014 272.737686 
L 177.861177 271.447082 
L 178.676582 266.807613 
L 178.839663 266.556882 
L 179.002744 266.734879 
L 179.328906 268.309981 
L 180.307393 275.054983 
L 180.633555 275.658489 
L 180.796636 275.593964 
L 181.122798 274.934384 
L 182.264366 271.806448 
L 182.590528 271.211648 
L 182.91669 270.16438 
L 184.058257 264.955951 
L 184.221338 264.922245 
L 184.384419 265.195642 
L 184.710582 266.441762 
L 185.199825 268.490207 
L 185.525987 269.065547 
L 186.01523 269.311728 
L 186.341392 270.048951 
L 186.830635 272.324287 
L 187.319879 274.387682 
L 187.48296 274.709125 
L 187.646041 274.783092 
L 187.809122 274.610124 
L 188.135284 273.68906 
L 188.787608 271.521961 
L 189.11377 271.222119 
L 189.439933 271.554418 
L 189.929176 272.240615 
L 190.092257 272.213144 
L 190.418419 271.648675 
L 192.538473 266.048018 
L 192.864635 265.629906 
L 193.027716 265.680554 
L 193.353878 266.254168 
L 193.843121 267.20948 
L 194.006203 267.158668 
L 194.169284 266.800184 
L 194.495446 265.208174 
L 195.14777 261.112716 
L 195.310851 260.625954 
L 195.473932 260.571485 
L 195.637013 260.98369 
L 195.963175 263.009005 
L 196.778581 269.466947 
L 197.104743 270.559009 
L 197.267824 270.677019 
L 197.430905 270.55248 
L 197.757067 269.771579 
L 198.735554 266.763569 
L 199.061716 266.289832 
L 199.387878 266.200362 
L 199.550959 266.386935 
L 199.877121 267.468088 
L 200.366364 270.698991 
L 200.855607 273.781057 
L 201.018689 274.264164 
L 201.18177 274.319979 
L 201.344851 273.910817 
L 201.671013 271.834831 
L 202.81258 262.114264 
L 203.138742 260.610136 
L 203.301823 260.4728 
L 203.464905 260.895971 
L 203.791067 263.499582 
L 204.932634 276.367444 
L 205.095715 276.552308 
L 205.258796 276.08048 
L 205.584958 273.463582 
L 206.400364 265.029942 
L 206.726526 263.938353 
L 206.889607 263.921177 
L 207.215769 264.544193 
L 207.541931 265.840584 
L 208.031175 269.142132 
L 208.520418 272.139198 
L 208.683499 272.437221 
L 208.84658 272.315553 
L 209.172742 271.25726 
L 209.498904 270.139749 
L 209.661985 269.843394 
L 209.825066 269.786146 
L 209.988147 269.986199 
L 210.314309 271.192868 
L 210.803553 274.647112 
L 211.292796 278.160021 
L 211.618958 279.414578 
L 211.782039 279.561387 
L 211.94512 279.337564 
L 212.271282 277.741771 
L 212.760526 272.969517 
L 213.739012 262.218635 
L 213.902093 261.599179 
L 214.065174 261.618898 
L 214.228255 262.261872 
L 214.717498 266.34454 
L 215.043661 268.561689 
L 215.206742 269.033654 
L 215.369823 269.075702 
L 215.695985 268.267362 
L 217.489877 261.874574 
L 217.652958 261.883582 
L 217.816039 262.232346 
L 218.142201 263.764976 
L 218.631444 266.415203 
L 218.794525 266.799502 
L 218.957606 266.781431 
L 219.283768 265.779837 
L 219.773012 264.209069 
L 219.936093 264.135442 
L 220.588417 264.570837 
L 220.914579 263.815489 
L 221.403822 262.360361 
L 221.566903 262.309004 
L 221.729984 262.653227 
L 222.056147 264.575725 
L 223.197714 274.144429 
L 223.360795 274.052882 
L 223.686957 272.459358 
L 224.1762 269.875957 
L 224.339281 269.678508 
L 224.502363 269.796674 
L 224.828525 270.332732 
L 224.991606 270.406865 
L 225.154687 270.191058 
L 225.480849 268.842248 
L 226.459335 263.155826 
L 227.437822 259.067177 
L 227.927065 257.291707 
L 228.090146 257.284959 
L 228.253227 257.745428 
L 228.579389 260.075567 
L 229.394795 267.587552 
L 229.720957 268.382961 
L 229.884038 268.213782 
L 230.699443 266.108766 
L 231.188686 266.146553 
L 231.351767 265.838965 
L 231.67793 264.105382 
L 232.167173 260.718762 
L 232.330254 260.393374 
L 232.493335 260.783785 
L 232.819497 263.632779 
L 233.634902 273.540353 
L 233.961065 274.894668 
L 234.124146 274.938752 
L 234.450308 274.270728 
L 234.939551 273.041475 
L 235.265713 272.393524 
L 235.591875 270.850206 
L 236.570362 263.323696 
L 236.733443 263.479519 
L 237.059605 265.204736 
L 237.711929 269.45093 
L 238.038091 269.979929 
L 238.527335 269.777426 
L 238.690416 270.040787 
L 239.016578 271.705358 
L 239.995064 279.639979 
L 240.158145 279.678623 
L 240.484307 278.567561 
L 241.299713 274.894766 
L 241.625875 274.175817 
L 241.952037 273.911635 
L 242.278199 273.968229 
L 242.930523 274.412088 
L 243.419767 275.081614 
L 243.745929 275.528502 
L 243.90901 275.496542 
L 244.072091 275.183923 
L 244.561334 273.023685 
L 244.887496 272.050664 
L 245.050577 272.108089 
L 245.213658 272.575184 
L 245.702902 275.511755 
L 246.029064 277.301201 
L 246.355226 277.932688 
L 246.518307 277.715541 
L 246.844469 276.372565 
L 247.333712 274.121256 
L 247.496793 273.874113 
L 247.659874 273.953724 
L 247.986037 274.884762 
L 248.638361 278.127414 
L 248.964523 279.625937 
L 249.127604 279.909362 
L 249.290685 279.603695 
L 249.453766 278.557502 
L 249.779928 274.226732 
L 250.758415 257.208591 
L 251.084577 254.237855 
L 251.410739 253.205025 
L 251.57382 253.519618 
L 251.736901 254.461906 
L 252.063063 258.275293 
L 252.878469 271.262343 
L 253.204631 273.181934 
L 253.367712 273.252776 
L 253.693874 272.458422 
L 254.183117 271.390554 
L 254.67236 270.612372 
L 255.161604 269.033648 
L 255.813928 266.803006 
L 255.977009 266.572129 
L 256.14009 266.58564 
L 256.303171 266.878229 
L 256.629333 268.246652 
L 257.281658 271.695634 
L 257.60782 272.426302 
L 257.770901 272.473751 
L 257.933982 272.324491 
L 258.260144 271.439349 
L 259.23863 267.20068 
L 259.401711 267.273238 
L 259.727874 268.541159 
L 260.70636 274.521528 
L 261.032522 275.102965 
L 261.195603 274.966578 
L 261.521765 273.886997 
L 262.337171 269.120895 
L 262.989495 264.642667 
L 263.478738 261.105126 
L 263.8049 260.044096 
L 264.131062 259.963754 
L 264.294144 259.925021 
L 264.457225 259.68568 
L 264.783387 258.343349 
L 265.27263 254.352066 
L 265.761873 248.041386 
L 266.414197 235.336772 
L 267.229603 218.409839 
L 267.718846 212.87013 
L 268.045008 211.227864 
L 268.534251 209.515421 
L 269.023495 206.558715 
L 269.512738 203.434605 
L 269.8389 202.453715 
L 270.001981 202.351636 
L 270.491224 202.601755 
L 270.654305 202.407176 
L 270.817386 201.839149 
L 271.143548 199.475808 
L 271.632792 195.193701 
L 271.958954 194.182356 
L 272.122035 194.288263 
L 272.448197 194.710453 
L 272.611278 194.581978 
L 272.774359 194.069109 
L 273.100521 192.026587 
L 274.40517 182.440736 
L 277.014467 164.257298 
L 277.177548 164.241198 
L 277.340629 164.785745 
L 277.666791 167.481175 
L 279.297602 186.172374 
L 279.786845 188.532474 
L 280.113007 188.970107 
L 280.276088 188.805494 
L 280.602251 187.831295 
L 281.580737 183.354957 
L 281.743818 183.284003 
L 281.906899 183.847587 
L 282.06998 185.245353 
L 282.396142 191.085112 
L 282.722304 201.38649 
L 283.211548 226.530336 
L 283.700791 265.757773 
L 284.516196 336.155987 
L 284.842358 350.550839 
L 285.005439 353.603988 
L 285.16852 354.126128 
L 285.331602 352.414194 
L 285.657764 343.494447 
L 286.147007 320.271963 
L 287.125493 267.175718 
L 287.451655 258.319613 
L 287.614737 256.485785 
L 287.777818 256.215345 
L 287.940899 257.272653 
L 288.267061 262.360382 
L 289.571709 288.855271 
L 289.73479 289.429897 
L 289.897871 289.242088 
L 290.387115 287.049285 
L 290.550196 286.969243 
L 290.713277 287.668917 
L 291.039439 291.602864 
L 291.854844 305.913819 
L 292.181006 307.678015 
L 292.344088 307.222939 
L 292.67025 303.859097 
L 293.159493 294.358826 
L 293.811817 276.46611 
L 294.30106 257.07406 
L 295.442628 207.982635 
L 296.747276 172.42077 
L 297.562682 138.52162 
L 297.888844 132.46405 
L 298.051925 131.750271 
L 298.215006 132.338454 
L 298.541168 136.341348 
L 299.030411 147.29043 
L 299.356574 159.191308 
L 299.845817 188.969633 
L 300.987384 275.58475 
L 301.150465 279.909098 
L 301.313546 280.877153 
L 301.476627 278.620967 
L 301.80279 265.995694 
L 303.107438 197.070866 
L 303.270519 194.401117 
L 303.4336 193.77382 
L 303.596681 195.223795 
L 303.922843 204.2853 
L 304.412087 231.197202 
L 305.227492 281.407638 
L 305.553654 288.833252 
L 305.716735 288.499029 
L 305.879816 285.604994 
L 306.205978 273.433861 
L 307.347546 216.223222 
L 307.673708 211.605886 
L 307.836789 212.594441 
L 308.162951 220.623316 
L 309.304519 264.40283 
L 309.4676 266.470219 
L 309.630681 266.949457 
L 309.793762 265.989168 
L 310.119924 260.786555 
L 311.261492 235.73146 
L 311.424573 234.61172 
L 311.587654 234.852883 
L 311.750735 236.664426 
L 312.076897 245.490203 
L 312.56614 270.112976 
L 313.218464 305.183913 
L 313.544627 314.326647 
L 313.707708 315.973168 
L 313.870789 315.791499 
L 314.03387 314.048411 
L 314.523113 303.262899 
L 315.012356 292.525973 
L 315.338518 289.336665 
L 315.501599 289.1252 
L 315.664681 289.606189 
L 316.480086 293.531639 
L 316.643167 293.523726 
L 316.969329 292.645253 
L 317.458572 290.950665 
L 317.621653 290.755177 
L 317.784734 290.803618 
L 318.110897 291.209819 
L 318.273978 291.125577 
L 318.437059 290.413163 
L 318.60014 288.657474 
L 318.926302 280.441954 
L 319.252464 264.988262 
L 320.557113 192.00649 
L 321.209437 174.229019 
L 321.535599 168.583006 
L 321.861761 166.409502 
L 322.024842 167.246829 
L 322.187923 169.673166 
L 322.514085 179.97147 
L 322.840248 198.330017 
L 323.329491 240.80757 
L 324.471058 353.021852 
L 324.79722 369.7348 
L 324.960301 373.413012 
L 325.123383 373.698992 
L 325.286464 370.589609 
L 325.612626 355.009812 
L 326.101869 313.959515 
L 327.73268 149.225739 
L 327.895761 143.639573 
L 328.058842 142.711088 
L 328.221923 146.854435 
L 328.548085 170.576873 
L 329.037328 235.387091 
L 329.689652 325.233929 
L 330.015815 351.295434 
L 330.341977 360.916448 
L 330.505058 360.580054 
L 330.83122 353.039926 
L 331.809706 314.44945 
L 332.462031 283.736231 
L 333.114355 250.962577 
L 333.440517 243.252966 
L 333.603598 243.146101 
L 333.766679 245.654342 
L 334.092841 257.46698 
L 335.234409 312.118563 
L 335.39749 312.735401 
L 335.560571 309.175981 
L 335.886733 288.178257 
L 336.375976 230.330915 
L 336.86522 172.910858 
L 337.191382 152.08291 
L 337.354463 148.742232 
L 337.517544 150.060263 
L 337.843706 164.831587 
L 338.332949 207.605865 
L 339.148355 284.93244 
L 339.474517 300.18045 
L 339.637598 302.521016 
L 339.800679 301.473783 
L 340.126841 291.255393 
L 341.105327 247.497542 
L 341.43149 242.45021 
L 341.594571 242.607048 
L 341.757652 244.737963 
L 342.083814 255.939214 
L 342.409976 278.458058 
L 342.899219 335.410212 
L 343.714624 452.051805 
L 343.877706 461.839157 
L 344.040787 461.632596 
L 344.366949 437.559137 
L 344.856192 399.03232 
L 345.019273 398.101965 
L 345.182354 403.856124 
L 345.834678 443.30366 
L 345.997759 444.749805 
L 346.160841 441.217103 
L 346.813165 412.387455 
L 346.976246 410.809996 
L 347.139327 412.907644 
L 347.954732 435.58342 
L 348.117813 434.450381 
L 348.933219 417.727189 
L 349.0963 418.294793 
L 349.422462 423.662568 
L 349.748624 429.373679 
L 349.911705 430.590919 
L 350.074786 430.361932 
L 350.400948 426.647723 
L 350.72711 422.301129 
L 350.890192 421.206911 
L 351.053273 421.127515 
L 351.216354 421.836869 
L 351.379435 416.567743 
L 351.705597 362.440223 
L 352.521002 166.714209 
L 352.684083 153.7337 
L 352.847164 154.027214 
L 353.010245 166.459043 
L 353.336408 217.614303 
L 353.988732 335.889475 
L 354.314894 365.866071 
L 354.477975 370.765124 
L 354.641056 369.424567 
L 354.967218 351.144498 
L 355.456462 298.417687 
L 356.271867 206.637253 
L 356.598029 189.569836 
L 356.76111 186.8917 
L 356.924191 187.750952 
L 357.250353 197.808643 
L 358.718083 265.282317 
L 359.044245 269.285441 
L 359.207326 269.758306 
L 359.370407 269.60211 
L 359.533488 269.235023 
L 359.696569 269.164821 
L 359.85965 269.950621 
L 360.022731 272.157597 
L 360.348894 282.719459 
L 360.675056 302.970375 
L 361.816623 393.329511 
L 361.979704 396.846033 
L 362.142785 396.172822 
L 362.305866 391.472646 
L 362.632029 372.494491 
L 363.284353 326.778666 
L 363.610515 316.753502 
L 363.773596 316.580613 
L 363.936677 319.29435 
L 364.262839 330.679143 
L 364.915164 354.161894 
L 365.078245 356.222267 
L 365.241326 355.999852 
L 365.404407 353.4393 
L 365.730569 341.888215 
L 366.382893 303.298831 
L 366.872136 277.578272 
L 367.198299 270.619475 
L 367.36138 271.608031 
L 367.524461 276.009122 
L 367.850623 295.43011 
L 368.502947 363.003713 
L 368.99219 406.874991 
L 369.318352 420.95705 
L 369.481433 423.083365 
L 369.644515 422.471538 
L 369.970677 415.80716 
L 371.601487 365.563993 
L 372.090731 341.034738 
L 373.232298 264.33489 
L 374.047703 214.28482 
L 374.536947 199.028203 
L 374.863109 195.299712 
L 375.02619 195.345789 
L 375.189271 196.721777 
L 375.515433 203.252122 
L 376.983163 243.224379 
L 377.309325 251.520007 
L 377.635487 265.889663 
L 378.12473 300.036313 
L 378.777054 346.882621 
L 379.103217 358.208499 
L 379.266298 359.663529 
L 379.429379 358.509505 
L 379.755541 350.053378 
L 380.734027 317.101364 
L 380.897108 315.764332 
L 381.060189 316.250508 
L 381.223271 318.505372 
L 381.549433 327.608288 
L 382.201757 357.06226 
L 382.691 378.235656 
L 383.017162 384.039683 
L 383.180243 383.206072 
L 383.506405 374.367657 
L 383.995649 350.040862 
L 384.647973 306.347454 
L 386.115703 188.838628 
L 386.278784 189.70237 
L 386.604946 203.323795 
L 387.25727 241.000838 
L 387.420351 244.303573 
L 387.583432 243.596215 
L 387.746513 238.97448 
L 388.072675 220.47493 
L 388.888081 167.014992 
L 389.051162 162.609254 
L 389.214243 161.775509 
L 389.377324 164.869123 
L 389.703486 183.732338 
L 390.192729 241.640704 
L 390.845054 328.857517 
L 391.171216 348.420058 
L 391.334297 349.228445 
L 391.497378 344.601919 
L 391.82354 324.164924 
L 392.312783 290.259205 
L 392.638945 279.999606 
L 392.802026 279.482192 
L 392.965108 281.309479 
L 393.454351 289.653379 
L 393.617432 289.471874 
L 393.780513 286.423826 
L 394.106675 271.323729 
L 395.085161 206.4374 
L 395.248243 202.78972 
L 395.411324 203.107823 
L 395.574405 207.73946 
L 395.900567 229.822521 
L 396.879053 327.199299 
L 397.042134 332.543114 
L 397.205215 332.139487 
L 397.368296 326.121347 
L 397.694459 300.198956 
L 398.509864 219.311929 
L 398.672945 213.359538 
L 398.836026 213.837168 
L 398.999107 221.158951 
L 399.325269 254.889569 
L 400.466837 419.604367 
L 400.629918 426.401549 
L 400.792999 425.569834 
L 400.95608 417.218527 
L 401.282242 381.690779 
L 402.260728 250.831509 
L 402.586891 236.084091 
L 402.749972 235.734968 
L 402.913053 239.341672 
L 403.239215 254.845 
L 403.891539 288.042722 
L 404.05462 290.271422 
L 404.217701 288.2457 
L 404.380782 281.492022 
L 404.706945 254.101167 
L 406.011593 111.505121 
L 406.337755 102.461401 
L 406.500836 102.758451 
L 406.826998 109.536611 
L 407.153161 117.124414 
L 407.316242 118.831077 
L 407.479323 118.683183 
L 407.805485 114.429371 
L 408.131647 110.678633 
L 408.294728 111.991614 
L 408.457809 117.563801 
L 408.783971 145.397189 
L 409.273214 227.787106 
L 409.925539 346.303428 
L 410.251701 367.695828 
L 410.414782 363.872049 
L 410.740944 330.046388 
L 411.719431 189.849595 
L 411.882512 185.121213 
L 412.045593 188.711504 
L 412.371755 219.710897 
L 412.860998 309.493104 
L 413.350241 400.182251 
L 413.513322 416.671244 
L 413.676403 421.414625 
L 413.839484 412.7313 
L 414.165647 355.789191 
L 415.144133 96.287832 
L 415.307214 80.31521 
L 415.470295 78.107955 
L 415.633376 89.17505 
L 415.959538 144.938054 
L 417.264187 443.183978 
L 417.427268 453.942718 
L 417.590349 455.494675 
L 417.75343 448.825579 
L 418.079592 420.751883 
L 418.405754 374.730607 
L 418.894998 260.70426 
L 419.710403 55.42596 
L 419.873484 44.4375 
L 420.036565 50.617495 
L 420.362727 98.67618 
L 420.688889 147.968486 
L 420.85197 158.061627 
L 421.015052 155.770034 
L 421.830457 103.196441 
L 421.993538 102.853955 
L 422.156619 106.402296 
L 422.482781 122.192676 
L 422.808943 151.006398 
L 423.135105 198.013215 
L 424.276673 411.281013 
L 424.439754 418.828109 
L 424.602835 415.405964 
L 424.765916 400.961014 
L 425.092078 342.548042 
L 426.233646 66.961637 
L 426.396727 55.321974 
L 426.559808 58.298068 
L 426.88597 96.581288 
L 427.212132 139.817667 
L 427.538294 153.98855 
L 427.701375 160.425005 
L 428.027538 188.926928 
L 428.679862 289.724947 
L 429.169105 355.255946 
L 429.658348 395.251723 
L 430.147591 418.102824 
L 430.473754 424.131416 
L 430.636835 423.376972 
L 430.799916 419.424281 
L 431.126078 399.670409 
L 432.267645 294.41481 
L 432.430726 296.089082 
L 432.756889 317.445546 
L 433.735375 408.125627 
L 433.898456 411.328807 
L 434.061537 409.370233 
L 434.224618 402.153867 
L 434.55078 371.874655 
L 435.040024 293.353915 
L 435.692348 187.051881 
L 436.01851 163.268116 
L 436.181591 160.77262 
L 436.344672 163.696399 
L 436.670834 180.688984 
L 437.48624 229.354664 
L 437.812402 237.520726 
L 437.975483 238.89773 
L 438.138564 238.639338 
L 438.301645 236.905217 
L 438.627807 229.984977 
L 439.606293 199.870402 
L 440.258618 173.046238 
L 440.747861 153.538857 
L 440.910942 150.059762 
L 441.074023 149.175389 
L 441.237104 151.460945 
L 441.563266 167.248699 
L 441.889428 198.376633 
L 442.704834 290.596147 
L 442.867915 297.925576 
L 443.030996 298.701888 
L 443.194077 293.138317 
L 443.520239 267.708259 
L 444.172563 212.569049 
L 444.335644 207.628929 
L 444.498726 207.94447 
L 444.661807 213.543164 
L 444.987969 238.735701 
L 446.129536 362.603932 
L 446.292617 369.584175 
L 446.455698 371.479614 
L 446.618779 368.195827 
L 446.944942 348.194145 
L 447.760347 280.738007 
L 448.086509 272.175756 
L 448.24959 273.609569 
L 448.575752 286.130118 
L 449.064995 319.714463 
L 450.206563 409.418464 
L 450.369644 413.365535 
L 450.532725 410.962899 
L 450.695806 401.035375 
L 451.021968 357.452415 
L 452.489698 89.306561 
L 452.652779 85.392609 
L 452.81586 88.619272 
L 454.446671 180.284074 
L 455.098995 247.550448 
L 455.751319 307.987719 
L 456.077481 323.40488 
L 456.403644 331.480164 
L 456.892887 337.749709 
L 457.055968 338.416084 
L 457.219049 337.673648 
L 457.38213 334.923448 
L 457.708292 321.769797 
L 458.686779 262.004834 
L 458.84986 262.315918 
L 459.012941 268.297246 
L 459.339103 296.264037 
L 459.991427 371.112144 
L 460.154508 378.41731 
L 460.317589 375.767195 
L 460.48067 361.694393 
L 460.806833 300.21719 
L 461.785319 66.355372 
L 461.9484 59.402866 
L 462.111481 66.403096 
L 462.437643 110.286821 
L 463.579211 321.406456 
L 463.742292 325.0556 
L 463.905373 318.817006 
L 464.231535 282.301722 
L 465.373102 117.439593 
L 465.699265 106.175751 
L 465.862346 109.015211 
L 466.025427 117.631356 
L 466.351589 154.071523 
L 466.677751 218.502939 
L 467.819319 498.0375 
L 467.9824 494.969459 
L 468.308562 445.232321 
L 468.634724 387.567739 
L 468.797805 373.550567 
L 468.960886 373.554677 
L 469.287048 407.027483 
L 469.776291 461.343827 
L 469.939372 462.850666 
L 470.102453 454.947098 
L 470.754778 399.573252 
L 470.917859 397.365174 
L 471.08094 402.115226 
L 471.733264 442.647507 
L 471.896345 444.895918 
L 472.059426 441.874557 
L 472.385588 424.445582 
L 472.711751 388.086113 
L 473.527156 276.328471 
L 473.853318 253.97187 
L 474.17948 247.418757 
L 474.342561 248.335004 
L 474.994886 256.445141 
L 475.157967 255.113854 
L 475.484129 245.905484 
L 476.462615 206.244508 
L 476.625696 204.424368 
L 476.788777 204.499573 
L 477.114939 208.492624 
L 477.441102 212.722162 
L 477.604183 212.969085 
L 477.767264 211.203442 
L 478.093426 201.082074 
L 479.398074 142.765782 
L 479.561156 141.887434 
L 479.724237 142.896496 
L 480.050399 149.263436 
L 481.355047 187.918754 
L 481.681209 202.793014 
L 482.007372 230.669366 
L 482.496615 307.306267 
L 483.31202 458.458238 
L 483.475101 469.847257 
L 483.638182 469.102395 
L 483.964344 439.276141 
L 484.290507 402.479939 
L 484.453588 392.83542 
L 484.616669 391.734964 
L 484.942831 401.302653 
L 485.105912 402.561975 
L 485.268993 399.482443 
L 485.595155 380.721689 
L 486.573642 300.98955 
L 486.899804 289.224941 
L 487.062885 286.947202 
L 487.225966 286.953155 
L 487.389047 289.224312 
L 487.715209 300.638395 
L 488.204452 332.227422 
L 488.693695 361.89247 
L 488.856776 364.160635 
L 489.019858 359.764371 
L 489.34602 327.802425 
L 489.835263 235.084984 
L 490.324506 144.558596 
L 490.650668 113.602221 
L 490.813749 108.765846 
L 490.97683 110.089414 
L 491.302993 125.626879 
L 492.281479 185.583168 
L 493.096884 214.010862 
L 493.423046 238.695383 
L 494.401533 334.007607 
L 494.564614 337.763241 
L 494.727695 335.550007 
L 495.053857 315.555622 
L 496.032344 232.894748 
L 496.358506 222.492174 
L 497.01083 210.039833 
L 497.500073 193.693466 
L 497.989316 177.226862 
L 498.315479 172.24447 
L 498.47856 172.469866 
L 498.641641 174.647337 
L 498.967803 184.750975 
L 499.457046 212.501032 
L 500.761695 305.743078 
L 500.924776 307.740732 
L 501.087857 305.444537 
L 501.414019 288.759656 
L 502.229424 226.249796 
L 502.392505 221.009973 
L 502.555586 220.222258 
L 502.718667 223.811239 
L 503.04483 241.473636 
L 503.860235 294.382579 
L 504.186397 304.262505 
L 504.67564 311.66385 
L 505.001802 314.562687 
L 505.164883 314.653966 
L 505.327965 312.937445 
L 505.491046 308.652787 
L 505.817208 290.29595 
L 506.306451 241.105533 
L 506.795694 192.373023 
L 507.121856 177.331768 
L 507.284937 176.661776 
L 507.448018 180.122958 
L 507.774181 196.151261 
L 508.915748 266.45634 
L 509.24191 275.471671 
L 509.568072 278.329464 
L 509.731153 278.121603 
L 510.057316 276.217896 
L 510.70964 271.33518 
L 511.035802 266.092725 
L 511.361964 256.102353 
L 512.503532 212.562543 
L 512.666613 213.983766 
L 512.829694 219.106119 
L 513.155856 239.86259 
L 514.297423 332.837529 
L 514.460504 337.246739 
L 514.623586 338.566768 
L 514.786667 337.153908 
L 515.112829 328.290629 
L 516.091315 293.288989 
L 516.417477 289.795488 
L 516.580558 290.636278 
L 516.90672 297.132891 
L 517.885207 326.890755 
L 518.048288 328.821045 
L 518.211369 329.084686 
L 518.37445 327.555479 
L 518.700612 318.916105 
L 519.026774 302.77882 
L 519.516018 265.582087 
L 520.494504 184.645181 
L 520.820666 169.796078 
L 521.146828 162.242172 
L 521.309909 160.636232 
L 521.47299 160.148248 
L 521.636071 160.524626 
L 522.288396 163.66252 
L 522.451477 162.875136 
L 522.777639 157.529971 
L 523.756125 130.940039 
L 523.919206 130.495406 
L 524.082288 132.286966 
L 524.40845 142.779664 
L 524.897693 174.283813 
L 526.03926 262.687151 
L 526.528504 280.104236 
L 527.343909 297.347511 
L 527.670071 302.488266 
L 527.833152 303.890415 
L 527.996233 304.177125 
L 528.159314 303.175621 
L 528.485476 297.278955 
L 529.463963 270.913952 
L 529.790125 267.331479 
L 530.279368 263.644802 
L 530.60553 259.339377 
L 531.747098 237.534833 
L 532.236341 230.029987 
L 532.399422 228.724648 
L 532.562503 228.396069 
L 532.725584 229.211445 
L 533.051746 234.494915 
L 533.54099 250.129952 
L 535.008719 305.291105 
L 535.334881 312.392326 
L 535.497962 314.225851 
L 535.661043 314.488165 
L 535.824125 312.914823 
L 536.150287 304.001569 
L 537.291854 257.703935 
L 537.454935 256.558599 
L 537.618016 257.426766 
L 537.944178 263.97183 
L 538.596503 281.501646 
L 538.922665 285.330168 
L 539.085746 285.711369 
L 539.248827 285.316842 
L 539.574989 282.953049 
L 540.064232 276.760817 
L 540.553476 267.33545 
L 541.2058 248.873839 
L 541.858124 230.683065 
L 542.184286 226.643099 
L 542.347367 226.297271 
L 542.510448 226.925082 
L 542.836611 230.229363 
L 543.652016 239.547785 
L 543.978178 243.236323 
L 544.467421 252.5482 
L 545.282827 271.185747 
L 545.608989 274.811306 
L 545.935151 276.131076 
L 546.261313 277.243863 
L 546.587475 279.836566 
L 547.076718 284.623758 
L 547.239799 285.082445 
L 547.402881 284.39286 
L 547.729043 279.112954 
L 548.87061 250.015466 
L 549.033691 249.670396 
L 549.196772 250.754293 
L 549.522934 256.482879 
L 550.501421 278.801269 
L 550.664502 279.899193 
L 550.827583 279.827569 
L 550.990664 278.673928 
L 551.479907 271.315986 
L 551.96915 264.957189 
L 552.132232 264.28572 
L 552.295313 264.571124 
L 552.458394 265.871199 
L 552.784556 271.46345 
L 553.926123 300.423742 
L 554.089204 301.156018 
L 554.252285 300.070061 
L 554.578448 291.90196 
L 554.90461 276.072906 
L 556.209258 200.29673 
L 556.372339 197.855927 
L 556.53542 198.098613 
L 556.698501 201.029517 
L 557.024664 214.281554 
L 557.676988 258.579726 
L 558.166231 287.341409 
L 558.492393 295.841635 
L 558.655474 296.40724 
L 558.818555 294.756009 
L 559.144718 286.233118 
L 560.286285 246.215241 
L 560.612447 242.683209 
L 560.775528 242.967078 
L 560.938609 244.629829 
L 561.264771 251.900499 
L 561.754015 270.217473 
L 562.56942 300.987518 
L 562.895582 306.960766 
L 563.058663 308.219914 
L 563.221744 308.49956 
L 563.384825 308.008228 
L 563.710987 305.577397 
L 564.689474 295.216006 
L 565.504879 284.513286 
L 565.994122 275.862946 
L 566.483366 263.260365 
L 567.461852 234.285768 
L 567.788014 231.209462 
L 567.951095 231.601518 
L 568.277257 235.384884 
L 569.092663 247.406185 
L 569.255744 247.948001 
L 569.418825 247.542987 
L 569.744987 244.322728 
L 570.23423 237.992934 
L 570.397311 237.012616 
L 570.560392 237.12164 
L 570.723473 238.509988 
L 571.049636 245.380303 
L 571.538879 264.077938 
L 572.354284 297.062329 
L 572.680446 304.270623 
L 573.006608 307.209647 
L 573.16969 307.42942 
L 573.332771 307.139539 
L 573.822014 305.766744 
L 573.985095 305.715625 
L 574.311257 306.291775 
L 574.637419 306.817661 
L 574.8005 306.617834 
L 574.963581 305.922948 
L 575.289743 302.825062 
L 575.942068 291.870609 
L 576.431311 285.601072 
L 576.594392 284.924242 
L 576.757473 284.979772 
L 577.409797 287.496558 
L 577.572878 286.964364 
L 577.735959 285.36988 
L 578.062122 278.801325 
L 579.203689 248.87904 
L 579.36677 247.697887 
L 579.529851 247.600486 
L 579.692932 248.488197 
L 580.019094 252.667963 
L 581.323743 274.748737 
L 581.486824 275.475698 
L 581.649905 275.544559 
L 581.812986 275.005327 
L 582.139148 272.479628 
L 583.280716 260.436428 
L 583.443797 259.758832 
L 583.606878 259.736508 
L 583.769959 260.506432 
L 584.096121 264.613847 
L 585.074608 282.300916 
L 585.237689 282.680602 
L 585.40077 281.751962 
L 585.726932 276.173756 
L 586.379256 256.927309 
L 587.520824 225.255932 
L 588.010067 214.119554 
L 588.336229 210.176472 
L 588.49931 209.927196 
L 588.662391 211.060307 
L 588.988553 217.846393 
L 589.477796 238.425736 
L 590.293202 276.379307 
L 590.619364 282.251638 
L 590.782445 282.228843 
L 590.945526 280.327517 
L 591.271688 272.080806 
L 592.087094 247.220364 
L 592.413256 243.53044 
L 592.576337 243.705287 
L 592.739418 245.196731 
L 593.06558 251.571394 
L 593.717904 271.696477 
L 594.370229 289.510921 
L 594.696391 292.350559 
L 594.859472 291.492585 
L 595.185634 285.288578 
L 596.327201 252.476801 
L 596.653364 250.382934 
L 596.816445 250.835768 
L 597.142607 254.023405 
L 598.284174 269.845417 
L 598.610336 271.272798 
L 598.773417 271.207228 
L 598.936499 270.618172 
L 599.262661 268.069475 
L 600.078066 259.92632 
L 600.241147 259.220571 
L 600.404228 259.099779 
L 600.567309 259.629854 
L 600.893471 262.681333 
L 601.382715 271.494801 
L 602.361201 291.244082 
L 602.687363 293.212644 
L 602.850444 292.744949 
L 603.176606 289.089987 
L 604.155093 273.309075 
L 604.318174 272.752473 
L 604.481255 273.044473 
L 604.807417 275.482441 
L 605.29666 279.869504 
L 605.622822 280.973227 
L 605.785903 280.870513 
L 606.112066 279.847878 
L 606.601309 278.139054 
L 606.927471 277.312316 
L 607.253633 275.442508 
L 607.579795 270.834448 
L 608.069038 257.683596 
L 608.721363 238.759791 
L 609.047525 234.957949 
L 609.210606 235.222161 
L 609.373687 236.929784 
L 609.699849 244.001226 
L 611.167579 285.812807 
L 611.982984 299.792248 
L 612.309146 303.214263 
L 612.472227 303.870216 
L 612.635308 303.555868 
L 612.798389 302.089143 
L 613.124552 295.237646 
L 613.613795 275.636746 
L 614.592281 231.92602 
L 614.918443 226.619314 
L 615.081524 226.382116 
L 615.244605 227.636481 
L 615.570768 233.831694 
L 616.875416 266.699051 
L 617.038497 267.935162 
L 617.201578 268.215477 
L 617.364659 267.662367 
L 617.853903 263.350046 
L 618.180065 261.102809 
L 618.343146 260.769134 
L 618.506227 260.988461 
L 619.158551 263.686843 
L 619.321632 263.608531 
L 619.484713 262.880777 
L 619.810875 259.474921 
L 620.789362 245.001644 
L 620.952443 244.218543 
L 621.115524 244.372425 
L 621.278605 245.520771 
L 621.604767 250.674235 
L 622.257091 268.121337 
L 622.746335 278.508128 
L 622.909416 279.813782 
L 623.072497 279.76408 
L 623.235578 278.377481 
L 623.56174 272.371113 
L 624.214064 259.052541 
L 624.377145 258.143853 
L 624.540226 258.757117 
L 624.866389 264.266658 
L 626.171037 297.395997 
L 626.334118 298.041859 
L 626.497199 297.578082 
L 626.823361 293.878737 
L 628.12801 271.689484 
L 628.454172 269.770066 
L 628.617253 269.649671 
L 628.780334 270.145098 
L 629.106496 272.947771 
L 630.084983 284.460651 
L 630.248064 284.438667 
L 630.411145 283.43654 
L 630.737307 278.61932 
L 631.715794 257.854029 
L 631.878875 256.522855 
L 632.041956 256.315155 
L 632.205037 257.215896 
L 632.531199 261.800869 
L 633.346604 277.107191 
L 633.672766 279.72574 
L 633.835847 280.150856 
L 634.325091 280.4307 
L 634.488172 280.932694 
L 634.814334 283.266863 
L 635.955901 295.179577 
L 636.118982 294.568729 
L 636.282063 292.510142 
L 636.608226 283.198574 
L 637.097469 257.322414 
L 637.749793 221.556164 
L 638.075955 214.36677 
L 638.239036 214.77004 
L 638.402117 217.863769 
L 638.72828 231.012711 
L 639.869847 290.626912 
L 640.196009 296.321451 
L 640.35909 296.906701 
L 640.522171 296.302352 
L 640.848333 292.616965 
L 642.316063 270.575754 
L 642.479144 269.954491 
L 642.642225 270.154248 
L 642.805306 271.234091 
L 643.131468 275.887362 
L 643.946874 291.014496 
L 644.109955 291.720709 
L 644.273036 290.924104 
L 644.599198 284.60751 
L 645.903847 246.474375 
L 646.066928 245.965587 
L 646.230009 246.442414 
L 646.882333 250.454114 
L 647.045414 250.235762 
L 647.371576 248.036414 
L 647.697738 245.693674 
L 647.860819 245.564344 
L 648.0239 246.639504 
L 648.350063 252.983262 
L 649.49163 287.37372 
L 649.817792 290.597869 
L 649.980873 291.11258 
L 650.143954 291.110368 
L 650.307035 290.71927 
L 650.633198 289.137079 
L 651.774765 281.09545 
L 652.100927 277.77635 
L 652.427089 272.221686 
L 653.242495 251.029541 
L 653.731738 242.23194 
L 653.894819 241.225913 
L 654.0579 241.262345 
L 654.220981 242.225727 
L 654.547143 246.223934 
L 655.036386 255.489473 
L 656.667197 292.622592 
L 656.993359 294.616756 
L 657.15644 294.515856 
L 657.482603 292.573091 
L 658.298008 285.352954 
L 658.62417 284.173353 
L 659.276494 283.286671 
L 659.602656 281.626599 
L 660.581143 274.575699 
L 660.744224 274.646219 
L 660.907305 275.379294 
L 661.233467 278.910205 
L 662.375035 297.458146 
L 662.538116 297.918345 
L 662.701197 297.407818 
L 663.027359 293.761898 
L 664.168926 274.925669 
L 665.310494 264.794697 
L 665.962818 255.365257 
L 666.941305 240.380889 
L 667.267467 238.904101 
L 667.430548 239.169135 
L 667.593629 240.094901 
L 667.919791 243.854164 
L 668.409034 253.666551 
L 669.713683 285.727035 
L 669.876764 287.379276 
L 670.039845 287.728856 
L 670.202926 286.580387 
L 670.529088 279.657541 
L 671.670656 242.276046 
L 671.833737 240.783458 
L 671.996818 240.816381 
L 672.159899 242.284915 
L 672.486061 248.811149 
L 673.138385 269.76572 
L 674.116872 301.659656 
L 674.443034 307.302658 
L 674.606115 308.006697 
L 674.769196 307.06049 
L 675.095358 300.261527 
L 676.236926 263.566772 
L 676.563088 261.20114 
L 676.726169 261.521341 
L 677.052331 263.742456 
L 677.541574 266.968743 
L 677.704655 267.293321 
L 677.867736 267.134417 
L 678.193898 265.518298 
L 679.009304 259.534399 
L 679.172385 259.362408 
L 679.335466 259.885581 
L 679.661628 262.91502 
L 680.313952 270.119353 
L 680.477033 270.27536 
L 680.640114 269.310904 
L 680.966277 264.030518 
L 681.944763 242.978335 
L 682.107844 242.515238 
L 682.270925 243.443089 
L 682.597087 249.022925 
L 683.738655 277.33243 
L 684.064817 279.83526 
L 684.227898 279.846533 
L 684.390979 279.206045 
L 684.880222 275.335715 
L 685.369465 272.020842 
L 685.858709 270.374287 
L 686.347952 269.551381 
L 686.511033 269.535712 
L 686.674114 269.752763 
L 687.000276 271.120116 
L 687.489519 275.382054 
L 687.978763 279.874138 
L 688.304925 281.039586 
L 688.468006 280.670287 
L 688.794168 277.812814 
L 689.446492 267.00176 
L 689.935735 259.995632 
L 690.261898 257.737767 
L 690.424979 257.475551 
L 690.58806 257.771618 
L 690.914222 259.818372 
L 691.403465 265.657923 
L 693.034276 289.544058 
L 693.360438 291.043593 
L 693.523519 291.31956 
L 693.6866 291.340578 
L 693.849681 291.128673 
L 694.175843 289.942918 
L 694.502005 287.430133 
L 695.15433 279.004305 
L 695.480492 275.512522 
L 695.643573 274.660464 
L 695.806654 274.601667 
L 695.969735 275.40647 
L 696.295897 279.416448 
L 697.437465 298.419734 
L 697.600546 299.2885 
L 697.763627 299.452807 
L 697.926708 298.929172 
L 698.25287 295.96937 
L 698.742113 287.850852 
L 699.7206 269.964698 
L 700.046762 267.67822 
L 700.209843 267.614761 
L 700.372924 268.238876 
L 700.699086 271.157888 
L 701.514491 280.084588 
L 701.677572 280.669826 
L 701.840653 280.545012 
L 702.003735 279.685647 
L 702.329897 276.050305 
L 703.308383 262.294023 
L 703.634545 260.385209 
L 703.797626 260.455778 
L 703.960707 261.401244 
L 704.28687 266.15503 
L 705.428437 291.486628 
L 705.591518 292.379214 
L 705.754599 292.026582 
L 705.91768 290.418992 
L 706.243842 283.838183 
L 707.711572 244.168968 
L 708.037734 240.559064 
L 708.363896 239.207102 
L 708.526977 239.29696 
L 708.690058 239.871197 
L 709.016221 242.37444 
L 709.505464 248.743008 
L 710.647031 268.120539 
L 711.625518 284.160765 
L 712.114761 288.475789 
L 712.440923 289.612511 
L 712.604004 289.70706 
L 712.767085 289.481318 
L 713.093247 287.977663 
L 713.419409 285.005817 
L 713.908653 278.27711 
L 715.05022 260.853199 
L 715.376382 258.651741 
L 715.539463 258.413856 
L 715.702544 258.816708 
L 716.028707 261.416903 
L 717.007193 271.818047 
L 717.659517 275.740645 
L 718.14876 281.023632 
L 718.638004 286.632339 
L 718.801085 287.587972 
L 718.964166 287.792322 
L 719.127247 287.195455 
L 719.453409 283.913099 
L 720.268814 273.527495 
L 721.247301 266.784749 
L 721.736544 258.572838 
L 722.388868 248.146384 
L 722.551949 247.047458 
L 722.71503 246.799173 
L 722.878111 247.420913 
L 723.204274 250.965564 
L 724.345841 267.415888 
L 724.998165 270.92468 
L 725.487409 274.540139 
L 725.976652 277.983108 
L 726.139733 278.301647 
L 726.302814 277.931102 
L 726.628976 274.856915 
L 727.118219 265.822144 
L 727.607462 257.609124 
L 727.770544 256.340746 
L 727.933625 256.043102 
L 728.096706 256.698293 
L 728.422868 260.218984 
L 729.401354 272.971949 
L 731.032165 286.406146 
L 731.195246 286.594056 
L 731.358327 286.241249 
L 731.684489 283.834219 
L 732.173732 276.478802 
L 733.3153 255.214529 
L 733.804543 250.909049 
L 734.130705 249.848922 
L 734.293786 249.808939 
L 734.456867 250.09312 
L 734.78303 251.582345 
L 735.761516 258.338805 
L 735.924597 258.660665 
L 736.087678 258.573941 
L 736.41384 257.396093 
L 736.903083 255.256304 
L 737.066165 255.130582 
L 737.229246 255.497283 
L 737.555408 257.757768 
L 738.696975 269.635537 
L 738.860056 270.119513 
L 739.023137 270.169084 
L 739.186218 269.824207 
L 739.512381 268.189609 
L 740.327786 263.311865 
L 740.490867 263.229176 
L 740.653948 263.630013 
L 740.98011 265.592993 
L 741.632434 269.830518 
L 741.795516 270.053169 
L 741.958597 269.789901 
L 742.284759 268.051594 
L 743.100164 262.375379 
L 743.426326 261.39788 
L 743.589407 261.301467 
L 743.752488 261.454861 
L 744.078651 262.389532 
L 744.730975 264.863287 
L 745.383299 265.969956 
L 745.54638 266.740384 
L 745.872542 270.174432 
L 746.361786 279.891846 
L 746.851029 289.257983 
L 747.177191 291.508673 
L 747.340272 291.090677 
L 747.666434 287.562727 
L 748.155677 277.947825 
L 749.134164 257.802469 
L 749.460326 254.21898 
L 749.786488 252.864024 
L 749.949569 252.859365 
L 750.275731 253.684767 
L 750.764974 256.020269 
L 751.254218 259.751784 
L 752.232704 268.517524 
L 753.21119 275.233644 
L 753.700434 281.128927 
L 754.189677 287.469977 
L 754.515839 289.071185 
L 754.67892 288.45633 
L 755.005082 283.991344 
L 755.494325 271.101309 
L 756.14665 254.346846 
L 756.472812 250.426371 
L 756.635893 249.852505 
L 756.798974 250.172141 
L 757.125136 253.271726 
L 757.614379 262.996429 
L 758.592866 286.634962 
L 758.919028 289.538313 
L 759.082109 289.373198 
L 759.24519 288.21181 
L 759.571352 283.68613 
L 760.549839 267.645631 
L 760.876001 264.874138 
L 761.039082 264.184374 
L 761.202163 263.989233 
L 761.365244 264.315539 
L 761.691406 266.657568 
L 762.017568 271.27606 
L 763.322217 295.601594 
L 763.485298 296.404177 
L 763.648379 296.12536 
L 763.81146 294.679555 
L 764.137622 288.255901 
L 764.626865 271.144992 
L 765.442271 240.640391 
L 765.768433 235.649826 
L 765.931514 235.467912 
L 766.094595 236.810581 
L 766.420757 243.434 
L 767.562325 273.897779 
L 767.888487 276.60886 
L 768.051568 276.880302 
L 768.214649 276.578101 
L 768.540811 274.715125 
L 769.356216 268.638998 
L 769.519297 268.366962 
L 769.682378 268.710276 
L 770.008541 271.25573 
L 770.987027 283.008269 
L 771.150108 283.783309 
L 771.313189 283.956324 
L 771.47627 283.512202 
L 771.802432 280.93463 
L 773.270162 263.918706 
L 773.433243 263.363003 
L 773.596324 263.325856 
L 773.759405 263.861682 
L 774.085567 266.698555 
L 774.737892 276.885742 
L 775.227135 282.547184 
L 775.390216 283.035304 
L 775.553297 282.641489 
L 775.879459 279.289885 
L 776.531783 266.814835 
L 777.184108 255.973445 
L 777.51027 252.886037 
L 777.673351 252.221854 
L 777.836432 252.296144 
L 777.999513 253.1917 
L 778.325675 257.431648 
L 779.467243 278.287806 
L 779.630324 278.922717 
L 779.793405 278.531075 
L 779.956486 277.100074 
L 780.282648 271.328043 
L 781.587297 239.396646 
L 781.750378 238.183613 
L 781.913459 238.031156 
L 782.07654 238.942652 
L 782.402702 243.785949 
L 782.891945 257.143057 
L 783.870432 286.320388 
L 784.196594 289.709433 
L 784.359675 289.723724 
L 784.522756 288.723126 
L 784.848918 284.365063 
L 785.501242 273.682322 
L 785.827404 271.635925 
L 785.990485 272.000683 
L 786.316648 275.414004 
L 787.295134 290.507356 
L 787.458215 290.685341 
L 787.621296 289.661151 
L 787.947458 284.001485 
L 788.599783 263.580105 
L 789.089026 250.627705 
L 789.415188 247.19473 
L 789.578269 247.233527 
L 789.74135 248.331429 
L 790.067512 253.063223 
L 791.20908 275.121372 
L 791.372161 276.418113 
L 791.535242 276.818436 
L 791.698323 276.274934 
L 792.024485 272.544782 
L 793.002971 255.631607 
L 793.166053 254.615578 
L 793.329134 254.461338 
L 793.492215 255.131442 
L 793.818377 258.401421 
L 794.796863 271.106111 
L 794.959944 271.702112 
L 795.123025 271.519134 
L 795.286106 270.575719 
L 795.612269 266.882842 
L 796.427674 256.46669 
L 796.590755 255.697233 
L 796.753836 255.649057 
L 796.916917 256.348921 
L 797.243079 259.774332 
L 798.221566 273.934426 
L 798.547728 275.654486 
L 798.710809 275.769928 
L 798.87389 275.454122 
L 799.200052 273.700084 
L 799.526214 270.555895 
L 800.178538 260.937984 
L 800.667782 254.580209 
L 800.993944 253.067986 
L 801.157025 253.449631 
L 801.320106 254.664573 
L 801.646268 259.605859 
L 802.298592 276.087906 
L 802.787836 286.917628 
L 803.113998 290.312116 
L 803.277079 290.696587 
L 803.44016 290.290381 
L 803.766322 287.510046 
L 804.255565 279.811373 
L 805.397133 258.751487 
L 805.723295 255.840592 
L 805.886376 255.190283 
L 806.049457 254.997127 
L 806.212538 255.140442 
L 806.701781 256.418988 
L 807.191024 257.477016 
L 807.354106 257.5333 
L 807.517187 257.37303 
L 807.843349 256.50231 
L 808.169511 255.593916 
L 808.332592 255.518536 
L 808.495673 255.913278 
L 808.658754 256.91023 
L 808.984916 261.011298 
L 809.474159 272.162159 
L 810.289565 291.895733 
L 810.452646 293.385036 
L 810.615727 293.575456 
L 810.778808 292.480929 
L 811.10497 287.022675 
L 812.246538 261.154478 
L 812.735781 255.670816 
L 813.714267 247.836976 
L 814.20351 245.346007 
L 814.366592 245.086977 
L 814.529673 245.238265 
L 814.692754 245.831887 
L 815.018916 248.264439 
L 815.67124 256.17008 
L 816.160483 261.467766 
L 816.486645 263.260584 
L 816.649727 263.495785 
L 816.812808 263.285192 
L 817.13897 261.663996 
L 818.280537 253.094829 
L 819.585186 248.841901 
L 819.911348 248.401298 
L 820.074429 248.654869 
L 820.400591 250.436089 
L 820.889834 256.124767 
L 821.70524 266.751142 
L 822.031402 268.931717 
L 822.357564 269.670197 
L 822.520645 269.614308 
L 823.33605 268.507232 
L 823.499131 268.844109 
L 823.825294 270.484329 
L 824.314537 273.613337 
L 824.477618 274.169626 
L 824.640699 274.275573 
L 824.80378 273.907899 
L 825.129942 272.048457 
L 825.782266 267.618148 
L 825.945348 267.126942 
L 826.108429 267.112807 
L 826.27151 267.666644 
L 826.597672 270.616989 
L 827.086915 278.62246 
L 827.576158 286.806172 
L 827.90232 289.501076 
L 828.065401 289.606902 
L 828.228482 288.884948 
L 828.554645 285.389567 
L 829.37005 274.310874 
L 829.696212 272.261904 
L 830.348536 269.978386 
L 830.674699 267.291515 
L 831.816266 253.747811 
L 831.979347 253.507637 
L 832.142428 253.805501 
L 832.46859 255.450925 
L 833.283996 260.043974 
L 833.610158 260.923128 
L 834.262482 262.114758 
L 834.588644 263.497033 
L 835.077887 265.904135 
L 835.240968 266.258214 
L 835.40405 266.203618 
L 835.567131 265.716485 
L 835.893293 263.712697 
L 836.545617 259.343991 
L 836.871779 258.543039 
L 837.03486 258.613894 
L 837.197941 259.004922 
L 837.524103 260.670163 
L 838.013347 264.841683 
L 838.828752 272.48143 
L 839.154914 273.887664 
L 839.317995 273.834653 
L 839.481076 273.156712 
L 839.807238 269.84299 
L 840.948806 253.521673 
L 841.274968 252.561553 
L 841.438049 252.727755 
L 841.764211 253.748506 
L 842.742698 257.961021 
L 843.395022 262.571217 
L 843.884265 265.274025 
L 844.047346 265.621798 
L 844.210427 265.689172 
L 844.862752 265.107243 
L 845.025833 265.226935 
L 845.351995 266.022356 
L 846.1674 268.759414 
L 847.145887 270.746045 
L 847.63513 273.383918 
L 848.124373 276.121573 
L 848.287454 276.586131 
L 848.450535 276.704448 
L 848.613616 276.464407 
L 848.939778 275.067511 
L 850.407508 266.291647 
L 850.570589 266.010574 
L 850.73367 266.003264 
L 850.896751 266.291687 
L 851.222913 267.748446 
L 852.2014 274.039956 
L 852.364481 274.340273 
L 852.527562 274.252347 
L 852.690643 273.731895 
L 853.016805 271.201229 
L 853.342967 266.489945 
L 853.83221 255.575005 
L 854.484535 240.467225 
L 854.810697 237.517067 
L 854.973778 237.86536 
L 855.136859 239.415833 
L 855.463021 245.664654 
L 857.256913 290.364053 
L 857.583075 294.477219 
L 857.746156 295.551907 
L 857.909237 295.789518 
L 858.072318 295.07671 
L 858.39848 290.622195 
L 858.887724 277.557953 
L 860.029291 242.477599 
L 860.518534 234.19496 
L 860.844696 231.978359 
L 861.007777 232.095105 
L 861.170859 233.170016 
L 861.497021 238.567078 
L 861.986264 254.523199 
L 862.96475 290.451766 
L 863.290912 295.814575 
L 863.453994 296.849567 
L 863.617075 296.91875 
L 863.780156 296.174826 
L 864.106318 292.880786 
L 864.758642 282.23756 
L 866.878696 243.645835 
L 867.204858 241.883205 
L 867.367939 242.137807 
L 867.53102 243.240558 
L 867.857182 248.078798 
L 868.346426 260.679164 
L 868.99875 277.775725 
L 869.324912 281.923346 
L 869.487993 282.570619 
L 869.651074 282.350695 
L 869.977236 279.792645 
L 870.46648 272.589807 
L 871.444966 257.168503 
L 871.934209 252.221764 
L 872.260371 250.61418 
L 872.423452 250.408952 
L 872.586533 250.60373 
L 872.912696 252.162134 
L 873.238858 255.21105 
L 873.891182 264.323817 
L 874.543506 272.811522 
L 875.032749 276.535537 
L 875.358912 277.367841 
L 875.521993 277.199055 
L 875.848155 275.704764 
L 876.826641 269.050599 
L 876.989722 269.080626 
L 877.152803 269.639405 
L 877.642047 273.339104 
L 877.968209 275.416211 
L 878.13129 275.751311 
L 878.294371 275.46423 
L 878.620533 272.915935 
L 879.109776 265.236106 
L 879.7621 254.589099 
L 880.088263 252.203051 
L 880.251344 252.134683 
L 880.414425 252.857159 
L 880.740587 256.471088 
L 881.22983 265.74237 
L 882.045235 281.47257 
L 882.371398 284.877052 
L 882.534479 285.567713 
L 882.69756 285.501963 
L 882.860641 284.657492 
L 883.186803 280.762062 
L 884.32837 261.206603 
L 884.654533 259.531433 
L 884.817614 259.479058 
L 884.980695 259.851074 
L 885.306857 261.508238 
L 886.285343 267.586064 
L 886.774586 269.1037 
L 887.753073 271.630999 
L 888.568478 274.322502 
L 888.731559 274.513554 
L 888.89464 274.449218 
L 889.220803 273.580399 
L 890.036208 270.682136 
L 891.503938 267.887137 
L 891.8301 267.764661 
L 891.993181 267.866225 
L 892.319343 268.479663 
L 892.808586 270.404376 
L 893.46091 273.084951 
L 893.787072 273.520824 
L 893.950154 273.385375 
L 894.276316 272.349205 
L 894.765559 269.152128 
L 896.885613 252.248224 
L 897.048694 251.575711 
L 897.211775 251.380205 
L 897.374856 251.731022 
L 897.701018 254.03529 
L 898.353342 262.440395 
L 899.005667 269.940035 
L 899.984153 277.751439 
L 900.310315 279.415362 
L 900.473396 279.796902 
L 900.636477 279.853637 
L 900.799558 279.597162 
L 901.125721 278.25623 
L 901.614964 274.545637 
L 902.756531 264.198741 
L 903.082693 262.794535 
L 903.245775 262.505609 
L 903.408856 262.519048 
L 903.571937 262.839841 
L 903.898099 264.411134 
L 904.387342 268.823781 
L 905.202747 277.232863 
L 905.365828 277.950681 
L 905.52891 278.064825 
L 905.691991 277.553885 
L 906.018153 274.881751 
L 906.833558 265.662476 
L 906.996639 264.925216 
L 907.15972 264.90215 
L 907.322801 265.63341 
L 907.648963 269.136049 
L 908.464369 281.257855 
L 908.62745 282.362891 
L 908.790531 282.589639 
L 908.953612 281.861633 
L 909.279774 277.683624 
L 910.258261 259.29196 
L 910.421342 258.270663 
L 910.584423 258.300916 
L 910.747504 259.381203 
L 911.073666 264.219923 
L 912.215233 285.616191 
L 912.378314 286.654616 
L 912.541396 286.873286 
L 912.704477 286.258723 
L 913.030639 282.743847 
L 913.519882 273.481357 
L 914.335287 257.21819 
L 914.82453 251.028282 
L 915.150693 249.041209 
L 915.313774 248.808455 
L 915.476855 249.12872 
L 915.803017 251.455424 
L 916.29226 258.436123 
L 917.107665 270.898438 
L 917.596909 274.626742 
L 917.923071 275.388202 
L 918.086152 275.312431 
L 918.412314 274.398648 
L 919.064638 270.984233 
L 920.85853 261.638607 
L 921.021611 261.441091 
L 921.184692 261.680186 
L 921.347773 262.416219 
L 921.673935 265.395593 
L 922.815503 279.683078 
L 922.978584 280.345363 
L 923.141665 280.517849 
L 923.304746 280.261597 
L 923.630908 278.801124 
L 924.120151 275.209912 
L 924.609395 270.003531 
L 925.261719 259.802445 
L 925.750962 252.4409 
L 926.077124 249.82666 
L 926.240205 249.553703 
L 926.403286 250.013735 
L 926.729449 253.030358 
L 927.218692 261.481636 
L 928.197178 280.003509 
L 928.686421 285.045497 
L 929.012584 286.547834 
L 929.338746 287.209123 
L 929.664908 287.364228 
L 929.827989 287.16165 
L 929.99107 286.662388 
L 930.317232 284.483095 
L 930.643394 280.539442 
L 931.295719 268.569153 
L 932.111124 254.032758 
L 932.600367 249.568251 
L 932.763448 248.964919 
L 932.926529 248.813491 
L 933.08961 249.107941 
L 933.415772 250.955535 
L 933.905016 256.247213 
L 935.372745 274.70807 
L 935.698907 276.3941 
L 936.02507 276.958709 
L 936.188151 276.917049 
L 936.514313 276.446572 
L 937.166637 275.381547 
L 937.329718 275.319033 
L 937.65588 275.550851 
L 938.471286 276.885412 
L 938.634367 276.895865 
L 938.797448 276.707732 
L 939.12361 275.626494 
L 939.449772 273.510993 
L 939.939015 268.541378 
L 940.917502 257.851726 
L 941.243664 256.061319 
L 941.406745 255.696925 
L 941.569826 255.748522 
L 941.732907 256.244653 
L 942.059069 258.474632 
L 943.037556 267.302658 
L 943.363718 268.438701 
L 943.68988 268.67919 
L 944.016042 268.769822 
L 944.342204 269.241486 
L 944.831447 270.022496 
L 944.994528 269.955347 
L 945.157609 269.611261 
L 945.483772 268.063923 
L 946.462258 261.758561 
L 946.78842 261.202042 
L 946.951501 261.398468 
L 947.277663 262.681837 
L 948.419231 269.202607 
L 948.908474 270.671763 
L 949.071555 270.897278 
L 949.234636 270.904092 
L 949.397717 270.64768 
L 949.723879 269.284455 
L 950.702366 262.973393 
L 950.865447 262.888247 
L 951.028528 263.382681 
L 951.35469 266.027396 
L 952.170095 274.237868 
L 952.333177 274.609045 
L 952.496258 274.344908 
L 952.82242 272.066801 
L 953.963987 260.641156 
L 954.127068 260.623292 
L 954.290149 261.223029 
L 954.616311 263.97216 
L 955.594798 274.371685 
L 955.757879 274.767427 
L 955.92096 274.498092 
L 956.247122 272.1053 
L 956.899446 263.19405 
L 957.551771 255.163711 
L 957.877933 252.868928 
L 958.204095 251.933086 
L 958.367176 252.0156 
L 958.530257 252.494198 
L 958.856419 254.64443 
L 959.345662 260.268601 
L 960.161068 269.889238 
L 960.48723 271.428125 
L 960.650311 271.638591 
L 960.976473 271.486934 
L 961.302635 271.385236 
L 961.465716 271.559819 
L 961.791879 272.383356 
L 962.444203 274.46212 
L 962.607284 274.699214 
L 962.770365 274.730717 
L 962.933446 274.547386 
L 963.259608 273.610137 
L 963.748851 271.04011 
L 964.238095 266.892231 
L 965.216581 256.583353 
L 965.542743 255.437128 
L 965.705824 255.632265 
L 965.868905 256.364819 
L 966.195067 259.340499 
L 966.847392 268.985198 
L 967.336635 275.096184 
L 967.662797 276.660289 
L 967.825878 276.538652 
L 967.988959 275.851595 
L 968.315121 273.127839 
L 969.293608 263.29147 
L 969.61977 262.393991 
L 969.782851 262.642606 
L 970.109013 264.437131 
L 970.761337 271.014717 
L 971.413662 276.669926 
L 971.739824 277.926369 
L 971.902905 278.04606 
L 972.065986 277.782704 
L 972.392148 275.981141 
L 972.71831 272.37466 
L 973.370634 261.131067 
L 973.859878 253.341459 
L 974.18604 250.657064 
L 974.349121 250.263361 
L 974.512202 250.501916 
L 974.838364 252.727516 
L 975.327607 259.239751 
L 976.632256 278.672956 
L 976.958418 281.228203 
L 977.28458 282.063466 
L 977.447661 281.859143 
L 977.773823 280.400525 
L 979.078472 271.53493 
L 979.404634 270.926387 
L 979.567715 270.884905 
L 979.893877 271.213569 
L 980.872364 272.875446 
L 981.198526 272.971577 
L 981.687769 272.801219 
L 982.992418 271.896079 
L 983.31858 271.381783 
L 983.644742 270.36971 
L 984.133985 267.585512 
L 984.786309 263.514129 
L 984.94939 263.033217 
L 985.112472 262.912315 
L 985.275553 263.172624 
L 985.601715 264.758459 
L 986.090958 268.991327 
L 986.743282 274.833513 
L 987.069444 276.534232 
L 987.232525 276.930341 
L 987.395606 277.019543 
L 987.558688 276.81969 
L 987.88485 275.760266 
L 988.700255 271.405951 
L 989.678741 266.540704 
L 990.004904 265.701095 
L 990.167985 265.589224 
L 990.331066 265.703754 
L 990.657228 266.476181 
L 991.309552 268.433199 
L 991.635714 268.833213 
L 991.961876 268.815451 
L 992.288039 268.510972 
L 993.429606 266.9549 
L 993.755768 267.002411 
L 994.897336 267.78369 
L 995.223498 267.500511 
L 995.875822 266.715997 
L 996.201984 266.728888 
L 996.691227 267.260399 
L 997.01739 267.544543 
L 997.180471 267.55212 
L 997.506633 267.222303 
L 998.485119 265.441102 
L 998.811281 265.452654 
L 999.137443 265.895675 
L 999.789768 267.506252 
L 1000.279011 268.557117 
L 1000.605173 268.798823 
L 1000.768254 268.735858 
L 1001.094416 268.245766 
L 1001.58366 266.809444 
L 1002.562146 263.747041 
L 1002.888308 263.273839 
L 1003.21447 263.21799 
L 1003.540632 263.583922 
L 1004.029876 264.80489 
L 1005.334524 268.836206 
L 1005.823767 269.476737 
L 1006.149929 269.588744 
L 1006.639173 269.453909 
L 1007.454578 268.878756 
L 1008.922308 267.728716 
L 1010.879281 266.87139 
L 1011.531605 266.842879 
L 1012.34701 267.083372 
L 1014.467064 267.994796 
L 1016.260956 267.830814 
L 1017.402523 267.943835 
L 1019.033334 267.761395 
L 1020.664145 268.008269 
L 1022.784199 267.876863 
L 1026.861225 267.807735 
L 1030.938252 267.551692 
L 1034.362955 267.240379 
L 1034.362955 267.240379 
" clip-path="url(#p268d2e4064)" style="fill: none; stroke: #0c5da5; stroke-width: 2; stroke-linecap: square"/>
   </g>
   <g id="patch_3">
    <path d="M 75.6175 520.7175 
L 75.6175 21.7575 
" style="fill: none; stroke: #000000; stroke-linejoin: miter; stroke-linecap: square"/>
   </g>
   <g id="patch_4">
    <path d="M 1080.0175 520.7175 
L 1080.0175 21.7575 
" style="fill: none; stroke: #000000; stroke-linejoin: miter; stroke-linecap: square"/>
   </g>
   <g id="patch_5">
    <path d="M 75.6175 520.7175 
L 1080.0175 520.7175 
" style="fill: none; stroke: #000000; stroke-linejoin: miter; stroke-linecap: square"/>
   </g>
   <g id="patch_6">
    <path d="M 75.6175 21.7575 
L 1080.0175 21.7575 
" style="fill: none; stroke: #000000; stroke-linejoin: miter; stroke-linecap: square"/>
   </g>
   <g id="text_14">
    <!-- Kocaeli_ Turkey Record no. 1161 -->
    <g transform="translate(448.8325 15.7575) scale(0.16 -0.16)">
     <defs>
      <path id="DejaVuSans-4b" d="M 628 4666 
L 1259 4666 
L 1259 2694 
L 3353 4666 
L 4166 4666 
L 1850 2491 
L 4331 0 
L 3500 0 
L 1259 2247 
L 1259 0 
L 628 0 
L 628 4666 
z
" transform="scale(0.015625)"/>
      <path id="DejaVuSans-6f" d="M 1959 3097 
Q 1497 3097 1228 2736 
Q 959 2375 959 1747 
Q 959 1119 1226 758 
Q 1494 397 1959 397 
Q 2419 397 2687 759 
Q 2956 1122 2956 1747 
Q 2956 2369 2687 2733 
Q 2419 3097 1959 3097 
z
M 1959 3584 
Q 2709 3584 3137 3096 
Q 3566 2609 3566 1747 
Q 3566 888 3137 398 
Q 2709 -91 1959 -91 
Q 1206 -91 779 398 
Q 353 888 353 1747 
Q 353 2609 779 3096 
Q 1206 3584 1959 3584 
z
" transform="scale(0.015625)"/>
      <path id="DejaVuSans-63" d="M 3122 3366 
L 3122 2828 
Q 2878 2963 2633 3030 
Q 2388 3097 2138 3097 
Q 1578 3097 1268 2742 
Q 959 2388 959 1747 
Q 959 1106 1268 751 
Q 1578 397 2138 397 
Q 2388 397 2633 464 
Q 2878 531 3122 666 
L 3122 134 
Q 2881 22 2623 -34 
Q 2366 -91 2075 -91 
Q 1284 -91 818 406 
Q 353 903 353 1747 
Q 353 2603 823 3093 
Q 1294 3584 2113 3584 
Q 2378 3584 2631 3529 
Q 2884 3475 3122 3366 
z
" transform="scale(0.015625)"/>
      <path id="DejaVuSans-61" d="M 2194 1759 
Q 1497 1759 1228 1600 
Q 959 1441 959 1056 
Q 959 750 1161 570 
Q 1363 391 1709 391 
Q 2188 391 2477 730 
Q 2766 1069 2766 1631 
L 2766 1759 
L 2194 1759 
z
M 3341 1997 
L 3341 0 
L 2766 0 
L 2766 531 
Q 2569 213 2275 61 
Q 1981 -91 1556 -91 
Q 1019 -91 701 211 
Q 384 513 384 1019 
Q 384 1609 779 1909 
Q 1175 2209 1959 2209 
L 2766 2209 
L 2766 2266 
Q 2766 2663 2505 2880 
Q 2244 3097 1772 3097 
Q 1472 3097 1187 3025 
Q 903 2953 641 2809 
L 641 3341 
Q 956 3463 1253 3523 
Q 1550 3584 1831 3584 
Q 2591 3584 2966 3190 
Q 3341 2797 3341 1997 
z
" transform="scale(0.015625)"/>
      <path id="DejaVuSans-6c" d="M 603 4863 
L 1178 4863 
L 1178 0 
L 603 0 
L 603 4863 
z
" transform="scale(0.015625)"/>
      <path id="DejaVuSans-5f" d="M 3263 -1063 
L 3263 -1509 
L -63 -1509 
L -63 -1063 
L 3263 -1063 
z
" transform="scale(0.015625)"/>
      <path id="DejaVuSans-75" d="M 544 1381 
L 544 3500 
L 1119 3500 
L 1119 1403 
Q 1119 906 1312 657 
Q 1506 409 1894 409 
Q 2359 409 2629 706 
Q 2900 1003 2900 1516 
L 2900 3500 
L 3475 3500 
L 3475 0 
L 2900 0 
L 2900 538 
Q 2691 219 2414 64 
Q 2138 -91 1772 -91 
Q 1169 -91 856 284 
Q 544 659 544 1381 
z
M 1991 3584 
L 1991 3584 
z
" transform="scale(0.015625)"/>
      <path id="DejaVuSans-72" d="M 2631 2963 
Q 2534 3019 2420 3045 
Q 2306 3072 2169 3072 
Q 1681 3072 1420 2755 
Q 1159 2438 1159 1844 
L 1159 0 
L 581 0 
L 581 3500 
L 1159 3500 
L 1159 2956 
Q 1341 3275 1631 3429 
Q 1922 3584 2338 3584 
Q 2397 3584 2469 3576 
Q 2541 3569 2628 3553 
L 2631 2963 
z
" transform="scale(0.015625)"/>
      <path id="DejaVuSans-6b" d="M 581 4863 
L 1159 4863 
L 1159 1991 
L 2875 3500 
L 3609 3500 
L 1753 1863 
L 3688 0 
L 2938 0 
L 1159 1709 
L 1159 0 
L 581 0 
L 581 4863 
z
" transform="scale(0.015625)"/>
      <path id="DejaVuSans-79" d="M 2059 -325 
Q 1816 -950 1584 -1140 
Q 1353 -1331 966 -1331 
L 506 -1331 
L 506 -850 
L 844 -850 
Q 1081 -850 1212 -737 
Q 1344 -625 1503 -206 
L 1606 56 
L 191 3500 
L 800 3500 
L 1894 763 
L 2988 3500 
L 3597 3500 
L 2059 -325 
z
" transform="scale(0.015625)"/>
      <path id="DejaVuSans-64" d="M 2906 2969 
L 2906 4863 
L 3481 4863 
L 3481 0 
L 2906 0 
L 2906 525 
Q 2725 213 2448 61 
Q 2172 -91 1784 -91 
Q 1150 -91 751 415 
Q 353 922 353 1747 
Q 353 2572 751 3078 
Q 1150 3584 1784 3584 
Q 2172 3584 2448 3432 
Q 2725 3281 2906 2969 
z
M 947 1747 
Q 947 1113 1208 752 
Q 1469 391 1925 391 
Q 2381 391 2643 752 
Q 2906 1113 2906 1747 
Q 2906 2381 2643 2742 
Q 2381 3103 1925 3103 
Q 1469 3103 1208 2742 
Q 947 2381 947 1747 
z
" transform="scale(0.015625)"/>
      <path id="DejaVuSans-6e" d="M 3513 2113 
L 3513 0 
L 2938 0 
L 2938 2094 
Q 2938 2591 2744 2837 
Q 2550 3084 2163 3084 
Q 1697 3084 1428 2787 
Q 1159 2491 1159 1978 
L 1159 0 
L 581 0 
L 581 3500 
L 1159 3500 
L 1159 2956 
Q 1366 3272 1645 3428 
Q 1925 3584 2291 3584 
Q 2894 3584 3203 3211 
Q 3513 2838 3513 2113 
z
" transform="scale(0.015625)"/>
      <path id="DejaVuSans-36" d="M 2113 2584 
Q 1688 2584 1439 2293 
Q 1191 2003 1191 1497 
Q 1191 994 1439 701 
Q 1688 409 2113 409 
Q 2538 409 2786 701 
Q 3034 994 3034 1497 
Q 3034 2003 2786 2293 
Q 2538 2584 2113 2584 
z
M 3366 4563 
L 3366 3988 
Q 3128 4100 2886 4159 
Q 2644 4219 2406 4219 
Q 1781 4219 1451 3797 
Q 1122 3375 1075 2522 
Q 1259 2794 1537 2939 
Q 1816 3084 2150 3084 
Q 2853 3084 3261 2657 
Q 3669 2231 3669 1497 
Q 3669 778 3244 343 
Q 2819 -91 2113 -91 
Q 1303 -91 875 529 
Q 447 1150 447 2328 
Q 447 3434 972 4092 
Q 1497 4750 2381 4750 
Q 2619 4750 2861 4703 
Q 3103 4656 3366 4563 
z
" transform="scale(0.015625)"/>
     </defs>
     <use xlink:href="#DejaVuSans-4b"/>
     <use xlink:href="#DejaVuSans-6f" x="60.576172"/>
     <use xlink:href="#DejaVuSans-63" x="121.757812"/>
     <use xlink:href="#DejaVuSans-61" x="176.738281"/>
     <use xlink:href="#DejaVuSans-65" x="238.017578"/>
     <use xlink:href="#DejaVuSans-6c" x="299.541016"/>
     <use xlink:href="#DejaVuSans-69" x="327.324219"/>
     <use xlink:href="#DejaVuSans-5f" x="355.107422"/>
     <use xlink:href="#DejaVuSans-20" x="405.107422"/>
     <use xlink:href="#DejaVuSans-54" x="436.894531"/>
     <use xlink:href="#DejaVuSans-75" x="482.853516"/>
     <use xlink:href="#DejaVuSans-72" x="546.232422"/>
     <use xlink:href="#DejaVuSans-6b" x="587.345703"/>
     <use xlink:href="#DejaVuSans-65" x="641.630859"/>
     <use xlink:href="#DejaVuSans-79" x="703.154297"/>
     <use xlink:href="#DejaVuSans-20" x="762.333984"/>
     <use xlink:href="#DejaVuSans-52" x="794.121094"/>
     <use xlink:href="#DejaVuSans-65" x="859.103516"/>
     <use xlink:href="#DejaVuSans-63" x="920.626953"/>
     <use xlink:href="#DejaVuSans-6f" x="975.607422"/>
     <use xlink:href="#DejaVuSans-72" x="1036.789062"/>
     <use xlink:href="#DejaVuSans-64" x="1076.152344"/>
     <use xlink:href="#DejaVuSans-20" x="1139.628906"/>
     <use xlink:href="#DejaVuSans-6e" x="1171.416016"/>
     <use xlink:href="#DejaVuSans-6f" x="1234.794922"/>
     <use xlink:href="#DejaVuSans-2e" x="1294.226562"/>
     <use xlink:href="#DejaVuSans-20" x="1326.013672"/>
     <use xlink:href="#DejaVuSans-31" x="1357.800781"/>
     <use xlink:href="#DejaVuSans-31" x="1421.423828"/>
     <use xlink:href="#DejaVuSans-36" x="1485.046875"/>
     <use xlink:href="#DejaVuSans-31" x="1548.669922"/>
    </g>
   </g>
  </g>
 </g>
 <defs>
  <clipPath id="p268d2e4064">
   <rect x="75.6175" y="21.7575" width="1004.4" height="498.96"/>
  </clipPath>
 </defs>
</svg>
