<?xml version="1.0" encoding="utf-8" standalone="no"?>
<!DOCTYPE svg PUBLIC "-//W3C//DTD SVG 1.1//EN"
  "http://www.w3.org/Graphics/SVG/1.1/DTD/svg11.dtd">
<svg xmlns:xlink="http://www.w3.org/1999/xlink" width="1073.4375pt" height="396.4675pt" viewBox="0 0 1073.4375 396.4675" xmlns="http://www.w3.org/2000/svg" version="1.1">
 <metadata>
  <rdf:RDF xmlns:dc="http://purl.org/dc/elements/1.1/" xmlns:cc="http://creativecommons.org/ns#" xmlns:rdf="http://www.w3.org/1999/02/22-rdf-syntax-ns#">
   <cc:Work>
    <dc:type rdf:resource="http://purl.org/dc/dcmitype/StillImage"/>
    <dc:date>2023-06-06T10:18:42.977930</dc:date>
    <dc:format>image/svg+xml</dc:format>
    <dc:creator>
     <cc:Agent>
      <dc:title>Matplotlib v3.7.1, https://matplotlib.org/</dc:title>
     </cc:Agent>
    </dc:creator>
   </cc:Work>
  </rdf:RDF>
 </metadata>
 <defs>
  <style type="text/css">*{stroke-linejoin: round; stroke-linecap: butt}</style>
 </defs>
 <g id="figure_1">
  <g id="patch_1">
   <path d="M 0 396.4675 
L 1073.4375 396.4675 
L 1073.4375 0 
L 0 0 
z
" style="fill: #ffffff"/>
  </g>
  <g id="axes_1">
   <g id="patch_2">
    <path d="M 65.4375 354.3975 
L 1069.8375 354.3975 
L 1069.8375 21.7575 
L 65.4375 21.7575 
z
" style="fill: #ffffff"/>
   </g>
   <g id="matplotlib.axis_1">
    <g id="xtick_1">
     <g id="line2d_1">
      <path d="M 111.092045 354.3975 
L 111.092045 21.7575 
" clip-path="url(#p8b3e2ac9d7)" style="fill: none; stroke-dasharray: 1.85,0.8; stroke-dashoffset: 0; stroke: #000000; stroke-opacity: 0.5; stroke-width: 0.5"/>
     </g>
     <g id="line2d_2">
      <defs>
       <path id="m962ce175c3" d="M 0 0 
L 0 -6 
" style="stroke: #000000"/>
      </defs>
      <g>
       <use xlink:href="#m962ce175c3" x="111.092045" y="354.3975" style="stroke: #000000"/>
      </g>
     </g>
     <g id="line2d_3">
      <defs>
       <path id="mc0bca71062" d="M 0 0 
L 0 6 
" style="stroke: #000000"/>
      </defs>
      <g>
       <use xlink:href="#mc0bca71062" x="111.092045" y="21.7575" style="stroke: #000000"/>
      </g>
     </g>
     <g id="text_1">
      <!-- 0 -->
      <g transform="translate(106.002045 370.055) scale(0.16 -0.16)">
       <defs>
        <path id="DejaVuSans-30" d="M 2034 4250 
Q 1547 4250 1301 3770 
Q 1056 3291 1056 2328 
Q 1056 1369 1301 889 
Q 1547 409 2034 409 
Q 2525 409 2770 889 
Q 3016 1369 3016 2328 
Q 3016 3291 2770 3770 
Q 2525 4250 2034 4250 
z
M 2034 4750 
Q 2819 4750 3233 4129 
Q 3647 3509 3647 2328 
Q 3647 1150 3233 529 
Q 2819 -91 2034 -91 
Q 1250 -91 836 529 
Q 422 1150 422 2328 
Q 422 3509 836 4129 
Q 1250 4750 2034 4750 
z
" transform="scale(0.015625)"/>
       </defs>
       <use xlink:href="#DejaVuSans-30"/>
      </g>
     </g>
    </g>
    <g id="xtick_2">
     <g id="line2d_4">
      <path d="M 241.608185 354.3975 
L 241.608185 21.7575 
" clip-path="url(#p8b3e2ac9d7)" style="fill: none; stroke-dasharray: 1.85,0.8; stroke-dashoffset: 0; stroke: #000000; stroke-opacity: 0.5; stroke-width: 0.5"/>
     </g>
     <g id="line2d_5">
      <g>
       <use xlink:href="#m962ce175c3" x="241.608185" y="354.3975" style="stroke: #000000"/>
      </g>
     </g>
     <g id="line2d_6">
      <g>
       <use xlink:href="#mc0bca71062" x="241.608185" y="21.7575" style="stroke: #000000"/>
      </g>
     </g>
     <g id="text_2">
      <!-- 5 -->
      <g transform="translate(236.518185 370.055) scale(0.16 -0.16)">
       <defs>
        <path id="DejaVuSans-35" d="M 691 4666 
L 3169 4666 
L 3169 4134 
L 1269 4134 
L 1269 2991 
Q 1406 3038 1543 3061 
Q 1681 3084 1819 3084 
Q 2600 3084 3056 2656 
Q 3513 2228 3513 1497 
Q 3513 744 3044 326 
Q 2575 -91 1722 -91 
Q 1428 -91 1123 -41 
Q 819 9 494 109 
L 494 744 
Q 775 591 1075 516 
Q 1375 441 1709 441 
Q 2250 441 2565 725 
Q 2881 1009 2881 1497 
Q 2881 1984 2565 2268 
Q 2250 2553 1709 2553 
Q 1456 2553 1204 2497 
Q 953 2441 691 2322 
L 691 4666 
z
" transform="scale(0.015625)"/>
       </defs>
       <use xlink:href="#DejaVuSans-35"/>
      </g>
     </g>
    </g>
    <g id="xtick_3">
     <g id="line2d_7">
      <path d="M 372.124324 354.3975 
L 372.124324 21.7575 
" clip-path="url(#p8b3e2ac9d7)" style="fill: none; stroke-dasharray: 1.85,0.8; stroke-dashoffset: 0; stroke: #000000; stroke-opacity: 0.5; stroke-width: 0.5"/>
     </g>
     <g id="line2d_8">
      <g>
       <use xlink:href="#m962ce175c3" x="372.124324" y="354.3975" style="stroke: #000000"/>
      </g>
     </g>
     <g id="line2d_9">
      <g>
       <use xlink:href="#mc0bca71062" x="372.124324" y="21.7575" style="stroke: #000000"/>
      </g>
     </g>
     <g id="text_3">
      <!-- 10 -->
      <g transform="translate(361.944324 370.055) scale(0.16 -0.16)">
       <defs>
        <path id="DejaVuSans-31" d="M 794 531 
L 1825 531 
L 1825 4091 
L 703 3866 
L 703 4441 
L 1819 4666 
L 2450 4666 
L 2450 531 
L 3481 531 
L 3481 0 
L 794 0 
L 794 531 
z
" transform="scale(0.015625)"/>
       </defs>
       <use xlink:href="#DejaVuSans-31"/>
       <use xlink:href="#DejaVuSans-30" x="63.623047"/>
      </g>
     </g>
    </g>
    <g id="xtick_4">
     <g id="line2d_10">
      <path d="M 502.640463 354.3975 
L 502.640463 21.7575 
" clip-path="url(#p8b3e2ac9d7)" style="fill: none; stroke-dasharray: 1.85,0.8; stroke-dashoffset: 0; stroke: #000000; stroke-opacity: 0.5; stroke-width: 0.5"/>
     </g>
     <g id="line2d_11">
      <g>
       <use xlink:href="#m962ce175c3" x="502.640463" y="354.3975" style="stroke: #000000"/>
      </g>
     </g>
     <g id="line2d_12">
      <g>
       <use xlink:href="#mc0bca71062" x="502.640463" y="21.7575" style="stroke: #000000"/>
      </g>
     </g>
     <g id="text_4">
      <!-- 15 -->
      <g transform="translate(492.460463 370.055) scale(0.16 -0.16)">
       <use xlink:href="#DejaVuSans-31"/>
       <use xlink:href="#DejaVuSans-35" x="63.623047"/>
      </g>
     </g>
    </g>
    <g id="xtick_5">
     <g id="line2d_13">
      <path d="M 633.156602 354.3975 
L 633.156602 21.7575 
" clip-path="url(#p8b3e2ac9d7)" style="fill: none; stroke-dasharray: 1.85,0.8; stroke-dashoffset: 0; stroke: #000000; stroke-opacity: 0.5; stroke-width: 0.5"/>
     </g>
     <g id="line2d_14">
      <g>
       <use xlink:href="#m962ce175c3" x="633.156602" y="354.3975" style="stroke: #000000"/>
      </g>
     </g>
     <g id="line2d_15">
      <g>
       <use xlink:href="#mc0bca71062" x="633.156602" y="21.7575" style="stroke: #000000"/>
      </g>
     </g>
     <g id="text_5">
      <!-- 20 -->
      <g transform="translate(622.976602 370.055) scale(0.16 -0.16)">
       <defs>
        <path id="DejaVuSans-32" d="M 1228 531 
L 3431 531 
L 3431 0 
L 469 0 
L 469 531 
Q 828 903 1448 1529 
Q 2069 2156 2228 2338 
Q 2531 2678 2651 2914 
Q 2772 3150 2772 3378 
Q 2772 3750 2511 3984 
Q 2250 4219 1831 4219 
Q 1534 4219 1204 4116 
Q 875 4013 500 3803 
L 500 4441 
Q 881 4594 1212 4672 
Q 1544 4750 1819 4750 
Q 2544 4750 2975 4387 
Q 3406 4025 3406 3419 
Q 3406 3131 3298 2873 
Q 3191 2616 2906 2266 
Q 2828 2175 2409 1742 
Q 1991 1309 1228 531 
z
" transform="scale(0.015625)"/>
       </defs>
       <use xlink:href="#DejaVuSans-32"/>
       <use xlink:href="#DejaVuSans-30" x="63.623047"/>
      </g>
     </g>
    </g>
    <g id="xtick_6">
     <g id="line2d_16">
      <path d="M 763.672741 354.3975 
L 763.672741 21.7575 
" clip-path="url(#p8b3e2ac9d7)" style="fill: none; stroke-dasharray: 1.85,0.8; stroke-dashoffset: 0; stroke: #000000; stroke-opacity: 0.5; stroke-width: 0.5"/>
     </g>
     <g id="line2d_17">
      <g>
       <use xlink:href="#m962ce175c3" x="763.672741" y="354.3975" style="stroke: #000000"/>
      </g>
     </g>
     <g id="line2d_18">
      <g>
       <use xlink:href="#mc0bca71062" x="763.672741" y="21.7575" style="stroke: #000000"/>
      </g>
     </g>
     <g id="text_6">
      <!-- 25 -->
      <g transform="translate(753.492741 370.055) scale(0.16 -0.16)">
       <use xlink:href="#DejaVuSans-32"/>
       <use xlink:href="#DejaVuSans-35" x="63.623047"/>
      </g>
     </g>
    </g>
    <g id="xtick_7">
     <g id="line2d_19">
      <path d="M 894.18888 354.3975 
L 894.18888 21.7575 
" clip-path="url(#p8b3e2ac9d7)" style="fill: none; stroke-dasharray: 1.85,0.8; stroke-dashoffset: 0; stroke: #000000; stroke-opacity: 0.5; stroke-width: 0.5"/>
     </g>
     <g id="line2d_20">
      <g>
       <use xlink:href="#m962ce175c3" x="894.18888" y="354.3975" style="stroke: #000000"/>
      </g>
     </g>
     <g id="line2d_21">
      <g>
       <use xlink:href="#mc0bca71062" x="894.18888" y="21.7575" style="stroke: #000000"/>
      </g>
     </g>
     <g id="text_7">
      <!-- 30 -->
      <g transform="translate(884.00888 370.055) scale(0.16 -0.16)">
       <defs>
        <path id="DejaVuSans-33" d="M 2597 2516 
Q 3050 2419 3304 2112 
Q 3559 1806 3559 1356 
Q 3559 666 3084 287 
Q 2609 -91 1734 -91 
Q 1441 -91 1130 -33 
Q 819 25 488 141 
L 488 750 
Q 750 597 1062 519 
Q 1375 441 1716 441 
Q 2309 441 2620 675 
Q 2931 909 2931 1356 
Q 2931 1769 2642 2001 
Q 2353 2234 1838 2234 
L 1294 2234 
L 1294 2753 
L 1863 2753 
Q 2328 2753 2575 2939 
Q 2822 3125 2822 3475 
Q 2822 3834 2567 4026 
Q 2313 4219 1838 4219 
Q 1578 4219 1281 4162 
Q 984 4106 628 3988 
L 628 4550 
Q 988 4650 1302 4700 
Q 1616 4750 1894 4750 
Q 2613 4750 3031 4423 
Q 3450 4097 3450 3541 
Q 3450 3153 3228 2886 
Q 3006 2619 2597 2516 
z
" transform="scale(0.015625)"/>
       </defs>
       <use xlink:href="#DejaVuSans-33"/>
       <use xlink:href="#DejaVuSans-30" x="63.623047"/>
      </g>
     </g>
    </g>
    <g id="xtick_8">
     <g id="line2d_22">
      <path d="M 1024.705019 354.3975 
L 1024.705019 21.7575 
" clip-path="url(#p8b3e2ac9d7)" style="fill: none; stroke-dasharray: 1.85,0.8; stroke-dashoffset: 0; stroke: #000000; stroke-opacity: 0.5; stroke-width: 0.5"/>
     </g>
     <g id="line2d_23">
      <g>
       <use xlink:href="#m962ce175c3" x="1024.705019" y="354.3975" style="stroke: #000000"/>
      </g>
     </g>
     <g id="line2d_24">
      <g>
       <use xlink:href="#mc0bca71062" x="1024.705019" y="21.7575" style="stroke: #000000"/>
      </g>
     </g>
     <g id="text_8">
      <!-- 35 -->
      <g transform="translate(1014.525019 370.055) scale(0.16 -0.16)">
       <use xlink:href="#DejaVuSans-33"/>
       <use xlink:href="#DejaVuSans-35" x="63.623047"/>
      </g>
     </g>
    </g>
    <g id="xtick_9">
     <g id="line2d_25">
      <defs>
       <path id="m276a38f66b" d="M 0 0 
L 0 -3 
" style="stroke: #000000"/>
      </defs>
      <g>
       <use xlink:href="#m276a38f66b" x="84.988818" y="354.3975" style="stroke: #000000"/>
      </g>
     </g>
     <g id="line2d_26">
      <defs>
       <path id="m32398335c6" d="M 0 0 
L 0 3 
" style="stroke: #000000"/>
      </defs>
      <g>
       <use xlink:href="#m32398335c6" x="84.988818" y="21.7575" style="stroke: #000000"/>
      </g>
     </g>
    </g>
    <g id="xtick_10">
     <g id="line2d_27">
      <g>
       <use xlink:href="#m276a38f66b" x="137.195273" y="354.3975" style="stroke: #000000"/>
      </g>
     </g>
     <g id="line2d_28">
      <g>
       <use xlink:href="#m32398335c6" x="137.195273" y="21.7575" style="stroke: #000000"/>
      </g>
     </g>
    </g>
    <g id="xtick_11">
     <g id="line2d_29">
      <g>
       <use xlink:href="#m276a38f66b" x="163.298501" y="354.3975" style="stroke: #000000"/>
      </g>
     </g>
     <g id="line2d_30">
      <g>
       <use xlink:href="#m32398335c6" x="163.298501" y="21.7575" style="stroke: #000000"/>
      </g>
     </g>
    </g>
    <g id="xtick_12">
     <g id="line2d_31">
      <g>
       <use xlink:href="#m276a38f66b" x="189.401729" y="354.3975" style="stroke: #000000"/>
      </g>
     </g>
     <g id="line2d_32">
      <g>
       <use xlink:href="#m32398335c6" x="189.401729" y="21.7575" style="stroke: #000000"/>
      </g>
     </g>
    </g>
    <g id="xtick_13">
     <g id="line2d_33">
      <g>
       <use xlink:href="#m276a38f66b" x="215.504957" y="354.3975" style="stroke: #000000"/>
      </g>
     </g>
     <g id="line2d_34">
      <g>
       <use xlink:href="#m32398335c6" x="215.504957" y="21.7575" style="stroke: #000000"/>
      </g>
     </g>
    </g>
    <g id="xtick_14">
     <g id="line2d_35">
      <g>
       <use xlink:href="#m276a38f66b" x="267.711412" y="354.3975" style="stroke: #000000"/>
      </g>
     </g>
     <g id="line2d_36">
      <g>
       <use xlink:href="#m32398335c6" x="267.711412" y="21.7575" style="stroke: #000000"/>
      </g>
     </g>
    </g>
    <g id="xtick_15">
     <g id="line2d_37">
      <g>
       <use xlink:href="#m276a38f66b" x="293.81464" y="354.3975" style="stroke: #000000"/>
      </g>
     </g>
     <g id="line2d_38">
      <g>
       <use xlink:href="#m32398335c6" x="293.81464" y="21.7575" style="stroke: #000000"/>
      </g>
     </g>
    </g>
    <g id="xtick_16">
     <g id="line2d_39">
      <g>
       <use xlink:href="#m276a38f66b" x="319.917868" y="354.3975" style="stroke: #000000"/>
      </g>
     </g>
     <g id="line2d_40">
      <g>
       <use xlink:href="#m32398335c6" x="319.917868" y="21.7575" style="stroke: #000000"/>
      </g>
     </g>
    </g>
    <g id="xtick_17">
     <g id="line2d_41">
      <g>
       <use xlink:href="#m276a38f66b" x="346.021096" y="354.3975" style="stroke: #000000"/>
      </g>
     </g>
     <g id="line2d_42">
      <g>
       <use xlink:href="#m32398335c6" x="346.021096" y="21.7575" style="stroke: #000000"/>
      </g>
     </g>
    </g>
    <g id="xtick_18">
     <g id="line2d_43">
      <g>
       <use xlink:href="#m276a38f66b" x="398.227551" y="354.3975" style="stroke: #000000"/>
      </g>
     </g>
     <g id="line2d_44">
      <g>
       <use xlink:href="#m32398335c6" x="398.227551" y="21.7575" style="stroke: #000000"/>
      </g>
     </g>
    </g>
    <g id="xtick_19">
     <g id="line2d_45">
      <g>
       <use xlink:href="#m276a38f66b" x="424.330779" y="354.3975" style="stroke: #000000"/>
      </g>
     </g>
     <g id="line2d_46">
      <g>
       <use xlink:href="#m32398335c6" x="424.330779" y="21.7575" style="stroke: #000000"/>
      </g>
     </g>
    </g>
    <g id="xtick_20">
     <g id="line2d_47">
      <g>
       <use xlink:href="#m276a38f66b" x="450.434007" y="354.3975" style="stroke: #000000"/>
      </g>
     </g>
     <g id="line2d_48">
      <g>
       <use xlink:href="#m32398335c6" x="450.434007" y="21.7575" style="stroke: #000000"/>
      </g>
     </g>
    </g>
    <g id="xtick_21">
     <g id="line2d_49">
      <g>
       <use xlink:href="#m276a38f66b" x="476.537235" y="354.3975" style="stroke: #000000"/>
      </g>
     </g>
     <g id="line2d_50">
      <g>
       <use xlink:href="#m32398335c6" x="476.537235" y="21.7575" style="stroke: #000000"/>
      </g>
     </g>
    </g>
    <g id="xtick_22">
     <g id="line2d_51">
      <g>
       <use xlink:href="#m276a38f66b" x="528.743691" y="354.3975" style="stroke: #000000"/>
      </g>
     </g>
     <g id="line2d_52">
      <g>
       <use xlink:href="#m32398335c6" x="528.743691" y="21.7575" style="stroke: #000000"/>
      </g>
     </g>
    </g>
    <g id="xtick_23">
     <g id="line2d_53">
      <g>
       <use xlink:href="#m276a38f66b" x="554.846918" y="354.3975" style="stroke: #000000"/>
      </g>
     </g>
     <g id="line2d_54">
      <g>
       <use xlink:href="#m32398335c6" x="554.846918" y="21.7575" style="stroke: #000000"/>
      </g>
     </g>
    </g>
    <g id="xtick_24">
     <g id="line2d_55">
      <g>
       <use xlink:href="#m276a38f66b" x="580.950146" y="354.3975" style="stroke: #000000"/>
      </g>
     </g>
     <g id="line2d_56">
      <g>
       <use xlink:href="#m32398335c6" x="580.950146" y="21.7575" style="stroke: #000000"/>
      </g>
     </g>
    </g>
    <g id="xtick_25">
     <g id="line2d_57">
      <g>
       <use xlink:href="#m276a38f66b" x="607.053374" y="354.3975" style="stroke: #000000"/>
      </g>
     </g>
     <g id="line2d_58">
      <g>
       <use xlink:href="#m32398335c6" x="607.053374" y="21.7575" style="stroke: #000000"/>
      </g>
     </g>
    </g>
    <g id="xtick_26">
     <g id="line2d_59">
      <g>
       <use xlink:href="#m276a38f66b" x="659.25983" y="354.3975" style="stroke: #000000"/>
      </g>
     </g>
     <g id="line2d_60">
      <g>
       <use xlink:href="#m32398335c6" x="659.25983" y="21.7575" style="stroke: #000000"/>
      </g>
     </g>
    </g>
    <g id="xtick_27">
     <g id="line2d_61">
      <g>
       <use xlink:href="#m276a38f66b" x="685.363057" y="354.3975" style="stroke: #000000"/>
      </g>
     </g>
     <g id="line2d_62">
      <g>
       <use xlink:href="#m32398335c6" x="685.363057" y="21.7575" style="stroke: #000000"/>
      </g>
     </g>
    </g>
    <g id="xtick_28">
     <g id="line2d_63">
      <g>
       <use xlink:href="#m276a38f66b" x="711.466285" y="354.3975" style="stroke: #000000"/>
      </g>
     </g>
     <g id="line2d_64">
      <g>
       <use xlink:href="#m32398335c6" x="711.466285" y="21.7575" style="stroke: #000000"/>
      </g>
     </g>
    </g>
    <g id="xtick_29">
     <g id="line2d_65">
      <g>
       <use xlink:href="#m276a38f66b" x="737.569513" y="354.3975" style="stroke: #000000"/>
      </g>
     </g>
     <g id="line2d_66">
      <g>
       <use xlink:href="#m32398335c6" x="737.569513" y="21.7575" style="stroke: #000000"/>
      </g>
     </g>
    </g>
    <g id="xtick_30">
     <g id="line2d_67">
      <g>
       <use xlink:href="#m276a38f66b" x="789.775969" y="354.3975" style="stroke: #000000"/>
      </g>
     </g>
     <g id="line2d_68">
      <g>
       <use xlink:href="#m32398335c6" x="789.775969" y="21.7575" style="stroke: #000000"/>
      </g>
     </g>
    </g>
    <g id="xtick_31">
     <g id="line2d_69">
      <g>
       <use xlink:href="#m276a38f66b" x="815.879197" y="354.3975" style="stroke: #000000"/>
      </g>
     </g>
     <g id="line2d_70">
      <g>
       <use xlink:href="#m32398335c6" x="815.879197" y="21.7575" style="stroke: #000000"/>
      </g>
     </g>
    </g>
    <g id="xtick_32">
     <g id="line2d_71">
      <g>
       <use xlink:href="#m276a38f66b" x="841.982424" y="354.3975" style="stroke: #000000"/>
      </g>
     </g>
     <g id="line2d_72">
      <g>
       <use xlink:href="#m32398335c6" x="841.982424" y="21.7575" style="stroke: #000000"/>
      </g>
     </g>
    </g>
    <g id="xtick_33">
     <g id="line2d_73">
      <g>
       <use xlink:href="#m276a38f66b" x="868.085652" y="354.3975" style="stroke: #000000"/>
      </g>
     </g>
     <g id="line2d_74">
      <g>
       <use xlink:href="#m32398335c6" x="868.085652" y="21.7575" style="stroke: #000000"/>
      </g>
     </g>
    </g>
    <g id="xtick_34">
     <g id="line2d_75">
      <g>
       <use xlink:href="#m276a38f66b" x="920.292108" y="354.3975" style="stroke: #000000"/>
      </g>
     </g>
     <g id="line2d_76">
      <g>
       <use xlink:href="#m32398335c6" x="920.292108" y="21.7575" style="stroke: #000000"/>
      </g>
     </g>
    </g>
    <g id="xtick_35">
     <g id="line2d_77">
      <g>
       <use xlink:href="#m276a38f66b" x="946.395336" y="354.3975" style="stroke: #000000"/>
      </g>
     </g>
     <g id="line2d_78">
      <g>
       <use xlink:href="#m32398335c6" x="946.395336" y="21.7575" style="stroke: #000000"/>
      </g>
     </g>
    </g>
    <g id="xtick_36">
     <g id="line2d_79">
      <g>
       <use xlink:href="#m276a38f66b" x="972.498563" y="354.3975" style="stroke: #000000"/>
      </g>
     </g>
     <g id="line2d_80">
      <g>
       <use xlink:href="#m32398335c6" x="972.498563" y="21.7575" style="stroke: #000000"/>
      </g>
     </g>
    </g>
    <g id="xtick_37">
     <g id="line2d_81">
      <g>
       <use xlink:href="#m276a38f66b" x="998.601791" y="354.3975" style="stroke: #000000"/>
      </g>
     </g>
     <g id="line2d_82">
      <g>
       <use xlink:href="#m32398335c6" x="998.601791" y="21.7575" style="stroke: #000000"/>
      </g>
     </g>
    </g>
    <g id="xtick_38">
     <g id="line2d_83">
      <g>
       <use xlink:href="#m276a38f66b" x="1050.808247" y="354.3975" style="stroke: #000000"/>
      </g>
     </g>
     <g id="line2d_84">
      <g>
       <use xlink:href="#m32398335c6" x="1050.808247" y="21.7575" style="stroke: #000000"/>
      </g>
     </g>
    </g>
    <g id="text_9">
     <!-- Time (s) -->
     <g transform="translate(535.11125 389.54) scale(0.16 -0.16)">
      <defs>
       <path id="DejaVuSans-54" d="M -19 4666 
L 3928 4666 
L 3928 4134 
L 2272 4134 
L 2272 0 
L 1638 0 
L 1638 4134 
L -19 4134 
L -19 4666 
z
" transform="scale(0.015625)"/>
       <path id="DejaVuSans-69" d="M 603 3500 
L 1178 3500 
L 1178 0 
L 603 0 
L 603 3500 
z
M 603 4863 
L 1178 4863 
L 1178 4134 
L 603 4134 
L 603 4863 
z
" transform="scale(0.015625)"/>
       <path id="DejaVuSans-6d" d="M 3328 2828 
Q 3544 3216 3844 3400 
Q 4144 3584 4550 3584 
Q 5097 3584 5394 3201 
Q 5691 2819 5691 2113 
L 5691 0 
L 5113 0 
L 5113 2094 
Q 5113 2597 4934 2840 
Q 4756 3084 4391 3084 
Q 3944 3084 3684 2787 
Q 3425 2491 3425 1978 
L 3425 0 
L 2847 0 
L 2847 2094 
Q 2847 2600 2669 2842 
Q 2491 3084 2119 3084 
Q 1678 3084 1418 2786 
Q 1159 2488 1159 1978 
L 1159 0 
L 581 0 
L 581 3500 
L 1159 3500 
L 1159 2956 
Q 1356 3278 1631 3431 
Q 1906 3584 2284 3584 
Q 2666 3584 2933 3390 
Q 3200 3197 3328 2828 
z
" transform="scale(0.015625)"/>
       <path id="DejaVuSans-65" d="M 3597 1894 
L 3597 1613 
L 953 1613 
Q 991 1019 1311 708 
Q 1631 397 2203 397 
Q 2534 397 2845 478 
Q 3156 559 3463 722 
L 3463 178 
Q 3153 47 2828 -22 
Q 2503 -91 2169 -91 
Q 1331 -91 842 396 
Q 353 884 353 1716 
Q 353 2575 817 3079 
Q 1281 3584 2069 3584 
Q 2775 3584 3186 3129 
Q 3597 2675 3597 1894 
z
M 3022 2063 
Q 3016 2534 2758 2815 
Q 2500 3097 2075 3097 
Q 1594 3097 1305 2825 
Q 1016 2553 972 2059 
L 3022 2063 
z
" transform="scale(0.015625)"/>
       <path id="DejaVuSans-20" transform="scale(0.015625)"/>
       <path id="DejaVuSans-28" d="M 1984 4856 
Q 1566 4138 1362 3434 
Q 1159 2731 1159 2009 
Q 1159 1288 1364 580 
Q 1569 -128 1984 -844 
L 1484 -844 
Q 1016 -109 783 600 
Q 550 1309 550 2009 
Q 550 2706 781 3412 
Q 1013 4119 1484 4856 
L 1984 4856 
z
" transform="scale(0.015625)"/>
       <path id="DejaVuSans-73" d="M 2834 3397 
L 2834 2853 
Q 2591 2978 2328 3040 
Q 2066 3103 1784 3103 
Q 1356 3103 1142 2972 
Q 928 2841 928 2578 
Q 928 2378 1081 2264 
Q 1234 2150 1697 2047 
L 1894 2003 
Q 2506 1872 2764 1633 
Q 3022 1394 3022 966 
Q 3022 478 2636 193 
Q 2250 -91 1575 -91 
Q 1294 -91 989 -36 
Q 684 19 347 128 
L 347 722 
Q 666 556 975 473 
Q 1284 391 1588 391 
Q 1994 391 2212 530 
Q 2431 669 2431 922 
Q 2431 1156 2273 1281 
Q 2116 1406 1581 1522 
L 1381 1569 
Q 847 1681 609 1914 
Q 372 2147 372 2553 
Q 372 3047 722 3315 
Q 1072 3584 1716 3584 
Q 2034 3584 2315 3537 
Q 2597 3491 2834 3397 
z
" transform="scale(0.015625)"/>
       <path id="DejaVuSans-29" d="M 513 4856 
L 1013 4856 
Q 1481 4119 1714 3412 
Q 1947 2706 1947 2009 
Q 1947 1309 1714 600 
Q 1481 -109 1013 -844 
L 513 -844 
Q 928 -128 1133 580 
Q 1338 1288 1338 2009 
Q 1338 2731 1133 3434 
Q 928 4138 513 4856 
z
" transform="scale(0.015625)"/>
      </defs>
      <use xlink:href="#DejaVuSans-54"/>
      <use xlink:href="#DejaVuSans-69" x="57.958984"/>
      <use xlink:href="#DejaVuSans-6d" x="85.742188"/>
      <use xlink:href="#DejaVuSans-65" x="183.154297"/>
      <use xlink:href="#DejaVuSans-20" x="244.677734"/>
      <use xlink:href="#DejaVuSans-28" x="276.464844"/>
      <use xlink:href="#DejaVuSans-73" x="315.478516"/>
      <use xlink:href="#DejaVuSans-29" x="367.578125"/>
     </g>
    </g>
   </g>
   <g id="matplotlib.axis_2">
    <g id="ytick_1">
     <g id="line2d_85">
      <path d="M 65.4375 324.669048 
L 1069.8375 324.669048 
" clip-path="url(#p8b3e2ac9d7)" style="fill: none; stroke-dasharray: 1.85,0.8; stroke-dashoffset: 0; stroke: #000000; stroke-opacity: 0.5; stroke-width: 0.5"/>
     </g>
     <g id="line2d_86">
      <defs>
       <path id="mda5345089a" d="M 0 0 
L 6 0 
" style="stroke: #000000"/>
      </defs>
      <g>
       <use xlink:href="#mda5345089a" x="65.4375" y="324.669048" style="stroke: #000000"/>
      </g>
     </g>
     <g id="line2d_87">
      <defs>
       <path id="m2c73d15e5d" d="M 0 0 
L -6 0 
" style="stroke: #000000"/>
      </defs>
      <g>
       <use xlink:href="#m2c73d15e5d" x="1069.8375" y="324.669048" style="stroke: #000000"/>
      </g>
     </g>
     <g id="text_10">
      <!-- −1.5 -->
      <g transform="translate(23.085 330.747798) scale(0.16 -0.16)">
       <defs>
        <path id="DejaVuSans-2212" d="M 678 2272 
L 4684 2272 
L 4684 1741 
L 678 1741 
L 678 2272 
z
" transform="scale(0.015625)"/>
        <path id="DejaVuSans-2e" d="M 684 794 
L 1344 794 
L 1344 0 
L 684 0 
L 684 794 
z
" transform="scale(0.015625)"/>
       </defs>
       <use xlink:href="#DejaVuSans-2212"/>
       <use xlink:href="#DejaVuSans-31" x="83.789062"/>
       <use xlink:href="#DejaVuSans-2e" x="147.412109"/>
       <use xlink:href="#DejaVuSans-35" x="179.199219"/>
      </g>
     </g>
    </g>
    <g id="ytick_2">
     <g id="line2d_88">
      <path d="M 65.4375 276.56619 
L 1069.8375 276.56619 
" clip-path="url(#p8b3e2ac9d7)" style="fill: none; stroke-dasharray: 1.85,0.8; stroke-dashoffset: 0; stroke: #000000; stroke-opacity: 0.5; stroke-width: 0.5"/>
     </g>
     <g id="line2d_89">
      <g>
       <use xlink:href="#mda5345089a" x="65.4375" y="276.56619" style="stroke: #000000"/>
      </g>
     </g>
     <g id="line2d_90">
      <g>
       <use xlink:href="#m2c73d15e5d" x="1069.8375" y="276.56619" style="stroke: #000000"/>
      </g>
     </g>
     <g id="text_11">
      <!-- −1.0 -->
      <g transform="translate(23.085 282.64494) scale(0.16 -0.16)">
       <use xlink:href="#DejaVuSans-2212"/>
       <use xlink:href="#DejaVuSans-31" x="83.789062"/>
       <use xlink:href="#DejaVuSans-2e" x="147.412109"/>
       <use xlink:href="#DejaVuSans-30" x="179.199219"/>
      </g>
     </g>
    </g>
    <g id="ytick_3">
     <g id="line2d_91">
      <path d="M 65.4375 228.463332 
L 1069.8375 228.463332 
" clip-path="url(#p8b3e2ac9d7)" style="fill: none; stroke-dasharray: 1.85,0.8; stroke-dashoffset: 0; stroke: #000000; stroke-opacity: 0.5; stroke-width: 0.5"/>
     </g>
     <g id="line2d_92">
      <g>
       <use xlink:href="#mda5345089a" x="65.4375" y="228.463332" style="stroke: #000000"/>
      </g>
     </g>
     <g id="line2d_93">
      <g>
       <use xlink:href="#m2c73d15e5d" x="1069.8375" y="228.463332" style="stroke: #000000"/>
      </g>
     </g>
     <g id="text_12">
      <!-- −0.5 -->
      <g transform="translate(23.085 234.542082) scale(0.16 -0.16)">
       <use xlink:href="#DejaVuSans-2212"/>
       <use xlink:href="#DejaVuSans-30" x="83.789062"/>
       <use xlink:href="#DejaVuSans-2e" x="147.412109"/>
       <use xlink:href="#DejaVuSans-35" x="179.199219"/>
      </g>
     </g>
    </g>
    <g id="ytick_4">
     <g id="line2d_94">
      <path d="M 65.4375 180.360474 
L 1069.8375 180.360474 
" clip-path="url(#p8b3e2ac9d7)" style="fill: none; stroke-dasharray: 1.85,0.8; stroke-dashoffset: 0; stroke: #000000; stroke-opacity: 0.5; stroke-width: 0.5"/>
     </g>
     <g id="line2d_95">
      <g>
       <use xlink:href="#mda5345089a" x="65.4375" y="180.360474" style="stroke: #000000"/>
      </g>
     </g>
     <g id="line2d_96">
      <g>
       <use xlink:href="#m2c73d15e5d" x="1069.8375" y="180.360474" style="stroke: #000000"/>
      </g>
     </g>
     <g id="text_13">
      <!-- 0.0 -->
      <g transform="translate(36.4925 186.439224) scale(0.16 -0.16)">
       <use xlink:href="#DejaVuSans-30"/>
       <use xlink:href="#DejaVuSans-2e" x="63.623047"/>
       <use xlink:href="#DejaVuSans-30" x="95.410156"/>
      </g>
     </g>
    </g>
    <g id="ytick_5">
     <g id="line2d_97">
      <path d="M 65.4375 132.257615 
L 1069.8375 132.257615 
" clip-path="url(#p8b3e2ac9d7)" style="fill: none; stroke-dasharray: 1.85,0.8; stroke-dashoffset: 0; stroke: #000000; stroke-opacity: 0.5; stroke-width: 0.5"/>
     </g>
     <g id="line2d_98">
      <g>
       <use xlink:href="#mda5345089a" x="65.4375" y="132.257615" style="stroke: #000000"/>
      </g>
     </g>
     <g id="line2d_99">
      <g>
       <use xlink:href="#m2c73d15e5d" x="1069.8375" y="132.257615" style="stroke: #000000"/>
      </g>
     </g>
     <g id="text_14">
      <!-- 0.5 -->
      <g transform="translate(36.4925 138.336365) scale(0.16 -0.16)">
       <use xlink:href="#DejaVuSans-30"/>
       <use xlink:href="#DejaVuSans-2e" x="63.623047"/>
       <use xlink:href="#DejaVuSans-35" x="95.410156"/>
      </g>
     </g>
    </g>
    <g id="ytick_6">
     <g id="line2d_100">
      <path d="M 65.4375 84.154757 
L 1069.8375 84.154757 
" clip-path="url(#p8b3e2ac9d7)" style="fill: none; stroke-dasharray: 1.85,0.8; stroke-dashoffset: 0; stroke: #000000; stroke-opacity: 0.5; stroke-width: 0.5"/>
     </g>
     <g id="line2d_101">
      <g>
       <use xlink:href="#mda5345089a" x="65.4375" y="84.154757" style="stroke: #000000"/>
      </g>
     </g>
     <g id="line2d_102">
      <g>
       <use xlink:href="#m2c73d15e5d" x="1069.8375" y="84.154757" style="stroke: #000000"/>
      </g>
     </g>
     <g id="text_15">
      <!-- 1.0 -->
      <g transform="translate(36.4925 90.233507) scale(0.16 -0.16)">
       <use xlink:href="#DejaVuSans-31"/>
       <use xlink:href="#DejaVuSans-2e" x="63.623047"/>
       <use xlink:href="#DejaVuSans-30" x="95.410156"/>
      </g>
     </g>
    </g>
    <g id="ytick_7">
     <g id="line2d_103">
      <path d="M 65.4375 36.051899 
L 1069.8375 36.051899 
" clip-path="url(#p8b3e2ac9d7)" style="fill: none; stroke-dasharray: 1.85,0.8; stroke-dashoffset: 0; stroke: #000000; stroke-opacity: 0.5; stroke-width: 0.5"/>
     </g>
     <g id="line2d_104">
      <g>
       <use xlink:href="#mda5345089a" x="65.4375" y="36.051899" style="stroke: #000000"/>
      </g>
     </g>
     <g id="line2d_105">
      <g>
       <use xlink:href="#m2c73d15e5d" x="1069.8375" y="36.051899" style="stroke: #000000"/>
      </g>
     </g>
     <g id="text_16">
      <!-- 1.5 -->
      <g transform="translate(36.4925 42.130649) scale(0.16 -0.16)">
       <use xlink:href="#DejaVuSans-31"/>
       <use xlink:href="#DejaVuSans-2e" x="63.623047"/>
       <use xlink:href="#DejaVuSans-35" x="95.410156"/>
      </g>
     </g>
    </g>
    <g id="ytick_8">
     <g id="line2d_106">
      <defs>
       <path id="md03d3b6fc1" d="M 0 0 
L 3 0 
" style="stroke: #000000"/>
      </defs>
      <g>
       <use xlink:href="#md03d3b6fc1" x="65.4375" y="353.530763" style="stroke: #000000"/>
      </g>
     </g>
     <g id="line2d_107">
      <defs>
       <path id="m0de13ebaf7" d="M 0 0 
L -3 0 
" style="stroke: #000000"/>
      </defs>
      <g>
       <use xlink:href="#m0de13ebaf7" x="1069.8375" y="353.530763" style="stroke: #000000"/>
      </g>
     </g>
    </g>
    <g id="ytick_9">
     <g id="line2d_108">
      <g>
       <use xlink:href="#md03d3b6fc1" x="65.4375" y="343.910192" style="stroke: #000000"/>
      </g>
     </g>
     <g id="line2d_109">
      <g>
       <use xlink:href="#m0de13ebaf7" x="1069.8375" y="343.910192" style="stroke: #000000"/>
      </g>
     </g>
    </g>
    <g id="ytick_10">
     <g id="line2d_110">
      <g>
       <use xlink:href="#md03d3b6fc1" x="65.4375" y="334.28962" style="stroke: #000000"/>
      </g>
     </g>
     <g id="line2d_111">
      <g>
       <use xlink:href="#m0de13ebaf7" x="1069.8375" y="334.28962" style="stroke: #000000"/>
      </g>
     </g>
    </g>
    <g id="ytick_11">
     <g id="line2d_112">
      <g>
       <use xlink:href="#md03d3b6fc1" x="65.4375" y="315.048477" style="stroke: #000000"/>
      </g>
     </g>
     <g id="line2d_113">
      <g>
       <use xlink:href="#m0de13ebaf7" x="1069.8375" y="315.048477" style="stroke: #000000"/>
      </g>
     </g>
    </g>
    <g id="ytick_12">
     <g id="line2d_114">
      <g>
       <use xlink:href="#md03d3b6fc1" x="65.4375" y="305.427905" style="stroke: #000000"/>
      </g>
     </g>
     <g id="line2d_115">
      <g>
       <use xlink:href="#m0de13ebaf7" x="1069.8375" y="305.427905" style="stroke: #000000"/>
      </g>
     </g>
    </g>
    <g id="ytick_13">
     <g id="line2d_116">
      <g>
       <use xlink:href="#md03d3b6fc1" x="65.4375" y="295.807333" style="stroke: #000000"/>
      </g>
     </g>
     <g id="line2d_117">
      <g>
       <use xlink:href="#m0de13ebaf7" x="1069.8375" y="295.807333" style="stroke: #000000"/>
      </g>
     </g>
    </g>
    <g id="ytick_14">
     <g id="line2d_118">
      <g>
       <use xlink:href="#md03d3b6fc1" x="65.4375" y="286.186762" style="stroke: #000000"/>
      </g>
     </g>
     <g id="line2d_119">
      <g>
       <use xlink:href="#m0de13ebaf7" x="1069.8375" y="286.186762" style="stroke: #000000"/>
      </g>
     </g>
    </g>
    <g id="ytick_15">
     <g id="line2d_120">
      <g>
       <use xlink:href="#md03d3b6fc1" x="65.4375" y="266.945618" style="stroke: #000000"/>
      </g>
     </g>
     <g id="line2d_121">
      <g>
       <use xlink:href="#m0de13ebaf7" x="1069.8375" y="266.945618" style="stroke: #000000"/>
      </g>
     </g>
    </g>
    <g id="ytick_16">
     <g id="line2d_122">
      <g>
       <use xlink:href="#md03d3b6fc1" x="65.4375" y="257.325047" style="stroke: #000000"/>
      </g>
     </g>
     <g id="line2d_123">
      <g>
       <use xlink:href="#m0de13ebaf7" x="1069.8375" y="257.325047" style="stroke: #000000"/>
      </g>
     </g>
    </g>
    <g id="ytick_17">
     <g id="line2d_124">
      <g>
       <use xlink:href="#md03d3b6fc1" x="65.4375" y="247.704475" style="stroke: #000000"/>
      </g>
     </g>
     <g id="line2d_125">
      <g>
       <use xlink:href="#m0de13ebaf7" x="1069.8375" y="247.704475" style="stroke: #000000"/>
      </g>
     </g>
    </g>
    <g id="ytick_18">
     <g id="line2d_126">
      <g>
       <use xlink:href="#md03d3b6fc1" x="65.4375" y="238.083904" style="stroke: #000000"/>
      </g>
     </g>
     <g id="line2d_127">
      <g>
       <use xlink:href="#m0de13ebaf7" x="1069.8375" y="238.083904" style="stroke: #000000"/>
      </g>
     </g>
    </g>
    <g id="ytick_19">
     <g id="line2d_128">
      <g>
       <use xlink:href="#md03d3b6fc1" x="65.4375" y="218.84276" style="stroke: #000000"/>
      </g>
     </g>
     <g id="line2d_129">
      <g>
       <use xlink:href="#m0de13ebaf7" x="1069.8375" y="218.84276" style="stroke: #000000"/>
      </g>
     </g>
    </g>
    <g id="ytick_20">
     <g id="line2d_130">
      <g>
       <use xlink:href="#md03d3b6fc1" x="65.4375" y="209.222189" style="stroke: #000000"/>
      </g>
     </g>
     <g id="line2d_131">
      <g>
       <use xlink:href="#m0de13ebaf7" x="1069.8375" y="209.222189" style="stroke: #000000"/>
      </g>
     </g>
    </g>
    <g id="ytick_21">
     <g id="line2d_132">
      <g>
       <use xlink:href="#md03d3b6fc1" x="65.4375" y="199.601617" style="stroke: #000000"/>
      </g>
     </g>
     <g id="line2d_133">
      <g>
       <use xlink:href="#m0de13ebaf7" x="1069.8375" y="199.601617" style="stroke: #000000"/>
      </g>
     </g>
    </g>
    <g id="ytick_22">
     <g id="line2d_134">
      <g>
       <use xlink:href="#md03d3b6fc1" x="65.4375" y="189.981045" style="stroke: #000000"/>
      </g>
     </g>
     <g id="line2d_135">
      <g>
       <use xlink:href="#m0de13ebaf7" x="1069.8375" y="189.981045" style="stroke: #000000"/>
      </g>
     </g>
    </g>
    <g id="ytick_23">
     <g id="line2d_136">
      <g>
       <use xlink:href="#md03d3b6fc1" x="65.4375" y="170.739902" style="stroke: #000000"/>
      </g>
     </g>
     <g id="line2d_137">
      <g>
       <use xlink:href="#m0de13ebaf7" x="1069.8375" y="170.739902" style="stroke: #000000"/>
      </g>
     </g>
    </g>
    <g id="ytick_24">
     <g id="line2d_138">
      <g>
       <use xlink:href="#md03d3b6fc1" x="65.4375" y="161.11933" style="stroke: #000000"/>
      </g>
     </g>
     <g id="line2d_139">
      <g>
       <use xlink:href="#m0de13ebaf7" x="1069.8375" y="161.11933" style="stroke: #000000"/>
      </g>
     </g>
    </g>
    <g id="ytick_25">
     <g id="line2d_140">
      <g>
       <use xlink:href="#md03d3b6fc1" x="65.4375" y="151.498759" style="stroke: #000000"/>
      </g>
     </g>
     <g id="line2d_141">
      <g>
       <use xlink:href="#m0de13ebaf7" x="1069.8375" y="151.498759" style="stroke: #000000"/>
      </g>
     </g>
    </g>
    <g id="ytick_26">
     <g id="line2d_142">
      <g>
       <use xlink:href="#md03d3b6fc1" x="65.4375" y="141.878187" style="stroke: #000000"/>
      </g>
     </g>
     <g id="line2d_143">
      <g>
       <use xlink:href="#m0de13ebaf7" x="1069.8375" y="141.878187" style="stroke: #000000"/>
      </g>
     </g>
    </g>
    <g id="ytick_27">
     <g id="line2d_144">
      <g>
       <use xlink:href="#md03d3b6fc1" x="65.4375" y="122.637044" style="stroke: #000000"/>
      </g>
     </g>
     <g id="line2d_145">
      <g>
       <use xlink:href="#m0de13ebaf7" x="1069.8375" y="122.637044" style="stroke: #000000"/>
      </g>
     </g>
    </g>
    <g id="ytick_28">
     <g id="line2d_146">
      <g>
       <use xlink:href="#md03d3b6fc1" x="65.4375" y="113.016472" style="stroke: #000000"/>
      </g>
     </g>
     <g id="line2d_147">
      <g>
       <use xlink:href="#m0de13ebaf7" x="1069.8375" y="113.016472" style="stroke: #000000"/>
      </g>
     </g>
    </g>
    <g id="ytick_29">
     <g id="line2d_148">
      <g>
       <use xlink:href="#md03d3b6fc1" x="65.4375" y="103.3959" style="stroke: #000000"/>
      </g>
     </g>
     <g id="line2d_149">
      <g>
       <use xlink:href="#m0de13ebaf7" x="1069.8375" y="103.3959" style="stroke: #000000"/>
      </g>
     </g>
    </g>
    <g id="ytick_30">
     <g id="line2d_150">
      <g>
       <use xlink:href="#md03d3b6fc1" x="65.4375" y="93.775329" style="stroke: #000000"/>
      </g>
     </g>
     <g id="line2d_151">
      <g>
       <use xlink:href="#m0de13ebaf7" x="1069.8375" y="93.775329" style="stroke: #000000"/>
      </g>
     </g>
    </g>
    <g id="ytick_31">
     <g id="line2d_152">
      <g>
       <use xlink:href="#md03d3b6fc1" x="65.4375" y="74.534186" style="stroke: #000000"/>
      </g>
     </g>
     <g id="line2d_153">
      <g>
       <use xlink:href="#m0de13ebaf7" x="1069.8375" y="74.534186" style="stroke: #000000"/>
      </g>
     </g>
    </g>
    <g id="ytick_32">
     <g id="line2d_154">
      <g>
       <use xlink:href="#md03d3b6fc1" x="65.4375" y="64.913614" style="stroke: #000000"/>
      </g>
     </g>
     <g id="line2d_155">
      <g>
       <use xlink:href="#m0de13ebaf7" x="1069.8375" y="64.913614" style="stroke: #000000"/>
      </g>
     </g>
    </g>
    <g id="ytick_33">
     <g id="line2d_156">
      <g>
       <use xlink:href="#md03d3b6fc1" x="65.4375" y="55.293042" style="stroke: #000000"/>
      </g>
     </g>
     <g id="line2d_157">
      <g>
       <use xlink:href="#m0de13ebaf7" x="1069.8375" y="55.293042" style="stroke: #000000"/>
      </g>
     </g>
    </g>
    <g id="ytick_34">
     <g id="line2d_158">
      <g>
       <use xlink:href="#md03d3b6fc1" x="65.4375" y="45.672471" style="stroke: #000000"/>
      </g>
     </g>
     <g id="line2d_159">
      <g>
       <use xlink:href="#m0de13ebaf7" x="1069.8375" y="45.672471" style="stroke: #000000"/>
      </g>
     </g>
    </g>
    <g id="ytick_35">
     <g id="line2d_160">
      <g>
       <use xlink:href="#md03d3b6fc1" x="65.4375" y="26.431327" style="stroke: #000000"/>
      </g>
     </g>
     <g id="line2d_161">
      <g>
       <use xlink:href="#m0de13ebaf7" x="1069.8375" y="26.431327" style="stroke: #000000"/>
      </g>
     </g>
    </g>
    <g id="text_17">
     <!-- Base Displacement -->
     <g transform="translate(15.7575 265.0975) rotate(-90) scale(0.16 -0.16)">
      <defs>
       <path id="DejaVuSans-42" d="M 1259 2228 
L 1259 519 
L 2272 519 
Q 2781 519 3026 730 
Q 3272 941 3272 1375 
Q 3272 1813 3026 2020 
Q 2781 2228 2272 2228 
L 1259 2228 
z
M 1259 4147 
L 1259 2741 
L 2194 2741 
Q 2656 2741 2882 2914 
Q 3109 3088 3109 3444 
Q 3109 3797 2882 3972 
Q 2656 4147 2194 4147 
L 1259 4147 
z
M 628 4666 
L 2241 4666 
Q 2963 4666 3353 4366 
Q 3744 4066 3744 3513 
Q 3744 3084 3544 2831 
Q 3344 2578 2956 2516 
Q 3422 2416 3680 2098 
Q 3938 1781 3938 1306 
Q 3938 681 3513 340 
Q 3088 0 2303 0 
L 628 0 
L 628 4666 
z
" transform="scale(0.015625)"/>
       <path id="DejaVuSans-61" d="M 2194 1759 
Q 1497 1759 1228 1600 
Q 959 1441 959 1056 
Q 959 750 1161 570 
Q 1363 391 1709 391 
Q 2188 391 2477 730 
Q 2766 1069 2766 1631 
L 2766 1759 
L 2194 1759 
z
M 3341 1997 
L 3341 0 
L 2766 0 
L 2766 531 
Q 2569 213 2275 61 
Q 1981 -91 1556 -91 
Q 1019 -91 701 211 
Q 384 513 384 1019 
Q 384 1609 779 1909 
Q 1175 2209 1959 2209 
L 2766 2209 
L 2766 2266 
Q 2766 2663 2505 2880 
Q 2244 3097 1772 3097 
Q 1472 3097 1187 3025 
Q 903 2953 641 2809 
L 641 3341 
Q 956 3463 1253 3523 
Q 1550 3584 1831 3584 
Q 2591 3584 2966 3190 
Q 3341 2797 3341 1997 
z
" transform="scale(0.015625)"/>
       <path id="DejaVuSans-44" d="M 1259 4147 
L 1259 519 
L 2022 519 
Q 2988 519 3436 956 
Q 3884 1394 3884 2338 
Q 3884 3275 3436 3711 
Q 2988 4147 2022 4147 
L 1259 4147 
z
M 628 4666 
L 1925 4666 
Q 3281 4666 3915 4102 
Q 4550 3538 4550 2338 
Q 4550 1131 3912 565 
Q 3275 0 1925 0 
L 628 0 
L 628 4666 
z
" transform="scale(0.015625)"/>
       <path id="DejaVuSans-70" d="M 1159 525 
L 1159 -1331 
L 581 -1331 
L 581 3500 
L 1159 3500 
L 1159 2969 
Q 1341 3281 1617 3432 
Q 1894 3584 2278 3584 
Q 2916 3584 3314 3078 
Q 3713 2572 3713 1747 
Q 3713 922 3314 415 
Q 2916 -91 2278 -91 
Q 1894 -91 1617 61 
Q 1341 213 1159 525 
z
M 3116 1747 
Q 3116 2381 2855 2742 
Q 2594 3103 2138 3103 
Q 1681 3103 1420 2742 
Q 1159 2381 1159 1747 
Q 1159 1113 1420 752 
Q 1681 391 2138 391 
Q 2594 391 2855 752 
Q 3116 1113 3116 1747 
z
" transform="scale(0.015625)"/>
       <path id="DejaVuSans-6c" d="M 603 4863 
L 1178 4863 
L 1178 0 
L 603 0 
L 603 4863 
z
" transform="scale(0.015625)"/>
       <path id="DejaVuSans-63" d="M 3122 3366 
L 3122 2828 
Q 2878 2963 2633 3030 
Q 2388 3097 2138 3097 
Q 1578 3097 1268 2742 
Q 959 2388 959 1747 
Q 959 1106 1268 751 
Q 1578 397 2138 397 
Q 2388 397 2633 464 
Q 2878 531 3122 666 
L 3122 134 
Q 2881 22 2623 -34 
Q 2366 -91 2075 -91 
Q 1284 -91 818 406 
Q 353 903 353 1747 
Q 353 2603 823 3093 
Q 1294 3584 2113 3584 
Q 2378 3584 2631 3529 
Q 2884 3475 3122 3366 
z
" transform="scale(0.015625)"/>
       <path id="DejaVuSans-6e" d="M 3513 2113 
L 3513 0 
L 2938 0 
L 2938 2094 
Q 2938 2591 2744 2837 
Q 2550 3084 2163 3084 
Q 1697 3084 1428 2787 
Q 1159 2491 1159 1978 
L 1159 0 
L 581 0 
L 581 3500 
L 1159 3500 
L 1159 2956 
Q 1366 3272 1645 3428 
Q 1925 3584 2291 3584 
Q 2894 3584 3203 3211 
Q 3513 2838 3513 2113 
z
" transform="scale(0.015625)"/>
       <path id="DejaVuSans-74" d="M 1172 4494 
L 1172 3500 
L 2356 3500 
L 2356 3053 
L 1172 3053 
L 1172 1153 
Q 1172 725 1289 603 
Q 1406 481 1766 481 
L 2356 481 
L 2356 0 
L 1766 0 
Q 1100 0 847 248 
Q 594 497 594 1153 
L 594 3053 
L 172 3053 
L 172 3500 
L 594 3500 
L 594 4494 
L 1172 4494 
z
" transform="scale(0.015625)"/>
      </defs>
      <use xlink:href="#DejaVuSans-42"/>
      <use xlink:href="#DejaVuSans-61" x="68.603516"/>
      <use xlink:href="#DejaVuSans-73" x="129.882812"/>
      <use xlink:href="#DejaVuSans-65" x="181.982422"/>
      <use xlink:href="#DejaVuSans-20" x="243.505859"/>
      <use xlink:href="#DejaVuSans-44" x="275.292969"/>
      <use xlink:href="#DejaVuSans-69" x="352.294922"/>
      <use xlink:href="#DejaVuSans-73" x="380.078125"/>
      <use xlink:href="#DejaVuSans-70" x="432.177734"/>
      <use xlink:href="#DejaVuSans-6c" x="495.654297"/>
      <use xlink:href="#DejaVuSans-61" x="523.4375"/>
      <use xlink:href="#DejaVuSans-63" x="584.716797"/>
      <use xlink:href="#DejaVuSans-65" x="639.697266"/>
      <use xlink:href="#DejaVuSans-6d" x="701.220703"/>
      <use xlink:href="#DejaVuSans-65" x="798.632812"/>
      <use xlink:href="#DejaVuSans-6e" x="860.15625"/>
      <use xlink:href="#DejaVuSans-74" x="923.535156"/>
     </g>
    </g>
    <g id="text_18">
     <!-- 1e−5 -->
     <g transform="translate(65.4375 18.7575) scale(0.16 -0.16)">
      <use xlink:href="#DejaVuSans-31"/>
      <use xlink:href="#DejaVuSans-65" x="63.623047"/>
      <use xlink:href="#DejaVuSans-2212" x="125.146484"/>
      <use xlink:href="#DejaVuSans-35" x="208.935547"/>
     </g>
    </g>
   </g>
   <g id="line2d_162">
    <path d="M 111.092045 180.360474 
L 118.923014 180.244569 
L 121.011272 179.963755 
L 122.055401 180.276296 
L 123.09953 180.634794 
L 124.665724 181.011485 
L 125.709853 181.35206 
L 126.231918 181.317507 
L 127.276047 180.939668 
L 128.320176 180.484368 
L 128.84224 180.093042 
L 129.886369 178.497311 
L 130.408434 178.114618 
L 130.930499 178.606598 
L 131.452563 179.475175 
L 131.974628 179.832896 
L 133.018757 178.365932 
L 133.540821 178.731437 
L 134.58495 180.948666 
L 135.107015 180.812258 
L 135.62908 179.852354 
L 136.151144 179.256641 
L 136.673209 179.501325 
L 137.195273 180.068514 
L 137.717338 180.222216 
L 139.283531 179.120205 
L 139.805596 179.238044 
L 140.327661 180.259209 
L 141.37179 183.869315 
L 141.893854 184.903031 
L 142.415919 185.14605 
L 142.937983 185.108758 
L 143.982113 186.021442 
L 144.504177 185.56095 
L 145.026242 184.693223 
L 145.548306 185.184453 
L 146.592435 189.543115 
L 147.1145 189.927171 
L 148.158629 186.971812 
L 148.680694 188.014165 
L 149.202758 190.636752 
L 149.724823 192.452237 
L 150.246887 192.007912 
L 150.768952 190.702966 
L 151.291016 190.875052 
L 152.335145 195.559213 
L 152.85721 196.663551 
L 153.379275 196.053931 
L 153.901339 195.267688 
L 154.423404 195.382943 
L 154.945468 195.90069 
L 155.467533 195.724555 
L 155.989597 194.423269 
L 156.511662 192.75282 
L 157.033726 192.176155 
L 157.555791 193.206945 
L 158.077856 194.613907 
L 158.59992 194.962837 
L 159.644049 192.156262 
L 160.166114 192.096314 
L 161.210243 194.858717 
L 161.732307 195.33106 
L 162.254372 194.557314 
L 162.776437 192.864187 
L 163.820566 188.483425 
L 164.34263 187.148674 
L 164.864695 186.902116 
L 165.908824 188.162096 
L 166.430888 188.371442 
L 166.952953 188.330999 
L 167.475018 188.817832 
L 168.519147 191.53407 
L 169.041211 191.803798 
L 169.563276 190.854167 
L 170.607405 187.954582 
L 171.651534 186.37108 
L 172.695663 185.052282 
L 173.217728 184.938472 
L 174.261857 186.543787 
L 174.783921 186.649967 
L 175.305986 185.895761 
L 175.82805 184.6696 
L 176.350115 183.963981 
L 176.87218 184.323427 
L 177.394244 184.881048 
L 177.916309 184.716691 
L 179.482502 181.828903 
L 180.004567 181.489638 
L 180.526631 180.961025 
L 181.048696 180.159608 
L 181.570761 179.6421 
L 182.092825 179.649723 
L 183.136954 180.059578 
L 183.659019 180.620851 
L 184.703148 183.327722 
L 185.225212 183.566966 
L 185.747277 182.213517 
L 186.269342 180.151453 
L 186.791406 178.645742 
L 187.313471 178.033458 
L 187.835535 177.936633 
L 188.3576 178.295447 
L 188.879664 179.146323 
L 189.401729 180.238416 
L 189.923793 180.824819 
L 190.445858 180.474325 
L 191.489987 178.714266 
L 192.534116 178.286672 
L 193.056181 177.626357 
L 194.10031 175.642724 
L 195.666504 173.883296 
L 196.188568 173.125125 
L 196.710633 172.991845 
L 197.232697 173.101488 
L 197.754762 172.622447 
L 198.276826 171.715111 
L 198.798891 171.273391 
L 199.320955 171.903869 
L 200.365085 174.649848 
L 200.887149 175.025537 
L 201.409214 175.077867 
L 201.931278 175.636435 
L 202.453343 176.493723 
L 202.975407 176.698902 
L 203.497472 175.795961 
L 204.019536 174.126103 
L 204.541601 172.924632 
L 205.063666 172.860474 
L 205.58573 173.34383 
L 206.107795 173.386796 
L 206.629859 172.338424 
L 207.151924 171.02927 
L 207.673988 170.746821 
L 208.196053 171.955467 
L 208.718117 173.890502 
L 209.240182 174.739828 
L 210.284311 173.833239 
L 210.806376 174.734384 
L 211.32844 176.620494 
L 211.850505 177.879706 
L 212.372569 178.097599 
L 212.894634 177.661755 
L 213.416699 176.869835 
L 213.938763 176.395598 
L 214.982892 175.961791 
L 215.504957 176.002536 
L 216.027021 176.413567 
L 217.07115 178.131209 
L 217.593215 178.237338 
L 218.637344 177.441056 
L 219.159409 177.992625 
L 219.681473 179.311537 
L 220.203538 180.139352 
L 220.725602 179.044511 
L 222.291796 170.91195 
L 222.813861 169.342151 
L 223.335925 168.274636 
L 223.85799 168.241841 
L 224.380054 169.339861 
L 225.424183 172.960958 
L 225.946248 173.755735 
L 226.468312 174.213531 
L 226.990377 175.131301 
L 228.034506 177.784097 
L 228.556571 178.098403 
L 229.078635 177.912226 
L 230.122764 178.01543 
L 230.644829 177.38548 
L 231.166893 176.205969 
L 231.688958 175.390465 
L 232.211023 176.110018 
L 233.255152 181.409606 
L 233.777216 182.354445 
L 234.821345 181.017215 
L 235.34341 180.926187 
L 235.865474 181.350763 
L 236.387539 181.249199 
L 236.909604 180.447146 
L 237.431668 180.08455 
L 237.953733 180.68119 
L 238.475797 181.752443 
L 238.997862 182.372364 
L 239.519926 181.652036 
L 240.041991 180.564079 
L 240.564055 180.633899 
L 241.608185 181.682403 
L 242.130249 180.774224 
L 242.652314 178.721493 
L 243.174378 177.668917 
L 243.696443 178.392625 
L 244.740572 181.416138 
L 245.784701 183.262331 
L 246.82883 186.785938 
L 247.350895 187.317333 
L 247.872959 186.283589 
L 248.395024 184.789543 
L 248.917088 183.916616 
L 249.961217 183.569452 
L 251.005347 181.773025 
L 251.527411 181.972727 
L 252.049476 182.903179 
L 252.57154 183.416169 
L 253.093605 182.789079 
L 253.615669 181.38291 
L 254.137734 180.718748 
L 254.659798 181.737899 
L 255.181863 183.602122 
L 255.703928 184.374438 
L 256.225992 182.858597 
L 256.748057 180.554922 
L 257.270121 179.522151 
L 257.792186 179.857945 
L 258.31425 179.948947 
L 258.836315 178.928614 
L 259.358379 178.311153 
L 259.880444 179.318713 
L 260.924573 183.882768 
L 261.446638 183.829528 
L 262.490767 180.993738 
L 263.012831 180.612669 
L 263.534896 180.964939 
L 264.05696 181.484889 
L 264.579025 181.533056 
L 265.10109 181.353403 
L 265.623154 181.304274 
L 266.145219 181.576636 
L 267.711412 183.055862 
L 268.233477 183.144422 
L 268.755541 182.998692 
L 269.277606 183.065522 
L 269.799671 183.602572 
L 270.321735 183.963144 
L 270.8438 183.023908 
L 271.887929 177.341388 
L 272.409993 175.73417 
L 272.932058 175.604042 
L 273.976187 176.796559 
L 274.498252 176.869455 
L 275.020316 177.150484 
L 276.064445 178.478597 
L 276.58651 178.673622 
L 277.108574 178.60621 
L 278.152703 178.898361 
L 278.674768 179.465828 
L 279.196833 180.578298 
L 279.718897 181.332753 
L 280.240962 181.674239 
L 280.763026 181.796296 
L 281.285091 182.289996 
L 281.807155 183.277313 
L 282.32922 183.736783 
L 283.373349 182.616058 
L 283.895414 182.986561 
L 284.939543 187.124457 
L 285.461607 187.75557 
L 285.983672 187.431536 
L 286.505736 187.428 
L 287.027801 189.442925 
L 288.07193 197.272569 
L 288.593995 199.381911 
L 289.116059 199.884815 
L 289.638124 200.125807 
L 290.160188 200.675206 
L 290.682253 200.871417 
L 291.204317 200.09871 
L 292.248447 197.318326 
L 292.770511 196.732393 
L 293.292576 196.590847 
L 293.81464 196.082414 
L 294.336705 194.766034 
L 294.858769 192.840697 
L 295.380834 189.994 
L 295.902898 185.647818 
L 296.947028 175.875323 
L 297.469092 174.290717 
L 297.991157 175.721665 
L 298.513221 180.085213 
L 300.079415 199.642073 
L 300.601479 202.050543 
L 301.123544 200.214389 
L 301.645609 195.98676 
L 302.167673 192.76651 
L 302.689738 191.52561 
L 303.211802 189.915843 
L 303.733867 186.042384 
L 304.777996 176.115597 
L 305.30006 173.588795 
L 305.822125 171.830264 
L 306.34419 168.757675 
L 307.388319 159.886524 
L 309.476577 147.059614 
L 310.520706 139.598333 
L 311.564835 133.365934 
L 312.608964 125.486683 
L 313.131029 124.514277 
L 313.653093 128.744967 
L 314.175158 134.805015 
L 314.697222 138.865652 
L 315.219287 138.427458 
L 316.263416 131.439876 
L 316.785481 129.885045 
L 317.307545 130.415174 
L 317.82961 132.070988 
L 318.351674 134.664514 
L 319.395803 142.573635 
L 320.439933 150.984709 
L 321.484062 160.207177 
L 322.006126 160.15865 
L 323.050255 153.864401 
L 323.57232 152.752038 
L 324.094384 154.314874 
L 324.616449 158.300653 
L 325.138514 165.123774 
L 326.182643 181.845125 
L 326.704707 185.970473 
L 327.226772 185.426463 
L 328.270901 179.439086 
L 328.792965 178.996813 
L 329.31503 179.853758 
L 329.837095 180.18551 
L 330.359159 179.074867 
L 330.881224 176.176485 
L 331.925353 168.996635 
L 332.447417 166.724774 
L 332.969482 166.402043 
L 333.491546 168.637612 
L 334.013611 171.985876 
L 334.535676 173.796849 
L 335.05774 173.803928 
L 336.101869 172.755979 
L 336.623934 171.73366 
L 337.668063 165.89823 
L 338.190127 166.46206 
L 338.712192 172.187467 
L 339.234257 179.454668 
L 339.756321 183.095502 
L 340.278386 182.114765 
L 340.80045 180.089009 
L 341.322515 180.740215 
L 341.844579 182.804109 
L 342.366644 181.755612 
L 343.410773 169.752285 
L 343.932838 166.536556 
L 344.454902 166.615835 
L 344.976967 166.52725 
L 345.499031 164.816786 
L 346.021096 164.680405 
L 346.54316 169.480453 
L 347.587289 186.00955 
L 348.109354 187.616555 
L 349.153483 182.787277 
L 349.675548 183.639219 
L 350.197612 185.216912 
L 350.719677 184.018179 
L 351.241741 180.775335 
L 351.763806 179.070699 
L 352.28587 181.413111 
L 353.33 191.166766 
L 353.852064 192.944197 
L 354.896193 193.900337 
L 355.418258 193.687758 
L 355.940322 192.45484 
L 356.462387 190.716209 
L 356.984452 190.316336 
L 357.506516 190.775682 
L 358.028581 189.771949 
L 359.07271 184.782159 
L 359.594774 183.661582 
L 360.116839 183.080161 
L 360.638903 181.400984 
L 361.683033 175.098085 
L 362.205097 173.645663 
L 362.727162 173.383775 
L 363.771291 173.533814 
L 364.293355 174.253372 
L 364.81542 175.749623 
L 365.337484 178.474108 
L 365.859549 183.818881 
L 366.903678 197.705517 
L 367.425743 200.975446 
L 368.469872 202.04505 
L 368.991936 206.070366 
L 370.036065 218.484375 
L 370.55813 219.79819 
L 371.080195 217.660471 
L 371.602259 216.732624 
L 372.124324 219.193149 
L 372.646388 222.715789 
L 373.168453 223.730034 
L 374.212582 218.062259 
L 374.734646 219.179379 
L 375.778776 226.69627 
L 376.30084 226.627335 
L 376.822905 224.948287 
L 377.344969 225.813662 
L 377.867034 229.574774 
L 378.389098 232.070395 
L 378.911163 229.791456 
L 379.433227 225.141999 
L 379.955292 223.902432 
L 380.477357 228.426586 
L 380.999421 235.78234 
L 381.521486 240.023913 
L 382.04355 238.817664 
L 382.565615 235.05846 
L 383.087679 233.184279 
L 383.609744 234.16494 
L 384.131808 235.899202 
L 384.653873 235.735113 
L 385.175938 232.541474 
L 385.698002 228.032875 
L 386.220067 225.001759 
L 386.742131 224.71925 
L 387.264196 225.602596 
L 387.78626 224.998939 
L 388.830389 219.421444 
L 389.352454 218.383081 
L 389.874519 219.033669 
L 390.396583 219.459185 
L 390.918648 218.177202 
L 391.962777 213.573336 
L 392.484841 212.105471 
L 393.52897 210.967633 
L 394.5731 208.988096 
L 395.095164 208.990564 
L 395.617229 209.20433 
L 396.139293 208.017403 
L 396.661358 204.496843 
L 397.705487 195.014601 
L 398.227551 191.986074 
L 398.749616 190.409531 
L 399.271681 189.95848 
L 399.793745 190.179343 
L 400.837874 191.791244 
L 401.359939 191.252403 
L 403.448197 185.547892 
L 404.492326 183.694768 
L 405.014391 183.479963 
L 405.536455 184.427948 
L 406.580584 188.058417 
L 407.102649 188.835662 
L 407.624713 187.865227 
L 408.146778 186.352008 
L 408.668843 185.588855 
L 409.190907 186.434319 
L 409.712972 188.347555 
L 410.235036 189.524258 
L 411.279165 188.905134 
L 411.80123 189.89827 
L 412.845359 194.541785 
L 413.367424 193.132907 
L 413.889488 186.747757 
L 414.411553 177.545085 
L 414.933617 170.994444 
L 415.455682 168.798011 
L 415.977746 168.721811 
L 416.499811 166.790862 
L 417.54394 155.972739 
L 418.066005 153.206007 
L 418.588069 153.273471 
L 419.110134 153.993154 
L 419.632198 152.916029 
L 421.720456 140.311443 
L 422.242521 138.378896 
L 422.764586 137.363689 
L 423.28665 137.270035 
L 423.808715 137.793776 
L 424.330779 138.580547 
L 424.852844 139.048103 
L 425.374908 138.656072 
L 425.896973 138.416786 
L 426.419038 139.668157 
L 427.463167 145.737133 
L 427.985231 147.35064 
L 428.507296 146.958694 
L 429.02936 145.964941 
L 429.551425 145.916133 
L 430.073489 146.929467 
L 430.595554 147.203002 
L 431.117619 144.791708 
L 432.161748 135.347653 
L 432.683812 132.087115 
L 433.205877 130.582932 
L 433.727941 130.346151 
L 434.250006 131.013778 
L 435.294135 134.857631 
L 435.8162 135.055235 
L 436.338264 134.440884 
L 436.860329 135.382067 
L 437.382393 139.034728 
L 438.426522 148.844613 
L 438.948587 149.476548 
L 439.470651 146.391269 
L 440.514781 137.032322 
L 441.036845 135.368382 
L 442.080974 136.069689 
L 442.603039 134.504995 
L 443.125103 132.063471 
L 443.647168 130.220414 
L 444.169232 127.170862 
L 444.691297 120.601812 
L 445.735426 102.725785 
L 446.257491 101.242154 
L 447.30162 109.400542 
L 447.823684 109.984244 
L 448.345749 108.4795 
L 448.867813 108.781826 
L 449.389878 112.833904 
L 449.911943 118.304523 
L 450.434007 122.176142 
L 451.478136 127.22355 
L 453.04433 140.31423 
L 453.566394 141.056526 
L 454.088459 142.199466 
L 454.610524 146.504942 
L 455.654653 161.645277 
L 456.176717 164.044653 
L 456.698782 160.543109 
L 457.220846 154.97427 
L 457.742911 152.109385 
L 458.78704 153.277426 
L 459.309105 149.887817 
L 460.353234 136.75179 
L 460.875298 136.377653 
L 461.919427 144.028917 
L 462.441492 145.128328 
L 462.963556 145.356026 
L 463.485621 148.842423 
L 464.52975 162.905741 
L 465.051815 164.768962 
L 465.573879 161.511743 
L 466.095944 157.488426 
L 466.618008 156.750768 
L 467.140073 158.812779 
L 467.662137 160.038463 
L 468.184202 157.571369 
L 468.706267 152.594882 
L 469.228331 149.432001 
L 469.750396 150.496718 
L 470.27246 155.029926 
L 472.882783 185.073695 
L 473.404848 187.978515 
L 473.926912 189.190119 
L 474.448977 188.568561 
L 475.493106 183.318882 
L 476.01517 181.94822 
L 476.537235 182.203767 
L 477.059299 183.234814 
L 477.581364 183.911395 
L 478.103429 184.92811 
L 478.625493 187.872361 
L 479.147558 192.975279 
L 480.713751 211.635029 
L 481.75788 220.579767 
L 482.279945 223.304101 
L 483.324074 227.635371 
L 483.846139 230.541519 
L 484.368203 234.444056 
L 485.934397 250.059621 
L 486.456461 253.159908 
L 486.978526 254.286511 
L 487.500591 254.346173 
L 488.022655 253.699269 
L 489.066784 249.80115 
L 489.588849 249.33974 
L 490.110913 252.065613 
L 490.632978 256.902017 
L 491.155042 259.890551 
L 491.677107 258.275013 
L 492.721236 249.714454 
L 493.243301 248.086571 
L 493.765365 247.161375 
L 494.28743 244.033849 
L 495.853623 225.632043 
L 496.897753 220.392464 
L 497.419817 216.478267 
L 498.463946 207.500547 
L 498.986011 205.287215 
L 499.508075 205.386586 
L 500.03014 207.306264 
L 500.552205 210.879978 
L 501.074269 215.530634 
L 501.596334 218.146543 
L 502.118398 214.609814 
L 503.162527 196.193397 
L 503.684592 194.63077 
L 504.206656 203.217623 
L 505.77285 253.806326 
L 506.816979 272.833732 
L 507.339044 279.536505 
L 507.861108 283.081913 
L 508.383173 281.791133 
L 508.905237 275.557659 
L 509.427302 267.141005 
L 509.949367 261.613882 
L 510.471431 261.582746 
L 511.51556 269.321722 
L 512.037625 267.112591 
L 513.081754 250.404527 
L 513.603818 247.294467 
L 514.125883 249.780926 
L 515.692077 262.830178 
L 516.214141 271.787005 
L 517.25827 295.769488 
L 517.780335 300.642814 
L 518.302399 301.606503 
L 518.824464 303.826123 
L 519.346529 308.258712 
L 519.868593 311.643544 
L 520.912722 312.669597 
L 521.434787 317.570825 
L 522.478916 338.496563 
L 523.00098 339.2775 
L 523.523045 329.447046 
L 524.04511 315.015352 
L 524.567174 305.147642 
L 525.611303 297.448883 
L 526.133368 291.182719 
L 526.655432 283.498331 
L 527.177497 278.617672 
L 528.221626 276.538522 
L 528.743691 272.190834 
L 529.78782 255.996533 
L 530.309884 251.519576 
L 531.354013 245.392073 
L 531.876078 242.345808 
L 532.398142 241.146539 
L 532.920207 241.870777 
L 533.442272 242.022903 
L 533.964336 237.201985 
L 535.008465 212.632593 
L 535.53053 208.042451 
L 536.574659 213.773751 
L 537.096723 208.091019 
L 537.618788 189.425047 
L 538.140853 166.289113 
L 538.662917 153.22261 
L 539.184982 149.7865 
L 539.707046 150.27671 
L 540.229111 150.127889 
L 540.751175 147.554133 
L 541.27324 142.01118 
L 542.317369 123.079881 
L 542.839434 117.460349 
L 543.361498 116.765972 
L 543.883563 117.85733 
L 544.405627 115.062094 
L 544.927692 107.349636 
L 545.449756 101.694579 
L 545.971821 102.598359 
L 546.493885 106.614374 
L 547.01595 106.937485 
L 548.060079 95.587355 
L 548.582144 94.304542 
L 549.104208 96.5966 
L 549.626273 97.753546 
L 550.670402 92.95633 
L 551.192466 93.230091 
L 552.236596 98.502211 
L 552.75866 99.135878 
L 553.280725 98.555289 
L 553.802789 96.607791 
L 554.846918 88.609385 
L 555.368983 87.269558 
L 555.891047 90.836022 
L 556.935177 103.553859 
L 557.457241 107.097464 
L 557.979306 109.752667 
L 560.067564 125.650909 
L 560.589628 131.610179 
L 561.633758 150.723856 
L 562.155822 155.630379 
L 562.677887 156.094938 
L 563.199951 155.960215 
L 563.722016 159.052503 
L 564.766145 169.82131 
L 565.288209 171.192723 
L 565.810274 170.017711 
L 566.332339 169.284415 
L 566.854403 170.333313 
L 567.376468 171.948011 
L 567.898532 172.128567 
L 568.420597 169.979479 
L 568.942661 166.542102 
L 569.464726 164.757998 
L 569.986791 167.684275 
L 570.508855 176.144188 
L 571.03092 186.484965 
L 571.552984 192.783085 
L 572.075049 192.445654 
L 573.119178 182.019896 
L 573.641242 180.746927 
L 574.163307 183.975881 
L 575.729501 202.617603 
L 576.251565 204.009764 
L 576.77363 202.555733 
L 577.295694 201.888823 
L 577.817759 204.368122 
L 578.861888 212.34199 
L 579.383953 213.731163 
L 579.906017 212.243777 
L 580.428082 207.965944 
L 580.950146 199.50941 
L 582.51634 161.42352 
L 583.038404 157.846877 
L 584.082534 158.378509 
L 585.126663 155.649591 
L 585.648727 155.924033 
L 586.170792 158.164506 
L 586.692856 161.002592 
L 588.781115 169.187038 
L 589.303179 167.300543 
L 590.869373 149.654653 
L 591.913502 144.123137 
L 592.957631 136.976156 
L 594.00176 134.653268 
L 594.523825 129.56036 
L 595.045889 119.449941 
L 596.090018 93.824949 
L 596.612083 85.319431 
L 597.134147 81.118202 
L 597.656212 80.635927 
L 598.178277 82.898631 
L 599.222406 91.399263 
L 600.266535 100.082635 
L 600.788599 102.259174 
L 601.310664 101.259694 
L 602.354793 93.525598 
L 602.876858 92.043867 
L 603.398922 93.064806 
L 604.443051 97.136627 
L 604.965116 98.707832 
L 605.48718 99.835685 
L 606.009245 99.741534 
L 606.531309 97.27281 
L 607.575439 88.620233 
L 608.097503 90.245136 
L 608.619568 100.101851 
L 609.141632 115.844083 
L 609.663697 126.869409 
L 610.185761 128.253975 
L 610.707826 124.067115 
L 611.22989 123.963791 
L 611.751955 133.642304 
L 612.27402 149.803793 
L 612.796084 161.555836 
L 613.840213 172.502302 
L 614.884342 198.985252 
L 615.406407 204.412556 
L 615.928471 199.646632 
L 616.450536 192.326532 
L 616.972601 191.651965 
L 617.494665 197.201842 
L 618.01673 200.798709 
L 618.538794 196.245967 
L 619.060859 186.658221 
L 619.582923 180.583691 
L 620.104988 180.173726 
L 620.627052 180.892463 
L 621.149117 177.792587 
L 621.671182 170.404102 
L 623.237375 143.771903 
L 623.75944 136.707407 
L 624.281504 132.669034 
L 625.325633 130.026033 
L 626.369763 122.951448 
L 626.891827 121.728052 
L 627.413892 123.279473 
L 627.935956 125.186674 
L 628.458021 124.919291 
L 628.980085 123.84603 
L 629.50215 125.482862 
L 630.024214 130.655165 
L 630.546279 136.997448 
L 631.068344 140.468179 
L 631.590408 139.040137 
L 632.112473 136.139032 
L 632.634537 137.288261 
L 633.156602 145.404707 
L 634.722795 195.158921 
L 635.24486 202.897649 
L 635.766925 204.109879 
L 636.288989 200.829673 
L 636.811054 200.007525 
L 637.333118 206.109882 
L 638.899312 249.546787 
L 639.421377 254.348536 
L 639.943441 256.972523 
L 640.465506 258.830888 
L 640.98757 258.755226 
L 641.509635 254.728142 
L 642.553764 241.161292 
L 643.075828 239.539496 
L 643.597893 240.628449 
L 644.119958 240.36292 
L 644.642022 235.707636 
L 645.686151 222.178927 
L 646.208216 219.73149 
L 646.73028 219.902835 
L 647.774409 222.141435 
L 648.296474 223.807807 
L 649.340603 228.544882 
L 649.862668 230.047658 
L 650.384732 232.352502 
L 650.906797 238.863522 
L 651.428861 249.112611 
L 651.950926 256.348895 
L 652.47299 253.775258 
L 653.51712 226.360422 
L 654.039184 222.899558 
L 654.561249 230.17727 
L 655.083313 241.51353 
L 655.605378 248.541364 
L 657.171571 258.186753 
L 657.693636 256.148083 
L 658.215701 244.495994 
L 658.737765 228.943578 
L 659.25983 223.382165 
L 659.781894 230.156159 
L 660.303959 242.965383 
L 660.826023 248.086054 
L 661.348088 241.944934 
L 661.870152 232.115059 
L 662.392217 229.321743 
L 662.914282 235.393025 
L 663.958411 256.098882 
L 665.00254 272.699443 
L 665.524604 282.735088 
L 666.046669 288.763007 
L 666.568733 286.761357 
L 667.090798 275.315773 
L 668.134927 237.292366 
L 668.656992 226.6327 
L 669.179056 223.106864 
L 669.701121 221.354431 
L 670.223185 215.579192 
L 670.74525 203.326422 
L 671.789379 167.992117 
L 672.311444 157.073466 
L 672.833508 150.511618 
L 673.355573 147.440692 
L 673.877637 149.369061 
L 674.399702 159.618363 
L 675.443831 198.358204 
L 675.965895 207.265635 
L 676.48796 205.196402 
L 677.010025 198.751321 
L 677.532089 199.127344 
L 678.054154 214.281498 
L 678.576218 247.308625 
L 679.098283 271.80256 
L 679.620347 279.870794 
L 680.142412 279.110217 
L 680.664476 275.476153 
L 681.186541 274.085217 
L 681.708606 276.291958 
L 682.23067 281.449776 
L 682.752735 290.898301 
L 683.796864 316.686599 
L 684.318928 322.035549 
L 684.840993 319.689056 
L 685.363057 313.23795 
L 685.885122 308.303204 
L 686.407187 305.618665 
L 686.929251 300.587557 
L 687.451316 287.349814 
L 688.495445 243.04307 
L 689.017509 236.768047 
L 689.539574 239.87684 
L 690.061638 244.325303 
L 690.583703 240.723694 
L 691.105768 223.073335 
L 691.627832 199.332338 
L 692.149897 187.680148 
L 692.671961 185.460763 
L 693.194026 184.624047 
L 693.71609 177.779582 
L 694.238155 165.371139 
L 694.760219 157.811953 
L 695.282284 159.923559 
L 695.804349 166.978734 
L 696.326413 169.32987 
L 696.848478 161.476729 
L 697.892607 121.511135 
L 699.980865 43.868469 
L 700.50293 36.8775 
L 701.024994 36.954693 
L 701.547059 40.456249 
L 702.069123 42.830237 
L 703.113252 43.568221 
L 703.635317 45.131289 
L 704.157381 48.523489 
L 704.679446 54.538224 
L 705.201511 64.573887 
L 706.24564 96.549739 
L 708.855962 177.057215 
L 709.378027 186.382871 
L 709.900092 189.40855 
L 710.422156 189.541409 
L 710.944221 189.077166 
L 711.466285 187.803201 
L 711.98835 181.19421 
L 712.510414 164.809721 
L 713.032479 144.353986 
L 713.554544 131.753009 
L 714.076608 128.078262 
L 715.120737 129.392905 
L 715.642802 129.708539 
L 716.164866 132.55603 
L 717.73106 150.994227 
L 718.253125 152.532069 
L 718.775189 153.501397 
L 719.297254 156.098258 
L 719.819318 160.933151 
L 720.341383 170.094052 
L 720.863447 188.803132 
L 721.907576 259.516111 
L 722.429641 280.809899 
L 722.951706 287.540635 
L 723.47377 285.683233 
L 724.517899 271.409088 
L 725.039964 263.61091 
L 725.562028 253.940755 
L 726.084093 238.820391 
L 726.606157 219.512228 
L 727.128222 204.572221 
L 727.650287 197.113841 
L 728.694416 190.219517 
L 729.738545 178.547999 
L 730.260609 179.272149 
L 731.304738 195.928993 
L 731.826803 197.508474 
L 732.348868 188.380773 
L 732.870932 171.075099 
L 733.392997 157.648049 
L 733.915061 156.175247 
L 734.437126 166.216464 
L 734.95919 181.414342 
L 735.481255 191.863752 
L 736.003319 195.360713 
L 736.525384 196.797896 
L 737.047449 201.139098 
L 737.569513 207.692857 
L 738.091578 210.639562 
L 738.613642 207.127704 
L 739.135707 196.863218 
L 740.179836 172.030638 
L 741.223965 148.781643 
L 741.74603 131.38986 
L 742.790159 85.600973 
L 743.312223 74.379746 
L 743.834288 73.250482 
L 744.878417 85.737396 
L 745.400481 87.894459 
L 745.922546 84.551091 
L 746.444611 79.40609 
L 746.966675 77.098698 
L 747.48874 78.192042 
L 748.010804 81.952932 
L 749.054933 90.973665 
L 749.576998 94.391051 
L 750.099062 95.027287 
L 750.621127 90.84104 
L 751.665256 72.188251 
L 752.187321 68.969882 
L 752.709385 74.276126 
L 753.753514 93.201052 
L 754.275579 94.560062 
L 754.797643 89.017042 
L 755.319708 81.499169 
L 755.841773 78.771591 
L 756.363837 83.268705 
L 756.885902 93.989248 
L 757.407966 108.000466 
L 757.930031 125.255403 
L 758.452095 150.992138 
L 759.496224 240.516867 
L 760.018289 268.714065 
L 760.540354 279.592552 
L 761.062418 280.418827 
L 761.584483 278.510859 
L 762.106547 279.632489 
L 762.628612 285.735886 
L 763.150676 293.331588 
L 763.672741 295.8134 
L 764.194805 289.578521 
L 765.238935 262.265229 
L 766.283064 244.211079 
L 767.327193 228.147475 
L 767.849257 225.722011 
L 768.371322 230.558504 
L 768.893386 239.071608 
L 769.415451 243.100728 
L 769.937516 239.91042 
L 770.45958 234.325602 
L 770.981645 234.503957 
L 771.503709 244.71922 
L 772.547838 277.480815 
L 773.069903 284.033529 
L 773.591967 285.264646 
L 774.114032 282.532211 
L 774.636097 275.413443 
L 776.20229 240.390161 
L 776.724355 234.205668 
L 777.246419 231.89871 
L 777.768484 232.577098 
L 778.290548 235.82213 
L 778.812613 239.938106 
L 779.334678 242.699538 
L 779.856742 244.382566 
L 780.378807 248.337615 
L 781.422936 265.96477 
L 781.945 271.058839 
L 782.467065 271.892688 
L 782.98913 273.778558 
L 783.511194 282.228677 
L 784.033259 296.607981 
L 784.555323 306.879787 
L 785.077388 308.395485 
L 785.599452 304.768486 
L 786.121517 302.388225 
L 786.643581 304.008111 
L 787.165646 306.756455 
L 787.687711 306.960805 
L 788.209775 304.910138 
L 788.73184 303.748933 
L 789.253904 304.114527 
L 789.775969 302.206044 
L 790.298033 293.545227 
L 791.342162 260.497933 
L 791.864227 249.191812 
L 793.952485 221.130556 
L 794.47455 219.588944 
L 794.996614 219.426782 
L 795.518679 218.007731 
L 796.040743 215.779884 
L 796.562808 215.040291 
L 797.084873 217.108736 
L 797.606937 219.723475 
L 798.129002 219.203249 
L 798.651066 216.307013 
L 799.173131 216.246826 
L 799.695195 220.934902 
L 800.739324 232.403638 
L 801.261389 237.660255 
L 801.783454 248.501684 
L 802.827583 288.693396 
L 803.349647 298.697074 
L 803.871712 298.048894 
L 804.393776 292.25095 
L 804.915841 291.449115 
L 805.437905 299.805383 
L 806.482035 328.372719 
L 807.004099 329.929955 
L 808.048228 317.187838 
L 808.570293 317.00274 
L 809.092357 321.089216 
L 809.614422 324.012656 
L 810.136486 322.644804 
L 810.658551 320.084183 
L 811.180616 321.23264 
L 811.70268 325.067816 
L 812.224745 325.354066 
L 813.268874 313.419553 
L 813.790938 312.490388 
L 814.835067 324.645265 
L 815.357132 326.815913 
L 816.401261 323.780911 
L 816.923326 323.8625 
L 817.44539 322.392464 
L 817.967455 318.338659 
L 818.489519 315.603927 
L 819.011584 316.775058 
L 819.533648 320.83156 
L 820.055713 321.695138 
L 820.577778 313.376995 
L 821.621907 279.871868 
L 822.143971 272.315361 
L 822.666036 270.317474 
L 823.1881 270.015508 
L 823.710165 270.512159 
L 824.754294 274.835601 
L 825.276359 273.090855 
L 825.798423 264.805087 
L 826.320488 254.342669 
L 826.842552 249.169293 
L 827.364617 250.660155 
L 827.886681 253.098217 
L 828.408746 249.051973 
L 829.452875 228.067848 
L 829.97494 226.565276 
L 831.019069 239.923139 
L 831.541133 241.970921 
L 832.063198 238.12512 
L 833.107327 223.379801 
L 833.629391 220.934264 
L 834.151456 223.960579 
L 834.673521 232.061469 
L 835.195585 243.655194 
L 835.71765 252.682837 
L 836.239714 255.597659 
L 836.761779 252.211191 
L 837.283843 246.119399 
L 837.805908 243.802117 
L 838.327972 247.082275 
L 838.850037 252.8978 
L 839.372102 256.801114 
L 839.894166 257.421365 
L 840.938295 256.217618 
L 841.46036 254.026832 
L 842.504489 246.304246 
L 843.026553 245.856672 
L 843.548618 249.944452 
L 844.070683 258.110036 
L 845.636876 289.059822 
L 846.158941 294.352881 
L 846.681005 291.817178 
L 847.725134 274.261158 
L 848.247199 273.154867 
L 848.769264 280.234771 
L 849.813393 304.198753 
L 850.335457 309.328023 
L 850.857522 306.491112 
L 851.379586 295.426764 
L 851.901651 280.32067 
L 852.423715 269.721862 
L 852.94578 266.206861 
L 853.467845 267.839675 
L 854.511974 275.276511 
L 855.556103 284.468881 
L 856.078167 286.02434 
L 856.600232 282.005234 
L 858.166426 255.533624 
L 858.68849 253.558082 
L 859.210555 254.507978 
L 859.732619 255.212126 
L 860.254684 252.563834 
L 860.776748 247.049423 
L 861.298813 243.31372 
L 861.820878 244.045294 
L 862.342942 247.177991 
L 862.865007 246.134163 
L 863.387071 234.046048 
L 863.909136 203.203175 
L 864.4312 164.099346 
L 864.953265 142.10095 
L 865.475329 133.02441 
L 865.997394 131.418404 
L 866.519459 132.804273 
L 867.041523 132.1378 
L 867.563588 126.742976 
L 868.085652 118.534857 
L 868.607717 113.689765 
L 869.129781 114.923114 
L 872.262169 150.977919 
L 872.784233 154.199133 
L 873.306298 152.332955 
L 873.828362 148.334335 
L 874.350427 148.09215 
L 874.872491 153.30543 
L 875.394556 161.009498 
L 875.916621 165.836683 
L 876.438685 165.890263 
L 876.96075 164.11369 
L 877.482814 162.827059 
L 878.004879 160.810862 
L 878.526943 154.586833 
L 879.571072 132.268648 
L 880.093137 126.857995 
L 880.615202 126.990182 
L 881.137266 130.368421 
L 882.181395 141.188227 
L 882.70346 146.647469 
L 883.225524 150.552706 
L 883.747589 152.488829 
L 884.269653 152.1171 
L 884.791718 149.730781 
L 885.313783 149.015636 
L 885.835847 154.481623 
L 886.357912 170.10364 
L 886.879976 193.567569 
L 887.402041 208.32029 
L 887.924105 212.813071 
L 888.44617 214.672452 
L 888.968234 220.385521 
L 890.012364 239.539821 
L 890.534428 241.350788 
L 891.056493 239.39606 
L 891.578557 238.845003 
L 892.100622 239.65596 
L 892.622686 236.628355 
L 893.144751 225.630693 
L 893.666815 210.318054 
L 894.18888 200.263652 
L 894.710945 196.603067 
L 895.233009 194.552132 
L 895.755074 190.368024 
L 896.277138 185.113665 
L 896.799203 181.783893 
L 897.321267 180.501791 
L 897.843332 180.084695 
L 898.365396 180.669443 
L 898.887461 184.234112 
L 899.409526 193.027884 
L 899.93159 204.081222 
L 900.453655 210.272993 
L 900.975719 209.595257 
L 901.497784 206.303868 
L 902.019848 206.945626 
L 902.541913 213.748295 
L 903.063977 222.885783 
L 903.586042 227.837354 
L 904.108107 226.78222 
L 904.630171 222.018425 
L 905.152236 215.969526 
L 905.6743 208.160122 
L 906.718429 191.133832 
L 907.240494 189.425408 
L 907.762558 193.155644 
L 908.284623 196.049779 
L 908.806688 193.030625 
L 909.328752 186.033136 
L 909.850817 182.277903 
L 910.372881 186.103348 
L 910.894946 194.926145 
L 911.41701 201.202545 
L 911.939075 201.044936 
L 912.461139 196.22297 
L 912.983204 193.350594 
L 913.505269 198.166988 
L 914.027333 213.612298 
L 914.549398 237.307521 
L 915.071462 255.347733 
L 915.593527 264.114175 
L 916.115591 265.341737 
L 916.637656 263.118381 
L 917.15972 263.720181 
L 917.681785 270.216732 
L 918.725914 291.348451 
L 919.247979 294.04969 
L 919.770043 289.289643 
L 920.814172 269.478071 
L 921.336237 262.400662 
L 921.858301 257.674814 
L 923.424495 247.387108 
L 923.94656 242.089103 
L 924.990689 225.938031 
L 925.512753 222.779772 
L 926.034818 228.03167 
L 927.078947 257.295503 
L 927.601012 266.170216 
L 928.123076 268.253437 
L 928.645141 267.363418 
L 929.167205 267.752044 
L 930.211334 272.876374 
L 930.733399 273.675553 
L 931.255464 272.523898 
L 931.777528 270.566653 
L 932.299593 266.686795 
L 932.821657 258.356701 
L 933.865786 235.062075 
L 934.387851 230.815299 
L 934.909915 232.535263 
L 935.43198 235.335145 
L 935.954045 235.050817 
L 936.476109 232.700194 
L 936.998174 233.110969 
L 937.520238 238.985561 
L 938.042303 247.429704 
L 938.564367 252.146282 
L 939.086432 250.970372 
L 939.608496 247.431854 
L 940.130561 247.404265 
L 940.652626 253.74741 
L 941.696755 276.39089 
L 942.218819 284.775231 
L 942.740884 290.348276 
L 943.262948 293.369791 
L 943.785013 294.071618 
L 944.307077 293.404647 
L 944.829142 292.932484 
L 945.351207 293.759944 
L 945.873271 295.276885 
L 946.395336 294.841785 
L 946.9174 290.408982 
L 947.961529 274.720338 
L 948.483594 269.09531 
L 949.005658 266.413023 
L 950.049788 263.784305 
L 950.571852 261.414072 
L 951.093917 257.202784 
L 951.615981 252.007507 
L 952.138046 248.157158 
L 952.66011 246.784453 
L 953.704239 247.351277 
L 954.748369 246.534463 
L 955.270433 246.411905 
L 955.792498 245.440486 
L 956.836627 240.060603 
L 957.358691 238.833145 
L 957.880756 239.179672 
L 958.40282 238.431622 
L 958.924885 234.283294 
L 959.969014 221.504062 
L 961.535208 206.759966 
L 962.057272 204.315369 
L 962.579337 206.89887 
L 963.101401 212.89444 
L 963.623466 216.713313 
L 964.145531 215.31363 
L 964.667595 210.907515 
L 965.18966 208.051403 
L 965.711724 208.900661 
L 966.233789 211.769078 
L 966.755853 213.779929 
L 967.277918 214.138609 
L 967.799982 213.941415 
L 968.322047 214.373066 
L 968.844112 215.518731 
L 969.366176 217.490927 
L 969.888241 220.624578 
L 971.454434 232.87215 
L 971.976499 233.627319 
L 972.498563 231.279815 
L 973.542693 223.324487 
L 974.064757 223.000226 
L 974.586822 226.439585 
L 975.108886 231.373035 
L 975.630951 233.732095 
L 976.153015 232.006403 
L 976.67508 228.651211 
L 977.197144 227.973329 
L 978.241274 232.838541 
L 978.763338 231.330409 
L 979.807467 221.89996 
L 980.329532 222.023568 
L 980.851596 225.029666 
L 981.373661 227.205112 
L 981.895725 227.03743 
L 982.41779 225.92666 
L 982.939855 225.735627 
L 983.461919 225.950411 
L 983.983984 224.681371 
L 984.506048 221.866265 
L 985.028113 219.860246 
L 985.550177 221.125563 
L 986.594306 228.911616 
L 987.116371 229.840865 
L 987.638436 228.193051 
L 988.1605 226.019117 
L 988.682565 225.261306 
L 989.204629 226.089232 
L 989.726694 227.416294 
L 990.248758 228.326687 
L 992.337017 230.107916 
L 992.859081 230.001427 
L 993.90321 229.086314 
L 994.425275 229.256175 
L 995.991469 231.273338 
L 997.035598 231.593754 
L 997.557662 231.743096 
L 999.123856 232.631307 
L 999.64592 232.702418 
L 1000.69005 232.645823 
L 1001.212114 232.94676 
L 1002.778308 234.450386 
L 1004.344501 235.04576 
L 1005.388631 235.177449 
L 1008.521018 235.190483 
L 1009.565147 235.404306 
L 1015.307857 235.011735 
L 1016.874051 234.872782 
L 1018.440244 234.763411 
L 1020.006438 234.685576 
L 1024.182955 234.458318 
L 1024.182955 234.458318 
" clip-path="url(#p8b3e2ac9d7)" style="fill: none; stroke: #0c5da5; stroke-width: 2; stroke-linecap: square"/>
   </g>
   <g id="patch_3">
    <path d="M 65.4375 354.3975 
L 65.4375 21.7575 
" style="fill: none; stroke: #000000; stroke-linejoin: miter; stroke-linecap: square"/>
   </g>
   <g id="patch_4">
    <path d="M 1069.8375 354.3975 
L 1069.8375 21.7575 
" style="fill: none; stroke: #000000; stroke-linejoin: miter; stroke-linecap: square"/>
   </g>
   <g id="patch_5">
    <path d="M 65.4375 354.3975 
L 1069.8375 354.3975 
" style="fill: none; stroke: #000000; stroke-linejoin: miter; stroke-linecap: square"/>
   </g>
   <g id="patch_6">
    <path d="M 65.4375 21.7575 
L 1069.8375 21.7575 
" style="fill: none; stroke: #000000; stroke-linejoin: miter; stroke-linecap: square"/>
   </g>
   <g id="text_19">
    <!-- Tabas_ Iran Record no. 138 -->
    <g transform="translate(459.94875 15.7575) scale(0.16 -0.16)">
     <defs>
      <path id="DejaVuSans-62" d="M 3116 1747 
Q 3116 2381 2855 2742 
Q 2594 3103 2138 3103 
Q 1681 3103 1420 2742 
Q 1159 2381 1159 1747 
Q 1159 1113 1420 752 
Q 1681 391 2138 391 
Q 2594 391 2855 752 
Q 3116 1113 3116 1747 
z
M 1159 2969 
Q 1341 3281 1617 3432 
Q 1894 3584 2278 3584 
Q 2916 3584 3314 3078 
Q 3713 2572 3713 1747 
Q 3713 922 3314 415 
Q 2916 -91 2278 -91 
Q 1894 -91 1617 61 
Q 1341 213 1159 525 
L 1159 0 
L 581 0 
L 581 4863 
L 1159 4863 
L 1159 2969 
z
" transform="scale(0.015625)"/>
      <path id="DejaVuSans-5f" d="M 3263 -1063 
L 3263 -1509 
L -63 -1509 
L -63 -1063 
L 3263 -1063 
z
" transform="scale(0.015625)"/>
      <path id="DejaVuSans-49" d="M 628 4666 
L 1259 4666 
L 1259 0 
L 628 0 
L 628 4666 
z
" transform="scale(0.015625)"/>
      <path id="DejaVuSans-72" d="M 2631 2963 
Q 2534 3019 2420 3045 
Q 2306 3072 2169 3072 
Q 1681 3072 1420 2755 
Q 1159 2438 1159 1844 
L 1159 0 
L 581 0 
L 581 3500 
L 1159 3500 
L 1159 2956 
Q 1341 3275 1631 3429 
Q 1922 3584 2338 3584 
Q 2397 3584 2469 3576 
Q 2541 3569 2628 3553 
L 2631 2963 
z
" transform="scale(0.015625)"/>
      <path id="DejaVuSans-52" d="M 2841 2188 
Q 3044 2119 3236 1894 
Q 3428 1669 3622 1275 
L 4263 0 
L 3584 0 
L 2988 1197 
Q 2756 1666 2539 1819 
Q 2322 1972 1947 1972 
L 1259 1972 
L 1259 0 
L 628 0 
L 628 4666 
L 2053 4666 
Q 2853 4666 3247 4331 
Q 3641 3997 3641 3322 
Q 3641 2881 3436 2590 
Q 3231 2300 2841 2188 
z
M 1259 4147 
L 1259 2491 
L 2053 2491 
Q 2509 2491 2742 2702 
Q 2975 2913 2975 3322 
Q 2975 3731 2742 3939 
Q 2509 4147 2053 4147 
L 1259 4147 
z
" transform="scale(0.015625)"/>
      <path id="DejaVuSans-6f" d="M 1959 3097 
Q 1497 3097 1228 2736 
Q 959 2375 959 1747 
Q 959 1119 1226 758 
Q 1494 397 1959 397 
Q 2419 397 2687 759 
Q 2956 1122 2956 1747 
Q 2956 2369 2687 2733 
Q 2419 3097 1959 3097 
z
M 1959 3584 
Q 2709 3584 3137 3096 
Q 3566 2609 3566 1747 
Q 3566 888 3137 398 
Q 2709 -91 1959 -91 
Q 1206 -91 779 398 
Q 353 888 353 1747 
Q 353 2609 779 3096 
Q 1206 3584 1959 3584 
z
" transform="scale(0.015625)"/>
      <path id="DejaVuSans-64" d="M 2906 2969 
L 2906 4863 
L 3481 4863 
L 3481 0 
L 2906 0 
L 2906 525 
Q 2725 213 2448 61 
Q 2172 -91 1784 -91 
Q 1150 -91 751 415 
Q 353 922 353 1747 
Q 353 2572 751 3078 
Q 1150 3584 1784 3584 
Q 2172 3584 2448 3432 
Q 2725 3281 2906 2969 
z
M 947 1747 
Q 947 1113 1208 752 
Q 1469 391 1925 391 
Q 2381 391 2643 752 
Q 2906 1113 2906 1747 
Q 2906 2381 2643 2742 
Q 2381 3103 1925 3103 
Q 1469 3103 1208 2742 
Q 947 2381 947 1747 
z
" transform="scale(0.015625)"/>
      <path id="DejaVuSans-38" d="M 2034 2216 
Q 1584 2216 1326 1975 
Q 1069 1734 1069 1313 
Q 1069 891 1326 650 
Q 1584 409 2034 409 
Q 2484 409 2743 651 
Q 3003 894 3003 1313 
Q 3003 1734 2745 1975 
Q 2488 2216 2034 2216 
z
M 1403 2484 
Q 997 2584 770 2862 
Q 544 3141 544 3541 
Q 544 4100 942 4425 
Q 1341 4750 2034 4750 
Q 2731 4750 3128 4425 
Q 3525 4100 3525 3541 
Q 3525 3141 3298 2862 
Q 3072 2584 2669 2484 
Q 3125 2378 3379 2068 
Q 3634 1759 3634 1313 
Q 3634 634 3220 271 
Q 2806 -91 2034 -91 
Q 1263 -91 848 271 
Q 434 634 434 1313 
Q 434 1759 690 2068 
Q 947 2378 1403 2484 
z
M 1172 3481 
Q 1172 3119 1398 2916 
Q 1625 2713 2034 2713 
Q 2441 2713 2670 2916 
Q 2900 3119 2900 3481 
Q 2900 3844 2670 4047 
Q 2441 4250 2034 4250 
Q 1625 4250 1398 4047 
Q 1172 3844 1172 3481 
z
" transform="scale(0.015625)"/>
     </defs>
     <use xlink:href="#DejaVuSans-54"/>
     <use xlink:href="#DejaVuSans-61" x="44.583984"/>
     <use xlink:href="#DejaVuSans-62" x="105.863281"/>
     <use xlink:href="#DejaVuSans-61" x="169.339844"/>
     <use xlink:href="#DejaVuSans-73" x="230.619141"/>
     <use xlink:href="#DejaVuSans-5f" x="282.71875"/>
     <use xlink:href="#DejaVuSans-20" x="332.71875"/>
     <use xlink:href="#DejaVuSans-49" x="364.505859"/>
     <use xlink:href="#DejaVuSans-72" x="393.998047"/>
     <use xlink:href="#DejaVuSans-61" x="435.111328"/>
     <use xlink:href="#DejaVuSans-6e" x="496.390625"/>
     <use xlink:href="#DejaVuSans-20" x="559.769531"/>
     <use xlink:href="#DejaVuSans-52" x="591.556641"/>
     <use xlink:href="#DejaVuSans-65" x="656.539062"/>
     <use xlink:href="#DejaVuSans-63" x="718.0625"/>
     <use xlink:href="#DejaVuSans-6f" x="773.042969"/>
     <use xlink:href="#DejaVuSans-72" x="834.224609"/>
     <use xlink:href="#DejaVuSans-64" x="873.587891"/>
     <use xlink:href="#DejaVuSans-20" x="937.064453"/>
     <use xlink:href="#DejaVuSans-6e" x="968.851562"/>
     <use xlink:href="#DejaVuSans-6f" x="1032.230469"/>
     <use xlink:href="#DejaVuSans-2e" x="1091.662109"/>
     <use xlink:href="#DejaVuSans-20" x="1123.449219"/>
     <use xlink:href="#DejaVuSans-31" x="1155.236328"/>
     <use xlink:href="#DejaVuSans-33" x="1218.859375"/>
     <use xlink:href="#DejaVuSans-38" x="1282.482422"/>
    </g>
   </g>
   <g id="legend_1">
    <g id="patch_7">
     <path d="M 76.6375 58.0425 
L 436.85 58.0425 
Q 440.05 58.0425 440.05 54.8425 
L 440.05 32.9575 
Q 440.05 29.7575 436.85 29.7575 
L 76.6375 29.7575 
Q 73.4375 29.7575 73.4375 32.9575 
L 73.4375 54.8425 
Q 73.4375 58.0425 76.6375 58.0425 
z
" style="fill: #ffffff; stroke: #cccccc; stroke-linejoin: miter"/>
    </g>
    <g id="line2d_163">
     <path d="M 79.8375 42.715 
L 95.8375 42.715 
L 111.8375 42.715 
" style="fill: none; stroke: #0c5da5; stroke-width: 2; stroke-linecap: square"/>
    </g>
    <g id="text_20">
     <!-- Residual Displacement = -0.000006 m -->
     <g transform="translate(124.6375 48.315) scale(0.16 -0.16)">
      <defs>
       <path id="DejaVuSans-75" d="M 544 1381 
L 544 3500 
L 1119 3500 
L 1119 1403 
Q 1119 906 1312 657 
Q 1506 409 1894 409 
Q 2359 409 2629 706 
Q 2900 1003 2900 1516 
L 2900 3500 
L 3475 3500 
L 3475 0 
L 2900 0 
L 2900 538 
Q 2691 219 2414 64 
Q 2138 -91 1772 -91 
Q 1169 -91 856 284 
Q 544 659 544 1381 
z
M 1991 3584 
L 1991 3584 
z
" transform="scale(0.015625)"/>
       <path id="DejaVuSans-3d" d="M 678 2906 
L 4684 2906 
L 4684 2381 
L 678 2381 
L 678 2906 
z
M 678 1631 
L 4684 1631 
L 4684 1100 
L 678 1100 
L 678 1631 
z
" transform="scale(0.015625)"/>
       <path id="DejaVuSans-2d" d="M 313 2009 
L 1997 2009 
L 1997 1497 
L 313 1497 
L 313 2009 
z
" transform="scale(0.015625)"/>
       <path id="DejaVuSans-36" d="M 2113 2584 
Q 1688 2584 1439 2293 
Q 1191 2003 1191 1497 
Q 1191 994 1439 701 
Q 1688 409 2113 409 
Q 2538 409 2786 701 
Q 3034 994 3034 1497 
Q 3034 2003 2786 2293 
Q 2538 2584 2113 2584 
z
M 3366 4563 
L 3366 3988 
Q 3128 4100 2886 4159 
Q 2644 4219 2406 4219 
Q 1781 4219 1451 3797 
Q 1122 3375 1075 2522 
Q 1259 2794 1537 2939 
Q 1816 3084 2150 3084 
Q 2853 3084 3261 2657 
Q 3669 2231 3669 1497 
Q 3669 778 3244 343 
Q 2819 -91 2113 -91 
Q 1303 -91 875 529 
Q 447 1150 447 2328 
Q 447 3434 972 4092 
Q 1497 4750 2381 4750 
Q 2619 4750 2861 4703 
Q 3103 4656 3366 4563 
z
" transform="scale(0.015625)"/>
      </defs>
      <use xlink:href="#DejaVuSans-52"/>
      <use xlink:href="#DejaVuSans-65" x="64.982422"/>
      <use xlink:href="#DejaVuSans-73" x="126.505859"/>
      <use xlink:href="#DejaVuSans-69" x="178.605469"/>
      <use xlink:href="#DejaVuSans-64" x="206.388672"/>
      <use xlink:href="#DejaVuSans-75" x="269.865234"/>
      <use xlink:href="#DejaVuSans-61" x="333.244141"/>
      <use xlink:href="#DejaVuSans-6c" x="394.523438"/>
      <use xlink:href="#DejaVuSans-20" x="422.306641"/>
      <use xlink:href="#DejaVuSans-44" x="454.09375"/>
      <use xlink:href="#DejaVuSans-69" x="531.095703"/>
      <use xlink:href="#DejaVuSans-73" x="558.878906"/>
      <use xlink:href="#DejaVuSans-70" x="610.978516"/>
      <use xlink:href="#DejaVuSans-6c" x="674.455078"/>
      <use xlink:href="#DejaVuSans-61" x="702.238281"/>
      <use xlink:href="#DejaVuSans-63" x="763.517578"/>
      <use xlink:href="#DejaVuSans-65" x="818.498047"/>
      <use xlink:href="#DejaVuSans-6d" x="880.021484"/>
      <use xlink:href="#DejaVuSans-65" x="977.433594"/>
      <use xlink:href="#DejaVuSans-6e" x="1038.957031"/>
      <use xlink:href="#DejaVuSans-74" x="1102.335938"/>
      <use xlink:href="#DejaVuSans-20" x="1141.544922"/>
      <use xlink:href="#DejaVuSans-3d" x="1173.332031"/>
      <use xlink:href="#DejaVuSans-20" x="1257.121094"/>
      <use xlink:href="#DejaVuSans-2d" x="1288.908203"/>
      <use xlink:href="#DejaVuSans-30" x="1324.992188"/>
      <use xlink:href="#DejaVuSans-2e" x="1388.615234"/>
      <use xlink:href="#DejaVuSans-30" x="1420.402344"/>
      <use xlink:href="#DejaVuSans-30" x="1484.025391"/>
      <use xlink:href="#DejaVuSans-30" x="1547.648438"/>
      <use xlink:href="#DejaVuSans-30" x="1611.271484"/>
      <use xlink:href="#DejaVuSans-30" x="1674.894531"/>
      <use xlink:href="#DejaVuSans-36" x="1738.517578"/>
      <use xlink:href="#DejaVuSans-20" x="1802.140625"/>
      <use xlink:href="#DejaVuSans-6d" x="1833.927734"/>
     </g>
    </g>
   </g>
  </g>
 </g>
 <defs>
  <clipPath id="p8b3e2ac9d7">
   <rect x="65.4375" y="21.7575" width="1004.4" height="332.64"/>
  </clipPath>
 </defs>
</svg>
