<?xml version="1.0" encoding="utf-8" standalone="no"?>
<!DOCTYPE svg PUBLIC "-//W3C//DTD SVG 1.1//EN"
  "http://www.w3.org/Graphics/SVG/1.1/DTD/svg11.dtd">
<svg xmlns:xlink="http://www.w3.org/1999/xlink" width="1054.945pt" height="562.7875pt" viewBox="0 0 1054.945 562.7875" xmlns="http://www.w3.org/2000/svg" version="1.1">
 <metadata>
  <rdf:RDF xmlns:dc="http://purl.org/dc/elements/1.1/" xmlns:cc="http://creativecommons.org/ns#" xmlns:rdf="http://www.w3.org/1999/02/22-rdf-syntax-ns#">
   <cc:Work>
    <dc:type rdf:resource="http://purl.org/dc/dcmitype/StillImage"/>
    <dc:date>2023-06-13T12:34:04.735492</dc:date>
    <dc:format>image/svg+xml</dc:format>
    <dc:creator>
     <cc:Agent>
      <dc:title>Matplotlib v3.7.1, https://matplotlib.org/</dc:title>
     </cc:Agent>
    </dc:creator>
   </cc:Work>
  </rdf:RDF>
 </metadata>
 <defs>
  <style type="text/css">*{stroke-linejoin: round; stroke-linecap: butt}</style>
 </defs>
 <g id="figure_1">
  <g id="patch_1">
   <path d="M 0 562.7875 
L 1054.945 562.7875 
L 1054.945 0 
L 0 0 
z
" style="fill: #ffffff"/>
  </g>
  <g id="axes_1">
   <g id="patch_2">
    <path d="M 46.945 520.7175 
L 1051.345 520.7175 
L 1051.345 21.7575 
L 46.945 21.7575 
z
" style="fill: #ffffff"/>
   </g>
   <g id="matplotlib.axis_1">
    <g id="xtick_1">
     <g id="line2d_1">
      <path d="M 261.48673 520.7175 
L 261.48673 21.7575 
" clip-path="url(#pe3ead6348f)" style="fill: none; stroke-dasharray: 1.85,0.8; stroke-dashoffset: 0; stroke: #000000; stroke-opacity: 0.5; stroke-width: 0.5"/>
     </g>
     <g id="line2d_2">
      <defs>
       <path id="medd5d1e58e" d="M 0 0 
L 0 -6 
" style="stroke: #000000"/>
      </defs>
      <g>
       <use xlink:href="#medd5d1e58e" x="261.48673" y="520.7175" style="stroke: #000000"/>
      </g>
     </g>
     <g id="line2d_3">
      <defs>
       <path id="m25081b7afe" d="M 0 0 
L 0 6 
" style="stroke: #000000"/>
      </defs>
      <g>
       <use xlink:href="#m25081b7afe" x="261.48673" y="21.7575" style="stroke: #000000"/>
      </g>
     </g>
     <g id="text_1">
      <!-- $\mathdefault{10^{-1}}$ -->
      <g transform="translate(242.68673 536.375) scale(0.16 -0.16)">
       <defs>
        <path id="DejaVuSans-31" d="M 794 531 
L 1825 531 
L 1825 4091 
L 703 3866 
L 703 4441 
L 1819 4666 
L 2450 4666 
L 2450 531 
L 3481 531 
L 3481 0 
L 794 0 
L 794 531 
z
" transform="scale(0.015625)"/>
        <path id="DejaVuSans-30" d="M 2034 4250 
Q 1547 4250 1301 3770 
Q 1056 3291 1056 2328 
Q 1056 1369 1301 889 
Q 1547 409 2034 409 
Q 2525 409 2770 889 
Q 3016 1369 3016 2328 
Q 3016 3291 2770 3770 
Q 2525 4250 2034 4250 
z
M 2034 4750 
Q 2819 4750 3233 4129 
Q 3647 3509 3647 2328 
Q 3647 1150 3233 529 
Q 2819 -91 2034 -91 
Q 1250 -91 836 529 
Q 422 1150 422 2328 
Q 422 3509 836 4129 
Q 1250 4750 2034 4750 
z
" transform="scale(0.015625)"/>
        <path id="DejaVuSans-2212" d="M 678 2272 
L 4684 2272 
L 4684 1741 
L 678 1741 
L 678 2272 
z
" transform="scale(0.015625)"/>
       </defs>
       <use xlink:href="#DejaVuSans-31" transform="translate(0 0.684375)"/>
       <use xlink:href="#DejaVuSans-30" transform="translate(63.623047 0.684375)"/>
       <use xlink:href="#DejaVuSans-2212" transform="translate(128.203125 38.965625) scale(0.7)"/>
       <use xlink:href="#DejaVuSans-31" transform="translate(186.855469 38.965625) scale(0.7)"/>
      </g>
     </g>
    </g>
    <g id="xtick_2">
     <g id="line2d_4">
      <path d="M 571.902287 520.7175 
L 571.902287 21.7575 
" clip-path="url(#pe3ead6348f)" style="fill: none; stroke-dasharray: 1.85,0.8; stroke-dashoffset: 0; stroke: #000000; stroke-opacity: 0.5; stroke-width: 0.5"/>
     </g>
     <g id="line2d_5">
      <g>
       <use xlink:href="#medd5d1e58e" x="571.902287" y="520.7175" style="stroke: #000000"/>
      </g>
     </g>
     <g id="line2d_6">
      <g>
       <use xlink:href="#m25081b7afe" x="571.902287" y="21.7575" style="stroke: #000000"/>
      </g>
     </g>
     <g id="text_2">
      <!-- $\mathdefault{10^{0}}$ -->
      <g transform="translate(557.822287 536.375) scale(0.16 -0.16)">
       <use xlink:href="#DejaVuSans-31" transform="translate(0 0.765625)"/>
       <use xlink:href="#DejaVuSans-30" transform="translate(63.623047 0.765625)"/>
       <use xlink:href="#DejaVuSans-30" transform="translate(128.203125 39.046875) scale(0.7)"/>
      </g>
     </g>
    </g>
    <g id="xtick_3">
     <g id="line2d_7">
      <path d="M 882.317844 520.7175 
L 882.317844 21.7575 
" clip-path="url(#pe3ead6348f)" style="fill: none; stroke-dasharray: 1.85,0.8; stroke-dashoffset: 0; stroke: #000000; stroke-opacity: 0.5; stroke-width: 0.5"/>
     </g>
     <g id="line2d_8">
      <g>
       <use xlink:href="#medd5d1e58e" x="882.317844" y="520.7175" style="stroke: #000000"/>
      </g>
     </g>
     <g id="line2d_9">
      <g>
       <use xlink:href="#m25081b7afe" x="882.317844" y="21.7575" style="stroke: #000000"/>
      </g>
     </g>
     <g id="text_3">
      <!-- $\mathdefault{10^{1}}$ -->
      <g transform="translate(868.237844 536.375) scale(0.16 -0.16)">
       <use xlink:href="#DejaVuSans-31" transform="translate(0 0.684375)"/>
       <use xlink:href="#DejaVuSans-30" transform="translate(63.623047 0.684375)"/>
       <use xlink:href="#DejaVuSans-31" transform="translate(128.203125 38.965625) scale(0.7)"/>
      </g>
     </g>
    </g>
    <g id="xtick_4">
     <g id="line2d_10">
      <defs>
       <path id="mce53629a19" d="M 0 0 
L 0 -3 
" style="stroke: #000000"/>
      </defs>
      <g>
       <use xlink:href="#mce53629a19" x="99.177034" y="520.7175" style="stroke: #000000"/>
      </g>
     </g>
     <g id="line2d_11">
      <defs>
       <path id="mb6bd4989eb" d="M 0 0 
L 0 3 
" style="stroke: #000000"/>
      </defs>
      <g>
       <use xlink:href="#mb6bd4989eb" x="99.177034" y="21.7575" style="stroke: #000000"/>
      </g>
     </g>
    </g>
    <g id="xtick_5">
     <g id="line2d_12">
      <g>
       <use xlink:href="#mce53629a19" x="137.959961" y="520.7175" style="stroke: #000000"/>
      </g>
     </g>
     <g id="line2d_13">
      <g>
       <use xlink:href="#mb6bd4989eb" x="137.959961" y="21.7575" style="stroke: #000000"/>
      </g>
     </g>
    </g>
    <g id="xtick_6">
     <g id="line2d_14">
      <g>
       <use xlink:href="#mce53629a19" x="168.042337" y="520.7175" style="stroke: #000000"/>
      </g>
     </g>
     <g id="line2d_15">
      <g>
       <use xlink:href="#mb6bd4989eb" x="168.042337" y="21.7575" style="stroke: #000000"/>
      </g>
     </g>
    </g>
    <g id="xtick_7">
     <g id="line2d_16">
      <g>
       <use xlink:href="#mce53629a19" x="192.621427" y="520.7175" style="stroke: #000000"/>
      </g>
     </g>
     <g id="line2d_17">
      <g>
       <use xlink:href="#mb6bd4989eb" x="192.621427" y="21.7575" style="stroke: #000000"/>
      </g>
     </g>
    </g>
    <g id="xtick_8">
     <g id="line2d_18">
      <g>
       <use xlink:href="#mce53629a19" x="213.402752" y="520.7175" style="stroke: #000000"/>
      </g>
     </g>
     <g id="line2d_19">
      <g>
       <use xlink:href="#mb6bd4989eb" x="213.402752" y="21.7575" style="stroke: #000000"/>
      </g>
     </g>
    </g>
    <g id="xtick_9">
     <g id="line2d_20">
      <g>
       <use xlink:href="#mce53629a19" x="231.404355" y="520.7175" style="stroke: #000000"/>
      </g>
     </g>
     <g id="line2d_21">
      <g>
       <use xlink:href="#mb6bd4989eb" x="231.404355" y="21.7575" style="stroke: #000000"/>
      </g>
     </g>
    </g>
    <g id="xtick_10">
     <g id="line2d_22">
      <g>
       <use xlink:href="#mce53629a19" x="247.282893" y="520.7175" style="stroke: #000000"/>
      </g>
     </g>
     <g id="line2d_23">
      <g>
       <use xlink:href="#mb6bd4989eb" x="247.282893" y="21.7575" style="stroke: #000000"/>
      </g>
     </g>
    </g>
    <g id="xtick_11">
     <g id="line2d_24">
      <g>
       <use xlink:href="#mce53629a19" x="354.931124" y="520.7175" style="stroke: #000000"/>
      </g>
     </g>
     <g id="line2d_25">
      <g>
       <use xlink:href="#mb6bd4989eb" x="354.931124" y="21.7575" style="stroke: #000000"/>
      </g>
     </g>
    </g>
    <g id="xtick_12">
     <g id="line2d_26">
      <g>
       <use xlink:href="#mce53629a19" x="409.59259" y="520.7175" style="stroke: #000000"/>
      </g>
     </g>
     <g id="line2d_27">
      <g>
       <use xlink:href="#mb6bd4989eb" x="409.59259" y="21.7575" style="stroke: #000000"/>
      </g>
     </g>
    </g>
    <g id="xtick_13">
     <g id="line2d_28">
      <g>
       <use xlink:href="#mce53629a19" x="448.375518" y="520.7175" style="stroke: #000000"/>
      </g>
     </g>
     <g id="line2d_29">
      <g>
       <use xlink:href="#mb6bd4989eb" x="448.375518" y="21.7575" style="stroke: #000000"/>
      </g>
     </g>
    </g>
    <g id="xtick_14">
     <g id="line2d_30">
      <g>
       <use xlink:href="#mce53629a19" x="478.457893" y="520.7175" style="stroke: #000000"/>
      </g>
     </g>
     <g id="line2d_31">
      <g>
       <use xlink:href="#mb6bd4989eb" x="478.457893" y="21.7575" style="stroke: #000000"/>
      </g>
     </g>
    </g>
    <g id="xtick_15">
     <g id="line2d_32">
      <g>
       <use xlink:href="#mce53629a19" x="503.036984" y="520.7175" style="stroke: #000000"/>
      </g>
     </g>
     <g id="line2d_33">
      <g>
       <use xlink:href="#mb6bd4989eb" x="503.036984" y="21.7575" style="stroke: #000000"/>
      </g>
     </g>
    </g>
    <g id="xtick_16">
     <g id="line2d_34">
      <g>
       <use xlink:href="#mce53629a19" x="523.818309" y="520.7175" style="stroke: #000000"/>
      </g>
     </g>
     <g id="line2d_35">
      <g>
       <use xlink:href="#mb6bd4989eb" x="523.818309" y="21.7575" style="stroke: #000000"/>
      </g>
     </g>
    </g>
    <g id="xtick_17">
     <g id="line2d_36">
      <g>
       <use xlink:href="#mce53629a19" x="541.819911" y="520.7175" style="stroke: #000000"/>
      </g>
     </g>
     <g id="line2d_37">
      <g>
       <use xlink:href="#mb6bd4989eb" x="541.819911" y="21.7575" style="stroke: #000000"/>
      </g>
     </g>
    </g>
    <g id="xtick_18">
     <g id="line2d_38">
      <g>
       <use xlink:href="#mce53629a19" x="557.69845" y="520.7175" style="stroke: #000000"/>
      </g>
     </g>
     <g id="line2d_39">
      <g>
       <use xlink:href="#mb6bd4989eb" x="557.69845" y="21.7575" style="stroke: #000000"/>
      </g>
     </g>
    </g>
    <g id="xtick_19">
     <g id="line2d_40">
      <g>
       <use xlink:href="#mce53629a19" x="665.346681" y="520.7175" style="stroke: #000000"/>
      </g>
     </g>
     <g id="line2d_41">
      <g>
       <use xlink:href="#mb6bd4989eb" x="665.346681" y="21.7575" style="stroke: #000000"/>
      </g>
     </g>
    </g>
    <g id="xtick_20">
     <g id="line2d_42">
      <g>
       <use xlink:href="#mce53629a19" x="720.008147" y="520.7175" style="stroke: #000000"/>
      </g>
     </g>
     <g id="line2d_43">
      <g>
       <use xlink:href="#mb6bd4989eb" x="720.008147" y="21.7575" style="stroke: #000000"/>
      </g>
     </g>
    </g>
    <g id="xtick_21">
     <g id="line2d_44">
      <g>
       <use xlink:href="#mce53629a19" x="758.791075" y="520.7175" style="stroke: #000000"/>
      </g>
     </g>
     <g id="line2d_45">
      <g>
       <use xlink:href="#mb6bd4989eb" x="758.791075" y="21.7575" style="stroke: #000000"/>
      </g>
     </g>
    </g>
    <g id="xtick_22">
     <g id="line2d_46">
      <g>
       <use xlink:href="#mce53629a19" x="788.87345" y="520.7175" style="stroke: #000000"/>
      </g>
     </g>
     <g id="line2d_47">
      <g>
       <use xlink:href="#mb6bd4989eb" x="788.87345" y="21.7575" style="stroke: #000000"/>
      </g>
     </g>
    </g>
    <g id="xtick_23">
     <g id="line2d_48">
      <g>
       <use xlink:href="#mce53629a19" x="813.452541" y="520.7175" style="stroke: #000000"/>
      </g>
     </g>
     <g id="line2d_49">
      <g>
       <use xlink:href="#mb6bd4989eb" x="813.452541" y="21.7575" style="stroke: #000000"/>
      </g>
     </g>
    </g>
    <g id="xtick_24">
     <g id="line2d_50">
      <g>
       <use xlink:href="#mce53629a19" x="834.233866" y="520.7175" style="stroke: #000000"/>
      </g>
     </g>
     <g id="line2d_51">
      <g>
       <use xlink:href="#mb6bd4989eb" x="834.233866" y="21.7575" style="stroke: #000000"/>
      </g>
     </g>
    </g>
    <g id="xtick_25">
     <g id="line2d_52">
      <g>
       <use xlink:href="#mce53629a19" x="852.235468" y="520.7175" style="stroke: #000000"/>
      </g>
     </g>
     <g id="line2d_53">
      <g>
       <use xlink:href="#mb6bd4989eb" x="852.235468" y="21.7575" style="stroke: #000000"/>
      </g>
     </g>
    </g>
    <g id="xtick_26">
     <g id="line2d_54">
      <g>
       <use xlink:href="#mce53629a19" x="868.114007" y="520.7175" style="stroke: #000000"/>
      </g>
     </g>
     <g id="line2d_55">
      <g>
       <use xlink:href="#mb6bd4989eb" x="868.114007" y="21.7575" style="stroke: #000000"/>
      </g>
     </g>
    </g>
    <g id="xtick_27">
     <g id="line2d_56">
      <g>
       <use xlink:href="#mce53629a19" x="975.762238" y="520.7175" style="stroke: #000000"/>
      </g>
     </g>
     <g id="line2d_57">
      <g>
       <use xlink:href="#mb6bd4989eb" x="975.762238" y="21.7575" style="stroke: #000000"/>
      </g>
     </g>
    </g>
    <g id="xtick_28">
     <g id="line2d_58">
      <g>
       <use xlink:href="#mce53629a19" x="1030.423704" y="520.7175" style="stroke: #000000"/>
      </g>
     </g>
     <g id="line2d_59">
      <g>
       <use xlink:href="#mb6bd4989eb" x="1030.423704" y="21.7575" style="stroke: #000000"/>
      </g>
     </g>
    </g>
    <g id="text_4">
     <!-- Frequency (Hz) -->
     <g transform="translate(488.8175 555.86) scale(0.16 -0.16)">
      <defs>
       <path id="DejaVuSans-46" d="M 628 4666 
L 3309 4666 
L 3309 4134 
L 1259 4134 
L 1259 2759 
L 3109 2759 
L 3109 2228 
L 1259 2228 
L 1259 0 
L 628 0 
L 628 4666 
z
" transform="scale(0.015625)"/>
       <path id="DejaVuSans-72" d="M 2631 2963 
Q 2534 3019 2420 3045 
Q 2306 3072 2169 3072 
Q 1681 3072 1420 2755 
Q 1159 2438 1159 1844 
L 1159 0 
L 581 0 
L 581 3500 
L 1159 3500 
L 1159 2956 
Q 1341 3275 1631 3429 
Q 1922 3584 2338 3584 
Q 2397 3584 2469 3576 
Q 2541 3569 2628 3553 
L 2631 2963 
z
" transform="scale(0.015625)"/>
       <path id="DejaVuSans-65" d="M 3597 1894 
L 3597 1613 
L 953 1613 
Q 991 1019 1311 708 
Q 1631 397 2203 397 
Q 2534 397 2845 478 
Q 3156 559 3463 722 
L 3463 178 
Q 3153 47 2828 -22 
Q 2503 -91 2169 -91 
Q 1331 -91 842 396 
Q 353 884 353 1716 
Q 353 2575 817 3079 
Q 1281 3584 2069 3584 
Q 2775 3584 3186 3129 
Q 3597 2675 3597 1894 
z
M 3022 2063 
Q 3016 2534 2758 2815 
Q 2500 3097 2075 3097 
Q 1594 3097 1305 2825 
Q 1016 2553 972 2059 
L 3022 2063 
z
" transform="scale(0.015625)"/>
       <path id="DejaVuSans-71" d="M 947 1747 
Q 947 1113 1208 752 
Q 1469 391 1925 391 
Q 2381 391 2643 752 
Q 2906 1113 2906 1747 
Q 2906 2381 2643 2742 
Q 2381 3103 1925 3103 
Q 1469 3103 1208 2742 
Q 947 2381 947 1747 
z
M 2906 525 
Q 2725 213 2448 61 
Q 2172 -91 1784 -91 
Q 1150 -91 751 415 
Q 353 922 353 1747 
Q 353 2572 751 3078 
Q 1150 3584 1784 3584 
Q 2172 3584 2448 3432 
Q 2725 3281 2906 2969 
L 2906 3500 
L 3481 3500 
L 3481 -1331 
L 2906 -1331 
L 2906 525 
z
" transform="scale(0.015625)"/>
       <path id="DejaVuSans-75" d="M 544 1381 
L 544 3500 
L 1119 3500 
L 1119 1403 
Q 1119 906 1312 657 
Q 1506 409 1894 409 
Q 2359 409 2629 706 
Q 2900 1003 2900 1516 
L 2900 3500 
L 3475 3500 
L 3475 0 
L 2900 0 
L 2900 538 
Q 2691 219 2414 64 
Q 2138 -91 1772 -91 
Q 1169 -91 856 284 
Q 544 659 544 1381 
z
M 1991 3584 
L 1991 3584 
z
" transform="scale(0.015625)"/>
       <path id="DejaVuSans-6e" d="M 3513 2113 
L 3513 0 
L 2938 0 
L 2938 2094 
Q 2938 2591 2744 2837 
Q 2550 3084 2163 3084 
Q 1697 3084 1428 2787 
Q 1159 2491 1159 1978 
L 1159 0 
L 581 0 
L 581 3500 
L 1159 3500 
L 1159 2956 
Q 1366 3272 1645 3428 
Q 1925 3584 2291 3584 
Q 2894 3584 3203 3211 
Q 3513 2838 3513 2113 
z
" transform="scale(0.015625)"/>
       <path id="DejaVuSans-63" d="M 3122 3366 
L 3122 2828 
Q 2878 2963 2633 3030 
Q 2388 3097 2138 3097 
Q 1578 3097 1268 2742 
Q 959 2388 959 1747 
Q 959 1106 1268 751 
Q 1578 397 2138 397 
Q 2388 397 2633 464 
Q 2878 531 3122 666 
L 3122 134 
Q 2881 22 2623 -34 
Q 2366 -91 2075 -91 
Q 1284 -91 818 406 
Q 353 903 353 1747 
Q 353 2603 823 3093 
Q 1294 3584 2113 3584 
Q 2378 3584 2631 3529 
Q 2884 3475 3122 3366 
z
" transform="scale(0.015625)"/>
       <path id="DejaVuSans-79" d="M 2059 -325 
Q 1816 -950 1584 -1140 
Q 1353 -1331 966 -1331 
L 506 -1331 
L 506 -850 
L 844 -850 
Q 1081 -850 1212 -737 
Q 1344 -625 1503 -206 
L 1606 56 
L 191 3500 
L 800 3500 
L 1894 763 
L 2988 3500 
L 3597 3500 
L 2059 -325 
z
" transform="scale(0.015625)"/>
       <path id="DejaVuSans-20" transform="scale(0.015625)"/>
       <path id="DejaVuSans-28" d="M 1984 4856 
Q 1566 4138 1362 3434 
Q 1159 2731 1159 2009 
Q 1159 1288 1364 580 
Q 1569 -128 1984 -844 
L 1484 -844 
Q 1016 -109 783 600 
Q 550 1309 550 2009 
Q 550 2706 781 3412 
Q 1013 4119 1484 4856 
L 1984 4856 
z
" transform="scale(0.015625)"/>
       <path id="DejaVuSans-48" d="M 628 4666 
L 1259 4666 
L 1259 2753 
L 3553 2753 
L 3553 4666 
L 4184 4666 
L 4184 0 
L 3553 0 
L 3553 2222 
L 1259 2222 
L 1259 0 
L 628 0 
L 628 4666 
z
" transform="scale(0.015625)"/>
       <path id="DejaVuSans-7a" d="M 353 3500 
L 3084 3500 
L 3084 2975 
L 922 459 
L 3084 459 
L 3084 0 
L 275 0 
L 275 525 
L 2438 3041 
L 353 3041 
L 353 3500 
z
" transform="scale(0.015625)"/>
       <path id="DejaVuSans-29" d="M 513 4856 
L 1013 4856 
Q 1481 4119 1714 3412 
Q 1947 2706 1947 2009 
Q 1947 1309 1714 600 
Q 1481 -109 1013 -844 
L 513 -844 
Q 928 -128 1133 580 
Q 1338 1288 1338 2009 
Q 1338 2731 1133 3434 
Q 928 4138 513 4856 
z
" transform="scale(0.015625)"/>
      </defs>
      <use xlink:href="#DejaVuSans-46"/>
      <use xlink:href="#DejaVuSans-72" x="50.269531"/>
      <use xlink:href="#DejaVuSans-65" x="89.132812"/>
      <use xlink:href="#DejaVuSans-71" x="150.65625"/>
      <use xlink:href="#DejaVuSans-75" x="214.132812"/>
      <use xlink:href="#DejaVuSans-65" x="277.511719"/>
      <use xlink:href="#DejaVuSans-6e" x="339.035156"/>
      <use xlink:href="#DejaVuSans-63" x="402.414062"/>
      <use xlink:href="#DejaVuSans-79" x="457.394531"/>
      <use xlink:href="#DejaVuSans-20" x="516.574219"/>
      <use xlink:href="#DejaVuSans-28" x="548.361328"/>
      <use xlink:href="#DejaVuSans-48" x="587.375"/>
      <use xlink:href="#DejaVuSans-7a" x="662.570312"/>
      <use xlink:href="#DejaVuSans-29" x="715.060547"/>
     </g>
    </g>
   </g>
   <g id="matplotlib.axis_2">
    <g id="ytick_1">
     <g id="line2d_60">
      <path d="M 46.945 498.055324 
L 1051.345 498.055324 
" clip-path="url(#pe3ead6348f)" style="fill: none; stroke-dasharray: 1.85,0.8; stroke-dashoffset: 0; stroke: #000000; stroke-opacity: 0.5; stroke-width: 0.5"/>
     </g>
     <g id="line2d_61">
      <defs>
       <path id="m4f4321efe5" d="M 0 0 
L 6 0 
" style="stroke: #000000"/>
      </defs>
      <g>
       <use xlink:href="#m4f4321efe5" x="46.945" y="498.055324" style="stroke: #000000"/>
      </g>
     </g>
     <g id="line2d_62">
      <defs>
       <path id="mfe95c09165" d="M 0 0 
L -6 0 
" style="stroke: #000000"/>
      </defs>
      <g>
       <use xlink:href="#mfe95c09165" x="1051.345" y="498.055324" style="stroke: #000000"/>
      </g>
     </g>
     <g id="text_5">
      <!-- 0 -->
      <g transform="translate(33.265 504.134074) scale(0.16 -0.16)">
       <use xlink:href="#DejaVuSans-30"/>
      </g>
     </g>
    </g>
    <g id="ytick_2">
     <g id="line2d_63">
      <path d="M 46.945 412.82548 
L 1051.345 412.82548 
" clip-path="url(#pe3ead6348f)" style="fill: none; stroke-dasharray: 1.85,0.8; stroke-dashoffset: 0; stroke: #000000; stroke-opacity: 0.5; stroke-width: 0.5"/>
     </g>
     <g id="line2d_64">
      <g>
       <use xlink:href="#m4f4321efe5" x="46.945" y="412.82548" style="stroke: #000000"/>
      </g>
     </g>
     <g id="line2d_65">
      <g>
       <use xlink:href="#mfe95c09165" x="1051.345" y="412.82548" style="stroke: #000000"/>
      </g>
     </g>
     <g id="text_6">
      <!-- 10 -->
      <g transform="translate(23.085 418.90423) scale(0.16 -0.16)">
       <use xlink:href="#DejaVuSans-31"/>
       <use xlink:href="#DejaVuSans-30" x="63.623047"/>
      </g>
     </g>
    </g>
    <g id="ytick_3">
     <g id="line2d_66">
      <path d="M 46.945 327.595637 
L 1051.345 327.595637 
" clip-path="url(#pe3ead6348f)" style="fill: none; stroke-dasharray: 1.85,0.8; stroke-dashoffset: 0; stroke: #000000; stroke-opacity: 0.5; stroke-width: 0.5"/>
     </g>
     <g id="line2d_67">
      <g>
       <use xlink:href="#m4f4321efe5" x="46.945" y="327.595637" style="stroke: #000000"/>
      </g>
     </g>
     <g id="line2d_68">
      <g>
       <use xlink:href="#mfe95c09165" x="1051.345" y="327.595637" style="stroke: #000000"/>
      </g>
     </g>
     <g id="text_7">
      <!-- 20 -->
      <g transform="translate(23.085 333.674387) scale(0.16 -0.16)">
       <defs>
        <path id="DejaVuSans-32" d="M 1228 531 
L 3431 531 
L 3431 0 
L 469 0 
L 469 531 
Q 828 903 1448 1529 
Q 2069 2156 2228 2338 
Q 2531 2678 2651 2914 
Q 2772 3150 2772 3378 
Q 2772 3750 2511 3984 
Q 2250 4219 1831 4219 
Q 1534 4219 1204 4116 
Q 875 4013 500 3803 
L 500 4441 
Q 881 4594 1212 4672 
Q 1544 4750 1819 4750 
Q 2544 4750 2975 4387 
Q 3406 4025 3406 3419 
Q 3406 3131 3298 2873 
Q 3191 2616 2906 2266 
Q 2828 2175 2409 1742 
Q 1991 1309 1228 531 
z
" transform="scale(0.015625)"/>
       </defs>
       <use xlink:href="#DejaVuSans-32"/>
       <use xlink:href="#DejaVuSans-30" x="63.623047"/>
      </g>
     </g>
    </g>
    <g id="ytick_4">
     <g id="line2d_69">
      <path d="M 46.945 242.365793 
L 1051.345 242.365793 
" clip-path="url(#pe3ead6348f)" style="fill: none; stroke-dasharray: 1.85,0.8; stroke-dashoffset: 0; stroke: #000000; stroke-opacity: 0.5; stroke-width: 0.5"/>
     </g>
     <g id="line2d_70">
      <g>
       <use xlink:href="#m4f4321efe5" x="46.945" y="242.365793" style="stroke: #000000"/>
      </g>
     </g>
     <g id="line2d_71">
      <g>
       <use xlink:href="#mfe95c09165" x="1051.345" y="242.365793" style="stroke: #000000"/>
      </g>
     </g>
     <g id="text_8">
      <!-- 30 -->
      <g transform="translate(23.085 248.444543) scale(0.16 -0.16)">
       <defs>
        <path id="DejaVuSans-33" d="M 2597 2516 
Q 3050 2419 3304 2112 
Q 3559 1806 3559 1356 
Q 3559 666 3084 287 
Q 2609 -91 1734 -91 
Q 1441 -91 1130 -33 
Q 819 25 488 141 
L 488 750 
Q 750 597 1062 519 
Q 1375 441 1716 441 
Q 2309 441 2620 675 
Q 2931 909 2931 1356 
Q 2931 1769 2642 2001 
Q 2353 2234 1838 2234 
L 1294 2234 
L 1294 2753 
L 1863 2753 
Q 2328 2753 2575 2939 
Q 2822 3125 2822 3475 
Q 2822 3834 2567 4026 
Q 2313 4219 1838 4219 
Q 1578 4219 1281 4162 
Q 984 4106 628 3988 
L 628 4550 
Q 988 4650 1302 4700 
Q 1616 4750 1894 4750 
Q 2613 4750 3031 4423 
Q 3450 4097 3450 3541 
Q 3450 3153 3228 2886 
Q 3006 2619 2597 2516 
z
" transform="scale(0.015625)"/>
       </defs>
       <use xlink:href="#DejaVuSans-33"/>
       <use xlink:href="#DejaVuSans-30" x="63.623047"/>
      </g>
     </g>
    </g>
    <g id="ytick_5">
     <g id="line2d_72">
      <path d="M 46.945 157.135949 
L 1051.345 157.135949 
" clip-path="url(#pe3ead6348f)" style="fill: none; stroke-dasharray: 1.85,0.8; stroke-dashoffset: 0; stroke: #000000; stroke-opacity: 0.5; stroke-width: 0.5"/>
     </g>
     <g id="line2d_73">
      <g>
       <use xlink:href="#m4f4321efe5" x="46.945" y="157.135949" style="stroke: #000000"/>
      </g>
     </g>
     <g id="line2d_74">
      <g>
       <use xlink:href="#mfe95c09165" x="1051.345" y="157.135949" style="stroke: #000000"/>
      </g>
     </g>
     <g id="text_9">
      <!-- 40 -->
      <g transform="translate(23.085 163.214699) scale(0.16 -0.16)">
       <defs>
        <path id="DejaVuSans-34" d="M 2419 4116 
L 825 1625 
L 2419 1625 
L 2419 4116 
z
M 2253 4666 
L 3047 4666 
L 3047 1625 
L 3713 1625 
L 3713 1100 
L 3047 1100 
L 3047 0 
L 2419 0 
L 2419 1100 
L 313 1100 
L 313 1709 
L 2253 4666 
z
" transform="scale(0.015625)"/>
       </defs>
       <use xlink:href="#DejaVuSans-34"/>
       <use xlink:href="#DejaVuSans-30" x="63.623047"/>
      </g>
     </g>
    </g>
    <g id="ytick_6">
     <g id="line2d_75">
      <path d="M 46.945 71.906105 
L 1051.345 71.906105 
" clip-path="url(#pe3ead6348f)" style="fill: none; stroke-dasharray: 1.85,0.8; stroke-dashoffset: 0; stroke: #000000; stroke-opacity: 0.5; stroke-width: 0.5"/>
     </g>
     <g id="line2d_76">
      <g>
       <use xlink:href="#m4f4321efe5" x="46.945" y="71.906105" style="stroke: #000000"/>
      </g>
     </g>
     <g id="line2d_77">
      <g>
       <use xlink:href="#mfe95c09165" x="1051.345" y="71.906105" style="stroke: #000000"/>
      </g>
     </g>
     <g id="text_10">
      <!-- 50 -->
      <g transform="translate(23.085 77.984855) scale(0.16 -0.16)">
       <defs>
        <path id="DejaVuSans-35" d="M 691 4666 
L 3169 4666 
L 3169 4134 
L 1269 4134 
L 1269 2991 
Q 1406 3038 1543 3061 
Q 1681 3084 1819 3084 
Q 2600 3084 3056 2656 
Q 3513 2228 3513 1497 
Q 3513 744 3044 326 
Q 2575 -91 1722 -91 
Q 1428 -91 1123 -41 
Q 819 9 494 109 
L 494 744 
Q 775 591 1075 516 
Q 1375 441 1709 441 
Q 2250 441 2565 725 
Q 2881 1009 2881 1497 
Q 2881 1984 2565 2268 
Q 2250 2553 1709 2553 
Q 1456 2553 1204 2497 
Q 953 2441 691 2322 
L 691 4666 
z
" transform="scale(0.015625)"/>
       </defs>
       <use xlink:href="#DejaVuSans-35"/>
       <use xlink:href="#DejaVuSans-30" x="63.623047"/>
      </g>
     </g>
    </g>
    <g id="ytick_7">
     <g id="line2d_78">
      <defs>
       <path id="m1d65e83c16" d="M 0 0 
L 3 0 
" style="stroke: #000000"/>
      </defs>
      <g>
       <use xlink:href="#m1d65e83c16" x="46.945" y="515.101293" style="stroke: #000000"/>
      </g>
     </g>
     <g id="line2d_79">
      <defs>
       <path id="m9acc3810df" d="M 0 0 
L -3 0 
" style="stroke: #000000"/>
      </defs>
      <g>
       <use xlink:href="#m9acc3810df" x="1051.345" y="515.101293" style="stroke: #000000"/>
      </g>
     </g>
    </g>
    <g id="ytick_8">
     <g id="line2d_80">
      <g>
       <use xlink:href="#m1d65e83c16" x="46.945" y="481.009355" style="stroke: #000000"/>
      </g>
     </g>
     <g id="line2d_81">
      <g>
       <use xlink:href="#m9acc3810df" x="1051.345" y="481.009355" style="stroke: #000000"/>
      </g>
     </g>
    </g>
    <g id="ytick_9">
     <g id="line2d_82">
      <g>
       <use xlink:href="#m1d65e83c16" x="46.945" y="463.963387" style="stroke: #000000"/>
      </g>
     </g>
     <g id="line2d_83">
      <g>
       <use xlink:href="#m9acc3810df" x="1051.345" y="463.963387" style="stroke: #000000"/>
      </g>
     </g>
    </g>
    <g id="ytick_10">
     <g id="line2d_84">
      <g>
       <use xlink:href="#m1d65e83c16" x="46.945" y="446.917418" style="stroke: #000000"/>
      </g>
     </g>
     <g id="line2d_85">
      <g>
       <use xlink:href="#m9acc3810df" x="1051.345" y="446.917418" style="stroke: #000000"/>
      </g>
     </g>
    </g>
    <g id="ytick_11">
     <g id="line2d_86">
      <g>
       <use xlink:href="#m1d65e83c16" x="46.945" y="429.871449" style="stroke: #000000"/>
      </g>
     </g>
     <g id="line2d_87">
      <g>
       <use xlink:href="#m9acc3810df" x="1051.345" y="429.871449" style="stroke: #000000"/>
      </g>
     </g>
    </g>
    <g id="ytick_12">
     <g id="line2d_88">
      <g>
       <use xlink:href="#m1d65e83c16" x="46.945" y="395.779512" style="stroke: #000000"/>
      </g>
     </g>
     <g id="line2d_89">
      <g>
       <use xlink:href="#m9acc3810df" x="1051.345" y="395.779512" style="stroke: #000000"/>
      </g>
     </g>
    </g>
    <g id="ytick_13">
     <g id="line2d_90">
      <g>
       <use xlink:href="#m1d65e83c16" x="46.945" y="378.733543" style="stroke: #000000"/>
      </g>
     </g>
     <g id="line2d_91">
      <g>
       <use xlink:href="#m9acc3810df" x="1051.345" y="378.733543" style="stroke: #000000"/>
      </g>
     </g>
    </g>
    <g id="ytick_14">
     <g id="line2d_92">
      <g>
       <use xlink:href="#m1d65e83c16" x="46.945" y="361.687574" style="stroke: #000000"/>
      </g>
     </g>
     <g id="line2d_93">
      <g>
       <use xlink:href="#m9acc3810df" x="1051.345" y="361.687574" style="stroke: #000000"/>
      </g>
     </g>
    </g>
    <g id="ytick_15">
     <g id="line2d_94">
      <g>
       <use xlink:href="#m1d65e83c16" x="46.945" y="344.641605" style="stroke: #000000"/>
      </g>
     </g>
     <g id="line2d_95">
      <g>
       <use xlink:href="#m9acc3810df" x="1051.345" y="344.641605" style="stroke: #000000"/>
      </g>
     </g>
    </g>
    <g id="ytick_16">
     <g id="line2d_96">
      <g>
       <use xlink:href="#m1d65e83c16" x="46.945" y="310.549668" style="stroke: #000000"/>
      </g>
     </g>
     <g id="line2d_97">
      <g>
       <use xlink:href="#m9acc3810df" x="1051.345" y="310.549668" style="stroke: #000000"/>
      </g>
     </g>
    </g>
    <g id="ytick_17">
     <g id="line2d_98">
      <g>
       <use xlink:href="#m1d65e83c16" x="46.945" y="293.503699" style="stroke: #000000"/>
      </g>
     </g>
     <g id="line2d_99">
      <g>
       <use xlink:href="#m9acc3810df" x="1051.345" y="293.503699" style="stroke: #000000"/>
      </g>
     </g>
    </g>
    <g id="ytick_18">
     <g id="line2d_100">
      <g>
       <use xlink:href="#m1d65e83c16" x="46.945" y="276.45773" style="stroke: #000000"/>
      </g>
     </g>
     <g id="line2d_101">
      <g>
       <use xlink:href="#m9acc3810df" x="1051.345" y="276.45773" style="stroke: #000000"/>
      </g>
     </g>
    </g>
    <g id="ytick_19">
     <g id="line2d_102">
      <g>
       <use xlink:href="#m1d65e83c16" x="46.945" y="259.411762" style="stroke: #000000"/>
      </g>
     </g>
     <g id="line2d_103">
      <g>
       <use xlink:href="#m9acc3810df" x="1051.345" y="259.411762" style="stroke: #000000"/>
      </g>
     </g>
    </g>
    <g id="ytick_20">
     <g id="line2d_104">
      <g>
       <use xlink:href="#m1d65e83c16" x="46.945" y="225.319824" style="stroke: #000000"/>
      </g>
     </g>
     <g id="line2d_105">
      <g>
       <use xlink:href="#m9acc3810df" x="1051.345" y="225.319824" style="stroke: #000000"/>
      </g>
     </g>
    </g>
    <g id="ytick_21">
     <g id="line2d_106">
      <g>
       <use xlink:href="#m1d65e83c16" x="46.945" y="208.273855" style="stroke: #000000"/>
      </g>
     </g>
     <g id="line2d_107">
      <g>
       <use xlink:href="#m9acc3810df" x="1051.345" y="208.273855" style="stroke: #000000"/>
      </g>
     </g>
    </g>
    <g id="ytick_22">
     <g id="line2d_108">
      <g>
       <use xlink:href="#m1d65e83c16" x="46.945" y="191.227887" style="stroke: #000000"/>
      </g>
     </g>
     <g id="line2d_109">
      <g>
       <use xlink:href="#m9acc3810df" x="1051.345" y="191.227887" style="stroke: #000000"/>
      </g>
     </g>
    </g>
    <g id="ytick_23">
     <g id="line2d_110">
      <g>
       <use xlink:href="#m1d65e83c16" x="46.945" y="174.181918" style="stroke: #000000"/>
      </g>
     </g>
     <g id="line2d_111">
      <g>
       <use xlink:href="#m9acc3810df" x="1051.345" y="174.181918" style="stroke: #000000"/>
      </g>
     </g>
    </g>
    <g id="ytick_24">
     <g id="line2d_112">
      <g>
       <use xlink:href="#m1d65e83c16" x="46.945" y="140.08998" style="stroke: #000000"/>
      </g>
     </g>
     <g id="line2d_113">
      <g>
       <use xlink:href="#m9acc3810df" x="1051.345" y="140.08998" style="stroke: #000000"/>
      </g>
     </g>
    </g>
    <g id="ytick_25">
     <g id="line2d_114">
      <g>
       <use xlink:href="#m1d65e83c16" x="46.945" y="123.044012" style="stroke: #000000"/>
      </g>
     </g>
     <g id="line2d_115">
      <g>
       <use xlink:href="#m9acc3810df" x="1051.345" y="123.044012" style="stroke: #000000"/>
      </g>
     </g>
    </g>
    <g id="ytick_26">
     <g id="line2d_116">
      <g>
       <use xlink:href="#m1d65e83c16" x="46.945" y="105.998043" style="stroke: #000000"/>
      </g>
     </g>
     <g id="line2d_117">
      <g>
       <use xlink:href="#m9acc3810df" x="1051.345" y="105.998043" style="stroke: #000000"/>
      </g>
     </g>
    </g>
    <g id="ytick_27">
     <g id="line2d_118">
      <g>
       <use xlink:href="#m1d65e83c16" x="46.945" y="88.952074" style="stroke: #000000"/>
      </g>
     </g>
     <g id="line2d_119">
      <g>
       <use xlink:href="#m9acc3810df" x="1051.345" y="88.952074" style="stroke: #000000"/>
      </g>
     </g>
    </g>
    <g id="ytick_28">
     <g id="line2d_120">
      <g>
       <use xlink:href="#m1d65e83c16" x="46.945" y="54.860137" style="stroke: #000000"/>
      </g>
     </g>
     <g id="line2d_121">
      <g>
       <use xlink:href="#m9acc3810df" x="1051.345" y="54.860137" style="stroke: #000000"/>
      </g>
     </g>
    </g>
    <g id="ytick_29">
     <g id="line2d_122">
      <g>
       <use xlink:href="#m1d65e83c16" x="46.945" y="37.814168" style="stroke: #000000"/>
      </g>
     </g>
     <g id="line2d_123">
      <g>
       <use xlink:href="#m9acc3810df" x="1051.345" y="37.814168" style="stroke: #000000"/>
      </g>
     </g>
    </g>
    <g id="text_11">
     <!-- Frequency Amplitude -->
     <g transform="translate(15.7575 356.10375) rotate(-90) scale(0.16 -0.16)">
      <defs>
       <path id="DejaVuSans-41" d="M 2188 4044 
L 1331 1722 
L 3047 1722 
L 2188 4044 
z
M 1831 4666 
L 2547 4666 
L 4325 0 
L 3669 0 
L 3244 1197 
L 1141 1197 
L 716 0 
L 50 0 
L 1831 4666 
z
" transform="scale(0.015625)"/>
       <path id="DejaVuSans-6d" d="M 3328 2828 
Q 3544 3216 3844 3400 
Q 4144 3584 4550 3584 
Q 5097 3584 5394 3201 
Q 5691 2819 5691 2113 
L 5691 0 
L 5113 0 
L 5113 2094 
Q 5113 2597 4934 2840 
Q 4756 3084 4391 3084 
Q 3944 3084 3684 2787 
Q 3425 2491 3425 1978 
L 3425 0 
L 2847 0 
L 2847 2094 
Q 2847 2600 2669 2842 
Q 2491 3084 2119 3084 
Q 1678 3084 1418 2786 
Q 1159 2488 1159 1978 
L 1159 0 
L 581 0 
L 581 3500 
L 1159 3500 
L 1159 2956 
Q 1356 3278 1631 3431 
Q 1906 3584 2284 3584 
Q 2666 3584 2933 3390 
Q 3200 3197 3328 2828 
z
" transform="scale(0.015625)"/>
       <path id="DejaVuSans-70" d="M 1159 525 
L 1159 -1331 
L 581 -1331 
L 581 3500 
L 1159 3500 
L 1159 2969 
Q 1341 3281 1617 3432 
Q 1894 3584 2278 3584 
Q 2916 3584 3314 3078 
Q 3713 2572 3713 1747 
Q 3713 922 3314 415 
Q 2916 -91 2278 -91 
Q 1894 -91 1617 61 
Q 1341 213 1159 525 
z
M 3116 1747 
Q 3116 2381 2855 2742 
Q 2594 3103 2138 3103 
Q 1681 3103 1420 2742 
Q 1159 2381 1159 1747 
Q 1159 1113 1420 752 
Q 1681 391 2138 391 
Q 2594 391 2855 752 
Q 3116 1113 3116 1747 
z
" transform="scale(0.015625)"/>
       <path id="DejaVuSans-6c" d="M 603 4863 
L 1178 4863 
L 1178 0 
L 603 0 
L 603 4863 
z
" transform="scale(0.015625)"/>
       <path id="DejaVuSans-69" d="M 603 3500 
L 1178 3500 
L 1178 0 
L 603 0 
L 603 3500 
z
M 603 4863 
L 1178 4863 
L 1178 4134 
L 603 4134 
L 603 4863 
z
" transform="scale(0.015625)"/>
       <path id="DejaVuSans-74" d="M 1172 4494 
L 1172 3500 
L 2356 3500 
L 2356 3053 
L 1172 3053 
L 1172 1153 
Q 1172 725 1289 603 
Q 1406 481 1766 481 
L 2356 481 
L 2356 0 
L 1766 0 
Q 1100 0 847 248 
Q 594 497 594 1153 
L 594 3053 
L 172 3053 
L 172 3500 
L 594 3500 
L 594 4494 
L 1172 4494 
z
" transform="scale(0.015625)"/>
       <path id="DejaVuSans-64" d="M 2906 2969 
L 2906 4863 
L 3481 4863 
L 3481 0 
L 2906 0 
L 2906 525 
Q 2725 213 2448 61 
Q 2172 -91 1784 -91 
Q 1150 -91 751 415 
Q 353 922 353 1747 
Q 353 2572 751 3078 
Q 1150 3584 1784 3584 
Q 2172 3584 2448 3432 
Q 2725 3281 2906 2969 
z
M 947 1747 
Q 947 1113 1208 752 
Q 1469 391 1925 391 
Q 2381 391 2643 752 
Q 2906 1113 2906 1747 
Q 2906 2381 2643 2742 
Q 2381 3103 1925 3103 
Q 1469 3103 1208 2742 
Q 947 2381 947 1747 
z
" transform="scale(0.015625)"/>
      </defs>
      <use xlink:href="#DejaVuSans-46"/>
      <use xlink:href="#DejaVuSans-72" x="50.269531"/>
      <use xlink:href="#DejaVuSans-65" x="89.132812"/>
      <use xlink:href="#DejaVuSans-71" x="150.65625"/>
      <use xlink:href="#DejaVuSans-75" x="214.132812"/>
      <use xlink:href="#DejaVuSans-65" x="277.511719"/>
      <use xlink:href="#DejaVuSans-6e" x="339.035156"/>
      <use xlink:href="#DejaVuSans-63" x="402.414062"/>
      <use xlink:href="#DejaVuSans-79" x="457.394531"/>
      <use xlink:href="#DejaVuSans-20" x="516.574219"/>
      <use xlink:href="#DejaVuSans-41" x="548.361328"/>
      <use xlink:href="#DejaVuSans-6d" x="616.769531"/>
      <use xlink:href="#DejaVuSans-70" x="714.181641"/>
      <use xlink:href="#DejaVuSans-6c" x="777.658203"/>
      <use xlink:href="#DejaVuSans-69" x="805.441406"/>
      <use xlink:href="#DejaVuSans-74" x="833.224609"/>
      <use xlink:href="#DejaVuSans-75" x="872.433594"/>
      <use xlink:href="#DejaVuSans-64" x="935.8125"/>
      <use xlink:href="#DejaVuSans-65" x="999.289062"/>
     </g>
    </g>
   </g>
   <g id="line2d_124">
    <path d="M -1 497.626871 
L 92.599545 497.626747 
L 186.043939 493.284907 
L 240.705405 483.629597 
L 279.488333 483.220223 
L 309.570709 439.112098 
L 334.149799 296.222898 
L 354.931124 300.431662 
L 372.932727 395.584561 
L 388.811265 407.282855 
L 403.015102 400.737877 
L 415.864036 389.104186 
L 427.594193 432.541645 
L 438.384891 320.047717 
L 448.375518 364.686601 
L 457.676568 400.310672 
L 466.37712 414.204632 
L 474.550032 324.606101 
L 482.255659 299.471378 
L 489.544556 207.112294 
L 496.459496 294.603143 
L 503.036984 306.39517 
L 509.308429 208.233142 
L 515.30105 118.544392 
L 521.038587 333.362236 
L 526.541872 474.727081 
L 531.829285 399.941066 
L 536.917125 272.96464 
L 541.819911 215.378734 
L 546.550634 450.809969 
L 551.120962 404.911811 
L 555.541416 412.135757 
L 559.821514 389.177002 
L 563.969896 447.25237 
L 567.994426 363.586202 
L 571.902287 270.738811 
L 575.700053 143.931688 
L 579.393757 230.765871 
L 582.98895 197.500533 
L 586.490751 240.038452 
L 589.90389 308.385987 
L 593.232744 382.39358 
L 596.481378 344.006184 
L 599.653566 336.390694 
L 602.752823 301.960344 
L 605.782428 393.435166 
L 608.745444 380.970512 
L 611.644733 402.913202 
L 614.48298 438.755184 
L 617.262703 357.690711 
L 619.986265 309.601584 
L 622.655892 449.184871 
L 625.273679 414.068855 
L 627.8416 367.151262 
L 630.361519 350.39186 
L 632.835199 275.156156 
L 635.264305 459.746821 
L 637.650416 358.115083 
L 639.995028 320.91958 
L 642.299559 377.048505 
L 644.565356 436.210968 
L 646.7937 215.005221 
L 648.98581 198.930661 
L 651.142844 389.010934 
L 653.265908 316.729795 
L 655.356054 49.622377 
L 657.414289 222.312497 
L 659.441572 44.4375 
L 661.43882 240.772869 
L 663.40691 148.079061 
L 665.346681 87.381048 
L 667.258936 250.368356 
L 669.144446 289.268868 
L 671.003949 418.778285 
L 672.83815 328.363583 
L 674.647731 284.350393 
L 676.433344 254.92809 
L 678.195614 383.6437 
L 679.935145 405.376075 
L 681.652516 467.006047 
L 683.348283 312.469594 
L 685.022985 468.472886 
L 686.677138 393.278581 
L 688.31124 356.702957 
L 689.925771 368.842669 
L 691.521196 324.127187 
L 693.097959 289.788794 
L 694.656494 372.690188 
L 696.197217 470.808472 
L 697.72053 436.704322 
L 699.226822 438.392685 
L 700.71647 410.287945 
L 702.189837 452.420242 
L 703.647276 454.8379 
L 705.089127 398.520896 
L 706.51572 422.08074 
L 707.927374 433.011046 
L 709.3244 374.133048 
L 710.707096 358.521101 
L 712.075755 389.721763 
L 713.430659 443.619999 
L 714.772081 414.553175 
L 716.100286 373.229388 
L 717.415533 352.877519 
L 718.718072 335.988728 
L 720.008147 405.418547 
L 721.285993 440.570533 
L 722.551841 433.226881 
L 723.805913 437.245899 
L 725.048426 467.955217 
L 726.279592 403.496005 
L 727.499617 401.23353 
L 728.708699 397.949717 
L 729.907034 401.963286 
L 731.09481 384.565204 
L 732.272213 399.773195 
L 733.439422 481.79964 
L 734.596611 462.655939 
L 735.743952 481.017328 
L 736.881611 430.509078 
L 738.00975 423.366359 
L 740.238094 489.333568 
L 741.338604 415.859914 
L 742.430203 351.214129 
L 743.513035 345.753747 
L 744.587238 289.731142 
L 745.652949 260.735895 
L 746.710301 434.222878 
L 747.759425 481.287698 
L 748.800448 397.077937 
L 749.833494 362.409169 
L 750.858683 382.81609 
L 751.876135 333.306706 
L 752.885966 350.931984 
L 753.888288 445.674876 
L 754.883214 360.999871 
L 755.87085 426.90107 
L 756.851303 283.140587 
L 757.824678 436.341444 
L 758.791075 458.712696 
L 759.750593 369.268742 
L 760.70333 408.413207 
L 761.649382 330.807089 
L 762.58884 372.356708 
L 763.521797 445.739832 
L 764.448342 465.194972 
L 765.368563 444.955359 
L 766.282544 375.84888 
L 767.190371 476.507457 
L 768.092125 440.392689 
L 768.987888 388.525854 
L 769.877738 466.089704 
L 770.761752 412.429775 
L 771.640008 433.069714 
L 772.512579 442.564516 
L 773.379539 438.037921 
L 774.240959 349.734561 
L 775.096909 392.667723 
L 775.947459 423.857469 
L 776.792677 433.572078 
L 777.632628 461.574995 
L 778.467379 482.648109 
L 779.296992 395.707165 
L 780.121532 426.540088 
L 780.941059 398.167983 
L 781.755634 429.592321 
L 782.565316 348.56093 
L 783.370165 394.64465 
L 784.170237 383.630291 
L 784.965589 333.975238 
L 785.756276 370.087991 
L 786.542353 399.752367 
L 787.323873 383.723745 
L 788.100888 465.765832 
L 788.87345 405.770503 
L 789.64161 431.589693 
L 790.405419 220.374878 
L 791.164923 231.349749 
L 791.920173 366.172249 
L 792.671216 451.59194 
L 793.418097 366.058064 
L 794.160864 389.881854 
L 794.89956 342.712499 
L 795.634231 371.744728 
L 796.36492 343.771814 
L 797.814523 483.622977 
L 799.248704 352.177275 
L 799.960113 450.597117 
L 800.667788 416.568622 
L 801.371768 429.501398 
L 802.07209 297.502291 
L 802.768793 243.568803 
L 803.461914 329.326944 
L 804.15149 379.907604 
L 804.837557 466.797608 
L 805.520149 418.769748 
L 806.199303 324.324556 
L 806.875053 365.079278 
L 807.547432 466.787009 
L 808.216474 382.770428 
L 808.882213 384.979738 
L 809.54468 418.439034 
L 810.203907 331.802816 
L 810.859927 371.767325 
L 811.51277 384.95073 
L 812.162466 386.240434 
L 812.809047 294.428874 
L 813.452541 373.400654 
L 814.092978 470.98158 
L 814.730387 375.242909 
L 815.364796 298.235395 
L 816.624729 479.261345 
L 817.250306 398.625297 
L 817.872995 379.936464 
L 818.49282 377.126986 
L 819.109808 441.684359 
L 819.723986 461.768816 
L 820.335378 469.918404 
L 820.94401 482.833685 
L 821.549907 451.514932 
L 822.753591 401.953436 
L 823.351427 437.30461 
L 824.539204 357.357556 
L 825.129191 348.167963 
L 825.716607 395.516998 
L 826.301474 397.573285 
L 826.883815 370.010679 
L 827.463652 387.652482 
L 828.041005 448.885976 
L 828.615896 421.03796 
L 829.188346 348.554669 
L 829.758375 449.398802 
L 830.326005 471.270844 
L 830.891254 383.784108 
L 831.454143 410.880206 
L 832.014692 468.236811 
L 832.57292 417.405736 
L 833.128845 408.784374 
L 833.682488 420.177408 
L 834.233866 425.28168 
L 834.782998 416.11894 
L 835.329902 402.762768 
L 835.874597 427.076479 
L 836.4171 458.985947 
L 836.957428 447.669232 
L 837.4956 381.168049 
L 838.031631 461.220886 
L 838.56554 462.369668 
L 839.097343 408.666702 
L 839.627055 447.698622 
L 840.154695 449.354497 
L 840.680278 396.07284 
L 841.203819 403.067084 
L 841.725335 481.843502 
L 842.244842 358.260245 
L 842.762354 377.264322 
L 843.277887 454.896214 
L 843.791456 386.850724 
L 844.303077 398.961907 
L 844.812763 426.832469 
L 845.320529 411.38767 
L 845.82639 480.118663 
L 846.330359 428.68593 
L 846.832452 459.755037 
L 847.332682 474.010439 
L 847.831062 467.701132 
L 848.327607 445.919368 
L 848.82233 446.41838 
L 849.315244 483.677519 
L 849.806362 463.778382 
L 850.295697 467.486239 
L 850.783263 488.387752 
L 851.269072 451.074872 
L 851.753136 468.073174 
L 852.235468 405.479309 
L 852.716081 412.74326 
L 853.194987 410.782799 
L 853.672197 415.463937 
L 854.147724 401.578199 
L 854.621579 417.566147 
L 855.093775 448.83654 
L 855.564323 457.927971 
L 856.033234 443.253514 
L 856.500519 487.233973 
L 856.966191 444.788234 
L 857.430259 424.644262 
L 857.892736 387.097798 
L 858.353631 433.59097 
L 858.812956 446.692312 
L 859.270722 389.890835 
L 859.726938 464.763228 
L 860.181615 429.119576 
L 860.634765 472.69749 
L 861.086396 459.578043 
L 861.536519 435.059399 
L 861.985144 434.80232 
L 862.432281 407.3289 
L 862.877941 409.541886 
L 863.322131 413.012226 
L 863.764863 414.869326 
L 864.206146 442.417668 
L 864.645989 431.55671 
L 865.084402 451.744974 
L 865.521393 478.416844 
L 865.956973 488.742625 
L 866.391149 418.922022 
L 866.823932 455.607699 
L 867.685352 467.488052 
L 868.114007 440.17321 
L 868.541303 404.760076 
L 868.967249 412.962578 
L 869.391853 442.491363 
L 869.815124 457.162108 
L 870.237071 414.86814 
L 870.657701 453.342621 
L 871.077022 469.55489 
L 871.495043 445.686008 
L 871.911773 488.781747 
L 872.327217 443.81078 
L 872.741386 469.761868 
L 873.154286 477.719983 
L 873.565925 458.628758 
L 873.976312 426.807737 
L 874.385452 456.218881 
L 874.793355 422.556887 
L 875.200027 463.02177 
L 876.00971 478.998293 
L 876.412735 496.149876 
L 876.814559 467.840682 
L 877.215188 486.177288 
L 877.614631 420.399661 
L 878.012893 419.116233 
L 878.805906 463.284408 
L 879.20067 471.92121 
L 879.594281 463.145158 
L 879.986747 447.90402 
L 880.378073 449.071041 
L 880.768266 456.973726 
L 881.157334 470.412363 
L 881.545282 435.552989 
L 881.932116 450.271108 
L 882.317844 494.209017 
L 882.702471 471.544686 
L 883.086004 461.209915 
L 883.468449 442.501363 
L 883.849812 467.98446 
L 884.2301 453.36282 
L 884.609317 469.216362 
L 884.987471 457.246439 
L 885.364567 482.848467 
L 885.740611 441.488788 
L 886.115609 494.101241 
L 886.489567 449.45441 
L 886.862491 433.578654 
L 887.234386 472.749977 
L 887.605257 451.685998 
L 887.975112 464.0221 
L 888.343954 487.042932 
L 888.71179 475.617112 
L 889.078625 453.920998 
L 889.444464 466.962163 
L 889.809314 456.789529 
L 890.173178 478.42421 
L 890.536063 454.397232 
L 890.897974 444.856739 
L 891.258916 485.980379 
L 891.618895 459.068348 
L 891.977914 456.439746 
L 892.33598 474.744829 
L 892.693098 462.449198 
L 893.049272 481.270009 
L 893.404507 461.88999 
L 894.112182 480.343799 
L 894.464631 476.66133 
L 894.816161 481.225128 
L 895.166777 480.02529 
L 895.516484 436.588893 
L 896.213187 483.915239 
L 896.560193 464.195506 
L 896.906308 481.730586 
L 897.251537 488.381787 
L 897.595884 488.850199 
L 897.939353 463.994435 
L 898.28195 479.643683 
L 898.964543 435.537542 
L 899.643697 465.135182 
L 899.981995 453.728918 
L 900.319446 461.142285 
L 900.656055 487.524855 
L 900.991826 449.695648 
L 901.326762 486.964049 
L 901.660868 482.494619 
L 902.658247 454.017635 
L 902.989074 463.994073 
L 903.31909 481.436472 
L 903.648301 487.794281 
L 904.304321 483.29468 
L 904.631137 485.073197 
L 904.957163 488.685672 
L 905.282403 448.23382 
L 905.60686 474.357833 
L 905.930538 477.367453 
L 906.25344 493.246893 
L 906.575571 485.921662 
L 906.896934 489.454089 
L 907.217533 472.197334 
L 907.537372 475.022248 
L 907.856453 469.950935 
L 908.492359 482.470698 
L 908.80919 484.281892 
L 909.125279 489.625356 
L 909.440628 479.782962 
L 909.755241 478.200082 
L 910.069122 459.702383 
L 910.382274 481.809253 
L 910.6947 484.531655 
L 911.006404 473.441986 
L 911.317388 482.492504 
L 911.627657 487.57323 
L 911.937214 488.420815 
L 912.554202 482.324877 
L 912.861641 480.99882 
L 913.16838 488.582345 
L 913.474423 492.995786 
L 913.779772 489.890877 
L 914.084432 474.046001 
L 914.388404 493.924315 
L 915.296231 466.665092 
L 915.597486 490.658865 
L 915.89807 493.886476 
L 916.197985 482.935954 
L 916.497234 483.612818 
L 916.795821 493.286067 
L 917.093748 479.615716 
L 917.391017 480.386102 
L 917.687633 478.846579 
L 917.983598 462.726571 
L 918.278914 482.282519 
L 918.573584 478.280626 
L 918.867612 477.070656 
L 919.161 473.999749 
L 919.453751 492.639397 
L 919.745868 495.939908 
L 920.037353 497.609573 
L 920.328209 489.557377 
L 920.618439 484.934094 
L 920.908045 482.316086 
L 921.197031 489.232385 
L 921.485399 485.299223 
L 921.773151 468.213935 
L 922.06029 472.345795 
L 922.346819 489.036143 
L 922.63274 480.953751 
L 922.918056 493.653973 
L 923.202769 485.496731 
L 923.486883 493.937114 
L 923.770398 493.70016 
L 924.053319 481.080225 
L 924.335648 482.773968 
L 924.617386 487.616298 
L 924.898537 489.674429 
L 925.179103 477.084059 
L 925.459086 495.148081 
L 926.017313 480.04285 
L 926.295563 477.184045 
L 926.573239 478.391289 
L 926.850344 474.480368 
L 927.126881 489.489399 
L 927.402852 465.332229 
L 927.678259 485.842102 
L 927.953105 491.050955 
L 928.227392 483.980783 
L 928.501121 490.299819 
L 928.774296 479.208413 
L 929.046919 490.565083 
L 929.318991 482.290037 
L 929.861494 493.786286 
L 930.131929 478.087636 
L 930.401822 493.724404 
L 930.671176 475.543483 
L 930.939993 470.781848 
L 931.208276 488.189772 
L 931.476025 480.5667 
L 931.743244 482.929363 
L 932.009934 468.75748 
L 932.276097 472.603929 
L 932.541736 488.490573 
L 932.806853 486.455542 
L 933.071449 492.139353 
L 933.335527 473.037052 
L 933.862136 477.940577 
L 934.124671 494.171186 
L 934.386696 490.247579 
L 934.648213 488.820291 
L 934.909223 479.917186 
L 935.169729 475.937936 
L 935.429733 489.170201 
L 935.689236 489.637937 
L 935.94824 493.287253 
L 936.206748 488.302818 
L 936.464761 490.15422 
L 936.722281 476.625406 
L 936.97931 486.877267 
L 937.23585 488.850639 
L 937.491903 474.887123 
L 937.74747 493.734331 
L 938.002554 478.393617 
L 938.257156 490.28318 
L 938.511278 471.314558 
L 938.764922 480.020973 
L 939.01809 469.709384 
L 939.270783 465.422903 
L 939.523004 492.389579 
L 939.774753 487.652882 
L 940.026033 487.491576 
L 940.276846 492.550344 
L 940.527193 482.939343 
L 940.777076 488.064373 
L 941.026496 488.989469 
L 941.275456 489.294812 
L 941.523957 492.709176 
L 941.772001 489.805193 
L 942.019589 493.016662 
L 942.266724 491.396595 
L 942.513406 495.099901 
L 942.759637 478.666834 
L 943.00542 486.372012 
L 943.250755 480.924735 
L 943.495645 492.280707 
L 943.984094 482.59741 
L 944.227657 494.023685 
L 944.713465 484.185935 
L 944.955715 490.177381 
L 945.19753 488.663343 
L 945.438911 494.026078 
L 945.679862 495.138932 
L 945.920383 487.246788 
L 946.160475 491.019675 
L 946.40014 497.013917 
L 946.63938 488.283766 
L 947.116591 480.345024 
L 947.354564 490.758642 
L 947.592118 493.837882 
L 947.829254 495.329571 
L 948.065973 490.786056 
L 948.302278 488.82791 
L 948.538169 490.883846 
L 948.773648 477.852146 
L 949.008717 489.759734 
L 949.243376 490.291051 
L 949.477628 474.37798 
L 949.711473 490.302153 
L 949.944913 469.312769 
L 950.17795 494.722393 
L 950.410585 495.259533 
L 950.642819 481.911247 
L 951.10609 491.45798 
L 951.33713 491.427038 
L 951.567774 485.748029 
L 951.798025 494.7733 
L 952.027883 479.332061 
L 952.486427 494.671549 
L 952.715115 486.711669 
L 952.943416 482.645631 
L 953.171332 491.962026 
L 953.398862 487.596839 
L 953.626009 487.305755 
L 953.852774 493.908573 
L 954.079158 490.491406 
L 954.305163 484.272888 
L 954.530789 489.479364 
L 954.756039 466.732583 
L 954.980913 471.531527 
L 955.205412 486.700991 
L 955.429538 484.937116 
L 955.653292 494.009924 
L 956.099689 479.795405 
L 956.322334 482.063638 
L 956.544613 481.255169 
L 956.766525 471.074059 
L 956.988073 480.465349 
L 957.209257 474.117358 
L 957.430079 486.018226 
L 957.65054 482.83365 
L 957.870641 483.972349 
L 958.090383 488.212883 
L 958.309767 479.814609 
L 958.528795 494.162684 
L 958.747468 492.497213 
L 958.965787 484.275564 
L 959.183753 482.180795 
L 959.401366 485.785937 
L 959.61863 493.495429 
L 959.835543 494.503866 
L 960.052108 493.351332 
L 960.484198 486.195461 
L 960.699724 487.853688 
L 960.914907 490.930356 
L 961.129746 491.332793 
L 961.344244 492.58213 
L 961.772218 483.472282 
L 961.985697 493.855592 
L 962.198838 484.445604 
L 962.411643 485.212431 
L 962.624112 477.064469 
L 962.836247 487.211565 
L 963.048049 483.487508 
L 963.259518 485.367419 
L 963.681464 496.573843 
L 963.891943 496.652543 
L 964.102094 489.374195 
L 964.311918 491.384495 
L 964.521416 482.783162 
L 964.730589 485.699018 
L 964.939437 484.084853 
L 965.147963 480.855976 
L 965.356166 484.87912 
L 965.564049 484.576174 
L 965.771611 487.464267 
L 965.978855 488.271605 
L 966.18578 494.647931 
L 966.392388 492.158796 
L 966.59868 484.511468 
L 966.804657 489.074097 
L 967.010319 488.816139 
L 967.215668 487.656199 
L 967.420705 487.283591 
L 967.625431 487.953356 
L 967.829846 482.309457 
L 968.033952 492.166236 
L 968.237749 493.872899 
L 968.441238 493.510383 
L 968.644421 487.554163 
L 969.252139 482.978437 
L 969.454104 492.448222 
L 969.655767 489.460127 
L 969.857129 494.793088 
L 970.258953 488.217475 
L 970.659582 492.719013 
L 970.859451 484.281369 
L 971.258303 494.023492 
L 971.457287 491.828482 
L 971.655978 492.610938 
L 972.052484 489.616377 
L 972.2503 487.845469 
L 972.645064 494.987231 
L 972.842013 493.055104 
L 973.038675 490.007427 
L 973.235051 490.030044 
L 973.43114 493.562126 
L 973.626945 492.613189 
L 973.822467 487.704343 
L 974.017704 494.241638 
L 974.21266 494.488877 
L 974.407334 480.422174 
L 974.795841 491.429872 
L 975.183231 486.534201 
L 975.37651 493.398742 
L 975.569512 487.796386 
L 975.762238 487.085991 
L 975.954688 494.814641 
L 976.146865 491.419559 
L 976.338768 493.64666 
L 976.530398 485.955603 
L 976.721756 491.849304 
L 976.912843 490.444628 
L 977.294206 495.20522 
L 977.484484 487.415016 
L 977.674493 494.068415 
L 977.864235 491.650831 
L 978.053711 495.531023 
L 978.24292 486.632392 
L 978.431865 494.859842 
L 978.997114 491.273711 
L 979.185005 493.687765 
L 979.372634 493.544884 
L 979.560003 495.427892 
L 979.747112 489.887218 
L 979.933961 489.973216 
L 980.120552 492.257915 
L 980.306885 483.175926 
L 980.49296 492.862403 
L 980.678779 496.008218 
L 980.864343 494.761092 
L 981.234705 489.725169 
L 981.419505 486.576754 
L 981.604053 493.806693 
L 981.788348 496.052124 
L 982.156183 494.046396 
L 982.339726 489.858366 
L 982.706062 494.953514 
L 983.071406 491.271912 
L 983.253707 488.059111 
L 983.435762 495.780274 
L 983.617572 493.231333 
L 983.799137 495.419814 
L 983.980457 492.115472 
L 984.342368 491.23054 
L 984.52296 495.126547 
L 984.70331 492.343156 
L 984.883419 492.524372 
L 985.242918 494.877954 
L 985.422308 491.836824 
L 985.60146 491.99746 
L 985.780374 494.940027 
L 985.959051 495.005812 
L 986.137491 497.832181 
L 986.315696 490.615601 
L 986.493665 493.296153 
L 986.848901 494.141738 
L 987.026168 492.695495 
L 987.203202 495.021115 
L 987.380005 491.30632 
L 987.556576 496.498886 
L 987.909025 492.043915 
L 988.084905 493.996496 
L 988.260555 489.72762 
L 988.435977 491.90557 
L 988.611171 488.032739 
L 988.786138 495.807564 
L 988.960877 490.446141 
L 989.135391 490.858814 
L 989.309679 492.767927 
L 989.483742 485.539518 
L 989.657581 494.781324 
L 989.831195 494.48894 
L 990.004587 495.533892 
L 990.177755 495.645938 
L 990.350702 493.952606 
L 990.523427 494.307347 
L 990.695931 495.041913 
L 990.868214 494.497915 
L 991.040278 494.893065 
L 991.212122 492.634517 
L 991.555154 496.80533 
L 991.726344 495.889924 
L 991.897316 490.21076 
L 992.068072 495.063672 
L 992.408937 494.352795 
L 992.579046 497.0907 
L 992.918623 493.037078 
L 993.257346 495.906136 
L 993.59522 494.58876 
L 993.76384 495.058996 
L 993.93225 491.169485 
L 994.100449 495.218637 
L 994.268439 489.066376 
L 994.436219 491.482547 
L 994.603792 492.27114 
L 994.771156 493.778048 
L 994.938312 497.055539 
L 995.105262 493.356637 
L 995.272005 493.968877 
L 995.438542 496.88503 
L 995.604874 494.301885 
L 995.936922 496.749368 
L 996.102641 496.507601 
L 996.268155 495.534618 
L 996.433467 493.485997 
L 996.598577 494.254982 
L 996.763484 491.244586 
L 996.92819 495.112987 
L 997.092695 495.974927 
L 997.256999 496.077057 
L 997.421104 492.198695 
L 997.585008 491.612779 
L 997.748714 495.216456 
L 997.912222 496.130561 
L 998.075531 494.217022 
L 998.238643 495.276189 
L 998.401557 495.088407 
L 998.564275 496.116642 
L 998.889123 495.612044 
L 999.051254 494.545697 
L 999.21319 494.43958 
L 999.374931 496.476263 
L 999.536479 496.734542 
L 999.858996 495.781845 
L 1000.019965 494.391952 
L 1000.180742 497.606866 
L 1000.501723 494.069744 
L 1000.661927 496.475296 
L 1000.821941 493.689956 
L 1000.981765 495.192663 
L 1001.1414 494.462515 
L 1001.300847 495.73233 
L 1001.460104 493.185142 
L 1001.619174 497.129772 
L 1001.778057 497.403128 
L 1001.936752 494.339349 
L 1002.095261 496.487831 
L 1002.253584 496.067591 
L 1002.569673 494.148009 
L 1002.727439 497.067642 
L 1002.885022 494.392744 
L 1003.04242 496.854963 
L 1003.199635 495.647702 
L 1003.513516 497.502076 
L 1003.670183 495.274654 
L 1003.826668 497.692021 
L 1003.982971 495.106108 
L 1004.139094 497.516268 
L 1004.450797 495.498582 
L 1004.761782 495.11252 
L 1004.917006 496.765306 
L 1005.072051 496.899603 
L 1005.226918 495.196251 
L 1005.381607 497.423554 
L 1005.690455 494.871998 
L 1005.690455 494.871998 
" clip-path="url(#pe3ead6348f)" style="fill: none; stroke: #0c5da5; stroke-width: 2; stroke-linecap: square"/>
   </g>
   <g id="patch_3">
    <path d="M 46.945 520.7175 
L 46.945 21.7575 
" style="fill: none; stroke: #000000; stroke-linejoin: miter; stroke-linecap: square"/>
   </g>
   <g id="patch_4">
    <path d="M 1051.345 520.7175 
L 1051.345 21.7575 
" style="fill: none; stroke: #000000; stroke-linejoin: miter; stroke-linecap: square"/>
   </g>
   <g id="patch_5">
    <path d="M 46.945 520.7175 
L 1051.345 520.7175 
" style="fill: none; stroke: #000000; stroke-linejoin: miter; stroke-linecap: square"/>
   </g>
   <g id="patch_6">
    <path d="M 46.945 21.7575 
L 1051.345 21.7575 
" style="fill: none; stroke: #000000; stroke-linejoin: miter; stroke-linecap: square"/>
   </g>
   <g id="text_12">
    <!-- Tabas_ Iran Record no. 138 -->
    <g transform="translate(441.45625 15.7575) scale(0.16 -0.16)">
     <defs>
      <path id="DejaVuSans-54" d="M -19 4666 
L 3928 4666 
L 3928 4134 
L 2272 4134 
L 2272 0 
L 1638 0 
L 1638 4134 
L -19 4134 
L -19 4666 
z
" transform="scale(0.015625)"/>
      <path id="DejaVuSans-61" d="M 2194 1759 
Q 1497 1759 1228 1600 
Q 959 1441 959 1056 
Q 959 750 1161 570 
Q 1363 391 1709 391 
Q 2188 391 2477 730 
Q 2766 1069 2766 1631 
L 2766 1759 
L 2194 1759 
z
M 3341 1997 
L 3341 0 
L 2766 0 
L 2766 531 
Q 2569 213 2275 61 
Q 1981 -91 1556 -91 
Q 1019 -91 701 211 
Q 384 513 384 1019 
Q 384 1609 779 1909 
Q 1175 2209 1959 2209 
L 2766 2209 
L 2766 2266 
Q 2766 2663 2505 2880 
Q 2244 3097 1772 3097 
Q 1472 3097 1187 3025 
Q 903 2953 641 2809 
L 641 3341 
Q 956 3463 1253 3523 
Q 1550 3584 1831 3584 
Q 2591 3584 2966 3190 
Q 3341 2797 3341 1997 
z
" transform="scale(0.015625)"/>
      <path id="DejaVuSans-62" d="M 3116 1747 
Q 3116 2381 2855 2742 
Q 2594 3103 2138 3103 
Q 1681 3103 1420 2742 
Q 1159 2381 1159 1747 
Q 1159 1113 1420 752 
Q 1681 391 2138 391 
Q 2594 391 2855 752 
Q 3116 1113 3116 1747 
z
M 1159 2969 
Q 1341 3281 1617 3432 
Q 1894 3584 2278 3584 
Q 2916 3584 3314 3078 
Q 3713 2572 3713 1747 
Q 3713 922 3314 415 
Q 2916 -91 2278 -91 
Q 1894 -91 1617 61 
Q 1341 213 1159 525 
L 1159 0 
L 581 0 
L 581 4863 
L 1159 4863 
L 1159 2969 
z
" transform="scale(0.015625)"/>
      <path id="DejaVuSans-73" d="M 2834 3397 
L 2834 2853 
Q 2591 2978 2328 3040 
Q 2066 3103 1784 3103 
Q 1356 3103 1142 2972 
Q 928 2841 928 2578 
Q 928 2378 1081 2264 
Q 1234 2150 1697 2047 
L 1894 2003 
Q 2506 1872 2764 1633 
Q 3022 1394 3022 966 
Q 3022 478 2636 193 
Q 2250 -91 1575 -91 
Q 1294 -91 989 -36 
Q 684 19 347 128 
L 347 722 
Q 666 556 975 473 
Q 1284 391 1588 391 
Q 1994 391 2212 530 
Q 2431 669 2431 922 
Q 2431 1156 2273 1281 
Q 2116 1406 1581 1522 
L 1381 1569 
Q 847 1681 609 1914 
Q 372 2147 372 2553 
Q 372 3047 722 3315 
Q 1072 3584 1716 3584 
Q 2034 3584 2315 3537 
Q 2597 3491 2834 3397 
z
" transform="scale(0.015625)"/>
      <path id="DejaVuSans-5f" d="M 3263 -1063 
L 3263 -1509 
L -63 -1509 
L -63 -1063 
L 3263 -1063 
z
" transform="scale(0.015625)"/>
      <path id="DejaVuSans-49" d="M 628 4666 
L 1259 4666 
L 1259 0 
L 628 0 
L 628 4666 
z
" transform="scale(0.015625)"/>
      <path id="DejaVuSans-52" d="M 2841 2188 
Q 3044 2119 3236 1894 
Q 3428 1669 3622 1275 
L 4263 0 
L 3584 0 
L 2988 1197 
Q 2756 1666 2539 1819 
Q 2322 1972 1947 1972 
L 1259 1972 
L 1259 0 
L 628 0 
L 628 4666 
L 2053 4666 
Q 2853 4666 3247 4331 
Q 3641 3997 3641 3322 
Q 3641 2881 3436 2590 
Q 3231 2300 2841 2188 
z
M 1259 4147 
L 1259 2491 
L 2053 2491 
Q 2509 2491 2742 2702 
Q 2975 2913 2975 3322 
Q 2975 3731 2742 3939 
Q 2509 4147 2053 4147 
L 1259 4147 
z
" transform="scale(0.015625)"/>
      <path id="DejaVuSans-6f" d="M 1959 3097 
Q 1497 3097 1228 2736 
Q 959 2375 959 1747 
Q 959 1119 1226 758 
Q 1494 397 1959 397 
Q 2419 397 2687 759 
Q 2956 1122 2956 1747 
Q 2956 2369 2687 2733 
Q 2419 3097 1959 3097 
z
M 1959 3584 
Q 2709 3584 3137 3096 
Q 3566 2609 3566 1747 
Q 3566 888 3137 398 
Q 2709 -91 1959 -91 
Q 1206 -91 779 398 
Q 353 888 353 1747 
Q 353 2609 779 3096 
Q 1206 3584 1959 3584 
z
" transform="scale(0.015625)"/>
      <path id="DejaVuSans-2e" d="M 684 794 
L 1344 794 
L 1344 0 
L 684 0 
L 684 794 
z
" transform="scale(0.015625)"/>
      <path id="DejaVuSans-38" d="M 2034 2216 
Q 1584 2216 1326 1975 
Q 1069 1734 1069 1313 
Q 1069 891 1326 650 
Q 1584 409 2034 409 
Q 2484 409 2743 651 
Q 3003 894 3003 1313 
Q 3003 1734 2745 1975 
Q 2488 2216 2034 2216 
z
M 1403 2484 
Q 997 2584 770 2862 
Q 544 3141 544 3541 
Q 544 4100 942 4425 
Q 1341 4750 2034 4750 
Q 2731 4750 3128 4425 
Q 3525 4100 3525 3541 
Q 3525 3141 3298 2862 
Q 3072 2584 2669 2484 
Q 3125 2378 3379 2068 
Q 3634 1759 3634 1313 
Q 3634 634 3220 271 
Q 2806 -91 2034 -91 
Q 1263 -91 848 271 
Q 434 634 434 1313 
Q 434 1759 690 2068 
Q 947 2378 1403 2484 
z
M 1172 3481 
Q 1172 3119 1398 2916 
Q 1625 2713 2034 2713 
Q 2441 2713 2670 2916 
Q 2900 3119 2900 3481 
Q 2900 3844 2670 4047 
Q 2441 4250 2034 4250 
Q 1625 4250 1398 4047 
Q 1172 3844 1172 3481 
z
" transform="scale(0.015625)"/>
     </defs>
     <use xlink:href="#DejaVuSans-54"/>
     <use xlink:href="#DejaVuSans-61" x="44.583984"/>
     <use xlink:href="#DejaVuSans-62" x="105.863281"/>
     <use xlink:href="#DejaVuSans-61" x="169.339844"/>
     <use xlink:href="#DejaVuSans-73" x="230.619141"/>
     <use xlink:href="#DejaVuSans-5f" x="282.71875"/>
     <use xlink:href="#DejaVuSans-20" x="332.71875"/>
     <use xlink:href="#DejaVuSans-49" x="364.505859"/>
     <use xlink:href="#DejaVuSans-72" x="393.998047"/>
     <use xlink:href="#DejaVuSans-61" x="435.111328"/>
     <use xlink:href="#DejaVuSans-6e" x="496.390625"/>
     <use xlink:href="#DejaVuSans-20" x="559.769531"/>
     <use xlink:href="#DejaVuSans-52" x="591.556641"/>
     <use xlink:href="#DejaVuSans-65" x="656.539062"/>
     <use xlink:href="#DejaVuSans-63" x="718.0625"/>
     <use xlink:href="#DejaVuSans-6f" x="773.042969"/>
     <use xlink:href="#DejaVuSans-72" x="834.224609"/>
     <use xlink:href="#DejaVuSans-64" x="873.587891"/>
     <use xlink:href="#DejaVuSans-20" x="937.064453"/>
     <use xlink:href="#DejaVuSans-6e" x="968.851562"/>
     <use xlink:href="#DejaVuSans-6f" x="1032.230469"/>
     <use xlink:href="#DejaVuSans-2e" x="1091.662109"/>
     <use xlink:href="#DejaVuSans-20" x="1123.449219"/>
     <use xlink:href="#DejaVuSans-31" x="1155.236328"/>
     <use xlink:href="#DejaVuSans-33" x="1218.859375"/>
     <use xlink:href="#DejaVuSans-38" x="1282.482422"/>
    </g>
   </g>
   <g id="legend_1">
    <g id="patch_7">
     <path d="M 720.4425 58.0425 
L 1040.145 58.0425 
Q 1043.345 58.0425 1043.345 54.8425 
L 1043.345 32.9575 
Q 1043.345 29.7575 1040.145 29.7575 
L 720.4425 29.7575 
Q 717.2425 29.7575 717.2425 32.9575 
L 717.2425 54.8425 
Q 717.2425 58.0425 720.4425 58.0425 
z
" style="fill: #ffffff; stroke: #cccccc; stroke-linejoin: miter"/>
    </g>
    <g id="line2d_125">
     <path d="M 723.6425 42.715 
L 739.6425 42.715 
L 755.6425 42.715 
" style="fill: none; stroke: #0c5da5; stroke-width: 2; stroke-linecap: square"/>
    </g>
    <g id="text_13">
     <!-- Predominant Time Period = 3.28s -->
     <g transform="translate(768.4425 48.315) scale(0.16 -0.16)">
      <defs>
       <path id="DejaVuSans-50" d="M 1259 4147 
L 1259 2394 
L 2053 2394 
Q 2494 2394 2734 2622 
Q 2975 2850 2975 3272 
Q 2975 3691 2734 3919 
Q 2494 4147 2053 4147 
L 1259 4147 
z
M 628 4666 
L 2053 4666 
Q 2838 4666 3239 4311 
Q 3641 3956 3641 3272 
Q 3641 2581 3239 2228 
Q 2838 1875 2053 1875 
L 1259 1875 
L 1259 0 
L 628 0 
L 628 4666 
z
" transform="scale(0.015625)"/>
       <path id="DejaVuSans-3d" d="M 678 2906 
L 4684 2906 
L 4684 2381 
L 678 2381 
L 678 2906 
z
M 678 1631 
L 4684 1631 
L 4684 1100 
L 678 1100 
L 678 1631 
z
" transform="scale(0.015625)"/>
      </defs>
      <use xlink:href="#DejaVuSans-50"/>
      <use xlink:href="#DejaVuSans-72" x="58.552734"/>
      <use xlink:href="#DejaVuSans-65" x="97.416016"/>
      <use xlink:href="#DejaVuSans-64" x="158.939453"/>
      <use xlink:href="#DejaVuSans-6f" x="222.416016"/>
      <use xlink:href="#DejaVuSans-6d" x="283.597656"/>
      <use xlink:href="#DejaVuSans-69" x="381.009766"/>
      <use xlink:href="#DejaVuSans-6e" x="408.792969"/>
      <use xlink:href="#DejaVuSans-61" x="472.171875"/>
      <use xlink:href="#DejaVuSans-6e" x="533.451172"/>
      <use xlink:href="#DejaVuSans-74" x="596.830078"/>
      <use xlink:href="#DejaVuSans-20" x="636.039062"/>
      <use xlink:href="#DejaVuSans-54" x="667.826172"/>
      <use xlink:href="#DejaVuSans-69" x="725.785156"/>
      <use xlink:href="#DejaVuSans-6d" x="753.568359"/>
      <use xlink:href="#DejaVuSans-65" x="850.980469"/>
      <use xlink:href="#DejaVuSans-20" x="912.503906"/>
      <use xlink:href="#DejaVuSans-50" x="944.291016"/>
      <use xlink:href="#DejaVuSans-65" x="1000.96875"/>
      <use xlink:href="#DejaVuSans-72" x="1062.492188"/>
      <use xlink:href="#DejaVuSans-69" x="1103.605469"/>
      <use xlink:href="#DejaVuSans-6f" x="1131.388672"/>
      <use xlink:href="#DejaVuSans-64" x="1192.570312"/>
      <use xlink:href="#DejaVuSans-20" x="1256.046875"/>
      <use xlink:href="#DejaVuSans-3d" x="1287.833984"/>
      <use xlink:href="#DejaVuSans-20" x="1371.623047"/>
      <use xlink:href="#DejaVuSans-33" x="1403.410156"/>
      <use xlink:href="#DejaVuSans-2e" x="1467.033203"/>
      <use xlink:href="#DejaVuSans-32" x="1498.820312"/>
      <use xlink:href="#DejaVuSans-38" x="1562.443359"/>
      <use xlink:href="#DejaVuSans-73" x="1626.066406"/>
     </g>
    </g>
   </g>
  </g>
 </g>
 <defs>
  <clipPath id="pe3ead6348f">
   <rect x="46.945" y="21.7575" width="1004.4" height="498.96"/>
  </clipPath>
 </defs>
</svg>
