<?xml version="1.0" encoding="utf-8" standalone="no"?>
<!DOCTYPE svg PUBLIC "-//W3C//DTD SVG 1.1//EN"
  "http://www.w3.org/Graphics/SVG/1.1/DTD/svg11.dtd">
<svg xmlns:xlink="http://www.w3.org/1999/xlink" width="1093.7975pt" height="562.7875pt" viewBox="0 0 1093.7975 562.7875" xmlns="http://www.w3.org/2000/svg" version="1.1">
 <metadata>
  <rdf:RDF xmlns:dc="http://purl.org/dc/elements/1.1/" xmlns:cc="http://creativecommons.org/ns#" xmlns:rdf="http://www.w3.org/1999/02/22-rdf-syntax-ns#">
   <cc:Work>
    <dc:type rdf:resource="http://purl.org/dc/dcmitype/StillImage"/>
    <dc:date>2023-06-11T21:49:11.667951</dc:date>
    <dc:format>image/svg+xml</dc:format>
    <dc:creator>
     <cc:Agent>
      <dc:title>Matplotlib v3.7.1, https://matplotlib.org/</dc:title>
     </cc:Agent>
    </dc:creator>
   </cc:Work>
  </rdf:RDF>
 </metadata>
 <defs>
  <style type="text/css">*{stroke-linejoin: round; stroke-linecap: butt}</style>
 </defs>
 <g id="figure_1">
  <g id="patch_1">
   <path d="M 0 562.7875 
L 1093.7975 562.7875 
L 1093.7975 0 
L 0 0 
z
" style="fill: #ffffff"/>
  </g>
  <g id="axes_1">
   <g id="patch_2">
    <path d="M 85.7975 520.7175 
L 1090.1975 520.7175 
L 1090.1975 21.7575 
L 85.7975 21.7575 
z
" style="fill: #ffffff"/>
   </g>
   <g id="matplotlib.axis_1">
    <g id="xtick_1">
     <g id="line2d_1">
      <path d="M 131.452045 520.7175 
L 131.452045 21.7575 
" clip-path="url(#p403dab386b)" style="fill: none; stroke-dasharray: 1.85,0.8; stroke-dashoffset: 0; stroke: #000000; stroke-opacity: 0.5; stroke-width: 0.5"/>
     </g>
     <g id="line2d_2">
      <defs>
       <path id="m4a03ba4742" d="M 0 0 
L 0 -6 
" style="stroke: #000000"/>
      </defs>
      <g>
       <use xlink:href="#m4a03ba4742" x="131.452045" y="520.7175" style="stroke: #000000"/>
      </g>
     </g>
     <g id="line2d_3">
      <defs>
       <path id="md2db17e124" d="M 0 0 
L 0 6 
" style="stroke: #000000"/>
      </defs>
      <g>
       <use xlink:href="#md2db17e124" x="131.452045" y="21.7575" style="stroke: #000000"/>
      </g>
     </g>
     <g id="text_1">
      <!-- 0 -->
      <g transform="translate(126.362045 536.375) scale(0.16 -0.16)">
       <defs>
        <path id="DejaVuSans-30" d="M 2034 4250 
Q 1547 4250 1301 3770 
Q 1056 3291 1056 2328 
Q 1056 1369 1301 889 
Q 1547 409 2034 409 
Q 2525 409 2770 889 
Q 3016 1369 3016 2328 
Q 3016 3291 2770 3770 
Q 2525 4250 2034 4250 
z
M 2034 4750 
Q 2819 4750 3233 4129 
Q 3647 3509 3647 2328 
Q 3647 1150 3233 529 
Q 2819 -91 2034 -91 
Q 1250 -91 836 529 
Q 422 1150 422 2328 
Q 422 3509 836 4129 
Q 1250 4750 2034 4750 
z
" transform="scale(0.015625)"/>
       </defs>
       <use xlink:href="#DejaVuSans-30"/>
      </g>
     </g>
    </g>
    <g id="xtick_2">
     <g id="line2d_4">
      <path d="M 283.659232 520.7175 
L 283.659232 21.7575 
" clip-path="url(#p403dab386b)" style="fill: none; stroke-dasharray: 1.85,0.8; stroke-dashoffset: 0; stroke: #000000; stroke-opacity: 0.5; stroke-width: 0.5"/>
     </g>
     <g id="line2d_5">
      <g>
       <use xlink:href="#m4a03ba4742" x="283.659232" y="520.7175" style="stroke: #000000"/>
      </g>
     </g>
     <g id="line2d_6">
      <g>
       <use xlink:href="#md2db17e124" x="283.659232" y="21.7575" style="stroke: #000000"/>
      </g>
     </g>
     <g id="text_2">
      <!-- 5 -->
      <g transform="translate(278.569232 536.375) scale(0.16 -0.16)">
       <defs>
        <path id="DejaVuSans-35" d="M 691 4666 
L 3169 4666 
L 3169 4134 
L 1269 4134 
L 1269 2991 
Q 1406 3038 1543 3061 
Q 1681 3084 1819 3084 
Q 2600 3084 3056 2656 
Q 3513 2228 3513 1497 
Q 3513 744 3044 326 
Q 2575 -91 1722 -91 
Q 1428 -91 1123 -41 
Q 819 9 494 109 
L 494 744 
Q 775 591 1075 516 
Q 1375 441 1709 441 
Q 2250 441 2565 725 
Q 2881 1009 2881 1497 
Q 2881 1984 2565 2268 
Q 2250 2553 1709 2553 
Q 1456 2553 1204 2497 
Q 953 2441 691 2322 
L 691 4666 
z
" transform="scale(0.015625)"/>
       </defs>
       <use xlink:href="#DejaVuSans-35"/>
      </g>
     </g>
    </g>
    <g id="xtick_3">
     <g id="line2d_7">
      <path d="M 435.866418 520.7175 
L 435.866418 21.7575 
" clip-path="url(#p403dab386b)" style="fill: none; stroke-dasharray: 1.85,0.8; stroke-dashoffset: 0; stroke: #000000; stroke-opacity: 0.5; stroke-width: 0.5"/>
     </g>
     <g id="line2d_8">
      <g>
       <use xlink:href="#m4a03ba4742" x="435.866418" y="520.7175" style="stroke: #000000"/>
      </g>
     </g>
     <g id="line2d_9">
      <g>
       <use xlink:href="#md2db17e124" x="435.866418" y="21.7575" style="stroke: #000000"/>
      </g>
     </g>
     <g id="text_3">
      <!-- 10 -->
      <g transform="translate(425.686418 536.375) scale(0.16 -0.16)">
       <defs>
        <path id="DejaVuSans-31" d="M 794 531 
L 1825 531 
L 1825 4091 
L 703 3866 
L 703 4441 
L 1819 4666 
L 2450 4666 
L 2450 531 
L 3481 531 
L 3481 0 
L 794 0 
L 794 531 
z
" transform="scale(0.015625)"/>
       </defs>
       <use xlink:href="#DejaVuSans-31"/>
       <use xlink:href="#DejaVuSans-30" x="63.623047"/>
      </g>
     </g>
    </g>
    <g id="xtick_4">
     <g id="line2d_10">
      <path d="M 588.073604 520.7175 
L 588.073604 21.7575 
" clip-path="url(#p403dab386b)" style="fill: none; stroke-dasharray: 1.85,0.8; stroke-dashoffset: 0; stroke: #000000; stroke-opacity: 0.5; stroke-width: 0.5"/>
     </g>
     <g id="line2d_11">
      <g>
       <use xlink:href="#m4a03ba4742" x="588.073604" y="520.7175" style="stroke: #000000"/>
      </g>
     </g>
     <g id="line2d_12">
      <g>
       <use xlink:href="#md2db17e124" x="588.073604" y="21.7575" style="stroke: #000000"/>
      </g>
     </g>
     <g id="text_4">
      <!-- 15 -->
      <g transform="translate(577.893604 536.375) scale(0.16 -0.16)">
       <use xlink:href="#DejaVuSans-31"/>
       <use xlink:href="#DejaVuSans-35" x="63.623047"/>
      </g>
     </g>
    </g>
    <g id="xtick_5">
     <g id="line2d_13">
      <path d="M 740.28079 520.7175 
L 740.28079 21.7575 
" clip-path="url(#p403dab386b)" style="fill: none; stroke-dasharray: 1.85,0.8; stroke-dashoffset: 0; stroke: #000000; stroke-opacity: 0.5; stroke-width: 0.5"/>
     </g>
     <g id="line2d_14">
      <g>
       <use xlink:href="#m4a03ba4742" x="740.28079" y="520.7175" style="stroke: #000000"/>
      </g>
     </g>
     <g id="line2d_15">
      <g>
       <use xlink:href="#md2db17e124" x="740.28079" y="21.7575" style="stroke: #000000"/>
      </g>
     </g>
     <g id="text_5">
      <!-- 20 -->
      <g transform="translate(730.10079 536.375) scale(0.16 -0.16)">
       <defs>
        <path id="DejaVuSans-32" d="M 1228 531 
L 3431 531 
L 3431 0 
L 469 0 
L 469 531 
Q 828 903 1448 1529 
Q 2069 2156 2228 2338 
Q 2531 2678 2651 2914 
Q 2772 3150 2772 3378 
Q 2772 3750 2511 3984 
Q 2250 4219 1831 4219 
Q 1534 4219 1204 4116 
Q 875 4013 500 3803 
L 500 4441 
Q 881 4594 1212 4672 
Q 1544 4750 1819 4750 
Q 2544 4750 2975 4387 
Q 3406 4025 3406 3419 
Q 3406 3131 3298 2873 
Q 3191 2616 2906 2266 
Q 2828 2175 2409 1742 
Q 1991 1309 1228 531 
z
" transform="scale(0.015625)"/>
       </defs>
       <use xlink:href="#DejaVuSans-32"/>
       <use xlink:href="#DejaVuSans-30" x="63.623047"/>
      </g>
     </g>
    </g>
    <g id="xtick_6">
     <g id="line2d_16">
      <path d="M 892.487976 520.7175 
L 892.487976 21.7575 
" clip-path="url(#p403dab386b)" style="fill: none; stroke-dasharray: 1.85,0.8; stroke-dashoffset: 0; stroke: #000000; stroke-opacity: 0.5; stroke-width: 0.5"/>
     </g>
     <g id="line2d_17">
      <g>
       <use xlink:href="#m4a03ba4742" x="892.487976" y="520.7175" style="stroke: #000000"/>
      </g>
     </g>
     <g id="line2d_18">
      <g>
       <use xlink:href="#md2db17e124" x="892.487976" y="21.7575" style="stroke: #000000"/>
      </g>
     </g>
     <g id="text_6">
      <!-- 25 -->
      <g transform="translate(882.307976 536.375) scale(0.16 -0.16)">
       <use xlink:href="#DejaVuSans-32"/>
       <use xlink:href="#DejaVuSans-35" x="63.623047"/>
      </g>
     </g>
    </g>
    <g id="xtick_7">
     <g id="line2d_19">
      <path d="M 1044.695162 520.7175 
L 1044.695162 21.7575 
" clip-path="url(#p403dab386b)" style="fill: none; stroke-dasharray: 1.85,0.8; stroke-dashoffset: 0; stroke: #000000; stroke-opacity: 0.5; stroke-width: 0.5"/>
     </g>
     <g id="line2d_20">
      <g>
       <use xlink:href="#m4a03ba4742" x="1044.695162" y="520.7175" style="stroke: #000000"/>
      </g>
     </g>
     <g id="line2d_21">
      <g>
       <use xlink:href="#md2db17e124" x="1044.695162" y="21.7575" style="stroke: #000000"/>
      </g>
     </g>
     <g id="text_7">
      <!-- 30 -->
      <g transform="translate(1034.515162 536.375) scale(0.16 -0.16)">
       <defs>
        <path id="DejaVuSans-33" d="M 2597 2516 
Q 3050 2419 3304 2112 
Q 3559 1806 3559 1356 
Q 3559 666 3084 287 
Q 2609 -91 1734 -91 
Q 1441 -91 1130 -33 
Q 819 25 488 141 
L 488 750 
Q 750 597 1062 519 
Q 1375 441 1716 441 
Q 2309 441 2620 675 
Q 2931 909 2931 1356 
Q 2931 1769 2642 2001 
Q 2353 2234 1838 2234 
L 1294 2234 
L 1294 2753 
L 1863 2753 
Q 2328 2753 2575 2939 
Q 2822 3125 2822 3475 
Q 2822 3834 2567 4026 
Q 2313 4219 1838 4219 
Q 1578 4219 1281 4162 
Q 984 4106 628 3988 
L 628 4550 
Q 988 4650 1302 4700 
Q 1616 4750 1894 4750 
Q 2613 4750 3031 4423 
Q 3450 4097 3450 3541 
Q 3450 3153 3228 2886 
Q 3006 2619 2597 2516 
z
" transform="scale(0.015625)"/>
       </defs>
       <use xlink:href="#DejaVuSans-33"/>
       <use xlink:href="#DejaVuSans-30" x="63.623047"/>
      </g>
     </g>
    </g>
    <g id="xtick_8">
     <g id="line2d_22">
      <defs>
       <path id="m235acc9307" d="M 0 0 
L 0 -3 
" style="stroke: #000000"/>
      </defs>
      <g>
       <use xlink:href="#m235acc9307" x="101.010608" y="520.7175" style="stroke: #000000"/>
      </g>
     </g>
     <g id="line2d_23">
      <defs>
       <path id="mbbad81aef2" d="M 0 0 
L 0 3 
" style="stroke: #000000"/>
      </defs>
      <g>
       <use xlink:href="#mbbad81aef2" x="101.010608" y="21.7575" style="stroke: #000000"/>
      </g>
     </g>
    </g>
    <g id="xtick_9">
     <g id="line2d_24">
      <g>
       <use xlink:href="#m235acc9307" x="161.893483" y="520.7175" style="stroke: #000000"/>
      </g>
     </g>
     <g id="line2d_25">
      <g>
       <use xlink:href="#mbbad81aef2" x="161.893483" y="21.7575" style="stroke: #000000"/>
      </g>
     </g>
    </g>
    <g id="xtick_10">
     <g id="line2d_26">
      <g>
       <use xlink:href="#m235acc9307" x="192.33492" y="520.7175" style="stroke: #000000"/>
      </g>
     </g>
     <g id="line2d_27">
      <g>
       <use xlink:href="#mbbad81aef2" x="192.33492" y="21.7575" style="stroke: #000000"/>
      </g>
     </g>
    </g>
    <g id="xtick_11">
     <g id="line2d_28">
      <g>
       <use xlink:href="#m235acc9307" x="222.776357" y="520.7175" style="stroke: #000000"/>
      </g>
     </g>
     <g id="line2d_29">
      <g>
       <use xlink:href="#mbbad81aef2" x="222.776357" y="21.7575" style="stroke: #000000"/>
      </g>
     </g>
    </g>
    <g id="xtick_12">
     <g id="line2d_30">
      <g>
       <use xlink:href="#m235acc9307" x="253.217794" y="520.7175" style="stroke: #000000"/>
      </g>
     </g>
     <g id="line2d_31">
      <g>
       <use xlink:href="#mbbad81aef2" x="253.217794" y="21.7575" style="stroke: #000000"/>
      </g>
     </g>
    </g>
    <g id="xtick_13">
     <g id="line2d_32">
      <g>
       <use xlink:href="#m235acc9307" x="314.100669" y="520.7175" style="stroke: #000000"/>
      </g>
     </g>
     <g id="line2d_33">
      <g>
       <use xlink:href="#mbbad81aef2" x="314.100669" y="21.7575" style="stroke: #000000"/>
      </g>
     </g>
    </g>
    <g id="xtick_14">
     <g id="line2d_34">
      <g>
       <use xlink:href="#m235acc9307" x="344.542106" y="520.7175" style="stroke: #000000"/>
      </g>
     </g>
     <g id="line2d_35">
      <g>
       <use xlink:href="#mbbad81aef2" x="344.542106" y="21.7575" style="stroke: #000000"/>
      </g>
     </g>
    </g>
    <g id="xtick_15">
     <g id="line2d_36">
      <g>
       <use xlink:href="#m235acc9307" x="374.983543" y="520.7175" style="stroke: #000000"/>
      </g>
     </g>
     <g id="line2d_37">
      <g>
       <use xlink:href="#mbbad81aef2" x="374.983543" y="21.7575" style="stroke: #000000"/>
      </g>
     </g>
    </g>
    <g id="xtick_16">
     <g id="line2d_38">
      <g>
       <use xlink:href="#m235acc9307" x="405.42498" y="520.7175" style="stroke: #000000"/>
      </g>
     </g>
     <g id="line2d_39">
      <g>
       <use xlink:href="#mbbad81aef2" x="405.42498" y="21.7575" style="stroke: #000000"/>
      </g>
     </g>
    </g>
    <g id="xtick_17">
     <g id="line2d_40">
      <g>
       <use xlink:href="#m235acc9307" x="466.307855" y="520.7175" style="stroke: #000000"/>
      </g>
     </g>
     <g id="line2d_41">
      <g>
       <use xlink:href="#mbbad81aef2" x="466.307855" y="21.7575" style="stroke: #000000"/>
      </g>
     </g>
    </g>
    <g id="xtick_18">
     <g id="line2d_42">
      <g>
       <use xlink:href="#m235acc9307" x="496.749292" y="520.7175" style="stroke: #000000"/>
      </g>
     </g>
     <g id="line2d_43">
      <g>
       <use xlink:href="#mbbad81aef2" x="496.749292" y="21.7575" style="stroke: #000000"/>
      </g>
     </g>
    </g>
    <g id="xtick_19">
     <g id="line2d_44">
      <g>
       <use xlink:href="#m235acc9307" x="527.190729" y="520.7175" style="stroke: #000000"/>
      </g>
     </g>
     <g id="line2d_45">
      <g>
       <use xlink:href="#mbbad81aef2" x="527.190729" y="21.7575" style="stroke: #000000"/>
      </g>
     </g>
    </g>
    <g id="xtick_20">
     <g id="line2d_46">
      <g>
       <use xlink:href="#m235acc9307" x="557.632166" y="520.7175" style="stroke: #000000"/>
      </g>
     </g>
     <g id="line2d_47">
      <g>
       <use xlink:href="#mbbad81aef2" x="557.632166" y="21.7575" style="stroke: #000000"/>
      </g>
     </g>
    </g>
    <g id="xtick_21">
     <g id="line2d_48">
      <g>
       <use xlink:href="#m235acc9307" x="618.515041" y="520.7175" style="stroke: #000000"/>
      </g>
     </g>
     <g id="line2d_49">
      <g>
       <use xlink:href="#mbbad81aef2" x="618.515041" y="21.7575" style="stroke: #000000"/>
      </g>
     </g>
    </g>
    <g id="xtick_22">
     <g id="line2d_50">
      <g>
       <use xlink:href="#m235acc9307" x="648.956478" y="520.7175" style="stroke: #000000"/>
      </g>
     </g>
     <g id="line2d_51">
      <g>
       <use xlink:href="#mbbad81aef2" x="648.956478" y="21.7575" style="stroke: #000000"/>
      </g>
     </g>
    </g>
    <g id="xtick_23">
     <g id="line2d_52">
      <g>
       <use xlink:href="#m235acc9307" x="679.397915" y="520.7175" style="stroke: #000000"/>
      </g>
     </g>
     <g id="line2d_53">
      <g>
       <use xlink:href="#mbbad81aef2" x="679.397915" y="21.7575" style="stroke: #000000"/>
      </g>
     </g>
    </g>
    <g id="xtick_24">
     <g id="line2d_54">
      <g>
       <use xlink:href="#m235acc9307" x="709.839352" y="520.7175" style="stroke: #000000"/>
      </g>
     </g>
     <g id="line2d_55">
      <g>
       <use xlink:href="#mbbad81aef2" x="709.839352" y="21.7575" style="stroke: #000000"/>
      </g>
     </g>
    </g>
    <g id="xtick_25">
     <g id="line2d_56">
      <g>
       <use xlink:href="#m235acc9307" x="770.722227" y="520.7175" style="stroke: #000000"/>
      </g>
     </g>
     <g id="line2d_57">
      <g>
       <use xlink:href="#mbbad81aef2" x="770.722227" y="21.7575" style="stroke: #000000"/>
      </g>
     </g>
    </g>
    <g id="xtick_26">
     <g id="line2d_58">
      <g>
       <use xlink:href="#m235acc9307" x="801.163664" y="520.7175" style="stroke: #000000"/>
      </g>
     </g>
     <g id="line2d_59">
      <g>
       <use xlink:href="#mbbad81aef2" x="801.163664" y="21.7575" style="stroke: #000000"/>
      </g>
     </g>
    </g>
    <g id="xtick_27">
     <g id="line2d_60">
      <g>
       <use xlink:href="#m235acc9307" x="831.605101" y="520.7175" style="stroke: #000000"/>
      </g>
     </g>
     <g id="line2d_61">
      <g>
       <use xlink:href="#mbbad81aef2" x="831.605101" y="21.7575" style="stroke: #000000"/>
      </g>
     </g>
    </g>
    <g id="xtick_28">
     <g id="line2d_62">
      <g>
       <use xlink:href="#m235acc9307" x="862.046538" y="520.7175" style="stroke: #000000"/>
      </g>
     </g>
     <g id="line2d_63">
      <g>
       <use xlink:href="#mbbad81aef2" x="862.046538" y="21.7575" style="stroke: #000000"/>
      </g>
     </g>
    </g>
    <g id="xtick_29">
     <g id="line2d_64">
      <g>
       <use xlink:href="#m235acc9307" x="922.929413" y="520.7175" style="stroke: #000000"/>
      </g>
     </g>
     <g id="line2d_65">
      <g>
       <use xlink:href="#mbbad81aef2" x="922.929413" y="21.7575" style="stroke: #000000"/>
      </g>
     </g>
    </g>
    <g id="xtick_30">
     <g id="line2d_66">
      <g>
       <use xlink:href="#m235acc9307" x="953.37085" y="520.7175" style="stroke: #000000"/>
      </g>
     </g>
     <g id="line2d_67">
      <g>
       <use xlink:href="#mbbad81aef2" x="953.37085" y="21.7575" style="stroke: #000000"/>
      </g>
     </g>
    </g>
    <g id="xtick_31">
     <g id="line2d_68">
      <g>
       <use xlink:href="#m235acc9307" x="983.812287" y="520.7175" style="stroke: #000000"/>
      </g>
     </g>
     <g id="line2d_69">
      <g>
       <use xlink:href="#mbbad81aef2" x="983.812287" y="21.7575" style="stroke: #000000"/>
      </g>
     </g>
    </g>
    <g id="xtick_32">
     <g id="line2d_70">
      <g>
       <use xlink:href="#m235acc9307" x="1014.253725" y="520.7175" style="stroke: #000000"/>
      </g>
     </g>
     <g id="line2d_71">
      <g>
       <use xlink:href="#mbbad81aef2" x="1014.253725" y="21.7575" style="stroke: #000000"/>
      </g>
     </g>
    </g>
    <g id="xtick_33">
     <g id="line2d_72">
      <g>
       <use xlink:href="#m235acc9307" x="1075.136599" y="520.7175" style="stroke: #000000"/>
      </g>
     </g>
     <g id="line2d_73">
      <g>
       <use xlink:href="#mbbad81aef2" x="1075.136599" y="21.7575" style="stroke: #000000"/>
      </g>
     </g>
    </g>
    <g id="text_8">
     <!-- Time (s) -->
     <g transform="translate(555.47125 555.86) scale(0.16 -0.16)">
      <defs>
       <path id="DejaVuSans-54" d="M -19 4666 
L 3928 4666 
L 3928 4134 
L 2272 4134 
L 2272 0 
L 1638 0 
L 1638 4134 
L -19 4134 
L -19 4666 
z
" transform="scale(0.015625)"/>
       <path id="DejaVuSans-69" d="M 603 3500 
L 1178 3500 
L 1178 0 
L 603 0 
L 603 3500 
z
M 603 4863 
L 1178 4863 
L 1178 4134 
L 603 4134 
L 603 4863 
z
" transform="scale(0.015625)"/>
       <path id="DejaVuSans-6d" d="M 3328 2828 
Q 3544 3216 3844 3400 
Q 4144 3584 4550 3584 
Q 5097 3584 5394 3201 
Q 5691 2819 5691 2113 
L 5691 0 
L 5113 0 
L 5113 2094 
Q 5113 2597 4934 2840 
Q 4756 3084 4391 3084 
Q 3944 3084 3684 2787 
Q 3425 2491 3425 1978 
L 3425 0 
L 2847 0 
L 2847 2094 
Q 2847 2600 2669 2842 
Q 2491 3084 2119 3084 
Q 1678 3084 1418 2786 
Q 1159 2488 1159 1978 
L 1159 0 
L 581 0 
L 581 3500 
L 1159 3500 
L 1159 2956 
Q 1356 3278 1631 3431 
Q 1906 3584 2284 3584 
Q 2666 3584 2933 3390 
Q 3200 3197 3328 2828 
z
" transform="scale(0.015625)"/>
       <path id="DejaVuSans-65" d="M 3597 1894 
L 3597 1613 
L 953 1613 
Q 991 1019 1311 708 
Q 1631 397 2203 397 
Q 2534 397 2845 478 
Q 3156 559 3463 722 
L 3463 178 
Q 3153 47 2828 -22 
Q 2503 -91 2169 -91 
Q 1331 -91 842 396 
Q 353 884 353 1716 
Q 353 2575 817 3079 
Q 1281 3584 2069 3584 
Q 2775 3584 3186 3129 
Q 3597 2675 3597 1894 
z
M 3022 2063 
Q 3016 2534 2758 2815 
Q 2500 3097 2075 3097 
Q 1594 3097 1305 2825 
Q 1016 2553 972 2059 
L 3022 2063 
z
" transform="scale(0.015625)"/>
       <path id="DejaVuSans-20" transform="scale(0.015625)"/>
       <path id="DejaVuSans-28" d="M 1984 4856 
Q 1566 4138 1362 3434 
Q 1159 2731 1159 2009 
Q 1159 1288 1364 580 
Q 1569 -128 1984 -844 
L 1484 -844 
Q 1016 -109 783 600 
Q 550 1309 550 2009 
Q 550 2706 781 3412 
Q 1013 4119 1484 4856 
L 1984 4856 
z
" transform="scale(0.015625)"/>
       <path id="DejaVuSans-73" d="M 2834 3397 
L 2834 2853 
Q 2591 2978 2328 3040 
Q 2066 3103 1784 3103 
Q 1356 3103 1142 2972 
Q 928 2841 928 2578 
Q 928 2378 1081 2264 
Q 1234 2150 1697 2047 
L 1894 2003 
Q 2506 1872 2764 1633 
Q 3022 1394 3022 966 
Q 3022 478 2636 193 
Q 2250 -91 1575 -91 
Q 1294 -91 989 -36 
Q 684 19 347 128 
L 347 722 
Q 666 556 975 473 
Q 1284 391 1588 391 
Q 1994 391 2212 530 
Q 2431 669 2431 922 
Q 2431 1156 2273 1281 
Q 2116 1406 1581 1522 
L 1381 1569 
Q 847 1681 609 1914 
Q 372 2147 372 2553 
Q 372 3047 722 3315 
Q 1072 3584 1716 3584 
Q 2034 3584 2315 3537 
Q 2597 3491 2834 3397 
z
" transform="scale(0.015625)"/>
       <path id="DejaVuSans-29" d="M 513 4856 
L 1013 4856 
Q 1481 4119 1714 3412 
Q 1947 2706 1947 2009 
Q 1947 1309 1714 600 
Q 1481 -109 1013 -844 
L 513 -844 
Q 928 -128 1133 580 
Q 1338 1288 1338 2009 
Q 1338 2731 1133 3434 
Q 928 4138 513 4856 
z
" transform="scale(0.015625)"/>
      </defs>
      <use xlink:href="#DejaVuSans-54"/>
      <use xlink:href="#DejaVuSans-69" x="57.958984"/>
      <use xlink:href="#DejaVuSans-6d" x="85.742188"/>
      <use xlink:href="#DejaVuSans-65" x="183.154297"/>
      <use xlink:href="#DejaVuSans-20" x="244.677734"/>
      <use xlink:href="#DejaVuSans-28" x="276.464844"/>
      <use xlink:href="#DejaVuSans-73" x="315.478516"/>
      <use xlink:href="#DejaVuSans-29" x="367.578125"/>
     </g>
    </g>
   </g>
   <g id="matplotlib.axis_2">
    <g id="ytick_1">
     <g id="line2d_74">
      <path d="M 85.7975 476.403337 
L 1090.1975 476.403337 
" clip-path="url(#p403dab386b)" style="fill: none; stroke-dasharray: 1.85,0.8; stroke-dashoffset: 0; stroke: #000000; stroke-opacity: 0.5; stroke-width: 0.5"/>
     </g>
     <g id="line2d_75">
      <defs>
       <path id="m75d691b025" d="M 0 0 
L 6 0 
" style="stroke: #000000"/>
      </defs>
      <g>
       <use xlink:href="#m75d691b025" x="85.7975" y="476.403337" style="stroke: #000000"/>
      </g>
     </g>
     <g id="line2d_76">
      <defs>
       <path id="mdd8cda6ece" d="M 0 0 
L -6 0 
" style="stroke: #000000"/>
      </defs>
      <g>
       <use xlink:href="#mdd8cda6ece" x="1090.1975" y="476.403337" style="stroke: #000000"/>
      </g>
     </g>
     <g id="text_9">
      <!-- −0.010 -->
      <g transform="translate(23.085 482.482087) scale(0.16 -0.16)">
       <defs>
        <path id="DejaVuSans-2212" d="M 678 2272 
L 4684 2272 
L 4684 1741 
L 678 1741 
L 678 2272 
z
" transform="scale(0.015625)"/>
        <path id="DejaVuSans-2e" d="M 684 794 
L 1344 794 
L 1344 0 
L 684 0 
L 684 794 
z
" transform="scale(0.015625)"/>
       </defs>
       <use xlink:href="#DejaVuSans-2212"/>
       <use xlink:href="#DejaVuSans-30" x="83.789062"/>
       <use xlink:href="#DejaVuSans-2e" x="147.412109"/>
       <use xlink:href="#DejaVuSans-30" x="179.199219"/>
       <use xlink:href="#DejaVuSans-31" x="242.822266"/>
       <use xlink:href="#DejaVuSans-30" x="306.445312"/>
      </g>
     </g>
    </g>
    <g id="ytick_2">
     <g id="line2d_77">
      <path d="M 85.7975 390.296302 
L 1090.1975 390.296302 
" clip-path="url(#p403dab386b)" style="fill: none; stroke-dasharray: 1.85,0.8; stroke-dashoffset: 0; stroke: #000000; stroke-opacity: 0.5; stroke-width: 0.5"/>
     </g>
     <g id="line2d_78">
      <g>
       <use xlink:href="#m75d691b025" x="85.7975" y="390.296302" style="stroke: #000000"/>
      </g>
     </g>
     <g id="line2d_79">
      <g>
       <use xlink:href="#mdd8cda6ece" x="1090.1975" y="390.296302" style="stroke: #000000"/>
      </g>
     </g>
     <g id="text_10">
      <!-- −0.008 -->
      <g transform="translate(23.085 396.375052) scale(0.16 -0.16)">
       <defs>
        <path id="DejaVuSans-38" d="M 2034 2216 
Q 1584 2216 1326 1975 
Q 1069 1734 1069 1313 
Q 1069 891 1326 650 
Q 1584 409 2034 409 
Q 2484 409 2743 651 
Q 3003 894 3003 1313 
Q 3003 1734 2745 1975 
Q 2488 2216 2034 2216 
z
M 1403 2484 
Q 997 2584 770 2862 
Q 544 3141 544 3541 
Q 544 4100 942 4425 
Q 1341 4750 2034 4750 
Q 2731 4750 3128 4425 
Q 3525 4100 3525 3541 
Q 3525 3141 3298 2862 
Q 3072 2584 2669 2484 
Q 3125 2378 3379 2068 
Q 3634 1759 3634 1313 
Q 3634 634 3220 271 
Q 2806 -91 2034 -91 
Q 1263 -91 848 271 
Q 434 634 434 1313 
Q 434 1759 690 2068 
Q 947 2378 1403 2484 
z
M 1172 3481 
Q 1172 3119 1398 2916 
Q 1625 2713 2034 2713 
Q 2441 2713 2670 2916 
Q 2900 3119 2900 3481 
Q 2900 3844 2670 4047 
Q 2441 4250 2034 4250 
Q 1625 4250 1398 4047 
Q 1172 3844 1172 3481 
z
" transform="scale(0.015625)"/>
       </defs>
       <use xlink:href="#DejaVuSans-2212"/>
       <use xlink:href="#DejaVuSans-30" x="83.789062"/>
       <use xlink:href="#DejaVuSans-2e" x="147.412109"/>
       <use xlink:href="#DejaVuSans-30" x="179.199219"/>
       <use xlink:href="#DejaVuSans-30" x="242.822266"/>
       <use xlink:href="#DejaVuSans-38" x="306.445312"/>
      </g>
     </g>
    </g>
    <g id="ytick_3">
     <g id="line2d_80">
      <path d="M 85.7975 304.189268 
L 1090.1975 304.189268 
" clip-path="url(#p403dab386b)" style="fill: none; stroke-dasharray: 1.85,0.8; stroke-dashoffset: 0; stroke: #000000; stroke-opacity: 0.5; stroke-width: 0.5"/>
     </g>
     <g id="line2d_81">
      <g>
       <use xlink:href="#m75d691b025" x="85.7975" y="304.189268" style="stroke: #000000"/>
      </g>
     </g>
     <g id="line2d_82">
      <g>
       <use xlink:href="#mdd8cda6ece" x="1090.1975" y="304.189268" style="stroke: #000000"/>
      </g>
     </g>
     <g id="text_11">
      <!-- −0.006 -->
      <g transform="translate(23.085 310.268018) scale(0.16 -0.16)">
       <defs>
        <path id="DejaVuSans-36" d="M 2113 2584 
Q 1688 2584 1439 2293 
Q 1191 2003 1191 1497 
Q 1191 994 1439 701 
Q 1688 409 2113 409 
Q 2538 409 2786 701 
Q 3034 994 3034 1497 
Q 3034 2003 2786 2293 
Q 2538 2584 2113 2584 
z
M 3366 4563 
L 3366 3988 
Q 3128 4100 2886 4159 
Q 2644 4219 2406 4219 
Q 1781 4219 1451 3797 
Q 1122 3375 1075 2522 
Q 1259 2794 1537 2939 
Q 1816 3084 2150 3084 
Q 2853 3084 3261 2657 
Q 3669 2231 3669 1497 
Q 3669 778 3244 343 
Q 2819 -91 2113 -91 
Q 1303 -91 875 529 
Q 447 1150 447 2328 
Q 447 3434 972 4092 
Q 1497 4750 2381 4750 
Q 2619 4750 2861 4703 
Q 3103 4656 3366 4563 
z
" transform="scale(0.015625)"/>
       </defs>
       <use xlink:href="#DejaVuSans-2212"/>
       <use xlink:href="#DejaVuSans-30" x="83.789062"/>
       <use xlink:href="#DejaVuSans-2e" x="147.412109"/>
       <use xlink:href="#DejaVuSans-30" x="179.199219"/>
       <use xlink:href="#DejaVuSans-30" x="242.822266"/>
       <use xlink:href="#DejaVuSans-36" x="306.445312"/>
      </g>
     </g>
    </g>
    <g id="ytick_4">
     <g id="line2d_83">
      <path d="M 85.7975 218.082234 
L 1090.1975 218.082234 
" clip-path="url(#p403dab386b)" style="fill: none; stroke-dasharray: 1.85,0.8; stroke-dashoffset: 0; stroke: #000000; stroke-opacity: 0.5; stroke-width: 0.5"/>
     </g>
     <g id="line2d_84">
      <g>
       <use xlink:href="#m75d691b025" x="85.7975" y="218.082234" style="stroke: #000000"/>
      </g>
     </g>
     <g id="line2d_85">
      <g>
       <use xlink:href="#mdd8cda6ece" x="1090.1975" y="218.082234" style="stroke: #000000"/>
      </g>
     </g>
     <g id="text_12">
      <!-- −0.004 -->
      <g transform="translate(23.085 224.160984) scale(0.16 -0.16)">
       <defs>
        <path id="DejaVuSans-34" d="M 2419 4116 
L 825 1625 
L 2419 1625 
L 2419 4116 
z
M 2253 4666 
L 3047 4666 
L 3047 1625 
L 3713 1625 
L 3713 1100 
L 3047 1100 
L 3047 0 
L 2419 0 
L 2419 1100 
L 313 1100 
L 313 1709 
L 2253 4666 
z
" transform="scale(0.015625)"/>
       </defs>
       <use xlink:href="#DejaVuSans-2212"/>
       <use xlink:href="#DejaVuSans-30" x="83.789062"/>
       <use xlink:href="#DejaVuSans-2e" x="147.412109"/>
       <use xlink:href="#DejaVuSans-30" x="179.199219"/>
       <use xlink:href="#DejaVuSans-30" x="242.822266"/>
       <use xlink:href="#DejaVuSans-34" x="306.445312"/>
      </g>
     </g>
    </g>
    <g id="ytick_5">
     <g id="line2d_86">
      <path d="M 85.7975 131.9752 
L 1090.1975 131.9752 
" clip-path="url(#p403dab386b)" style="fill: none; stroke-dasharray: 1.85,0.8; stroke-dashoffset: 0; stroke: #000000; stroke-opacity: 0.5; stroke-width: 0.5"/>
     </g>
     <g id="line2d_87">
      <g>
       <use xlink:href="#m75d691b025" x="85.7975" y="131.9752" style="stroke: #000000"/>
      </g>
     </g>
     <g id="line2d_88">
      <g>
       <use xlink:href="#mdd8cda6ece" x="1090.1975" y="131.9752" style="stroke: #000000"/>
      </g>
     </g>
     <g id="text_13">
      <!-- −0.002 -->
      <g transform="translate(23.085 138.05395) scale(0.16 -0.16)">
       <use xlink:href="#DejaVuSans-2212"/>
       <use xlink:href="#DejaVuSans-30" x="83.789062"/>
       <use xlink:href="#DejaVuSans-2e" x="147.412109"/>
       <use xlink:href="#DejaVuSans-30" x="179.199219"/>
       <use xlink:href="#DejaVuSans-30" x="242.822266"/>
       <use xlink:href="#DejaVuSans-32" x="306.445312"/>
      </g>
     </g>
    </g>
    <g id="ytick_6">
     <g id="line2d_89">
      <path d="M 85.7975 45.868165 
L 1090.1975 45.868165 
" clip-path="url(#p403dab386b)" style="fill: none; stroke-dasharray: 1.85,0.8; stroke-dashoffset: 0; stroke: #000000; stroke-opacity: 0.5; stroke-width: 0.5"/>
     </g>
     <g id="line2d_90">
      <g>
       <use xlink:href="#m75d691b025" x="85.7975" y="45.868165" style="stroke: #000000"/>
      </g>
     </g>
     <g id="line2d_91">
      <g>
       <use xlink:href="#mdd8cda6ece" x="1090.1975" y="45.868165" style="stroke: #000000"/>
      </g>
     </g>
     <g id="text_14">
      <!-- 0.000 -->
      <g transform="translate(36.4925 51.946915) scale(0.16 -0.16)">
       <use xlink:href="#DejaVuSans-30"/>
       <use xlink:href="#DejaVuSans-2e" x="63.623047"/>
       <use xlink:href="#DejaVuSans-30" x="95.410156"/>
       <use xlink:href="#DejaVuSans-30" x="159.033203"/>
       <use xlink:href="#DejaVuSans-30" x="222.65625"/>
      </g>
     </g>
    </g>
    <g id="ytick_7">
     <g id="line2d_92">
      <defs>
       <path id="m7777ae9e44" d="M 0 0 
L 3 0 
" style="stroke: #000000"/>
      </defs>
      <g>
       <use xlink:href="#m7777ae9e44" x="85.7975" y="519.456854" style="stroke: #000000"/>
      </g>
     </g>
     <g id="line2d_93">
      <defs>
       <path id="meaee19bba7" d="M 0 0 
L -3 0 
" style="stroke: #000000"/>
      </defs>
      <g>
       <use xlink:href="#meaee19bba7" x="1090.1975" y="519.456854" style="stroke: #000000"/>
      </g>
     </g>
    </g>
    <g id="ytick_8">
     <g id="line2d_94">
      <g>
       <use xlink:href="#m7777ae9e44" x="85.7975" y="497.930095" style="stroke: #000000"/>
      </g>
     </g>
     <g id="line2d_95">
      <g>
       <use xlink:href="#meaee19bba7" x="1090.1975" y="497.930095" style="stroke: #000000"/>
      </g>
     </g>
    </g>
    <g id="ytick_9">
     <g id="line2d_96">
      <g>
       <use xlink:href="#m7777ae9e44" x="85.7975" y="454.876578" style="stroke: #000000"/>
      </g>
     </g>
     <g id="line2d_97">
      <g>
       <use xlink:href="#meaee19bba7" x="1090.1975" y="454.876578" style="stroke: #000000"/>
      </g>
     </g>
    </g>
    <g id="ytick_10">
     <g id="line2d_98">
      <g>
       <use xlink:href="#m7777ae9e44" x="85.7975" y="433.349819" style="stroke: #000000"/>
      </g>
     </g>
     <g id="line2d_99">
      <g>
       <use xlink:href="#meaee19bba7" x="1090.1975" y="433.349819" style="stroke: #000000"/>
      </g>
     </g>
    </g>
    <g id="ytick_11">
     <g id="line2d_100">
      <g>
       <use xlink:href="#m7777ae9e44" x="85.7975" y="411.823061" style="stroke: #000000"/>
      </g>
     </g>
     <g id="line2d_101">
      <g>
       <use xlink:href="#meaee19bba7" x="1090.1975" y="411.823061" style="stroke: #000000"/>
      </g>
     </g>
    </g>
    <g id="ytick_12">
     <g id="line2d_102">
      <g>
       <use xlink:href="#m7777ae9e44" x="85.7975" y="368.769544" style="stroke: #000000"/>
      </g>
     </g>
     <g id="line2d_103">
      <g>
       <use xlink:href="#meaee19bba7" x="1090.1975" y="368.769544" style="stroke: #000000"/>
      </g>
     </g>
    </g>
    <g id="ytick_13">
     <g id="line2d_104">
      <g>
       <use xlink:href="#m7777ae9e44" x="85.7975" y="347.242785" style="stroke: #000000"/>
      </g>
     </g>
     <g id="line2d_105">
      <g>
       <use xlink:href="#meaee19bba7" x="1090.1975" y="347.242785" style="stroke: #000000"/>
      </g>
     </g>
    </g>
    <g id="ytick_14">
     <g id="line2d_106">
      <g>
       <use xlink:href="#m7777ae9e44" x="85.7975" y="325.716027" style="stroke: #000000"/>
      </g>
     </g>
     <g id="line2d_107">
      <g>
       <use xlink:href="#meaee19bba7" x="1090.1975" y="325.716027" style="stroke: #000000"/>
      </g>
     </g>
    </g>
    <g id="ytick_15">
     <g id="line2d_108">
      <g>
       <use xlink:href="#m7777ae9e44" x="85.7975" y="282.66251" style="stroke: #000000"/>
      </g>
     </g>
     <g id="line2d_109">
      <g>
       <use xlink:href="#meaee19bba7" x="1090.1975" y="282.66251" style="stroke: #000000"/>
      </g>
     </g>
    </g>
    <g id="ytick_16">
     <g id="line2d_110">
      <g>
       <use xlink:href="#m7777ae9e44" x="85.7975" y="261.135751" style="stroke: #000000"/>
      </g>
     </g>
     <g id="line2d_111">
      <g>
       <use xlink:href="#meaee19bba7" x="1090.1975" y="261.135751" style="stroke: #000000"/>
      </g>
     </g>
    </g>
    <g id="ytick_17">
     <g id="line2d_112">
      <g>
       <use xlink:href="#m7777ae9e44" x="85.7975" y="239.608992" style="stroke: #000000"/>
      </g>
     </g>
     <g id="line2d_113">
      <g>
       <use xlink:href="#meaee19bba7" x="1090.1975" y="239.608992" style="stroke: #000000"/>
      </g>
     </g>
    </g>
    <g id="ytick_18">
     <g id="line2d_114">
      <g>
       <use xlink:href="#m7777ae9e44" x="85.7975" y="196.555475" style="stroke: #000000"/>
      </g>
     </g>
     <g id="line2d_115">
      <g>
       <use xlink:href="#meaee19bba7" x="1090.1975" y="196.555475" style="stroke: #000000"/>
      </g>
     </g>
    </g>
    <g id="ytick_19">
     <g id="line2d_116">
      <g>
       <use xlink:href="#m7777ae9e44" x="85.7975" y="175.028717" style="stroke: #000000"/>
      </g>
     </g>
     <g id="line2d_117">
      <g>
       <use xlink:href="#meaee19bba7" x="1090.1975" y="175.028717" style="stroke: #000000"/>
      </g>
     </g>
    </g>
    <g id="ytick_20">
     <g id="line2d_118">
      <g>
       <use xlink:href="#m7777ae9e44" x="85.7975" y="153.501958" style="stroke: #000000"/>
      </g>
     </g>
     <g id="line2d_119">
      <g>
       <use xlink:href="#meaee19bba7" x="1090.1975" y="153.501958" style="stroke: #000000"/>
      </g>
     </g>
    </g>
    <g id="ytick_21">
     <g id="line2d_120">
      <g>
       <use xlink:href="#m7777ae9e44" x="85.7975" y="110.448441" style="stroke: #000000"/>
      </g>
     </g>
     <g id="line2d_121">
      <g>
       <use xlink:href="#meaee19bba7" x="1090.1975" y="110.448441" style="stroke: #000000"/>
      </g>
     </g>
    </g>
    <g id="ytick_22">
     <g id="line2d_122">
      <g>
       <use xlink:href="#m7777ae9e44" x="85.7975" y="88.921682" style="stroke: #000000"/>
      </g>
     </g>
     <g id="line2d_123">
      <g>
       <use xlink:href="#meaee19bba7" x="1090.1975" y="88.921682" style="stroke: #000000"/>
      </g>
     </g>
    </g>
    <g id="ytick_23">
     <g id="line2d_124">
      <g>
       <use xlink:href="#m7777ae9e44" x="85.7975" y="67.394924" style="stroke: #000000"/>
      </g>
     </g>
     <g id="line2d_125">
      <g>
       <use xlink:href="#meaee19bba7" x="1090.1975" y="67.394924" style="stroke: #000000"/>
      </g>
     </g>
    </g>
    <g id="ytick_24">
     <g id="line2d_126">
      <g>
       <use xlink:href="#m7777ae9e44" x="85.7975" y="24.341407" style="stroke: #000000"/>
      </g>
     </g>
     <g id="line2d_127">
      <g>
       <use xlink:href="#meaee19bba7" x="1090.1975" y="24.341407" style="stroke: #000000"/>
      </g>
     </g>
    </g>
    <g id="text_15">
     <!-- Base Displacement -->
     <g transform="translate(15.7575 348.2575) rotate(-90) scale(0.16 -0.16)">
      <defs>
       <path id="DejaVuSans-42" d="M 1259 2228 
L 1259 519 
L 2272 519 
Q 2781 519 3026 730 
Q 3272 941 3272 1375 
Q 3272 1813 3026 2020 
Q 2781 2228 2272 2228 
L 1259 2228 
z
M 1259 4147 
L 1259 2741 
L 2194 2741 
Q 2656 2741 2882 2914 
Q 3109 3088 3109 3444 
Q 3109 3797 2882 3972 
Q 2656 4147 2194 4147 
L 1259 4147 
z
M 628 4666 
L 2241 4666 
Q 2963 4666 3353 4366 
Q 3744 4066 3744 3513 
Q 3744 3084 3544 2831 
Q 3344 2578 2956 2516 
Q 3422 2416 3680 2098 
Q 3938 1781 3938 1306 
Q 3938 681 3513 340 
Q 3088 0 2303 0 
L 628 0 
L 628 4666 
z
" transform="scale(0.015625)"/>
       <path id="DejaVuSans-61" d="M 2194 1759 
Q 1497 1759 1228 1600 
Q 959 1441 959 1056 
Q 959 750 1161 570 
Q 1363 391 1709 391 
Q 2188 391 2477 730 
Q 2766 1069 2766 1631 
L 2766 1759 
L 2194 1759 
z
M 3341 1997 
L 3341 0 
L 2766 0 
L 2766 531 
Q 2569 213 2275 61 
Q 1981 -91 1556 -91 
Q 1019 -91 701 211 
Q 384 513 384 1019 
Q 384 1609 779 1909 
Q 1175 2209 1959 2209 
L 2766 2209 
L 2766 2266 
Q 2766 2663 2505 2880 
Q 2244 3097 1772 3097 
Q 1472 3097 1187 3025 
Q 903 2953 641 2809 
L 641 3341 
Q 956 3463 1253 3523 
Q 1550 3584 1831 3584 
Q 2591 3584 2966 3190 
Q 3341 2797 3341 1997 
z
" transform="scale(0.015625)"/>
       <path id="DejaVuSans-44" d="M 1259 4147 
L 1259 519 
L 2022 519 
Q 2988 519 3436 956 
Q 3884 1394 3884 2338 
Q 3884 3275 3436 3711 
Q 2988 4147 2022 4147 
L 1259 4147 
z
M 628 4666 
L 1925 4666 
Q 3281 4666 3915 4102 
Q 4550 3538 4550 2338 
Q 4550 1131 3912 565 
Q 3275 0 1925 0 
L 628 0 
L 628 4666 
z
" transform="scale(0.015625)"/>
       <path id="DejaVuSans-70" d="M 1159 525 
L 1159 -1331 
L 581 -1331 
L 581 3500 
L 1159 3500 
L 1159 2969 
Q 1341 3281 1617 3432 
Q 1894 3584 2278 3584 
Q 2916 3584 3314 3078 
Q 3713 2572 3713 1747 
Q 3713 922 3314 415 
Q 2916 -91 2278 -91 
Q 1894 -91 1617 61 
Q 1341 213 1159 525 
z
M 3116 1747 
Q 3116 2381 2855 2742 
Q 2594 3103 2138 3103 
Q 1681 3103 1420 2742 
Q 1159 2381 1159 1747 
Q 1159 1113 1420 752 
Q 1681 391 2138 391 
Q 2594 391 2855 752 
Q 3116 1113 3116 1747 
z
" transform="scale(0.015625)"/>
       <path id="DejaVuSans-6c" d="M 603 4863 
L 1178 4863 
L 1178 0 
L 603 0 
L 603 4863 
z
" transform="scale(0.015625)"/>
       <path id="DejaVuSans-63" d="M 3122 3366 
L 3122 2828 
Q 2878 2963 2633 3030 
Q 2388 3097 2138 3097 
Q 1578 3097 1268 2742 
Q 959 2388 959 1747 
Q 959 1106 1268 751 
Q 1578 397 2138 397 
Q 2388 397 2633 464 
Q 2878 531 3122 666 
L 3122 134 
Q 2881 22 2623 -34 
Q 2366 -91 2075 -91 
Q 1284 -91 818 406 
Q 353 903 353 1747 
Q 353 2603 823 3093 
Q 1294 3584 2113 3584 
Q 2378 3584 2631 3529 
Q 2884 3475 3122 3366 
z
" transform="scale(0.015625)"/>
       <path id="DejaVuSans-6e" d="M 3513 2113 
L 3513 0 
L 2938 0 
L 2938 2094 
Q 2938 2591 2744 2837 
Q 2550 3084 2163 3084 
Q 1697 3084 1428 2787 
Q 1159 2491 1159 1978 
L 1159 0 
L 581 0 
L 581 3500 
L 1159 3500 
L 1159 2956 
Q 1366 3272 1645 3428 
Q 1925 3584 2291 3584 
Q 2894 3584 3203 3211 
Q 3513 2838 3513 2113 
z
" transform="scale(0.015625)"/>
       <path id="DejaVuSans-74" d="M 1172 4494 
L 1172 3500 
L 2356 3500 
L 2356 3053 
L 1172 3053 
L 1172 1153 
Q 1172 725 1289 603 
Q 1406 481 1766 481 
L 2356 481 
L 2356 0 
L 1766 0 
Q 1100 0 847 248 
Q 594 497 594 1153 
L 594 3053 
L 172 3053 
L 172 3500 
L 594 3500 
L 594 4494 
L 1172 4494 
z
" transform="scale(0.015625)"/>
      </defs>
      <use xlink:href="#DejaVuSans-42"/>
      <use xlink:href="#DejaVuSans-61" x="68.603516"/>
      <use xlink:href="#DejaVuSans-73" x="129.882812"/>
      <use xlink:href="#DejaVuSans-65" x="181.982422"/>
      <use xlink:href="#DejaVuSans-20" x="243.505859"/>
      <use xlink:href="#DejaVuSans-44" x="275.292969"/>
      <use xlink:href="#DejaVuSans-69" x="352.294922"/>
      <use xlink:href="#DejaVuSans-73" x="380.078125"/>
      <use xlink:href="#DejaVuSans-70" x="432.177734"/>
      <use xlink:href="#DejaVuSans-6c" x="495.654297"/>
      <use xlink:href="#DejaVuSans-61" x="523.4375"/>
      <use xlink:href="#DejaVuSans-63" x="584.716797"/>
      <use xlink:href="#DejaVuSans-65" x="639.697266"/>
      <use xlink:href="#DejaVuSans-6d" x="701.220703"/>
      <use xlink:href="#DejaVuSans-65" x="798.632812"/>
      <use xlink:href="#DejaVuSans-6e" x="860.15625"/>
      <use xlink:href="#DejaVuSans-74" x="923.535156"/>
     </g>
    </g>
   </g>
   <g id="line2d_128">
    <path d="M 131.452045 45.868165 
L 149.869115 45.73483 
L 164.481005 45.666652 
L 171.939157 45.56664 
L 176.65758 45.529616 
L 190.051812 45.269229 
L 194.922442 44.963708 
L 196.444514 45.062019 
L 197.509964 44.877981 
L 198.575415 44.65859 
L 199.945279 44.680441 
L 201.619558 44.620871 
L 204.511495 44.44868 
L 205.729152 44.633691 
L 206.94681 44.834559 
L 210.904197 44.993792 
L 211.665233 45.168596 
L 211.81744 45.308444 
L 211.969647 45.650439 
L 212.274061 47.700873 
L 212.578476 52.094306 
L 213.796133 74.28615 
L 214.100547 75.577356 
L 214.557169 75.834259 
L 215.470412 76.017766 
L 217.144691 76.25843 
L 217.449106 76.571531 
L 217.75352 77.591294 
L 218.362349 80.300669 
L 218.81897 80.417922 
L 219.580006 80.387318 
L 219.884421 80.26896 
L 220.036628 80.076358 
L 220.188835 79.586079 
L 220.493249 77.060421 
L 220.949871 69.697941 
L 221.406492 63.207028 
L 221.5587 62.903677 
L 222.167528 62.913421 
L 222.319736 62.976277 
L 222.471943 63.22137 
L 222.62415 64.064554 
L 222.928564 68.925865 
L 223.232979 78.669837 
L 223.6896 101.179546 
L 227.190365 299.326258 
L 227.49478 305.1716 
L 227.646987 306.185751 
L 227.951401 306.340882 
L 231.452167 306.794292 
L 232.974239 306.793596 
L 235.409554 306.844809 
L 237.23604 306.759103 
L 237.844869 306.593145 
L 238.30149 306.232397 
L 238.910319 305.56635 
L 239.519148 305.36556 
L 240.736805 305.304033 
L 241.802255 305.192101 
L 242.258877 304.971042 
L 242.715498 304.453697 
L 243.17212 303.673521 
L 243.628742 302.352589 
L 244.085363 300.140861 
L 244.694192 295.767424 
L 245.150813 292.80947 
L 245.455228 292.380461 
L 246.064057 292.291977 
L 246.825092 292.370257 
L 247.129507 292.526008 
L 248.194957 293.4901 
L 249.412615 293.632428 
L 252.91338 293.887919 
L 254.587659 293.669486 
L 256.261938 293.334843 
L 259.001667 293.356226 
L 260.523739 293.441909 
L 262.045811 293.52046 
L 268.59072 293.225129 
L 271.026035 292.812086 
L 272.852521 292.681033 
L 274.679008 292.465554 
L 277.875358 292.348902 
L 280.919502 292.508512 
L 284.115853 292.455562 
L 285.485718 292.677571 
L 287.00779 293.128879 
L 288.834276 293.146327 
L 290.508555 293.022164 
L 292.335041 292.80787 
L 294.00932 292.525589 
L 295.683599 292.342364 
L 304.81603 292.203718 
L 306.033688 292.368005 
L 307.251345 292.497989 
L 310.295489 292.447124 
L 313.035218 292.332909 
L 320.036749 292.560679 
L 320.949992 292.820258 
L 321.863235 293.150981 
L 323.080893 293.258294 
L 325.820622 293.196202 
L 327.190487 293.013577 
L 328.10373 292.705656 
L 328.864766 292.21786 
L 330.082423 291.285424 
L 330.843459 291.031306 
L 332.213324 290.857134 
L 333.887603 290.827088 
L 335.714089 291.006355 
L 337.997197 291.132394 
L 341.650169 291.243186 
L 341.954584 291.555809 
L 342.106791 291.961496 
L 342.411205 293.863002 
L 342.71562 297.868757 
L 343.172241 308.852969 
L 343.78107 331.3853 
L 344.542106 359.753239 
L 344.84652 366.325108 
L 344.998727 367.656844 
L 345.303142 367.801766 
L 345.911971 367.759118 
L 346.216385 367.595137 
L 346.368592 367.29238 
L 346.520799 366.579243 
L 346.825214 363.380821 
L 347.281835 354.504763 
L 348.042871 338.271194 
L 348.347286 334.726227 
L 348.6517 333.358912 
L 349.108322 333.015595 
L 349.869357 332.806087 
L 350.782601 332.791289 
L 351.391429 332.942997 
L 352.761294 333.595102 
L 353.826744 333.701506 
L 355.348816 333.625698 
L 356.109852 333.448443 
L 356.566474 333.156974 
L 357.784131 331.930819 
L 358.545167 331.880985 
L 359.001789 331.968571 
L 359.153996 332.072625 
L 359.306203 332.355516 
L 359.45841 333.045449 
L 359.762825 336.227085 
L 360.219446 345.65891 
L 360.676068 360.575544 
L 361.284896 389.090354 
L 363.26359 494.966399 
L 363.415797 497.470213 
L 363.568004 498.02394 
L 364.176833 497.995018 
L 364.32904 497.907512 
L 364.481247 497.539238 
L 364.633454 496.408471 
L 364.937869 490.637698 
L 365.242283 479.792544 
L 365.851112 447.133823 
L 366.612148 407.048734 
L 366.916562 397.425188 
L 367.220977 393.598218 
L 367.677598 393.507528 
L 368.286427 393.573361 
L 368.438634 393.690769 
L 368.590841 394.192646 
L 368.743049 395.628223 
L 369.047463 402.616745 
L 369.504084 423.511342 
L 370.569535 479.643835 
L 371.026156 490.627112 
L 371.330571 493.297188 
L 371.634985 493.712136 
L 372.243814 493.823839 
L 372.852643 493.783714 
L 373.00485 493.717627 
L 373.157057 493.509321 
L 373.309264 492.911794 
L 373.613678 490.209274 
L 374.0703 486.180709 
L 374.374714 486.056455 
L 375.287958 486.119695 
L 376.505615 486.2381 
L 378.636516 486.343582 
L 380.158587 486.43926 
L 384.268181 486.297431 
L 387.768947 485.905994 
L 388.986604 486.086881 
L 390.660883 486.408581 
L 392.182955 486.405424 
L 398.727864 485.861513 
L 401.924215 485.936265 
L 404.35953 486.136878 
L 405.577188 486.14991 
L 406.794845 485.92787 
L 408.469124 485.617019 
L 409.838989 485.580352 
L 413.187547 485.683017 
L 416.231691 485.716951 
L 421.254528 485.835572 
L 424.298671 485.888645 
L 433.58331 486.03342 
L 440.737048 485.65138 
L 445.303263 485.521098 
L 445.759885 485.699868 
L 446.216506 486.158532 
L 446.673128 486.636722 
L 447.281957 486.849724 
L 448.651821 486.984388 
L 454.740109 487.070387 
L 462.046054 487.166832 
L 464.633576 487.3668 
L 465.699026 487.063002 
L 466.764476 486.793834 
L 467.982134 486.741219 
L 470.721863 486.737093 
L 472.396142 486.465667 
L 473.309385 486.559205 
L 473.766007 486.791759 
L 474.67925 487.658072 
L 475.440286 487.786 
L 477.418979 487.784853 
L 479.245466 487.684074 
L 483.050645 487.171044 
L 484.724924 487.329905 
L 486.703618 487.458078 
L 488.530104 487.258808 
L 489.747761 487.197696 
L 492.183076 487.229335 
L 494.922806 486.865577 
L 497.358121 486.890724 
L 499.336814 486.887079 
L 503.750823 486.7729 
L 505.120687 486.975564 
L 506.338345 487.157972 
L 507.708209 487.096811 
L 509.686903 486.997638 
L 519.884784 486.892938 
L 521.71127 486.905615 
L 525.668657 487.178205 
L 532.670188 486.936053 
L 533.887845 487.094241 
L 534.953296 487.468758 
L 536.018746 487.797726 
L 537.236403 487.92311 
L 539.06289 487.860541 
L 546.825456 487.552146 
L 548.651942 487.811454 
L 552.000501 487.83718 
L 553.522572 487.845574 
L 555.80568 488.007321 
L 567.830048 487.720324 
L 571.635228 488.191487 
L 577.723515 487.880363 
L 585.02946 487.801663 
L 588.225811 488.035505 
L 590.96554 487.826913 
L 593.096441 487.830615 
L 602.837701 487.932996 
L 614.709861 487.731839 
L 617.754005 487.600112 
L 625.516571 487.825162 
L 639.063011 487.821172 
L 641.954947 487.935666 
L 648.043235 488.019672 
L 655.196973 488.009425 
L 659.306567 488.019228 
L 662.655125 487.894185 
L 668.591205 487.915517 
L 673.157421 487.779128 
L 676.658186 487.83008 
L 679.854537 487.66718 
L 689.443589 487.692486 
L 691.878904 487.735764 
L 695.37967 487.79365 
L 701.31575 487.741029 
L 711.361424 487.889249 
L 716.079847 487.912886 
L 722.472549 487.87374 
L 731.757187 487.998783 
L 758.241238 487.806631 
L 760.676553 487.913646 
L 764.481732 487.881216 
L 769.352362 487.874956 
L 774.831821 487.859208 
L 780.615694 487.81419 
L 783.659838 487.73876 
L 789.139296 487.789163 
L 794.770962 487.913575 
L 797.05407 487.925327 
L 804.512222 487.820459 
L 808.165195 487.842082 
L 820.493977 487.954107 
L 832.061723 487.939433 
L 845.455955 487.954312 
L 848.652306 487.982971 
L 858.089152 487.988077 
L 865.090682 487.935176 
L 876.354014 487.888853 
L 897.815227 487.980882 
L 902.838064 487.928346 
L 921.711755 487.744313 
L 924.14707 487.810873 
L 931.75743 487.629683 
L 939.672203 487.498489 
L 945.608284 487.484526 
L 953.37085 487.483353 
L 960.372381 487.684963 
L 968.134947 487.850064 
L 972.244541 487.915986 
L 1003.751429 488.040033 
L 1016.080211 487.9804 
L 1044.542955 487.860752 
L 1044.542955 487.860752 
" clip-path="url(#p403dab386b)" style="fill: none; stroke: #0c5da5; stroke-width: 2; stroke-linecap: square"/>
   </g>
   <g id="patch_3">
    <path d="M 85.7975 520.7175 
L 85.7975 21.7575 
" style="fill: none; stroke: #000000; stroke-linejoin: miter; stroke-linecap: square"/>
   </g>
   <g id="patch_4">
    <path d="M 1090.1975 520.7175 
L 1090.1975 21.7575 
" style="fill: none; stroke: #000000; stroke-linejoin: miter; stroke-linecap: square"/>
   </g>
   <g id="patch_5">
    <path d="M 85.7975 520.7175 
L 1090.1975 520.7175 
" style="fill: none; stroke: #000000; stroke-linejoin: miter; stroke-linecap: square"/>
   </g>
   <g id="patch_6">
    <path d="M 85.7975 21.7575 
L 1090.1975 21.7575 
" style="fill: none; stroke: #000000; stroke-linejoin: miter; stroke-linecap: square"/>
   </g>
   <g id="text_16">
    <!-- Kocaeli_ Turkey Record no. 1165 -->
    <g transform="translate(459.0125 15.7575) scale(0.16 -0.16)">
     <defs>
      <path id="DejaVuSans-4b" d="M 628 4666 
L 1259 4666 
L 1259 2694 
L 3353 4666 
L 4166 4666 
L 1850 2491 
L 4331 0 
L 3500 0 
L 1259 2247 
L 1259 0 
L 628 0 
L 628 4666 
z
" transform="scale(0.015625)"/>
      <path id="DejaVuSans-6f" d="M 1959 3097 
Q 1497 3097 1228 2736 
Q 959 2375 959 1747 
Q 959 1119 1226 758 
Q 1494 397 1959 397 
Q 2419 397 2687 759 
Q 2956 1122 2956 1747 
Q 2956 2369 2687 2733 
Q 2419 3097 1959 3097 
z
M 1959 3584 
Q 2709 3584 3137 3096 
Q 3566 2609 3566 1747 
Q 3566 888 3137 398 
Q 2709 -91 1959 -91 
Q 1206 -91 779 398 
Q 353 888 353 1747 
Q 353 2609 779 3096 
Q 1206 3584 1959 3584 
z
" transform="scale(0.015625)"/>
      <path id="DejaVuSans-5f" d="M 3263 -1063 
L 3263 -1509 
L -63 -1509 
L -63 -1063 
L 3263 -1063 
z
" transform="scale(0.015625)"/>
      <path id="DejaVuSans-75" d="M 544 1381 
L 544 3500 
L 1119 3500 
L 1119 1403 
Q 1119 906 1312 657 
Q 1506 409 1894 409 
Q 2359 409 2629 706 
Q 2900 1003 2900 1516 
L 2900 3500 
L 3475 3500 
L 3475 0 
L 2900 0 
L 2900 538 
Q 2691 219 2414 64 
Q 2138 -91 1772 -91 
Q 1169 -91 856 284 
Q 544 659 544 1381 
z
M 1991 3584 
L 1991 3584 
z
" transform="scale(0.015625)"/>
      <path id="DejaVuSans-72" d="M 2631 2963 
Q 2534 3019 2420 3045 
Q 2306 3072 2169 3072 
Q 1681 3072 1420 2755 
Q 1159 2438 1159 1844 
L 1159 0 
L 581 0 
L 581 3500 
L 1159 3500 
L 1159 2956 
Q 1341 3275 1631 3429 
Q 1922 3584 2338 3584 
Q 2397 3584 2469 3576 
Q 2541 3569 2628 3553 
L 2631 2963 
z
" transform="scale(0.015625)"/>
      <path id="DejaVuSans-6b" d="M 581 4863 
L 1159 4863 
L 1159 1991 
L 2875 3500 
L 3609 3500 
L 1753 1863 
L 3688 0 
L 2938 0 
L 1159 1709 
L 1159 0 
L 581 0 
L 581 4863 
z
" transform="scale(0.015625)"/>
      <path id="DejaVuSans-79" d="M 2059 -325 
Q 1816 -950 1584 -1140 
Q 1353 -1331 966 -1331 
L 506 -1331 
L 506 -850 
L 844 -850 
Q 1081 -850 1212 -737 
Q 1344 -625 1503 -206 
L 1606 56 
L 191 3500 
L 800 3500 
L 1894 763 
L 2988 3500 
L 3597 3500 
L 2059 -325 
z
" transform="scale(0.015625)"/>
      <path id="DejaVuSans-52" d="M 2841 2188 
Q 3044 2119 3236 1894 
Q 3428 1669 3622 1275 
L 4263 0 
L 3584 0 
L 2988 1197 
Q 2756 1666 2539 1819 
Q 2322 1972 1947 1972 
L 1259 1972 
L 1259 0 
L 628 0 
L 628 4666 
L 2053 4666 
Q 2853 4666 3247 4331 
Q 3641 3997 3641 3322 
Q 3641 2881 3436 2590 
Q 3231 2300 2841 2188 
z
M 1259 4147 
L 1259 2491 
L 2053 2491 
Q 2509 2491 2742 2702 
Q 2975 2913 2975 3322 
Q 2975 3731 2742 3939 
Q 2509 4147 2053 4147 
L 1259 4147 
z
" transform="scale(0.015625)"/>
      <path id="DejaVuSans-64" d="M 2906 2969 
L 2906 4863 
L 3481 4863 
L 3481 0 
L 2906 0 
L 2906 525 
Q 2725 213 2448 61 
Q 2172 -91 1784 -91 
Q 1150 -91 751 415 
Q 353 922 353 1747 
Q 353 2572 751 3078 
Q 1150 3584 1784 3584 
Q 2172 3584 2448 3432 
Q 2725 3281 2906 2969 
z
M 947 1747 
Q 947 1113 1208 752 
Q 1469 391 1925 391 
Q 2381 391 2643 752 
Q 2906 1113 2906 1747 
Q 2906 2381 2643 2742 
Q 2381 3103 1925 3103 
Q 1469 3103 1208 2742 
Q 947 2381 947 1747 
z
" transform="scale(0.015625)"/>
     </defs>
     <use xlink:href="#DejaVuSans-4b"/>
     <use xlink:href="#DejaVuSans-6f" x="60.576172"/>
     <use xlink:href="#DejaVuSans-63" x="121.757812"/>
     <use xlink:href="#DejaVuSans-61" x="176.738281"/>
     <use xlink:href="#DejaVuSans-65" x="238.017578"/>
     <use xlink:href="#DejaVuSans-6c" x="299.541016"/>
     <use xlink:href="#DejaVuSans-69" x="327.324219"/>
     <use xlink:href="#DejaVuSans-5f" x="355.107422"/>
     <use xlink:href="#DejaVuSans-20" x="405.107422"/>
     <use xlink:href="#DejaVuSans-54" x="436.894531"/>
     <use xlink:href="#DejaVuSans-75" x="482.853516"/>
     <use xlink:href="#DejaVuSans-72" x="546.232422"/>
     <use xlink:href="#DejaVuSans-6b" x="587.345703"/>
     <use xlink:href="#DejaVuSans-65" x="641.630859"/>
     <use xlink:href="#DejaVuSans-79" x="703.154297"/>
     <use xlink:href="#DejaVuSans-20" x="762.333984"/>
     <use xlink:href="#DejaVuSans-52" x="794.121094"/>
     <use xlink:href="#DejaVuSans-65" x="859.103516"/>
     <use xlink:href="#DejaVuSans-63" x="920.626953"/>
     <use xlink:href="#DejaVuSans-6f" x="975.607422"/>
     <use xlink:href="#DejaVuSans-72" x="1036.789062"/>
     <use xlink:href="#DejaVuSans-64" x="1076.152344"/>
     <use xlink:href="#DejaVuSans-20" x="1139.628906"/>
     <use xlink:href="#DejaVuSans-6e" x="1171.416016"/>
     <use xlink:href="#DejaVuSans-6f" x="1234.794922"/>
     <use xlink:href="#DejaVuSans-2e" x="1294.226562"/>
     <use xlink:href="#DejaVuSans-20" x="1326.013672"/>
     <use xlink:href="#DejaVuSans-31" x="1357.800781"/>
     <use xlink:href="#DejaVuSans-31" x="1421.423828"/>
     <use xlink:href="#DejaVuSans-36" x="1485.046875"/>
     <use xlink:href="#DejaVuSans-35" x="1548.669922"/>
    </g>
   </g>
   <g id="legend_1">
    <g id="patch_7">
     <path d="M 718.785 58.0425 
L 1078.9975 58.0425 
Q 1082.1975 58.0425 1082.1975 54.8425 
L 1082.1975 32.9575 
Q 1082.1975 29.7575 1078.9975 29.7575 
L 718.785 29.7575 
Q 715.585 29.7575 715.585 32.9575 
L 715.585 54.8425 
Q 715.585 58.0425 718.785 58.0425 
z
" style="fill: #ffffff; stroke: #cccccc; stroke-linejoin: miter"/>
    </g>
    <g id="line2d_129">
     <path d="M 721.985 42.715 
L 737.985 42.715 
L 753.985 42.715 
" style="fill: none; stroke: #0c5da5; stroke-width: 2; stroke-linecap: square"/>
    </g>
    <g id="text_17">
     <!-- Residual Displacement = -0.010266 m -->
     <g transform="translate(766.785 48.315) scale(0.16 -0.16)">
      <defs>
       <path id="DejaVuSans-3d" d="M 678 2906 
L 4684 2906 
L 4684 2381 
L 678 2381 
L 678 2906 
z
M 678 1631 
L 4684 1631 
L 4684 1100 
L 678 1100 
L 678 1631 
z
" transform="scale(0.015625)"/>
       <path id="DejaVuSans-2d" d="M 313 2009 
L 1997 2009 
L 1997 1497 
L 313 1497 
L 313 2009 
z
" transform="scale(0.015625)"/>
      </defs>
      <use xlink:href="#DejaVuSans-52"/>
      <use xlink:href="#DejaVuSans-65" x="64.982422"/>
      <use xlink:href="#DejaVuSans-73" x="126.505859"/>
      <use xlink:href="#DejaVuSans-69" x="178.605469"/>
      <use xlink:href="#DejaVuSans-64" x="206.388672"/>
      <use xlink:href="#DejaVuSans-75" x="269.865234"/>
      <use xlink:href="#DejaVuSans-61" x="333.244141"/>
      <use xlink:href="#DejaVuSans-6c" x="394.523438"/>
      <use xlink:href="#DejaVuSans-20" x="422.306641"/>
      <use xlink:href="#DejaVuSans-44" x="454.09375"/>
      <use xlink:href="#DejaVuSans-69" x="531.095703"/>
      <use xlink:href="#DejaVuSans-73" x="558.878906"/>
      <use xlink:href="#DejaVuSans-70" x="610.978516"/>
      <use xlink:href="#DejaVuSans-6c" x="674.455078"/>
      <use xlink:href="#DejaVuSans-61" x="702.238281"/>
      <use xlink:href="#DejaVuSans-63" x="763.517578"/>
      <use xlink:href="#DejaVuSans-65" x="818.498047"/>
      <use xlink:href="#DejaVuSans-6d" x="880.021484"/>
      <use xlink:href="#DejaVuSans-65" x="977.433594"/>
      <use xlink:href="#DejaVuSans-6e" x="1038.957031"/>
      <use xlink:href="#DejaVuSans-74" x="1102.335938"/>
      <use xlink:href="#DejaVuSans-20" x="1141.544922"/>
      <use xlink:href="#DejaVuSans-3d" x="1173.332031"/>
      <use xlink:href="#DejaVuSans-20" x="1257.121094"/>
      <use xlink:href="#DejaVuSans-2d" x="1288.908203"/>
      <use xlink:href="#DejaVuSans-30" x="1324.992188"/>
      <use xlink:href="#DejaVuSans-2e" x="1388.615234"/>
      <use xlink:href="#DejaVuSans-30" x="1420.402344"/>
      <use xlink:href="#DejaVuSans-31" x="1484.025391"/>
      <use xlink:href="#DejaVuSans-30" x="1547.648438"/>
      <use xlink:href="#DejaVuSans-32" x="1611.271484"/>
      <use xlink:href="#DejaVuSans-36" x="1674.894531"/>
      <use xlink:href="#DejaVuSans-36" x="1738.517578"/>
      <use xlink:href="#DejaVuSans-20" x="1802.140625"/>
      <use xlink:href="#DejaVuSans-6d" x="1833.927734"/>
     </g>
    </g>
   </g>
  </g>
 </g>
 <defs>
  <clipPath id="p403dab386b">
   <rect x="85.7975" y="21.7575" width="1004.4" height="498.96"/>
  </clipPath>
 </defs>
</svg>
