<?xml version="1.0" encoding="utf-8" standalone="no"?>
<!DOCTYPE svg PUBLIC "-//W3C//DTD SVG 1.1//EN"
  "http://www.w3.org/Graphics/SVG/1.1/DTD/svg11.dtd">
<svg xmlns:xlink="http://www.w3.org/1999/xlink" width="1065.125pt" height="562.7875pt" viewBox="0 0 1065.125 562.7875" xmlns="http://www.w3.org/2000/svg" version="1.1">
 <metadata>
  <rdf:RDF xmlns:dc="http://purl.org/dc/elements/1.1/" xmlns:cc="http://creativecommons.org/ns#" xmlns:rdf="http://www.w3.org/1999/02/22-rdf-syntax-ns#">
   <cc:Work>
    <dc:type rdf:resource="http://purl.org/dc/dcmitype/StillImage"/>
    <dc:date>2023-06-10T16:13:11.474669</dc:date>
    <dc:format>image/svg+xml</dc:format>
    <dc:creator>
     <cc:Agent>
      <dc:title>Matplotlib v3.7.1, https://matplotlib.org/</dc:title>
     </cc:Agent>
    </dc:creator>
   </cc:Work>
  </rdf:RDF>
 </metadata>
 <defs>
  <style type="text/css">*{stroke-linejoin: round; stroke-linecap: butt}</style>
 </defs>
 <g id="figure_1">
  <g id="patch_1">
   <path d="M 0 562.7875 
L 1065.125 562.7875 
L 1065.125 0 
L 0 0 
z
" style="fill: #ffffff"/>
  </g>
  <g id="axes_1">
   <g id="patch_2">
    <path d="M 57.125 520.7175 
L 1061.525 520.7175 
L 1061.525 21.7575 
L 57.125 21.7575 
z
" style="fill: #ffffff"/>
   </g>
   <g id="matplotlib.axis_1">
    <g id="xtick_1">
     <g id="line2d_1">
      <path d="M 216.954328 520.7175 
L 216.954328 21.7575 
" clip-path="url(#pc752ffb630)" style="fill: none; stroke-dasharray: 1.85,0.8; stroke-dashoffset: 0; stroke: #000000; stroke-opacity: 0.5; stroke-width: 0.5"/>
     </g>
     <g id="line2d_2">
      <defs>
       <path id="m9afca47463" d="M 0 0 
L 0 -6 
" style="stroke: #000000"/>
      </defs>
      <g>
       <use xlink:href="#m9afca47463" x="216.954328" y="520.7175" style="stroke: #000000"/>
      </g>
     </g>
     <g id="line2d_3">
      <defs>
       <path id="mae5d355cfb" d="M 0 0 
L 0 6 
" style="stroke: #000000"/>
      </defs>
      <g>
       <use xlink:href="#mae5d355cfb" x="216.954328" y="21.7575" style="stroke: #000000"/>
      </g>
     </g>
     <g id="text_1">
      <!-- $\mathdefault{10^{-1}}$ -->
      <g transform="translate(198.154328 536.375) scale(0.16 -0.16)">
       <defs>
        <path id="DejaVuSans-31" d="M 794 531 
L 1825 531 
L 1825 4091 
L 703 3866 
L 703 4441 
L 1819 4666 
L 2450 4666 
L 2450 531 
L 3481 531 
L 3481 0 
L 794 0 
L 794 531 
z
" transform="scale(0.015625)"/>
        <path id="DejaVuSans-30" d="M 2034 4250 
Q 1547 4250 1301 3770 
Q 1056 3291 1056 2328 
Q 1056 1369 1301 889 
Q 1547 409 2034 409 
Q 2525 409 2770 889 
Q 3016 1369 3016 2328 
Q 3016 3291 2770 3770 
Q 2525 4250 2034 4250 
z
M 2034 4750 
Q 2819 4750 3233 4129 
Q 3647 3509 3647 2328 
Q 3647 1150 3233 529 
Q 2819 -91 2034 -91 
Q 1250 -91 836 529 
Q 422 1150 422 2328 
Q 422 3509 836 4129 
Q 1250 4750 2034 4750 
z
" transform="scale(0.015625)"/>
        <path id="DejaVuSans-2212" d="M 678 2272 
L 4684 2272 
L 4684 1741 
L 678 1741 
L 678 2272 
z
" transform="scale(0.015625)"/>
       </defs>
       <use xlink:href="#DejaVuSans-31" transform="translate(0 0.684375)"/>
       <use xlink:href="#DejaVuSans-30" transform="translate(63.623047 0.684375)"/>
       <use xlink:href="#DejaVuSans-2212" transform="translate(128.203125 38.965625) scale(0.7)"/>
       <use xlink:href="#DejaVuSans-31" transform="translate(186.855469 38.965625) scale(0.7)"/>
      </g>
     </g>
    </g>
    <g id="xtick_2">
     <g id="line2d_4">
      <path d="M 483.28126 520.7175 
L 483.28126 21.7575 
" clip-path="url(#pc752ffb630)" style="fill: none; stroke-dasharray: 1.85,0.8; stroke-dashoffset: 0; stroke: #000000; stroke-opacity: 0.5; stroke-width: 0.5"/>
     </g>
     <g id="line2d_5">
      <g>
       <use xlink:href="#m9afca47463" x="483.28126" y="520.7175" style="stroke: #000000"/>
      </g>
     </g>
     <g id="line2d_6">
      <g>
       <use xlink:href="#mae5d355cfb" x="483.28126" y="21.7575" style="stroke: #000000"/>
      </g>
     </g>
     <g id="text_2">
      <!-- $\mathdefault{10^{0}}$ -->
      <g transform="translate(469.20126 536.375) scale(0.16 -0.16)">
       <use xlink:href="#DejaVuSans-31" transform="translate(0 0.765625)"/>
       <use xlink:href="#DejaVuSans-30" transform="translate(63.623047 0.765625)"/>
       <use xlink:href="#DejaVuSans-30" transform="translate(128.203125 39.046875) scale(0.7)"/>
      </g>
     </g>
    </g>
    <g id="xtick_3">
     <g id="line2d_7">
      <path d="M 749.608193 520.7175 
L 749.608193 21.7575 
" clip-path="url(#pc752ffb630)" style="fill: none; stroke-dasharray: 1.85,0.8; stroke-dashoffset: 0; stroke: #000000; stroke-opacity: 0.5; stroke-width: 0.5"/>
     </g>
     <g id="line2d_8">
      <g>
       <use xlink:href="#m9afca47463" x="749.608193" y="520.7175" style="stroke: #000000"/>
      </g>
     </g>
     <g id="line2d_9">
      <g>
       <use xlink:href="#mae5d355cfb" x="749.608193" y="21.7575" style="stroke: #000000"/>
      </g>
     </g>
     <g id="text_3">
      <!-- $\mathdefault{10^{1}}$ -->
      <g transform="translate(735.528193 536.375) scale(0.16 -0.16)">
       <use xlink:href="#DejaVuSans-31" transform="translate(0 0.684375)"/>
       <use xlink:href="#DejaVuSans-30" transform="translate(63.623047 0.684375)"/>
       <use xlink:href="#DejaVuSans-31" transform="translate(128.203125 38.965625) scale(0.7)"/>
      </g>
     </g>
    </g>
    <g id="xtick_4">
     <g id="line2d_10">
      <path d="M 1015.935126 520.7175 
L 1015.935126 21.7575 
" clip-path="url(#pc752ffb630)" style="fill: none; stroke-dasharray: 1.85,0.8; stroke-dashoffset: 0; stroke: #000000; stroke-opacity: 0.5; stroke-width: 0.5"/>
     </g>
     <g id="line2d_11">
      <g>
       <use xlink:href="#m9afca47463" x="1015.935126" y="520.7175" style="stroke: #000000"/>
      </g>
     </g>
     <g id="line2d_12">
      <g>
       <use xlink:href="#mae5d355cfb" x="1015.935126" y="21.7575" style="stroke: #000000"/>
      </g>
     </g>
     <g id="text_4">
      <!-- $\mathdefault{10^{2}}$ -->
      <g transform="translate(1001.855126 536.375) scale(0.16 -0.16)">
       <defs>
        <path id="DejaVuSans-32" d="M 1228 531 
L 3431 531 
L 3431 0 
L 469 0 
L 469 531 
Q 828 903 1448 1529 
Q 2069 2156 2228 2338 
Q 2531 2678 2651 2914 
Q 2772 3150 2772 3378 
Q 2772 3750 2511 3984 
Q 2250 4219 1831 4219 
Q 1534 4219 1204 4116 
Q 875 4013 500 3803 
L 500 4441 
Q 881 4594 1212 4672 
Q 1544 4750 1819 4750 
Q 2544 4750 2975 4387 
Q 3406 4025 3406 3419 
Q 3406 3131 3298 2873 
Q 3191 2616 2906 2266 
Q 2828 2175 2409 1742 
Q 1991 1309 1228 531 
z
" transform="scale(0.015625)"/>
       </defs>
       <use xlink:href="#DejaVuSans-31" transform="translate(0 0.765625)"/>
       <use xlink:href="#DejaVuSans-30" transform="translate(63.623047 0.765625)"/>
       <use xlink:href="#DejaVuSans-32" transform="translate(128.203125 39.046875) scale(0.7)"/>
      </g>
     </g>
    </g>
    <g id="xtick_5">
     <g id="line2d_13">
      <defs>
       <path id="mab9e118830" d="M 0 0 
L 0 -3 
" style="stroke: #000000"/>
      </defs>
      <g>
       <use xlink:href="#mab9e118830" x="77.697635" y="520.7175" style="stroke: #000000"/>
      </g>
     </g>
     <g id="line2d_14">
      <defs>
       <path id="m15b082a611" d="M 0 0 
L 0 3 
" style="stroke: #000000"/>
      </defs>
      <g>
       <use xlink:href="#m15b082a611" x="77.697635" y="21.7575" style="stroke: #000000"/>
      </g>
     </g>
    </g>
    <g id="xtick_6">
     <g id="line2d_15">
      <g>
       <use xlink:href="#mab9e118830" x="110.972186" y="520.7175" style="stroke: #000000"/>
      </g>
     </g>
     <g id="line2d_16">
      <g>
       <use xlink:href="#m15b082a611" x="110.972186" y="21.7575" style="stroke: #000000"/>
      </g>
     </g>
    </g>
    <g id="xtick_7">
     <g id="line2d_17">
      <g>
       <use xlink:href="#mab9e118830" x="136.781932" y="520.7175" style="stroke: #000000"/>
      </g>
     </g>
     <g id="line2d_18">
      <g>
       <use xlink:href="#m15b082a611" x="136.781932" y="21.7575" style="stroke: #000000"/>
      </g>
     </g>
    </g>
    <g id="xtick_8">
     <g id="line2d_19">
      <g>
       <use xlink:href="#mab9e118830" x="157.870031" y="520.7175" style="stroke: #000000"/>
      </g>
     </g>
     <g id="line2d_20">
      <g>
       <use xlink:href="#m15b082a611" x="157.870031" y="21.7575" style="stroke: #000000"/>
      </g>
     </g>
    </g>
    <g id="xtick_9">
     <g id="line2d_21">
      <g>
       <use xlink:href="#mab9e118830" x="175.699764" y="520.7175" style="stroke: #000000"/>
      </g>
     </g>
     <g id="line2d_22">
      <g>
       <use xlink:href="#m15b082a611" x="175.699764" y="21.7575" style="stroke: #000000"/>
      </g>
     </g>
    </g>
    <g id="xtick_10">
     <g id="line2d_23">
      <g>
       <use xlink:href="#mab9e118830" x="191.144581" y="520.7175" style="stroke: #000000"/>
      </g>
     </g>
     <g id="line2d_24">
      <g>
       <use xlink:href="#m15b082a611" x="191.144581" y="21.7575" style="stroke: #000000"/>
      </g>
     </g>
    </g>
    <g id="xtick_11">
     <g id="line2d_25">
      <g>
       <use xlink:href="#mab9e118830" x="204.767875" y="520.7175" style="stroke: #000000"/>
      </g>
     </g>
     <g id="line2d_26">
      <g>
       <use xlink:href="#m15b082a611" x="204.767875" y="21.7575" style="stroke: #000000"/>
      </g>
     </g>
    </g>
    <g id="xtick_12">
     <g id="line2d_27">
      <g>
       <use xlink:href="#mab9e118830" x="297.126723" y="520.7175" style="stroke: #000000"/>
      </g>
     </g>
     <g id="line2d_28">
      <g>
       <use xlink:href="#m15b082a611" x="297.126723" y="21.7575" style="stroke: #000000"/>
      </g>
     </g>
    </g>
    <g id="xtick_13">
     <g id="line2d_29">
      <g>
       <use xlink:href="#mab9e118830" x="344.024568" y="520.7175" style="stroke: #000000"/>
      </g>
     </g>
     <g id="line2d_30">
      <g>
       <use xlink:href="#m15b082a611" x="344.024568" y="21.7575" style="stroke: #000000"/>
      </g>
     </g>
    </g>
    <g id="xtick_14">
     <g id="line2d_31">
      <g>
       <use xlink:href="#mab9e118830" x="377.299118" y="520.7175" style="stroke: #000000"/>
      </g>
     </g>
     <g id="line2d_32">
      <g>
       <use xlink:href="#m15b082a611" x="377.299118" y="21.7575" style="stroke: #000000"/>
      </g>
     </g>
    </g>
    <g id="xtick_15">
     <g id="line2d_33">
      <g>
       <use xlink:href="#mab9e118830" x="403.108865" y="520.7175" style="stroke: #000000"/>
      </g>
     </g>
     <g id="line2d_34">
      <g>
       <use xlink:href="#m15b082a611" x="403.108865" y="21.7575" style="stroke: #000000"/>
      </g>
     </g>
    </g>
    <g id="xtick_16">
     <g id="line2d_35">
      <g>
       <use xlink:href="#mab9e118830" x="424.196963" y="520.7175" style="stroke: #000000"/>
      </g>
     </g>
     <g id="line2d_36">
      <g>
       <use xlink:href="#m15b082a611" x="424.196963" y="21.7575" style="stroke: #000000"/>
      </g>
     </g>
    </g>
    <g id="xtick_17">
     <g id="line2d_37">
      <g>
       <use xlink:href="#mab9e118830" x="442.026696" y="520.7175" style="stroke: #000000"/>
      </g>
     </g>
     <g id="line2d_38">
      <g>
       <use xlink:href="#m15b082a611" x="442.026696" y="21.7575" style="stroke: #000000"/>
      </g>
     </g>
    </g>
    <g id="xtick_18">
     <g id="line2d_39">
      <g>
       <use xlink:href="#mab9e118830" x="457.471514" y="520.7175" style="stroke: #000000"/>
      </g>
     </g>
     <g id="line2d_40">
      <g>
       <use xlink:href="#m15b082a611" x="457.471514" y="21.7575" style="stroke: #000000"/>
      </g>
     </g>
    </g>
    <g id="xtick_19">
     <g id="line2d_41">
      <g>
       <use xlink:href="#mab9e118830" x="471.094808" y="520.7175" style="stroke: #000000"/>
      </g>
     </g>
     <g id="line2d_42">
      <g>
       <use xlink:href="#m15b082a611" x="471.094808" y="21.7575" style="stroke: #000000"/>
      </g>
     </g>
    </g>
    <g id="xtick_20">
     <g id="line2d_43">
      <g>
       <use xlink:href="#mab9e118830" x="563.453656" y="520.7175" style="stroke: #000000"/>
      </g>
     </g>
     <g id="line2d_44">
      <g>
       <use xlink:href="#m15b082a611" x="563.453656" y="21.7575" style="stroke: #000000"/>
      </g>
     </g>
    </g>
    <g id="xtick_21">
     <g id="line2d_45">
      <g>
       <use xlink:href="#mab9e118830" x="610.351501" y="520.7175" style="stroke: #000000"/>
      </g>
     </g>
     <g id="line2d_46">
      <g>
       <use xlink:href="#m15b082a611" x="610.351501" y="21.7575" style="stroke: #000000"/>
      </g>
     </g>
    </g>
    <g id="xtick_22">
     <g id="line2d_47">
      <g>
       <use xlink:href="#mab9e118830" x="643.626051" y="520.7175" style="stroke: #000000"/>
      </g>
     </g>
     <g id="line2d_48">
      <g>
       <use xlink:href="#m15b082a611" x="643.626051" y="21.7575" style="stroke: #000000"/>
      </g>
     </g>
    </g>
    <g id="xtick_23">
     <g id="line2d_49">
      <g>
       <use xlink:href="#mab9e118830" x="669.435798" y="520.7175" style="stroke: #000000"/>
      </g>
     </g>
     <g id="line2d_50">
      <g>
       <use xlink:href="#m15b082a611" x="669.435798" y="21.7575" style="stroke: #000000"/>
      </g>
     </g>
    </g>
    <g id="xtick_24">
     <g id="line2d_51">
      <g>
       <use xlink:href="#mab9e118830" x="690.523896" y="520.7175" style="stroke: #000000"/>
      </g>
     </g>
     <g id="line2d_52">
      <g>
       <use xlink:href="#m15b082a611" x="690.523896" y="21.7575" style="stroke: #000000"/>
      </g>
     </g>
    </g>
    <g id="xtick_25">
     <g id="line2d_53">
      <g>
       <use xlink:href="#mab9e118830" x="708.353629" y="520.7175" style="stroke: #000000"/>
      </g>
     </g>
     <g id="line2d_54">
      <g>
       <use xlink:href="#m15b082a611" x="708.353629" y="21.7575" style="stroke: #000000"/>
      </g>
     </g>
    </g>
    <g id="xtick_26">
     <g id="line2d_55">
      <g>
       <use xlink:href="#mab9e118830" x="723.798446" y="520.7175" style="stroke: #000000"/>
      </g>
     </g>
     <g id="line2d_56">
      <g>
       <use xlink:href="#m15b082a611" x="723.798446" y="21.7575" style="stroke: #000000"/>
      </g>
     </g>
    </g>
    <g id="xtick_27">
     <g id="line2d_57">
      <g>
       <use xlink:href="#mab9e118830" x="737.421741" y="520.7175" style="stroke: #000000"/>
      </g>
     </g>
     <g id="line2d_58">
      <g>
       <use xlink:href="#m15b082a611" x="737.421741" y="21.7575" style="stroke: #000000"/>
      </g>
     </g>
    </g>
    <g id="xtick_28">
     <g id="line2d_59">
      <g>
       <use xlink:href="#mab9e118830" x="829.780588" y="520.7175" style="stroke: #000000"/>
      </g>
     </g>
     <g id="line2d_60">
      <g>
       <use xlink:href="#m15b082a611" x="829.780588" y="21.7575" style="stroke: #000000"/>
      </g>
     </g>
    </g>
    <g id="xtick_29">
     <g id="line2d_61">
      <g>
       <use xlink:href="#mab9e118830" x="876.678433" y="520.7175" style="stroke: #000000"/>
      </g>
     </g>
     <g id="line2d_62">
      <g>
       <use xlink:href="#m15b082a611" x="876.678433" y="21.7575" style="stroke: #000000"/>
      </g>
     </g>
    </g>
    <g id="xtick_30">
     <g id="line2d_63">
      <g>
       <use xlink:href="#mab9e118830" x="909.952984" y="520.7175" style="stroke: #000000"/>
      </g>
     </g>
     <g id="line2d_64">
      <g>
       <use xlink:href="#m15b082a611" x="909.952984" y="21.7575" style="stroke: #000000"/>
      </g>
     </g>
    </g>
    <g id="xtick_31">
     <g id="line2d_65">
      <g>
       <use xlink:href="#mab9e118830" x="935.76273" y="520.7175" style="stroke: #000000"/>
      </g>
     </g>
     <g id="line2d_66">
      <g>
       <use xlink:href="#m15b082a611" x="935.76273" y="21.7575" style="stroke: #000000"/>
      </g>
     </g>
    </g>
    <g id="xtick_32">
     <g id="line2d_67">
      <g>
       <use xlink:href="#mab9e118830" x="956.850829" y="520.7175" style="stroke: #000000"/>
      </g>
     </g>
     <g id="line2d_68">
      <g>
       <use xlink:href="#m15b082a611" x="956.850829" y="21.7575" style="stroke: #000000"/>
      </g>
     </g>
    </g>
    <g id="xtick_33">
     <g id="line2d_69">
      <g>
       <use xlink:href="#mab9e118830" x="974.680562" y="520.7175" style="stroke: #000000"/>
      </g>
     </g>
     <g id="line2d_70">
      <g>
       <use xlink:href="#m15b082a611" x="974.680562" y="21.7575" style="stroke: #000000"/>
      </g>
     </g>
    </g>
    <g id="xtick_34">
     <g id="line2d_71">
      <g>
       <use xlink:href="#mab9e118830" x="990.125379" y="520.7175" style="stroke: #000000"/>
      </g>
     </g>
     <g id="line2d_72">
      <g>
       <use xlink:href="#m15b082a611" x="990.125379" y="21.7575" style="stroke: #000000"/>
      </g>
     </g>
    </g>
    <g id="xtick_35">
     <g id="line2d_73">
      <g>
       <use xlink:href="#mab9e118830" x="1003.748674" y="520.7175" style="stroke: #000000"/>
      </g>
     </g>
     <g id="line2d_74">
      <g>
       <use xlink:href="#m15b082a611" x="1003.748674" y="21.7575" style="stroke: #000000"/>
      </g>
     </g>
    </g>
    <g id="text_5">
     <!-- Frequency (Hz) -->
     <g transform="translate(498.9975 555.86) scale(0.16 -0.16)">
      <defs>
       <path id="DejaVuSans-46" d="M 628 4666 
L 3309 4666 
L 3309 4134 
L 1259 4134 
L 1259 2759 
L 3109 2759 
L 3109 2228 
L 1259 2228 
L 1259 0 
L 628 0 
L 628 4666 
z
" transform="scale(0.015625)"/>
       <path id="DejaVuSans-72" d="M 2631 2963 
Q 2534 3019 2420 3045 
Q 2306 3072 2169 3072 
Q 1681 3072 1420 2755 
Q 1159 2438 1159 1844 
L 1159 0 
L 581 0 
L 581 3500 
L 1159 3500 
L 1159 2956 
Q 1341 3275 1631 3429 
Q 1922 3584 2338 3584 
Q 2397 3584 2469 3576 
Q 2541 3569 2628 3553 
L 2631 2963 
z
" transform="scale(0.015625)"/>
       <path id="DejaVuSans-65" d="M 3597 1894 
L 3597 1613 
L 953 1613 
Q 991 1019 1311 708 
Q 1631 397 2203 397 
Q 2534 397 2845 478 
Q 3156 559 3463 722 
L 3463 178 
Q 3153 47 2828 -22 
Q 2503 -91 2169 -91 
Q 1331 -91 842 396 
Q 353 884 353 1716 
Q 353 2575 817 3079 
Q 1281 3584 2069 3584 
Q 2775 3584 3186 3129 
Q 3597 2675 3597 1894 
z
M 3022 2063 
Q 3016 2534 2758 2815 
Q 2500 3097 2075 3097 
Q 1594 3097 1305 2825 
Q 1016 2553 972 2059 
L 3022 2063 
z
" transform="scale(0.015625)"/>
       <path id="DejaVuSans-71" d="M 947 1747 
Q 947 1113 1208 752 
Q 1469 391 1925 391 
Q 2381 391 2643 752 
Q 2906 1113 2906 1747 
Q 2906 2381 2643 2742 
Q 2381 3103 1925 3103 
Q 1469 3103 1208 2742 
Q 947 2381 947 1747 
z
M 2906 525 
Q 2725 213 2448 61 
Q 2172 -91 1784 -91 
Q 1150 -91 751 415 
Q 353 922 353 1747 
Q 353 2572 751 3078 
Q 1150 3584 1784 3584 
Q 2172 3584 2448 3432 
Q 2725 3281 2906 2969 
L 2906 3500 
L 3481 3500 
L 3481 -1331 
L 2906 -1331 
L 2906 525 
z
" transform="scale(0.015625)"/>
       <path id="DejaVuSans-75" d="M 544 1381 
L 544 3500 
L 1119 3500 
L 1119 1403 
Q 1119 906 1312 657 
Q 1506 409 1894 409 
Q 2359 409 2629 706 
Q 2900 1003 2900 1516 
L 2900 3500 
L 3475 3500 
L 3475 0 
L 2900 0 
L 2900 538 
Q 2691 219 2414 64 
Q 2138 -91 1772 -91 
Q 1169 -91 856 284 
Q 544 659 544 1381 
z
M 1991 3584 
L 1991 3584 
z
" transform="scale(0.015625)"/>
       <path id="DejaVuSans-6e" d="M 3513 2113 
L 3513 0 
L 2938 0 
L 2938 2094 
Q 2938 2591 2744 2837 
Q 2550 3084 2163 3084 
Q 1697 3084 1428 2787 
Q 1159 2491 1159 1978 
L 1159 0 
L 581 0 
L 581 3500 
L 1159 3500 
L 1159 2956 
Q 1366 3272 1645 3428 
Q 1925 3584 2291 3584 
Q 2894 3584 3203 3211 
Q 3513 2838 3513 2113 
z
" transform="scale(0.015625)"/>
       <path id="DejaVuSans-63" d="M 3122 3366 
L 3122 2828 
Q 2878 2963 2633 3030 
Q 2388 3097 2138 3097 
Q 1578 3097 1268 2742 
Q 959 2388 959 1747 
Q 959 1106 1268 751 
Q 1578 397 2138 397 
Q 2388 397 2633 464 
Q 2878 531 3122 666 
L 3122 134 
Q 2881 22 2623 -34 
Q 2366 -91 2075 -91 
Q 1284 -91 818 406 
Q 353 903 353 1747 
Q 353 2603 823 3093 
Q 1294 3584 2113 3584 
Q 2378 3584 2631 3529 
Q 2884 3475 3122 3366 
z
" transform="scale(0.015625)"/>
       <path id="DejaVuSans-79" d="M 2059 -325 
Q 1816 -950 1584 -1140 
Q 1353 -1331 966 -1331 
L 506 -1331 
L 506 -850 
L 844 -850 
Q 1081 -850 1212 -737 
Q 1344 -625 1503 -206 
L 1606 56 
L 191 3500 
L 800 3500 
L 1894 763 
L 2988 3500 
L 3597 3500 
L 2059 -325 
z
" transform="scale(0.015625)"/>
       <path id="DejaVuSans-20" transform="scale(0.015625)"/>
       <path id="DejaVuSans-28" d="M 1984 4856 
Q 1566 4138 1362 3434 
Q 1159 2731 1159 2009 
Q 1159 1288 1364 580 
Q 1569 -128 1984 -844 
L 1484 -844 
Q 1016 -109 783 600 
Q 550 1309 550 2009 
Q 550 2706 781 3412 
Q 1013 4119 1484 4856 
L 1984 4856 
z
" transform="scale(0.015625)"/>
       <path id="DejaVuSans-48" d="M 628 4666 
L 1259 4666 
L 1259 2753 
L 3553 2753 
L 3553 4666 
L 4184 4666 
L 4184 0 
L 3553 0 
L 3553 2222 
L 1259 2222 
L 1259 0 
L 628 0 
L 628 4666 
z
" transform="scale(0.015625)"/>
       <path id="DejaVuSans-7a" d="M 353 3500 
L 3084 3500 
L 3084 2975 
L 922 459 
L 3084 459 
L 3084 0 
L 275 0 
L 275 525 
L 2438 3041 
L 353 3041 
L 353 3500 
z
" transform="scale(0.015625)"/>
       <path id="DejaVuSans-29" d="M 513 4856 
L 1013 4856 
Q 1481 4119 1714 3412 
Q 1947 2706 1947 2009 
Q 1947 1309 1714 600 
Q 1481 -109 1013 -844 
L 513 -844 
Q 928 -128 1133 580 
Q 1338 1288 1338 2009 
Q 1338 2731 1133 3434 
Q 928 4138 513 4856 
z
" transform="scale(0.015625)"/>
      </defs>
      <use xlink:href="#DejaVuSans-46"/>
      <use xlink:href="#DejaVuSans-72" x="50.269531"/>
      <use xlink:href="#DejaVuSans-65" x="89.132812"/>
      <use xlink:href="#DejaVuSans-71" x="150.65625"/>
      <use xlink:href="#DejaVuSans-75" x="214.132812"/>
      <use xlink:href="#DejaVuSans-65" x="277.511719"/>
      <use xlink:href="#DejaVuSans-6e" x="339.035156"/>
      <use xlink:href="#DejaVuSans-63" x="402.414062"/>
      <use xlink:href="#DejaVuSans-79" x="457.394531"/>
      <use xlink:href="#DejaVuSans-20" x="516.574219"/>
      <use xlink:href="#DejaVuSans-28" x="548.361328"/>
      <use xlink:href="#DejaVuSans-48" x="587.375"/>
      <use xlink:href="#DejaVuSans-7a" x="662.570312"/>
      <use xlink:href="#DejaVuSans-29" x="715.060547"/>
     </g>
    </g>
   </g>
   <g id="matplotlib.axis_2">
    <g id="ytick_1">
     <g id="line2d_75">
      <path d="M 57.125 498.037573 
L 1061.525 498.037573 
" clip-path="url(#pc752ffb630)" style="fill: none; stroke-dasharray: 1.85,0.8; stroke-dashoffset: 0; stroke: #000000; stroke-opacity: 0.5; stroke-width: 0.5"/>
     </g>
     <g id="line2d_76">
      <defs>
       <path id="mcb7484bff0" d="M 0 0 
L 6 0 
" style="stroke: #000000"/>
      </defs>
      <g>
       <use xlink:href="#mcb7484bff0" x="57.125" y="498.037573" style="stroke: #000000"/>
      </g>
     </g>
     <g id="line2d_77">
      <defs>
       <path id="mc5cf081653" d="M 0 0 
L -6 0 
" style="stroke: #000000"/>
      </defs>
      <g>
       <use xlink:href="#mc5cf081653" x="1061.525" y="498.037573" style="stroke: #000000"/>
      </g>
     </g>
     <g id="text_6">
      <!-- 0 -->
      <g transform="translate(43.445 504.116323) scale(0.16 -0.16)">
       <use xlink:href="#DejaVuSans-30"/>
      </g>
     </g>
    </g>
    <g id="ytick_2">
     <g id="line2d_78">
      <path d="M 57.125 427.662034 
L 1061.525 427.662034 
" clip-path="url(#pc752ffb630)" style="fill: none; stroke-dasharray: 1.85,0.8; stroke-dashoffset: 0; stroke: #000000; stroke-opacity: 0.5; stroke-width: 0.5"/>
     </g>
     <g id="line2d_79">
      <g>
       <use xlink:href="#mcb7484bff0" x="57.125" y="427.662034" style="stroke: #000000"/>
      </g>
     </g>
     <g id="line2d_80">
      <g>
       <use xlink:href="#mc5cf081653" x="1061.525" y="427.662034" style="stroke: #000000"/>
      </g>
     </g>
     <g id="text_7">
      <!-- 20 -->
      <g transform="translate(33.265 433.740784) scale(0.16 -0.16)">
       <use xlink:href="#DejaVuSans-32"/>
       <use xlink:href="#DejaVuSans-30" x="63.623047"/>
      </g>
     </g>
    </g>
    <g id="ytick_3">
     <g id="line2d_81">
      <path d="M 57.125 357.286494 
L 1061.525 357.286494 
" clip-path="url(#pc752ffb630)" style="fill: none; stroke-dasharray: 1.85,0.8; stroke-dashoffset: 0; stroke: #000000; stroke-opacity: 0.5; stroke-width: 0.5"/>
     </g>
     <g id="line2d_82">
      <g>
       <use xlink:href="#mcb7484bff0" x="57.125" y="357.286494" style="stroke: #000000"/>
      </g>
     </g>
     <g id="line2d_83">
      <g>
       <use xlink:href="#mc5cf081653" x="1061.525" y="357.286494" style="stroke: #000000"/>
      </g>
     </g>
     <g id="text_8">
      <!-- 40 -->
      <g transform="translate(33.265 363.365244) scale(0.16 -0.16)">
       <defs>
        <path id="DejaVuSans-34" d="M 2419 4116 
L 825 1625 
L 2419 1625 
L 2419 4116 
z
M 2253 4666 
L 3047 4666 
L 3047 1625 
L 3713 1625 
L 3713 1100 
L 3047 1100 
L 3047 0 
L 2419 0 
L 2419 1100 
L 313 1100 
L 313 1709 
L 2253 4666 
z
" transform="scale(0.015625)"/>
       </defs>
       <use xlink:href="#DejaVuSans-34"/>
       <use xlink:href="#DejaVuSans-30" x="63.623047"/>
      </g>
     </g>
    </g>
    <g id="ytick_4">
     <g id="line2d_84">
      <path d="M 57.125 286.910955 
L 1061.525 286.910955 
" clip-path="url(#pc752ffb630)" style="fill: none; stroke-dasharray: 1.85,0.8; stroke-dashoffset: 0; stroke: #000000; stroke-opacity: 0.5; stroke-width: 0.5"/>
     </g>
     <g id="line2d_85">
      <g>
       <use xlink:href="#mcb7484bff0" x="57.125" y="286.910955" style="stroke: #000000"/>
      </g>
     </g>
     <g id="line2d_86">
      <g>
       <use xlink:href="#mc5cf081653" x="1061.525" y="286.910955" style="stroke: #000000"/>
      </g>
     </g>
     <g id="text_9">
      <!-- 60 -->
      <g transform="translate(33.265 292.989705) scale(0.16 -0.16)">
       <defs>
        <path id="DejaVuSans-36" d="M 2113 2584 
Q 1688 2584 1439 2293 
Q 1191 2003 1191 1497 
Q 1191 994 1439 701 
Q 1688 409 2113 409 
Q 2538 409 2786 701 
Q 3034 994 3034 1497 
Q 3034 2003 2786 2293 
Q 2538 2584 2113 2584 
z
M 3366 4563 
L 3366 3988 
Q 3128 4100 2886 4159 
Q 2644 4219 2406 4219 
Q 1781 4219 1451 3797 
Q 1122 3375 1075 2522 
Q 1259 2794 1537 2939 
Q 1816 3084 2150 3084 
Q 2853 3084 3261 2657 
Q 3669 2231 3669 1497 
Q 3669 778 3244 343 
Q 2819 -91 2113 -91 
Q 1303 -91 875 529 
Q 447 1150 447 2328 
Q 447 3434 972 4092 
Q 1497 4750 2381 4750 
Q 2619 4750 2861 4703 
Q 3103 4656 3366 4563 
z
" transform="scale(0.015625)"/>
       </defs>
       <use xlink:href="#DejaVuSans-36"/>
       <use xlink:href="#DejaVuSans-30" x="63.623047"/>
      </g>
     </g>
    </g>
    <g id="ytick_5">
     <g id="line2d_87">
      <path d="M 57.125 216.535416 
L 1061.525 216.535416 
" clip-path="url(#pc752ffb630)" style="fill: none; stroke-dasharray: 1.85,0.8; stroke-dashoffset: 0; stroke: #000000; stroke-opacity: 0.5; stroke-width: 0.5"/>
     </g>
     <g id="line2d_88">
      <g>
       <use xlink:href="#mcb7484bff0" x="57.125" y="216.535416" style="stroke: #000000"/>
      </g>
     </g>
     <g id="line2d_89">
      <g>
       <use xlink:href="#mc5cf081653" x="1061.525" y="216.535416" style="stroke: #000000"/>
      </g>
     </g>
     <g id="text_10">
      <!-- 80 -->
      <g transform="translate(33.265 222.614166) scale(0.16 -0.16)">
       <defs>
        <path id="DejaVuSans-38" d="M 2034 2216 
Q 1584 2216 1326 1975 
Q 1069 1734 1069 1313 
Q 1069 891 1326 650 
Q 1584 409 2034 409 
Q 2484 409 2743 651 
Q 3003 894 3003 1313 
Q 3003 1734 2745 1975 
Q 2488 2216 2034 2216 
z
M 1403 2484 
Q 997 2584 770 2862 
Q 544 3141 544 3541 
Q 544 4100 942 4425 
Q 1341 4750 2034 4750 
Q 2731 4750 3128 4425 
Q 3525 4100 3525 3541 
Q 3525 3141 3298 2862 
Q 3072 2584 2669 2484 
Q 3125 2378 3379 2068 
Q 3634 1759 3634 1313 
Q 3634 634 3220 271 
Q 2806 -91 2034 -91 
Q 1263 -91 848 271 
Q 434 634 434 1313 
Q 434 1759 690 2068 
Q 947 2378 1403 2484 
z
M 1172 3481 
Q 1172 3119 1398 2916 
Q 1625 2713 2034 2713 
Q 2441 2713 2670 2916 
Q 2900 3119 2900 3481 
Q 2900 3844 2670 4047 
Q 2441 4250 2034 4250 
Q 1625 4250 1398 4047 
Q 1172 3844 1172 3481 
z
" transform="scale(0.015625)"/>
       </defs>
       <use xlink:href="#DejaVuSans-38"/>
       <use xlink:href="#DejaVuSans-30" x="63.623047"/>
      </g>
     </g>
    </g>
    <g id="ytick_6">
     <g id="line2d_90">
      <path d="M 57.125 146.159876 
L 1061.525 146.159876 
" clip-path="url(#pc752ffb630)" style="fill: none; stroke-dasharray: 1.85,0.8; stroke-dashoffset: 0; stroke: #000000; stroke-opacity: 0.5; stroke-width: 0.5"/>
     </g>
     <g id="line2d_91">
      <g>
       <use xlink:href="#mcb7484bff0" x="57.125" y="146.159876" style="stroke: #000000"/>
      </g>
     </g>
     <g id="line2d_92">
      <g>
       <use xlink:href="#mc5cf081653" x="1061.525" y="146.159876" style="stroke: #000000"/>
      </g>
     </g>
     <g id="text_11">
      <!-- 100 -->
      <g transform="translate(23.085 152.238626) scale(0.16 -0.16)">
       <use xlink:href="#DejaVuSans-31"/>
       <use xlink:href="#DejaVuSans-30" x="63.623047"/>
       <use xlink:href="#DejaVuSans-30" x="127.246094"/>
      </g>
     </g>
    </g>
    <g id="ytick_7">
     <g id="line2d_93">
      <path d="M 57.125 75.784337 
L 1061.525 75.784337 
" clip-path="url(#pc752ffb630)" style="fill: none; stroke-dasharray: 1.85,0.8; stroke-dashoffset: 0; stroke: #000000; stroke-opacity: 0.5; stroke-width: 0.5"/>
     </g>
     <g id="line2d_94">
      <g>
       <use xlink:href="#mcb7484bff0" x="57.125" y="75.784337" style="stroke: #000000"/>
      </g>
     </g>
     <g id="line2d_95">
      <g>
       <use xlink:href="#mc5cf081653" x="1061.525" y="75.784337" style="stroke: #000000"/>
      </g>
     </g>
     <g id="text_12">
      <!-- 120 -->
      <g transform="translate(23.085 81.863087) scale(0.16 -0.16)">
       <use xlink:href="#DejaVuSans-31"/>
       <use xlink:href="#DejaVuSans-32" x="63.623047"/>
       <use xlink:href="#DejaVuSans-30" x="127.246094"/>
      </g>
     </g>
    </g>
    <g id="ytick_8">
     <g id="line2d_96">
      <defs>
       <path id="mf1a7142dad" d="M 0 0 
L 3 0 
" style="stroke: #000000"/>
      </defs>
      <g>
       <use xlink:href="#mf1a7142dad" x="57.125" y="515.631458" style="stroke: #000000"/>
      </g>
     </g>
     <g id="line2d_97">
      <defs>
       <path id="m97a57ef774" d="M 0 0 
L -3 0 
" style="stroke: #000000"/>
      </defs>
      <g>
       <use xlink:href="#m97a57ef774" x="1061.525" y="515.631458" style="stroke: #000000"/>
      </g>
     </g>
    </g>
    <g id="ytick_9">
     <g id="line2d_98">
      <g>
       <use xlink:href="#mf1a7142dad" x="57.125" y="480.443688" style="stroke: #000000"/>
      </g>
     </g>
     <g id="line2d_99">
      <g>
       <use xlink:href="#m97a57ef774" x="1061.525" y="480.443688" style="stroke: #000000"/>
      </g>
     </g>
    </g>
    <g id="ytick_10">
     <g id="line2d_100">
      <g>
       <use xlink:href="#mf1a7142dad" x="57.125" y="462.849804" style="stroke: #000000"/>
      </g>
     </g>
     <g id="line2d_101">
      <g>
       <use xlink:href="#m97a57ef774" x="1061.525" y="462.849804" style="stroke: #000000"/>
      </g>
     </g>
    </g>
    <g id="ytick_11">
     <g id="line2d_102">
      <g>
       <use xlink:href="#mf1a7142dad" x="57.125" y="445.255919" style="stroke: #000000"/>
      </g>
     </g>
     <g id="line2d_103">
      <g>
       <use xlink:href="#m97a57ef774" x="1061.525" y="445.255919" style="stroke: #000000"/>
      </g>
     </g>
    </g>
    <g id="ytick_12">
     <g id="line2d_104">
      <g>
       <use xlink:href="#mf1a7142dad" x="57.125" y="410.068149" style="stroke: #000000"/>
      </g>
     </g>
     <g id="line2d_105">
      <g>
       <use xlink:href="#m97a57ef774" x="1061.525" y="410.068149" style="stroke: #000000"/>
      </g>
     </g>
    </g>
    <g id="ytick_13">
     <g id="line2d_106">
      <g>
       <use xlink:href="#mf1a7142dad" x="57.125" y="392.474264" style="stroke: #000000"/>
      </g>
     </g>
     <g id="line2d_107">
      <g>
       <use xlink:href="#m97a57ef774" x="1061.525" y="392.474264" style="stroke: #000000"/>
      </g>
     </g>
    </g>
    <g id="ytick_14">
     <g id="line2d_108">
      <g>
       <use xlink:href="#mf1a7142dad" x="57.125" y="374.880379" style="stroke: #000000"/>
      </g>
     </g>
     <g id="line2d_109">
      <g>
       <use xlink:href="#m97a57ef774" x="1061.525" y="374.880379" style="stroke: #000000"/>
      </g>
     </g>
    </g>
    <g id="ytick_15">
     <g id="line2d_110">
      <g>
       <use xlink:href="#mf1a7142dad" x="57.125" y="339.69261" style="stroke: #000000"/>
      </g>
     </g>
     <g id="line2d_111">
      <g>
       <use xlink:href="#m97a57ef774" x="1061.525" y="339.69261" style="stroke: #000000"/>
      </g>
     </g>
    </g>
    <g id="ytick_16">
     <g id="line2d_112">
      <g>
       <use xlink:href="#mf1a7142dad" x="57.125" y="322.098725" style="stroke: #000000"/>
      </g>
     </g>
     <g id="line2d_113">
      <g>
       <use xlink:href="#m97a57ef774" x="1061.525" y="322.098725" style="stroke: #000000"/>
      </g>
     </g>
    </g>
    <g id="ytick_17">
     <g id="line2d_114">
      <g>
       <use xlink:href="#mf1a7142dad" x="57.125" y="304.50484" style="stroke: #000000"/>
      </g>
     </g>
     <g id="line2d_115">
      <g>
       <use xlink:href="#m97a57ef774" x="1061.525" y="304.50484" style="stroke: #000000"/>
      </g>
     </g>
    </g>
    <g id="ytick_18">
     <g id="line2d_116">
      <g>
       <use xlink:href="#mf1a7142dad" x="57.125" y="269.31707" style="stroke: #000000"/>
      </g>
     </g>
     <g id="line2d_117">
      <g>
       <use xlink:href="#m97a57ef774" x="1061.525" y="269.31707" style="stroke: #000000"/>
      </g>
     </g>
    </g>
    <g id="ytick_19">
     <g id="line2d_118">
      <g>
       <use xlink:href="#mf1a7142dad" x="57.125" y="251.723185" style="stroke: #000000"/>
      </g>
     </g>
     <g id="line2d_119">
      <g>
       <use xlink:href="#m97a57ef774" x="1061.525" y="251.723185" style="stroke: #000000"/>
      </g>
     </g>
    </g>
    <g id="ytick_20">
     <g id="line2d_120">
      <g>
       <use xlink:href="#mf1a7142dad" x="57.125" y="234.1293" style="stroke: #000000"/>
      </g>
     </g>
     <g id="line2d_121">
      <g>
       <use xlink:href="#m97a57ef774" x="1061.525" y="234.1293" style="stroke: #000000"/>
      </g>
     </g>
    </g>
    <g id="ytick_21">
     <g id="line2d_122">
      <g>
       <use xlink:href="#mf1a7142dad" x="57.125" y="198.941531" style="stroke: #000000"/>
      </g>
     </g>
     <g id="line2d_123">
      <g>
       <use xlink:href="#m97a57ef774" x="1061.525" y="198.941531" style="stroke: #000000"/>
      </g>
     </g>
    </g>
    <g id="ytick_22">
     <g id="line2d_124">
      <g>
       <use xlink:href="#mf1a7142dad" x="57.125" y="181.347646" style="stroke: #000000"/>
      </g>
     </g>
     <g id="line2d_125">
      <g>
       <use xlink:href="#m97a57ef774" x="1061.525" y="181.347646" style="stroke: #000000"/>
      </g>
     </g>
    </g>
    <g id="ytick_23">
     <g id="line2d_126">
      <g>
       <use xlink:href="#mf1a7142dad" x="57.125" y="163.753761" style="stroke: #000000"/>
      </g>
     </g>
     <g id="line2d_127">
      <g>
       <use xlink:href="#m97a57ef774" x="1061.525" y="163.753761" style="stroke: #000000"/>
      </g>
     </g>
    </g>
    <g id="ytick_24">
     <g id="line2d_128">
      <g>
       <use xlink:href="#mf1a7142dad" x="57.125" y="128.565991" style="stroke: #000000"/>
      </g>
     </g>
     <g id="line2d_129">
      <g>
       <use xlink:href="#m97a57ef774" x="1061.525" y="128.565991" style="stroke: #000000"/>
      </g>
     </g>
    </g>
    <g id="ytick_25">
     <g id="line2d_130">
      <g>
       <use xlink:href="#mf1a7142dad" x="57.125" y="110.972106" style="stroke: #000000"/>
      </g>
     </g>
     <g id="line2d_131">
      <g>
       <use xlink:href="#m97a57ef774" x="1061.525" y="110.972106" style="stroke: #000000"/>
      </g>
     </g>
    </g>
    <g id="ytick_26">
     <g id="line2d_132">
      <g>
       <use xlink:href="#mf1a7142dad" x="57.125" y="93.378221" style="stroke: #000000"/>
      </g>
     </g>
     <g id="line2d_133">
      <g>
       <use xlink:href="#m97a57ef774" x="1061.525" y="93.378221" style="stroke: #000000"/>
      </g>
     </g>
    </g>
    <g id="ytick_27">
     <g id="line2d_134">
      <g>
       <use xlink:href="#mf1a7142dad" x="57.125" y="58.190452" style="stroke: #000000"/>
      </g>
     </g>
     <g id="line2d_135">
      <g>
       <use xlink:href="#m97a57ef774" x="1061.525" y="58.190452" style="stroke: #000000"/>
      </g>
     </g>
    </g>
    <g id="ytick_28">
     <g id="line2d_136">
      <g>
       <use xlink:href="#mf1a7142dad" x="57.125" y="40.596567" style="stroke: #000000"/>
      </g>
     </g>
     <g id="line2d_137">
      <g>
       <use xlink:href="#m97a57ef774" x="1061.525" y="40.596567" style="stroke: #000000"/>
      </g>
     </g>
    </g>
    <g id="ytick_29">
     <g id="line2d_138">
      <g>
       <use xlink:href="#mf1a7142dad" x="57.125" y="23.002682" style="stroke: #000000"/>
      </g>
     </g>
     <g id="line2d_139">
      <g>
       <use xlink:href="#m97a57ef774" x="1061.525" y="23.002682" style="stroke: #000000"/>
      </g>
     </g>
    </g>
    <g id="text_13">
     <!-- Frequency Amplitude -->
     <g transform="translate(15.7575 356.10375) rotate(-90) scale(0.16 -0.16)">
      <defs>
       <path id="DejaVuSans-41" d="M 2188 4044 
L 1331 1722 
L 3047 1722 
L 2188 4044 
z
M 1831 4666 
L 2547 4666 
L 4325 0 
L 3669 0 
L 3244 1197 
L 1141 1197 
L 716 0 
L 50 0 
L 1831 4666 
z
" transform="scale(0.015625)"/>
       <path id="DejaVuSans-6d" d="M 3328 2828 
Q 3544 3216 3844 3400 
Q 4144 3584 4550 3584 
Q 5097 3584 5394 3201 
Q 5691 2819 5691 2113 
L 5691 0 
L 5113 0 
L 5113 2094 
Q 5113 2597 4934 2840 
Q 4756 3084 4391 3084 
Q 3944 3084 3684 2787 
Q 3425 2491 3425 1978 
L 3425 0 
L 2847 0 
L 2847 2094 
Q 2847 2600 2669 2842 
Q 2491 3084 2119 3084 
Q 1678 3084 1418 2786 
Q 1159 2488 1159 1978 
L 1159 0 
L 581 0 
L 581 3500 
L 1159 3500 
L 1159 2956 
Q 1356 3278 1631 3431 
Q 1906 3584 2284 3584 
Q 2666 3584 2933 3390 
Q 3200 3197 3328 2828 
z
" transform="scale(0.015625)"/>
       <path id="DejaVuSans-70" d="M 1159 525 
L 1159 -1331 
L 581 -1331 
L 581 3500 
L 1159 3500 
L 1159 2969 
Q 1341 3281 1617 3432 
Q 1894 3584 2278 3584 
Q 2916 3584 3314 3078 
Q 3713 2572 3713 1747 
Q 3713 922 3314 415 
Q 2916 -91 2278 -91 
Q 1894 -91 1617 61 
Q 1341 213 1159 525 
z
M 3116 1747 
Q 3116 2381 2855 2742 
Q 2594 3103 2138 3103 
Q 1681 3103 1420 2742 
Q 1159 2381 1159 1747 
Q 1159 1113 1420 752 
Q 1681 391 2138 391 
Q 2594 391 2855 752 
Q 3116 1113 3116 1747 
z
" transform="scale(0.015625)"/>
       <path id="DejaVuSans-6c" d="M 603 4863 
L 1178 4863 
L 1178 0 
L 603 0 
L 603 4863 
z
" transform="scale(0.015625)"/>
       <path id="DejaVuSans-69" d="M 603 3500 
L 1178 3500 
L 1178 0 
L 603 0 
L 603 3500 
z
M 603 4863 
L 1178 4863 
L 1178 4134 
L 603 4134 
L 603 4863 
z
" transform="scale(0.015625)"/>
       <path id="DejaVuSans-74" d="M 1172 4494 
L 1172 3500 
L 2356 3500 
L 2356 3053 
L 1172 3053 
L 1172 1153 
Q 1172 725 1289 603 
Q 1406 481 1766 481 
L 2356 481 
L 2356 0 
L 1766 0 
Q 1100 0 847 248 
Q 594 497 594 1153 
L 594 3053 
L 172 3053 
L 172 3500 
L 594 3500 
L 594 4494 
L 1172 4494 
z
" transform="scale(0.015625)"/>
       <path id="DejaVuSans-64" d="M 2906 2969 
L 2906 4863 
L 3481 4863 
L 3481 0 
L 2906 0 
L 2906 525 
Q 2725 213 2448 61 
Q 2172 -91 1784 -91 
Q 1150 -91 751 415 
Q 353 922 353 1747 
Q 353 2572 751 3078 
Q 1150 3584 1784 3584 
Q 2172 3584 2448 3432 
Q 2725 3281 2906 2969 
z
M 947 1747 
Q 947 1113 1208 752 
Q 1469 391 1925 391 
Q 2381 391 2643 752 
Q 2906 1113 2906 1747 
Q 2906 2381 2643 2742 
Q 2381 3103 1925 3103 
Q 1469 3103 1208 2742 
Q 947 2381 947 1747 
z
" transform="scale(0.015625)"/>
      </defs>
      <use xlink:href="#DejaVuSans-46"/>
      <use xlink:href="#DejaVuSans-72" x="50.269531"/>
      <use xlink:href="#DejaVuSans-65" x="89.132812"/>
      <use xlink:href="#DejaVuSans-71" x="150.65625"/>
      <use xlink:href="#DejaVuSans-75" x="214.132812"/>
      <use xlink:href="#DejaVuSans-65" x="277.511719"/>
      <use xlink:href="#DejaVuSans-6e" x="339.035156"/>
      <use xlink:href="#DejaVuSans-63" x="402.414062"/>
      <use xlink:href="#DejaVuSans-79" x="457.394531"/>
      <use xlink:href="#DejaVuSans-20" x="516.574219"/>
      <use xlink:href="#DejaVuSans-41" x="548.361328"/>
      <use xlink:href="#DejaVuSans-6d" x="616.769531"/>
      <use xlink:href="#DejaVuSans-70" x="714.181641"/>
      <use xlink:href="#DejaVuSans-6c" x="777.658203"/>
      <use xlink:href="#DejaVuSans-69" x="805.441406"/>
      <use xlink:href="#DejaVuSans-74" x="833.224609"/>
      <use xlink:href="#DejaVuSans-75" x="872.433594"/>
      <use xlink:href="#DejaVuSans-64" x="935.8125"/>
      <use xlink:href="#DejaVuSans-65" x="999.289062"/>
     </g>
    </g>
   </g>
   <g id="line2d_140">
    <path d="M -1 497.935412 
L 102.779545 497.935373 
L 182.951941 497.118724 
L 229.849786 496.933018 
L 263.124336 494.435782 
L 288.934083 492.320843 
L 310.022181 491.47794 
L 327.851914 493.470765 
L 343.296732 480.492059 
L 356.920026 461.726079 
L 369.106478 443.416396 
L 380.130465 432.08779 
L 390.194577 462.632833 
L 399.452662 463.525312 
L 408.02431 476.53569 
L 416.004323 445.567532 
L 423.469127 461.049923 
L 430.481233 446.666858 
L 437.092421 409.688334 
L 443.34607 382.598573 
L 449.278874 468.446331 
L 454.922155 469.257623 
L 460.30286 474.997486 
L 465.444343 421.028135 
L 470.366972 415.111305 
L 475.08862 447.405582 
L 479.625057 436.313852 
L 483.990266 456.385539 
L 488.196705 411.122657 
L 492.255519 334.391737 
L 496.176718 381.527765 
L 499.969331 272.935554 
L 503.641522 331.636635 
L 507.200705 325.665187 
L 510.653628 319.210393 
L 514.006452 447.247558 
L 517.264817 401.25415 
L 520.433901 308.580107 
L 523.518465 373.635568 
L 526.522902 335.400954 
L 529.451269 273.883286 
L 532.307323 164.333379 
L 535.09455 250.176155 
L 537.816189 459.992865 
L 540.475256 346.955654 
L 543.074563 227.468484 
L 545.616739 320.483492 
L 548.104239 424.122888 
L 550.539367 340.397632 
L 552.924283 249.744095 
L 555.261015 156.437744 
L 557.551473 204.31869 
L 559.797452 108.357349 
L 562.000649 209.535757 
L 564.162662 285.224119 
L 566.285002 353.356275 
L 568.3691 345.504926 
L 570.41631 257.704375 
L 572.427914 110.509575 
L 574.40513 172.838621 
L 576.349114 314.591888 
L 578.260964 282.963496 
L 580.141726 269.029552 
L 581.992395 161.218185 
L 583.813918 44.4375 
L 585.607199 70.607433 
L 587.373101 85.543738 
L 589.112447 86.424058 
L 592.514584 259.190425 
L 594.178847 409.576532 
L 595.819503 440.243423 
L 597.437212 473.346882 
L 599.032607 459.821081 
L 600.606296 422.303351 
L 602.15886 463.934153 
L 603.69086 458.087157 
L 605.202834 371.611498 
L 606.695297 479.315055 
L 608.168748 387.173956 
L 609.623664 465.567496 
L 611.060507 407.931603 
L 612.479719 372.203866 
L 613.881727 301.670138 
L 615.266945 204.96713 
L 616.63577 176.530692 
L 617.988584 380.085228 
L 619.325759 324.126887 
L 620.647651 419.622431 
L 621.954607 420.951658 
L 623.246959 445.66637 
L 624.525031 343.810415 
L 625.789134 309.702238 
L 627.039571 315.262261 
L 628.276635 333.438404 
L 629.500607 333.089977 
L 631.910367 397.928444 
L 633.096679 418.332774 
L 634.270946 410.314278 
L 635.433411 425.825769 
L 636.584309 468.70099 
L 637.723868 479.388139 
L 638.85231 437.339264 
L 639.969848 418.566789 
L 641.076692 409.687883 
L 642.173044 403.920973 
L 643.259102 406.749358 
L 644.335057 445.176318 
L 645.401095 477.021091 
L 646.457398 487.080617 
L 647.504141 482.324926 
L 648.541496 475.573078 
L 649.56963 490.419061 
L 650.588705 482.588879 
L 651.598881 476.367585 
L 652.600309 475.848312 
L 653.593142 465.015262 
L 654.577525 457.420097 
L 655.553601 451.614647 
L 656.521509 430.858637 
L 657.481385 424.136377 
L 658.43336 412.358784 
L 659.377563 435.349539 
L 660.314122 436.423702 
L 661.243157 432.970673 
L 662.16479 433.518182 
L 663.079137 475.075485 
L 663.986313 474.165678 
L 664.886429 479.886014 
L 665.779594 446.445385 
L 666.665915 408.270633 
L 667.545496 410.397548 
L 668.418439 420.977997 
L 669.284842 357.558288 
L 670.144804 312.987004 
L 670.998419 363.529431 
L 671.84578 383.802113 
L 672.686979 384.941037 
L 673.522104 392.215557 
L 674.351242 412.152042 
L 675.174479 442.785729 
L 675.991899 480.288399 
L 676.803581 465.527471 
L 677.609608 440.47961 
L 678.410056 425.437916 
L 679.205003 427.342037 
L 679.994523 442.59158 
L 680.778691 432.361815 
L 681.557579 417.500216 
L 683.099792 447.07504 
L 683.863256 453.169498 
L 684.621713 481.571173 
L 685.375229 469.158625 
L 686.123868 473.339652 
L 686.867693 492.912947 
L 687.606764 494.136219 
L 688.341144 485.625792 
L 689.070889 449.699617 
L 689.79606 436.065846 
L 690.516712 443.047468 
L 691.232902 443.488354 
L 692.652114 471.442478 
L 693.355243 481.922486 
L 694.054123 460.813822 
L 694.748806 460.653944 
L 695.439341 474.699553 
L 696.125778 472.862191 
L 696.808165 487.971238 
L 697.48655 486.553818 
L 698.16098 456.490727 
L 698.831499 432.965739 
L 699.498154 444.31472 
L 700.160989 470.286348 
L 700.820047 450.075631 
L 701.47537 436.414283 
L 702.127002 430.333895 
L 702.774983 437.339247 
L 703.419354 447.181481 
L 704.697426 450.49211 
L 705.331205 448.442668 
L 705.961529 478.910882 
L 706.588438 488.662977 
L 707.211967 484.012145 
L 707.832152 484.022466 
L 708.44903 490.189672 
L 709.062635 487.948036 
L 710.280166 465.943253 
L 712.082763 484.109495 
L 712.677439 475.341963 
L 713.269074 472.168334 
L 713.857698 485.143066 
L 714.443341 488.788974 
L 715.026034 486.353954 
L 715.605806 494.236672 
L 716.182687 489.353275 
L 716.756705 487.400759 
L 717.327887 490.901201 
L 717.896264 489.613203 
L 718.46186 486.145293 
L 719.024705 488.017451 
L 719.584824 486.206343 
L 720.142243 468.946388 
L 720.696989 463.012933 
L 721.249087 469.198688 
L 721.798563 483.622737 
L 722.34544 465.294014 
L 722.889743 464.983258 
L 723.431498 462.958565 
L 723.970726 458.452726 
L 724.507453 462.127074 
L 725.0417 479.848128 
L 725.573491 483.88537 
L 727.154349 456.246232 
L 727.676536 453.647226 
L 728.196377 459.932633 
L 729.229101 448.175332 
L 729.742025 449.054896 
L 730.252685 463.785604 
L 730.761101 468.398899 
L 731.267291 463.453231 
L 731.771276 466.485137 
L 732.273074 460.234678 
L 732.772705 465.045979 
L 733.270187 465.558069 
L 733.765538 471.191881 
L 734.258776 480.449854 
L 734.749921 493.782913 
L 735.238988 489.886552 
L 735.725997 482.324331 
L 736.210963 477.720282 
L 736.693905 463.2579 
L 737.174838 459.574011 
L 738.130747 489.089011 
L 738.605755 491.465527 
L 739.07882 484.335814 
L 739.549959 484.034448 
L 740.019186 480.888953 
L 740.486517 484.312022 
L 740.951968 462.440446 
L 741.415553 453.41381 
L 741.877287 454.516706 
L 742.337186 457.140663 
L 743.251533 472.355272 
L 743.70601 468.639149 
L 744.158709 468.083136 
L 744.609642 476.279116 
L 745.058825 478.031813 
L 745.506269 476.442287 
L 745.95199 476.19184 
L 746.395999 475.713707 
L 746.838311 470.708762 
L 747.717892 452.370195 
L 748.155186 451.530424 
L 748.590834 454.706008 
L 749.024847 455.572557 
L 749.457237 474.270938 
L 750.317199 496.282575 
L 750.744794 487.373723 
L 751.170814 484.439215 
L 751.595271 480.737181 
L 752.018176 475.252826 
L 752.43954 467.41447 
L 752.859374 463.086482 
L 753.277691 463.88512 
L 753.694499 466.7407 
L 754.109812 466.772077 
L 754.523638 473.426727 
L 754.935989 476.07507 
L 755.756307 474.808978 
L 756.164294 473.387693 
L 756.570847 470.873338 
L 756.975977 475.847003 
L 757.379692 482.412137 
L 757.782003 485.528638 
L 758.18292 487.193869 
L 758.582451 487.363897 
L 758.980608 494.273835 
L 759.377398 488.913747 
L 759.772832 477.838491 
L 760.166919 470.123071 
L 760.559667 467.831968 
L 760.951087 473.922491 
L 761.729974 494.225274 
L 762.117459 493.789291 
L 762.888558 482.699152 
L 763.272188 488.574398 
L 763.654549 486.452066 
L 764.415502 489.451284 
L 764.794109 482.874005 
L 765.17148 482.802913 
L 765.547625 490.26008 
L 765.92255 484.571447 
L 766.296264 469.383236 
L 766.668774 468.824823 
L 767.040088 471.168975 
L 767.410214 471.236084 
L 767.77916 472.742352 
L 768.146932 471.996198 
L 768.878987 478.447063 
L 769.606438 490.370822 
L 770.329343 479.515953 
L 770.689107 480.339032 
L 771.047757 483.829004 
L 771.405297 493.13378 
L 771.761736 493.01988 
L 772.11708 490.030426 
L 772.471336 494.966533 
L 773.527638 480.31435 
L 773.877606 477.300605 
L 774.226518 482.678322 
L 774.574381 492.6628 
L 775.266984 488.037724 
L 775.611736 488.511186 
L 775.955464 485.332005 
L 776.298173 488.184864 
L 776.63987 493.47677 
L 776.980561 489.032268 
L 777.320251 482.101504 
L 777.658946 479.594518 
L 777.996652 481.18794 
L 778.333375 482.118456 
L 778.669121 479.452486 
L 779.003895 479.947341 
L 779.337703 481.264011 
L 779.67055 487.139835 
L 780.002442 489.679227 
L 780.333384 485.672886 
L 780.663383 478.882608 
L 781.647766 482.304695 
L 782.299397 492.458605 
L 782.623842 491.317071 
L 782.947378 494.841751 
L 783.270013 491.486643 
L 783.912594 489.18387 
L 784.232551 484.063216 
L 784.551625 482.017833 
L 785.187145 492.214495 
L 785.5036 486.711028 
L 785.819192 477.367593 
L 786.447804 471.871792 
L 786.760833 476.294323 
L 787.384362 490.998706 
L 787.69487 491.678776 
L 788.004548 484.703526 
L 788.313398 483.567839 
L 788.621425 485.706452 
L 789.235031 493.929757 
L 789.540617 493.618623 
L 789.845398 493.613154 
L 790.149378 491.355942 
L 790.452561 494.055259 
L 790.754952 488.730774 
L 791.056554 485.820141 
L 791.357371 485.600473 
L 791.657409 488.258752 
L 791.95667 494.009715 
L 792.255158 493.561961 
L 792.552879 490.582059 
L 792.849835 484.338077 
L 793.14603 481.841899 
L 793.441469 483.091763 
L 793.736156 486.044385 
L 794.323285 493.293104 
L 794.615736 493.02844 
L 794.90745 491.940079 
L 795.488679 487.717534 
L 795.778202 487.475732 
L 796.067002 487.894999 
L 796.355082 492.27495 
L 796.9291 495.427037 
L 797.215044 495.895523 
L 797.500283 493.341269 
L 797.78482 493.87656 
L 798.068659 495.074213 
L 798.351803 492.289497 
L 798.634256 491.544116 
L 798.91602 492.421271 
L 799.1971 491.363928 
L 799.757219 488.431955 
L 800.036265 482.35383 
L 800.314639 483.860963 
L 800.869385 496.134064 
L 801.145763 491.756622 
L 801.421483 491.692121 
L 801.696547 494.891249 
L 801.970958 495.132394 
L 802.24472 490.051072 
L 802.517835 489.650694 
L 802.790307 489.540148 
L 803.062139 492.247338 
L 803.333333 490.999493 
L 803.603893 486.274015 
L 803.873822 484.664917 
L 804.411796 494.038176 
L 804.679848 493.942045 
L 804.94728 494.92313 
L 805.214095 496.721615 
L 805.745886 486.144631 
L 806.010867 485.44332 
L 806.275243 486.749091 
L 806.539016 487.380645 
L 806.802189 489.852537 
L 807.064764 489.98748 
L 807.588133 487.804684 
L 808.109144 493.904091 
L 808.368772 493.399381 
L 808.886287 491.0857 
L 809.401496 494.628237 
L 809.658243 494.230208 
L 809.914421 492.118591 
L 810.170033 491.239027 
L 810.425081 491.032116 
L 810.679568 492.088783 
L 810.933496 496.234157 
L 811.186868 495.166691 
L 811.439687 492.817017 
L 811.943671 492.464019 
L 812.194843 491.752222 
L 812.44547 490.563647 
L 812.695555 490.649125 
L 812.9451 490.236769 
L 813.194109 485.416629 
L 813.442582 482.802835 
L 813.937933 487.667231 
L 814.184815 491.947404 
L 814.677005 487.904651 
L 814.922316 488.387484 
L 815.167109 493.055211 
L 815.411384 493.952096 
L 815.655144 490.476916 
L 815.898392 488.787379 
L 816.14113 490.822046 
L 816.383359 494.221526 
L 816.625081 495.438209 
L 816.8663 493.063459 
L 817.107017 492.807652 
L 817.347233 492.927039 
L 817.586952 492.134995 
L 817.826175 493.113412 
L 818.064905 494.592189 
L 818.303142 494.736476 
L 818.77815 489.166779 
L 819.251216 490.029535 
L 819.487025 489.90699 
L 819.722354 489.07789 
L 820.191581 489.732522 
L 820.425483 491.060973 
L 820.658913 489.388249 
L 820.891872 490.621761 
L 821.124363 493.308982 
L 821.356388 492.944579 
L 821.587948 492.830448 
L 822.049683 491.289299 
L 822.509581 488.459683 
L 823.196018 487.720359 
L 823.423928 489.727769 
L 823.65139 489.339927 
L 823.878406 490.59606 
L 824.104976 493.997342 
L 824.331104 493.172257 
L 824.556791 491.629842 
L 825.006847 490.998858 
L 825.90174 485.719044 
L 826.124385 485.818813 
L 826.346603 487.188444 
L 826.568395 487.823851 
L 826.789762 487.889034 
L 827.010706 489.927585 
L 827.231229 487.775414 
L 827.671018 486.61121 
L 827.890287 486.808445 
L 828.327582 495.117274 
L 828.545611 494.851009 
L 828.763229 492.850593 
L 828.980439 493.287389 
L 829.197242 495.017517 
L 829.845223 484.171264 
L 830.060413 482.712756 
L 830.70359 496.190111 
L 831.767666 486.388958 
L 831.979312 487.654233 
L 832.611935 493.902503 
L 832.822043 493.990804 
L 833.03177 491.763063 
L 833.450086 480.920156 
L 833.866895 478.748572 
L 834.074737 479.02751 
L 834.282207 480.886042 
L 834.489305 481.6305 
L 834.696033 483.397897 
L 835.108384 493.722865 
L 835.31401 493.348067 
L 835.724167 485.865222 
L 836.132876 482.169911 
L 836.336689 483.530995 
L 836.540145 482.85435 
L 836.743243 484.365777 
L 836.945985 484.480962 
L 837.148372 485.258105 
L 837.552087 494.403493 
L 837.753418 494.043651 
L 837.954398 491.141279 
L 838.355315 492.904631 
L 838.555253 491.886901 
L 838.754847 489.640054 
L 838.954096 489.913078 
L 839.549794 496.246435 
L 840.339314 489.968323 
L 840.535855 490.321493 
L 840.732063 490.434812 
L 840.927938 492.276079 
L 841.123482 492.88232 
L 841.708139 497.814241 
L 842.096274 494.894738 
L 842.289855 495.382267 
L 842.483112 492.935662 
L 842.676047 493.879054 
L 842.86866 493.412667 
L 843.060953 493.820043 
L 843.252927 497.169157 
L 843.444583 496.719323 
L 843.635922 496.892094 
L 843.826945 496.909681 
L 844.017653 497.445684 
L 844.777355 491.991607 
L 845.155344 495.379174 
L 845.532101 494.473007 
L 845.72002 494.566586 
L 845.907635 494.900588 
L 846.094945 494.949387 
L 846.281953 494.8434 
L 846.468659 494.232797 
L 846.841169 497.060358 
L 847.212484 492.72323 
L 847.397695 492.803667 
L 847.76723 491.046444 
L 847.951555 491.413538 
L 848.319328 490.179441 
L 848.685934 489.945159 
L 848.868803 488.8567 
L 849.051383 490.855191 
L 849.41568 488.671619 
L 849.778834 487.560807 
L 849.959984 488.58689 
L 850.140851 488.263028 
L 850.68176 490.111452 
L 851.220152 493.309882 
L 851.399061 492.50312 
L 851.75605 490.141804 
L 851.934132 490.695663 
L 852.11194 490.430384 
L 852.466739 496.220831 
L 852.643731 495.422742 
L 852.820453 495.172222 
L 852.996905 493.578246 
L 853.173088 493.719617 
L 853.524652 490.299514 
L 853.700033 490.259834 
L 854.050001 490.607836 
L 854.224589 490.607742 
L 854.398914 490.286123 
L 854.572976 490.805755 
L 854.920316 494.089377 
L 855.093596 494.628006 
L 855.439379 491.122145 
L 855.611884 488.519317 
L 855.784132 488.358872 
L 855.956123 487.817045 
L 856.299341 488.898686 
L 856.470569 488.449746 
L 856.641543 489.176451 
L 856.812266 488.628612 
L 857.152956 491.592143 
L 857.322926 491.855309 
L 857.492646 491.589374 
L 857.662117 492.235456 
L 858.000317 492.297852 
L 858.337531 488.536521 
L 858.505771 487.840313 
L 858.673765 486.605343 
L 858.841516 486.603394 
L 859.009024 485.71181 
L 859.17629 485.933248 
L 859.343314 488.46838 
L 859.510098 489.25417 
L 859.676641 488.868993 
L 859.842945 488.973593 
L 860.00901 489.588376 
L 860.340427 493.649515 
L 860.50578 492.905528 
L 860.670897 490.993951 
L 860.835778 490.514245 
L 861.329017 493.202647 
L 861.492963 492.977767 
L 861.656678 494.912139 
L 861.820161 494.231035 
L 862.309229 484.57405 
L 862.471793 483.337296 
L 862.634129 484.507312 
L 862.796237 484.396262 
L 862.958119 484.896928 
L 863.119774 486.067546 
L 863.764145 497.763331 
L 864.084989 490.770451 
L 864.245078 488.437156 
L 864.404946 488.100276 
L 864.564593 488.35183 
L 864.883228 489.580587 
L 865.200987 493.007467 
L 865.35954 496.845515 
L 865.517876 496.353261 
L 865.675995 495.49645 
L 866.30632 484.385297 
L 866.463366 482.932298 
L 866.77682 484.269919 
L 867.089426 487.25122 
L 867.556757 495.475083 
L 867.712116 493.904745 
L 868.176943 485.172639 
L 868.331471 483.823154 
L 869.25433 491.681547 
L 869.865503 480.937205 
L 870.169883 480.161377 
L 870.321773 481.779115 
L 870.927347 496.940199 
L 871.529767 485.432323 
L 871.679883 485.300115 
L 871.829804 484.964748 
L 872.129065 486.670493 
L 872.427554 489.18123 
L 872.725274 485.863809 
L 873.02223 482.684606 
L 873.170423 483.164554 
L 873.46624 488.013593 
L 873.761302 494.235191 
L 873.908551 495.152031 
L 874.202488 490.971565 
L 874.495681 484.560169 
L 874.641999 484.117227 
L 875.079845 487.315931 
L 875.370825 492.228415 
L 875.516041 495.081577 
L 875.661074 493.052423 
L 876.095087 484.222685 
L 876.239397 483.229464 
L 876.671249 488.156017 
L 877.101495 497.073239 
L 877.672678 483.460986 
L 877.957215 483.964902 
L 878.382713 487.84269 
L 878.665511 495.867995 
L 878.947619 490.406271 
L 879.229041 486.394627 
L 879.50978 484.563193 
L 879.789839 487.230232 
L 880.20866 494.714749 
L 880.347931 496.018705 
L 880.487034 495.163684 
L 880.903343 490.322505 
L 881.04178 490.85556 
L 881.318159 493.666733 
L 881.4561 493.231452 
L 882.006229 488.647876 
L 882.143353 488.098806 
L 882.553753 490.857472 
L 882.962703 493.543829 
L 883.505729 486.452006 
L 883.641088 486.240269 
L 883.911331 487.099908 
L 884.046217 488.05829 
L 884.449932 493.857927 
L 884.584192 492.759895 
L 885.119675 483.90035 
L 885.25316 483.508104 
L 885.519668 486.899643 
L 886.050848 494.631441 
L 886.711411 484.654339 
L 886.843073 484.455129 
L 887.237159 490.157003 
L 887.49914 494.612682 
L 887.760528 489.625703 
L 888.151506 483.974197 
L 888.281539 484.043503 
L 888.541168 486.785327 
L 889.058682 495.552413 
L 889.1877 494.789321 
L 889.445304 491.092166 
L 889.702336 489.495771 
L 890.342428 495.655819 
L 890.470022 495.287314 
L 891.105892 489.409001 
L 891.232647 490.127802 
L 891.359264 489.991511 
L 891.612082 492.698972 
L 891.738284 493.185297 
L 891.864349 493.227515 
L 892.241721 491.640376 
L 892.492619 492.415715 
L 892.742975 494.950327 
L 892.86795 495.168852 
L 892.99279 494.654298 
L 893.366504 489.750549 
L 893.614977 488.541737 
L 893.739014 488.406251 
L 893.862918 488.911021 
L 893.986689 488.916023 
L 894.480455 495.252709 
L 894.8494 492.461236 
L 895.094712 490.708181 
L 895.217173 491.394215 
L 895.705724 497.595689 
L 896.070788 491.646754 
L 896.313525 490.235519 
L 896.434703 490.367895 
L 896.676679 492.85079 
L 897.159116 496.842733 
L 897.519629 492.227294 
L 898.2373 495.567366 
L 898.475538 495.432882 
L 898.713286 494.033615 
L 899.068994 492.632412 
L 899.18732 492.605704 
L 899.777145 496.166467 
L 899.89475 496.053479 
L 900.012235 495.641931 
L 900.129601 496.153352 
L 900.246848 496.075239 
L 900.363977 496.296653 
L 900.480987 496.185529 
L 900.597878 496.237521 
L 900.714652 496.121296 
L 900.831308 496.209512 
L 901.064267 494.239626 
L 901.528783 493.801498 
L 901.644621 493.009885 
L 902.106817 495.614883 
L 902.337224 496.46048 
L 902.911242 493.300076 
L 903.025704 493.589304 
L 903.596324 497.64863 
L 903.937349 494.177189 
L 904.277372 492.90541 
L 904.729186 497.149813 
L 904.841864 497.442951 
L 905.515639 492.36299 
L 905.85106 494.007345 
L 906.074135 497.197305 
L 906.185511 497.046434 
L 906.296781 496.621897 
L 906.518998 494.722902 
L 906.851527 493.419627 
L 906.962157 493.570942 
L 907.183102 495.258961 
L 907.403625 497.327701 
L 907.513729 497.208219 
L 907.623728 497.527295 
L 908.172161 494.181523 
L 908.281536 494.706473 
L 908.390808 494.330852 
L 909.044281 497.562258 
L 909.152835 497.567433 
L 909.477887 494.80139 
L 909.694082 494.673628 
L 909.909874 494.965641 
L 910.017619 494.948593 
L 910.232808 496.005584 
L 910.554844 496.421554 
L 910.66199 496.300739 
L 910.769037 496.291115 
L 910.982834 495.337029 
L 911.089585 495.663969 
L 911.196237 495.425216 
L 911.302791 495.934302 
L 911.409247 495.784225 
L 911.621865 497.255322 
L 912.257385 493.414793 
L 912.362966 493.53181 
L 912.679133 495.086104 
L 912.994438 495.865129 
L 913.204165 495.260516 
L 913.308886 494.896302 
L 913.622481 494.979342 
L 913.831074 494.687872 
L 913.935229 495.112273 
L 914.350914 494.239227 
L 914.454602 494.221941 
L 914.558198 494.031211 
L 915.074788 497.127231 
L 915.383638 495.185133 
L 915.486405 495.236091 
L 915.589081 495.873472 
L 915.79416 495.406825 
L 915.998875 496.995877 
L 916.101097 496.952925 
L 916.305271 495.980296 
L 916.71254 494.634544 
L 916.915638 494.695096 
L 917.017054 495.172058 
L 917.320767 497.744221 
L 917.724483 496.055215 
L 918.026347 495.583108 
L 918.52771 497.16078 
L 918.927242 495.799931 
L 919.225988 495.90825 
L 919.325399 496.723371 
L 919.424724 496.522316 
L 919.523964 497.339629 
L 919.722189 496.731149 
L 919.821174 496.689044 
L 919.920075 495.563893 
L 920.018891 495.605889 
L 920.216271 495.143678 
L 920.314834 495.189021 
L 920.413314 495.006539 
L 920.51171 495.165901 
L 921.002437 497.276293 
L 921.295878 496.387037 
L 921.393526 496.348566 
L 921.491092 495.856159 
L 921.588575 495.928948 
L 921.685977 496.242062 
L 921.97769 497.644629 
L 922.171758 497.867381 
L 922.365501 497.011728 
L 922.46225 497.075856 
L 922.558919 496.924439 
L 922.655507 497.114012 
L 922.752015 496.900637 
L 922.848442 497.292733 
L 922.944789 496.718348 
L 923.041055 497.147529 
L 923.137242 496.850999 
L 923.233349 497.149649 
L 923.329375 496.60226 
L 923.616978 497.66424 
L 923.712687 497.612516 
L 924.190048 496.812652 
L 924.475522 496.176524 
L 924.665447 496.419158 
L 924.85506 496.481524 
L 925.044364 497.325874 
L 925.138899 497.526387 
L 925.610422 496.092439 
L 925.798494 496.662453 
L 925.986261 497.715117 
L 926.173723 497.644474 
L 926.454348 496.702416 
L 926.82746 495.799288 
L 927.013565 496.250345 
L 927.106505 496.072422 
L 927.384879 497.745702 
L 927.939625 495.733489 
L 928.216003 496.574675 
L 928.307983 497.368337 
L 928.491723 497.08551 
L 928.675172 497.011132 
L 928.766787 497.135899 
L 928.85833 496.502183 
L 928.9498 496.728933 
L 929.132524 496.657495 
L 929.31496 497.362069 
L 929.40607 497.253868 
L 929.588075 497.861171 
L 929.678971 497.301018 
L 929.769795 497.330512 
L 929.860547 497.015188 
L 929.951229 497.098941 
L 930.04184 496.8017 
L 930.132379 497.028461 
L 930.222848 496.651236 
L 930.403573 497.092987 
L 930.584017 496.824105 
L 930.76418 496.913633 
L 930.944062 496.78486 
L 931.033898 496.840155 
L 931.123665 497.030948 
L 931.213362 496.822641 
L 931.302989 496.902196 
L 931.660807 496.517978 
L 931.750088 496.617395 
L 931.839301 497.0536 
L 932.01752 496.721501 
L 932.461871 495.80365 
L 932.727664 496.783574 
L 932.992848 496.015354 
L 933.081108 495.884537 
L 933.1693 496.000606 
L 933.257425 495.729525 
L 933.433475 496.444054 
L 933.521399 496.472538 
L 933.609256 496.319787 
L 933.697047 496.480964 
L 933.784771 495.97423 
L 933.872429 496.068783 
L 934.047545 495.745306 
L 934.309724 496.769202 
L 934.48418 497.074511 
L 935.005974 496.043641 
L 935.179384 496.780055 
L 935.439012 497.700167 
L 935.698059 497.042773 
L 935.870435 496.658121 
L 935.956527 497.040056 
L 936.042555 496.842234 
L 936.300255 497.755159 
L 936.557382 496.150485 
L 936.642964 496.430678 
L 936.728483 496.358055 
L 936.813939 496.233733 
L 937.069928 496.80354 
L 937.155132 496.842661 
L 937.325351 497.174344 
L 937.410368 496.885943 
L 937.495321 497.064876 
L 937.580212 496.860237 
L 937.749808 497.759072 
L 937.834513 497.598411 
L 937.919156 497.129831 
L 938.003737 497.155834 
L 938.257109 496.56728 
L 938.425716 497.20418 
L 938.509927 497.011233 
L 938.594077 497.067242 
L 938.678166 496.882393 
L 938.930067 497.071142 
L 939.013912 496.885087 
L 939.097696 496.973018 
L 939.18142 496.847163 
L 939.265083 497.085929 
L 939.432228 496.746228 
L 939.599132 496.682464 
L 939.682493 496.873721 
L 939.765795 496.711748 
L 939.932219 497.556683 
L 940.430057 495.979263 
L 940.512822 496.167929 
L 940.595528 496.181022 
L 940.760763 496.887477 
L 940.843292 496.884384 
L 941.008173 497.652542 
L 941.337233 496.713414 
L 941.501412 497.175024 
L 941.583415 497.226558 
L 941.747245 497.750248 
L 941.829073 497.611326 
L 941.910844 496.928639 
L 941.992557 497.090698 
L 942.074212 497.07749 
L 942.155809 496.783478 
L 942.237349 496.865763 
L 942.318831 497.010116 
L 942.400256 496.889475 
L 942.481624 497.217615 
L 942.562935 497.172842 
L 942.644188 497.158416 
L 942.887607 497.763886 
L 943.049602 497.666436 
L 943.130514 497.577143 
L 943.372912 497.794386 
L 943.614804 497.61973 
L 943.93654 496.873949 
L 944.016835 496.946803 
L 944.097074 496.776961 
L 944.177257 496.93221 
L 944.337457 496.742261 
L 944.657193 497.940261 
L 944.736989 497.725484 
L 944.81673 497.684451 
L 945.055623 496.972624 
L 945.294025 497.575521 
L 945.531936 497.156224 
L 945.769358 496.137614 
L 945.848391 496.563194 
L 945.92737 496.164801 
L 946.321456 497.56854 
L 946.400113 497.495665 
L 946.635762 496.70902 
L 946.714205 496.744943 
L 946.792595 496.75831 
L 947.027446 497.686222 
L 947.105624 497.708455 
L 947.495723 496.707679 
L 947.573585 496.614835 
L 947.729153 497.020022 
L 947.806858 496.988509 
L 947.884511 497.08349 
L 948.039661 497.455208 
L 948.117158 497.17795 
L 948.194603 497.277647 
L 948.271997 497.501709 
L 948.349338 497.425507 
L 948.503867 497.152216 
L 948.735272 497.607683 
L 948.966216 497.375027 
L 949.119923 497.921301 
L 949.1967 497.948798 
L 949.350101 497.483691 
L 949.579821 497.397742 
L 949.656294 497.058467 
L 949.809087 497.73952 
L 949.885408 497.705251 
L 950.266259 496.505375 
L 950.494169 497.301698 
L 950.72163 497.892947 
L 950.873024 497.310759 
L 950.948646 497.328831 
L 951.024219 496.813441 
L 951.099742 496.925087 
L 951.326018 497.474955 
L 951.401344 497.391659 
L 951.551851 497.269722 
L 951.627031 497.380267 
L 951.777244 497.015832 
L 951.852278 497.375207 
L 951.927263 496.888189 
L 952.077087 497.457426 
L 952.151927 497.449781 
L 952.30146 497.60599 
L 952.450801 497.139623 
L 952.674451 496.731305 
L 952.97198 497.547026 
L 953.046243 497.561727 
L 953.120458 497.968061 
L 953.416843 497.17167 
L 953.712471 497.697492 
L 953.860002 497.66785 
L 954.007345 497.968689 
L 954.080946 497.851501 
L 954.30147 496.758953 
L 954.448252 496.728156 
L 954.521573 496.928665 
L 954.594848 496.77956 
L 954.887484 497.862936 
L 955.106476 496.709819 
L 955.179381 496.89114 
L 955.252241 496.651552 
L 955.470544 497.342397 
L 955.615851 497.928453 
L 955.905918 496.674039 
L 956.05068 496.743739 
L 956.33966 497.666009 
L 956.699873 496.911834 
L 956.915464 497.52609 
L 957.058968 497.893436 
L 957.273891 497.271375 
L 957.488415 496.937965 
L 957.702542 497.650423 
L 957.845074 497.517851 
L 957.98743 496.839423 
L 958.058542 496.873694 
L 958.342555 497.388544 
L 958.484301 497.781324 
L 958.555109 497.746396 
L 958.696594 497.273803 
L 958.837907 497.472746 
L 958.908498 497.404856 
L 958.979047 497.383557 
L 959.190434 496.927276 
L 959.541891 497.755962 
L 959.612055 497.774297 
L 959.82229 497.250479 
L 959.892283 497.208492 
L 960.241617 497.880625 
L 960.520326 497.486251 
L 960.589899 497.390152 
L 960.728918 497.511041 
L 960.798366 497.484119 
L 961.006457 497.964065 
L 961.075738 497.858364 
L 961.352447 497.5644 
L 961.628496 497.783383 
L 961.766274 497.926857 
L 961.972633 497.623227 
L 962.110001 497.649835 
L 962.178624 497.989184 
L 962.247207 497.810823 
L 962.315749 497.81261 
L 962.452711 497.508442 
L 962.521131 497.401398 
L 962.589511 497.44729 
L 962.65785 497.458846 
L 962.726149 497.288291 
L 962.930804 497.892112 
L 962.998942 497.75728 
L 963.06704 497.777083 
L 963.135098 497.648346 
L 963.271094 497.281344 
L 963.40693 497.307995 
L 963.610385 497.878207 
L 963.678124 497.681048 
L 963.813483 497.575445 
L 963.948684 497.334762 
L 964.016225 497.260103 
L 964.353341 497.776772 
L 964.55514 497.468524 
L 964.622328 497.592673 
L 964.689477 497.487096 
L 964.823658 497.56855 
L 965.091555 497.88094 
L 965.358832 497.406757 
L 965.558886 497.889548 
L 965.692063 497.796157 
L 965.891542 497.392174 
L 966.024337 497.539486 
L 966.090677 497.358833 
L 966.355658 497.909748 
L 966.553997 497.618628 
L 966.751996 497.660882 
L 966.883807 497.800563 
L 966.949656 497.662441 
L 967.015468 497.890251 
L 967.081242 497.830712 
L 967.146979 497.893536 
L 967.343967 497.351086 
L 967.409555 497.4265 
L 967.475105 497.466245 
L 967.671535 497.775811 
L 967.736937 497.785767 
L 967.802303 498.010663 
L 967.867632 497.726404 
L 967.932923 497.804713 
L 968.128578 497.921018 
L 968.193722 497.751317 
L 968.25883 497.862687 
L 968.323902 497.964901 
L 968.388936 497.913798 
L 968.583822 497.409168 
L 968.778379 497.582823 
L 968.907902 497.960065 
L 969.101916 497.344417 
L 969.295604 497.824832 
L 969.360095 497.797289 
L 969.6177 497.842044 
L 969.810527 497.436064 
L 969.874731 497.700154 
L 969.9389 497.587017 
L 970.003034 497.523729 
L 970.323167 497.915825 
L 970.514823 497.469551 
L 970.769872 497.560851 
L 970.960789 497.914286 
L 971.151393 497.502493 
L 971.214857 497.614935 
L 971.468368 497.388861 
L 971.531659 497.222352 
L 971.784477 497.916692 
L 972.099725 497.657094 
L 972.351306 497.893037 
L 972.602341 497.83328 
L 972.79026 497.789177 
L 972.915371 497.691619 
L 973.165186 497.938018 
L 973.414462 497.517209 
L 973.725304 497.873721 
L 973.787373 497.860501 
L 974.035314 497.507533 
L 974.220921 497.542891 
L 974.467935 497.861377 
L 974.65285 497.682627 
L 974.714423 497.686763 
L 974.775963 497.56611 
L 975.021796 497.851835 
L 975.267107 497.996289 
L 975.328354 497.836389 
L 975.389568 497.910138 
L 975.511899 497.85449 
L 975.573017 497.917164 
L 975.634101 497.832565 
L 975.999935 497.879517 
L 976.303915 497.563682 
L 976.425284 497.702094 
L 976.48592 497.617958 
L 976.546525 497.720288 
L 976.607098 497.942234 
L 976.66764 497.845372 
L 976.728149 497.871947 
L 977.030224 497.399129 
L 977.271317 497.955623 
L 977.511909 497.526497 
L 977.752001 497.785929 
L 977.931743 497.809857 
L 977.991595 497.605255 
L 978.051417 497.656518 
L 978.170966 497.847305 
L 978.230695 497.984914 
L 978.528876 497.496294 
L 978.647933 497.580334 
L 978.766868 497.928371 
L 979.063672 497.315024 
L 979.122941 497.370094 
L 979.18218 497.270483 
L 979.241389 497.366342 
L 979.418834 497.552744 
L 979.536979 497.762043 
L 979.713971 497.493189 
L 979.94954 497.54769 
L 980.067145 497.372244 
L 980.125903 497.477989 
L 980.301997 497.640655 
L 980.360635 497.505523 
L 980.419244 497.849852 
L 980.477823 497.739755 
L 980.770274 497.688483 
L 980.887047 497.779043 
L 981.061987 497.982698 
L 981.236663 497.757565 
L 981.411075 497.522105 
L 981.469154 497.510647 
L 981.585225 497.779927 
L 981.643216 497.710828 
L 981.759112 497.486922 
L 981.817017 497.531399 
L 981.874892 497.578909 
L 981.990557 497.884581 
L 982.048346 497.865733 
L 982.106105 497.789869 
L 982.221539 497.34863 
L 982.279213 497.395441 
L 982.394473 497.319298 
L 982.624651 497.818518 
L 982.969061 497.256847 
L 983.1981 497.696791 
L 983.369581 497.447464 
L 983.540809 497.218261 
L 983.711784 497.314329 
L 983.939357 497.642122 
L 984.052977 497.743422 
L 984.223196 497.879879 
L 984.50634 497.548601 
L 984.562886 497.636385 
L 984.788793 497.971871 
L 984.845201 498.011519 
L 985.183072 497.449153 
L 985.407772 497.649409 
L 985.519958 497.971837 
L 985.855867 497.432707 
L 985.911757 497.40126 
L 986.190802 497.800298 
L 986.24653 497.856332 
L 986.52477 497.444839 
L 986.691394 497.664591 
L 986.746882 497.853646 
L 986.802343 497.780243 
L 987.023922 497.436383 
L 987.079251 497.463085 
L 987.3003 497.858599 
L 987.410667 497.679956 
L 987.465811 497.705414 
L 987.631085 497.496364 
L 987.960927 497.927552 
L 988.180299 497.573714 
L 988.344557 497.922556 
L 988.399257 497.996158 
L 988.672372 497.538856 
L 988.835933 497.695599 
L 988.944844 497.848626 
L 989.32523 497.516356 
L 989.433682 497.454966 
L 989.812467 497.870653 
L 989.974424 497.566433 
L 990.136154 497.394867 
L 990.351444 497.596116 
L 990.458939 497.846697 
L 990.512648 497.793101 
L 990.780825 497.29738 
L 990.834385 497.252583 
L 991.04838 497.842042 
L 991.101817 497.748238 
L 991.421922 497.446989 
L 991.634834 497.986636 
L 991.847354 497.53573 
L 992.112457 497.819933 
L 992.218328 497.700892 
L 992.376954 497.592197 
L 992.588116 497.983106 
L 992.640847 497.900571 
L 992.851529 497.548855 
L 992.904139 497.596005 
L 993.219301 497.787717 
L 993.690439 497.583236 
L 993.794877 497.594497 
L 994.107624 497.665688 
L 994.263681 497.337443 
L 994.315654 497.419946 
L 994.419528 497.448046 
L 994.678807 497.907388 
L 994.834096 497.622339 
L 995.14405 497.927134 
L 995.350225 497.601559 
L 995.761476 497.865869 
L 995.864061 497.772403 
L 996.017768 497.910859 
L 996.171271 497.818521 
L 996.32457 497.681458 
L 996.63056 497.985063 
L 996.783253 497.765238 
L 996.935743 497.81177 
L 997.392013 497.984966 
L 997.695197 497.70494 
L 997.74565 497.657208 
L 997.796081 497.72822 
L 997.947244 497.888654 
L 997.997587 497.856033 
L 998.148487 497.750536 
L 998.34938 497.70047 
L 998.499821 497.88366 
L 998.549925 497.847108 
L 998.700106 497.519769 
L 998.750123 497.552228 
L 999.049772 497.957047 
L 999.249107 497.699153 
L 999.398383 497.889071 
L 999.448099 497.772796 
L 999.547467 497.707031 
L 999.894584 497.947193 
L 999.99357 497.871533 
L 1000.09247 497.742738 
L 1000.141889 497.812115 
L 1000.733272 497.868337 
L 1000.880646 497.818274 
L 1001.419418 497.982244 
L 1001.614714 497.751777 
L 1001.760971 497.702612 
L 1001.955692 497.568089 
L 1002.392619 497.773925 
L 1002.537896 497.598331 
L 1002.68299 497.868921 
L 1002.731315 497.821484 
L 1002.779619 497.8048 
L 1002.876167 497.975086 
L 1002.92441 497.909443 
L 1003.165327 497.912362 
L 1003.501771 497.848056 
L 1003.645662 497.940833 
L 1003.74149 497.923503 
L 1003.837238 497.992718 
L 1003.885083 497.899718 
L 1004.171736 497.82864 
L 1004.362444 497.977953 
L 1004.647917 497.772967 
L 1004.837842 497.409365 
L 1004.885275 497.445735 
L 1005.169462 497.847895 
L 1005.311295 497.604994 
L 1005.358534 497.633291 
L 1005.547296 497.833857 
L 1005.641562 497.934845 
L 1005.782817 497.811958 
L 1006.01786 497.954293 
L 1006.111743 497.85774 
L 1006.158656 497.918435 
L 1006.20555 497.920778 
L 1006.346119 497.503943 
L 1006.392937 497.544619 
L 1006.720135 498.022402 
L 1006.766802 497.91441 
L 1006.999855 497.717572 
L 1007.18596 497.74895 
L 1007.371766 497.809046 
L 1007.464558 497.693983 
L 1007.510925 497.717667 
L 1007.603605 497.831531 
L 1007.696211 497.929336 
L 1007.927401 497.492909 
L 1008.065893 497.699493 
L 1008.20422 497.878218 
L 1008.342382 497.633727 
L 1008.388399 497.683802 
L 1008.618211 497.961405 
L 1008.664118 497.908796 
L 1008.801732 497.658914 
L 1008.847567 497.68833 
L 1009.167904 497.965177 
L 1009.441773 497.77942 
L 1009.714996 497.914196 
L 1009.760471 497.991655 
L 1009.805927 497.921386 
L 1010.078293 497.629573 
L 1010.168939 497.788902 
L 1010.259514 497.979311 
L 1010.304775 497.961628 
L 1010.485641 497.914671 
L 1010.621106 497.976181 
L 1010.711328 497.925317 
L 1010.891561 497.725901 
L 1011.251186 497.99581 
L 1011.475385 497.775688 
L 1011.520173 497.823358 
L 1011.654432 498.002473 
L 1011.967099 497.717941 
L 1012.189916 497.704876 
L 1012.3234 497.741141 
L 1012.412304 497.891406 
L 1012.456731 497.977068 
L 1012.50114 497.946524 
L 1012.678608 497.828841 
L 1012.81153 497.853877 
L 1012.988522 497.823674 
L 1013.253503 498.01563 
L 1013.297608 497.922998 
L 1013.385767 497.879202 
L 1013.473858 498.022672 
L 1013.561883 497.791626 
L 1013.60587 497.827527 
L 1013.693794 497.979211 
L 1013.737731 497.872914 
L 1013.781652 497.783427 
L 1013.825555 497.834357 
L 1013.913313 498.023025 
L 1013.957167 497.92855 
L 1014.394792 497.732358 
L 1014.525758 497.985547 
L 1014.612986 497.923863 
L 1014.874276 497.85983 
L 1015.048142 497.986642 
L 1015.221747 497.700752 
L 1015.481667 497.958302 
L 1015.82732 497.913097 
L 1015.870455 497.952804 
L 1015.870455 497.952804 
" clip-path="url(#pc752ffb630)" style="fill: none; stroke: #0c5da5; stroke-width: 2; stroke-linecap: square"/>
   </g>
   <g id="patch_3">
    <path d="M 57.125 520.7175 
L 57.125 21.7575 
" style="fill: none; stroke: #000000; stroke-linejoin: miter; stroke-linecap: square"/>
   </g>
   <g id="patch_4">
    <path d="M 1061.525 520.7175 
L 1061.525 21.7575 
" style="fill: none; stroke: #000000; stroke-linejoin: miter; stroke-linecap: square"/>
   </g>
   <g id="patch_5">
    <path d="M 57.125 520.7175 
L 1061.525 520.7175 
" style="fill: none; stroke: #000000; stroke-linejoin: miter; stroke-linecap: square"/>
   </g>
   <g id="patch_6">
    <path d="M 57.125 21.7575 
L 1061.525 21.7575 
" style="fill: none; stroke: #000000; stroke-linejoin: miter; stroke-linecap: square"/>
   </g>
   <g id="text_14">
    <!-- Coyote Lake Record no. 153 -->
    <g transform="translate(447.08 15.7575) scale(0.16 -0.16)">
     <defs>
      <path id="DejaVuSans-43" d="M 4122 4306 
L 4122 3641 
Q 3803 3938 3442 4084 
Q 3081 4231 2675 4231 
Q 1875 4231 1450 3742 
Q 1025 3253 1025 2328 
Q 1025 1406 1450 917 
Q 1875 428 2675 428 
Q 3081 428 3442 575 
Q 3803 722 4122 1019 
L 4122 359 
Q 3791 134 3420 21 
Q 3050 -91 2638 -91 
Q 1578 -91 968 557 
Q 359 1206 359 2328 
Q 359 3453 968 4101 
Q 1578 4750 2638 4750 
Q 3056 4750 3426 4639 
Q 3797 4528 4122 4306 
z
" transform="scale(0.015625)"/>
      <path id="DejaVuSans-6f" d="M 1959 3097 
Q 1497 3097 1228 2736 
Q 959 2375 959 1747 
Q 959 1119 1226 758 
Q 1494 397 1959 397 
Q 2419 397 2687 759 
Q 2956 1122 2956 1747 
Q 2956 2369 2687 2733 
Q 2419 3097 1959 3097 
z
M 1959 3584 
Q 2709 3584 3137 3096 
Q 3566 2609 3566 1747 
Q 3566 888 3137 398 
Q 2709 -91 1959 -91 
Q 1206 -91 779 398 
Q 353 888 353 1747 
Q 353 2609 779 3096 
Q 1206 3584 1959 3584 
z
" transform="scale(0.015625)"/>
      <path id="DejaVuSans-4c" d="M 628 4666 
L 1259 4666 
L 1259 531 
L 3531 531 
L 3531 0 
L 628 0 
L 628 4666 
z
" transform="scale(0.015625)"/>
      <path id="DejaVuSans-61" d="M 2194 1759 
Q 1497 1759 1228 1600 
Q 959 1441 959 1056 
Q 959 750 1161 570 
Q 1363 391 1709 391 
Q 2188 391 2477 730 
Q 2766 1069 2766 1631 
L 2766 1759 
L 2194 1759 
z
M 3341 1997 
L 3341 0 
L 2766 0 
L 2766 531 
Q 2569 213 2275 61 
Q 1981 -91 1556 -91 
Q 1019 -91 701 211 
Q 384 513 384 1019 
Q 384 1609 779 1909 
Q 1175 2209 1959 2209 
L 2766 2209 
L 2766 2266 
Q 2766 2663 2505 2880 
Q 2244 3097 1772 3097 
Q 1472 3097 1187 3025 
Q 903 2953 641 2809 
L 641 3341 
Q 956 3463 1253 3523 
Q 1550 3584 1831 3584 
Q 2591 3584 2966 3190 
Q 3341 2797 3341 1997 
z
" transform="scale(0.015625)"/>
      <path id="DejaVuSans-6b" d="M 581 4863 
L 1159 4863 
L 1159 1991 
L 2875 3500 
L 3609 3500 
L 1753 1863 
L 3688 0 
L 2938 0 
L 1159 1709 
L 1159 0 
L 581 0 
L 581 4863 
z
" transform="scale(0.015625)"/>
      <path id="DejaVuSans-52" d="M 2841 2188 
Q 3044 2119 3236 1894 
Q 3428 1669 3622 1275 
L 4263 0 
L 3584 0 
L 2988 1197 
Q 2756 1666 2539 1819 
Q 2322 1972 1947 1972 
L 1259 1972 
L 1259 0 
L 628 0 
L 628 4666 
L 2053 4666 
Q 2853 4666 3247 4331 
Q 3641 3997 3641 3322 
Q 3641 2881 3436 2590 
Q 3231 2300 2841 2188 
z
M 1259 4147 
L 1259 2491 
L 2053 2491 
Q 2509 2491 2742 2702 
Q 2975 2913 2975 3322 
Q 2975 3731 2742 3939 
Q 2509 4147 2053 4147 
L 1259 4147 
z
" transform="scale(0.015625)"/>
      <path id="DejaVuSans-2e" d="M 684 794 
L 1344 794 
L 1344 0 
L 684 0 
L 684 794 
z
" transform="scale(0.015625)"/>
      <path id="DejaVuSans-35" d="M 691 4666 
L 3169 4666 
L 3169 4134 
L 1269 4134 
L 1269 2991 
Q 1406 3038 1543 3061 
Q 1681 3084 1819 3084 
Q 2600 3084 3056 2656 
Q 3513 2228 3513 1497 
Q 3513 744 3044 326 
Q 2575 -91 1722 -91 
Q 1428 -91 1123 -41 
Q 819 9 494 109 
L 494 744 
Q 775 591 1075 516 
Q 1375 441 1709 441 
Q 2250 441 2565 725 
Q 2881 1009 2881 1497 
Q 2881 1984 2565 2268 
Q 2250 2553 1709 2553 
Q 1456 2553 1204 2497 
Q 953 2441 691 2322 
L 691 4666 
z
" transform="scale(0.015625)"/>
      <path id="DejaVuSans-33" d="M 2597 2516 
Q 3050 2419 3304 2112 
Q 3559 1806 3559 1356 
Q 3559 666 3084 287 
Q 2609 -91 1734 -91 
Q 1441 -91 1130 -33 
Q 819 25 488 141 
L 488 750 
Q 750 597 1062 519 
Q 1375 441 1716 441 
Q 2309 441 2620 675 
Q 2931 909 2931 1356 
Q 2931 1769 2642 2001 
Q 2353 2234 1838 2234 
L 1294 2234 
L 1294 2753 
L 1863 2753 
Q 2328 2753 2575 2939 
Q 2822 3125 2822 3475 
Q 2822 3834 2567 4026 
Q 2313 4219 1838 4219 
Q 1578 4219 1281 4162 
Q 984 4106 628 3988 
L 628 4550 
Q 988 4650 1302 4700 
Q 1616 4750 1894 4750 
Q 2613 4750 3031 4423 
Q 3450 4097 3450 3541 
Q 3450 3153 3228 2886 
Q 3006 2619 2597 2516 
z
" transform="scale(0.015625)"/>
     </defs>
     <use xlink:href="#DejaVuSans-43"/>
     <use xlink:href="#DejaVuSans-6f" x="69.824219"/>
     <use xlink:href="#DejaVuSans-79" x="131.005859"/>
     <use xlink:href="#DejaVuSans-6f" x="190.185547"/>
     <use xlink:href="#DejaVuSans-74" x="251.367188"/>
     <use xlink:href="#DejaVuSans-65" x="290.576172"/>
     <use xlink:href="#DejaVuSans-20" x="352.099609"/>
     <use xlink:href="#DejaVuSans-4c" x="383.886719"/>
     <use xlink:href="#DejaVuSans-61" x="439.599609"/>
     <use xlink:href="#DejaVuSans-6b" x="500.878906"/>
     <use xlink:href="#DejaVuSans-65" x="555.164062"/>
     <use xlink:href="#DejaVuSans-20" x="616.6875"/>
     <use xlink:href="#DejaVuSans-52" x="648.474609"/>
     <use xlink:href="#DejaVuSans-65" x="713.457031"/>
     <use xlink:href="#DejaVuSans-63" x="774.980469"/>
     <use xlink:href="#DejaVuSans-6f" x="829.960938"/>
     <use xlink:href="#DejaVuSans-72" x="891.142578"/>
     <use xlink:href="#DejaVuSans-64" x="930.505859"/>
     <use xlink:href="#DejaVuSans-20" x="993.982422"/>
     <use xlink:href="#DejaVuSans-6e" x="1025.769531"/>
     <use xlink:href="#DejaVuSans-6f" x="1089.148438"/>
     <use xlink:href="#DejaVuSans-2e" x="1148.580078"/>
     <use xlink:href="#DejaVuSans-20" x="1180.367188"/>
     <use xlink:href="#DejaVuSans-31" x="1212.154297"/>
     <use xlink:href="#DejaVuSans-35" x="1275.777344"/>
     <use xlink:href="#DejaVuSans-33" x="1339.400391"/>
    </g>
   </g>
   <g id="legend_1">
    <g id="patch_7">
     <path d="M 730.6225 58.0425 
L 1050.325 58.0425 
Q 1053.525 58.0425 1053.525 54.8425 
L 1053.525 32.9575 
Q 1053.525 29.7575 1050.325 29.7575 
L 730.6225 29.7575 
Q 727.4225 29.7575 727.4225 32.9575 
L 727.4225 54.8425 
Q 727.4225 58.0425 730.6225 58.0425 
z
" style="fill: #ffffff; stroke: #cccccc; stroke-linejoin: miter"/>
    </g>
    <g id="line2d_141">
     <path d="M 733.8225 42.715 
L 749.8225 42.715 
L 765.8225 42.715 
" style="fill: none; stroke: #0c5da5; stroke-width: 2; stroke-linecap: square"/>
    </g>
    <g id="text_15">
     <!-- Predominant Time Period = 2.63s -->
     <g transform="translate(778.6225 48.315) scale(0.16 -0.16)">
      <defs>
       <path id="DejaVuSans-50" d="M 1259 4147 
L 1259 2394 
L 2053 2394 
Q 2494 2394 2734 2622 
Q 2975 2850 2975 3272 
Q 2975 3691 2734 3919 
Q 2494 4147 2053 4147 
L 1259 4147 
z
M 628 4666 
L 2053 4666 
Q 2838 4666 3239 4311 
Q 3641 3956 3641 3272 
Q 3641 2581 3239 2228 
Q 2838 1875 2053 1875 
L 1259 1875 
L 1259 0 
L 628 0 
L 628 4666 
z
" transform="scale(0.015625)"/>
       <path id="DejaVuSans-54" d="M -19 4666 
L 3928 4666 
L 3928 4134 
L 2272 4134 
L 2272 0 
L 1638 0 
L 1638 4134 
L -19 4134 
L -19 4666 
z
" transform="scale(0.015625)"/>
       <path id="DejaVuSans-3d" d="M 678 2906 
L 4684 2906 
L 4684 2381 
L 678 2381 
L 678 2906 
z
M 678 1631 
L 4684 1631 
L 4684 1100 
L 678 1100 
L 678 1631 
z
" transform="scale(0.015625)"/>
       <path id="DejaVuSans-73" d="M 2834 3397 
L 2834 2853 
Q 2591 2978 2328 3040 
Q 2066 3103 1784 3103 
Q 1356 3103 1142 2972 
Q 928 2841 928 2578 
Q 928 2378 1081 2264 
Q 1234 2150 1697 2047 
L 1894 2003 
Q 2506 1872 2764 1633 
Q 3022 1394 3022 966 
Q 3022 478 2636 193 
Q 2250 -91 1575 -91 
Q 1294 -91 989 -36 
Q 684 19 347 128 
L 347 722 
Q 666 556 975 473 
Q 1284 391 1588 391 
Q 1994 391 2212 530 
Q 2431 669 2431 922 
Q 2431 1156 2273 1281 
Q 2116 1406 1581 1522 
L 1381 1569 
Q 847 1681 609 1914 
Q 372 2147 372 2553 
Q 372 3047 722 3315 
Q 1072 3584 1716 3584 
Q 2034 3584 2315 3537 
Q 2597 3491 2834 3397 
z
" transform="scale(0.015625)"/>
      </defs>
      <use xlink:href="#DejaVuSans-50"/>
      <use xlink:href="#DejaVuSans-72" x="58.552734"/>
      <use xlink:href="#DejaVuSans-65" x="97.416016"/>
      <use xlink:href="#DejaVuSans-64" x="158.939453"/>
      <use xlink:href="#DejaVuSans-6f" x="222.416016"/>
      <use xlink:href="#DejaVuSans-6d" x="283.597656"/>
      <use xlink:href="#DejaVuSans-69" x="381.009766"/>
      <use xlink:href="#DejaVuSans-6e" x="408.792969"/>
      <use xlink:href="#DejaVuSans-61" x="472.171875"/>
      <use xlink:href="#DejaVuSans-6e" x="533.451172"/>
      <use xlink:href="#DejaVuSans-74" x="596.830078"/>
      <use xlink:href="#DejaVuSans-20" x="636.039062"/>
      <use xlink:href="#DejaVuSans-54" x="667.826172"/>
      <use xlink:href="#DejaVuSans-69" x="725.785156"/>
      <use xlink:href="#DejaVuSans-6d" x="753.568359"/>
      <use xlink:href="#DejaVuSans-65" x="850.980469"/>
      <use xlink:href="#DejaVuSans-20" x="912.503906"/>
      <use xlink:href="#DejaVuSans-50" x="944.291016"/>
      <use xlink:href="#DejaVuSans-65" x="1000.96875"/>
      <use xlink:href="#DejaVuSans-72" x="1062.492188"/>
      <use xlink:href="#DejaVuSans-69" x="1103.605469"/>
      <use xlink:href="#DejaVuSans-6f" x="1131.388672"/>
      <use xlink:href="#DejaVuSans-64" x="1192.570312"/>
      <use xlink:href="#DejaVuSans-20" x="1256.046875"/>
      <use xlink:href="#DejaVuSans-3d" x="1287.833984"/>
      <use xlink:href="#DejaVuSans-20" x="1371.623047"/>
      <use xlink:href="#DejaVuSans-32" x="1403.410156"/>
      <use xlink:href="#DejaVuSans-2e" x="1467.033203"/>
      <use xlink:href="#DejaVuSans-36" x="1498.820312"/>
      <use xlink:href="#DejaVuSans-33" x="1562.443359"/>
      <use xlink:href="#DejaVuSans-73" x="1626.066406"/>
     </g>
    </g>
   </g>
  </g>
 </g>
 <defs>
  <clipPath id="pc752ffb630">
   <rect x="57.125" y="21.7575" width="1004.4" height="498.96"/>
  </clipPath>
 </defs>
</svg>
