<?xml version="1.0" encoding="utf-8" standalone="no"?>
<!DOCTYPE svg PUBLIC "-//W3C//DTD SVG 1.1//EN"
  "http://www.w3.org/Graphics/SVG/1.1/DTD/svg11.dtd">
<svg xmlns:xlink="http://www.w3.org/1999/xlink" width="1065.125pt" height="562.7875pt" viewBox="0 0 1065.125 562.7875" xmlns="http://www.w3.org/2000/svg" version="1.1">
 <metadata>
  <rdf:RDF xmlns:dc="http://purl.org/dc/elements/1.1/" xmlns:cc="http://creativecommons.org/ns#" xmlns:rdf="http://www.w3.org/1999/02/22-rdf-syntax-ns#">
   <cc:Work>
    <dc:type rdf:resource="http://purl.org/dc/dcmitype/StillImage"/>
    <dc:date>2023-05-16T14:36:37.795462</dc:date>
    <dc:format>image/svg+xml</dc:format>
    <dc:creator>
     <cc:Agent>
      <dc:title>Matplotlib v3.7.1, https://matplotlib.org/</dc:title>
     </cc:Agent>
    </dc:creator>
   </cc:Work>
  </rdf:RDF>
 </metadata>
 <defs>
  <style type="text/css">*{stroke-linejoin: round; stroke-linecap: butt}</style>
 </defs>
 <g id="figure_1">
  <g id="patch_1">
   <path d="M 0 562.7875 
L 1065.125 562.7875 
L 1065.125 0 
L 0 0 
z
" style="fill: #ffffff"/>
  </g>
  <g id="axes_1">
   <g id="patch_2">
    <path d="M 57.125 520.7175 
L 1061.525 520.7175 
L 1061.525 21.7575 
L 57.125 21.7575 
z
" style="fill: #ffffff"/>
   </g>
   <g id="matplotlib.axis_1">
    <g id="xtick_1">
     <g id="line2d_1">
      <path d="M 286.051258 520.7175 
L 286.051258 21.7575 
" clip-path="url(#p765ce45bc2)" style="fill: none; stroke-dasharray: 1.85,0.8; stroke-dashoffset: 0; stroke: #000000; stroke-opacity: 0.5; stroke-width: 0.5"/>
     </g>
     <g id="line2d_2">
      <defs>
       <path id="m301f808085" d="M 0 0 
L 0 -6 
" style="stroke: #000000"/>
      </defs>
      <g>
       <use xlink:href="#m301f808085" x="286.051258" y="520.7175" style="stroke: #000000"/>
      </g>
     </g>
     <g id="line2d_3">
      <defs>
       <path id="m9b12b41417" d="M 0 0 
L 0 6 
" style="stroke: #000000"/>
      </defs>
      <g>
       <use xlink:href="#m9b12b41417" x="286.051258" y="21.7575" style="stroke: #000000"/>
      </g>
     </g>
     <g id="text_1">
      <!-- $\mathdefault{10^{-1}}$ -->
      <g transform="translate(267.251258 536.375) scale(0.16 -0.16)">
       <defs>
        <path id="DejaVuSans-31" d="M 794 531 
L 1825 531 
L 1825 4091 
L 703 3866 
L 703 4441 
L 1819 4666 
L 2450 4666 
L 2450 531 
L 3481 531 
L 3481 0 
L 794 0 
L 794 531 
z
" transform="scale(0.015625)"/>
        <path id="DejaVuSans-30" d="M 2034 4250 
Q 1547 4250 1301 3770 
Q 1056 3291 1056 2328 
Q 1056 1369 1301 889 
Q 1547 409 2034 409 
Q 2525 409 2770 889 
Q 3016 1369 3016 2328 
Q 3016 3291 2770 3770 
Q 2525 4250 2034 4250 
z
M 2034 4750 
Q 2819 4750 3233 4129 
Q 3647 3509 3647 2328 
Q 3647 1150 3233 529 
Q 2819 -91 2034 -91 
Q 1250 -91 836 529 
Q 422 1150 422 2328 
Q 422 3509 836 4129 
Q 1250 4750 2034 4750 
z
" transform="scale(0.015625)"/>
        <path id="DejaVuSans-2212" d="M 678 2272 
L 4684 2272 
L 4684 1741 
L 678 1741 
L 678 2272 
z
" transform="scale(0.015625)"/>
       </defs>
       <use xlink:href="#DejaVuSans-31" transform="translate(0 0.684375)"/>
       <use xlink:href="#DejaVuSans-30" transform="translate(63.623047 0.684375)"/>
       <use xlink:href="#DejaVuSans-2212" transform="translate(128.203125 38.965625) scale(0.7)"/>
       <use xlink:href="#DejaVuSans-31" transform="translate(186.855469 38.965625) scale(0.7)"/>
      </g>
     </g>
    </g>
    <g id="xtick_2">
     <g id="line2d_4">
      <path d="M 590.458984 520.7175 
L 590.458984 21.7575 
" clip-path="url(#p765ce45bc2)" style="fill: none; stroke-dasharray: 1.85,0.8; stroke-dashoffset: 0; stroke: #000000; stroke-opacity: 0.5; stroke-width: 0.5"/>
     </g>
     <g id="line2d_5">
      <g>
       <use xlink:href="#m301f808085" x="590.458984" y="520.7175" style="stroke: #000000"/>
      </g>
     </g>
     <g id="line2d_6">
      <g>
       <use xlink:href="#m9b12b41417" x="590.458984" y="21.7575" style="stroke: #000000"/>
      </g>
     </g>
     <g id="text_2">
      <!-- $\mathdefault{10^{0}}$ -->
      <g transform="translate(576.378984 536.375) scale(0.16 -0.16)">
       <use xlink:href="#DejaVuSans-31" transform="translate(0 0.765625)"/>
       <use xlink:href="#DejaVuSans-30" transform="translate(63.623047 0.765625)"/>
       <use xlink:href="#DejaVuSans-30" transform="translate(128.203125 39.046875) scale(0.7)"/>
      </g>
     </g>
    </g>
    <g id="xtick_3">
     <g id="line2d_7">
      <path d="M 894.86671 520.7175 
L 894.86671 21.7575 
" clip-path="url(#p765ce45bc2)" style="fill: none; stroke-dasharray: 1.85,0.8; stroke-dashoffset: 0; stroke: #000000; stroke-opacity: 0.5; stroke-width: 0.5"/>
     </g>
     <g id="line2d_8">
      <g>
       <use xlink:href="#m301f808085" x="894.86671" y="520.7175" style="stroke: #000000"/>
      </g>
     </g>
     <g id="line2d_9">
      <g>
       <use xlink:href="#m9b12b41417" x="894.86671" y="21.7575" style="stroke: #000000"/>
      </g>
     </g>
     <g id="text_3">
      <!-- $\mathdefault{10^{1}}$ -->
      <g transform="translate(880.78671 536.375) scale(0.16 -0.16)">
       <use xlink:href="#DejaVuSans-31" transform="translate(0 0.684375)"/>
       <use xlink:href="#DejaVuSans-30" transform="translate(63.623047 0.684375)"/>
       <use xlink:href="#DejaVuSans-31" transform="translate(128.203125 38.965625) scale(0.7)"/>
      </g>
     </g>
    </g>
    <g id="xtick_4">
     <g id="line2d_10">
      <defs>
       <path id="m6c69dc431f" d="M 0 0 
L 0 -3 
" style="stroke: #000000"/>
      </defs>
      <g>
       <use xlink:href="#m6c69dc431f" x="73.279389" y="520.7175" style="stroke: #000000"/>
      </g>
     </g>
     <g id="line2d_11">
      <defs>
       <path id="m9a5e619c30" d="M 0 0 
L 0 3 
" style="stroke: #000000"/>
      </defs>
      <g>
       <use xlink:href="#m9a5e619c30" x="73.279389" y="21.7575" style="stroke: #000000"/>
      </g>
     </g>
    </g>
    <g id="xtick_5">
     <g id="line2d_12">
      <g>
       <use xlink:href="#m6c69dc431f" x="126.882929" y="520.7175" style="stroke: #000000"/>
      </g>
     </g>
     <g id="line2d_13">
      <g>
       <use xlink:href="#m9a5e619c30" x="126.882929" y="21.7575" style="stroke: #000000"/>
      </g>
     </g>
    </g>
    <g id="xtick_6">
     <g id="line2d_14">
      <g>
       <use xlink:href="#m6c69dc431f" x="164.915245" y="520.7175" style="stroke: #000000"/>
      </g>
     </g>
     <g id="line2d_15">
      <g>
       <use xlink:href="#m9a5e619c30" x="164.915245" y="21.7575" style="stroke: #000000"/>
      </g>
     </g>
    </g>
    <g id="xtick_7">
     <g id="line2d_16">
      <g>
       <use xlink:href="#m6c69dc431f" x="194.415402" y="520.7175" style="stroke: #000000"/>
      </g>
     </g>
     <g id="line2d_17">
      <g>
       <use xlink:href="#m9a5e619c30" x="194.415402" y="21.7575" style="stroke: #000000"/>
      </g>
     </g>
    </g>
    <g id="xtick_8">
     <g id="line2d_18">
      <g>
       <use xlink:href="#m6c69dc431f" x="218.518785" y="520.7175" style="stroke: #000000"/>
      </g>
     </g>
     <g id="line2d_19">
      <g>
       <use xlink:href="#m9a5e619c30" x="218.518785" y="21.7575" style="stroke: #000000"/>
      </g>
     </g>
    </g>
    <g id="xtick_9">
     <g id="line2d_20">
      <g>
       <use xlink:href="#m6c69dc431f" x="238.897905" y="520.7175" style="stroke: #000000"/>
      </g>
     </g>
     <g id="line2d_21">
      <g>
       <use xlink:href="#m9a5e619c30" x="238.897905" y="21.7575" style="stroke: #000000"/>
      </g>
     </g>
    </g>
    <g id="xtick_10">
     <g id="line2d_22">
      <g>
       <use xlink:href="#m6c69dc431f" x="256.551102" y="520.7175" style="stroke: #000000"/>
      </g>
     </g>
     <g id="line2d_23">
      <g>
       <use xlink:href="#m9a5e619c30" x="256.551102" y="21.7575" style="stroke: #000000"/>
      </g>
     </g>
    </g>
    <g id="xtick_11">
     <g id="line2d_24">
      <g>
       <use xlink:href="#m6c69dc431f" x="272.122325" y="520.7175" style="stroke: #000000"/>
      </g>
     </g>
     <g id="line2d_25">
      <g>
       <use xlink:href="#m9a5e619c30" x="272.122325" y="21.7575" style="stroke: #000000"/>
      </g>
     </g>
    </g>
    <g id="xtick_12">
     <g id="line2d_26">
      <g>
       <use xlink:href="#m6c69dc431f" x="377.687115" y="520.7175" style="stroke: #000000"/>
      </g>
     </g>
     <g id="line2d_27">
      <g>
       <use xlink:href="#m9a5e619c30" x="377.687115" y="21.7575" style="stroke: #000000"/>
      </g>
     </g>
    </g>
    <g id="xtick_13">
     <g id="line2d_28">
      <g>
       <use xlink:href="#m6c69dc431f" x="431.290654" y="520.7175" style="stroke: #000000"/>
      </g>
     </g>
     <g id="line2d_29">
      <g>
       <use xlink:href="#m9a5e619c30" x="431.290654" y="21.7575" style="stroke: #000000"/>
      </g>
     </g>
    </g>
    <g id="xtick_14">
     <g id="line2d_30">
      <g>
       <use xlink:href="#m6c69dc431f" x="469.322971" y="520.7175" style="stroke: #000000"/>
      </g>
     </g>
     <g id="line2d_31">
      <g>
       <use xlink:href="#m9a5e619c30" x="469.322971" y="21.7575" style="stroke: #000000"/>
      </g>
     </g>
    </g>
    <g id="xtick_15">
     <g id="line2d_32">
      <g>
       <use xlink:href="#m6c69dc431f" x="498.823128" y="520.7175" style="stroke: #000000"/>
      </g>
     </g>
     <g id="line2d_33">
      <g>
       <use xlink:href="#m9a5e619c30" x="498.823128" y="21.7575" style="stroke: #000000"/>
      </g>
     </g>
    </g>
    <g id="xtick_16">
     <g id="line2d_34">
      <g>
       <use xlink:href="#m6c69dc431f" x="522.926511" y="520.7175" style="stroke: #000000"/>
      </g>
     </g>
     <g id="line2d_35">
      <g>
       <use xlink:href="#m9a5e619c30" x="522.926511" y="21.7575" style="stroke: #000000"/>
      </g>
     </g>
    </g>
    <g id="xtick_17">
     <g id="line2d_36">
      <g>
       <use xlink:href="#m6c69dc431f" x="543.305631" y="520.7175" style="stroke: #000000"/>
      </g>
     </g>
     <g id="line2d_37">
      <g>
       <use xlink:href="#m9a5e619c30" x="543.305631" y="21.7575" style="stroke: #000000"/>
      </g>
     </g>
    </g>
    <g id="xtick_18">
     <g id="line2d_38">
      <g>
       <use xlink:href="#m6c69dc431f" x="560.958828" y="520.7175" style="stroke: #000000"/>
      </g>
     </g>
     <g id="line2d_39">
      <g>
       <use xlink:href="#m9a5e619c30" x="560.958828" y="21.7575" style="stroke: #000000"/>
      </g>
     </g>
    </g>
    <g id="xtick_19">
     <g id="line2d_40">
      <g>
       <use xlink:href="#m6c69dc431f" x="576.530051" y="520.7175" style="stroke: #000000"/>
      </g>
     </g>
     <g id="line2d_41">
      <g>
       <use xlink:href="#m9a5e619c30" x="576.530051" y="21.7575" style="stroke: #000000"/>
      </g>
     </g>
    </g>
    <g id="xtick_20">
     <g id="line2d_42">
      <g>
       <use xlink:href="#m6c69dc431f" x="682.094841" y="520.7175" style="stroke: #000000"/>
      </g>
     </g>
     <g id="line2d_43">
      <g>
       <use xlink:href="#m9a5e619c30" x="682.094841" y="21.7575" style="stroke: #000000"/>
      </g>
     </g>
    </g>
    <g id="xtick_21">
     <g id="line2d_44">
      <g>
       <use xlink:href="#m6c69dc431f" x="735.69838" y="520.7175" style="stroke: #000000"/>
      </g>
     </g>
     <g id="line2d_45">
      <g>
       <use xlink:href="#m9a5e619c30" x="735.69838" y="21.7575" style="stroke: #000000"/>
      </g>
     </g>
    </g>
    <g id="xtick_22">
     <g id="line2d_46">
      <g>
       <use xlink:href="#m6c69dc431f" x="773.730697" y="520.7175" style="stroke: #000000"/>
      </g>
     </g>
     <g id="line2d_47">
      <g>
       <use xlink:href="#m9a5e619c30" x="773.730697" y="21.7575" style="stroke: #000000"/>
      </g>
     </g>
    </g>
    <g id="xtick_23">
     <g id="line2d_48">
      <g>
       <use xlink:href="#m6c69dc431f" x="803.230854" y="520.7175" style="stroke: #000000"/>
      </g>
     </g>
     <g id="line2d_49">
      <g>
       <use xlink:href="#m9a5e619c30" x="803.230854" y="21.7575" style="stroke: #000000"/>
      </g>
     </g>
    </g>
    <g id="xtick_24">
     <g id="line2d_50">
      <g>
       <use xlink:href="#m6c69dc431f" x="827.334237" y="520.7175" style="stroke: #000000"/>
      </g>
     </g>
     <g id="line2d_51">
      <g>
       <use xlink:href="#m9a5e619c30" x="827.334237" y="21.7575" style="stroke: #000000"/>
      </g>
     </g>
    </g>
    <g id="xtick_25">
     <g id="line2d_52">
      <g>
       <use xlink:href="#m6c69dc431f" x="847.713357" y="520.7175" style="stroke: #000000"/>
      </g>
     </g>
     <g id="line2d_53">
      <g>
       <use xlink:href="#m9a5e619c30" x="847.713357" y="21.7575" style="stroke: #000000"/>
      </g>
     </g>
    </g>
    <g id="xtick_26">
     <g id="line2d_54">
      <g>
       <use xlink:href="#m6c69dc431f" x="865.366554" y="520.7175" style="stroke: #000000"/>
      </g>
     </g>
     <g id="line2d_55">
      <g>
       <use xlink:href="#m9a5e619c30" x="865.366554" y="21.7575" style="stroke: #000000"/>
      </g>
     </g>
    </g>
    <g id="xtick_27">
     <g id="line2d_56">
      <g>
       <use xlink:href="#m6c69dc431f" x="880.937777" y="520.7175" style="stroke: #000000"/>
      </g>
     </g>
     <g id="line2d_57">
      <g>
       <use xlink:href="#m9a5e619c30" x="880.937777" y="21.7575" style="stroke: #000000"/>
      </g>
     </g>
    </g>
    <g id="xtick_28">
     <g id="line2d_58">
      <g>
       <use xlink:href="#m6c69dc431f" x="986.502567" y="520.7175" style="stroke: #000000"/>
      </g>
     </g>
     <g id="line2d_59">
      <g>
       <use xlink:href="#m9a5e619c30" x="986.502567" y="21.7575" style="stroke: #000000"/>
      </g>
     </g>
    </g>
    <g id="xtick_29">
     <g id="line2d_60">
      <g>
       <use xlink:href="#m6c69dc431f" x="1040.106106" y="520.7175" style="stroke: #000000"/>
      </g>
     </g>
     <g id="line2d_61">
      <g>
       <use xlink:href="#m9a5e619c30" x="1040.106106" y="21.7575" style="stroke: #000000"/>
      </g>
     </g>
    </g>
    <g id="text_4">
     <!-- Frequency (Hz) -->
     <g transform="translate(498.9975 555.86) scale(0.16 -0.16)">
      <defs>
       <path id="DejaVuSans-46" d="M 628 4666 
L 3309 4666 
L 3309 4134 
L 1259 4134 
L 1259 2759 
L 3109 2759 
L 3109 2228 
L 1259 2228 
L 1259 0 
L 628 0 
L 628 4666 
z
" transform="scale(0.015625)"/>
       <path id="DejaVuSans-72" d="M 2631 2963 
Q 2534 3019 2420 3045 
Q 2306 3072 2169 3072 
Q 1681 3072 1420 2755 
Q 1159 2438 1159 1844 
L 1159 0 
L 581 0 
L 581 3500 
L 1159 3500 
L 1159 2956 
Q 1341 3275 1631 3429 
Q 1922 3584 2338 3584 
Q 2397 3584 2469 3576 
Q 2541 3569 2628 3553 
L 2631 2963 
z
" transform="scale(0.015625)"/>
       <path id="DejaVuSans-65" d="M 3597 1894 
L 3597 1613 
L 953 1613 
Q 991 1019 1311 708 
Q 1631 397 2203 397 
Q 2534 397 2845 478 
Q 3156 559 3463 722 
L 3463 178 
Q 3153 47 2828 -22 
Q 2503 -91 2169 -91 
Q 1331 -91 842 396 
Q 353 884 353 1716 
Q 353 2575 817 3079 
Q 1281 3584 2069 3584 
Q 2775 3584 3186 3129 
Q 3597 2675 3597 1894 
z
M 3022 2063 
Q 3016 2534 2758 2815 
Q 2500 3097 2075 3097 
Q 1594 3097 1305 2825 
Q 1016 2553 972 2059 
L 3022 2063 
z
" transform="scale(0.015625)"/>
       <path id="DejaVuSans-71" d="M 947 1747 
Q 947 1113 1208 752 
Q 1469 391 1925 391 
Q 2381 391 2643 752 
Q 2906 1113 2906 1747 
Q 2906 2381 2643 2742 
Q 2381 3103 1925 3103 
Q 1469 3103 1208 2742 
Q 947 2381 947 1747 
z
M 2906 525 
Q 2725 213 2448 61 
Q 2172 -91 1784 -91 
Q 1150 -91 751 415 
Q 353 922 353 1747 
Q 353 2572 751 3078 
Q 1150 3584 1784 3584 
Q 2172 3584 2448 3432 
Q 2725 3281 2906 2969 
L 2906 3500 
L 3481 3500 
L 3481 -1331 
L 2906 -1331 
L 2906 525 
z
" transform="scale(0.015625)"/>
       <path id="DejaVuSans-75" d="M 544 1381 
L 544 3500 
L 1119 3500 
L 1119 1403 
Q 1119 906 1312 657 
Q 1506 409 1894 409 
Q 2359 409 2629 706 
Q 2900 1003 2900 1516 
L 2900 3500 
L 3475 3500 
L 3475 0 
L 2900 0 
L 2900 538 
Q 2691 219 2414 64 
Q 2138 -91 1772 -91 
Q 1169 -91 856 284 
Q 544 659 544 1381 
z
M 1991 3584 
L 1991 3584 
z
" transform="scale(0.015625)"/>
       <path id="DejaVuSans-6e" d="M 3513 2113 
L 3513 0 
L 2938 0 
L 2938 2094 
Q 2938 2591 2744 2837 
Q 2550 3084 2163 3084 
Q 1697 3084 1428 2787 
Q 1159 2491 1159 1978 
L 1159 0 
L 581 0 
L 581 3500 
L 1159 3500 
L 1159 2956 
Q 1366 3272 1645 3428 
Q 1925 3584 2291 3584 
Q 2894 3584 3203 3211 
Q 3513 2838 3513 2113 
z
" transform="scale(0.015625)"/>
       <path id="DejaVuSans-63" d="M 3122 3366 
L 3122 2828 
Q 2878 2963 2633 3030 
Q 2388 3097 2138 3097 
Q 1578 3097 1268 2742 
Q 959 2388 959 1747 
Q 959 1106 1268 751 
Q 1578 397 2138 397 
Q 2388 397 2633 464 
Q 2878 531 3122 666 
L 3122 134 
Q 2881 22 2623 -34 
Q 2366 -91 2075 -91 
Q 1284 -91 818 406 
Q 353 903 353 1747 
Q 353 2603 823 3093 
Q 1294 3584 2113 3584 
Q 2378 3584 2631 3529 
Q 2884 3475 3122 3366 
z
" transform="scale(0.015625)"/>
       <path id="DejaVuSans-79" d="M 2059 -325 
Q 1816 -950 1584 -1140 
Q 1353 -1331 966 -1331 
L 506 -1331 
L 506 -850 
L 844 -850 
Q 1081 -850 1212 -737 
Q 1344 -625 1503 -206 
L 1606 56 
L 191 3500 
L 800 3500 
L 1894 763 
L 2988 3500 
L 3597 3500 
L 2059 -325 
z
" transform="scale(0.015625)"/>
       <path id="DejaVuSans-20" transform="scale(0.015625)"/>
       <path id="DejaVuSans-28" d="M 1984 4856 
Q 1566 4138 1362 3434 
Q 1159 2731 1159 2009 
Q 1159 1288 1364 580 
Q 1569 -128 1984 -844 
L 1484 -844 
Q 1016 -109 783 600 
Q 550 1309 550 2009 
Q 550 2706 781 3412 
Q 1013 4119 1484 4856 
L 1984 4856 
z
" transform="scale(0.015625)"/>
       <path id="DejaVuSans-48" d="M 628 4666 
L 1259 4666 
L 1259 2753 
L 3553 2753 
L 3553 4666 
L 4184 4666 
L 4184 0 
L 3553 0 
L 3553 2222 
L 1259 2222 
L 1259 0 
L 628 0 
L 628 4666 
z
" transform="scale(0.015625)"/>
       <path id="DejaVuSans-7a" d="M 353 3500 
L 3084 3500 
L 3084 2975 
L 922 459 
L 3084 459 
L 3084 0 
L 275 0 
L 275 525 
L 2438 3041 
L 353 3041 
L 353 3500 
z
" transform="scale(0.015625)"/>
       <path id="DejaVuSans-29" d="M 513 4856 
L 1013 4856 
Q 1481 4119 1714 3412 
Q 1947 2706 1947 2009 
Q 1947 1309 1714 600 
Q 1481 -109 1013 -844 
L 513 -844 
Q 928 -128 1133 580 
Q 1338 1288 1338 2009 
Q 1338 2731 1133 3434 
Q 928 4138 513 4856 
z
" transform="scale(0.015625)"/>
      </defs>
      <use xlink:href="#DejaVuSans-46"/>
      <use xlink:href="#DejaVuSans-72" x="50.269531"/>
      <use xlink:href="#DejaVuSans-65" x="89.132812"/>
      <use xlink:href="#DejaVuSans-71" x="150.65625"/>
      <use xlink:href="#DejaVuSans-75" x="214.132812"/>
      <use xlink:href="#DejaVuSans-65" x="277.511719"/>
      <use xlink:href="#DejaVuSans-6e" x="339.035156"/>
      <use xlink:href="#DejaVuSans-63" x="402.414062"/>
      <use xlink:href="#DejaVuSans-79" x="457.394531"/>
      <use xlink:href="#DejaVuSans-20" x="516.574219"/>
      <use xlink:href="#DejaVuSans-28" x="548.361328"/>
      <use xlink:href="#DejaVuSans-48" x="587.375"/>
      <use xlink:href="#DejaVuSans-7a" x="662.570312"/>
      <use xlink:href="#DejaVuSans-29" x="715.060547"/>
     </g>
    </g>
   </g>
   <g id="matplotlib.axis_2">
    <g id="ytick_1">
     <g id="line2d_62">
      <path d="M 57.125 498.109576 
L 1061.525 498.109576 
" clip-path="url(#p765ce45bc2)" style="fill: none; stroke-dasharray: 1.85,0.8; stroke-dashoffset: 0; stroke: #000000; stroke-opacity: 0.5; stroke-width: 0.5"/>
     </g>
     <g id="line2d_63">
      <defs>
       <path id="mdebe1fcf8e" d="M 0 0 
L 6 0 
" style="stroke: #000000"/>
      </defs>
      <g>
       <use xlink:href="#mdebe1fcf8e" x="57.125" y="498.109576" style="stroke: #000000"/>
      </g>
     </g>
     <g id="line2d_64">
      <defs>
       <path id="m814722ab8a" d="M 0 0 
L -6 0 
" style="stroke: #000000"/>
      </defs>
      <g>
       <use xlink:href="#m814722ab8a" x="1061.525" y="498.109576" style="stroke: #000000"/>
      </g>
     </g>
     <g id="text_5">
      <!-- 0 -->
      <g transform="translate(43.445 504.188326) scale(0.16 -0.16)">
       <use xlink:href="#DejaVuSans-30"/>
      </g>
     </g>
    </g>
    <g id="ytick_2">
     <g id="line2d_65">
      <path d="M 57.125 405.586347 
L 1061.525 405.586347 
" clip-path="url(#p765ce45bc2)" style="fill: none; stroke-dasharray: 1.85,0.8; stroke-dashoffset: 0; stroke: #000000; stroke-opacity: 0.5; stroke-width: 0.5"/>
     </g>
     <g id="line2d_66">
      <g>
       <use xlink:href="#mdebe1fcf8e" x="57.125" y="405.586347" style="stroke: #000000"/>
      </g>
     </g>
     <g id="line2d_67">
      <g>
       <use xlink:href="#m814722ab8a" x="1061.525" y="405.586347" style="stroke: #000000"/>
      </g>
     </g>
     <g id="text_6">
      <!-- 50 -->
      <g transform="translate(33.265 411.665097) scale(0.16 -0.16)">
       <defs>
        <path id="DejaVuSans-35" d="M 691 4666 
L 3169 4666 
L 3169 4134 
L 1269 4134 
L 1269 2991 
Q 1406 3038 1543 3061 
Q 1681 3084 1819 3084 
Q 2600 3084 3056 2656 
Q 3513 2228 3513 1497 
Q 3513 744 3044 326 
Q 2575 -91 1722 -91 
Q 1428 -91 1123 -41 
Q 819 9 494 109 
L 494 744 
Q 775 591 1075 516 
Q 1375 441 1709 441 
Q 2250 441 2565 725 
Q 2881 1009 2881 1497 
Q 2881 1984 2565 2268 
Q 2250 2553 1709 2553 
Q 1456 2553 1204 2497 
Q 953 2441 691 2322 
L 691 4666 
z
" transform="scale(0.015625)"/>
       </defs>
       <use xlink:href="#DejaVuSans-35"/>
       <use xlink:href="#DejaVuSans-30" x="63.623047"/>
      </g>
     </g>
    </g>
    <g id="ytick_3">
     <g id="line2d_68">
      <path d="M 57.125 313.063118 
L 1061.525 313.063118 
" clip-path="url(#p765ce45bc2)" style="fill: none; stroke-dasharray: 1.85,0.8; stroke-dashoffset: 0; stroke: #000000; stroke-opacity: 0.5; stroke-width: 0.5"/>
     </g>
     <g id="line2d_69">
      <g>
       <use xlink:href="#mdebe1fcf8e" x="57.125" y="313.063118" style="stroke: #000000"/>
      </g>
     </g>
     <g id="line2d_70">
      <g>
       <use xlink:href="#m814722ab8a" x="1061.525" y="313.063118" style="stroke: #000000"/>
      </g>
     </g>
     <g id="text_7">
      <!-- 100 -->
      <g transform="translate(23.085 319.141868) scale(0.16 -0.16)">
       <use xlink:href="#DejaVuSans-31"/>
       <use xlink:href="#DejaVuSans-30" x="63.623047"/>
       <use xlink:href="#DejaVuSans-30" x="127.246094"/>
      </g>
     </g>
    </g>
    <g id="ytick_4">
     <g id="line2d_71">
      <path d="M 57.125 220.53989 
L 1061.525 220.53989 
" clip-path="url(#p765ce45bc2)" style="fill: none; stroke-dasharray: 1.85,0.8; stroke-dashoffset: 0; stroke: #000000; stroke-opacity: 0.5; stroke-width: 0.5"/>
     </g>
     <g id="line2d_72">
      <g>
       <use xlink:href="#mdebe1fcf8e" x="57.125" y="220.53989" style="stroke: #000000"/>
      </g>
     </g>
     <g id="line2d_73">
      <g>
       <use xlink:href="#m814722ab8a" x="1061.525" y="220.53989" style="stroke: #000000"/>
      </g>
     </g>
     <g id="text_8">
      <!-- 150 -->
      <g transform="translate(23.085 226.61864) scale(0.16 -0.16)">
       <use xlink:href="#DejaVuSans-31"/>
       <use xlink:href="#DejaVuSans-35" x="63.623047"/>
       <use xlink:href="#DejaVuSans-30" x="127.246094"/>
      </g>
     </g>
    </g>
    <g id="ytick_5">
     <g id="line2d_74">
      <path d="M 57.125 128.016661 
L 1061.525 128.016661 
" clip-path="url(#p765ce45bc2)" style="fill: none; stroke-dasharray: 1.85,0.8; stroke-dashoffset: 0; stroke: #000000; stroke-opacity: 0.5; stroke-width: 0.5"/>
     </g>
     <g id="line2d_75">
      <g>
       <use xlink:href="#mdebe1fcf8e" x="57.125" y="128.016661" style="stroke: #000000"/>
      </g>
     </g>
     <g id="line2d_76">
      <g>
       <use xlink:href="#m814722ab8a" x="1061.525" y="128.016661" style="stroke: #000000"/>
      </g>
     </g>
     <g id="text_9">
      <!-- 200 -->
      <g transform="translate(23.085 134.095411) scale(0.16 -0.16)">
       <defs>
        <path id="DejaVuSans-32" d="M 1228 531 
L 3431 531 
L 3431 0 
L 469 0 
L 469 531 
Q 828 903 1448 1529 
Q 2069 2156 2228 2338 
Q 2531 2678 2651 2914 
Q 2772 3150 2772 3378 
Q 2772 3750 2511 3984 
Q 2250 4219 1831 4219 
Q 1534 4219 1204 4116 
Q 875 4013 500 3803 
L 500 4441 
Q 881 4594 1212 4672 
Q 1544 4750 1819 4750 
Q 2544 4750 2975 4387 
Q 3406 4025 3406 3419 
Q 3406 3131 3298 2873 
Q 3191 2616 2906 2266 
Q 2828 2175 2409 1742 
Q 1991 1309 1228 531 
z
" transform="scale(0.015625)"/>
       </defs>
       <use xlink:href="#DejaVuSans-32"/>
       <use xlink:href="#DejaVuSans-30" x="63.623047"/>
       <use xlink:href="#DejaVuSans-30" x="127.246094"/>
      </g>
     </g>
    </g>
    <g id="ytick_6">
     <g id="line2d_77">
      <path d="M 57.125 35.493433 
L 1061.525 35.493433 
" clip-path="url(#p765ce45bc2)" style="fill: none; stroke-dasharray: 1.85,0.8; stroke-dashoffset: 0; stroke: #000000; stroke-opacity: 0.5; stroke-width: 0.5"/>
     </g>
     <g id="line2d_78">
      <g>
       <use xlink:href="#mdebe1fcf8e" x="57.125" y="35.493433" style="stroke: #000000"/>
      </g>
     </g>
     <g id="line2d_79">
      <g>
       <use xlink:href="#m814722ab8a" x="1061.525" y="35.493433" style="stroke: #000000"/>
      </g>
     </g>
     <g id="text_10">
      <!-- 250 -->
      <g transform="translate(23.085 41.572183) scale(0.16 -0.16)">
       <use xlink:href="#DejaVuSans-32"/>
       <use xlink:href="#DejaVuSans-35" x="63.623047"/>
       <use xlink:href="#DejaVuSans-30" x="127.246094"/>
      </g>
     </g>
    </g>
    <g id="ytick_7">
     <g id="line2d_80">
      <defs>
       <path id="m3d73bce28c" d="M 0 0 
L 3 0 
" style="stroke: #000000"/>
      </defs>
      <g>
       <use xlink:href="#m3d73bce28c" x="57.125" y="516.614221" style="stroke: #000000"/>
      </g>
     </g>
     <g id="line2d_81">
      <defs>
       <path id="m27ed40c1c1" d="M 0 0 
L -3 0 
" style="stroke: #000000"/>
      </defs>
      <g>
       <use xlink:href="#m27ed40c1c1" x="1061.525" y="516.614221" style="stroke: #000000"/>
      </g>
     </g>
    </g>
    <g id="ytick_8">
     <g id="line2d_82">
      <g>
       <use xlink:href="#m3d73bce28c" x="57.125" y="479.60493" style="stroke: #000000"/>
      </g>
     </g>
     <g id="line2d_83">
      <g>
       <use xlink:href="#m27ed40c1c1" x="1061.525" y="479.60493" style="stroke: #000000"/>
      </g>
     </g>
    </g>
    <g id="ytick_9">
     <g id="line2d_84">
      <g>
       <use xlink:href="#m3d73bce28c" x="57.125" y="461.100284" style="stroke: #000000"/>
      </g>
     </g>
     <g id="line2d_85">
      <g>
       <use xlink:href="#m27ed40c1c1" x="1061.525" y="461.100284" style="stroke: #000000"/>
      </g>
     </g>
    </g>
    <g id="ytick_10">
     <g id="line2d_86">
      <g>
       <use xlink:href="#m3d73bce28c" x="57.125" y="442.595639" style="stroke: #000000"/>
      </g>
     </g>
     <g id="line2d_87">
      <g>
       <use xlink:href="#m27ed40c1c1" x="1061.525" y="442.595639" style="stroke: #000000"/>
      </g>
     </g>
    </g>
    <g id="ytick_11">
     <g id="line2d_88">
      <g>
       <use xlink:href="#m3d73bce28c" x="57.125" y="424.090993" style="stroke: #000000"/>
      </g>
     </g>
     <g id="line2d_89">
      <g>
       <use xlink:href="#m27ed40c1c1" x="1061.525" y="424.090993" style="stroke: #000000"/>
      </g>
     </g>
    </g>
    <g id="ytick_12">
     <g id="line2d_90">
      <g>
       <use xlink:href="#m3d73bce28c" x="57.125" y="387.081701" style="stroke: #000000"/>
      </g>
     </g>
     <g id="line2d_91">
      <g>
       <use xlink:href="#m27ed40c1c1" x="1061.525" y="387.081701" style="stroke: #000000"/>
      </g>
     </g>
    </g>
    <g id="ytick_13">
     <g id="line2d_92">
      <g>
       <use xlink:href="#m3d73bce28c" x="57.125" y="368.577056" style="stroke: #000000"/>
      </g>
     </g>
     <g id="line2d_93">
      <g>
       <use xlink:href="#m27ed40c1c1" x="1061.525" y="368.577056" style="stroke: #000000"/>
      </g>
     </g>
    </g>
    <g id="ytick_14">
     <g id="line2d_94">
      <g>
       <use xlink:href="#m3d73bce28c" x="57.125" y="350.07241" style="stroke: #000000"/>
      </g>
     </g>
     <g id="line2d_95">
      <g>
       <use xlink:href="#m27ed40c1c1" x="1061.525" y="350.07241" style="stroke: #000000"/>
      </g>
     </g>
    </g>
    <g id="ytick_15">
     <g id="line2d_96">
      <g>
       <use xlink:href="#m3d73bce28c" x="57.125" y="331.567764" style="stroke: #000000"/>
      </g>
     </g>
     <g id="line2d_97">
      <g>
       <use xlink:href="#m27ed40c1c1" x="1061.525" y="331.567764" style="stroke: #000000"/>
      </g>
     </g>
    </g>
    <g id="ytick_16">
     <g id="line2d_98">
      <g>
       <use xlink:href="#m3d73bce28c" x="57.125" y="294.558473" style="stroke: #000000"/>
      </g>
     </g>
     <g id="line2d_99">
      <g>
       <use xlink:href="#m27ed40c1c1" x="1061.525" y="294.558473" style="stroke: #000000"/>
      </g>
     </g>
    </g>
    <g id="ytick_17">
     <g id="line2d_100">
      <g>
       <use xlink:href="#m3d73bce28c" x="57.125" y="276.053827" style="stroke: #000000"/>
      </g>
     </g>
     <g id="line2d_101">
      <g>
       <use xlink:href="#m27ed40c1c1" x="1061.525" y="276.053827" style="stroke: #000000"/>
      </g>
     </g>
    </g>
    <g id="ytick_18">
     <g id="line2d_102">
      <g>
       <use xlink:href="#m3d73bce28c" x="57.125" y="257.549181" style="stroke: #000000"/>
      </g>
     </g>
     <g id="line2d_103">
      <g>
       <use xlink:href="#m27ed40c1c1" x="1061.525" y="257.549181" style="stroke: #000000"/>
      </g>
     </g>
    </g>
    <g id="ytick_19">
     <g id="line2d_104">
      <g>
       <use xlink:href="#m3d73bce28c" x="57.125" y="239.044536" style="stroke: #000000"/>
      </g>
     </g>
     <g id="line2d_105">
      <g>
       <use xlink:href="#m27ed40c1c1" x="1061.525" y="239.044536" style="stroke: #000000"/>
      </g>
     </g>
    </g>
    <g id="ytick_20">
     <g id="line2d_106">
      <g>
       <use xlink:href="#m3d73bce28c" x="57.125" y="202.035244" style="stroke: #000000"/>
      </g>
     </g>
     <g id="line2d_107">
      <g>
       <use xlink:href="#m27ed40c1c1" x="1061.525" y="202.035244" style="stroke: #000000"/>
      </g>
     </g>
    </g>
    <g id="ytick_21">
     <g id="line2d_108">
      <g>
       <use xlink:href="#m3d73bce28c" x="57.125" y="183.530598" style="stroke: #000000"/>
      </g>
     </g>
     <g id="line2d_109">
      <g>
       <use xlink:href="#m27ed40c1c1" x="1061.525" y="183.530598" style="stroke: #000000"/>
      </g>
     </g>
    </g>
    <g id="ytick_22">
     <g id="line2d_110">
      <g>
       <use xlink:href="#m3d73bce28c" x="57.125" y="165.025953" style="stroke: #000000"/>
      </g>
     </g>
     <g id="line2d_111">
      <g>
       <use xlink:href="#m27ed40c1c1" x="1061.525" y="165.025953" style="stroke: #000000"/>
      </g>
     </g>
    </g>
    <g id="ytick_23">
     <g id="line2d_112">
      <g>
       <use xlink:href="#m3d73bce28c" x="57.125" y="146.521307" style="stroke: #000000"/>
      </g>
     </g>
     <g id="line2d_113">
      <g>
       <use xlink:href="#m27ed40c1c1" x="1061.525" y="146.521307" style="stroke: #000000"/>
      </g>
     </g>
    </g>
    <g id="ytick_24">
     <g id="line2d_114">
      <g>
       <use xlink:href="#m3d73bce28c" x="57.125" y="109.512016" style="stroke: #000000"/>
      </g>
     </g>
     <g id="line2d_115">
      <g>
       <use xlink:href="#m27ed40c1c1" x="1061.525" y="109.512016" style="stroke: #000000"/>
      </g>
     </g>
    </g>
    <g id="ytick_25">
     <g id="line2d_116">
      <g>
       <use xlink:href="#m3d73bce28c" x="57.125" y="91.00737" style="stroke: #000000"/>
      </g>
     </g>
     <g id="line2d_117">
      <g>
       <use xlink:href="#m27ed40c1c1" x="1061.525" y="91.00737" style="stroke: #000000"/>
      </g>
     </g>
    </g>
    <g id="ytick_26">
     <g id="line2d_118">
      <g>
       <use xlink:href="#m3d73bce28c" x="57.125" y="72.502724" style="stroke: #000000"/>
      </g>
     </g>
     <g id="line2d_119">
      <g>
       <use xlink:href="#m27ed40c1c1" x="1061.525" y="72.502724" style="stroke: #000000"/>
      </g>
     </g>
    </g>
    <g id="ytick_27">
     <g id="line2d_120">
      <g>
       <use xlink:href="#m3d73bce28c" x="57.125" y="53.998078" style="stroke: #000000"/>
      </g>
     </g>
     <g id="line2d_121">
      <g>
       <use xlink:href="#m27ed40c1c1" x="1061.525" y="53.998078" style="stroke: #000000"/>
      </g>
     </g>
    </g>
    <g id="text_11">
     <!-- Frequency Amplitude -->
     <g transform="translate(15.7575 356.10375) rotate(-90) scale(0.16 -0.16)">
      <defs>
       <path id="DejaVuSans-41" d="M 2188 4044 
L 1331 1722 
L 3047 1722 
L 2188 4044 
z
M 1831 4666 
L 2547 4666 
L 4325 0 
L 3669 0 
L 3244 1197 
L 1141 1197 
L 716 0 
L 50 0 
L 1831 4666 
z
" transform="scale(0.015625)"/>
       <path id="DejaVuSans-6d" d="M 3328 2828 
Q 3544 3216 3844 3400 
Q 4144 3584 4550 3584 
Q 5097 3584 5394 3201 
Q 5691 2819 5691 2113 
L 5691 0 
L 5113 0 
L 5113 2094 
Q 5113 2597 4934 2840 
Q 4756 3084 4391 3084 
Q 3944 3084 3684 2787 
Q 3425 2491 3425 1978 
L 3425 0 
L 2847 0 
L 2847 2094 
Q 2847 2600 2669 2842 
Q 2491 3084 2119 3084 
Q 1678 3084 1418 2786 
Q 1159 2488 1159 1978 
L 1159 0 
L 581 0 
L 581 3500 
L 1159 3500 
L 1159 2956 
Q 1356 3278 1631 3431 
Q 1906 3584 2284 3584 
Q 2666 3584 2933 3390 
Q 3200 3197 3328 2828 
z
" transform="scale(0.015625)"/>
       <path id="DejaVuSans-70" d="M 1159 525 
L 1159 -1331 
L 581 -1331 
L 581 3500 
L 1159 3500 
L 1159 2969 
Q 1341 3281 1617 3432 
Q 1894 3584 2278 3584 
Q 2916 3584 3314 3078 
Q 3713 2572 3713 1747 
Q 3713 922 3314 415 
Q 2916 -91 2278 -91 
Q 1894 -91 1617 61 
Q 1341 213 1159 525 
z
M 3116 1747 
Q 3116 2381 2855 2742 
Q 2594 3103 2138 3103 
Q 1681 3103 1420 2742 
Q 1159 2381 1159 1747 
Q 1159 1113 1420 752 
Q 1681 391 2138 391 
Q 2594 391 2855 752 
Q 3116 1113 3116 1747 
z
" transform="scale(0.015625)"/>
       <path id="DejaVuSans-6c" d="M 603 4863 
L 1178 4863 
L 1178 0 
L 603 0 
L 603 4863 
z
" transform="scale(0.015625)"/>
       <path id="DejaVuSans-69" d="M 603 3500 
L 1178 3500 
L 1178 0 
L 603 0 
L 603 3500 
z
M 603 4863 
L 1178 4863 
L 1178 4134 
L 603 4134 
L 603 4863 
z
" transform="scale(0.015625)"/>
       <path id="DejaVuSans-74" d="M 1172 4494 
L 1172 3500 
L 2356 3500 
L 2356 3053 
L 1172 3053 
L 1172 1153 
Q 1172 725 1289 603 
Q 1406 481 1766 481 
L 2356 481 
L 2356 0 
L 1766 0 
Q 1100 0 847 248 
Q 594 497 594 1153 
L 594 3053 
L 172 3053 
L 172 3500 
L 594 3500 
L 594 4494 
L 1172 4494 
z
" transform="scale(0.015625)"/>
       <path id="DejaVuSans-64" d="M 2906 2969 
L 2906 4863 
L 3481 4863 
L 3481 0 
L 2906 0 
L 2906 525 
Q 2725 213 2448 61 
Q 2172 -91 1784 -91 
Q 1150 -91 751 415 
Q 353 922 353 1747 
Q 353 2572 751 3078 
Q 1150 3584 1784 3584 
Q 2172 3584 2448 3432 
Q 2725 3281 2906 2969 
z
M 947 1747 
Q 947 1113 1208 752 
Q 1469 391 1925 391 
Q 2381 391 2643 752 
Q 2906 1113 2906 1747 
Q 2906 2381 2643 2742 
Q 2381 3103 1925 3103 
Q 1469 3103 1208 2742 
Q 947 2381 947 1747 
z
" transform="scale(0.015625)"/>
      </defs>
      <use xlink:href="#DejaVuSans-46"/>
      <use xlink:href="#DejaVuSans-72" x="50.269531"/>
      <use xlink:href="#DejaVuSans-65" x="89.132812"/>
      <use xlink:href="#DejaVuSans-71" x="150.65625"/>
      <use xlink:href="#DejaVuSans-75" x="214.132812"/>
      <use xlink:href="#DejaVuSans-65" x="277.511719"/>
      <use xlink:href="#DejaVuSans-6e" x="339.035156"/>
      <use xlink:href="#DejaVuSans-63" x="402.414062"/>
      <use xlink:href="#DejaVuSans-79" x="457.394531"/>
      <use xlink:href="#DejaVuSans-20" x="516.574219"/>
      <use xlink:href="#DejaVuSans-41" x="548.361328"/>
      <use xlink:href="#DejaVuSans-6d" x="616.769531"/>
      <use xlink:href="#DejaVuSans-70" x="714.181641"/>
      <use xlink:href="#DejaVuSans-6c" x="777.658203"/>
      <use xlink:href="#DejaVuSans-69" x="805.441406"/>
      <use xlink:href="#DejaVuSans-74" x="833.224609"/>
      <use xlink:href="#DejaVuSans-75" x="872.433594"/>
      <use xlink:href="#DejaVuSans-64" x="935.8125"/>
      <use xlink:href="#DejaVuSans-65" x="999.289062"/>
     </g>
    </g>
   </g>
   <g id="line2d_122">
    <path d="M -1 498.037498 
L 194.415402 498.030406 
L 248.018942 497.46564 
L 286.051258 496.927997 
L 315.551415 497.594905 
L 360.033918 495.384312 
L 377.687115 491.643779 
L 393.258338 479.731097 
L 407.187271 471.01521 
L 419.787525 473.752803 
L 431.290654 470.517426 
L 441.872508 473.228898 
L 451.669774 480.294536 
L 460.790811 478.162447 
L 469.322971 477.650338 
L 477.337704 478.768557 
L 484.894194 483.869701 
L 492.042021 488.218614 
L 498.823128 491.779415 
L 505.273314 494.210375 
L 511.423381 488.365157 
L 517.300019 488.044624 
L 522.926511 466.212054 
L 528.323285 458.454844 
L 533.508365 450.736674 
L 538.497734 425.813174 
L 547.944794 440.826371 
L 552.426668 443.354246 
L 556.761567 430.599751 
L 560.958828 420.013078 
L 565.026921 419.892476 
L 568.97356 420.367869 
L 572.805788 384.19175 
L 576.530051 370.290454 
L 580.152266 351.293833 
L 583.677878 342.450011 
L 587.111904 358.281227 
L 590.458984 370.433053 
L 593.723412 393.746365 
L 596.909171 427.958884 
L 600.019963 454.010339 
L 603.059237 458.542228 
L 606.030207 425.41623 
L 608.935876 399.085499 
L 611.779052 358.767825 
L 614.562367 311.008275 
L 617.288291 308.43229 
L 619.959141 309.735991 
L 622.5771 340.487371 
L 625.144221 360.71622 
L 630.13359 479.550583 
L 632.559394 441.653979 
L 634.941487 379.032292 
L 637.281417 320.451219 
L 639.580651 276.575902 
L 641.840579 263.497228 
L 644.062524 238.002248 
L 646.247741 221.289441 
L 648.397424 236.804953 
L 650.51271 270.065728 
L 654.644378 309.693415 
L 656.662777 367.598337 
L 658.650824 431.948035 
L 660.609416 428.639054 
L 662.539416 365.71536 
L 664.441644 312.321768 
L 666.31689 267.229441 
L 668.165907 266.747002 
L 669.98942 286.143742 
L 671.788123 319.669955 
L 673.562681 364.650766 
L 675.313734 397.483879 
L 677.041897 365.214949 
L 678.747761 323.00632 
L 680.431893 308.138409 
L 682.094841 269.146235 
L 683.73713 260.479552 
L 685.359268 273.493364 
L 686.961743 316.598284 
L 688.545027 294.719463 
L 690.109573 247.219105 
L 691.65582 190.490991 
L 693.184191 158.582394 
L 694.695094 167.986694 
L 696.188924 182.570206 
L 697.666064 205.84228 
L 699.126881 252.852182 
L 702.000963 403.70604 
L 703.414908 388.400267 
L 704.813891 339.199729 
L 706.198224 315.898603 
L 707.568211 283.024946 
L 708.924147 262.28283 
L 710.266317 235.507898 
L 711.594997 221.667599 
L 712.910457 221.149006 
L 714.212956 258.927751 
L 715.502748 232.088885 
L 716.780077 238.115793 
L 718.045184 269.056429 
L 719.298298 286.710107 
L 720.539646 287.118561 
L 721.769447 286.789298 
L 722.987912 263.569761 
L 724.195251 235.94111 
L 725.391662 214.929862 
L 726.577344 210.291504 
L 727.752486 267.645159 
L 728.917274 295.898925 
L 730.071889 375.915017 
L 731.216507 444.350488 
L 733.476436 343.302443 
L 734.592076 347.273871 
L 735.69838 304.795927 
L 736.795504 308.362798 
L 737.883597 293.703437 
L 738.962808 272.712894 
L 740.03328 223.222504 
L 741.095154 205.036779 
L 742.148567 240.186209 
L 743.193652 321.538886 
L 744.23054 285.119946 
L 745.25936 261.114954 
L 746.280234 228.739789 
L 747.293286 236.495144 
L 748.298634 178.346003 
L 750.28668 44.4375 
L 751.269603 66.504114 
L 752.245273 135.799382 
L 753.213794 232.184628 
L 754.175272 305.94625 
L 755.129807 412.153089 
L 756.0775 400.411437 
L 757.952746 162.25629 
L 758.880487 149.194087 
L 760.716664 280.648381 
L 761.625276 407.289006 
L 762.527687 431.518701 
L 763.423979 468.286405 
L 764.314235 404.177553 
L 765.198537 378.710857 
L 766.076963 404.244364 
L 766.94959 403.485894 
L 767.816496 318.289691 
L 768.677754 308.354999 
L 769.533437 341.831497 
L 770.383617 444.522149 
L 771.228365 430.995075 
L 772.067749 455.725233 
L 772.901838 445.011473 
L 773.730697 413.835908 
L 774.554392 364.313323 
L 775.372986 334.51171 
L 776.186543 228.344783 
L 776.995125 219.891821 
L 777.79879 250.845817 
L 778.5976 319.104399 
L 779.391612 340.166941 
L 780.965471 279.975589 
L 781.745429 298.63664 
L 782.520813 385.743312 
L 783.291676 388.779817 
L 784.05807 398.831182 
L 784.820047 377.953445 
L 785.577657 311.969595 
L 786.33095 259.681303 
L 787.079975 233.242442 
L 787.824781 295.414689 
L 789.30192 401.390876 
L 790.034346 353.874795 
L 790.762737 296.806279 
L 791.487137 200.332805 
L 792.207589 166.402817 
L 792.924136 167.046051 
L 793.63682 191.841707 
L 794.345683 235.939462 
L 795.050765 324.159847 
L 795.752106 387.221234 
L 796.449747 411.749887 
L 797.143726 397.038113 
L 797.83408 416.975924 
L 798.520848 460.483616 
L 799.204067 421.91643 
L 799.883774 362.949344 
L 800.560003 328.765984 
L 801.232792 359.830954 
L 802.568183 408.046017 
L 803.230854 416.038237 
L 804.546313 353.32192 
L 805.199167 395.902165 
L 805.848812 449.409897 
L 806.495281 472.158492 
L 807.778812 400.781614 
L 808.415934 426.948415 
L 809.05 467.203561 
L 809.68104 455.243901 
L 810.309082 407.184601 
L 810.934155 397.31807 
L 812.175503 345.291714 
L 812.791833 323.155746 
L 813.405303 338.896523 
L 814.01594 368.028199 
L 814.623769 368.248612 
L 815.228816 380.201524 
L 815.831107 375.899781 
L 816.430666 369.732979 
L 817.027519 381.131267 
L 817.621689 365.086912 
L 818.2132 343.13943 
L 818.802077 356.57026 
L 819.388342 321.91305 
L 819.972019 326.484952 
L 820.55313 331.92283 
L 821.707745 422.347265 
L 822.281293 438.068884 
L 822.852364 440.634677 
L 823.420978 430.375106 
L 823.987157 370.574024 
L 824.550921 345.126462 
L 825.112292 310.730495 
L 825.671289 310.51319 
L 826.227932 349.601406 
L 826.782242 396.527737 
L 827.334237 389.723118 
L 827.883937 377.709039 
L 828.43136 326.372909 
L 829.519453 282.152452 
L 830.06016 281.136813 
L 831.134984 349.60319 
L 831.669136 348.33436 
L 832.20114 378.165993 
L 833.258766 483.206086 
L 834.829508 451.13165 
L 835.348969 477.613092 
L 835.866397 495.09089 
L 836.381807 492.327109 
L 837.406639 472.010064 
L 837.916091 461.400952 
L 838.423587 461.079596 
L 839.432772 430.490917 
L 839.93449 453.904981 
L 840.434311 462.745011 
L 841.428321 454.685134 
L 841.922536 449.618714 
L 842.414912 427.453314 
L 842.90546 427.276224 
L 843.394195 414.953144 
L 843.881129 418.6905 
L 844.366277 433.531872 
L 844.849651 463.461496 
L 845.331264 417.267571 
L 845.811128 417.358898 
L 846.289258 401.997985 
L 846.765664 412.692429 
L 847.24036 437.009219 
L 847.713357 449.123005 
L 848.184668 453.253217 
L 848.654305 437.329828 
L 849.122279 435.283788 
L 849.588602 441.198582 
L 850.053287 449.823817 
L 850.516344 419.711559 
L 850.977784 378.055583 
L 851.43762 387.996308 
L 851.895862 401.342439 
L 852.35252 431.247443 
L 852.807607 444.049105 
L 853.261133 459.956913 
L 853.713108 454.789651 
L 854.163543 467.721985 
L 854.612449 463.065792 
L 855.505713 414.025917 
L 855.950092 371.363211 
L 856.392982 345.276719 
L 857.274336 376.538005 
L 857.712819 426.663445 
L 858.585447 486.065565 
L 859.01961 430.609878 
L 859.452352 390.080095 
L 859.883682 371.067486 
L 860.31361 383.686289 
L 860.742144 374.198088 
L 861.169293 393.573598 
L 861.595067 377.274351 
L 862.019474 394.888055 
L 862.864221 441.794821 
L 863.28458 426.770557 
L 863.703606 438.628716 
L 864.121308 422.516563 
L 864.537694 421.281948 
L 864.952774 416.607991 
L 865.366554 416.46999 
L 865.779042 401.580774 
L 866.600179 416.317786 
L 867.008843 443.015871 
L 867.416247 445.8693 
L 867.8224 447.351777 
L 868.630981 413.739296 
L 869.434647 375.666304 
L 869.834655 372.820558 
L 870.631058 360.572452 
L 871.027468 385.270473 
L 871.422693 402.221599 
L 871.81674 397.120677 
L 872.209616 397.141442 
L 872.601327 403.624406 
L 872.991882 406.114935 
L 873.381286 416.813764 
L 873.769546 424.286536 
L 874.15667 427.767517 
L 874.927533 412.52775 
L 875.311285 420.578015 
L 875.693927 433.236581 
L 876.075464 396.940722 
L 876.455903 377.95378 
L 876.835251 346.451041 
L 877.213513 332.701619 
L 877.590697 352.414347 
L 877.966807 382.45866 
L 878.34185 395.130112 
L 878.715832 397.318278 
L 879.088759 390.750145 
L 879.460637 381.505699 
L 879.831472 367.600621 
L 880.20127 358.75834 
L 881.670203 417.575129 
L 882.0349 432.049618 
L 882.398594 440.46619 
L 882.76129 452.782156 
L 883.122993 452.113068 
L 883.48371 456.432225 
L 883.843445 458.280287 
L 884.202204 464.254353 
L 884.559992 473.192839 
L 884.916814 468.650174 
L 885.272676 470.920194 
L 885.627583 471.877423 
L 886.33455 493.621347 
L 886.686621 468.230855 
L 887.387963 477.431419 
L 887.737243 463.196381 
L 888.085604 458.028204 
L 888.433048 457.459209 
L 889.469937 417.046371 
L 889.813767 411.45071 
L 890.498756 427.8368 
L 891.180214 392.840734 
L 891.51963 395.884209 
L 892.19586 444.269605 
L 892.868648 478.135334 
L 893.203763 487.905737 
L 893.53803 487.759073 
L 894.204039 452.330146 
L 894.53579 452.460527 
L 894.86671 448.194601 
L 895.196804 436.465479 
L 895.526076 436.696344 
L 896.18217 450.871821 
L 896.509 462.231399 
L 896.835023 459.386526 
L 897.160245 459.045609 
L 897.484669 461.632426 
L 898.131138 483.815401 
L 898.45319 480.879189 
L 898.774461 476.736271 
L 899.094952 470.814017 
L 899.414668 474.431788 
L 900.05179 449.486248 
L 900.369204 434.31264 
L 900.685857 428.782081 
L 901.001753 411.844692 
L 901.316897 401.935445 
L 901.63129 401.207864 
L 901.944939 408.542093 
L 902.257844 410.769336 
L 902.570011 410.311251 
L 903.192142 432.474016 
L 903.502113 427.196071 
L 903.811359 431.319026 
L 904.119883 431.030138 
L 904.427689 427.668622 
L 904.73478 419.837317 
L 905.04116 424.00452 
L 905.34683 424.447896 
L 905.95606 437.937018 
L 906.259625 446.96978 
L 906.562495 443.65007 
L 906.864673 442.762574 
L 907.166161 440.306035 
L 907.466963 444.23354 
L 908.066523 436.745518 
L 908.663375 447.912912 
L 908.960794 447.661264 
L 909.553632 479.961834 
L 910.143823 488.429999 
L 911.024198 476.357085 
L 911.316359 470.745986 
L 911.607875 472.209702 
L 911.89875 472.207368 
L 912.188987 481.522624 
L 912.478587 478.193986 
L 912.767555 472.431202 
L 913.630687 431.056927 
L 913.91715 430.636332 
L 914.48822 437.390451 
L 914.772833 445.861586 
L 915.056834 449.761634 
L 915.340227 456.367067 
L 915.623013 455.632097 
L 916.186778 462.383508 
L 916.467761 473.878766 
L 916.748149 477.264212 
L 917.027943 469.89769 
L 917.307146 451.240041 
L 917.58576 440.080907 
L 917.863789 438.121 
L 918.141234 445.854148 
L 919.245229 488.938925 
L 919.519793 488.742362 
L 919.793788 486.242495 
L 920.340081 474.540771 
L 920.612383 468.546755 
L 920.884125 469.788767 
L 921.42594 479.587933 
L 921.696017 479.26984 
L 922.502952 457.518138 
L 922.77084 455.242051 
L 923.038186 458.148016 
L 923.571262 469.711183 
L 923.836996 473.777368 
L 924.102197 473.182321 
L 924.366867 478.520815 
L 924.894622 491.752848 
L 925.157712 488.825098 
L 926.465365 445.127129 
L 926.984826 436.503015 
L 927.243793 431.810261 
L 927.502253 433.124094 
L 927.76021 438.773421 
L 928.274617 459.554583 
L 928.531072 460.044019 
L 929.042495 436.313565 
L 929.297466 428.544115 
L 929.551947 433.035764 
L 929.805939 443.554789 
L 930.312463 467.767869 
L 930.564999 466.550557 
L 930.817053 458.845685 
L 931.319725 456.436091 
L 931.570346 455.184931 
L 932.070168 449.817983 
L 932.568107 444.122919 
L 933.064177 450.766779 
L 933.311516 445.604612 
L 933.558393 437.403549 
L 933.80481 434.664747 
L 934.050768 436.370246 
L 934.29627 439.942257 
L 934.785909 451.412283 
L 935.273742 456.977415 
L 935.516986 451.314991 
L 935.759782 440.253873 
L 936.244041 429.56028 
L 937.20727 446.800083 
L 937.686266 444.696493 
L 937.925114 449.112662 
L 938.40152 468.119811 
L 938.639081 469.828966 
L 938.876216 473.29865 
L 939.112926 474.301481 
L 939.349213 477.149872 
L 939.585079 471.866875 
L 939.820524 472.000137 
L 940.290161 479.124336 
L 940.758135 490.017149 
L 940.991503 492.784471 
L 941.457005 494.769667 
L 941.689143 495.574144 
L 941.920874 490.236684 
L 942.1522 489.148562 
L 942.383122 486.83699 
L 942.613641 486.480586 
L 943.073476 488.443775 
L 943.302796 486.739103 
L 943.760245 472.792824 
L 943.988377 467.373328 
L 944.216116 470.554722 
L 944.896989 490.791653 
L 945.12317 491.747652 
L 945.348964 485.813406 
L 945.574374 485.523762 
L 946.024043 485.768121 
L 946.248305 483.745022 
L 946.472188 485.373364 
L 946.695692 485.170641 
L 946.918819 484.613221 
L 947.141569 488.211371 
L 947.807579 480.298053 
L 948.028838 479.320905 
L 948.47025 484.424104 
L 948.690404 487.808617 
L 948.910192 489.142775 
L 949.129616 486.01225 
L 949.567373 483.779776 
L 949.785709 485.823373 
L 950.221303 483.079051 
L 950.438563 475.897893 
L 950.655467 476.206939 
L 950.872015 473.421074 
L 951.088209 473.83421 
L 951.30405 473.414056 
L 951.519539 472.615655 
L 951.734677 473.506105 
L 951.949466 479.382642 
L 952.163907 477.733217 
L 952.378 473.101881 
L 952.80515 453.216256 
L 953.018208 447.620379 
L 953.230923 449.740079 
L 953.65533 465.005153 
L 953.867024 465.389295 
L 954.500078 469.742966 
L 955.130115 450.020849 
L 955.339462 446.25088 
L 955.548478 444.909111 
L 956.173551 465.589263 
L 956.381253 466.274795 
L 956.795682 476.04051 
L 957.00241 478.47117 
L 957.620662 464.420929 
L 958.031229 470.016343 
L 958.236036 467.667124 
L 958.440525 460.124303 
L 958.644699 459.284541 
L 958.848558 457.444776 
L 959.255336 447.756278 
L 959.458256 450.787897 
L 959.660866 446.3969 
L 959.863165 447.392166 
L 960.266837 437.319965 
L 960.468212 437.071326 
L 960.669281 438.480089 
L 960.870044 438.893435 
L 961.270658 447.934821 
L 961.470511 453.780412 
L 961.670062 455.881201 
L 961.869313 454.703258 
L 962.068263 450.115395 
L 962.266915 448.857674 
L 962.465268 445.251814 
L 962.663325 446.30102 
L 962.861085 446.266111 
L 963.058549 447.093696 
L 963.25572 449.625022 
L 963.64918 456.447431 
L 963.845472 454.782335 
L 965.017142 471.545441 
L 965.211415 470.440146 
L 965.405403 474.800273 
L 965.599106 472.807104 
L 965.985664 466.314626 
L 966.371094 456.474897 
L 967.329783 473.844019 
L 967.71132 468.626444 
L 967.901677 471.410037 
L 968.09176 476.466188 
L 968.471108 480.271659 
L 968.84937 486.570885 
L 969.038096 482.914388 
L 969.790318 461.503299 
L 969.977706 462.043295 
L 970.164829 465.290726 
L 970.538283 478.054146 
L 970.910685 493.460759 
L 971.096494 494.093039 
L 971.467329 482.055272 
L 971.652357 479.861229 
L 971.837126 482.555663 
L 972.205893 491.426971 
L 972.389891 493.708633 
L 972.573633 494.313963 
L 972.75712 492.853912 
L 973.488533 470.418779 
L 973.670756 473.589416 
L 973.852728 478.740021 
L 974.215922 482.013899 
L 974.397146 488.771402 
L 974.578121 489.094542 
L 974.939331 491.015369 
L 975.119566 491.988702 
L 975.299556 492.282446 
L 975.658803 489.855654 
L 976.195848 494.563685 
L 976.37438 492.07528 
L 976.730721 486.087667 
L 976.908533 486.08157 
L 977.086105 486.891218 
L 977.263439 489.636726 
L 977.440536 487.307298 
L 977.617395 487.299675 
L 977.794019 489.547422 
L 977.970407 496.204596 
L 978.146559 493.938912 
L 978.848832 477.401838 
L 979.023819 477.27396 
L 979.198575 476.877322 
L 979.547395 482.066598 
L 979.72146 483.924645 
L 979.895296 483.259756 
L 980.068905 484.105235 
L 980.588365 476.20232 
L 980.761066 473.836964 
L 980.933542 473.958364 
L 981.105793 478.685456 
L 981.27782 479.285308 
L 981.621203 485.572632 
L 982.134612 478.917814 
L 982.305306 479.387659 
L 982.47578 480.222432 
L 982.81607 485.842036 
L 983.155487 477.981974 
L 983.324869 475.893651 
L 983.662983 481.498942 
L 983.831716 484.109838 
L 984.000235 484.540016 
L 984.504504 494.610916 
L 984.672168 493.452236 
L 984.839619 496.44419 
L 985.006858 495.133849 
L 985.340703 491.11331 
L 985.50731 491.080249 
L 985.673707 495.01982 
L 985.839896 495.086665 
L 986.005875 493.836685 
L 986.502567 487.362879 
L 986.667717 488.81294 
L 986.832661 487.736828 
L 986.997399 487.407806 
L 987.490386 492.416334 
L 987.654308 491.059802 
L 987.981542 483.159009 
L 988.144856 482.230603 
L 988.307968 483.310039 
L 988.633591 482.840117 
L 989.120525 487.931881 
L 989.444155 492.947747 
L 989.766994 484.387571 
L 990.089047 482.492336 
L 990.24978 483.045042 
L 990.410317 481.898612 
L 990.57066 482.189675 
L 990.890763 480.190956 
L 991.050525 480.861331 
L 991.528654 494.04111 
L 991.846449 494.992772 
L 992.163481 492.771789 
L 992.321713 492.937006 
L 992.63761 489.778096 
L 992.795275 490.192655 
L 992.952753 491.737575 
L 993.110043 490.664673 
L 993.267147 488.691532 
L 993.424064 488.190361 
L 993.580795 489.680447 
L 993.893701 495.746484 
L 994.517299 490.392226 
L 994.67274 491.875736 
L 994.827999 495.995287 
L 995.292683 486.944535 
L 995.447216 487.289888 
L 995.909732 495.579617 
L 996.21718 491.314204 
L 996.370637 491.195108 
L 996.523915 489.71275 
L 996.677016 489.313704 
L 996.982687 485.568457 
L 997.135258 485.954473 
L 997.287653 486.750788 
L 997.439872 486.231577 
L 997.743786 483.465019 
L 998.198352 486.865225 
L 998.349527 488.480964 
L 998.500529 487.87756 
L 998.802017 489.204947 
L 999.252965 484.421478 
L 999.851845 495.248514 
L 1000.001142 495.142684 
L 1000.448025 483.6262 
L 1000.745109 485.810596 
L 1001.041528 492.79165 
L 1001.189488 492.526057 
L 1001.337283 493.172605 
L 1001.484913 496.663672 
L 1001.632378 496.898576 
L 1001.779679 496.532392 
L 1001.926816 494.39967 
L 1002.2206 486.082375 
L 1002.367247 486.281257 
L 1002.952215 493.752543 
L 1003.389249 490.971911 
L 1003.534607 491.23261 
L 1003.969723 489.477428 
L 1004.259006 496.467323 
L 1004.403411 496.406695 
L 1004.691748 493.146295 
L 1004.835682 493.085373 
L 1004.979458 492.814346 
L 1005.266543 493.096209 
L 1005.409852 493.533584 
L 1005.696005 495.04605 
L 1006.124077 496.747213 
L 1006.26646 496.70873 
L 1006.692691 491.753335 
L 1006.834463 492.047865 
L 1007.25887 488.186591 
L 1007.400036 488.489159 
L 1007.681918 489.721461 
L 1007.822634 489.617429 
L 1008.103618 488.527375 
L 1008.243886 489.375444 
L 1008.384005 489.316911 
L 1008.523976 488.963123 
L 1008.663799 489.496532 
L 1008.943002 489.407626 
L 1009.082383 489.103105 
L 1009.499645 493.9561 
L 1009.638441 493.831054 
L 1009.777091 492.208151 
L 1009.915595 492.29351 
L 1010.053955 492.695147 
L 1010.33024 492.50768 
L 1010.468167 492.752103 
L 1010.60595 493.364814 
L 1010.743589 492.734349 
L 1010.881085 492.830707 
L 1011.155649 493.115595 
L 1011.292718 492.907381 
L 1011.429645 492.207271 
L 1011.566429 492.370093 
L 1011.839575 493.509275 
L 1011.975937 493.136959 
L 1012.655643 495.074277 
L 1012.791166 495.11209 
L 1013.601399 493.648043 
L 1013.870377 494.299337 
L 1014.674043 496.489843 
L 1014.807513 496.738369 
L 1015.074051 496.681308 
L 1015.340052 496.891738 
L 1015.870455 497.392112 
L 1015.870455 497.392112 
" clip-path="url(#p765ce45bc2)" style="fill: none; stroke: #0c5da5; stroke-width: 2; stroke-linecap: square"/>
   </g>
   <g id="patch_3">
    <path d="M 57.125 520.7175 
L 57.125 21.7575 
" style="fill: none; stroke: #000000; stroke-linejoin: miter; stroke-linecap: square"/>
   </g>
   <g id="patch_4">
    <path d="M 1061.525 520.7175 
L 1061.525 21.7575 
" style="fill: none; stroke: #000000; stroke-linejoin: miter; stroke-linecap: square"/>
   </g>
   <g id="patch_5">
    <path d="M 57.125 520.7175 
L 1061.525 520.7175 
" style="fill: none; stroke: #000000; stroke-linejoin: miter; stroke-linecap: square"/>
   </g>
   <g id="patch_6">
    <path d="M 57.125 21.7575 
L 1061.525 21.7575 
" style="fill: none; stroke: #000000; stroke-linejoin: miter; stroke-linecap: square"/>
   </g>
   <g id="text_12">
    <!-- Northridge-01 Record no. 1051 -->
    <g transform="translate(435.295 15.7575) scale(0.16 -0.16)">
     <defs>
      <path id="DejaVuSans-4e" d="M 628 4666 
L 1478 4666 
L 3547 763 
L 3547 4666 
L 4159 4666 
L 4159 0 
L 3309 0 
L 1241 3903 
L 1241 0 
L 628 0 
L 628 4666 
z
" transform="scale(0.015625)"/>
      <path id="DejaVuSans-6f" d="M 1959 3097 
Q 1497 3097 1228 2736 
Q 959 2375 959 1747 
Q 959 1119 1226 758 
Q 1494 397 1959 397 
Q 2419 397 2687 759 
Q 2956 1122 2956 1747 
Q 2956 2369 2687 2733 
Q 2419 3097 1959 3097 
z
M 1959 3584 
Q 2709 3584 3137 3096 
Q 3566 2609 3566 1747 
Q 3566 888 3137 398 
Q 2709 -91 1959 -91 
Q 1206 -91 779 398 
Q 353 888 353 1747 
Q 353 2609 779 3096 
Q 1206 3584 1959 3584 
z
" transform="scale(0.015625)"/>
      <path id="DejaVuSans-68" d="M 3513 2113 
L 3513 0 
L 2938 0 
L 2938 2094 
Q 2938 2591 2744 2837 
Q 2550 3084 2163 3084 
Q 1697 3084 1428 2787 
Q 1159 2491 1159 1978 
L 1159 0 
L 581 0 
L 581 4863 
L 1159 4863 
L 1159 2956 
Q 1366 3272 1645 3428 
Q 1925 3584 2291 3584 
Q 2894 3584 3203 3211 
Q 3513 2838 3513 2113 
z
" transform="scale(0.015625)"/>
      <path id="DejaVuSans-67" d="M 2906 1791 
Q 2906 2416 2648 2759 
Q 2391 3103 1925 3103 
Q 1463 3103 1205 2759 
Q 947 2416 947 1791 
Q 947 1169 1205 825 
Q 1463 481 1925 481 
Q 2391 481 2648 825 
Q 2906 1169 2906 1791 
z
M 3481 434 
Q 3481 -459 3084 -895 
Q 2688 -1331 1869 -1331 
Q 1566 -1331 1297 -1286 
Q 1028 -1241 775 -1147 
L 775 -588 
Q 1028 -725 1275 -790 
Q 1522 -856 1778 -856 
Q 2344 -856 2625 -561 
Q 2906 -266 2906 331 
L 2906 616 
Q 2728 306 2450 153 
Q 2172 0 1784 0 
Q 1141 0 747 490 
Q 353 981 353 1791 
Q 353 2603 747 3093 
Q 1141 3584 1784 3584 
Q 2172 3584 2450 3431 
Q 2728 3278 2906 2969 
L 2906 3500 
L 3481 3500 
L 3481 434 
z
" transform="scale(0.015625)"/>
      <path id="DejaVuSans-2d" d="M 313 2009 
L 1997 2009 
L 1997 1497 
L 313 1497 
L 313 2009 
z
" transform="scale(0.015625)"/>
      <path id="DejaVuSans-52" d="M 2841 2188 
Q 3044 2119 3236 1894 
Q 3428 1669 3622 1275 
L 4263 0 
L 3584 0 
L 2988 1197 
Q 2756 1666 2539 1819 
Q 2322 1972 1947 1972 
L 1259 1972 
L 1259 0 
L 628 0 
L 628 4666 
L 2053 4666 
Q 2853 4666 3247 4331 
Q 3641 3997 3641 3322 
Q 3641 2881 3436 2590 
Q 3231 2300 2841 2188 
z
M 1259 4147 
L 1259 2491 
L 2053 2491 
Q 2509 2491 2742 2702 
Q 2975 2913 2975 3322 
Q 2975 3731 2742 3939 
Q 2509 4147 2053 4147 
L 1259 4147 
z
" transform="scale(0.015625)"/>
      <path id="DejaVuSans-2e" d="M 684 794 
L 1344 794 
L 1344 0 
L 684 0 
L 684 794 
z
" transform="scale(0.015625)"/>
     </defs>
     <use xlink:href="#DejaVuSans-4e"/>
     <use xlink:href="#DejaVuSans-6f" x="74.804688"/>
     <use xlink:href="#DejaVuSans-72" x="135.986328"/>
     <use xlink:href="#DejaVuSans-74" x="177.099609"/>
     <use xlink:href="#DejaVuSans-68" x="216.308594"/>
     <use xlink:href="#DejaVuSans-72" x="279.6875"/>
     <use xlink:href="#DejaVuSans-69" x="320.800781"/>
     <use xlink:href="#DejaVuSans-64" x="348.583984"/>
     <use xlink:href="#DejaVuSans-67" x="412.060547"/>
     <use xlink:href="#DejaVuSans-65" x="475.537109"/>
     <use xlink:href="#DejaVuSans-2d" x="537.060547"/>
     <use xlink:href="#DejaVuSans-30" x="573.144531"/>
     <use xlink:href="#DejaVuSans-31" x="636.767578"/>
     <use xlink:href="#DejaVuSans-20" x="700.390625"/>
     <use xlink:href="#DejaVuSans-52" x="732.177734"/>
     <use xlink:href="#DejaVuSans-65" x="797.160156"/>
     <use xlink:href="#DejaVuSans-63" x="858.683594"/>
     <use xlink:href="#DejaVuSans-6f" x="913.664062"/>
     <use xlink:href="#DejaVuSans-72" x="974.845703"/>
     <use xlink:href="#DejaVuSans-64" x="1014.208984"/>
     <use xlink:href="#DejaVuSans-20" x="1077.685547"/>
     <use xlink:href="#DejaVuSans-6e" x="1109.472656"/>
     <use xlink:href="#DejaVuSans-6f" x="1172.851562"/>
     <use xlink:href="#DejaVuSans-2e" x="1232.283203"/>
     <use xlink:href="#DejaVuSans-20" x="1264.070312"/>
     <use xlink:href="#DejaVuSans-31" x="1295.857422"/>
     <use xlink:href="#DejaVuSans-30" x="1359.480469"/>
     <use xlink:href="#DejaVuSans-35" x="1423.103516"/>
     <use xlink:href="#DejaVuSans-31" x="1486.726562"/>
    </g>
   </g>
   <g id="legend_1">
    <g id="patch_7">
     <path d="M 68.325 58.0425 
L 388.0275 58.0425 
Q 391.2275 58.0425 391.2275 54.8425 
L 391.2275 32.9575 
Q 391.2275 29.7575 388.0275 29.7575 
L 68.325 29.7575 
Q 65.125 29.7575 65.125 32.9575 
L 65.125 54.8425 
Q 65.125 58.0425 68.325 58.0425 
z
" style="fill: #ffffff; stroke: #cccccc; stroke-linejoin: miter"/>
    </g>
    <g id="line2d_123">
     <path d="M 71.525 42.715 
L 87.525 42.715 
L 103.525 42.715 
" style="fill: none; stroke: #0c5da5; stroke-width: 2; stroke-linecap: square"/>
    </g>
    <g id="text_13">
     <!-- Predominant Time Period = 1.88s -->
     <g transform="translate(116.325 48.315) scale(0.16 -0.16)">
      <defs>
       <path id="DejaVuSans-50" d="M 1259 4147 
L 1259 2394 
L 2053 2394 
Q 2494 2394 2734 2622 
Q 2975 2850 2975 3272 
Q 2975 3691 2734 3919 
Q 2494 4147 2053 4147 
L 1259 4147 
z
M 628 4666 
L 2053 4666 
Q 2838 4666 3239 4311 
Q 3641 3956 3641 3272 
Q 3641 2581 3239 2228 
Q 2838 1875 2053 1875 
L 1259 1875 
L 1259 0 
L 628 0 
L 628 4666 
z
" transform="scale(0.015625)"/>
       <path id="DejaVuSans-61" d="M 2194 1759 
Q 1497 1759 1228 1600 
Q 959 1441 959 1056 
Q 959 750 1161 570 
Q 1363 391 1709 391 
Q 2188 391 2477 730 
Q 2766 1069 2766 1631 
L 2766 1759 
L 2194 1759 
z
M 3341 1997 
L 3341 0 
L 2766 0 
L 2766 531 
Q 2569 213 2275 61 
Q 1981 -91 1556 -91 
Q 1019 -91 701 211 
Q 384 513 384 1019 
Q 384 1609 779 1909 
Q 1175 2209 1959 2209 
L 2766 2209 
L 2766 2266 
Q 2766 2663 2505 2880 
Q 2244 3097 1772 3097 
Q 1472 3097 1187 3025 
Q 903 2953 641 2809 
L 641 3341 
Q 956 3463 1253 3523 
Q 1550 3584 1831 3584 
Q 2591 3584 2966 3190 
Q 3341 2797 3341 1997 
z
" transform="scale(0.015625)"/>
       <path id="DejaVuSans-54" d="M -19 4666 
L 3928 4666 
L 3928 4134 
L 2272 4134 
L 2272 0 
L 1638 0 
L 1638 4134 
L -19 4134 
L -19 4666 
z
" transform="scale(0.015625)"/>
       <path id="DejaVuSans-3d" d="M 678 2906 
L 4684 2906 
L 4684 2381 
L 678 2381 
L 678 2906 
z
M 678 1631 
L 4684 1631 
L 4684 1100 
L 678 1100 
L 678 1631 
z
" transform="scale(0.015625)"/>
       <path id="DejaVuSans-38" d="M 2034 2216 
Q 1584 2216 1326 1975 
Q 1069 1734 1069 1313 
Q 1069 891 1326 650 
Q 1584 409 2034 409 
Q 2484 409 2743 651 
Q 3003 894 3003 1313 
Q 3003 1734 2745 1975 
Q 2488 2216 2034 2216 
z
M 1403 2484 
Q 997 2584 770 2862 
Q 544 3141 544 3541 
Q 544 4100 942 4425 
Q 1341 4750 2034 4750 
Q 2731 4750 3128 4425 
Q 3525 4100 3525 3541 
Q 3525 3141 3298 2862 
Q 3072 2584 2669 2484 
Q 3125 2378 3379 2068 
Q 3634 1759 3634 1313 
Q 3634 634 3220 271 
Q 2806 -91 2034 -91 
Q 1263 -91 848 271 
Q 434 634 434 1313 
Q 434 1759 690 2068 
Q 947 2378 1403 2484 
z
M 1172 3481 
Q 1172 3119 1398 2916 
Q 1625 2713 2034 2713 
Q 2441 2713 2670 2916 
Q 2900 3119 2900 3481 
Q 2900 3844 2670 4047 
Q 2441 4250 2034 4250 
Q 1625 4250 1398 4047 
Q 1172 3844 1172 3481 
z
" transform="scale(0.015625)"/>
       <path id="DejaVuSans-73" d="M 2834 3397 
L 2834 2853 
Q 2591 2978 2328 3040 
Q 2066 3103 1784 3103 
Q 1356 3103 1142 2972 
Q 928 2841 928 2578 
Q 928 2378 1081 2264 
Q 1234 2150 1697 2047 
L 1894 2003 
Q 2506 1872 2764 1633 
Q 3022 1394 3022 966 
Q 3022 478 2636 193 
Q 2250 -91 1575 -91 
Q 1294 -91 989 -36 
Q 684 19 347 128 
L 347 722 
Q 666 556 975 473 
Q 1284 391 1588 391 
Q 1994 391 2212 530 
Q 2431 669 2431 922 
Q 2431 1156 2273 1281 
Q 2116 1406 1581 1522 
L 1381 1569 
Q 847 1681 609 1914 
Q 372 2147 372 2553 
Q 372 3047 722 3315 
Q 1072 3584 1716 3584 
Q 2034 3584 2315 3537 
Q 2597 3491 2834 3397 
z
" transform="scale(0.015625)"/>
      </defs>
      <use xlink:href="#DejaVuSans-50"/>
      <use xlink:href="#DejaVuSans-72" x="58.552734"/>
      <use xlink:href="#DejaVuSans-65" x="97.416016"/>
      <use xlink:href="#DejaVuSans-64" x="158.939453"/>
      <use xlink:href="#DejaVuSans-6f" x="222.416016"/>
      <use xlink:href="#DejaVuSans-6d" x="283.597656"/>
      <use xlink:href="#DejaVuSans-69" x="381.009766"/>
      <use xlink:href="#DejaVuSans-6e" x="408.792969"/>
      <use xlink:href="#DejaVuSans-61" x="472.171875"/>
      <use xlink:href="#DejaVuSans-6e" x="533.451172"/>
      <use xlink:href="#DejaVuSans-74" x="596.830078"/>
      <use xlink:href="#DejaVuSans-20" x="636.039062"/>
      <use xlink:href="#DejaVuSans-54" x="667.826172"/>
      <use xlink:href="#DejaVuSans-69" x="725.785156"/>
      <use xlink:href="#DejaVuSans-6d" x="753.568359"/>
      <use xlink:href="#DejaVuSans-65" x="850.980469"/>
      <use xlink:href="#DejaVuSans-20" x="912.503906"/>
      <use xlink:href="#DejaVuSans-50" x="944.291016"/>
      <use xlink:href="#DejaVuSans-65" x="1000.96875"/>
      <use xlink:href="#DejaVuSans-72" x="1062.492188"/>
      <use xlink:href="#DejaVuSans-69" x="1103.605469"/>
      <use xlink:href="#DejaVuSans-6f" x="1131.388672"/>
      <use xlink:href="#DejaVuSans-64" x="1192.570312"/>
      <use xlink:href="#DejaVuSans-20" x="1256.046875"/>
      <use xlink:href="#DejaVuSans-3d" x="1287.833984"/>
      <use xlink:href="#DejaVuSans-20" x="1371.623047"/>
      <use xlink:href="#DejaVuSans-31" x="1403.410156"/>
      <use xlink:href="#DejaVuSans-2e" x="1467.033203"/>
      <use xlink:href="#DejaVuSans-38" x="1498.820312"/>
      <use xlink:href="#DejaVuSans-38" x="1562.443359"/>
      <use xlink:href="#DejaVuSans-73" x="1626.066406"/>
     </g>
    </g>
   </g>
  </g>
 </g>
 <defs>
  <clipPath id="p765ce45bc2">
   <rect x="57.125" y="21.7575" width="1004.4" height="498.96"/>
  </clipPath>
 </defs>
</svg>
