<?xml version="1.0" encoding="utf-8" standalone="no"?>
<!DOCTYPE svg PUBLIC "-//W3C//DTD SVG 1.1//EN"
  "http://www.w3.org/Graphics/SVG/1.1/DTD/svg11.dtd">
<svg xmlns:xlink="http://www.w3.org/1999/xlink" width="1083.6175pt" height="562.7875pt" viewBox="0 0 1083.6175 562.7875" xmlns="http://www.w3.org/2000/svg" version="1.1">
 <metadata>
  <rdf:RDF xmlns:dc="http://purl.org/dc/elements/1.1/" xmlns:cc="http://creativecommons.org/ns#" xmlns:rdf="http://www.w3.org/1999/02/22-rdf-syntax-ns#">
   <cc:Work>
    <dc:type rdf:resource="http://purl.org/dc/dcmitype/StillImage"/>
    <dc:date>2023-05-16T14:36:41.186581</dc:date>
    <dc:format>image/svg+xml</dc:format>
    <dc:creator>
     <cc:Agent>
      <dc:title>Matplotlib v3.7.1, https://matplotlib.org/</dc:title>
     </cc:Agent>
    </dc:creator>
   </cc:Work>
  </rdf:RDF>
 </metadata>
 <defs>
  <style type="text/css">*{stroke-linejoin: round; stroke-linecap: butt}</style>
 </defs>
 <g id="figure_1">
  <g id="patch_1">
   <path d="M 0 562.7875 
L 1083.6175 562.7875 
L 1083.6175 0 
L 0 0 
z
" style="fill: #ffffff"/>
  </g>
  <g id="axes_1">
   <g id="patch_2">
    <path d="M 75.6175 520.7175 
L 1080.0175 520.7175 
L 1080.0175 21.7575 
L 75.6175 21.7575 
z
" style="fill: #ffffff"/>
   </g>
   <g id="matplotlib.axis_1">
    <g id="xtick_1">
     <g id="line2d_1">
      <path d="M 121.272045 520.7175 
L 121.272045 21.7575 
" clip-path="url(#p39bbfd1dc4)" style="fill: none; stroke-dasharray: 1.85,0.8; stroke-dashoffset: 0; stroke: #000000; stroke-opacity: 0.5; stroke-width: 0.5"/>
     </g>
     <g id="line2d_2">
      <defs>
       <path id="m9c5fc641e1" d="M 0 0 
L 0 -6 
" style="stroke: #000000"/>
      </defs>
      <g>
       <use xlink:href="#m9c5fc641e1" x="121.272045" y="520.7175" style="stroke: #000000"/>
      </g>
     </g>
     <g id="line2d_3">
      <defs>
       <path id="m4300f3d02e" d="M 0 0 
L 0 6 
" style="stroke: #000000"/>
      </defs>
      <g>
       <use xlink:href="#m4300f3d02e" x="121.272045" y="21.7575" style="stroke: #000000"/>
      </g>
     </g>
     <g id="text_1">
      <!-- 0 -->
      <g transform="translate(116.182045 536.375) scale(0.16 -0.16)">
       <defs>
        <path id="DejaVuSans-30" d="M 2034 4250 
Q 1547 4250 1301 3770 
Q 1056 3291 1056 2328 
Q 1056 1369 1301 889 
Q 1547 409 2034 409 
Q 2525 409 2770 889 
Q 3016 1369 3016 2328 
Q 3016 3291 2770 3770 
Q 2525 4250 2034 4250 
z
M 2034 4750 
Q 2819 4750 3233 4129 
Q 3647 3509 3647 2328 
Q 3647 1150 3233 529 
Q 2819 -91 2034 -91 
Q 1250 -91 836 529 
Q 422 1150 422 2328 
Q 422 3509 836 4129 
Q 1250 4750 2034 4750 
z
" transform="scale(0.015625)"/>
       </defs>
       <use xlink:href="#DejaVuSans-30"/>
      </g>
     </g>
    </g>
    <g id="xtick_2">
     <g id="line2d_4">
      <path d="M 235.465506 520.7175 
L 235.465506 21.7575 
" clip-path="url(#p39bbfd1dc4)" style="fill: none; stroke-dasharray: 1.85,0.8; stroke-dashoffset: 0; stroke: #000000; stroke-opacity: 0.5; stroke-width: 0.5"/>
     </g>
     <g id="line2d_5">
      <g>
       <use xlink:href="#m9c5fc641e1" x="235.465506" y="520.7175" style="stroke: #000000"/>
      </g>
     </g>
     <g id="line2d_6">
      <g>
       <use xlink:href="#m4300f3d02e" x="235.465506" y="21.7575" style="stroke: #000000"/>
      </g>
     </g>
     <g id="text_2">
      <!-- 5 -->
      <g transform="translate(230.375506 536.375) scale(0.16 -0.16)">
       <defs>
        <path id="DejaVuSans-35" d="M 691 4666 
L 3169 4666 
L 3169 4134 
L 1269 4134 
L 1269 2991 
Q 1406 3038 1543 3061 
Q 1681 3084 1819 3084 
Q 2600 3084 3056 2656 
Q 3513 2228 3513 1497 
Q 3513 744 3044 326 
Q 2575 -91 1722 -91 
Q 1428 -91 1123 -41 
Q 819 9 494 109 
L 494 744 
Q 775 591 1075 516 
Q 1375 441 1709 441 
Q 2250 441 2565 725 
Q 2881 1009 2881 1497 
Q 2881 1984 2565 2268 
Q 2250 2553 1709 2553 
Q 1456 2553 1204 2497 
Q 953 2441 691 2322 
L 691 4666 
z
" transform="scale(0.015625)"/>
       </defs>
       <use xlink:href="#DejaVuSans-35"/>
      </g>
     </g>
    </g>
    <g id="xtick_3">
     <g id="line2d_7">
      <path d="M 349.658966 520.7175 
L 349.658966 21.7575 
" clip-path="url(#p39bbfd1dc4)" style="fill: none; stroke-dasharray: 1.85,0.8; stroke-dashoffset: 0; stroke: #000000; stroke-opacity: 0.5; stroke-width: 0.5"/>
     </g>
     <g id="line2d_8">
      <g>
       <use xlink:href="#m9c5fc641e1" x="349.658966" y="520.7175" style="stroke: #000000"/>
      </g>
     </g>
     <g id="line2d_9">
      <g>
       <use xlink:href="#m4300f3d02e" x="349.658966" y="21.7575" style="stroke: #000000"/>
      </g>
     </g>
     <g id="text_3">
      <!-- 10 -->
      <g transform="translate(339.478966 536.375) scale(0.16 -0.16)">
       <defs>
        <path id="DejaVuSans-31" d="M 794 531 
L 1825 531 
L 1825 4091 
L 703 3866 
L 703 4441 
L 1819 4666 
L 2450 4666 
L 2450 531 
L 3481 531 
L 3481 0 
L 794 0 
L 794 531 
z
" transform="scale(0.015625)"/>
       </defs>
       <use xlink:href="#DejaVuSans-31"/>
       <use xlink:href="#DejaVuSans-30" x="63.623047"/>
      </g>
     </g>
    </g>
    <g id="xtick_4">
     <g id="line2d_10">
      <path d="M 463.852427 520.7175 
L 463.852427 21.7575 
" clip-path="url(#p39bbfd1dc4)" style="fill: none; stroke-dasharray: 1.85,0.8; stroke-dashoffset: 0; stroke: #000000; stroke-opacity: 0.5; stroke-width: 0.5"/>
     </g>
     <g id="line2d_11">
      <g>
       <use xlink:href="#m9c5fc641e1" x="463.852427" y="520.7175" style="stroke: #000000"/>
      </g>
     </g>
     <g id="line2d_12">
      <g>
       <use xlink:href="#m4300f3d02e" x="463.852427" y="21.7575" style="stroke: #000000"/>
      </g>
     </g>
     <g id="text_4">
      <!-- 15 -->
      <g transform="translate(453.672427 536.375) scale(0.16 -0.16)">
       <use xlink:href="#DejaVuSans-31"/>
       <use xlink:href="#DejaVuSans-35" x="63.623047"/>
      </g>
     </g>
    </g>
    <g id="xtick_5">
     <g id="line2d_13">
      <path d="M 578.045887 520.7175 
L 578.045887 21.7575 
" clip-path="url(#p39bbfd1dc4)" style="fill: none; stroke-dasharray: 1.85,0.8; stroke-dashoffset: 0; stroke: #000000; stroke-opacity: 0.5; stroke-width: 0.5"/>
     </g>
     <g id="line2d_14">
      <g>
       <use xlink:href="#m9c5fc641e1" x="578.045887" y="520.7175" style="stroke: #000000"/>
      </g>
     </g>
     <g id="line2d_15">
      <g>
       <use xlink:href="#m4300f3d02e" x="578.045887" y="21.7575" style="stroke: #000000"/>
      </g>
     </g>
     <g id="text_5">
      <!-- 20 -->
      <g transform="translate(567.865887 536.375) scale(0.16 -0.16)">
       <defs>
        <path id="DejaVuSans-32" d="M 1228 531 
L 3431 531 
L 3431 0 
L 469 0 
L 469 531 
Q 828 903 1448 1529 
Q 2069 2156 2228 2338 
Q 2531 2678 2651 2914 
Q 2772 3150 2772 3378 
Q 2772 3750 2511 3984 
Q 2250 4219 1831 4219 
Q 1534 4219 1204 4116 
Q 875 4013 500 3803 
L 500 4441 
Q 881 4594 1212 4672 
Q 1544 4750 1819 4750 
Q 2544 4750 2975 4387 
Q 3406 4025 3406 3419 
Q 3406 3131 3298 2873 
Q 3191 2616 2906 2266 
Q 2828 2175 2409 1742 
Q 1991 1309 1228 531 
z
" transform="scale(0.015625)"/>
       </defs>
       <use xlink:href="#DejaVuSans-32"/>
       <use xlink:href="#DejaVuSans-30" x="63.623047"/>
      </g>
     </g>
    </g>
    <g id="xtick_6">
     <g id="line2d_16">
      <path d="M 692.239347 520.7175 
L 692.239347 21.7575 
" clip-path="url(#p39bbfd1dc4)" style="fill: none; stroke-dasharray: 1.85,0.8; stroke-dashoffset: 0; stroke: #000000; stroke-opacity: 0.5; stroke-width: 0.5"/>
     </g>
     <g id="line2d_17">
      <g>
       <use xlink:href="#m9c5fc641e1" x="692.239347" y="520.7175" style="stroke: #000000"/>
      </g>
     </g>
     <g id="line2d_18">
      <g>
       <use xlink:href="#m4300f3d02e" x="692.239347" y="21.7575" style="stroke: #000000"/>
      </g>
     </g>
     <g id="text_6">
      <!-- 25 -->
      <g transform="translate(682.059347 536.375) scale(0.16 -0.16)">
       <use xlink:href="#DejaVuSans-32"/>
       <use xlink:href="#DejaVuSans-35" x="63.623047"/>
      </g>
     </g>
    </g>
    <g id="xtick_7">
     <g id="line2d_19">
      <path d="M 806.432808 520.7175 
L 806.432808 21.7575 
" clip-path="url(#p39bbfd1dc4)" style="fill: none; stroke-dasharray: 1.85,0.8; stroke-dashoffset: 0; stroke: #000000; stroke-opacity: 0.5; stroke-width: 0.5"/>
     </g>
     <g id="line2d_20">
      <g>
       <use xlink:href="#m9c5fc641e1" x="806.432808" y="520.7175" style="stroke: #000000"/>
      </g>
     </g>
     <g id="line2d_21">
      <g>
       <use xlink:href="#m4300f3d02e" x="806.432808" y="21.7575" style="stroke: #000000"/>
      </g>
     </g>
     <g id="text_7">
      <!-- 30 -->
      <g transform="translate(796.252808 536.375) scale(0.16 -0.16)">
       <defs>
        <path id="DejaVuSans-33" d="M 2597 2516 
Q 3050 2419 3304 2112 
Q 3559 1806 3559 1356 
Q 3559 666 3084 287 
Q 2609 -91 1734 -91 
Q 1441 -91 1130 -33 
Q 819 25 488 141 
L 488 750 
Q 750 597 1062 519 
Q 1375 441 1716 441 
Q 2309 441 2620 675 
Q 2931 909 2931 1356 
Q 2931 1769 2642 2001 
Q 2353 2234 1838 2234 
L 1294 2234 
L 1294 2753 
L 1863 2753 
Q 2328 2753 2575 2939 
Q 2822 3125 2822 3475 
Q 2822 3834 2567 4026 
Q 2313 4219 1838 4219 
Q 1578 4219 1281 4162 
Q 984 4106 628 3988 
L 628 4550 
Q 988 4650 1302 4700 
Q 1616 4750 1894 4750 
Q 2613 4750 3031 4423 
Q 3450 4097 3450 3541 
Q 3450 3153 3228 2886 
Q 3006 2619 2597 2516 
z
" transform="scale(0.015625)"/>
       </defs>
       <use xlink:href="#DejaVuSans-33"/>
       <use xlink:href="#DejaVuSans-30" x="63.623047"/>
      </g>
     </g>
    </g>
    <g id="xtick_8">
     <g id="line2d_22">
      <path d="M 920.626268 520.7175 
L 920.626268 21.7575 
" clip-path="url(#p39bbfd1dc4)" style="fill: none; stroke-dasharray: 1.85,0.8; stroke-dashoffset: 0; stroke: #000000; stroke-opacity: 0.5; stroke-width: 0.5"/>
     </g>
     <g id="line2d_23">
      <g>
       <use xlink:href="#m9c5fc641e1" x="920.626268" y="520.7175" style="stroke: #000000"/>
      </g>
     </g>
     <g id="line2d_24">
      <g>
       <use xlink:href="#m4300f3d02e" x="920.626268" y="21.7575" style="stroke: #000000"/>
      </g>
     </g>
     <g id="text_8">
      <!-- 35 -->
      <g transform="translate(910.446268 536.375) scale(0.16 -0.16)">
       <use xlink:href="#DejaVuSans-33"/>
       <use xlink:href="#DejaVuSans-35" x="63.623047"/>
      </g>
     </g>
    </g>
    <g id="xtick_9">
     <g id="line2d_25">
      <path d="M 1034.819728 520.7175 
L 1034.819728 21.7575 
" clip-path="url(#p39bbfd1dc4)" style="fill: none; stroke-dasharray: 1.85,0.8; stroke-dashoffset: 0; stroke: #000000; stroke-opacity: 0.5; stroke-width: 0.5"/>
     </g>
     <g id="line2d_26">
      <g>
       <use xlink:href="#m9c5fc641e1" x="1034.819728" y="520.7175" style="stroke: #000000"/>
      </g>
     </g>
     <g id="line2d_27">
      <g>
       <use xlink:href="#m4300f3d02e" x="1034.819728" y="21.7575" style="stroke: #000000"/>
      </g>
     </g>
     <g id="text_9">
      <!-- 40 -->
      <g transform="translate(1024.639728 536.375) scale(0.16 -0.16)">
       <defs>
        <path id="DejaVuSans-34" d="M 2419 4116 
L 825 1625 
L 2419 1625 
L 2419 4116 
z
M 2253 4666 
L 3047 4666 
L 3047 1625 
L 3713 1625 
L 3713 1100 
L 3047 1100 
L 3047 0 
L 2419 0 
L 2419 1100 
L 313 1100 
L 313 1709 
L 2253 4666 
z
" transform="scale(0.015625)"/>
       </defs>
       <use xlink:href="#DejaVuSans-34"/>
       <use xlink:href="#DejaVuSans-30" x="63.623047"/>
      </g>
     </g>
    </g>
    <g id="xtick_10">
     <g id="line2d_28">
      <defs>
       <path id="mfb0c401810" d="M 0 0 
L 0 -3 
" style="stroke: #000000"/>
      </defs>
      <g>
       <use xlink:href="#mfb0c401810" x="98.433353" y="520.7175" style="stroke: #000000"/>
      </g>
     </g>
     <g id="line2d_29">
      <defs>
       <path id="m9dba7d9c13" d="M 0 0 
L 0 3 
" style="stroke: #000000"/>
      </defs>
      <g>
       <use xlink:href="#m9dba7d9c13" x="98.433353" y="21.7575" style="stroke: #000000"/>
      </g>
     </g>
    </g>
    <g id="xtick_11">
     <g id="line2d_30">
      <g>
       <use xlink:href="#mfb0c401810" x="144.110738" y="520.7175" style="stroke: #000000"/>
      </g>
     </g>
     <g id="line2d_31">
      <g>
       <use xlink:href="#m9dba7d9c13" x="144.110738" y="21.7575" style="stroke: #000000"/>
      </g>
     </g>
    </g>
    <g id="xtick_12">
     <g id="line2d_32">
      <g>
       <use xlink:href="#mfb0c401810" x="166.94943" y="520.7175" style="stroke: #000000"/>
      </g>
     </g>
     <g id="line2d_33">
      <g>
       <use xlink:href="#m9dba7d9c13" x="166.94943" y="21.7575" style="stroke: #000000"/>
      </g>
     </g>
    </g>
    <g id="xtick_13">
     <g id="line2d_34">
      <g>
       <use xlink:href="#mfb0c401810" x="189.788122" y="520.7175" style="stroke: #000000"/>
      </g>
     </g>
     <g id="line2d_35">
      <g>
       <use xlink:href="#m9dba7d9c13" x="189.788122" y="21.7575" style="stroke: #000000"/>
      </g>
     </g>
    </g>
    <g id="xtick_14">
     <g id="line2d_36">
      <g>
       <use xlink:href="#mfb0c401810" x="212.626814" y="520.7175" style="stroke: #000000"/>
      </g>
     </g>
     <g id="line2d_37">
      <g>
       <use xlink:href="#m9dba7d9c13" x="212.626814" y="21.7575" style="stroke: #000000"/>
      </g>
     </g>
    </g>
    <g id="xtick_15">
     <g id="line2d_38">
      <g>
       <use xlink:href="#mfb0c401810" x="258.304198" y="520.7175" style="stroke: #000000"/>
      </g>
     </g>
     <g id="line2d_39">
      <g>
       <use xlink:href="#m9dba7d9c13" x="258.304198" y="21.7575" style="stroke: #000000"/>
      </g>
     </g>
    </g>
    <g id="xtick_16">
     <g id="line2d_40">
      <g>
       <use xlink:href="#mfb0c401810" x="281.14289" y="520.7175" style="stroke: #000000"/>
      </g>
     </g>
     <g id="line2d_41">
      <g>
       <use xlink:href="#m9dba7d9c13" x="281.14289" y="21.7575" style="stroke: #000000"/>
      </g>
     </g>
    </g>
    <g id="xtick_17">
     <g id="line2d_42">
      <g>
       <use xlink:href="#mfb0c401810" x="303.981582" y="520.7175" style="stroke: #000000"/>
      </g>
     </g>
     <g id="line2d_43">
      <g>
       <use xlink:href="#m9dba7d9c13" x="303.981582" y="21.7575" style="stroke: #000000"/>
      </g>
     </g>
    </g>
    <g id="xtick_18">
     <g id="line2d_44">
      <g>
       <use xlink:href="#mfb0c401810" x="326.820274" y="520.7175" style="stroke: #000000"/>
      </g>
     </g>
     <g id="line2d_45">
      <g>
       <use xlink:href="#m9dba7d9c13" x="326.820274" y="21.7575" style="stroke: #000000"/>
      </g>
     </g>
    </g>
    <g id="xtick_19">
     <g id="line2d_46">
      <g>
       <use xlink:href="#mfb0c401810" x="372.497658" y="520.7175" style="stroke: #000000"/>
      </g>
     </g>
     <g id="line2d_47">
      <g>
       <use xlink:href="#m9dba7d9c13" x="372.497658" y="21.7575" style="stroke: #000000"/>
      </g>
     </g>
    </g>
    <g id="xtick_20">
     <g id="line2d_48">
      <g>
       <use xlink:href="#mfb0c401810" x="395.33635" y="520.7175" style="stroke: #000000"/>
      </g>
     </g>
     <g id="line2d_49">
      <g>
       <use xlink:href="#m9dba7d9c13" x="395.33635" y="21.7575" style="stroke: #000000"/>
      </g>
     </g>
    </g>
    <g id="xtick_21">
     <g id="line2d_50">
      <g>
       <use xlink:href="#mfb0c401810" x="418.175042" y="520.7175" style="stroke: #000000"/>
      </g>
     </g>
     <g id="line2d_51">
      <g>
       <use xlink:href="#m9dba7d9c13" x="418.175042" y="21.7575" style="stroke: #000000"/>
      </g>
     </g>
    </g>
    <g id="xtick_22">
     <g id="line2d_52">
      <g>
       <use xlink:href="#mfb0c401810" x="441.013734" y="520.7175" style="stroke: #000000"/>
      </g>
     </g>
     <g id="line2d_53">
      <g>
       <use xlink:href="#m9dba7d9c13" x="441.013734" y="21.7575" style="stroke: #000000"/>
      </g>
     </g>
    </g>
    <g id="xtick_23">
     <g id="line2d_54">
      <g>
       <use xlink:href="#mfb0c401810" x="486.691119" y="520.7175" style="stroke: #000000"/>
      </g>
     </g>
     <g id="line2d_55">
      <g>
       <use xlink:href="#m9dba7d9c13" x="486.691119" y="21.7575" style="stroke: #000000"/>
      </g>
     </g>
    </g>
    <g id="xtick_24">
     <g id="line2d_56">
      <g>
       <use xlink:href="#mfb0c401810" x="509.529811" y="520.7175" style="stroke: #000000"/>
      </g>
     </g>
     <g id="line2d_57">
      <g>
       <use xlink:href="#m9dba7d9c13" x="509.529811" y="21.7575" style="stroke: #000000"/>
      </g>
     </g>
    </g>
    <g id="xtick_25">
     <g id="line2d_58">
      <g>
       <use xlink:href="#mfb0c401810" x="532.368503" y="520.7175" style="stroke: #000000"/>
      </g>
     </g>
     <g id="line2d_59">
      <g>
       <use xlink:href="#m9dba7d9c13" x="532.368503" y="21.7575" style="stroke: #000000"/>
      </g>
     </g>
    </g>
    <g id="xtick_26">
     <g id="line2d_60">
      <g>
       <use xlink:href="#mfb0c401810" x="555.207195" y="520.7175" style="stroke: #000000"/>
      </g>
     </g>
     <g id="line2d_61">
      <g>
       <use xlink:href="#m9dba7d9c13" x="555.207195" y="21.7575" style="stroke: #000000"/>
      </g>
     </g>
    </g>
    <g id="xtick_27">
     <g id="line2d_62">
      <g>
       <use xlink:href="#mfb0c401810" x="600.884579" y="520.7175" style="stroke: #000000"/>
      </g>
     </g>
     <g id="line2d_63">
      <g>
       <use xlink:href="#m9dba7d9c13" x="600.884579" y="21.7575" style="stroke: #000000"/>
      </g>
     </g>
    </g>
    <g id="xtick_28">
     <g id="line2d_64">
      <g>
       <use xlink:href="#mfb0c401810" x="623.723271" y="520.7175" style="stroke: #000000"/>
      </g>
     </g>
     <g id="line2d_65">
      <g>
       <use xlink:href="#m9dba7d9c13" x="623.723271" y="21.7575" style="stroke: #000000"/>
      </g>
     </g>
    </g>
    <g id="xtick_29">
     <g id="line2d_66">
      <g>
       <use xlink:href="#mfb0c401810" x="646.561963" y="520.7175" style="stroke: #000000"/>
      </g>
     </g>
     <g id="line2d_67">
      <g>
       <use xlink:href="#m9dba7d9c13" x="646.561963" y="21.7575" style="stroke: #000000"/>
      </g>
     </g>
    </g>
    <g id="xtick_30">
     <g id="line2d_68">
      <g>
       <use xlink:href="#mfb0c401810" x="669.400655" y="520.7175" style="stroke: #000000"/>
      </g>
     </g>
     <g id="line2d_69">
      <g>
       <use xlink:href="#m9dba7d9c13" x="669.400655" y="21.7575" style="stroke: #000000"/>
      </g>
     </g>
    </g>
    <g id="xtick_31">
     <g id="line2d_70">
      <g>
       <use xlink:href="#mfb0c401810" x="715.078039" y="520.7175" style="stroke: #000000"/>
      </g>
     </g>
     <g id="line2d_71">
      <g>
       <use xlink:href="#m9dba7d9c13" x="715.078039" y="21.7575" style="stroke: #000000"/>
      </g>
     </g>
    </g>
    <g id="xtick_32">
     <g id="line2d_72">
      <g>
       <use xlink:href="#mfb0c401810" x="737.916731" y="520.7175" style="stroke: #000000"/>
      </g>
     </g>
     <g id="line2d_73">
      <g>
       <use xlink:href="#m9dba7d9c13" x="737.916731" y="21.7575" style="stroke: #000000"/>
      </g>
     </g>
    </g>
    <g id="xtick_33">
     <g id="line2d_74">
      <g>
       <use xlink:href="#mfb0c401810" x="760.755424" y="520.7175" style="stroke: #000000"/>
      </g>
     </g>
     <g id="line2d_75">
      <g>
       <use xlink:href="#m9dba7d9c13" x="760.755424" y="21.7575" style="stroke: #000000"/>
      </g>
     </g>
    </g>
    <g id="xtick_34">
     <g id="line2d_76">
      <g>
       <use xlink:href="#mfb0c401810" x="783.594116" y="520.7175" style="stroke: #000000"/>
      </g>
     </g>
     <g id="line2d_77">
      <g>
       <use xlink:href="#m9dba7d9c13" x="783.594116" y="21.7575" style="stroke: #000000"/>
      </g>
     </g>
    </g>
    <g id="xtick_35">
     <g id="line2d_78">
      <g>
       <use xlink:href="#mfb0c401810" x="829.2715" y="520.7175" style="stroke: #000000"/>
      </g>
     </g>
     <g id="line2d_79">
      <g>
       <use xlink:href="#m9dba7d9c13" x="829.2715" y="21.7575" style="stroke: #000000"/>
      </g>
     </g>
    </g>
    <g id="xtick_36">
     <g id="line2d_80">
      <g>
       <use xlink:href="#mfb0c401810" x="852.110192" y="520.7175" style="stroke: #000000"/>
      </g>
     </g>
     <g id="line2d_81">
      <g>
       <use xlink:href="#m9dba7d9c13" x="852.110192" y="21.7575" style="stroke: #000000"/>
      </g>
     </g>
    </g>
    <g id="xtick_37">
     <g id="line2d_82">
      <g>
       <use xlink:href="#mfb0c401810" x="874.948884" y="520.7175" style="stroke: #000000"/>
      </g>
     </g>
     <g id="line2d_83">
      <g>
       <use xlink:href="#m9dba7d9c13" x="874.948884" y="21.7575" style="stroke: #000000"/>
      </g>
     </g>
    </g>
    <g id="xtick_38">
     <g id="line2d_84">
      <g>
       <use xlink:href="#mfb0c401810" x="897.787576" y="520.7175" style="stroke: #000000"/>
      </g>
     </g>
     <g id="line2d_85">
      <g>
       <use xlink:href="#m9dba7d9c13" x="897.787576" y="21.7575" style="stroke: #000000"/>
      </g>
     </g>
    </g>
    <g id="xtick_39">
     <g id="line2d_86">
      <g>
       <use xlink:href="#mfb0c401810" x="943.46496" y="520.7175" style="stroke: #000000"/>
      </g>
     </g>
     <g id="line2d_87">
      <g>
       <use xlink:href="#m9dba7d9c13" x="943.46496" y="21.7575" style="stroke: #000000"/>
      </g>
     </g>
    </g>
    <g id="xtick_40">
     <g id="line2d_88">
      <g>
       <use xlink:href="#mfb0c401810" x="966.303652" y="520.7175" style="stroke: #000000"/>
      </g>
     </g>
     <g id="line2d_89">
      <g>
       <use xlink:href="#m9dba7d9c13" x="966.303652" y="21.7575" style="stroke: #000000"/>
      </g>
     </g>
    </g>
    <g id="xtick_41">
     <g id="line2d_90">
      <g>
       <use xlink:href="#mfb0c401810" x="989.142344" y="520.7175" style="stroke: #000000"/>
      </g>
     </g>
     <g id="line2d_91">
      <g>
       <use xlink:href="#m9dba7d9c13" x="989.142344" y="21.7575" style="stroke: #000000"/>
      </g>
     </g>
    </g>
    <g id="xtick_42">
     <g id="line2d_92">
      <g>
       <use xlink:href="#mfb0c401810" x="1011.981036" y="520.7175" style="stroke: #000000"/>
      </g>
     </g>
     <g id="line2d_93">
      <g>
       <use xlink:href="#m9dba7d9c13" x="1011.981036" y="21.7575" style="stroke: #000000"/>
      </g>
     </g>
    </g>
    <g id="xtick_43">
     <g id="line2d_94">
      <g>
       <use xlink:href="#mfb0c401810" x="1057.65842" y="520.7175" style="stroke: #000000"/>
      </g>
     </g>
     <g id="line2d_95">
      <g>
       <use xlink:href="#m9dba7d9c13" x="1057.65842" y="21.7575" style="stroke: #000000"/>
      </g>
     </g>
    </g>
    <g id="text_10">
     <!-- Time(s) -->
     <g transform="translate(547.83375 555.86) scale(0.16 -0.16)">
      <defs>
       <path id="DejaVuSans-54" d="M -19 4666 
L 3928 4666 
L 3928 4134 
L 2272 4134 
L 2272 0 
L 1638 0 
L 1638 4134 
L -19 4134 
L -19 4666 
z
" transform="scale(0.015625)"/>
       <path id="DejaVuSans-69" d="M 603 3500 
L 1178 3500 
L 1178 0 
L 603 0 
L 603 3500 
z
M 603 4863 
L 1178 4863 
L 1178 4134 
L 603 4134 
L 603 4863 
z
" transform="scale(0.015625)"/>
       <path id="DejaVuSans-6d" d="M 3328 2828 
Q 3544 3216 3844 3400 
Q 4144 3584 4550 3584 
Q 5097 3584 5394 3201 
Q 5691 2819 5691 2113 
L 5691 0 
L 5113 0 
L 5113 2094 
Q 5113 2597 4934 2840 
Q 4756 3084 4391 3084 
Q 3944 3084 3684 2787 
Q 3425 2491 3425 1978 
L 3425 0 
L 2847 0 
L 2847 2094 
Q 2847 2600 2669 2842 
Q 2491 3084 2119 3084 
Q 1678 3084 1418 2786 
Q 1159 2488 1159 1978 
L 1159 0 
L 581 0 
L 581 3500 
L 1159 3500 
L 1159 2956 
Q 1356 3278 1631 3431 
Q 1906 3584 2284 3584 
Q 2666 3584 2933 3390 
Q 3200 3197 3328 2828 
z
" transform="scale(0.015625)"/>
       <path id="DejaVuSans-65" d="M 3597 1894 
L 3597 1613 
L 953 1613 
Q 991 1019 1311 708 
Q 1631 397 2203 397 
Q 2534 397 2845 478 
Q 3156 559 3463 722 
L 3463 178 
Q 3153 47 2828 -22 
Q 2503 -91 2169 -91 
Q 1331 -91 842 396 
Q 353 884 353 1716 
Q 353 2575 817 3079 
Q 1281 3584 2069 3584 
Q 2775 3584 3186 3129 
Q 3597 2675 3597 1894 
z
M 3022 2063 
Q 3016 2534 2758 2815 
Q 2500 3097 2075 3097 
Q 1594 3097 1305 2825 
Q 1016 2553 972 2059 
L 3022 2063 
z
" transform="scale(0.015625)"/>
       <path id="DejaVuSans-28" d="M 1984 4856 
Q 1566 4138 1362 3434 
Q 1159 2731 1159 2009 
Q 1159 1288 1364 580 
Q 1569 -128 1984 -844 
L 1484 -844 
Q 1016 -109 783 600 
Q 550 1309 550 2009 
Q 550 2706 781 3412 
Q 1013 4119 1484 4856 
L 1984 4856 
z
" transform="scale(0.015625)"/>
       <path id="DejaVuSans-73" d="M 2834 3397 
L 2834 2853 
Q 2591 2978 2328 3040 
Q 2066 3103 1784 3103 
Q 1356 3103 1142 2972 
Q 928 2841 928 2578 
Q 928 2378 1081 2264 
Q 1234 2150 1697 2047 
L 1894 2003 
Q 2506 1872 2764 1633 
Q 3022 1394 3022 966 
Q 3022 478 2636 193 
Q 2250 -91 1575 -91 
Q 1294 -91 989 -36 
Q 684 19 347 128 
L 347 722 
Q 666 556 975 473 
Q 1284 391 1588 391 
Q 1994 391 2212 530 
Q 2431 669 2431 922 
Q 2431 1156 2273 1281 
Q 2116 1406 1581 1522 
L 1381 1569 
Q 847 1681 609 1914 
Q 372 2147 372 2553 
Q 372 3047 722 3315 
Q 1072 3584 1716 3584 
Q 2034 3584 2315 3537 
Q 2597 3491 2834 3397 
z
" transform="scale(0.015625)"/>
       <path id="DejaVuSans-29" d="M 513 4856 
L 1013 4856 
Q 1481 4119 1714 3412 
Q 1947 2706 1947 2009 
Q 1947 1309 1714 600 
Q 1481 -109 1013 -844 
L 513 -844 
Q 928 -128 1133 580 
Q 1338 1288 1338 2009 
Q 1338 2731 1133 3434 
Q 928 4138 513 4856 
z
" transform="scale(0.015625)"/>
      </defs>
      <use xlink:href="#DejaVuSans-54"/>
      <use xlink:href="#DejaVuSans-69" x="57.958984"/>
      <use xlink:href="#DejaVuSans-6d" x="85.742188"/>
      <use xlink:href="#DejaVuSans-65" x="183.154297"/>
      <use xlink:href="#DejaVuSans-28" x="244.677734"/>
      <use xlink:href="#DejaVuSans-73" x="283.691406"/>
      <use xlink:href="#DejaVuSans-29" x="335.791016"/>
     </g>
    </g>
   </g>
   <g id="matplotlib.axis_2">
    <g id="ytick_1">
     <g id="line2d_96">
      <path d="M 75.6175 482.44272 
L 1080.0175 482.44272 
" clip-path="url(#p39bbfd1dc4)" style="fill: none; stroke-dasharray: 1.85,0.8; stroke-dashoffset: 0; stroke: #000000; stroke-opacity: 0.5; stroke-width: 0.5"/>
     </g>
     <g id="line2d_97">
      <defs>
       <path id="m5bd2d3cfed" d="M 0 0 
L 6 0 
" style="stroke: #000000"/>
      </defs>
      <g>
       <use xlink:href="#m5bd2d3cfed" x="75.6175" y="482.44272" style="stroke: #000000"/>
      </g>
     </g>
     <g id="line2d_98">
      <defs>
       <path id="ma9f7ab3d2f" d="M 0 0 
L -6 0 
" style="stroke: #000000"/>
      </defs>
      <g>
       <use xlink:href="#ma9f7ab3d2f" x="1080.0175" y="482.44272" style="stroke: #000000"/>
      </g>
     </g>
     <g id="text_11">
      <!-- −0.04 -->
      <g transform="translate(23.085 488.52147) scale(0.16 -0.16)">
       <defs>
        <path id="DejaVuSans-2212" d="M 678 2272 
L 4684 2272 
L 4684 1741 
L 678 1741 
L 678 2272 
z
" transform="scale(0.015625)"/>
        <path id="DejaVuSans-2e" d="M 684 794 
L 1344 794 
L 1344 0 
L 684 0 
L 684 794 
z
" transform="scale(0.015625)"/>
       </defs>
       <use xlink:href="#DejaVuSans-2212"/>
       <use xlink:href="#DejaVuSans-30" x="83.789062"/>
       <use xlink:href="#DejaVuSans-2e" x="147.412109"/>
       <use xlink:href="#DejaVuSans-30" x="179.199219"/>
       <use xlink:href="#DejaVuSans-34" x="242.822266"/>
      </g>
     </g>
    </g>
    <g id="ytick_2">
     <g id="line2d_99">
      <path d="M 75.6175 376.072103 
L 1080.0175 376.072103 
" clip-path="url(#p39bbfd1dc4)" style="fill: none; stroke-dasharray: 1.85,0.8; stroke-dashoffset: 0; stroke: #000000; stroke-opacity: 0.5; stroke-width: 0.5"/>
     </g>
     <g id="line2d_100">
      <g>
       <use xlink:href="#m5bd2d3cfed" x="75.6175" y="376.072103" style="stroke: #000000"/>
      </g>
     </g>
     <g id="line2d_101">
      <g>
       <use xlink:href="#ma9f7ab3d2f" x="1080.0175" y="376.072103" style="stroke: #000000"/>
      </g>
     </g>
     <g id="text_12">
      <!-- −0.02 -->
      <g transform="translate(23.085 382.150853) scale(0.16 -0.16)">
       <use xlink:href="#DejaVuSans-2212"/>
       <use xlink:href="#DejaVuSans-30" x="83.789062"/>
       <use xlink:href="#DejaVuSans-2e" x="147.412109"/>
       <use xlink:href="#DejaVuSans-30" x="179.199219"/>
       <use xlink:href="#DejaVuSans-32" x="242.822266"/>
      </g>
     </g>
    </g>
    <g id="ytick_3">
     <g id="line2d_102">
      <path d="M 75.6175 269.701486 
L 1080.0175 269.701486 
" clip-path="url(#p39bbfd1dc4)" style="fill: none; stroke-dasharray: 1.85,0.8; stroke-dashoffset: 0; stroke: #000000; stroke-opacity: 0.5; stroke-width: 0.5"/>
     </g>
     <g id="line2d_103">
      <g>
       <use xlink:href="#m5bd2d3cfed" x="75.6175" y="269.701486" style="stroke: #000000"/>
      </g>
     </g>
     <g id="line2d_104">
      <g>
       <use xlink:href="#ma9f7ab3d2f" x="1080.0175" y="269.701486" style="stroke: #000000"/>
      </g>
     </g>
     <g id="text_13">
      <!-- 0.00 -->
      <g transform="translate(36.4925 275.780236) scale(0.16 -0.16)">
       <use xlink:href="#DejaVuSans-30"/>
       <use xlink:href="#DejaVuSans-2e" x="63.623047"/>
       <use xlink:href="#DejaVuSans-30" x="95.410156"/>
       <use xlink:href="#DejaVuSans-30" x="159.033203"/>
      </g>
     </g>
    </g>
    <g id="ytick_4">
     <g id="line2d_105">
      <path d="M 75.6175 163.330868 
L 1080.0175 163.330868 
" clip-path="url(#p39bbfd1dc4)" style="fill: none; stroke-dasharray: 1.85,0.8; stroke-dashoffset: 0; stroke: #000000; stroke-opacity: 0.5; stroke-width: 0.5"/>
     </g>
     <g id="line2d_106">
      <g>
       <use xlink:href="#m5bd2d3cfed" x="75.6175" y="163.330868" style="stroke: #000000"/>
      </g>
     </g>
     <g id="line2d_107">
      <g>
       <use xlink:href="#ma9f7ab3d2f" x="1080.0175" y="163.330868" style="stroke: #000000"/>
      </g>
     </g>
     <g id="text_14">
      <!-- 0.02 -->
      <g transform="translate(36.4925 169.409618) scale(0.16 -0.16)">
       <use xlink:href="#DejaVuSans-30"/>
       <use xlink:href="#DejaVuSans-2e" x="63.623047"/>
       <use xlink:href="#DejaVuSans-30" x="95.410156"/>
       <use xlink:href="#DejaVuSans-32" x="159.033203"/>
      </g>
     </g>
    </g>
    <g id="ytick_5">
     <g id="line2d_108">
      <path d="M 75.6175 56.960251 
L 1080.0175 56.960251 
" clip-path="url(#p39bbfd1dc4)" style="fill: none; stroke-dasharray: 1.85,0.8; stroke-dashoffset: 0; stroke: #000000; stroke-opacity: 0.5; stroke-width: 0.5"/>
     </g>
     <g id="line2d_109">
      <g>
       <use xlink:href="#m5bd2d3cfed" x="75.6175" y="56.960251" style="stroke: #000000"/>
      </g>
     </g>
     <g id="line2d_110">
      <g>
       <use xlink:href="#ma9f7ab3d2f" x="1080.0175" y="56.960251" style="stroke: #000000"/>
      </g>
     </g>
     <g id="text_15">
      <!-- 0.04 -->
      <g transform="translate(36.4925 63.039001) scale(0.16 -0.16)">
       <use xlink:href="#DejaVuSans-30"/>
       <use xlink:href="#DejaVuSans-2e" x="63.623047"/>
       <use xlink:href="#DejaVuSans-30" x="95.410156"/>
       <use xlink:href="#DejaVuSans-34" x="159.033203"/>
      </g>
     </g>
    </g>
    <g id="ytick_6">
     <g id="line2d_111">
      <defs>
       <path id="md7a9d5ba0d" d="M 0 0 
L 3 0 
" style="stroke: #000000"/>
      </defs>
      <g>
       <use xlink:href="#md7a9d5ba0d" x="75.6175" y="509.035375" style="stroke: #000000"/>
      </g>
     </g>
     <g id="line2d_112">
      <defs>
       <path id="mc81ec2d150" d="M 0 0 
L -3 0 
" style="stroke: #000000"/>
      </defs>
      <g>
       <use xlink:href="#mc81ec2d150" x="1080.0175" y="509.035375" style="stroke: #000000"/>
      </g>
     </g>
    </g>
    <g id="ytick_7">
     <g id="line2d_113">
      <g>
       <use xlink:href="#md7a9d5ba0d" x="75.6175" y="455.850066" style="stroke: #000000"/>
      </g>
     </g>
     <g id="line2d_114">
      <g>
       <use xlink:href="#mc81ec2d150" x="1080.0175" y="455.850066" style="stroke: #000000"/>
      </g>
     </g>
    </g>
    <g id="ytick_8">
     <g id="line2d_115">
      <g>
       <use xlink:href="#md7a9d5ba0d" x="75.6175" y="429.257412" style="stroke: #000000"/>
      </g>
     </g>
     <g id="line2d_116">
      <g>
       <use xlink:href="#mc81ec2d150" x="1080.0175" y="429.257412" style="stroke: #000000"/>
      </g>
     </g>
    </g>
    <g id="ytick_9">
     <g id="line2d_117">
      <g>
       <use xlink:href="#md7a9d5ba0d" x="75.6175" y="402.664757" style="stroke: #000000"/>
      </g>
     </g>
     <g id="line2d_118">
      <g>
       <use xlink:href="#mc81ec2d150" x="1080.0175" y="402.664757" style="stroke: #000000"/>
      </g>
     </g>
    </g>
    <g id="ytick_10">
     <g id="line2d_119">
      <g>
       <use xlink:href="#md7a9d5ba0d" x="75.6175" y="349.479449" style="stroke: #000000"/>
      </g>
     </g>
     <g id="line2d_120">
      <g>
       <use xlink:href="#mc81ec2d150" x="1080.0175" y="349.479449" style="stroke: #000000"/>
      </g>
     </g>
    </g>
    <g id="ytick_11">
     <g id="line2d_121">
      <g>
       <use xlink:href="#md7a9d5ba0d" x="75.6175" y="322.886794" style="stroke: #000000"/>
      </g>
     </g>
     <g id="line2d_122">
      <g>
       <use xlink:href="#mc81ec2d150" x="1080.0175" y="322.886794" style="stroke: #000000"/>
      </g>
     </g>
    </g>
    <g id="ytick_12">
     <g id="line2d_123">
      <g>
       <use xlink:href="#md7a9d5ba0d" x="75.6175" y="296.29414" style="stroke: #000000"/>
      </g>
     </g>
     <g id="line2d_124">
      <g>
       <use xlink:href="#mc81ec2d150" x="1080.0175" y="296.29414" style="stroke: #000000"/>
      </g>
     </g>
    </g>
    <g id="ytick_13">
     <g id="line2d_125">
      <g>
       <use xlink:href="#md7a9d5ba0d" x="75.6175" y="243.108831" style="stroke: #000000"/>
      </g>
     </g>
     <g id="line2d_126">
      <g>
       <use xlink:href="#mc81ec2d150" x="1080.0175" y="243.108831" style="stroke: #000000"/>
      </g>
     </g>
    </g>
    <g id="ytick_14">
     <g id="line2d_127">
      <g>
       <use xlink:href="#md7a9d5ba0d" x="75.6175" y="216.516177" style="stroke: #000000"/>
      </g>
     </g>
     <g id="line2d_128">
      <g>
       <use xlink:href="#mc81ec2d150" x="1080.0175" y="216.516177" style="stroke: #000000"/>
      </g>
     </g>
    </g>
    <g id="ytick_15">
     <g id="line2d_129">
      <g>
       <use xlink:href="#md7a9d5ba0d" x="75.6175" y="189.923523" style="stroke: #000000"/>
      </g>
     </g>
     <g id="line2d_130">
      <g>
       <use xlink:href="#mc81ec2d150" x="1080.0175" y="189.923523" style="stroke: #000000"/>
      </g>
     </g>
    </g>
    <g id="ytick_16">
     <g id="line2d_131">
      <g>
       <use xlink:href="#md7a9d5ba0d" x="75.6175" y="136.738214" style="stroke: #000000"/>
      </g>
     </g>
     <g id="line2d_132">
      <g>
       <use xlink:href="#mc81ec2d150" x="1080.0175" y="136.738214" style="stroke: #000000"/>
      </g>
     </g>
    </g>
    <g id="ytick_17">
     <g id="line2d_133">
      <g>
       <use xlink:href="#md7a9d5ba0d" x="75.6175" y="110.14556" style="stroke: #000000"/>
      </g>
     </g>
     <g id="line2d_134">
      <g>
       <use xlink:href="#mc81ec2d150" x="1080.0175" y="110.14556" style="stroke: #000000"/>
      </g>
     </g>
    </g>
    <g id="ytick_18">
     <g id="line2d_135">
      <g>
       <use xlink:href="#md7a9d5ba0d" x="75.6175" y="83.552905" style="stroke: #000000"/>
      </g>
     </g>
     <g id="line2d_136">
      <g>
       <use xlink:href="#mc81ec2d150" x="1080.0175" y="83.552905" style="stroke: #000000"/>
      </g>
     </g>
    </g>
    <g id="ytick_19">
     <g id="line2d_137">
      <g>
       <use xlink:href="#md7a9d5ba0d" x="75.6175" y="30.367597" style="stroke: #000000"/>
      </g>
     </g>
     <g id="line2d_138">
      <g>
       <use xlink:href="#mc81ec2d150" x="1080.0175" y="30.367597" style="stroke: #000000"/>
      </g>
     </g>
    </g>
    <g id="text_16">
     <!-- IDR (%) -->
     <g transform="translate(15.7575 301.7025) rotate(-90) scale(0.16 -0.16)">
      <defs>
       <path id="DejaVuSans-49" d="M 628 4666 
L 1259 4666 
L 1259 0 
L 628 0 
L 628 4666 
z
" transform="scale(0.015625)"/>
       <path id="DejaVuSans-44" d="M 1259 4147 
L 1259 519 
L 2022 519 
Q 2988 519 3436 956 
Q 3884 1394 3884 2338 
Q 3884 3275 3436 3711 
Q 2988 4147 2022 4147 
L 1259 4147 
z
M 628 4666 
L 1925 4666 
Q 3281 4666 3915 4102 
Q 4550 3538 4550 2338 
Q 4550 1131 3912 565 
Q 3275 0 1925 0 
L 628 0 
L 628 4666 
z
" transform="scale(0.015625)"/>
       <path id="DejaVuSans-52" d="M 2841 2188 
Q 3044 2119 3236 1894 
Q 3428 1669 3622 1275 
L 4263 0 
L 3584 0 
L 2988 1197 
Q 2756 1666 2539 1819 
Q 2322 1972 1947 1972 
L 1259 1972 
L 1259 0 
L 628 0 
L 628 4666 
L 2053 4666 
Q 2853 4666 3247 4331 
Q 3641 3997 3641 3322 
Q 3641 2881 3436 2590 
Q 3231 2300 2841 2188 
z
M 1259 4147 
L 1259 2491 
L 2053 2491 
Q 2509 2491 2742 2702 
Q 2975 2913 2975 3322 
Q 2975 3731 2742 3939 
Q 2509 4147 2053 4147 
L 1259 4147 
z
" transform="scale(0.015625)"/>
       <path id="DejaVuSans-20" transform="scale(0.015625)"/>
       <path id="DejaVuSans-25" d="M 4653 2053 
Q 4381 2053 4226 1822 
Q 4072 1591 4072 1178 
Q 4072 772 4226 539 
Q 4381 306 4653 306 
Q 4919 306 5073 539 
Q 5228 772 5228 1178 
Q 5228 1588 5073 1820 
Q 4919 2053 4653 2053 
z
M 4653 2450 
Q 5147 2450 5437 2106 
Q 5728 1763 5728 1178 
Q 5728 594 5436 251 
Q 5144 -91 4653 -91 
Q 4153 -91 3862 251 
Q 3572 594 3572 1178 
Q 3572 1766 3864 2108 
Q 4156 2450 4653 2450 
z
M 1428 4353 
Q 1159 4353 1004 4120 
Q 850 3888 850 3481 
Q 850 3069 1003 2837 
Q 1156 2606 1428 2606 
Q 1700 2606 1854 2837 
Q 2009 3069 2009 3481 
Q 2009 3884 1853 4118 
Q 1697 4353 1428 4353 
z
M 4250 4750 
L 4750 4750 
L 1831 -91 
L 1331 -91 
L 4250 4750 
z
M 1428 4750 
Q 1922 4750 2215 4408 
Q 2509 4066 2509 3481 
Q 2509 2891 2217 2550 
Q 1925 2209 1428 2209 
Q 931 2209 642 2551 
Q 353 2894 353 3481 
Q 353 4063 643 4406 
Q 934 4750 1428 4750 
z
" transform="scale(0.015625)"/>
      </defs>
      <use xlink:href="#DejaVuSans-49"/>
      <use xlink:href="#DejaVuSans-44" x="29.492188"/>
      <use xlink:href="#DejaVuSans-52" x="106.494141"/>
      <use xlink:href="#DejaVuSans-20" x="175.976562"/>
      <use xlink:href="#DejaVuSans-28" x="207.763672"/>
      <use xlink:href="#DejaVuSans-25" x="246.777344"/>
      <use xlink:href="#DejaVuSans-29" x="341.796875"/>
     </g>
    </g>
   </g>
   <g id="line2d_139">
    <path d="M 121.272045 269.701486 
L 121.728819 270.940222 
L 122.185593 272.88876 
L 122.642367 270.16261 
L 123.555915 259.55148 
L 124.012689 256.686939 
L 124.469462 257.266642 
L 124.926236 262.28978 
L 125.839784 277.147865 
L 126.753332 297.825994 
L 127.210105 291.668448 
L 127.666879 271.232715 
L 128.123653 266.996279 
L 128.580427 290.302794 
L 129.037201 298.624732 
L 129.493975 257.635149 
L 129.950748 193.286091 
L 130.407522 162.522789 
L 130.864296 188.132917 
L 131.32107 246.185579 
L 131.777844 332.685154 
L 132.234618 379.293924 
L 133.148165 330.975252 
L 133.604939 316.422805 
L 134.061713 308.549602 
L 134.518487 294.383146 
L 134.975261 256.886366 
L 135.432035 180.262225 
L 135.888808 148.614051 
L 136.345582 201.863954 
L 136.802356 183.734468 
L 137.25913 206.880505 
L 137.715904 338.182974 
L 138.172678 386.462937 
L 139.086225 292.437458 
L 139.542999 297.90161 
L 139.999773 311.742372 
L 140.456547 285.273598 
L 140.913321 246.766775 
L 141.370094 251.005763 
L 141.826868 266.542541 
L 142.283642 238.376925 
L 142.740416 178.484451 
L 143.19719 163.410564 
L 143.653964 205.22402 
L 144.567511 349.540732 
L 145.024285 375.355116 
L 145.481059 351.756074 
L 145.937833 336.091863 
L 146.851381 226.988437 
L 147.308154 209.919315 
L 147.764928 219.097541 
L 148.678476 196.536301 
L 149.13525 251.30481 
L 149.592024 350.360819 
L 150.048797 386.397687 
L 150.505571 313.601778 
L 150.962345 219.894234 
L 151.419119 215.28859 
L 151.875893 283.917929 
L 152.332667 328.245515 
L 152.789441 294.168664 
L 153.246214 221.145335 
L 153.702988 179.8129 
L 154.159762 219.901596 
L 154.616536 313.419028 
L 155.07331 342.539315 
L 155.986857 202.807459 
L 156.443631 237.237104 
L 156.900405 325.783528 
L 157.357179 364.978747 
L 157.813953 345.275938 
L 158.270727 310.347036 
L 158.7275 262.892278 
L 159.184274 185.282382 
L 159.641048 149.267843 
L 160.554596 242.688353 
L 161.01137 334.487916 
L 161.468144 355.757965 
L 161.924917 289.00234 
L 162.381691 241.413599 
L 162.838465 272.419672 
L 163.295239 333.688644 
L 163.752013 346.533774 
L 164.208787 291.482338 
L 164.66556 217.159116 
L 165.122334 181.20131 
L 165.579108 197.93468 
L 166.492656 283.267429 
L 166.94943 292.65339 
L 167.406203 284.154663 
L 167.862977 292.071062 
L 168.319751 314.479027 
L 168.776525 297.696098 
L 169.233299 227.656784 
L 169.690073 193.109878 
L 170.146846 248.282835 
L 170.60362 328.048937 
L 171.060394 364.071203 
L 171.517168 351.058181 
L 172.88749 230.47928 
L 173.344263 178.591542 
L 173.801037 162.125193 
L 174.257811 193.508807 
L 174.714585 187.177862 
L 175.171359 259.31282 
L 175.628133 380.052298 
L 176.084906 386.135293 
L 176.54168 327.175366 
L 176.998454 364.193301 
L 177.455228 346.192857 
L 178.368776 177.236822 
L 178.825549 165.84636 
L 179.282323 191.990404 
L 179.739097 180.190017 
L 180.195871 214.096454 
L 180.652645 334.249508 
L 181.109419 398.747491 
L 181.566193 345.266992 
L 182.022966 344.250159 
L 182.47974 359.595489 
L 183.393288 155.403154 
L 183.850062 164.426813 
L 184.306836 251.451478 
L 184.763609 306.686497 
L 185.220383 271.070109 
L 185.677157 209.092976 
L 186.133931 216.816241 
L 187.047479 348.682543 
L 187.504252 338.777548 
L 188.4178 205.337849 
L 188.874574 192.930994 
L 189.331348 229.144595 
L 190.244896 318.909845 
L 190.701669 353.277544 
L 191.158443 353.927237 
L 191.615217 301.93065 
L 192.071991 230.981586 
L 192.528765 207.330868 
L 193.442312 291.510924 
L 193.899086 280.249976 
L 194.35586 233.954065 
L 194.812634 230.162192 
L 195.726182 369.643015 
L 196.182955 370.500276 
L 196.639729 313.932277 
L 197.096503 229.733716 
L 197.553277 180.266021 
L 198.010051 207.152648 
L 198.923599 353.834923 
L 199.380372 367.157535 
L 199.837146 332.359745 
L 201.207468 187.112363 
L 201.664242 166.490496 
L 202.121015 185.615996 
L 202.577789 184.376858 
L 203.034563 176.43959 
L 204.404885 331.161891 
L 204.861658 355.371371 
L 205.318432 313.202755 
L 205.775206 223.789801 
L 206.23198 175.75255 
L 206.688754 181.780334 
L 207.602301 219.437592 
L 208.515849 155.673319 
L 208.972623 190.450211 
L 209.429397 187.375761 
L 209.886171 166.726248 
L 210.342945 184.017686 
L 210.799718 184.853819 
L 211.256492 172.904276 
L 211.713266 181.381705 
L 212.626814 463.930444 
L 213.083588 301.755096 
L 213.540361 334.274523 
L 213.997135 416.957949 
L 214.453909 334.319625 
L 214.910683 340.947487 
L 215.367457 390.548157 
L 215.824231 349.49001 
L 216.281004 347.165762 
L 216.737778 375.955771 
L 217.194552 356.195989 
L 217.651326 351.829867 
L 218.1081 368.087125 
L 218.564874 358.949192 
L 219.021648 354.923892 
L 219.478421 144.087284 
L 219.935195 90.534102 
L 220.391969 268.189226 
L 220.848743 172.767595 
L 221.305517 126.333901 
L 221.762291 223.599114 
L 222.675838 148.707362 
L 223.132612 200.814544 
L 223.589386 184.394999 
L 224.04616 162.165889 
L 224.502934 189.398207 
L 224.959707 183.892013 
L 225.416481 170.017543 
L 225.873255 190.857673 
L 226.330029 452.923356 
L 226.786803 404.9036 
L 227.243577 265.652839 
L 227.700351 399.807861 
L 228.157124 392.335995 
L 228.613898 309.385635 
L 229.070672 375.672252 
L 229.527446 381.357137 
L 229.98422 333.383206 
L 230.440994 365.122052 
L 230.897767 256.765514 
L 231.354541 44.4375 
L 231.811315 227.471772 
L 232.268089 233.093856 
L 232.724863 108.431057 
L 233.181637 197.076545 
L 233.63841 213.698655 
L 234.095184 323.720139 
L 234.551958 476.490641 
L 235.008732 298.246814 
L 235.465506 328.631218 
L 235.92228 423.446485 
L 236.379054 333.325745 
L 236.835827 337.465549 
L 237.292601 393.870538 
L 237.749375 349.35563 
L 238.206149 345.032297 
L 238.662923 322.801403 
L 239.119697 72.517731 
L 240.033244 261.835908 
L 240.490018 129.488146 
L 240.946792 162.528085 
L 241.403566 359.787922 
L 241.86034 465.461053 
L 242.317113 282.83833 
L 243.230661 419.867666 
L 243.687435 323.573496 
L 244.144209 308.596908 
L 244.600983 139.594236 
L 245.057756 131.714417 
L 245.971304 425.571965 
L 246.884852 310.257447 
L 247.341626 390.414915 
L 247.7984 369.348638 
L 248.711947 93.027104 
L 249.168721 215.402406 
L 249.625495 210.027329 
L 250.082269 133.584858 
L 250.539043 193.759183 
L 250.995816 199.589866 
L 251.45259 155.639941 
L 252.366138 217.771603 
L 252.822912 276.578348 
L 253.279686 284.625825 
L 253.736459 267.436073 
L 254.193233 284.979662 
L 255.106781 350.579682 
L 255.563555 363.928644 
L 256.020329 354.777898 
L 256.477103 330.421944 
L 256.933876 254.374452 
L 257.39065 151.470557 
L 257.847424 162.928478 
L 258.304198 210.665734 
L 258.760972 221.771365 
L 259.674519 391.937512 
L 260.588067 335.922203 
L 261.044841 374.832477 
L 261.501615 364.23178 
L 261.958389 346.535935 
L 262.415162 366.657008 
L 262.871936 363.440558 
L 263.32871 352.494472 
L 263.785484 298.588218 
L 264.242258 99.886265 
L 264.699032 161.960297 
L 265.155806 244.784296 
L 265.612579 143.065339 
L 266.069353 163.746649 
L 266.526127 215.511118 
L 266.982901 163.629383 
L 267.439675 261.90858 
L 267.896449 498.0375 
L 268.353222 323.503452 
L 268.809996 295.79413 
L 269.26677 430.868963 
L 270.180318 283.491049 
L 270.637092 221.011968 
L 271.093865 208.849693 
L 272.007413 348.866111 
L 272.464187 325.647258 
L 273.377735 130.969024 
L 273.834509 192.483492 
L 274.291282 202.048393 
L 274.748056 154.699643 
L 275.20483 183.453577 
L 275.661604 193.431928 
L 276.118378 167.106805 
L 277.031925 192.226453 
L 277.488699 271.829633 
L 277.945473 384.183655 
L 278.402247 379.984095 
L 279.315795 269.634889 
L 279.772568 144.03215 
L 280.229342 155.158999 
L 280.686116 220.78496 
L 281.14289 165.292165 
L 281.599664 163.177729 
L 282.056438 201.317312 
L 282.513211 174.466817 
L 282.969985 169.171301 
L 283.426759 190.852623 
L 283.883533 178.264618 
L 284.340307 173.341529 
L 284.797081 185.515661 
L 285.253855 263.562411 
L 285.710628 422.189324 
L 286.167402 372.824607 
L 286.624176 309.484985 
L 287.08095 388.484518 
L 287.537724 371.741321 
L 287.994498 332.016315 
L 288.451271 372.529277 
L 288.908045 368.728174 
L 289.364819 344.843285 
L 289.821593 365.033453 
L 290.278367 365.84459 
L 290.735141 351.936704 
L 291.191914 361.699681 
L 291.648688 363.72587 
L 292.105462 355.726942 
L 292.562236 360.230079 
L 293.01901 361.9552 
L 293.475784 311.781285 
L 293.932558 208.617674 
L 294.389331 181.548816 
L 294.846105 232.769624 
L 295.302879 306.288364 
L 295.759653 334.613467 
L 296.216427 315.012449 
L 296.673201 262.819922 
L 297.129974 170.459395 
L 297.586748 147.810726 
L 298.043522 208.787941 
L 298.500296 179.002646 
L 298.95707 160.895042 
L 299.413844 193.957415 
L 300.327391 168.919229 
L 300.784165 186.833535 
L 301.697713 319.813004 
L 302.611261 284.666358 
L 303.068034 295.623307 
L 303.524808 285.621457 
L 303.981582 257.411273 
L 304.438356 266.80649 
L 304.89513 311.507087 
L 305.351904 373.151794 
L 305.808677 374.375491 
L 306.265451 340.35941 
L 306.722225 364.440022 
L 307.178999 321.115525 
L 307.635773 120.092867 
L 308.092547 141.650194 
L 308.54932 246.525731 
L 309.006094 250.809527 
L 309.462868 347.89616 
L 309.919642 401.059122 
L 310.376416 337.04747 
L 310.83319 349.314759 
L 311.289964 382.203741 
L 311.746737 349.721681 
L 312.203511 283.183571 
L 312.660285 108.025856 
L 313.117059 164.89942 
L 313.573833 237.318521 
L 314.030607 146.620029 
L 314.48738 166.015773 
L 314.944154 211.525591 
L 315.400928 165.067178 
L 315.857702 171.488781 
L 316.314476 381.296106 
L 316.77125 444.338002 
L 317.228023 284.013727 
L 317.684797 360.07558 
L 318.141571 409.06 
L 318.598345 322.94255 
L 319.055119 354.067645 
L 319.511893 362.287953 
L 320.42544 112.57592 
L 320.882214 196.261013 
L 321.338988 211.2473 
L 321.795762 145.365274 
L 322.252536 184.265496 
L 322.70931 201.727737 
L 323.166083 286.016035 
L 323.622857 405.186798 
L 324.079631 363.286491 
L 324.536405 268.35795 
L 324.993179 231.932169 
L 325.449953 246.90983 
L 325.906726 225.858038 
L 326.3635 191.72056 
L 326.820274 230.272876 
L 327.277048 328.987183 
L 327.733822 388.301121 
L 328.190596 353.535756 
L 328.647369 344.074452 
L 329.104143 368.161713 
L 330.017691 353.061487 
L 330.474465 363.848219 
L 330.931239 360.648019 
L 331.388013 292.971539 
L 331.844786 129.183393 
L 332.30156 150.379788 
L 332.758334 233.973895 
L 333.215108 158.686355 
L 333.671882 159.44804 
L 334.128656 208.46715 
L 334.585429 171.862471 
L 335.042203 218.667745 
L 335.498977 382.396367 
L 335.955751 400.031009 
L 336.869299 243.631894 
L 337.326072 161.298174 
L 337.782846 163.155242 
L 338.23962 203.894779 
L 338.696394 202.026988 
L 339.609942 394.41437 
L 340.066716 363.369975 
L 340.523489 315.666372 
L 340.980263 282.995266 
L 341.437037 270.654609 
L 341.893811 273.780031 
L 342.350585 271.978869 
L 342.807359 277.97835 
L 343.264132 295.415652 
L 343.720906 300.626073 
L 344.634454 278.108255 
L 345.091228 277.920344 
L 345.548002 271.528773 
L 346.004775 223.668678 
L 346.461549 148.688506 
L 347.375097 203.113626 
L 347.831871 165.134925 
L 348.288645 175.017387 
L 348.745419 195.90777 
L 349.658966 436.017816 
L 350.11574 333.998288 
L 350.572514 328.824708 
L 351.029288 399.60575 
L 351.942835 310.443251 
L 352.399609 187.221381 
L 352.856383 128.800361 
L 353.313157 212.123616 
L 353.769931 221.506359 
L 354.226705 241.447227 
L 354.683478 284.075313 
L 355.140252 309.963669 
L 356.0538 293.657791 
L 356.510574 320.725765 
L 356.967348 370.578668 
L 357.424121 368.687625 
L 357.880895 335.304461 
L 358.337669 277.640138 
L 358.794443 202.957992 
L 359.251217 154.45403 
L 359.707991 184.962714 
L 360.164765 198.708257 
L 360.621538 252.670373 
L 361.078312 343.416674 
L 361.535086 376.743833 
L 361.99186 348.462251 
L 362.448634 303.091779 
L 362.905408 244.466324 
L 363.362181 201.933435 
L 363.818955 187.468561 
L 364.275729 182.065672 
L 364.732503 179.460783 
L 365.189277 201.7636 
L 366.102824 359.023776 
L 366.559598 382.880263 
L 367.016372 342.859438 
L 367.473146 338.118499 
L 367.92992 274.174837 
L 368.386694 172.67088 
L 368.843468 152.831939 
L 369.300241 210.812047 
L 370.213789 354.085365 
L 370.670563 342.778094 
L 371.584111 222.998323 
L 372.040884 206.831208 
L 372.497658 224.361209 
L 372.954432 232.08532 
L 373.411206 205.137551 
L 373.86798 187.957076 
L 374.324754 233.386669 
L 374.781527 316.625187 
L 375.238301 374.414482 
L 375.695075 364.575027 
L 376.151849 345.558416 
L 376.608623 353.860057 
L 377.065397 311.876823 
L 377.978944 152.558894 
L 378.892492 199.708845 
L 379.349266 168.010603 
L 379.80604 207.472932 
L 380.262814 310.901162 
L 380.719587 366.659988 
L 381.176361 357.126279 
L 381.633135 338.136596 
L 382.089909 326.862458 
L 382.546683 319.704829 
L 383.003457 309.159794 
L 384.373778 232.879334 
L 384.830552 222.424203 
L 385.287326 214.579198 
L 385.7441 208.740054 
L 386.200874 212.021631 
L 386.657647 234.113551 
L 388.027969 347.537033 
L 388.484743 338.878958 
L 389.39829 273.169925 
L 389.855064 259.035847 
L 390.311838 254.338368 
L 391.225386 233.098035 
L 391.68216 230.559298 
L 392.138933 230.070172 
L 392.595707 239.17381 
L 393.509255 295.438486 
L 393.966029 308.260118 
L 394.422803 306.537352 
L 394.879576 306.212117 
L 395.33635 310.247623 
L 395.793124 309.669752 
L 396.249898 295.874326 
L 396.706672 263.305642 
L 397.163446 221.20962 
L 397.62022 197.796442 
L 398.076993 216.442579 
L 398.990541 311.890236 
L 399.447315 312.61874 
L 400.360863 236.749193 
L 400.817636 223.46635 
L 401.27441 245.372038 
L 401.731184 285.485859 
L 402.187958 310.153998 
L 402.644732 303.093792 
L 403.558279 250.980834 
L 404.015053 235.415615 
L 404.471827 238.028399 
L 405.842149 283.697046 
L 406.298923 291.37249 
L 406.755696 293.221266 
L 407.669244 286.574805 
L 408.126018 288.826074 
L 408.582792 293.251561 
L 409.039566 285.671301 
L 409.953113 250.906867 
L 410.409887 244.39482 
L 410.866661 241.033124 
L 411.323435 240.251093 
L 411.780209 244.081029 
L 412.236982 260.068157 
L 413.15053 309.32737 
L 413.607304 311.454454 
L 414.064078 291.983211 
L 414.977626 247.517457 
L 415.434399 232.748738 
L 415.891173 223.86692 
L 416.347947 232.640876 
L 417.261495 313.431237 
L 417.718269 330.230334 
L 418.175042 321.042916 
L 419.08859 293.384314 
L 419.545364 282.39895 
L 420.002138 264.083855 
L 420.458912 238.702365 
L 420.915685 221.420579 
L 421.372459 221.660208 
L 421.829233 232.951518 
L 422.286007 241.001001 
L 422.742781 243.358475 
L 423.199555 255.3844 
L 424.113102 317.57331 
L 424.569876 326.834373 
L 425.02665 309.489919 
L 425.483424 287.721988 
L 425.940198 276.826247 
L 426.396972 273.393568 
L 426.853745 271.543445 
L 427.310519 267.164542 
L 427.767293 260.525001 
L 428.680841 253.46297 
L 429.137615 246.145885 
L 429.594388 242.020877 
L 430.051162 243.166307 
L 430.507936 254.57282 
L 430.96471 277.429616 
L 431.421484 292.749091 
L 431.878258 286.64836 
L 432.335031 273.54086 
L 432.791805 268.981486 
L 433.248579 272.197217 
L 433.705353 271.280222 
L 434.162127 258.991707 
L 434.618901 250.006147 
L 435.075675 259.421387 
L 435.532448 282.361387 
L 435.989222 298.684025 
L 436.445996 297.519551 
L 437.359544 275.70017 
L 437.816318 277.249611 
L 438.729865 298.556054 
L 439.186639 301.151479 
L 439.643413 289.130452 
L 440.556961 243.350529 
L 441.013734 228.458669 
L 441.470508 227.737265 
L 441.927282 244.605748 
L 442.384056 276.421615 
L 442.84083 299.777272 
L 443.297604 290.667783 
L 444.211151 214.935438 
L 444.667925 203.408377 
L 445.124699 232.385277 
L 445.581473 285.928152 
L 446.038247 323.362033 
L 446.495021 322.134883 
L 447.408568 286.003871 
L 447.865342 270.941478 
L 448.77889 225.157063 
L 449.235664 223.644777 
L 450.149211 264.688327 
L 450.605985 269.699719 
L 451.062759 266.875564 
L 451.519533 271.060417 
L 452.433081 298.600681 
L 452.889854 293.323206 
L 453.346628 277.948152 
L 453.803402 269.463441 
L 454.260176 271.599188 
L 454.71695 275.854669 
L 455.173724 273.654673 
L 456.087271 257.090334 
L 456.544045 256.927989 
L 457.457593 267.224586 
L 457.914367 268.341615 
L 458.37114 268.012436 
L 459.741462 276.176654 
L 460.65501 289.205299 
L 461.111784 292.767502 
L 461.568557 292.880506 
L 462.025331 284.25091 
L 462.938879 238.247783 
L 463.395653 228.939279 
L 463.852427 238.794661 
L 464.765974 276.697798 
L 465.222748 287.418616 
L 465.679522 290.008249 
L 466.136296 289.388591 
L 466.59307 286.004275 
L 467.049843 284.402195 
L 467.506617 288.957781 
L 467.963391 290.594 
L 468.420165 274.364567 
L 468.876939 242.280505 
L 469.333713 219.042662 
L 469.790486 223.821946 
L 470.704034 279.416241 
L 471.160808 283.590146 
L 471.617582 270.574999 
L 472.074356 260.769469 
L 472.53113 262.2158 
L 472.987903 272.573477 
L 473.444677 286.393362 
L 473.901451 293.42921 
L 474.358225 286.776502 
L 475.271773 257.465789 
L 475.728546 254.953422 
L 476.18532 257.786014 
L 476.642094 256.483154 
L 477.098868 249.410509 
L 477.555642 244.83511 
L 478.012416 252.918498 
L 478.925963 292.143269 
L 479.382737 300.384985 
L 479.839511 299.556912 
L 480.296285 294.791088 
L 480.753059 285.634261 
L 482.12338 230.466221 
L 482.580154 225.889648 
L 483.036928 239.28204 
L 483.950476 309.474622 
L 484.407249 321.236484 
L 484.864023 307.992284 
L 485.777571 259.302255 
L 486.234345 252.390141 
L 486.691119 256.118584 
L 487.147892 253.854101 
L 488.06144 222.721432 
L 488.518214 230.011913 
L 489.431762 295.972424 
L 489.888536 299.694753 
L 490.345309 282.554437 
L 490.802083 271.001269 
L 491.258857 277.37969 
L 491.715631 288.629477 
L 492.172405 284.889316 
L 493.085952 250.976967 
L 493.542726 247.367837 
L 493.9995 255.981631 
L 494.913048 289.472283 
L 495.369822 294.229716 
L 495.826595 288.907973 
L 496.740143 268.909757 
L 497.196917 264.840696 
L 497.653691 269.632271 
L 498.567239 287.484169 
L 499.024012 290.2485 
L 499.480786 289.004849 
L 499.93756 283.46372 
L 500.851108 257.651265 
L 501.307882 250.744658 
L 501.764655 250.994511 
L 502.221429 253.217629 
L 502.678203 253.191077 
L 503.134977 249.190166 
L 503.591751 244.021776 
L 504.048525 243.445564 
L 504.505298 249.041641 
L 504.962072 260.803664 
L 506.332394 307.773039 
L 506.789168 310.695215 
L 507.245941 298.610134 
L 508.616263 225.008583 
L 509.073037 230.656171 
L 509.986585 276.772708 
L 510.443358 288.374913 
L 510.900132 287.755169 
L 511.356906 279.735502 
L 511.81368 267.554474 
L 512.270454 258.945306 
L 512.727228 261.896425 
L 513.184001 274.91211 
L 513.640775 283.538183 
L 514.097549 276.186114 
L 514.554323 261.647372 
L 515.011097 254.939962 
L 515.467871 264.045969 
L 515.924644 284.487262 
L 516.381418 298.922474 
L 516.838192 296.946086 
L 517.294966 281.630324 
L 517.75174 261.209727 
L 518.208514 249.333427 
L 518.665288 254.273683 
L 519.578835 286.956968 
L 520.035609 291.149101 
L 520.492383 278.9164 
L 520.949157 260.080584 
L 521.405931 247.116672 
L 521.862704 245.808007 
L 522.319478 259.482956 
L 522.776252 283.844293 
L 523.233026 300.697448 
L 523.6898 297.265385 
L 524.603347 264.483923 
L 525.060121 265.991621 
L 525.516895 280.027241 
L 525.973669 286.04363 
L 526.430443 275.136572 
L 526.887217 260.000168 
L 527.343991 255.301208 
L 528.257538 265.330493 
L 528.714312 264.812662 
L 529.171086 262.734452 
L 529.62786 268.056003 
L 530.084634 280.058827 
L 530.541407 286.403273 
L 530.998181 280.894105 
L 531.454955 270.925618 
L 531.911729 265.127664 
L 532.368503 265.538582 
L 533.738824 277.389414 
L 534.195598 277.143045 
L 534.652372 274.107518 
L 535.109146 270.300131 
L 536.479467 262.856763 
L 537.393015 252.856809 
L 537.849789 253.652839 
L 538.306563 260.625768 
L 539.22011 278.88005 
L 539.676884 280.573832 
L 540.133658 273.873087 
L 540.590432 262.341878 
L 541.047206 255.726099 
L 541.50398 259.318957 
L 542.417527 276.810237 
L 542.874301 277.023522 
L 543.787849 267.0143 
L 544.244623 267.576836 
L 544.701396 271.518032 
L 545.15817 273.715215 
L 545.614944 268.882796 
L 546.071718 260.068777 
L 546.528492 256.608123 
L 546.985266 259.803912 
L 547.898813 269.961347 
L 548.812361 277.769767 
L 549.269135 279.688388 
L 549.725909 274.489756 
L 550.182683 265.859827 
L 550.639456 261.431321 
L 551.09623 262.396766 
L 552.009778 270.604048 
L 552.923326 278.341492 
L 553.836873 282.716049 
L 554.293647 283.556489 
L 554.750421 280.389525 
L 555.207195 268.738101 
L 555.663969 251.974851 
L 556.120743 243.191431 
L 556.577516 251.442441 
L 557.491064 293.21609 
L 557.947838 292.326627 
L 558.861386 246.497687 
L 559.318159 240.975959 
L 559.774933 258.638288 
L 560.231707 283.752929 
L 560.688481 293.042676 
L 561.145255 283.931398 
L 561.602029 270.320379 
L 562.058802 262.488783 
L 562.515576 263.15445 
L 563.429124 274.801201 
L 563.885898 274.943681 
L 565.256219 261.261225 
L 565.712993 260.688064 
L 566.169767 262.755873 
L 566.626541 261.953593 
L 567.540089 248.619206 
L 567.996862 247.924683 
L 568.453636 259.071828 
L 568.91041 280.158578 
L 569.367184 295.43047 
L 569.823958 295.678376 
L 570.737505 279.572028 
L 571.651053 261.167385 
L 572.107827 256.746836 
L 572.564601 258.734471 
L 573.478149 274.656258 
L 573.934922 271.480721 
L 574.391696 262.225026 
L 574.84847 257.759674 
L 575.305244 260.801312 
L 576.218792 274.894169 
L 576.675565 279.314943 
L 577.132339 279.351627 
L 578.502661 271.662904 
L 578.959435 268.157702 
L 579.416208 266.896579 
L 579.872982 269.368902 
L 580.329756 274.472521 
L 580.78653 276.662492 
L 581.243304 271.929228 
L 581.700078 263.52045 
L 582.156851 258.548987 
L 582.613625 261.610117 
L 583.527173 276.627615 
L 583.983947 277.112107 
L 584.440721 273.701484 
L 584.897495 274.383208 
L 585.811042 287.630848 
L 586.267816 283.90608 
L 587.181364 254.655607 
L 587.638138 247.520912 
L 588.094911 251.109416 
L 589.465233 279.829535 
L 589.922007 280.759876 
L 590.378781 276.788605 
L 590.835554 270.368387 
L 591.292328 266.336587 
L 591.749102 268.735037 
L 592.205876 274.551829 
L 592.66265 277.165616 
L 593.119424 273.966108 
L 593.576198 268.377227 
L 594.032971 265.136716 
L 594.489745 264.601497 
L 594.946519 264.339479 
L 595.403293 265.985325 
L 596.316841 275.128536 
L 596.773614 277.969208 
L 597.230388 276.986269 
L 598.143936 269.460436 
L 598.60071 270.477272 
L 599.514257 279.95121 
L 599.971031 281.135798 
L 600.427805 276.778457 
L 600.884579 269.201312 
L 601.341353 264.963388 
L 601.798127 268.443351 
L 602.254901 275.262555 
L 602.711674 276.422699 
L 603.168448 267.923823 
L 603.625222 256.266758 
L 604.081996 252.068645 
L 604.53877 257.882662 
L 605.452317 279.581625 
L 605.909091 284.279766 
L 606.365865 284.482324 
L 606.822639 283.071554 
L 607.279413 279.345428 
L 607.736187 271.635664 
L 608.19296 261.963096 
L 608.649734 255.516704 
L 609.106508 255.241248 
L 609.563282 258.316013 
L 610.020056 258.487367 
L 610.933604 251.15057 
L 611.390377 251.384168 
L 611.847151 261.410095 
L 612.760699 293.891226 
L 613.217473 297.215029 
L 613.674247 290.578424 
L 614.587794 256.610801 
L 615.044568 248.34491 
L 615.501342 251.684081 
L 615.958116 257.879734 
L 616.41489 260.494645 
L 616.871663 259.15457 
L 617.328437 258.801133 
L 617.785211 266.214396 
L 618.241985 278.203781 
L 618.698759 283.324812 
L 619.155533 278.512178 
L 619.612306 270.916782 
L 620.06908 267.624996 
L 620.525854 267.299639 
L 620.982628 266.33119 
L 621.439402 266.639357 
L 621.896176 269.888374 
L 622.35295 272.014761 
L 622.809723 269.007429 
L 623.266497 263.553243 
L 623.723271 263.080127 
L 624.180045 271.638386 
L 624.636819 283.344335 
L 625.093593 289.027322 
L 625.550366 284.901195 
L 626.463914 264.418246 
L 626.920688 258.399952 
L 627.377462 257.329317 
L 627.834236 260.598066 
L 629.661331 280.113272 
L 630.118105 278.669476 
L 631.031653 264.25266 
L 631.488426 263.125314 
L 632.401974 269.010021 
L 632.858748 269.112884 
L 633.772296 265.208818 
L 634.229069 265.743792 
L 634.685843 268.16103 
L 635.142617 273.012621 
L 635.599391 280.021001 
L 636.056165 284.213983 
L 636.512939 281.607945 
L 637.426486 266.567425 
L 637.88326 266.514883 
L 638.340034 271.805072 
L 638.796808 275.55353 
L 639.253582 273.670453 
L 640.167129 263.993894 
L 640.623903 260.631934 
L 641.080677 260.756294 
L 641.994225 270.639475 
L 642.450999 271.850661 
L 643.364546 263.536106 
L 643.82132 264.324984 
L 644.278094 268.43094 
L 644.734868 271.110838 
L 645.191642 271.475226 
L 645.648415 270.534888 
L 646.105189 268.447971 
L 647.018737 262.835751 
L 647.475511 262.721312 
L 647.932285 264.955509 
L 648.389059 268.494917 
L 649.302606 279.624396 
L 649.75938 282.223003 
L 650.216154 279.953098 
L 650.672928 274.082717 
L 651.129702 270.148517 
L 651.586475 271.132039 
L 652.043249 274.910809 
L 652.500023 276.545505 
L 652.956797 273.306234 
L 653.413571 267.847069 
L 653.870345 264.582925 
L 654.327118 264.375393 
L 654.783892 266.164957 
L 655.240666 268.808292 
L 655.69744 270.323834 
L 656.154214 269.437355 
L 656.610988 267.465296 
L 657.067761 269.451664 
L 657.981309 282.179145 
L 658.438083 281.851237 
L 659.808405 266.115361 
L 660.721952 259.205783 
L 661.178726 258.355159 
L 661.6355 259.516733 
L 662.092274 261.639498 
L 662.549048 265.02818 
L 663.462595 272.466266 
L 663.919369 274.038445 
L 664.376143 273.711652 
L 665.289691 268.460369 
L 665.746464 269.709475 
L 666.203238 272.259742 
L 666.660012 272.863163 
L 667.116786 270.224648 
L 667.57356 262.989874 
L 668.030334 252.408886 
L 668.487108 246.284942 
L 668.943881 257.752935 
L 669.857429 322.100396 
L 670.314203 328.726852 
L 670.770977 310.597267 
L 671.684524 258.753913 
L 672.141298 243.229587 
L 672.598072 237.079177 
L 673.054846 237.158487 
L 673.51162 238.80933 
L 673.968394 237.671018 
L 674.425167 239.270443 
L 674.881941 261.395012 
L 675.338715 305.184595 
L 675.795489 333.27482 
L 676.252263 321.118383 
L 677.165811 256.937761 
L 677.622584 248.821343 
L 678.079358 260.400201 
L 678.536132 275.770666 
L 678.992906 278.224633 
L 679.44968 263.788087 
L 679.906454 244.815656 
L 680.363227 235.296772 
L 680.820001 242.214082 
L 681.733549 287.117448 
L 682.190323 299.624286 
L 682.647097 297.484691 
L 684.017418 261.031878 
L 684.474192 249.542271 
L 684.930966 241.054718 
L 685.38774 245.625925 
L 686.301287 279.51331 
L 686.758061 282.943682 
L 687.214835 278.875798 
L 687.671609 276.458058 
L 688.128383 276.030024 
L 688.585157 273.432838 
L 689.498704 260.441359 
L 689.955478 257.015744 
L 690.412252 260.266739 
L 691.3258 278.080856 
L 691.782573 282.620031 
L 692.239347 282.137476 
L 693.609669 275.174375 
L 694.066443 270.221435 
L 694.523216 262.978897 
L 694.97999 258.022588 
L 695.436764 258.714849 
L 696.807086 271.728847 
L 697.26386 273.320093 
L 697.720633 271.759861 
L 699.090955 261.412454 
L 699.547729 262.584867 
L 700.461276 277.105924 
L 700.91805 280.500164 
L 701.374824 278.744403 
L 701.831598 274.514701 
L 703.201919 255.195935 
L 703.658693 258.531062 
L 704.572241 277.236525 
L 705.029015 280.54517 
L 705.485789 277.100552 
L 706.399336 263.736929 
L 706.85611 262.623395 
L 707.769658 272.43759 
L 708.226432 272.380676 
L 709.139979 261.862207 
L 709.596753 261.692191 
L 710.510301 276.533399 
L 710.967075 279.331385 
L 711.423849 277.818913 
L 711.880622 275.869801 
L 712.337396 273.215706 
L 713.250944 262.924163 
L 713.707718 260.486338 
L 714.164492 262.921636 
L 715.078039 272.066826 
L 715.534813 274.744701 
L 715.991587 274.681997 
L 716.448361 271.933595 
L 717.361909 265.219958 
L 718.73223 259.510029 
L 719.189004 260.973064 
L 719.645778 267.241584 
L 720.102552 275.798068 
L 720.559325 280.945857 
L 721.016099 279.715159 
L 721.472873 275.147465 
L 721.929647 271.947354 
L 723.299969 266.301473 
L 723.756742 266.020115 
L 724.213516 267.022173 
L 724.67029 266.848105 
L 725.127064 265.394228 
L 725.583838 266.307601 
L 726.497385 276.154307 
L 726.954159 277.970912 
L 727.410933 275.904919 
L 727.867707 273.034858 
L 728.324481 271.445601 
L 728.781255 271.179414 
L 729.238028 271.386584 
L 730.151576 272.072984 
L 730.60835 271.855424 
L 731.065124 270.324473 
L 731.521898 267.162825 
L 731.978671 263.017513 
L 732.435445 260.872388 
L 732.892219 262.800595 
L 733.805767 271.91645 
L 734.262541 274.717045 
L 734.719315 274.778215 
L 735.176088 271.994146 
L 735.632862 267.499637 
L 736.089636 264.205702 
L 736.54641 265.027404 
L 737.003184 269.554188 
L 737.459958 272.783423 
L 737.916731 271.351218 
L 738.830279 262.138013 
L 739.287053 262.796719 
L 739.743827 265.895978 
L 740.200601 267.911525 
L 740.657374 268.286334 
L 741.114148 268.276006 
L 742.027696 268.437548 
L 742.48447 269.192551 
L 742.941244 271.173001 
L 743.398018 272.409258 
L 743.854791 270.320959 
L 744.311565 266.077602 
L 744.768339 262.940262 
L 745.225113 262.629186 
L 745.681887 265.298642 
L 746.138661 268.736458 
L 746.595434 270.109871 
L 747.052208 268.224806 
L 747.508982 264.464722 
L 747.965756 263.317785 
L 748.42253 267.01261 
L 749.336077 277.270331 
L 749.792851 278.525864 
L 750.249625 277.85488 
L 750.706399 277.823264 
L 751.163173 277.350501 
L 751.619947 275.103012 
L 752.533494 268.998357 
L 752.990268 267.121462 
L 753.447042 266.098172 
L 753.903816 266.440703 
L 754.36059 268.095115 
L 754.817364 269.01475 
L 755.274137 268.790649 
L 755.730911 269.807101 
L 756.644459 274.642718 
L 757.101233 276.136843 
L 757.558007 276.163535 
L 758.01478 275.323492 
L 758.471554 274.812268 
L 758.928328 273.482511 
L 759.841876 266.743966 
L 760.29865 265.446255 
L 760.755424 267.388026 
L 761.668971 274.045502 
L 762.582519 277.554653 
L 763.039293 277.958387 
L 763.496067 276.816664 
L 764.866388 268.786129 
L 765.323162 268.985315 
L 765.779936 270.126223 
L 766.23671 270.05262 
L 766.693483 269.5436 
L 767.150257 269.619332 
L 767.607031 270.388859 
L 768.063805 270.81672 
L 768.520579 269.643499 
L 768.977353 268.137941 
L 769.434126 267.642002 
L 769.8909 268.49276 
L 770.804448 273.350125 
L 771.261222 274.011793 
L 771.717996 272.668394 
L 773.088317 266.494772 
L 773.545091 266.650386 
L 774.458639 268.948164 
L 774.915413 270.065321 
L 775.372186 272.404188 
L 775.82896 274.077454 
L 776.285734 272.639312 
L 777.199282 264.971131 
L 777.656056 265.061801 
L 778.112829 267.088157 
L 778.569603 268.291872 
L 779.026377 269.019736 
L 779.483151 271.286788 
L 779.939925 274.94035 
L 780.396699 276.947097 
L 780.853473 275.53729 
L 781.310246 272.293183 
L 781.76702 270.09441 
L 782.223794 269.825035 
L 782.680568 270.284783 
L 783.137342 269.870035 
L 783.594116 268.887741 
L 784.050889 268.876563 
L 784.507663 269.18778 
L 784.964437 268.850147 
L 785.421211 269.584046 
L 786.334759 276.12542 
L 786.791532 277.529107 
L 787.248306 276.094969 
L 787.70508 272.457891 
L 788.618628 263.949162 
L 789.075402 261.371251 
L 789.532176 260.250294 
L 789.988949 262.048639 
L 790.902497 271.323117 
L 791.359271 272.319526 
L 792.272819 268.901875 
L 792.729592 268.47164 
L 793.186366 269.046927 
L 794.099914 270.600423 
L 794.556688 269.483808 
L 795.013462 266.442651 
L 795.470235 264.605491 
L 795.927009 266.420641 
L 796.840557 274.553139 
L 797.297331 274.022037 
L 798.210879 264.902173 
L 798.667652 264.924579 
L 799.5812 272.271432 
L 800.037974 272.977122 
L 800.494748 269.878169 
L 800.951522 264.903789 
L 801.408295 261.612638 
L 801.865069 262.080637 
L 803.235391 272.57458 
L 803.692165 272.027881 
L 804.605712 268.440451 
L 805.062486 267.829095 
L 805.976034 267.089384 
L 806.432808 267.013092 
L 806.889581 268.217342 
L 807.346355 270.408519 
L 807.803129 271.522362 
L 808.259903 269.449129 
L 808.716677 265.321637 
L 809.173451 263.273614 
L 810.086998 265.276991 
L 811.000546 262.604858 
L 811.45732 264.134167 
L 812.370868 271.113304 
L 812.827641 271.053444 
L 813.741189 265.982798 
L 814.197963 266.830763 
L 814.654737 270.30337 
L 815.111511 274.70043 
L 815.568284 277.498939 
L 816.025058 276.904198 
L 816.481832 272.321629 
L 816.938606 266.190161 
L 817.39538 263.370376 
L 817.852154 264.396064 
L 818.308928 266.258899 
L 818.765701 267.29049 
L 819.222475 267.932042 
L 819.679249 268.886088 
L 820.136023 269.312329 
L 820.592797 269.567875 
L 821.049571 271.022623 
L 821.506344 272.942035 
L 821.963118 273.388549 
L 822.419892 272.486343 
L 822.876666 271.843753 
L 823.33344 272.161159 
L 823.790214 272.83587 
L 824.246987 272.600214 
L 825.160535 268.452336 
L 825.617309 267.507008 
L 826.074083 267.572511 
L 826.530857 268.282175 
L 826.987631 268.408091 
L 827.444404 267.950683 
L 827.901178 267.863293 
L 828.357952 268.397086 
L 829.2715 270.895022 
L 829.728274 271.505828 
L 830.185047 271.585204 
L 830.641821 270.959796 
L 831.098595 269.50256 
L 831.555369 268.483662 
L 832.012143 268.293691 
L 832.92569 267.430683 
L 833.382464 268.379727 
L 834.752786 274.539287 
L 835.20956 275.1405 
L 836.123107 274.812414 
L 836.579881 273.829903 
L 837.493429 269.357967 
L 838.406977 266.865181 
L 838.86375 267.089421 
L 839.777298 271.542622 
L 840.234072 271.10117 
L 840.690846 270.12943 
L 841.14762 271.368766 
L 841.604393 274.357862 
L 842.061167 275.990797 
L 842.517941 273.875095 
L 842.974715 269.522407 
L 843.431489 266.280701 
L 843.888263 265.936157 
L 844.345036 268.136248 
L 845.258584 273.872724 
L 845.715358 274.533206 
L 846.172132 273.145548 
L 847.08568 269.451345 
L 847.542453 268.115625 
L 847.999227 267.755309 
L 848.456001 268.005785 
L 848.912775 268.925068 
L 849.369549 270.127568 
L 849.826323 270.294136 
L 850.283096 268.559741 
L 851.196644 262.724294 
L 851.653418 263.292639 
L 852.566966 272.563164 
L 853.023739 274.381786 
L 853.480513 273.330746 
L 854.394061 266.343257 
L 854.850835 264.945848 
L 855.307609 267.479765 
L 855.764383 272.073004 
L 856.221156 275.48312 
L 856.67793 275.723914 
L 857.134704 272.884317 
L 857.591478 268.67037 
L 858.048252 265.813518 
L 858.505026 265.714737 
L 858.961799 267.126512 
L 859.418573 267.465532 
L 859.875347 266.432235 
L 860.332121 266.375462 
L 860.788895 268.452506 
L 861.245669 271.505941 
L 861.702442 273.404676 
L 862.159216 273.575371 
L 862.61599 273.411391 
L 863.072764 273.797501 
L 863.529538 273.15191 
L 864.443086 267.468045 
L 864.899859 265.963763 
L 865.356633 266.051686 
L 866.270181 267.879747 
L 866.726955 269.434985 
L 867.183729 271.938501 
L 867.640502 273.817764 
L 868.097276 273.769393 
L 869.010824 270.851134 
L 869.467598 271.298988 
L 869.924372 272.487309 
L 870.381145 272.461852 
L 871.294693 269.338729 
L 871.751467 268.949987 
L 872.208241 270.039877 
L 872.665015 271.559744 
L 873.121789 271.9961 
L 874.035336 269.854077 
L 874.49211 269.702493 
L 874.948884 269.790695 
L 875.405658 268.586315 
L 875.862432 266.382638 
L 876.319205 265.797911 
L 877.232753 270.920314 
L 877.689527 270.727178 
L 878.146301 267.554343 
L 878.603075 265.979456 
L 879.059848 269.21764 
L 879.516622 274.169281 
L 879.973396 275.501272 
L 880.43017 273.737413 
L 881.800491 266.794448 
L 882.257265 266.040574 
L 882.714039 267.552724 
L 883.170813 270.13305 
L 883.627587 270.929309 
L 884.084361 268.030313 
L 884.541135 263.81959 
L 884.997908 263.456276 
L 885.911456 273.984656 
L 886.36823 274.660477 
L 887.281778 269.022896 
L 887.738551 268.626049 
L 888.195325 269.478085 
L 888.652099 269.838096 
L 889.108873 269.029178 
L 890.022421 266.405189 
L 890.479194 266.620782 
L 891.392742 270.415146 
L 891.849516 271.047429 
L 892.763064 269.348629 
L 893.219838 269.508947 
L 893.676611 268.90166 
L 894.133385 267.99353 
L 894.590159 268.933302 
L 895.046933 271.01529 
L 895.503707 271.495696 
L 895.960481 268.931325 
L 896.417254 264.951176 
L 896.874028 263.58319 
L 897.330802 266.942166 
L 897.787576 271.907745 
L 898.24435 273.730421 
L 898.701124 271.341605 
L 899.157897 267.519483 
L 899.614671 265.191466 
L 900.071445 265.120112 
L 900.528219 266.766184 
L 901.898541 274.210564 
L 902.355314 273.86264 
L 902.812088 271.251247 
L 903.268862 267.697552 
L 903.725636 265.3892 
L 904.18241 265.431444 
L 905.552731 271.030421 
L 906.466279 271.621261 
L 906.923053 270.936071 
L 907.379827 269.29743 
L 907.8366 268.27417 
L 908.293374 268.645894 
L 908.750148 269.45806 
L 909.206922 269.529671 
L 909.663696 268.359667 
L 910.12047 266.415344 
L 910.577244 265.247674 
L 911.034017 266.206339 
L 912.404339 274.558545 
L 912.861113 276.284608 
L 913.317887 275.514964 
L 914.688208 266.825575 
L 915.144982 265.760416 
L 915.601756 267.419574 
L 916.05853 269.950419 
L 916.515303 270.871979 
L 916.972077 269.750047 
L 917.428851 267.015096 
L 917.885625 265.124923 
L 918.342399 267.097982 
L 919.255946 277.377197 
L 919.71272 277.968901 
L 920.169494 273.54158 
L 920.626268 267.412718 
L 921.083042 264.364668 
L 921.539816 266.262309 
L 921.99659 270.354353 
L 922.453363 272.119689 
L 922.910137 270.829004 
L 923.366911 268.979033 
L 923.823685 268.8034 
L 924.280459 270.545982 
L 924.737233 271.827025 
L 925.194006 271.119223 
L 926.107554 268.249105 
L 926.564328 268.274341 
L 927.021102 270.539937 
L 927.934649 277.480564 
L 928.391423 277.157914 
L 928.848197 271.801304 
L 929.304971 263.74402 
L 929.761745 258.178888 
L 930.218519 259.681143 
L 931.58884 283.159385 
L 932.045614 280.873699 
L 932.959162 267.639219 
L 933.415936 265.445977 
L 933.872709 266.290064 
L 934.329483 266.394645 
L 934.786257 264.978216 
L 935.243031 264.525163 
L 935.699805 266.353733 
L 936.613352 273.063778 
L 937.070126 276.825644 
L 937.5269 278.140811 
L 937.983674 276.196269 
L 938.897222 269.351235 
L 939.353996 267.370462 
L 940.267543 266.143627 
L 940.724317 264.80356 
L 941.181091 265.345863 
L 942.094639 273.006518 
L 942.551412 274.265745 
L 943.008186 273.039813 
L 943.46496 271.363723 
L 944.835282 268.946233 
L 945.292055 268.477503 
L 945.748829 268.439327 
L 946.205603 268.766404 
L 946.662377 269.298874 
L 947.119151 270.151676 
L 947.575925 271.48745 
L 948.946246 277.275458 
L 949.40302 275.010594 
L 950.316568 266.441626 
L 950.773342 264.670642 
L 951.230115 264.560111 
L 951.686889 265.958926 
L 952.600437 270.160761 
L 953.057211 270.947009 
L 953.513985 270.824812 
L 953.970758 271.007685 
L 954.884306 272.476333 
L 955.34108 271.8019 
L 956.711401 267.312611 
L 957.168175 265.189548 
L 957.624949 264.676816 
L 958.081723 266.441445 
L 958.538497 268.797057 
L 958.995271 269.412601 
L 959.452045 268.001139 
L 959.908818 266.153107 
L 960.365592 265.559921 
L 960.822366 266.600035 
L 961.735914 269.529391 
L 962.192688 270.446037 
L 962.649461 271.015012 
L 963.106235 270.682169 
L 963.563009 269.305318 
L 964.476557 265.64676 
L 964.933331 264.978528 
L 965.390104 266.293796 
L 965.846878 268.567391 
L 966.303652 270.054869 
L 966.760426 270.060281 
L 967.2172 269.557703 
L 967.673974 269.589145 
L 968.130748 270.357094 
L 968.587521 271.595286 
L 969.044295 272.504792 
L 969.501069 272.598762 
L 969.957843 271.595565 
L 970.871391 266.766072 
L 971.328164 266.585292 
L 972.698486 271.346732 
L 973.15526 271.227406 
L 974.068807 270.248407 
L 974.525581 270.185345 
L 974.982355 269.973526 
L 975.439129 269.610627 
L 975.895903 269.802426 
L 976.352677 270.293161 
L 977.266224 270.176748 
L 978.179772 271.149255 
L 978.636546 271.307541 
L 979.09332 270.835816 
L 979.550094 269.91099 
L 980.006867 269.332117 
L 980.463641 269.644196 
L 980.920415 270.161433 
L 981.377189 270.263693 
L 981.833963 269.957384 
L 982.290737 269.40921 
L 982.74751 269.156753 
L 983.204284 269.435299 
L 984.117832 270.650939 
L 984.574606 270.606745 
L 985.03138 270.149311 
L 985.488154 269.922049 
L 985.944927 270.139288 
L 986.401701 270.205033 
L 987.772023 268.752216 
L 988.228797 269.06848 
L 989.142344 270.284172 
L 989.599118 270.433576 
L 991.426213 269.574075 
L 992.796535 269.41883 
L 994.166856 270.04229 
L 994.62363 269.915159 
L 995.537178 269.256187 
L 995.993952 269.105406 
L 996.450726 269.104892 
L 997.364273 269.471298 
L 997.821047 269.652778 
L 1000.104916 269.688797 
L 1001.018464 269.244081 
L 1001.475238 269.286355 
L 1002.388786 269.670513 
L 1005.586203 269.522866 
L 1006.49975 269.298735 
L 1006.956524 269.300247 
L 1008.783619 269.764164 
L 1009.697167 269.556002 
L 1014.721679 269.684423 
L 1024.31393 269.739173 
L 1031.622311 269.768573 
L 1034.362955 269.796183 
L 1034.362955 269.796183 
" clip-path="url(#p39bbfd1dc4)" style="fill: none; stroke: #0c5da5; stroke-width: 2; stroke-linecap: square"/>
   </g>
   <g id="patch_3">
    <path d="M 75.6175 520.7175 
L 75.6175 21.7575 
" style="fill: none; stroke: #000000; stroke-linejoin: miter; stroke-linecap: square"/>
   </g>
   <g id="patch_4">
    <path d="M 1080.0175 520.7175 
L 1080.0175 21.7575 
" style="fill: none; stroke: #000000; stroke-linejoin: miter; stroke-linecap: square"/>
   </g>
   <g id="patch_5">
    <path d="M 75.6175 520.7175 
L 1080.0175 520.7175 
" style="fill: none; stroke: #000000; stroke-linejoin: miter; stroke-linecap: square"/>
   </g>
   <g id="patch_6">
    <path d="M 75.6175 21.7575 
L 1080.0175 21.7575 
" style="fill: none; stroke: #000000; stroke-linejoin: miter; stroke-linecap: square"/>
   </g>
   <g id="text_17">
    <!-- Northridge-01 Record no. 1051 -->
    <g transform="translate(453.7875 15.7575) scale(0.16 -0.16)">
     <defs>
      <path id="DejaVuSans-4e" d="M 628 4666 
L 1478 4666 
L 3547 763 
L 3547 4666 
L 4159 4666 
L 4159 0 
L 3309 0 
L 1241 3903 
L 1241 0 
L 628 0 
L 628 4666 
z
" transform="scale(0.015625)"/>
      <path id="DejaVuSans-6f" d="M 1959 3097 
Q 1497 3097 1228 2736 
Q 959 2375 959 1747 
Q 959 1119 1226 758 
Q 1494 397 1959 397 
Q 2419 397 2687 759 
Q 2956 1122 2956 1747 
Q 2956 2369 2687 2733 
Q 2419 3097 1959 3097 
z
M 1959 3584 
Q 2709 3584 3137 3096 
Q 3566 2609 3566 1747 
Q 3566 888 3137 398 
Q 2709 -91 1959 -91 
Q 1206 -91 779 398 
Q 353 888 353 1747 
Q 353 2609 779 3096 
Q 1206 3584 1959 3584 
z
" transform="scale(0.015625)"/>
      <path id="DejaVuSans-72" d="M 2631 2963 
Q 2534 3019 2420 3045 
Q 2306 3072 2169 3072 
Q 1681 3072 1420 2755 
Q 1159 2438 1159 1844 
L 1159 0 
L 581 0 
L 581 3500 
L 1159 3500 
L 1159 2956 
Q 1341 3275 1631 3429 
Q 1922 3584 2338 3584 
Q 2397 3584 2469 3576 
Q 2541 3569 2628 3553 
L 2631 2963 
z
" transform="scale(0.015625)"/>
      <path id="DejaVuSans-74" d="M 1172 4494 
L 1172 3500 
L 2356 3500 
L 2356 3053 
L 1172 3053 
L 1172 1153 
Q 1172 725 1289 603 
Q 1406 481 1766 481 
L 2356 481 
L 2356 0 
L 1766 0 
Q 1100 0 847 248 
Q 594 497 594 1153 
L 594 3053 
L 172 3053 
L 172 3500 
L 594 3500 
L 594 4494 
L 1172 4494 
z
" transform="scale(0.015625)"/>
      <path id="DejaVuSans-68" d="M 3513 2113 
L 3513 0 
L 2938 0 
L 2938 2094 
Q 2938 2591 2744 2837 
Q 2550 3084 2163 3084 
Q 1697 3084 1428 2787 
Q 1159 2491 1159 1978 
L 1159 0 
L 581 0 
L 581 4863 
L 1159 4863 
L 1159 2956 
Q 1366 3272 1645 3428 
Q 1925 3584 2291 3584 
Q 2894 3584 3203 3211 
Q 3513 2838 3513 2113 
z
" transform="scale(0.015625)"/>
      <path id="DejaVuSans-64" d="M 2906 2969 
L 2906 4863 
L 3481 4863 
L 3481 0 
L 2906 0 
L 2906 525 
Q 2725 213 2448 61 
Q 2172 -91 1784 -91 
Q 1150 -91 751 415 
Q 353 922 353 1747 
Q 353 2572 751 3078 
Q 1150 3584 1784 3584 
Q 2172 3584 2448 3432 
Q 2725 3281 2906 2969 
z
M 947 1747 
Q 947 1113 1208 752 
Q 1469 391 1925 391 
Q 2381 391 2643 752 
Q 2906 1113 2906 1747 
Q 2906 2381 2643 2742 
Q 2381 3103 1925 3103 
Q 1469 3103 1208 2742 
Q 947 2381 947 1747 
z
" transform="scale(0.015625)"/>
      <path id="DejaVuSans-67" d="M 2906 1791 
Q 2906 2416 2648 2759 
Q 2391 3103 1925 3103 
Q 1463 3103 1205 2759 
Q 947 2416 947 1791 
Q 947 1169 1205 825 
Q 1463 481 1925 481 
Q 2391 481 2648 825 
Q 2906 1169 2906 1791 
z
M 3481 434 
Q 3481 -459 3084 -895 
Q 2688 -1331 1869 -1331 
Q 1566 -1331 1297 -1286 
Q 1028 -1241 775 -1147 
L 775 -588 
Q 1028 -725 1275 -790 
Q 1522 -856 1778 -856 
Q 2344 -856 2625 -561 
Q 2906 -266 2906 331 
L 2906 616 
Q 2728 306 2450 153 
Q 2172 0 1784 0 
Q 1141 0 747 490 
Q 353 981 353 1791 
Q 353 2603 747 3093 
Q 1141 3584 1784 3584 
Q 2172 3584 2450 3431 
Q 2728 3278 2906 2969 
L 2906 3500 
L 3481 3500 
L 3481 434 
z
" transform="scale(0.015625)"/>
      <path id="DejaVuSans-2d" d="M 313 2009 
L 1997 2009 
L 1997 1497 
L 313 1497 
L 313 2009 
z
" transform="scale(0.015625)"/>
      <path id="DejaVuSans-63" d="M 3122 3366 
L 3122 2828 
Q 2878 2963 2633 3030 
Q 2388 3097 2138 3097 
Q 1578 3097 1268 2742 
Q 959 2388 959 1747 
Q 959 1106 1268 751 
Q 1578 397 2138 397 
Q 2388 397 2633 464 
Q 2878 531 3122 666 
L 3122 134 
Q 2881 22 2623 -34 
Q 2366 -91 2075 -91 
Q 1284 -91 818 406 
Q 353 903 353 1747 
Q 353 2603 823 3093 
Q 1294 3584 2113 3584 
Q 2378 3584 2631 3529 
Q 2884 3475 3122 3366 
z
" transform="scale(0.015625)"/>
      <path id="DejaVuSans-6e" d="M 3513 2113 
L 3513 0 
L 2938 0 
L 2938 2094 
Q 2938 2591 2744 2837 
Q 2550 3084 2163 3084 
Q 1697 3084 1428 2787 
Q 1159 2491 1159 1978 
L 1159 0 
L 581 0 
L 581 3500 
L 1159 3500 
L 1159 2956 
Q 1366 3272 1645 3428 
Q 1925 3584 2291 3584 
Q 2894 3584 3203 3211 
Q 3513 2838 3513 2113 
z
" transform="scale(0.015625)"/>
     </defs>
     <use xlink:href="#DejaVuSans-4e"/>
     <use xlink:href="#DejaVuSans-6f" x="74.804688"/>
     <use xlink:href="#DejaVuSans-72" x="135.986328"/>
     <use xlink:href="#DejaVuSans-74" x="177.099609"/>
     <use xlink:href="#DejaVuSans-68" x="216.308594"/>
     <use xlink:href="#DejaVuSans-72" x="279.6875"/>
     <use xlink:href="#DejaVuSans-69" x="320.800781"/>
     <use xlink:href="#DejaVuSans-64" x="348.583984"/>
     <use xlink:href="#DejaVuSans-67" x="412.060547"/>
     <use xlink:href="#DejaVuSans-65" x="475.537109"/>
     <use xlink:href="#DejaVuSans-2d" x="537.060547"/>
     <use xlink:href="#DejaVuSans-30" x="573.144531"/>
     <use xlink:href="#DejaVuSans-31" x="636.767578"/>
     <use xlink:href="#DejaVuSans-20" x="700.390625"/>
     <use xlink:href="#DejaVuSans-52" x="732.177734"/>
     <use xlink:href="#DejaVuSans-65" x="797.160156"/>
     <use xlink:href="#DejaVuSans-63" x="858.683594"/>
     <use xlink:href="#DejaVuSans-6f" x="913.664062"/>
     <use xlink:href="#DejaVuSans-72" x="974.845703"/>
     <use xlink:href="#DejaVuSans-64" x="1014.208984"/>
     <use xlink:href="#DejaVuSans-20" x="1077.685547"/>
     <use xlink:href="#DejaVuSans-6e" x="1109.472656"/>
     <use xlink:href="#DejaVuSans-6f" x="1172.851562"/>
     <use xlink:href="#DejaVuSans-2e" x="1232.283203"/>
     <use xlink:href="#DejaVuSans-20" x="1264.070312"/>
     <use xlink:href="#DejaVuSans-31" x="1295.857422"/>
     <use xlink:href="#DejaVuSans-30" x="1359.480469"/>
     <use xlink:href="#DejaVuSans-35" x="1423.103516"/>
     <use xlink:href="#DejaVuSans-31" x="1486.726562"/>
    </g>
   </g>
  </g>
 </g>
 <defs>
  <clipPath id="p39bbfd1dc4">
   <rect x="75.6175" y="21.7575" width="1004.4" height="498.96"/>
  </clipPath>
 </defs>
</svg>
