<?xml version="1.0" encoding="utf-8" standalone="no"?>
<!DOCTYPE svg PUBLIC "-//W3C//DTD SVG 1.1//EN"
  "http://www.w3.org/Graphics/SVG/1.1/DTD/svg11.dtd">
<svg xmlns:xlink="http://www.w3.org/1999/xlink" width="1059.4875pt" height="562.7875pt" viewBox="0 0 1059.4875 562.7875" xmlns="http://www.w3.org/2000/svg" version="1.1">
 <metadata>
  <rdf:RDF xmlns:dc="http://purl.org/dc/elements/1.1/" xmlns:cc="http://creativecommons.org/ns#" xmlns:rdf="http://www.w3.org/1999/02/22-rdf-syntax-ns#">
   <cc:Work>
    <dc:type rdf:resource="http://purl.org/dc/dcmitype/StillImage"/>
    <dc:date>2023-05-16T14:36:41.617781</dc:date>
    <dc:format>image/svg+xml</dc:format>
    <dc:creator>
     <cc:Agent>
      <dc:title>Matplotlib v3.7.1, https://matplotlib.org/</dc:title>
     </cc:Agent>
    </dc:creator>
   </cc:Work>
  </rdf:RDF>
 </metadata>
 <defs>
  <style type="text/css">*{stroke-linejoin: round; stroke-linecap: butt}</style>
 </defs>
 <g id="figure_1">
  <g id="patch_1">
   <path d="M 0 562.7875 
L 1059.4875 562.7875 
L 1059.4875 0 
L 0 0 
z
" style="fill: #ffffff"/>
  </g>
  <g id="axes_1">
   <g id="patch_2">
    <path d="M 51.4875 520.7175 
L 1055.8875 520.7175 
L 1055.8875 21.7575 
L 51.4875 21.7575 
z
" style="fill: #ffffff"/>
   </g>
   <g id="matplotlib.axis_1">
    <g id="xtick_1">
     <g id="line2d_1">
      <path d="M 97.142045 520.7175 
L 97.142045 21.7575 
" clip-path="url(#p18914af54d)" style="fill: none; stroke-dasharray: 1.85,0.8; stroke-dashoffset: 0; stroke: #000000; stroke-opacity: 0.5; stroke-width: 0.5"/>
     </g>
     <g id="line2d_2">
      <defs>
       <path id="m84a29d6f43" d="M 0 0 
L 0 -6 
" style="stroke: #000000"/>
      </defs>
      <g>
       <use xlink:href="#m84a29d6f43" x="97.142045" y="520.7175" style="stroke: #000000"/>
      </g>
     </g>
     <g id="line2d_3">
      <defs>
       <path id="mb596b53970" d="M 0 0 
L 0 6 
" style="stroke: #000000"/>
      </defs>
      <g>
       <use xlink:href="#mb596b53970" x="97.142045" y="21.7575" style="stroke: #000000"/>
      </g>
     </g>
     <g id="text_1">
      <!-- 0 -->
      <g transform="translate(92.052045 536.375) scale(0.16 -0.16)">
       <defs>
        <path id="DejaVuSans-30" d="M 2034 4250 
Q 1547 4250 1301 3770 
Q 1056 3291 1056 2328 
Q 1056 1369 1301 889 
Q 1547 409 2034 409 
Q 2525 409 2770 889 
Q 3016 1369 3016 2328 
Q 3016 3291 2770 3770 
Q 2525 4250 2034 4250 
z
M 2034 4750 
Q 2819 4750 3233 4129 
Q 3647 3509 3647 2328 
Q 3647 1150 3233 529 
Q 2819 -91 2034 -91 
Q 1250 -91 836 529 
Q 422 1150 422 2328 
Q 422 3509 836 4129 
Q 1250 4750 2034 4750 
z
" transform="scale(0.015625)"/>
       </defs>
       <use xlink:href="#DejaVuSans-30"/>
      </g>
     </g>
    </g>
    <g id="xtick_2">
     <g id="line2d_4">
      <path d="M 211.335506 520.7175 
L 211.335506 21.7575 
" clip-path="url(#p18914af54d)" style="fill: none; stroke-dasharray: 1.85,0.8; stroke-dashoffset: 0; stroke: #000000; stroke-opacity: 0.5; stroke-width: 0.5"/>
     </g>
     <g id="line2d_5">
      <g>
       <use xlink:href="#m84a29d6f43" x="211.335506" y="520.7175" style="stroke: #000000"/>
      </g>
     </g>
     <g id="line2d_6">
      <g>
       <use xlink:href="#mb596b53970" x="211.335506" y="21.7575" style="stroke: #000000"/>
      </g>
     </g>
     <g id="text_2">
      <!-- 5 -->
      <g transform="translate(206.245506 536.375) scale(0.16 -0.16)">
       <defs>
        <path id="DejaVuSans-35" d="M 691 4666 
L 3169 4666 
L 3169 4134 
L 1269 4134 
L 1269 2991 
Q 1406 3038 1543 3061 
Q 1681 3084 1819 3084 
Q 2600 3084 3056 2656 
Q 3513 2228 3513 1497 
Q 3513 744 3044 326 
Q 2575 -91 1722 -91 
Q 1428 -91 1123 -41 
Q 819 9 494 109 
L 494 744 
Q 775 591 1075 516 
Q 1375 441 1709 441 
Q 2250 441 2565 725 
Q 2881 1009 2881 1497 
Q 2881 1984 2565 2268 
Q 2250 2553 1709 2553 
Q 1456 2553 1204 2497 
Q 953 2441 691 2322 
L 691 4666 
z
" transform="scale(0.015625)"/>
       </defs>
       <use xlink:href="#DejaVuSans-35"/>
      </g>
     </g>
    </g>
    <g id="xtick_3">
     <g id="line2d_7">
      <path d="M 325.528966 520.7175 
L 325.528966 21.7575 
" clip-path="url(#p18914af54d)" style="fill: none; stroke-dasharray: 1.85,0.8; stroke-dashoffset: 0; stroke: #000000; stroke-opacity: 0.5; stroke-width: 0.5"/>
     </g>
     <g id="line2d_8">
      <g>
       <use xlink:href="#m84a29d6f43" x="325.528966" y="520.7175" style="stroke: #000000"/>
      </g>
     </g>
     <g id="line2d_9">
      <g>
       <use xlink:href="#mb596b53970" x="325.528966" y="21.7575" style="stroke: #000000"/>
      </g>
     </g>
     <g id="text_3">
      <!-- 10 -->
      <g transform="translate(315.348966 536.375) scale(0.16 -0.16)">
       <defs>
        <path id="DejaVuSans-31" d="M 794 531 
L 1825 531 
L 1825 4091 
L 703 3866 
L 703 4441 
L 1819 4666 
L 2450 4666 
L 2450 531 
L 3481 531 
L 3481 0 
L 794 0 
L 794 531 
z
" transform="scale(0.015625)"/>
       </defs>
       <use xlink:href="#DejaVuSans-31"/>
       <use xlink:href="#DejaVuSans-30" x="63.623047"/>
      </g>
     </g>
    </g>
    <g id="xtick_4">
     <g id="line2d_10">
      <path d="M 439.722427 520.7175 
L 439.722427 21.7575 
" clip-path="url(#p18914af54d)" style="fill: none; stroke-dasharray: 1.85,0.8; stroke-dashoffset: 0; stroke: #000000; stroke-opacity: 0.5; stroke-width: 0.5"/>
     </g>
     <g id="line2d_11">
      <g>
       <use xlink:href="#m84a29d6f43" x="439.722427" y="520.7175" style="stroke: #000000"/>
      </g>
     </g>
     <g id="line2d_12">
      <g>
       <use xlink:href="#mb596b53970" x="439.722427" y="21.7575" style="stroke: #000000"/>
      </g>
     </g>
     <g id="text_4">
      <!-- 15 -->
      <g transform="translate(429.542427 536.375) scale(0.16 -0.16)">
       <use xlink:href="#DejaVuSans-31"/>
       <use xlink:href="#DejaVuSans-35" x="63.623047"/>
      </g>
     </g>
    </g>
    <g id="xtick_5">
     <g id="line2d_13">
      <path d="M 553.915887 520.7175 
L 553.915887 21.7575 
" clip-path="url(#p18914af54d)" style="fill: none; stroke-dasharray: 1.85,0.8; stroke-dashoffset: 0; stroke: #000000; stroke-opacity: 0.5; stroke-width: 0.5"/>
     </g>
     <g id="line2d_14">
      <g>
       <use xlink:href="#m84a29d6f43" x="553.915887" y="520.7175" style="stroke: #000000"/>
      </g>
     </g>
     <g id="line2d_15">
      <g>
       <use xlink:href="#mb596b53970" x="553.915887" y="21.7575" style="stroke: #000000"/>
      </g>
     </g>
     <g id="text_5">
      <!-- 20 -->
      <g transform="translate(543.735887 536.375) scale(0.16 -0.16)">
       <defs>
        <path id="DejaVuSans-32" d="M 1228 531 
L 3431 531 
L 3431 0 
L 469 0 
L 469 531 
Q 828 903 1448 1529 
Q 2069 2156 2228 2338 
Q 2531 2678 2651 2914 
Q 2772 3150 2772 3378 
Q 2772 3750 2511 3984 
Q 2250 4219 1831 4219 
Q 1534 4219 1204 4116 
Q 875 4013 500 3803 
L 500 4441 
Q 881 4594 1212 4672 
Q 1544 4750 1819 4750 
Q 2544 4750 2975 4387 
Q 3406 4025 3406 3419 
Q 3406 3131 3298 2873 
Q 3191 2616 2906 2266 
Q 2828 2175 2409 1742 
Q 1991 1309 1228 531 
z
" transform="scale(0.015625)"/>
       </defs>
       <use xlink:href="#DejaVuSans-32"/>
       <use xlink:href="#DejaVuSans-30" x="63.623047"/>
      </g>
     </g>
    </g>
    <g id="xtick_6">
     <g id="line2d_16">
      <path d="M 668.109347 520.7175 
L 668.109347 21.7575 
" clip-path="url(#p18914af54d)" style="fill: none; stroke-dasharray: 1.85,0.8; stroke-dashoffset: 0; stroke: #000000; stroke-opacity: 0.5; stroke-width: 0.5"/>
     </g>
     <g id="line2d_17">
      <g>
       <use xlink:href="#m84a29d6f43" x="668.109347" y="520.7175" style="stroke: #000000"/>
      </g>
     </g>
     <g id="line2d_18">
      <g>
       <use xlink:href="#mb596b53970" x="668.109347" y="21.7575" style="stroke: #000000"/>
      </g>
     </g>
     <g id="text_6">
      <!-- 25 -->
      <g transform="translate(657.929347 536.375) scale(0.16 -0.16)">
       <use xlink:href="#DejaVuSans-32"/>
       <use xlink:href="#DejaVuSans-35" x="63.623047"/>
      </g>
     </g>
    </g>
    <g id="xtick_7">
     <g id="line2d_19">
      <path d="M 782.302808 520.7175 
L 782.302808 21.7575 
" clip-path="url(#p18914af54d)" style="fill: none; stroke-dasharray: 1.85,0.8; stroke-dashoffset: 0; stroke: #000000; stroke-opacity: 0.5; stroke-width: 0.5"/>
     </g>
     <g id="line2d_20">
      <g>
       <use xlink:href="#m84a29d6f43" x="782.302808" y="520.7175" style="stroke: #000000"/>
      </g>
     </g>
     <g id="line2d_21">
      <g>
       <use xlink:href="#mb596b53970" x="782.302808" y="21.7575" style="stroke: #000000"/>
      </g>
     </g>
     <g id="text_7">
      <!-- 30 -->
      <g transform="translate(772.122808 536.375) scale(0.16 -0.16)">
       <defs>
        <path id="DejaVuSans-33" d="M 2597 2516 
Q 3050 2419 3304 2112 
Q 3559 1806 3559 1356 
Q 3559 666 3084 287 
Q 2609 -91 1734 -91 
Q 1441 -91 1130 -33 
Q 819 25 488 141 
L 488 750 
Q 750 597 1062 519 
Q 1375 441 1716 441 
Q 2309 441 2620 675 
Q 2931 909 2931 1356 
Q 2931 1769 2642 2001 
Q 2353 2234 1838 2234 
L 1294 2234 
L 1294 2753 
L 1863 2753 
Q 2328 2753 2575 2939 
Q 2822 3125 2822 3475 
Q 2822 3834 2567 4026 
Q 2313 4219 1838 4219 
Q 1578 4219 1281 4162 
Q 984 4106 628 3988 
L 628 4550 
Q 988 4650 1302 4700 
Q 1616 4750 1894 4750 
Q 2613 4750 3031 4423 
Q 3450 4097 3450 3541 
Q 3450 3153 3228 2886 
Q 3006 2619 2597 2516 
z
" transform="scale(0.015625)"/>
       </defs>
       <use xlink:href="#DejaVuSans-33"/>
       <use xlink:href="#DejaVuSans-30" x="63.623047"/>
      </g>
     </g>
    </g>
    <g id="xtick_8">
     <g id="line2d_22">
      <path d="M 896.496268 520.7175 
L 896.496268 21.7575 
" clip-path="url(#p18914af54d)" style="fill: none; stroke-dasharray: 1.85,0.8; stroke-dashoffset: 0; stroke: #000000; stroke-opacity: 0.5; stroke-width: 0.5"/>
     </g>
     <g id="line2d_23">
      <g>
       <use xlink:href="#m84a29d6f43" x="896.496268" y="520.7175" style="stroke: #000000"/>
      </g>
     </g>
     <g id="line2d_24">
      <g>
       <use xlink:href="#mb596b53970" x="896.496268" y="21.7575" style="stroke: #000000"/>
      </g>
     </g>
     <g id="text_8">
      <!-- 35 -->
      <g transform="translate(886.316268 536.375) scale(0.16 -0.16)">
       <use xlink:href="#DejaVuSans-33"/>
       <use xlink:href="#DejaVuSans-35" x="63.623047"/>
      </g>
     </g>
    </g>
    <g id="xtick_9">
     <g id="line2d_25">
      <path d="M 1010.689728 520.7175 
L 1010.689728 21.7575 
" clip-path="url(#p18914af54d)" style="fill: none; stroke-dasharray: 1.85,0.8; stroke-dashoffset: 0; stroke: #000000; stroke-opacity: 0.5; stroke-width: 0.5"/>
     </g>
     <g id="line2d_26">
      <g>
       <use xlink:href="#m84a29d6f43" x="1010.689728" y="520.7175" style="stroke: #000000"/>
      </g>
     </g>
     <g id="line2d_27">
      <g>
       <use xlink:href="#mb596b53970" x="1010.689728" y="21.7575" style="stroke: #000000"/>
      </g>
     </g>
     <g id="text_9">
      <!-- 40 -->
      <g transform="translate(1000.509728 536.375) scale(0.16 -0.16)">
       <defs>
        <path id="DejaVuSans-34" d="M 2419 4116 
L 825 1625 
L 2419 1625 
L 2419 4116 
z
M 2253 4666 
L 3047 4666 
L 3047 1625 
L 3713 1625 
L 3713 1100 
L 3047 1100 
L 3047 0 
L 2419 0 
L 2419 1100 
L 313 1100 
L 313 1709 
L 2253 4666 
z
" transform="scale(0.015625)"/>
       </defs>
       <use xlink:href="#DejaVuSans-34"/>
       <use xlink:href="#DejaVuSans-30" x="63.623047"/>
      </g>
     </g>
    </g>
    <g id="xtick_10">
     <g id="line2d_28">
      <defs>
       <path id="m7165840755" d="M 0 0 
L 0 -3 
" style="stroke: #000000"/>
      </defs>
      <g>
       <use xlink:href="#m7165840755" x="74.303353" y="520.7175" style="stroke: #000000"/>
      </g>
     </g>
     <g id="line2d_29">
      <defs>
       <path id="m6987397af2" d="M 0 0 
L 0 3 
" style="stroke: #000000"/>
      </defs>
      <g>
       <use xlink:href="#m6987397af2" x="74.303353" y="21.7575" style="stroke: #000000"/>
      </g>
     </g>
    </g>
    <g id="xtick_11">
     <g id="line2d_30">
      <g>
       <use xlink:href="#m7165840755" x="119.980738" y="520.7175" style="stroke: #000000"/>
      </g>
     </g>
     <g id="line2d_31">
      <g>
       <use xlink:href="#m6987397af2" x="119.980738" y="21.7575" style="stroke: #000000"/>
      </g>
     </g>
    </g>
    <g id="xtick_12">
     <g id="line2d_32">
      <g>
       <use xlink:href="#m7165840755" x="142.81943" y="520.7175" style="stroke: #000000"/>
      </g>
     </g>
     <g id="line2d_33">
      <g>
       <use xlink:href="#m6987397af2" x="142.81943" y="21.7575" style="stroke: #000000"/>
      </g>
     </g>
    </g>
    <g id="xtick_13">
     <g id="line2d_34">
      <g>
       <use xlink:href="#m7165840755" x="165.658122" y="520.7175" style="stroke: #000000"/>
      </g>
     </g>
     <g id="line2d_35">
      <g>
       <use xlink:href="#m6987397af2" x="165.658122" y="21.7575" style="stroke: #000000"/>
      </g>
     </g>
    </g>
    <g id="xtick_14">
     <g id="line2d_36">
      <g>
       <use xlink:href="#m7165840755" x="188.496814" y="520.7175" style="stroke: #000000"/>
      </g>
     </g>
     <g id="line2d_37">
      <g>
       <use xlink:href="#m6987397af2" x="188.496814" y="21.7575" style="stroke: #000000"/>
      </g>
     </g>
    </g>
    <g id="xtick_15">
     <g id="line2d_38">
      <g>
       <use xlink:href="#m7165840755" x="234.174198" y="520.7175" style="stroke: #000000"/>
      </g>
     </g>
     <g id="line2d_39">
      <g>
       <use xlink:href="#m6987397af2" x="234.174198" y="21.7575" style="stroke: #000000"/>
      </g>
     </g>
    </g>
    <g id="xtick_16">
     <g id="line2d_40">
      <g>
       <use xlink:href="#m7165840755" x="257.01289" y="520.7175" style="stroke: #000000"/>
      </g>
     </g>
     <g id="line2d_41">
      <g>
       <use xlink:href="#m6987397af2" x="257.01289" y="21.7575" style="stroke: #000000"/>
      </g>
     </g>
    </g>
    <g id="xtick_17">
     <g id="line2d_42">
      <g>
       <use xlink:href="#m7165840755" x="279.851582" y="520.7175" style="stroke: #000000"/>
      </g>
     </g>
     <g id="line2d_43">
      <g>
       <use xlink:href="#m6987397af2" x="279.851582" y="21.7575" style="stroke: #000000"/>
      </g>
     </g>
    </g>
    <g id="xtick_18">
     <g id="line2d_44">
      <g>
       <use xlink:href="#m7165840755" x="302.690274" y="520.7175" style="stroke: #000000"/>
      </g>
     </g>
     <g id="line2d_45">
      <g>
       <use xlink:href="#m6987397af2" x="302.690274" y="21.7575" style="stroke: #000000"/>
      </g>
     </g>
    </g>
    <g id="xtick_19">
     <g id="line2d_46">
      <g>
       <use xlink:href="#m7165840755" x="348.367658" y="520.7175" style="stroke: #000000"/>
      </g>
     </g>
     <g id="line2d_47">
      <g>
       <use xlink:href="#m6987397af2" x="348.367658" y="21.7575" style="stroke: #000000"/>
      </g>
     </g>
    </g>
    <g id="xtick_20">
     <g id="line2d_48">
      <g>
       <use xlink:href="#m7165840755" x="371.20635" y="520.7175" style="stroke: #000000"/>
      </g>
     </g>
     <g id="line2d_49">
      <g>
       <use xlink:href="#m6987397af2" x="371.20635" y="21.7575" style="stroke: #000000"/>
      </g>
     </g>
    </g>
    <g id="xtick_21">
     <g id="line2d_50">
      <g>
       <use xlink:href="#m7165840755" x="394.045042" y="520.7175" style="stroke: #000000"/>
      </g>
     </g>
     <g id="line2d_51">
      <g>
       <use xlink:href="#m6987397af2" x="394.045042" y="21.7575" style="stroke: #000000"/>
      </g>
     </g>
    </g>
    <g id="xtick_22">
     <g id="line2d_52">
      <g>
       <use xlink:href="#m7165840755" x="416.883734" y="520.7175" style="stroke: #000000"/>
      </g>
     </g>
     <g id="line2d_53">
      <g>
       <use xlink:href="#m6987397af2" x="416.883734" y="21.7575" style="stroke: #000000"/>
      </g>
     </g>
    </g>
    <g id="xtick_23">
     <g id="line2d_54">
      <g>
       <use xlink:href="#m7165840755" x="462.561119" y="520.7175" style="stroke: #000000"/>
      </g>
     </g>
     <g id="line2d_55">
      <g>
       <use xlink:href="#m6987397af2" x="462.561119" y="21.7575" style="stroke: #000000"/>
      </g>
     </g>
    </g>
    <g id="xtick_24">
     <g id="line2d_56">
      <g>
       <use xlink:href="#m7165840755" x="485.399811" y="520.7175" style="stroke: #000000"/>
      </g>
     </g>
     <g id="line2d_57">
      <g>
       <use xlink:href="#m6987397af2" x="485.399811" y="21.7575" style="stroke: #000000"/>
      </g>
     </g>
    </g>
    <g id="xtick_25">
     <g id="line2d_58">
      <g>
       <use xlink:href="#m7165840755" x="508.238503" y="520.7175" style="stroke: #000000"/>
      </g>
     </g>
     <g id="line2d_59">
      <g>
       <use xlink:href="#m6987397af2" x="508.238503" y="21.7575" style="stroke: #000000"/>
      </g>
     </g>
    </g>
    <g id="xtick_26">
     <g id="line2d_60">
      <g>
       <use xlink:href="#m7165840755" x="531.077195" y="520.7175" style="stroke: #000000"/>
      </g>
     </g>
     <g id="line2d_61">
      <g>
       <use xlink:href="#m6987397af2" x="531.077195" y="21.7575" style="stroke: #000000"/>
      </g>
     </g>
    </g>
    <g id="xtick_27">
     <g id="line2d_62">
      <g>
       <use xlink:href="#m7165840755" x="576.754579" y="520.7175" style="stroke: #000000"/>
      </g>
     </g>
     <g id="line2d_63">
      <g>
       <use xlink:href="#m6987397af2" x="576.754579" y="21.7575" style="stroke: #000000"/>
      </g>
     </g>
    </g>
    <g id="xtick_28">
     <g id="line2d_64">
      <g>
       <use xlink:href="#m7165840755" x="599.593271" y="520.7175" style="stroke: #000000"/>
      </g>
     </g>
     <g id="line2d_65">
      <g>
       <use xlink:href="#m6987397af2" x="599.593271" y="21.7575" style="stroke: #000000"/>
      </g>
     </g>
    </g>
    <g id="xtick_29">
     <g id="line2d_66">
      <g>
       <use xlink:href="#m7165840755" x="622.431963" y="520.7175" style="stroke: #000000"/>
      </g>
     </g>
     <g id="line2d_67">
      <g>
       <use xlink:href="#m6987397af2" x="622.431963" y="21.7575" style="stroke: #000000"/>
      </g>
     </g>
    </g>
    <g id="xtick_30">
     <g id="line2d_68">
      <g>
       <use xlink:href="#m7165840755" x="645.270655" y="520.7175" style="stroke: #000000"/>
      </g>
     </g>
     <g id="line2d_69">
      <g>
       <use xlink:href="#m6987397af2" x="645.270655" y="21.7575" style="stroke: #000000"/>
      </g>
     </g>
    </g>
    <g id="xtick_31">
     <g id="line2d_70">
      <g>
       <use xlink:href="#m7165840755" x="690.948039" y="520.7175" style="stroke: #000000"/>
      </g>
     </g>
     <g id="line2d_71">
      <g>
       <use xlink:href="#m6987397af2" x="690.948039" y="21.7575" style="stroke: #000000"/>
      </g>
     </g>
    </g>
    <g id="xtick_32">
     <g id="line2d_72">
      <g>
       <use xlink:href="#m7165840755" x="713.786731" y="520.7175" style="stroke: #000000"/>
      </g>
     </g>
     <g id="line2d_73">
      <g>
       <use xlink:href="#m6987397af2" x="713.786731" y="21.7575" style="stroke: #000000"/>
      </g>
     </g>
    </g>
    <g id="xtick_33">
     <g id="line2d_74">
      <g>
       <use xlink:href="#m7165840755" x="736.625424" y="520.7175" style="stroke: #000000"/>
      </g>
     </g>
     <g id="line2d_75">
      <g>
       <use xlink:href="#m6987397af2" x="736.625424" y="21.7575" style="stroke: #000000"/>
      </g>
     </g>
    </g>
    <g id="xtick_34">
     <g id="line2d_76">
      <g>
       <use xlink:href="#m7165840755" x="759.464116" y="520.7175" style="stroke: #000000"/>
      </g>
     </g>
     <g id="line2d_77">
      <g>
       <use xlink:href="#m6987397af2" x="759.464116" y="21.7575" style="stroke: #000000"/>
      </g>
     </g>
    </g>
    <g id="xtick_35">
     <g id="line2d_78">
      <g>
       <use xlink:href="#m7165840755" x="805.1415" y="520.7175" style="stroke: #000000"/>
      </g>
     </g>
     <g id="line2d_79">
      <g>
       <use xlink:href="#m6987397af2" x="805.1415" y="21.7575" style="stroke: #000000"/>
      </g>
     </g>
    </g>
    <g id="xtick_36">
     <g id="line2d_80">
      <g>
       <use xlink:href="#m7165840755" x="827.980192" y="520.7175" style="stroke: #000000"/>
      </g>
     </g>
     <g id="line2d_81">
      <g>
       <use xlink:href="#m6987397af2" x="827.980192" y="21.7575" style="stroke: #000000"/>
      </g>
     </g>
    </g>
    <g id="xtick_37">
     <g id="line2d_82">
      <g>
       <use xlink:href="#m7165840755" x="850.818884" y="520.7175" style="stroke: #000000"/>
      </g>
     </g>
     <g id="line2d_83">
      <g>
       <use xlink:href="#m6987397af2" x="850.818884" y="21.7575" style="stroke: #000000"/>
      </g>
     </g>
    </g>
    <g id="xtick_38">
     <g id="line2d_84">
      <g>
       <use xlink:href="#m7165840755" x="873.657576" y="520.7175" style="stroke: #000000"/>
      </g>
     </g>
     <g id="line2d_85">
      <g>
       <use xlink:href="#m6987397af2" x="873.657576" y="21.7575" style="stroke: #000000"/>
      </g>
     </g>
    </g>
    <g id="xtick_39">
     <g id="line2d_86">
      <g>
       <use xlink:href="#m7165840755" x="919.33496" y="520.7175" style="stroke: #000000"/>
      </g>
     </g>
     <g id="line2d_87">
      <g>
       <use xlink:href="#m6987397af2" x="919.33496" y="21.7575" style="stroke: #000000"/>
      </g>
     </g>
    </g>
    <g id="xtick_40">
     <g id="line2d_88">
      <g>
       <use xlink:href="#m7165840755" x="942.173652" y="520.7175" style="stroke: #000000"/>
      </g>
     </g>
     <g id="line2d_89">
      <g>
       <use xlink:href="#m6987397af2" x="942.173652" y="21.7575" style="stroke: #000000"/>
      </g>
     </g>
    </g>
    <g id="xtick_41">
     <g id="line2d_90">
      <g>
       <use xlink:href="#m7165840755" x="965.012344" y="520.7175" style="stroke: #000000"/>
      </g>
     </g>
     <g id="line2d_91">
      <g>
       <use xlink:href="#m6987397af2" x="965.012344" y="21.7575" style="stroke: #000000"/>
      </g>
     </g>
    </g>
    <g id="xtick_42">
     <g id="line2d_92">
      <g>
       <use xlink:href="#m7165840755" x="987.851036" y="520.7175" style="stroke: #000000"/>
      </g>
     </g>
     <g id="line2d_93">
      <g>
       <use xlink:href="#m6987397af2" x="987.851036" y="21.7575" style="stroke: #000000"/>
      </g>
     </g>
    </g>
    <g id="xtick_43">
     <g id="line2d_94">
      <g>
       <use xlink:href="#m7165840755" x="1033.52842" y="520.7175" style="stroke: #000000"/>
      </g>
     </g>
     <g id="line2d_95">
      <g>
       <use xlink:href="#m6987397af2" x="1033.52842" y="21.7575" style="stroke: #000000"/>
      </g>
     </g>
    </g>
    <g id="text_10">
     <!-- Time(s) -->
     <g transform="translate(523.70375 555.86) scale(0.16 -0.16)">
      <defs>
       <path id="DejaVuSans-54" d="M -19 4666 
L 3928 4666 
L 3928 4134 
L 2272 4134 
L 2272 0 
L 1638 0 
L 1638 4134 
L -19 4134 
L -19 4666 
z
" transform="scale(0.015625)"/>
       <path id="DejaVuSans-69" d="M 603 3500 
L 1178 3500 
L 1178 0 
L 603 0 
L 603 3500 
z
M 603 4863 
L 1178 4863 
L 1178 4134 
L 603 4134 
L 603 4863 
z
" transform="scale(0.015625)"/>
       <path id="DejaVuSans-6d" d="M 3328 2828 
Q 3544 3216 3844 3400 
Q 4144 3584 4550 3584 
Q 5097 3584 5394 3201 
Q 5691 2819 5691 2113 
L 5691 0 
L 5113 0 
L 5113 2094 
Q 5113 2597 4934 2840 
Q 4756 3084 4391 3084 
Q 3944 3084 3684 2787 
Q 3425 2491 3425 1978 
L 3425 0 
L 2847 0 
L 2847 2094 
Q 2847 2600 2669 2842 
Q 2491 3084 2119 3084 
Q 1678 3084 1418 2786 
Q 1159 2488 1159 1978 
L 1159 0 
L 581 0 
L 581 3500 
L 1159 3500 
L 1159 2956 
Q 1356 3278 1631 3431 
Q 1906 3584 2284 3584 
Q 2666 3584 2933 3390 
Q 3200 3197 3328 2828 
z
" transform="scale(0.015625)"/>
       <path id="DejaVuSans-65" d="M 3597 1894 
L 3597 1613 
L 953 1613 
Q 991 1019 1311 708 
Q 1631 397 2203 397 
Q 2534 397 2845 478 
Q 3156 559 3463 722 
L 3463 178 
Q 3153 47 2828 -22 
Q 2503 -91 2169 -91 
Q 1331 -91 842 396 
Q 353 884 353 1716 
Q 353 2575 817 3079 
Q 1281 3584 2069 3584 
Q 2775 3584 3186 3129 
Q 3597 2675 3597 1894 
z
M 3022 2063 
Q 3016 2534 2758 2815 
Q 2500 3097 2075 3097 
Q 1594 3097 1305 2825 
Q 1016 2553 972 2059 
L 3022 2063 
z
" transform="scale(0.015625)"/>
       <path id="DejaVuSans-28" d="M 1984 4856 
Q 1566 4138 1362 3434 
Q 1159 2731 1159 2009 
Q 1159 1288 1364 580 
Q 1569 -128 1984 -844 
L 1484 -844 
Q 1016 -109 783 600 
Q 550 1309 550 2009 
Q 550 2706 781 3412 
Q 1013 4119 1484 4856 
L 1984 4856 
z
" transform="scale(0.015625)"/>
       <path id="DejaVuSans-73" d="M 2834 3397 
L 2834 2853 
Q 2591 2978 2328 3040 
Q 2066 3103 1784 3103 
Q 1356 3103 1142 2972 
Q 928 2841 928 2578 
Q 928 2378 1081 2264 
Q 1234 2150 1697 2047 
L 1894 2003 
Q 2506 1872 2764 1633 
Q 3022 1394 3022 966 
Q 3022 478 2636 193 
Q 2250 -91 1575 -91 
Q 1294 -91 989 -36 
Q 684 19 347 128 
L 347 722 
Q 666 556 975 473 
Q 1284 391 1588 391 
Q 1994 391 2212 530 
Q 2431 669 2431 922 
Q 2431 1156 2273 1281 
Q 2116 1406 1581 1522 
L 1381 1569 
Q 847 1681 609 1914 
Q 372 2147 372 2553 
Q 372 3047 722 3315 
Q 1072 3584 1716 3584 
Q 2034 3584 2315 3537 
Q 2597 3491 2834 3397 
z
" transform="scale(0.015625)"/>
       <path id="DejaVuSans-29" d="M 513 4856 
L 1013 4856 
Q 1481 4119 1714 3412 
Q 1947 2706 1947 2009 
Q 1947 1309 1714 600 
Q 1481 -109 1013 -844 
L 513 -844 
Q 928 -128 1133 580 
Q 1338 1288 1338 2009 
Q 1338 2731 1133 3434 
Q 928 4138 513 4856 
z
" transform="scale(0.015625)"/>
      </defs>
      <use xlink:href="#DejaVuSans-54"/>
      <use xlink:href="#DejaVuSans-69" x="57.958984"/>
      <use xlink:href="#DejaVuSans-6d" x="85.742188"/>
      <use xlink:href="#DejaVuSans-65" x="183.154297"/>
      <use xlink:href="#DejaVuSans-28" x="244.677734"/>
      <use xlink:href="#DejaVuSans-73" x="283.691406"/>
      <use xlink:href="#DejaVuSans-29" x="335.791016"/>
     </g>
    </g>
   </g>
   <g id="matplotlib.axis_2">
    <g id="ytick_1">
     <g id="line2d_96">
      <path d="M 51.4875 469.69113 
L 1055.8875 469.69113 
" clip-path="url(#p18914af54d)" style="fill: none; stroke-dasharray: 1.85,0.8; stroke-dashoffset: 0; stroke: #000000; stroke-opacity: 0.5; stroke-width: 0.5"/>
     </g>
     <g id="line2d_97">
      <defs>
       <path id="mcf9c5a63a9" d="M 0 0 
L 6 0 
" style="stroke: #000000"/>
      </defs>
      <g>
       <use xlink:href="#mcf9c5a63a9" x="51.4875" y="469.69113" style="stroke: #000000"/>
      </g>
     </g>
     <g id="line2d_98">
      <defs>
       <path id="maa7fa6ab91" d="M 0 0 
L -6 0 
" style="stroke: #000000"/>
      </defs>
      <g>
       <use xlink:href="#maa7fa6ab91" x="1055.8875" y="469.69113" style="stroke: #000000"/>
      </g>
     </g>
     <g id="text_11">
      <!-- −3 -->
      <g transform="translate(24.4 475.76988) scale(0.16 -0.16)">
       <defs>
        <path id="DejaVuSans-2212" d="M 678 2272 
L 4684 2272 
L 4684 1741 
L 678 1741 
L 678 2272 
z
" transform="scale(0.015625)"/>
       </defs>
       <use xlink:href="#DejaVuSans-2212"/>
       <use xlink:href="#DejaVuSans-33" x="83.789062"/>
      </g>
     </g>
    </g>
    <g id="ytick_2">
     <g id="line2d_99">
      <path d="M 51.4875 404.778581 
L 1055.8875 404.778581 
" clip-path="url(#p18914af54d)" style="fill: none; stroke-dasharray: 1.85,0.8; stroke-dashoffset: 0; stroke: #000000; stroke-opacity: 0.5; stroke-width: 0.5"/>
     </g>
     <g id="line2d_100">
      <g>
       <use xlink:href="#mcf9c5a63a9" x="51.4875" y="404.778581" style="stroke: #000000"/>
      </g>
     </g>
     <g id="line2d_101">
      <g>
       <use xlink:href="#maa7fa6ab91" x="1055.8875" y="404.778581" style="stroke: #000000"/>
      </g>
     </g>
     <g id="text_12">
      <!-- −2 -->
      <g transform="translate(24.4 410.857331) scale(0.16 -0.16)">
       <use xlink:href="#DejaVuSans-2212"/>
       <use xlink:href="#DejaVuSans-32" x="83.789062"/>
      </g>
     </g>
    </g>
    <g id="ytick_3">
     <g id="line2d_102">
      <path d="M 51.4875 339.866032 
L 1055.8875 339.866032 
" clip-path="url(#p18914af54d)" style="fill: none; stroke-dasharray: 1.85,0.8; stroke-dashoffset: 0; stroke: #000000; stroke-opacity: 0.5; stroke-width: 0.5"/>
     </g>
     <g id="line2d_103">
      <g>
       <use xlink:href="#mcf9c5a63a9" x="51.4875" y="339.866032" style="stroke: #000000"/>
      </g>
     </g>
     <g id="line2d_104">
      <g>
       <use xlink:href="#maa7fa6ab91" x="1055.8875" y="339.866032" style="stroke: #000000"/>
      </g>
     </g>
     <g id="text_13">
      <!-- −1 -->
      <g transform="translate(24.4 345.944782) scale(0.16 -0.16)">
       <use xlink:href="#DejaVuSans-2212"/>
       <use xlink:href="#DejaVuSans-31" x="83.789062"/>
      </g>
     </g>
    </g>
    <g id="ytick_4">
     <g id="line2d_105">
      <path d="M 51.4875 274.953483 
L 1055.8875 274.953483 
" clip-path="url(#p18914af54d)" style="fill: none; stroke-dasharray: 1.85,0.8; stroke-dashoffset: 0; stroke: #000000; stroke-opacity: 0.5; stroke-width: 0.5"/>
     </g>
     <g id="line2d_106">
      <g>
       <use xlink:href="#mcf9c5a63a9" x="51.4875" y="274.953483" style="stroke: #000000"/>
      </g>
     </g>
     <g id="line2d_107">
      <g>
       <use xlink:href="#maa7fa6ab91" x="1055.8875" y="274.953483" style="stroke: #000000"/>
      </g>
     </g>
     <g id="text_14">
      <!-- 0 -->
      <g transform="translate(37.8075 281.032233) scale(0.16 -0.16)">
       <use xlink:href="#DejaVuSans-30"/>
      </g>
     </g>
    </g>
    <g id="ytick_5">
     <g id="line2d_108">
      <path d="M 51.4875 210.040933 
L 1055.8875 210.040933 
" clip-path="url(#p18914af54d)" style="fill: none; stroke-dasharray: 1.85,0.8; stroke-dashoffset: 0; stroke: #000000; stroke-opacity: 0.5; stroke-width: 0.5"/>
     </g>
     <g id="line2d_109">
      <g>
       <use xlink:href="#mcf9c5a63a9" x="51.4875" y="210.040933" style="stroke: #000000"/>
      </g>
     </g>
     <g id="line2d_110">
      <g>
       <use xlink:href="#maa7fa6ab91" x="1055.8875" y="210.040933" style="stroke: #000000"/>
      </g>
     </g>
     <g id="text_15">
      <!-- 1 -->
      <g transform="translate(37.8075 216.119683) scale(0.16 -0.16)">
       <use xlink:href="#DejaVuSans-31"/>
      </g>
     </g>
    </g>
    <g id="ytick_6">
     <g id="line2d_111">
      <path d="M 51.4875 145.128384 
L 1055.8875 145.128384 
" clip-path="url(#p18914af54d)" style="fill: none; stroke-dasharray: 1.85,0.8; stroke-dashoffset: 0; stroke: #000000; stroke-opacity: 0.5; stroke-width: 0.5"/>
     </g>
     <g id="line2d_112">
      <g>
       <use xlink:href="#mcf9c5a63a9" x="51.4875" y="145.128384" style="stroke: #000000"/>
      </g>
     </g>
     <g id="line2d_113">
      <g>
       <use xlink:href="#maa7fa6ab91" x="1055.8875" y="145.128384" style="stroke: #000000"/>
      </g>
     </g>
     <g id="text_16">
      <!-- 2 -->
      <g transform="translate(37.8075 151.207134) scale(0.16 -0.16)">
       <use xlink:href="#DejaVuSans-32"/>
      </g>
     </g>
    </g>
    <g id="ytick_7">
     <g id="line2d_114">
      <path d="M 51.4875 80.215835 
L 1055.8875 80.215835 
" clip-path="url(#p18914af54d)" style="fill: none; stroke-dasharray: 1.85,0.8; stroke-dashoffset: 0; stroke: #000000; stroke-opacity: 0.5; stroke-width: 0.5"/>
     </g>
     <g id="line2d_115">
      <g>
       <use xlink:href="#mcf9c5a63a9" x="51.4875" y="80.215835" style="stroke: #000000"/>
      </g>
     </g>
     <g id="line2d_116">
      <g>
       <use xlink:href="#maa7fa6ab91" x="1055.8875" y="80.215835" style="stroke: #000000"/>
      </g>
     </g>
     <g id="text_17">
      <!-- 3 -->
      <g transform="translate(37.8075 86.294585) scale(0.16 -0.16)">
       <use xlink:href="#DejaVuSans-33"/>
      </g>
     </g>
    </g>
    <g id="ytick_8">
     <g id="line2d_117">
      <defs>
       <path id="m16b90220c9" d="M 0 0 
L 3 0 
" style="stroke: #000000"/>
      </defs>
      <g>
       <use xlink:href="#m16b90220c9" x="51.4875" y="508.638659" style="stroke: #000000"/>
      </g>
     </g>
     <g id="line2d_118">
      <defs>
       <path id="ma021f53e28" d="M 0 0 
L -3 0 
" style="stroke: #000000"/>
      </defs>
      <g>
       <use xlink:href="#ma021f53e28" x="1055.8875" y="508.638659" style="stroke: #000000"/>
      </g>
     </g>
    </g>
    <g id="ytick_9">
     <g id="line2d_119">
      <g>
       <use xlink:href="#m16b90220c9" x="51.4875" y="495.65615" style="stroke: #000000"/>
      </g>
     </g>
     <g id="line2d_120">
      <g>
       <use xlink:href="#ma021f53e28" x="1055.8875" y="495.65615" style="stroke: #000000"/>
      </g>
     </g>
    </g>
    <g id="ytick_10">
     <g id="line2d_121">
      <g>
       <use xlink:href="#m16b90220c9" x="51.4875" y="482.67364" style="stroke: #000000"/>
      </g>
     </g>
     <g id="line2d_122">
      <g>
       <use xlink:href="#ma021f53e28" x="1055.8875" y="482.67364" style="stroke: #000000"/>
      </g>
     </g>
    </g>
    <g id="ytick_11">
     <g id="line2d_123">
      <g>
       <use xlink:href="#m16b90220c9" x="51.4875" y="456.70862" style="stroke: #000000"/>
      </g>
     </g>
     <g id="line2d_124">
      <g>
       <use xlink:href="#ma021f53e28" x="1055.8875" y="456.70862" style="stroke: #000000"/>
      </g>
     </g>
    </g>
    <g id="ytick_12">
     <g id="line2d_125">
      <g>
       <use xlink:href="#m16b90220c9" x="51.4875" y="443.72611" style="stroke: #000000"/>
      </g>
     </g>
     <g id="line2d_126">
      <g>
       <use xlink:href="#ma021f53e28" x="1055.8875" y="443.72611" style="stroke: #000000"/>
      </g>
     </g>
    </g>
    <g id="ytick_13">
     <g id="line2d_127">
      <g>
       <use xlink:href="#m16b90220c9" x="51.4875" y="430.7436" style="stroke: #000000"/>
      </g>
     </g>
     <g id="line2d_128">
      <g>
       <use xlink:href="#ma021f53e28" x="1055.8875" y="430.7436" style="stroke: #000000"/>
      </g>
     </g>
    </g>
    <g id="ytick_14">
     <g id="line2d_129">
      <g>
       <use xlink:href="#m16b90220c9" x="51.4875" y="417.761091" style="stroke: #000000"/>
      </g>
     </g>
     <g id="line2d_130">
      <g>
       <use xlink:href="#ma021f53e28" x="1055.8875" y="417.761091" style="stroke: #000000"/>
      </g>
     </g>
    </g>
    <g id="ytick_15">
     <g id="line2d_131">
      <g>
       <use xlink:href="#m16b90220c9" x="51.4875" y="391.796071" style="stroke: #000000"/>
      </g>
     </g>
     <g id="line2d_132">
      <g>
       <use xlink:href="#ma021f53e28" x="1055.8875" y="391.796071" style="stroke: #000000"/>
      </g>
     </g>
    </g>
    <g id="ytick_16">
     <g id="line2d_133">
      <g>
       <use xlink:href="#m16b90220c9" x="51.4875" y="378.813561" style="stroke: #000000"/>
      </g>
     </g>
     <g id="line2d_134">
      <g>
       <use xlink:href="#ma021f53e28" x="1055.8875" y="378.813561" style="stroke: #000000"/>
      </g>
     </g>
    </g>
    <g id="ytick_17">
     <g id="line2d_135">
      <g>
       <use xlink:href="#m16b90220c9" x="51.4875" y="365.831051" style="stroke: #000000"/>
      </g>
     </g>
     <g id="line2d_136">
      <g>
       <use xlink:href="#ma021f53e28" x="1055.8875" y="365.831051" style="stroke: #000000"/>
      </g>
     </g>
    </g>
    <g id="ytick_18">
     <g id="line2d_137">
      <g>
       <use xlink:href="#m16b90220c9" x="51.4875" y="352.848542" style="stroke: #000000"/>
      </g>
     </g>
     <g id="line2d_138">
      <g>
       <use xlink:href="#ma021f53e28" x="1055.8875" y="352.848542" style="stroke: #000000"/>
      </g>
     </g>
    </g>
    <g id="ytick_19">
     <g id="line2d_139">
      <g>
       <use xlink:href="#m16b90220c9" x="51.4875" y="326.883522" style="stroke: #000000"/>
      </g>
     </g>
     <g id="line2d_140">
      <g>
       <use xlink:href="#ma021f53e28" x="1055.8875" y="326.883522" style="stroke: #000000"/>
      </g>
     </g>
    </g>
    <g id="ytick_20">
     <g id="line2d_141">
      <g>
       <use xlink:href="#m16b90220c9" x="51.4875" y="313.901012" style="stroke: #000000"/>
      </g>
     </g>
     <g id="line2d_142">
      <g>
       <use xlink:href="#ma021f53e28" x="1055.8875" y="313.901012" style="stroke: #000000"/>
      </g>
     </g>
    </g>
    <g id="ytick_21">
     <g id="line2d_143">
      <g>
       <use xlink:href="#m16b90220c9" x="51.4875" y="300.918502" style="stroke: #000000"/>
      </g>
     </g>
     <g id="line2d_144">
      <g>
       <use xlink:href="#ma021f53e28" x="1055.8875" y="300.918502" style="stroke: #000000"/>
      </g>
     </g>
    </g>
    <g id="ytick_22">
     <g id="line2d_145">
      <g>
       <use xlink:href="#m16b90220c9" x="51.4875" y="287.935992" style="stroke: #000000"/>
      </g>
     </g>
     <g id="line2d_146">
      <g>
       <use xlink:href="#ma021f53e28" x="1055.8875" y="287.935992" style="stroke: #000000"/>
      </g>
     </g>
    </g>
    <g id="ytick_23">
     <g id="line2d_147">
      <g>
       <use xlink:href="#m16b90220c9" x="51.4875" y="261.970973" style="stroke: #000000"/>
      </g>
     </g>
     <g id="line2d_148">
      <g>
       <use xlink:href="#ma021f53e28" x="1055.8875" y="261.970973" style="stroke: #000000"/>
      </g>
     </g>
    </g>
    <g id="ytick_24">
     <g id="line2d_149">
      <g>
       <use xlink:href="#m16b90220c9" x="51.4875" y="248.988463" style="stroke: #000000"/>
      </g>
     </g>
     <g id="line2d_150">
      <g>
       <use xlink:href="#ma021f53e28" x="1055.8875" y="248.988463" style="stroke: #000000"/>
      </g>
     </g>
    </g>
    <g id="ytick_25">
     <g id="line2d_151">
      <g>
       <use xlink:href="#m16b90220c9" x="51.4875" y="236.005953" style="stroke: #000000"/>
      </g>
     </g>
     <g id="line2d_152">
      <g>
       <use xlink:href="#ma021f53e28" x="1055.8875" y="236.005953" style="stroke: #000000"/>
      </g>
     </g>
    </g>
    <g id="ytick_26">
     <g id="line2d_153">
      <g>
       <use xlink:href="#m16b90220c9" x="51.4875" y="223.023443" style="stroke: #000000"/>
      </g>
     </g>
     <g id="line2d_154">
      <g>
       <use xlink:href="#ma021f53e28" x="1055.8875" y="223.023443" style="stroke: #000000"/>
      </g>
     </g>
    </g>
    <g id="ytick_27">
     <g id="line2d_155">
      <g>
       <use xlink:href="#m16b90220c9" x="51.4875" y="197.058424" style="stroke: #000000"/>
      </g>
     </g>
     <g id="line2d_156">
      <g>
       <use xlink:href="#ma021f53e28" x="1055.8875" y="197.058424" style="stroke: #000000"/>
      </g>
     </g>
    </g>
    <g id="ytick_28">
     <g id="line2d_157">
      <g>
       <use xlink:href="#m16b90220c9" x="51.4875" y="184.075914" style="stroke: #000000"/>
      </g>
     </g>
     <g id="line2d_158">
      <g>
       <use xlink:href="#ma021f53e28" x="1055.8875" y="184.075914" style="stroke: #000000"/>
      </g>
     </g>
    </g>
    <g id="ytick_29">
     <g id="line2d_159">
      <g>
       <use xlink:href="#m16b90220c9" x="51.4875" y="171.093404" style="stroke: #000000"/>
      </g>
     </g>
     <g id="line2d_160">
      <g>
       <use xlink:href="#ma021f53e28" x="1055.8875" y="171.093404" style="stroke: #000000"/>
      </g>
     </g>
    </g>
    <g id="ytick_30">
     <g id="line2d_161">
      <g>
       <use xlink:href="#m16b90220c9" x="51.4875" y="158.110894" style="stroke: #000000"/>
      </g>
     </g>
     <g id="line2d_162">
      <g>
       <use xlink:href="#ma021f53e28" x="1055.8875" y="158.110894" style="stroke: #000000"/>
      </g>
     </g>
    </g>
    <g id="ytick_31">
     <g id="line2d_163">
      <g>
       <use xlink:href="#m16b90220c9" x="51.4875" y="132.145874" style="stroke: #000000"/>
      </g>
     </g>
     <g id="line2d_164">
      <g>
       <use xlink:href="#ma021f53e28" x="1055.8875" y="132.145874" style="stroke: #000000"/>
      </g>
     </g>
    </g>
    <g id="ytick_32">
     <g id="line2d_165">
      <g>
       <use xlink:href="#m16b90220c9" x="51.4875" y="119.163365" style="stroke: #000000"/>
      </g>
     </g>
     <g id="line2d_166">
      <g>
       <use xlink:href="#ma021f53e28" x="1055.8875" y="119.163365" style="stroke: #000000"/>
      </g>
     </g>
    </g>
    <g id="ytick_33">
     <g id="line2d_167">
      <g>
       <use xlink:href="#m16b90220c9" x="51.4875" y="106.180855" style="stroke: #000000"/>
      </g>
     </g>
     <g id="line2d_168">
      <g>
       <use xlink:href="#ma021f53e28" x="1055.8875" y="106.180855" style="stroke: #000000"/>
      </g>
     </g>
    </g>
    <g id="ytick_34">
     <g id="line2d_169">
      <g>
       <use xlink:href="#m16b90220c9" x="51.4875" y="93.198345" style="stroke: #000000"/>
      </g>
     </g>
     <g id="line2d_170">
      <g>
       <use xlink:href="#ma021f53e28" x="1055.8875" y="93.198345" style="stroke: #000000"/>
      </g>
     </g>
    </g>
    <g id="ytick_35">
     <g id="line2d_171">
      <g>
       <use xlink:href="#m16b90220c9" x="51.4875" y="67.233325" style="stroke: #000000"/>
      </g>
     </g>
     <g id="line2d_172">
      <g>
       <use xlink:href="#ma021f53e28" x="1055.8875" y="67.233325" style="stroke: #000000"/>
      </g>
     </g>
    </g>
    <g id="ytick_36">
     <g id="line2d_173">
      <g>
       <use xlink:href="#m16b90220c9" x="51.4875" y="54.250816" style="stroke: #000000"/>
      </g>
     </g>
     <g id="line2d_174">
      <g>
       <use xlink:href="#ma021f53e28" x="1055.8875" y="54.250816" style="stroke: #000000"/>
      </g>
     </g>
    </g>
    <g id="ytick_37">
     <g id="line2d_175">
      <g>
       <use xlink:href="#m16b90220c9" x="51.4875" y="41.268306" style="stroke: #000000"/>
      </g>
     </g>
     <g id="line2d_176">
      <g>
       <use xlink:href="#ma021f53e28" x="1055.8875" y="41.268306" style="stroke: #000000"/>
      </g>
     </g>
    </g>
    <g id="ytick_38">
     <g id="line2d_177">
      <g>
       <use xlink:href="#m16b90220c9" x="51.4875" y="28.285796" style="stroke: #000000"/>
      </g>
     </g>
     <g id="line2d_178">
      <g>
       <use xlink:href="#ma021f53e28" x="1055.8875" y="28.285796" style="stroke: #000000"/>
      </g>
     </g>
    </g>
    <g id="text_18">
     <!-- Absolute Roof Acceleration (m/s$^2$) -->
     <g transform="translate(17.0725 406.6775) rotate(-90) scale(0.16 -0.16)">
      <defs>
       <path id="DejaVuSans-41" d="M 2188 4044 
L 1331 1722 
L 3047 1722 
L 2188 4044 
z
M 1831 4666 
L 2547 4666 
L 4325 0 
L 3669 0 
L 3244 1197 
L 1141 1197 
L 716 0 
L 50 0 
L 1831 4666 
z
" transform="scale(0.015625)"/>
       <path id="DejaVuSans-62" d="M 3116 1747 
Q 3116 2381 2855 2742 
Q 2594 3103 2138 3103 
Q 1681 3103 1420 2742 
Q 1159 2381 1159 1747 
Q 1159 1113 1420 752 
Q 1681 391 2138 391 
Q 2594 391 2855 752 
Q 3116 1113 3116 1747 
z
M 1159 2969 
Q 1341 3281 1617 3432 
Q 1894 3584 2278 3584 
Q 2916 3584 3314 3078 
Q 3713 2572 3713 1747 
Q 3713 922 3314 415 
Q 2916 -91 2278 -91 
Q 1894 -91 1617 61 
Q 1341 213 1159 525 
L 1159 0 
L 581 0 
L 581 4863 
L 1159 4863 
L 1159 2969 
z
" transform="scale(0.015625)"/>
       <path id="DejaVuSans-6f" d="M 1959 3097 
Q 1497 3097 1228 2736 
Q 959 2375 959 1747 
Q 959 1119 1226 758 
Q 1494 397 1959 397 
Q 2419 397 2687 759 
Q 2956 1122 2956 1747 
Q 2956 2369 2687 2733 
Q 2419 3097 1959 3097 
z
M 1959 3584 
Q 2709 3584 3137 3096 
Q 3566 2609 3566 1747 
Q 3566 888 3137 398 
Q 2709 -91 1959 -91 
Q 1206 -91 779 398 
Q 353 888 353 1747 
Q 353 2609 779 3096 
Q 1206 3584 1959 3584 
z
" transform="scale(0.015625)"/>
       <path id="DejaVuSans-6c" d="M 603 4863 
L 1178 4863 
L 1178 0 
L 603 0 
L 603 4863 
z
" transform="scale(0.015625)"/>
       <path id="DejaVuSans-75" d="M 544 1381 
L 544 3500 
L 1119 3500 
L 1119 1403 
Q 1119 906 1312 657 
Q 1506 409 1894 409 
Q 2359 409 2629 706 
Q 2900 1003 2900 1516 
L 2900 3500 
L 3475 3500 
L 3475 0 
L 2900 0 
L 2900 538 
Q 2691 219 2414 64 
Q 2138 -91 1772 -91 
Q 1169 -91 856 284 
Q 544 659 544 1381 
z
M 1991 3584 
L 1991 3584 
z
" transform="scale(0.015625)"/>
       <path id="DejaVuSans-74" d="M 1172 4494 
L 1172 3500 
L 2356 3500 
L 2356 3053 
L 1172 3053 
L 1172 1153 
Q 1172 725 1289 603 
Q 1406 481 1766 481 
L 2356 481 
L 2356 0 
L 1766 0 
Q 1100 0 847 248 
Q 594 497 594 1153 
L 594 3053 
L 172 3053 
L 172 3500 
L 594 3500 
L 594 4494 
L 1172 4494 
z
" transform="scale(0.015625)"/>
       <path id="DejaVuSans-20" transform="scale(0.015625)"/>
       <path id="DejaVuSans-52" d="M 2841 2188 
Q 3044 2119 3236 1894 
Q 3428 1669 3622 1275 
L 4263 0 
L 3584 0 
L 2988 1197 
Q 2756 1666 2539 1819 
Q 2322 1972 1947 1972 
L 1259 1972 
L 1259 0 
L 628 0 
L 628 4666 
L 2053 4666 
Q 2853 4666 3247 4331 
Q 3641 3997 3641 3322 
Q 3641 2881 3436 2590 
Q 3231 2300 2841 2188 
z
M 1259 4147 
L 1259 2491 
L 2053 2491 
Q 2509 2491 2742 2702 
Q 2975 2913 2975 3322 
Q 2975 3731 2742 3939 
Q 2509 4147 2053 4147 
L 1259 4147 
z
" transform="scale(0.015625)"/>
       <path id="DejaVuSans-66" d="M 2375 4863 
L 2375 4384 
L 1825 4384 
Q 1516 4384 1395 4259 
Q 1275 4134 1275 3809 
L 1275 3500 
L 2222 3500 
L 2222 3053 
L 1275 3053 
L 1275 0 
L 697 0 
L 697 3053 
L 147 3053 
L 147 3500 
L 697 3500 
L 697 3744 
Q 697 4328 969 4595 
Q 1241 4863 1831 4863 
L 2375 4863 
z
" transform="scale(0.015625)"/>
       <path id="DejaVuSans-63" d="M 3122 3366 
L 3122 2828 
Q 2878 2963 2633 3030 
Q 2388 3097 2138 3097 
Q 1578 3097 1268 2742 
Q 959 2388 959 1747 
Q 959 1106 1268 751 
Q 1578 397 2138 397 
Q 2388 397 2633 464 
Q 2878 531 3122 666 
L 3122 134 
Q 2881 22 2623 -34 
Q 2366 -91 2075 -91 
Q 1284 -91 818 406 
Q 353 903 353 1747 
Q 353 2603 823 3093 
Q 1294 3584 2113 3584 
Q 2378 3584 2631 3529 
Q 2884 3475 3122 3366 
z
" transform="scale(0.015625)"/>
       <path id="DejaVuSans-72" d="M 2631 2963 
Q 2534 3019 2420 3045 
Q 2306 3072 2169 3072 
Q 1681 3072 1420 2755 
Q 1159 2438 1159 1844 
L 1159 0 
L 581 0 
L 581 3500 
L 1159 3500 
L 1159 2956 
Q 1341 3275 1631 3429 
Q 1922 3584 2338 3584 
Q 2397 3584 2469 3576 
Q 2541 3569 2628 3553 
L 2631 2963 
z
" transform="scale(0.015625)"/>
       <path id="DejaVuSans-61" d="M 2194 1759 
Q 1497 1759 1228 1600 
Q 959 1441 959 1056 
Q 959 750 1161 570 
Q 1363 391 1709 391 
Q 2188 391 2477 730 
Q 2766 1069 2766 1631 
L 2766 1759 
L 2194 1759 
z
M 3341 1997 
L 3341 0 
L 2766 0 
L 2766 531 
Q 2569 213 2275 61 
Q 1981 -91 1556 -91 
Q 1019 -91 701 211 
Q 384 513 384 1019 
Q 384 1609 779 1909 
Q 1175 2209 1959 2209 
L 2766 2209 
L 2766 2266 
Q 2766 2663 2505 2880 
Q 2244 3097 1772 3097 
Q 1472 3097 1187 3025 
Q 903 2953 641 2809 
L 641 3341 
Q 956 3463 1253 3523 
Q 1550 3584 1831 3584 
Q 2591 3584 2966 3190 
Q 3341 2797 3341 1997 
z
" transform="scale(0.015625)"/>
       <path id="DejaVuSans-6e" d="M 3513 2113 
L 3513 0 
L 2938 0 
L 2938 2094 
Q 2938 2591 2744 2837 
Q 2550 3084 2163 3084 
Q 1697 3084 1428 2787 
Q 1159 2491 1159 1978 
L 1159 0 
L 581 0 
L 581 3500 
L 1159 3500 
L 1159 2956 
Q 1366 3272 1645 3428 
Q 1925 3584 2291 3584 
Q 2894 3584 3203 3211 
Q 3513 2838 3513 2113 
z
" transform="scale(0.015625)"/>
       <path id="DejaVuSans-2f" d="M 1625 4666 
L 2156 4666 
L 531 -594 
L 0 -594 
L 1625 4666 
z
" transform="scale(0.015625)"/>
      </defs>
      <use xlink:href="#DejaVuSans-41" transform="translate(0 0.765625)"/>
      <use xlink:href="#DejaVuSans-62" transform="translate(68.408203 0.765625)"/>
      <use xlink:href="#DejaVuSans-73" transform="translate(131.884766 0.765625)"/>
      <use xlink:href="#DejaVuSans-6f" transform="translate(183.984375 0.765625)"/>
      <use xlink:href="#DejaVuSans-6c" transform="translate(245.166016 0.765625)"/>
      <use xlink:href="#DejaVuSans-75" transform="translate(272.949219 0.765625)"/>
      <use xlink:href="#DejaVuSans-74" transform="translate(336.328125 0.765625)"/>
      <use xlink:href="#DejaVuSans-65" transform="translate(375.537109 0.765625)"/>
      <use xlink:href="#DejaVuSans-20" transform="translate(437.060547 0.765625)"/>
      <use xlink:href="#DejaVuSans-52" transform="translate(468.847656 0.765625)"/>
      <use xlink:href="#DejaVuSans-6f" transform="translate(538.330078 0.765625)"/>
      <use xlink:href="#DejaVuSans-6f" transform="translate(599.511719 0.765625)"/>
      <use xlink:href="#DejaVuSans-66" transform="translate(660.693359 0.765625)"/>
      <use xlink:href="#DejaVuSans-20" transform="translate(695.898438 0.765625)"/>
      <use xlink:href="#DejaVuSans-41" transform="translate(727.685547 0.765625)"/>
      <use xlink:href="#DejaVuSans-63" transform="translate(796.09375 0.765625)"/>
      <use xlink:href="#DejaVuSans-63" transform="translate(851.074219 0.765625)"/>
      <use xlink:href="#DejaVuSans-65" transform="translate(906.054688 0.765625)"/>
      <use xlink:href="#DejaVuSans-6c" transform="translate(967.578125 0.765625)"/>
      <use xlink:href="#DejaVuSans-65" transform="translate(995.361328 0.765625)"/>
      <use xlink:href="#DejaVuSans-72" transform="translate(1056.884766 0.765625)"/>
      <use xlink:href="#DejaVuSans-61" transform="translate(1097.998047 0.765625)"/>
      <use xlink:href="#DejaVuSans-74" transform="translate(1159.277344 0.765625)"/>
      <use xlink:href="#DejaVuSans-69" transform="translate(1198.486328 0.765625)"/>
      <use xlink:href="#DejaVuSans-6f" transform="translate(1226.269531 0.765625)"/>
      <use xlink:href="#DejaVuSans-6e" transform="translate(1287.451172 0.765625)"/>
      <use xlink:href="#DejaVuSans-20" transform="translate(1350.830078 0.765625)"/>
      <use xlink:href="#DejaVuSans-28" transform="translate(1382.617188 0.765625)"/>
      <use xlink:href="#DejaVuSans-6d" transform="translate(1421.630859 0.765625)"/>
      <use xlink:href="#DejaVuSans-2f" transform="translate(1519.042969 0.765625)"/>
      <use xlink:href="#DejaVuSans-73" transform="translate(1552.734375 0.765625)"/>
      <use xlink:href="#DejaVuSans-32" transform="translate(1605.791016 39.046875) scale(0.7)"/>
      <use xlink:href="#DejaVuSans-29" transform="translate(1653.061523 0.765625)"/>
     </g>
    </g>
   </g>
   <g id="line2d_179">
    <path d="M 97.142045 274.953483 
L 98.055593 271.682493 
L 98.512367 275.107974 
L 99.425915 285.98632 
L 99.882689 288.755034 
L 100.339462 287.677731 
L 100.796236 282.074835 
L 101.709784 266.147621 
L 102.166558 253.878414 
L 102.623332 245.256779 
L 103.080105 253.90292 
L 103.536879 274.972056 
L 103.993653 275.49103 
L 104.450427 250.443438 
L 104.907201 247.299483 
L 105.363975 294.977405 
L 105.820748 360.824372 
L 106.277522 385.490418 
L 106.734296 356.931809 
L 107.19107 290.980561 
L 107.647844 201.50157 
L 108.104618 161.494332 
L 109.018165 211.305557 
L 109.474939 226.071694 
L 109.931713 234.251682 
L 110.388487 251.476732 
L 110.845261 294.817557 
L 111.302035 378.343366 
L 111.758808 395.156923 
L 112.215582 344.618233 
L 112.672356 372.48105 
L 113.12913 325.812105 
L 113.585904 192.81249 
L 114.042678 157.723949 
L 114.956225 251.124135 
L 115.869773 231.592623 
L 116.783321 300.252466 
L 117.240094 291.148856 
L 117.696868 279.382815 
L 118.153642 314.688604 
L 118.610416 376.204067 
L 119.06719 382.284105 
L 119.523964 336.189304 
L 120.437511 186.658373 
L 120.894285 166.488386 
L 121.351059 190.352756 
L 121.807833 208.02103 
L 122.721381 322.910728 
L 123.178154 335.985099 
L 123.634928 328.240029 
L 124.091702 344.603563 
L 124.548476 349.444722 
L 125.00525 283.624489 
L 125.462024 182.056765 
L 125.918797 158.095831 
L 126.832345 331.076877 
L 127.289119 324.340075 
L 127.745893 252.238539 
L 128.202667 215.006655 
L 128.659441 257.789875 
L 129.116214 332.581726 
L 129.572988 367.926732 
L 130.029762 317.007414 
L 130.486536 221.543804 
L 130.94331 204.924484 
L 131.400084 285.366077 
L 131.856857 344.995692 
L 132.313631 298.176805 
L 132.770405 208.856951 
L 133.227179 176.707565 
L 133.683953 199.321946 
L 134.140727 235.71505 
L 134.5975 288.675526 
L 135.054274 372.246935 
L 135.511048 395.602346 
L 136.424596 294.244777 
L 136.88137 200.250592 
L 137.338144 191.338151 
L 137.794917 262.937091 
L 138.251691 303.064506 
L 138.708465 263.952547 
L 139.165239 203.437836 
L 139.622013 198.636077 
L 140.53556 335.565726 
L 140.992334 367.074784 
L 141.449108 345.806591 
L 142.362656 259.169123 
L 142.81943 252.442406 
L 143.276203 260.126008 
L 143.732977 248.513031 
L 144.189751 226.850236 
L 144.646525 252.220539 
L 145.103299 326.404039 
L 145.560073 351.646519 
L 146.47362 208.188978 
L 146.930394 176.579358 
L 147.387168 193.139785 
L 148.75749 320.643789 
L 149.214263 376.031426 
L 149.671037 383.796227 
L 150.127811 354.686041 
L 150.584585 360.923075 
L 151.041359 271.311375 
L 151.498133 151.382298 
L 151.954906 163.858827 
L 152.41168 212.61995 
L 152.868454 170.246381 
L 153.325228 204.283439 
L 153.782002 304.687323 
L 154.238776 375.010364 
L 154.695549 379.926578 
L 155.152323 356.757453 
L 155.609097 372.654996 
L 156.065871 321.111551 
L 156.522645 195.637629 
L 156.979419 144.25458 
L 157.436193 201.241151 
L 157.892966 188.958291 
L 158.34974 186.10162 
L 159.263288 399.40537 
L 159.720062 375.494473 
L 160.176836 285.064785 
L 160.633609 238.226905 
L 161.090383 282.523483 
L 161.547157 341.433345 
L 162.003931 322.840661 
L 162.460705 243.338488 
L 162.917479 191.235344 
L 163.374252 208.523026 
L 164.2878 345.83068 
L 164.744574 351.953247 
L 165.658122 264.278318 
L 166.571669 185.338889 
L 167.028443 190.09571 
L 167.941991 320.269284 
L 168.398765 337.020682 
L 169.312312 251.3061 
L 169.769086 269.699159 
L 170.22586 316.04313 
L 170.682634 310.820147 
L 171.596182 166.673007 
L 172.052955 174.532205 
L 172.509729 237.053902 
L 172.966503 324.135376 
L 173.423277 367.987992 
L 173.880051 332.638034 
L 174.793599 183.418355 
L 175.250372 175.806628 
L 175.707146 214.313497 
L 177.077468 365.334942 
L 177.534242 381.853243 
L 177.991015 362.091341 
L 178.447789 367.886435 
L 178.904563 370.387017 
L 179.818111 248.607341 
L 180.274885 207.120609 
L 180.731658 186.181386 
L 181.188432 239.006166 
L 181.645206 330.744602 
L 182.10198 373.171702 
L 182.558754 365.092722 
L 183.472301 328.714169 
L 183.929075 366.989221 
L 184.385849 392.176294 
L 184.842623 355.694893 
L 185.299397 366.824122 
L 185.756171 382.811633 
L 186.212945 363.695403 
L 186.669718 367.285921 
L 187.126492 377.155622 
L 187.583266 367.202994 
L 188.04004 176.023579 
L 188.496814 89.247486 
L 188.953588 252.418088 
L 189.867135 126.827962 
L 190.323909 214.241584 
L 190.780683 188.42293 
L 191.237457 149.866411 
L 191.694231 195.402244 
L 192.151004 187.134467 
L 192.607778 163.226706 
L 193.064552 186.357766 
L 193.521326 185.011372 
L 193.9781 170.754568 
L 194.434874 182.180372 
L 194.891648 183.262133 
L 195.348421 438.549282 
L 195.805195 433.300995 
L 196.261969 276.515036 
L 196.718743 397.843861 
L 197.175517 411.909451 
L 197.632291 321.616044 
L 198.089064 379.134104 
L 198.545838 396.134844 
L 199.002612 345.608616 
L 199.459386 371.798744 
L 199.91616 385.761315 
L 200.372934 358.20423 
L 201.286481 379.280164 
L 201.743255 341.941731 
L 202.200029 64.140508 
L 203.113577 266.972569 
L 203.570351 123.770437 
L 204.027124 162.981747 
L 204.483898 228.335361 
L 204.940672 154.115516 
L 205.397446 165.901497 
L 205.85422 206.18073 
L 206.310994 168.616499 
L 207.224541 498.0375 
L 207.681315 298.047364 
L 208.138089 338.9021 
L 208.594863 441.341324 
L 209.051637 338.695803 
L 209.50841 347.116941 
L 209.965184 179.761268 
L 210.421958 76.62617 
L 210.878732 258.311112 
L 211.79228 120.157926 
L 212.249054 216.617648 
L 212.705827 190.976917 
L 213.162601 146.302336 
L 213.619375 196.337064 
L 214.076149 188.833504 
L 214.532923 246.412215 
L 214.989697 490.677506 
L 215.44647 356.813504 
L 215.903244 299.708417 
L 216.360018 431.378373 
L 216.816792 371.88156 
L 217.273566 145.858055 
L 217.73034 94.646693 
L 218.187113 268.108812 
L 218.643887 170.537035 
L 219.100661 127.694751 
L 219.557435 223.664216 
L 220.014209 244.018128 
L 220.470983 428.764312 
L 220.927756 398.840451 
L 221.841304 107.535362 
L 222.298078 188.806843 
L 222.754852 221.940821 
L 223.211626 142.471138 
L 223.6684 179.555552 
L 224.125173 350.518799 
L 224.581947 449.45332 
L 225.038721 319.771833 
L 225.495495 354.582107 
L 225.952269 415.219443 
L 226.409043 347.575878 
L 226.865816 357.738736 
L 227.32259 394.777744 
L 228.236138 323.858628 
L 228.692912 264.563775 
L 229.149686 263.257314 
L 229.606459 277.114815 
L 230.063233 254.636342 
L 230.976781 187.438 
L 231.433555 176.296291 
L 231.890329 186.543122 
L 232.347103 216.038332 
L 233.26065 404.531793 
L 233.717424 376.459365 
L 234.174198 340.795546 
L 234.630972 319.078087 
L 235.544519 145.303793 
L 236.001293 184.937432 
L 236.458067 199.834064 
L 236.914841 161.436379 
L 237.371615 179.59658 
L 237.828389 191.30108 
L 238.285162 170.615247 
L 239.19871 186.308957 
L 239.655484 266.459542 
L 240.112258 461.10117 
L 240.569032 364.646164 
L 241.025806 313.171373 
L 241.482579 416.139956 
L 242.396127 337.420363 
L 242.852901 392.242218 
L 243.309675 242.046175 
L 243.766449 44.4375 
L 244.223222 243.284278 
L 244.679996 222.413843 
L 245.13677 106.111781 
L 245.593544 205.71183 
L 246.507092 330.129334 
L 246.963865 332.937725 
L 247.877413 190.383884 
L 248.334187 227.132936 
L 248.790961 345.175308 
L 249.247735 416.866036 
L 249.704509 347.706984 
L 250.161282 355.351938 
L 250.618056 396.126611 
L 251.07483 361.137266 
L 251.531604 360.157249 
L 251.988378 383.939761 
L 252.445152 366.897748 
L 252.901925 354.109505 
L 253.815473 148.803724 
L 254.272247 169.789739 
L 254.729021 214.532892 
L 255.185795 287.272522 
L 255.642568 415.431782 
L 256.099342 381.001235 
L 256.556116 330.930333 
L 257.01289 392.185055 
L 257.469664 380.194933 
L 257.926438 348.78415 
L 258.383211 379.968388 
L 258.839985 377.613061 
L 259.296759 358.739001 
L 259.753533 374.296944 
L 260.210307 375.157753 
L 260.667081 363.910745 
L 261.123855 262.69831 
L 261.580628 109.464267 
L 262.037402 184.73964 
L 262.494176 223.532355 
L 262.95095 143.792646 
L 263.864498 204.90171 
L 264.321271 162.252883 
L 264.778045 175.35354 
L 265.234819 193.760486 
L 265.691593 171.496436 
L 266.148367 175.831775 
L 266.605141 187.297677 
L 267.061914 175.946275 
L 267.518688 176.710545 
L 267.975462 183.709265 
L 268.432236 178.100828 
L 268.88901 177.929972 
L 269.345784 243.087545 
L 269.802558 345.453668 
L 270.259331 362.510843 
L 270.716105 305.335661 
L 271.172879 231.310503 
L 271.629653 208.857832 
L 272.086427 231.633011 
L 272.543201 290.363044 
L 272.999974 389.187852 
L 273.456748 393.434934 
L 273.913522 338.818424 
L 274.370296 378.111852 
L 274.82707 385.443862 
L 275.283844 354.177477 
L 275.740617 372.507773 
L 276.197391 379.532475 
L 276.654165 360.74574 
L 277.110939 276.405388 
L 277.567713 223.498719 
L 278.024487 244.367577 
L 278.481261 258.072763 
L 278.938034 246.468415 
L 279.394808 261.827219 
L 279.851582 288.847682 
L 280.308356 273.274617 
L 280.76513 224.695214 
L 281.221904 161.23779 
L 281.678677 171.262601 
L 282.135451 198.890403 
L 282.592225 170.979384 
L 283.048999 241.704874 
L 283.505773 445.824857 
L 283.962547 385.938572 
L 284.41932 306.574246 
L 284.876094 287.894164 
L 285.332868 180.688999 
L 285.789642 144.13379 
L 286.246416 208.294285 
L 287.159964 158.783933 
L 287.616737 193.285918 
L 288.073511 278.800239 
L 288.530285 451.268561 
L 288.987059 364.300564 
L 289.443833 319.95329 
L 289.900607 411.418968 
L 290.814154 341.211531 
L 291.270928 390.096917 
L 291.727702 367.621918 
L 292.184476 129.510379 
L 292.64125 117.015879 
L 293.098023 261.932786 
L 293.554797 160.637503 
L 294.011571 139.668064 
L 294.468345 221.537307 
L 294.925119 175.342027 
L 295.381893 188.53253 
L 295.838666 335.293426 
L 296.29544 435.094892 
L 296.752214 340.065744 
L 297.208988 348.830688 
L 297.665762 405.973671 
L 298.122536 358.172934 
L 298.57931 347.717567 
L 299.492857 131.18694 
L 299.949631 188.721443 
L 300.406405 283.255644 
L 300.863179 311.454046 
L 301.319953 298.230888 
L 302.2335 356.676108 
L 302.690274 306.060678 
L 303.147048 203.057836 
L 303.603822 152.500027 
L 304.060596 192.05535 
L 304.517369 191.747399 
L 304.974143 170.018281 
L 305.430917 181.001952 
L 305.887691 185.213064 
L 306.344465 174.579571 
L 306.801239 180.053219 
L 307.258013 267.07147 
L 307.714786 432.961006 
L 308.628334 319.047906 
L 309.085108 400.790955 
L 309.541882 381.575136 
L 309.998656 342.048283 
L 310.455429 383.724731 
L 310.912203 309.471967 
L 311.368977 144.53832 
L 311.825751 153.388266 
L 313.196072 393.846273 
L 313.652846 378.714714 
L 314.10962 346.493436 
L 314.566394 340.189522 
L 315.479942 142.920162 
L 316.850263 262.413077 
L 317.307037 272.924342 
L 317.763811 270.217326 
L 318.220585 272.727434 
L 318.677359 264.2555 
L 319.134132 246.411037 
L 319.590906 243.440099 
L 320.504454 266.178531 
L 320.961228 265.807719 
L 321.418002 275.995133 
L 321.874775 332.37675 
L 322.331549 404.367449 
L 322.788323 366.041964 
L 323.245097 350.269467 
L 323.701871 387.943674 
L 324.615419 349.652012 
L 325.072192 206.462201 
L 325.528966 107.905512 
L 325.98574 219.450858 
L 326.442514 198.247306 
L 326.899288 139.586794 
L 327.812835 240.42855 
L 328.269609 376.47736 
L 328.726383 412.390183 
L 329.183157 331.234854 
L 329.639931 326.723828 
L 330.096705 300.724738 
L 330.553478 256.087054 
L 331.010252 233.036806 
L 331.467026 243.232505 
L 331.9238 248.109592 
L 332.380574 215.263394 
L 332.837348 165.413565 
L 333.294121 175.466556 
L 333.750895 209.999964 
L 335.121217 394.499913 
L 335.577991 359.552511 
L 336.034765 349.229833 
L 336.491538 282.475144 
L 336.948312 191.209208 
L 337.405086 165.601171 
L 337.86186 196.084791 
L 338.318634 245.269865 
L 338.775408 306.569079 
L 339.232181 347.836974 
L 339.688955 361.704998 
L 340.145729 368.03875 
L 340.602503 370.062051 
L 341.059277 340.440355 
L 341.972824 175.1911 
L 342.429598 161.565831 
L 342.886372 199.171707 
L 343.343146 205.463663 
L 343.79992 281.445264 
L 344.256694 384.455027 
L 344.713468 389.448454 
L 345.170241 330.609564 
L 345.627015 247.342951 
L 346.083789 184.956836 
L 346.540563 205.307531 
L 347.454111 326.567332 
L 347.910884 339.249214 
L 348.367658 320.386485 
L 348.824432 317.02192 
L 349.281206 347.142987 
L 349.73798 358.884049 
L 350.194754 304.251974 
L 350.651527 218.022444 
L 351.108301 163.833078 
L 352.021849 192.670038 
L 352.478623 187.418284 
L 352.935397 239.056622 
L 353.392171 332.200484 
L 353.848944 398.850729 
L 354.305718 365.533112 
L 354.762492 353.277411 
L 355.219266 383.902066 
L 355.67604 329.050838 
L 356.132814 222.980697 
L 356.589587 173.865796 
L 357.046361 186.077499 
L 357.503135 203.66138 
L 357.959909 214.92227 
L 358.416683 222.427668 
L 358.873457 235.034135 
L 360.243778 314.560394 
L 361.157326 333.868704 
L 361.6141 339.604913 
L 362.070874 334.41913 
L 362.527647 308.922382 
L 363.441195 217.245628 
L 363.897969 193.074734 
L 364.354743 205.299684 
L 365.26829 272.857777 
L 365.725064 286.007371 
L 366.181838 291.738618 
L 367.095386 313.969833 
L 367.55216 316.288179 
L 368.008933 316.614208 
L 368.465707 305.000825 
L 369.379255 246.042129 
L 369.836029 234.682969 
L 370.292803 236.532423 
L 370.749576 235.83065 
L 371.20635 231.68157 
L 371.663124 233.511099 
L 372.119898 249.953981 
L 373.49022 350.016745 
L 373.946993 325.930347 
L 374.403767 270.281739 
L 374.860541 229.478784 
L 375.317315 233.319474 
L 376.230863 312.018398 
L 376.687636 321.928023 
L 377.14441 296.261441 
L 377.601184 254.776646 
L 378.057958 232.576014 
L 378.514732 242.555358 
L 379.428279 296.528096 
L 379.885053 311.187999 
L 380.341827 306.702692 
L 381.712149 259.425264 
L 382.168923 251.86508 
L 382.625696 250.395676 
L 383.539244 257.024138 
L 383.996018 253.994292 
L 384.452792 250.142482 
L 384.909566 260.060404 
L 385.366339 280.790191 
L 385.823113 295.333347 
L 386.279887 301.878034 
L 386.736661 305.396077 
L 387.193435 305.924468 
L 387.650209 300.997323 
L 388.106982 282.526086 
L 389.02053 232.361216 
L 389.477304 232.648953 
L 391.304399 315.009331 
L 391.761173 323.22642 
L 392.217947 311.136344 
L 393.131495 226.087252 
L 393.588269 212.270121 
L 394.045042 222.539765 
L 394.95859 250.692363 
L 395.415364 262.70161 
L 395.872138 283.356393 
L 396.328912 309.871589 
L 396.785685 326.209099 
L 397.242459 324.424814 
L 397.699233 312.670802 
L 398.156007 305.33073 
L 398.612781 302.479329 
L 399.069555 287.553914 
L 399.983102 222.616748 
L 400.439876 216.26548 
L 401.353424 257.129645 
L 401.810198 267.433476 
L 402.266972 270.984377 
L 402.723745 273.202576 
L 403.180519 278.321225 
L 403.637293 285.119966 
L 404.094067 288.184148 
L 404.550841 292.845835 
L 405.007615 300.521065 
L 405.464388 304.197475 
L 405.921162 302.333516 
L 406.377936 288.78617 
L 406.83471 264.588267 
L 407.291484 250.916758 
L 407.748258 258.938991 
L 408.205031 271.670738 
L 408.661805 275.24528 
L 409.118579 271.871197 
L 409.575353 274.305279 
L 410.032127 287.82863 
L 410.488901 295.330633 
L 410.945675 283.392347 
L 411.402448 259.318116 
L 411.859222 244.213936 
L 412.315996 246.938917 
L 412.77277 259.577378 
L 413.229544 268.684126 
L 413.686318 265.779162 
L 414.599865 243.865344 
L 415.056639 242.512445 
L 415.513413 256.678513 
L 416.426961 304.452604 
L 416.883734 318.861417 
L 417.340508 317.987384 
L 417.797282 298.447245 
L 418.254056 264.702609 
L 418.71083 243.325255 
L 419.167604 256.575132 
L 420.081151 334.943894 
L 420.537925 342.791644 
L 420.994699 308.748871 
L 421.451473 252.910097 
L 421.908247 217.959546 
L 422.365021 222.303199 
L 423.278568 258.651637 
L 423.735342 275.478709 
L 424.64889 322.906086 
L 425.105664 321.548788 
L 426.019211 279.63517 
L 426.475985 275.648124 
L 426.932759 278.154112 
L 427.389533 272.084267 
L 427.846307 255.350069 
L 428.303081 244.505321 
L 428.759854 251.80355 
L 429.216628 267.52469 
L 429.673402 274.931024 
L 430.130176 272.185186 
L 430.58695 268.346144 
L 431.043724 271.681235 
L 431.500497 281.500361 
L 431.957271 288.407463 
L 432.414045 287.925073 
L 433.327593 277.338504 
L 433.784367 276.647314 
L 434.24114 276.584475 
L 435.611462 267.670022 
L 436.52501 253.899307 
L 436.981784 250.488163 
L 437.438557 250.888106 
L 437.895331 261.423538 
L 438.808879 309.658069 
L 439.265653 317.156613 
L 439.722427 305.568971 
L 440.635974 266.374538 
L 441.092748 256.114424 
L 441.549522 253.674698 
L 442.006296 254.411978 
L 442.46307 258.08247 
L 442.919843 258.997274 
L 443.376617 253.90258 
L 443.833391 253.772914 
L 444.290165 273.227354 
L 444.746939 307.070676 
L 445.203713 328.617808 
L 445.660486 320.582424 
L 446.574034 263.754147 
L 447.030808 261.99066 
L 447.487582 275.623337 
L 447.944356 284.41978 
L 448.40113 281.839097 
L 449.771451 250.284522 
L 450.228225 258.578962 
L 450.684999 275.530433 
L 451.141773 288.267276 
L 451.598546 289.975502 
L 452.05532 287.378388 
L 452.512094 289.637097 
L 452.968868 297.247097 
L 453.425642 300.895408 
L 453.882416 290.755479 
L 454.795963 250.276121 
L 455.252737 242.694543 
L 455.709511 243.930794 
L 456.166285 249.077683 
L 456.623059 259.536616 
L 457.99338 317.068989 
L 458.450154 320.450328 
L 458.906928 304.044628 
L 459.820476 231.106544 
L 460.277249 221.819387 
L 460.734023 237.200911 
L 461.647571 286.855126 
L 462.104345 292.489316 
L 462.561119 288.895261 
L 463.017892 293.048274 
L 463.93144 324.870626 
L 464.388214 313.736415 
L 465.301762 246.178939 
L 465.758536 245.408899 
L 466.215309 263.343468 
L 466.672083 273.174474 
L 467.128857 265.100677 
L 467.585631 254.613299 
L 468.042405 260.780301 
L 468.955952 295.303505 
L 469.412726 297.789849 
L 469.8695 287.747534 
L 470.783048 253.351617 
L 471.239822 249.62111 
L 471.696595 255.682177 
L 472.610143 276.377062 
L 473.066917 279.668864 
L 473.523691 273.951673 
L 474.437239 255.804007 
L 474.894012 253.38236 
L 475.350786 254.922619 
L 475.80756 261.403105 
L 476.721108 288.55646 
L 477.177882 294.89152 
L 477.634655 294.365789 
L 478.091429 292.274214 
L 478.548203 292.782029 
L 479.461751 302.415271 
L 479.918525 302.281721 
L 480.375298 295.824039 
L 480.832072 282.860659 
L 482.202394 234.073456 
L 482.659168 232.571158 
L 483.115941 246.642741 
L 484.486263 321.977224 
L 484.943037 313.844576 
L 485.856585 266.083473 
L 486.313358 255.408003 
L 486.770132 256.713967 
L 487.226906 265.570585 
L 487.68368 278.332717 
L 488.140454 286.289542 
L 488.597228 281.840308 
L 489.054001 268.035482 
L 489.510775 260.724945 
L 489.967549 269.907865 
L 490.424323 284.566516 
L 490.881097 289.97587 
L 491.337871 278.768147 
L 491.794644 257.330163 
L 492.251418 243.998176 
L 492.708192 247.657798 
L 493.164966 264.490934 
L 493.62174 285.524195 
L 494.078514 296.199782 
L 494.535288 289.517129 
L 495.448835 255.8638 
L 495.905609 253.367722 
L 496.362383 267.338489 
L 496.819157 286.687275 
L 497.275931 299.130675 
L 497.732704 299.136043 
L 498.189478 283.273625 
L 498.646252 257.742399 
L 499.103026 242.196549 
L 499.5598 247.747671 
L 500.473347 280.721017 
L 500.930121 277.187706 
L 501.386895 262.681819 
L 501.843669 258.562502 
L 502.757217 286.054678 
L 503.213991 289.53744 
L 504.127538 279.530768 
L 504.584312 280.570503 
L 505.041086 282.175264 
L 505.49786 275.429576 
L 505.954634 262.94736 
L 506.411407 257.7026 
L 506.868181 264.349673 
L 507.324955 274.417546 
L 507.781729 279.76147 
L 508.238503 278.863379 
L 509.15205 269.480267 
L 509.608824 266.815336 
L 510.065598 267.370828 
L 511.43592 276.895434 
L 511.892694 278.962833 
L 512.349467 282.671304 
L 513.263015 292.874803 
L 513.719789 291.306787 
L 514.176563 283.542973 
L 515.09011 264.955563 
L 515.546884 264.01394 
L 516.003658 271.787138 
L 516.460432 283.711751 
L 516.917206 289.501089 
L 517.37398 284.860183 
L 517.830753 274.747975 
L 518.287527 267.258694 
L 518.744301 267.879119 
L 519.201075 273.808451 
L 519.657849 277.818735 
L 520.114623 276.743444 
L 520.571396 272.607097 
L 521.02817 270.98415 
L 521.484944 276.843702 
L 521.941718 285.777612 
L 522.398492 288.455255 
L 522.855266 284.81345 
L 523.768813 274.351348 
L 524.682361 266.082552 
L 525.139135 264.710685 
L 525.595909 270.899042 
L 526.052683 279.638736 
L 526.509456 283.58795 
L 526.96623 282.255444 
L 527.879778 273.599811 
L 528.793326 265.608109 
L 529.706873 261.044773 
L 530.163647 260.411517 
L 530.620421 264.516889 
L 531.077195 277.726586 
L 531.533969 295.007557 
L 531.990743 302.491775 
L 532.447516 292.065432 
L 533.361064 249.563413 
L 533.817838 253.249971 
L 534.731386 300.606294 
L 535.188159 303.768274 
L 535.644933 283.625057 
L 536.101707 258.515643 
L 536.558481 251.270284 
L 537.015255 261.640615 
L 537.472029 275.288165 
L 537.928802 282.555063 
L 538.385576 281.160648 
L 539.299124 269.403515 
L 539.755898 269.923484 
L 540.669446 280.550585 
L 541.126219 283.983259 
L 541.582993 284.248313 
L 542.039767 282.136285 
L 542.496541 283.750148 
L 543.410089 297.55742 
L 543.866862 297.24215 
L 544.323636 284.099162 
L 544.78041 261.895732 
L 545.237184 247.586331 
L 545.693958 248.49717 
L 546.607505 265.308381 
L 547.521053 284.468511 
L 547.977827 288.552019 
L 548.434601 285.742009 
L 548.891375 276.371272 
L 549.348149 269.774555 
L 549.804922 274.223372 
L 550.261696 283.627027 
L 550.71847 287.319631 
L 551.175244 283.627224 
L 552.088792 268.944187 
L 552.545565 264.768538 
L 553.002339 265.059208 
L 553.915887 269.870337 
L 554.829435 276.789826 
L 555.286208 277.729231 
L 555.742982 274.763649 
L 556.199756 269.462336 
L 556.65653 267.934262 
L 557.113304 273.533803 
L 557.570078 282.204182 
L 558.026851 286.590525 
L 558.483625 282.593339 
L 558.940399 273.84581 
L 559.397173 267.472521 
L 559.853947 267.596556 
L 560.310721 270.964428 
L 560.767495 269.301737 
L 561.224268 261.328344 
L 561.681042 256.062997 
L 562.137816 261.203705 
L 563.051364 291.833266 
L 563.508138 298.08843 
L 563.964911 293.545841 
L 564.878459 270.998578 
L 565.335233 264.131288 
L 565.792007 263.681432 
L 566.248781 268.126435 
L 566.705554 274.812225 
L 567.162328 278.37964 
L 567.619102 275.259324 
L 568.075876 269.350611 
L 568.53265 267.311583 
L 568.989424 271.108765 
L 569.446198 276.784058 
L 569.902971 279.781362 
L 570.359745 280.309052 
L 570.816519 280.585185 
L 571.273293 278.468493 
L 572.186841 268.888826 
L 572.643614 266.218441 
L 573.100388 267.699279 
L 573.557162 272.189855 
L 574.013936 275.195548 
L 574.47071 273.643841 
L 575.384257 263.870079 
L 575.841031 263.189317 
L 576.297805 268.282407 
L 576.754579 276.112866 
L 577.211353 279.733385 
L 577.668127 275.407662 
L 578.124901 268.637926 
L 578.581674 268.548283 
L 579.495222 289.899376 
L 579.951996 293.086418 
L 580.40877 286.265444 
L 581.322317 263.978145 
L 581.779091 259.611815 
L 582.235865 259.505303 
L 582.692639 261.059427 
L 583.149413 265.37689 
L 584.519734 290.035588 
L 584.976508 289.812367 
L 585.433282 286.780294 
L 585.890056 287.217383 
L 586.803604 294.771164 
L 587.260377 293.675755 
L 587.717151 281.921517 
L 588.173925 262.817916 
L 588.630699 248.921034 
L 589.087473 246.477238 
L 589.544247 254.281074 
L 590.457794 289.934667 
L 590.914568 297.128926 
L 591.371342 293.126664 
L 591.828116 287.069631 
L 592.28489 284.880852 
L 592.741663 286.414579 
L 593.198437 286.057141 
L 593.655211 277.316345 
L 594.111985 265.105871 
L 594.568759 261.010341 
L 595.025533 266.611688 
L 595.482306 274.15401 
L 595.93908 277.032163 
L 596.395854 277.497558 
L 596.852628 278.602293 
L 597.309402 277.904149 
L 597.766176 274.370062 
L 598.22295 272.687967 
L 598.679723 276.358509 
L 599.136497 281.792257 
L 599.593271 281.25846 
L 600.506819 259.704687 
L 600.963593 254.798674 
L 601.420366 259.978718 
L 602.333914 281.171185 
L 602.790688 287.011531 
L 603.247462 287.715781 
L 603.704236 284.029653 
L 605.531331 263.939723 
L 605.988105 266.151384 
L 606.901653 280.970232 
L 607.358426 281.4791 
L 608.271974 275.618121 
L 608.728748 275.819994 
L 609.185522 278.187667 
L 609.642296 279.694046 
L 610.099069 278.921763 
L 610.555843 276.194501 
L 611.012617 270.768602 
L 611.469391 263.435374 
L 611.926165 259.734147 
L 612.382939 263.16251 
L 613.296486 278.429245 
L 613.75326 277.682396 
L 614.210034 272.129851 
L 614.666808 268.838648 
L 615.123582 271.349401 
L 616.037129 281.322558 
L 616.493903 284.652393 
L 616.950677 283.985028 
L 617.864225 273.731319 
L 618.320999 273.033233 
L 619.234546 281.570097 
L 619.69132 280.128682 
L 620.148094 275.921425 
L 620.604868 273.440908 
L 621.061642 273.191114 
L 621.518415 274.258857 
L 621.975189 276.568699 
L 622.888737 282.304735 
L 623.345511 282.100631 
L 623.802285 279.661715 
L 624.259059 275.765121 
L 625.172606 264.127588 
L 625.62938 261.840383 
L 626.086154 264.727891 
L 626.542928 270.876772 
L 626.999702 274.423586 
L 627.456475 272.971072 
L 627.913249 269.090296 
L 628.370023 267.94984 
L 628.826797 271.766765 
L 629.283571 277.341945 
L 629.740345 280.374311 
L 630.197118 280.398652 
L 630.653892 278.406038 
L 631.110666 275.688112 
L 631.56744 274.35548 
L 632.024214 275.509752 
L 632.480988 277.349495 
L 632.937761 274.527578 
L 633.394535 266.995763 
L 633.851309 261.66884 
L 634.308083 262.6466 
L 635.678405 278.992029 
L 636.591952 286.183667 
L 637.048726 286.831677 
L 637.5055 285.53401 
L 637.962274 283.217595 
L 639.332595 271.895522 
L 639.789369 270.369699 
L 640.246143 270.963529 
L 640.702917 274.102979 
L 641.159691 276.213903 
L 641.616464 274.579013 
L 642.073238 272.100138 
L 642.530012 271.78847 
L 642.986786 274.99552 
L 643.44356 283.108204 
L 643.900334 294.190908 
L 644.357108 299.216185 
L 644.813881 284.602791 
L 645.727429 218.194599 
L 646.184203 214.383416 
L 646.640977 234.638691 
L 647.554524 288.044944 
L 648.011298 303.430713 
L 648.468072 309.323821 
L 648.924846 309.066338 
L 649.38162 307.672414 
L 649.838394 309.153929 
L 650.295167 305.923757 
L 650.751941 279.489954 
L 651.208715 233.305052 
L 651.665489 208.383184 
L 652.122263 224.527254 
L 653.035811 289.616419 
L 653.492584 295.680296 
L 654.406132 267.739922 
L 654.862906 267.286005 
L 655.776454 302.607433 
L 656.233227 310.948577 
L 656.690001 301.978833 
L 657.603549 255.001994 
L 658.060323 243.490766 
L 658.517097 246.799846 
L 660.800966 305.228716 
L 661.25774 298.658299 
L 662.171287 264.062229 
L 662.628061 261.645988 
L 663.084835 265.729802 
L 663.541609 267.755414 
L 663.998383 268.331775 
L 664.455157 271.524119 
L 665.368704 285.237356 
L 665.825478 288.164592 
L 666.282252 284.076402 
L 667.1958 265.543566 
L 667.652573 261.364653 
L 668.109347 262.133804 
L 669.479669 269.51695 
L 669.936443 275.086046 
L 670.393216 282.70594 
L 670.84999 287.31068 
L 671.306764 286.07864 
L 672.677086 272.618924 
L 673.13386 271.256119 
L 673.590633 273.151785 
L 674.960955 283.762525 
L 675.417729 281.880142 
L 676.331276 266.647031 
L 676.78805 263.721874 
L 677.244824 265.84173 
L 677.701598 270.418152 
L 678.615146 286.188454 
L 679.071919 290.106495 
L 679.528693 285.819365 
L 680.442241 266.502177 
L 680.899015 263.831731 
L 681.355789 267.875681 
L 682.269336 281.509095 
L 682.72611 281.970313 
L 683.639658 271.905112 
L 684.096432 272.643364 
L 685.009979 283.473386 
L 685.466753 282.811778 
L 686.380301 267.284214 
L 686.837075 265.024786 
L 687.750622 268.607383 
L 688.207396 271.619179 
L 689.120944 282.47989 
L 689.577718 284.507106 
L 690.034492 281.578417 
L 690.948039 272.175983 
L 691.404813 269.586665 
L 691.861587 269.954906 
L 692.318361 272.996267 
L 692.775135 276.944418 
L 693.231909 279.83384 
L 694.145456 284.336106 
L 694.60223 285.714515 
L 695.059004 283.685034 
L 695.515778 276.649854 
L 695.972552 267.84385 
L 696.429325 263.118362 
L 696.886099 264.933042 
L 697.342873 269.601848 
L 697.799647 272.688242 
L 698.713195 277.040685 
L 699.169969 278.604586 
L 699.626742 278.731721 
L 700.083516 277.700984 
L 700.54029 278.173574 
L 700.997064 279.571575 
L 701.453838 278.144105 
L 702.367385 267.81753 
L 702.824159 266.436534 
L 704.194481 273.105758 
L 704.651255 273.335447 
L 705.108028 273.129575 
L 706.021576 272.429529 
L 706.47835 272.783105 
L 706.935124 274.56857 
L 707.848671 282.353631 
L 708.305445 284.158861 
L 708.762219 281.784513 
L 709.675767 272.29937 
L 710.132541 269.624032 
L 710.589315 269.829191 
L 711.046088 272.994514 
L 711.502862 277.696023 
L 711.959636 280.785433 
L 712.41641 279.420315 
L 712.873184 274.614742 
L 713.329958 271.751258 
L 713.786731 273.741172 
L 714.243505 279.204029 
L 714.700279 282.976866 
L 715.157053 281.851715 
L 715.613827 278.709369 
L 716.070601 276.825148 
L 716.527374 276.512788 
L 717.897696 276.263041 
L 718.35447 275.316467 
L 718.811244 273.180231 
L 719.268018 272.207379 
L 719.724791 274.765283 
L 720.181565 279.177901 
L 720.638339 282.186554 
L 721.095113 282.189844 
L 722.008661 275.76822 
L 722.465434 274.671336 
L 722.922208 276.950899 
L 723.378982 280.785664 
L 723.835756 281.402699 
L 724.29253 277.156037 
L 724.749304 271.176685 
L 725.206077 266.779356 
L 725.662851 265.770124 
L 726.119625 266.387077 
L 726.576399 266.313624 
L 727.033173 267.029369 
L 727.489947 269.549669 
L 728.403494 275.852708 
L 728.860268 277.776779 
L 729.317042 278.7549 
L 729.773816 278.236199 
L 730.23059 276.486503 
L 730.687364 275.73867 
L 731.144137 275.918371 
L 731.600911 274.586978 
L 732.514459 269.557414 
L 732.971233 268.123883 
L 733.428007 268.225638 
L 733.88478 269.070082 
L 734.341554 269.58092 
L 734.798328 271.223392 
L 735.711876 278.273195 
L 736.16865 279.29966 
L 736.625424 276.985136 
L 737.538971 270.203231 
L 738.452519 266.568867 
L 738.909293 266.3057 
L 739.366067 267.651249 
L 740.736388 275.908586 
L 741.193162 275.532254 
L 741.649936 274.445738 
L 742.10671 274.686633 
L 742.563483 275.127341 
L 743.020257 274.978347 
L 743.477031 274.125948 
L 743.933805 273.854994 
L 744.847353 276.678323 
L 745.304126 277.077563 
L 745.7609 276.017642 
L 746.674448 270.96247 
L 747.131222 270.541696 
L 747.587996 272.027067 
L 748.958317 278.350154 
L 749.415091 278.027721 
L 750.328639 275.697035 
L 750.785413 274.381294 
L 751.242186 271.837926 
L 751.69896 270.389223 
L 752.155734 272.260089 
L 752.612508 276.715513 
L 753.069282 280.014506 
L 753.526056 279.575726 
L 753.982829 277.544223 
L 754.896377 275.549661 
L 755.353151 272.90339 
L 755.809925 269.107738 
L 756.266699 267.381937 
L 756.723473 269.157706 
L 757.180246 272.489827 
L 757.63702 274.559106 
L 758.093794 274.71567 
L 758.550568 274.32099 
L 759.007342 274.900616 
L 759.464116 275.858712 
L 759.920889 275.746718 
L 760.377663 275.519142 
L 760.834437 275.875939 
L 761.291211 274.817579 
L 762.204759 267.948739 
L 762.661532 266.78227 
L 763.118306 268.534749 
L 764.945402 283.884679 
L 765.402176 284.869423 
L 765.858949 282.585885 
L 766.772497 273.080975 
L 767.229271 272.40722 
L 768.142819 275.869845 
L 768.599592 276.179716 
L 769.056366 275.550166 
L 769.51314 274.652216 
L 769.969914 274.027331 
L 770.426688 275.501838 
L 770.883462 278.699871 
L 771.340235 280.246369 
L 771.797009 277.94983 
L 772.253783 273.180423 
L 772.710557 269.768403 
L 773.167331 270.846212 
L 774.080879 280.149683 
L 774.537652 279.586858 
L 775.4512 272.084939 
L 775.907974 271.754729 
L 776.364748 275.318723 
L 776.821522 280.453866 
L 777.278295 283.527313 
L 777.735069 282.637544 
L 778.648617 274.027514 
L 779.105391 271.973357 
L 779.562165 272.733425 
L 780.018938 274.857889 
L 780.475712 276.327645 
L 780.932486 276.951033 
L 781.846034 277.7466 
L 782.302808 277.735369 
L 782.759581 276.290113 
L 783.216355 274.02431 
L 783.673129 273.147694 
L 784.129903 275.688982 
L 784.586677 279.92097 
L 785.043451 281.635084 
L 785.500225 280.373909 
L 785.956998 279.740489 
L 786.413772 281.331124 
L 786.870546 282.407878 
L 787.32732 280.45382 
L 787.784094 276.340419 
L 788.240868 273.416376 
L 788.697641 273.821134 
L 789.154415 276.841516 
L 789.611189 278.870614 
L 790.067963 277.651726 
L 791.438284 266.702734 
L 791.895058 267.724272 
L 792.808606 279.077098 
L 793.26538 281.511623 
L 793.722154 280.292111 
L 794.178928 278.472891 
L 795.549249 275.743151 
L 796.462797 275.001895 
L 797.376344 271.422342 
L 797.833118 271.165612 
L 798.289892 272.116514 
L 798.746666 272.664941 
L 799.20344 272.250654 
L 799.660214 271.601367 
L 800.116987 272.044159 
L 801.030535 276.387125 
L 801.487309 277.253092 
L 801.944083 277.130241 
L 802.400857 276.389479 
L 802.857631 276.397236 
L 803.314404 276.838513 
L 803.771178 276.86543 
L 804.227952 276.2226 
L 805.1415 273.628974 
L 805.598274 273.038841 
L 806.055047 273.001825 
L 806.511821 273.758743 
L 806.968595 275.314076 
L 807.425369 276.236659 
L 807.882143 276.455741 
L 808.338917 277.046098 
L 808.79569 277.304723 
L 809.252464 276.151666 
L 810.622786 269.764458 
L 811.07956 269.236435 
L 811.993107 269.586247 
L 812.449881 270.783227 
L 813.363429 275.429142 
L 814.276977 278.011624 
L 814.73375 277.481998 
L 815.190524 274.827988 
L 815.647298 273.020202 
L 816.560846 274.468346 
L 817.01762 272.859687 
L 817.474393 269.75313 
L 817.931167 268.422271 
L 818.387941 271.021707 
L 818.844715 275.53896 
L 819.301489 278.647371 
L 819.758263 278.702958 
L 820.215036 276.273282 
L 821.128584 270.424459 
L 821.585358 269.993911 
L 822.498906 273.430391 
L 822.95568 275.366789 
L 823.412453 276.660464 
L 823.869227 276.979004 
L 824.326001 276.674098 
L 825.239549 274.438963 
L 825.696323 274.458391 
L 826.153096 276.486671 
L 826.60987 279.877973 
L 827.066644 282.383684 
L 827.523418 281.324027 
L 828.436966 271.687558 
L 828.893739 270.123035 
L 829.350513 271.41268 
L 830.264061 278.74642 
L 830.720835 279.776816 
L 831.177609 276.798959 
L 831.634383 272.023242 
L 832.091156 268.765207 
L 832.54793 268.850501 
L 833.004704 272.039887 
L 833.461478 276.397865 
L 833.918252 279.094504 
L 834.375026 278.966994 
L 834.831799 277.562842 
L 835.288573 277.448761 
L 835.745347 278.516782 
L 836.202121 278.304331 
L 836.658895 275.946132 
L 837.115669 272.802602 
L 837.572442 271.03095 
L 838.029216 270.933101 
L 838.48599 270.988584 
L 838.942764 270.598148 
L 839.399538 271.524246 
L 840.313086 277.504101 
L 840.769859 278.876784 
L 841.226633 278.720606 
L 842.140181 276.777981 
L 842.596955 275.008114 
L 843.053729 272.346588 
L 843.510502 270.57775 
L 843.967276 270.818076 
L 844.42405 272.55295 
L 844.880824 273.720147 
L 845.337598 273.09167 
L 845.794372 271.939199 
L 846.251145 272.182086 
L 847.164693 275.407084 
L 847.621467 275.649372 
L 848.535015 272.901058 
L 848.991789 272.614524 
L 849.905336 274.828417 
L 850.818884 274.920614 
L 851.275658 276.369324 
L 851.732432 278.62704 
L 852.189205 278.887869 
L 853.102753 273.562131 
L 853.559527 274.222277 
L 854.016301 277.562049 
L 854.473075 278.669182 
L 854.929848 274.837872 
L 855.386622 269.948707 
L 855.843396 269.061388 
L 856.756944 273.269819 
L 857.670491 278.150407 
L 858.127265 278.697755 
L 858.584039 276.928828 
L 859.040813 274.309311 
L 859.497587 273.880371 
L 860.411135 281.399675 
L 860.867908 281.093346 
L 861.781456 270.247058 
L 862.23823 270.064147 
L 863.151778 275.750955 
L 863.608551 275.946737 
L 864.065325 275.102024 
L 864.522099 274.86447 
L 864.978873 275.827676 
L 865.435647 277.389406 
L 865.892421 278.459915 
L 866.349194 278.048681 
L 867.262742 274.096661 
L 867.719516 273.62945 
L 868.17629 274.64986 
L 868.633064 275.300684 
L 869.089838 275.146903 
L 870.003385 276.73773 
L 870.460159 275.514658 
L 870.916933 273.421209 
L 871.373707 273.256968 
L 871.830481 276.220492 
L 872.287254 280.260118 
L 872.744028 281.157214 
L 873.200802 277.266925 
L 873.657576 272.308347 
L 874.11435 270.91852 
L 874.571124 273.686332 
L 875.027897 277.552993 
L 875.484671 279.741884 
L 875.941445 279.631559 
L 876.398219 277.809983 
L 877.768541 270.181432 
L 878.225314 270.794754 
L 878.682088 273.693372 
L 879.138862 277.35659 
L 879.595636 279.530087 
L 880.05241 279.270255 
L 880.965957 274.654221 
L 881.422731 273.550039 
L 881.879505 273.147988 
L 882.336279 272.949676 
L 882.793053 273.814128 
L 883.249827 275.533214 
L 883.7066 276.433761 
L 884.163374 275.951731 
L 884.620148 275.168417 
L 885.076922 275.229293 
L 885.533696 276.581714 
L 885.99047 278.602361 
L 886.447244 279.618367 
L 886.904017 278.378876 
L 888.274339 269.620797 
L 888.731113 267.998672 
L 889.187887 269.096409 
L 890.558208 278.149828 
L 891.014982 278.984029 
L 891.471756 277.043244 
L 891.92853 274.54183 
L 892.385303 273.816525 
L 892.842077 275.168879 
L 893.298851 278.096704 
L 893.755625 279.704839 
L 894.212399 277.173827 
L 895.125946 266.652224 
L 895.58272 266.617936 
L 896.039494 271.591155 
L 896.496268 277.808384 
L 896.953042 280.442932 
L 897.409816 278.078309 
L 897.86659 273.95668 
L 898.323363 272.541648 
L 899.236911 275.809717 
L 899.693685 275.72175 
L 900.150459 273.840925 
L 900.607233 272.746448 
L 901.064006 273.64309 
L 901.977554 276.541435 
L 902.434328 276.275802 
L 902.891102 273.689945 
L 903.804649 266.624694 
L 904.261423 267.521179 
L 904.718197 273.569268 
L 905.174971 281.962957 
L 905.631745 287.146895 
L 906.088519 284.747608 
L 907.002066 265.542661 
L 907.45884 260.880623 
L 907.915614 263.896004 
L 908.829162 277.412846 
L 909.285936 279.273816 
L 909.742709 278.420588 
L 910.199483 278.602163 
L 910.656257 280.095936 
L 911.113031 280.292948 
L 911.569805 278.186453 
L 912.483352 271.017929 
L 912.940126 267.196293 
L 913.3969 266.204205 
L 913.853674 268.454552 
L 914.767222 275.524002 
L 915.223996 277.450384 
L 916.137543 278.839278 
L 916.594317 280.220025 
L 917.051091 279.218156 
L 917.964639 271.283598 
L 918.421412 270.261848 
L 919.791734 274.132438 
L 920.705282 275.799318 
L 921.162055 276.255439 
L 921.618829 276.253492 
L 922.075603 275.893799 
L 922.532377 275.31289 
L 922.989151 274.364593 
L 923.445925 272.894011 
L 924.359472 267.963346 
L 924.816246 267.085153 
L 925.27302 269.822259 
L 926.186568 278.573321 
L 926.643342 280.269536 
L 927.100115 280.266156 
L 927.556889 278.675433 
L 928.470437 274.379224 
L 928.927211 273.678984 
L 929.383985 273.79445 
L 929.840758 273.490309 
L 930.297532 272.616471 
L 930.754306 272.032379 
L 931.21108 272.904137 
L 932.124628 275.633317 
L 933.038175 279.839891 
L 933.494949 280.116361 
L 934.408497 275.790909 
L 934.865271 275.404992 
L 935.778818 278.820068 
L 936.235592 279.242545 
L 936.692366 278.049284 
L 937.605914 275.059891 
L 938.062688 274.112291 
L 938.519461 273.568645 
L 938.976235 274.049777 
L 939.433009 275.554958 
L 940.346557 279.358062 
L 940.803331 279.845424 
L 941.260104 278.306107 
L 941.716878 275.966644 
L 942.173652 274.580087 
L 942.630426 274.668437 
L 943.0872 275.132269 
L 943.543974 275.011002 
L 944.000748 274.130347 
L 944.457521 272.836295 
L 944.914295 271.968052 
L 945.371069 271.953491 
L 945.827843 273.166432 
L 946.741391 278.123558 
L 947.198164 278.065021 
L 948.111712 274.156899 
L 948.568486 273.234509 
L 949.02526 273.414797 
L 949.482034 274.008206 
L 949.938807 274.372646 
L 950.395581 274.440871 
L 951.309129 275.054634 
L 951.765903 274.771955 
L 952.222677 274.315231 
L 953.136224 274.413149 
L 954.049772 273.38716 
L 954.506546 273.288163 
L 954.96332 273.849954 
L 955.420094 274.816611 
L 955.876867 275.319133 
L 956.790415 274.446853 
L 957.247189 274.381731 
L 957.703963 274.745807 
L 958.160737 275.30368 
L 958.61751 275.508457 
L 959.074284 275.169063 
L 959.987832 273.941736 
L 960.444606 274.054425 
L 960.90138 274.520602 
L 961.358154 274.694558 
L 961.814927 274.456299 
L 962.271701 274.463178 
L 963.185249 275.736446 
L 963.642023 275.930103 
L 964.098797 275.554478 
L 965.012344 274.317053 
L 965.469118 274.205777 
L 966.83944 275.031985 
L 968.666535 275.233405 
L 970.036856 274.601597 
L 970.49363 274.762801 
L 971.407178 275.440369 
L 971.863952 275.584711 
L 972.320726 275.573494 
L 974.147821 275.01416 
L 975.061369 275.068397 
L 975.518143 274.964211 
L 975.974916 274.985555 
L 976.888464 275.440148 
L 977.345238 275.364079 
L 977.802012 275.108054 
L 978.258786 274.989278 
L 981.456203 275.155066 
L 982.36975 275.382691 
L 982.826524 275.363649 
L 984.196846 274.860155 
L 985.110393 275.032466 
L 986.023941 275.077662 
L 987.394262 274.992806 
L 990.134906 274.979276 
L 999.727156 274.904768 
L 1003.838121 274.883288 
L 1010.232955 274.853 
L 1010.232955 274.853 
" clip-path="url(#p18914af54d)" style="fill: none; stroke: #0c5da5; stroke-width: 2; stroke-linecap: square"/>
   </g>
   <g id="patch_3">
    <path d="M 51.4875 520.7175 
L 51.4875 21.7575 
" style="fill: none; stroke: #000000; stroke-linejoin: miter; stroke-linecap: square"/>
   </g>
   <g id="patch_4">
    <path d="M 1055.8875 520.7175 
L 1055.8875 21.7575 
" style="fill: none; stroke: #000000; stroke-linejoin: miter; stroke-linecap: square"/>
   </g>
   <g id="patch_5">
    <path d="M 51.4875 520.7175 
L 1055.8875 520.7175 
" style="fill: none; stroke: #000000; stroke-linejoin: miter; stroke-linecap: square"/>
   </g>
   <g id="patch_6">
    <path d="M 51.4875 21.7575 
L 1055.8875 21.7575 
" style="fill: none; stroke: #000000; stroke-linejoin: miter; stroke-linecap: square"/>
   </g>
   <g id="text_19">
    <!-- Northridge-01 Record no. 1051 -->
    <g transform="translate(429.6575 15.7575) scale(0.16 -0.16)">
     <defs>
      <path id="DejaVuSans-4e" d="M 628 4666 
L 1478 4666 
L 3547 763 
L 3547 4666 
L 4159 4666 
L 4159 0 
L 3309 0 
L 1241 3903 
L 1241 0 
L 628 0 
L 628 4666 
z
" transform="scale(0.015625)"/>
      <path id="DejaVuSans-68" d="M 3513 2113 
L 3513 0 
L 2938 0 
L 2938 2094 
Q 2938 2591 2744 2837 
Q 2550 3084 2163 3084 
Q 1697 3084 1428 2787 
Q 1159 2491 1159 1978 
L 1159 0 
L 581 0 
L 581 4863 
L 1159 4863 
L 1159 2956 
Q 1366 3272 1645 3428 
Q 1925 3584 2291 3584 
Q 2894 3584 3203 3211 
Q 3513 2838 3513 2113 
z
" transform="scale(0.015625)"/>
      <path id="DejaVuSans-64" d="M 2906 2969 
L 2906 4863 
L 3481 4863 
L 3481 0 
L 2906 0 
L 2906 525 
Q 2725 213 2448 61 
Q 2172 -91 1784 -91 
Q 1150 -91 751 415 
Q 353 922 353 1747 
Q 353 2572 751 3078 
Q 1150 3584 1784 3584 
Q 2172 3584 2448 3432 
Q 2725 3281 2906 2969 
z
M 947 1747 
Q 947 1113 1208 752 
Q 1469 391 1925 391 
Q 2381 391 2643 752 
Q 2906 1113 2906 1747 
Q 2906 2381 2643 2742 
Q 2381 3103 1925 3103 
Q 1469 3103 1208 2742 
Q 947 2381 947 1747 
z
" transform="scale(0.015625)"/>
      <path id="DejaVuSans-67" d="M 2906 1791 
Q 2906 2416 2648 2759 
Q 2391 3103 1925 3103 
Q 1463 3103 1205 2759 
Q 947 2416 947 1791 
Q 947 1169 1205 825 
Q 1463 481 1925 481 
Q 2391 481 2648 825 
Q 2906 1169 2906 1791 
z
M 3481 434 
Q 3481 -459 3084 -895 
Q 2688 -1331 1869 -1331 
Q 1566 -1331 1297 -1286 
Q 1028 -1241 775 -1147 
L 775 -588 
Q 1028 -725 1275 -790 
Q 1522 -856 1778 -856 
Q 2344 -856 2625 -561 
Q 2906 -266 2906 331 
L 2906 616 
Q 2728 306 2450 153 
Q 2172 0 1784 0 
Q 1141 0 747 490 
Q 353 981 353 1791 
Q 353 2603 747 3093 
Q 1141 3584 1784 3584 
Q 2172 3584 2450 3431 
Q 2728 3278 2906 2969 
L 2906 3500 
L 3481 3500 
L 3481 434 
z
" transform="scale(0.015625)"/>
      <path id="DejaVuSans-2d" d="M 313 2009 
L 1997 2009 
L 1997 1497 
L 313 1497 
L 313 2009 
z
" transform="scale(0.015625)"/>
      <path id="DejaVuSans-2e" d="M 684 794 
L 1344 794 
L 1344 0 
L 684 0 
L 684 794 
z
" transform="scale(0.015625)"/>
     </defs>
     <use xlink:href="#DejaVuSans-4e"/>
     <use xlink:href="#DejaVuSans-6f" x="74.804688"/>
     <use xlink:href="#DejaVuSans-72" x="135.986328"/>
     <use xlink:href="#DejaVuSans-74" x="177.099609"/>
     <use xlink:href="#DejaVuSans-68" x="216.308594"/>
     <use xlink:href="#DejaVuSans-72" x="279.6875"/>
     <use xlink:href="#DejaVuSans-69" x="320.800781"/>
     <use xlink:href="#DejaVuSans-64" x="348.583984"/>
     <use xlink:href="#DejaVuSans-67" x="412.060547"/>
     <use xlink:href="#DejaVuSans-65" x="475.537109"/>
     <use xlink:href="#DejaVuSans-2d" x="537.060547"/>
     <use xlink:href="#DejaVuSans-30" x="573.144531"/>
     <use xlink:href="#DejaVuSans-31" x="636.767578"/>
     <use xlink:href="#DejaVuSans-20" x="700.390625"/>
     <use xlink:href="#DejaVuSans-52" x="732.177734"/>
     <use xlink:href="#DejaVuSans-65" x="797.160156"/>
     <use xlink:href="#DejaVuSans-63" x="858.683594"/>
     <use xlink:href="#DejaVuSans-6f" x="913.664062"/>
     <use xlink:href="#DejaVuSans-72" x="974.845703"/>
     <use xlink:href="#DejaVuSans-64" x="1014.208984"/>
     <use xlink:href="#DejaVuSans-20" x="1077.685547"/>
     <use xlink:href="#DejaVuSans-6e" x="1109.472656"/>
     <use xlink:href="#DejaVuSans-6f" x="1172.851562"/>
     <use xlink:href="#DejaVuSans-2e" x="1232.283203"/>
     <use xlink:href="#DejaVuSans-20" x="1264.070312"/>
     <use xlink:href="#DejaVuSans-31" x="1295.857422"/>
     <use xlink:href="#DejaVuSans-30" x="1359.480469"/>
     <use xlink:href="#DejaVuSans-35" x="1423.103516"/>
     <use xlink:href="#DejaVuSans-31" x="1486.726562"/>
    </g>
   </g>
  </g>
 </g>
 <defs>
  <clipPath id="p18914af54d">
   <rect x="51.4875" y="21.7575" width="1004.4" height="498.96"/>
  </clipPath>
 </defs>
</svg>
