<?xml version="1.0" encoding="utf-8" standalone="no"?>
<!DOCTYPE svg PUBLIC "-//W3C//DTD SVG 1.1//EN"
  "http://www.w3.org/Graphics/SVG/1.1/DTD/svg11.dtd">
<svg xmlns:xlink="http://www.w3.org/1999/xlink" width="1059.4875pt" height="562.7875pt" viewBox="0 0 1059.4875 562.7875" xmlns="http://www.w3.org/2000/svg" version="1.1">
 <metadata>
  <rdf:RDF xmlns:dc="http://purl.org/dc/elements/1.1/" xmlns:cc="http://creativecommons.org/ns#" xmlns:rdf="http://www.w3.org/1999/02/22-rdf-syntax-ns#">
   <cc:Work>
    <dc:type rdf:resource="http://purl.org/dc/dcmitype/StillImage"/>
    <dc:date>2023-06-06T08:32:06.614152</dc:date>
    <dc:format>image/svg+xml</dc:format>
    <dc:creator>
     <cc:Agent>
      <dc:title>Matplotlib v3.7.1, https://matplotlib.org/</dc:title>
     </cc:Agent>
    </dc:creator>
   </cc:Work>
  </rdf:RDF>
 </metadata>
 <defs>
  <style type="text/css">*{stroke-linejoin: round; stroke-linecap: butt}</style>
 </defs>
 <g id="figure_1">
  <g id="patch_1">
   <path d="M 0 562.7875 
L 1059.4875 562.7875 
L 1059.4875 0 
L 0 0 
z
" style="fill: #ffffff"/>
  </g>
  <g id="axes_1">
   <g id="patch_2">
    <path d="M 51.4875 520.7175 
L 1055.8875 520.7175 
L 1055.8875 21.7575 
L 51.4875 21.7575 
z
" style="fill: #ffffff"/>
   </g>
   <g id="matplotlib.axis_1">
    <g id="xtick_1">
     <g id="line2d_1">
      <path d="M 97.142045 520.7175 
L 97.142045 21.7575 
" clip-path="url(#pa40e4df7c2)" style="fill: none; stroke-dasharray: 1.85,0.8; stroke-dashoffset: 0; stroke: #000000; stroke-opacity: 0.5; stroke-width: 0.5"/>
     </g>
     <g id="line2d_2">
      <defs>
       <path id="m703925ab1e" d="M 0 0 
L 0 -6 
" style="stroke: #000000"/>
      </defs>
      <g>
       <use xlink:href="#m703925ab1e" x="97.142045" y="520.7175" style="stroke: #000000"/>
      </g>
     </g>
     <g id="line2d_3">
      <defs>
       <path id="ma1a27d4b3a" d="M 0 0 
L 0 6 
" style="stroke: #000000"/>
      </defs>
      <g>
       <use xlink:href="#ma1a27d4b3a" x="97.142045" y="21.7575" style="stroke: #000000"/>
      </g>
     </g>
     <g id="text_1">
      <!-- 0 -->
      <g transform="translate(92.052045 536.375) scale(0.16 -0.16)">
       <defs>
        <path id="DejaVuSans-30" d="M 2034 4250 
Q 1547 4250 1301 3770 
Q 1056 3291 1056 2328 
Q 1056 1369 1301 889 
Q 1547 409 2034 409 
Q 2525 409 2770 889 
Q 3016 1369 3016 2328 
Q 3016 3291 2770 3770 
Q 2525 4250 2034 4250 
z
M 2034 4750 
Q 2819 4750 3233 4129 
Q 3647 3509 3647 2328 
Q 3647 1150 3233 529 
Q 2819 -91 2034 -91 
Q 1250 -91 836 529 
Q 422 1150 422 2328 
Q 422 3509 836 4129 
Q 1250 4750 2034 4750 
z
" transform="scale(0.015625)"/>
       </defs>
       <use xlink:href="#DejaVuSans-30"/>
      </g>
     </g>
    </g>
    <g id="xtick_2">
     <g id="line2d_4">
      <path d="M 211.335506 520.7175 
L 211.335506 21.7575 
" clip-path="url(#pa40e4df7c2)" style="fill: none; stroke-dasharray: 1.85,0.8; stroke-dashoffset: 0; stroke: #000000; stroke-opacity: 0.5; stroke-width: 0.5"/>
     </g>
     <g id="line2d_5">
      <g>
       <use xlink:href="#m703925ab1e" x="211.335506" y="520.7175" style="stroke: #000000"/>
      </g>
     </g>
     <g id="line2d_6">
      <g>
       <use xlink:href="#ma1a27d4b3a" x="211.335506" y="21.7575" style="stroke: #000000"/>
      </g>
     </g>
     <g id="text_2">
      <!-- 5 -->
      <g transform="translate(206.245506 536.375) scale(0.16 -0.16)">
       <defs>
        <path id="DejaVuSans-35" d="M 691 4666 
L 3169 4666 
L 3169 4134 
L 1269 4134 
L 1269 2991 
Q 1406 3038 1543 3061 
Q 1681 3084 1819 3084 
Q 2600 3084 3056 2656 
Q 3513 2228 3513 1497 
Q 3513 744 3044 326 
Q 2575 -91 1722 -91 
Q 1428 -91 1123 -41 
Q 819 9 494 109 
L 494 744 
Q 775 591 1075 516 
Q 1375 441 1709 441 
Q 2250 441 2565 725 
Q 2881 1009 2881 1497 
Q 2881 1984 2565 2268 
Q 2250 2553 1709 2553 
Q 1456 2553 1204 2497 
Q 953 2441 691 2322 
L 691 4666 
z
" transform="scale(0.015625)"/>
       </defs>
       <use xlink:href="#DejaVuSans-35"/>
      </g>
     </g>
    </g>
    <g id="xtick_3">
     <g id="line2d_7">
      <path d="M 325.528966 520.7175 
L 325.528966 21.7575 
" clip-path="url(#pa40e4df7c2)" style="fill: none; stroke-dasharray: 1.85,0.8; stroke-dashoffset: 0; stroke: #000000; stroke-opacity: 0.5; stroke-width: 0.5"/>
     </g>
     <g id="line2d_8">
      <g>
       <use xlink:href="#m703925ab1e" x="325.528966" y="520.7175" style="stroke: #000000"/>
      </g>
     </g>
     <g id="line2d_9">
      <g>
       <use xlink:href="#ma1a27d4b3a" x="325.528966" y="21.7575" style="stroke: #000000"/>
      </g>
     </g>
     <g id="text_3">
      <!-- 10 -->
      <g transform="translate(315.348966 536.375) scale(0.16 -0.16)">
       <defs>
        <path id="DejaVuSans-31" d="M 794 531 
L 1825 531 
L 1825 4091 
L 703 3866 
L 703 4441 
L 1819 4666 
L 2450 4666 
L 2450 531 
L 3481 531 
L 3481 0 
L 794 0 
L 794 531 
z
" transform="scale(0.015625)"/>
       </defs>
       <use xlink:href="#DejaVuSans-31"/>
       <use xlink:href="#DejaVuSans-30" x="63.623047"/>
      </g>
     </g>
    </g>
    <g id="xtick_4">
     <g id="line2d_10">
      <path d="M 439.722427 520.7175 
L 439.722427 21.7575 
" clip-path="url(#pa40e4df7c2)" style="fill: none; stroke-dasharray: 1.85,0.8; stroke-dashoffset: 0; stroke: #000000; stroke-opacity: 0.5; stroke-width: 0.5"/>
     </g>
     <g id="line2d_11">
      <g>
       <use xlink:href="#m703925ab1e" x="439.722427" y="520.7175" style="stroke: #000000"/>
      </g>
     </g>
     <g id="line2d_12">
      <g>
       <use xlink:href="#ma1a27d4b3a" x="439.722427" y="21.7575" style="stroke: #000000"/>
      </g>
     </g>
     <g id="text_4">
      <!-- 15 -->
      <g transform="translate(429.542427 536.375) scale(0.16 -0.16)">
       <use xlink:href="#DejaVuSans-31"/>
       <use xlink:href="#DejaVuSans-35" x="63.623047"/>
      </g>
     </g>
    </g>
    <g id="xtick_5">
     <g id="line2d_13">
      <path d="M 553.915887 520.7175 
L 553.915887 21.7575 
" clip-path="url(#pa40e4df7c2)" style="fill: none; stroke-dasharray: 1.85,0.8; stroke-dashoffset: 0; stroke: #000000; stroke-opacity: 0.5; stroke-width: 0.5"/>
     </g>
     <g id="line2d_14">
      <g>
       <use xlink:href="#m703925ab1e" x="553.915887" y="520.7175" style="stroke: #000000"/>
      </g>
     </g>
     <g id="line2d_15">
      <g>
       <use xlink:href="#ma1a27d4b3a" x="553.915887" y="21.7575" style="stroke: #000000"/>
      </g>
     </g>
     <g id="text_5">
      <!-- 20 -->
      <g transform="translate(543.735887 536.375) scale(0.16 -0.16)">
       <defs>
        <path id="DejaVuSans-32" d="M 1228 531 
L 3431 531 
L 3431 0 
L 469 0 
L 469 531 
Q 828 903 1448 1529 
Q 2069 2156 2228 2338 
Q 2531 2678 2651 2914 
Q 2772 3150 2772 3378 
Q 2772 3750 2511 3984 
Q 2250 4219 1831 4219 
Q 1534 4219 1204 4116 
Q 875 4013 500 3803 
L 500 4441 
Q 881 4594 1212 4672 
Q 1544 4750 1819 4750 
Q 2544 4750 2975 4387 
Q 3406 4025 3406 3419 
Q 3406 3131 3298 2873 
Q 3191 2616 2906 2266 
Q 2828 2175 2409 1742 
Q 1991 1309 1228 531 
z
" transform="scale(0.015625)"/>
       </defs>
       <use xlink:href="#DejaVuSans-32"/>
       <use xlink:href="#DejaVuSans-30" x="63.623047"/>
      </g>
     </g>
    </g>
    <g id="xtick_6">
     <g id="line2d_16">
      <path d="M 668.109347 520.7175 
L 668.109347 21.7575 
" clip-path="url(#pa40e4df7c2)" style="fill: none; stroke-dasharray: 1.85,0.8; stroke-dashoffset: 0; stroke: #000000; stroke-opacity: 0.5; stroke-width: 0.5"/>
     </g>
     <g id="line2d_17">
      <g>
       <use xlink:href="#m703925ab1e" x="668.109347" y="520.7175" style="stroke: #000000"/>
      </g>
     </g>
     <g id="line2d_18">
      <g>
       <use xlink:href="#ma1a27d4b3a" x="668.109347" y="21.7575" style="stroke: #000000"/>
      </g>
     </g>
     <g id="text_6">
      <!-- 25 -->
      <g transform="translate(657.929347 536.375) scale(0.16 -0.16)">
       <use xlink:href="#DejaVuSans-32"/>
       <use xlink:href="#DejaVuSans-35" x="63.623047"/>
      </g>
     </g>
    </g>
    <g id="xtick_7">
     <g id="line2d_19">
      <path d="M 782.302808 520.7175 
L 782.302808 21.7575 
" clip-path="url(#pa40e4df7c2)" style="fill: none; stroke-dasharray: 1.85,0.8; stroke-dashoffset: 0; stroke: #000000; stroke-opacity: 0.5; stroke-width: 0.5"/>
     </g>
     <g id="line2d_20">
      <g>
       <use xlink:href="#m703925ab1e" x="782.302808" y="520.7175" style="stroke: #000000"/>
      </g>
     </g>
     <g id="line2d_21">
      <g>
       <use xlink:href="#ma1a27d4b3a" x="782.302808" y="21.7575" style="stroke: #000000"/>
      </g>
     </g>
     <g id="text_7">
      <!-- 30 -->
      <g transform="translate(772.122808 536.375) scale(0.16 -0.16)">
       <defs>
        <path id="DejaVuSans-33" d="M 2597 2516 
Q 3050 2419 3304 2112 
Q 3559 1806 3559 1356 
Q 3559 666 3084 287 
Q 2609 -91 1734 -91 
Q 1441 -91 1130 -33 
Q 819 25 488 141 
L 488 750 
Q 750 597 1062 519 
Q 1375 441 1716 441 
Q 2309 441 2620 675 
Q 2931 909 2931 1356 
Q 2931 1769 2642 2001 
Q 2353 2234 1838 2234 
L 1294 2234 
L 1294 2753 
L 1863 2753 
Q 2328 2753 2575 2939 
Q 2822 3125 2822 3475 
Q 2822 3834 2567 4026 
Q 2313 4219 1838 4219 
Q 1578 4219 1281 4162 
Q 984 4106 628 3988 
L 628 4550 
Q 988 4650 1302 4700 
Q 1616 4750 1894 4750 
Q 2613 4750 3031 4423 
Q 3450 4097 3450 3541 
Q 3450 3153 3228 2886 
Q 3006 2619 2597 2516 
z
" transform="scale(0.015625)"/>
       </defs>
       <use xlink:href="#DejaVuSans-33"/>
       <use xlink:href="#DejaVuSans-30" x="63.623047"/>
      </g>
     </g>
    </g>
    <g id="xtick_8">
     <g id="line2d_22">
      <path d="M 896.496268 520.7175 
L 896.496268 21.7575 
" clip-path="url(#pa40e4df7c2)" style="fill: none; stroke-dasharray: 1.85,0.8; stroke-dashoffset: 0; stroke: #000000; stroke-opacity: 0.5; stroke-width: 0.5"/>
     </g>
     <g id="line2d_23">
      <g>
       <use xlink:href="#m703925ab1e" x="896.496268" y="520.7175" style="stroke: #000000"/>
      </g>
     </g>
     <g id="line2d_24">
      <g>
       <use xlink:href="#ma1a27d4b3a" x="896.496268" y="21.7575" style="stroke: #000000"/>
      </g>
     </g>
     <g id="text_8">
      <!-- 35 -->
      <g transform="translate(886.316268 536.375) scale(0.16 -0.16)">
       <use xlink:href="#DejaVuSans-33"/>
       <use xlink:href="#DejaVuSans-35" x="63.623047"/>
      </g>
     </g>
    </g>
    <g id="xtick_9">
     <g id="line2d_25">
      <path d="M 1010.689728 520.7175 
L 1010.689728 21.7575 
" clip-path="url(#pa40e4df7c2)" style="fill: none; stroke-dasharray: 1.85,0.8; stroke-dashoffset: 0; stroke: #000000; stroke-opacity: 0.5; stroke-width: 0.5"/>
     </g>
     <g id="line2d_26">
      <g>
       <use xlink:href="#m703925ab1e" x="1010.689728" y="520.7175" style="stroke: #000000"/>
      </g>
     </g>
     <g id="line2d_27">
      <g>
       <use xlink:href="#ma1a27d4b3a" x="1010.689728" y="21.7575" style="stroke: #000000"/>
      </g>
     </g>
     <g id="text_9">
      <!-- 40 -->
      <g transform="translate(1000.509728 536.375) scale(0.16 -0.16)">
       <defs>
        <path id="DejaVuSans-34" d="M 2419 4116 
L 825 1625 
L 2419 1625 
L 2419 4116 
z
M 2253 4666 
L 3047 4666 
L 3047 1625 
L 3713 1625 
L 3713 1100 
L 3047 1100 
L 3047 0 
L 2419 0 
L 2419 1100 
L 313 1100 
L 313 1709 
L 2253 4666 
z
" transform="scale(0.015625)"/>
       </defs>
       <use xlink:href="#DejaVuSans-34"/>
       <use xlink:href="#DejaVuSans-30" x="63.623047"/>
      </g>
     </g>
    </g>
    <g id="xtick_10">
     <g id="line2d_28">
      <defs>
       <path id="mbec6e62647" d="M 0 0 
L 0 -3 
" style="stroke: #000000"/>
      </defs>
      <g>
       <use xlink:href="#mbec6e62647" x="74.303353" y="520.7175" style="stroke: #000000"/>
      </g>
     </g>
     <g id="line2d_29">
      <defs>
       <path id="m25a1238598" d="M 0 0 
L 0 3 
" style="stroke: #000000"/>
      </defs>
      <g>
       <use xlink:href="#m25a1238598" x="74.303353" y="21.7575" style="stroke: #000000"/>
      </g>
     </g>
    </g>
    <g id="xtick_11">
     <g id="line2d_30">
      <g>
       <use xlink:href="#mbec6e62647" x="119.980738" y="520.7175" style="stroke: #000000"/>
      </g>
     </g>
     <g id="line2d_31">
      <g>
       <use xlink:href="#m25a1238598" x="119.980738" y="21.7575" style="stroke: #000000"/>
      </g>
     </g>
    </g>
    <g id="xtick_12">
     <g id="line2d_32">
      <g>
       <use xlink:href="#mbec6e62647" x="142.81943" y="520.7175" style="stroke: #000000"/>
      </g>
     </g>
     <g id="line2d_33">
      <g>
       <use xlink:href="#m25a1238598" x="142.81943" y="21.7575" style="stroke: #000000"/>
      </g>
     </g>
    </g>
    <g id="xtick_13">
     <g id="line2d_34">
      <g>
       <use xlink:href="#mbec6e62647" x="165.658122" y="520.7175" style="stroke: #000000"/>
      </g>
     </g>
     <g id="line2d_35">
      <g>
       <use xlink:href="#m25a1238598" x="165.658122" y="21.7575" style="stroke: #000000"/>
      </g>
     </g>
    </g>
    <g id="xtick_14">
     <g id="line2d_36">
      <g>
       <use xlink:href="#mbec6e62647" x="188.496814" y="520.7175" style="stroke: #000000"/>
      </g>
     </g>
     <g id="line2d_37">
      <g>
       <use xlink:href="#m25a1238598" x="188.496814" y="21.7575" style="stroke: #000000"/>
      </g>
     </g>
    </g>
    <g id="xtick_15">
     <g id="line2d_38">
      <g>
       <use xlink:href="#mbec6e62647" x="234.174198" y="520.7175" style="stroke: #000000"/>
      </g>
     </g>
     <g id="line2d_39">
      <g>
       <use xlink:href="#m25a1238598" x="234.174198" y="21.7575" style="stroke: #000000"/>
      </g>
     </g>
    </g>
    <g id="xtick_16">
     <g id="line2d_40">
      <g>
       <use xlink:href="#mbec6e62647" x="257.01289" y="520.7175" style="stroke: #000000"/>
      </g>
     </g>
     <g id="line2d_41">
      <g>
       <use xlink:href="#m25a1238598" x="257.01289" y="21.7575" style="stroke: #000000"/>
      </g>
     </g>
    </g>
    <g id="xtick_17">
     <g id="line2d_42">
      <g>
       <use xlink:href="#mbec6e62647" x="279.851582" y="520.7175" style="stroke: #000000"/>
      </g>
     </g>
     <g id="line2d_43">
      <g>
       <use xlink:href="#m25a1238598" x="279.851582" y="21.7575" style="stroke: #000000"/>
      </g>
     </g>
    </g>
    <g id="xtick_18">
     <g id="line2d_44">
      <g>
       <use xlink:href="#mbec6e62647" x="302.690274" y="520.7175" style="stroke: #000000"/>
      </g>
     </g>
     <g id="line2d_45">
      <g>
       <use xlink:href="#m25a1238598" x="302.690274" y="21.7575" style="stroke: #000000"/>
      </g>
     </g>
    </g>
    <g id="xtick_19">
     <g id="line2d_46">
      <g>
       <use xlink:href="#mbec6e62647" x="348.367658" y="520.7175" style="stroke: #000000"/>
      </g>
     </g>
     <g id="line2d_47">
      <g>
       <use xlink:href="#m25a1238598" x="348.367658" y="21.7575" style="stroke: #000000"/>
      </g>
     </g>
    </g>
    <g id="xtick_20">
     <g id="line2d_48">
      <g>
       <use xlink:href="#mbec6e62647" x="371.20635" y="520.7175" style="stroke: #000000"/>
      </g>
     </g>
     <g id="line2d_49">
      <g>
       <use xlink:href="#m25a1238598" x="371.20635" y="21.7575" style="stroke: #000000"/>
      </g>
     </g>
    </g>
    <g id="xtick_21">
     <g id="line2d_50">
      <g>
       <use xlink:href="#mbec6e62647" x="394.045042" y="520.7175" style="stroke: #000000"/>
      </g>
     </g>
     <g id="line2d_51">
      <g>
       <use xlink:href="#m25a1238598" x="394.045042" y="21.7575" style="stroke: #000000"/>
      </g>
     </g>
    </g>
    <g id="xtick_22">
     <g id="line2d_52">
      <g>
       <use xlink:href="#mbec6e62647" x="416.883734" y="520.7175" style="stroke: #000000"/>
      </g>
     </g>
     <g id="line2d_53">
      <g>
       <use xlink:href="#m25a1238598" x="416.883734" y="21.7575" style="stroke: #000000"/>
      </g>
     </g>
    </g>
    <g id="xtick_23">
     <g id="line2d_54">
      <g>
       <use xlink:href="#mbec6e62647" x="462.561119" y="520.7175" style="stroke: #000000"/>
      </g>
     </g>
     <g id="line2d_55">
      <g>
       <use xlink:href="#m25a1238598" x="462.561119" y="21.7575" style="stroke: #000000"/>
      </g>
     </g>
    </g>
    <g id="xtick_24">
     <g id="line2d_56">
      <g>
       <use xlink:href="#mbec6e62647" x="485.399811" y="520.7175" style="stroke: #000000"/>
      </g>
     </g>
     <g id="line2d_57">
      <g>
       <use xlink:href="#m25a1238598" x="485.399811" y="21.7575" style="stroke: #000000"/>
      </g>
     </g>
    </g>
    <g id="xtick_25">
     <g id="line2d_58">
      <g>
       <use xlink:href="#mbec6e62647" x="508.238503" y="520.7175" style="stroke: #000000"/>
      </g>
     </g>
     <g id="line2d_59">
      <g>
       <use xlink:href="#m25a1238598" x="508.238503" y="21.7575" style="stroke: #000000"/>
      </g>
     </g>
    </g>
    <g id="xtick_26">
     <g id="line2d_60">
      <g>
       <use xlink:href="#mbec6e62647" x="531.077195" y="520.7175" style="stroke: #000000"/>
      </g>
     </g>
     <g id="line2d_61">
      <g>
       <use xlink:href="#m25a1238598" x="531.077195" y="21.7575" style="stroke: #000000"/>
      </g>
     </g>
    </g>
    <g id="xtick_27">
     <g id="line2d_62">
      <g>
       <use xlink:href="#mbec6e62647" x="576.754579" y="520.7175" style="stroke: #000000"/>
      </g>
     </g>
     <g id="line2d_63">
      <g>
       <use xlink:href="#m25a1238598" x="576.754579" y="21.7575" style="stroke: #000000"/>
      </g>
     </g>
    </g>
    <g id="xtick_28">
     <g id="line2d_64">
      <g>
       <use xlink:href="#mbec6e62647" x="599.593271" y="520.7175" style="stroke: #000000"/>
      </g>
     </g>
     <g id="line2d_65">
      <g>
       <use xlink:href="#m25a1238598" x="599.593271" y="21.7575" style="stroke: #000000"/>
      </g>
     </g>
    </g>
    <g id="xtick_29">
     <g id="line2d_66">
      <g>
       <use xlink:href="#mbec6e62647" x="622.431963" y="520.7175" style="stroke: #000000"/>
      </g>
     </g>
     <g id="line2d_67">
      <g>
       <use xlink:href="#m25a1238598" x="622.431963" y="21.7575" style="stroke: #000000"/>
      </g>
     </g>
    </g>
    <g id="xtick_30">
     <g id="line2d_68">
      <g>
       <use xlink:href="#mbec6e62647" x="645.270655" y="520.7175" style="stroke: #000000"/>
      </g>
     </g>
     <g id="line2d_69">
      <g>
       <use xlink:href="#m25a1238598" x="645.270655" y="21.7575" style="stroke: #000000"/>
      </g>
     </g>
    </g>
    <g id="xtick_31">
     <g id="line2d_70">
      <g>
       <use xlink:href="#mbec6e62647" x="690.948039" y="520.7175" style="stroke: #000000"/>
      </g>
     </g>
     <g id="line2d_71">
      <g>
       <use xlink:href="#m25a1238598" x="690.948039" y="21.7575" style="stroke: #000000"/>
      </g>
     </g>
    </g>
    <g id="xtick_32">
     <g id="line2d_72">
      <g>
       <use xlink:href="#mbec6e62647" x="713.786731" y="520.7175" style="stroke: #000000"/>
      </g>
     </g>
     <g id="line2d_73">
      <g>
       <use xlink:href="#m25a1238598" x="713.786731" y="21.7575" style="stroke: #000000"/>
      </g>
     </g>
    </g>
    <g id="xtick_33">
     <g id="line2d_74">
      <g>
       <use xlink:href="#mbec6e62647" x="736.625424" y="520.7175" style="stroke: #000000"/>
      </g>
     </g>
     <g id="line2d_75">
      <g>
       <use xlink:href="#m25a1238598" x="736.625424" y="21.7575" style="stroke: #000000"/>
      </g>
     </g>
    </g>
    <g id="xtick_34">
     <g id="line2d_76">
      <g>
       <use xlink:href="#mbec6e62647" x="759.464116" y="520.7175" style="stroke: #000000"/>
      </g>
     </g>
     <g id="line2d_77">
      <g>
       <use xlink:href="#m25a1238598" x="759.464116" y="21.7575" style="stroke: #000000"/>
      </g>
     </g>
    </g>
    <g id="xtick_35">
     <g id="line2d_78">
      <g>
       <use xlink:href="#mbec6e62647" x="805.1415" y="520.7175" style="stroke: #000000"/>
      </g>
     </g>
     <g id="line2d_79">
      <g>
       <use xlink:href="#m25a1238598" x="805.1415" y="21.7575" style="stroke: #000000"/>
      </g>
     </g>
    </g>
    <g id="xtick_36">
     <g id="line2d_80">
      <g>
       <use xlink:href="#mbec6e62647" x="827.980192" y="520.7175" style="stroke: #000000"/>
      </g>
     </g>
     <g id="line2d_81">
      <g>
       <use xlink:href="#m25a1238598" x="827.980192" y="21.7575" style="stroke: #000000"/>
      </g>
     </g>
    </g>
    <g id="xtick_37">
     <g id="line2d_82">
      <g>
       <use xlink:href="#mbec6e62647" x="850.818884" y="520.7175" style="stroke: #000000"/>
      </g>
     </g>
     <g id="line2d_83">
      <g>
       <use xlink:href="#m25a1238598" x="850.818884" y="21.7575" style="stroke: #000000"/>
      </g>
     </g>
    </g>
    <g id="xtick_38">
     <g id="line2d_84">
      <g>
       <use xlink:href="#mbec6e62647" x="873.657576" y="520.7175" style="stroke: #000000"/>
      </g>
     </g>
     <g id="line2d_85">
      <g>
       <use xlink:href="#m25a1238598" x="873.657576" y="21.7575" style="stroke: #000000"/>
      </g>
     </g>
    </g>
    <g id="xtick_39">
     <g id="line2d_86">
      <g>
       <use xlink:href="#mbec6e62647" x="919.33496" y="520.7175" style="stroke: #000000"/>
      </g>
     </g>
     <g id="line2d_87">
      <g>
       <use xlink:href="#m25a1238598" x="919.33496" y="21.7575" style="stroke: #000000"/>
      </g>
     </g>
    </g>
    <g id="xtick_40">
     <g id="line2d_88">
      <g>
       <use xlink:href="#mbec6e62647" x="942.173652" y="520.7175" style="stroke: #000000"/>
      </g>
     </g>
     <g id="line2d_89">
      <g>
       <use xlink:href="#m25a1238598" x="942.173652" y="21.7575" style="stroke: #000000"/>
      </g>
     </g>
    </g>
    <g id="xtick_41">
     <g id="line2d_90">
      <g>
       <use xlink:href="#mbec6e62647" x="965.012344" y="520.7175" style="stroke: #000000"/>
      </g>
     </g>
     <g id="line2d_91">
      <g>
       <use xlink:href="#m25a1238598" x="965.012344" y="21.7575" style="stroke: #000000"/>
      </g>
     </g>
    </g>
    <g id="xtick_42">
     <g id="line2d_92">
      <g>
       <use xlink:href="#mbec6e62647" x="987.851036" y="520.7175" style="stroke: #000000"/>
      </g>
     </g>
     <g id="line2d_93">
      <g>
       <use xlink:href="#m25a1238598" x="987.851036" y="21.7575" style="stroke: #000000"/>
      </g>
     </g>
    </g>
    <g id="xtick_43">
     <g id="line2d_94">
      <g>
       <use xlink:href="#mbec6e62647" x="1033.52842" y="520.7175" style="stroke: #000000"/>
      </g>
     </g>
     <g id="line2d_95">
      <g>
       <use xlink:href="#m25a1238598" x="1033.52842" y="21.7575" style="stroke: #000000"/>
      </g>
     </g>
    </g>
    <g id="text_10">
     <!-- Time(s) -->
     <g transform="translate(523.70375 555.86) scale(0.16 -0.16)">
      <defs>
       <path id="DejaVuSans-54" d="M -19 4666 
L 3928 4666 
L 3928 4134 
L 2272 4134 
L 2272 0 
L 1638 0 
L 1638 4134 
L -19 4134 
L -19 4666 
z
" transform="scale(0.015625)"/>
       <path id="DejaVuSans-69" d="M 603 3500 
L 1178 3500 
L 1178 0 
L 603 0 
L 603 3500 
z
M 603 4863 
L 1178 4863 
L 1178 4134 
L 603 4134 
L 603 4863 
z
" transform="scale(0.015625)"/>
       <path id="DejaVuSans-6d" d="M 3328 2828 
Q 3544 3216 3844 3400 
Q 4144 3584 4550 3584 
Q 5097 3584 5394 3201 
Q 5691 2819 5691 2113 
L 5691 0 
L 5113 0 
L 5113 2094 
Q 5113 2597 4934 2840 
Q 4756 3084 4391 3084 
Q 3944 3084 3684 2787 
Q 3425 2491 3425 1978 
L 3425 0 
L 2847 0 
L 2847 2094 
Q 2847 2600 2669 2842 
Q 2491 3084 2119 3084 
Q 1678 3084 1418 2786 
Q 1159 2488 1159 1978 
L 1159 0 
L 581 0 
L 581 3500 
L 1159 3500 
L 1159 2956 
Q 1356 3278 1631 3431 
Q 1906 3584 2284 3584 
Q 2666 3584 2933 3390 
Q 3200 3197 3328 2828 
z
" transform="scale(0.015625)"/>
       <path id="DejaVuSans-65" d="M 3597 1894 
L 3597 1613 
L 953 1613 
Q 991 1019 1311 708 
Q 1631 397 2203 397 
Q 2534 397 2845 478 
Q 3156 559 3463 722 
L 3463 178 
Q 3153 47 2828 -22 
Q 2503 -91 2169 -91 
Q 1331 -91 842 396 
Q 353 884 353 1716 
Q 353 2575 817 3079 
Q 1281 3584 2069 3584 
Q 2775 3584 3186 3129 
Q 3597 2675 3597 1894 
z
M 3022 2063 
Q 3016 2534 2758 2815 
Q 2500 3097 2075 3097 
Q 1594 3097 1305 2825 
Q 1016 2553 972 2059 
L 3022 2063 
z
" transform="scale(0.015625)"/>
       <path id="DejaVuSans-28" d="M 1984 4856 
Q 1566 4138 1362 3434 
Q 1159 2731 1159 2009 
Q 1159 1288 1364 580 
Q 1569 -128 1984 -844 
L 1484 -844 
Q 1016 -109 783 600 
Q 550 1309 550 2009 
Q 550 2706 781 3412 
Q 1013 4119 1484 4856 
L 1984 4856 
z
" transform="scale(0.015625)"/>
       <path id="DejaVuSans-73" d="M 2834 3397 
L 2834 2853 
Q 2591 2978 2328 3040 
Q 2066 3103 1784 3103 
Q 1356 3103 1142 2972 
Q 928 2841 928 2578 
Q 928 2378 1081 2264 
Q 1234 2150 1697 2047 
L 1894 2003 
Q 2506 1872 2764 1633 
Q 3022 1394 3022 966 
Q 3022 478 2636 193 
Q 2250 -91 1575 -91 
Q 1294 -91 989 -36 
Q 684 19 347 128 
L 347 722 
Q 666 556 975 473 
Q 1284 391 1588 391 
Q 1994 391 2212 530 
Q 2431 669 2431 922 
Q 2431 1156 2273 1281 
Q 2116 1406 1581 1522 
L 1381 1569 
Q 847 1681 609 1914 
Q 372 2147 372 2553 
Q 372 3047 722 3315 
Q 1072 3584 1716 3584 
Q 2034 3584 2315 3537 
Q 2597 3491 2834 3397 
z
" transform="scale(0.015625)"/>
       <path id="DejaVuSans-29" d="M 513 4856 
L 1013 4856 
Q 1481 4119 1714 3412 
Q 1947 2706 1947 2009 
Q 1947 1309 1714 600 
Q 1481 -109 1013 -844 
L 513 -844 
Q 928 -128 1133 580 
Q 1338 1288 1338 2009 
Q 1338 2731 1133 3434 
Q 928 4138 513 4856 
z
" transform="scale(0.015625)"/>
      </defs>
      <use xlink:href="#DejaVuSans-54"/>
      <use xlink:href="#DejaVuSans-69" x="57.958984"/>
      <use xlink:href="#DejaVuSans-6d" x="85.742188"/>
      <use xlink:href="#DejaVuSans-65" x="183.154297"/>
      <use xlink:href="#DejaVuSans-28" x="244.677734"/>
      <use xlink:href="#DejaVuSans-73" x="283.691406"/>
      <use xlink:href="#DejaVuSans-29" x="335.791016"/>
     </g>
    </g>
   </g>
   <g id="matplotlib.axis_2">
    <g id="ytick_1">
     <g id="line2d_96">
      <path d="M 51.4875 455.999588 
L 1055.8875 455.999588 
" clip-path="url(#pa40e4df7c2)" style="fill: none; stroke-dasharray: 1.85,0.8; stroke-dashoffset: 0; stroke: #000000; stroke-opacity: 0.5; stroke-width: 0.5"/>
     </g>
     <g id="line2d_97">
      <defs>
       <path id="mf4f79524f1" d="M 0 0 
L 6 0 
" style="stroke: #000000"/>
      </defs>
      <g>
       <use xlink:href="#mf4f79524f1" x="51.4875" y="455.999588" style="stroke: #000000"/>
      </g>
     </g>
     <g id="line2d_98">
      <defs>
       <path id="md86533285e" d="M 0 0 
L -6 0 
" style="stroke: #000000"/>
      </defs>
      <g>
       <use xlink:href="#md86533285e" x="1055.8875" y="455.999588" style="stroke: #000000"/>
      </g>
     </g>
     <g id="text_11">
      <!-- −4 -->
      <g transform="translate(24.4 462.078338) scale(0.16 -0.16)">
       <defs>
        <path id="DejaVuSans-2212" d="M 678 2272 
L 4684 2272 
L 4684 1741 
L 678 1741 
L 678 2272 
z
" transform="scale(0.015625)"/>
       </defs>
       <use xlink:href="#DejaVuSans-2212"/>
       <use xlink:href="#DejaVuSans-34" x="83.789062"/>
      </g>
     </g>
    </g>
    <g id="ytick_2">
     <g id="line2d_99">
      <path d="M 51.4875 367.995738 
L 1055.8875 367.995738 
" clip-path="url(#pa40e4df7c2)" style="fill: none; stroke-dasharray: 1.85,0.8; stroke-dashoffset: 0; stroke: #000000; stroke-opacity: 0.5; stroke-width: 0.5"/>
     </g>
     <g id="line2d_100">
      <g>
       <use xlink:href="#mf4f79524f1" x="51.4875" y="367.995738" style="stroke: #000000"/>
      </g>
     </g>
     <g id="line2d_101">
      <g>
       <use xlink:href="#md86533285e" x="1055.8875" y="367.995738" style="stroke: #000000"/>
      </g>
     </g>
     <g id="text_12">
      <!-- −2 -->
      <g transform="translate(24.4 374.074488) scale(0.16 -0.16)">
       <use xlink:href="#DejaVuSans-2212"/>
       <use xlink:href="#DejaVuSans-32" x="83.789062"/>
      </g>
     </g>
    </g>
    <g id="ytick_3">
     <g id="line2d_102">
      <path d="M 51.4875 279.991887 
L 1055.8875 279.991887 
" clip-path="url(#pa40e4df7c2)" style="fill: none; stroke-dasharray: 1.85,0.8; stroke-dashoffset: 0; stroke: #000000; stroke-opacity: 0.5; stroke-width: 0.5"/>
     </g>
     <g id="line2d_103">
      <g>
       <use xlink:href="#mf4f79524f1" x="51.4875" y="279.991887" style="stroke: #000000"/>
      </g>
     </g>
     <g id="line2d_104">
      <g>
       <use xlink:href="#md86533285e" x="1055.8875" y="279.991887" style="stroke: #000000"/>
      </g>
     </g>
     <g id="text_13">
      <!-- 0 -->
      <g transform="translate(37.8075 286.070637) scale(0.16 -0.16)">
       <use xlink:href="#DejaVuSans-30"/>
      </g>
     </g>
    </g>
    <g id="ytick_4">
     <g id="line2d_105">
      <path d="M 51.4875 191.988037 
L 1055.8875 191.988037 
" clip-path="url(#pa40e4df7c2)" style="fill: none; stroke-dasharray: 1.85,0.8; stroke-dashoffset: 0; stroke: #000000; stroke-opacity: 0.5; stroke-width: 0.5"/>
     </g>
     <g id="line2d_106">
      <g>
       <use xlink:href="#mf4f79524f1" x="51.4875" y="191.988037" style="stroke: #000000"/>
      </g>
     </g>
     <g id="line2d_107">
      <g>
       <use xlink:href="#md86533285e" x="1055.8875" y="191.988037" style="stroke: #000000"/>
      </g>
     </g>
     <g id="text_14">
      <!-- 2 -->
      <g transform="translate(37.8075 198.066787) scale(0.16 -0.16)">
       <use xlink:href="#DejaVuSans-32"/>
      </g>
     </g>
    </g>
    <g id="ytick_5">
     <g id="line2d_108">
      <path d="M 51.4875 103.984187 
L 1055.8875 103.984187 
" clip-path="url(#pa40e4df7c2)" style="fill: none; stroke-dasharray: 1.85,0.8; stroke-dashoffset: 0; stroke: #000000; stroke-opacity: 0.5; stroke-width: 0.5"/>
     </g>
     <g id="line2d_109">
      <g>
       <use xlink:href="#mf4f79524f1" x="51.4875" y="103.984187" style="stroke: #000000"/>
      </g>
     </g>
     <g id="line2d_110">
      <g>
       <use xlink:href="#md86533285e" x="1055.8875" y="103.984187" style="stroke: #000000"/>
      </g>
     </g>
     <g id="text_15">
      <!-- 4 -->
      <g transform="translate(37.8075 110.062937) scale(0.16 -0.16)">
       <use xlink:href="#DejaVuSans-34"/>
      </g>
     </g>
    </g>
    <g id="ytick_6">
     <g id="line2d_111">
      <defs>
       <path id="m95ca628a53" d="M 0 0 
L 3 0 
" style="stroke: #000000"/>
      </defs>
      <g>
       <use xlink:href="#m95ca628a53" x="51.4875" y="500.001513" style="stroke: #000000"/>
      </g>
     </g>
     <g id="line2d_112">
      <defs>
       <path id="med7a9d260d" d="M 0 0 
L -3 0 
" style="stroke: #000000"/>
      </defs>
      <g>
       <use xlink:href="#med7a9d260d" x="1055.8875" y="500.001513" style="stroke: #000000"/>
      </g>
     </g>
    </g>
    <g id="ytick_7">
     <g id="line2d_113">
      <g>
       <use xlink:href="#m95ca628a53" x="51.4875" y="478.00055" style="stroke: #000000"/>
      </g>
     </g>
     <g id="line2d_114">
      <g>
       <use xlink:href="#med7a9d260d" x="1055.8875" y="478.00055" style="stroke: #000000"/>
      </g>
     </g>
    </g>
    <g id="ytick_8">
     <g id="line2d_115">
      <g>
       <use xlink:href="#m95ca628a53" x="51.4875" y="433.998625" style="stroke: #000000"/>
      </g>
     </g>
     <g id="line2d_116">
      <g>
       <use xlink:href="#med7a9d260d" x="1055.8875" y="433.998625" style="stroke: #000000"/>
      </g>
     </g>
    </g>
    <g id="ytick_9">
     <g id="line2d_117">
      <g>
       <use xlink:href="#m95ca628a53" x="51.4875" y="411.997663" style="stroke: #000000"/>
      </g>
     </g>
     <g id="line2d_118">
      <g>
       <use xlink:href="#med7a9d260d" x="1055.8875" y="411.997663" style="stroke: #000000"/>
      </g>
     </g>
    </g>
    <g id="ytick_10">
     <g id="line2d_119">
      <g>
       <use xlink:href="#m95ca628a53" x="51.4875" y="389.9967" style="stroke: #000000"/>
      </g>
     </g>
     <g id="line2d_120">
      <g>
       <use xlink:href="#med7a9d260d" x="1055.8875" y="389.9967" style="stroke: #000000"/>
      </g>
     </g>
    </g>
    <g id="ytick_11">
     <g id="line2d_121">
      <g>
       <use xlink:href="#m95ca628a53" x="51.4875" y="345.994775" style="stroke: #000000"/>
      </g>
     </g>
     <g id="line2d_122">
      <g>
       <use xlink:href="#med7a9d260d" x="1055.8875" y="345.994775" style="stroke: #000000"/>
      </g>
     </g>
    </g>
    <g id="ytick_12">
     <g id="line2d_123">
      <g>
       <use xlink:href="#m95ca628a53" x="51.4875" y="323.993813" style="stroke: #000000"/>
      </g>
     </g>
     <g id="line2d_124">
      <g>
       <use xlink:href="#med7a9d260d" x="1055.8875" y="323.993813" style="stroke: #000000"/>
      </g>
     </g>
    </g>
    <g id="ytick_13">
     <g id="line2d_125">
      <g>
       <use xlink:href="#m95ca628a53" x="51.4875" y="301.99285" style="stroke: #000000"/>
      </g>
     </g>
     <g id="line2d_126">
      <g>
       <use xlink:href="#med7a9d260d" x="1055.8875" y="301.99285" style="stroke: #000000"/>
      </g>
     </g>
    </g>
    <g id="ytick_14">
     <g id="line2d_127">
      <g>
       <use xlink:href="#m95ca628a53" x="51.4875" y="257.990925" style="stroke: #000000"/>
      </g>
     </g>
     <g id="line2d_128">
      <g>
       <use xlink:href="#med7a9d260d" x="1055.8875" y="257.990925" style="stroke: #000000"/>
      </g>
     </g>
    </g>
    <g id="ytick_15">
     <g id="line2d_129">
      <g>
       <use xlink:href="#m95ca628a53" x="51.4875" y="235.989962" style="stroke: #000000"/>
      </g>
     </g>
     <g id="line2d_130">
      <g>
       <use xlink:href="#med7a9d260d" x="1055.8875" y="235.989962" style="stroke: #000000"/>
      </g>
     </g>
    </g>
    <g id="ytick_16">
     <g id="line2d_131">
      <g>
       <use xlink:href="#m95ca628a53" x="51.4875" y="213.989" style="stroke: #000000"/>
      </g>
     </g>
     <g id="line2d_132">
      <g>
       <use xlink:href="#med7a9d260d" x="1055.8875" y="213.989" style="stroke: #000000"/>
      </g>
     </g>
    </g>
    <g id="ytick_17">
     <g id="line2d_133">
      <g>
       <use xlink:href="#m95ca628a53" x="51.4875" y="169.987075" style="stroke: #000000"/>
      </g>
     </g>
     <g id="line2d_134">
      <g>
       <use xlink:href="#med7a9d260d" x="1055.8875" y="169.987075" style="stroke: #000000"/>
      </g>
     </g>
    </g>
    <g id="ytick_18">
     <g id="line2d_135">
      <g>
       <use xlink:href="#m95ca628a53" x="51.4875" y="147.986112" style="stroke: #000000"/>
      </g>
     </g>
     <g id="line2d_136">
      <g>
       <use xlink:href="#med7a9d260d" x="1055.8875" y="147.986112" style="stroke: #000000"/>
      </g>
     </g>
    </g>
    <g id="ytick_19">
     <g id="line2d_137">
      <g>
       <use xlink:href="#m95ca628a53" x="51.4875" y="125.98515" style="stroke: #000000"/>
      </g>
     </g>
     <g id="line2d_138">
      <g>
       <use xlink:href="#med7a9d260d" x="1055.8875" y="125.98515" style="stroke: #000000"/>
      </g>
     </g>
    </g>
    <g id="ytick_20">
     <g id="line2d_139">
      <g>
       <use xlink:href="#m95ca628a53" x="51.4875" y="81.983225" style="stroke: #000000"/>
      </g>
     </g>
     <g id="line2d_140">
      <g>
       <use xlink:href="#med7a9d260d" x="1055.8875" y="81.983225" style="stroke: #000000"/>
      </g>
     </g>
    </g>
    <g id="ytick_21">
     <g id="line2d_141">
      <g>
       <use xlink:href="#m95ca628a53" x="51.4875" y="59.982262" style="stroke: #000000"/>
      </g>
     </g>
     <g id="line2d_142">
      <g>
       <use xlink:href="#med7a9d260d" x="1055.8875" y="59.982262" style="stroke: #000000"/>
      </g>
     </g>
    </g>
    <g id="ytick_22">
     <g id="line2d_143">
      <g>
       <use xlink:href="#m95ca628a53" x="51.4875" y="37.9813" style="stroke: #000000"/>
      </g>
     </g>
     <g id="line2d_144">
      <g>
       <use xlink:href="#med7a9d260d" x="1055.8875" y="37.9813" style="stroke: #000000"/>
      </g>
     </g>
    </g>
    <g id="text_16">
     <!-- Absolute Roof Acceleration (m/s$^2$) -->
     <g transform="translate(17.0725 406.6775) rotate(-90) scale(0.16 -0.16)">
      <defs>
       <path id="DejaVuSans-41" d="M 2188 4044 
L 1331 1722 
L 3047 1722 
L 2188 4044 
z
M 1831 4666 
L 2547 4666 
L 4325 0 
L 3669 0 
L 3244 1197 
L 1141 1197 
L 716 0 
L 50 0 
L 1831 4666 
z
" transform="scale(0.015625)"/>
       <path id="DejaVuSans-62" d="M 3116 1747 
Q 3116 2381 2855 2742 
Q 2594 3103 2138 3103 
Q 1681 3103 1420 2742 
Q 1159 2381 1159 1747 
Q 1159 1113 1420 752 
Q 1681 391 2138 391 
Q 2594 391 2855 752 
Q 3116 1113 3116 1747 
z
M 1159 2969 
Q 1341 3281 1617 3432 
Q 1894 3584 2278 3584 
Q 2916 3584 3314 3078 
Q 3713 2572 3713 1747 
Q 3713 922 3314 415 
Q 2916 -91 2278 -91 
Q 1894 -91 1617 61 
Q 1341 213 1159 525 
L 1159 0 
L 581 0 
L 581 4863 
L 1159 4863 
L 1159 2969 
z
" transform="scale(0.015625)"/>
       <path id="DejaVuSans-6f" d="M 1959 3097 
Q 1497 3097 1228 2736 
Q 959 2375 959 1747 
Q 959 1119 1226 758 
Q 1494 397 1959 397 
Q 2419 397 2687 759 
Q 2956 1122 2956 1747 
Q 2956 2369 2687 2733 
Q 2419 3097 1959 3097 
z
M 1959 3584 
Q 2709 3584 3137 3096 
Q 3566 2609 3566 1747 
Q 3566 888 3137 398 
Q 2709 -91 1959 -91 
Q 1206 -91 779 398 
Q 353 888 353 1747 
Q 353 2609 779 3096 
Q 1206 3584 1959 3584 
z
" transform="scale(0.015625)"/>
       <path id="DejaVuSans-6c" d="M 603 4863 
L 1178 4863 
L 1178 0 
L 603 0 
L 603 4863 
z
" transform="scale(0.015625)"/>
       <path id="DejaVuSans-75" d="M 544 1381 
L 544 3500 
L 1119 3500 
L 1119 1403 
Q 1119 906 1312 657 
Q 1506 409 1894 409 
Q 2359 409 2629 706 
Q 2900 1003 2900 1516 
L 2900 3500 
L 3475 3500 
L 3475 0 
L 2900 0 
L 2900 538 
Q 2691 219 2414 64 
Q 2138 -91 1772 -91 
Q 1169 -91 856 284 
Q 544 659 544 1381 
z
M 1991 3584 
L 1991 3584 
z
" transform="scale(0.015625)"/>
       <path id="DejaVuSans-74" d="M 1172 4494 
L 1172 3500 
L 2356 3500 
L 2356 3053 
L 1172 3053 
L 1172 1153 
Q 1172 725 1289 603 
Q 1406 481 1766 481 
L 2356 481 
L 2356 0 
L 1766 0 
Q 1100 0 847 248 
Q 594 497 594 1153 
L 594 3053 
L 172 3053 
L 172 3500 
L 594 3500 
L 594 4494 
L 1172 4494 
z
" transform="scale(0.015625)"/>
       <path id="DejaVuSans-20" transform="scale(0.015625)"/>
       <path id="DejaVuSans-52" d="M 2841 2188 
Q 3044 2119 3236 1894 
Q 3428 1669 3622 1275 
L 4263 0 
L 3584 0 
L 2988 1197 
Q 2756 1666 2539 1819 
Q 2322 1972 1947 1972 
L 1259 1972 
L 1259 0 
L 628 0 
L 628 4666 
L 2053 4666 
Q 2853 4666 3247 4331 
Q 3641 3997 3641 3322 
Q 3641 2881 3436 2590 
Q 3231 2300 2841 2188 
z
M 1259 4147 
L 1259 2491 
L 2053 2491 
Q 2509 2491 2742 2702 
Q 2975 2913 2975 3322 
Q 2975 3731 2742 3939 
Q 2509 4147 2053 4147 
L 1259 4147 
z
" transform="scale(0.015625)"/>
       <path id="DejaVuSans-66" d="M 2375 4863 
L 2375 4384 
L 1825 4384 
Q 1516 4384 1395 4259 
Q 1275 4134 1275 3809 
L 1275 3500 
L 2222 3500 
L 2222 3053 
L 1275 3053 
L 1275 0 
L 697 0 
L 697 3053 
L 147 3053 
L 147 3500 
L 697 3500 
L 697 3744 
Q 697 4328 969 4595 
Q 1241 4863 1831 4863 
L 2375 4863 
z
" transform="scale(0.015625)"/>
       <path id="DejaVuSans-63" d="M 3122 3366 
L 3122 2828 
Q 2878 2963 2633 3030 
Q 2388 3097 2138 3097 
Q 1578 3097 1268 2742 
Q 959 2388 959 1747 
Q 959 1106 1268 751 
Q 1578 397 2138 397 
Q 2388 397 2633 464 
Q 2878 531 3122 666 
L 3122 134 
Q 2881 22 2623 -34 
Q 2366 -91 2075 -91 
Q 1284 -91 818 406 
Q 353 903 353 1747 
Q 353 2603 823 3093 
Q 1294 3584 2113 3584 
Q 2378 3584 2631 3529 
Q 2884 3475 3122 3366 
z
" transform="scale(0.015625)"/>
       <path id="DejaVuSans-72" d="M 2631 2963 
Q 2534 3019 2420 3045 
Q 2306 3072 2169 3072 
Q 1681 3072 1420 2755 
Q 1159 2438 1159 1844 
L 1159 0 
L 581 0 
L 581 3500 
L 1159 3500 
L 1159 2956 
Q 1341 3275 1631 3429 
Q 1922 3584 2338 3584 
Q 2397 3584 2469 3576 
Q 2541 3569 2628 3553 
L 2631 2963 
z
" transform="scale(0.015625)"/>
       <path id="DejaVuSans-61" d="M 2194 1759 
Q 1497 1759 1228 1600 
Q 959 1441 959 1056 
Q 959 750 1161 570 
Q 1363 391 1709 391 
Q 2188 391 2477 730 
Q 2766 1069 2766 1631 
L 2766 1759 
L 2194 1759 
z
M 3341 1997 
L 3341 0 
L 2766 0 
L 2766 531 
Q 2569 213 2275 61 
Q 1981 -91 1556 -91 
Q 1019 -91 701 211 
Q 384 513 384 1019 
Q 384 1609 779 1909 
Q 1175 2209 1959 2209 
L 2766 2209 
L 2766 2266 
Q 2766 2663 2505 2880 
Q 2244 3097 1772 3097 
Q 1472 3097 1187 3025 
Q 903 2953 641 2809 
L 641 3341 
Q 956 3463 1253 3523 
Q 1550 3584 1831 3584 
Q 2591 3584 2966 3190 
Q 3341 2797 3341 1997 
z
" transform="scale(0.015625)"/>
       <path id="DejaVuSans-6e" d="M 3513 2113 
L 3513 0 
L 2938 0 
L 2938 2094 
Q 2938 2591 2744 2837 
Q 2550 3084 2163 3084 
Q 1697 3084 1428 2787 
Q 1159 2491 1159 1978 
L 1159 0 
L 581 0 
L 581 3500 
L 1159 3500 
L 1159 2956 
Q 1366 3272 1645 3428 
Q 1925 3584 2291 3584 
Q 2894 3584 3203 3211 
Q 3513 2838 3513 2113 
z
" transform="scale(0.015625)"/>
       <path id="DejaVuSans-2f" d="M 1625 4666 
L 2156 4666 
L 531 -594 
L 0 -594 
L 1625 4666 
z
" transform="scale(0.015625)"/>
      </defs>
      <use xlink:href="#DejaVuSans-41" transform="translate(0 0.765625)"/>
      <use xlink:href="#DejaVuSans-62" transform="translate(68.408203 0.765625)"/>
      <use xlink:href="#DejaVuSans-73" transform="translate(131.884766 0.765625)"/>
      <use xlink:href="#DejaVuSans-6f" transform="translate(183.984375 0.765625)"/>
      <use xlink:href="#DejaVuSans-6c" transform="translate(245.166016 0.765625)"/>
      <use xlink:href="#DejaVuSans-75" transform="translate(272.949219 0.765625)"/>
      <use xlink:href="#DejaVuSans-74" transform="translate(336.328125 0.765625)"/>
      <use xlink:href="#DejaVuSans-65" transform="translate(375.537109 0.765625)"/>
      <use xlink:href="#DejaVuSans-20" transform="translate(437.060547 0.765625)"/>
      <use xlink:href="#DejaVuSans-52" transform="translate(468.847656 0.765625)"/>
      <use xlink:href="#DejaVuSans-6f" transform="translate(538.330078 0.765625)"/>
      <use xlink:href="#DejaVuSans-6f" transform="translate(599.511719 0.765625)"/>
      <use xlink:href="#DejaVuSans-66" transform="translate(660.693359 0.765625)"/>
      <use xlink:href="#DejaVuSans-20" transform="translate(695.898438 0.765625)"/>
      <use xlink:href="#DejaVuSans-41" transform="translate(727.685547 0.765625)"/>
      <use xlink:href="#DejaVuSans-63" transform="translate(796.09375 0.765625)"/>
      <use xlink:href="#DejaVuSans-63" transform="translate(851.074219 0.765625)"/>
      <use xlink:href="#DejaVuSans-65" transform="translate(906.054688 0.765625)"/>
      <use xlink:href="#DejaVuSans-6c" transform="translate(967.578125 0.765625)"/>
      <use xlink:href="#DejaVuSans-65" transform="translate(995.361328 0.765625)"/>
      <use xlink:href="#DejaVuSans-72" transform="translate(1056.884766 0.765625)"/>
      <use xlink:href="#DejaVuSans-61" transform="translate(1097.998047 0.765625)"/>
      <use xlink:href="#DejaVuSans-74" transform="translate(1159.277344 0.765625)"/>
      <use xlink:href="#DejaVuSans-69" transform="translate(1198.486328 0.765625)"/>
      <use xlink:href="#DejaVuSans-6f" transform="translate(1226.269531 0.765625)"/>
      <use xlink:href="#DejaVuSans-6e" transform="translate(1287.451172 0.765625)"/>
      <use xlink:href="#DejaVuSans-20" transform="translate(1350.830078 0.765625)"/>
      <use xlink:href="#DejaVuSans-28" transform="translate(1382.617188 0.765625)"/>
      <use xlink:href="#DejaVuSans-6d" transform="translate(1421.630859 0.765625)"/>
      <use xlink:href="#DejaVuSans-2f" transform="translate(1519.042969 0.765625)"/>
      <use xlink:href="#DejaVuSans-73" transform="translate(1552.734375 0.765625)"/>
      <use xlink:href="#DejaVuSans-32" transform="translate(1605.791016 39.046875) scale(0.7)"/>
      <use xlink:href="#DejaVuSans-29" transform="translate(1653.061523 0.765625)"/>
     </g>
    </g>
   </g>
   <g id="line2d_145">
    <path d="M 97.142045 279.991887 
L 97.598819 278.294254 
L 98.055593 277.503702 
L 98.512367 281.406334 
L 98.969141 286.508606 
L 99.425915 288.88531 
L 99.882689 288.153095 
L 100.339462 285.267517 
L 101.709784 274.004606 
L 102.166558 264.919695 
L 102.623332 259.927533 
L 103.080105 271.190924 
L 103.536879 288.986781 
L 103.993653 280.148035 
L 104.450427 250.26848 
L 104.907201 254.170227 
L 105.820748 368.56755 
L 106.277522 362.314535 
L 106.734296 304.471043 
L 107.19107 232.399341 
L 107.647844 200.179319 
L 108.104618 229.086342 
L 108.561391 273.111323 
L 109.018165 272.340323 
L 109.474939 237.242059 
L 109.931713 218.707666 
L 110.388487 253.922239 
L 111.302035 384.039922 
L 111.758808 361.617281 
L 112.215582 312.665981 
L 112.672356 324.552131 
L 113.585904 200.004039 
L 114.042678 216.044717 
L 114.499451 284.736192 
L 114.956225 303.248853 
L 115.412999 246.140345 
L 115.869773 209.327916 
L 116.326547 259.7997 
L 116.783321 326.786739 
L 117.240094 315.064201 
L 117.696868 270.545703 
L 118.153642 284.642519 
L 118.610416 356.130639 
L 119.06719 380.100739 
L 119.523964 308.170327 
L 119.980738 211.316883 
L 120.437511 183.591192 
L 121.351059 271.390143 
L 121.807833 281.488546 
L 122.264607 279.876098 
L 122.721381 286.281805 
L 123.178154 296.538393 
L 123.634928 313.921152 
L 124.091702 341.373944 
L 124.548476 332.907857 
L 125.462024 177.947749 
L 125.918797 201.49676 
L 126.375571 322.466856 
L 126.832345 382.630724 
L 127.289119 296.933699 
L 127.745893 179.390193 
L 128.202667 187.651245 
L 128.659441 317.002305 
L 129.116214 410.05618 
L 129.572988 360.877992 
L 130.029762 231.962702 
L 130.486536 156.82882 
L 130.94331 241.854058 
L 131.400084 386.309905 
L 131.856857 396.314516 
L 132.770405 128.365596 
L 133.227179 193.984927 
L 133.683953 301.253013 
L 134.140727 328.035914 
L 134.5975 295.577486 
L 135.054274 306.36055 
L 135.511048 358.966569 
L 135.967822 344.714947 
L 136.424596 234.450949 
L 136.88137 166.245579 
L 137.338144 241.846567 
L 137.794917 357.15372 
L 138.251691 350.822807 
L 138.708465 226.974002 
L 139.165239 147.502448 
L 139.622013 214.062558 
L 140.078787 345.165537 
L 140.53556 397.372745 
L 140.992334 331.686355 
L 141.449108 246.458539 
L 141.905882 233.645944 
L 142.81943 327.132701 
L 143.276203 301.115248 
L 143.732977 232.301754 
L 144.189751 204.194148 
L 144.646525 273.203039 
L 145.103299 371.088839 
L 145.560073 358.800229 
L 146.016846 239.551741 
L 146.47362 161.908378 
L 146.930394 204.741405 
L 147.387168 286.81651 
L 147.843942 319.241949 
L 148.300716 285.937755 
L 148.75749 268.869742 
L 149.671037 390.498175 
L 150.127811 358.337399 
L 151.041359 199.83025 
L 151.498133 177.939914 
L 151.954906 229.311514 
L 152.41168 258.480321 
L 152.868454 263.317907 
L 153.325228 272.434246 
L 153.782002 296.513488 
L 154.695549 355.609331 
L 155.152323 355.015674 
L 155.609097 322.918006 
L 156.065871 241.052339 
L 156.522645 183.438797 
L 156.979419 205.746432 
L 157.436193 255.490824 
L 157.892966 267.135808 
L 158.34974 263.060402 
L 158.806514 301.589166 
L 159.263288 352.130667 
L 159.720062 324.507327 
L 160.176836 242.730067 
L 160.633609 230.901378 
L 161.090383 318.013414 
L 161.547157 381.958596 
L 162.003931 317.429457 
L 162.460705 196.305588 
L 162.917479 169.760578 
L 163.831026 368.842903 
L 164.2878 375.3677 
L 164.744574 287.994952 
L 165.201348 222.263154 
L 165.658122 238.597442 
L 166.114896 277.59639 
L 166.571669 267.215703 
L 167.028443 235.399574 
L 167.485217 254.172862 
L 167.941991 312.688663 
L 168.398765 328.225238 
L 169.312312 234.691535 
L 169.769086 275.08494 
L 170.22586 342.057245 
L 170.682634 324.248544 
L 171.139408 220.317151 
L 171.596182 158.368331 
L 172.052955 214.540497 
L 172.509729 318.998518 
L 172.966503 376.390704 
L 173.423277 333.212795 
L 173.880051 242.29407 
L 174.336825 195.231188 
L 174.793599 221.484312 
L 175.250372 273.814982 
L 175.707146 294.780283 
L 176.16392 281.666664 
L 176.620694 282.540678 
L 177.534242 370.610484 
L 177.991015 359.710042 
L 178.447789 323.172927 
L 178.904563 301.801139 
L 179.361337 274.2591 
L 179.818111 270.323118 
L 180.731658 232.628285 
L 181.188432 274.892402 
L 181.645206 342.740417 
L 182.10198 353.825332 
L 183.015528 289.123386 
L 183.472301 301.268735 
L 183.929075 365.825225 
L 184.385849 379.662423 
L 184.842623 327.98533 
L 185.299397 315.874972 
L 185.756171 357.902258 
L 186.212945 368.575596 
L 186.669718 334.459258 
L 187.126492 324.987895 
L 187.583266 351.205135 
L 188.496814 105.263375 
L 189.410361 304.886249 
L 190.323909 142.185059 
L 191.237457 274.770902 
L 192.151004 166.78235 
L 193.064552 254.706443 
L 193.9781 183.162206 
L 194.434874 209.048708 
L 194.891648 247.934354 
L 195.348421 380.348363 
L 195.805195 423.756989 
L 196.261969 316.84816 
L 196.718743 279.655211 
L 197.175517 366.331481 
L 197.632291 398.185469 
L 198.089064 327.932924 
L 198.545838 300.736244 
L 199.002612 357.634396 
L 199.459386 380.786987 
L 199.91616 334.84113 
L 200.372934 315.028594 
L 200.829707 352.252614 
L 201.286481 369.15114 
L 201.743255 322.68536 
L 202.200029 145.878953 
L 202.656803 126.832606 
L 203.113577 270.424697 
L 203.570351 288.484498 
L 204.027124 171.382361 
L 204.483898 154.686782 
L 204.940672 250.014222 
L 205.397446 265.301398 
L 205.85422 187.683671 
L 206.310994 173.913016 
L 207.224541 481.368791 
L 208.138089 233.21928 
L 209.051637 435.444966 
L 209.50841 355.567043 
L 209.965184 168.706856 
L 210.421958 101.087952 
L 210.878732 251.503415 
L 211.335506 309.068973 
L 211.79228 187.260007 
L 212.249054 138.24383 
L 212.705827 236.868137 
L 213.162601 278.434213 
L 213.619375 198.696518 
L 214.076149 163.294764 
L 214.532923 275.948112 
L 214.989697 468.709957 
L 215.44647 402.556882 
L 215.903244 244.466053 
L 216.360018 295.68398 
L 216.816792 425.623496 
L 217.273566 261.462692 
L 217.73034 44.4375 
L 218.187113 174.808377 
L 218.643887 353.940458 
L 219.100661 250.626282 
L 219.557435 102.684213 
L 220.014209 217.014697 
L 220.470983 498.0375 
L 220.927756 450.779228 
L 221.38453 195.005962 
L 221.841304 66.370737 
L 222.298078 229.702684 
L 222.754852 337.082624 
L 223.211626 205.747333 
L 223.6684 146.306329 
L 224.125173 350.775084 
L 224.581947 494.628059 
L 225.495495 222.265031 
L 226.409043 444.519967 
L 227.32259 263.240722 
L 227.779364 328.159454 
L 228.236138 326.675647 
L 228.692912 268.204745 
L 229.149686 258.500004 
L 229.606459 279.681831 
L 230.063233 277.747157 
L 230.976781 207.828645 
L 231.433555 203.91397 
L 231.890329 232.352638 
L 232.347103 271.729825 
L 233.26065 378.5967 
L 233.717424 352.863529 
L 234.630972 225.400084 
L 235.087746 206.238208 
L 236.001293 235.875413 
L 236.458067 220.829076 
L 236.914841 200.308047 
L 237.371615 210.697035 
L 237.828389 227.468964 
L 238.285162 219.30356 
L 238.741936 205.399201 
L 239.19871 214.701164 
L 239.655484 351.695669 
L 240.112258 447.092194 
L 240.569032 340.494158 
L 241.025806 261.047453 
L 241.939353 413.048246 
L 242.852901 288.877239 
L 243.309675 232.014369 
L 243.766449 155.804756 
L 244.223222 200.791713 
L 244.679996 263.602012 
L 245.13677 228.009111 
L 245.593544 176.424673 
L 246.050318 256.204735 
L 246.507092 380.172202 
L 246.963865 360.280423 
L 247.420639 215.696725 
L 247.877413 142.203414 
L 248.334187 253.442949 
L 248.790961 425.014732 
L 249.247735 415.054702 
L 249.704509 280.09074 
L 250.161282 286.062535 
L 250.618056 396.314922 
L 251.07483 393.318286 
L 251.531604 303.319441 
L 251.988378 304.240364 
L 252.445152 377.473838 
L 252.901925 356.790666 
L 253.358699 211.523812 
L 253.815473 132.639075 
L 255.185795 371.095506 
L 255.642568 369.164741 
L 256.099342 323.215618 
L 256.556116 324.129373 
L 257.01289 361.822641 
L 257.469664 361.725704 
L 257.926438 330.969483 
L 258.383211 330.576836 
L 258.839985 355.624495 
L 259.296759 356.456001 
L 259.753533 335.921942 
L 260.210307 334.830268 
L 260.667081 323.611008 
L 261.123855 199.736035 
L 261.580628 135.111168 
L 262.037402 226.883427 
L 262.494176 280.952699 
L 262.95095 206.919226 
L 263.407724 161.488837 
L 263.864498 221.195679 
L 264.321271 259.349698 
L 264.778045 211.199595 
L 265.234819 179.05184 
L 265.691593 217.774797 
L 266.148367 244.82449 
L 266.605141 213.658627 
L 267.061914 191.056768 
L 267.518688 216.124736 
L 267.975462 235.008679 
L 268.432236 214.921925 
L 268.88901 201.825709 
L 269.802558 389.287195 
L 270.259331 352.224598 
L 270.716105 238.740291 
L 271.172879 176.582078 
L 271.629653 236.496929 
L 272.086427 323.022032 
L 272.543201 358.402941 
L 272.999974 350.342645 
L 273.456748 333.005965 
L 273.913522 339.769594 
L 274.370296 354.099553 
L 274.82707 348.961892 
L 275.283844 337.138834 
L 275.740617 340.935406 
L 276.197391 350.747999 
L 276.654165 326.656824 
L 277.110939 221.95302 
L 277.567713 204.958455 
L 278.024487 282.558793 
L 278.481261 323.6671 
L 279.394808 244.940683 
L 279.851582 257.98799 
L 280.308356 275.272189 
L 280.76513 256.820538 
L 281.221904 195.761816 
L 281.678677 182.502162 
L 282.135451 230.803936 
L 282.592225 243.890237 
L 283.048999 312.859421 
L 283.505773 415.709608 
L 283.962547 371.3453 
L 284.876094 172.816715 
L 285.332868 178.064767 
L 285.789642 249.98024 
L 286.246416 246.960432 
L 286.70319 189.18084 
L 287.159964 190.149705 
L 287.616737 254.362786 
L 288.073511 375.390889 
L 288.530285 413.276279 
L 288.987059 320.603755 
L 289.443833 288.252726 
L 289.900607 363.409747 
L 290.35738 391.10624 
L 290.814154 330.222835 
L 291.270928 306.521356 
L 291.727702 321.609269 
L 292.184476 177.227988 
L 292.64125 128.359816 
L 293.098023 245.008208 
L 293.554797 286.819456 
L 294.011571 192.524577 
L 294.468345 156.963935 
L 295.838666 380.800801 
L 296.29544 365.451974 
L 296.752214 315.257076 
L 297.208988 327.13288 
L 297.665762 368.329092 
L 298.122536 359.290225 
L 298.57931 279.258264 
L 299.036083 144.502749 
L 299.492857 164.696785 
L 299.949631 291.869847 
L 300.406405 378.827626 
L 300.863179 317.462201 
L 301.319953 225.110694 
L 301.776726 259.196838 
L 302.2335 353.21181 
L 302.690274 339.956588 
L 303.147048 217.04729 
L 303.603822 147.733298 
L 304.517369 275.234319 
L 304.974143 245.330853 
L 305.430917 179.362233 
L 305.887691 190.805611 
L 306.344465 244.32664 
L 306.801239 242.195387 
L 307.258013 291.773482 
L 307.714786 401.983276 
L 308.17156 388.237303 
L 308.628334 298.657271 
L 309.085108 308.180806 
L 309.541882 381.680941 
L 309.998656 375.011423 
L 310.455429 307.252949 
L 310.912203 187.121183 
L 311.368977 149.72327 
L 312.282525 331.910822 
L 312.739299 377.959755 
L 313.652846 316.340501 
L 314.10962 313.947878 
L 314.566394 267.728476 
L 315.023168 205.141068 
L 315.479942 197.040989 
L 316.393489 310.509493 
L 316.850263 300.720806 
L 317.307037 245.347025 
L 317.763811 227.705319 
L 318.220585 270.707786 
L 318.677359 301.77296 
L 319.134132 281.184797 
L 319.590906 248.056701 
L 320.04768 247.768609 
L 320.504454 274.299088 
L 320.961228 290.287939 
L 321.418002 293.873891 
L 321.874775 326.708102 
L 322.331549 374.12247 
L 322.788323 359.403817 
L 323.245097 320.868953 
L 323.701871 332.093019 
L 324.158645 363.897808 
L 324.615419 327.129578 
L 325.072192 159.904105 
L 325.528966 126.209764 
L 325.98574 259.189386 
L 326.442514 288.80464 
L 326.899288 180.871613 
L 327.356062 155.234414 
L 328.269609 458.688307 
L 328.726383 380.787874 
L 329.183157 251.227025 
L 329.639931 242.908693 
L 330.096705 295.745038 
L 330.553478 320.415517 
L 331.467026 243.327651 
L 331.9238 230.05393 
L 332.380574 228.462671 
L 332.837348 215.304735 
L 333.294121 217.448816 
L 333.750895 258.954533 
L 334.207669 313.768933 
L 334.664443 348.834249 
L 335.121217 354.336742 
L 335.577991 334.861592 
L 336.491538 222.783203 
L 336.948312 212.736612 
L 337.86186 277.888744 
L 338.775408 292.71692 
L 339.232181 306.982479 
L 340.145729 348.258472 
L 340.602503 349.192685 
L 341.059277 304.540757 
L 341.516051 233.807154 
L 341.972824 192.72401 
L 342.429598 207.430803 
L 343.79992 330.594478 
L 344.256694 347.65371 
L 344.713468 329.158825 
L 345.627015 210.97633 
L 346.083789 220.447477 
L 346.540563 289.681576 
L 346.997337 337.084404 
L 347.454111 322.691573 
L 347.910884 279.856883 
L 348.367658 265.597507 
L 348.824432 310.483799 
L 349.281206 368.899908 
L 349.73798 357.91537 
L 350.651527 184.592675 
L 351.108301 191.471543 
L 351.565075 246.035247 
L 352.021849 269.161132 
L 352.478623 250.604144 
L 352.935397 252.308533 
L 353.848944 376.506697 
L 354.305718 367.669982 
L 354.762492 318.166149 
L 355.219266 296.087717 
L 356.132814 243.856113 
L 356.589587 242.990742 
L 357.046361 248.604846 
L 357.503135 243.197349 
L 357.959909 235.04103 
L 358.416683 235.477083 
L 358.873457 253.251718 
L 359.33023 284.455341 
L 359.787004 304.689035 
L 360.243778 303.988843 
L 360.700552 301.034678 
L 361.157326 310.287022 
L 361.6141 325.370858 
L 362.070874 323.914185 
L 362.527647 295.326352 
L 362.984421 254.740189 
L 363.441195 228.273611 
L 363.897969 233.42476 
L 364.811517 281.733116 
L 365.26829 281.470737 
L 365.725064 270.179525 
L 366.181838 275.608447 
L 366.638612 301.862624 
L 367.095386 318.365405 
L 367.55216 311.934475 
L 368.922481 272.143634 
L 369.379255 262.719361 
L 369.836029 261.901003 
L 370.292803 262.393971 
L 371.20635 247.191667 
L 371.663124 250.207849 
L 372.119898 269.941883 
L 373.033446 327.551785 
L 373.49022 323.969248 
L 374.403767 248.14825 
L 374.860541 244.317637 
L 375.774089 314.432055 
L 376.230863 318.509145 
L 377.14441 259.103438 
L 377.601184 248.550996 
L 378.057958 264.993291 
L 378.514732 287.195666 
L 378.971506 294.454167 
L 379.428279 290.49465 
L 379.885053 288.701403 
L 380.341827 289.545422 
L 380.798601 287.809658 
L 381.255375 280.770688 
L 381.712149 270.258938 
L 382.168923 263.927863 
L 382.625696 265.28831 
L 383.08247 270.702378 
L 383.539244 271.122968 
L 383.996018 263.490746 
L 384.452792 258.803712 
L 384.909566 272.068544 
L 385.366339 293.024959 
L 385.823113 299.890457 
L 386.279887 294.269049 
L 386.736661 290.699099 
L 387.650209 298.939484 
L 388.106982 284.719935 
L 388.563756 258.595411 
L 389.02053 244.945834 
L 389.477304 258.11742 
L 389.934078 284.666345 
L 390.390852 297.480927 
L 390.847626 294.536548 
L 391.304399 294.526319 
L 391.761173 303.460899 
L 392.217947 300.859444 
L 393.131495 236.73183 
L 393.588269 238.573423 
L 394.045042 261.5265 
L 394.501816 274.280368 
L 395.415364 260.682068 
L 395.872138 278.912916 
L 396.328912 311.094536 
L 396.785685 324.219658 
L 397.242459 308.199001 
L 397.699233 287.880272 
L 398.156007 290.222469 
L 398.612781 305.075606 
L 399.069555 297.551312 
L 399.983102 229.774819 
L 400.439876 239.600348 
L 400.89665 274.628639 
L 401.353424 290.051054 
L 402.266972 257.795431 
L 402.723745 264.706723 
L 403.180519 288.799271 
L 403.637293 302.260551 
L 404.550841 282.250714 
L 405.007615 288.520597 
L 405.464388 301.977539 
L 405.921162 305.239472 
L 406.377936 286.577735 
L 406.83471 260.395494 
L 407.291484 257.619651 
L 407.748258 280.201961 
L 408.205031 294.800848 
L 408.661805 284.112226 
L 409.118579 265.389053 
L 409.575353 268.742481 
L 410.032127 294.461432 
L 410.488901 306.187224 
L 410.945675 284.364271 
L 411.402448 252.006352 
L 411.859222 246.961936 
L 412.77277 291.332314 
L 413.229544 284.714261 
L 413.686318 260.415981 
L 414.143091 246.831229 
L 414.599865 255.210752 
L 415.056639 272.197639 
L 415.513413 284.621272 
L 416.426961 293.953784 
L 416.883734 301.743568 
L 417.340508 304.063728 
L 417.797282 290.061743 
L 418.254056 264.03249 
L 418.71083 255.510033 
L 419.167604 280.638131 
L 419.624378 318.510072 
L 420.081151 334.101919 
L 420.537925 312.280584 
L 420.994699 268.958343 
L 421.451473 238.981517 
L 421.908247 247.20649 
L 422.365021 275.908902 
L 422.821794 284.453227 
L 423.278568 268.343432 
L 423.735342 263.869802 
L 424.64889 322.543476 
L 425.105664 317.231215 
L 425.562437 282.160318 
L 426.019211 263.77933 
L 426.475985 279.269243 
L 426.932759 300.095979 
L 427.389533 290.573841 
L 427.846307 257.685611 
L 428.303081 243.186326 
L 428.759854 265.505038 
L 429.216628 294.016476 
L 429.673402 292.925442 
L 430.130176 269.101904 
L 430.58695 257.116089 
L 431.043724 273.862917 
L 431.500497 298.970075 
L 431.957271 302.179948 
L 432.870819 269.028768 
L 433.327593 273.768354 
L 433.784367 289.517376 
L 434.24114 292.82011 
L 435.154688 267.661193 
L 435.611462 268.348068 
L 436.068236 272.917688 
L 436.52501 272.221802 
L 436.981784 265.455087 
L 437.438557 261.251042 
L 437.895331 272.049455 
L 438.352105 295.609094 
L 438.808879 311.706395 
L 439.265653 304.761912 
L 439.722427 284.986372 
L 440.1792 272.532293 
L 440.635974 272.974898 
L 441.092748 278.102262 
L 441.549522 275.752385 
L 442.006296 266.950382 
L 442.46307 263.854697 
L 442.919843 266.205045 
L 443.376617 266.864261 
L 443.833391 269.603218 
L 444.290165 285.634508 
L 444.746939 309.741784 
L 445.203713 317.600897 
L 445.660486 298.636169 
L 446.11726 270.175677 
L 446.574034 262.854566 
L 447.487582 302.038711 
L 447.944356 294.618843 
L 448.40113 272.143456 
L 448.857903 258.759011 
L 449.314677 262.71831 
L 449.771451 275.282966 
L 450.228225 284.013623 
L 450.684999 285.317436 
L 451.141773 282.540268 
L 451.598546 281.119642 
L 452.05532 285.582051 
L 452.512094 294.392048 
L 452.968868 300.820916 
L 453.425642 297.216501 
L 454.339189 265.684583 
L 454.795963 260.412348 
L 455.709511 269.515414 
L 456.166285 267.350723 
L 456.623059 268.541228 
L 457.079833 283.224392 
L 457.536606 302.413309 
L 457.99338 311.64314 
L 458.450154 305.533108 
L 458.906928 285.15159 
L 459.363702 258.589216 
L 459.820476 246.236027 
L 460.277249 256.662438 
L 460.734023 274.998334 
L 461.190797 286.524207 
L 461.647571 285.422263 
L 462.104345 277.890339 
L 462.561119 278.822166 
L 463.017892 295.369338 
L 463.474666 316.488374 
L 463.93144 320.085685 
L 464.388214 294.285442 
L 464.844988 258.72729 
L 465.301762 250.316579 
L 466.215309 298.230208 
L 466.672083 287.594075 
L 467.128857 256.347876 
L 467.585631 245.989374 
L 468.499179 306.163959 
L 468.955952 308.608125 
L 469.8695 264.764174 
L 470.326274 263.720045 
L 470.783048 274.143407 
L 471.239822 279.488488 
L 472.153369 269.711779 
L 472.610143 275.312478 
L 473.066917 282.719997 
L 473.523691 280.610637 
L 473.980465 269.91465 
L 474.437239 262.498905 
L 474.894012 265.070969 
L 475.80756 277.519908 
L 476.721108 287.96146 
L 477.177882 289.629979 
L 477.634655 289.502156 
L 478.091429 290.051169 
L 478.548203 292.992438 
L 479.004977 297.769424 
L 479.461751 300.206184 
L 479.918525 296.66586 
L 480.375298 289.386117 
L 482.202394 254.520632 
L 482.659168 256.395145 
L 483.115941 269.013467 
L 484.029489 305.965623 
L 484.486263 307.198132 
L 485.399811 274.740392 
L 485.856585 269.278288 
L 486.770132 280.691366 
L 487.226906 280.381573 
L 487.68368 280.564248 
L 488.140454 282.358658 
L 488.597228 280.022597 
L 489.054001 272.210383 
L 489.510775 270.69767 
L 490.424323 293.804227 
L 490.881097 291.086983 
L 491.794644 255.411583 
L 492.251418 256.857698 
L 493.164966 288.918964 
L 493.62174 293.205142 
L 494.078514 285.823997 
L 494.535288 275.220066 
L 494.992061 269.380174 
L 495.448835 269.034492 
L 495.905609 274.985204 
L 496.362383 284.820706 
L 496.819157 292.224382 
L 497.275931 293.301861 
L 497.732704 288.380188 
L 498.646252 261.965526 
L 499.103026 259.680112 
L 500.016574 286.83228 
L 500.473347 287.25605 
L 501.386895 257.788955 
L 501.843669 267.240453 
L 502.300443 290.811617 
L 502.757217 300.884982 
L 503.670764 271.178389 
L 504.127538 273.333375 
L 504.584312 289.599229 
L 505.041086 296.631954 
L 505.49786 281.284647 
L 505.954634 260.611539 
L 506.411407 260.574177 
L 506.868181 280.074019 
L 507.324955 293.85654 
L 507.781729 287.577025 
L 508.238503 272.595131 
L 508.695277 267.619811 
L 509.608824 283.280177 
L 510.065598 281.785105 
L 510.522372 275.724099 
L 510.979146 274.3995 
L 512.349467 288.951142 
L 512.806241 289.32676 
L 513.263015 289.229478 
L 513.719789 287.654601 
L 514.176563 283.328376 
L 514.633337 277.098637 
L 515.09011 273.257858 
L 515.546884 275.326984 
L 516.460432 290.52543 
L 516.917206 289.032264 
L 517.830753 272.771818 
L 518.287527 273.879746 
L 518.744301 281.481204 
L 519.201075 286.262642 
L 519.657849 282.756326 
L 520.114623 275.602208 
L 520.571396 272.846907 
L 521.02817 278.063082 
L 521.484944 287.927128 
L 521.941718 292.673528 
L 522.398492 287.075471 
L 522.855266 279.427919 
L 523.31204 277.854113 
L 523.768813 280.90912 
L 524.225587 281.382189 
L 524.682361 275.536053 
L 525.139135 271.45052 
L 525.595909 277.477364 
L 526.052683 286.803791 
L 526.509456 288.509768 
L 527.423004 276.320002 
L 527.879778 275.838133 
L 528.336552 278.019311 
L 528.793326 277.432004 
L 529.706873 268.498447 
L 530.163647 268.936934 
L 530.620421 275.793124 
L 531.533969 298.320393 
L 531.990743 295.85212 
L 532.90429 263.849077 
L 533.361064 260.49248 
L 533.817838 277.256472 
L 534.274612 299.373793 
L 534.731386 304.808425 
L 535.188159 288.543712 
L 535.644933 265.065757 
L 536.101707 257.645932 
L 537.015255 290.538551 
L 537.472029 290.522963 
L 537.928802 277.952068 
L 538.385576 269.834894 
L 538.84235 273.775473 
L 539.299124 282.25087 
L 539.755898 285.59324 
L 540.669446 279.597791 
L 541.126219 282.234721 
L 541.582993 286.4844 
L 542.039767 286.966466 
L 542.496541 287.282182 
L 543.410089 295.512267 
L 543.866862 293.782178 
L 544.323636 280.588535 
L 544.78041 263.539384 
L 545.237184 259.772324 
L 546.150732 278.479917 
L 546.607505 278.188685 
L 547.064279 276.960764 
L 547.521053 281.13896 
L 547.977827 287.821941 
L 548.434601 287.922497 
L 548.891375 278.81877 
L 549.348149 273.240745 
L 549.804922 280.954703 
L 550.261696 292.159497 
L 550.71847 292.135361 
L 551.632018 272.609883 
L 552.088792 272.256201 
L 552.545565 277.55366 
L 553.002339 280.349803 
L 553.915887 273.540019 
L 554.372661 276.133987 
L 554.829435 282.369575 
L 555.286208 284.31011 
L 555.742982 279.004992 
L 556.199756 272.144907 
L 556.65653 273.443741 
L 557.570078 291.16314 
L 558.026851 288.889732 
L 558.483625 278.673212 
L 558.940399 271.527365 
L 559.397173 273.907478 
L 559.853947 281.481323 
L 560.310721 283.730973 
L 560.767495 274.911177 
L 561.224268 263.338364 
L 561.681042 263.107316 
L 562.59459 291.996431 
L 563.051364 296.991691 
L 563.964911 280.874676 
L 564.421685 277.930943 
L 564.878459 279.103608 
L 565.335233 278.955503 
L 565.792007 276.506248 
L 566.248781 275.722671 
L 567.162328 282.356515 
L 567.619102 279.222924 
L 568.075876 273.628403 
L 568.53265 273.487601 
L 569.446198 285.594418 
L 569.902971 284.52215 
L 570.359745 280.53017 
L 570.816519 280.102358 
L 571.273293 281.333418 
L 571.730067 280.310392 
L 572.643614 273.488468 
L 573.100388 275.548517 
L 573.557162 280.594705 
L 574.013936 282.07879 
L 574.47071 277.555834 
L 574.927484 271.504799 
L 575.384257 270.039766 
L 575.841031 274.319374 
L 576.297805 280.907405 
L 576.754579 284.405247 
L 577.211353 281.327806 
L 577.668127 274.259074 
L 578.124901 271.411645 
L 578.581674 278.003584 
L 579.038448 289.898062 
L 579.495222 295.590365 
L 579.951996 289.219156 
L 580.40877 278.240358 
L 580.865544 272.113987 
L 581.322317 273.360101 
L 581.779091 276.406641 
L 582.235865 274.774123 
L 582.692639 270.409129 
L 583.149413 271.33419 
L 584.06296 290.218515 
L 584.519734 291.916344 
L 584.976508 285.929218 
L 585.433282 281.965084 
L 585.890056 287.248546 
L 586.34683 295.681274 
L 586.803604 297.943365 
L 587.260377 290.668719 
L 588.173925 263.966684 
L 588.630699 262.920072 
L 590.457794 289.26003 
L 590.914568 289.656476 
L 591.371342 286.154258 
L 591.828116 284.887422 
L 592.741663 291.561985 
L 593.198437 288.869543 
L 594.111985 267.633707 
L 594.568759 270.774563 
L 595.025533 281.844385 
L 595.482306 286.894951 
L 596.395854 275.126783 
L 596.852628 278.008217 
L 597.309402 283.591529 
L 597.766176 283.174654 
L 598.22295 279.188849 
L 598.679723 279.53564 
L 599.136497 284.435324 
L 599.593271 284.702066 
L 600.506819 265.205729 
L 600.963593 265.276416 
L 601.87714 285.733319 
L 602.333914 287.301668 
L 602.790688 283.474099 
L 603.247462 281.519057 
L 604.161009 284.245109 
L 604.617783 281.03055 
L 605.074557 274.13158 
L 605.531331 270.700971 
L 605.988105 275.518856 
L 606.444879 284.478486 
L 606.901653 287.597199 
L 607.8152 276.07453 
L 608.271974 277.327305 
L 608.728748 283.585412 
L 609.185522 287.318807 
L 609.642296 284.315551 
L 610.099069 278.954514 
L 610.555843 276.722376 
L 611.012617 276.152363 
L 611.926165 271.61686 
L 612.382939 273.976069 
L 612.839712 280.311208 
L 613.296486 283.829479 
L 613.75326 279.677006 
L 614.210034 273.322187 
L 614.666808 273.397099 
L 615.580356 286.568094 
L 616.037129 286.504285 
L 616.950677 281.276065 
L 617.407451 279.95423 
L 617.864225 280.172579 
L 618.320999 281.65948 
L 618.777772 284.381729 
L 619.234546 284.899958 
L 620.148094 277.618643 
L 620.604868 278.202995 
L 621.061642 280.933722 
L 621.518415 282.27539 
L 621.975189 281.983782 
L 622.431963 282.320163 
L 622.888737 283.946833 
L 623.345511 284.318034 
L 623.802285 282.690617 
L 624.259059 279.276091 
L 624.715832 274.783808 
L 625.172606 272.08346 
L 625.62938 272.63276 
L 626.542928 280.166012 
L 626.999702 279.505664 
L 627.456475 275.334537 
L 627.913249 272.551102 
L 628.370023 275.386287 
L 628.826797 281.797697 
L 629.283571 285.319384 
L 629.740345 283.213798 
L 630.197118 279.754963 
L 630.653892 278.982236 
L 631.56744 282.17671 
L 632.024214 282.48418 
L 632.480988 281.331904 
L 632.937761 276.99242 
L 633.394535 271.585715 
L 633.851309 270.592735 
L 634.308083 274.875568 
L 634.764857 280.319251 
L 635.221631 281.994477 
L 635.678405 281.068255 
L 636.135178 282.798644 
L 636.591952 286.772641 
L 637.048726 288.819614 
L 637.5055 287.17891 
L 638.419048 280.867576 
L 638.875821 279.503169 
L 639.332595 279.23254 
L 639.789369 278.570486 
L 640.246143 278.310458 
L 640.702917 279.997423 
L 641.159691 280.817924 
L 642.073238 276.739556 
L 642.530012 277.67969 
L 642.986786 282.094983 
L 643.900334 295.718954 
L 644.357108 294.486258 
L 644.813881 277.208467 
L 645.270655 249.341381 
L 645.727429 235.830618 
L 646.184203 249.712396 
L 646.640977 273.790996 
L 647.097751 286.765244 
L 647.554524 286.660057 
L 648.011298 286.017837 
L 648.468072 293.455341 
L 648.924846 303.272902 
L 649.38162 306.9232 
L 649.838394 304.593543 
L 650.295167 295.524171 
L 650.751941 271.103137 
L 651.208715 240.018106 
L 651.665489 236.68441 
L 652.579037 294.918278 
L 653.035811 297.561491 
L 653.949358 260.960426 
L 654.406132 267.156231 
L 654.862906 289.184754 
L 655.31968 305.758437 
L 655.776454 304.275147 
L 656.690001 281.404825 
L 657.146775 274.342717 
L 657.603549 269.543886 
L 658.060323 267.099233 
L 658.517097 268.207511 
L 658.97387 273.212348 
L 660.344192 294.902951 
L 660.800966 298.692339 
L 661.25774 290.305794 
L 661.714514 274.837766 
L 662.171287 268.690771 
L 663.084835 283.38286 
L 663.541609 279.446266 
L 663.998383 271.516173 
L 664.455157 272.502438 
L 665.368704 293.052323 
L 665.825478 291.111617 
L 666.739026 271.222229 
L 667.1958 271.152414 
L 667.652573 276.287911 
L 668.109347 278.349978 
L 669.022895 271.003349 
L 669.479669 273.804951 
L 670.393216 289.80867 
L 670.84999 289.158783 
L 671.306764 282.767381 
L 671.763538 278.514178 
L 672.220312 279.583738 
L 672.677086 281.5539 
L 673.13386 281.119303 
L 673.590633 279.725048 
L 674.047407 280.231863 
L 674.960955 286.832901 
L 675.417729 284.046031 
L 675.874503 276.277484 
L 676.331276 271.006026 
L 676.78805 273.145709 
L 677.244824 278.653341 
L 677.701598 281.529152 
L 678.158372 283.098617 
L 678.615146 285.970998 
L 679.071919 287.815194 
L 679.528693 284.653259 
L 679.985467 277.445195 
L 680.442241 272.324833 
L 680.899015 274.26192 
L 681.355789 280.366464 
L 681.812563 284.938912 
L 682.269336 284.663636 
L 683.182884 276.117487 
L 683.639658 276.863991 
L 684.553206 287.127143 
L 685.009979 287.115878 
L 685.923527 274.342615 
L 686.380301 272.390871 
L 686.837075 276.563457 
L 687.293849 279.655492 
L 688.207396 276.092984 
L 688.66417 279.698613 
L 689.120944 286.128017 
L 689.577718 287.903499 
L 690.491266 277.016006 
L 690.948039 275.699844 
L 691.861587 280.689027 
L 692.318361 281.136697 
L 692.775135 280.792523 
L 693.231909 281.426614 
L 694.145456 287.356564 
L 694.60223 287.928551 
L 695.059004 284.265611 
L 695.515778 277.488274 
L 695.972552 272.490817 
L 696.429325 273.164643 
L 696.886099 277.872903 
L 697.342873 280.436077 
L 697.799647 278.513537 
L 698.256421 277.153985 
L 698.713195 279.493053 
L 699.169969 283.288045 
L 699.626742 284.043872 
L 700.083516 281.471084 
L 700.54029 280.687214 
L 700.997064 282.545079 
L 701.453838 282.497928 
L 702.367385 273.565623 
L 702.824159 273.944846 
L 703.280933 278.17301 
L 703.737707 280.729907 
L 704.194481 279.151349 
L 704.651255 276.53878 
L 705.108028 276.574969 
L 705.564802 278.725426 
L 706.021576 280.024276 
L 706.47835 279.562477 
L 706.935124 279.457161 
L 707.391898 281.923288 
L 707.848671 285.870144 
L 708.305445 286.612799 
L 709.218993 278.336318 
L 709.675767 276.531978 
L 710.132541 277.76968 
L 710.589315 279.647847 
L 711.502862 282.155003 
L 711.959636 282.605448 
L 712.41641 280.954789 
L 712.873184 277.933614 
L 713.329958 277.656176 
L 713.786731 281.313743 
L 714.243505 286.04111 
L 714.700279 286.414172 
L 715.157053 282.035055 
L 715.613827 278.852255 
L 716.070601 280.296873 
L 716.527374 283.474287 
L 716.984148 283.567055 
L 717.440922 280.842653 
L 717.897696 278.808966 
L 718.35447 278.819369 
L 719.268018 279.669901 
L 719.724791 281.293886 
L 720.181565 283.583698 
L 720.638339 284.738985 
L 721.095113 283.669008 
L 721.551887 280.930458 
L 722.008661 279.282751 
L 722.465434 280.506613 
L 722.922208 283.822475 
L 723.378982 286.03647 
L 723.835756 283.574579 
L 724.29253 277.992672 
L 724.749304 274.354881 
L 725.206077 274.616398 
L 725.662851 276.960234 
L 726.119625 276.974168 
L 726.576399 273.996891 
L 727.033173 272.918741 
L 727.489947 276.0242 
L 727.946721 280.618571 
L 728.403494 282.415009 
L 729.317042 280.288051 
L 729.773816 280.522519 
L 730.687364 281.714906 
L 731.144137 281.232215 
L 732.057685 276.682914 
L 732.514459 275.792648 
L 732.971233 276.144747 
L 733.428007 276.879607 
L 733.88478 276.811734 
L 734.341554 276.066535 
L 734.798328 277.203053 
L 735.711876 283.380938 
L 736.16865 282.672329 
L 737.082197 276.261153 
L 737.538971 276.407849 
L 737.995745 277.043773 
L 738.452519 275.943979 
L 738.909293 274.360899 
L 739.366067 274.630537 
L 740.279614 280.767657 
L 740.736388 281.030303 
L 741.193162 278.854259 
L 741.649936 277.729082 
L 742.563483 281.505249 
L 743.020257 281.042066 
L 743.477031 278.721774 
L 743.933805 277.997221 
L 744.847353 282.599142 
L 745.304126 282.217166 
L 746.217674 276.811126 
L 746.674448 276.476323 
L 747.587996 280.295298 
L 748.501543 280.58636 
L 748.958317 281.084737 
L 749.415091 281.380139 
L 749.871865 281.062927 
L 750.328639 280.509541 
L 750.785413 279.284393 
L 751.242186 277.293687 
L 751.69896 276.940223 
L 752.155734 279.501104 
L 752.612508 283.301965 
L 753.069282 284.267238 
L 753.982829 279.073657 
L 754.439603 280.0732 
L 754.896377 281.703157 
L 755.353151 279.712935 
L 755.809925 275.148715 
L 756.266699 273.529597 
L 757.180246 281.163457 
L 757.63702 281.290912 
L 758.093794 278.241157 
L 758.550568 276.867173 
L 759.464116 282.496315 
L 759.920889 281.967869 
L 760.377663 279.633353 
L 760.834437 278.897236 
L 761.291211 279.029052 
L 761.747985 277.771696 
L 762.204759 275.456817 
L 762.661532 274.573181 
L 763.118306 276.565116 
L 764.031854 283.16234 
L 764.488628 284.153457 
L 764.945402 284.524062 
L 765.402176 285.110582 
L 765.858949 283.920759 
L 766.315723 280.607445 
L 766.772497 278.225347 
L 767.229271 279.18654 
L 767.686045 281.570004 
L 768.142819 282.077118 
L 769.056366 278.598816 
L 769.51314 278.765174 
L 769.969914 280.078527 
L 770.426688 282.210682 
L 770.883462 283.773549 
L 771.340235 282.93899 
L 772.253783 276.491435 
L 772.710557 276.294191 
L 773.624105 284.117063 
L 774.080879 284.610836 
L 774.994426 276.460018 
L 775.4512 276.635543 
L 776.364748 284.365388 
L 776.821522 285.594003 
L 777.278295 284.061921 
L 777.735069 281.666624 
L 778.191843 279.98929 
L 778.648617 279.501948 
L 779.105391 279.838829 
L 779.562165 280.326078 
L 780.018938 280.632504 
L 780.475712 280.464471 
L 780.932486 280.64386 
L 781.846034 282.152396 
L 782.302808 282.005715 
L 783.216355 278.385238 
L 783.673129 278.741923 
L 784.586677 285.475068 
L 785.043451 284.58331 
L 785.500225 281.353489 
L 785.956998 281.249799 
L 786.413772 285.014263 
L 786.870546 287.131299 
L 787.32732 283.852747 
L 787.784094 278.298145 
L 788.240868 276.771619 
L 789.154415 285.141892 
L 789.611189 284.537663 
L 790.524737 275.040514 
L 790.981511 274.441186 
L 792.808606 282.714448 
L 793.26538 282.522474 
L 793.722154 281.476589 
L 794.178928 281.372673 
L 794.635701 282.128763 
L 795.092475 282.111565 
L 795.549249 280.770451 
L 796.006023 279.88498 
L 796.462797 279.553617 
L 797.376344 277.700693 
L 797.833118 277.804387 
L 798.289892 278.685893 
L 798.746666 278.854405 
L 799.660214 277.010043 
L 800.116987 278.011983 
L 800.573761 280.614383 
L 801.030535 282.0492 
L 801.487309 281.330341 
L 801.944083 280.037507 
L 802.400857 279.768952 
L 802.857631 281.303486 
L 803.314404 282.423424 
L 803.771178 281.76999 
L 804.227952 280.009336 
L 804.684726 278.698426 
L 805.1415 278.835523 
L 805.598274 279.537175 
L 806.055047 279.655537 
L 806.511821 279.525189 
L 807.425369 280.595574 
L 807.882143 280.949364 
L 808.338917 281.536812 
L 808.79569 281.472852 
L 809.252464 280.229872 
L 810.166012 277.138302 
L 810.622786 276.719819 
L 811.07956 276.9903 
L 811.536334 276.98419 
L 811.993107 276.567382 
L 812.449881 277.196169 
L 813.363429 280.872454 
L 813.820203 281.358223 
L 814.276977 281.484476 
L 814.73375 280.530691 
L 815.190524 278.830551 
L 815.647298 278.643039 
L 816.104072 280.218461 
L 816.560846 280.704255 
L 817.01762 278.099296 
L 817.474393 274.755815 
L 817.931167 274.877855 
L 818.844715 283.446293 
L 819.301489 283.384508 
L 820.215036 277.443415 
L 820.67181 277.44958 
L 821.128584 278.457827 
L 821.585358 278.985672 
L 822.042132 278.654766 
L 822.498906 278.466402 
L 823.412453 281.240681 
L 823.869227 281.630849 
L 824.326001 280.797139 
L 824.782775 279.500557 
L 825.239549 279.066103 
L 825.696323 280.210578 
L 826.60987 284.702347 
L 827.066644 284.971005 
L 827.523418 282.3308 
L 827.980192 278.244579 
L 828.436966 276.564653 
L 828.893739 278.214251 
L 829.350513 280.553011 
L 829.807287 282.104036 
L 830.264061 282.450684 
L 830.720835 281.254205 
L 831.634383 276.694053 
L 832.091156 276.272185 
L 832.54793 277.809604 
L 833.004704 280.295303 
L 833.461478 282.13329 
L 833.918252 282.083763 
L 834.375026 280.732721 
L 834.831799 280.263463 
L 835.745347 283.869567 
L 836.202121 282.72999 
L 836.658895 279.206383 
L 837.115669 276.592832 
L 837.572442 277.206715 
L 838.029216 279.157044 
L 838.48599 278.940472 
L 838.942764 276.835616 
L 839.399538 276.691894 
L 840.313086 283.24867 
L 840.769859 283.325392 
L 841.226633 281.2214 
L 841.683407 279.858209 
L 842.140181 280.521823 
L 842.596955 280.782475 
L 843.510502 276.78531 
L 843.967276 277.021118 
L 844.42405 279.257708 
L 844.880824 280.257281 
L 845.794372 276.558376 
L 846.251145 277.466602 
L 846.707919 280.369818 
L 847.164693 281.865478 
L 847.621467 280.408715 
L 848.078241 277.7467 
L 848.535015 277.017576 
L 849.448562 281.203882 
L 849.905336 281.049492 
L 850.36211 278.99515 
L 850.818884 278.413831 
L 851.732432 284.124758 
L 852.189205 283.366165 
L 852.645979 279.154859 
L 853.102753 276.692809 
L 853.559527 279.860908 
L 854.016301 284.839877 
L 854.473075 284.319723 
L 854.929848 277.451076 
L 855.386622 272.507442 
L 855.843396 275.50864 
L 856.30017 281.162126 
L 856.756944 282.814025 
L 857.213718 280.625567 
L 857.670491 279.131045 
L 858.584039 281.493525 
L 859.497587 279.858614 
L 859.954361 282.074869 
L 860.411135 285.158505 
L 860.867908 283.776638 
L 861.324682 277.714405 
L 861.781456 274.31073 
L 862.23823 277.504218 
L 862.695004 282.721807 
L 863.151778 283.378651 
L 863.608551 279.285609 
L 864.065325 276.480421 
L 864.522099 278.534535 
L 864.978873 282.827515 
L 865.435647 284.482126 
L 865.892421 282.394047 
L 866.349194 279.430787 
L 866.805968 278.448094 
L 867.719516 281.241174 
L 868.17629 281.365582 
L 868.633064 279.718628 
L 869.089838 278.676026 
L 870.003385 282.117278 
L 870.460159 280.799516 
L 870.916933 278.017674 
L 871.373707 278.008993 
L 872.287254 285.96773 
L 872.744028 284.553511 
L 873.200802 278.450009 
L 873.657576 274.638996 
L 874.11435 277.499693 
L 874.571124 283.360052 
L 875.027897 285.483272 
L 875.941445 279.296261 
L 876.398219 279.132817 
L 876.854993 280.601014 
L 877.311767 279.901327 
L 877.768541 277.537872 
L 878.225314 276.804671 
L 878.682088 279.483662 
L 879.138862 283.14278 
L 879.595636 283.980927 
L 880.509184 278.791759 
L 880.965957 278.448729 
L 881.422731 280.155484 
L 881.879505 280.740537 
L 882.336279 279.318603 
L 882.793053 278.506302 
L 883.7066 281.384437 
L 884.163374 281.098095 
L 884.620148 279.729438 
L 885.076922 279.491744 
L 885.99047 283.675973 
L 886.447244 283.688848 
L 887.360791 278.152717 
L 887.817565 277.185331 
L 888.274339 277.117265 
L 888.731113 276.856524 
L 889.187887 277.308395 
L 889.64466 278.599262 
L 890.558208 282.202321 
L 891.014982 282.070721 
L 891.471756 279.930222 
L 891.92853 278.456331 
L 892.385303 279.439657 
L 893.298851 283.95738 
L 893.755625 283.087578 
L 894.669173 274.612145 
L 895.125946 273.650921 
L 895.58272 277.078503 
L 896.039494 281.985449 
L 896.496268 284.139793 
L 896.953042 281.856967 
L 897.409816 277.834499 
L 897.86659 276.643353 
L 898.780137 282.876893 
L 899.236911 282.435407 
L 899.693685 278.851695 
L 900.150459 276.20507 
L 900.607233 277.758906 
L 901.064006 281.380201 
L 901.52078 282.698329 
L 901.977554 281.108371 
L 902.434328 278.521527 
L 902.891102 276.805084 
L 903.347876 276.010816 
L 903.804649 275.58686 
L 904.261423 277.044231 
L 905.174971 286.564914 
L 905.631745 287.927831 
L 906.088519 283.055776 
L 906.545293 275.282109 
L 907.002066 270.718701 
L 907.45884 272.690046 
L 907.915614 278.453567 
L 908.372388 282.302978 
L 908.829162 281.702186 
L 909.285936 278.861445 
L 909.742709 278.733994 
L 910.656257 286.364822 
L 911.113031 284.871013 
L 911.569805 279.956888 
L 912.026579 276.713721 
L 912.483352 276.273764 
L 913.3969 276.56332 
L 913.853674 276.973107 
L 914.310448 278.283905 
L 914.767222 280.1916 
L 915.223996 281.442379 
L 915.680769 281.692431 
L 916.137543 282.209689 
L 916.594317 283.456678 
L 917.051091 282.411644 
L 917.507865 278.821992 
L 917.964639 276.358509 
L 918.421412 277.265715 
L 918.878186 279.917664 
L 919.33496 280.68053 
L 919.791734 279.213585 
L 920.248508 278.461818 
L 920.705282 279.711713 
L 921.162055 281.539211 
L 921.618829 281.783338 
L 922.532377 279.104036 
L 922.989151 278.833964 
L 923.445925 278.791215 
L 923.902699 277.380645 
L 924.359472 274.970961 
L 924.816246 274.57368 
L 925.27302 277.85406 
L 925.729794 282.104858 
L 926.186568 283.515419 
L 927.100115 281.080066 
L 927.556889 280.957845 
L 928.013663 281.174843 
L 928.470437 280.624498 
L 928.927211 279.665561 
L 929.383985 279.038161 
L 930.297532 278.376986 
L 930.754306 278.301712 
L 932.124628 280.678454 
L 933.038175 283.310345 
L 933.494949 283.03105 
L 933.951723 280.989297 
L 934.408497 279.552337 
L 934.865271 280.594443 
L 935.322045 282.985234 
L 935.778818 283.960997 
L 936.235592 282.458428 
L 936.692366 280.269807 
L 937.14914 279.664324 
L 937.605914 280.400822 
L 938.062688 280.647036 
L 938.519461 279.693351 
L 938.976235 279.224142 
L 939.433009 280.298344 
L 939.889783 282.318721 
L 940.346557 283.722923 
L 940.803331 282.979993 
L 941.260104 280.725569 
L 941.716878 279.255872 
L 942.173652 279.870439 
L 942.630426 281.288176 
L 943.0872 281.275938 
L 944.000748 278.116264 
L 944.457521 277.766228 
L 945.371069 279.101149 
L 945.827843 279.618049 
L 946.741391 281.942578 
L 947.198164 281.382649 
L 947.654938 279.728882 
L 948.111712 278.635334 
L 948.568486 279.070264 
L 949.02526 280.058455 
L 949.482034 280.258322 
L 950.395581 278.861413 
L 950.852355 279.491058 
L 951.309129 280.479443 
L 951.765903 280.271079 
L 952.222677 279.379577 
L 952.679451 279.173017 
L 953.136224 279.444557 
L 953.592998 279.511999 
L 954.506546 278.828174 
L 954.96332 279.331607 
L 955.420094 280.257292 
L 955.876867 280.397819 
L 956.333641 279.613689 
L 956.790415 279.080817 
L 957.247189 279.445642 
L 957.703963 280.35164 
L 958.160737 280.821445 
L 958.61751 280.334429 
L 959.074284 279.481068 
L 959.531058 279.05403 
L 959.987832 279.37193 
L 960.444606 280.05066 
L 960.90138 280.236001 
L 961.814927 279.058437 
L 962.271701 279.406545 
L 962.728475 280.5123 
L 963.185249 281.136852 
L 963.642023 280.663745 
L 964.098797 279.683962 
L 964.55557 279.226031 
L 965.012344 279.616023 
L 965.469118 280.166281 
L 965.925892 280.171194 
L 966.382666 279.800922 
L 966.83944 279.621219 
L 967.296213 279.888593 
L 967.752987 280.356479 
L 968.209761 280.47767 
L 969.123309 279.67477 
L 969.580083 279.617198 
L 970.49363 280.242186 
L 970.950404 280.308667 
L 971.863952 280.157021 
L 972.7775 280.364998 
L 974.147821 279.959496 
L 975.061369 280.180962 
L 975.974916 279.971447 
L 977.345238 280.321071 
L 978.258786 279.855595 
L 978.715559 279.964263 
L 979.172333 280.196438 
L 979.629107 280.248616 
L 980.542655 279.884816 
L 980.999429 279.954484 
L 981.912976 280.443808 
L 982.36975 280.340974 
L 982.826524 280.051149 
L 983.283298 279.896276 
L 984.653619 280.165977 
L 985.567167 279.921458 
L 987.394262 280.047925 
L 987.851036 279.919312 
L 988.30781 279.92258 
L 989.221358 280.143145 
L 991.048453 279.967901 
L 991.962001 280.062485 
L 992.875549 279.867543 
L 993.789096 280.025528 
L 994.24587 280.096229 
L 995.616192 279.889662 
L 996.986513 280.036574 
L 997.900061 279.877883 
L 999.727156 279.996131 
L 1000.640704 279.90417 
L 1002.924573 279.942979 
L 1004.751668 279.96989 
L 1010.232955 279.923071 
L 1010.232955 279.923071 
" clip-path="url(#pa40e4df7c2)" style="fill: none; stroke: #0c5da5; stroke-width: 2; stroke-linecap: square"/>
   </g>
   <g id="patch_3">
    <path d="M 51.4875 520.7175 
L 51.4875 21.7575 
" style="fill: none; stroke: #000000; stroke-linejoin: miter; stroke-linecap: square"/>
   </g>
   <g id="patch_4">
    <path d="M 1055.8875 520.7175 
L 1055.8875 21.7575 
" style="fill: none; stroke: #000000; stroke-linejoin: miter; stroke-linecap: square"/>
   </g>
   <g id="patch_5">
    <path d="M 51.4875 520.7175 
L 1055.8875 520.7175 
" style="fill: none; stroke: #000000; stroke-linejoin: miter; stroke-linecap: square"/>
   </g>
   <g id="patch_6">
    <path d="M 51.4875 21.7575 
L 1055.8875 21.7575 
" style="fill: none; stroke: #000000; stroke-linejoin: miter; stroke-linecap: square"/>
   </g>
   <g id="text_17">
    <!-- Northridge-01 Record no. 1051 -->
    <g transform="translate(429.6575 15.7575) scale(0.16 -0.16)">
     <defs>
      <path id="DejaVuSans-4e" d="M 628 4666 
L 1478 4666 
L 3547 763 
L 3547 4666 
L 4159 4666 
L 4159 0 
L 3309 0 
L 1241 3903 
L 1241 0 
L 628 0 
L 628 4666 
z
" transform="scale(0.015625)"/>
      <path id="DejaVuSans-68" d="M 3513 2113 
L 3513 0 
L 2938 0 
L 2938 2094 
Q 2938 2591 2744 2837 
Q 2550 3084 2163 3084 
Q 1697 3084 1428 2787 
Q 1159 2491 1159 1978 
L 1159 0 
L 581 0 
L 581 4863 
L 1159 4863 
L 1159 2956 
Q 1366 3272 1645 3428 
Q 1925 3584 2291 3584 
Q 2894 3584 3203 3211 
Q 3513 2838 3513 2113 
z
" transform="scale(0.015625)"/>
      <path id="DejaVuSans-64" d="M 2906 2969 
L 2906 4863 
L 3481 4863 
L 3481 0 
L 2906 0 
L 2906 525 
Q 2725 213 2448 61 
Q 2172 -91 1784 -91 
Q 1150 -91 751 415 
Q 353 922 353 1747 
Q 353 2572 751 3078 
Q 1150 3584 1784 3584 
Q 2172 3584 2448 3432 
Q 2725 3281 2906 2969 
z
M 947 1747 
Q 947 1113 1208 752 
Q 1469 391 1925 391 
Q 2381 391 2643 752 
Q 2906 1113 2906 1747 
Q 2906 2381 2643 2742 
Q 2381 3103 1925 3103 
Q 1469 3103 1208 2742 
Q 947 2381 947 1747 
z
" transform="scale(0.015625)"/>
      <path id="DejaVuSans-67" d="M 2906 1791 
Q 2906 2416 2648 2759 
Q 2391 3103 1925 3103 
Q 1463 3103 1205 2759 
Q 947 2416 947 1791 
Q 947 1169 1205 825 
Q 1463 481 1925 481 
Q 2391 481 2648 825 
Q 2906 1169 2906 1791 
z
M 3481 434 
Q 3481 -459 3084 -895 
Q 2688 -1331 1869 -1331 
Q 1566 -1331 1297 -1286 
Q 1028 -1241 775 -1147 
L 775 -588 
Q 1028 -725 1275 -790 
Q 1522 -856 1778 -856 
Q 2344 -856 2625 -561 
Q 2906 -266 2906 331 
L 2906 616 
Q 2728 306 2450 153 
Q 2172 0 1784 0 
Q 1141 0 747 490 
Q 353 981 353 1791 
Q 353 2603 747 3093 
Q 1141 3584 1784 3584 
Q 2172 3584 2450 3431 
Q 2728 3278 2906 2969 
L 2906 3500 
L 3481 3500 
L 3481 434 
z
" transform="scale(0.015625)"/>
      <path id="DejaVuSans-2d" d="M 313 2009 
L 1997 2009 
L 1997 1497 
L 313 1497 
L 313 2009 
z
" transform="scale(0.015625)"/>
      <path id="DejaVuSans-2e" d="M 684 794 
L 1344 794 
L 1344 0 
L 684 0 
L 684 794 
z
" transform="scale(0.015625)"/>
     </defs>
     <use xlink:href="#DejaVuSans-4e"/>
     <use xlink:href="#DejaVuSans-6f" x="74.804688"/>
     <use xlink:href="#DejaVuSans-72" x="135.986328"/>
     <use xlink:href="#DejaVuSans-74" x="177.099609"/>
     <use xlink:href="#DejaVuSans-68" x="216.308594"/>
     <use xlink:href="#DejaVuSans-72" x="279.6875"/>
     <use xlink:href="#DejaVuSans-69" x="320.800781"/>
     <use xlink:href="#DejaVuSans-64" x="348.583984"/>
     <use xlink:href="#DejaVuSans-67" x="412.060547"/>
     <use xlink:href="#DejaVuSans-65" x="475.537109"/>
     <use xlink:href="#DejaVuSans-2d" x="537.060547"/>
     <use xlink:href="#DejaVuSans-30" x="573.144531"/>
     <use xlink:href="#DejaVuSans-31" x="636.767578"/>
     <use xlink:href="#DejaVuSans-20" x="700.390625"/>
     <use xlink:href="#DejaVuSans-52" x="732.177734"/>
     <use xlink:href="#DejaVuSans-65" x="797.160156"/>
     <use xlink:href="#DejaVuSans-63" x="858.683594"/>
     <use xlink:href="#DejaVuSans-6f" x="913.664062"/>
     <use xlink:href="#DejaVuSans-72" x="974.845703"/>
     <use xlink:href="#DejaVuSans-64" x="1014.208984"/>
     <use xlink:href="#DejaVuSans-20" x="1077.685547"/>
     <use xlink:href="#DejaVuSans-6e" x="1109.472656"/>
     <use xlink:href="#DejaVuSans-6f" x="1172.851562"/>
     <use xlink:href="#DejaVuSans-2e" x="1232.283203"/>
     <use xlink:href="#DejaVuSans-20" x="1264.070312"/>
     <use xlink:href="#DejaVuSans-31" x="1295.857422"/>
     <use xlink:href="#DejaVuSans-30" x="1359.480469"/>
     <use xlink:href="#DejaVuSans-35" x="1423.103516"/>
     <use xlink:href="#DejaVuSans-31" x="1486.726562"/>
    </g>
   </g>
  </g>
 </g>
 <defs>
  <clipPath id="pa40e4df7c2">
   <rect x="51.4875" y="21.7575" width="1004.4" height="498.96"/>
  </clipPath>
 </defs>
</svg>
