<?xml version="1.0" encoding="utf-8" standalone="no"?>
<!DOCTYPE svg PUBLIC "-//W3C//DTD SVG 1.1//EN"
  "http://www.w3.org/Graphics/SVG/1.1/DTD/svg11.dtd">
<svg xmlns:xlink="http://www.w3.org/1999/xlink" width="1093.7975pt" height="562.7875pt" viewBox="0 0 1093.7975 562.7875" xmlns="http://www.w3.org/2000/svg" version="1.1">
 <metadata>
  <rdf:RDF xmlns:dc="http://purl.org/dc/elements/1.1/" xmlns:cc="http://creativecommons.org/ns#" xmlns:rdf="http://www.w3.org/1999/02/22-rdf-syntax-ns#">
   <cc:Work>
    <dc:type rdf:resource="http://purl.org/dc/dcmitype/StillImage"/>
    <dc:date>2023-05-16T14:54:36.211384</dc:date>
    <dc:format>image/svg+xml</dc:format>
    <dc:creator>
     <cc:Agent>
      <dc:title>Matplotlib v3.7.1, https://matplotlib.org/</dc:title>
     </cc:Agent>
    </dc:creator>
   </cc:Work>
  </rdf:RDF>
 </metadata>
 <defs>
  <style type="text/css">*{stroke-linejoin: round; stroke-linecap: butt}</style>
 </defs>
 <g id="figure_1">
  <g id="patch_1">
   <path d="M 0 562.7875 
L 1093.7975 562.7875 
L 1093.7975 0 
L 0 0 
z
" style="fill: #ffffff"/>
  </g>
  <g id="axes_1">
   <g id="patch_2">
    <path d="M 85.7975 520.7175 
L 1090.1975 520.7175 
L 1090.1975 21.7575 
L 85.7975 21.7575 
z
" style="fill: #ffffff"/>
   </g>
   <g id="matplotlib.axis_1">
    <g id="xtick_1">
     <g id="line2d_1">
      <path d="M 131.452045 520.7175 
L 131.452045 21.7575 
" clip-path="url(#pe0d066fe32)" style="fill: none; stroke-dasharray: 1.85,0.8; stroke-dashoffset: 0; stroke: #000000; stroke-opacity: 0.5; stroke-width: 0.5"/>
     </g>
     <g id="line2d_2">
      <defs>
       <path id="ma061bf6125" d="M 0 0 
L 0 -6 
" style="stroke: #000000"/>
      </defs>
      <g>
       <use xlink:href="#ma061bf6125" x="131.452045" y="520.7175" style="stroke: #000000"/>
      </g>
     </g>
     <g id="line2d_3">
      <defs>
       <path id="m000e61e1eb" d="M 0 0 
L 0 6 
" style="stroke: #000000"/>
      </defs>
      <g>
       <use xlink:href="#m000e61e1eb" x="131.452045" y="21.7575" style="stroke: #000000"/>
      </g>
     </g>
     <g id="text_1">
      <!-- 0 -->
      <g transform="translate(126.362045 536.375) scale(0.16 -0.16)">
       <defs>
        <path id="DejaVuSans-30" d="M 2034 4250 
Q 1547 4250 1301 3770 
Q 1056 3291 1056 2328 
Q 1056 1369 1301 889 
Q 1547 409 2034 409 
Q 2525 409 2770 889 
Q 3016 1369 3016 2328 
Q 3016 3291 2770 3770 
Q 2525 4250 2034 4250 
z
M 2034 4750 
Q 2819 4750 3233 4129 
Q 3647 3509 3647 2328 
Q 3647 1150 3233 529 
Q 2819 -91 2034 -91 
Q 1250 -91 836 529 
Q 422 1150 422 2328 
Q 422 3509 836 4129 
Q 1250 4750 2034 4750 
z
" transform="scale(0.015625)"/>
       </defs>
       <use xlink:href="#DejaVuSans-30"/>
      </g>
     </g>
    </g>
    <g id="xtick_2">
     <g id="line2d_4">
      <path d="M 261.968185 520.7175 
L 261.968185 21.7575 
" clip-path="url(#pe0d066fe32)" style="fill: none; stroke-dasharray: 1.85,0.8; stroke-dashoffset: 0; stroke: #000000; stroke-opacity: 0.5; stroke-width: 0.5"/>
     </g>
     <g id="line2d_5">
      <g>
       <use xlink:href="#ma061bf6125" x="261.968185" y="520.7175" style="stroke: #000000"/>
      </g>
     </g>
     <g id="line2d_6">
      <g>
       <use xlink:href="#m000e61e1eb" x="261.968185" y="21.7575" style="stroke: #000000"/>
      </g>
     </g>
     <g id="text_2">
      <!-- 5 -->
      <g transform="translate(256.878185 536.375) scale(0.16 -0.16)">
       <defs>
        <path id="DejaVuSans-35" d="M 691 4666 
L 3169 4666 
L 3169 4134 
L 1269 4134 
L 1269 2991 
Q 1406 3038 1543 3061 
Q 1681 3084 1819 3084 
Q 2600 3084 3056 2656 
Q 3513 2228 3513 1497 
Q 3513 744 3044 326 
Q 2575 -91 1722 -91 
Q 1428 -91 1123 -41 
Q 819 9 494 109 
L 494 744 
Q 775 591 1075 516 
Q 1375 441 1709 441 
Q 2250 441 2565 725 
Q 2881 1009 2881 1497 
Q 2881 1984 2565 2268 
Q 2250 2553 1709 2553 
Q 1456 2553 1204 2497 
Q 953 2441 691 2322 
L 691 4666 
z
" transform="scale(0.015625)"/>
       </defs>
       <use xlink:href="#DejaVuSans-35"/>
      </g>
     </g>
    </g>
    <g id="xtick_3">
     <g id="line2d_7">
      <path d="M 392.484324 520.7175 
L 392.484324 21.7575 
" clip-path="url(#pe0d066fe32)" style="fill: none; stroke-dasharray: 1.85,0.8; stroke-dashoffset: 0; stroke: #000000; stroke-opacity: 0.5; stroke-width: 0.5"/>
     </g>
     <g id="line2d_8">
      <g>
       <use xlink:href="#ma061bf6125" x="392.484324" y="520.7175" style="stroke: #000000"/>
      </g>
     </g>
     <g id="line2d_9">
      <g>
       <use xlink:href="#m000e61e1eb" x="392.484324" y="21.7575" style="stroke: #000000"/>
      </g>
     </g>
     <g id="text_3">
      <!-- 10 -->
      <g transform="translate(382.304324 536.375) scale(0.16 -0.16)">
       <defs>
        <path id="DejaVuSans-31" d="M 794 531 
L 1825 531 
L 1825 4091 
L 703 3866 
L 703 4441 
L 1819 4666 
L 2450 4666 
L 2450 531 
L 3481 531 
L 3481 0 
L 794 0 
L 794 531 
z
" transform="scale(0.015625)"/>
       </defs>
       <use xlink:href="#DejaVuSans-31"/>
       <use xlink:href="#DejaVuSans-30" x="63.623047"/>
      </g>
     </g>
    </g>
    <g id="xtick_4">
     <g id="line2d_10">
      <path d="M 523.000463 520.7175 
L 523.000463 21.7575 
" clip-path="url(#pe0d066fe32)" style="fill: none; stroke-dasharray: 1.85,0.8; stroke-dashoffset: 0; stroke: #000000; stroke-opacity: 0.5; stroke-width: 0.5"/>
     </g>
     <g id="line2d_11">
      <g>
       <use xlink:href="#ma061bf6125" x="523.000463" y="520.7175" style="stroke: #000000"/>
      </g>
     </g>
     <g id="line2d_12">
      <g>
       <use xlink:href="#m000e61e1eb" x="523.000463" y="21.7575" style="stroke: #000000"/>
      </g>
     </g>
     <g id="text_4">
      <!-- 15 -->
      <g transform="translate(512.820463 536.375) scale(0.16 -0.16)">
       <use xlink:href="#DejaVuSans-31"/>
       <use xlink:href="#DejaVuSans-35" x="63.623047"/>
      </g>
     </g>
    </g>
    <g id="xtick_5">
     <g id="line2d_13">
      <path d="M 653.516602 520.7175 
L 653.516602 21.7575 
" clip-path="url(#pe0d066fe32)" style="fill: none; stroke-dasharray: 1.85,0.8; stroke-dashoffset: 0; stroke: #000000; stroke-opacity: 0.5; stroke-width: 0.5"/>
     </g>
     <g id="line2d_14">
      <g>
       <use xlink:href="#ma061bf6125" x="653.516602" y="520.7175" style="stroke: #000000"/>
      </g>
     </g>
     <g id="line2d_15">
      <g>
       <use xlink:href="#m000e61e1eb" x="653.516602" y="21.7575" style="stroke: #000000"/>
      </g>
     </g>
     <g id="text_5">
      <!-- 20 -->
      <g transform="translate(643.336602 536.375) scale(0.16 -0.16)">
       <defs>
        <path id="DejaVuSans-32" d="M 1228 531 
L 3431 531 
L 3431 0 
L 469 0 
L 469 531 
Q 828 903 1448 1529 
Q 2069 2156 2228 2338 
Q 2531 2678 2651 2914 
Q 2772 3150 2772 3378 
Q 2772 3750 2511 3984 
Q 2250 4219 1831 4219 
Q 1534 4219 1204 4116 
Q 875 4013 500 3803 
L 500 4441 
Q 881 4594 1212 4672 
Q 1544 4750 1819 4750 
Q 2544 4750 2975 4387 
Q 3406 4025 3406 3419 
Q 3406 3131 3298 2873 
Q 3191 2616 2906 2266 
Q 2828 2175 2409 1742 
Q 1991 1309 1228 531 
z
" transform="scale(0.015625)"/>
       </defs>
       <use xlink:href="#DejaVuSans-32"/>
       <use xlink:href="#DejaVuSans-30" x="63.623047"/>
      </g>
     </g>
    </g>
    <g id="xtick_6">
     <g id="line2d_16">
      <path d="M 784.032741 520.7175 
L 784.032741 21.7575 
" clip-path="url(#pe0d066fe32)" style="fill: none; stroke-dasharray: 1.85,0.8; stroke-dashoffset: 0; stroke: #000000; stroke-opacity: 0.5; stroke-width: 0.5"/>
     </g>
     <g id="line2d_17">
      <g>
       <use xlink:href="#ma061bf6125" x="784.032741" y="520.7175" style="stroke: #000000"/>
      </g>
     </g>
     <g id="line2d_18">
      <g>
       <use xlink:href="#m000e61e1eb" x="784.032741" y="21.7575" style="stroke: #000000"/>
      </g>
     </g>
     <g id="text_6">
      <!-- 25 -->
      <g transform="translate(773.852741 536.375) scale(0.16 -0.16)">
       <use xlink:href="#DejaVuSans-32"/>
       <use xlink:href="#DejaVuSans-35" x="63.623047"/>
      </g>
     </g>
    </g>
    <g id="xtick_7">
     <g id="line2d_19">
      <path d="M 914.54888 520.7175 
L 914.54888 21.7575 
" clip-path="url(#pe0d066fe32)" style="fill: none; stroke-dasharray: 1.85,0.8; stroke-dashoffset: 0; stroke: #000000; stroke-opacity: 0.5; stroke-width: 0.5"/>
     </g>
     <g id="line2d_20">
      <g>
       <use xlink:href="#ma061bf6125" x="914.54888" y="520.7175" style="stroke: #000000"/>
      </g>
     </g>
     <g id="line2d_21">
      <g>
       <use xlink:href="#m000e61e1eb" x="914.54888" y="21.7575" style="stroke: #000000"/>
      </g>
     </g>
     <g id="text_7">
      <!-- 30 -->
      <g transform="translate(904.36888 536.375) scale(0.16 -0.16)">
       <defs>
        <path id="DejaVuSans-33" d="M 2597 2516 
Q 3050 2419 3304 2112 
Q 3559 1806 3559 1356 
Q 3559 666 3084 287 
Q 2609 -91 1734 -91 
Q 1441 -91 1130 -33 
Q 819 25 488 141 
L 488 750 
Q 750 597 1062 519 
Q 1375 441 1716 441 
Q 2309 441 2620 675 
Q 2931 909 2931 1356 
Q 2931 1769 2642 2001 
Q 2353 2234 1838 2234 
L 1294 2234 
L 1294 2753 
L 1863 2753 
Q 2328 2753 2575 2939 
Q 2822 3125 2822 3475 
Q 2822 3834 2567 4026 
Q 2313 4219 1838 4219 
Q 1578 4219 1281 4162 
Q 984 4106 628 3988 
L 628 4550 
Q 988 4650 1302 4700 
Q 1616 4750 1894 4750 
Q 2613 4750 3031 4423 
Q 3450 4097 3450 3541 
Q 3450 3153 3228 2886 
Q 3006 2619 2597 2516 
z
" transform="scale(0.015625)"/>
       </defs>
       <use xlink:href="#DejaVuSans-33"/>
       <use xlink:href="#DejaVuSans-30" x="63.623047"/>
      </g>
     </g>
    </g>
    <g id="xtick_8">
     <g id="line2d_22">
      <path d="M 1045.065019 520.7175 
L 1045.065019 21.7575 
" clip-path="url(#pe0d066fe32)" style="fill: none; stroke-dasharray: 1.85,0.8; stroke-dashoffset: 0; stroke: #000000; stroke-opacity: 0.5; stroke-width: 0.5"/>
     </g>
     <g id="line2d_23">
      <g>
       <use xlink:href="#ma061bf6125" x="1045.065019" y="520.7175" style="stroke: #000000"/>
      </g>
     </g>
     <g id="line2d_24">
      <g>
       <use xlink:href="#m000e61e1eb" x="1045.065019" y="21.7575" style="stroke: #000000"/>
      </g>
     </g>
     <g id="text_8">
      <!-- 35 -->
      <g transform="translate(1034.885019 536.375) scale(0.16 -0.16)">
       <use xlink:href="#DejaVuSans-33"/>
       <use xlink:href="#DejaVuSans-35" x="63.623047"/>
      </g>
     </g>
    </g>
    <g id="xtick_9">
     <g id="line2d_25">
      <defs>
       <path id="m6c9d04279e" d="M 0 0 
L 0 -3 
" style="stroke: #000000"/>
      </defs>
      <g>
       <use xlink:href="#m6c9d04279e" x="105.348818" y="520.7175" style="stroke: #000000"/>
      </g>
     </g>
     <g id="line2d_26">
      <defs>
       <path id="m9ba5d64fef" d="M 0 0 
L 0 3 
" style="stroke: #000000"/>
      </defs>
      <g>
       <use xlink:href="#m9ba5d64fef" x="105.348818" y="21.7575" style="stroke: #000000"/>
      </g>
     </g>
    </g>
    <g id="xtick_10">
     <g id="line2d_27">
      <g>
       <use xlink:href="#m6c9d04279e" x="157.555273" y="520.7175" style="stroke: #000000"/>
      </g>
     </g>
     <g id="line2d_28">
      <g>
       <use xlink:href="#m9ba5d64fef" x="157.555273" y="21.7575" style="stroke: #000000"/>
      </g>
     </g>
    </g>
    <g id="xtick_11">
     <g id="line2d_29">
      <g>
       <use xlink:href="#m6c9d04279e" x="183.658501" y="520.7175" style="stroke: #000000"/>
      </g>
     </g>
     <g id="line2d_30">
      <g>
       <use xlink:href="#m9ba5d64fef" x="183.658501" y="21.7575" style="stroke: #000000"/>
      </g>
     </g>
    </g>
    <g id="xtick_12">
     <g id="line2d_31">
      <g>
       <use xlink:href="#m6c9d04279e" x="209.761729" y="520.7175" style="stroke: #000000"/>
      </g>
     </g>
     <g id="line2d_32">
      <g>
       <use xlink:href="#m9ba5d64fef" x="209.761729" y="21.7575" style="stroke: #000000"/>
      </g>
     </g>
    </g>
    <g id="xtick_13">
     <g id="line2d_33">
      <g>
       <use xlink:href="#m6c9d04279e" x="235.864957" y="520.7175" style="stroke: #000000"/>
      </g>
     </g>
     <g id="line2d_34">
      <g>
       <use xlink:href="#m9ba5d64fef" x="235.864957" y="21.7575" style="stroke: #000000"/>
      </g>
     </g>
    </g>
    <g id="xtick_14">
     <g id="line2d_35">
      <g>
       <use xlink:href="#m6c9d04279e" x="288.071412" y="520.7175" style="stroke: #000000"/>
      </g>
     </g>
     <g id="line2d_36">
      <g>
       <use xlink:href="#m9ba5d64fef" x="288.071412" y="21.7575" style="stroke: #000000"/>
      </g>
     </g>
    </g>
    <g id="xtick_15">
     <g id="line2d_37">
      <g>
       <use xlink:href="#m6c9d04279e" x="314.17464" y="520.7175" style="stroke: #000000"/>
      </g>
     </g>
     <g id="line2d_38">
      <g>
       <use xlink:href="#m9ba5d64fef" x="314.17464" y="21.7575" style="stroke: #000000"/>
      </g>
     </g>
    </g>
    <g id="xtick_16">
     <g id="line2d_39">
      <g>
       <use xlink:href="#m6c9d04279e" x="340.277868" y="520.7175" style="stroke: #000000"/>
      </g>
     </g>
     <g id="line2d_40">
      <g>
       <use xlink:href="#m9ba5d64fef" x="340.277868" y="21.7575" style="stroke: #000000"/>
      </g>
     </g>
    </g>
    <g id="xtick_17">
     <g id="line2d_41">
      <g>
       <use xlink:href="#m6c9d04279e" x="366.381096" y="520.7175" style="stroke: #000000"/>
      </g>
     </g>
     <g id="line2d_42">
      <g>
       <use xlink:href="#m9ba5d64fef" x="366.381096" y="21.7575" style="stroke: #000000"/>
      </g>
     </g>
    </g>
    <g id="xtick_18">
     <g id="line2d_43">
      <g>
       <use xlink:href="#m6c9d04279e" x="418.587551" y="520.7175" style="stroke: #000000"/>
      </g>
     </g>
     <g id="line2d_44">
      <g>
       <use xlink:href="#m9ba5d64fef" x="418.587551" y="21.7575" style="stroke: #000000"/>
      </g>
     </g>
    </g>
    <g id="xtick_19">
     <g id="line2d_45">
      <g>
       <use xlink:href="#m6c9d04279e" x="444.690779" y="520.7175" style="stroke: #000000"/>
      </g>
     </g>
     <g id="line2d_46">
      <g>
       <use xlink:href="#m9ba5d64fef" x="444.690779" y="21.7575" style="stroke: #000000"/>
      </g>
     </g>
    </g>
    <g id="xtick_20">
     <g id="line2d_47">
      <g>
       <use xlink:href="#m6c9d04279e" x="470.794007" y="520.7175" style="stroke: #000000"/>
      </g>
     </g>
     <g id="line2d_48">
      <g>
       <use xlink:href="#m9ba5d64fef" x="470.794007" y="21.7575" style="stroke: #000000"/>
      </g>
     </g>
    </g>
    <g id="xtick_21">
     <g id="line2d_49">
      <g>
       <use xlink:href="#m6c9d04279e" x="496.897235" y="520.7175" style="stroke: #000000"/>
      </g>
     </g>
     <g id="line2d_50">
      <g>
       <use xlink:href="#m9ba5d64fef" x="496.897235" y="21.7575" style="stroke: #000000"/>
      </g>
     </g>
    </g>
    <g id="xtick_22">
     <g id="line2d_51">
      <g>
       <use xlink:href="#m6c9d04279e" x="549.103691" y="520.7175" style="stroke: #000000"/>
      </g>
     </g>
     <g id="line2d_52">
      <g>
       <use xlink:href="#m9ba5d64fef" x="549.103691" y="21.7575" style="stroke: #000000"/>
      </g>
     </g>
    </g>
    <g id="xtick_23">
     <g id="line2d_53">
      <g>
       <use xlink:href="#m6c9d04279e" x="575.206918" y="520.7175" style="stroke: #000000"/>
      </g>
     </g>
     <g id="line2d_54">
      <g>
       <use xlink:href="#m9ba5d64fef" x="575.206918" y="21.7575" style="stroke: #000000"/>
      </g>
     </g>
    </g>
    <g id="xtick_24">
     <g id="line2d_55">
      <g>
       <use xlink:href="#m6c9d04279e" x="601.310146" y="520.7175" style="stroke: #000000"/>
      </g>
     </g>
     <g id="line2d_56">
      <g>
       <use xlink:href="#m9ba5d64fef" x="601.310146" y="21.7575" style="stroke: #000000"/>
      </g>
     </g>
    </g>
    <g id="xtick_25">
     <g id="line2d_57">
      <g>
       <use xlink:href="#m6c9d04279e" x="627.413374" y="520.7175" style="stroke: #000000"/>
      </g>
     </g>
     <g id="line2d_58">
      <g>
       <use xlink:href="#m9ba5d64fef" x="627.413374" y="21.7575" style="stroke: #000000"/>
      </g>
     </g>
    </g>
    <g id="xtick_26">
     <g id="line2d_59">
      <g>
       <use xlink:href="#m6c9d04279e" x="679.61983" y="520.7175" style="stroke: #000000"/>
      </g>
     </g>
     <g id="line2d_60">
      <g>
       <use xlink:href="#m9ba5d64fef" x="679.61983" y="21.7575" style="stroke: #000000"/>
      </g>
     </g>
    </g>
    <g id="xtick_27">
     <g id="line2d_61">
      <g>
       <use xlink:href="#m6c9d04279e" x="705.723057" y="520.7175" style="stroke: #000000"/>
      </g>
     </g>
     <g id="line2d_62">
      <g>
       <use xlink:href="#m9ba5d64fef" x="705.723057" y="21.7575" style="stroke: #000000"/>
      </g>
     </g>
    </g>
    <g id="xtick_28">
     <g id="line2d_63">
      <g>
       <use xlink:href="#m6c9d04279e" x="731.826285" y="520.7175" style="stroke: #000000"/>
      </g>
     </g>
     <g id="line2d_64">
      <g>
       <use xlink:href="#m9ba5d64fef" x="731.826285" y="21.7575" style="stroke: #000000"/>
      </g>
     </g>
    </g>
    <g id="xtick_29">
     <g id="line2d_65">
      <g>
       <use xlink:href="#m6c9d04279e" x="757.929513" y="520.7175" style="stroke: #000000"/>
      </g>
     </g>
     <g id="line2d_66">
      <g>
       <use xlink:href="#m9ba5d64fef" x="757.929513" y="21.7575" style="stroke: #000000"/>
      </g>
     </g>
    </g>
    <g id="xtick_30">
     <g id="line2d_67">
      <g>
       <use xlink:href="#m6c9d04279e" x="810.135969" y="520.7175" style="stroke: #000000"/>
      </g>
     </g>
     <g id="line2d_68">
      <g>
       <use xlink:href="#m9ba5d64fef" x="810.135969" y="21.7575" style="stroke: #000000"/>
      </g>
     </g>
    </g>
    <g id="xtick_31">
     <g id="line2d_69">
      <g>
       <use xlink:href="#m6c9d04279e" x="836.239197" y="520.7175" style="stroke: #000000"/>
      </g>
     </g>
     <g id="line2d_70">
      <g>
       <use xlink:href="#m9ba5d64fef" x="836.239197" y="21.7575" style="stroke: #000000"/>
      </g>
     </g>
    </g>
    <g id="xtick_32">
     <g id="line2d_71">
      <g>
       <use xlink:href="#m6c9d04279e" x="862.342424" y="520.7175" style="stroke: #000000"/>
      </g>
     </g>
     <g id="line2d_72">
      <g>
       <use xlink:href="#m9ba5d64fef" x="862.342424" y="21.7575" style="stroke: #000000"/>
      </g>
     </g>
    </g>
    <g id="xtick_33">
     <g id="line2d_73">
      <g>
       <use xlink:href="#m6c9d04279e" x="888.445652" y="520.7175" style="stroke: #000000"/>
      </g>
     </g>
     <g id="line2d_74">
      <g>
       <use xlink:href="#m9ba5d64fef" x="888.445652" y="21.7575" style="stroke: #000000"/>
      </g>
     </g>
    </g>
    <g id="xtick_34">
     <g id="line2d_75">
      <g>
       <use xlink:href="#m6c9d04279e" x="940.652108" y="520.7175" style="stroke: #000000"/>
      </g>
     </g>
     <g id="line2d_76">
      <g>
       <use xlink:href="#m9ba5d64fef" x="940.652108" y="21.7575" style="stroke: #000000"/>
      </g>
     </g>
    </g>
    <g id="xtick_35">
     <g id="line2d_77">
      <g>
       <use xlink:href="#m6c9d04279e" x="966.755336" y="520.7175" style="stroke: #000000"/>
      </g>
     </g>
     <g id="line2d_78">
      <g>
       <use xlink:href="#m9ba5d64fef" x="966.755336" y="21.7575" style="stroke: #000000"/>
      </g>
     </g>
    </g>
    <g id="xtick_36">
     <g id="line2d_79">
      <g>
       <use xlink:href="#m6c9d04279e" x="992.858563" y="520.7175" style="stroke: #000000"/>
      </g>
     </g>
     <g id="line2d_80">
      <g>
       <use xlink:href="#m9ba5d64fef" x="992.858563" y="21.7575" style="stroke: #000000"/>
      </g>
     </g>
    </g>
    <g id="xtick_37">
     <g id="line2d_81">
      <g>
       <use xlink:href="#m6c9d04279e" x="1018.961791" y="520.7175" style="stroke: #000000"/>
      </g>
     </g>
     <g id="line2d_82">
      <g>
       <use xlink:href="#m9ba5d64fef" x="1018.961791" y="21.7575" style="stroke: #000000"/>
      </g>
     </g>
    </g>
    <g id="xtick_38">
     <g id="line2d_83">
      <g>
       <use xlink:href="#m6c9d04279e" x="1071.168247" y="520.7175" style="stroke: #000000"/>
      </g>
     </g>
     <g id="line2d_84">
      <g>
       <use xlink:href="#m9ba5d64fef" x="1071.168247" y="21.7575" style="stroke: #000000"/>
      </g>
     </g>
    </g>
    <g id="text_9">
     <!-- Time(s) -->
     <g transform="translate(558.01375 555.86) scale(0.16 -0.16)">
      <defs>
       <path id="DejaVuSans-54" d="M -19 4666 
L 3928 4666 
L 3928 4134 
L 2272 4134 
L 2272 0 
L 1638 0 
L 1638 4134 
L -19 4134 
L -19 4666 
z
" transform="scale(0.015625)"/>
       <path id="DejaVuSans-69" d="M 603 3500 
L 1178 3500 
L 1178 0 
L 603 0 
L 603 3500 
z
M 603 4863 
L 1178 4863 
L 1178 4134 
L 603 4134 
L 603 4863 
z
" transform="scale(0.015625)"/>
       <path id="DejaVuSans-6d" d="M 3328 2828 
Q 3544 3216 3844 3400 
Q 4144 3584 4550 3584 
Q 5097 3584 5394 3201 
Q 5691 2819 5691 2113 
L 5691 0 
L 5113 0 
L 5113 2094 
Q 5113 2597 4934 2840 
Q 4756 3084 4391 3084 
Q 3944 3084 3684 2787 
Q 3425 2491 3425 1978 
L 3425 0 
L 2847 0 
L 2847 2094 
Q 2847 2600 2669 2842 
Q 2491 3084 2119 3084 
Q 1678 3084 1418 2786 
Q 1159 2488 1159 1978 
L 1159 0 
L 581 0 
L 581 3500 
L 1159 3500 
L 1159 2956 
Q 1356 3278 1631 3431 
Q 1906 3584 2284 3584 
Q 2666 3584 2933 3390 
Q 3200 3197 3328 2828 
z
" transform="scale(0.015625)"/>
       <path id="DejaVuSans-65" d="M 3597 1894 
L 3597 1613 
L 953 1613 
Q 991 1019 1311 708 
Q 1631 397 2203 397 
Q 2534 397 2845 478 
Q 3156 559 3463 722 
L 3463 178 
Q 3153 47 2828 -22 
Q 2503 -91 2169 -91 
Q 1331 -91 842 396 
Q 353 884 353 1716 
Q 353 2575 817 3079 
Q 1281 3584 2069 3584 
Q 2775 3584 3186 3129 
Q 3597 2675 3597 1894 
z
M 3022 2063 
Q 3016 2534 2758 2815 
Q 2500 3097 2075 3097 
Q 1594 3097 1305 2825 
Q 1016 2553 972 2059 
L 3022 2063 
z
" transform="scale(0.015625)"/>
       <path id="DejaVuSans-28" d="M 1984 4856 
Q 1566 4138 1362 3434 
Q 1159 2731 1159 2009 
Q 1159 1288 1364 580 
Q 1569 -128 1984 -844 
L 1484 -844 
Q 1016 -109 783 600 
Q 550 1309 550 2009 
Q 550 2706 781 3412 
Q 1013 4119 1484 4856 
L 1984 4856 
z
" transform="scale(0.015625)"/>
       <path id="DejaVuSans-73" d="M 2834 3397 
L 2834 2853 
Q 2591 2978 2328 3040 
Q 2066 3103 1784 3103 
Q 1356 3103 1142 2972 
Q 928 2841 928 2578 
Q 928 2378 1081 2264 
Q 1234 2150 1697 2047 
L 1894 2003 
Q 2506 1872 2764 1633 
Q 3022 1394 3022 966 
Q 3022 478 2636 193 
Q 2250 -91 1575 -91 
Q 1294 -91 989 -36 
Q 684 19 347 128 
L 347 722 
Q 666 556 975 473 
Q 1284 391 1588 391 
Q 1994 391 2212 530 
Q 2431 669 2431 922 
Q 2431 1156 2273 1281 
Q 2116 1406 1581 1522 
L 1381 1569 
Q 847 1681 609 1914 
Q 372 2147 372 2553 
Q 372 3047 722 3315 
Q 1072 3584 1716 3584 
Q 2034 3584 2315 3537 
Q 2597 3491 2834 3397 
z
" transform="scale(0.015625)"/>
       <path id="DejaVuSans-29" d="M 513 4856 
L 1013 4856 
Q 1481 4119 1714 3412 
Q 1947 2706 1947 2009 
Q 1947 1309 1714 600 
Q 1481 -109 1013 -844 
L 513 -844 
Q 928 -128 1133 580 
Q 1338 1288 1338 2009 
Q 1338 2731 1133 3434 
Q 928 4138 513 4856 
z
" transform="scale(0.015625)"/>
      </defs>
      <use xlink:href="#DejaVuSans-54"/>
      <use xlink:href="#DejaVuSans-69" x="57.958984"/>
      <use xlink:href="#DejaVuSans-6d" x="85.742188"/>
      <use xlink:href="#DejaVuSans-65" x="183.154297"/>
      <use xlink:href="#DejaVuSans-28" x="244.677734"/>
      <use xlink:href="#DejaVuSans-73" x="283.691406"/>
      <use xlink:href="#DejaVuSans-29" x="335.791016"/>
     </g>
    </g>
   </g>
   <g id="matplotlib.axis_2">
    <g id="ytick_1">
     <g id="line2d_85">
      <path d="M 85.7975 470.691683 
L 1090.1975 470.691683 
" clip-path="url(#pe0d066fe32)" style="fill: none; stroke-dasharray: 1.85,0.8; stroke-dashoffset: 0; stroke: #000000; stroke-opacity: 0.5; stroke-width: 0.5"/>
     </g>
     <g id="line2d_86">
      <defs>
       <path id="mc67efae5b4" d="M 0 0 
L 6 0 
" style="stroke: #000000"/>
      </defs>
      <g>
       <use xlink:href="#mc67efae5b4" x="85.7975" y="470.691683" style="stroke: #000000"/>
      </g>
     </g>
     <g id="line2d_87">
      <defs>
       <path id="m7830ff7b08" d="M 0 0 
L -6 0 
" style="stroke: #000000"/>
      </defs>
      <g>
       <use xlink:href="#m7830ff7b08" x="1090.1975" y="470.691683" style="stroke: #000000"/>
      </g>
     </g>
     <g id="text_10">
      <!-- −0.010 -->
      <g transform="translate(23.085 476.770433) scale(0.16 -0.16)">
       <defs>
        <path id="DejaVuSans-2212" d="M 678 2272 
L 4684 2272 
L 4684 1741 
L 678 1741 
L 678 2272 
z
" transform="scale(0.015625)"/>
        <path id="DejaVuSans-2e" d="M 684 794 
L 1344 794 
L 1344 0 
L 684 0 
L 684 794 
z
" transform="scale(0.015625)"/>
       </defs>
       <use xlink:href="#DejaVuSans-2212"/>
       <use xlink:href="#DejaVuSans-30" x="83.789062"/>
       <use xlink:href="#DejaVuSans-2e" x="147.412109"/>
       <use xlink:href="#DejaVuSans-30" x="179.199219"/>
       <use xlink:href="#DejaVuSans-31" x="242.822266"/>
       <use xlink:href="#DejaVuSans-30" x="306.445312"/>
      </g>
     </g>
    </g>
    <g id="ytick_2">
     <g id="line2d_88">
      <path d="M 85.7975 370.168772 
L 1090.1975 370.168772 
" clip-path="url(#pe0d066fe32)" style="fill: none; stroke-dasharray: 1.85,0.8; stroke-dashoffset: 0; stroke: #000000; stroke-opacity: 0.5; stroke-width: 0.5"/>
     </g>
     <g id="line2d_89">
      <g>
       <use xlink:href="#mc67efae5b4" x="85.7975" y="370.168772" style="stroke: #000000"/>
      </g>
     </g>
     <g id="line2d_90">
      <g>
       <use xlink:href="#m7830ff7b08" x="1090.1975" y="370.168772" style="stroke: #000000"/>
      </g>
     </g>
     <g id="text_11">
      <!-- −0.005 -->
      <g transform="translate(23.085 376.247522) scale(0.16 -0.16)">
       <use xlink:href="#DejaVuSans-2212"/>
       <use xlink:href="#DejaVuSans-30" x="83.789062"/>
       <use xlink:href="#DejaVuSans-2e" x="147.412109"/>
       <use xlink:href="#DejaVuSans-30" x="179.199219"/>
       <use xlink:href="#DejaVuSans-30" x="242.822266"/>
       <use xlink:href="#DejaVuSans-35" x="306.445312"/>
      </g>
     </g>
    </g>
    <g id="ytick_3">
     <g id="line2d_91">
      <path d="M 85.7975 269.645861 
L 1090.1975 269.645861 
" clip-path="url(#pe0d066fe32)" style="fill: none; stroke-dasharray: 1.85,0.8; stroke-dashoffset: 0; stroke: #000000; stroke-opacity: 0.5; stroke-width: 0.5"/>
     </g>
     <g id="line2d_92">
      <g>
       <use xlink:href="#mc67efae5b4" x="85.7975" y="269.645861" style="stroke: #000000"/>
      </g>
     </g>
     <g id="line2d_93">
      <g>
       <use xlink:href="#m7830ff7b08" x="1090.1975" y="269.645861" style="stroke: #000000"/>
      </g>
     </g>
     <g id="text_12">
      <!-- 0.000 -->
      <g transform="translate(36.4925 275.724611) scale(0.16 -0.16)">
       <use xlink:href="#DejaVuSans-30"/>
       <use xlink:href="#DejaVuSans-2e" x="63.623047"/>
       <use xlink:href="#DejaVuSans-30" x="95.410156"/>
       <use xlink:href="#DejaVuSans-30" x="159.033203"/>
       <use xlink:href="#DejaVuSans-30" x="222.65625"/>
      </g>
     </g>
    </g>
    <g id="ytick_4">
     <g id="line2d_94">
      <path d="M 85.7975 169.12295 
L 1090.1975 169.12295 
" clip-path="url(#pe0d066fe32)" style="fill: none; stroke-dasharray: 1.85,0.8; stroke-dashoffset: 0; stroke: #000000; stroke-opacity: 0.5; stroke-width: 0.5"/>
     </g>
     <g id="line2d_95">
      <g>
       <use xlink:href="#mc67efae5b4" x="85.7975" y="169.12295" style="stroke: #000000"/>
      </g>
     </g>
     <g id="line2d_96">
      <g>
       <use xlink:href="#m7830ff7b08" x="1090.1975" y="169.12295" style="stroke: #000000"/>
      </g>
     </g>
     <g id="text_13">
      <!-- 0.005 -->
      <g transform="translate(36.4925 175.2017) scale(0.16 -0.16)">
       <use xlink:href="#DejaVuSans-30"/>
       <use xlink:href="#DejaVuSans-2e" x="63.623047"/>
       <use xlink:href="#DejaVuSans-30" x="95.410156"/>
       <use xlink:href="#DejaVuSans-30" x="159.033203"/>
       <use xlink:href="#DejaVuSans-35" x="222.65625"/>
      </g>
     </g>
    </g>
    <g id="ytick_5">
     <g id="line2d_97">
      <path d="M 85.7975 68.600039 
L 1090.1975 68.600039 
" clip-path="url(#pe0d066fe32)" style="fill: none; stroke-dasharray: 1.85,0.8; stroke-dashoffset: 0; stroke: #000000; stroke-opacity: 0.5; stroke-width: 0.5"/>
     </g>
     <g id="line2d_98">
      <g>
       <use xlink:href="#mc67efae5b4" x="85.7975" y="68.600039" style="stroke: #000000"/>
      </g>
     </g>
     <g id="line2d_99">
      <g>
       <use xlink:href="#m7830ff7b08" x="1090.1975" y="68.600039" style="stroke: #000000"/>
      </g>
     </g>
     <g id="text_14">
      <!-- 0.010 -->
      <g transform="translate(36.4925 74.678789) scale(0.16 -0.16)">
       <use xlink:href="#DejaVuSans-30"/>
       <use xlink:href="#DejaVuSans-2e" x="63.623047"/>
       <use xlink:href="#DejaVuSans-30" x="95.410156"/>
       <use xlink:href="#DejaVuSans-31" x="159.033203"/>
       <use xlink:href="#DejaVuSans-30" x="222.65625"/>
      </g>
     </g>
    </g>
    <g id="ytick_6">
     <g id="line2d_100">
      <defs>
       <path id="mf96c72ecff" d="M 0 0 
L 3 0 
" style="stroke: #000000"/>
      </defs>
      <g>
       <use xlink:href="#mf96c72ecff" x="85.7975" y="510.900848" style="stroke: #000000"/>
      </g>
     </g>
     <g id="line2d_101">
      <defs>
       <path id="m3655364478" d="M 0 0 
L -3 0 
" style="stroke: #000000"/>
      </defs>
      <g>
       <use xlink:href="#m3655364478" x="1090.1975" y="510.900848" style="stroke: #000000"/>
      </g>
     </g>
    </g>
    <g id="ytick_7">
     <g id="line2d_102">
      <g>
       <use xlink:href="#mf96c72ecff" x="85.7975" y="490.796266" style="stroke: #000000"/>
      </g>
     </g>
     <g id="line2d_103">
      <g>
       <use xlink:href="#m3655364478" x="1090.1975" y="490.796266" style="stroke: #000000"/>
      </g>
     </g>
    </g>
    <g id="ytick_8">
     <g id="line2d_104">
      <g>
       <use xlink:href="#mf96c72ecff" x="85.7975" y="450.587101" style="stroke: #000000"/>
      </g>
     </g>
     <g id="line2d_105">
      <g>
       <use xlink:href="#m3655364478" x="1090.1975" y="450.587101" style="stroke: #000000"/>
      </g>
     </g>
    </g>
    <g id="ytick_9">
     <g id="line2d_106">
      <g>
       <use xlink:href="#mf96c72ecff" x="85.7975" y="430.482519" style="stroke: #000000"/>
      </g>
     </g>
     <g id="line2d_107">
      <g>
       <use xlink:href="#m3655364478" x="1090.1975" y="430.482519" style="stroke: #000000"/>
      </g>
     </g>
    </g>
    <g id="ytick_10">
     <g id="line2d_108">
      <g>
       <use xlink:href="#mf96c72ecff" x="85.7975" y="410.377937" style="stroke: #000000"/>
      </g>
     </g>
     <g id="line2d_109">
      <g>
       <use xlink:href="#m3655364478" x="1090.1975" y="410.377937" style="stroke: #000000"/>
      </g>
     </g>
    </g>
    <g id="ytick_11">
     <g id="line2d_110">
      <g>
       <use xlink:href="#mf96c72ecff" x="85.7975" y="390.273355" style="stroke: #000000"/>
      </g>
     </g>
     <g id="line2d_111">
      <g>
       <use xlink:href="#m3655364478" x="1090.1975" y="390.273355" style="stroke: #000000"/>
      </g>
     </g>
    </g>
    <g id="ytick_12">
     <g id="line2d_112">
      <g>
       <use xlink:href="#mf96c72ecff" x="85.7975" y="350.06419" style="stroke: #000000"/>
      </g>
     </g>
     <g id="line2d_113">
      <g>
       <use xlink:href="#m3655364478" x="1090.1975" y="350.06419" style="stroke: #000000"/>
      </g>
     </g>
    </g>
    <g id="ytick_13">
     <g id="line2d_114">
      <g>
       <use xlink:href="#mf96c72ecff" x="85.7975" y="329.959608" style="stroke: #000000"/>
      </g>
     </g>
     <g id="line2d_115">
      <g>
       <use xlink:href="#m3655364478" x="1090.1975" y="329.959608" style="stroke: #000000"/>
      </g>
     </g>
    </g>
    <g id="ytick_14">
     <g id="line2d_116">
      <g>
       <use xlink:href="#mf96c72ecff" x="85.7975" y="309.855026" style="stroke: #000000"/>
      </g>
     </g>
     <g id="line2d_117">
      <g>
       <use xlink:href="#m3655364478" x="1090.1975" y="309.855026" style="stroke: #000000"/>
      </g>
     </g>
    </g>
    <g id="ytick_15">
     <g id="line2d_118">
      <g>
       <use xlink:href="#mf96c72ecff" x="85.7975" y="289.750444" style="stroke: #000000"/>
      </g>
     </g>
     <g id="line2d_119">
      <g>
       <use xlink:href="#m3655364478" x="1090.1975" y="289.750444" style="stroke: #000000"/>
      </g>
     </g>
    </g>
    <g id="ytick_16">
     <g id="line2d_120">
      <g>
       <use xlink:href="#mf96c72ecff" x="85.7975" y="249.541279" style="stroke: #000000"/>
      </g>
     </g>
     <g id="line2d_121">
      <g>
       <use xlink:href="#m3655364478" x="1090.1975" y="249.541279" style="stroke: #000000"/>
      </g>
     </g>
    </g>
    <g id="ytick_17">
     <g id="line2d_122">
      <g>
       <use xlink:href="#mf96c72ecff" x="85.7975" y="229.436697" style="stroke: #000000"/>
      </g>
     </g>
     <g id="line2d_123">
      <g>
       <use xlink:href="#m3655364478" x="1090.1975" y="229.436697" style="stroke: #000000"/>
      </g>
     </g>
    </g>
    <g id="ytick_18">
     <g id="line2d_124">
      <g>
       <use xlink:href="#mf96c72ecff" x="85.7975" y="209.332115" style="stroke: #000000"/>
      </g>
     </g>
     <g id="line2d_125">
      <g>
       <use xlink:href="#m3655364478" x="1090.1975" y="209.332115" style="stroke: #000000"/>
      </g>
     </g>
    </g>
    <g id="ytick_19">
     <g id="line2d_126">
      <g>
       <use xlink:href="#mf96c72ecff" x="85.7975" y="189.227533" style="stroke: #000000"/>
      </g>
     </g>
     <g id="line2d_127">
      <g>
       <use xlink:href="#m3655364478" x="1090.1975" y="189.227533" style="stroke: #000000"/>
      </g>
     </g>
    </g>
    <g id="ytick_20">
     <g id="line2d_128">
      <g>
       <use xlink:href="#mf96c72ecff" x="85.7975" y="149.018368" style="stroke: #000000"/>
      </g>
     </g>
     <g id="line2d_129">
      <g>
       <use xlink:href="#m3655364478" x="1090.1975" y="149.018368" style="stroke: #000000"/>
      </g>
     </g>
    </g>
    <g id="ytick_21">
     <g id="line2d_130">
      <g>
       <use xlink:href="#mf96c72ecff" x="85.7975" y="128.913786" style="stroke: #000000"/>
      </g>
     </g>
     <g id="line2d_131">
      <g>
       <use xlink:href="#m3655364478" x="1090.1975" y="128.913786" style="stroke: #000000"/>
      </g>
     </g>
    </g>
    <g id="ytick_22">
     <g id="line2d_132">
      <g>
       <use xlink:href="#mf96c72ecff" x="85.7975" y="108.809204" style="stroke: #000000"/>
      </g>
     </g>
     <g id="line2d_133">
      <g>
       <use xlink:href="#m3655364478" x="1090.1975" y="108.809204" style="stroke: #000000"/>
      </g>
     </g>
    </g>
    <g id="ytick_23">
     <g id="line2d_134">
      <g>
       <use xlink:href="#mf96c72ecff" x="85.7975" y="88.704622" style="stroke: #000000"/>
      </g>
     </g>
     <g id="line2d_135">
      <g>
       <use xlink:href="#m3655364478" x="1090.1975" y="88.704622" style="stroke: #000000"/>
      </g>
     </g>
    </g>
    <g id="ytick_24">
     <g id="line2d_136">
      <g>
       <use xlink:href="#mf96c72ecff" x="85.7975" y="48.495457" style="stroke: #000000"/>
      </g>
     </g>
     <g id="line2d_137">
      <g>
       <use xlink:href="#m3655364478" x="1090.1975" y="48.495457" style="stroke: #000000"/>
      </g>
     </g>
    </g>
    <g id="ytick_25">
     <g id="line2d_138">
      <g>
       <use xlink:href="#mf96c72ecff" x="85.7975" y="28.390875" style="stroke: #000000"/>
      </g>
     </g>
     <g id="line2d_139">
      <g>
       <use xlink:href="#m3655364478" x="1090.1975" y="28.390875" style="stroke: #000000"/>
      </g>
     </g>
    </g>
    <g id="text_15">
     <!-- IDR (%) -->
     <g transform="translate(15.7575 301.7025) rotate(-90) scale(0.16 -0.16)">
      <defs>
       <path id="DejaVuSans-49" d="M 628 4666 
L 1259 4666 
L 1259 0 
L 628 0 
L 628 4666 
z
" transform="scale(0.015625)"/>
       <path id="DejaVuSans-44" d="M 1259 4147 
L 1259 519 
L 2022 519 
Q 2988 519 3436 956 
Q 3884 1394 3884 2338 
Q 3884 3275 3436 3711 
Q 2988 4147 2022 4147 
L 1259 4147 
z
M 628 4666 
L 1925 4666 
Q 3281 4666 3915 4102 
Q 4550 3538 4550 2338 
Q 4550 1131 3912 565 
Q 3275 0 1925 0 
L 628 0 
L 628 4666 
z
" transform="scale(0.015625)"/>
       <path id="DejaVuSans-52" d="M 2841 2188 
Q 3044 2119 3236 1894 
Q 3428 1669 3622 1275 
L 4263 0 
L 3584 0 
L 2988 1197 
Q 2756 1666 2539 1819 
Q 2322 1972 1947 1972 
L 1259 1972 
L 1259 0 
L 628 0 
L 628 4666 
L 2053 4666 
Q 2853 4666 3247 4331 
Q 3641 3997 3641 3322 
Q 3641 2881 3436 2590 
Q 3231 2300 2841 2188 
z
M 1259 4147 
L 1259 2491 
L 2053 2491 
Q 2509 2491 2742 2702 
Q 2975 2913 2975 3322 
Q 2975 3731 2742 3939 
Q 2509 4147 2053 4147 
L 1259 4147 
z
" transform="scale(0.015625)"/>
       <path id="DejaVuSans-20" transform="scale(0.015625)"/>
       <path id="DejaVuSans-25" d="M 4653 2053 
Q 4381 2053 4226 1822 
Q 4072 1591 4072 1178 
Q 4072 772 4226 539 
Q 4381 306 4653 306 
Q 4919 306 5073 539 
Q 5228 772 5228 1178 
Q 5228 1588 5073 1820 
Q 4919 2053 4653 2053 
z
M 4653 2450 
Q 5147 2450 5437 2106 
Q 5728 1763 5728 1178 
Q 5728 594 5436 251 
Q 5144 -91 4653 -91 
Q 4153 -91 3862 251 
Q 3572 594 3572 1178 
Q 3572 1766 3864 2108 
Q 4156 2450 4653 2450 
z
M 1428 4353 
Q 1159 4353 1004 4120 
Q 850 3888 850 3481 
Q 850 3069 1003 2837 
Q 1156 2606 1428 2606 
Q 1700 2606 1854 2837 
Q 2009 3069 2009 3481 
Q 2009 3884 1853 4118 
Q 1697 4353 1428 4353 
z
M 4250 4750 
L 4750 4750 
L 1831 -91 
L 1331 -91 
L 4250 4750 
z
M 1428 4750 
Q 1922 4750 2215 4408 
Q 2509 4066 2509 3481 
Q 2509 2891 2217 2550 
Q 1925 2209 1428 2209 
Q 931 2209 642 2551 
Q 353 2894 353 3481 
Q 353 4063 643 4406 
Q 934 4750 1428 4750 
z
" transform="scale(0.015625)"/>
      </defs>
      <use xlink:href="#DejaVuSans-49"/>
      <use xlink:href="#DejaVuSans-44" x="29.492188"/>
      <use xlink:href="#DejaVuSans-52" x="106.494141"/>
      <use xlink:href="#DejaVuSans-20" x="175.976562"/>
      <use xlink:href="#DejaVuSans-28" x="207.763672"/>
      <use xlink:href="#DejaVuSans-25" x="246.777344"/>
      <use xlink:href="#DejaVuSans-29" x="341.796875"/>
     </g>
    </g>
   </g>
   <g id="line2d_140">
    <path d="M 131.452045 269.645861 
L 131.713078 269.687242 
L 132.235142 270.131853 
L 132.757207 270.770858 
L 133.018239 270.941568 
L 133.279271 270.935089 
L 134.584433 270.197411 
L 137.194756 270.431832 
L 141.11024 270.282912 
L 145.808821 270.553105 
L 146.330885 270.301917 
L 147.375014 269.324299 
L 147.636047 269.353374 
L 147.897079 269.610445 
L 148.419144 270.85918 
L 148.941208 272.044328 
L 149.20224 271.833445 
L 149.724305 269.795727 
L 149.985337 268.765054 
L 150.246369 268.195261 
L 150.507402 268.169458 
L 150.768434 268.65829 
L 151.290499 270.935982 
L 151.812563 273.363867 
L 152.073595 273.82071 
L 152.334628 273.70204 
L 153.639789 271.343539 
L 154.422886 270.683507 
L 154.683918 270.716891 
L 154.94495 271.118288 
L 155.467015 272.350168 
L 155.728047 272.722715 
L 155.98908 272.779539 
L 156.250112 272.427792 
L 156.511144 271.511002 
L 157.294241 266.74564 
L 157.555273 266.077071 
L 157.816306 266.344819 
L 158.077338 267.508 
L 159.121467 274.561464 
L 159.382499 275.225497 
L 159.643531 275.033072 
L 159.904564 273.862641 
L 160.426628 268.954304 
L 160.948693 264.752861 
L 161.209725 264.266296 
L 161.470757 264.746623 
L 162.514887 268.671135 
L 163.036951 269.661055 
L 163.559016 271.661556 
L 163.820048 271.528538 
L 164.342113 268.466272 
L 164.864177 265.836685 
L 165.125209 265.455983 
L 165.386242 265.651633 
L 166.430371 267.716708 
L 166.952435 268.006883 
L 167.213468 268.393796 
L 167.735532 269.530015 
L 167.996564 269.207577 
L 169.040694 266.081373 
L 169.301726 266.034647 
L 169.82379 266.669536 
L 170.345855 267.322331 
L 170.606887 267.446198 
L 171.128952 267.338379 
L 172.434113 266.639324 
L 172.956178 266.675781 
L 173.21721 266.883039 
L 173.478242 267.34344 
L 174.261339 269.4721 
L 174.783404 269.382729 
L 175.044436 268.959549 
L 176.088565 265.397172 
L 176.349597 265.377316 
L 176.871662 266.235365 
L 177.393726 267.423062 
L 177.654759 268.56448 
L 178.176823 272.776415 
L 178.437856 273.642943 
L 178.698888 272.34602 
L 179.481985 264.262144 
L 179.743017 263.254794 
L 180.004049 263.396633 
L 180.526114 265.48819 
L 181.048178 267.327677 
L 181.309211 267.714939 
L 181.570243 267.791716 
L 182.092307 267.423087 
L 182.614372 266.935739 
L 182.875404 266.837625 
L 183.136437 267.028769 
L 183.397469 267.727476 
L 184.963662 275.792948 
L 185.224695 277.887214 
L 185.485727 278.730912 
L 185.746759 276.630649 
L 186.529856 261.954446 
L 186.790888 259.761211 
L 187.051921 259.922416 
L 187.312953 262.108346 
L 188.357082 275.059528 
L 188.618114 275.621138 
L 188.879147 274.745349 
L 189.401211 269.383649 
L 189.662243 266.499574 
L 189.923276 264.941169 
L 190.184308 264.728208 
L 190.706373 265.292167 
L 190.967405 265.970284 
L 191.228437 267.604943 
L 191.750502 274.22701 
L 192.272566 280.561863 
L 192.533599 281.204809 
L 192.794631 279.658534 
L 193.577728 270.513446 
L 193.83876 269.05186 
L 194.360824 267.586184 
L 195.143921 263.127814 
L 195.404954 262.832995 
L 195.665986 263.45013 
L 196.449083 266.996556 
L 196.710115 267.614514 
L 197.23218 268.160873 
L 197.754244 269.303936 
L 198.015276 269.574738 
L 198.276309 269.444369 
L 198.537341 268.653695 
L 199.059406 265.97401 
L 199.320438 265.621576 
L 199.58147 267.56628 
L 200.364567 282.448963 
L 200.625599 282.434258 
L 200.886631 277.827613 
L 201.669728 259.205303 
L 201.930761 258.508713 
L 202.191793 261.724219 
L 202.713857 271.424633 
L 202.97489 273.228524 
L 203.235922 272.262994 
L 204.019019 264.199192 
L 204.280051 263.081545 
L 204.541083 263.037785 
L 205.063148 264.643334 
L 205.846245 267.587888 
L 206.107277 270.099099 
L 206.890374 281.781965 
L 207.151406 280.040409 
L 207.934503 261.691893 
L 208.195535 259.845578 
L 208.456568 262.882925 
L 209.239664 283.822422 
L 209.500697 286.852437 
L 209.761729 286.723078 
L 210.022761 283.872176 
L 210.544826 271.280449 
L 211.06689 257.812379 
L 211.327923 254.977441 
L 211.588955 255.162126 
L 211.849987 257.570077 
L 212.633084 266.872071 
L 212.894116 268.268744 
L 213.155149 268.644792 
L 213.416181 268.270321 
L 213.938245 267.058757 
L 214.199278 267.511115 
L 214.46031 269.375912 
L 214.982374 276.485738 
L 215.504439 282.927161 
L 215.765471 283.700693 
L 216.026504 282.249882 
L 216.548568 273.734823 
L 217.070633 265.369918 
L 217.331665 263.295685 
L 217.592697 262.600279 
L 217.85373 263.23304 
L 218.114762 265.190813 
L 218.897859 273.647809 
L 219.158891 274.795223 
L 219.419923 274.73779 
L 220.20302 272.098746 
L 220.464052 272.815924 
L 221.508181 280.334756 
L 221.769214 279.468554 
L 222.030246 276.791204 
L 223.074375 259.537467 
L 223.335407 259.375194 
L 223.59644 262.301301 
L 224.640569 279.850243 
L 224.901601 279.488239 
L 225.423666 273.226275 
L 225.94573 267.83285 
L 226.206762 266.934967 
L 226.467795 267.129887 
L 227.772956 271.108481 
L 228.033988 271.219179 
L 228.295021 271.119986 
L 228.817085 270.554586 
L 229.33915 269.934546 
L 229.861214 269.714933 
L 230.383279 269.895664 
L 230.905343 270.098434 
L 231.427408 270.022117 
L 231.68844 269.924453 
L 231.949473 270.027518 
L 232.210505 270.8344 
L 232.471537 272.996978 
L 233.515666 288.464691 
L 233.776699 288.41293 
L 234.037731 285.463659 
L 234.559795 272.082896 
L 235.08186 260.396496 
L 235.342892 258.912428 
L 235.603924 259.738232 
L 235.864957 261.22139 
L 236.125989 261.575851 
L 236.387021 260.044795 
L 236.909086 254.831682 
L 237.170118 254.487369 
L 237.43115 257.133745 
L 238.47528 277.31033 
L 238.736312 277.73747 
L 238.997344 275.969117 
L 239.780441 267.939897 
L 240.041473 266.650572 
L 240.302505 266.262911 
L 240.563538 266.711552 
L 240.82457 268.326839 
L 241.085602 271.830322 
L 241.868699 287.088736 
L 242.129731 288.835741 
L 242.390764 288.147183 
L 242.651796 285.729894 
L 243.173861 277.705334 
L 244.479022 249.187978 
L 244.740054 246.569302 
L 245.001086 246.929973 
L 245.262119 250.4376 
L 246.56728 277.651851 
L 246.828312 277.436335 
L 247.089345 275.266895 
L 247.872442 266.596743 
L 248.133474 265.165138 
L 248.394506 264.824386 
L 248.655538 265.958734 
L 248.916571 269.397798 
L 249.699667 285.982014 
L 249.9607 288.058663 
L 250.221732 287.519456 
L 250.743797 281.972964 
L 251.526893 271.342675 
L 252.30999 257.123854 
L 252.571023 255.591591 
L 252.832055 256.452197 
L 253.354119 262.613329 
L 253.876184 269.075149 
L 254.137216 270.05284 
L 254.398248 269.396146 
L 254.920313 267.104266 
L 255.181345 266.545571 
L 255.442378 266.37066 
L 256.747539 266.362526 
L 257.530636 266.22331 
L 257.791668 266.517541 
L 258.0527 268.042181 
L 258.313733 271.732025 
L 258.835797 282.119047 
L 259.096829 285.191732 
L 259.357862 285.512114 
L 259.618894 282.662305 
L 260.924055 255.675378 
L 261.185088 255.59219 
L 261.44612 257.005742 
L 261.968185 262.700419 
L 262.490249 267.956379 
L 262.751281 268.999597 
L 263.012314 268.985756 
L 263.273346 268.205518 
L 263.79541 265.967833 
L 264.056443 265.424912 
L 264.317475 266.259624 
L 264.578507 269.353697 
L 265.361604 283.118414 
L 265.622636 284.375818 
L 265.883669 283.475538 
L 266.405733 277.680154 
L 266.927798 268.506251 
L 267.449862 258.507101 
L 267.710895 255.932461 
L 267.971927 255.723989 
L 268.232959 257.315176 
L 268.755024 261.231319 
L 269.016056 261.595894 
L 269.277088 261.651425 
L 269.538121 262.416601 
L 269.799153 264.342194 
L 270.060185 267.851076 
L 270.843282 281.900214 
L 271.104314 281.048235 
L 271.887411 264.513846 
L 272.148443 263.923881 
L 272.409476 267.043228 
L 272.93154 276.330402 
L 273.192573 279.075759 
L 273.453605 279.874237 
L 273.714637 279.138259 
L 274.758766 273.286513 
L 275.019798 272.854822 
L 275.280831 272.836368 
L 275.802895 273.171927 
L 276.063928 272.531386 
L 276.32496 270.009852 
L 277.108057 255.838051 
L 277.369089 254.027013 
L 277.630121 254.514381 
L 278.152186 259.199921 
L 278.67425 263.180098 
L 278.935283 263.947408 
L 279.196315 263.98432 
L 279.457347 263.673414 
L 279.718379 263.709248 
L 279.979412 264.795533 
L 281.284573 274.794876 
L 281.545605 276.248491 
L 281.806638 276.815433 
L 282.06767 276.474139 
L 282.850767 274.510961 
L 283.111799 273.068842 
L 283.372831 270.061285 
L 284.41696 251.293344 
L 284.677993 251.255154 
L 284.939025 253.613212 
L 285.46109 263.110142 
L 286.244186 279.585722 
L 286.505219 281.822357 
L 286.766251 282.085966 
L 287.027283 280.919538 
L 287.549348 275.49528 
L 288.071412 268.883102 
L 288.332445 266.915206 
L 288.593477 266.271513 
L 288.854509 266.439127 
L 289.115541 266.41746 
L 289.376574 265.175427 
L 290.420703 254.693895 
L 290.681735 254.005901 
L 290.942767 255.001611 
L 291.2038 258.042721 
L 292.247929 277.843084 
L 292.508961 278.062877 
L 292.769993 275.067026 
L 293.292058 265.735544 
L 293.55309 263.687754 
L 293.814122 264.19993 
L 294.336187 267.560874 
L 294.597219 267.430138 
L 295.380316 262.166076 
L 295.641348 262.929206 
L 296.163413 269.241458 
L 297.207542 283.99364 
L 297.468574 284.196873 
L 297.729607 281.195783 
L 299.034768 253.602785 
L 299.2958 251.883551 
L 299.556833 253.107738 
L 299.817865 257.468183 
L 300.600962 274.037204 
L 300.861994 275.886507 
L 301.123026 276.600005 
L 301.384059 278.100098 
L 301.906123 282.398257 
L 302.167155 281.326045 
L 302.428188 276.853109 
L 303.211285 256.39957 
L 303.472317 254.444671 
L 303.733349 256.316916 
L 304.516446 268.75397 
L 304.777478 270.877862 
L 305.03851 271.512415 
L 305.560575 271.267716 
L 305.821607 271.59672 
L 306.08264 272.458713 
L 306.343672 274.013077 
L 306.865736 279.389253 
L 307.387801 284.974382 
L 307.648833 285.67543 
L 307.909866 283.878028 
L 308.170898 279.255402 
L 308.953995 258.522222 
L 309.215027 255.504237 
L 309.476059 255.983312 
L 309.998124 263.623888 
L 310.520188 269.944869 
L 310.781221 271.226578 
L 311.042253 270.998018 
L 311.564317 267.401832 
L 312.086382 264.231007 
L 312.347414 263.640725 
L 312.608447 263.685641 
L 313.130511 264.726876 
L 313.652576 266.205638 
L 313.913608 267.787646 
L 314.696705 276.161085 
L 315.218769 281.25346 
L 315.479802 282.49008 
L 315.740834 282.35844 
L 316.001866 281.07687 
L 318.090124 266.217746 
L 318.351157 266.888411 
L 318.612189 269.57985 
L 319.656318 287.813717 
L 319.91735 288.894705 
L 320.178383 286.586565 
L 320.700447 273.229388 
L 321.222512 257.537863 
L 321.483544 252.416489 
L 321.744576 250.248166 
L 322.005609 251.314946 
L 322.266641 255.354027 
L 323.31077 277.870594 
L 323.571802 279.088483 
L 324.093867 278.704664 
L 324.354899 278.842091 
L 324.615931 279.748907 
L 324.876964 282.082711 
L 325.399028 287.988448 
L 325.66006 287.566064 
L 325.921093 283.840844 
L 326.965222 261.833523 
L 327.226254 262.000639 
L 327.487286 265.551644 
L 328.270383 279.209506 
L 328.531415 281.397121 
L 328.792448 281.882816 
L 329.05348 280.576445 
L 329.836577 273.593767 
L 330.097609 272.374417 
L 330.358641 271.969705 
L 330.619674 272.204073 
L 331.402771 273.864551 
L 331.663803 273.142374 
L 331.924835 270.352123 
L 332.968964 252.306267 
L 333.491029 247.518081 
L 333.752061 246.570486 
L 334.013093 248.345377 
L 334.535158 260.249789 
L 335.318255 280.401405 
L 335.579287 284.261166 
L 335.840319 284.819476 
L 336.101352 282.251523 
L 336.623416 274.410764 
L 336.884448 271.842656 
L 337.145481 270.621474 
L 337.406513 270.503606 
L 337.667545 271.037298 
L 338.18961 272.70496 
L 338.450642 273.906988 
L 338.972707 278.51749 
L 339.233739 281.087387 
L 339.494771 282.330637 
L 339.755803 281.247917 
L 340.277868 272.584888 
L 340.5389 268.230252 
L 340.799933 266.238139 
L 341.060965 266.719918 
L 341.321997 269.046496 
L 342.105094 278.26574 
L 342.366126 278.896451 
L 343.149223 276.258502 
L 343.410255 276.911818 
L 343.671288 279.234098 
L 344.454384 289.520948 
L 344.715417 289.397171 
L 344.976449 285.643149 
L 345.498514 267.914598 
L 346.28161 237.074649 
L 346.542643 232.258403 
L 346.803675 231.761117 
L 347.064707 235.140556 
L 347.586772 249.808435 
L 348.630901 285.616928 
L 348.891933 289.076188 
L 349.152965 288.618396 
L 349.413998 285.040654 
L 349.936062 272.814605 
L 350.458127 258.978025 
L 350.719159 254.592327 
L 350.980191 254.231268 
L 351.241224 258.337787 
L 352.024321 278.339675 
L 352.285353 279.707883 
L 352.546385 276.261085 
L 353.329482 255.036077 
L 353.590514 251.983615 
L 353.851546 252.02481 
L 354.373611 257.267562 
L 354.895676 262.4204 
L 355.156708 264.369177 
L 355.41774 267.366501 
L 355.678772 272.624942 
L 356.200837 289.356006 
L 356.722902 307.403064 
L 356.983934 312.573763 
L 357.244966 313.134362 
L 357.505998 308.658391 
L 358.028063 288.182923 
L 358.550127 269.007157 
L 358.81116 265.388614 
L 359.072192 266.891135 
L 359.855289 283.407634 
L 360.116321 283.529548 
L 360.377353 278.976427 
L 361.421483 249.371576 
L 361.682515 249.451056 
L 361.943547 253.920113 
L 362.987676 283.494297 
L 363.248708 284.826901 
L 363.509741 283.236044 
L 364.031805 275.695444 
L 364.55387 263.578942 
L 365.597999 230.275802 
L 365.859031 231.387489 
L 366.120064 239.873393 
L 367.164193 295.761633 
L 367.425225 297.156203 
L 367.686257 289.549554 
L 368.208322 254.024962 
L 368.730386 216.934766 
L 368.991419 205.790932 
L 369.252451 201.403174 
L 369.513483 204.428095 
L 369.774515 214.553392 
L 371.340709 302.757534 
L 371.862774 309.322251 
L 372.384838 316.299459 
L 372.906903 322.926353 
L 373.167935 322.617539 
L 373.428967 319.349854 
L 374.212064 305.095662 
L 374.473096 303.175289 
L 374.734129 303.108099 
L 375.256193 305.246607 
L 375.517226 304.350831 
L 375.778258 299.638199 
L 376.03929 289.697881 
L 376.300322 272.901813 
L 376.822387 216.188179 
L 377.344452 151.124546 
L 377.605484 132.307175 
L 377.866516 129.910045 
L 378.127548 145.206436 
L 378.649613 218.076115 
L 379.171677 306.136222 
L 379.43271 336.279289 
L 379.693742 350.446794 
L 379.954774 348.4836 
L 380.215807 333.255156 
L 381.520968 215.795239 
L 381.782 211.951087 
L 382.043033 217.042462 
L 383.348194 269.030602 
L 384.131291 288.448829 
L 384.392323 291.686748 
L 384.653355 292.061982 
L 384.914388 289.233446 
L 385.436452 276.557362 
L 386.219549 248.802313 
L 386.741614 229.52031 
L 387.002646 224.669201 
L 387.263678 226.368188 
L 387.52471 235.024407 
L 388.568839 292.975077 
L 388.829872 296.370367 
L 389.090904 291.208724 
L 390.135033 250.904779 
L 390.396065 248.93614 
L 390.657098 252.206614 
L 390.91813 260.866465 
L 391.440195 291.318438 
L 391.962259 325.764883 
L 392.223291 334.424132 
L 392.484324 331.348015 
L 392.745356 314.490089 
L 393.789485 200.81674 
L 394.050517 193.453273 
L 394.31155 199.442018 
L 394.833614 236.862166 
L 395.355679 272.050742 
L 395.616711 278.312297 
L 395.877743 276.674861 
L 396.66084 255.342831 
L 396.921872 253.925657 
L 397.182905 259.729149 
L 397.443937 273.379928 
L 398.227034 331.769168 
L 398.488066 341.94955 
L 398.749098 343.52295 
L 399.010131 338.270734 
L 400.315292 297.833228 
L 400.837357 279.925292 
L 401.881486 227.967391 
L 402.142518 224.05749 
L 402.40355 227.301489 
L 402.664582 236.239117 
L 403.969744 299.265134 
L 404.230776 298.14111 
L 404.491808 289.471895 
L 405.535938 228.847635 
L 405.79697 224.0541 
L 406.058002 226.789513 
L 406.580067 246.740274 
L 407.102131 268.730109 
L 407.363163 276.206152 
L 407.624196 280.274905 
L 407.885228 281.438761 
L 408.14626 281.588538 
L 408.407293 282.820717 
L 408.668325 286.322562 
L 408.929357 292.667055 
L 409.451422 314.112498 
L 410.234519 350.223274 
L 410.495551 355.92527 
L 410.756583 355.993114 
L 411.017615 350.715525 
L 411.53968 329.8009 
L 412.844841 265.323887 
L 413.627938 224.759472 
L 414.150003 205.525982 
L 414.9331 186.590415 
L 415.716196 172.559544 
L 415.977229 170.827333 
L 416.238261 171.925995 
L 416.499293 175.598343 
L 417.021358 189.165469 
L 417.543422 211.224605 
L 418.065487 244.463854 
L 418.587551 300.970624 
L 419.370648 399.544674 
L 419.631681 412.724886 
L 419.892713 409.762421 
L 420.153745 392.068649 
L 420.67581 324.825437 
L 421.458907 199.412105 
L 421.719939 173.679905 
L 421.980971 163.852778 
L 422.242003 170.675197 
L 422.764068 219.598142 
L 423.286132 271.32876 
L 423.547165 286.184449 
L 423.808197 293.42686 
L 424.069229 295.81708 
L 424.330262 296.746094 
L 424.591294 299.067939 
L 424.852326 304.194287 
L 425.635423 326.549894 
L 425.896455 329.33331 
L 426.157488 326.501687 
L 426.679552 306.762167 
L 427.201617 286.582337 
L 427.462649 282.948395 
L 427.723681 284.635067 
L 428.76781 307.267169 
L 429.028843 303.959115 
L 429.289875 295.301674 
L 430.334004 244.070052 
L 430.595036 238.844381 
L 431.378133 231.677202 
L 431.900198 219.086203 
L 432.422262 208.824103 
L 432.683294 209.145611 
L 432.944327 214.11788 
L 433.205359 224.181045 
L 434.51052 293.24756 
L 434.771553 293.129328 
L 435.55465 283.58088 
L 435.815682 283.823688 
L 436.076714 287.879595 
L 436.598779 305.939909 
L 437.381875 336.399634 
L 437.642908 339.04853 
L 437.90394 333.502994 
L 438.164972 318.37802 
L 439.470134 208.986495 
L 439.731166 212.785146 
L 440.253231 245.827032 
L 440.775295 278.781367 
L 441.036327 285.818012 
L 441.29736 286.295128 
L 441.558392 282.176919 
L 442.341489 264.471129 
L 442.602521 261.308497 
L 442.863553 260.060388 
L 443.124586 260.359579 
L 443.907682 264.015264 
L 444.168715 263.714281 
L 444.429747 262.996001 
L 444.690779 264.015068 
L 444.951812 269.128278 
L 445.473876 293.585345 
L 445.995941 314.767322 
L 446.256973 312.763143 
L 446.518005 299.450277 
L 447.04007 246.581808 
L 447.562134 193.533118 
L 447.823167 181.448808 
L 448.084199 182.791087 
L 448.345231 196.529421 
L 449.650393 309.009208 
L 449.911425 313.689413 
L 450.172457 308.19233 
L 451.216586 254.104748 
L 451.477619 250.577013 
L 451.738651 253.1682 
L 451.999683 261.818603 
L 452.521748 296.346569 
L 453.565877 383.752638 
L 453.826909 394.920078 
L 454.087941 399.058613 
L 454.348974 395.235077 
L 454.610006 382.780404 
L 454.871038 361.265977 
L 455.393103 291.080206 
L 456.437232 119.99954 
L 456.698264 98.860594 
L 456.959296 92.392153 
L 457.220329 99.18053 
L 457.742393 136.830058 
L 458.52549 195.208241 
L 459.047555 221.534514 
L 459.830651 251.452975 
L 460.091684 268.00319 
L 460.613748 322.105722 
L 461.396845 411.458026 
L 461.657877 423.882353 
L 461.91891 423.341296 
L 462.179942 410.368893 
L 462.702006 357.267337 
L 463.224071 301.622766 
L 463.485103 285.612643 
L 463.746136 279.786034 
L 464.007168 281.895862 
L 464.529232 291.209486 
L 464.790265 286.521579 
L 465.051297 270.255269 
L 465.573362 210.012006 
L 466.095426 149.392786 
L 466.356458 131.638663 
L 466.617491 124.402307 
L 466.878523 126.027052 
L 467.139555 133.513671 
L 467.66162 159.016863 
L 468.183684 198.849749 
L 468.966781 285.73568 
L 469.488846 346.979781 
L 469.749878 367.521635 
L 470.01091 375.086505 
L 470.271943 368.345553 
L 470.532975 349.192563 
L 471.577104 249.768061 
L 471.838136 244.960196 
L 472.099168 251.857719 
L 472.621233 289.186397 
L 473.143298 326.741591 
L 473.40433 334.965898 
L 473.665362 332.92239 
L 473.926394 320.657814 
L 474.448459 271.675744 
L 474.970524 213.276497 
L 475.231556 193.839115 
L 475.492588 186.491368 
L 475.75362 190.811121 
L 477.058782 247.732065 
L 477.319814 248.404083 
L 477.580846 245.983804 
L 478.363943 235.393978 
L 478.624975 235.801813 
L 478.886008 240.717763 
L 479.408072 264.719628 
L 479.930137 292.470765 
L 480.191169 300.294542 
L 480.452201 301.674348 
L 480.713234 296.182802 
L 481.496331 265.56627 
L 481.757363 263.623869 
L 482.018395 268.064415 
L 482.54046 287.902934 
L 483.323556 326.863087 
L 483.845621 354.660926 
L 484.106653 364.245073 
L 484.367686 369.148935 
L 484.628718 368.838465 
L 484.88975 363.368538 
L 485.411815 339.41381 
L 486.194912 282.982711 
L 486.978008 230.473572 
L 487.500073 214.352168 
L 487.761105 211.246232 
L 488.022137 210.106049 
L 488.28317 210.355738 
L 488.544202 212.368793 
L 488.805234 217.590265 
L 489.849363 254.045526 
L 490.110396 253.577621 
L 490.371428 247.100646 
L 490.893493 230.257737 
L 491.154525 228.965553 
L 491.415557 236.526947 
L 491.937622 274.66167 
L 492.459686 314.683459 
L 492.720718 324.819318 
L 492.981751 326.22837 
L 493.242783 319.819238 
L 495.070009 239.939827 
L 495.853106 220.514869 
L 496.37517 212.015539 
L 496.636203 212.536685 
L 496.897235 221.142979 
L 497.158267 241.798878 
L 497.680332 318.005115 
L 498.202396 392.10561 
L 498.463429 407.223393 
L 498.724461 404.189319 
L 498.985493 385.948373 
L 500.551687 224.108662 
L 500.812719 212.889085 
L 501.073751 207.246628 
L 501.334784 205.399211 
L 501.595816 206.230691 
L 501.856848 210.052054 
L 502.11788 218.420769 
L 502.378913 233.550238 
L 502.900977 289.437205 
L 503.684074 401.757957 
L 503.945106 424.358066 
L 504.206139 431.884303 
L 504.467171 422.902229 
L 504.728203 398.162316 
L 505.250268 312.763839 
L 506.033365 165.781671 
L 506.294397 138.367215 
L 506.555429 128.427752 
L 506.816461 134.032361 
L 507.338526 174.096161 
L 508.121623 236.564999 
L 508.643687 257.571575 
L 508.90472 262.93167 
L 509.165752 264.457254 
L 509.426784 261.889422 
L 510.209881 243.803636 
L 510.470913 243.429671 
L 510.731946 250.535338 
L 510.992978 266.376415 
L 511.515042 323.393486 
L 512.298139 419.00373 
L 512.559172 429.894563 
L 512.820204 424.591269 
L 513.081236 403.520462 
L 513.603301 324.33289 
L 514.64743 144.530745 
L 514.908462 129.868518 
L 515.169494 133.75852 
L 515.430527 152.429995 
L 516.474656 254.955275 
L 516.735688 266.360535 
L 516.99672 268.581741 
L 517.257753 261.751887 
L 517.518785 246.885141 
L 518.823946 144.226595 
L 519.084979 147.475627 
L 519.346011 163.814399 
L 519.868075 227.698683 
L 521.434269 452.084128 
L 521.956334 493.744459 
L 522.217366 498.0375 
L 522.478398 490.434364 
L 522.73943 471.780636 
L 523.261495 407.697388 
L 524.044592 270.238045 
L 525.088721 72.319541 
L 525.349753 49.29846 
L 525.610786 44.4375 
L 525.871818 54.56215 
L 526.393882 98.599821 
L 527.960076 248.826532 
L 528.482141 277.836285 
L 528.743173 284.594851 
L 529.787302 300.480924 
L 530.309367 321.38064 
L 531.092463 356.84008 
L 531.353496 362.597394 
L 531.614528 363.162523 
L 531.87556 358.284313 
L 532.397625 334.225566 
L 533.180722 276.690607 
L 533.963818 209.08838 
L 535.007948 97.627424 
L 535.26898 93.545321 
L 535.530012 106.18681 
L 536.052077 169.993078 
L 537.357238 361.840921 
L 537.61827 381.23064 
L 537.879303 388.947666 
L 538.140335 386.764325 
L 538.401367 376.996142 
L 539.184464 325.929625 
L 539.706529 298.975634 
L 539.967561 293.342908 
L 540.228593 291.678454 
L 540.489625 289.232945 
L 540.750658 280.064964 
L 541.01169 260.099762 
L 542.055819 149.265043 
L 542.316851 149.781601 
L 542.577884 166.317142 
L 543.099948 231.319312 
L 544.144077 387.486457 
L 544.40511 411.014417 
L 544.666142 421.121512 
L 544.927174 417.991853 
L 545.449239 386.806434 
L 545.971303 356.513134 
L 546.232335 349.648227 
L 546.7544 344.411998 
L 547.015432 336.537843 
L 547.276465 319.347592 
L 547.798529 256.592036 
L 548.320594 193.398649 
L 548.581626 181.76896 
L 548.842658 188.157085 
L 549.364723 238.948815 
L 549.886787 294.491856 
L 550.14782 310.472483 
L 550.408852 316.074447 
L 550.669884 311.959294 
L 550.930916 299.409357 
L 552.236078 206.702033 
L 552.49711 204.712707 
L 552.758142 208.969877 
L 554.324336 255.865112 
L 554.846401 277.793868 
L 555.107433 283.520485 
L 555.368465 281.707736 
L 555.629498 271.962048 
L 556.412594 227.864525 
L 556.673627 220.987808 
L 556.934659 220.523323 
L 557.195691 226.989047 
L 557.456723 241.11261 
L 557.978788 288.642492 
L 558.500853 337.730901 
L 558.761885 351.222261 
L 559.022917 352.784774 
L 559.283949 341.481519 
L 559.806014 291.552777 
L 560.328079 245.265638 
L 560.589111 236.414896 
L 560.850143 238.992552 
L 561.111175 250.836541 
L 561.894272 297.501891 
L 562.155304 300.434375 
L 562.416337 293.868011 
L 563.199434 256.487279 
L 563.460466 251.00684 
L 563.721498 250.581253 
L 564.243563 257.46651 
L 564.504595 258.374158 
L 564.765627 253.330166 
L 565.287692 226.865195 
L 565.809756 197.537963 
L 566.070789 188.499867 
L 566.331821 184.666484 
L 566.592853 186.260801 
L 566.853885 193.238104 
L 567.37595 220.573842 
L 568.420079 284.115185 
L 569.203176 316.680554 
L 569.725241 328.584183 
L 569.986273 328.99572 
L 570.247305 325.343018 
L 570.76937 309.131126 
L 572.074531 254.207288 
L 572.335563 253.271228 
L 572.596596 260.168422 
L 573.11866 293.186472 
L 573.640725 330.326592 
L 573.901757 340.320602 
L 574.162789 341.384078 
L 574.423822 334.064486 
L 574.945886 304.172044 
L 575.467951 275.091326 
L 575.728983 266.970712 
L 576.251047 259.485739 
L 576.773112 252.938603 
L 577.817241 232.105246 
L 578.078273 232.035575 
L 578.339306 236.676649 
L 580.166532 294.42331 
L 580.427564 295.065833 
L 580.688596 292.043151 
L 580.949628 285.614064 
L 581.471693 263.733748 
L 582.515822 213.692396 
L 582.776854 206.155913 
L 583.037887 202.290595 
L 583.298919 202.374364 
L 583.559951 206.662187 
L 584.082016 227.584659 
L 584.865113 264.23382 
L 586.431306 317.085947 
L 586.953371 335.688408 
L 587.214403 341.466718 
L 587.475435 344.651399 
L 587.736468 345.940876 
L 588.258532 346.6736 
L 588.519565 346.689536 
L 588.780597 345.897268 
L 589.041629 343.442685 
L 589.563694 332.330909 
L 590.346791 312.675121 
L 591.129887 299.080278 
L 591.39092 288.624526 
L 591.912984 248.897171 
L 592.696081 166.243854 
L 592.957113 149.561717 
L 593.218146 144.028398 
L 593.479178 149.591922 
L 593.74021 164.385244 
L 594.523307 234.900666 
L 595.306404 298.11804 
L 595.567436 309.214679 
L 595.828468 313.216361 
L 596.089501 310.970659 
L 596.611565 294.533007 
L 597.655694 254.30467 
L 597.916727 248.481197 
L 598.177759 246.239997 
L 598.438791 247.5859 
L 599.221888 257.463264 
L 599.48292 256.114165 
L 600.266017 240.474249 
L 600.527049 239.536741 
L 600.788082 243.68969 
L 601.310146 263.908804 
L 601.832211 282.600037 
L 602.093243 284.762033 
L 602.354275 281.129766 
L 602.87634 265.550094 
L 603.137372 261.455916 
L 603.398404 262.800929 
L 603.920469 277.553116 
L 604.181501 284.990192 
L 604.442534 288.215038 
L 604.703566 285.05727 
L 604.964598 274.838157 
L 606.269759 201.548124 
L 606.530792 200.064598 
L 606.791824 204.75047 
L 607.313889 228.983095 
L 608.096985 268.901068 
L 608.358018 275.851978 
L 608.61905 278.557172 
L 608.880082 277.981257 
L 609.141115 276.464746 
L 609.402147 276.278246 
L 609.663179 278.953932 
L 609.924211 285.286632 
L 610.446276 308.311787 
L 610.96834 332.28974 
L 611.229373 338.008653 
L 611.490405 337.758132 
L 611.751437 332.451442 
L 612.273502 312.569967 
L 612.795566 293.167817 
L 613.578663 275.436462 
L 613.839696 265.404693 
L 614.36176 233.317281 
L 614.883825 200.172377 
L 615.144857 191.836728 
L 615.405889 192.577911 
L 615.666921 203.14908 
L 616.188986 245.584554 
L 616.711051 292.123087 
L 616.972083 307.944895 
L 617.233115 316.081345 
L 617.494147 317.076977 
L 617.75518 313.413867 
L 618.277244 298.87486 
L 618.799309 275.695787 
L 620.10447 203.853514 
L 620.365502 203.5647 
L 620.626535 209.643627 
L 621.409632 242.948908 
L 621.931696 264.522316 
L 622.453761 276.968061 
L 622.714793 277.395871 
L 622.975825 273.704034 
L 623.758922 254.896649 
L 624.019954 251.538135 
L 624.280987 250.553715 
L 624.542019 251.720706 
L 624.803051 255.132694 
L 625.064084 261.42962 
L 625.586148 283.252635 
L 626.630277 336.505922 
L 626.891309 342.997282 
L 627.152342 345.753053 
L 627.413374 345.415057 
L 627.674406 341.672024 
L 627.935439 333.194403 
L 628.457503 299.444134 
L 629.501632 208.623373 
L 629.762665 196.560265 
L 630.023697 193.731709 
L 630.284729 200.410309 
L 630.545761 215.688165 
L 631.067826 266.571865 
L 631.850923 359.257162 
L 632.372987 394.13061 
L 632.63402 400.435771 
L 632.895052 401.654225 
L 633.156084 399.927849 
L 633.417116 396.563157 
L 633.939181 384.716819 
L 634.461246 363.276149 
L 635.244342 310.662968 
L 636.027439 261.391383 
L 636.549504 239.198774 
L 637.071568 225.480861 
L 637.332601 222.599669 
L 637.593633 222.457929 
L 637.854665 224.078848 
L 638.115697 227.039239 
L 638.37673 232.198602 
L 638.898794 249.835265 
L 639.681891 290.307371 
L 640.203956 314.812098 
L 640.464988 319.206839 
L 640.72602 316.32473 
L 640.987052 306.447396 
L 641.509117 271.783817 
L 642.292214 217.311594 
L 642.814278 197.851207 
L 643.075311 194.680263 
L 643.336343 195.257194 
L 645.424601 217.020606 
L 645.946666 232.073097 
L 647.512859 291.672896 
L 647.773892 296.652496 
L 648.034924 297.945005 
L 648.295956 294.362328 
L 648.556989 285.081432 
L 649.079053 250.010209 
L 649.86215 190.915946 
L 650.123182 180.645438 
L 650.384214 177.133631 
L 650.645247 179.995344 
L 651.689376 208.513728 
L 651.950408 207.194247 
L 652.472473 199.417653 
L 652.733505 199.803814 
L 652.994537 206.879531 
L 653.25557 221.527017 
L 654.560731 329.885626 
L 654.821763 335.295571 
L 655.082795 333.43334 
L 655.60486 317.770746 
L 656.387957 293.316192 
L 658.476215 239.558084 
L 658.737247 238.887329 
L 658.99828 241.710257 
L 659.520344 253.038493 
L 660.042409 270.000995 
L 661.34757 325.414259 
L 661.608602 325.137032 
L 661.869635 319.726401 
L 663.174796 276.344399 
L 663.435828 275.141962 
L 663.696861 277.260427 
L 664.479958 289.21357 
L 664.74099 289.909752 
L 665.002022 286.799296 
L 665.524087 270.843155 
L 666.568216 225.805887 
L 666.829248 219.629944 
L 667.09028 216.907665 
L 667.351313 216.95148 
L 667.612345 219.259547 
L 667.873377 224.430417 
L 668.395442 244.195928 
L 669.439571 294.126788 
L 669.700603 301.594431 
L 669.961635 305.78155 
L 670.222668 306.790459 
L 670.4837 304.807384 
L 671.005764 294.72344 
L 671.788861 278.18465 
L 672.310926 270.700575 
L 672.571958 268.657633 
L 672.83299 268.289289 
L 673.094023 269.543118 
L 673.87712 277.215497 
L 674.399184 282.691108 
L 674.921249 290.734575 
L 675.443313 301.568589 
L 677.270539 348.701066 
L 677.792604 354.705685 
L 678.053636 356.036743 
L 678.314668 355.154846 
L 678.575701 351.074048 
L 679.097765 332.937719 
L 679.880862 289.671679 
L 680.663959 245.216884 
L 681.186023 230.867447 
L 681.447056 228.668389 
L 681.708088 229.306589 
L 681.96912 232.110005 
L 682.491185 241.681078 
L 683.013249 252.491436 
L 683.274282 255.150681 
L 683.535314 253.993115 
L 683.796346 249.227046 
L 684.579443 229.14945 
L 684.840475 225.371278 
L 685.101507 224.268986 
L 685.36254 225.649812 
L 685.623572 228.938914 
L 686.145637 239.785265 
L 687.189766 265.751708 
L 687.450798 267.277325 
L 687.71183 265.141144 
L 687.972863 259.073105 
L 688.494927 237.758877 
L 689.016992 216.652977 
L 689.278024 211.232172 
L 689.539056 210.602153 
L 689.800088 214.756611 
L 690.322153 233.789943 
L 691.10525 267.234749 
L 691.366282 273.594171 
L 691.627314 276.760932 
L 691.888347 277.127762 
L 692.149379 275.120341 
L 693.193508 260.72941 
L 693.45454 261.152158 
L 693.715573 264.895301 
L 694.237637 281.825062 
L 695.020734 315.464329 
L 695.281766 322.134535 
L 695.542799 324.760499 
L 695.803831 324.006379 
L 696.064863 320.907022 
L 696.84796 305.752987 
L 697.370025 294.813007 
L 697.892089 276.678481 
L 699.719315 198.033856 
L 700.24138 185.383204 
L 700.502412 184.633066 
L 700.763444 187.356931 
L 701.024476 193.192411 
L 701.546541 213.397275 
L 702.59067 266.81697 
L 702.851702 273.796971 
L 703.112735 276.866145 
L 703.373767 276.603503 
L 703.895832 273.684989 
L 704.156864 274.309742 
L 704.417896 277.023673 
L 705.200993 288.934898 
L 705.462025 290.894795 
L 705.723057 290.840001 
L 705.98409 289.626319 
L 706.245122 289.06283 
L 706.506154 290.365468 
L 706.767187 294.463579 
L 707.289251 312.51046 
L 708.072348 347.142136 
L 708.594413 359.728005 
L 708.855445 361.887857 
L 709.116477 361.461069 
L 709.377509 357.845137 
L 709.899574 341.61361 
L 711.7268 272.190822 
L 712.509897 248.373251 
L 713.292994 227.785739 
L 713.815058 215.133279 
L 714.07609 213.915326 
L 714.337123 216.614342 
L 714.859187 228.192788 
L 715.903316 253.287904 
L 716.164349 254.01511 
L 716.425381 250.199679 
L 717.46951 222.555261 
L 717.730542 224.921032 
L 717.991575 232.504996 
L 718.774671 268.809772 
L 719.296736 291.875018 
L 719.557768 299.227727 
L 719.8188 303.160391 
L 720.079833 304.694965 
L 720.340865 304.798626 
L 720.601897 304.644969 
L 720.86293 305.301838 
L 721.123962 307.053736 
L 721.646026 314.266425 
L 722.168091 321.467372 
L 722.951188 327.105015 
L 723.473252 331.177502 
L 723.734285 331.829337 
L 723.995317 331.615348 
L 724.256349 330.268044 
L 724.517381 327.707598 
L 724.778414 323.624489 
L 725.039446 316.509013 
L 725.561511 287.908209 
L 726.866672 187.953657 
L 727.127704 179.733301 
L 727.388737 176.274431 
L 727.649769 175.989111 
L 727.910801 177.857155 
L 728.693898 189.236849 
L 728.95493 189.583001 
L 729.738027 182.927783 
L 729.999059 182.823615 
L 730.260092 185.91906 
L 730.782156 201.784123 
L 732.870414 281.239763 
L 733.914544 311.52388 
L 734.175576 315.933694 
L 734.436608 318.455483 
L 735.219705 321.850236 
L 735.741769 328.855047 
L 736.524866 340.707804 
L 736.785899 340.722701 
L 737.046931 337.24502 
L 738.352092 306.013616 
L 738.613125 294.670414 
L 739.135189 256.321495 
L 739.918286 194.174574 
L 740.179318 184.148191 
L 740.44035 180.291576 
L 740.701383 181.340458 
L 741.223447 191.396454 
L 741.745512 201.709203 
L 742.267576 207.114801 
L 742.528609 209.184044 
L 742.789641 212.447292 
L 743.050673 217.822453 
L 743.572738 236.328007 
L 744.877899 291.517955 
L 745.660996 317.473695 
L 746.705125 356.398417 
L 746.966157 360.021059 
L 747.22719 357.628745 
L 747.488222 348.395216 
L 748.793383 279.232787 
L 749.054416 279.250508 
L 749.315448 284.611885 
L 749.837512 304.924419 
L 751.403706 384.669492 
L 751.664738 388.113909 
L 751.925771 387.384692 
L 752.186803 383.341415 
L 752.708868 367.857265 
L 753.230932 343.9655 
L 754.797126 253.0455 
L 755.841255 210.639724 
L 756.885384 155.866079 
L 757.668481 130.554283 
L 758.190545 119.829999 
L 758.451578 119.333743 
L 758.71261 123.01456 
L 758.973642 130.718962 
L 759.234674 142.716602 
L 759.756739 182.55136 
L 760.539836 254.586272 
L 760.800868 269.138971 
L 761.0619 276.276565 
L 761.322933 277.223476 
L 761.844997 273.265421 
L 762.10603 274.171435 
L 762.367062 278.811199 
L 762.889126 297.589058 
L 763.672223 328.279619 
L 764.45532 347.834429 
L 764.977385 355.534344 
L 765.238417 356.293885 
L 765.499449 355.736503 
L 765.760481 354.662607 
L 766.021514 352.58477 
L 766.543578 343.421917 
L 767.326675 327.92422 
L 767.587707 325.47024 
L 767.84874 324.556272 
L 768.109772 324.760809 
L 768.892869 328.167896 
L 769.153901 326.989129 
L 769.414933 322.600388 
L 769.675966 314.078214 
L 770.19803 284.738018 
L 770.981127 219.642459 
L 771.503192 179.659084 
L 771.764224 167.78316 
L 772.025256 162.728948 
L 772.286288 163.601031 
L 772.808353 174.188251 
L 773.59145 191.478584 
L 774.374547 203.515934 
L 775.679708 229.409184 
L 776.201773 243.509846 
L 776.984869 266.278537 
L 777.245902 269.563915 
L 777.506934 269.203793 
L 777.767966 265.398753 
L 778.812095 241.7111 
L 779.073128 242.772003 
L 779.595192 253.787735 
L 779.856224 259.201235 
L 780.117257 261.979091 
L 780.378289 261.832247 
L 780.900354 258.520974 
L 781.161386 258.811922 
L 781.422418 261.7133 
L 781.68345 267.755488 
L 782.72758 301.601062 
L 782.988612 303.899843 
L 783.249644 302.007539 
L 783.771709 288.300812 
L 784.554805 262.949928 
L 784.815838 259.051626 
L 785.07687 259.347903 
L 785.337902 264.0544 
L 785.859967 283.588229 
L 786.643064 314.872586 
L 786.904096 321.5451 
L 787.165128 324.894506 
L 787.426161 324.369392 
L 787.687193 320.617516 
L 788.47029 305.302471 
L 788.731322 302.755195 
L 788.992354 301.914532 
L 789.253386 302.024775 
L 789.514419 301.8151 
L 789.775451 299.970058 
L 790.036483 295.687067 
L 790.558548 280.369206 
L 791.602677 247.310785 
L 792.385774 230.362814 
L 792.646806 226.312657 
L 792.907838 224.206487 
L 793.168871 224.81462 
L 793.690935 232.048587 
L 794.213 239.631595 
L 794.996097 246.003985 
L 796.56229 268.202313 
L 796.823323 269.198925 
L 797.084355 269.725989 
L 797.345387 270.823512 
L 797.867452 275.794531 
L 798.389516 283.669823 
L 799.172613 295.936679 
L 799.694678 300.613103 
L 799.95571 299.978031 
L 800.216742 296.21812 
L 800.999839 277.7417 
L 801.521904 272.774884 
L 801.782936 270.394847 
L 802.305 260.460633 
L 802.827065 248.880484 
L 803.088097 245.457834 
L 803.34913 243.838554 
L 803.610162 243.406988 
L 803.871194 243.42 
L 804.132226 243.644549 
L 804.393259 244.310258 
L 804.654291 245.776183 
L 804.915323 248.650204 
L 805.437388 259.80445 
L 807.003581 296.473799 
L 807.525646 304.744912 
L 807.786678 306.700967 
L 808.308743 308.675093 
L 808.830807 312.759741 
L 809.874936 322.818284 
L 810.135969 321.57479 
L 810.397001 316.92927 
L 810.919066 299.962491 
L 811.44113 282.376776 
L 812.224227 264.771892 
L 812.746292 256.543269 
L 813.268356 251.884558 
L 813.529388 248.455833 
L 814.051453 236.824464 
L 814.83455 209.506301 
L 815.356614 192.406102 
L 815.617647 187.043 
L 815.878679 184.53768 
L 816.139711 185.259393 
L 816.400743 189.076256 
L 816.922808 204.576562 
L 817.705905 240.961451 
L 818.750034 291.558025 
L 819.011066 298.419521 
L 819.272098 301.898634 
L 819.533131 302.216637 
L 819.794163 299.797305 
L 820.57726 287.981802 
L 820.838292 288.218911 
L 821.099324 291.64136 
L 822.143454 315.494472 
L 822.404486 317.67762 
L 822.665518 317.068267 
L 822.92655 314.169107 
L 823.448615 301.83005 
L 824.231712 277.915332 
L 824.753776 268.962347 
L 825.014809 267.660788 
L 825.275841 268.22327 
L 825.536873 270.733549 
L 826.058938 280.794805 
L 826.581002 289.769282 
L 827.364099 295.758566 
L 827.886164 301.394881 
L 828.147196 302.145286 
L 828.408228 300.085204 
L 828.66926 294.677781 
L 829.974422 253.22984 
L 830.496486 246.149844 
L 831.018551 240.937878 
L 831.279583 239.366766 
L 831.540616 239.663215 
L 831.801648 242.598372 
L 832.323712 256.532869 
L 832.845777 271.97784 
L 833.367841 280.808663 
L 833.628874 282.318011 
L 833.889906 282.193417 
L 834.673003 279.339555 
L 835.195067 276.440495 
L 835.978164 274.269412 
L 836.239197 273.062253 
L 836.500229 272.557783 
L 836.761261 272.490974 
L 837.022293 272.044608 
L 837.544358 269.68324 
L 837.80539 267.657632 
L 838.066423 264.063612 
L 838.588487 250.567015 
L 839.371584 224.899749 
L 839.632616 219.327327 
L 839.893648 216.480618 
L 840.154681 216.500132 
L 840.415713 219.114359 
L 840.937778 229.372678 
L 842.242939 259.362982 
L 843.026036 283.820851 
L 843.287068 288.265339 
L 843.809133 291.389785 
L 844.070165 293.072404 
L 844.331197 295.701849 
L 844.853262 304.832994 
L 845.375326 315.26734 
L 845.636359 317.267549 
L 845.897391 316.221941 
L 846.158423 312.226441 
L 846.680488 296.694907 
L 847.463585 269.863974 
L 847.985649 258.244355 
L 848.768746 242.675913 
L 850.073907 212.118416 
L 850.33494 209.54668 
L 850.595972 208.904814 
L 851.118036 209.057245 
L 851.640101 208.903597 
L 851.901133 209.176358 
L 852.162166 209.9442 
L 852.68423 212.995693 
L 852.945262 215.567139 
L 853.467327 224.804437 
L 854.511456 250.484992 
L 855.033521 259.087993 
L 855.555585 265.022855 
L 857.121779 276.537077 
L 857.382811 276.79276 
L 857.643843 276.585717 
L 857.904876 277.630113 
L 858.165908 281.036095 
L 858.687972 293.773567 
L 859.210037 307.660945 
L 859.732102 316.061263 
L 859.993134 317.915613 
L 860.254166 318.343661 
L 860.515198 317.610943 
L 861.82036 310.771176 
L 862.081392 311.105329 
L 862.342424 313.024196 
L 863.125521 323.27037 
L 863.647586 330.216466 
L 863.908618 331.623834 
L 864.16965 330.605293 
L 864.430683 327.262243 
L 864.691715 321.54677 
L 865.213779 302.827831 
L 866.257909 260.863133 
L 866.779973 251.98034 
L 867.041005 250.415761 
L 867.302038 249.88381 
L 867.56307 250.131415 
L 867.824102 251.274473 
L 868.085134 253.426958 
L 868.346167 256.661637 
L 868.868231 268.003998 
L 870.173393 307.777294 
L 870.95649 321.401584 
L 871.217522 324.101799 
L 871.478554 325.410039 
L 871.739586 325.492141 
L 872.000619 324.499363 
L 872.522683 320.332061 
L 873.044748 316.342685 
L 873.827845 312.525406 
L 874.871974 303.068383 
L 875.394038 296.312305 
L 875.916103 284.111255 
L 876.960232 254.126884 
L 877.743329 238.033655 
L 878.265393 231.345547 
L 878.787458 228.337811 
L 879.570555 226.304569 
L 880.092619 223.202917 
L 880.614684 217.987804 
L 881.136748 210.346303 
L 881.919845 198.292668 
L 882.180878 195.964355 
L 882.44191 194.682226 
L 882.702942 194.682798 
L 882.963974 196.212402 
L 884.008103 207.036401 
L 884.530168 210.02356 
L 884.7912 212.621024 
L 885.313265 222.125296 
L 885.835329 237.51327 
L 886.357394 260.036702 
L 887.401523 312.541898 
L 887.662555 319.172086 
L 887.923588 321.397755 
L 888.18462 320.487107 
L 888.706684 314.415359 
L 889.228749 308.40543 
L 890.53391 298.171745 
L 891.055975 290.412347 
L 891.57804 279.944385 
L 893.405265 234.211334 
L 893.92733 227.624217 
L 894.188362 226.757482 
L 894.449395 227.39209 
L 894.971459 229.657187 
L 895.232491 229.959846 
L 895.493524 229.345887 
L 896.015588 225.458645 
L 896.537653 222.043934 
L 896.798685 221.25271 
L 897.059717 221.578359 
L 897.32075 223.497271 
L 897.842814 232.032904 
L 898.364879 244.983345 
L 899.147976 271.466194 
L 900.714169 330.534579 
L 901.236234 340.002466 
L 901.497266 341.428164 
L 901.758298 340.460754 
L 902.280363 334.196482 
L 902.802427 325.407956 
L 903.585524 310.751007 
L 904.107589 305.230506 
L 904.629653 302.467977 
L 905.151718 299.869681 
L 905.41275 297.864848 
L 905.673783 294.771136 
L 906.717912 277.334568 
L 906.978944 276.753767 
L 907.239976 278.360411 
L 908.023073 285.057227 
L 908.545138 288.24147 
L 908.80617 289.208262 
L 909.067202 289.505697 
L 909.328234 289.205995 
L 910.372364 286.124256 
L 910.633396 285.275623 
L 910.894428 283.764553 
L 911.677525 276.031488 
L 912.460622 266.509067 
L 913.504751 250.855198 
L 914.026815 245.759961 
L 914.809912 240.731434 
L 915.331977 238.263046 
L 915.593009 238.430007 
L 915.854041 240.572239 
L 916.376106 248.65815 
L 917.159203 264.190049 
L 918.203332 286.55445 
L 918.986429 299.385806 
L 919.247461 300.892321 
L 919.769526 301.376158 
L 920.29159 302.402953 
L 920.552622 301.708221 
L 920.813655 299.158416 
L 922.379848 270.351884 
L 924.729139 226.857426 
L 924.990171 223.223067 
L 925.251203 221.187358 
L 925.512236 221.428691 
L 925.773268 223.682035 
L 926.556365 233.119075 
L 927.078429 236.422331 
L 927.600494 238.914607 
L 928.122558 239.988602 
L 928.383591 241.080101 
L 928.905655 245.942889 
L 929.42772 254.839326 
L 931.77701 310.489374 
L 932.038043 313.906156 
L 932.299075 315.180073 
L 932.560107 313.812641 
L 932.821139 309.758627 
L 933.343204 295.590311 
L 934.126301 272.647048 
L 934.648365 264.355009 
L 935.17043 260.590534 
L 935.431462 259.964221 
L 935.692495 260.00134 
L 935.953527 259.782324 
L 936.214559 258.50362 
L 936.736624 253.200784 
L 937.780753 239.565413 
L 938.041785 238.581741 
L 938.302817 240.057373 
L 938.56385 243.97625 
L 939.346946 263.296851 
L 939.869011 274.223476 
L 940.130043 276.54382 
L 940.391076 277.247755 
L 940.652108 276.869092 
L 940.91314 275.420916 
L 941.174172 272.688114 
L 942.218301 257.714435 
L 943.523463 248.522294 
L 943.784495 247.664131 
L 944.045527 247.967084 
L 944.567592 250.996985 
L 945.872753 260.169909 
L 946.65585 270.045983 
L 946.916883 271.558218 
L 947.177915 271.375616 
L 947.699979 269.37147 
L 947.961012 270.307648 
L 948.222044 273.499448 
L 949.266173 292.582979 
L 949.527205 293.695026 
L 949.788238 292.15589 
L 950.310302 283.217887 
L 950.832367 274.465817 
L 951.093399 272.783195 
L 951.354431 272.846938 
L 951.876496 275.068616 
L 952.39856 278.792134 
L 953.442689 287.508932 
L 953.703722 288.110308 
L 953.964754 287.714617 
L 954.225786 286.374753 
L 954.486819 284.02679 
L 955.008883 276.45466 
L 955.79198 264.757357 
L 956.314045 260.361226 
L 956.575077 259.890073 
L 956.836109 260.811436 
L 957.880238 268.975101 
L 958.14127 269.694851 
L 958.402303 269.667069 
L 958.924367 268.441012 
L 959.446432 267.221551 
L 959.707464 266.871074 
L 959.968496 266.74103 
L 960.229529 266.837167 
L 960.751593 267.548698 
L 961.012626 268.438797 
L 961.53469 271.978532 
L 961.795722 272.705951 
L 962.056755 271.905081 
L 962.578819 267.459541 
L 963.883981 253.222901 
L 964.406045 248.967696 
L 964.667077 247.918235 
L 964.92811 247.643828 
L 965.189142 248.309821 
L 965.450174 250.190725 
L 965.972239 257.577608 
L 968.060497 291.190165 
L 968.321529 291.83911 
L 968.843594 289.371232 
L 969.104626 288.327076 
L 969.626691 287.402193 
L 970.409788 286.175624 
L 970.67082 286.16888 
L 970.931852 287.140773 
L 971.714949 293.821795 
L 971.975981 294.671781 
L 972.237013 294.370371 
L 972.498046 293.080268 
L 973.02011 287.98469 
L 973.542175 281.637793 
L 974.064239 277.939215 
L 974.325272 277.144091 
L 974.586304 277.835487 
L 975.108369 283.305356 
L 976.152498 296.874266 
L 976.674562 300.492478 
L 976.935594 300.905561 
L 977.196627 299.748038 
L 977.718691 292.77142 
L 979.284885 266.381523 
L 980.590046 250.342645 
L 981.373143 240.056019 
L 981.895208 236.154021 
L 982.417272 234.300645 
L 982.939337 233.641197 
L 983.200369 233.822381 
L 983.983466 236.468829 
L 984.244498 236.339293 
L 984.505531 235.455523 
L 985.288627 231.164131 
L 985.54966 230.985087 
L 985.810692 232.718153 
L 986.332757 241.718749 
L 987.115853 257.059623 
L 987.637918 264.878555 
L 988.159982 269.910432 
L 990.248241 285.713269 
L 990.770305 288.853682 
L 991.814434 297.623976 
L 992.597531 299.958318 
L 992.858563 300.529145 
L 993.119596 300.474511 
L 993.380628 299.815406 
L 993.902693 297.138143 
L 994.946822 291.303461 
L 995.990951 287.491511 
L 996.774048 283.091879 
L 997.557144 280.096236 
L 998.079209 276.505583 
L 998.862306 267.261777 
L 999.645403 258.789572 
L 999.906435 256.857021 
L 1000.167467 255.759998 
L 1001.733661 252.685697 
L 1002.255725 251.327954 
L 1002.516758 251.117477 
L 1002.77779 251.498136 
L 1003.299855 252.717433 
L 1003.560887 252.691132 
L 1004.082951 252.066341 
L 1004.343984 252.384549 
L 1004.605016 253.177321 
L 1004.866048 254.49552 
L 1005.910177 261.923357 
L 1006.17121 262.265862 
L 1006.432242 262.043748 
L 1006.954306 260.842789 
L 1007.998436 258.069701 
L 1008.259468 257.81708 
L 1008.5205 257.898779 
L 1008.781532 258.365211 
L 1009.303597 260.318218 
L 1010.086694 264.694564 
L 1010.869791 269.495654 
L 1011.391855 271.496043 
L 1011.652887 272.07188 
L 1011.91392 272.33744 
L 1012.174952 272.249659 
L 1012.435984 271.826896 
L 1012.958049 270.292904 
L 1013.741146 267.983185 
L 1014.002178 267.668817 
L 1014.26321 267.772699 
L 1014.524243 268.357051 
L 1015.046307 270.704644 
L 1015.568372 273.188749 
L 1015.829404 273.953222 
L 1016.090436 274.341504 
L 1017.134565 274.934725 
L 1019.483856 279.079879 
L 1019.744888 279.26695 
L 1020.00592 279.238042 
L 1020.266953 278.958595 
L 1020.789017 277.656651 
L 1021.572114 275.432216 
L 1022.094179 274.678735 
L 1022.877275 273.769836 
L 1023.660372 272.423845 
L 1025.748631 268.188108 
L 1026.270695 267.821896 
L 1026.531727 267.838218 
L 1027.053792 268.204185 
L 1028.358953 269.534299 
L 1028.881018 269.570014 
L 1030.186179 269.215032 
L 1031.230308 269.396069 
L 1032.796502 269.173531 
L 1033.579599 269.253699 
L 1035.406825 269.161248 
L 1036.711986 269.357114 
L 1041.932632 269.48197 
L 1044.542955 269.552013 
L 1044.542955 269.552013 
" clip-path="url(#pe0d066fe32)" style="fill: none; stroke: #0c5da5; stroke-width: 2; stroke-linecap: square"/>
   </g>
   <g id="patch_3">
    <path d="M 85.7975 520.7175 
L 85.7975 21.7575 
" style="fill: none; stroke: #000000; stroke-linejoin: miter; stroke-linecap: square"/>
   </g>
   <g id="patch_4">
    <path d="M 1090.1975 520.7175 
L 1090.1975 21.7575 
" style="fill: none; stroke: #000000; stroke-linejoin: miter; stroke-linecap: square"/>
   </g>
   <g id="patch_5">
    <path d="M 85.7975 520.7175 
L 1090.1975 520.7175 
" style="fill: none; stroke: #000000; stroke-linejoin: miter; stroke-linecap: square"/>
   </g>
   <g id="patch_6">
    <path d="M 85.7975 21.7575 
L 1090.1975 21.7575 
" style="fill: none; stroke: #000000; stroke-linejoin: miter; stroke-linecap: square"/>
   </g>
   <g id="text_16">
    <!-- Northridge-01 Record no. 944 -->
    <g transform="translate(469.0575 15.7575) scale(0.16 -0.16)">
     <defs>
      <path id="DejaVuSans-4e" d="M 628 4666 
L 1478 4666 
L 3547 763 
L 3547 4666 
L 4159 4666 
L 4159 0 
L 3309 0 
L 1241 3903 
L 1241 0 
L 628 0 
L 628 4666 
z
" transform="scale(0.015625)"/>
      <path id="DejaVuSans-6f" d="M 1959 3097 
Q 1497 3097 1228 2736 
Q 959 2375 959 1747 
Q 959 1119 1226 758 
Q 1494 397 1959 397 
Q 2419 397 2687 759 
Q 2956 1122 2956 1747 
Q 2956 2369 2687 2733 
Q 2419 3097 1959 3097 
z
M 1959 3584 
Q 2709 3584 3137 3096 
Q 3566 2609 3566 1747 
Q 3566 888 3137 398 
Q 2709 -91 1959 -91 
Q 1206 -91 779 398 
Q 353 888 353 1747 
Q 353 2609 779 3096 
Q 1206 3584 1959 3584 
z
" transform="scale(0.015625)"/>
      <path id="DejaVuSans-72" d="M 2631 2963 
Q 2534 3019 2420 3045 
Q 2306 3072 2169 3072 
Q 1681 3072 1420 2755 
Q 1159 2438 1159 1844 
L 1159 0 
L 581 0 
L 581 3500 
L 1159 3500 
L 1159 2956 
Q 1341 3275 1631 3429 
Q 1922 3584 2338 3584 
Q 2397 3584 2469 3576 
Q 2541 3569 2628 3553 
L 2631 2963 
z
" transform="scale(0.015625)"/>
      <path id="DejaVuSans-74" d="M 1172 4494 
L 1172 3500 
L 2356 3500 
L 2356 3053 
L 1172 3053 
L 1172 1153 
Q 1172 725 1289 603 
Q 1406 481 1766 481 
L 2356 481 
L 2356 0 
L 1766 0 
Q 1100 0 847 248 
Q 594 497 594 1153 
L 594 3053 
L 172 3053 
L 172 3500 
L 594 3500 
L 594 4494 
L 1172 4494 
z
" transform="scale(0.015625)"/>
      <path id="DejaVuSans-68" d="M 3513 2113 
L 3513 0 
L 2938 0 
L 2938 2094 
Q 2938 2591 2744 2837 
Q 2550 3084 2163 3084 
Q 1697 3084 1428 2787 
Q 1159 2491 1159 1978 
L 1159 0 
L 581 0 
L 581 4863 
L 1159 4863 
L 1159 2956 
Q 1366 3272 1645 3428 
Q 1925 3584 2291 3584 
Q 2894 3584 3203 3211 
Q 3513 2838 3513 2113 
z
" transform="scale(0.015625)"/>
      <path id="DejaVuSans-64" d="M 2906 2969 
L 2906 4863 
L 3481 4863 
L 3481 0 
L 2906 0 
L 2906 525 
Q 2725 213 2448 61 
Q 2172 -91 1784 -91 
Q 1150 -91 751 415 
Q 353 922 353 1747 
Q 353 2572 751 3078 
Q 1150 3584 1784 3584 
Q 2172 3584 2448 3432 
Q 2725 3281 2906 2969 
z
M 947 1747 
Q 947 1113 1208 752 
Q 1469 391 1925 391 
Q 2381 391 2643 752 
Q 2906 1113 2906 1747 
Q 2906 2381 2643 2742 
Q 2381 3103 1925 3103 
Q 1469 3103 1208 2742 
Q 947 2381 947 1747 
z
" transform="scale(0.015625)"/>
      <path id="DejaVuSans-67" d="M 2906 1791 
Q 2906 2416 2648 2759 
Q 2391 3103 1925 3103 
Q 1463 3103 1205 2759 
Q 947 2416 947 1791 
Q 947 1169 1205 825 
Q 1463 481 1925 481 
Q 2391 481 2648 825 
Q 2906 1169 2906 1791 
z
M 3481 434 
Q 3481 -459 3084 -895 
Q 2688 -1331 1869 -1331 
Q 1566 -1331 1297 -1286 
Q 1028 -1241 775 -1147 
L 775 -588 
Q 1028 -725 1275 -790 
Q 1522 -856 1778 -856 
Q 2344 -856 2625 -561 
Q 2906 -266 2906 331 
L 2906 616 
Q 2728 306 2450 153 
Q 2172 0 1784 0 
Q 1141 0 747 490 
Q 353 981 353 1791 
Q 353 2603 747 3093 
Q 1141 3584 1784 3584 
Q 2172 3584 2450 3431 
Q 2728 3278 2906 2969 
L 2906 3500 
L 3481 3500 
L 3481 434 
z
" transform="scale(0.015625)"/>
      <path id="DejaVuSans-2d" d="M 313 2009 
L 1997 2009 
L 1997 1497 
L 313 1497 
L 313 2009 
z
" transform="scale(0.015625)"/>
      <path id="DejaVuSans-63" d="M 3122 3366 
L 3122 2828 
Q 2878 2963 2633 3030 
Q 2388 3097 2138 3097 
Q 1578 3097 1268 2742 
Q 959 2388 959 1747 
Q 959 1106 1268 751 
Q 1578 397 2138 397 
Q 2388 397 2633 464 
Q 2878 531 3122 666 
L 3122 134 
Q 2881 22 2623 -34 
Q 2366 -91 2075 -91 
Q 1284 -91 818 406 
Q 353 903 353 1747 
Q 353 2603 823 3093 
Q 1294 3584 2113 3584 
Q 2378 3584 2631 3529 
Q 2884 3475 3122 3366 
z
" transform="scale(0.015625)"/>
      <path id="DejaVuSans-6e" d="M 3513 2113 
L 3513 0 
L 2938 0 
L 2938 2094 
Q 2938 2591 2744 2837 
Q 2550 3084 2163 3084 
Q 1697 3084 1428 2787 
Q 1159 2491 1159 1978 
L 1159 0 
L 581 0 
L 581 3500 
L 1159 3500 
L 1159 2956 
Q 1366 3272 1645 3428 
Q 1925 3584 2291 3584 
Q 2894 3584 3203 3211 
Q 3513 2838 3513 2113 
z
" transform="scale(0.015625)"/>
      <path id="DejaVuSans-39" d="M 703 97 
L 703 672 
Q 941 559 1184 500 
Q 1428 441 1663 441 
Q 2288 441 2617 861 
Q 2947 1281 2994 2138 
Q 2813 1869 2534 1725 
Q 2256 1581 1919 1581 
Q 1219 1581 811 2004 
Q 403 2428 403 3163 
Q 403 3881 828 4315 
Q 1253 4750 1959 4750 
Q 2769 4750 3195 4129 
Q 3622 3509 3622 2328 
Q 3622 1225 3098 567 
Q 2575 -91 1691 -91 
Q 1453 -91 1209 -44 
Q 966 3 703 97 
z
M 1959 2075 
Q 2384 2075 2632 2365 
Q 2881 2656 2881 3163 
Q 2881 3666 2632 3958 
Q 2384 4250 1959 4250 
Q 1534 4250 1286 3958 
Q 1038 3666 1038 3163 
Q 1038 2656 1286 2365 
Q 1534 2075 1959 2075 
z
" transform="scale(0.015625)"/>
      <path id="DejaVuSans-34" d="M 2419 4116 
L 825 1625 
L 2419 1625 
L 2419 4116 
z
M 2253 4666 
L 3047 4666 
L 3047 1625 
L 3713 1625 
L 3713 1100 
L 3047 1100 
L 3047 0 
L 2419 0 
L 2419 1100 
L 313 1100 
L 313 1709 
L 2253 4666 
z
" transform="scale(0.015625)"/>
     </defs>
     <use xlink:href="#DejaVuSans-4e"/>
     <use xlink:href="#DejaVuSans-6f" x="74.804688"/>
     <use xlink:href="#DejaVuSans-72" x="135.986328"/>
     <use xlink:href="#DejaVuSans-74" x="177.099609"/>
     <use xlink:href="#DejaVuSans-68" x="216.308594"/>
     <use xlink:href="#DejaVuSans-72" x="279.6875"/>
     <use xlink:href="#DejaVuSans-69" x="320.800781"/>
     <use xlink:href="#DejaVuSans-64" x="348.583984"/>
     <use xlink:href="#DejaVuSans-67" x="412.060547"/>
     <use xlink:href="#DejaVuSans-65" x="475.537109"/>
     <use xlink:href="#DejaVuSans-2d" x="537.060547"/>
     <use xlink:href="#DejaVuSans-30" x="573.144531"/>
     <use xlink:href="#DejaVuSans-31" x="636.767578"/>
     <use xlink:href="#DejaVuSans-20" x="700.390625"/>
     <use xlink:href="#DejaVuSans-52" x="732.177734"/>
     <use xlink:href="#DejaVuSans-65" x="797.160156"/>
     <use xlink:href="#DejaVuSans-63" x="858.683594"/>
     <use xlink:href="#DejaVuSans-6f" x="913.664062"/>
     <use xlink:href="#DejaVuSans-72" x="974.845703"/>
     <use xlink:href="#DejaVuSans-64" x="1014.208984"/>
     <use xlink:href="#DejaVuSans-20" x="1077.685547"/>
     <use xlink:href="#DejaVuSans-6e" x="1109.472656"/>
     <use xlink:href="#DejaVuSans-6f" x="1172.851562"/>
     <use xlink:href="#DejaVuSans-2e" x="1232.283203"/>
     <use xlink:href="#DejaVuSans-20" x="1264.070312"/>
     <use xlink:href="#DejaVuSans-39" x="1295.857422"/>
     <use xlink:href="#DejaVuSans-34" x="1359.480469"/>
     <use xlink:href="#DejaVuSans-34" x="1423.103516"/>
    </g>
   </g>
  </g>
 </g>
 <defs>
  <clipPath id="pe0d066fe32">
   <rect x="85.7975" y="21.7575" width="1004.4" height="498.96"/>
  </clipPath>
 </defs>
</svg>
