<?xml version="1.0" encoding="utf-8" standalone="no"?>
<!DOCTYPE svg PUBLIC "-//W3C//DTD SVG 1.1//EN"
  "http://www.w3.org/Graphics/SVG/1.1/DTD/svg11.dtd">
<svg xmlns:xlink="http://www.w3.org/1999/xlink" width="1074.7525pt" height="396.4675pt" viewBox="0 0 1074.7525 396.4675" xmlns="http://www.w3.org/2000/svg" version="1.1">
 <metadata>
  <rdf:RDF xmlns:dc="http://purl.org/dc/elements/1.1/" xmlns:cc="http://creativecommons.org/ns#" xmlns:rdf="http://www.w3.org/1999/02/22-rdf-syntax-ns#">
   <cc:Work>
    <dc:type rdf:resource="http://purl.org/dc/dcmitype/StillImage"/>
    <dc:date>2023-06-06T10:20:47.088117</dc:date>
    <dc:format>image/svg+xml</dc:format>
    <dc:creator>
     <cc:Agent>
      <dc:title>Matplotlib v3.7.1, https://matplotlib.org/</dc:title>
     </cc:Agent>
    </dc:creator>
   </cc:Work>
  </rdf:RDF>
 </metadata>
 <defs>
  <style type="text/css">*{stroke-linejoin: round; stroke-linecap: butt}</style>
 </defs>
 <g id="figure_1">
  <g id="patch_1">
   <path d="M 0 396.4675 
L 1074.7525 396.4675 
L 1074.7525 0 
L 0 0 
z
" style="fill: #ffffff"/>
  </g>
  <g id="axes_1">
   <g id="patch_2">
    <path d="M 66.7525 354.3975 
L 1071.1525 354.3975 
L 1071.1525 21.7575 
L 66.7525 21.7575 
z
" style="fill: #ffffff"/>
   </g>
   <g id="matplotlib.axis_1">
    <g id="xtick_1">
     <g id="line2d_1">
      <path d="M 112.407045 354.3975 
L 112.407045 21.7575 
" clip-path="url(#pda599f02dd)" style="fill: none; stroke-dasharray: 1.85,0.8; stroke-dashoffset: 0; stroke: #000000; stroke-opacity: 0.5; stroke-width: 0.5"/>
     </g>
     <g id="line2d_2">
      <defs>
       <path id="m6cae65f5b6" d="M 0 0 
L 0 -6 
" style="stroke: #000000"/>
      </defs>
      <g>
       <use xlink:href="#m6cae65f5b6" x="112.407045" y="354.3975" style="stroke: #000000"/>
      </g>
     </g>
     <g id="line2d_3">
      <defs>
       <path id="m7973dc7c93" d="M 0 0 
L 0 6 
" style="stroke: #000000"/>
      </defs>
      <g>
       <use xlink:href="#m7973dc7c93" x="112.407045" y="21.7575" style="stroke: #000000"/>
      </g>
     </g>
     <g id="text_1">
      <!-- 0 -->
      <g transform="translate(107.317045 370.055) scale(0.16 -0.16)">
       <defs>
        <path id="DejaVuSans-30" d="M 2034 4250 
Q 1547 4250 1301 3770 
Q 1056 3291 1056 2328 
Q 1056 1369 1301 889 
Q 1547 409 2034 409 
Q 2525 409 2770 889 
Q 3016 1369 3016 2328 
Q 3016 3291 2770 3770 
Q 2525 4250 2034 4250 
z
M 2034 4750 
Q 2819 4750 3233 4129 
Q 3647 3509 3647 2328 
Q 3647 1150 3233 529 
Q 2819 -91 2034 -91 
Q 1250 -91 836 529 
Q 422 1150 422 2328 
Q 422 3509 836 4129 
Q 1250 4750 2034 4750 
z
" transform="scale(0.015625)"/>
       </defs>
       <use xlink:href="#DejaVuSans-30"/>
      </g>
     </g>
    </g>
    <g id="xtick_2">
     <g id="line2d_4">
      <path d="M 320.022077 354.3975 
L 320.022077 21.7575 
" clip-path="url(#pda599f02dd)" style="fill: none; stroke-dasharray: 1.85,0.8; stroke-dashoffset: 0; stroke: #000000; stroke-opacity: 0.5; stroke-width: 0.5"/>
     </g>
     <g id="line2d_5">
      <g>
       <use xlink:href="#m6cae65f5b6" x="320.022077" y="354.3975" style="stroke: #000000"/>
      </g>
     </g>
     <g id="line2d_6">
      <g>
       <use xlink:href="#m7973dc7c93" x="320.022077" y="21.7575" style="stroke: #000000"/>
      </g>
     </g>
     <g id="text_2">
      <!-- 10 -->
      <g transform="translate(309.842077 370.055) scale(0.16 -0.16)">
       <defs>
        <path id="DejaVuSans-31" d="M 794 531 
L 1825 531 
L 1825 4091 
L 703 3866 
L 703 4441 
L 1819 4666 
L 2450 4666 
L 2450 531 
L 3481 531 
L 3481 0 
L 794 0 
L 794 531 
z
" transform="scale(0.015625)"/>
       </defs>
       <use xlink:href="#DejaVuSans-31"/>
       <use xlink:href="#DejaVuSans-30" x="63.623047"/>
      </g>
     </g>
    </g>
    <g id="xtick_3">
     <g id="line2d_7">
      <path d="M 527.637109 354.3975 
L 527.637109 21.7575 
" clip-path="url(#pda599f02dd)" style="fill: none; stroke-dasharray: 1.85,0.8; stroke-dashoffset: 0; stroke: #000000; stroke-opacity: 0.5; stroke-width: 0.5"/>
     </g>
     <g id="line2d_8">
      <g>
       <use xlink:href="#m6cae65f5b6" x="527.637109" y="354.3975" style="stroke: #000000"/>
      </g>
     </g>
     <g id="line2d_9">
      <g>
       <use xlink:href="#m7973dc7c93" x="527.637109" y="21.7575" style="stroke: #000000"/>
      </g>
     </g>
     <g id="text_3">
      <!-- 20 -->
      <g transform="translate(517.457109 370.055) scale(0.16 -0.16)">
       <defs>
        <path id="DejaVuSans-32" d="M 1228 531 
L 3431 531 
L 3431 0 
L 469 0 
L 469 531 
Q 828 903 1448 1529 
Q 2069 2156 2228 2338 
Q 2531 2678 2651 2914 
Q 2772 3150 2772 3378 
Q 2772 3750 2511 3984 
Q 2250 4219 1831 4219 
Q 1534 4219 1204 4116 
Q 875 4013 500 3803 
L 500 4441 
Q 881 4594 1212 4672 
Q 1544 4750 1819 4750 
Q 2544 4750 2975 4387 
Q 3406 4025 3406 3419 
Q 3406 3131 3298 2873 
Q 3191 2616 2906 2266 
Q 2828 2175 2409 1742 
Q 1991 1309 1228 531 
z
" transform="scale(0.015625)"/>
       </defs>
       <use xlink:href="#DejaVuSans-32"/>
       <use xlink:href="#DejaVuSans-30" x="63.623047"/>
      </g>
     </g>
    </g>
    <g id="xtick_4">
     <g id="line2d_10">
      <path d="M 735.25214 354.3975 
L 735.25214 21.7575 
" clip-path="url(#pda599f02dd)" style="fill: none; stroke-dasharray: 1.85,0.8; stroke-dashoffset: 0; stroke: #000000; stroke-opacity: 0.5; stroke-width: 0.5"/>
     </g>
     <g id="line2d_11">
      <g>
       <use xlink:href="#m6cae65f5b6" x="735.25214" y="354.3975" style="stroke: #000000"/>
      </g>
     </g>
     <g id="line2d_12">
      <g>
       <use xlink:href="#m7973dc7c93" x="735.25214" y="21.7575" style="stroke: #000000"/>
      </g>
     </g>
     <g id="text_4">
      <!-- 30 -->
      <g transform="translate(725.07214 370.055) scale(0.16 -0.16)">
       <defs>
        <path id="DejaVuSans-33" d="M 2597 2516 
Q 3050 2419 3304 2112 
Q 3559 1806 3559 1356 
Q 3559 666 3084 287 
Q 2609 -91 1734 -91 
Q 1441 -91 1130 -33 
Q 819 25 488 141 
L 488 750 
Q 750 597 1062 519 
Q 1375 441 1716 441 
Q 2309 441 2620 675 
Q 2931 909 2931 1356 
Q 2931 1769 2642 2001 
Q 2353 2234 1838 2234 
L 1294 2234 
L 1294 2753 
L 1863 2753 
Q 2328 2753 2575 2939 
Q 2822 3125 2822 3475 
Q 2822 3834 2567 4026 
Q 2313 4219 1838 4219 
Q 1578 4219 1281 4162 
Q 984 4106 628 3988 
L 628 4550 
Q 988 4650 1302 4700 
Q 1616 4750 1894 4750 
Q 2613 4750 3031 4423 
Q 3450 4097 3450 3541 
Q 3450 3153 3228 2886 
Q 3006 2619 2597 2516 
z
" transform="scale(0.015625)"/>
       </defs>
       <use xlink:href="#DejaVuSans-33"/>
       <use xlink:href="#DejaVuSans-30" x="63.623047"/>
      </g>
     </g>
    </g>
    <g id="xtick_5">
     <g id="line2d_13">
      <path d="M 942.867172 354.3975 
L 942.867172 21.7575 
" clip-path="url(#pda599f02dd)" style="fill: none; stroke-dasharray: 1.85,0.8; stroke-dashoffset: 0; stroke: #000000; stroke-opacity: 0.5; stroke-width: 0.5"/>
     </g>
     <g id="line2d_14">
      <g>
       <use xlink:href="#m6cae65f5b6" x="942.867172" y="354.3975" style="stroke: #000000"/>
      </g>
     </g>
     <g id="line2d_15">
      <g>
       <use xlink:href="#m7973dc7c93" x="942.867172" y="21.7575" style="stroke: #000000"/>
      </g>
     </g>
     <g id="text_5">
      <!-- 40 -->
      <g transform="translate(932.687172 370.055) scale(0.16 -0.16)">
       <defs>
        <path id="DejaVuSans-34" d="M 2419 4116 
L 825 1625 
L 2419 1625 
L 2419 4116 
z
M 2253 4666 
L 3047 4666 
L 3047 1625 
L 3713 1625 
L 3713 1100 
L 3047 1100 
L 3047 0 
L 2419 0 
L 2419 1100 
L 313 1100 
L 313 1709 
L 2253 4666 
z
" transform="scale(0.015625)"/>
       </defs>
       <use xlink:href="#DejaVuSans-34"/>
       <use xlink:href="#DejaVuSans-30" x="63.623047"/>
      </g>
     </g>
    </g>
    <g id="xtick_6">
     <g id="line2d_16">
      <defs>
       <path id="m52bc79d409" d="M 0 0 
L 0 -3 
" style="stroke: #000000"/>
      </defs>
      <g>
       <use xlink:href="#m52bc79d409" x="70.884039" y="354.3975" style="stroke: #000000"/>
      </g>
     </g>
     <g id="line2d_17">
      <defs>
       <path id="m15c9b4aff9" d="M 0 0 
L 0 3 
" style="stroke: #000000"/>
      </defs>
      <g>
       <use xlink:href="#m15c9b4aff9" x="70.884039" y="21.7575" style="stroke: #000000"/>
      </g>
     </g>
    </g>
    <g id="xtick_7">
     <g id="line2d_18">
      <g>
       <use xlink:href="#m52bc79d409" x="153.930052" y="354.3975" style="stroke: #000000"/>
      </g>
     </g>
     <g id="line2d_19">
      <g>
       <use xlink:href="#m15c9b4aff9" x="153.930052" y="21.7575" style="stroke: #000000"/>
      </g>
     </g>
    </g>
    <g id="xtick_8">
     <g id="line2d_20">
      <g>
       <use xlink:href="#m52bc79d409" x="195.453058" y="354.3975" style="stroke: #000000"/>
      </g>
     </g>
     <g id="line2d_21">
      <g>
       <use xlink:href="#m15c9b4aff9" x="195.453058" y="21.7575" style="stroke: #000000"/>
      </g>
     </g>
    </g>
    <g id="xtick_9">
     <g id="line2d_22">
      <g>
       <use xlink:href="#m52bc79d409" x="236.976064" y="354.3975" style="stroke: #000000"/>
      </g>
     </g>
     <g id="line2d_23">
      <g>
       <use xlink:href="#m15c9b4aff9" x="236.976064" y="21.7575" style="stroke: #000000"/>
      </g>
     </g>
    </g>
    <g id="xtick_10">
     <g id="line2d_24">
      <g>
       <use xlink:href="#m52bc79d409" x="278.499071" y="354.3975" style="stroke: #000000"/>
      </g>
     </g>
     <g id="line2d_25">
      <g>
       <use xlink:href="#m15c9b4aff9" x="278.499071" y="21.7575" style="stroke: #000000"/>
      </g>
     </g>
    </g>
    <g id="xtick_11">
     <g id="line2d_26">
      <g>
       <use xlink:href="#m52bc79d409" x="361.545083" y="354.3975" style="stroke: #000000"/>
      </g>
     </g>
     <g id="line2d_27">
      <g>
       <use xlink:href="#m15c9b4aff9" x="361.545083" y="21.7575" style="stroke: #000000"/>
      </g>
     </g>
    </g>
    <g id="xtick_12">
     <g id="line2d_28">
      <g>
       <use xlink:href="#m52bc79d409" x="403.06809" y="354.3975" style="stroke: #000000"/>
      </g>
     </g>
     <g id="line2d_29">
      <g>
       <use xlink:href="#m15c9b4aff9" x="403.06809" y="21.7575" style="stroke: #000000"/>
      </g>
     </g>
    </g>
    <g id="xtick_13">
     <g id="line2d_30">
      <g>
       <use xlink:href="#m52bc79d409" x="444.591096" y="354.3975" style="stroke: #000000"/>
      </g>
     </g>
     <g id="line2d_31">
      <g>
       <use xlink:href="#m15c9b4aff9" x="444.591096" y="21.7575" style="stroke: #000000"/>
      </g>
     </g>
    </g>
    <g id="xtick_14">
     <g id="line2d_32">
      <g>
       <use xlink:href="#m52bc79d409" x="486.114102" y="354.3975" style="stroke: #000000"/>
      </g>
     </g>
     <g id="line2d_33">
      <g>
       <use xlink:href="#m15c9b4aff9" x="486.114102" y="21.7575" style="stroke: #000000"/>
      </g>
     </g>
    </g>
    <g id="xtick_15">
     <g id="line2d_34">
      <g>
       <use xlink:href="#m52bc79d409" x="569.160115" y="354.3975" style="stroke: #000000"/>
      </g>
     </g>
     <g id="line2d_35">
      <g>
       <use xlink:href="#m15c9b4aff9" x="569.160115" y="21.7575" style="stroke: #000000"/>
      </g>
     </g>
    </g>
    <g id="xtick_16">
     <g id="line2d_36">
      <g>
       <use xlink:href="#m52bc79d409" x="610.683121" y="354.3975" style="stroke: #000000"/>
      </g>
     </g>
     <g id="line2d_37">
      <g>
       <use xlink:href="#m15c9b4aff9" x="610.683121" y="21.7575" style="stroke: #000000"/>
      </g>
     </g>
    </g>
    <g id="xtick_17">
     <g id="line2d_38">
      <g>
       <use xlink:href="#m52bc79d409" x="652.206128" y="354.3975" style="stroke: #000000"/>
      </g>
     </g>
     <g id="line2d_39">
      <g>
       <use xlink:href="#m15c9b4aff9" x="652.206128" y="21.7575" style="stroke: #000000"/>
      </g>
     </g>
    </g>
    <g id="xtick_18">
     <g id="line2d_40">
      <g>
       <use xlink:href="#m52bc79d409" x="693.729134" y="354.3975" style="stroke: #000000"/>
      </g>
     </g>
     <g id="line2d_41">
      <g>
       <use xlink:href="#m15c9b4aff9" x="693.729134" y="21.7575" style="stroke: #000000"/>
      </g>
     </g>
    </g>
    <g id="xtick_19">
     <g id="line2d_42">
      <g>
       <use xlink:href="#m52bc79d409" x="776.775147" y="354.3975" style="stroke: #000000"/>
      </g>
     </g>
     <g id="line2d_43">
      <g>
       <use xlink:href="#m15c9b4aff9" x="776.775147" y="21.7575" style="stroke: #000000"/>
      </g>
     </g>
    </g>
    <g id="xtick_20">
     <g id="line2d_44">
      <g>
       <use xlink:href="#m52bc79d409" x="818.298153" y="354.3975" style="stroke: #000000"/>
      </g>
     </g>
     <g id="line2d_45">
      <g>
       <use xlink:href="#m15c9b4aff9" x="818.298153" y="21.7575" style="stroke: #000000"/>
      </g>
     </g>
    </g>
    <g id="xtick_21">
     <g id="line2d_46">
      <g>
       <use xlink:href="#m52bc79d409" x="859.821159" y="354.3975" style="stroke: #000000"/>
      </g>
     </g>
     <g id="line2d_47">
      <g>
       <use xlink:href="#m15c9b4aff9" x="859.821159" y="21.7575" style="stroke: #000000"/>
      </g>
     </g>
    </g>
    <g id="xtick_22">
     <g id="line2d_48">
      <g>
       <use xlink:href="#m52bc79d409" x="901.344166" y="354.3975" style="stroke: #000000"/>
      </g>
     </g>
     <g id="line2d_49">
      <g>
       <use xlink:href="#m15c9b4aff9" x="901.344166" y="21.7575" style="stroke: #000000"/>
      </g>
     </g>
    </g>
    <g id="xtick_23">
     <g id="line2d_50">
      <g>
       <use xlink:href="#m52bc79d409" x="984.390178" y="354.3975" style="stroke: #000000"/>
      </g>
     </g>
     <g id="line2d_51">
      <g>
       <use xlink:href="#m15c9b4aff9" x="984.390178" y="21.7575" style="stroke: #000000"/>
      </g>
     </g>
    </g>
    <g id="xtick_24">
     <g id="line2d_52">
      <g>
       <use xlink:href="#m52bc79d409" x="1025.913185" y="354.3975" style="stroke: #000000"/>
      </g>
     </g>
     <g id="line2d_53">
      <g>
       <use xlink:href="#m15c9b4aff9" x="1025.913185" y="21.7575" style="stroke: #000000"/>
      </g>
     </g>
    </g>
    <g id="xtick_25">
     <g id="line2d_54">
      <g>
       <use xlink:href="#m52bc79d409" x="1067.436191" y="354.3975" style="stroke: #000000"/>
      </g>
     </g>
     <g id="line2d_55">
      <g>
       <use xlink:href="#m15c9b4aff9" x="1067.436191" y="21.7575" style="stroke: #000000"/>
      </g>
     </g>
    </g>
    <g id="text_6">
     <!-- Time(s) -->
     <g transform="translate(538.96875 389.54) scale(0.16 -0.16)">
      <defs>
       <path id="DejaVuSans-54" d="M -19 4666 
L 3928 4666 
L 3928 4134 
L 2272 4134 
L 2272 0 
L 1638 0 
L 1638 4134 
L -19 4134 
L -19 4666 
z
" transform="scale(0.015625)"/>
       <path id="DejaVuSans-69" d="M 603 3500 
L 1178 3500 
L 1178 0 
L 603 0 
L 603 3500 
z
M 603 4863 
L 1178 4863 
L 1178 4134 
L 603 4134 
L 603 4863 
z
" transform="scale(0.015625)"/>
       <path id="DejaVuSans-6d" d="M 3328 2828 
Q 3544 3216 3844 3400 
Q 4144 3584 4550 3584 
Q 5097 3584 5394 3201 
Q 5691 2819 5691 2113 
L 5691 0 
L 5113 0 
L 5113 2094 
Q 5113 2597 4934 2840 
Q 4756 3084 4391 3084 
Q 3944 3084 3684 2787 
Q 3425 2491 3425 1978 
L 3425 0 
L 2847 0 
L 2847 2094 
Q 2847 2600 2669 2842 
Q 2491 3084 2119 3084 
Q 1678 3084 1418 2786 
Q 1159 2488 1159 1978 
L 1159 0 
L 581 0 
L 581 3500 
L 1159 3500 
L 1159 2956 
Q 1356 3278 1631 3431 
Q 1906 3584 2284 3584 
Q 2666 3584 2933 3390 
Q 3200 3197 3328 2828 
z
" transform="scale(0.015625)"/>
       <path id="DejaVuSans-65" d="M 3597 1894 
L 3597 1613 
L 953 1613 
Q 991 1019 1311 708 
Q 1631 397 2203 397 
Q 2534 397 2845 478 
Q 3156 559 3463 722 
L 3463 178 
Q 3153 47 2828 -22 
Q 2503 -91 2169 -91 
Q 1331 -91 842 396 
Q 353 884 353 1716 
Q 353 2575 817 3079 
Q 1281 3584 2069 3584 
Q 2775 3584 3186 3129 
Q 3597 2675 3597 1894 
z
M 3022 2063 
Q 3016 2534 2758 2815 
Q 2500 3097 2075 3097 
Q 1594 3097 1305 2825 
Q 1016 2553 972 2059 
L 3022 2063 
z
" transform="scale(0.015625)"/>
       <path id="DejaVuSans-28" d="M 1984 4856 
Q 1566 4138 1362 3434 
Q 1159 2731 1159 2009 
Q 1159 1288 1364 580 
Q 1569 -128 1984 -844 
L 1484 -844 
Q 1016 -109 783 600 
Q 550 1309 550 2009 
Q 550 2706 781 3412 
Q 1013 4119 1484 4856 
L 1984 4856 
z
" transform="scale(0.015625)"/>
       <path id="DejaVuSans-73" d="M 2834 3397 
L 2834 2853 
Q 2591 2978 2328 3040 
Q 2066 3103 1784 3103 
Q 1356 3103 1142 2972 
Q 928 2841 928 2578 
Q 928 2378 1081 2264 
Q 1234 2150 1697 2047 
L 1894 2003 
Q 2506 1872 2764 1633 
Q 3022 1394 3022 966 
Q 3022 478 2636 193 
Q 2250 -91 1575 -91 
Q 1294 -91 989 -36 
Q 684 19 347 128 
L 347 722 
Q 666 556 975 473 
Q 1284 391 1588 391 
Q 1994 391 2212 530 
Q 2431 669 2431 922 
Q 2431 1156 2273 1281 
Q 2116 1406 1581 1522 
L 1381 1569 
Q 847 1681 609 1914 
Q 372 2147 372 2553 
Q 372 3047 722 3315 
Q 1072 3584 1716 3584 
Q 2034 3584 2315 3537 
Q 2597 3491 2834 3397 
z
" transform="scale(0.015625)"/>
       <path id="DejaVuSans-29" d="M 513 4856 
L 1013 4856 
Q 1481 4119 1714 3412 
Q 1947 2706 1947 2009 
Q 1947 1309 1714 600 
Q 1481 -109 1013 -844 
L 513 -844 
Q 928 -128 1133 580 
Q 1338 1288 1338 2009 
Q 1338 2731 1133 3434 
Q 928 4138 513 4856 
z
" transform="scale(0.015625)"/>
      </defs>
      <use xlink:href="#DejaVuSans-54"/>
      <use xlink:href="#DejaVuSans-69" x="57.958984"/>
      <use xlink:href="#DejaVuSans-6d" x="85.742188"/>
      <use xlink:href="#DejaVuSans-65" x="183.154297"/>
      <use xlink:href="#DejaVuSans-28" x="244.677734"/>
      <use xlink:href="#DejaVuSans-73" x="283.691406"/>
      <use xlink:href="#DejaVuSans-29" x="335.791016"/>
     </g>
    </g>
   </g>
   <g id="matplotlib.axis_2">
    <g id="ytick_1">
     <g id="line2d_56">
      <path d="M 66.7525 301.451406 
L 1071.1525 301.451406 
" clip-path="url(#pda599f02dd)" style="fill: none; stroke-dasharray: 1.85,0.8; stroke-dashoffset: 0; stroke: #000000; stroke-opacity: 0.5; stroke-width: 0.5"/>
     </g>
     <g id="line2d_57">
      <defs>
       <path id="mf0c6ec11b5" d="M 0 0 
L 6 0 
" style="stroke: #000000"/>
      </defs>
      <g>
       <use xlink:href="#mf0c6ec11b5" x="66.7525" y="301.451406" style="stroke: #000000"/>
      </g>
     </g>
     <g id="line2d_58">
      <defs>
       <path id="mce6e7fd875" d="M 0 0 
L -6 0 
" style="stroke: #000000"/>
      </defs>
      <g>
       <use xlink:href="#mce6e7fd875" x="1071.1525" y="301.451406" style="stroke: #000000"/>
      </g>
     </g>
     <g id="text_7">
      <!-- −0.4 -->
      <g transform="translate(24.4 307.530156) scale(0.16 -0.16)">
       <defs>
        <path id="DejaVuSans-2212" d="M 678 2272 
L 4684 2272 
L 4684 1741 
L 678 1741 
L 678 2272 
z
" transform="scale(0.015625)"/>
        <path id="DejaVuSans-2e" d="M 684 794 
L 1344 794 
L 1344 0 
L 684 0 
L 684 794 
z
" transform="scale(0.015625)"/>
       </defs>
       <use xlink:href="#DejaVuSans-2212"/>
       <use xlink:href="#DejaVuSans-30" x="83.789062"/>
       <use xlink:href="#DejaVuSans-2e" x="147.412109"/>
       <use xlink:href="#DejaVuSans-34" x="179.199219"/>
      </g>
     </g>
    </g>
    <g id="ytick_2">
     <g id="line2d_59">
      <path d="M 66.7525 238.692275 
L 1071.1525 238.692275 
" clip-path="url(#pda599f02dd)" style="fill: none; stroke-dasharray: 1.85,0.8; stroke-dashoffset: 0; stroke: #000000; stroke-opacity: 0.5; stroke-width: 0.5"/>
     </g>
     <g id="line2d_60">
      <g>
       <use xlink:href="#mf0c6ec11b5" x="66.7525" y="238.692275" style="stroke: #000000"/>
      </g>
     </g>
     <g id="line2d_61">
      <g>
       <use xlink:href="#mce6e7fd875" x="1071.1525" y="238.692275" style="stroke: #000000"/>
      </g>
     </g>
     <g id="text_8">
      <!-- −0.2 -->
      <g transform="translate(24.4 244.771025) scale(0.16 -0.16)">
       <use xlink:href="#DejaVuSans-2212"/>
       <use xlink:href="#DejaVuSans-30" x="83.789062"/>
       <use xlink:href="#DejaVuSans-2e" x="147.412109"/>
       <use xlink:href="#DejaVuSans-32" x="179.199219"/>
      </g>
     </g>
    </g>
    <g id="ytick_3">
     <g id="line2d_62">
      <path d="M 66.7525 175.933144 
L 1071.1525 175.933144 
" clip-path="url(#pda599f02dd)" style="fill: none; stroke-dasharray: 1.85,0.8; stroke-dashoffset: 0; stroke: #000000; stroke-opacity: 0.5; stroke-width: 0.5"/>
     </g>
     <g id="line2d_63">
      <g>
       <use xlink:href="#mf0c6ec11b5" x="66.7525" y="175.933144" style="stroke: #000000"/>
      </g>
     </g>
     <g id="line2d_64">
      <g>
       <use xlink:href="#mce6e7fd875" x="1071.1525" y="175.933144" style="stroke: #000000"/>
      </g>
     </g>
     <g id="text_9">
      <!-- 0.0 -->
      <g transform="translate(37.8075 182.011894) scale(0.16 -0.16)">
       <use xlink:href="#DejaVuSans-30"/>
       <use xlink:href="#DejaVuSans-2e" x="63.623047"/>
       <use xlink:href="#DejaVuSans-30" x="95.410156"/>
      </g>
     </g>
    </g>
    <g id="ytick_4">
     <g id="line2d_65">
      <path d="M 66.7525 113.174012 
L 1071.1525 113.174012 
" clip-path="url(#pda599f02dd)" style="fill: none; stroke-dasharray: 1.85,0.8; stroke-dashoffset: 0; stroke: #000000; stroke-opacity: 0.5; stroke-width: 0.5"/>
     </g>
     <g id="line2d_66">
      <g>
       <use xlink:href="#mf0c6ec11b5" x="66.7525" y="113.174012" style="stroke: #000000"/>
      </g>
     </g>
     <g id="line2d_67">
      <g>
       <use xlink:href="#mce6e7fd875" x="1071.1525" y="113.174012" style="stroke: #000000"/>
      </g>
     </g>
     <g id="text_10">
      <!-- 0.2 -->
      <g transform="translate(37.8075 119.252762) scale(0.16 -0.16)">
       <use xlink:href="#DejaVuSans-30"/>
       <use xlink:href="#DejaVuSans-2e" x="63.623047"/>
       <use xlink:href="#DejaVuSans-32" x="95.410156"/>
      </g>
     </g>
    </g>
    <g id="ytick_5">
     <g id="line2d_68">
      <path d="M 66.7525 50.414881 
L 1071.1525 50.414881 
" clip-path="url(#pda599f02dd)" style="fill: none; stroke-dasharray: 1.85,0.8; stroke-dashoffset: 0; stroke: #000000; stroke-opacity: 0.5; stroke-width: 0.5"/>
     </g>
     <g id="line2d_69">
      <g>
       <use xlink:href="#mf0c6ec11b5" x="66.7525" y="50.414881" style="stroke: #000000"/>
      </g>
     </g>
     <g id="line2d_70">
      <g>
       <use xlink:href="#mce6e7fd875" x="1071.1525" y="50.414881" style="stroke: #000000"/>
      </g>
     </g>
     <g id="text_11">
      <!-- 0.4 -->
      <g transform="translate(37.8075 56.493631) scale(0.16 -0.16)">
       <use xlink:href="#DejaVuSans-30"/>
       <use xlink:href="#DejaVuSans-2e" x="63.623047"/>
       <use xlink:href="#DejaVuSans-34" x="95.410156"/>
      </g>
     </g>
    </g>
    <g id="ytick_6">
     <g id="line2d_71">
      <defs>
       <path id="m5dda566277" d="M 0 0 
L 3 0 
" style="stroke: #000000"/>
      </defs>
      <g>
       <use xlink:href="#m5dda566277" x="66.7525" y="348.520755" style="stroke: #000000"/>
      </g>
     </g>
     <g id="line2d_72">
      <defs>
       <path id="m31d2dd8078" d="M 0 0 
L -3 0 
" style="stroke: #000000"/>
      </defs>
      <g>
       <use xlink:href="#m31d2dd8078" x="1071.1525" y="348.520755" style="stroke: #000000"/>
      </g>
     </g>
    </g>
    <g id="ytick_7">
     <g id="line2d_73">
      <g>
       <use xlink:href="#m5dda566277" x="66.7525" y="332.830972" style="stroke: #000000"/>
      </g>
     </g>
     <g id="line2d_74">
      <g>
       <use xlink:href="#m31d2dd8078" x="1071.1525" y="332.830972" style="stroke: #000000"/>
      </g>
     </g>
    </g>
    <g id="ytick_8">
     <g id="line2d_75">
      <g>
       <use xlink:href="#m5dda566277" x="66.7525" y="317.141189" style="stroke: #000000"/>
      </g>
     </g>
     <g id="line2d_76">
      <g>
       <use xlink:href="#m31d2dd8078" x="1071.1525" y="317.141189" style="stroke: #000000"/>
      </g>
     </g>
    </g>
    <g id="ytick_9">
     <g id="line2d_77">
      <g>
       <use xlink:href="#m5dda566277" x="66.7525" y="285.761623" style="stroke: #000000"/>
      </g>
     </g>
     <g id="line2d_78">
      <g>
       <use xlink:href="#m31d2dd8078" x="1071.1525" y="285.761623" style="stroke: #000000"/>
      </g>
     </g>
    </g>
    <g id="ytick_10">
     <g id="line2d_79">
      <g>
       <use xlink:href="#m5dda566277" x="66.7525" y="270.071841" style="stroke: #000000"/>
      </g>
     </g>
     <g id="line2d_80">
      <g>
       <use xlink:href="#m31d2dd8078" x="1071.1525" y="270.071841" style="stroke: #000000"/>
      </g>
     </g>
    </g>
    <g id="ytick_11">
     <g id="line2d_81">
      <g>
       <use xlink:href="#m5dda566277" x="66.7525" y="254.382058" style="stroke: #000000"/>
      </g>
     </g>
     <g id="line2d_82">
      <g>
       <use xlink:href="#m31d2dd8078" x="1071.1525" y="254.382058" style="stroke: #000000"/>
      </g>
     </g>
    </g>
    <g id="ytick_12">
     <g id="line2d_83">
      <g>
       <use xlink:href="#m5dda566277" x="66.7525" y="223.002492" style="stroke: #000000"/>
      </g>
     </g>
     <g id="line2d_84">
      <g>
       <use xlink:href="#m31d2dd8078" x="1071.1525" y="223.002492" style="stroke: #000000"/>
      </g>
     </g>
    </g>
    <g id="ytick_13">
     <g id="line2d_85">
      <g>
       <use xlink:href="#m5dda566277" x="66.7525" y="207.312709" style="stroke: #000000"/>
      </g>
     </g>
     <g id="line2d_86">
      <g>
       <use xlink:href="#m31d2dd8078" x="1071.1525" y="207.312709" style="stroke: #000000"/>
      </g>
     </g>
    </g>
    <g id="ytick_14">
     <g id="line2d_87">
      <g>
       <use xlink:href="#m5dda566277" x="66.7525" y="191.622926" style="stroke: #000000"/>
      </g>
     </g>
     <g id="line2d_88">
      <g>
       <use xlink:href="#m31d2dd8078" x="1071.1525" y="191.622926" style="stroke: #000000"/>
      </g>
     </g>
    </g>
    <g id="ytick_15">
     <g id="line2d_89">
      <g>
       <use xlink:href="#m5dda566277" x="66.7525" y="160.243361" style="stroke: #000000"/>
      </g>
     </g>
     <g id="line2d_90">
      <g>
       <use xlink:href="#m31d2dd8078" x="1071.1525" y="160.243361" style="stroke: #000000"/>
      </g>
     </g>
    </g>
    <g id="ytick_16">
     <g id="line2d_91">
      <g>
       <use xlink:href="#m5dda566277" x="66.7525" y="144.553578" style="stroke: #000000"/>
      </g>
     </g>
     <g id="line2d_92">
      <g>
       <use xlink:href="#m31d2dd8078" x="1071.1525" y="144.553578" style="stroke: #000000"/>
      </g>
     </g>
    </g>
    <g id="ytick_17">
     <g id="line2d_93">
      <g>
       <use xlink:href="#m5dda566277" x="66.7525" y="128.863795" style="stroke: #000000"/>
      </g>
     </g>
     <g id="line2d_94">
      <g>
       <use xlink:href="#m31d2dd8078" x="1071.1525" y="128.863795" style="stroke: #000000"/>
      </g>
     </g>
    </g>
    <g id="ytick_18">
     <g id="line2d_95">
      <g>
       <use xlink:href="#m5dda566277" x="66.7525" y="97.48423" style="stroke: #000000"/>
      </g>
     </g>
     <g id="line2d_96">
      <g>
       <use xlink:href="#m31d2dd8078" x="1071.1525" y="97.48423" style="stroke: #000000"/>
      </g>
     </g>
    </g>
    <g id="ytick_19">
     <g id="line2d_97">
      <g>
       <use xlink:href="#m5dda566277" x="66.7525" y="81.794447" style="stroke: #000000"/>
      </g>
     </g>
     <g id="line2d_98">
      <g>
       <use xlink:href="#m31d2dd8078" x="1071.1525" y="81.794447" style="stroke: #000000"/>
      </g>
     </g>
    </g>
    <g id="ytick_20">
     <g id="line2d_99">
      <g>
       <use xlink:href="#m5dda566277" x="66.7525" y="66.104664" style="stroke: #000000"/>
      </g>
     </g>
     <g id="line2d_100">
      <g>
       <use xlink:href="#m31d2dd8078" x="1071.1525" y="66.104664" style="stroke: #000000"/>
      </g>
     </g>
    </g>
    <g id="ytick_21">
     <g id="line2d_101">
      <g>
       <use xlink:href="#m5dda566277" x="66.7525" y="34.725098" style="stroke: #000000"/>
      </g>
     </g>
     <g id="line2d_102">
      <g>
       <use xlink:href="#m31d2dd8078" x="1071.1525" y="34.725098" style="stroke: #000000"/>
      </g>
     </g>
    </g>
    <g id="text_12">
     <!-- Acceleration(m/s$^2$) -->
     <g transform="translate(17.0725 262.7175) rotate(-90) scale(0.16 -0.16)">
      <defs>
       <path id="DejaVuSans-41" d="M 2188 4044 
L 1331 1722 
L 3047 1722 
L 2188 4044 
z
M 1831 4666 
L 2547 4666 
L 4325 0 
L 3669 0 
L 3244 1197 
L 1141 1197 
L 716 0 
L 50 0 
L 1831 4666 
z
" transform="scale(0.015625)"/>
       <path id="DejaVuSans-63" d="M 3122 3366 
L 3122 2828 
Q 2878 2963 2633 3030 
Q 2388 3097 2138 3097 
Q 1578 3097 1268 2742 
Q 959 2388 959 1747 
Q 959 1106 1268 751 
Q 1578 397 2138 397 
Q 2388 397 2633 464 
Q 2878 531 3122 666 
L 3122 134 
Q 2881 22 2623 -34 
Q 2366 -91 2075 -91 
Q 1284 -91 818 406 
Q 353 903 353 1747 
Q 353 2603 823 3093 
Q 1294 3584 2113 3584 
Q 2378 3584 2631 3529 
Q 2884 3475 3122 3366 
z
" transform="scale(0.015625)"/>
       <path id="DejaVuSans-6c" d="M 603 4863 
L 1178 4863 
L 1178 0 
L 603 0 
L 603 4863 
z
" transform="scale(0.015625)"/>
       <path id="DejaVuSans-72" d="M 2631 2963 
Q 2534 3019 2420 3045 
Q 2306 3072 2169 3072 
Q 1681 3072 1420 2755 
Q 1159 2438 1159 1844 
L 1159 0 
L 581 0 
L 581 3500 
L 1159 3500 
L 1159 2956 
Q 1341 3275 1631 3429 
Q 1922 3584 2338 3584 
Q 2397 3584 2469 3576 
Q 2541 3569 2628 3553 
L 2631 2963 
z
" transform="scale(0.015625)"/>
       <path id="DejaVuSans-61" d="M 2194 1759 
Q 1497 1759 1228 1600 
Q 959 1441 959 1056 
Q 959 750 1161 570 
Q 1363 391 1709 391 
Q 2188 391 2477 730 
Q 2766 1069 2766 1631 
L 2766 1759 
L 2194 1759 
z
M 3341 1997 
L 3341 0 
L 2766 0 
L 2766 531 
Q 2569 213 2275 61 
Q 1981 -91 1556 -91 
Q 1019 -91 701 211 
Q 384 513 384 1019 
Q 384 1609 779 1909 
Q 1175 2209 1959 2209 
L 2766 2209 
L 2766 2266 
Q 2766 2663 2505 2880 
Q 2244 3097 1772 3097 
Q 1472 3097 1187 3025 
Q 903 2953 641 2809 
L 641 3341 
Q 956 3463 1253 3523 
Q 1550 3584 1831 3584 
Q 2591 3584 2966 3190 
Q 3341 2797 3341 1997 
z
" transform="scale(0.015625)"/>
       <path id="DejaVuSans-74" d="M 1172 4494 
L 1172 3500 
L 2356 3500 
L 2356 3053 
L 1172 3053 
L 1172 1153 
Q 1172 725 1289 603 
Q 1406 481 1766 481 
L 2356 481 
L 2356 0 
L 1766 0 
Q 1100 0 847 248 
Q 594 497 594 1153 
L 594 3053 
L 172 3053 
L 172 3500 
L 594 3500 
L 594 4494 
L 1172 4494 
z
" transform="scale(0.015625)"/>
       <path id="DejaVuSans-6f" d="M 1959 3097 
Q 1497 3097 1228 2736 
Q 959 2375 959 1747 
Q 959 1119 1226 758 
Q 1494 397 1959 397 
Q 2419 397 2687 759 
Q 2956 1122 2956 1747 
Q 2956 2369 2687 2733 
Q 2419 3097 1959 3097 
z
M 1959 3584 
Q 2709 3584 3137 3096 
Q 3566 2609 3566 1747 
Q 3566 888 3137 398 
Q 2709 -91 1959 -91 
Q 1206 -91 779 398 
Q 353 888 353 1747 
Q 353 2609 779 3096 
Q 1206 3584 1959 3584 
z
" transform="scale(0.015625)"/>
       <path id="DejaVuSans-6e" d="M 3513 2113 
L 3513 0 
L 2938 0 
L 2938 2094 
Q 2938 2591 2744 2837 
Q 2550 3084 2163 3084 
Q 1697 3084 1428 2787 
Q 1159 2491 1159 1978 
L 1159 0 
L 581 0 
L 581 3500 
L 1159 3500 
L 1159 2956 
Q 1366 3272 1645 3428 
Q 1925 3584 2291 3584 
Q 2894 3584 3203 3211 
Q 3513 2838 3513 2113 
z
" transform="scale(0.015625)"/>
       <path id="DejaVuSans-2f" d="M 1625 4666 
L 2156 4666 
L 531 -594 
L 0 -594 
L 1625 4666 
z
" transform="scale(0.015625)"/>
      </defs>
      <use xlink:href="#DejaVuSans-41" transform="translate(0 0.765625)"/>
      <use xlink:href="#DejaVuSans-63" transform="translate(68.408203 0.765625)"/>
      <use xlink:href="#DejaVuSans-63" transform="translate(123.388672 0.765625)"/>
      <use xlink:href="#DejaVuSans-65" transform="translate(178.369141 0.765625)"/>
      <use xlink:href="#DejaVuSans-6c" transform="translate(239.892578 0.765625)"/>
      <use xlink:href="#DejaVuSans-65" transform="translate(267.675781 0.765625)"/>
      <use xlink:href="#DejaVuSans-72" transform="translate(329.199219 0.765625)"/>
      <use xlink:href="#DejaVuSans-61" transform="translate(370.3125 0.765625)"/>
      <use xlink:href="#DejaVuSans-74" transform="translate(431.591797 0.765625)"/>
      <use xlink:href="#DejaVuSans-69" transform="translate(470.800781 0.765625)"/>
      <use xlink:href="#DejaVuSans-6f" transform="translate(498.583984 0.765625)"/>
      <use xlink:href="#DejaVuSans-6e" transform="translate(559.765625 0.765625)"/>
      <use xlink:href="#DejaVuSans-28" transform="translate(623.144531 0.765625)"/>
      <use xlink:href="#DejaVuSans-6d" transform="translate(662.158203 0.765625)"/>
      <use xlink:href="#DejaVuSans-2f" transform="translate(759.570312 0.765625)"/>
      <use xlink:href="#DejaVuSans-73" transform="translate(793.261719 0.765625)"/>
      <use xlink:href="#DejaVuSans-32" transform="translate(846.318359 39.046875) scale(0.7)"/>
      <use xlink:href="#DejaVuSans-29" transform="translate(893.588867 0.765625)"/>
     </g>
    </g>
   </g>
   <g id="line2d_103">
    <path d="M 112.407045 175.851044 
L 144.79499 175.890393 
L 145.002605 175.749967 
L 145.21022 175.929515 
L 146.040681 175.790611 
L 147.078756 175.857685 
L 147.493986 175.762827 
L 147.701601 175.866781 
L 148.324446 175.761434 
L 148.739676 175.896689 
L 149.154906 175.816433 
L 149.985366 175.795816 
L 150.400596 175.802593 
L 150.815826 175.879123 
L 151.023441 175.932937 
L 151.438671 175.807241 
L 151.853901 175.861565 
L 153.099592 175.853312 
L 153.930052 175.822752 
L 154.137667 175.893169 
L 154.345282 175.791565 
L 154.968127 175.848081 
L 155.383357 175.80947 
L 155.798587 175.834405 
L 157.667122 175.888684 
L 157.874737 175.78557 
L 158.082352 175.958281 
L 158.497582 175.823482 
L 158.705198 175.917386 
L 158.912813 175.792122 
L 159.120428 175.886038 
L 159.950888 175.78886 
L 160.366118 175.90282 
L 160.988963 175.822568 
L 161.611808 175.823585 
L 162.027038 175.824266 
L 162.234653 175.679318 
L 162.442268 175.896377 
L 162.649883 175.923814 
L 162.857498 175.727154 
L 163.272728 175.902704 
L 163.895573 175.842217 
L 164.518418 175.875299 
L 165.348879 175.797928 
L 165.556494 175.845085 
L 165.764109 175.751869 
L 165.971724 175.865522 
L 166.802184 175.832521 
L 167.425029 175.937074 
L 167.632644 175.760135 
L 168.047874 175.906187 
L 168.255489 175.751414 
L 168.670719 175.89747 
L 169.085949 175.851437 
L 169.501179 175.884223 
L 172.200175 175.842535 
L 172.40779 175.899574 
L 172.615405 175.769455 
L 173.030635 175.910636 
L 173.445865 175.835096 
L 173.861095 175.880246 
L 174.06871 175.81909 
L 174.48394 175.861777 
L 175.72963 175.834715 
L 175.937245 175.92625 
L 176.352475 175.860599 
L 178.636241 175.823419 
L 178.843856 175.912513 
L 179.259086 175.800104 
L 179.466701 175.886736 
L 180.089546 175.774768 
L 181.127621 175.902574 
L 182.788541 175.84709 
L 182.996156 175.958362 
L 183.411386 175.833678 
L 184.034231 175.98036 
L 184.241846 175.793657 
L 184.657076 176.018676 
L 184.864691 175.708841 
L 185.279922 175.88462 
L 185.695152 175.932352 
L 185.902767 175.757971 
L 186.110382 175.90867 
L 187.563687 175.847977 
L 187.771302 176.008519 
L 188.186532 175.849403 
L 189.016992 175.930122 
L 189.432222 175.904005 
L 190.262682 175.91092 
L 190.470297 175.788287 
L 191.093142 175.888275 
L 191.508373 175.857246 
L 191.923603 175.909951 
L 192.338833 175.822292 
L 192.546448 175.773547 
L 192.961678 175.907537 
L 193.999753 175.8633 
L 194.830213 175.949075 
L 195.453058 175.893968 
L 196.075903 175.925068 
L 196.491133 175.926114 
L 197.529208 175.904131 
L 197.736823 175.830774 
L 198.152054 175.900783 
L 199.397744 175.862102 
L 199.605359 175.998091 
L 200.020589 175.895727 
L 200.228204 175.962762 
L 200.851049 175.885578 
L 201.058664 175.98955 
L 201.473894 175.909359 
L 202.304354 175.93124 
L 202.927199 175.932885 
L 211.024185 175.9033 
L 211.231801 176.076274 
L 211.439416 175.874907 
L 211.854646 176.004138 
L 212.062261 175.901296 
L 212.269876 175.990536 
L 212.477491 175.924635 
L 212.892721 176.021858 
L 213.100336 175.95103 
L 213.307951 176.003344 
L 213.515566 175.9005 
L 213.930796 175.995266 
L 214.138411 175.929364 
L 214.553641 175.992111 
L 215.384101 175.930464 
L 216.214561 176.058462 
L 216.629791 175.934082 
L 218.083097 175.940766 
L 218.290712 176.044798 
L 218.705942 175.940135 
L 222.443012 176.025074 
L 222.650627 176.067554 
L 223.065857 175.923503 
L 223.273472 176.047259 
L 224.726778 175.953131 
L 224.934393 176.057189 
L 225.349623 175.92053 
L 225.557238 175.992576 
L 225.764853 175.93656 
L 226.180083 176.041251 
L 226.802928 175.912621 
L 227.218158 176.012399 
L 227.425773 175.926844 
L 227.633388 176.07031 
L 228.048618 175.933667 
L 228.256233 176.047588 
L 228.879078 175.93619 
L 229.294308 176.035965 
L 229.709538 175.94858 
L 230.124768 175.976954 
L 230.332383 175.935732 
L 230.747613 176.023201 
L 230.955229 175.873616 
L 231.370459 176.066982 
L 231.578074 175.907543 
L 231.785689 175.898334 
L 232.200919 176.032606 
L 232.823764 175.972967 
L 233.238994 176.016125 
L 233.654224 175.965694 
L 234.069454 176.141828 
L 234.277069 175.906061 
L 234.692299 176.000936 
L 234.899914 176.063153 
L 235.315144 175.86744 
L 235.522759 176.033084 
L 235.730374 175.952462 
L 236.145604 176.035029 
L 236.353219 175.964256 
L 236.560834 176.115131 
L 236.976064 175.961284 
L 237.59891 176.071594 
L 238.01414 175.861105 
L 238.221755 176.026759 
L 238.636985 176.047756 
L 238.8446 176.105049 
L 239.052215 175.955474 
L 239.25983 176.0768 
L 240.09029 175.990766 
L 241.543595 176.042113 
L 243.204515 176.057193 
L 243.41213 175.855909 
L 243.82736 176.029612 
L 244.034976 175.931758 
L 244.242591 176.097415 
L 244.450206 175.974938 
L 245.280666 176.024344 
L 245.488281 175.988056 
L 245.903511 176.060779 
L 246.111126 175.977703 
L 246.318741 176.071938 
L 246.733971 175.991983 
L 246.941586 176.081293 
L 247.356816 176.028426 
L 255.246187 176.053245 
L 255.869032 176.082271 
L 256.907107 176.117536 
L 257.322338 176.049875 
L 257.737568 176.17184 
L 258.152798 176.074622 
L 259.398488 176.051404 
L 259.813718 176.141343 
L 260.436563 176.007806 
L 260.851793 176.14946 
L 261.267023 176.123654 
L 261.474638 176.079965 
L 261.682253 176.179115 
L 262.097483 176.143453 
L 262.927943 176.136153 
L 263.343173 176.085709 
L 263.758404 176.126384 
L 264.381249 176.113509 
L 265.004094 176.073527 
L 265.419324 176.037842 
L 265.834554 176.169619 
L 266.042169 176.024952 
L 266.249784 176.035428 
L 266.457399 176.161657 
L 266.665014 176.044075 
L 266.872629 176.209695 
L 267.287859 176.013929 
L 267.495474 176.201721 
L 267.910704 176.072447 
L 268.118319 176.196197 
L 268.533549 176.022589 
L 268.741164 176.158657 
L 269.364009 176.103865 
L 269.571624 175.954263 
L 269.986854 176.182068 
L 270.194469 176.069403 
L 271.85539 176.130922 
L 303.828105 176.272671 
L 304.03572 176.098227 
L 304.45095 176.296046 
L 304.658565 176.151141 
L 305.073795 176.260282 
L 305.28141 176.172016 
L 305.69664 176.30824 
L 305.904255 176.13624 
L 306.319485 176.292167 
L 307.149945 176.190262 
L 309.226095 176.206215 
L 309.43371 176.194255 
L 309.641325 176.325131 
L 310.056556 176.148521 
L 310.887016 176.248369 
L 311.094631 176.196979 
L 311.302246 176.342613 
L 312.340321 176.216249 
L 312.963166 176.355111 
L 313.170781 176.195352 
L 314.208856 176.219044 
L 314.624086 176.158082 
L 315.662161 176.282713 
L 315.869776 176.179576 
L 316.700237 176.303863 
L 316.907852 176.195783 
L 317.738312 176.243636 
L 320.852537 176.284329 
L 321.060152 176.210673 
L 321.267767 176.284776 
L 322.098227 176.130527 
L 322.513457 176.21223 
L 322.928688 176.249607 
L 323.136303 176.166096 
L 323.551533 176.272407 
L 323.759148 176.225813 
L 324.174378 176.302537 
L 324.381993 176.251004 
L 324.797223 176.421306 
L 325.420068 176.350447 
L 326.042913 176.501203 
L 326.458143 176.439979 
L 326.665758 176.521419 
L 327.288603 176.322427 
L 328.326678 176.431537 
L 328.741908 176.343168 
L 329.157138 176.597098 
L 329.364754 176.54059 
L 329.779984 176.612271 
L 330.402829 176.696367 
L 331.440904 177.918423 
L 331.648519 177.792936 
L 332.063749 177.194709 
L 332.894209 178.613596 
L 333.101824 178.406824 
L 334.139899 175.914993 
L 334.347514 175.740215 
L 334.555129 175.82893 
L 334.970359 176.656515 
L 335.593204 175.304672 
L 335.800819 175.403217 
L 336.008435 176.937503 
L 336.63128 185.656515 
L 336.838895 185.590821 
L 337.254125 181.471632 
L 337.87697 175.233753 
L 338.499815 178.506684 
L 338.70743 177.066059 
L 338.915045 174.492575 
L 339.12266 173.458271 
L 339.330275 173.130735 
L 339.745505 171.852613 
L 340.160735 167.907412 
L 340.36835 167.469033 
L 340.575965 167.488688 
L 340.991195 173.133062 
L 341.61404 184.971087 
L 341.821655 184.233512 
L 342.236885 176.67679 
L 342.652116 169.229564 
L 342.859731 171.199584 
L 343.482576 187.63381 
L 344.105421 198.93989 
L 344.313036 196.798153 
L 344.728266 176.619696 
L 344.935881 172.846802 
L 345.143496 171.179452 
L 345.351111 173.701146 
L 345.558726 174.134496 
L 345.973956 171.60767 
L 346.389186 160.089512 
L 346.596801 162.911563 
L 347.012031 178.566583 
L 347.219646 176.847629 
L 347.634876 162.940715 
L 347.842491 161.896331 
L 348.257721 174.502465 
L 348.465336 173.884265 
L 348.672951 172.571546 
L 348.880566 170.416573 
L 349.088182 170.78826 
L 349.503412 180.345617 
L 349.711027 179.237349 
L 349.918642 175.122073 
L 350.126257 175.013538 
L 350.333872 178.197551 
L 350.749102 195.36654 
L 350.956717 195.230342 
L 351.371947 181.270485 
L 351.579562 180.819592 
L 352.202407 198.85099 
L 352.410022 196.699511 
L 352.617637 189.616194 
L 352.825252 187.361233 
L 353.032867 183.749071 
L 353.448097 173.240481 
L 353.655712 173.085162 
L 354.278557 168.119811 
L 354.693787 160.824892 
L 355.316632 164.21039 
L 355.524247 166.475805 
L 355.731863 171.504327 
L 355.939478 173.070404 
L 356.147093 171.104944 
L 356.769938 182.237288 
L 356.977553 180.986788 
L 357.185168 178.235783 
L 357.600398 171.071372 
L 357.808013 172.817108 
L 358.430858 180.999819 
L 358.846088 171.013176 
L 359.053703 170.645899 
L 359.676548 185.826907 
L 360.091778 200.19039 
L 360.299393 203.708351 
L 360.507008 203.18215 
L 360.714623 198.954555 
L 361.337468 178.794528 
L 361.545083 176.848763 
L 361.752698 171.484764 
L 362.167929 148.480275 
L 362.375544 144.300662 
L 362.583159 151.035585 
L 363.206004 196.742752 
L 363.413619 198.611982 
L 363.828849 181.790255 
L 364.244079 166.0974 
L 364.451694 164.808991 
L 364.659309 169.25367 
L 365.074539 179.712004 
L 365.282154 174.517955 
L 365.697384 158.682211 
L 365.904999 158.447826 
L 366.320229 170.743079 
L 366.943074 189.291522 
L 367.150689 191.879257 
L 367.358304 190.17867 
L 367.565919 191.22568 
L 367.773534 189.895977 
L 367.981149 190.30442 
L 368.188764 196.889475 
L 368.396379 199.021518 
L 368.603994 196.583442 
L 369.64207 166.885583 
L 369.849685 164.809197 
L 370.47253 140.410108 
L 370.680145 141.096576 
L 371.095375 160.432346 
L 371.71822 184.617707 
L 372.341065 200.769991 
L 372.54868 192.620206 
L 372.96391 163.455364 
L 373.171525 160.824624 
L 373.586755 173.208377 
L 374.2096 179.516323 
L 374.417215 182.08931 
L 374.832445 194.164982 
L 375.04006 187.912597 
L 375.662906 156.979756 
L 376.285751 151.111876 
L 376.493366 154.657484 
L 377.323826 183.571417 
L 377.531441 181.926613 
L 377.739056 181.635551 
L 377.946671 177.246588 
L 378.154286 168.08245 
L 378.361901 164.732651 
L 378.569516 167.507487 
L 378.984746 175.618408 
L 379.192361 178.102706 
L 379.607591 187.196286 
L 379.815206 188.478084 
L 380.230436 174.657228 
L 380.438051 175.634282 
L 380.645666 181.384048 
L 380.853281 183.294293 
L 381.268511 180.249589 
L 381.891357 166.04807 
L 382.098972 164.705275 
L 382.306587 167.827283 
L 382.721817 177.957506 
L 383.137047 184.203871 
L 383.344662 190.51633 
L 383.552277 192.009409 
L 383.759892 186.189071 
L 383.967507 183.647224 
L 384.382737 186.135517 
L 384.797967 180.544789 
L 385.420812 191.092766 
L 386.043657 173.8205 
L 386.251272 171.692056 
L 386.458887 172.44748 
L 387.081732 162.299301 
L 387.496962 159.803294 
L 387.912192 151.248945 
L 388.742653 173.045809 
L 389.365498 166.791134 
L 389.780728 158.207227 
L 389.988343 159.329474 
L 391.026418 196.457354 
L 391.234033 196.611779 
L 391.649263 181.884502 
L 392.272108 202.08521 
L 392.479723 195.583574 
L 392.687338 185.173943 
L 392.894953 181.077485 
L 393.310183 191.132557 
L 393.517798 190.023248 
L 394.555873 161.259445 
L 394.763488 160.716821 
L 395.386334 189.668944 
L 395.593949 191.129245 
L 395.801564 179.80895 
L 396.216794 139.321054 
L 396.424409 133.707648 
L 396.632024 137.501758 
L 397.254869 167.999421 
L 397.462484 172.313335 
L 397.877714 167.864239 
L 398.292944 152.37247 
L 398.708174 162.854392 
L 398.915789 162.013785 
L 399.123404 166.290634 
L 399.538634 179.282123 
L 399.746249 179.835506 
L 400.369094 160.082376 
L 400.991939 173.385603 
L 401.199554 175.335237 
L 401.407169 174.511866 
L 401.614785 175.769425 
L 402.030015 192.067041 
L 402.23763 187.566299 
L 402.65286 174.46519 
L 402.860475 172.176485 
L 403.06809 175.551864 
L 403.275705 183.809136 
L 403.690935 174.596315 
L 404.31378 194.223224 
L 404.521395 191.671943 
L 404.72901 191.107389 
L 405.14424 187.704886 
L 405.351855 190.057344 
L 405.55947 187.947502 
L 405.767085 184.691442 
L 406.182315 183.863016 
L 406.38993 182.532833 
L 406.597545 179.322557 
L 406.80516 179.627072 
L 407.22039 180.804957 
L 407.428005 181.964754 
L 407.843235 162.657367 
L 408.258466 158.244875 
L 408.466081 163.036304 
L 408.673696 162.441942 
L 409.088926 146.053475 
L 409.296541 146.648431 
L 409.711771 161.018646 
L 409.919386 159.63627 
L 410.127001 155.621182 
L 410.334616 155.474911 
L 410.542231 155.087306 
L 410.749846 155.992598 
L 410.957461 160.412084 
L 411.165076 161.824686 
L 411.372691 165.140838 
L 411.787921 196.463951 
L 411.995536 198.680343 
L 412.203151 195.011115 
L 412.410766 182.463903 
L 412.618381 177.638468 
L 413.033611 192.414244 
L 413.448841 210.985225 
L 413.656456 209.687799 
L 414.071686 199.070488 
L 414.486916 186.964195 
L 415.317377 157.137046 
L 415.732607 155.359375 
L 416.147837 172.150279 
L 416.355452 170.487051 
L 416.563067 174.642995 
L 416.770682 183.904678 
L 416.978297 183.903853 
L 417.601142 156.493246 
L 418.223987 175.841868 
L 418.639217 180.240735 
L 418.846832 184.190898 
L 419.054447 183.978438 
L 419.469677 172.228352 
L 419.677292 171.542782 
L 419.884907 166.293878 
L 420.300137 143.610653 
L 421.130597 131.105593 
L 421.338213 137.590999 
L 421.961058 179.909125 
L 422.168673 180.351485 
L 422.376288 173.171856 
L 422.583903 171.6168 
L 422.999133 180.012418 
L 423.414363 193.647329 
L 423.621978 188.742581 
L 424.244823 150.937146 
L 424.452438 153.927949 
L 425.282898 205.249369 
L 425.698128 192.51819 
L 425.905743 191.892343 
L 426.113358 194.150585 
L 426.528588 205.971365 
L 426.736203 206.623396 
L 426.943818 201.807922 
L 427.151433 191.581351 
L 427.774278 145.499322 
L 428.397124 152.113175 
L 428.604739 153.503462 
L 428.812354 153.891456 
L 429.019969 155.013324 
L 429.435199 165.738586 
L 429.642814 160.802346 
L 429.850429 160.552521 
L 430.058044 162.674224 
L 430.265659 163.244439 
L 430.680889 176.570285 
L 430.888504 171.895177 
L 431.096119 163.688375 
L 431.303734 162.224319 
L 431.511349 167.390027 
L 432.134194 210.648979 
L 432.341809 216.843575 
L 432.549424 213.535749 
L 433.172269 173.225621 
L 433.379884 169.055163 
L 433.587499 169.184561 
L 433.795114 171.296342 
L 434.210344 185.498803 
L 434.41796 192.304125 
L 434.625575 204.323061 
L 434.83319 208.878259 
L 435.040805 208.867854 
L 435.24842 208.016663 
L 435.456035 201.60397 
L 436.07888 163.623302 
L 436.701725 171.771391 
L 436.90934 171.046262 
L 437.116955 169.084882 
L 437.32457 169.642778 
L 437.532185 169.149204 
L 438.15503 148.85835 
L 438.362645 153.775079 
L 438.57026 163.644373 
L 438.777875 161.11907 
L 438.98549 156.773803 
L 439.608335 163.037806 
L 439.81595 167.521235 
L 440.23118 182.752091 
L 440.438795 186.635562 
L 441.061641 202.800205 
L 441.476871 181.288853 
L 441.684486 171.368108 
L 441.892101 167.064613 
L 442.099716 170.429905 
L 442.307331 169.931353 
L 442.514946 165.886457 
L 442.722561 170.140714 
L 443.345406 212.261934 
L 444.175866 183.581425 
L 444.591096 189.920422 
L 445.006326 180.740592 
L 445.629171 155.812488 
L 445.836786 156.722521 
L 446.252016 163.568908 
L 446.459631 164.437152 
L 446.874861 152.968755 
L 447.290091 142.948287 
L 447.497706 143.589874 
L 447.705322 142.766112 
L 447.912937 142.400436 
L 448.120552 142.840176 
L 448.328167 147.17322 
L 448.743397 172.287711 
L 448.951012 178.647784 
L 449.158627 181.215327 
L 449.366242 176.582055 
L 449.573857 168.20795 
L 450.196702 132.133695 
L 450.404317 128.793024 
L 450.611932 131.732157 
L 451.027162 171.016583 
L 451.442392 203.363719 
L 451.650007 203.964072 
L 451.857622 194.207109 
L 452.272852 167.449464 
L 452.480467 164.869871 
L 453.103312 162.940657 
L 453.518542 154.845943 
L 453.726157 161.006212 
L 454.141388 185.382273 
L 454.349003 201.196904 
L 454.556618 207.865825 
L 454.764233 207.601765 
L 454.971848 200.30149 
L 455.594693 158.657036 
L 456.217538 182.393714 
L 456.425153 177.216222 
L 456.632768 163.241912 
L 456.840383 159.302825 
L 457.670843 183.353379 
L 458.086073 199.91808 
L 458.708918 176.974828 
L 458.916533 176.865334 
L 459.124148 177.694141 
L 459.331763 177.816192 
L 459.746993 169.721682 
L 459.954608 163.132988 
L 460.369838 139.636645 
L 460.577453 144.373587 
L 460.992684 169.817972 
L 461.407914 180.60469 
L 461.615529 191.246582 
L 462.030759 230.644275 
L 462.238374 234.47631 
L 462.653604 226.935528 
L 463.068834 204.387072 
L 463.484064 170.546663 
L 463.691679 168.703334 
L 463.899294 172.346877 
L 464.314524 185.802909 
L 464.729754 192.714898 
L 465.144984 190.007268 
L 465.352599 190.842252 
L 465.560214 192.874818 
L 465.767829 193.071293 
L 466.183059 187.178691 
L 466.390674 187.558052 
L 466.598289 186.04932 
L 466.805904 185.761536 
L 467.42875 201.954371 
L 467.636365 196.941434 
L 468.051595 180.161508 
L 468.466825 181.06556 
L 468.67444 180.153314 
L 468.882055 178.113086 
L 469.297285 186.514331 
L 469.5049 182.210784 
L 469.712515 180.386765 
L 470.127745 185.90885 
L 470.33536 191.403534 
L 470.542975 190.599232 
L 470.75059 187.004931 
L 471.16582 185.607804 
L 471.373435 184.52165 
L 471.99628 157.275433 
L 472.203895 158.461282 
L 472.619125 164.938404 
L 473.24197 156.695262 
L 473.449585 148.173282 
L 473.6572 145.204612 
L 473.864816 150.054905 
L 474.487661 175.885171 
L 474.695276 175.679885 
L 475.110506 149.738554 
L 475.318121 145.299655 
L 475.733351 154.968405 
L 475.940966 152.829762 
L 476.148581 146.657217 
L 476.356196 145.74984 
L 476.771426 169.115985 
L 476.979041 168.494466 
L 477.394271 156.048436 
L 478.017116 177.113433 
L 478.224731 179.136761 
L 478.432346 174.700541 
L 478.639961 173.596161 
L 478.847576 177.104443 
L 479.262806 190.799364 
L 479.470421 189.967053 
L 479.885651 179.340655 
L 480.093266 173.805996 
L 480.300881 174.519051 
L 480.716112 182.426612 
L 480.923727 182.256709 
L 481.131342 187.666601 
L 481.546572 201.535431 
L 481.754187 204.503245 
L 481.961802 201.397577 
L 482.584647 178.490588 
L 482.792262 177.654771 
L 482.999877 173.496754 
L 483.207492 174.475871 
L 483.415107 173.583413 
L 483.622722 170.021336 
L 483.830337 174.41367 
L 484.245567 186.900538 
L 484.453182 186.744762 
L 484.868412 179.334381 
L 485.076027 175.614774 
L 485.491257 162.309552 
L 485.698872 149.820397 
L 485.906487 145.534181 
L 486.529332 166.926907 
L 486.736947 163.653073 
L 486.944563 163.491903 
L 487.152178 175.186107 
L 487.567408 211.413699 
L 487.775023 218.31311 
L 487.982638 212.581558 
L 488.397868 194.683617 
L 489.228328 176.004879 
L 489.435943 168.689882 
L 489.643558 167.496959 
L 489.851173 163.437691 
L 490.266403 139.572492 
L 490.474018 137.271252 
L 490.889248 151.370428 
L 491.096863 160.062838 
L 491.304478 159.902047 
L 491.719708 135.49533 
L 492.550168 70.772312 
L 492.757783 70.677438 
L 493.588244 130.873486 
L 493.795859 132.478407 
L 494.003474 139.471246 
L 494.626319 174.842539 
L 494.833934 171.780512 
L 495.041549 170.932483 
L 495.456779 199.546297 
L 496.079624 244.983223 
L 496.287239 250.661459 
L 496.494854 250.343128 
L 496.702469 245.870369 
L 497.325314 218.24434 
L 497.948159 172.246683 
L 498.155774 171.255804 
L 498.363389 174.175597 
L 498.571004 175.438165 
L 498.778619 173.393306 
L 499.193849 165.149131 
L 499.609079 154.274869 
L 500.43954 109.110855 
L 501.062385 118.731823 
L 501.477615 129.482048 
L 501.892845 173.845068 
L 502.51569 240.670414 
L 502.723305 246.250266 
L 502.93092 245.230137 
L 503.138535 232.64547 
L 504.17661 141.183047 
L 504.799455 88.966783 
L 505.00707 86.815673 
L 505.214685 100.688961 
L 505.4223 130.552754 
L 506.25276 303.180508 
L 506.667991 332.480813 
L 506.875606 339.2775 
L 507.083221 339.122075 
L 507.290836 326.18574 
L 507.706066 238.371728 
L 508.328911 99.742619 
L 508.536526 66.69989 
L 508.744141 55.38002 
L 508.951756 68.553879 
L 509.574601 161.620014 
L 510.612676 302.871536 
L 510.820291 300.517994 
L 511.027906 273.982774 
L 511.858366 86.205885 
L 512.273596 48.692397 
L 512.481211 48.498924 
L 512.688826 56.29958 
L 513.104056 106.54848 
L 514.142132 287.828142 
L 514.349747 291.106015 
L 514.557362 272.093692 
L 514.972592 195.495343 
L 515.595437 55.00434 
L 515.803052 36.8775 
L 516.010667 38.811895 
L 516.425897 103.61261 
L 517.048742 194.392366 
L 517.256357 211.489518 
L 517.463972 217.422055 
L 517.671587 212.860917 
L 518.086817 177.799682 
L 518.502047 141.207981 
L 518.709662 139.586745 
L 519.124892 149.426062 
L 519.540122 174.014501 
L 519.955353 217.6545 
L 520.162968 221.242978 
L 520.370583 204.29997 
L 520.785813 150.685594 
L 520.993428 137.039084 
L 521.201043 136.292157 
L 521.408658 143.312239 
L 521.823888 192.866457 
L 522.239118 244.665847 
L 522.861963 281.927835 
L 523.069578 284.422518 
L 523.277193 275.766269 
L 523.692423 213.532024 
L 524.107653 140.556513 
L 524.315268 122.459811 
L 524.522883 126.965755 
L 524.938113 183.399754 
L 525.353343 229.313788 
L 525.560958 232.508361 
L 525.976188 222.257966 
L 526.183803 221.938066 
L 526.391419 217.395705 
L 526.806649 188.277293 
L 527.429494 132.402187 
L 527.637109 129.37249 
L 528.259954 132.611822 
L 528.467569 131.81835 
L 528.882799 118.641967 
L 529.090414 121.882038 
L 529.298029 132.928829 
L 529.920874 197.855737 
L 530.336104 231.002963 
L 530.543719 232.204653 
L 530.751334 226.259402 
L 530.958949 216.432709 
L 531.166564 200.212935 
L 531.997024 95.430425 
L 532.204639 104.435418 
L 532.827484 170.127797 
L 533.45033 235.863008 
L 533.657945 244.149887 
L 533.86556 242.857017 
L 534.28079 218.883156 
L 534.69602 191.178603 
L 535.52648 156.85572 
L 535.734095 154.133865 
L 535.94171 160.174209 
L 536.35694 188.361279 
L 536.77217 213.368842 
L 536.979785 205.496427 
L 537.395015 163.263146 
L 537.60263 158.127824 
L 537.810245 177.846192 
L 538.43309 265.439839 
L 538.640705 273.615713 
L 538.84832 272.041791 
L 539.055935 269.411662 
L 539.26355 272.339466 
L 539.678781 283.750948 
L 539.886396 281.864421 
L 540.094011 270.464729 
L 541.339701 154.14653 
L 542.377776 127.215716 
L 543.000621 86.110488 
L 543.208236 86.634543 
L 543.415851 102.38026 
L 545.284386 310.922275 
L 545.492001 322.450026 
L 545.699616 322.492261 
L 545.907231 304.601191 
L 546.530077 215.650443 
L 547.152922 182.041805 
L 548.398612 108.383414 
L 548.606227 101.74129 
L 548.813842 101.024407 
L 549.021457 104.530785 
L 549.436687 120.811146 
L 549.851917 150.111512 
L 550.267147 177.826198 
L 550.682377 191.230971 
L 551.097607 197.581276 
L 551.305222 196.688808 
L 551.512837 189.079357 
L 551.928067 161.835737 
L 552.343297 131.731726 
L 552.758528 115.465556 
L 552.966143 121.062831 
L 554.419448 245.476311 
L 554.627063 254.71144 
L 554.834678 257.511648 
L 555.042293 254.142903 
L 555.872753 185.96446 
L 556.703213 115.322044 
L 556.910828 112.063656 
L 557.533673 135.111123 
L 558.156518 166.000513 
L 558.364133 167.517473 
L 558.571748 165.261722 
L 558.779363 164.773981 
L 558.986978 169.066356 
L 559.817439 232.103376 
L 560.025054 238.715732 
L 560.232669 238.511516 
L 560.647899 229.553436 
L 560.855514 227.627445 
L 561.063129 226.777178 
L 561.478359 231.727419 
L 561.685974 226.571114 
L 563.554509 122.237586 
L 563.762124 123.525438 
L 564.177354 142.012258 
L 564.592584 176.672091 
L 565.007814 221.75669 
L 565.215429 234.392611 
L 565.423044 237.700159 
L 565.630659 232.706237 
L 566.04589 213.01154 
L 566.46112 190.023784 
L 566.87635 172.002254 
L 567.70681 103.92934 
L 567.914425 104.010454 
L 568.12204 116.949282 
L 568.9525 195.557769 
L 569.990575 249.900279 
L 570.19819 250.393121 
L 570.405805 242.141119 
L 571.85911 156.62116 
L 572.274341 149.275212 
L 572.481956 143.042331 
L 572.689571 140.75956 
L 572.897186 143.249379 
L 573.312416 154.210811 
L 573.520031 162.901682 
L 573.935261 197.139722 
L 574.558106 253.802316 
L 574.765721 257.720913 
L 574.973336 249.341007 
L 575.803796 181.345393 
L 576.219026 161.595049 
L 576.426641 159.819437 
L 576.841871 170.5201 
L 577.049486 170.463788 
L 577.464716 165.048778 
L 577.672331 164.856902 
L 577.879946 164.283423 
L 578.087561 159.153885 
L 578.502791 140.196748 
L 578.710406 135.781369 
L 578.918022 137.054599 
L 579.333252 148.238068 
L 579.748482 151.782322 
L 579.956097 150.913246 
L 580.163712 153.642101 
L 580.578942 161.367981 
L 580.786557 161.942072 
L 580.994172 159.001979 
L 581.201787 152.852952 
L 581.409402 152.234991 
L 582.032247 165.84699 
L 582.239862 160.422021 
L 582.447477 151.940782 
L 582.655092 151.037174 
L 582.862707 159.205891 
L 583.693167 228.791548 
L 583.900782 227.618056 
L 584.731242 195.049034 
L 585.146472 188.722608 
L 585.354087 185.059318 
L 585.769318 173.218701 
L 585.976933 172.566319 
L 586.184548 172.480529 
L 586.392163 172.08677 
L 586.599778 166.657082 
L 587.430238 129.284542 
L 587.637853 127.410759 
L 587.845468 127.21156 
L 588.053083 129.05379 
L 588.260698 133.765028 
L 588.675928 163.039225 
L 589.091158 193.411446 
L 589.298773 201.251347 
L 589.506388 201.731103 
L 589.714003 199.735322 
L 589.921618 199.0827 
L 590.129233 198.035736 
L 590.336848 191.887771 
L 590.752078 164.218492 
L 591.167308 130.300823 
L 591.374923 124.772318 
L 591.582538 128.609463 
L 592.412999 160.15263 
L 592.828229 179.194849 
L 593.035844 179.882396 
L 593.243459 175.230929 
L 594.489149 121.108606 
L 594.696764 118.954048 
L 594.904379 122.569461 
L 595.319609 156.323399 
L 595.734839 189.482742 
L 595.942454 192.569265 
L 596.150069 188.42215 
L 596.565299 176.441433 
L 597.395759 163.802172 
L 597.603374 158.983149 
L 597.810989 160.271447 
L 598.433834 196.209988 
L 598.64145 195.360441 
L 599.05668 177.675454 
L 599.264295 179.705071 
L 599.679525 190.021884 
L 599.88714 188.16237 
L 600.509985 175.420376 
L 600.7176 176.927962 
L 601.13283 187.423111 
L 601.340445 184.262303 
L 601.96329 157.254174 
L 602.170905 154.882935 
L 602.37852 156.710681 
L 602.79375 161.597582 
L 603.001365 160.076102 
L 603.416595 149.709171 
L 603.831825 145.712944 
L 604.03944 146.127109 
L 604.247055 148.580521 
L 604.8699 166.680086 
L 605.077516 170.273643 
L 605.285131 170.66818 
L 605.492746 170.094856 
L 606.115591 187.706785 
L 606.323206 183.442275 
L 606.738436 160.198294 
L 607.361281 125.143534 
L 607.568896 114.805745 
L 607.776511 111.678495 
L 607.984126 114.020862 
L 610.060276 205.166149 
L 610.267891 201.578359 
L 611.098351 128.078511 
L 611.305966 123.45636 
L 611.513581 124.885108 
L 612.136427 145.235451 
L 612.759272 171.447224 
L 612.966887 175.826484 
L 613.382117 179.841808 
L 613.589732 176.227227 
L 613.797347 170.208988 
L 614.004962 167.697565 
L 614.212577 168.178321 
L 614.835422 177.1786 
L 615.043037 176.137517 
L 615.458267 166.758337 
L 615.665882 166.03978 
L 616.081112 169.449307 
L 616.288727 164.18966 
L 616.703957 142.275425 
L 616.911572 138.424212 
L 617.326802 147.650075 
L 617.949647 162.831933 
L 618.157262 161.133261 
L 618.364878 157.097591 
L 618.780108 146.450039 
L 618.987723 148.780175 
L 619.402953 159.708149 
L 619.818183 169.995897 
L 620.025798 170.075376 
L 620.441028 164.464036 
L 620.648643 167.86052 
L 621.271488 184.575022 
L 621.479103 183.307533 
L 621.686718 185.092851 
L 621.894333 188.700952 
L 622.101948 190.350401 
L 622.309563 190.56224 
L 622.517178 194.583602 
L 622.932408 215.027018 
L 623.140023 219.316217 
L 623.347638 219.556542 
L 623.970483 193.094851 
L 624.178098 184.405526 
L 624.385713 180.524943 
L 624.593328 180.555012 
L 625.008559 188.663316 
L 625.216174 189.857175 
L 625.423789 187.790929 
L 626.461864 156.695093 
L 627.084709 124.79756 
L 627.292324 124.219233 
L 628.122784 158.381525 
L 628.745629 133.896935 
L 628.953244 134.252052 
L 629.368474 138.218086 
L 629.576089 141.806718 
L 629.991319 159.780382 
L 630.406549 178.076913 
L 630.614164 179.567528 
L 631.029394 176.387093 
L 631.237009 176.69314 
L 631.444625 178.969268 
L 631.65224 178.696627 
L 632.275085 161.398235 
L 632.4827 160.994976 
L 632.89793 167.911353 
L 633.105545 170.308117 
L 633.520775 177.475794 
L 633.936005 179.388212 
L 634.351235 178.032651 
L 634.55885 175.750471 
L 634.97408 160.712351 
L 635.38931 139.71188 
L 635.596925 135.644013 
L 635.80454 136.388355 
L 636.012155 138.733338 
L 636.21977 139.150145 
L 636.427385 138.690088 
L 636.635 141.857664 
L 637.05023 158.560521 
L 638.088306 203.948982 
L 638.503536 214.063468 
L 639.333996 219.651232 
L 639.541611 223.010681 
L 639.749226 219.986401 
L 640.164456 195.309082 
L 640.579686 167.263351 
L 640.787301 163.656083 
L 640.994916 163.09264 
L 641.617761 168.859492 
L 641.825376 174.063593 
L 642.032991 183.38346 
L 642.655836 227.374498 
L 642.863451 230.724558 
L 643.278681 209.025465 
L 643.693911 188.941801 
L 643.901526 184.05716 
L 644.109141 185.208473 
L 644.731987 204.257375 
L 645.354832 231.128221 
L 645.562447 232.444086 
L 645.770062 226.722938 
L 646.185292 200.100801 
L 646.600522 170.861121 
L 646.808137 161.749861 
L 647.015752 161.740518 
L 647.430982 171.949553 
L 647.846212 183.388761 
L 648.053827 183.910767 
L 648.676672 188.980998 
L 648.884287 191.954814 
L 649.507132 206.222385 
L 649.714747 202.559246 
L 649.922362 195.8243 
L 650.129977 193.100454 
L 650.752822 209.368976 
L 650.960437 206.955376 
L 651.583283 187.656775 
L 651.998513 174.538205 
L 652.206128 171.401381 
L 652.413743 169.956405 
L 652.621358 175.000429 
L 653.036588 212.701613 
L 653.451818 247.56567 
L 653.867048 266.003205 
L 654.074663 270.847859 
L 654.282278 268.373862 
L 654.489893 256.41847 
L 655.735583 152.433978 
L 655.943198 151.907549 
L 656.150813 159.020212 
L 656.566043 179.020877 
L 656.981273 187.923965 
L 657.188888 189.409019 
L 657.604119 194.91549 
L 658.019349 189.083201 
L 658.434579 180.372266 
L 658.849809 164.445205 
L 659.265039 143.971957 
L 659.887884 133.492657 
L 660.095499 133.963673 
L 660.303114 142.556354 
L 660.718344 167.315144 
L 660.925959 170.047114 
L 661.133574 163.066222 
L 661.548804 140.699256 
L 661.964034 130.303101 
L 662.379264 128.607739 
L 662.586879 128.857146 
L 662.794494 130.73179 
L 663.624954 143.252242 
L 663.832569 141.253294 
L 664.870645 119.809579 
L 665.285875 114.609594 
L 665.49349 119.055264 
L 665.90872 133.217023 
L 666.32395 143.731447 
L 666.946795 163.883203 
L 667.362025 172.289792 
L 667.777255 184.902409 
L 667.98487 187.012282 
L 668.192485 180.14652 
L 668.81533 141.846705 
L 669.022945 136.798882 
L 669.23056 140.02547 
L 669.64579 155.93057 
L 670.268635 184.774717 
L 670.47625 187.81936 
L 670.891481 184.105388 
L 671.306711 186.065426 
L 671.721941 183.953159 
L 671.929556 187.256086 
L 672.552401 208.6492 
L 672.760016 208.598376 
L 673.175246 195.696925 
L 673.590476 174.203327 
L 674.005706 157.648192 
L 675.459011 140.677707 
L 675.666626 139.855946 
L 675.874241 143.383041 
L 676.497086 168.393488 
L 677.119931 203.662555 
L 677.327547 204.245875 
L 677.535162 195.26585 
L 678.365622 137.407899 
L 678.573237 131.190093 
L 678.780852 132.744591 
L 679.196082 153.678533 
L 680.441772 215.351413 
L 680.649387 218.395918 
L 680.857002 211.290134 
L 681.272232 168.059026 
L 681.687462 128.499936 
L 681.895077 122.013637 
L 682.102692 122.654423 
L 682.933152 143.700263 
L 683.348382 167.530264 
L 684.594073 263.813216 
L 684.801688 267.961242 
L 685.009303 267.107681 
L 685.216918 257.977216 
L 686.462608 162.895491 
L 686.670223 160.046763 
L 686.877838 164.344655 
L 687.500683 183.717315 
L 688.123528 196.838612 
L 688.538758 208.705195 
L 688.953988 217.50908 
L 689.576833 233.838602 
L 689.784448 234.501953 
L 689.992063 227.795615 
L 690.614909 197.158368 
L 691.652984 172.905512 
L 692.068214 143.084073 
L 692.483444 115.715209 
L 692.691059 112.122483 
L 692.898674 115.445177 
L 693.313904 135.807565 
L 694.144364 196.019242 
L 694.351979 196.597963 
L 694.559594 189.501526 
L 695.182439 151.878772 
L 695.390054 148.943906 
L 695.597669 151.114175 
L 696.012899 158.279454 
L 696.220514 158.477255 
L 696.635744 154.84875 
L 697.466205 141.961927 
L 697.67382 144.179037 
L 698.08905 155.693479 
L 699.127125 163.794427 
L 699.542355 165.783339 
L 699.74997 161.336576 
L 700.788045 121.080439 
L 700.99566 111.447096 
L 701.203275 109.226201 
L 701.41089 116.183947 
L 702.864195 210.290937 
L 703.48704 238.950732 
L 703.694656 239.402201 
L 704.317501 231.026482 
L 705.147961 199.379454 
L 705.978421 157.657196 
L 706.186036 156.524935 
L 706.393651 160.635765 
L 706.808881 177.341332 
L 707.431726 205.976866 
L 707.639341 210.613793 
L 707.846956 211.234694 
L 708.054571 211.160321 
L 708.262186 213.349879 
L 708.469801 217.169632 
L 708.677416 218.739213 
L 708.885031 214.681752 
L 709.507876 186.533783 
L 710.545952 166.617636 
L 710.753567 166.889127 
L 710.961182 171.310272 
L 711.376412 192.580412 
L 711.791642 216.22289 
L 711.999257 220.958416 
L 712.206872 219.770671 
L 712.622102 216.352826 
L 713.037332 215.508654 
L 713.244947 214.926972 
L 713.452562 215.120446 
L 713.660177 215.516012 
L 714.075407 218.16181 
L 714.283022 217.448652 
L 714.490637 215.443671 
L 714.698252 211.644482 
L 715.113482 200.649973 
L 715.321097 198.720257 
L 715.528712 199.021339 
L 715.736327 198.876645 
L 715.943942 194.372945 
L 716.359172 174.095659 
L 716.982018 140.30726 
L 717.397248 128.561625 
L 717.604863 127.288949 
L 717.812478 130.633715 
L 718.020093 141.418355 
L 719.265783 238.016119 
L 719.473398 241.216018 
L 719.681013 242.465422 
L 719.888628 241.798993 
L 720.096243 236.670363 
L 720.303858 225.281754 
L 721.341933 141.773194 
L 721.549548 138.651116 
L 721.757163 140.14143 
L 721.964778 145.412122 
L 722.795238 179.645982 
L 723.002853 183.297445 
L 723.210468 182.964785 
L 723.833314 171.739558 
L 724.040929 173.902379 
L 724.456159 189.483739 
L 724.871389 215.483751 
L 725.286619 243.841684 
L 725.494234 250.65912 
L 725.701849 252.534164 
L 725.909464 250.360552 
L 726.117079 242.8874 
L 726.532309 208.332593 
L 726.947539 169.933924 
L 727.362769 152.452593 
L 727.570384 151.697037 
L 727.985614 158.500284 
L 728.193229 158.341005 
L 728.608459 150.887859 
L 728.816074 150.282726 
L 729.023689 149.005346 
L 729.438919 141.50541 
L 729.85415 134.123531 
L 730.061765 134.84303 
L 730.476995 145.054638 
L 731.51507 184.120112 
L 731.9303 197.658985 
L 732.137915 201.116867 
L 732.34553 201.939694 
L 732.968375 196.629485 
L 733.383605 196.508931 
L 733.59122 192.21659 
L 734.42168 159.206633 
L 734.629295 159.734192 
L 735.044525 176.166306 
L 735.66737 203.84876 
L 735.874985 203.318963 
L 736.290215 183.136827 
L 736.913061 144.45384 
L 737.120676 139.108033 
L 737.328291 139.056841 
L 737.535906 143.322736 
L 737.951136 163.938909 
L 738.573981 197.986652 
L 739.196826 209.168238 
L 739.404441 211.771278 
L 739.612056 212.453006 
L 739.819671 210.56571 
L 740.234901 195.907341 
L 740.650131 178.847716 
L 740.857746 174.836577 
L 741.065361 176.021689 
L 741.480591 189.381886 
L 742.103436 212.700935 
L 742.311051 214.115615 
L 742.726281 201.655683 
L 743.141512 187.415178 
L 743.556742 182.089944 
L 743.764357 181.827984 
L 743.971972 183.815015 
L 744.594817 196.36783 
L 744.802432 196.946366 
L 745.425277 191.593923 
L 745.632892 191.12483 
L 745.840507 188.396656 
L 746.255737 173.020205 
L 746.670967 156.755465 
L 746.878582 153.09655 
L 747.086197 152.29677 
L 747.501427 154.600547 
L 747.916657 159.187295 
L 748.124272 162.192372 
L 748.954732 178.968347 
L 749.162347 179.422209 
L 749.577578 174.754383 
L 749.992808 169.756424 
L 750.615653 165.249325 
L 750.823268 164.067888 
L 751.030883 163.640039 
L 751.446113 166.323205 
L 751.653728 167.099577 
L 752.276573 170.662596 
L 752.484188 170.87751 
L 752.691803 170.658973 
L 753.522263 176.756721 
L 753.937493 178.06571 
L 754.145108 178.972634 
L 754.352723 178.493096 
L 754.767953 177.024184 
L 754.975568 177.785775 
L 755.598413 190.005582 
L 755.806028 189.964169 
L 756.013643 186.005198 
L 756.636489 164.480428 
L 757.051719 150.097269 
L 757.259334 146.21425 
L 757.466949 145.416897 
L 757.674564 147.008353 
L 758.089794 157.241922 
L 759.127869 193.840002 
L 759.335484 191.604866 
L 759.750714 181.568603 
L 760.165944 178.934827 
L 760.373559 177.859262 
L 760.581174 174.680639 
L 760.996404 163.759909 
L 761.204019 162.046465 
L 761.411634 163.522148 
L 761.826864 176.242949 
L 762.657325 214.527866 
L 762.86494 217.262167 
L 763.072555 213.655712 
L 763.487785 187.789937 
L 764.11063 141.8347 
L 764.52586 123.722913 
L 764.733475 119.768422 
L 764.94109 122.014714 
L 765.35632 143.73905 
L 765.77155 167.320334 
L 765.979165 172.859525 
L 766.18678 174.185128 
L 766.394395 173.109611 
L 767.01724 163.575988 
L 768.055315 174.496048 
L 768.26293 175.031066 
L 768.470545 176.743262 
L 768.67816 177.354641 
L 768.885775 175.316232 
L 769.301006 163.789757 
L 769.716236 151.874013 
L 770.131466 148.358268 
L 770.339081 146.982311 
L 770.546696 148.211675 
L 770.754311 152.67459 
L 771.584771 182.707018 
L 771.792386 183.16323 
L 772.207616 179.778015 
L 772.415231 180.426297 
L 773.038076 184.61823 
L 773.453306 191.040592 
L 774.076151 205.796078 
L 774.491381 214.289757 
L 774.698996 215.070115 
L 775.321841 211.901646 
L 775.737071 203.443476 
L 776.567532 179.574165 
L 776.775147 178.331112 
L 776.982762 178.590169 
L 777.190377 179.637428 
L 777.397992 179.093708 
L 777.813222 174.213873 
L 778.228452 166.526573 
L 778.643682 156.12791 
L 779.058912 143.121136 
L 779.266527 141.496267 
L 779.474142 144.648975 
L 780.304602 166.527108 
L 780.512217 167.025226 
L 780.719832 162.905773 
L 781.965522 120.198958 
L 782.173137 115.510499 
L 782.380753 114.941961 
L 782.588368 119.357895 
L 782.795983 129.031718 
L 783.626443 188.029146 
L 783.834058 192.99008 
L 784.041673 191.929138 
L 784.456903 181.215552 
L 785.494978 146.952617 
L 785.702593 148.253324 
L 786.325438 165.902234 
L 787.571128 202.056033 
L 787.778743 198.829879 
L 788.193973 173.372095 
L 788.609203 147.736684 
L 788.816818 140.62987 
L 789.024434 137.958183 
L 789.232049 138.83283 
L 789.439664 143.125661 
L 790.062509 170.201585 
L 790.477739 185.369371 
L 790.685354 188.977578 
L 790.892969 188.372121 
L 791.100584 183.929317 
L 791.723429 165.977801 
L 791.931044 163.306301 
L 792.138659 162.779777 
L 792.346274 162.935417 
L 792.553889 161.7908 
L 793.384349 150.237783 
L 794.007194 153.625435 
L 794.214809 154.401594 
L 794.422424 157.177511 
L 795.045269 173.708353 
L 795.87573 185.476519 
L 796.498575 198.052449 
L 796.70619 198.01095 
L 796.913805 193.333108 
L 797.95188 157.082938 
L 798.574725 146.713954 
L 798.989955 140.996438 
L 799.19757 141.491742 
L 799.6128 150.476378 
L 800.235645 163.231981 
L 800.44326 163.518094 
L 800.650875 162.865985 
L 800.85849 162.846669 
L 801.066105 163.741116 
L 801.27372 166.652344 
L 802.311796 193.227487 
L 802.519411 194.120436 
L 802.727026 193.458538 
L 802.934641 193.43558 
L 803.349871 194.070828 
L 803.765101 193.916477 
L 803.972716 195.194574 
L 804.387946 200.51754 
L 804.803176 205.549137 
L 805.010791 206.653432 
L 805.218406 206.616285 
L 806.048866 200.03273 
L 806.256481 199.695079 
L 806.464096 198.807814 
L 806.879326 193.36001 
L 807.086941 190.744133 
L 807.294556 189.598432 
L 807.502171 189.542486 
L 807.917401 191.276586 
L 808.125016 191.061072 
L 808.332631 191.376272 
L 808.540246 192.015476 
L 808.747862 191.964246 
L 808.955477 191.123938 
L 809.163092 189.104571 
L 810.408782 168.997463 
L 810.616397 167.919172 
L 811.239242 170.624447 
L 811.446857 169.615159 
L 811.862087 163.942005 
L 812.069702 162.558367 
L 812.277317 163.304907 
L 812.692547 172.649025 
L 813.315392 190.080422 
L 813.523007 192.645488 
L 813.730622 192.016572 
L 813.938237 186.981874 
L 814.976312 148.499976 
L 815.183928 145.958856 
L 815.391543 145.922224 
L 815.599158 148.481204 
L 816.014388 162.058584 
L 816.429618 176.436504 
L 816.637233 177.776683 
L 816.844848 175.723274 
L 817.467693 165.164609 
L 818.298153 154.719454 
L 818.713383 151.23552 
L 818.920998 150.630018 
L 819.128613 152.711274 
L 819.751458 168.246907 
L 819.959073 170.229761 
L 820.166688 169.754925 
L 820.581918 165.015036 
L 820.789533 164.594221 
L 820.997148 166.83561 
L 821.412378 175.706831 
L 822.242839 197.739511 
L 822.450454 197.547411 
L 822.865684 186.984177 
L 823.280914 177.318661 
L 823.696144 173.494799 
L 823.903759 173.049385 
L 824.111374 174.359811 
L 824.318989 178.455566 
L 825.357064 208.11634 
L 825.564679 209.45557 
L 825.772294 209.418322 
L 825.979909 208.75648 
L 826.187524 206.375504 
L 826.602754 196.676821 
L 827.225599 171.605176 
L 827.640829 156.62531 
L 827.848444 155.89661 
L 828.263675 165.31188 
L 829.094135 182.903652 
L 829.30175 185.426555 
L 829.509365 185.929607 
L 830.13221 181.347188 
L 830.339825 178.9465 
L 830.96267 169.271675 
L 831.170285 167.777226 
L 831.3779 165.011948 
L 832.20836 143.560845 
L 832.415975 145.33666 
L 833.03882 165.065918 
L 833.45405 176.119121 
L 833.661665 178.57971 
L 833.86928 179.407541 
L 834.076895 179.018842 
L 834.28451 177.411088 
L 834.492125 174.242061 
L 834.907356 161.404891 
L 835.322586 148.272081 
L 835.530201 145.046142 
L 835.737816 144.135232 
L 836.360661 148.356926 
L 836.568276 151.152301 
L 837.398736 166.936915 
L 837.606351 166.14924 
L 838.021581 162.123349 
L 838.229196 163.214552 
L 838.644426 171.391183 
L 839.682501 191.224765 
L 839.890116 193.169932 
L 840.097731 192.611239 
L 840.512961 187.050543 
L 841.135806 175.990787 
L 841.966267 157.118161 
L 842.589112 138.601986 
L 842.796727 135.206212 
L 843.004342 134.164442 
L 843.211957 135.610213 
L 843.627187 143.545577 
L 844.250032 160.174348 
L 844.665262 172.682834 
L 844.872877 175.852597 
L 845.080492 177.291173 
L 845.288107 177.530351 
L 845.495722 177.033248 
L 845.703337 176.004162 
L 846.533797 167.565751 
L 846.741412 167.913307 
L 846.949027 168.514469 
L 847.156642 168.044401 
L 847.779487 164.585217 
L 848.817563 154.162017 
L 849.025178 153.98983 
L 849.232793 154.46784 
L 850.063253 159.133073 
L 850.478483 168.984199 
L 851.101328 186.970426 
L 851.308943 189.061182 
L 851.516558 187.685391 
L 851.724173 183.561508 
L 852.554633 160.000908 
L 852.762248 159.156364 
L 852.969863 159.84608 
L 853.177478 162.045403 
L 854.007938 176.970219 
L 854.838399 182.133142 
L 855.046014 181.118843 
L 855.461244 178.343926 
L 855.668859 178.501731 
L 856.084089 181.590419 
L 856.291704 182.157941 
L 856.499319 181.458057 
L 856.914549 177.49857 
L 857.329779 173.57846 
L 857.537394 173.921011 
L 857.952624 177.955305 
L 858.575469 186.979738 
L 858.783084 187.604828 
L 859.613544 183.378476 
L 859.821159 180.343973 
L 860.444004 165.718817 
L 860.651619 165.455441 
L 860.859234 168.649734 
L 862.31254 207.299319 
L 862.520155 209.934928 
L 862.72777 209.920922 
L 862.935385 206.96221 
L 863.765845 184.914609 
L 864.181075 175.15519 
L 864.38869 173.246775 
L 864.596305 174.736859 
L 865.011535 186.45164 
L 865.426765 200.059853 
L 865.63438 204.024506 
L 865.841995 205.574885 
L 866.04961 204.997389 
L 866.46484 196.552462 
L 866.88007 189.070205 
L 867.087685 189.596415 
L 867.502915 195.717251 
L 868.333376 217.306495 
L 868.540991 218.819158 
L 868.748606 217.062875 
L 869.163836 206.640426 
L 869.786681 187.575513 
L 870.201911 180.289247 
L 870.409526 179.585047 
L 870.617141 180.853527 
L 871.447601 191.212437 
L 871.655216 189.920964 
L 872.900906 167.348282 
L 873.938981 136.479597 
L 874.146596 135.782754 
L 874.354212 137.775145 
L 874.769442 151.007163 
L 876.015132 198.64766 
L 876.222747 199.963168 
L 876.430362 197.305017 
L 876.845592 186.154239 
L 877.260822 173.393285 
L 877.468437 171.221348 
L 877.676052 171.566269 
L 878.091282 178.592593 
L 878.506512 185.836213 
L 878.921742 189.326796 
L 879.129357 189.829667 
L 879.336972 188.95618 
L 879.544587 187.284278 
L 879.959817 180.069829 
L 880.790278 161.738456 
L 881.205508 157.96591 
L 881.413123 157.335624 
L 881.620738 157.252065 
L 881.828353 157.656084 
L 882.035968 158.990986 
L 883.074043 171.433218 
L 883.489273 173.063909 
L 884.112118 180.223503 
L 884.319733 180.622661 
L 884.734963 176.611403 
L 885.565423 166.396944 
L 885.773038 165.439132 
L 885.980653 166.345505 
L 886.188268 168.5916 
L 886.811113 180.77982 
L 887.226343 187.788752 
L 887.433959 188.620383 
L 887.641574 188.131965 
L 887.849189 187.3572 
L 888.056804 187.629735 
L 888.679649 191.007644 
L 888.887264 190.237546 
L 889.302494 183.924912 
L 889.717724 176.551752 
L 889.925339 175.226957 
L 890.132954 176.288477 
L 890.548184 182.286625 
L 890.755799 183.334201 
L 890.963414 182.958564 
L 891.171029 182.230796 
L 891.378644 182.113708 
L 891.586259 183.316137 
L 892.001489 188.755759 
L 892.416719 194.096662 
L 892.624334 195.440226 
L 892.831949 195.811636 
L 893.039564 195.389224 
L 893.454794 193.627976 
L 893.870024 193.830278 
L 894.07764 193.849166 
L 894.285255 193.173106 
L 894.700485 191.200628 
L 894.9081 191.604638 
L 895.32333 195.376812 
L 895.73856 200.314111 
L 895.946175 201.169146 
L 896.15379 199.384552 
L 897.191865 178.158799 
L 897.607095 175.083175 
L 897.81471 174.349397 
L 898.022325 174.026924 
L 898.22994 174.664871 
L 898.64517 178.300031 
L 899.268015 185.511203 
L 900.30609 194.112472 
L 900.513706 193.549241 
L 900.721321 191.806577 
L 901.759396 178.674432 
L 901.967011 178.649915 
L 902.174626 179.711428 
L 902.589856 184.259487 
L 903.212701 192.822926 
L 903.420316 194.579988 
L 903.627931 195.153236 
L 903.835546 194.84808 
L 904.043161 193.636364 
L 905.911696 177.384674 
L 906.326926 175.567493 
L 906.534541 174.727814 
L 906.742156 174.691014 
L 906.949771 175.094984 
L 907.365002 177.476663 
L 907.780232 178.570411 
L 907.987847 178.082988 
L 908.195462 176.987235 
L 908.610692 174.330266 
L 908.818307 174.884495 
L 909.233537 177.473033 
L 909.441152 177.79087 
L 909.648767 177.209852 
L 909.856382 176.054983 
L 910.271612 172.00665 
L 911.102072 162.321459 
L 911.309687 162.021127 
L 911.724917 164.85342 
L 912.347762 169.424468 
L 913.178222 180.940413 
L 913.801068 186.366887 
L 914.008683 186.968428 
L 914.216298 186.371914 
L 914.631528 182.666208 
L 915.046758 174.216362 
L 915.669603 159.391342 
L 915.877218 158.716596 
L 916.084833 161.011787 
L 916.707678 176.613089 
L 917.122908 184.968969 
L 917.330523 187.425903 
L 917.538138 188.482794 
L 917.745753 187.825477 
L 918.160983 183.354074 
L 918.991443 172.014383 
L 919.199058 173.354115 
L 919.614288 182.527957 
L 920.029518 192.157476 
L 920.444749 197.418558 
L 920.859979 199.861352 
L 921.067594 199.645598 
L 921.275209 197.888912 
L 921.690439 191.059447 
L 922.313284 181.825225 
L 922.728514 178.916983 
L 922.936129 178.611696 
L 923.143744 179.453993 
L 923.351359 181.350321 
L 923.766589 188.970248 
L 924.389434 200.046545 
L 924.597049 200.73258 
L 924.804664 199.473759 
L 925.219894 193.47107 
L 925.842739 183.424245 
L 926.257969 178.72196 
L 926.465584 177.205003 
L 926.673199 176.660833 
L 926.880815 178.069522 
L 927.296045 184.27486 
L 927.711275 190.696271 
L 927.91889 192.589231 
L 928.126505 192.98409 
L 928.33412 191.730025 
L 928.74935 184.989714 
L 929.16458 179.831535 
L 929.372195 180.494039 
L 929.99504 185.629014 
L 930.41027 187.423831 
L 930.617885 187.945285 
L 930.8255 187.780955 
L 931.24073 183.905952 
L 931.65596 180.485438 
L 931.863575 179.867336 
L 932.07119 179.59901 
L 932.48642 178.242215 
L 932.90165 176.528364 
L 933.316881 172.920768 
L 933.939726 166.274251 
L 934.147341 165.574976 
L 934.354956 165.673492 
L 934.770186 166.409848 
L 934.977801 165.902865 
L 935.185416 164.961695 
L 935.393031 164.551867 
L 935.808261 164.416968 
L 936.015876 164.108479 
L 936.223491 162.749421 
L 936.638721 158.815065 
L 936.846336 158.330271 
L 937.053951 159.302938 
L 937.676796 164.604078 
L 938.092026 166.227048 
L 938.299641 166.209079 
L 938.507256 165.903447 
L 939.130101 164.173644 
L 939.337716 164.280936 
L 939.960562 167.22336 
L 940.375792 170.319291 
L 940.583407 171.417654 
L 940.791022 171.864108 
L 940.998637 171.631887 
L 941.206252 170.578256 
L 941.621482 167.164902 
L 942.036712 165.514422 
L 942.244327 165.725497 
L 942.451942 166.462974 
L 942.867172 169.31057 
L 943.282402 172.623413 
L 943.490017 173.084115 
L 943.697632 172.282201 
L 944.112862 168.199094 
L 944.735707 159.495987 
L 944.943322 158.747277 
L 945.150937 159.501248 
L 946.604243 169.219688 
L 947.019473 170.291097 
L 947.434703 170.635495 
L 947.642318 169.731582 
L 948.057548 164.842825 
L 948.680393 154.694747 
L 949.095623 151.455221 
L 949.303238 150.921555 
L 949.510853 151.779456 
L 949.926083 158.131007 
L 950.341313 165.678657 
L 950.548928 167.734265 
L 950.756543 168.432469 
L 950.964158 168.182797 
L 951.171773 167.511997 
L 951.587003 164.786842 
L 952.002233 160.932385 
L 952.417463 156.610633 
L 952.832693 154.057464 
L 953.040309 154.312806 
L 953.247924 155.235688 
L 953.455539 156.903767 
L 954.078384 166.648213 
L 954.493614 173.333923 
L 954.701229 175.232875 
L 954.908844 176.098539 
L 955.116459 175.672661 
L 956.154534 168.427556 
L 956.362149 168.42649 
L 956.569764 169.276166 
L 956.984994 173.691897 
L 957.607839 182.227114 
L 957.815454 184.053204 
L 958.023069 184.785722 
L 958.230684 184.936404 
L 958.438299 184.341414 
L 958.645914 183.396171 
L 959.061144 179.631893 
L 959.891605 169.757249 
L 960.306835 167.946498 
L 960.51445 168.07685 
L 961.137295 169.408384 
L 961.552525 167.905941 
L 962.382985 163.152385 
L 962.798215 161.873647 
L 963.00583 162.132181 
L 964.043905 167.513699 
L 964.459135 168.611332 
L 964.874365 170.552841 
L 965.289595 170.899373 
L 965.704825 171.632475 
L 966.535286 174.813211 
L 966.742901 175.164339 
L 966.950516 175.293586 
L 967.158131 175.046779 
L 967.988591 172.760587 
L 968.196206 172.673931 
L 968.403821 172.314874 
L 969.234281 168.388174 
L 969.441896 168.995382 
L 969.857126 172.805349 
L 970.479971 179.38405 
L 970.687586 180.399778 
L 970.895201 180.538241 
L 971.102816 179.561365 
L 971.725661 175.433794 
L 971.933276 174.558874 
L 972.763737 173.058649 
L 972.971352 173.048964 
L 973.178967 173.182789 
L 973.386582 173.147523 
L 974.009427 171.836618 
L 974.217042 172.3235 
L 974.632272 174.686156 
L 975.255117 179.056891 
L 975.462732 179.835654 
L 975.670347 180.177753 
L 975.877962 179.920499 
L 976.293192 178.145554 
L 976.708422 176.388682 
L 976.916037 175.935767 
L 977.538882 173.263523 
L 977.954112 171.812161 
L 978.161727 171.666051 
L 979.199802 172.502511 
L 979.407418 173.222298 
L 979.822648 176.279213 
L 980.237878 179.375246 
L 980.445493 180.104291 
L 980.653108 180.156709 
L 981.275953 178.659966 
L 982.106413 176.479178 
L 983.974948 174.105458 
L 984.390178 174.623071 
L 984.805408 175.605141 
L 985.013023 175.717002 
L 985.220638 175.56785 
L 986.051099 173.909478 
L 986.258714 173.985759 
L 986.466329 174.724224 
L 987.296789 179.875466 
L 987.504404 180.04161 
L 987.712019 179.567673 
L 988.542479 176.367647 
L 988.750094 176.309458 
L 989.165324 177.303914 
L 990.411014 180.982937 
L 990.826244 181.394874 
L 991.033859 181.330894 
L 991.449089 180.810446 
L 991.864319 180.431414 
L 992.69478 180.338251 
L 993.52524 180.183374 
L 993.94047 179.856845 
L 994.77093 178.986169 
L 995.60139 178.685566 
L 996.224235 178.327873 
L 996.84708 177.985021 
L 997.26231 178.03403 
L 998.715615 178.713009 
L 999.753691 179.308101 
L 1000.791766 179.126587 
L 1001.414611 178.610268 
L 1002.245071 177.894459 
L 1002.660301 177.931174 
L 1003.490761 178.348923 
L 1004.321221 178.826394 
L 1004.736451 178.73272 
L 1006.604987 177.788102 
L 1008.681137 177.445239 
L 1011.795362 176.562617 
L 1014.286743 176.410606 
L 1016.778123 176.218423 
L 1025.497955 175.780935 
L 1025.497955 175.780935 
" clip-path="url(#pda599f02dd)" style="fill: none; stroke: #0c5da5; stroke-width: 2; stroke-linecap: square"/>
   </g>
   <g id="patch_3">
    <path d="M 66.7525 354.3975 
L 66.7525 21.7575 
" style="fill: none; stroke: #000000; stroke-linejoin: miter; stroke-linecap: square"/>
   </g>
   <g id="patch_4">
    <path d="M 1071.1525 354.3975 
L 1071.1525 21.7575 
" style="fill: none; stroke: #000000; stroke-linejoin: miter; stroke-linecap: square"/>
   </g>
   <g id="patch_5">
    <path d="M 66.7525 354.3975 
L 1071.1525 354.3975 
" style="fill: none; stroke: #000000; stroke-linejoin: miter; stroke-linecap: square"/>
   </g>
   <g id="patch_6">
    <path d="M 66.7525 21.7575 
L 1071.1525 21.7575 
" style="fill: none; stroke: #000000; stroke-linejoin: miter; stroke-linecap: square"/>
   </g>
   <g id="text_13">
    <!-- Duzce_ Turkey Record no. 1613 -->
    <g transform="translate(443.6275 15.7575) scale(0.16 -0.16)">
     <defs>
      <path id="DejaVuSans-44" d="M 1259 4147 
L 1259 519 
L 2022 519 
Q 2988 519 3436 956 
Q 3884 1394 3884 2338 
Q 3884 3275 3436 3711 
Q 2988 4147 2022 4147 
L 1259 4147 
z
M 628 4666 
L 1925 4666 
Q 3281 4666 3915 4102 
Q 4550 3538 4550 2338 
Q 4550 1131 3912 565 
Q 3275 0 1925 0 
L 628 0 
L 628 4666 
z
" transform="scale(0.015625)"/>
      <path id="DejaVuSans-75" d="M 544 1381 
L 544 3500 
L 1119 3500 
L 1119 1403 
Q 1119 906 1312 657 
Q 1506 409 1894 409 
Q 2359 409 2629 706 
Q 2900 1003 2900 1516 
L 2900 3500 
L 3475 3500 
L 3475 0 
L 2900 0 
L 2900 538 
Q 2691 219 2414 64 
Q 2138 -91 1772 -91 
Q 1169 -91 856 284 
Q 544 659 544 1381 
z
M 1991 3584 
L 1991 3584 
z
" transform="scale(0.015625)"/>
      <path id="DejaVuSans-7a" d="M 353 3500 
L 3084 3500 
L 3084 2975 
L 922 459 
L 3084 459 
L 3084 0 
L 275 0 
L 275 525 
L 2438 3041 
L 353 3041 
L 353 3500 
z
" transform="scale(0.015625)"/>
      <path id="DejaVuSans-5f" d="M 3263 -1063 
L 3263 -1509 
L -63 -1509 
L -63 -1063 
L 3263 -1063 
z
" transform="scale(0.015625)"/>
      <path id="DejaVuSans-20" transform="scale(0.015625)"/>
      <path id="DejaVuSans-6b" d="M 581 4863 
L 1159 4863 
L 1159 1991 
L 2875 3500 
L 3609 3500 
L 1753 1863 
L 3688 0 
L 2938 0 
L 1159 1709 
L 1159 0 
L 581 0 
L 581 4863 
z
" transform="scale(0.015625)"/>
      <path id="DejaVuSans-79" d="M 2059 -325 
Q 1816 -950 1584 -1140 
Q 1353 -1331 966 -1331 
L 506 -1331 
L 506 -850 
L 844 -850 
Q 1081 -850 1212 -737 
Q 1344 -625 1503 -206 
L 1606 56 
L 191 3500 
L 800 3500 
L 1894 763 
L 2988 3500 
L 3597 3500 
L 2059 -325 
z
" transform="scale(0.015625)"/>
      <path id="DejaVuSans-52" d="M 2841 2188 
Q 3044 2119 3236 1894 
Q 3428 1669 3622 1275 
L 4263 0 
L 3584 0 
L 2988 1197 
Q 2756 1666 2539 1819 
Q 2322 1972 1947 1972 
L 1259 1972 
L 1259 0 
L 628 0 
L 628 4666 
L 2053 4666 
Q 2853 4666 3247 4331 
Q 3641 3997 3641 3322 
Q 3641 2881 3436 2590 
Q 3231 2300 2841 2188 
z
M 1259 4147 
L 1259 2491 
L 2053 2491 
Q 2509 2491 2742 2702 
Q 2975 2913 2975 3322 
Q 2975 3731 2742 3939 
Q 2509 4147 2053 4147 
L 1259 4147 
z
" transform="scale(0.015625)"/>
      <path id="DejaVuSans-64" d="M 2906 2969 
L 2906 4863 
L 3481 4863 
L 3481 0 
L 2906 0 
L 2906 525 
Q 2725 213 2448 61 
Q 2172 -91 1784 -91 
Q 1150 -91 751 415 
Q 353 922 353 1747 
Q 353 2572 751 3078 
Q 1150 3584 1784 3584 
Q 2172 3584 2448 3432 
Q 2725 3281 2906 2969 
z
M 947 1747 
Q 947 1113 1208 752 
Q 1469 391 1925 391 
Q 2381 391 2643 752 
Q 2906 1113 2906 1747 
Q 2906 2381 2643 2742 
Q 2381 3103 1925 3103 
Q 1469 3103 1208 2742 
Q 947 2381 947 1747 
z
" transform="scale(0.015625)"/>
      <path id="DejaVuSans-36" d="M 2113 2584 
Q 1688 2584 1439 2293 
Q 1191 2003 1191 1497 
Q 1191 994 1439 701 
Q 1688 409 2113 409 
Q 2538 409 2786 701 
Q 3034 994 3034 1497 
Q 3034 2003 2786 2293 
Q 2538 2584 2113 2584 
z
M 3366 4563 
L 3366 3988 
Q 3128 4100 2886 4159 
Q 2644 4219 2406 4219 
Q 1781 4219 1451 3797 
Q 1122 3375 1075 2522 
Q 1259 2794 1537 2939 
Q 1816 3084 2150 3084 
Q 2853 3084 3261 2657 
Q 3669 2231 3669 1497 
Q 3669 778 3244 343 
Q 2819 -91 2113 -91 
Q 1303 -91 875 529 
Q 447 1150 447 2328 
Q 447 3434 972 4092 
Q 1497 4750 2381 4750 
Q 2619 4750 2861 4703 
Q 3103 4656 3366 4563 
z
" transform="scale(0.015625)"/>
     </defs>
     <use xlink:href="#DejaVuSans-44"/>
     <use xlink:href="#DejaVuSans-75" x="77.001953"/>
     <use xlink:href="#DejaVuSans-7a" x="140.380859"/>
     <use xlink:href="#DejaVuSans-63" x="192.871094"/>
     <use xlink:href="#DejaVuSans-65" x="247.851562"/>
     <use xlink:href="#DejaVuSans-5f" x="309.375"/>
     <use xlink:href="#DejaVuSans-20" x="359.375"/>
     <use xlink:href="#DejaVuSans-54" x="391.162109"/>
     <use xlink:href="#DejaVuSans-75" x="437.121094"/>
     <use xlink:href="#DejaVuSans-72" x="500.5"/>
     <use xlink:href="#DejaVuSans-6b" x="541.613281"/>
     <use xlink:href="#DejaVuSans-65" x="595.898438"/>
     <use xlink:href="#DejaVuSans-79" x="657.421875"/>
     <use xlink:href="#DejaVuSans-20" x="716.601562"/>
     <use xlink:href="#DejaVuSans-52" x="748.388672"/>
     <use xlink:href="#DejaVuSans-65" x="813.371094"/>
     <use xlink:href="#DejaVuSans-63" x="874.894531"/>
     <use xlink:href="#DejaVuSans-6f" x="929.875"/>
     <use xlink:href="#DejaVuSans-72" x="991.056641"/>
     <use xlink:href="#DejaVuSans-64" x="1030.419922"/>
     <use xlink:href="#DejaVuSans-20" x="1093.896484"/>
     <use xlink:href="#DejaVuSans-6e" x="1125.683594"/>
     <use xlink:href="#DejaVuSans-6f" x="1189.0625"/>
     <use xlink:href="#DejaVuSans-2e" x="1248.494141"/>
     <use xlink:href="#DejaVuSans-20" x="1280.28125"/>
     <use xlink:href="#DejaVuSans-31" x="1312.068359"/>
     <use xlink:href="#DejaVuSans-36" x="1375.691406"/>
     <use xlink:href="#DejaVuSans-31" x="1439.314453"/>
     <use xlink:href="#DejaVuSans-33" x="1502.9375"/>
    </g>
   </g>
  </g>
 </g>
 <defs>
  <clipPath id="pda599f02dd">
   <rect x="66.7525" y="21.7575" width="1004.4" height="332.64"/>
  </clipPath>
 </defs>
</svg>
