<?xml version="1.0" encoding="utf-8" standalone="no"?>
<!DOCTYPE svg PUBLIC "-//W3C//DTD SVG 1.1//EN"
  "http://www.w3.org/Graphics/SVG/1.1/DTD/svg11.dtd">
<svg xmlns:xlink="http://www.w3.org/1999/xlink" width="1103.9775pt" height="396.4675pt" viewBox="0 0 1103.9775 396.4675" xmlns="http://www.w3.org/2000/svg" version="1.1">
 <metadata>
  <rdf:RDF xmlns:dc="http://purl.org/dc/elements/1.1/" xmlns:cc="http://creativecommons.org/ns#" xmlns:rdf="http://www.w3.org/1999/02/22-rdf-syntax-ns#">
   <cc:Work>
    <dc:type rdf:resource="http://purl.org/dc/dcmitype/StillImage"/>
    <dc:date>2023-06-06T10:20:49.253700</dc:date>
    <dc:format>image/svg+xml</dc:format>
    <dc:creator>
     <cc:Agent>
      <dc:title>Matplotlib v3.7.1, https://matplotlib.org/</dc:title>
     </cc:Agent>
    </dc:creator>
   </cc:Work>
  </rdf:RDF>
 </metadata>
 <defs>
  <style type="text/css">*{stroke-linejoin: round; stroke-linecap: butt}</style>
 </defs>
 <g id="figure_1">
  <g id="patch_1">
   <path d="M 0 396.4675 
L 1103.9775 396.4675 
L 1103.9775 0 
L 0 0 
z
" style="fill: #ffffff"/>
  </g>
  <g id="axes_1">
   <g id="patch_2">
    <path d="M 95.9775 354.3975 
L 1100.3775 354.3975 
L 1100.3775 21.7575 
L 95.9775 21.7575 
z
" style="fill: #ffffff"/>
   </g>
   <g id="matplotlib.axis_1">
    <g id="xtick_1">
     <g id="line2d_1">
      <path d="M 141.632045 354.3975 
L 141.632045 21.7575 
" clip-path="url(#p4666f3ac8f)" style="fill: none; stroke-dasharray: 1.85,0.8; stroke-dashoffset: 0; stroke: #000000; stroke-opacity: 0.5; stroke-width: 0.5"/>
     </g>
     <g id="line2d_2">
      <defs>
       <path id="m3212b47ac9" d="M 0 0 
L 0 -6 
" style="stroke: #000000"/>
      </defs>
      <g>
       <use xlink:href="#m3212b47ac9" x="141.632045" y="354.3975" style="stroke: #000000"/>
      </g>
     </g>
     <g id="line2d_3">
      <defs>
       <path id="m4d758b417d" d="M 0 0 
L 0 6 
" style="stroke: #000000"/>
      </defs>
      <g>
       <use xlink:href="#m4d758b417d" x="141.632045" y="21.7575" style="stroke: #000000"/>
      </g>
     </g>
     <g id="text_1">
      <!-- 0 -->
      <g transform="translate(136.542045 370.055) scale(0.16 -0.16)">
       <defs>
        <path id="DejaVuSans-30" d="M 2034 4250 
Q 1547 4250 1301 3770 
Q 1056 3291 1056 2328 
Q 1056 1369 1301 889 
Q 1547 409 2034 409 
Q 2525 409 2770 889 
Q 3016 1369 3016 2328 
Q 3016 3291 2770 3770 
Q 2525 4250 2034 4250 
z
M 2034 4750 
Q 2819 4750 3233 4129 
Q 3647 3509 3647 2328 
Q 3647 1150 3233 529 
Q 2819 -91 2034 -91 
Q 1250 -91 836 529 
Q 422 1150 422 2328 
Q 422 3509 836 4129 
Q 1250 4750 2034 4750 
z
" transform="scale(0.015625)"/>
       </defs>
       <use xlink:href="#DejaVuSans-30"/>
      </g>
     </g>
    </g>
    <g id="xtick_2">
     <g id="line2d_4">
      <path d="M 349.247077 354.3975 
L 349.247077 21.7575 
" clip-path="url(#p4666f3ac8f)" style="fill: none; stroke-dasharray: 1.85,0.8; stroke-dashoffset: 0; stroke: #000000; stroke-opacity: 0.5; stroke-width: 0.5"/>
     </g>
     <g id="line2d_5">
      <g>
       <use xlink:href="#m3212b47ac9" x="349.247077" y="354.3975" style="stroke: #000000"/>
      </g>
     </g>
     <g id="line2d_6">
      <g>
       <use xlink:href="#m4d758b417d" x="349.247077" y="21.7575" style="stroke: #000000"/>
      </g>
     </g>
     <g id="text_2">
      <!-- 10 -->
      <g transform="translate(339.067077 370.055) scale(0.16 -0.16)">
       <defs>
        <path id="DejaVuSans-31" d="M 794 531 
L 1825 531 
L 1825 4091 
L 703 3866 
L 703 4441 
L 1819 4666 
L 2450 4666 
L 2450 531 
L 3481 531 
L 3481 0 
L 794 0 
L 794 531 
z
" transform="scale(0.015625)"/>
       </defs>
       <use xlink:href="#DejaVuSans-31"/>
       <use xlink:href="#DejaVuSans-30" x="63.623047"/>
      </g>
     </g>
    </g>
    <g id="xtick_3">
     <g id="line2d_7">
      <path d="M 556.862109 354.3975 
L 556.862109 21.7575 
" clip-path="url(#p4666f3ac8f)" style="fill: none; stroke-dasharray: 1.85,0.8; stroke-dashoffset: 0; stroke: #000000; stroke-opacity: 0.5; stroke-width: 0.5"/>
     </g>
     <g id="line2d_8">
      <g>
       <use xlink:href="#m3212b47ac9" x="556.862109" y="354.3975" style="stroke: #000000"/>
      </g>
     </g>
     <g id="line2d_9">
      <g>
       <use xlink:href="#m4d758b417d" x="556.862109" y="21.7575" style="stroke: #000000"/>
      </g>
     </g>
     <g id="text_3">
      <!-- 20 -->
      <g transform="translate(546.682109 370.055) scale(0.16 -0.16)">
       <defs>
        <path id="DejaVuSans-32" d="M 1228 531 
L 3431 531 
L 3431 0 
L 469 0 
L 469 531 
Q 828 903 1448 1529 
Q 2069 2156 2228 2338 
Q 2531 2678 2651 2914 
Q 2772 3150 2772 3378 
Q 2772 3750 2511 3984 
Q 2250 4219 1831 4219 
Q 1534 4219 1204 4116 
Q 875 4013 500 3803 
L 500 4441 
Q 881 4594 1212 4672 
Q 1544 4750 1819 4750 
Q 2544 4750 2975 4387 
Q 3406 4025 3406 3419 
Q 3406 3131 3298 2873 
Q 3191 2616 2906 2266 
Q 2828 2175 2409 1742 
Q 1991 1309 1228 531 
z
" transform="scale(0.015625)"/>
       </defs>
       <use xlink:href="#DejaVuSans-32"/>
       <use xlink:href="#DejaVuSans-30" x="63.623047"/>
      </g>
     </g>
    </g>
    <g id="xtick_4">
     <g id="line2d_10">
      <path d="M 764.47714 354.3975 
L 764.47714 21.7575 
" clip-path="url(#p4666f3ac8f)" style="fill: none; stroke-dasharray: 1.85,0.8; stroke-dashoffset: 0; stroke: #000000; stroke-opacity: 0.5; stroke-width: 0.5"/>
     </g>
     <g id="line2d_11">
      <g>
       <use xlink:href="#m3212b47ac9" x="764.47714" y="354.3975" style="stroke: #000000"/>
      </g>
     </g>
     <g id="line2d_12">
      <g>
       <use xlink:href="#m4d758b417d" x="764.47714" y="21.7575" style="stroke: #000000"/>
      </g>
     </g>
     <g id="text_4">
      <!-- 30 -->
      <g transform="translate(754.29714 370.055) scale(0.16 -0.16)">
       <defs>
        <path id="DejaVuSans-33" d="M 2597 2516 
Q 3050 2419 3304 2112 
Q 3559 1806 3559 1356 
Q 3559 666 3084 287 
Q 2609 -91 1734 -91 
Q 1441 -91 1130 -33 
Q 819 25 488 141 
L 488 750 
Q 750 597 1062 519 
Q 1375 441 1716 441 
Q 2309 441 2620 675 
Q 2931 909 2931 1356 
Q 2931 1769 2642 2001 
Q 2353 2234 1838 2234 
L 1294 2234 
L 1294 2753 
L 1863 2753 
Q 2328 2753 2575 2939 
Q 2822 3125 2822 3475 
Q 2822 3834 2567 4026 
Q 2313 4219 1838 4219 
Q 1578 4219 1281 4162 
Q 984 4106 628 3988 
L 628 4550 
Q 988 4650 1302 4700 
Q 1616 4750 1894 4750 
Q 2613 4750 3031 4423 
Q 3450 4097 3450 3541 
Q 3450 3153 3228 2886 
Q 3006 2619 2597 2516 
z
" transform="scale(0.015625)"/>
       </defs>
       <use xlink:href="#DejaVuSans-33"/>
       <use xlink:href="#DejaVuSans-30" x="63.623047"/>
      </g>
     </g>
    </g>
    <g id="xtick_5">
     <g id="line2d_13">
      <path d="M 972.092172 354.3975 
L 972.092172 21.7575 
" clip-path="url(#p4666f3ac8f)" style="fill: none; stroke-dasharray: 1.85,0.8; stroke-dashoffset: 0; stroke: #000000; stroke-opacity: 0.5; stroke-width: 0.5"/>
     </g>
     <g id="line2d_14">
      <g>
       <use xlink:href="#m3212b47ac9" x="972.092172" y="354.3975" style="stroke: #000000"/>
      </g>
     </g>
     <g id="line2d_15">
      <g>
       <use xlink:href="#m4d758b417d" x="972.092172" y="21.7575" style="stroke: #000000"/>
      </g>
     </g>
     <g id="text_5">
      <!-- 40 -->
      <g transform="translate(961.912172 370.055) scale(0.16 -0.16)">
       <defs>
        <path id="DejaVuSans-34" d="M 2419 4116 
L 825 1625 
L 2419 1625 
L 2419 4116 
z
M 2253 4666 
L 3047 4666 
L 3047 1625 
L 3713 1625 
L 3713 1100 
L 3047 1100 
L 3047 0 
L 2419 0 
L 2419 1100 
L 313 1100 
L 313 1709 
L 2253 4666 
z
" transform="scale(0.015625)"/>
       </defs>
       <use xlink:href="#DejaVuSans-34"/>
       <use xlink:href="#DejaVuSans-30" x="63.623047"/>
      </g>
     </g>
    </g>
    <g id="xtick_6">
     <g id="line2d_16">
      <defs>
       <path id="m3a4a0d02a0" d="M 0 0 
L 0 -3 
" style="stroke: #000000"/>
      </defs>
      <g>
       <use xlink:href="#m3a4a0d02a0" x="100.109039" y="354.3975" style="stroke: #000000"/>
      </g>
     </g>
     <g id="line2d_17">
      <defs>
       <path id="m9df7fb8bfd" d="M 0 0 
L 0 3 
" style="stroke: #000000"/>
      </defs>
      <g>
       <use xlink:href="#m9df7fb8bfd" x="100.109039" y="21.7575" style="stroke: #000000"/>
      </g>
     </g>
    </g>
    <g id="xtick_7">
     <g id="line2d_18">
      <g>
       <use xlink:href="#m3a4a0d02a0" x="183.155052" y="354.3975" style="stroke: #000000"/>
      </g>
     </g>
     <g id="line2d_19">
      <g>
       <use xlink:href="#m9df7fb8bfd" x="183.155052" y="21.7575" style="stroke: #000000"/>
      </g>
     </g>
    </g>
    <g id="xtick_8">
     <g id="line2d_20">
      <g>
       <use xlink:href="#m3a4a0d02a0" x="224.678058" y="354.3975" style="stroke: #000000"/>
      </g>
     </g>
     <g id="line2d_21">
      <g>
       <use xlink:href="#m9df7fb8bfd" x="224.678058" y="21.7575" style="stroke: #000000"/>
      </g>
     </g>
    </g>
    <g id="xtick_9">
     <g id="line2d_22">
      <g>
       <use xlink:href="#m3a4a0d02a0" x="266.201064" y="354.3975" style="stroke: #000000"/>
      </g>
     </g>
     <g id="line2d_23">
      <g>
       <use xlink:href="#m9df7fb8bfd" x="266.201064" y="21.7575" style="stroke: #000000"/>
      </g>
     </g>
    </g>
    <g id="xtick_10">
     <g id="line2d_24">
      <g>
       <use xlink:href="#m3a4a0d02a0" x="307.724071" y="354.3975" style="stroke: #000000"/>
      </g>
     </g>
     <g id="line2d_25">
      <g>
       <use xlink:href="#m9df7fb8bfd" x="307.724071" y="21.7575" style="stroke: #000000"/>
      </g>
     </g>
    </g>
    <g id="xtick_11">
     <g id="line2d_26">
      <g>
       <use xlink:href="#m3a4a0d02a0" x="390.770083" y="354.3975" style="stroke: #000000"/>
      </g>
     </g>
     <g id="line2d_27">
      <g>
       <use xlink:href="#m9df7fb8bfd" x="390.770083" y="21.7575" style="stroke: #000000"/>
      </g>
     </g>
    </g>
    <g id="xtick_12">
     <g id="line2d_28">
      <g>
       <use xlink:href="#m3a4a0d02a0" x="432.29309" y="354.3975" style="stroke: #000000"/>
      </g>
     </g>
     <g id="line2d_29">
      <g>
       <use xlink:href="#m9df7fb8bfd" x="432.29309" y="21.7575" style="stroke: #000000"/>
      </g>
     </g>
    </g>
    <g id="xtick_13">
     <g id="line2d_30">
      <g>
       <use xlink:href="#m3a4a0d02a0" x="473.816096" y="354.3975" style="stroke: #000000"/>
      </g>
     </g>
     <g id="line2d_31">
      <g>
       <use xlink:href="#m9df7fb8bfd" x="473.816096" y="21.7575" style="stroke: #000000"/>
      </g>
     </g>
    </g>
    <g id="xtick_14">
     <g id="line2d_32">
      <g>
       <use xlink:href="#m3a4a0d02a0" x="515.339102" y="354.3975" style="stroke: #000000"/>
      </g>
     </g>
     <g id="line2d_33">
      <g>
       <use xlink:href="#m9df7fb8bfd" x="515.339102" y="21.7575" style="stroke: #000000"/>
      </g>
     </g>
    </g>
    <g id="xtick_15">
     <g id="line2d_34">
      <g>
       <use xlink:href="#m3a4a0d02a0" x="598.385115" y="354.3975" style="stroke: #000000"/>
      </g>
     </g>
     <g id="line2d_35">
      <g>
       <use xlink:href="#m9df7fb8bfd" x="598.385115" y="21.7575" style="stroke: #000000"/>
      </g>
     </g>
    </g>
    <g id="xtick_16">
     <g id="line2d_36">
      <g>
       <use xlink:href="#m3a4a0d02a0" x="639.908121" y="354.3975" style="stroke: #000000"/>
      </g>
     </g>
     <g id="line2d_37">
      <g>
       <use xlink:href="#m9df7fb8bfd" x="639.908121" y="21.7575" style="stroke: #000000"/>
      </g>
     </g>
    </g>
    <g id="xtick_17">
     <g id="line2d_38">
      <g>
       <use xlink:href="#m3a4a0d02a0" x="681.431128" y="354.3975" style="stroke: #000000"/>
      </g>
     </g>
     <g id="line2d_39">
      <g>
       <use xlink:href="#m9df7fb8bfd" x="681.431128" y="21.7575" style="stroke: #000000"/>
      </g>
     </g>
    </g>
    <g id="xtick_18">
     <g id="line2d_40">
      <g>
       <use xlink:href="#m3a4a0d02a0" x="722.954134" y="354.3975" style="stroke: #000000"/>
      </g>
     </g>
     <g id="line2d_41">
      <g>
       <use xlink:href="#m9df7fb8bfd" x="722.954134" y="21.7575" style="stroke: #000000"/>
      </g>
     </g>
    </g>
    <g id="xtick_19">
     <g id="line2d_42">
      <g>
       <use xlink:href="#m3a4a0d02a0" x="806.000147" y="354.3975" style="stroke: #000000"/>
      </g>
     </g>
     <g id="line2d_43">
      <g>
       <use xlink:href="#m9df7fb8bfd" x="806.000147" y="21.7575" style="stroke: #000000"/>
      </g>
     </g>
    </g>
    <g id="xtick_20">
     <g id="line2d_44">
      <g>
       <use xlink:href="#m3a4a0d02a0" x="847.523153" y="354.3975" style="stroke: #000000"/>
      </g>
     </g>
     <g id="line2d_45">
      <g>
       <use xlink:href="#m9df7fb8bfd" x="847.523153" y="21.7575" style="stroke: #000000"/>
      </g>
     </g>
    </g>
    <g id="xtick_21">
     <g id="line2d_46">
      <g>
       <use xlink:href="#m3a4a0d02a0" x="889.046159" y="354.3975" style="stroke: #000000"/>
      </g>
     </g>
     <g id="line2d_47">
      <g>
       <use xlink:href="#m9df7fb8bfd" x="889.046159" y="21.7575" style="stroke: #000000"/>
      </g>
     </g>
    </g>
    <g id="xtick_22">
     <g id="line2d_48">
      <g>
       <use xlink:href="#m3a4a0d02a0" x="930.569166" y="354.3975" style="stroke: #000000"/>
      </g>
     </g>
     <g id="line2d_49">
      <g>
       <use xlink:href="#m9df7fb8bfd" x="930.569166" y="21.7575" style="stroke: #000000"/>
      </g>
     </g>
    </g>
    <g id="xtick_23">
     <g id="line2d_50">
      <g>
       <use xlink:href="#m3a4a0d02a0" x="1013.615178" y="354.3975" style="stroke: #000000"/>
      </g>
     </g>
     <g id="line2d_51">
      <g>
       <use xlink:href="#m9df7fb8bfd" x="1013.615178" y="21.7575" style="stroke: #000000"/>
      </g>
     </g>
    </g>
    <g id="xtick_24">
     <g id="line2d_52">
      <g>
       <use xlink:href="#m3a4a0d02a0" x="1055.138185" y="354.3975" style="stroke: #000000"/>
      </g>
     </g>
     <g id="line2d_53">
      <g>
       <use xlink:href="#m9df7fb8bfd" x="1055.138185" y="21.7575" style="stroke: #000000"/>
      </g>
     </g>
    </g>
    <g id="xtick_25">
     <g id="line2d_54">
      <g>
       <use xlink:href="#m3a4a0d02a0" x="1096.661191" y="354.3975" style="stroke: #000000"/>
      </g>
     </g>
     <g id="line2d_55">
      <g>
       <use xlink:href="#m9df7fb8bfd" x="1096.661191" y="21.7575" style="stroke: #000000"/>
      </g>
     </g>
    </g>
    <g id="text_6">
     <!-- Time(s) -->
     <g transform="translate(568.19375 389.54) scale(0.16 -0.16)">
      <defs>
       <path id="DejaVuSans-54" d="M -19 4666 
L 3928 4666 
L 3928 4134 
L 2272 4134 
L 2272 0 
L 1638 0 
L 1638 4134 
L -19 4134 
L -19 4666 
z
" transform="scale(0.015625)"/>
       <path id="DejaVuSans-69" d="M 603 3500 
L 1178 3500 
L 1178 0 
L 603 0 
L 603 3500 
z
M 603 4863 
L 1178 4863 
L 1178 4134 
L 603 4134 
L 603 4863 
z
" transform="scale(0.015625)"/>
       <path id="DejaVuSans-6d" d="M 3328 2828 
Q 3544 3216 3844 3400 
Q 4144 3584 4550 3584 
Q 5097 3584 5394 3201 
Q 5691 2819 5691 2113 
L 5691 0 
L 5113 0 
L 5113 2094 
Q 5113 2597 4934 2840 
Q 4756 3084 4391 3084 
Q 3944 3084 3684 2787 
Q 3425 2491 3425 1978 
L 3425 0 
L 2847 0 
L 2847 2094 
Q 2847 2600 2669 2842 
Q 2491 3084 2119 3084 
Q 1678 3084 1418 2786 
Q 1159 2488 1159 1978 
L 1159 0 
L 581 0 
L 581 3500 
L 1159 3500 
L 1159 2956 
Q 1356 3278 1631 3431 
Q 1906 3584 2284 3584 
Q 2666 3584 2933 3390 
Q 3200 3197 3328 2828 
z
" transform="scale(0.015625)"/>
       <path id="DejaVuSans-65" d="M 3597 1894 
L 3597 1613 
L 953 1613 
Q 991 1019 1311 708 
Q 1631 397 2203 397 
Q 2534 397 2845 478 
Q 3156 559 3463 722 
L 3463 178 
Q 3153 47 2828 -22 
Q 2503 -91 2169 -91 
Q 1331 -91 842 396 
Q 353 884 353 1716 
Q 353 2575 817 3079 
Q 1281 3584 2069 3584 
Q 2775 3584 3186 3129 
Q 3597 2675 3597 1894 
z
M 3022 2063 
Q 3016 2534 2758 2815 
Q 2500 3097 2075 3097 
Q 1594 3097 1305 2825 
Q 1016 2553 972 2059 
L 3022 2063 
z
" transform="scale(0.015625)"/>
       <path id="DejaVuSans-28" d="M 1984 4856 
Q 1566 4138 1362 3434 
Q 1159 2731 1159 2009 
Q 1159 1288 1364 580 
Q 1569 -128 1984 -844 
L 1484 -844 
Q 1016 -109 783 600 
Q 550 1309 550 2009 
Q 550 2706 781 3412 
Q 1013 4119 1484 4856 
L 1984 4856 
z
" transform="scale(0.015625)"/>
       <path id="DejaVuSans-73" d="M 2834 3397 
L 2834 2853 
Q 2591 2978 2328 3040 
Q 2066 3103 1784 3103 
Q 1356 3103 1142 2972 
Q 928 2841 928 2578 
Q 928 2378 1081 2264 
Q 1234 2150 1697 2047 
L 1894 2003 
Q 2506 1872 2764 1633 
Q 3022 1394 3022 966 
Q 3022 478 2636 193 
Q 2250 -91 1575 -91 
Q 1294 -91 989 -36 
Q 684 19 347 128 
L 347 722 
Q 666 556 975 473 
Q 1284 391 1588 391 
Q 1994 391 2212 530 
Q 2431 669 2431 922 
Q 2431 1156 2273 1281 
Q 2116 1406 1581 1522 
L 1381 1569 
Q 847 1681 609 1914 
Q 372 2147 372 2553 
Q 372 3047 722 3315 
Q 1072 3584 1716 3584 
Q 2034 3584 2315 3537 
Q 2597 3491 2834 3397 
z
" transform="scale(0.015625)"/>
       <path id="DejaVuSans-29" d="M 513 4856 
L 1013 4856 
Q 1481 4119 1714 3412 
Q 1947 2706 1947 2009 
Q 1947 1309 1714 600 
Q 1481 -109 1013 -844 
L 513 -844 
Q 928 -128 1133 580 
Q 1338 1288 1338 2009 
Q 1338 2731 1133 3434 
Q 928 4138 513 4856 
z
" transform="scale(0.015625)"/>
      </defs>
      <use xlink:href="#DejaVuSans-54"/>
      <use xlink:href="#DejaVuSans-69" x="57.958984"/>
      <use xlink:href="#DejaVuSans-6d" x="85.742188"/>
      <use xlink:href="#DejaVuSans-65" x="183.154297"/>
      <use xlink:href="#DejaVuSans-28" x="244.677734"/>
      <use xlink:href="#DejaVuSans-73" x="283.691406"/>
      <use xlink:href="#DejaVuSans-29" x="335.791016"/>
     </g>
    </g>
   </g>
   <g id="matplotlib.axis_2">
    <g id="ytick_1">
     <g id="line2d_56">
      <path d="M 95.9775 343.141114 
L 1100.3775 343.141114 
" clip-path="url(#p4666f3ac8f)" style="fill: none; stroke-dasharray: 1.85,0.8; stroke-dashoffset: 0; stroke: #000000; stroke-opacity: 0.5; stroke-width: 0.5"/>
     </g>
     <g id="line2d_57">
      <defs>
       <path id="m5046abbc38" d="M 0 0 
L 6 0 
" style="stroke: #000000"/>
      </defs>
      <g>
       <use xlink:href="#m5046abbc38" x="95.9775" y="343.141114" style="stroke: #000000"/>
      </g>
     </g>
     <g id="line2d_58">
      <defs>
       <path id="md1fc0329d4" d="M 0 0 
L -6 0 
" style="stroke: #000000"/>
      </defs>
      <g>
       <use xlink:href="#md1fc0329d4" x="1100.3775" y="343.141114" style="stroke: #000000"/>
      </g>
     </g>
     <g id="text_7">
      <!-- −0.0100 -->
      <g transform="translate(23.085 349.219864) scale(0.16 -0.16)">
       <defs>
        <path id="DejaVuSans-2212" d="M 678 2272 
L 4684 2272 
L 4684 1741 
L 678 1741 
L 678 2272 
z
" transform="scale(0.015625)"/>
        <path id="DejaVuSans-2e" d="M 684 794 
L 1344 794 
L 1344 0 
L 684 0 
L 684 794 
z
" transform="scale(0.015625)"/>
       </defs>
       <use xlink:href="#DejaVuSans-2212"/>
       <use xlink:href="#DejaVuSans-30" x="83.789062"/>
       <use xlink:href="#DejaVuSans-2e" x="147.412109"/>
       <use xlink:href="#DejaVuSans-30" x="179.199219"/>
       <use xlink:href="#DejaVuSans-31" x="242.822266"/>
       <use xlink:href="#DejaVuSans-30" x="306.445312"/>
       <use xlink:href="#DejaVuSans-30" x="370.068359"/>
      </g>
     </g>
    </g>
    <g id="ytick_2">
     <g id="line2d_59">
      <path d="M 95.9775 304.285249 
L 1100.3775 304.285249 
" clip-path="url(#p4666f3ac8f)" style="fill: none; stroke-dasharray: 1.85,0.8; stroke-dashoffset: 0; stroke: #000000; stroke-opacity: 0.5; stroke-width: 0.5"/>
     </g>
     <g id="line2d_60">
      <g>
       <use xlink:href="#m5046abbc38" x="95.9775" y="304.285249" style="stroke: #000000"/>
      </g>
     </g>
     <g id="line2d_61">
      <g>
       <use xlink:href="#md1fc0329d4" x="1100.3775" y="304.285249" style="stroke: #000000"/>
      </g>
     </g>
     <g id="text_8">
      <!-- −0.0075 -->
      <g transform="translate(23.085 310.363999) scale(0.16 -0.16)">
       <defs>
        <path id="DejaVuSans-37" d="M 525 4666 
L 3525 4666 
L 3525 4397 
L 1831 0 
L 1172 0 
L 2766 4134 
L 525 4134 
L 525 4666 
z
" transform="scale(0.015625)"/>
        <path id="DejaVuSans-35" d="M 691 4666 
L 3169 4666 
L 3169 4134 
L 1269 4134 
L 1269 2991 
Q 1406 3038 1543 3061 
Q 1681 3084 1819 3084 
Q 2600 3084 3056 2656 
Q 3513 2228 3513 1497 
Q 3513 744 3044 326 
Q 2575 -91 1722 -91 
Q 1428 -91 1123 -41 
Q 819 9 494 109 
L 494 744 
Q 775 591 1075 516 
Q 1375 441 1709 441 
Q 2250 441 2565 725 
Q 2881 1009 2881 1497 
Q 2881 1984 2565 2268 
Q 2250 2553 1709 2553 
Q 1456 2553 1204 2497 
Q 953 2441 691 2322 
L 691 4666 
z
" transform="scale(0.015625)"/>
       </defs>
       <use xlink:href="#DejaVuSans-2212"/>
       <use xlink:href="#DejaVuSans-30" x="83.789062"/>
       <use xlink:href="#DejaVuSans-2e" x="147.412109"/>
       <use xlink:href="#DejaVuSans-30" x="179.199219"/>
       <use xlink:href="#DejaVuSans-30" x="242.822266"/>
       <use xlink:href="#DejaVuSans-37" x="306.445312"/>
       <use xlink:href="#DejaVuSans-35" x="370.068359"/>
      </g>
     </g>
    </g>
    <g id="ytick_3">
     <g id="line2d_62">
      <path d="M 95.9775 265.429384 
L 1100.3775 265.429384 
" clip-path="url(#p4666f3ac8f)" style="fill: none; stroke-dasharray: 1.85,0.8; stroke-dashoffset: 0; stroke: #000000; stroke-opacity: 0.5; stroke-width: 0.5"/>
     </g>
     <g id="line2d_63">
      <g>
       <use xlink:href="#m5046abbc38" x="95.9775" y="265.429384" style="stroke: #000000"/>
      </g>
     </g>
     <g id="line2d_64">
      <g>
       <use xlink:href="#md1fc0329d4" x="1100.3775" y="265.429384" style="stroke: #000000"/>
      </g>
     </g>
     <g id="text_9">
      <!-- −0.0050 -->
      <g transform="translate(23.085 271.508134) scale(0.16 -0.16)">
       <use xlink:href="#DejaVuSans-2212"/>
       <use xlink:href="#DejaVuSans-30" x="83.789062"/>
       <use xlink:href="#DejaVuSans-2e" x="147.412109"/>
       <use xlink:href="#DejaVuSans-30" x="179.199219"/>
       <use xlink:href="#DejaVuSans-30" x="242.822266"/>
       <use xlink:href="#DejaVuSans-35" x="306.445312"/>
       <use xlink:href="#DejaVuSans-30" x="370.068359"/>
      </g>
     </g>
    </g>
    <g id="ytick_4">
     <g id="line2d_65">
      <path d="M 95.9775 226.57352 
L 1100.3775 226.57352 
" clip-path="url(#p4666f3ac8f)" style="fill: none; stroke-dasharray: 1.85,0.8; stroke-dashoffset: 0; stroke: #000000; stroke-opacity: 0.5; stroke-width: 0.5"/>
     </g>
     <g id="line2d_66">
      <g>
       <use xlink:href="#m5046abbc38" x="95.9775" y="226.57352" style="stroke: #000000"/>
      </g>
     </g>
     <g id="line2d_67">
      <g>
       <use xlink:href="#md1fc0329d4" x="1100.3775" y="226.57352" style="stroke: #000000"/>
      </g>
     </g>
     <g id="text_10">
      <!-- −0.0025 -->
      <g transform="translate(23.085 232.65227) scale(0.16 -0.16)">
       <use xlink:href="#DejaVuSans-2212"/>
       <use xlink:href="#DejaVuSans-30" x="83.789062"/>
       <use xlink:href="#DejaVuSans-2e" x="147.412109"/>
       <use xlink:href="#DejaVuSans-30" x="179.199219"/>
       <use xlink:href="#DejaVuSans-30" x="242.822266"/>
       <use xlink:href="#DejaVuSans-32" x="306.445312"/>
       <use xlink:href="#DejaVuSans-35" x="370.068359"/>
      </g>
     </g>
    </g>
    <g id="ytick_5">
     <g id="line2d_68">
      <path d="M 95.9775 187.717655 
L 1100.3775 187.717655 
" clip-path="url(#p4666f3ac8f)" style="fill: none; stroke-dasharray: 1.85,0.8; stroke-dashoffset: 0; stroke: #000000; stroke-opacity: 0.5; stroke-width: 0.5"/>
     </g>
     <g id="line2d_69">
      <g>
       <use xlink:href="#m5046abbc38" x="95.9775" y="187.717655" style="stroke: #000000"/>
      </g>
     </g>
     <g id="line2d_70">
      <g>
       <use xlink:href="#md1fc0329d4" x="1100.3775" y="187.717655" style="stroke: #000000"/>
      </g>
     </g>
     <g id="text_11">
      <!-- 0.0000 -->
      <g transform="translate(36.4925 193.796405) scale(0.16 -0.16)">
       <use xlink:href="#DejaVuSans-30"/>
       <use xlink:href="#DejaVuSans-2e" x="63.623047"/>
       <use xlink:href="#DejaVuSans-30" x="95.410156"/>
       <use xlink:href="#DejaVuSans-30" x="159.033203"/>
       <use xlink:href="#DejaVuSans-30" x="222.65625"/>
       <use xlink:href="#DejaVuSans-30" x="286.279297"/>
      </g>
     </g>
    </g>
    <g id="ytick_6">
     <g id="line2d_71">
      <path d="M 95.9775 148.86179 
L 1100.3775 148.86179 
" clip-path="url(#p4666f3ac8f)" style="fill: none; stroke-dasharray: 1.85,0.8; stroke-dashoffset: 0; stroke: #000000; stroke-opacity: 0.5; stroke-width: 0.5"/>
     </g>
     <g id="line2d_72">
      <g>
       <use xlink:href="#m5046abbc38" x="95.9775" y="148.86179" style="stroke: #000000"/>
      </g>
     </g>
     <g id="line2d_73">
      <g>
       <use xlink:href="#md1fc0329d4" x="1100.3775" y="148.86179" style="stroke: #000000"/>
      </g>
     </g>
     <g id="text_12">
      <!-- 0.0025 -->
      <g transform="translate(36.4925 154.94054) scale(0.16 -0.16)">
       <use xlink:href="#DejaVuSans-30"/>
       <use xlink:href="#DejaVuSans-2e" x="63.623047"/>
       <use xlink:href="#DejaVuSans-30" x="95.410156"/>
       <use xlink:href="#DejaVuSans-30" x="159.033203"/>
       <use xlink:href="#DejaVuSans-32" x="222.65625"/>
       <use xlink:href="#DejaVuSans-35" x="286.279297"/>
      </g>
     </g>
    </g>
    <g id="ytick_7">
     <g id="line2d_74">
      <path d="M 95.9775 110.005926 
L 1100.3775 110.005926 
" clip-path="url(#p4666f3ac8f)" style="fill: none; stroke-dasharray: 1.85,0.8; stroke-dashoffset: 0; stroke: #000000; stroke-opacity: 0.5; stroke-width: 0.5"/>
     </g>
     <g id="line2d_75">
      <g>
       <use xlink:href="#m5046abbc38" x="95.9775" y="110.005926" style="stroke: #000000"/>
      </g>
     </g>
     <g id="line2d_76">
      <g>
       <use xlink:href="#md1fc0329d4" x="1100.3775" y="110.005926" style="stroke: #000000"/>
      </g>
     </g>
     <g id="text_13">
      <!-- 0.0050 -->
      <g transform="translate(36.4925 116.084676) scale(0.16 -0.16)">
       <use xlink:href="#DejaVuSans-30"/>
       <use xlink:href="#DejaVuSans-2e" x="63.623047"/>
       <use xlink:href="#DejaVuSans-30" x="95.410156"/>
       <use xlink:href="#DejaVuSans-30" x="159.033203"/>
       <use xlink:href="#DejaVuSans-35" x="222.65625"/>
       <use xlink:href="#DejaVuSans-30" x="286.279297"/>
      </g>
     </g>
    </g>
    <g id="ytick_8">
     <g id="line2d_77">
      <path d="M 95.9775 71.150061 
L 1100.3775 71.150061 
" clip-path="url(#p4666f3ac8f)" style="fill: none; stroke-dasharray: 1.85,0.8; stroke-dashoffset: 0; stroke: #000000; stroke-opacity: 0.5; stroke-width: 0.5"/>
     </g>
     <g id="line2d_78">
      <g>
       <use xlink:href="#m5046abbc38" x="95.9775" y="71.150061" style="stroke: #000000"/>
      </g>
     </g>
     <g id="line2d_79">
      <g>
       <use xlink:href="#md1fc0329d4" x="1100.3775" y="71.150061" style="stroke: #000000"/>
      </g>
     </g>
     <g id="text_14">
      <!-- 0.0075 -->
      <g transform="translate(36.4925 77.228811) scale(0.16 -0.16)">
       <use xlink:href="#DejaVuSans-30"/>
       <use xlink:href="#DejaVuSans-2e" x="63.623047"/>
       <use xlink:href="#DejaVuSans-30" x="95.410156"/>
       <use xlink:href="#DejaVuSans-30" x="159.033203"/>
       <use xlink:href="#DejaVuSans-37" x="222.65625"/>
       <use xlink:href="#DejaVuSans-35" x="286.279297"/>
      </g>
     </g>
    </g>
    <g id="ytick_9">
     <g id="line2d_80">
      <path d="M 95.9775 32.294196 
L 1100.3775 32.294196 
" clip-path="url(#p4666f3ac8f)" style="fill: none; stroke-dasharray: 1.85,0.8; stroke-dashoffset: 0; stroke: #000000; stroke-opacity: 0.5; stroke-width: 0.5"/>
     </g>
     <g id="line2d_81">
      <g>
       <use xlink:href="#m5046abbc38" x="95.9775" y="32.294196" style="stroke: #000000"/>
      </g>
     </g>
     <g id="line2d_82">
      <g>
       <use xlink:href="#md1fc0329d4" x="1100.3775" y="32.294196" style="stroke: #000000"/>
      </g>
     </g>
     <g id="text_15">
      <!-- 0.0100 -->
      <g transform="translate(36.4925 38.372946) scale(0.16 -0.16)">
       <use xlink:href="#DejaVuSans-30"/>
       <use xlink:href="#DejaVuSans-2e" x="63.623047"/>
       <use xlink:href="#DejaVuSans-30" x="95.410156"/>
       <use xlink:href="#DejaVuSans-31" x="159.033203"/>
       <use xlink:href="#DejaVuSans-30" x="222.65625"/>
       <use xlink:href="#DejaVuSans-30" x="286.279297"/>
      </g>
     </g>
    </g>
    <g id="ytick_10">
     <g id="line2d_83">
      <defs>
       <path id="m6c2c210f23" d="M 0 0 
L 3 0 
" style="stroke: #000000"/>
      </defs>
      <g>
       <use xlink:href="#m6c2c210f23" x="95.9775" y="350.912287" style="stroke: #000000"/>
      </g>
     </g>
     <g id="line2d_84">
      <defs>
       <path id="mfbd957de18" d="M 0 0 
L -3 0 
" style="stroke: #000000"/>
      </defs>
      <g>
       <use xlink:href="#mfbd957de18" x="1100.3775" y="350.912287" style="stroke: #000000"/>
      </g>
     </g>
    </g>
    <g id="ytick_11">
     <g id="line2d_85">
      <g>
       <use xlink:href="#m6c2c210f23" x="95.9775" y="335.369941" style="stroke: #000000"/>
      </g>
     </g>
     <g id="line2d_86">
      <g>
       <use xlink:href="#mfbd957de18" x="1100.3775" y="335.369941" style="stroke: #000000"/>
      </g>
     </g>
    </g>
    <g id="ytick_12">
     <g id="line2d_87">
      <g>
       <use xlink:href="#m6c2c210f23" x="95.9775" y="327.598768" style="stroke: #000000"/>
      </g>
     </g>
     <g id="line2d_88">
      <g>
       <use xlink:href="#mfbd957de18" x="1100.3775" y="327.598768" style="stroke: #000000"/>
      </g>
     </g>
    </g>
    <g id="ytick_13">
     <g id="line2d_89">
      <g>
       <use xlink:href="#m6c2c210f23" x="95.9775" y="319.827595" style="stroke: #000000"/>
      </g>
     </g>
     <g id="line2d_90">
      <g>
       <use xlink:href="#mfbd957de18" x="1100.3775" y="319.827595" style="stroke: #000000"/>
      </g>
     </g>
    </g>
    <g id="ytick_14">
     <g id="line2d_91">
      <g>
       <use xlink:href="#m6c2c210f23" x="95.9775" y="312.056422" style="stroke: #000000"/>
      </g>
     </g>
     <g id="line2d_92">
      <g>
       <use xlink:href="#mfbd957de18" x="1100.3775" y="312.056422" style="stroke: #000000"/>
      </g>
     </g>
    </g>
    <g id="ytick_15">
     <g id="line2d_93">
      <g>
       <use xlink:href="#m6c2c210f23" x="95.9775" y="296.514076" style="stroke: #000000"/>
      </g>
     </g>
     <g id="line2d_94">
      <g>
       <use xlink:href="#mfbd957de18" x="1100.3775" y="296.514076" style="stroke: #000000"/>
      </g>
     </g>
    </g>
    <g id="ytick_16">
     <g id="line2d_95">
      <g>
       <use xlink:href="#m6c2c210f23" x="95.9775" y="288.742903" style="stroke: #000000"/>
      </g>
     </g>
     <g id="line2d_96">
      <g>
       <use xlink:href="#mfbd957de18" x="1100.3775" y="288.742903" style="stroke: #000000"/>
      </g>
     </g>
    </g>
    <g id="ytick_17">
     <g id="line2d_97">
      <g>
       <use xlink:href="#m6c2c210f23" x="95.9775" y="280.97173" style="stroke: #000000"/>
      </g>
     </g>
     <g id="line2d_98">
      <g>
       <use xlink:href="#mfbd957de18" x="1100.3775" y="280.97173" style="stroke: #000000"/>
      </g>
     </g>
    </g>
    <g id="ytick_18">
     <g id="line2d_99">
      <g>
       <use xlink:href="#m6c2c210f23" x="95.9775" y="273.200557" style="stroke: #000000"/>
      </g>
     </g>
     <g id="line2d_100">
      <g>
       <use xlink:href="#mfbd957de18" x="1100.3775" y="273.200557" style="stroke: #000000"/>
      </g>
     </g>
    </g>
    <g id="ytick_19">
     <g id="line2d_101">
      <g>
       <use xlink:href="#m6c2c210f23" x="95.9775" y="257.658211" style="stroke: #000000"/>
      </g>
     </g>
     <g id="line2d_102">
      <g>
       <use xlink:href="#mfbd957de18" x="1100.3775" y="257.658211" style="stroke: #000000"/>
      </g>
     </g>
    </g>
    <g id="ytick_20">
     <g id="line2d_103">
      <g>
       <use xlink:href="#m6c2c210f23" x="95.9775" y="249.887039" style="stroke: #000000"/>
      </g>
     </g>
     <g id="line2d_104">
      <g>
       <use xlink:href="#mfbd957de18" x="1100.3775" y="249.887039" style="stroke: #000000"/>
      </g>
     </g>
    </g>
    <g id="ytick_21">
     <g id="line2d_105">
      <g>
       <use xlink:href="#m6c2c210f23" x="95.9775" y="242.115866" style="stroke: #000000"/>
      </g>
     </g>
     <g id="line2d_106">
      <g>
       <use xlink:href="#mfbd957de18" x="1100.3775" y="242.115866" style="stroke: #000000"/>
      </g>
     </g>
    </g>
    <g id="ytick_22">
     <g id="line2d_107">
      <g>
       <use xlink:href="#m6c2c210f23" x="95.9775" y="234.344693" style="stroke: #000000"/>
      </g>
     </g>
     <g id="line2d_108">
      <g>
       <use xlink:href="#mfbd957de18" x="1100.3775" y="234.344693" style="stroke: #000000"/>
      </g>
     </g>
    </g>
    <g id="ytick_23">
     <g id="line2d_109">
      <g>
       <use xlink:href="#m6c2c210f23" x="95.9775" y="218.802347" style="stroke: #000000"/>
      </g>
     </g>
     <g id="line2d_110">
      <g>
       <use xlink:href="#mfbd957de18" x="1100.3775" y="218.802347" style="stroke: #000000"/>
      </g>
     </g>
    </g>
    <g id="ytick_24">
     <g id="line2d_111">
      <g>
       <use xlink:href="#m6c2c210f23" x="95.9775" y="211.031174" style="stroke: #000000"/>
      </g>
     </g>
     <g id="line2d_112">
      <g>
       <use xlink:href="#mfbd957de18" x="1100.3775" y="211.031174" style="stroke: #000000"/>
      </g>
     </g>
    </g>
    <g id="ytick_25">
     <g id="line2d_113">
      <g>
       <use xlink:href="#m6c2c210f23" x="95.9775" y="203.260001" style="stroke: #000000"/>
      </g>
     </g>
     <g id="line2d_114">
      <g>
       <use xlink:href="#mfbd957de18" x="1100.3775" y="203.260001" style="stroke: #000000"/>
      </g>
     </g>
    </g>
    <g id="ytick_26">
     <g id="line2d_115">
      <g>
       <use xlink:href="#m6c2c210f23" x="95.9775" y="195.488828" style="stroke: #000000"/>
      </g>
     </g>
     <g id="line2d_116">
      <g>
       <use xlink:href="#mfbd957de18" x="1100.3775" y="195.488828" style="stroke: #000000"/>
      </g>
     </g>
    </g>
    <g id="ytick_27">
     <g id="line2d_117">
      <g>
       <use xlink:href="#m6c2c210f23" x="95.9775" y="179.946482" style="stroke: #000000"/>
      </g>
     </g>
     <g id="line2d_118">
      <g>
       <use xlink:href="#mfbd957de18" x="1100.3775" y="179.946482" style="stroke: #000000"/>
      </g>
     </g>
    </g>
    <g id="ytick_28">
     <g id="line2d_119">
      <g>
       <use xlink:href="#m6c2c210f23" x="95.9775" y="172.175309" style="stroke: #000000"/>
      </g>
     </g>
     <g id="line2d_120">
      <g>
       <use xlink:href="#mfbd957de18" x="1100.3775" y="172.175309" style="stroke: #000000"/>
      </g>
     </g>
    </g>
    <g id="ytick_29">
     <g id="line2d_121">
      <g>
       <use xlink:href="#m6c2c210f23" x="95.9775" y="164.404136" style="stroke: #000000"/>
      </g>
     </g>
     <g id="line2d_122">
      <g>
       <use xlink:href="#mfbd957de18" x="1100.3775" y="164.404136" style="stroke: #000000"/>
      </g>
     </g>
    </g>
    <g id="ytick_30">
     <g id="line2d_123">
      <g>
       <use xlink:href="#m6c2c210f23" x="95.9775" y="156.632963" style="stroke: #000000"/>
      </g>
     </g>
     <g id="line2d_124">
      <g>
       <use xlink:href="#mfbd957de18" x="1100.3775" y="156.632963" style="stroke: #000000"/>
      </g>
     </g>
    </g>
    <g id="ytick_31">
     <g id="line2d_125">
      <g>
       <use xlink:href="#m6c2c210f23" x="95.9775" y="141.090617" style="stroke: #000000"/>
      </g>
     </g>
     <g id="line2d_126">
      <g>
       <use xlink:href="#mfbd957de18" x="1100.3775" y="141.090617" style="stroke: #000000"/>
      </g>
     </g>
    </g>
    <g id="ytick_32">
     <g id="line2d_127">
      <g>
       <use xlink:href="#m6c2c210f23" x="95.9775" y="133.319444" style="stroke: #000000"/>
      </g>
     </g>
     <g id="line2d_128">
      <g>
       <use xlink:href="#mfbd957de18" x="1100.3775" y="133.319444" style="stroke: #000000"/>
      </g>
     </g>
    </g>
    <g id="ytick_33">
     <g id="line2d_129">
      <g>
       <use xlink:href="#m6c2c210f23" x="95.9775" y="125.548271" style="stroke: #000000"/>
      </g>
     </g>
     <g id="line2d_130">
      <g>
       <use xlink:href="#mfbd957de18" x="1100.3775" y="125.548271" style="stroke: #000000"/>
      </g>
     </g>
    </g>
    <g id="ytick_34">
     <g id="line2d_131">
      <g>
       <use xlink:href="#m6c2c210f23" x="95.9775" y="117.777098" style="stroke: #000000"/>
      </g>
     </g>
     <g id="line2d_132">
      <g>
       <use xlink:href="#mfbd957de18" x="1100.3775" y="117.777098" style="stroke: #000000"/>
      </g>
     </g>
    </g>
    <g id="ytick_35">
     <g id="line2d_133">
      <g>
       <use xlink:href="#m6c2c210f23" x="95.9775" y="102.234753" style="stroke: #000000"/>
      </g>
     </g>
     <g id="line2d_134">
      <g>
       <use xlink:href="#mfbd957de18" x="1100.3775" y="102.234753" style="stroke: #000000"/>
      </g>
     </g>
    </g>
    <g id="ytick_36">
     <g id="line2d_135">
      <g>
       <use xlink:href="#m6c2c210f23" x="95.9775" y="94.46358" style="stroke: #000000"/>
      </g>
     </g>
     <g id="line2d_136">
      <g>
       <use xlink:href="#mfbd957de18" x="1100.3775" y="94.46358" style="stroke: #000000"/>
      </g>
     </g>
    </g>
    <g id="ytick_37">
     <g id="line2d_137">
      <g>
       <use xlink:href="#m6c2c210f23" x="95.9775" y="86.692407" style="stroke: #000000"/>
      </g>
     </g>
     <g id="line2d_138">
      <g>
       <use xlink:href="#mfbd957de18" x="1100.3775" y="86.692407" style="stroke: #000000"/>
      </g>
     </g>
    </g>
    <g id="ytick_38">
     <g id="line2d_139">
      <g>
       <use xlink:href="#m6c2c210f23" x="95.9775" y="78.921234" style="stroke: #000000"/>
      </g>
     </g>
     <g id="line2d_140">
      <g>
       <use xlink:href="#mfbd957de18" x="1100.3775" y="78.921234" style="stroke: #000000"/>
      </g>
     </g>
    </g>
    <g id="ytick_39">
     <g id="line2d_141">
      <g>
       <use xlink:href="#m6c2c210f23" x="95.9775" y="63.378888" style="stroke: #000000"/>
      </g>
     </g>
     <g id="line2d_142">
      <g>
       <use xlink:href="#mfbd957de18" x="1100.3775" y="63.378888" style="stroke: #000000"/>
      </g>
     </g>
    </g>
    <g id="ytick_40">
     <g id="line2d_143">
      <g>
       <use xlink:href="#m6c2c210f23" x="95.9775" y="55.607715" style="stroke: #000000"/>
      </g>
     </g>
     <g id="line2d_144">
      <g>
       <use xlink:href="#mfbd957de18" x="1100.3775" y="55.607715" style="stroke: #000000"/>
      </g>
     </g>
    </g>
    <g id="ytick_41">
     <g id="line2d_145">
      <g>
       <use xlink:href="#m6c2c210f23" x="95.9775" y="47.836542" style="stroke: #000000"/>
      </g>
     </g>
     <g id="line2d_146">
      <g>
       <use xlink:href="#mfbd957de18" x="1100.3775" y="47.836542" style="stroke: #000000"/>
      </g>
     </g>
    </g>
    <g id="ytick_42">
     <g id="line2d_147">
      <g>
       <use xlink:href="#m6c2c210f23" x="95.9775" y="40.065369" style="stroke: #000000"/>
      </g>
     </g>
     <g id="line2d_148">
      <g>
       <use xlink:href="#mfbd957de18" x="1100.3775" y="40.065369" style="stroke: #000000"/>
      </g>
     </g>
    </g>
    <g id="ytick_43">
     <g id="line2d_149">
      <g>
       <use xlink:href="#m6c2c210f23" x="95.9775" y="24.523023" style="stroke: #000000"/>
      </g>
     </g>
     <g id="line2d_150">
      <g>
       <use xlink:href="#mfbd957de18" x="1100.3775" y="24.523023" style="stroke: #000000"/>
      </g>
     </g>
    </g>
    <g id="text_16">
     <!-- IDR (%) -->
     <g transform="translate(15.7575 218.5425) rotate(-90) scale(0.16 -0.16)">
      <defs>
       <path id="DejaVuSans-49" d="M 628 4666 
L 1259 4666 
L 1259 0 
L 628 0 
L 628 4666 
z
" transform="scale(0.015625)"/>
       <path id="DejaVuSans-44" d="M 1259 4147 
L 1259 519 
L 2022 519 
Q 2988 519 3436 956 
Q 3884 1394 3884 2338 
Q 3884 3275 3436 3711 
Q 2988 4147 2022 4147 
L 1259 4147 
z
M 628 4666 
L 1925 4666 
Q 3281 4666 3915 4102 
Q 4550 3538 4550 2338 
Q 4550 1131 3912 565 
Q 3275 0 1925 0 
L 628 0 
L 628 4666 
z
" transform="scale(0.015625)"/>
       <path id="DejaVuSans-52" d="M 2841 2188 
Q 3044 2119 3236 1894 
Q 3428 1669 3622 1275 
L 4263 0 
L 3584 0 
L 2988 1197 
Q 2756 1666 2539 1819 
Q 2322 1972 1947 1972 
L 1259 1972 
L 1259 0 
L 628 0 
L 628 4666 
L 2053 4666 
Q 2853 4666 3247 4331 
Q 3641 3997 3641 3322 
Q 3641 2881 3436 2590 
Q 3231 2300 2841 2188 
z
M 1259 4147 
L 1259 2491 
L 2053 2491 
Q 2509 2491 2742 2702 
Q 2975 2913 2975 3322 
Q 2975 3731 2742 3939 
Q 2509 4147 2053 4147 
L 1259 4147 
z
" transform="scale(0.015625)"/>
       <path id="DejaVuSans-20" transform="scale(0.015625)"/>
       <path id="DejaVuSans-25" d="M 4653 2053 
Q 4381 2053 4226 1822 
Q 4072 1591 4072 1178 
Q 4072 772 4226 539 
Q 4381 306 4653 306 
Q 4919 306 5073 539 
Q 5228 772 5228 1178 
Q 5228 1588 5073 1820 
Q 4919 2053 4653 2053 
z
M 4653 2450 
Q 5147 2450 5437 2106 
Q 5728 1763 5728 1178 
Q 5728 594 5436 251 
Q 5144 -91 4653 -91 
Q 4153 -91 3862 251 
Q 3572 594 3572 1178 
Q 3572 1766 3864 2108 
Q 4156 2450 4653 2450 
z
M 1428 4353 
Q 1159 4353 1004 4120 
Q 850 3888 850 3481 
Q 850 3069 1003 2837 
Q 1156 2606 1428 2606 
Q 1700 2606 1854 2837 
Q 2009 3069 2009 3481 
Q 2009 3884 1853 4118 
Q 1697 4353 1428 4353 
z
M 4250 4750 
L 4750 4750 
L 1831 -91 
L 1331 -91 
L 4250 4750 
z
M 1428 4750 
Q 1922 4750 2215 4408 
Q 2509 4066 2509 3481 
Q 2509 2891 2217 2550 
Q 1925 2209 1428 2209 
Q 931 2209 642 2551 
Q 353 2894 353 3481 
Q 353 4063 643 4406 
Q 934 4750 1428 4750 
z
" transform="scale(0.015625)"/>
      </defs>
      <use xlink:href="#DejaVuSans-49"/>
      <use xlink:href="#DejaVuSans-44" x="29.492188"/>
      <use xlink:href="#DejaVuSans-52" x="106.494141"/>
      <use xlink:href="#DejaVuSans-20" x="175.976562"/>
      <use xlink:href="#DejaVuSans-28" x="207.763672"/>
      <use xlink:href="#DejaVuSans-25" x="246.777344"/>
      <use xlink:href="#DejaVuSans-29" x="341.796875"/>
     </g>
    </g>
   </g>
   <g id="line2d_151">
    <path d="M 141.632045 187.717655 
L 147.445266 187.763658 
L 227.999899 187.721559 
L 266.201064 187.484732 
L 382.465482 186.461064 
L 409.870666 185.210843 
L 410.078281 185.042393 
L 410.493511 183.943149 
L 410.701126 183.92019 
L 410.908741 185.233738 
L 411.323972 193.213184 
L 411.739202 200.445407 
L 411.946817 199.087922 
L 412.362047 185.403683 
L 412.777277 170.613315 
L 412.984892 167.478959 
L 413.192507 169.08265 
L 414.022967 194.465889 
L 414.230582 194.340797 
L 414.438197 190.432286 
L 415.061042 170.563933 
L 415.268657 171.222818 
L 415.476272 177.969528 
L 416.099117 205.441074 
L 416.306732 207.739784 
L 416.514347 205.677749 
L 417.137192 191.394782 
L 417.344807 191.633571 
L 417.760038 198.058176 
L 417.967653 198.872128 
L 418.175268 196.385714 
L 418.590498 187.086866 
L 418.798113 184.81941 
L 419.005728 186.409651 
L 419.628573 203.265174 
L 419.836188 202.359051 
L 420.043803 195.06722 
L 420.666648 159.268664 
L 420.874263 156.79536 
L 421.081878 163.593746 
L 421.497108 186.750838 
L 421.704723 191.759357 
L 421.912338 190.530336 
L 422.535183 177.871087 
L 422.742798 175.699085 
L 422.950413 175.107172 
L 423.158028 177.140138 
L 423.573258 190.207363 
L 423.988488 204.954678 
L 424.196103 207.864533 
L 424.403719 205.27328 
L 424.818949 182.893158 
L 425.234179 162.045881 
L 425.441794 167.061688 
L 425.857024 211.715901 
L 426.064639 235.262212 
L 426.272254 246.022586 
L 426.479869 238.929387 
L 427.310329 148.533487 
L 427.517944 153.868898 
L 428.348404 235.020081 
L 428.556019 229.6187 
L 428.971249 185.233624 
L 429.386479 150.325709 
L 429.594094 154.965218 
L 430.424554 225.500686 
L 430.632169 219.452897 
L 431.46263 153.281984 
L 431.670245 152.393611 
L 431.87786 162.760694 
L 432.500705 214.083087 
L 432.70832 216.098886 
L 432.915935 206.954756 
L 433.53878 162.720646 
L 433.746395 155.909464 
L 433.95401 157.304181 
L 434.36924 178.803927 
L 434.78447 198.249147 
L 434.992085 198.616411 
L 435.1997 193.226372 
L 435.822545 172.010572 
L 436.03016 172.350404 
L 436.44539 184.910163 
L 436.86062 195.540506 
L 437.068235 196.57014 
L 437.27585 196.663724 
L 437.483466 197.030549 
L 437.691081 197.734613 
L 437.898696 198.022044 
L 438.106311 197.603859 
L 438.313926 197.958056 
L 438.521541 200.461971 
L 438.936771 207.006876 
L 439.144386 206.122628 
L 439.767231 193.175248 
L 439.974846 192.024069 
L 440.182461 193.412716 
L 440.597691 198.413365 
L 440.805306 198.566408 
L 441.012921 194.384359 
L 441.843381 159.407472 
L 442.050996 166.334721 
L 442.466226 190.20112 
L 442.673841 194.431549 
L 442.881456 189.034809 
L 443.504301 154.207401 
L 443.711916 154.334783 
L 443.919532 163.780711 
L 444.749992 222.406208 
L 444.957607 222.587248 
L 445.165222 214.76149 
L 445.995682 167.08676 
L 446.203297 167.528092 
L 446.410912 173.309102 
L 446.826142 196.872457 
L 447.241372 216.860627 
L 447.448987 214.725683 
L 447.864217 187.65751 
L 448.279447 162.027309 
L 448.487062 160.086268 
L 448.694677 167.198512 
L 449.525137 218.169022 
L 449.732752 220.799742 
L 449.940367 219.103027 
L 450.563213 206.586531 
L 450.770828 205.180871 
L 450.978443 203.006969 
L 451.186058 197.360927 
L 451.808903 172.368728 
L 452.016518 173.005966 
L 452.639363 191.557266 
L 452.846978 191.345879 
L 453.262208 182.562234 
L 453.469823 182.781859 
L 453.885053 199.842214 
L 454.092668 207.434865 
L 454.300283 206.305791 
L 454.507898 194.354829 
L 454.923128 156.868729 
L 455.130743 147.165368 
L 455.338358 149.2472 
L 456.168818 192.940414 
L 456.376433 189.766624 
L 456.791663 177.995053 
L 456.999278 180.916985 
L 457.829739 224.479406 
L 458.037354 220.910863 
L 458.867814 176.979736 
L 459.075429 176.117157 
L 459.283044 182.337425 
L 459.905889 207.831869 
L 460.113504 205.784866 
L 460.736349 183.503957 
L 460.943964 181.598653 
L 461.151579 181.346077 
L 461.359194 179.082782 
L 461.774424 164.30914 
L 461.982039 156.635344 
L 462.189654 154.81071 
L 462.397269 162.076224 
L 463.227729 219.8221 
L 463.435344 214.534869 
L 463.850575 177.162997 
L 464.265805 141.660226 
L 464.47342 137.495692 
L 464.681035 144.621047 
L 465.096265 181.597647 
L 465.511495 218.686248 
L 465.71911 225.059808 
L 465.926725 219.4594 
L 466.757185 164.926882 
L 466.9648 168.859722 
L 467.38003 199.040992 
L 467.79526 226.814753 
L 468.002875 225.885983 
L 468.418105 198.266203 
L 468.833335 174.74537 
L 469.04095 173.908908 
L 469.87141 194.973571 
L 470.079025 189.789844 
L 470.701871 159.915525 
L 470.909486 160.605122 
L 471.117101 171.367311 
L 471.739946 216.120564 
L 471.947561 217.46863 
L 472.155176 209.596502 
L 472.570406 172.73977 
L 472.985636 138.768299 
L 473.193251 139.138442 
L 473.400866 153.308416 
L 474.023711 213.32422 
L 474.231326 215.154722 
L 474.438941 206.276802 
L 474.854171 180.703699 
L 475.061786 176.68151 
L 475.269401 181.089004 
L 475.892246 208.586754 
L 476.099861 210.717353 
L 476.307476 208.939644 
L 476.722706 203.041089 
L 476.930322 202.107911 
L 477.137937 202.94881 
L 477.760782 208.808982 
L 477.968397 206.144965 
L 478.383627 186.860652 
L 478.798857 168.882828 
L 479.006472 170.560398 
L 479.214087 181.818197 
L 479.836932 239.525844 
L 480.044547 245.996588 
L 480.252162 237.916511 
L 480.667392 181.955205 
L 481.082622 125.935926 
L 481.290237 122.545954 
L 481.497852 140.804556 
L 482.120697 240.639017 
L 482.328312 250.01031 
L 482.535927 239.511924 
L 483.158772 166.608277 
L 483.366388 155.974814 
L 483.574003 155.944807 
L 484.404463 181.209667 
L 484.819693 189.187267 
L 485.234923 202.445297 
L 485.442538 203.761933 
L 485.650153 198.656913 
L 486.065383 182.553028 
L 486.272998 181.069821 
L 486.895843 193.834274 
L 487.103458 193.454936 
L 487.311073 187.815022 
L 487.726303 168.595638 
L 487.933918 164.862997 
L 488.141533 169.141725 
L 488.764378 200.978281 
L 488.971993 205.079509 
L 489.179608 203.967305 
L 489.594838 196.853655 
L 489.802453 197.964885 
L 490.217684 205.59087 
L 490.425299 204.11301 
L 490.840529 186.192663 
L 491.670989 138.159219 
L 491.878604 134.727454 
L 492.086219 139.550571 
L 492.501449 169.429982 
L 493.124294 219.01662 
L 493.331909 220.019292 
L 493.539524 209.470131 
L 494.162369 154.43906 
L 494.369984 148.544466 
L 494.577599 153.897561 
L 495.408059 201.590902 
L 495.615674 199.324019 
L 496.446135 165.911013 
L 496.65375 164.605898 
L 496.861365 166.47469 
L 497.06898 171.071743 
L 497.89944 198.435103 
L 498.107055 197.092931 
L 498.522285 185.016473 
L 498.937515 173.231036 
L 499.14513 173.02269 
L 499.97559 187.170076 
L 500.183205 185.817336 
L 500.80605 179.058788 
L 501.013665 180.625009 
L 501.22128 186.727624 
L 501.844125 211.602959 
L 502.05174 210.888762 
L 502.8822 187.749107 
L 503.089816 192.484411 
L 503.505046 207.292213 
L 503.712661 208.358372 
L 503.920276 202.380905 
L 504.335506 182.422988 
L 504.543121 180.41823 
L 504.750736 187.276889 
L 505.373581 217.659151 
L 505.581196 218.858596 
L 505.788811 214.874311 
L 506.204041 193.657107 
L 506.619271 175.166006 
L 506.826886 177.319329 
L 507.449731 201.292599 
L 507.657346 201.16377 
L 508.072576 188.771367 
L 508.487806 175.993908 
L 508.695421 172.354569 
L 508.903036 171.366922 
L 509.110651 173.865543 
L 509.525881 188.328022 
L 509.941112 200.107808 
L 510.148727 198.229618 
L 510.563957 181.694303 
L 510.979187 162.671051 
L 511.186802 157.743571 
L 511.394417 158.295808 
L 511.602032 165.157595 
L 512.432492 208.542314 
L 512.640107 206.726379 
L 513.678182 171.098486 
L 513.885797 171.989186 
L 514.093412 176.578791 
L 514.923872 203.877613 
L 515.339102 210.285229 
L 515.546717 209.909414 
L 515.754332 205.01128 
L 516.377178 182.106404 
L 516.792408 176.909312 
L 517.207638 163.929113 
L 517.415253 157.064963 
L 517.622868 155.570691 
L 517.830483 161.35803 
L 518.660943 205.765242 
L 518.868558 206.977212 
L 519.076173 203.403052 
L 519.491403 193.221165 
L 519.699018 194.423829 
L 520.321863 215.193739 
L 520.529478 214.119035 
L 521.152323 195.05973 
L 521.359938 200.102906 
L 521.775168 237.79781 
L 522.190398 279.408304 
L 522.398013 282.264648 
L 522.605628 266.657007 
L 523.436089 158.371702 
L 523.643704 161.419859 
L 524.474164 212.265187 
L 524.681779 208.321059 
L 524.889394 193.330049 
L 525.719854 109.729861 
L 525.927469 110.228665 
L 526.135084 123.243628 
L 526.965544 199.863557 
L 527.173159 205.211002 
L 527.380774 204.879237 
L 527.588389 200.201084 
L 528.211234 179.056947 
L 528.418849 178.255022 
L 528.626464 182.965437 
L 529.872155 236.288142 
L 530.07977 237.397759 
L 530.287385 233.683204 
L 530.91023 206.660689 
L 531.32546 186.835787 
L 532.363535 119.426778 
L 532.57115 126.670728 
L 532.98638 174.624801 
L 533.40161 230.495113 
L 533.609225 245.453105 
L 533.81684 249.300432 
L 534.024455 245.281712 
L 534.854915 220.5467 
L 535.06253 202.681524 
L 535.47776 131.253062 
L 535.892991 53.627783 
L 536.100606 36.8775 
L 536.308221 40.797549 
L 536.723451 94.623469 
L 537.761526 270.180383 
L 537.969141 288.161516 
L 538.176756 294.846147 
L 538.384371 287.064197 
L 538.591986 263.343946 
L 539.630061 92.753005 
L 539.837676 87.424625 
L 540.045291 91.648949 
L 540.252906 102.961691 
L 540.668136 149.592706 
L 541.498596 309.490944 
L 541.706211 322.451407 
L 541.913826 314.021321 
L 542.329056 249.327303 
L 542.951902 143.790825 
L 543.367132 112.328321 
L 543.574747 104.921724 
L 543.782362 102.681211 
L 543.989977 109.204301 
L 544.197592 128.011635 
L 544.612822 204.835787 
L 545.235667 332.82101 
L 545.443282 339.2775 
L 545.650897 316.388783 
L 546.066127 203.680127 
L 546.481357 99.105824 
L 546.688972 83.208753 
L 546.896587 96.067885 
L 547.311817 177.183646 
L 547.727047 252.188114 
L 547.934662 264.504862 
L 548.142277 256.753323 
L 548.557507 201.248281 
L 548.972738 151.258519 
L 549.180353 142.104382 
L 549.387968 141.961599 
L 549.595583 148.325377 
L 550.010813 179.968101 
L 550.633658 244.083094 
L 550.841273 246.242052 
L 551.048888 231.263016 
L 551.464118 159.357201 
L 551.879348 88.676628 
L 552.086963 76.639129 
L 552.294578 83.001853 
L 552.709808 130.124646 
L 553.540268 231.808901 
L 553.747883 246.711044 
L 553.955498 250.790075 
L 554.163113 239.428227 
L 554.578343 171.20312 
L 554.993573 100.850227 
L 555.201188 93.665095 
L 555.408803 109.98682 
L 556.239264 226.118894 
L 556.446879 228.729169 
L 557.277339 202.926409 
L 557.484954 204.308245 
L 557.900184 214.489783 
L 558.315414 225.079399 
L 558.523029 227.459353 
L 558.730644 224.753044 
L 558.938259 214.810641 
L 559.353489 173.755877 
L 559.768719 128.48208 
L 559.976334 118.608157 
L 560.183949 122.86742 
L 560.599179 167.811814 
L 561.222024 255.5084 
L 561.429639 271.613162 
L 561.637254 272.674444 
L 561.844869 255.865736 
L 562.882945 104.254775 
L 563.09056 106.97305 
L 563.50579 148.294389 
L 563.92102 198.074936 
L 564.128635 212.016041 
L 564.33625 215.139782 
L 564.543865 209.197442 
L 564.959095 189.665514 
L 565.16671 185.259445 
L 565.374325 185.838666 
L 565.58194 188.403166 
L 565.789555 188.602291 
L 565.99717 183.111348 
L 566.4124 161.354605 
L 566.620015 157.790163 
L 566.82763 166.645524 
L 567.24286 203.989306 
L 567.450475 209.176179 
L 567.65809 193.604599 
L 568.48855 71.52004 
L 568.696166 80.049258 
L 569.526626 171.521484 
L 569.734241 173.273166 
L 570.149471 167.705313 
L 570.357086 172.315293 
L 570.772316 201.84348 
L 571.187546 230.767871 
L 571.395161 235.138245 
L 571.602776 231.772494 
L 572.018006 215.344558 
L 572.225621 213.477851 
L 572.433236 220.568229 
L 572.848466 245.220722 
L 573.056081 246.228589 
L 573.263696 231.620696 
L 574.301771 95.865928 
L 574.509386 93.063526 
L 574.717001 96.108899 
L 575.339847 111.648187 
L 575.547462 123.226428 
L 575.962692 168.730137 
L 576.377922 212.127415 
L 576.585537 219.340054 
L 576.793152 216.431084 
L 577.208382 199.791427 
L 577.415997 197.527224 
L 577.623612 203.856853 
L 578.454072 255.744021 
L 578.661687 251.035597 
L 579.076917 214.279949 
L 579.492147 170.674068 
L 579.699762 157.684492 
L 579.907377 154.027531 
L 580.114992 158.971576 
L 580.737837 188.961649 
L 580.945452 192.873122 
L 581.360682 195.249227 
L 581.568297 199.714306 
L 581.983528 220.201302 
L 582.398758 238.130962 
L 582.606373 234.738384 
L 582.813988 218.78448 
L 583.644448 117.292573 
L 583.852063 112.037857 
L 584.059678 117.564527 
L 585.512983 202.638965 
L 586.551058 238.432856 
L 586.758673 233.397809 
L 587.173903 204.895785 
L 587.589133 174.014515 
L 587.796748 167.704375 
L 588.004363 170.607518 
L 588.627209 202.301109 
L 588.834824 199.022805 
L 589.250054 158.769049 
L 589.665284 117.389114 
L 589.872899 114.794118 
L 590.080514 126.918202 
L 590.703359 187.642759 
L 590.910974 191.003967 
L 591.118589 182.633162 
L 591.533819 157.733326 
L 591.741434 155.809383 
L 591.949049 164.529686 
L 592.987124 247.836777 
L 593.194739 244.300492 
L 593.609969 211.098438 
L 594.232814 152.69948 
L 594.648044 135.069232 
L 594.855659 134.765112 
L 595.063275 140.723138 
L 595.478505 167.012207 
L 595.893735 195.479006 
L 596.10135 203.592867 
L 596.308965 206.380613 
L 596.51658 206.560624 
L 596.724195 208.579593 
L 596.93181 215.230913 
L 597.554655 243.425331 
L 597.76227 237.821397 
L 598.1775 189.578478 
L 598.59273 133.688689 
L 598.800345 121.779596 
L 599.00796 123.019966 
L 599.83842 163.915513 
L 600.461265 171.102685 
L 600.66888 177.070908 
L 601.499341 217.300678 
L 601.706956 219.232985 
L 601.914571 216.560615 
L 603.367876 178.141078 
L 603.783106 150.622073 
L 604.198336 120.068465 
L 604.405951 115.989283 
L 604.613566 125.230141 
L 605.028796 177.771333 
L 605.444026 228.838324 
L 605.651641 236.853524 
L 605.859256 230.634782 
L 606.689716 158.594087 
L 606.897331 161.359094 
L 607.312561 194.791017 
L 607.727791 225.761963 
L 607.935406 230.939801 
L 608.143022 228.614216 
L 608.558252 208.362924 
L 608.973482 187.146303 
L 609.181097 184.010029 
L 609.388712 187.170185 
L 610.011557 207.642194 
L 610.219172 207.800714 
L 611.049632 193.310178 
L 611.257247 192.303107 
L 611.464862 191.902249 
L 611.672477 192.783777 
L 612.087707 201.078957 
L 612.295322 204.526415 
L 612.502937 201.92302 
L 612.710552 189.702847 
L 613.333397 128.061679 
L 613.541012 123.845911 
L 613.748627 135.340919 
L 614.579087 219.446445 
L 614.786703 215.873946 
L 615.617163 166.270139 
L 615.824778 169.60876 
L 616.240008 196.929369 
L 616.655238 229.40439 
L 616.862853 237.911085 
L 617.070468 238.064682 
L 617.278083 230.562743 
L 618.316158 176.357831 
L 618.731388 164.483634 
L 618.939003 162.112347 
L 619.146618 163.497299 
L 619.561848 175.04386 
L 620.392308 206.793046 
L 620.807538 227.821528 
L 621.015153 233.197973 
L 621.222769 230.830013 
L 621.637999 204.82281 
L 622.053229 173.63121 
L 622.260844 165.105801 
L 622.468459 164.112923 
L 622.676074 171.11114 
L 623.714149 238.811903 
L 623.921764 238.19767 
L 624.129379 231.579558 
L 624.544609 208.624933 
L 625.375069 158.015051 
L 625.582684 157.349251 
L 625.790299 165.58696 
L 626.413144 209.308771 
L 626.620759 214.662757 
L 626.828374 212.432668 
L 627.243604 195.543003 
L 627.86645 167.318041 
L 628.074065 162.534397 
L 628.28168 164.398031 
L 628.69691 186.029682 
L 628.904525 196.454757 
L 629.11214 200.258414 
L 629.319755 196.721033 
L 629.9426 175.240657 
L 630.150215 175.10987 
L 630.77306 186.092733 
L 631.18829 194.835992 
L 631.60352 205.579477 
L 631.811135 208.135948 
L 632.01875 206.854069 
L 632.641595 191.296181 
L 632.84921 191.174378 
L 633.056825 195.639093 
L 633.67967 214.659095 
L 633.887285 213.653245 
L 634.0949 206.708293 
L 634.717746 175.354256 
L 634.925361 172.899786 
L 635.132976 176.015799 
L 635.548206 186.346515 
L 636.171051 194.583501 
L 636.586281 209.854602 
L 637.209126 238.604907 
L 637.416741 240.622974 
L 637.624356 235.146677 
L 638.039586 205.669268 
L 638.454816 177.536841 
L 638.662431 172.009981 
L 638.870046 172.100765 
L 639.285276 176.938261 
L 639.492891 176.71365 
L 639.700506 174.818681 
L 639.908121 175.04156 
L 640.115736 181.822704 
L 640.530966 216.587565 
L 640.946197 246.854559 
L 641.153812 246.07316 
L 641.361427 233.153466 
L 641.984272 169.598223 
L 642.191887 159.812134 
L 642.399502 160.581056 
L 642.814732 183.798626 
L 643.229962 206.702948 
L 643.437577 210.24521 
L 643.645192 207.220811 
L 644.060422 187.546772 
L 644.475652 171.436318 
L 644.683267 172.555649 
L 645.098497 192.301405 
L 645.513727 208.92186 
L 645.721342 208.987394 
L 646.136572 203.061055 
L 646.344187 202.856873 
L 646.759417 206.34696 
L 646.967032 206.06688 
L 647.174647 202.730325 
L 647.797493 188.354619 
L 648.005108 190.274828 
L 648.627953 211.537539 
L 648.835568 212.231565 
L 649.043183 206.414464 
L 649.666028 176.599191 
L 649.873643 175.516534 
L 650.288873 188.190338 
L 650.496488 194.143825 
L 650.704103 195.473888 
L 650.911718 192.104555 
L 651.742178 168.153594 
L 651.949793 168.115844 
L 652.157408 169.462051 
L 652.365023 169.468483 
L 652.572638 167.048612 
L 652.987868 160.441629 
L 653.195483 161.774096 
L 653.403098 168.424287 
L 654.025944 200.504365 
L 654.233559 202.976649 
L 654.441174 197.659986 
L 655.064019 167.004125 
L 655.271634 167.27972 
L 655.479249 175.682519 
L 656.309709 229.873302 
L 656.517324 234.383201 
L 656.724939 232.811147 
L 656.932554 224.810009 
L 657.763014 174.795751 
L 657.970629 181.505263 
L 658.801089 239.283159 
L 659.008704 233.163495 
L 659.423934 196.038487 
L 659.839164 160.130508 
L 660.046779 155.177821 
L 660.254394 161.365604 
L 660.87724 205.766306 
L 661.084855 210.615313 
L 661.29247 207.252191 
L 661.915315 185.048386 
L 662.12293 183.508204 
L 662.330545 185.358824 
L 662.745775 192.266781 
L 662.95339 193.369478 
L 663.161005 191.745244 
L 663.78385 180.921206 
L 663.991465 180.640795 
L 664.19908 183.927173 
L 664.61431 201.316172 
L 665.02954 222.961985 
L 665.237155 228.131959 
L 665.44477 226.513656 
L 665.86 208.589974 
L 666.27523 191.814457 
L 666.69046 185.619041 
L 667.10569 182.185526 
L 667.313306 178.574071 
L 668.143766 155.086441 
L 668.351381 154.144232 
L 668.558996 156.402161 
L 669.181841 167.134446 
L 669.389456 169.603077 
L 669.597071 173.902665 
L 670.012301 192.872538 
L 670.427531 211.343562 
L 670.635146 212.357734 
L 670.842761 206.751788 
L 672.088451 150.284319 
L 672.296066 146.279502 
L 672.503681 146.985882 
L 672.711296 154.431992 
L 673.541756 206.788902 
L 673.749372 204.476619 
L 674.164602 174.749163 
L 674.579832 140.195798 
L 674.787447 131.758965 
L 674.995062 132.137474 
L 675.202677 141.276857 
L 676.240752 220.918052 
L 676.448367 220.442102 
L 676.655982 211.20193 
L 677.278827 165.05939 
L 677.486442 158.810526 
L 677.694057 161.318905 
L 678.524517 194.368435 
L 678.732132 189.420964 
L 679.354977 157.658387 
L 679.562592 157.265441 
L 680.393053 180.754466 
L 680.600668 180.358669 
L 681.015898 177.643152 
L 681.223513 179.480698 
L 681.638743 191.191401 
L 681.846358 197.34501 
L 682.053973 199.993777 
L 682.261588 195.798626 
L 682.469203 182.54462 
L 683.299663 103.543587 
L 683.507278 102.51496 
L 683.714893 112.438281 
L 684.130123 154.455052 
L 684.752968 214.777945 
L 684.960583 222.024585 
L 685.168198 221.761281 
L 685.375813 215.117642 
L 686.413888 162.153262 
L 686.621503 164.397804 
L 687.451964 189.792444 
L 687.659579 190.530585 
L 688.074809 187.912712 
L 688.282424 188.867195 
L 688.490039 193.704777 
L 689.320499 226.011147 
L 689.528114 225.43173 
L 689.735729 218.881295 
L 690.566189 169.431139 
L 690.773804 173.751258 
L 691.189034 211.124239 
L 691.604264 245.01518 
L 691.811879 246.346278 
L 692.019494 236.611736 
L 692.642339 188.4401 
L 692.849954 182.82648 
L 693.057569 185.95489 
L 693.4728 209.890255 
L 693.88803 232.325856 
L 694.095645 235.395003 
L 694.30326 232.809607 
L 695.13372 209.595437 
L 695.54895 205.17284 
L 695.96418 202.155952 
L 696.37941 194.627434 
L 697.002255 181.10297 
L 697.417485 176.835721 
L 697.6251 177.963692 
L 697.832715 183.543852 
L 698.247945 208.404812 
L 698.663175 229.981268 
L 698.87079 228.73808 
L 699.078405 217.565361 
L 699.908865 152.171234 
L 700.116481 154.061356 
L 700.531711 181.82328 
L 700.946941 204.663648 
L 701.154556 204.398943 
L 701.362171 196.16749 
L 702.192631 145.996145 
L 702.400246 148.726844 
L 702.815476 178.471267 
L 703.230706 214.173964 
L 703.438321 223.603056 
L 703.645936 224.10389 
L 703.853551 216.672531 
L 704.268781 194.583069 
L 704.476396 189.13708 
L 704.684011 190.640565 
L 705.514471 220.011653 
L 705.722086 214.74406 
L 706.137316 184.947602 
L 706.552547 152.604261 
L 706.760162 145.713837 
L 706.967777 149.572357 
L 707.175392 164.809655 
L 708.005852 248.772498 
L 708.213467 247.431325 
L 708.421082 232.943006 
L 709.251542 148.758374 
L 709.459157 147.60373 
L 709.874387 164.319745 
L 710.289617 177.678274 
L 710.497232 181.571087 
L 710.704847 187.990167 
L 711.120077 215.5689 
L 711.535307 242.226841 
L 711.742922 243.081028 
L 711.950537 233.404112 
L 712.780997 171.41425 
L 713.196228 163.492249 
L 713.403843 159.948097 
L 713.819073 143.498587 
L 714.234303 122.17608 
L 714.441918 117.436595 
L 714.649533 120.690932 
L 714.857148 133.193301 
L 715.895223 225.337408 
L 716.102838 222.85355 
L 716.518068 194.437103 
L 716.933298 162.701945 
L 717.140913 156.607124 
L 717.348528 158.753899 
L 717.971373 181.396015 
L 718.178988 181.286479 
L 718.386603 175.087061 
L 719.217063 137.244743 
L 719.424678 139.532137 
L 719.632294 149.777873 
L 720.255139 198.512652 
L 720.462754 205.484276 
L 720.670369 204.013357 
L 721.293214 181.97271 
L 721.500829 185.630293 
L 721.916059 219.74662 
L 722.331289 253.312011 
L 722.538904 253.12022 
L 722.746519 238.591193 
L 723.576979 137.35216 
L 723.784594 134.11655 
L 723.992209 146.521325 
L 724.822669 244.946314 
L 725.030284 244.639952 
L 725.237899 229.004904 
L 725.860744 163.911422 
L 726.068359 162.216239 
L 726.275975 174.414188 
L 726.89882 235.62704 
L 727.106435 240.523134 
L 727.31405 231.905849 
L 728.14451 164.735279 
L 728.352125 168.372585 
L 729.182585 216.731936 
L 729.3902 216.836137 
L 730.013045 203.770632 
L 730.22066 206.289814 
L 731.05112 237.794487 
L 731.258735 227.60919 
L 732.089195 140.800279 
L 732.29681 135.986593 
L 732.504425 140.390442 
L 733.127271 163.230403 
L 733.334886 163.62357 
L 733.957731 153.033046 
L 734.165346 154.537741 
L 734.372961 161.25019 
L 735.411036 212.263579 
L 735.618651 213.673249 
L 735.826266 209.513558 
L 736.241496 187.545677 
L 736.656726 161.947724 
L 736.864341 154.099038 
L 737.071956 151.562757 
L 737.279571 154.410946 
L 737.902416 174.647425 
L 738.110031 175.659598 
L 738.732876 168.528065 
L 738.940491 172.528678 
L 739.770952 201.916812 
L 739.978567 203.098478 
L 740.186182 200.828462 
L 740.601412 187.349327 
L 741.431872 148.127898 
L 741.639487 145.714123 
L 741.847102 149.454224 
L 742.677562 179.551557 
L 742.885177 177.758488 
L 743.715637 152.559039 
L 743.923252 153.352916 
L 744.130867 158.88777 
L 744.753712 185.964311 
L 744.961327 189.573384 
L 745.168942 187.836603 
L 745.584172 177.482033 
L 745.791787 176.72582 
L 745.999403 182.673908 
L 747.037478 238.31326 
L 747.245093 231.911363 
L 747.660323 198.986662 
L 748.283168 140.68605 
L 748.490783 131.041499 
L 748.698398 129.201621 
L 748.906013 134.312007 
L 749.736473 169.19373 
L 750.151703 181.503716 
L 751.189778 229.676419 
L 751.397393 223.793478 
L 751.812623 193.681431 
L 752.227853 164.684396 
L 752.435468 160.079559 
L 752.643084 163.872901 
L 753.058314 188.876299 
L 753.473544 209.660861 
L 753.681159 208.156488 
L 753.888774 197.174062 
L 754.719234 124.586207 
L 754.926849 118.671656 
L 755.134464 121.682558 
L 755.549694 147.199843 
L 756.380154 207.108161 
L 756.587769 215.071759 
L 756.795384 218.02447 
L 757.002999 215.614421 
L 757.418229 198.801142 
L 757.833459 185.003306 
L 758.041074 186.5383 
L 758.456304 203.445254 
L 758.871534 219.213267 
L 759.07915 221.755944 
L 759.286765 220.50916 
L 759.701995 210.102205 
L 760.532455 185.580787 
L 761.362915 173.320796 
L 761.778145 168.086051 
L 761.98576 167.803276 
L 762.193375 169.884219 
L 762.81622 181.455234 
L 763.439065 187.485915 
L 764.269525 205.824421 
L 764.47714 201.311739 
L 764.89237 175.761619 
L 765.3076 151.138091 
L 765.515215 150.587309 
L 765.722831 161.143763 
L 766.553291 240.793903 
L 766.760906 242.539096 
L 766.968521 231.860441 
L 767.798981 152.217651 
L 768.006596 146.756917 
L 768.214211 150.407781 
L 768.837056 181.175614 
L 769.044671 183.905551 
L 769.252286 180.583187 
L 769.667516 168.623136 
L 769.875131 168.129189 
L 770.082746 173.934424 
L 770.705591 201.71692 
L 770.913206 200.32426 
L 771.120821 190.433419 
L 771.743666 144.858155 
L 771.951281 141.3486 
L 772.158897 148.861666 
L 772.989357 212.686094 
L 773.196972 211.406927 
L 773.612202 184.14814 
L 774.027432 155.075396 
L 774.235047 151.222103 
L 774.442662 156.508947 
L 775.273122 200.623122 
L 775.480737 199.811008 
L 775.895967 190.817294 
L 776.103582 189.561003 
L 776.311197 192.566461 
L 776.934042 209.38366 
L 777.141657 209.727318 
L 777.349272 205.841823 
L 778.179732 177.53072 
L 778.387347 175.802142 
L 778.594962 177.557432 
L 779.010193 188.293992 
L 779.425423 198.883693 
L 779.633038 200.630829 
L 779.840653 199.670335 
L 780.671113 189.639024 
L 780.878728 189.929895 
L 781.501573 193.523805 
L 781.709188 193.404225 
L 781.916803 192.316359 
L 782.747263 186.036538 
L 782.954878 185.319814 
L 783.162493 185.138769 
L 783.370108 185.398955 
L 784.200568 187.315512 
L 784.408183 187.413903 
L 784.615798 186.708965 
L 784.823413 184.547657 
L 785.446259 175.001445 
L 785.653874 176.542449 
L 785.861489 182.40246 
L 786.691949 218.81274 
L 786.899564 220.04584 
L 787.107179 215.877056 
L 788.352869 169.460783 
L 788.560484 169.342965 
L 788.768099 172.085605 
L 789.183329 184.486268 
L 789.598559 195.756094 
L 789.806174 196.690387 
L 790.429019 189.835502 
L 790.636634 190.351821 
L 791.051864 194.650491 
L 791.259479 194.293689 
L 791.467094 189.906772 
L 791.882325 169.415323 
L 792.297555 148.559568 
L 792.50517 146.341401 
L 792.712785 152.794751 
L 793.128015 189.152823 
L 793.543245 230.769603 
L 793.75086 242.013265 
L 793.958475 243.979928 
L 794.16609 237.705435 
L 795.204165 176.821993 
L 795.41178 173.622176 
L 795.619395 175.570898 
L 796.034625 190.466076 
L 796.449855 205.553328 
L 796.65747 207.248527 
L 796.865085 203.429631 
L 797.695545 174.725696 
L 797.90316 175.950384 
L 798.31839 187.740934 
L 798.941236 205.497258 
L 799.148851 208.228354 
L 799.356466 209.011576 
L 799.564081 208.013721 
L 799.979311 203.137224 
L 800.394541 196.649981 
L 800.809771 185.895535 
L 801.225001 174.930333 
L 801.432616 173.793212 
L 801.640231 176.630645 
L 802.263076 191.726496 
L 802.470691 191.932131 
L 802.678306 188.367289 
L 803.716381 159.467248 
L 803.923996 159.216097 
L 804.131611 160.919508 
L 804.962071 172.492638 
L 805.377302 176.051249 
L 805.792532 183.363783 
L 806.207762 192.236333 
L 806.415377 193.946955 
L 806.622992 192.79806 
L 807.245837 183.193329 
L 807.453452 183.627666 
L 807.661067 187.277215 
L 808.699142 217.693598 
L 808.906757 216.578677 
L 809.114372 210.873831 
L 809.944832 178.032515 
L 810.152447 179.735529 
L 810.360062 187.81604 
L 811.190522 234.315025 
L 811.398137 235.722824 
L 811.605753 232.342178 
L 812.228598 210.960399 
L 812.851443 182.68746 
L 813.266673 164.412108 
L 813.474288 161.569349 
L 813.681903 165.302643 
L 814.097133 188.497343 
L 814.512363 212.980575 
L 814.719978 219.093291 
L 814.927593 219.637895 
L 815.135208 214.846896 
L 816.173283 173.497849 
L 816.380898 173.139131 
L 816.796128 175.392881 
L 817.003743 175.208934 
L 817.211358 174.510664 
L 817.418973 175.5045 
L 817.626588 180.663754 
L 818.041818 204.674802 
L 818.457049 228.26308 
L 818.664664 230.719008 
L 818.872279 224.826967 
L 819.287509 195.187845 
L 819.702739 166.471058 
L 819.910354 160.844815 
L 820.117969 162.361713 
L 820.533199 180.753341 
L 820.948429 202.333969 
L 821.156044 208.135822 
L 821.363659 208.824975 
L 821.571274 204.847221 
L 822.194119 187.263245 
L 822.401734 188.098657 
L 822.816964 202.082608 
L 823.232194 213.464808 
L 823.439809 212.42569 
L 823.855039 199.288407 
L 824.270269 183.69664 
L 824.477884 178.912098 
L 824.6855 177.394823 
L 824.893115 178.971205 
L 825.308345 185.453095 
L 825.51596 186.170437 
L 825.723575 183.540542 
L 826.34642 168.175024 
L 826.554035 169.248672 
L 826.76165 176.224167 
L 827.59211 218.513731 
L 827.799725 218.805462 
L 828.214955 207.332336 
L 828.630185 198.427727 
L 828.8378 198.313254 
L 829.25303 201.078045 
L 829.460645 200.730862 
L 829.875875 194.76458 
L 830.291105 189.70833 
L 830.49872 189.776645 
L 830.91395 191.966567 
L 831.121565 191.159171 
L 831.329181 187.758922 
L 832.159641 166.97563 
L 832.367256 168.205229 
L 833.197716 185.284449 
L 833.405331 184.408731 
L 833.820561 174.665493 
L 834.235791 163.584666 
L 834.443406 161.391495 
L 834.651021 162.420903 
L 835.066251 171.781473 
L 835.481481 180.997406 
L 835.689096 182.067939 
L 835.896711 180.478292 
L 836.311941 174.732079 
L 836.519556 173.929725 
L 836.727171 175.388024 
L 837.350016 183.564597 
L 837.557631 183.780181 
L 837.765246 182.30751 
L 838.388092 175.160701 
L 838.595707 175.268886 
L 838.803322 177.703004 
L 839.841397 198.921322 
L 840.049012 198.221436 
L 840.464242 191.680087 
L 840.879472 185.594997 
L 841.087087 185.947055 
L 841.294702 189.230573 
L 841.709932 199.35301 
L 841.917547 201.695498 
L 842.125162 199.781264 
L 842.540392 183.714903 
L 842.955622 165.928914 
L 843.163237 163.211177 
L 843.370852 166.797855 
L 843.786082 190.317962 
L 844.201312 216.998877 
L 844.408928 223.227183 
L 844.616543 222.614597 
L 844.824158 216.116065 
L 845.654618 179.285051 
L 845.862233 176.258961 
L 846.069848 176.87803 
L 846.277463 180.915316 
L 847.107923 205.140148 
L 847.315538 205.823869 
L 847.523153 203.933696 
L 847.938383 198.036319 
L 848.145998 196.865295 
L 848.353613 197.698753 
L 848.768843 201.351653 
L 848.976458 200.576243 
L 849.391688 191.404751 
L 849.806918 183.482994 
L 850.014533 184.516826 
L 850.637378 198.088302 
L 850.844993 198.005218 
L 851.052609 193.303564 
L 851.883069 160.683352 
L 852.090684 161.746612 
L 852.298299 169.290599 
L 852.921144 203.876892 
L 853.128759 207.516187 
L 853.336374 204.516196 
L 853.751604 185.692359 
L 854.166834 166.91205 
L 854.374449 162.005092 
L 854.582064 160.584406 
L 854.789679 162.148506 
L 855.620139 174.870085 
L 856.035369 176.32736 
L 856.242984 178.153338 
L 856.450599 182.071138 
L 856.865829 196.601775 
L 857.281059 210.817677 
L 857.488675 211.792687 
L 857.69629 206.774986 
L 858.52675 168.333211 
L 858.734365 167.543759 
L 858.94198 171.742706 
L 859.564825 193.765125 
L 859.77244 196.769682 
L 859.980055 196.338212 
L 860.6029 188.681495 
L 860.810515 188.764412 
L 861.01813 191.665227 
L 861.43336 205.120795 
L 861.84859 217.14545 
L 862.056205 216.328721 
L 862.26382 209.447933 
L 863.09428 168.174064 
L 863.301895 168.926533 
L 863.717125 185.068058 
L 864.132356 202.536198 
L 864.339971 206.960774 
L 864.547586 208.543262 
L 864.755201 208.281247 
L 866.000891 201.583605 
L 866.208506 199.887473 
L 866.623736 193.821345 
L 867.038966 187.953531 
L 867.246581 187.960398 
L 867.661811 194.424828 
L 867.869426 197.598796 
L 868.077041 198.094285 
L 868.284656 194.98695 
L 869.115116 169.902136 
L 869.322731 168.466342 
L 869.530346 170.351793 
L 869.945576 181.311356 
L 870.360806 192.504976 
L 870.568421 195.189823 
L 870.776037 195.891329 
L 871.191267 194.893622 
L 871.398882 195.733059 
L 871.606497 198.725081 
L 872.436957 221.132245 
L 872.644572 221.338278 
L 872.852187 217.377415 
L 873.890262 183.463425 
L 874.097877 182.457792 
L 874.305492 183.175187 
L 875.135952 189.778539 
L 875.758797 191.540265 
L 876.174027 193.680162 
L 876.381642 194.116797 
L 876.589257 193.848305 
L 877.004487 192.689811 
L 877.212103 192.753456 
L 877.419718 193.675483 
L 877.834948 197.98431 
L 878.250178 203.00425 
L 878.457793 204.301043 
L 878.665408 204.098054 
L 878.873023 202.348923 
L 879.703483 192.269179 
L 880.118713 188.137726 
L 880.949173 173.720613 
L 881.156788 174.642741 
L 881.364403 179.542727 
L 882.194863 211.468001 
L 882.402478 211.070462 
L 882.610093 205.47275 
L 883.440553 173.696078 
L 883.648168 174.083836 
L 884.063399 184.388207 
L 884.478629 192.705903 
L 884.686244 192.808772 
L 884.893859 190.55177 
L 885.516704 180.51321 
L 885.724319 179.258837 
L 885.931934 179.889097 
L 886.347164 186.123427 
L 886.762394 193.497261 
L 886.970009 194.947006 
L 887.177624 193.92607 
L 887.592854 185.439351 
L 888.008084 175.547818 
L 888.215699 173.337789 
L 888.423314 174.087446 
L 888.838544 182.593843 
L 889.253774 190.999315 
L 889.669004 194.161694 
L 890.084234 195.486633 
L 890.291849 194.946387 
L 890.499465 192.555949 
L 890.914695 181.608977 
L 891.53754 164.637356 
L 891.745155 162.631876 
L 891.95277 162.660679 
L 892.160385 164.436812 
L 892.575615 172.154071 
L 893.406075 191.270338 
L 893.61369 193.602328 
L 893.821305 194.268332 
L 894.02892 193.028777 
L 894.236535 189.703103 
L 894.651765 177.244006 
L 895.066995 163.596764 
L 895.27461 160.25672 
L 895.482225 160.829575 
L 895.68984 165.332619 
L 896.5203 192.832369 
L 896.727915 191.385124 
L 897.143146 175.277473 
L 897.558376 156.030763 
L 897.765991 150.914307 
L 897.973606 150.443132 
L 898.181221 154.572632 
L 899.219296 192.419204 
L 899.426911 193.079049 
L 899.634526 191.066089 
L 900.464986 177.843663 
L 900.672601 176.372404 
L 900.880216 175.985189 
L 901.087831 176.837832 
L 901.295446 179.093913 
L 902.541136 199.155977 
L 902.748751 200.822221 
L 903.163981 207.549941 
L 903.579212 216.298069 
L 903.786827 217.799341 
L 903.994442 215.471547 
L 904.409672 199.016134 
L 905.032517 169.55134 
L 905.240132 165.256503 
L 905.447747 164.485638 
L 905.655362 166.792158 
L 906.070592 177.726256 
L 906.693437 195.946633 
L 906.901052 198.814191 
L 907.108667 198.685185 
L 907.316282 195.360592 
L 908.146742 171.459489 
L 908.354357 170.558521 
L 908.561972 172.925461 
L 909.392432 191.032277 
L 909.807662 194.164507 
L 910.222893 196.453993 
L 910.845738 200.59673 
L 911.053353 200.96156 
L 911.260968 200.364868 
L 911.676198 196.542581 
L 912.506658 186.372078 
L 912.714273 185.879327 
L 912.921888 186.583721 
L 913.337118 188.45826 
L 913.544733 187.892791 
L 914.167578 183.929647 
L 914.375193 184.946017 
L 914.790423 191.842808 
L 915.205653 199.035496 
L 915.413268 199.842454 
L 915.620883 197.908944 
L 916.036113 187.460029 
L 916.451343 175.936547 
L 916.658959 172.896368 
L 916.866574 172.621049 
L 917.074189 175.030962 
L 917.697034 186.557128 
L 917.904649 186.774068 
L 918.112264 184.322792 
L 918.527494 176.851036 
L 918.735109 175.772108 
L 918.942724 178.078811 
L 919.773184 196.829717 
L 919.980799 194.046269 
L 920.603644 175.236161 
L 920.811259 173.458952 
L 921.018874 175.413546 
L 921.434104 183.745062 
L 921.641719 185.733141 
L 921.849334 184.565397 
L 922.679794 169.164116 
L 922.887409 170.349932 
L 923.71787 184.112776 
L 923.925485 183.708737 
L 924.340715 178.908432 
L 924.755945 173.856927 
L 925.171175 171.523151 
L 925.37879 171.407718 
L 925.586405 172.166587 
L 925.79402 174.215927 
L 926.20925 182.878914 
L 926.62448 192.561251 
L 926.832095 194.807662 
L 927.03971 194.656452 
L 927.45494 189.330027 
L 927.87017 183.931481 
L 928.077785 182.794401 
L 928.2854 182.567725 
L 928.493015 182.736211 
L 928.70063 182.723386 
L 928.908245 182.133075 
L 929.323475 178.939899 
L 929.738706 175.083787 
L 929.946321 174.262811 
L 930.153936 174.939647 
L 930.361551 177.341017 
L 931.192011 192.060665 
L 931.399626 192.401696 
L 931.607241 190.373833 
L 932.645316 172.7416 
L 932.852931 172.841537 
L 933.268161 176.322144 
L 933.891006 182.038527 
L 934.306236 183.521512 
L 934.721466 184.263946 
L 935.136696 185.897451 
L 935.759541 189.613015 
L 935.967156 190.15339 
L 936.174771 190.083516 
L 936.382387 189.422779 
L 936.797617 186.750271 
L 937.212847 184.189316 
L 937.420462 183.994503 
L 937.628077 184.87961 
L 938.458537 191.710143 
L 938.666152 190.714444 
L 939.288997 183.86999 
L 939.496612 183.83523 
L 939.704227 185.910481 
L 940.534687 201.279138 
L 940.742302 201.944714 
L 940.949917 200.243392 
L 941.780377 185.870001 
L 941.987992 185.037199 
L 942.195607 185.290195 
L 942.403222 185.832643 
L 942.610837 185.933214 
L 942.818452 185.149397 
L 943.648913 178.204328 
L 943.856528 178.642348 
L 944.064143 180.796262 
L 944.479373 189.131978 
L 945.102218 203.001159 
L 945.309833 204.793321 
L 945.517448 203.728579 
L 945.725063 199.525037 
L 946.555523 172.589987 
L 946.763138 170.980643 
L 946.970753 172.766987 
L 948.008828 193.169423 
L 948.216443 193.31311 
L 948.424058 192.298946 
L 948.839288 187.87999 
L 949.877364 169.65711 
L 950.084979 169.341848 
L 950.292594 170.632372 
L 951.745899 186.796949 
L 951.953514 187.752027 
L 952.161129 188.123944 
L 952.368744 187.897199 
L 952.576359 187.036088 
L 952.991589 183.301273 
L 953.614434 173.319608 
L 954.029664 168.238573 
L 954.237279 168.398244 
L 954.444894 170.93762 
L 955.482969 192.026147 
L 955.690584 191.650708 
L 956.105815 187.113018 
L 956.521045 182.760092 
L 957.55912 175.881763 
L 957.766735 175.746217 
L 957.97435 177.068559 
L 958.38958 184.229977 
L 958.80481 191.390108 
L 959.012425 191.57325 
L 959.22004 188.800211 
L 959.842885 174.934754 
L 960.0505 173.512454 
L 960.258115 174.82338 
L 960.673345 183.181482 
L 961.088575 191.207002 
L 961.29619 192.256391 
L 961.503805 190.94343 
L 962.12665 182.560543 
L 962.334265 182.276318 
L 962.541881 184.091401 
L 963.372341 198.639098 
L 963.579956 199.395716 
L 963.787571 198.13271 
L 964.410416 189.604739 
L 964.618031 188.765352 
L 964.825646 189.918186 
L 965.656106 199.078576 
L 965.863721 199.088187 
L 966.486566 197.02169 
L 966.901796 195.047509 
L 967.524641 191.538053 
L 967.732256 191.194072 
L 967.939871 191.606026 
L 968.355101 194.20906 
L 968.770331 196.540244 
L 968.977946 196.454505 
L 969.185562 195.290319 
L 970.016022 187.427765 
L 970.223637 187.041239 
L 970.431252 187.750897 
L 970.846482 191.679431 
L 971.261712 196.008307 
L 971.469327 196.988637 
L 971.676942 196.714798 
L 971.884557 195.229692 
L 972.715017 186.651082 
L 972.922632 186.271172 
L 973.130247 187.073736 
L 973.545477 191.791732 
L 974.168322 200.73702 
L 974.375937 202.036043 
L 974.583552 201.721783 
L 974.791167 199.653522 
L 975.621627 187.962676 
L 975.829243 187.705928 
L 976.036858 188.731179 
L 976.659703 193.429882 
L 976.867318 193.481358 
L 977.282548 191.789487 
L 977.490163 191.61566 
L 977.697778 192.942747 
L 978.113008 200.022939 
L 978.528238 207.173696 
L 978.735853 208.156524 
L 978.943468 206.770748 
L 979.358698 198.338194 
L 979.773928 188.380832 
L 979.981543 185.520591 
L 980.189158 185.077368 
L 980.396773 187.063453 
L 981.227233 200.055081 
L 981.434848 200.380727 
L 982.057693 198.34426 
L 982.265309 198.624378 
L 982.680539 200.350252 
L 982.888154 200.574692 
L 983.095769 199.584001 
L 983.510999 193.491727 
L 984.133844 182.826963 
L 984.341459 182.096963 
L 984.549074 183.338145 
L 984.964304 190.005419 
L 985.379534 196.386841 
L 985.587149 197.271498 
L 985.794764 196.26192 
L 986.209994 190.388535 
L 986.832839 181.769912 
L 987.040454 180.619783 
L 987.248069 180.408904 
L 987.455684 180.927175 
L 988.493759 186.232146 
L 988.90899 188.838173 
L 989.531835 194.217259 
L 989.73945 195.075528 
L 989.947065 194.91151 
L 990.362295 192.007076 
L 990.777525 189.147909 
L 990.98514 189.253921 
L 991.192755 190.680682 
L 991.8156 197.745846 
L 992.023215 198.844226 
L 992.23083 198.769256 
L 992.438445 197.633966 
L 993.268905 190.240739 
L 993.47652 189.765593 
L 993.684135 190.145689 
L 994.30698 192.564649 
L 994.514595 192.330705 
L 994.929825 190.252932 
L 995.345056 188.247947 
L 995.552671 187.806933 
L 995.760286 187.722804 
L 996.175516 188.102808 
L 996.590746 188.439212 
L 997.005976 188.701901 
L 997.421206 189.495801 
L 998.044051 190.832638 
L 998.459281 191.687178 
L 998.874511 192.701535 
L 999.082126 192.475716 
L 999.289741 191.326314 
L 999.704971 186.445403 
L 1000.120201 181.494514 
L 1000.327816 180.724932 
L 1000.535431 181.651706 
L 1000.950661 187.420116 
L 1001.365891 192.83484 
L 1001.573506 193.398299 
L 1001.781121 192.362492 
L 1002.403967 186.716899 
L 1002.611582 186.299179 
L 1002.819197 186.987764 
L 1003.649657 192.766481 
L 1003.857272 192.263459 
L 1004.272502 187.730623 
L 1004.687732 182.612902 
L 1004.895347 181.569858 
L 1005.102962 181.912566 
L 1005.518192 185.607084 
L 1005.933422 189.524869 
L 1006.141037 190.347917 
L 1006.348652 190.206748 
L 1006.971497 187.680101 
L 1007.179112 187.879363 
L 1007.594342 190.256752 
L 1008.009572 192.13936 
L 1008.217187 191.917809 
L 1008.632418 189.638583 
L 1009.047648 187.139398 
L 1009.462878 185.65792 
L 1009.878108 184.680173 
L 1010.085723 184.418548 
L 1010.293338 184.471843 
L 1010.500953 184.925835 
L 1011.539028 188.752747 
L 1011.746643 188.673302 
L 1012.577103 187.345757 
L 1012.784718 187.618026 
L 1013.615178 189.872897 
L 1013.822793 189.716092 
L 1014.238023 188.076331 
L 1014.653253 186.37948 
L 1014.860868 186.335968 
L 1015.068484 187.022918 
L 1015.691329 190.592674 
L 1015.898944 190.780608 
L 1016.106559 189.919575 
L 1016.521789 185.702622 
L 1016.937019 181.870303 
L 1017.144634 181.722558 
L 1017.352249 183.077426 
L 1018.182709 191.678988 
L 1018.390324 191.117179 
L 1018.805554 186.439141 
L 1019.220784 182.23793 
L 1019.428399 181.866301 
L 1019.636014 182.681556 
L 1020.258859 186.609091 
L 1020.466474 186.749232 
L 1020.674089 186.142061 
L 1021.089319 184.182747 
L 1021.296934 183.680732 
L 1021.504549 183.774187 
L 1021.91978 185.230657 
L 1022.33501 186.380217 
L 1022.542625 186.348603 
L 1022.957855 185.349873 
L 1023.373085 184.494335 
L 1023.5807 184.590954 
L 1023.99593 185.892004 
L 1024.41116 187.172904 
L 1024.618775 187.217871 
L 1025.034005 186.24183 
L 1025.449235 185.408037 
L 1025.65685 185.510782 
L 1026.07208 186.514887 
L 1026.48731 187.353531 
L 1026.694925 187.347816 
L 1027.110155 186.521422 
L 1027.525385 185.602428 
L 1027.733 185.4969 
L 1027.940615 185.660888 
L 1028.563461 186.482301 
L 1028.771076 186.414421 
L 1029.601536 185.233815 
L 1029.809151 185.336361 
L 1030.639611 186.497248 
L 1031.054841 186.516759 
L 1031.677686 186.38805 
L 1032.715761 186.713305 
L 1033.130991 186.315677 
L 1033.753836 185.686577 
L 1033.961451 185.662881 
L 1034.376681 186.005274 
L 1034.999527 186.852331 
L 1035.414757 186.968704 
L 1036.452832 186.322447 
L 1036.868062 186.643473 
L 1037.283292 187.052154 
L 1037.698522 187.125464 
L 1038.736597 186.628911 
L 1039.151827 186.999053 
L 1039.567057 187.430208 
L 1039.982287 187.495793 
L 1040.812747 186.991595 
L 1041.227977 187.242989 
L 1041.643208 187.695602 
L 1041.850823 187.775419 
L 1042.058438 187.705131 
L 1042.888898 187.02453 
L 1043.304128 187.369499 
L 1043.719358 187.768254 
L 1043.926973 187.778455 
L 1044.965048 187.302686 
L 1045.795508 187.785954 
L 1046.210738 187.626683 
L 1046.625968 187.372591 
L 1047.041198 187.396544 
L 1047.871659 187.910664 
L 1048.286889 187.739359 
L 1048.909734 187.320171 
L 1049.117349 187.370608 
L 1049.947809 188.035017 
L 1050.363039 187.826175 
L 1050.778269 187.41871 
L 1050.985884 187.340482 
L 1051.193499 187.415716 
L 1052.023959 188.09153 
L 1052.439189 187.819894 
L 1052.854419 187.475623 
L 1053.062034 187.47029 
L 1054.100109 188.012412 
L 1054.722955 187.636728 
L 1054.722955 187.636728 
" clip-path="url(#p4666f3ac8f)" style="fill: none; stroke: #0c5da5; stroke-width: 2; stroke-linecap: square"/>
   </g>
   <g id="patch_3">
    <path d="M 95.9775 354.3975 
L 95.9775 21.7575 
" style="fill: none; stroke: #000000; stroke-linejoin: miter; stroke-linecap: square"/>
   </g>
   <g id="patch_4">
    <path d="M 1100.3775 354.3975 
L 1100.3775 21.7575 
" style="fill: none; stroke: #000000; stroke-linejoin: miter; stroke-linecap: square"/>
   </g>
   <g id="patch_5">
    <path d="M 95.9775 354.3975 
L 1100.3775 354.3975 
" style="fill: none; stroke: #000000; stroke-linejoin: miter; stroke-linecap: square"/>
   </g>
   <g id="patch_6">
    <path d="M 95.9775 21.7575 
L 1100.3775 21.7575 
" style="fill: none; stroke: #000000; stroke-linejoin: miter; stroke-linecap: square"/>
   </g>
   <g id="text_17">
    <!-- Duzce_ Turkey Record no. 1613 -->
    <g transform="translate(472.8525 15.7575) scale(0.16 -0.16)">
     <defs>
      <path id="DejaVuSans-75" d="M 544 1381 
L 544 3500 
L 1119 3500 
L 1119 1403 
Q 1119 906 1312 657 
Q 1506 409 1894 409 
Q 2359 409 2629 706 
Q 2900 1003 2900 1516 
L 2900 3500 
L 3475 3500 
L 3475 0 
L 2900 0 
L 2900 538 
Q 2691 219 2414 64 
Q 2138 -91 1772 -91 
Q 1169 -91 856 284 
Q 544 659 544 1381 
z
M 1991 3584 
L 1991 3584 
z
" transform="scale(0.015625)"/>
      <path id="DejaVuSans-7a" d="M 353 3500 
L 3084 3500 
L 3084 2975 
L 922 459 
L 3084 459 
L 3084 0 
L 275 0 
L 275 525 
L 2438 3041 
L 353 3041 
L 353 3500 
z
" transform="scale(0.015625)"/>
      <path id="DejaVuSans-63" d="M 3122 3366 
L 3122 2828 
Q 2878 2963 2633 3030 
Q 2388 3097 2138 3097 
Q 1578 3097 1268 2742 
Q 959 2388 959 1747 
Q 959 1106 1268 751 
Q 1578 397 2138 397 
Q 2388 397 2633 464 
Q 2878 531 3122 666 
L 3122 134 
Q 2881 22 2623 -34 
Q 2366 -91 2075 -91 
Q 1284 -91 818 406 
Q 353 903 353 1747 
Q 353 2603 823 3093 
Q 1294 3584 2113 3584 
Q 2378 3584 2631 3529 
Q 2884 3475 3122 3366 
z
" transform="scale(0.015625)"/>
      <path id="DejaVuSans-5f" d="M 3263 -1063 
L 3263 -1509 
L -63 -1509 
L -63 -1063 
L 3263 -1063 
z
" transform="scale(0.015625)"/>
      <path id="DejaVuSans-72" d="M 2631 2963 
Q 2534 3019 2420 3045 
Q 2306 3072 2169 3072 
Q 1681 3072 1420 2755 
Q 1159 2438 1159 1844 
L 1159 0 
L 581 0 
L 581 3500 
L 1159 3500 
L 1159 2956 
Q 1341 3275 1631 3429 
Q 1922 3584 2338 3584 
Q 2397 3584 2469 3576 
Q 2541 3569 2628 3553 
L 2631 2963 
z
" transform="scale(0.015625)"/>
      <path id="DejaVuSans-6b" d="M 581 4863 
L 1159 4863 
L 1159 1991 
L 2875 3500 
L 3609 3500 
L 1753 1863 
L 3688 0 
L 2938 0 
L 1159 1709 
L 1159 0 
L 581 0 
L 581 4863 
z
" transform="scale(0.015625)"/>
      <path id="DejaVuSans-79" d="M 2059 -325 
Q 1816 -950 1584 -1140 
Q 1353 -1331 966 -1331 
L 506 -1331 
L 506 -850 
L 844 -850 
Q 1081 -850 1212 -737 
Q 1344 -625 1503 -206 
L 1606 56 
L 191 3500 
L 800 3500 
L 1894 763 
L 2988 3500 
L 3597 3500 
L 2059 -325 
z
" transform="scale(0.015625)"/>
      <path id="DejaVuSans-6f" d="M 1959 3097 
Q 1497 3097 1228 2736 
Q 959 2375 959 1747 
Q 959 1119 1226 758 
Q 1494 397 1959 397 
Q 2419 397 2687 759 
Q 2956 1122 2956 1747 
Q 2956 2369 2687 2733 
Q 2419 3097 1959 3097 
z
M 1959 3584 
Q 2709 3584 3137 3096 
Q 3566 2609 3566 1747 
Q 3566 888 3137 398 
Q 2709 -91 1959 -91 
Q 1206 -91 779 398 
Q 353 888 353 1747 
Q 353 2609 779 3096 
Q 1206 3584 1959 3584 
z
" transform="scale(0.015625)"/>
      <path id="DejaVuSans-64" d="M 2906 2969 
L 2906 4863 
L 3481 4863 
L 3481 0 
L 2906 0 
L 2906 525 
Q 2725 213 2448 61 
Q 2172 -91 1784 -91 
Q 1150 -91 751 415 
Q 353 922 353 1747 
Q 353 2572 751 3078 
Q 1150 3584 1784 3584 
Q 2172 3584 2448 3432 
Q 2725 3281 2906 2969 
z
M 947 1747 
Q 947 1113 1208 752 
Q 1469 391 1925 391 
Q 2381 391 2643 752 
Q 2906 1113 2906 1747 
Q 2906 2381 2643 2742 
Q 2381 3103 1925 3103 
Q 1469 3103 1208 2742 
Q 947 2381 947 1747 
z
" transform="scale(0.015625)"/>
      <path id="DejaVuSans-6e" d="M 3513 2113 
L 3513 0 
L 2938 0 
L 2938 2094 
Q 2938 2591 2744 2837 
Q 2550 3084 2163 3084 
Q 1697 3084 1428 2787 
Q 1159 2491 1159 1978 
L 1159 0 
L 581 0 
L 581 3500 
L 1159 3500 
L 1159 2956 
Q 1366 3272 1645 3428 
Q 1925 3584 2291 3584 
Q 2894 3584 3203 3211 
Q 3513 2838 3513 2113 
z
" transform="scale(0.015625)"/>
      <path id="DejaVuSans-36" d="M 2113 2584 
Q 1688 2584 1439 2293 
Q 1191 2003 1191 1497 
Q 1191 994 1439 701 
Q 1688 409 2113 409 
Q 2538 409 2786 701 
Q 3034 994 3034 1497 
Q 3034 2003 2786 2293 
Q 2538 2584 2113 2584 
z
M 3366 4563 
L 3366 3988 
Q 3128 4100 2886 4159 
Q 2644 4219 2406 4219 
Q 1781 4219 1451 3797 
Q 1122 3375 1075 2522 
Q 1259 2794 1537 2939 
Q 1816 3084 2150 3084 
Q 2853 3084 3261 2657 
Q 3669 2231 3669 1497 
Q 3669 778 3244 343 
Q 2819 -91 2113 -91 
Q 1303 -91 875 529 
Q 447 1150 447 2328 
Q 447 3434 972 4092 
Q 1497 4750 2381 4750 
Q 2619 4750 2861 4703 
Q 3103 4656 3366 4563 
z
" transform="scale(0.015625)"/>
     </defs>
     <use xlink:href="#DejaVuSans-44"/>
     <use xlink:href="#DejaVuSans-75" x="77.001953"/>
     <use xlink:href="#DejaVuSans-7a" x="140.380859"/>
     <use xlink:href="#DejaVuSans-63" x="192.871094"/>
     <use xlink:href="#DejaVuSans-65" x="247.851562"/>
     <use xlink:href="#DejaVuSans-5f" x="309.375"/>
     <use xlink:href="#DejaVuSans-20" x="359.375"/>
     <use xlink:href="#DejaVuSans-54" x="391.162109"/>
     <use xlink:href="#DejaVuSans-75" x="437.121094"/>
     <use xlink:href="#DejaVuSans-72" x="500.5"/>
     <use xlink:href="#DejaVuSans-6b" x="541.613281"/>
     <use xlink:href="#DejaVuSans-65" x="595.898438"/>
     <use xlink:href="#DejaVuSans-79" x="657.421875"/>
     <use xlink:href="#DejaVuSans-20" x="716.601562"/>
     <use xlink:href="#DejaVuSans-52" x="748.388672"/>
     <use xlink:href="#DejaVuSans-65" x="813.371094"/>
     <use xlink:href="#DejaVuSans-63" x="874.894531"/>
     <use xlink:href="#DejaVuSans-6f" x="929.875"/>
     <use xlink:href="#DejaVuSans-72" x="991.056641"/>
     <use xlink:href="#DejaVuSans-64" x="1030.419922"/>
     <use xlink:href="#DejaVuSans-20" x="1093.896484"/>
     <use xlink:href="#DejaVuSans-6e" x="1125.683594"/>
     <use xlink:href="#DejaVuSans-6f" x="1189.0625"/>
     <use xlink:href="#DejaVuSans-2e" x="1248.494141"/>
     <use xlink:href="#DejaVuSans-20" x="1280.28125"/>
     <use xlink:href="#DejaVuSans-31" x="1312.068359"/>
     <use xlink:href="#DejaVuSans-36" x="1375.691406"/>
     <use xlink:href="#DejaVuSans-31" x="1439.314453"/>
     <use xlink:href="#DejaVuSans-33" x="1502.9375"/>
    </g>
   </g>
  </g>
 </g>
 <defs>
  <clipPath id="p4666f3ac8f">
   <rect x="95.9775" y="21.7575" width="1004.4" height="332.64"/>
  </clipPath>
 </defs>
</svg>
