<?xml version="1.0" encoding="utf-8" standalone="no"?>
<!DOCTYPE svg PUBLIC "-//W3C//DTD SVG 1.1//EN"
  "http://www.w3.org/Graphics/SVG/1.1/DTD/svg11.dtd">
<svg xmlns:xlink="http://www.w3.org/1999/xlink" width="1058.1725pt" height="396.4675pt" viewBox="0 0 1058.1725 396.4675" xmlns="http://www.w3.org/2000/svg" version="1.1">
 <metadata>
  <rdf:RDF xmlns:dc="http://purl.org/dc/elements/1.1/" xmlns:cc="http://creativecommons.org/ns#" xmlns:rdf="http://www.w3.org/1999/02/22-rdf-syntax-ns#">
   <cc:Work>
    <dc:type rdf:resource="http://purl.org/dc/dcmitype/StillImage"/>
    <dc:date>2023-06-06T10:02:18.857255</dc:date>
    <dc:format>image/svg+xml</dc:format>
    <dc:creator>
     <cc:Agent>
      <dc:title>Matplotlib v3.7.1, https://matplotlib.org/</dc:title>
     </cc:Agent>
    </dc:creator>
   </cc:Work>
  </rdf:RDF>
 </metadata>
 <defs>
  <style type="text/css">*{stroke-linejoin: round; stroke-linecap: butt}</style>
 </defs>
 <g id="figure_1">
  <g id="patch_1">
   <path d="M 0 396.4675 
L 1058.1725 396.4675 
L 1058.1725 0 
L 0 0 
z
" style="fill: #ffffff"/>
  </g>
  <g id="axes_1">
   <g id="patch_2">
    <path d="M 50.1725 354.3975 
L 1054.5725 354.3975 
L 1054.5725 21.7575 
L 50.1725 21.7575 
z
" style="fill: #ffffff"/>
   </g>
   <g id="matplotlib.axis_1">
    <g id="xtick_1">
     <g id="line2d_1">
      <path d="M 95.827045 354.3975 
L 95.827045 21.7575 
" clip-path="url(#pf19035e0ff)" style="fill: none; stroke-dasharray: 1.85,0.8; stroke-dashoffset: 0; stroke: #000000; stroke-opacity: 0.5; stroke-width: 0.5"/>
     </g>
     <g id="line2d_2">
      <defs>
       <path id="md183785121" d="M 0 0 
L 0 -6 
" style="stroke: #000000"/>
      </defs>
      <g>
       <use xlink:href="#md183785121" x="95.827045" y="354.3975" style="stroke: #000000"/>
      </g>
     </g>
     <g id="line2d_3">
      <defs>
       <path id="maacccb9973" d="M 0 0 
L 0 6 
" style="stroke: #000000"/>
      </defs>
      <g>
       <use xlink:href="#maacccb9973" x="95.827045" y="21.7575" style="stroke: #000000"/>
      </g>
     </g>
     <g id="text_1">
      <!-- 0 -->
      <g transform="translate(90.737045 370.055) scale(0.16 -0.16)">
       <defs>
        <path id="DejaVuSans-30" d="M 2034 4250 
Q 1547 4250 1301 3770 
Q 1056 3291 1056 2328 
Q 1056 1369 1301 889 
Q 1547 409 2034 409 
Q 2525 409 2770 889 
Q 3016 1369 3016 2328 
Q 3016 3291 2770 3770 
Q 2525 4250 2034 4250 
z
M 2034 4750 
Q 2819 4750 3233 4129 
Q 3647 3509 3647 2328 
Q 3647 1150 3233 529 
Q 2819 -91 2034 -91 
Q 1250 -91 836 529 
Q 422 1150 422 2328 
Q 422 3509 836 4129 
Q 1250 4750 2034 4750 
z
" transform="scale(0.015625)"/>
       </defs>
       <use xlink:href="#DejaVuSans-30"/>
      </g>
     </g>
    </g>
    <g id="xtick_2">
     <g id="line2d_4">
      <path d="M 252.178229 354.3975 
L 252.178229 21.7575 
" clip-path="url(#pf19035e0ff)" style="fill: none; stroke-dasharray: 1.85,0.8; stroke-dashoffset: 0; stroke: #000000; stroke-opacity: 0.5; stroke-width: 0.5"/>
     </g>
     <g id="line2d_5">
      <g>
       <use xlink:href="#md183785121" x="252.178229" y="354.3975" style="stroke: #000000"/>
      </g>
     </g>
     <g id="line2d_6">
      <g>
       <use xlink:href="#maacccb9973" x="252.178229" y="21.7575" style="stroke: #000000"/>
      </g>
     </g>
     <g id="text_2">
      <!-- 2 -->
      <g transform="translate(247.088229 370.055) scale(0.16 -0.16)">
       <defs>
        <path id="DejaVuSans-32" d="M 1228 531 
L 3431 531 
L 3431 0 
L 469 0 
L 469 531 
Q 828 903 1448 1529 
Q 2069 2156 2228 2338 
Q 2531 2678 2651 2914 
Q 2772 3150 2772 3378 
Q 2772 3750 2511 3984 
Q 2250 4219 1831 4219 
Q 1534 4219 1204 4116 
Q 875 4013 500 3803 
L 500 4441 
Q 881 4594 1212 4672 
Q 1544 4750 1819 4750 
Q 2544 4750 2975 4387 
Q 3406 4025 3406 3419 
Q 3406 3131 3298 2873 
Q 3191 2616 2906 2266 
Q 2828 2175 2409 1742 
Q 1991 1309 1228 531 
z
" transform="scale(0.015625)"/>
       </defs>
       <use xlink:href="#DejaVuSans-32"/>
      </g>
     </g>
    </g>
    <g id="xtick_3">
     <g id="line2d_7">
      <path d="M 408.529412 354.3975 
L 408.529412 21.7575 
" clip-path="url(#pf19035e0ff)" style="fill: none; stroke-dasharray: 1.85,0.8; stroke-dashoffset: 0; stroke: #000000; stroke-opacity: 0.5; stroke-width: 0.5"/>
     </g>
     <g id="line2d_8">
      <g>
       <use xlink:href="#md183785121" x="408.529412" y="354.3975" style="stroke: #000000"/>
      </g>
     </g>
     <g id="line2d_9">
      <g>
       <use xlink:href="#maacccb9973" x="408.529412" y="21.7575" style="stroke: #000000"/>
      </g>
     </g>
     <g id="text_3">
      <!-- 4 -->
      <g transform="translate(403.439412 370.055) scale(0.16 -0.16)">
       <defs>
        <path id="DejaVuSans-34" d="M 2419 4116 
L 825 1625 
L 2419 1625 
L 2419 4116 
z
M 2253 4666 
L 3047 4666 
L 3047 1625 
L 3713 1625 
L 3713 1100 
L 3047 1100 
L 3047 0 
L 2419 0 
L 2419 1100 
L 313 1100 
L 313 1709 
L 2253 4666 
z
" transform="scale(0.015625)"/>
       </defs>
       <use xlink:href="#DejaVuSans-34"/>
      </g>
     </g>
    </g>
    <g id="xtick_4">
     <g id="line2d_10">
      <path d="M 564.880595 354.3975 
L 564.880595 21.7575 
" clip-path="url(#pf19035e0ff)" style="fill: none; stroke-dasharray: 1.85,0.8; stroke-dashoffset: 0; stroke: #000000; stroke-opacity: 0.5; stroke-width: 0.5"/>
     </g>
     <g id="line2d_11">
      <g>
       <use xlink:href="#md183785121" x="564.880595" y="354.3975" style="stroke: #000000"/>
      </g>
     </g>
     <g id="line2d_12">
      <g>
       <use xlink:href="#maacccb9973" x="564.880595" y="21.7575" style="stroke: #000000"/>
      </g>
     </g>
     <g id="text_4">
      <!-- 6 -->
      <g transform="translate(559.790595 370.055) scale(0.16 -0.16)">
       <defs>
        <path id="DejaVuSans-36" d="M 2113 2584 
Q 1688 2584 1439 2293 
Q 1191 2003 1191 1497 
Q 1191 994 1439 701 
Q 1688 409 2113 409 
Q 2538 409 2786 701 
Q 3034 994 3034 1497 
Q 3034 2003 2786 2293 
Q 2538 2584 2113 2584 
z
M 3366 4563 
L 3366 3988 
Q 3128 4100 2886 4159 
Q 2644 4219 2406 4219 
Q 1781 4219 1451 3797 
Q 1122 3375 1075 2522 
Q 1259 2794 1537 2939 
Q 1816 3084 2150 3084 
Q 2853 3084 3261 2657 
Q 3669 2231 3669 1497 
Q 3669 778 3244 343 
Q 2819 -91 2113 -91 
Q 1303 -91 875 529 
Q 447 1150 447 2328 
Q 447 3434 972 4092 
Q 1497 4750 2381 4750 
Q 2619 4750 2861 4703 
Q 3103 4656 3366 4563 
z
" transform="scale(0.015625)"/>
       </defs>
       <use xlink:href="#DejaVuSans-36"/>
      </g>
     </g>
    </g>
    <g id="xtick_5">
     <g id="line2d_13">
      <path d="M 721.231778 354.3975 
L 721.231778 21.7575 
" clip-path="url(#pf19035e0ff)" style="fill: none; stroke-dasharray: 1.85,0.8; stroke-dashoffset: 0; stroke: #000000; stroke-opacity: 0.5; stroke-width: 0.5"/>
     </g>
     <g id="line2d_14">
      <g>
       <use xlink:href="#md183785121" x="721.231778" y="354.3975" style="stroke: #000000"/>
      </g>
     </g>
     <g id="line2d_15">
      <g>
       <use xlink:href="#maacccb9973" x="721.231778" y="21.7575" style="stroke: #000000"/>
      </g>
     </g>
     <g id="text_5">
      <!-- 8 -->
      <g transform="translate(716.141778 370.055) scale(0.16 -0.16)">
       <defs>
        <path id="DejaVuSans-38" d="M 2034 2216 
Q 1584 2216 1326 1975 
Q 1069 1734 1069 1313 
Q 1069 891 1326 650 
Q 1584 409 2034 409 
Q 2484 409 2743 651 
Q 3003 894 3003 1313 
Q 3003 1734 2745 1975 
Q 2488 2216 2034 2216 
z
M 1403 2484 
Q 997 2584 770 2862 
Q 544 3141 544 3541 
Q 544 4100 942 4425 
Q 1341 4750 2034 4750 
Q 2731 4750 3128 4425 
Q 3525 4100 3525 3541 
Q 3525 3141 3298 2862 
Q 3072 2584 2669 2484 
Q 3125 2378 3379 2068 
Q 3634 1759 3634 1313 
Q 3634 634 3220 271 
Q 2806 -91 2034 -91 
Q 1263 -91 848 271 
Q 434 634 434 1313 
Q 434 1759 690 2068 
Q 947 2378 1403 2484 
z
M 1172 3481 
Q 1172 3119 1398 2916 
Q 1625 2713 2034 2713 
Q 2441 2713 2670 2916 
Q 2900 3119 2900 3481 
Q 2900 3844 2670 4047 
Q 2441 4250 2034 4250 
Q 1625 4250 1398 4047 
Q 1172 3844 1172 3481 
z
" transform="scale(0.015625)"/>
       </defs>
       <use xlink:href="#DejaVuSans-38"/>
      </g>
     </g>
    </g>
    <g id="xtick_6">
     <g id="line2d_16">
      <path d="M 877.582961 354.3975 
L 877.582961 21.7575 
" clip-path="url(#pf19035e0ff)" style="fill: none; stroke-dasharray: 1.85,0.8; stroke-dashoffset: 0; stroke: #000000; stroke-opacity: 0.5; stroke-width: 0.5"/>
     </g>
     <g id="line2d_17">
      <g>
       <use xlink:href="#md183785121" x="877.582961" y="354.3975" style="stroke: #000000"/>
      </g>
     </g>
     <g id="line2d_18">
      <g>
       <use xlink:href="#maacccb9973" x="877.582961" y="21.7575" style="stroke: #000000"/>
      </g>
     </g>
     <g id="text_6">
      <!-- 10 -->
      <g transform="translate(867.402961 370.055) scale(0.16 -0.16)">
       <defs>
        <path id="DejaVuSans-31" d="M 794 531 
L 1825 531 
L 1825 4091 
L 703 3866 
L 703 4441 
L 1819 4666 
L 2450 4666 
L 2450 531 
L 3481 531 
L 3481 0 
L 794 0 
L 794 531 
z
" transform="scale(0.015625)"/>
       </defs>
       <use xlink:href="#DejaVuSans-31"/>
       <use xlink:href="#DejaVuSans-30" x="63.623047"/>
      </g>
     </g>
    </g>
    <g id="xtick_7">
     <g id="line2d_19">
      <path d="M 1033.934144 354.3975 
L 1033.934144 21.7575 
" clip-path="url(#pf19035e0ff)" style="fill: none; stroke-dasharray: 1.85,0.8; stroke-dashoffset: 0; stroke: #000000; stroke-opacity: 0.5; stroke-width: 0.5"/>
     </g>
     <g id="line2d_20">
      <g>
       <use xlink:href="#md183785121" x="1033.934144" y="354.3975" style="stroke: #000000"/>
      </g>
     </g>
     <g id="line2d_21">
      <g>
       <use xlink:href="#maacccb9973" x="1033.934144" y="21.7575" style="stroke: #000000"/>
      </g>
     </g>
     <g id="text_7">
      <!-- 12 -->
      <g transform="translate(1023.754144 370.055) scale(0.16 -0.16)">
       <use xlink:href="#DejaVuSans-31"/>
       <use xlink:href="#DejaVuSans-32" x="63.623047"/>
      </g>
     </g>
    </g>
    <g id="xtick_8">
     <g id="line2d_22">
      <defs>
       <path id="m807ab52dc3" d="M 0 0 
L 0 -3 
" style="stroke: #000000"/>
      </defs>
      <g>
       <use xlink:href="#m807ab52dc3" x="56.73925" y="354.3975" style="stroke: #000000"/>
      </g>
     </g>
     <g id="line2d_23">
      <defs>
       <path id="mb9f9e243cb" d="M 0 0 
L 0 3 
" style="stroke: #000000"/>
      </defs>
      <g>
       <use xlink:href="#mb9f9e243cb" x="56.73925" y="21.7575" style="stroke: #000000"/>
      </g>
     </g>
    </g>
    <g id="xtick_9">
     <g id="line2d_24">
      <g>
       <use xlink:href="#m807ab52dc3" x="134.914841" y="354.3975" style="stroke: #000000"/>
      </g>
     </g>
     <g id="line2d_25">
      <g>
       <use xlink:href="#mb9f9e243cb" x="134.914841" y="21.7575" style="stroke: #000000"/>
      </g>
     </g>
    </g>
    <g id="xtick_10">
     <g id="line2d_26">
      <g>
       <use xlink:href="#m807ab52dc3" x="174.002637" y="354.3975" style="stroke: #000000"/>
      </g>
     </g>
     <g id="line2d_27">
      <g>
       <use xlink:href="#mb9f9e243cb" x="174.002637" y="21.7575" style="stroke: #000000"/>
      </g>
     </g>
    </g>
    <g id="xtick_11">
     <g id="line2d_28">
      <g>
       <use xlink:href="#m807ab52dc3" x="213.090433" y="354.3975" style="stroke: #000000"/>
      </g>
     </g>
     <g id="line2d_29">
      <g>
       <use xlink:href="#mb9f9e243cb" x="213.090433" y="21.7575" style="stroke: #000000"/>
      </g>
     </g>
    </g>
    <g id="xtick_12">
     <g id="line2d_30">
      <g>
       <use xlink:href="#m807ab52dc3" x="291.266024" y="354.3975" style="stroke: #000000"/>
      </g>
     </g>
     <g id="line2d_31">
      <g>
       <use xlink:href="#mb9f9e243cb" x="291.266024" y="21.7575" style="stroke: #000000"/>
      </g>
     </g>
    </g>
    <g id="xtick_13">
     <g id="line2d_32">
      <g>
       <use xlink:href="#m807ab52dc3" x="330.35382" y="354.3975" style="stroke: #000000"/>
      </g>
     </g>
     <g id="line2d_33">
      <g>
       <use xlink:href="#mb9f9e243cb" x="330.35382" y="21.7575" style="stroke: #000000"/>
      </g>
     </g>
    </g>
    <g id="xtick_14">
     <g id="line2d_34">
      <g>
       <use xlink:href="#m807ab52dc3" x="369.441616" y="354.3975" style="stroke: #000000"/>
      </g>
     </g>
     <g id="line2d_35">
      <g>
       <use xlink:href="#mb9f9e243cb" x="369.441616" y="21.7575" style="stroke: #000000"/>
      </g>
     </g>
    </g>
    <g id="xtick_15">
     <g id="line2d_36">
      <g>
       <use xlink:href="#m807ab52dc3" x="447.617207" y="354.3975" style="stroke: #000000"/>
      </g>
     </g>
     <g id="line2d_37">
      <g>
       <use xlink:href="#mb9f9e243cb" x="447.617207" y="21.7575" style="stroke: #000000"/>
      </g>
     </g>
    </g>
    <g id="xtick_16">
     <g id="line2d_38">
      <g>
       <use xlink:href="#m807ab52dc3" x="486.705003" y="354.3975" style="stroke: #000000"/>
      </g>
     </g>
     <g id="line2d_39">
      <g>
       <use xlink:href="#mb9f9e243cb" x="486.705003" y="21.7575" style="stroke: #000000"/>
      </g>
     </g>
    </g>
    <g id="xtick_17">
     <g id="line2d_40">
      <g>
       <use xlink:href="#m807ab52dc3" x="525.792799" y="354.3975" style="stroke: #000000"/>
      </g>
     </g>
     <g id="line2d_41">
      <g>
       <use xlink:href="#mb9f9e243cb" x="525.792799" y="21.7575" style="stroke: #000000"/>
      </g>
     </g>
    </g>
    <g id="xtick_18">
     <g id="line2d_42">
      <g>
       <use xlink:href="#m807ab52dc3" x="603.96839" y="354.3975" style="stroke: #000000"/>
      </g>
     </g>
     <g id="line2d_43">
      <g>
       <use xlink:href="#mb9f9e243cb" x="603.96839" y="21.7575" style="stroke: #000000"/>
      </g>
     </g>
    </g>
    <g id="xtick_19">
     <g id="line2d_44">
      <g>
       <use xlink:href="#m807ab52dc3" x="643.056186" y="354.3975" style="stroke: #000000"/>
      </g>
     </g>
     <g id="line2d_45">
      <g>
       <use xlink:href="#mb9f9e243cb" x="643.056186" y="21.7575" style="stroke: #000000"/>
      </g>
     </g>
    </g>
    <g id="xtick_20">
     <g id="line2d_46">
      <g>
       <use xlink:href="#m807ab52dc3" x="682.143982" y="354.3975" style="stroke: #000000"/>
      </g>
     </g>
     <g id="line2d_47">
      <g>
       <use xlink:href="#mb9f9e243cb" x="682.143982" y="21.7575" style="stroke: #000000"/>
      </g>
     </g>
    </g>
    <g id="xtick_21">
     <g id="line2d_48">
      <g>
       <use xlink:href="#m807ab52dc3" x="760.319573" y="354.3975" style="stroke: #000000"/>
      </g>
     </g>
     <g id="line2d_49">
      <g>
       <use xlink:href="#mb9f9e243cb" x="760.319573" y="21.7575" style="stroke: #000000"/>
      </g>
     </g>
    </g>
    <g id="xtick_22">
     <g id="line2d_50">
      <g>
       <use xlink:href="#m807ab52dc3" x="799.407369" y="354.3975" style="stroke: #000000"/>
      </g>
     </g>
     <g id="line2d_51">
      <g>
       <use xlink:href="#mb9f9e243cb" x="799.407369" y="21.7575" style="stroke: #000000"/>
      </g>
     </g>
    </g>
    <g id="xtick_23">
     <g id="line2d_52">
      <g>
       <use xlink:href="#m807ab52dc3" x="838.495165" y="354.3975" style="stroke: #000000"/>
      </g>
     </g>
     <g id="line2d_53">
      <g>
       <use xlink:href="#mb9f9e243cb" x="838.495165" y="21.7575" style="stroke: #000000"/>
      </g>
     </g>
    </g>
    <g id="xtick_24">
     <g id="line2d_54">
      <g>
       <use xlink:href="#m807ab52dc3" x="916.670757" y="354.3975" style="stroke: #000000"/>
      </g>
     </g>
     <g id="line2d_55">
      <g>
       <use xlink:href="#mb9f9e243cb" x="916.670757" y="21.7575" style="stroke: #000000"/>
      </g>
     </g>
    </g>
    <g id="xtick_25">
     <g id="line2d_56">
      <g>
       <use xlink:href="#m807ab52dc3" x="955.758552" y="354.3975" style="stroke: #000000"/>
      </g>
     </g>
     <g id="line2d_57">
      <g>
       <use xlink:href="#mb9f9e243cb" x="955.758552" y="21.7575" style="stroke: #000000"/>
      </g>
     </g>
    </g>
    <g id="xtick_26">
     <g id="line2d_58">
      <g>
       <use xlink:href="#m807ab52dc3" x="994.846348" y="354.3975" style="stroke: #000000"/>
      </g>
     </g>
     <g id="line2d_59">
      <g>
       <use xlink:href="#mb9f9e243cb" x="994.846348" y="21.7575" style="stroke: #000000"/>
      </g>
     </g>
    </g>
    <g id="text_8">
     <!-- Time (s) -->
     <g transform="translate(519.84625 389.54) scale(0.16 -0.16)">
      <defs>
       <path id="DejaVuSans-54" d="M -19 4666 
L 3928 4666 
L 3928 4134 
L 2272 4134 
L 2272 0 
L 1638 0 
L 1638 4134 
L -19 4134 
L -19 4666 
z
" transform="scale(0.015625)"/>
       <path id="DejaVuSans-69" d="M 603 3500 
L 1178 3500 
L 1178 0 
L 603 0 
L 603 3500 
z
M 603 4863 
L 1178 4863 
L 1178 4134 
L 603 4134 
L 603 4863 
z
" transform="scale(0.015625)"/>
       <path id="DejaVuSans-6d" d="M 3328 2828 
Q 3544 3216 3844 3400 
Q 4144 3584 4550 3584 
Q 5097 3584 5394 3201 
Q 5691 2819 5691 2113 
L 5691 0 
L 5113 0 
L 5113 2094 
Q 5113 2597 4934 2840 
Q 4756 3084 4391 3084 
Q 3944 3084 3684 2787 
Q 3425 2491 3425 1978 
L 3425 0 
L 2847 0 
L 2847 2094 
Q 2847 2600 2669 2842 
Q 2491 3084 2119 3084 
Q 1678 3084 1418 2786 
Q 1159 2488 1159 1978 
L 1159 0 
L 581 0 
L 581 3500 
L 1159 3500 
L 1159 2956 
Q 1356 3278 1631 3431 
Q 1906 3584 2284 3584 
Q 2666 3584 2933 3390 
Q 3200 3197 3328 2828 
z
" transform="scale(0.015625)"/>
       <path id="DejaVuSans-65" d="M 3597 1894 
L 3597 1613 
L 953 1613 
Q 991 1019 1311 708 
Q 1631 397 2203 397 
Q 2534 397 2845 478 
Q 3156 559 3463 722 
L 3463 178 
Q 3153 47 2828 -22 
Q 2503 -91 2169 -91 
Q 1331 -91 842 396 
Q 353 884 353 1716 
Q 353 2575 817 3079 
Q 1281 3584 2069 3584 
Q 2775 3584 3186 3129 
Q 3597 2675 3597 1894 
z
M 3022 2063 
Q 3016 2534 2758 2815 
Q 2500 3097 2075 3097 
Q 1594 3097 1305 2825 
Q 1016 2553 972 2059 
L 3022 2063 
z
" transform="scale(0.015625)"/>
       <path id="DejaVuSans-20" transform="scale(0.015625)"/>
       <path id="DejaVuSans-28" d="M 1984 4856 
Q 1566 4138 1362 3434 
Q 1159 2731 1159 2009 
Q 1159 1288 1364 580 
Q 1569 -128 1984 -844 
L 1484 -844 
Q 1016 -109 783 600 
Q 550 1309 550 2009 
Q 550 2706 781 3412 
Q 1013 4119 1484 4856 
L 1984 4856 
z
" transform="scale(0.015625)"/>
       <path id="DejaVuSans-73" d="M 2834 3397 
L 2834 2853 
Q 2591 2978 2328 3040 
Q 2066 3103 1784 3103 
Q 1356 3103 1142 2972 
Q 928 2841 928 2578 
Q 928 2378 1081 2264 
Q 1234 2150 1697 2047 
L 1894 2003 
Q 2506 1872 2764 1633 
Q 3022 1394 3022 966 
Q 3022 478 2636 193 
Q 2250 -91 1575 -91 
Q 1294 -91 989 -36 
Q 684 19 347 128 
L 347 722 
Q 666 556 975 473 
Q 1284 391 1588 391 
Q 1994 391 2212 530 
Q 2431 669 2431 922 
Q 2431 1156 2273 1281 
Q 2116 1406 1581 1522 
L 1381 1569 
Q 847 1681 609 1914 
Q 372 2147 372 2553 
Q 372 3047 722 3315 
Q 1072 3584 1716 3584 
Q 2034 3584 2315 3537 
Q 2597 3491 2834 3397 
z
" transform="scale(0.015625)"/>
       <path id="DejaVuSans-29" d="M 513 4856 
L 1013 4856 
Q 1481 4119 1714 3412 
Q 1947 2706 1947 2009 
Q 1947 1309 1714 600 
Q 1481 -109 1013 -844 
L 513 -844 
Q 928 -128 1133 580 
Q 1338 1288 1338 2009 
Q 1338 2731 1133 3434 
Q 928 4138 513 4856 
z
" transform="scale(0.015625)"/>
      </defs>
      <use xlink:href="#DejaVuSans-54"/>
      <use xlink:href="#DejaVuSans-69" x="57.958984"/>
      <use xlink:href="#DejaVuSans-6d" x="85.742188"/>
      <use xlink:href="#DejaVuSans-65" x="183.154297"/>
      <use xlink:href="#DejaVuSans-20" x="244.677734"/>
      <use xlink:href="#DejaVuSans-28" x="276.464844"/>
      <use xlink:href="#DejaVuSans-73" x="315.478516"/>
      <use xlink:href="#DejaVuSans-29" x="367.578125"/>
     </g>
    </g>
   </g>
   <g id="matplotlib.axis_2">
    <g id="ytick_1">
     <g id="line2d_60">
      <path d="M 50.1725 310.105171 
L 1054.5725 310.105171 
" clip-path="url(#pf19035e0ff)" style="fill: none; stroke-dasharray: 1.85,0.8; stroke-dashoffset: 0; stroke: #000000; stroke-opacity: 0.5; stroke-width: 0.5"/>
     </g>
     <g id="line2d_61">
      <defs>
       <path id="mbbf50f93fe" d="M 0 0 
L 6 0 
" style="stroke: #000000"/>
      </defs>
      <g>
       <use xlink:href="#mbbf50f93fe" x="50.1725" y="310.105171" style="stroke: #000000"/>
      </g>
     </g>
     <g id="line2d_62">
      <defs>
       <path id="m9d56a1e3e0" d="M 0 0 
L -6 0 
" style="stroke: #000000"/>
      </defs>
      <g>
       <use xlink:href="#m9d56a1e3e0" x="1054.5725" y="310.105171" style="stroke: #000000"/>
      </g>
     </g>
     <g id="text_9">
      <!-- −4 -->
      <g transform="translate(23.085 316.183921) scale(0.16 -0.16)">
       <defs>
        <path id="DejaVuSans-2212" d="M 678 2272 
L 4684 2272 
L 4684 1741 
L 678 1741 
L 678 2272 
z
" transform="scale(0.015625)"/>
       </defs>
       <use xlink:href="#DejaVuSans-2212"/>
       <use xlink:href="#DejaVuSans-34" x="83.789062"/>
      </g>
     </g>
    </g>
    <g id="ytick_2">
     <g id="line2d_63">
      <path d="M 50.1725 261.823323 
L 1054.5725 261.823323 
" clip-path="url(#pf19035e0ff)" style="fill: none; stroke-dasharray: 1.85,0.8; stroke-dashoffset: 0; stroke: #000000; stroke-opacity: 0.5; stroke-width: 0.5"/>
     </g>
     <g id="line2d_64">
      <g>
       <use xlink:href="#mbbf50f93fe" x="50.1725" y="261.823323" style="stroke: #000000"/>
      </g>
     </g>
     <g id="line2d_65">
      <g>
       <use xlink:href="#m9d56a1e3e0" x="1054.5725" y="261.823323" style="stroke: #000000"/>
      </g>
     </g>
     <g id="text_10">
      <!-- −2 -->
      <g transform="translate(23.085 267.902073) scale(0.16 -0.16)">
       <use xlink:href="#DejaVuSans-2212"/>
       <use xlink:href="#DejaVuSans-32" x="83.789062"/>
      </g>
     </g>
    </g>
    <g id="ytick_3">
     <g id="line2d_66">
      <path d="M 50.1725 213.541475 
L 1054.5725 213.541475 
" clip-path="url(#pf19035e0ff)" style="fill: none; stroke-dasharray: 1.85,0.8; stroke-dashoffset: 0; stroke: #000000; stroke-opacity: 0.5; stroke-width: 0.5"/>
     </g>
     <g id="line2d_67">
      <g>
       <use xlink:href="#mbbf50f93fe" x="50.1725" y="213.541475" style="stroke: #000000"/>
      </g>
     </g>
     <g id="line2d_68">
      <g>
       <use xlink:href="#m9d56a1e3e0" x="1054.5725" y="213.541475" style="stroke: #000000"/>
      </g>
     </g>
     <g id="text_11">
      <!-- 0 -->
      <g transform="translate(36.4925 219.620225) scale(0.16 -0.16)">
       <use xlink:href="#DejaVuSans-30"/>
      </g>
     </g>
    </g>
    <g id="ytick_4">
     <g id="line2d_69">
      <path d="M 50.1725 165.259627 
L 1054.5725 165.259627 
" clip-path="url(#pf19035e0ff)" style="fill: none; stroke-dasharray: 1.85,0.8; stroke-dashoffset: 0; stroke: #000000; stroke-opacity: 0.5; stroke-width: 0.5"/>
     </g>
     <g id="line2d_70">
      <g>
       <use xlink:href="#mbbf50f93fe" x="50.1725" y="165.259627" style="stroke: #000000"/>
      </g>
     </g>
     <g id="line2d_71">
      <g>
       <use xlink:href="#m9d56a1e3e0" x="1054.5725" y="165.259627" style="stroke: #000000"/>
      </g>
     </g>
     <g id="text_12">
      <!-- 2 -->
      <g transform="translate(36.4925 171.338377) scale(0.16 -0.16)">
       <use xlink:href="#DejaVuSans-32"/>
      </g>
     </g>
    </g>
    <g id="ytick_5">
     <g id="line2d_72">
      <path d="M 50.1725 116.977779 
L 1054.5725 116.977779 
" clip-path="url(#pf19035e0ff)" style="fill: none; stroke-dasharray: 1.85,0.8; stroke-dashoffset: 0; stroke: #000000; stroke-opacity: 0.5; stroke-width: 0.5"/>
     </g>
     <g id="line2d_73">
      <g>
       <use xlink:href="#mbbf50f93fe" x="50.1725" y="116.977779" style="stroke: #000000"/>
      </g>
     </g>
     <g id="line2d_74">
      <g>
       <use xlink:href="#m9d56a1e3e0" x="1054.5725" y="116.977779" style="stroke: #000000"/>
      </g>
     </g>
     <g id="text_13">
      <!-- 4 -->
      <g transform="translate(36.4925 123.056529) scale(0.16 -0.16)">
       <use xlink:href="#DejaVuSans-34"/>
      </g>
     </g>
    </g>
    <g id="ytick_6">
     <g id="line2d_75">
      <path d="M 50.1725 68.695931 
L 1054.5725 68.695931 
" clip-path="url(#pf19035e0ff)" style="fill: none; stroke-dasharray: 1.85,0.8; stroke-dashoffset: 0; stroke: #000000; stroke-opacity: 0.5; stroke-width: 0.5"/>
     </g>
     <g id="line2d_76">
      <g>
       <use xlink:href="#mbbf50f93fe" x="50.1725" y="68.695931" style="stroke: #000000"/>
      </g>
     </g>
     <g id="line2d_77">
      <g>
       <use xlink:href="#m9d56a1e3e0" x="1054.5725" y="68.695931" style="stroke: #000000"/>
      </g>
     </g>
     <g id="text_14">
      <!-- 6 -->
      <g transform="translate(36.4925 74.774681) scale(0.16 -0.16)">
       <use xlink:href="#DejaVuSans-36"/>
      </g>
     </g>
    </g>
    <g id="ytick_7">
     <g id="line2d_78">
      <defs>
       <path id="maf6a4a2cee" d="M 0 0 
L 3 0 
" style="stroke: #000000"/>
      </defs>
      <g>
       <use xlink:href="#maf6a4a2cee" x="50.1725" y="346.316557" style="stroke: #000000"/>
      </g>
     </g>
     <g id="line2d_79">
      <defs>
       <path id="m2d528ad9d5" d="M 0 0 
L -3 0 
" style="stroke: #000000"/>
      </defs>
      <g>
       <use xlink:href="#m2d528ad9d5" x="1054.5725" y="346.316557" style="stroke: #000000"/>
      </g>
     </g>
    </g>
    <g id="ytick_8">
     <g id="line2d_80">
      <g>
       <use xlink:href="#maf6a4a2cee" x="50.1725" y="334.246095" style="stroke: #000000"/>
      </g>
     </g>
     <g id="line2d_81">
      <g>
       <use xlink:href="#m2d528ad9d5" x="1054.5725" y="334.246095" style="stroke: #000000"/>
      </g>
     </g>
    </g>
    <g id="ytick_9">
     <g id="line2d_82">
      <g>
       <use xlink:href="#maf6a4a2cee" x="50.1725" y="322.175633" style="stroke: #000000"/>
      </g>
     </g>
     <g id="line2d_83">
      <g>
       <use xlink:href="#m2d528ad9d5" x="1054.5725" y="322.175633" style="stroke: #000000"/>
      </g>
     </g>
    </g>
    <g id="ytick_10">
     <g id="line2d_84">
      <g>
       <use xlink:href="#maf6a4a2cee" x="50.1725" y="298.034709" style="stroke: #000000"/>
      </g>
     </g>
     <g id="line2d_85">
      <g>
       <use xlink:href="#m2d528ad9d5" x="1054.5725" y="298.034709" style="stroke: #000000"/>
      </g>
     </g>
    </g>
    <g id="ytick_11">
     <g id="line2d_86">
      <g>
       <use xlink:href="#maf6a4a2cee" x="50.1725" y="285.964247" style="stroke: #000000"/>
      </g>
     </g>
     <g id="line2d_87">
      <g>
       <use xlink:href="#m2d528ad9d5" x="1054.5725" y="285.964247" style="stroke: #000000"/>
      </g>
     </g>
    </g>
    <g id="ytick_12">
     <g id="line2d_88">
      <g>
       <use xlink:href="#maf6a4a2cee" x="50.1725" y="273.893785" style="stroke: #000000"/>
      </g>
     </g>
     <g id="line2d_89">
      <g>
       <use xlink:href="#m2d528ad9d5" x="1054.5725" y="273.893785" style="stroke: #000000"/>
      </g>
     </g>
    </g>
    <g id="ytick_13">
     <g id="line2d_90">
      <g>
       <use xlink:href="#maf6a4a2cee" x="50.1725" y="249.752861" style="stroke: #000000"/>
      </g>
     </g>
     <g id="line2d_91">
      <g>
       <use xlink:href="#m2d528ad9d5" x="1054.5725" y="249.752861" style="stroke: #000000"/>
      </g>
     </g>
    </g>
    <g id="ytick_14">
     <g id="line2d_92">
      <g>
       <use xlink:href="#maf6a4a2cee" x="50.1725" y="237.682399" style="stroke: #000000"/>
      </g>
     </g>
     <g id="line2d_93">
      <g>
       <use xlink:href="#m2d528ad9d5" x="1054.5725" y="237.682399" style="stroke: #000000"/>
      </g>
     </g>
    </g>
    <g id="ytick_15">
     <g id="line2d_94">
      <g>
       <use xlink:href="#maf6a4a2cee" x="50.1725" y="225.611937" style="stroke: #000000"/>
      </g>
     </g>
     <g id="line2d_95">
      <g>
       <use xlink:href="#m2d528ad9d5" x="1054.5725" y="225.611937" style="stroke: #000000"/>
      </g>
     </g>
    </g>
    <g id="ytick_16">
     <g id="line2d_96">
      <g>
       <use xlink:href="#maf6a4a2cee" x="50.1725" y="201.471013" style="stroke: #000000"/>
      </g>
     </g>
     <g id="line2d_97">
      <g>
       <use xlink:href="#m2d528ad9d5" x="1054.5725" y="201.471013" style="stroke: #000000"/>
      </g>
     </g>
    </g>
    <g id="ytick_17">
     <g id="line2d_98">
      <g>
       <use xlink:href="#maf6a4a2cee" x="50.1725" y="189.400551" style="stroke: #000000"/>
      </g>
     </g>
     <g id="line2d_99">
      <g>
       <use xlink:href="#m2d528ad9d5" x="1054.5725" y="189.400551" style="stroke: #000000"/>
      </g>
     </g>
    </g>
    <g id="ytick_18">
     <g id="line2d_100">
      <g>
       <use xlink:href="#maf6a4a2cee" x="50.1725" y="177.330089" style="stroke: #000000"/>
      </g>
     </g>
     <g id="line2d_101">
      <g>
       <use xlink:href="#m2d528ad9d5" x="1054.5725" y="177.330089" style="stroke: #000000"/>
      </g>
     </g>
    </g>
    <g id="ytick_19">
     <g id="line2d_102">
      <g>
       <use xlink:href="#maf6a4a2cee" x="50.1725" y="153.189165" style="stroke: #000000"/>
      </g>
     </g>
     <g id="line2d_103">
      <g>
       <use xlink:href="#m2d528ad9d5" x="1054.5725" y="153.189165" style="stroke: #000000"/>
      </g>
     </g>
    </g>
    <g id="ytick_20">
     <g id="line2d_104">
      <g>
       <use xlink:href="#maf6a4a2cee" x="50.1725" y="141.118703" style="stroke: #000000"/>
      </g>
     </g>
     <g id="line2d_105">
      <g>
       <use xlink:href="#m2d528ad9d5" x="1054.5725" y="141.118703" style="stroke: #000000"/>
      </g>
     </g>
    </g>
    <g id="ytick_21">
     <g id="line2d_106">
      <g>
       <use xlink:href="#maf6a4a2cee" x="50.1725" y="129.048241" style="stroke: #000000"/>
      </g>
     </g>
     <g id="line2d_107">
      <g>
       <use xlink:href="#m2d528ad9d5" x="1054.5725" y="129.048241" style="stroke: #000000"/>
      </g>
     </g>
    </g>
    <g id="ytick_22">
     <g id="line2d_108">
      <g>
       <use xlink:href="#maf6a4a2cee" x="50.1725" y="104.907317" style="stroke: #000000"/>
      </g>
     </g>
     <g id="line2d_109">
      <g>
       <use xlink:href="#m2d528ad9d5" x="1054.5725" y="104.907317" style="stroke: #000000"/>
      </g>
     </g>
    </g>
    <g id="ytick_23">
     <g id="line2d_110">
      <g>
       <use xlink:href="#maf6a4a2cee" x="50.1725" y="92.836855" style="stroke: #000000"/>
      </g>
     </g>
     <g id="line2d_111">
      <g>
       <use xlink:href="#m2d528ad9d5" x="1054.5725" y="92.836855" style="stroke: #000000"/>
      </g>
     </g>
    </g>
    <g id="ytick_24">
     <g id="line2d_112">
      <g>
       <use xlink:href="#maf6a4a2cee" x="50.1725" y="80.766393" style="stroke: #000000"/>
      </g>
     </g>
     <g id="line2d_113">
      <g>
       <use xlink:href="#m2d528ad9d5" x="1054.5725" y="80.766393" style="stroke: #000000"/>
      </g>
     </g>
    </g>
    <g id="ytick_25">
     <g id="line2d_114">
      <g>
       <use xlink:href="#maf6a4a2cee" x="50.1725" y="56.625468" style="stroke: #000000"/>
      </g>
     </g>
     <g id="line2d_115">
      <g>
       <use xlink:href="#m2d528ad9d5" x="1054.5725" y="56.625468" style="stroke: #000000"/>
      </g>
     </g>
    </g>
    <g id="ytick_26">
     <g id="line2d_116">
      <g>
       <use xlink:href="#maf6a4a2cee" x="50.1725" y="44.555006" style="stroke: #000000"/>
      </g>
     </g>
     <g id="line2d_117">
      <g>
       <use xlink:href="#m2d528ad9d5" x="1054.5725" y="44.555006" style="stroke: #000000"/>
      </g>
     </g>
    </g>
    <g id="ytick_27">
     <g id="line2d_118">
      <g>
       <use xlink:href="#maf6a4a2cee" x="50.1725" y="32.484544" style="stroke: #000000"/>
      </g>
     </g>
     <g id="line2d_119">
      <g>
       <use xlink:href="#m2d528ad9d5" x="1054.5725" y="32.484544" style="stroke: #000000"/>
      </g>
     </g>
    </g>
    <g id="text_15">
     <!-- Base Displacement -->
     <g transform="translate(15.7575 265.0975) rotate(-90) scale(0.16 -0.16)">
      <defs>
       <path id="DejaVuSans-42" d="M 1259 2228 
L 1259 519 
L 2272 519 
Q 2781 519 3026 730 
Q 3272 941 3272 1375 
Q 3272 1813 3026 2020 
Q 2781 2228 2272 2228 
L 1259 2228 
z
M 1259 4147 
L 1259 2741 
L 2194 2741 
Q 2656 2741 2882 2914 
Q 3109 3088 3109 3444 
Q 3109 3797 2882 3972 
Q 2656 4147 2194 4147 
L 1259 4147 
z
M 628 4666 
L 2241 4666 
Q 2963 4666 3353 4366 
Q 3744 4066 3744 3513 
Q 3744 3084 3544 2831 
Q 3344 2578 2956 2516 
Q 3422 2416 3680 2098 
Q 3938 1781 3938 1306 
Q 3938 681 3513 340 
Q 3088 0 2303 0 
L 628 0 
L 628 4666 
z
" transform="scale(0.015625)"/>
       <path id="DejaVuSans-61" d="M 2194 1759 
Q 1497 1759 1228 1600 
Q 959 1441 959 1056 
Q 959 750 1161 570 
Q 1363 391 1709 391 
Q 2188 391 2477 730 
Q 2766 1069 2766 1631 
L 2766 1759 
L 2194 1759 
z
M 3341 1997 
L 3341 0 
L 2766 0 
L 2766 531 
Q 2569 213 2275 61 
Q 1981 -91 1556 -91 
Q 1019 -91 701 211 
Q 384 513 384 1019 
Q 384 1609 779 1909 
Q 1175 2209 1959 2209 
L 2766 2209 
L 2766 2266 
Q 2766 2663 2505 2880 
Q 2244 3097 1772 3097 
Q 1472 3097 1187 3025 
Q 903 2953 641 2809 
L 641 3341 
Q 956 3463 1253 3523 
Q 1550 3584 1831 3584 
Q 2591 3584 2966 3190 
Q 3341 2797 3341 1997 
z
" transform="scale(0.015625)"/>
       <path id="DejaVuSans-44" d="M 1259 4147 
L 1259 519 
L 2022 519 
Q 2988 519 3436 956 
Q 3884 1394 3884 2338 
Q 3884 3275 3436 3711 
Q 2988 4147 2022 4147 
L 1259 4147 
z
M 628 4666 
L 1925 4666 
Q 3281 4666 3915 4102 
Q 4550 3538 4550 2338 
Q 4550 1131 3912 565 
Q 3275 0 1925 0 
L 628 0 
L 628 4666 
z
" transform="scale(0.015625)"/>
       <path id="DejaVuSans-70" d="M 1159 525 
L 1159 -1331 
L 581 -1331 
L 581 3500 
L 1159 3500 
L 1159 2969 
Q 1341 3281 1617 3432 
Q 1894 3584 2278 3584 
Q 2916 3584 3314 3078 
Q 3713 2572 3713 1747 
Q 3713 922 3314 415 
Q 2916 -91 2278 -91 
Q 1894 -91 1617 61 
Q 1341 213 1159 525 
z
M 3116 1747 
Q 3116 2381 2855 2742 
Q 2594 3103 2138 3103 
Q 1681 3103 1420 2742 
Q 1159 2381 1159 1747 
Q 1159 1113 1420 752 
Q 1681 391 2138 391 
Q 2594 391 2855 752 
Q 3116 1113 3116 1747 
z
" transform="scale(0.015625)"/>
       <path id="DejaVuSans-6c" d="M 603 4863 
L 1178 4863 
L 1178 0 
L 603 0 
L 603 4863 
z
" transform="scale(0.015625)"/>
       <path id="DejaVuSans-63" d="M 3122 3366 
L 3122 2828 
Q 2878 2963 2633 3030 
Q 2388 3097 2138 3097 
Q 1578 3097 1268 2742 
Q 959 2388 959 1747 
Q 959 1106 1268 751 
Q 1578 397 2138 397 
Q 2388 397 2633 464 
Q 2878 531 3122 666 
L 3122 134 
Q 2881 22 2623 -34 
Q 2366 -91 2075 -91 
Q 1284 -91 818 406 
Q 353 903 353 1747 
Q 353 2603 823 3093 
Q 1294 3584 2113 3584 
Q 2378 3584 2631 3529 
Q 2884 3475 3122 3366 
z
" transform="scale(0.015625)"/>
       <path id="DejaVuSans-6e" d="M 3513 2113 
L 3513 0 
L 2938 0 
L 2938 2094 
Q 2938 2591 2744 2837 
Q 2550 3084 2163 3084 
Q 1697 3084 1428 2787 
Q 1159 2491 1159 1978 
L 1159 0 
L 581 0 
L 581 3500 
L 1159 3500 
L 1159 2956 
Q 1366 3272 1645 3428 
Q 1925 3584 2291 3584 
Q 2894 3584 3203 3211 
Q 3513 2838 3513 2113 
z
" transform="scale(0.015625)"/>
       <path id="DejaVuSans-74" d="M 1172 4494 
L 1172 3500 
L 2356 3500 
L 2356 3053 
L 1172 3053 
L 1172 1153 
Q 1172 725 1289 603 
Q 1406 481 1766 481 
L 2356 481 
L 2356 0 
L 1766 0 
Q 1100 0 847 248 
Q 594 497 594 1153 
L 594 3053 
L 172 3053 
L 172 3500 
L 594 3500 
L 594 4494 
L 1172 4494 
z
" transform="scale(0.015625)"/>
      </defs>
      <use xlink:href="#DejaVuSans-42"/>
      <use xlink:href="#DejaVuSans-61" x="68.603516"/>
      <use xlink:href="#DejaVuSans-73" x="129.882812"/>
      <use xlink:href="#DejaVuSans-65" x="181.982422"/>
      <use xlink:href="#DejaVuSans-20" x="243.505859"/>
      <use xlink:href="#DejaVuSans-44" x="275.292969"/>
      <use xlink:href="#DejaVuSans-69" x="352.294922"/>
      <use xlink:href="#DejaVuSans-73" x="380.078125"/>
      <use xlink:href="#DejaVuSans-70" x="432.177734"/>
      <use xlink:href="#DejaVuSans-6c" x="495.654297"/>
      <use xlink:href="#DejaVuSans-61" x="523.4375"/>
      <use xlink:href="#DejaVuSans-63" x="584.716797"/>
      <use xlink:href="#DejaVuSans-65" x="639.697266"/>
      <use xlink:href="#DejaVuSans-6d" x="701.220703"/>
      <use xlink:href="#DejaVuSans-65" x="798.632812"/>
      <use xlink:href="#DejaVuSans-6e" x="860.15625"/>
      <use xlink:href="#DejaVuSans-74" x="923.535156"/>
     </g>
    </g>
    <g id="text_16">
     <!-- 1e−6 -->
     <g transform="translate(50.1725 18.7575) scale(0.16 -0.16)">
      <use xlink:href="#DejaVuSans-31"/>
      <use xlink:href="#DejaVuSans-65" x="63.623047"/>
      <use xlink:href="#DejaVuSans-2212" x="125.146484"/>
      <use xlink:href="#DejaVuSans-36" x="208.935547"/>
     </g>
    </g>
   </g>
   <g id="line2d_120">
    <path d="M 95.827045 213.541475 
L 97.390557 213.780206 
L 99.735825 214.399794 
L 102.862849 215.239646 
L 109.116896 216.43227 
L 111.462164 216.830177 
L 115.370943 217.179026 
L 116.934455 217.574778 
L 121.624991 219.010949 
L 123.188502 219.276487 
L 123.970258 219.290232 
L 124.752014 219.187414 
L 125.53377 218.952005 
L 126.315526 218.577878 
L 127.097282 218.062245 
L 128.660794 216.676075 
L 130.224306 215.266414 
L 131.006062 214.736365 
L 131.787818 214.360624 
L 133.351329 213.999605 
L 134.914841 213.817183 
L 135.696597 213.593192 
L 138.823621 212.16254 
L 139.605377 212.156877 
L 140.387133 212.433186 
L 141.168889 212.993444 
L 142.7324 214.744325 
L 144.295912 216.528596 
L 145.077668 217.19628 
L 145.859424 217.692136 
L 147.422936 218.257283 
L 151.331715 219.109102 
L 152.113471 219.057087 
L 152.895227 218.776717 
L 153.676983 218.246124 
L 154.458739 217.483266 
L 156.022251 215.448488 
L 157.585763 213.311278 
L 158.367519 212.515675 
L 159.149275 211.991453 
L 159.931031 211.787403 
L 160.712786 211.975788 
L 161.494542 212.539016 
L 164.621566 215.534615 
L 165.403322 215.967844 
L 166.185078 216.173796 
L 166.966834 216.126643 
L 167.74859 215.78289 
L 168.530346 215.163678 
L 169.312101 214.304777 
L 170.093857 213.215596 
L 170.875613 211.893028 
L 174.002637 205.612675 
L 174.784393 204.59431 
L 175.566149 204.034739 
L 176.347905 203.974164 
L 177.129661 204.36772 
L 178.693172 205.999316 
L 180.256684 207.520302 
L 181.03844 207.979994 
L 181.820196 208.125345 
L 182.601952 207.95981 
L 183.383708 207.545306 
L 184.165464 206.920319 
L 184.94722 206.093679 
L 186.510732 203.882897 
L 188.074243 201.665489 
L 188.855999 200.861026 
L 189.637755 200.398834 
L 190.419511 200.393708 
L 191.201267 200.865299 
L 191.983023 201.764003 
L 194.328291 205.19984 
L 195.110047 206.078141 
L 195.891803 206.647367 
L 196.673559 206.902723 
L 197.455314 206.923611 
L 199.018826 206.536674 
L 202.14585 205.282309 
L 203.709362 204.962564 
L 208.399897 204.288757 
L 209.963409 204.313808 
L 211.526921 204.693803 
L 215.4357 206.321181 
L 216.217456 206.230537 
L 216.999212 205.868507 
L 217.780968 205.245799 
L 218.562724 204.379324 
L 220.126236 202.136599 
L 220.907992 200.954121 
L 221.689748 200.09809 
L 222.471504 199.690105 
L 223.25326 199.784706 
L 224.035016 200.340231 
L 225.598527 202.169608 
L 226.380283 203.135918 
L 227.162039 203.854818 
L 227.943795 204.186135 
L 228.725551 204.105118 
L 229.507307 203.614602 
L 230.289063 202.741479 
L 231.852575 200.249992 
L 233.416087 197.820742 
L 234.197842 196.956178 
L 237.324866 194.168222 
L 238.888378 192.183227 
L 240.45189 189.979387 
L 241.233646 189.060055 
L 242.015402 188.458459 
L 242.797158 188.262786 
L 243.578913 188.523621 
L 244.360669 189.25714 
L 245.142425 190.414951 
L 245.924181 191.912733 
L 247.487693 195.609801 
L 251.396473 206.123162 
L 252.178229 207.546856 
L 252.959984 208.641134 
L 253.74174 209.459735 
L 254.523496 210.056305 
L 255.305252 210.47959 
L 256.087008 210.721374 
L 256.868764 210.795373 
L 258.432276 210.764334 
L 259.214032 210.943673 
L 259.995788 211.319644 
L 260.777544 212.052166 
L 261.5593 213.353189 
L 262.341055 215.332859 
L 263.122811 218.075456 
L 263.904567 221.694829 
L 264.686323 226.262622 
L 265.468079 231.729644 
L 267.031591 244.981594 
L 269.376859 266.061365 
L 270.158615 272.032415 
L 270.94037 277.041392 
L 271.722126 280.895921 
L 272.503882 283.61773 
L 273.285638 285.366589 
L 274.067394 286.443802 
L 274.84915 287.165919 
L 276.412662 288.336695 
L 277.194418 289.308847 
L 277.976174 290.89112 
L 278.75793 293.241704 
L 279.539686 296.420564 
L 280.321441 300.41717 
L 283.448465 318.360232 
L 284.230221 320.743428 
L 285.011977 321.59345 
L 285.793733 321.166393 
L 287.357245 318.540297 
L 288.139001 317.745175 
L 288.920757 318.000165 
L 289.702512 319.45954 
L 290.484268 321.823201 
L 292.04778 327.363068 
L 292.829536 329.280313 
L 293.611292 330.026331 
L 294.393048 329.571329 
L 295.174804 328.144148 
L 296.738316 323.896721 
L 298.301828 319.489372 
L 299.083583 316.798409 
L 299.865339 313.252861 
L 300.647095 308.386825 
L 301.428851 301.740069 
L 302.210607 293.100793 
L 302.992363 282.49164 
L 304.555875 255.815636 
L 306.901143 212.753345 
L 308.464654 187.663796 
L 310.028166 165.920107 
L 311.591678 146.937486 
L 313.15519 131.547337 
L 314.718702 119.84268 
L 316.282214 110.752466 
L 317.845725 103.098957 
L 318.627481 99.95698 
L 319.409237 97.405499 
L 320.190993 95.612075 
L 321.754505 93.084675 
L 322.536261 91.336413 
L 323.318017 88.642809 
L 324.099773 84.474899 
L 324.881529 78.718083 
L 326.44504 63.782183 
L 328.008552 48.648756 
L 328.790308 43.17171 
L 329.572064 39.476063 
L 330.35382 37.441375 
L 331.135576 36.8775 
L 331.917332 37.793102 
L 332.699088 40.512853 
L 333.480844 45.739992 
L 334.2626 54.225695 
L 335.044356 66.812333 
L 335.826111 84.31665 
L 336.607867 107.296072 
L 338.953135 191.616414 
L 339.734891 212.808005 
L 340.516647 226.710944 
L 341.298403 233.591283 
L 342.080159 234.389859 
L 342.861915 229.812842 
L 343.643671 220.474495 
L 344.425427 207.135332 
L 347.55245 143.235566 
L 348.334206 132.614494 
L 349.115962 125.245492 
L 349.897718 120.827986 
L 350.679474 118.96534 
L 351.46123 119.354151 
L 352.242986 121.603634 
L 353.024742 125.365636 
L 353.806498 130.449551 
L 354.588253 136.830059 
L 355.370009 144.614207 
L 356.933521 163.826656 
L 359.278789 194.088923 
L 360.060545 202.059591 
L 360.842301 208.144228 
L 361.624057 212.386544 
L 362.405813 215.051622 
L 363.187568 216.48576 
L 363.969324 217.035108 
L 364.75108 216.963676 
L 365.532836 216.408007 
L 367.096348 214.833903 
L 367.878104 214.714278 
L 368.65986 215.574205 
L 369.441616 217.748349 
L 370.223372 221.466699 
L 371.005128 226.500612 
L 372.568639 239.501804 
L 373.350395 246.003449 
L 374.132151 251.174653 
L 374.913907 254.617865 
L 375.695663 256.282291 
L 376.477419 256.480661 
L 377.259175 255.749945 
L 378.822687 253.680641 
L 379.604443 253.257659 
L 380.386199 253.339764 
L 381.167955 253.652038 
L 381.94971 253.747979 
L 382.731466 253.182594 
L 383.513222 251.695919 
L 384.294978 249.200484 
L 385.85849 242.715171 
L 386.640246 240.28223 
L 387.422002 239.016757 
L 388.203758 239.192767 
L 388.985514 240.745308 
L 389.76727 243.414806 
L 392.112537 253.055222 
L 392.894293 254.833805 
L 393.676049 255.470173 
L 394.457805 255.114724 
L 395.239561 254.296979 
L 396.021317 253.85312 
L 396.803073 254.163963 
L 397.584829 255.568511 
L 398.366585 258.319415 
L 399.148341 262.414858 
L 399.930097 267.646163 
L 401.493608 280.435056 
L 403.05712 295.188705 
L 405.402388 319.125733 
L 406.184144 325.924024 
L 406.9659 331.502358 
L 407.747656 335.564362 
L 408.529412 338.128153 
L 409.311167 339.2775 
L 410.092923 339.233422 
L 410.874679 338.309425 
L 411.656435 336.763101 
L 412.438191 334.785871 
L 413.219947 332.396695 
L 414.783459 326.665536 
L 417.910483 313.401155 
L 418.692238 311.272777 
L 419.473994 310.204749 
L 420.25575 310.40797 
L 421.037506 311.590208 
L 422.601018 314.512604 
L 423.382774 315.230491 
L 424.16453 315.023199 
L 424.946286 313.759015 
L 425.728042 311.521309 
L 428.073309 302.55607 
L 428.855065 300.550517 
L 429.636821 299.406842 
L 430.418577 299.040396 
L 432.763845 299.304212 
L 433.545601 298.823554 
L 434.327357 297.726442 
L 435.109113 296.097034 
L 438.236136 288.498215 
L 439.799648 285.182312 
L 440.581404 283.099584 
L 441.36316 280.50612 
L 442.926672 273.972356 
L 446.053696 259.07477 
L 449.180719 243.430625 
L 449.962475 240.207078 
L 450.744231 237.763192 
L 451.525987 236.405236 
L 452.307743 236.343784 
L 453.089499 237.609594 
L 453.871255 240.061355 
L 456.216522 250.111021 
L 456.998278 252.371854 
L 457.780034 253.309753 
L 458.56179 252.740696 
L 459.343546 250.662597 
L 460.125302 247.206426 
L 461.688814 237.778702 
L 463.252326 227.820415 
L 464.034082 223.407258 
L 464.815837 219.724628 
L 466.379349 214.063748 
L 467.942861 208.683366 
L 468.724617 205.436535 
L 469.506373 201.62186 
L 471.851641 188.390882 
L 472.633397 184.995576 
L 473.415153 182.831828 
L 474.196908 182.102597 
L 474.978664 182.753814 
L 475.76042 184.500378 
L 476.542176 187.045332 
L 478.105688 192.848486 
L 478.887444 195.366909 
L 479.6692 197.228922 
L 480.450956 198.326229 
L 481.232712 198.803365 
L 482.014468 198.746164 
L 482.796224 198.210187 
L 483.577979 197.221711 
L 484.359735 195.802055 
L 485.923247 192.201555 
L 487.486759 188.396065 
L 488.268515 187.035936 
L 489.050271 186.39408 
L 489.832027 186.533351 
L 490.613783 187.437004 
L 491.395539 188.944254 
L 492.95905 193.047244 
L 494.522562 196.989856 
L 495.304318 198.50244 
L 496.086074 199.691009 
L 496.86783 200.527631 
L 497.649586 201.06366 
L 498.431342 201.370829 
L 499.213098 201.460707 
L 499.994854 201.315121 
L 500.77661 200.886761 
L 501.558366 200.150463 
L 503.121877 198.036418 
L 505.467145 194.557376 
L 506.248901 193.712561 
L 507.030657 193.107316 
L 507.812413 192.858757 
L 508.594169 193.092359 
L 509.375925 193.816593 
L 510.157681 195.020415 
L 510.939436 196.65239 
L 511.721192 198.653845 
L 514.06646 205.430313 
L 514.848216 207.003727 
L 515.629972 207.959836 
L 516.411728 208.15963 
L 517.193484 207.583237 
L 517.97524 206.3161 
L 518.756996 204.499566 
L 520.320507 199.901416 
L 521.884019 194.889927 
L 522.665775 192.720762 
L 523.447531 190.898834 
L 524.229287 189.542578 
L 525.011043 189.00013 
L 525.792799 189.504096 
L 526.574555 191.133235 
L 527.356311 193.896066 
L 530.483334 208.3022 
L 531.26509 210.214464 
L 532.046846 210.781628 
L 532.828602 209.940187 
L 533.610358 207.863055 
L 534.392114 204.881692 
L 538.300894 188.21873 
L 540.646161 179.509454 
L 541.427917 177.15963 
L 542.209673 175.434958 
L 542.991429 174.524024 
L 543.773185 174.580966 
L 544.554941 175.63329 
L 545.336697 177.596556 
L 546.900209 183.159657 
L 549.245476 191.825171 
L 552.3725 202.578273 
L 557.063035 220.562173 
L 558.626547 224.963848 
L 562.535327 234.984343 
L 564.098839 238.321065 
L 565.662351 240.884877 
L 567.225862 243.340525 
L 568.007618 244.844971 
L 568.789374 246.660002 
L 569.57113 248.879222 
L 571.134642 254.497313 
L 572.698154 261.181844 
L 575.043422 271.732981 
L 575.825177 274.666453 
L 576.606933 277.100807 
L 577.388689 278.884069 
L 578.170445 279.852793 
L 578.952201 279.966853 
L 579.733957 279.278102 
L 580.515713 277.933202 
L 581.297469 276.117215 
L 582.860981 271.590976 
L 585.206248 263.849836 
L 586.76976 257.932195 
L 589.115028 248.183915 
L 589.896784 245.460514 
L 590.67854 243.287321 
L 591.460296 241.779027 
L 592.242052 240.971329 
L 593.023808 240.789262 
L 593.805564 241.088131 
L 595.369075 242.12589 
L 596.932587 242.722702 
L 597.714343 242.967744 
L 598.496099 243.416298 
L 599.277855 244.234072 
L 600.059611 245.60783 
L 600.841367 247.699198 
L 601.623123 250.529507 
L 604.750146 264.304972 
L 605.531902 266.282799 
L 606.313658 267.110693 
L 607.095414 266.763589 
L 607.87717 265.375983 
L 608.658926 263.172423 
L 610.222438 258.201946 
L 611.004194 256.475883 
L 611.78595 255.485611 
L 612.567705 255.309757 
L 613.349461 255.897872 
L 614.131217 257.075587 
L 618.039997 264.601727 
L 619.603509 266.722034 
L 620.385265 267.571185 
L 621.167021 268.236933 
L 621.948776 268.630702 
L 622.730532 268.680159 
L 623.512288 268.349663 
L 624.294044 267.652942 
L 625.0758 266.643606 
L 626.639312 264.00127 
L 634.456871 249.346133 
L 636.020383 245.742197 
L 637.583895 241.04366 
L 639.929163 232.488068 
L 641.492674 226.947937 
L 643.056186 222.423751 
L 643.837942 220.620238 
L 644.619698 219.163626 
L 645.401454 218.020128 
L 646.18321 217.190849 
L 646.964966 216.739114 
L 647.746722 216.741569 
L 648.528478 217.239326 
L 649.310233 218.163966 
L 651.655501 221.641812 
L 652.437257 222.497071 
L 653.219013 222.937631 
L 654.000769 222.961641 
L 655.564281 222.388806 
L 656.346037 222.355104 
L 657.127793 222.747916 
L 657.909549 223.627952 
L 658.691304 224.953365 
L 660.254816 228.403311 
L 664.945352 239.539595 
L 668.072375 249.627921 
L 668.854131 251.411127 
L 669.635887 252.360148 
L 670.417643 252.247519 
L 671.199399 251.083799 
L 671.981155 248.997704 
L 672.762911 246.210058 
L 674.326423 239.322264 
L 676.671691 228.531947 
L 678.235202 222.285834 
L 679.016958 219.849863 
L 679.798714 217.956615 
L 680.58047 216.680903 
L 681.362226 216.072979 
L 682.143982 216.133766 
L 682.925738 216.752109 
L 684.48925 218.55395 
L 685.271006 219.235561 
L 686.052762 219.616466 
L 686.834517 219.735302 
L 688.398029 219.720965 
L 689.179785 219.939079 
L 689.961541 220.535012 
L 690.743297 221.577612 
L 692.306809 224.614425 
L 693.088565 226.11917 
L 693.870321 227.341706 
L 694.652077 228.119019 
L 695.433833 228.276611 
L 696.215588 227.817219 
L 696.997344 226.855111 
L 698.560856 223.980932 
L 701.68788 217.416423 
L 703.251392 214.926466 
L 704.033148 214.052778 
L 704.814903 213.494107 
L 705.596659 213.286253 
L 706.378415 213.493038 
L 707.160171 214.17989 
L 707.941927 215.37125 
L 708.723683 217.050712 
L 709.505439 219.185952 
L 711.068951 224.64519 
L 713.414219 233.817587 
L 714.195974 236.468234 
L 714.97773 238.652394 
L 715.759486 240.220136 
L 716.541242 241.152877 
L 717.322998 241.471834 
L 718.104754 241.199684 
L 718.88651 240.38522 
L 719.668266 239.112594 
L 722.79529 233.084615 
L 723.577045 231.91336 
L 724.358801 230.963426 
L 725.140557 230.204192 
L 725.922313 229.606227 
L 727.485825 228.803365 
L 729.831093 228.122545 
L 733.739872 226.964733 
L 735.303384 226.240521 
L 738.430408 224.44517 
L 739.99392 223.158438 
L 740.775676 222.251661 
L 741.557432 221.098369 
L 743.120943 218.150565 
L 744.684455 215.016252 
L 745.466211 213.628409 
L 746.247967 212.615265 
L 747.029723 212.143918 
L 747.811479 212.237631 
L 748.593235 212.917769 
L 749.374991 214.166323 
L 750.156747 215.935924 
L 751.720258 220.590689 
L 754.065526 227.658335 
L 754.847282 229.555193 
L 755.629038 231.049268 
L 756.410794 232.151438 
L 757.19255 232.891827 
L 757.974306 233.317238 
L 758.756062 233.468973 
L 759.537818 233.393743 
L 760.319573 233.149139 
L 761.883085 232.289962 
L 763.446597 231.232727 
L 764.228353 230.823865 
L 765.010109 230.553369 
L 765.791865 230.469345 
L 766.573621 230.621299 
L 767.355377 231.029149 
L 768.137133 231.674433 
L 769.700644 233.436334 
L 772.045912 236.336197 
L 773.609424 237.918635 
L 775.172936 239.116397 
L 775.954692 239.487718 
L 776.736448 239.704492 
L 778.29996 239.758318 
L 780.645227 239.436515 
L 781.426983 239.486443 
L 782.208739 239.708406 
L 782.990495 240.140998 
L 783.772251 240.800969 
L 785.335763 242.684388 
L 786.899275 244.625941 
L 787.681031 245.409813 
L 788.462786 245.992021 
L 789.244542 246.314402 
L 790.026298 246.370422 
L 790.808054 246.175603 
L 791.58981 245.756887 
L 792.371566 245.145102 
L 793.935078 243.491995 
L 796.280346 240.533372 
L 800.970881 234.452852 
L 802.534393 232.904826 
L 804.097905 231.759462 
L 808.006684 229.528712 
L 809.570196 228.322591 
L 811.133708 227.035034 
L 811.915464 226.557695 
L 812.69722 226.321405 
L 813.478976 226.373002 
L 814.260732 226.753252 
L 815.042488 227.485826 
L 815.824243 228.555521 
L 817.387755 231.312635 
L 818.951267 234.057531 
L 819.733023 235.173944 
L 820.514779 235.97567 
L 821.296535 236.418649 
L 822.078291 236.52847 
L 822.860047 236.337642 
L 823.641803 235.883504 
L 824.423559 235.20718 
L 825.98707 233.460615 
L 828.332338 230.744465 
L 829.114094 230.032886 
L 829.89585 229.4986 
L 830.677606 229.134294 
L 832.241118 228.736685 
L 838.495165 227.692618 
L 840.058677 227.138828 
L 840.840433 226.699757 
L 843.967456 224.520939 
L 844.749212 224.426745 
L 845.530968 224.683304 
L 846.312724 225.313081 
L 847.09448 226.281893 
L 848.657992 228.845887 
L 851.00326 232.724036 
L 851.785016 233.749043 
L 853.348527 235.257608 
L 854.130283 235.717716 
L 854.912039 235.912292 
L 855.693795 235.817662 
L 857.257307 235.028447 
L 858.820819 234.221888 
L 859.602575 234.025399 
L 860.384331 234.036143 
L 861.166087 234.245615 
L 863.511354 235.191241 
L 864.29311 235.249456 
L 865.074866 235.124381 
L 867.420134 234.383567 
L 868.20189 234.320895 
L 868.983646 234.464997 
L 870.547158 235.245051 
L 871.328913 235.676204 
L 872.110669 235.979263 
L 872.892425 236.088715 
L 873.674181 235.956385 
L 874.455937 235.536714 
L 875.237693 234.846161 
L 876.801205 232.896746 
L 878.364717 230.575538 
L 879.928229 227.872243 
L 881.49174 224.362725 
L 883.837008 218.311264 
L 884.618764 216.577848 
L 885.40052 215.276961 
L 886.182276 214.586865 
L 886.964032 214.54618 
L 887.745788 215.114196 
L 888.527544 216.186278 
L 889.3093 217.630874 
L 897.126859 234.432157 
L 898.69037 237.179318 
L 899.472126 238.226415 
L 900.253882 239.035449 
L 901.035638 239.626959 
L 902.59915 240.421081 
L 905.726174 241.927805 
L 906.50793 242.06147 
L 907.289686 241.92635 
L 908.071441 241.434317 
L 908.853197 240.515692 
L 909.634953 239.183334 
L 913.543733 231.080655 
L 914.325489 230.093686 
L 915.107245 229.47497 
L 915.889001 229.193181 
L 916.670757 229.208289 
L 917.452512 229.480041 
L 918.234268 229.970915 
L 919.79778 231.414506 
L 921.361292 233.20462 
L 923.70656 236.018435 
L 925.270072 237.579757 
L 926.833583 238.850121 
L 928.397095 239.914615 
L 929.960607 240.742562 
L 930.742363 241.018359 
L 931.524119 241.152421 
L 932.305875 241.119404 
L 933.087631 240.923899 
L 934.651143 240.208923 
L 936.214654 239.407905 
L 937.778166 238.881863 
L 940.123434 238.348685 
L 940.90519 238.001401 
L 941.686946 237.501763 
L 942.468702 236.841995 
L 944.032214 235.123404 
L 949.504505 228.437571 
L 951.068017 226.778043 
L 951.849773 226.101031 
L 952.631529 225.571205 
L 953.413285 225.206002 
L 954.19504 225.010914 
L 954.976796 224.973535 
L 956.540308 225.240585 
L 958.885576 225.808586 
L 961.230844 226.054574 
L 964.357867 226.24459 
L 966.703135 226.702232 
L 969.830159 227.577539 
L 971.393671 228.209661 
L 972.957182 229.092502 
L 975.30245 230.83332 
L 976.865962 231.986656 
L 978.429474 232.828912 
L 979.992986 233.277047 
L 981.556498 233.464049 
L 983.901765 233.542275 
L 986.247033 233.382109 
L 991.719324 232.682307 
L 1000.318639 232.20734 
L 1008.917955 232.011515 
L 1008.917955 232.011515 
" clip-path="url(#pf19035e0ff)" style="fill: none; stroke: #0c5da5; stroke-width: 2; stroke-linecap: square"/>
   </g>
   <g id="patch_3">
    <path d="M 50.1725 354.3975 
L 50.1725 21.7575 
" style="fill: none; stroke: #000000; stroke-linejoin: miter; stroke-linecap: square"/>
   </g>
   <g id="patch_4">
    <path d="M 1054.5725 354.3975 
L 1054.5725 21.7575 
" style="fill: none; stroke: #000000; stroke-linejoin: miter; stroke-linecap: square"/>
   </g>
   <g id="patch_5">
    <path d="M 50.1725 354.3975 
L 1054.5725 354.3975 
" style="fill: none; stroke: #000000; stroke-linejoin: miter; stroke-linecap: square"/>
   </g>
   <g id="patch_6">
    <path d="M 50.1725 21.7575 
L 1054.5725 21.7575 
" style="fill: none; stroke: #000000; stroke-linejoin: miter; stroke-linecap: square"/>
   </g>
   <g id="text_17">
    <!-- Santa Barbara Record no. 135 -->
    <g transform="translate(431.98 15.7575) scale(0.16 -0.16)">
     <defs>
      <path id="DejaVuSans-53" d="M 3425 4513 
L 3425 3897 
Q 3066 4069 2747 4153 
Q 2428 4238 2131 4238 
Q 1616 4238 1336 4038 
Q 1056 3838 1056 3469 
Q 1056 3159 1242 3001 
Q 1428 2844 1947 2747 
L 2328 2669 
Q 3034 2534 3370 2195 
Q 3706 1856 3706 1288 
Q 3706 609 3251 259 
Q 2797 -91 1919 -91 
Q 1588 -91 1214 -16 
Q 841 59 441 206 
L 441 856 
Q 825 641 1194 531 
Q 1563 422 1919 422 
Q 2459 422 2753 634 
Q 3047 847 3047 1241 
Q 3047 1584 2836 1778 
Q 2625 1972 2144 2069 
L 1759 2144 
Q 1053 2284 737 2584 
Q 422 2884 422 3419 
Q 422 4038 858 4394 
Q 1294 4750 2059 4750 
Q 2388 4750 2728 4690 
Q 3069 4631 3425 4513 
z
" transform="scale(0.015625)"/>
      <path id="DejaVuSans-72" d="M 2631 2963 
Q 2534 3019 2420 3045 
Q 2306 3072 2169 3072 
Q 1681 3072 1420 2755 
Q 1159 2438 1159 1844 
L 1159 0 
L 581 0 
L 581 3500 
L 1159 3500 
L 1159 2956 
Q 1341 3275 1631 3429 
Q 1922 3584 2338 3584 
Q 2397 3584 2469 3576 
Q 2541 3569 2628 3553 
L 2631 2963 
z
" transform="scale(0.015625)"/>
      <path id="DejaVuSans-62" d="M 3116 1747 
Q 3116 2381 2855 2742 
Q 2594 3103 2138 3103 
Q 1681 3103 1420 2742 
Q 1159 2381 1159 1747 
Q 1159 1113 1420 752 
Q 1681 391 2138 391 
Q 2594 391 2855 752 
Q 3116 1113 3116 1747 
z
M 1159 2969 
Q 1341 3281 1617 3432 
Q 1894 3584 2278 3584 
Q 2916 3584 3314 3078 
Q 3713 2572 3713 1747 
Q 3713 922 3314 415 
Q 2916 -91 2278 -91 
Q 1894 -91 1617 61 
Q 1341 213 1159 525 
L 1159 0 
L 581 0 
L 581 4863 
L 1159 4863 
L 1159 2969 
z
" transform="scale(0.015625)"/>
      <path id="DejaVuSans-52" d="M 2841 2188 
Q 3044 2119 3236 1894 
Q 3428 1669 3622 1275 
L 4263 0 
L 3584 0 
L 2988 1197 
Q 2756 1666 2539 1819 
Q 2322 1972 1947 1972 
L 1259 1972 
L 1259 0 
L 628 0 
L 628 4666 
L 2053 4666 
Q 2853 4666 3247 4331 
Q 3641 3997 3641 3322 
Q 3641 2881 3436 2590 
Q 3231 2300 2841 2188 
z
M 1259 4147 
L 1259 2491 
L 2053 2491 
Q 2509 2491 2742 2702 
Q 2975 2913 2975 3322 
Q 2975 3731 2742 3939 
Q 2509 4147 2053 4147 
L 1259 4147 
z
" transform="scale(0.015625)"/>
      <path id="DejaVuSans-6f" d="M 1959 3097 
Q 1497 3097 1228 2736 
Q 959 2375 959 1747 
Q 959 1119 1226 758 
Q 1494 397 1959 397 
Q 2419 397 2687 759 
Q 2956 1122 2956 1747 
Q 2956 2369 2687 2733 
Q 2419 3097 1959 3097 
z
M 1959 3584 
Q 2709 3584 3137 3096 
Q 3566 2609 3566 1747 
Q 3566 888 3137 398 
Q 2709 -91 1959 -91 
Q 1206 -91 779 398 
Q 353 888 353 1747 
Q 353 2609 779 3096 
Q 1206 3584 1959 3584 
z
" transform="scale(0.015625)"/>
      <path id="DejaVuSans-64" d="M 2906 2969 
L 2906 4863 
L 3481 4863 
L 3481 0 
L 2906 0 
L 2906 525 
Q 2725 213 2448 61 
Q 2172 -91 1784 -91 
Q 1150 -91 751 415 
Q 353 922 353 1747 
Q 353 2572 751 3078 
Q 1150 3584 1784 3584 
Q 2172 3584 2448 3432 
Q 2725 3281 2906 2969 
z
M 947 1747 
Q 947 1113 1208 752 
Q 1469 391 1925 391 
Q 2381 391 2643 752 
Q 2906 1113 2906 1747 
Q 2906 2381 2643 2742 
Q 2381 3103 1925 3103 
Q 1469 3103 1208 2742 
Q 947 2381 947 1747 
z
" transform="scale(0.015625)"/>
      <path id="DejaVuSans-2e" d="M 684 794 
L 1344 794 
L 1344 0 
L 684 0 
L 684 794 
z
" transform="scale(0.015625)"/>
      <path id="DejaVuSans-33" d="M 2597 2516 
Q 3050 2419 3304 2112 
Q 3559 1806 3559 1356 
Q 3559 666 3084 287 
Q 2609 -91 1734 -91 
Q 1441 -91 1130 -33 
Q 819 25 488 141 
L 488 750 
Q 750 597 1062 519 
Q 1375 441 1716 441 
Q 2309 441 2620 675 
Q 2931 909 2931 1356 
Q 2931 1769 2642 2001 
Q 2353 2234 1838 2234 
L 1294 2234 
L 1294 2753 
L 1863 2753 
Q 2328 2753 2575 2939 
Q 2822 3125 2822 3475 
Q 2822 3834 2567 4026 
Q 2313 4219 1838 4219 
Q 1578 4219 1281 4162 
Q 984 4106 628 3988 
L 628 4550 
Q 988 4650 1302 4700 
Q 1616 4750 1894 4750 
Q 2613 4750 3031 4423 
Q 3450 4097 3450 3541 
Q 3450 3153 3228 2886 
Q 3006 2619 2597 2516 
z
" transform="scale(0.015625)"/>
      <path id="DejaVuSans-35" d="M 691 4666 
L 3169 4666 
L 3169 4134 
L 1269 4134 
L 1269 2991 
Q 1406 3038 1543 3061 
Q 1681 3084 1819 3084 
Q 2600 3084 3056 2656 
Q 3513 2228 3513 1497 
Q 3513 744 3044 326 
Q 2575 -91 1722 -91 
Q 1428 -91 1123 -41 
Q 819 9 494 109 
L 494 744 
Q 775 591 1075 516 
Q 1375 441 1709 441 
Q 2250 441 2565 725 
Q 2881 1009 2881 1497 
Q 2881 1984 2565 2268 
Q 2250 2553 1709 2553 
Q 1456 2553 1204 2497 
Q 953 2441 691 2322 
L 691 4666 
z
" transform="scale(0.015625)"/>
     </defs>
     <use xlink:href="#DejaVuSans-53"/>
     <use xlink:href="#DejaVuSans-61" x="63.476562"/>
     <use xlink:href="#DejaVuSans-6e" x="124.755859"/>
     <use xlink:href="#DejaVuSans-74" x="188.134766"/>
     <use xlink:href="#DejaVuSans-61" x="227.34375"/>
     <use xlink:href="#DejaVuSans-20" x="288.623047"/>
     <use xlink:href="#DejaVuSans-42" x="320.410156"/>
     <use xlink:href="#DejaVuSans-61" x="389.013672"/>
     <use xlink:href="#DejaVuSans-72" x="450.292969"/>
     <use xlink:href="#DejaVuSans-62" x="491.40625"/>
     <use xlink:href="#DejaVuSans-61" x="554.882812"/>
     <use xlink:href="#DejaVuSans-72" x="616.162109"/>
     <use xlink:href="#DejaVuSans-61" x="657.275391"/>
     <use xlink:href="#DejaVuSans-20" x="718.554688"/>
     <use xlink:href="#DejaVuSans-52" x="750.341797"/>
     <use xlink:href="#DejaVuSans-65" x="815.324219"/>
     <use xlink:href="#DejaVuSans-63" x="876.847656"/>
     <use xlink:href="#DejaVuSans-6f" x="931.828125"/>
     <use xlink:href="#DejaVuSans-72" x="993.009766"/>
     <use xlink:href="#DejaVuSans-64" x="1032.373047"/>
     <use xlink:href="#DejaVuSans-20" x="1095.849609"/>
     <use xlink:href="#DejaVuSans-6e" x="1127.636719"/>
     <use xlink:href="#DejaVuSans-6f" x="1191.015625"/>
     <use xlink:href="#DejaVuSans-2e" x="1250.447266"/>
     <use xlink:href="#DejaVuSans-20" x="1282.234375"/>
     <use xlink:href="#DejaVuSans-31" x="1314.021484"/>
     <use xlink:href="#DejaVuSans-33" x="1377.644531"/>
     <use xlink:href="#DejaVuSans-35" x="1441.267578"/>
    </g>
   </g>
   <g id="legend_1">
    <g id="patch_7">
     <path d="M 683.16 58.0425 
L 1043.3725 58.0425 
Q 1046.5725 58.0425 1046.5725 54.8425 
L 1046.5725 32.9575 
Q 1046.5725 29.7575 1043.3725 29.7575 
L 683.16 29.7575 
Q 679.96 29.7575 679.96 32.9575 
L 679.96 54.8425 
Q 679.96 58.0425 683.16 58.0425 
z
" style="fill: #ffffff; stroke: #cccccc; stroke-linejoin: miter"/>
    </g>
    <g id="line2d_121">
     <path d="M 686.36 42.715 
L 702.36 42.715 
L 718.36 42.715 
" style="fill: none; stroke: #0c5da5; stroke-width: 2; stroke-linecap: square"/>
    </g>
    <g id="text_18">
     <!-- Residual Displacement = -0.000001 m -->
     <g transform="translate(731.16 48.315) scale(0.16 -0.16)">
      <defs>
       <path id="DejaVuSans-75" d="M 544 1381 
L 544 3500 
L 1119 3500 
L 1119 1403 
Q 1119 906 1312 657 
Q 1506 409 1894 409 
Q 2359 409 2629 706 
Q 2900 1003 2900 1516 
L 2900 3500 
L 3475 3500 
L 3475 0 
L 2900 0 
L 2900 538 
Q 2691 219 2414 64 
Q 2138 -91 1772 -91 
Q 1169 -91 856 284 
Q 544 659 544 1381 
z
M 1991 3584 
L 1991 3584 
z
" transform="scale(0.015625)"/>
       <path id="DejaVuSans-3d" d="M 678 2906 
L 4684 2906 
L 4684 2381 
L 678 2381 
L 678 2906 
z
M 678 1631 
L 4684 1631 
L 4684 1100 
L 678 1100 
L 678 1631 
z
" transform="scale(0.015625)"/>
       <path id="DejaVuSans-2d" d="M 313 2009 
L 1997 2009 
L 1997 1497 
L 313 1497 
L 313 2009 
z
" transform="scale(0.015625)"/>
      </defs>
      <use xlink:href="#DejaVuSans-52"/>
      <use xlink:href="#DejaVuSans-65" x="64.982422"/>
      <use xlink:href="#DejaVuSans-73" x="126.505859"/>
      <use xlink:href="#DejaVuSans-69" x="178.605469"/>
      <use xlink:href="#DejaVuSans-64" x="206.388672"/>
      <use xlink:href="#DejaVuSans-75" x="269.865234"/>
      <use xlink:href="#DejaVuSans-61" x="333.244141"/>
      <use xlink:href="#DejaVuSans-6c" x="394.523438"/>
      <use xlink:href="#DejaVuSans-20" x="422.306641"/>
      <use xlink:href="#DejaVuSans-44" x="454.09375"/>
      <use xlink:href="#DejaVuSans-69" x="531.095703"/>
      <use xlink:href="#DejaVuSans-73" x="558.878906"/>
      <use xlink:href="#DejaVuSans-70" x="610.978516"/>
      <use xlink:href="#DejaVuSans-6c" x="674.455078"/>
      <use xlink:href="#DejaVuSans-61" x="702.238281"/>
      <use xlink:href="#DejaVuSans-63" x="763.517578"/>
      <use xlink:href="#DejaVuSans-65" x="818.498047"/>
      <use xlink:href="#DejaVuSans-6d" x="880.021484"/>
      <use xlink:href="#DejaVuSans-65" x="977.433594"/>
      <use xlink:href="#DejaVuSans-6e" x="1038.957031"/>
      <use xlink:href="#DejaVuSans-74" x="1102.335938"/>
      <use xlink:href="#DejaVuSans-20" x="1141.544922"/>
      <use xlink:href="#DejaVuSans-3d" x="1173.332031"/>
      <use xlink:href="#DejaVuSans-20" x="1257.121094"/>
      <use xlink:href="#DejaVuSans-2d" x="1288.908203"/>
      <use xlink:href="#DejaVuSans-30" x="1324.992188"/>
      <use xlink:href="#DejaVuSans-2e" x="1388.615234"/>
      <use xlink:href="#DejaVuSans-30" x="1420.402344"/>
      <use xlink:href="#DejaVuSans-30" x="1484.025391"/>
      <use xlink:href="#DejaVuSans-30" x="1547.648438"/>
      <use xlink:href="#DejaVuSans-30" x="1611.271484"/>
      <use xlink:href="#DejaVuSans-30" x="1674.894531"/>
      <use xlink:href="#DejaVuSans-31" x="1738.517578"/>
      <use xlink:href="#DejaVuSans-20" x="1802.140625"/>
      <use xlink:href="#DejaVuSans-6d" x="1833.927734"/>
     </g>
    </g>
   </g>
  </g>
 </g>
 <defs>
  <clipPath id="pf19035e0ff">
   <rect x="50.1725" y="21.7575" width="1004.4" height="332.64"/>
  </clipPath>
 </defs>
</svg>
