<?xml version="1.0" encoding="utf-8" standalone="no"?>
<!DOCTYPE svg PUBLIC "-//W3C//DTD SVG 1.1//EN"
  "http://www.w3.org/Graphics/SVG/1.1/DTD/svg11.dtd">
<svg xmlns:xlink="http://www.w3.org/1999/xlink" width="1058.1725pt" height="562.7875pt" viewBox="0 0 1058.1725 562.7875" xmlns="http://www.w3.org/2000/svg" version="1.1">
 <metadata>
  <rdf:RDF xmlns:dc="http://purl.org/dc/elements/1.1/" xmlns:cc="http://creativecommons.org/ns#" xmlns:rdf="http://www.w3.org/1999/02/22-rdf-syntax-ns#">
   <cc:Work>
    <dc:type rdf:resource="http://purl.org/dc/dcmitype/StillImage"/>
    <dc:date>2023-06-10T16:15:15.845071</dc:date>
    <dc:format>image/svg+xml</dc:format>
    <dc:creator>
     <cc:Agent>
      <dc:title>Matplotlib v3.7.1, https://matplotlib.org/</dc:title>
     </cc:Agent>
    </dc:creator>
   </cc:Work>
  </rdf:RDF>
 </metadata>
 <defs>
  <style type="text/css">*{stroke-linejoin: round; stroke-linecap: butt}</style>
 </defs>
 <g id="figure_1">
  <g id="patch_1">
   <path d="M 0 562.7875 
L 1058.1725 562.7875 
L 1058.1725 0 
L 0 0 
z
" style="fill: #ffffff"/>
  </g>
  <g id="axes_1">
   <g id="patch_2">
    <path d="M 50.1725 520.7175 
L 1054.5725 520.7175 
L 1054.5725 21.7575 
L 50.1725 21.7575 
z
" style="fill: #ffffff"/>
   </g>
   <g id="matplotlib.axis_1">
    <g id="xtick_1">
     <g id="line2d_1">
      <path d="M 95.827045 520.7175 
L 95.827045 21.7575 
" clip-path="url(#p88d11720cd)" style="fill: none; stroke-dasharray: 1.85,0.8; stroke-dashoffset: 0; stroke: #000000; stroke-opacity: 0.5; stroke-width: 0.5"/>
     </g>
     <g id="line2d_2">
      <defs>
       <path id="m152d07502c" d="M 0 0 
L 0 -6 
" style="stroke: #000000"/>
      </defs>
      <g>
       <use xlink:href="#m152d07502c" x="95.827045" y="520.7175" style="stroke: #000000"/>
      </g>
     </g>
     <g id="line2d_3">
      <defs>
       <path id="m8c807dc713" d="M 0 0 
L 0 6 
" style="stroke: #000000"/>
      </defs>
      <g>
       <use xlink:href="#m8c807dc713" x="95.827045" y="21.7575" style="stroke: #000000"/>
      </g>
     </g>
     <g id="text_1">
      <!-- 0 -->
      <g transform="translate(90.737045 536.375) scale(0.16 -0.16)">
       <defs>
        <path id="DejaVuSans-30" d="M 2034 4250 
Q 1547 4250 1301 3770 
Q 1056 3291 1056 2328 
Q 1056 1369 1301 889 
Q 1547 409 2034 409 
Q 2525 409 2770 889 
Q 3016 1369 3016 2328 
Q 3016 3291 2770 3770 
Q 2525 4250 2034 4250 
z
M 2034 4750 
Q 2819 4750 3233 4129 
Q 3647 3509 3647 2328 
Q 3647 1150 3233 529 
Q 2819 -91 2034 -91 
Q 1250 -91 836 529 
Q 422 1150 422 2328 
Q 422 3509 836 4129 
Q 1250 4750 2034 4750 
z
" transform="scale(0.015625)"/>
       </defs>
       <use xlink:href="#DejaVuSans-30"/>
      </g>
     </g>
    </g>
    <g id="xtick_2">
     <g id="line2d_4">
      <path d="M 252.178229 520.7175 
L 252.178229 21.7575 
" clip-path="url(#p88d11720cd)" style="fill: none; stroke-dasharray: 1.85,0.8; stroke-dashoffset: 0; stroke: #000000; stroke-opacity: 0.5; stroke-width: 0.5"/>
     </g>
     <g id="line2d_5">
      <g>
       <use xlink:href="#m152d07502c" x="252.178229" y="520.7175" style="stroke: #000000"/>
      </g>
     </g>
     <g id="line2d_6">
      <g>
       <use xlink:href="#m8c807dc713" x="252.178229" y="21.7575" style="stroke: #000000"/>
      </g>
     </g>
     <g id="text_2">
      <!-- 2 -->
      <g transform="translate(247.088229 536.375) scale(0.16 -0.16)">
       <defs>
        <path id="DejaVuSans-32" d="M 1228 531 
L 3431 531 
L 3431 0 
L 469 0 
L 469 531 
Q 828 903 1448 1529 
Q 2069 2156 2228 2338 
Q 2531 2678 2651 2914 
Q 2772 3150 2772 3378 
Q 2772 3750 2511 3984 
Q 2250 4219 1831 4219 
Q 1534 4219 1204 4116 
Q 875 4013 500 3803 
L 500 4441 
Q 881 4594 1212 4672 
Q 1544 4750 1819 4750 
Q 2544 4750 2975 4387 
Q 3406 4025 3406 3419 
Q 3406 3131 3298 2873 
Q 3191 2616 2906 2266 
Q 2828 2175 2409 1742 
Q 1991 1309 1228 531 
z
" transform="scale(0.015625)"/>
       </defs>
       <use xlink:href="#DejaVuSans-32"/>
      </g>
     </g>
    </g>
    <g id="xtick_3">
     <g id="line2d_7">
      <path d="M 408.529412 520.7175 
L 408.529412 21.7575 
" clip-path="url(#p88d11720cd)" style="fill: none; stroke-dasharray: 1.85,0.8; stroke-dashoffset: 0; stroke: #000000; stroke-opacity: 0.5; stroke-width: 0.5"/>
     </g>
     <g id="line2d_8">
      <g>
       <use xlink:href="#m152d07502c" x="408.529412" y="520.7175" style="stroke: #000000"/>
      </g>
     </g>
     <g id="line2d_9">
      <g>
       <use xlink:href="#m8c807dc713" x="408.529412" y="21.7575" style="stroke: #000000"/>
      </g>
     </g>
     <g id="text_3">
      <!-- 4 -->
      <g transform="translate(403.439412 536.375) scale(0.16 -0.16)">
       <defs>
        <path id="DejaVuSans-34" d="M 2419 4116 
L 825 1625 
L 2419 1625 
L 2419 4116 
z
M 2253 4666 
L 3047 4666 
L 3047 1625 
L 3713 1625 
L 3713 1100 
L 3047 1100 
L 3047 0 
L 2419 0 
L 2419 1100 
L 313 1100 
L 313 1709 
L 2253 4666 
z
" transform="scale(0.015625)"/>
       </defs>
       <use xlink:href="#DejaVuSans-34"/>
      </g>
     </g>
    </g>
    <g id="xtick_4">
     <g id="line2d_10">
      <path d="M 564.880595 520.7175 
L 564.880595 21.7575 
" clip-path="url(#p88d11720cd)" style="fill: none; stroke-dasharray: 1.85,0.8; stroke-dashoffset: 0; stroke: #000000; stroke-opacity: 0.5; stroke-width: 0.5"/>
     </g>
     <g id="line2d_11">
      <g>
       <use xlink:href="#m152d07502c" x="564.880595" y="520.7175" style="stroke: #000000"/>
      </g>
     </g>
     <g id="line2d_12">
      <g>
       <use xlink:href="#m8c807dc713" x="564.880595" y="21.7575" style="stroke: #000000"/>
      </g>
     </g>
     <g id="text_4">
      <!-- 6 -->
      <g transform="translate(559.790595 536.375) scale(0.16 -0.16)">
       <defs>
        <path id="DejaVuSans-36" d="M 2113 2584 
Q 1688 2584 1439 2293 
Q 1191 2003 1191 1497 
Q 1191 994 1439 701 
Q 1688 409 2113 409 
Q 2538 409 2786 701 
Q 3034 994 3034 1497 
Q 3034 2003 2786 2293 
Q 2538 2584 2113 2584 
z
M 3366 4563 
L 3366 3988 
Q 3128 4100 2886 4159 
Q 2644 4219 2406 4219 
Q 1781 4219 1451 3797 
Q 1122 3375 1075 2522 
Q 1259 2794 1537 2939 
Q 1816 3084 2150 3084 
Q 2853 3084 3261 2657 
Q 3669 2231 3669 1497 
Q 3669 778 3244 343 
Q 2819 -91 2113 -91 
Q 1303 -91 875 529 
Q 447 1150 447 2328 
Q 447 3434 972 4092 
Q 1497 4750 2381 4750 
Q 2619 4750 2861 4703 
Q 3103 4656 3366 4563 
z
" transform="scale(0.015625)"/>
       </defs>
       <use xlink:href="#DejaVuSans-36"/>
      </g>
     </g>
    </g>
    <g id="xtick_5">
     <g id="line2d_13">
      <path d="M 721.231778 520.7175 
L 721.231778 21.7575 
" clip-path="url(#p88d11720cd)" style="fill: none; stroke-dasharray: 1.85,0.8; stroke-dashoffset: 0; stroke: #000000; stroke-opacity: 0.5; stroke-width: 0.5"/>
     </g>
     <g id="line2d_14">
      <g>
       <use xlink:href="#m152d07502c" x="721.231778" y="520.7175" style="stroke: #000000"/>
      </g>
     </g>
     <g id="line2d_15">
      <g>
       <use xlink:href="#m8c807dc713" x="721.231778" y="21.7575" style="stroke: #000000"/>
      </g>
     </g>
     <g id="text_5">
      <!-- 8 -->
      <g transform="translate(716.141778 536.375) scale(0.16 -0.16)">
       <defs>
        <path id="DejaVuSans-38" d="M 2034 2216 
Q 1584 2216 1326 1975 
Q 1069 1734 1069 1313 
Q 1069 891 1326 650 
Q 1584 409 2034 409 
Q 2484 409 2743 651 
Q 3003 894 3003 1313 
Q 3003 1734 2745 1975 
Q 2488 2216 2034 2216 
z
M 1403 2484 
Q 997 2584 770 2862 
Q 544 3141 544 3541 
Q 544 4100 942 4425 
Q 1341 4750 2034 4750 
Q 2731 4750 3128 4425 
Q 3525 4100 3525 3541 
Q 3525 3141 3298 2862 
Q 3072 2584 2669 2484 
Q 3125 2378 3379 2068 
Q 3634 1759 3634 1313 
Q 3634 634 3220 271 
Q 2806 -91 2034 -91 
Q 1263 -91 848 271 
Q 434 634 434 1313 
Q 434 1759 690 2068 
Q 947 2378 1403 2484 
z
M 1172 3481 
Q 1172 3119 1398 2916 
Q 1625 2713 2034 2713 
Q 2441 2713 2670 2916 
Q 2900 3119 2900 3481 
Q 2900 3844 2670 4047 
Q 2441 4250 2034 4250 
Q 1625 4250 1398 4047 
Q 1172 3844 1172 3481 
z
" transform="scale(0.015625)"/>
       </defs>
       <use xlink:href="#DejaVuSans-38"/>
      </g>
     </g>
    </g>
    <g id="xtick_6">
     <g id="line2d_16">
      <path d="M 877.582961 520.7175 
L 877.582961 21.7575 
" clip-path="url(#p88d11720cd)" style="fill: none; stroke-dasharray: 1.85,0.8; stroke-dashoffset: 0; stroke: #000000; stroke-opacity: 0.5; stroke-width: 0.5"/>
     </g>
     <g id="line2d_17">
      <g>
       <use xlink:href="#m152d07502c" x="877.582961" y="520.7175" style="stroke: #000000"/>
      </g>
     </g>
     <g id="line2d_18">
      <g>
       <use xlink:href="#m8c807dc713" x="877.582961" y="21.7575" style="stroke: #000000"/>
      </g>
     </g>
     <g id="text_6">
      <!-- 10 -->
      <g transform="translate(867.402961 536.375) scale(0.16 -0.16)">
       <defs>
        <path id="DejaVuSans-31" d="M 794 531 
L 1825 531 
L 1825 4091 
L 703 3866 
L 703 4441 
L 1819 4666 
L 2450 4666 
L 2450 531 
L 3481 531 
L 3481 0 
L 794 0 
L 794 531 
z
" transform="scale(0.015625)"/>
       </defs>
       <use xlink:href="#DejaVuSans-31"/>
       <use xlink:href="#DejaVuSans-30" x="63.623047"/>
      </g>
     </g>
    </g>
    <g id="xtick_7">
     <g id="line2d_19">
      <path d="M 1033.934144 520.7175 
L 1033.934144 21.7575 
" clip-path="url(#p88d11720cd)" style="fill: none; stroke-dasharray: 1.85,0.8; stroke-dashoffset: 0; stroke: #000000; stroke-opacity: 0.5; stroke-width: 0.5"/>
     </g>
     <g id="line2d_20">
      <g>
       <use xlink:href="#m152d07502c" x="1033.934144" y="520.7175" style="stroke: #000000"/>
      </g>
     </g>
     <g id="line2d_21">
      <g>
       <use xlink:href="#m8c807dc713" x="1033.934144" y="21.7575" style="stroke: #000000"/>
      </g>
     </g>
     <g id="text_7">
      <!-- 12 -->
      <g transform="translate(1023.754144 536.375) scale(0.16 -0.16)">
       <use xlink:href="#DejaVuSans-31"/>
       <use xlink:href="#DejaVuSans-32" x="63.623047"/>
      </g>
     </g>
    </g>
    <g id="xtick_8">
     <g id="line2d_22">
      <defs>
       <path id="mb486f71cc1" d="M 0 0 
L 0 -3 
" style="stroke: #000000"/>
      </defs>
      <g>
       <use xlink:href="#mb486f71cc1" x="56.73925" y="520.7175" style="stroke: #000000"/>
      </g>
     </g>
     <g id="line2d_23">
      <defs>
       <path id="m87531404b3" d="M 0 0 
L 0 3 
" style="stroke: #000000"/>
      </defs>
      <g>
       <use xlink:href="#m87531404b3" x="56.73925" y="21.7575" style="stroke: #000000"/>
      </g>
     </g>
    </g>
    <g id="xtick_9">
     <g id="line2d_24">
      <g>
       <use xlink:href="#mb486f71cc1" x="134.914841" y="520.7175" style="stroke: #000000"/>
      </g>
     </g>
     <g id="line2d_25">
      <g>
       <use xlink:href="#m87531404b3" x="134.914841" y="21.7575" style="stroke: #000000"/>
      </g>
     </g>
    </g>
    <g id="xtick_10">
     <g id="line2d_26">
      <g>
       <use xlink:href="#mb486f71cc1" x="174.002637" y="520.7175" style="stroke: #000000"/>
      </g>
     </g>
     <g id="line2d_27">
      <g>
       <use xlink:href="#m87531404b3" x="174.002637" y="21.7575" style="stroke: #000000"/>
      </g>
     </g>
    </g>
    <g id="xtick_11">
     <g id="line2d_28">
      <g>
       <use xlink:href="#mb486f71cc1" x="213.090433" y="520.7175" style="stroke: #000000"/>
      </g>
     </g>
     <g id="line2d_29">
      <g>
       <use xlink:href="#m87531404b3" x="213.090433" y="21.7575" style="stroke: #000000"/>
      </g>
     </g>
    </g>
    <g id="xtick_12">
     <g id="line2d_30">
      <g>
       <use xlink:href="#mb486f71cc1" x="291.266024" y="520.7175" style="stroke: #000000"/>
      </g>
     </g>
     <g id="line2d_31">
      <g>
       <use xlink:href="#m87531404b3" x="291.266024" y="21.7575" style="stroke: #000000"/>
      </g>
     </g>
    </g>
    <g id="xtick_13">
     <g id="line2d_32">
      <g>
       <use xlink:href="#mb486f71cc1" x="330.35382" y="520.7175" style="stroke: #000000"/>
      </g>
     </g>
     <g id="line2d_33">
      <g>
       <use xlink:href="#m87531404b3" x="330.35382" y="21.7575" style="stroke: #000000"/>
      </g>
     </g>
    </g>
    <g id="xtick_14">
     <g id="line2d_34">
      <g>
       <use xlink:href="#mb486f71cc1" x="369.441616" y="520.7175" style="stroke: #000000"/>
      </g>
     </g>
     <g id="line2d_35">
      <g>
       <use xlink:href="#m87531404b3" x="369.441616" y="21.7575" style="stroke: #000000"/>
      </g>
     </g>
    </g>
    <g id="xtick_15">
     <g id="line2d_36">
      <g>
       <use xlink:href="#mb486f71cc1" x="447.617207" y="520.7175" style="stroke: #000000"/>
      </g>
     </g>
     <g id="line2d_37">
      <g>
       <use xlink:href="#m87531404b3" x="447.617207" y="21.7575" style="stroke: #000000"/>
      </g>
     </g>
    </g>
    <g id="xtick_16">
     <g id="line2d_38">
      <g>
       <use xlink:href="#mb486f71cc1" x="486.705003" y="520.7175" style="stroke: #000000"/>
      </g>
     </g>
     <g id="line2d_39">
      <g>
       <use xlink:href="#m87531404b3" x="486.705003" y="21.7575" style="stroke: #000000"/>
      </g>
     </g>
    </g>
    <g id="xtick_17">
     <g id="line2d_40">
      <g>
       <use xlink:href="#mb486f71cc1" x="525.792799" y="520.7175" style="stroke: #000000"/>
      </g>
     </g>
     <g id="line2d_41">
      <g>
       <use xlink:href="#m87531404b3" x="525.792799" y="21.7575" style="stroke: #000000"/>
      </g>
     </g>
    </g>
    <g id="xtick_18">
     <g id="line2d_42">
      <g>
       <use xlink:href="#mb486f71cc1" x="603.96839" y="520.7175" style="stroke: #000000"/>
      </g>
     </g>
     <g id="line2d_43">
      <g>
       <use xlink:href="#m87531404b3" x="603.96839" y="21.7575" style="stroke: #000000"/>
      </g>
     </g>
    </g>
    <g id="xtick_19">
     <g id="line2d_44">
      <g>
       <use xlink:href="#mb486f71cc1" x="643.056186" y="520.7175" style="stroke: #000000"/>
      </g>
     </g>
     <g id="line2d_45">
      <g>
       <use xlink:href="#m87531404b3" x="643.056186" y="21.7575" style="stroke: #000000"/>
      </g>
     </g>
    </g>
    <g id="xtick_20">
     <g id="line2d_46">
      <g>
       <use xlink:href="#mb486f71cc1" x="682.143982" y="520.7175" style="stroke: #000000"/>
      </g>
     </g>
     <g id="line2d_47">
      <g>
       <use xlink:href="#m87531404b3" x="682.143982" y="21.7575" style="stroke: #000000"/>
      </g>
     </g>
    </g>
    <g id="xtick_21">
     <g id="line2d_48">
      <g>
       <use xlink:href="#mb486f71cc1" x="760.319573" y="520.7175" style="stroke: #000000"/>
      </g>
     </g>
     <g id="line2d_49">
      <g>
       <use xlink:href="#m87531404b3" x="760.319573" y="21.7575" style="stroke: #000000"/>
      </g>
     </g>
    </g>
    <g id="xtick_22">
     <g id="line2d_50">
      <g>
       <use xlink:href="#mb486f71cc1" x="799.407369" y="520.7175" style="stroke: #000000"/>
      </g>
     </g>
     <g id="line2d_51">
      <g>
       <use xlink:href="#m87531404b3" x="799.407369" y="21.7575" style="stroke: #000000"/>
      </g>
     </g>
    </g>
    <g id="xtick_23">
     <g id="line2d_52">
      <g>
       <use xlink:href="#mb486f71cc1" x="838.495165" y="520.7175" style="stroke: #000000"/>
      </g>
     </g>
     <g id="line2d_53">
      <g>
       <use xlink:href="#m87531404b3" x="838.495165" y="21.7575" style="stroke: #000000"/>
      </g>
     </g>
    </g>
    <g id="xtick_24">
     <g id="line2d_54">
      <g>
       <use xlink:href="#mb486f71cc1" x="916.670757" y="520.7175" style="stroke: #000000"/>
      </g>
     </g>
     <g id="line2d_55">
      <g>
       <use xlink:href="#m87531404b3" x="916.670757" y="21.7575" style="stroke: #000000"/>
      </g>
     </g>
    </g>
    <g id="xtick_25">
     <g id="line2d_56">
      <g>
       <use xlink:href="#mb486f71cc1" x="955.758552" y="520.7175" style="stroke: #000000"/>
      </g>
     </g>
     <g id="line2d_57">
      <g>
       <use xlink:href="#m87531404b3" x="955.758552" y="21.7575" style="stroke: #000000"/>
      </g>
     </g>
    </g>
    <g id="xtick_26">
     <g id="line2d_58">
      <g>
       <use xlink:href="#mb486f71cc1" x="994.846348" y="520.7175" style="stroke: #000000"/>
      </g>
     </g>
     <g id="line2d_59">
      <g>
       <use xlink:href="#m87531404b3" x="994.846348" y="21.7575" style="stroke: #000000"/>
      </g>
     </g>
    </g>
    <g id="text_8">
     <!-- Time (s) -->
     <g transform="translate(519.84625 555.86) scale(0.16 -0.16)">
      <defs>
       <path id="DejaVuSans-54" d="M -19 4666 
L 3928 4666 
L 3928 4134 
L 2272 4134 
L 2272 0 
L 1638 0 
L 1638 4134 
L -19 4134 
L -19 4666 
z
" transform="scale(0.015625)"/>
       <path id="DejaVuSans-69" d="M 603 3500 
L 1178 3500 
L 1178 0 
L 603 0 
L 603 3500 
z
M 603 4863 
L 1178 4863 
L 1178 4134 
L 603 4134 
L 603 4863 
z
" transform="scale(0.015625)"/>
       <path id="DejaVuSans-6d" d="M 3328 2828 
Q 3544 3216 3844 3400 
Q 4144 3584 4550 3584 
Q 5097 3584 5394 3201 
Q 5691 2819 5691 2113 
L 5691 0 
L 5113 0 
L 5113 2094 
Q 5113 2597 4934 2840 
Q 4756 3084 4391 3084 
Q 3944 3084 3684 2787 
Q 3425 2491 3425 1978 
L 3425 0 
L 2847 0 
L 2847 2094 
Q 2847 2600 2669 2842 
Q 2491 3084 2119 3084 
Q 1678 3084 1418 2786 
Q 1159 2488 1159 1978 
L 1159 0 
L 581 0 
L 581 3500 
L 1159 3500 
L 1159 2956 
Q 1356 3278 1631 3431 
Q 1906 3584 2284 3584 
Q 2666 3584 2933 3390 
Q 3200 3197 3328 2828 
z
" transform="scale(0.015625)"/>
       <path id="DejaVuSans-65" d="M 3597 1894 
L 3597 1613 
L 953 1613 
Q 991 1019 1311 708 
Q 1631 397 2203 397 
Q 2534 397 2845 478 
Q 3156 559 3463 722 
L 3463 178 
Q 3153 47 2828 -22 
Q 2503 -91 2169 -91 
Q 1331 -91 842 396 
Q 353 884 353 1716 
Q 353 2575 817 3079 
Q 1281 3584 2069 3584 
Q 2775 3584 3186 3129 
Q 3597 2675 3597 1894 
z
M 3022 2063 
Q 3016 2534 2758 2815 
Q 2500 3097 2075 3097 
Q 1594 3097 1305 2825 
Q 1016 2553 972 2059 
L 3022 2063 
z
" transform="scale(0.015625)"/>
       <path id="DejaVuSans-20" transform="scale(0.015625)"/>
       <path id="DejaVuSans-28" d="M 1984 4856 
Q 1566 4138 1362 3434 
Q 1159 2731 1159 2009 
Q 1159 1288 1364 580 
Q 1569 -128 1984 -844 
L 1484 -844 
Q 1016 -109 783 600 
Q 550 1309 550 2009 
Q 550 2706 781 3412 
Q 1013 4119 1484 4856 
L 1984 4856 
z
" transform="scale(0.015625)"/>
       <path id="DejaVuSans-73" d="M 2834 3397 
L 2834 2853 
Q 2591 2978 2328 3040 
Q 2066 3103 1784 3103 
Q 1356 3103 1142 2972 
Q 928 2841 928 2578 
Q 928 2378 1081 2264 
Q 1234 2150 1697 2047 
L 1894 2003 
Q 2506 1872 2764 1633 
Q 3022 1394 3022 966 
Q 3022 478 2636 193 
Q 2250 -91 1575 -91 
Q 1294 -91 989 -36 
Q 684 19 347 128 
L 347 722 
Q 666 556 975 473 
Q 1284 391 1588 391 
Q 1994 391 2212 530 
Q 2431 669 2431 922 
Q 2431 1156 2273 1281 
Q 2116 1406 1581 1522 
L 1381 1569 
Q 847 1681 609 1914 
Q 372 2147 372 2553 
Q 372 3047 722 3315 
Q 1072 3584 1716 3584 
Q 2034 3584 2315 3537 
Q 2597 3491 2834 3397 
z
" transform="scale(0.015625)"/>
       <path id="DejaVuSans-29" d="M 513 4856 
L 1013 4856 
Q 1481 4119 1714 3412 
Q 1947 2706 1947 2009 
Q 1947 1309 1714 600 
Q 1481 -109 1013 -844 
L 513 -844 
Q 928 -128 1133 580 
Q 1338 1288 1338 2009 
Q 1338 2731 1133 3434 
Q 928 4138 513 4856 
z
" transform="scale(0.015625)"/>
      </defs>
      <use xlink:href="#DejaVuSans-54"/>
      <use xlink:href="#DejaVuSans-69" x="57.958984"/>
      <use xlink:href="#DejaVuSans-6d" x="85.742188"/>
      <use xlink:href="#DejaVuSans-65" x="183.154297"/>
      <use xlink:href="#DejaVuSans-20" x="244.677734"/>
      <use xlink:href="#DejaVuSans-28" x="276.464844"/>
      <use xlink:href="#DejaVuSans-73" x="315.478516"/>
      <use xlink:href="#DejaVuSans-29" x="367.578125"/>
     </g>
    </g>
   </g>
   <g id="matplotlib.axis_2">
    <g id="ytick_1">
     <g id="line2d_60">
      <path d="M 50.1725 453.498305 
L 1054.5725 453.498305 
" clip-path="url(#p88d11720cd)" style="fill: none; stroke-dasharray: 1.85,0.8; stroke-dashoffset: 0; stroke: #000000; stroke-opacity: 0.5; stroke-width: 0.5"/>
     </g>
     <g id="line2d_61">
      <defs>
       <path id="m541fd79045" d="M 0 0 
L 6 0 
" style="stroke: #000000"/>
      </defs>
      <g>
       <use xlink:href="#m541fd79045" x="50.1725" y="453.498305" style="stroke: #000000"/>
      </g>
     </g>
     <g id="line2d_62">
      <defs>
       <path id="mdc7d7a681e" d="M 0 0 
L -6 0 
" style="stroke: #000000"/>
      </defs>
      <g>
       <use xlink:href="#mdc7d7a681e" x="1054.5725" y="453.498305" style="stroke: #000000"/>
      </g>
     </g>
     <g id="text_9">
      <!-- −4 -->
      <g transform="translate(23.085 459.577055) scale(0.16 -0.16)">
       <defs>
        <path id="DejaVuSans-2212" d="M 678 2272 
L 4684 2272 
L 4684 1741 
L 678 1741 
L 678 2272 
z
" transform="scale(0.015625)"/>
       </defs>
       <use xlink:href="#DejaVuSans-2212"/>
       <use xlink:href="#DejaVuSans-34" x="83.789062"/>
      </g>
     </g>
    </g>
    <g id="ytick_2">
     <g id="line2d_63">
      <path d="M 50.1725 381.37955 
L 1054.5725 381.37955 
" clip-path="url(#p88d11720cd)" style="fill: none; stroke-dasharray: 1.85,0.8; stroke-dashoffset: 0; stroke: #000000; stroke-opacity: 0.5; stroke-width: 0.5"/>
     </g>
     <g id="line2d_64">
      <g>
       <use xlink:href="#m541fd79045" x="50.1725" y="381.37955" style="stroke: #000000"/>
      </g>
     </g>
     <g id="line2d_65">
      <g>
       <use xlink:href="#mdc7d7a681e" x="1054.5725" y="381.37955" style="stroke: #000000"/>
      </g>
     </g>
     <g id="text_10">
      <!-- −2 -->
      <g transform="translate(23.085 387.4583) scale(0.16 -0.16)">
       <use xlink:href="#DejaVuSans-2212"/>
       <use xlink:href="#DejaVuSans-32" x="83.789062"/>
      </g>
     </g>
    </g>
    <g id="ytick_3">
     <g id="line2d_66">
      <path d="M 50.1725 309.260795 
L 1054.5725 309.260795 
" clip-path="url(#p88d11720cd)" style="fill: none; stroke-dasharray: 1.85,0.8; stroke-dashoffset: 0; stroke: #000000; stroke-opacity: 0.5; stroke-width: 0.5"/>
     </g>
     <g id="line2d_67">
      <g>
       <use xlink:href="#m541fd79045" x="50.1725" y="309.260795" style="stroke: #000000"/>
      </g>
     </g>
     <g id="line2d_68">
      <g>
       <use xlink:href="#mdc7d7a681e" x="1054.5725" y="309.260795" style="stroke: #000000"/>
      </g>
     </g>
     <g id="text_11">
      <!-- 0 -->
      <g transform="translate(36.4925 315.339545) scale(0.16 -0.16)">
       <use xlink:href="#DejaVuSans-30"/>
      </g>
     </g>
    </g>
    <g id="ytick_4">
     <g id="line2d_69">
      <path d="M 50.1725 237.142039 
L 1054.5725 237.142039 
" clip-path="url(#p88d11720cd)" style="fill: none; stroke-dasharray: 1.85,0.8; stroke-dashoffset: 0; stroke: #000000; stroke-opacity: 0.5; stroke-width: 0.5"/>
     </g>
     <g id="line2d_70">
      <g>
       <use xlink:href="#m541fd79045" x="50.1725" y="237.142039" style="stroke: #000000"/>
      </g>
     </g>
     <g id="line2d_71">
      <g>
       <use xlink:href="#mdc7d7a681e" x="1054.5725" y="237.142039" style="stroke: #000000"/>
      </g>
     </g>
     <g id="text_12">
      <!-- 2 -->
      <g transform="translate(36.4925 243.220789) scale(0.16 -0.16)">
       <use xlink:href="#DejaVuSans-32"/>
      </g>
     </g>
    </g>
    <g id="ytick_5">
     <g id="line2d_72">
      <path d="M 50.1725 165.023284 
L 1054.5725 165.023284 
" clip-path="url(#p88d11720cd)" style="fill: none; stroke-dasharray: 1.85,0.8; stroke-dashoffset: 0; stroke: #000000; stroke-opacity: 0.5; stroke-width: 0.5"/>
     </g>
     <g id="line2d_73">
      <g>
       <use xlink:href="#m541fd79045" x="50.1725" y="165.023284" style="stroke: #000000"/>
      </g>
     </g>
     <g id="line2d_74">
      <g>
       <use xlink:href="#mdc7d7a681e" x="1054.5725" y="165.023284" style="stroke: #000000"/>
      </g>
     </g>
     <g id="text_13">
      <!-- 4 -->
      <g transform="translate(36.4925 171.102034) scale(0.16 -0.16)">
       <use xlink:href="#DejaVuSans-34"/>
      </g>
     </g>
    </g>
    <g id="ytick_6">
     <g id="line2d_75">
      <path d="M 50.1725 92.904529 
L 1054.5725 92.904529 
" clip-path="url(#p88d11720cd)" style="fill: none; stroke-dasharray: 1.85,0.8; stroke-dashoffset: 0; stroke: #000000; stroke-opacity: 0.5; stroke-width: 0.5"/>
     </g>
     <g id="line2d_76">
      <g>
       <use xlink:href="#m541fd79045" x="50.1725" y="92.904529" style="stroke: #000000"/>
      </g>
     </g>
     <g id="line2d_77">
      <g>
       <use xlink:href="#mdc7d7a681e" x="1054.5725" y="92.904529" style="stroke: #000000"/>
      </g>
     </g>
     <g id="text_14">
      <!-- 6 -->
      <g transform="translate(36.4925 98.983279) scale(0.16 -0.16)">
       <use xlink:href="#DejaVuSans-36"/>
      </g>
     </g>
    </g>
    <g id="ytick_7">
     <g id="line2d_78">
      <defs>
       <path id="mc5e052f3d0" d="M 0 0 
L 3 0 
" style="stroke: #000000"/>
      </defs>
      <g>
       <use xlink:href="#mc5e052f3d0" x="50.1725" y="507.587372" style="stroke: #000000"/>
      </g>
     </g>
     <g id="line2d_79">
      <defs>
       <path id="md8bbce7143" d="M 0 0 
L -3 0 
" style="stroke: #000000"/>
      </defs>
      <g>
       <use xlink:href="#md8bbce7143" x="1054.5725" y="507.587372" style="stroke: #000000"/>
      </g>
     </g>
    </g>
    <g id="ytick_8">
     <g id="line2d_80">
      <g>
       <use xlink:href="#mc5e052f3d0" x="50.1725" y="489.557683" style="stroke: #000000"/>
      </g>
     </g>
     <g id="line2d_81">
      <g>
       <use xlink:href="#md8bbce7143" x="1054.5725" y="489.557683" style="stroke: #000000"/>
      </g>
     </g>
    </g>
    <g id="ytick_9">
     <g id="line2d_82">
      <g>
       <use xlink:href="#mc5e052f3d0" x="50.1725" y="471.527994" style="stroke: #000000"/>
      </g>
     </g>
     <g id="line2d_83">
      <g>
       <use xlink:href="#md8bbce7143" x="1054.5725" y="471.527994" style="stroke: #000000"/>
      </g>
     </g>
    </g>
    <g id="ytick_10">
     <g id="line2d_84">
      <g>
       <use xlink:href="#mc5e052f3d0" x="50.1725" y="435.468616" style="stroke: #000000"/>
      </g>
     </g>
     <g id="line2d_85">
      <g>
       <use xlink:href="#md8bbce7143" x="1054.5725" y="435.468616" style="stroke: #000000"/>
      </g>
     </g>
    </g>
    <g id="ytick_11">
     <g id="line2d_86">
      <g>
       <use xlink:href="#mc5e052f3d0" x="50.1725" y="417.438928" style="stroke: #000000"/>
      </g>
     </g>
     <g id="line2d_87">
      <g>
       <use xlink:href="#md8bbce7143" x="1054.5725" y="417.438928" style="stroke: #000000"/>
      </g>
     </g>
    </g>
    <g id="ytick_12">
     <g id="line2d_88">
      <g>
       <use xlink:href="#mc5e052f3d0" x="50.1725" y="399.409239" style="stroke: #000000"/>
      </g>
     </g>
     <g id="line2d_89">
      <g>
       <use xlink:href="#md8bbce7143" x="1054.5725" y="399.409239" style="stroke: #000000"/>
      </g>
     </g>
    </g>
    <g id="ytick_13">
     <g id="line2d_90">
      <g>
       <use xlink:href="#mc5e052f3d0" x="50.1725" y="363.349861" style="stroke: #000000"/>
      </g>
     </g>
     <g id="line2d_91">
      <g>
       <use xlink:href="#md8bbce7143" x="1054.5725" y="363.349861" style="stroke: #000000"/>
      </g>
     </g>
    </g>
    <g id="ytick_14">
     <g id="line2d_92">
      <g>
       <use xlink:href="#mc5e052f3d0" x="50.1725" y="345.320172" style="stroke: #000000"/>
      </g>
     </g>
     <g id="line2d_93">
      <g>
       <use xlink:href="#md8bbce7143" x="1054.5725" y="345.320172" style="stroke: #000000"/>
      </g>
     </g>
    </g>
    <g id="ytick_15">
     <g id="line2d_94">
      <g>
       <use xlink:href="#mc5e052f3d0" x="50.1725" y="327.290483" style="stroke: #000000"/>
      </g>
     </g>
     <g id="line2d_95">
      <g>
       <use xlink:href="#md8bbce7143" x="1054.5725" y="327.290483" style="stroke: #000000"/>
      </g>
     </g>
    </g>
    <g id="ytick_16">
     <g id="line2d_96">
      <g>
       <use xlink:href="#mc5e052f3d0" x="50.1725" y="291.231106" style="stroke: #000000"/>
      </g>
     </g>
     <g id="line2d_97">
      <g>
       <use xlink:href="#md8bbce7143" x="1054.5725" y="291.231106" style="stroke: #000000"/>
      </g>
     </g>
    </g>
    <g id="ytick_17">
     <g id="line2d_98">
      <g>
       <use xlink:href="#mc5e052f3d0" x="50.1725" y="273.201417" style="stroke: #000000"/>
      </g>
     </g>
     <g id="line2d_99">
      <g>
       <use xlink:href="#md8bbce7143" x="1054.5725" y="273.201417" style="stroke: #000000"/>
      </g>
     </g>
    </g>
    <g id="ytick_18">
     <g id="line2d_100">
      <g>
       <use xlink:href="#mc5e052f3d0" x="50.1725" y="255.171728" style="stroke: #000000"/>
      </g>
     </g>
     <g id="line2d_101">
      <g>
       <use xlink:href="#md8bbce7143" x="1054.5725" y="255.171728" style="stroke: #000000"/>
      </g>
     </g>
    </g>
    <g id="ytick_19">
     <g id="line2d_102">
      <g>
       <use xlink:href="#mc5e052f3d0" x="50.1725" y="219.11235" style="stroke: #000000"/>
      </g>
     </g>
     <g id="line2d_103">
      <g>
       <use xlink:href="#md8bbce7143" x="1054.5725" y="219.11235" style="stroke: #000000"/>
      </g>
     </g>
    </g>
    <g id="ytick_20">
     <g id="line2d_104">
      <g>
       <use xlink:href="#mc5e052f3d0" x="50.1725" y="201.082662" style="stroke: #000000"/>
      </g>
     </g>
     <g id="line2d_105">
      <g>
       <use xlink:href="#md8bbce7143" x="1054.5725" y="201.082662" style="stroke: #000000"/>
      </g>
     </g>
    </g>
    <g id="ytick_21">
     <g id="line2d_106">
      <g>
       <use xlink:href="#mc5e052f3d0" x="50.1725" y="183.052973" style="stroke: #000000"/>
      </g>
     </g>
     <g id="line2d_107">
      <g>
       <use xlink:href="#md8bbce7143" x="1054.5725" y="183.052973" style="stroke: #000000"/>
      </g>
     </g>
    </g>
    <g id="ytick_22">
     <g id="line2d_108">
      <g>
       <use xlink:href="#mc5e052f3d0" x="50.1725" y="146.993595" style="stroke: #000000"/>
      </g>
     </g>
     <g id="line2d_109">
      <g>
       <use xlink:href="#md8bbce7143" x="1054.5725" y="146.993595" style="stroke: #000000"/>
      </g>
     </g>
    </g>
    <g id="ytick_23">
     <g id="line2d_110">
      <g>
       <use xlink:href="#mc5e052f3d0" x="50.1725" y="128.963906" style="stroke: #000000"/>
      </g>
     </g>
     <g id="line2d_111">
      <g>
       <use xlink:href="#md8bbce7143" x="1054.5725" y="128.963906" style="stroke: #000000"/>
      </g>
     </g>
    </g>
    <g id="ytick_24">
     <g id="line2d_112">
      <g>
       <use xlink:href="#mc5e052f3d0" x="50.1725" y="110.934217" style="stroke: #000000"/>
      </g>
     </g>
     <g id="line2d_113">
      <g>
       <use xlink:href="#md8bbce7143" x="1054.5725" y="110.934217" style="stroke: #000000"/>
      </g>
     </g>
    </g>
    <g id="ytick_25">
     <g id="line2d_114">
      <g>
       <use xlink:href="#mc5e052f3d0" x="50.1725" y="74.87484" style="stroke: #000000"/>
      </g>
     </g>
     <g id="line2d_115">
      <g>
       <use xlink:href="#md8bbce7143" x="1054.5725" y="74.87484" style="stroke: #000000"/>
      </g>
     </g>
    </g>
    <g id="ytick_26">
     <g id="line2d_116">
      <g>
       <use xlink:href="#mc5e052f3d0" x="50.1725" y="56.845151" style="stroke: #000000"/>
      </g>
     </g>
     <g id="line2d_117">
      <g>
       <use xlink:href="#md8bbce7143" x="1054.5725" y="56.845151" style="stroke: #000000"/>
      </g>
     </g>
    </g>
    <g id="ytick_27">
     <g id="line2d_118">
      <g>
       <use xlink:href="#mc5e052f3d0" x="50.1725" y="38.815462" style="stroke: #000000"/>
      </g>
     </g>
     <g id="line2d_119">
      <g>
       <use xlink:href="#md8bbce7143" x="1054.5725" y="38.815462" style="stroke: #000000"/>
      </g>
     </g>
    </g>
    <g id="text_15">
     <!-- Base Displacement -->
     <g transform="translate(15.7575 348.2575) rotate(-90) scale(0.16 -0.16)">
      <defs>
       <path id="DejaVuSans-42" d="M 1259 2228 
L 1259 519 
L 2272 519 
Q 2781 519 3026 730 
Q 3272 941 3272 1375 
Q 3272 1813 3026 2020 
Q 2781 2228 2272 2228 
L 1259 2228 
z
M 1259 4147 
L 1259 2741 
L 2194 2741 
Q 2656 2741 2882 2914 
Q 3109 3088 3109 3444 
Q 3109 3797 2882 3972 
Q 2656 4147 2194 4147 
L 1259 4147 
z
M 628 4666 
L 2241 4666 
Q 2963 4666 3353 4366 
Q 3744 4066 3744 3513 
Q 3744 3084 3544 2831 
Q 3344 2578 2956 2516 
Q 3422 2416 3680 2098 
Q 3938 1781 3938 1306 
Q 3938 681 3513 340 
Q 3088 0 2303 0 
L 628 0 
L 628 4666 
z
" transform="scale(0.015625)"/>
       <path id="DejaVuSans-61" d="M 2194 1759 
Q 1497 1759 1228 1600 
Q 959 1441 959 1056 
Q 959 750 1161 570 
Q 1363 391 1709 391 
Q 2188 391 2477 730 
Q 2766 1069 2766 1631 
L 2766 1759 
L 2194 1759 
z
M 3341 1997 
L 3341 0 
L 2766 0 
L 2766 531 
Q 2569 213 2275 61 
Q 1981 -91 1556 -91 
Q 1019 -91 701 211 
Q 384 513 384 1019 
Q 384 1609 779 1909 
Q 1175 2209 1959 2209 
L 2766 2209 
L 2766 2266 
Q 2766 2663 2505 2880 
Q 2244 3097 1772 3097 
Q 1472 3097 1187 3025 
Q 903 2953 641 2809 
L 641 3341 
Q 956 3463 1253 3523 
Q 1550 3584 1831 3584 
Q 2591 3584 2966 3190 
Q 3341 2797 3341 1997 
z
" transform="scale(0.015625)"/>
       <path id="DejaVuSans-44" d="M 1259 4147 
L 1259 519 
L 2022 519 
Q 2988 519 3436 956 
Q 3884 1394 3884 2338 
Q 3884 3275 3436 3711 
Q 2988 4147 2022 4147 
L 1259 4147 
z
M 628 4666 
L 1925 4666 
Q 3281 4666 3915 4102 
Q 4550 3538 4550 2338 
Q 4550 1131 3912 565 
Q 3275 0 1925 0 
L 628 0 
L 628 4666 
z
" transform="scale(0.015625)"/>
       <path id="DejaVuSans-70" d="M 1159 525 
L 1159 -1331 
L 581 -1331 
L 581 3500 
L 1159 3500 
L 1159 2969 
Q 1341 3281 1617 3432 
Q 1894 3584 2278 3584 
Q 2916 3584 3314 3078 
Q 3713 2572 3713 1747 
Q 3713 922 3314 415 
Q 2916 -91 2278 -91 
Q 1894 -91 1617 61 
Q 1341 213 1159 525 
z
M 3116 1747 
Q 3116 2381 2855 2742 
Q 2594 3103 2138 3103 
Q 1681 3103 1420 2742 
Q 1159 2381 1159 1747 
Q 1159 1113 1420 752 
Q 1681 391 2138 391 
Q 2594 391 2855 752 
Q 3116 1113 3116 1747 
z
" transform="scale(0.015625)"/>
       <path id="DejaVuSans-6c" d="M 603 4863 
L 1178 4863 
L 1178 0 
L 603 0 
L 603 4863 
z
" transform="scale(0.015625)"/>
       <path id="DejaVuSans-63" d="M 3122 3366 
L 3122 2828 
Q 2878 2963 2633 3030 
Q 2388 3097 2138 3097 
Q 1578 3097 1268 2742 
Q 959 2388 959 1747 
Q 959 1106 1268 751 
Q 1578 397 2138 397 
Q 2388 397 2633 464 
Q 2878 531 3122 666 
L 3122 134 
Q 2881 22 2623 -34 
Q 2366 -91 2075 -91 
Q 1284 -91 818 406 
Q 353 903 353 1747 
Q 353 2603 823 3093 
Q 1294 3584 2113 3584 
Q 2378 3584 2631 3529 
Q 2884 3475 3122 3366 
z
" transform="scale(0.015625)"/>
       <path id="DejaVuSans-6e" d="M 3513 2113 
L 3513 0 
L 2938 0 
L 2938 2094 
Q 2938 2591 2744 2837 
Q 2550 3084 2163 3084 
Q 1697 3084 1428 2787 
Q 1159 2491 1159 1978 
L 1159 0 
L 581 0 
L 581 3500 
L 1159 3500 
L 1159 2956 
Q 1366 3272 1645 3428 
Q 1925 3584 2291 3584 
Q 2894 3584 3203 3211 
Q 3513 2838 3513 2113 
z
" transform="scale(0.015625)"/>
       <path id="DejaVuSans-74" d="M 1172 4494 
L 1172 3500 
L 2356 3500 
L 2356 3053 
L 1172 3053 
L 1172 1153 
Q 1172 725 1289 603 
Q 1406 481 1766 481 
L 2356 481 
L 2356 0 
L 1766 0 
Q 1100 0 847 248 
Q 594 497 594 1153 
L 594 3053 
L 172 3053 
L 172 3500 
L 594 3500 
L 594 4494 
L 1172 4494 
z
" transform="scale(0.015625)"/>
      </defs>
      <use xlink:href="#DejaVuSans-42"/>
      <use xlink:href="#DejaVuSans-61" x="68.603516"/>
      <use xlink:href="#DejaVuSans-73" x="129.882812"/>
      <use xlink:href="#DejaVuSans-65" x="181.982422"/>
      <use xlink:href="#DejaVuSans-20" x="243.505859"/>
      <use xlink:href="#DejaVuSans-44" x="275.292969"/>
      <use xlink:href="#DejaVuSans-69" x="352.294922"/>
      <use xlink:href="#DejaVuSans-73" x="380.078125"/>
      <use xlink:href="#DejaVuSans-70" x="432.177734"/>
      <use xlink:href="#DejaVuSans-6c" x="495.654297"/>
      <use xlink:href="#DejaVuSans-61" x="523.4375"/>
      <use xlink:href="#DejaVuSans-63" x="584.716797"/>
      <use xlink:href="#DejaVuSans-65" x="639.697266"/>
      <use xlink:href="#DejaVuSans-6d" x="701.220703"/>
      <use xlink:href="#DejaVuSans-65" x="798.632812"/>
      <use xlink:href="#DejaVuSans-6e" x="860.15625"/>
      <use xlink:href="#DejaVuSans-74" x="923.535156"/>
     </g>
    </g>
    <g id="text_16">
     <!-- 1e−6 -->
     <g transform="translate(50.1725 18.7575) scale(0.16 -0.16)">
      <use xlink:href="#DejaVuSans-31"/>
      <use xlink:href="#DejaVuSans-65" x="63.623047"/>
      <use xlink:href="#DejaVuSans-2212" x="125.146484"/>
      <use xlink:href="#DejaVuSans-36" x="208.935547"/>
     </g>
    </g>
   </g>
   <g id="line2d_120">
    <path d="M 95.827045 309.260795 
L 97.390557 309.604698 
L 99.735825 310.530148 
L 102.081093 311.533834 
L 103.644605 312.002839 
L 106.771628 312.761755 
L 110.680408 314.019069 
L 113.025676 314.3459 
L 114.589187 314.5341 
L 116.152699 314.946007 
L 117.716211 315.635318 
L 120.843235 317.121254 
L 122.406747 317.675674 
L 123.188502 317.842175 
L 123.970258 317.87214 
L 124.752014 317.720874 
L 125.53377 317.366333 
L 126.315526 316.802495 
L 127.097282 316.026907 
L 128.660794 313.939763 
L 130.224306 311.820352 
L 131.006062 311.023506 
L 131.787818 310.453937 
L 132.569573 310.094023 
L 134.133085 309.78569 
L 134.914841 309.625141 
L 135.696597 309.308174 
L 137.260109 308.15584 
L 138.041865 307.564947 
L 138.823621 307.196822 
L 139.605377 307.177883 
L 140.387133 307.580654 
L 141.168889 308.409274 
L 141.950644 309.599866 
L 144.295912 313.69161 
L 145.077668 314.721606 
L 145.859424 315.500825 
L 146.64118 316.027777 
L 148.204692 316.681854 
L 150.54996 317.468667 
L 151.331715 317.610108 
L 152.113471 317.523849 
L 152.895227 317.112912 
L 153.676983 316.343648 
L 154.458739 315.233839 
L 156.022251 312.236225 
L 157.585763 308.987333 
L 158.367519 307.743836 
L 159.149275 306.899217 
L 159.931031 306.537967 
L 160.712786 306.767109 
L 161.494542 307.579799 
L 164.621566 312.220807 
L 165.403322 312.905855 
L 166.185078 313.230481 
L 166.966834 313.158508 
L 167.74859 312.646871 
L 168.530346 311.71397 
L 169.312101 310.418382 
L 170.093857 308.791519 
L 170.875613 306.829187 
L 172.439125 302.009025 
L 173.220881 299.534614 
L 174.002637 297.429814 
L 174.784393 295.855642 
L 175.566149 294.955361 
L 176.347905 294.804245 
L 177.129661 295.362777 
L 177.911417 296.473325 
L 179.474928 299.167405 
L 180.256684 300.247131 
L 181.03844 300.977098 
L 181.820196 301.231962 
L 182.601952 301.000475 
L 183.383708 300.382002 
L 184.165464 299.442478 
L 184.94722 298.200009 
L 185.728976 296.647342 
L 188.074243 291.461137 
L 188.855999 290.229204 
L 189.637755 289.504071 
L 190.419511 289.461556 
L 191.201267 290.138104 
L 191.983023 291.44619 
L 194.328291 296.617553 
L 195.110047 297.977505 
L 195.891803 298.886222 
L 196.673559 299.309091 
L 197.455314 299.346959 
L 198.23707 299.124512 
L 199.800582 298.255704 
L 201.364094 297.193511 
L 202.927606 296.503665 
L 207.618141 295.427891 
L 209.181653 295.274104 
L 209.963409 295.327711 
L 210.745165 295.521407 
L 211.526921 295.886652 
L 213.090433 297.013734 
L 214.653945 298.102931 
L 215.4357 298.372976 
L 216.217456 298.270011 
L 216.999212 297.736458 
L 217.780968 296.810287 
L 218.562724 295.531742 
L 220.126236 292.19516 
L 220.907992 290.447003 
L 221.689748 289.09738 
L 222.471504 288.433812 
L 223.25326 288.540309 
L 224.035016 289.332598 
L 224.816771 290.581616 
L 226.380283 293.539591 
L 227.162039 294.671217 
L 227.943795 295.228631 
L 228.725551 295.156694 
L 229.507307 294.472677 
L 230.289063 293.207031 
L 231.070819 291.481468 
L 233.416087 285.754648 
L 234.197842 284.415973 
L 237.324866 280.265085 
L 238.888378 277.302471 
L 240.45189 273.994602 
L 241.233646 272.597842 
L 242.015402 271.666421 
L 242.797158 271.34908 
L 243.578913 271.717821 
L 244.360669 272.795733 
L 245.142425 274.517818 
L 245.924181 276.753411 
L 247.487693 282.300378 
L 251.396473 298.138886 
L 252.178229 300.29301 
L 252.959984 301.949214 
L 253.74174 303.179256 
L 254.523496 304.068032 
L 255.305252 304.688215 
L 256.087008 305.045971 
L 256.868764 305.148827 
L 258.432276 305.036506 
L 259.214032 305.267069 
L 259.995788 305.79122 
L 260.777544 306.854678 
L 261.5593 308.7562 
L 262.341055 311.675761 
L 263.122811 315.738144 
L 263.904567 321.098481 
L 264.686323 327.878896 
L 265.468079 336.018192 
L 267.031591 355.810783 
L 269.376859 387.588926 
L 270.158615 396.607416 
L 270.94037 404.189366 
L 271.722126 410.019868 
L 272.503882 414.107211 
L 273.285638 416.707441 
L 274.067394 418.278309 
L 274.84915 419.296297 
L 276.412662 420.946707 
L 277.194418 422.32659 
L 277.976174 424.604286 
L 278.75793 428.035427 
L 279.539686 432.713743 
L 280.321441 438.628456 
L 283.448465 465.708891 
L 284.230221 469.444554 
L 285.011977 470.847568 
L 285.793733 470.261988 
L 288.139001 464.833207 
L 288.920757 465.028174 
L 289.702512 467.052592 
L 290.484268 470.5286 
L 292.04778 478.909488 
L 292.829536 481.906259 
L 293.611292 483.162261 
L 294.393048 482.598917 
L 295.174804 480.522936 
L 296.738316 474.117677 
L 298.301828 467.42117 
L 299.083583 463.411451 
L 299.865339 458.155633 
L 300.647095 450.972929 
L 301.428851 441.152962 
L 302.210607 428.359791 
L 302.992363 412.591241 
L 304.555875 372.778651 
L 306.901143 307.869007 
L 308.464654 270.102172 
L 310.028166 237.553159 
L 311.591678 209.138472 
L 313.15519 186.103962 
L 314.718702 168.687976 
L 316.282214 155.179829 
L 317.845725 143.786018 
L 318.627481 139.072435 
L 319.409237 135.236142 
L 320.190993 132.490798 
L 321.754505 128.794144 
L 322.536261 126.296883 
L 323.318017 122.424541 
L 324.099773 116.359124 
L 324.881529 107.854221 
L 326.44504 85.536967 
L 328.008552 62.578905 
L 328.790308 54.168278 
L 329.572064 48.486808 
L 330.35382 45.344911 
L 331.135576 44.4375 
L 331.917332 45.757695 
L 332.699088 49.731776 
L 333.480844 57.414273 
L 334.2626 69.92827 
L 335.044356 88.56926 
L 335.826111 114.590862 
L 336.607867 148.871213 
L 338.953135 276.657285 
L 339.734891 309.206603 
L 340.516647 330.712411 
L 341.298403 341.535612 
L 342.080159 343.067504 
L 342.861915 336.401607 
L 343.643671 322.451318 
L 344.425427 302.358228 
L 347.55245 204.741556 
L 348.334206 188.366673 
L 349.115962 177.041132 
L 349.897718 170.271189 
L 350.679474 167.429757 
L 351.46123 168.029092 
L 352.242986 171.469918 
L 353.024742 177.197238 
L 353.806498 184.88989 
L 354.588253 194.486822 
L 355.370009 206.164127 
L 356.933521 235.004405 
L 359.278789 280.694665 
L 360.060545 292.815124 
L 360.842301 302.0978 
L 361.624057 308.531214 
L 362.405813 312.531753 
L 363.187568 314.644259 
L 363.969324 315.41046 
L 364.75108 315.251818 
L 365.532836 314.377179 
L 367.096348 311.836209 
L 367.878104 311.519536 
L 368.65986 312.659877 
L 369.441616 315.765589 
L 370.223372 321.214324 
L 371.005128 328.704641 
L 372.568639 348.228938 
L 373.350395 358.10759 
L 374.132151 366.029447 
L 374.913907 371.359705 
L 375.695663 373.967279 
L 376.477419 374.32129 
L 377.259175 373.228474 
L 378.822687 369.968584 
L 379.604443 369.220983 
L 380.386199 369.256145 
L 381.167955 369.672917 
L 381.94971 369.822591 
L 382.731466 369.042475 
L 383.513222 366.903154 
L 384.294978 363.241328 
L 385.85849 353.498208 
L 386.640246 349.743906 
L 387.422002 347.716841 
L 388.203758 347.849199 
L 388.985514 350.082827 
L 389.76727 354.023955 
L 392.112537 368.670724 
L 392.894293 371.489199 
L 393.676049 372.57208 
L 394.457805 372.112329 
L 395.239561 370.880351 
L 396.021317 370.109126 
L 396.803073 370.447266 
L 397.584829 372.402483 
L 398.366585 376.367696 
L 399.148341 382.383986 
L 399.930097 390.157161 
L 401.493608 409.336929 
L 403.05712 431.523402 
L 405.402388 467.518271 
L 406.184144 477.779597 
L 406.9659 486.215954 
L 407.747656 492.36608 
L 408.529412 496.275448 
L 409.311167 498.0375 
L 410.092923 497.988755 
L 410.874679 496.594856 
L 411.656435 494.245481 
L 412.438191 491.232202 
L 413.219947 487.603807 
L 414.783459 478.908201 
L 417.910483 458.886994 
L 418.692238 455.636138 
L 419.473994 453.957996 
L 420.25575 454.188778 
L 421.037506 455.938695 
L 422.601018 460.461507 
L 423.382774 461.646356 
L 424.16453 461.447863 
L 424.946286 459.657833 
L 425.728042 456.382927 
L 428.073309 442.854018 
L 428.855065 439.723454 
L 429.636821 437.904248 
L 430.418577 437.282646 
L 431.200333 437.385512 
L 431.982089 437.699061 
L 432.763845 437.769562 
L 433.545601 437.145621 
L 434.327357 435.597968 
L 435.109113 433.227799 
L 438.236136 421.732475 
L 439.799648 416.755313 
L 440.581404 413.684954 
L 441.36316 409.862533 
L 442.926672 400.169858 
L 446.053696 377.814655 
L 449.180719 354.39045 
L 449.962475 349.535143 
L 450.744231 345.826847 
L 451.525987 343.750661 
L 452.307743 343.603901 
L 453.089499 345.439854 
L 453.871255 349.063259 
L 456.216522 364.242832 
L 456.998278 367.788766 
L 457.780034 369.363161 
L 458.56179 368.665144 
L 459.343546 365.682223 
L 460.125302 360.58325 
L 461.688814 346.380222 
L 463.252326 331.247557 
L 464.034082 324.521454 
L 464.815837 318.907007 
L 465.597593 314.319389 
L 467.942861 302.557603 
L 468.724617 297.787186 
L 469.506373 292.14528 
L 471.851641 272.25846 
L 472.633397 267.064943 
L 473.415153 263.722374 
L 474.196908 262.537493 
L 474.978664 263.462514 
L 475.76042 266.089199 
L 476.542176 269.914741 
L 478.887444 282.612518 
L 479.6692 285.504109 
L 480.450956 287.242945 
L 481.232712 288.012087 
L 482.014468 287.958968 
L 482.796224 287.1729 
L 483.577979 285.690095 
L 484.359735 283.55913 
L 485.923247 278.099157 
L 487.486759 272.333058 
L 488.268515 270.228989 
L 489.050271 269.208168 
L 489.832027 269.375848 
L 490.613783 270.697885 
L 491.395539 272.939949 
L 492.95905 279.111743 
L 494.522562 285.109798 
L 495.304318 287.417319 
L 496.086074 289.236319 
L 496.86783 290.530516 
L 497.649586 291.352238 
L 498.431342 291.805569 
L 499.213098 291.93526 
L 499.994854 291.712844 
L 500.77661 291.070319 
L 501.558366 289.968674 
L 503.121877 286.778498 
L 505.467145 281.531237 
L 506.248901 280.243944 
L 507.030657 279.323858 
L 507.812413 278.914636 
L 508.594169 279.208674 
L 509.375925 280.260749 
L 510.157681 282.04478 
L 510.939436 284.478654 
L 511.721192 287.478004 
L 514.06646 297.760975 
L 514.848216 300.186548 
L 515.629972 301.671803 
L 516.411728 302.02528 
L 517.193484 301.193529 
L 517.97524 299.308921 
L 518.756996 296.58742 
L 520.320507 289.669718 
L 521.884019 282.11729 
L 522.665775 278.815928 
L 523.447531 276.047472 
L 524.229287 273.986764 
L 525.011043 273.106636 
L 525.792799 273.775512 
L 526.574555 276.144325 
L 527.356311 280.225671 
L 528.919823 291.70537 
L 529.701578 297.453052 
L 530.483334 302.090175 
L 531.26509 305.089603 
L 532.046846 306.069788 
L 532.828602 304.89739 
L 533.610358 301.82682 
L 534.392114 297.348493 
L 538.300894 272.072486 
L 540.646161 258.985126 
L 541.427917 255.43878 
L 542.209673 252.824773 
L 542.991429 251.423318 
L 543.773185 251.462702 
L 544.554941 252.993286 
L 545.336697 255.893799 
L 546.900209 264.264816 
L 549.245476 277.435598 
L 552.3725 293.519546 
L 557.063035 320.475032 
L 558.626547 327.066793 
L 562.535327 341.97797 
L 564.098839 346.977882 
L 565.662351 350.825941 
L 567.225862 354.457404 
L 568.007618 356.678073 
L 568.789374 359.357359 
L 569.57113 362.633692 
L 571.134642 370.984827 
L 572.698154 380.989115 
L 575.043422 396.828417 
L 575.825177 401.26982 
L 576.606933 404.944035 
L 577.388689 407.654562 
L 578.170445 409.153155 
L 578.952201 409.364769 
L 579.733957 408.358626 
L 580.515713 406.342824 
L 581.297469 403.600398 
L 582.860981 396.767736 
L 585.206248 385.078359 
L 586.76976 376.239799 
L 589.896784 357.535093 
L 590.67854 354.227433 
L 591.460296 351.907703 
L 592.242052 350.638758 
L 593.023808 350.339192 
L 593.805564 350.801495 
L 595.369075 352.471764 
L 596.150831 353.07525 
L 597.714343 353.836859 
L 598.496099 354.471598 
L 599.277855 355.631884 
L 600.059611 357.611361 
L 600.841367 360.691674 
L 601.623123 364.929297 
L 603.186634 375.9426 
L 603.96839 381.506296 
L 604.750146 386.062491 
L 605.531902 389.113243 
L 606.313658 390.419729 
L 607.095414 389.93585 
L 607.87717 387.868035 
L 608.658926 384.557248 
L 610.222438 376.962219 
L 611.004194 374.280072 
L 611.78595 372.714347 
L 612.567705 372.37442 
L 613.349461 373.2052 
L 614.131217 374.943374 
L 618.039997 386.400227 
L 619.603509 389.657497 
L 620.385265 390.931264 
L 621.167021 391.922127 
L 621.948776 392.505907 
L 622.730532 392.574962 
L 623.512288 392.081672 
L 624.294044 391.046497 
L 625.0758 389.544797 
L 626.639312 385.604382 
L 634.456871 363.631976 
L 636.020383 358.309691 
L 636.802139 355.050902 
L 638.365651 347.199829 
L 641.492674 330.116923 
L 643.056186 323.339359 
L 643.837942 320.641053 
L 644.619698 318.452616 
L 645.401454 316.738666 
L 646.18321 315.474317 
L 646.964966 314.76828 
L 647.746722 314.746656 
L 648.528478 315.470939 
L 649.310233 316.850892 
L 651.655501 322.197248 
L 652.437257 323.542566 
L 653.219013 324.26294 
L 654.000769 324.320603 
L 655.564281 323.407691 
L 656.346037 323.294613 
L 657.127793 323.825756 
L 657.909549 325.104541 
L 658.691304 327.072561 
L 660.254816 332.261237 
L 664.945352 348.942264 
L 668.072375 364.082684 
L 668.854131 366.809522 
L 669.635887 368.289805 
L 670.417643 368.194031 
L 671.199399 366.517425 
L 671.981155 363.453095 
L 672.762911 359.307813 
L 674.326423 348.942772 
L 676.671691 332.570875 
L 678.235202 323.106497 
L 679.016958 319.427858 
L 679.798714 316.578053 
L 680.58047 314.66729 
L 681.362226 313.750754 
L 682.143982 313.837203 
L 682.925738 314.788503 
L 684.48925 317.636393 
L 685.271006 318.708396 
L 686.052762 319.317173 
L 686.834517 319.512048 
L 688.398029 319.474576 
L 689.179785 319.774493 
L 689.961541 320.64304 
L 690.743297 322.18313 
L 692.306809 326.70499 
L 693.088565 328.984861 
L 693.870321 330.836015 
L 694.652077 332.032123 
L 695.433833 332.321795 
L 696.215588 331.674083 
L 696.997344 330.260261 
L 697.7791 328.288567 
L 699.342612 323.450272 
L 700.906124 318.304958 
L 702.469636 313.967364 
L 703.251392 312.23553 
L 704.033148 310.919878 
L 704.814903 310.068513 
L 705.596659 309.74895 
L 706.378415 310.05781 
L 707.160171 311.079616 
L 707.941927 312.849922 
L 708.723683 315.354063 
L 709.505439 318.549256 
L 710.287195 322.382097 
L 711.850707 331.534472 
L 713.414219 340.6661 
L 714.195974 344.686537 
L 714.97773 348.005021 
L 715.759486 350.388012 
L 716.541242 351.812113 
L 717.322998 352.310246 
L 718.104754 351.919518 
L 718.88651 350.711202 
L 719.668266 348.806629 
L 722.79529 339.626751 
L 723.577045 337.831736 
L 724.358801 336.387483 
L 725.140557 335.244445 
L 725.922313 334.352213 
L 726.704069 333.67385 
L 728.267581 332.787202 
L 732.958116 330.880113 
L 734.521628 329.968713 
L 736.866896 328.132986 
L 738.430408 326.701218 
L 739.212164 325.843053 
L 739.99392 324.798974 
L 740.775676 323.469973 
L 741.557432 321.777844 
L 743.120943 317.384362 
L 744.684455 312.628923 
L 745.466211 310.526711 
L 746.247967 308.967976 
L 747.029723 308.195573 
L 747.811479 308.296793 
L 748.593235 309.289584 
L 749.374991 311.14943 
L 750.156747 313.800057 
L 751.720258 320.823175 
L 754.065526 331.495319 
L 754.847282 334.379971 
L 755.629038 336.651343 
L 756.410794 338.321199 
L 757.19255 339.439022 
L 757.974306 340.074211 
L 758.756062 340.297717 
L 759.537818 340.179689 
L 760.319573 339.797128 
L 761.101329 339.220148 
L 762.664841 337.661501 
L 764.228353 336.227556 
L 765.010109 335.803537 
L 765.791865 335.656858 
L 766.573621 335.867672 
L 767.355377 336.470119 
L 768.137133 337.430528 
L 769.700644 340.067008 
L 772.045912 344.436007 
L 773.609424 346.841283 
L 774.39118 347.844702 
L 775.172936 348.650242 
L 775.954692 349.215804 
L 776.736448 349.539768 
L 777.518204 349.654116 
L 778.29996 349.606641 
L 780.645227 349.098223 
L 781.426983 349.189093 
L 782.208739 349.52682 
L 782.990495 350.151565 
L 783.772251 351.106795 
L 784.554007 352.382064 
L 786.899275 356.815373 
L 787.681031 358.016843 
L 788.462786 358.922115 
L 789.244542 359.446465 
L 790.026298 359.552048 
L 790.808054 359.258619 
L 791.58981 358.614947 
L 792.371566 357.683387 
L 793.935078 355.191655 
L 796.280346 350.755167 
L 800.189125 342.902394 
L 801.752637 340.289816 
L 803.316149 338.287744 
L 804.879661 336.822987 
L 808.006684 334.162915 
L 809.570196 332.386607 
L 811.133708 330.493414 
L 811.915464 329.760704 
L 812.69722 329.364029 
L 813.478976 329.405991 
L 814.260732 329.949029 
L 815.042488 331.02595 
L 815.824243 332.619286 
L 817.387755 336.800885 
L 818.951267 340.952796 
L 819.733023 342.639735 
L 820.514779 343.851297 
L 821.296535 344.532666 
L 822.078291 344.698139 
L 822.860047 344.400234 
L 823.641803 343.708056 
L 824.423559 342.693807 
L 825.98707 340.085307 
L 828.332338 335.992773 
L 829.114094 334.875191 
L 829.89585 334.0428 
L 830.677606 333.480415 
L 831.459362 333.127292 
L 833.022874 332.768873 
L 836.149897 332.178205 
L 837.713409 331.714277 
L 839.276921 331.040867 
L 840.058677 330.570325 
L 840.840433 329.927937 
L 843.967456 326.67952 
L 844.749212 326.51098 
L 845.530968 326.858008 
L 846.312724 327.76264 
L 847.09448 329.185836 
L 848.657992 333.024369 
L 851.00326 338.922299 
L 851.785016 340.478849 
L 852.566771 341.744319 
L 853.348527 342.758934 
L 854.130283 343.446479 
L 854.912039 343.735886 
L 855.693795 343.598497 
L 856.475551 343.075494 
L 858.039063 341.693193 
L 858.820819 341.133354 
L 859.602575 340.821959 
L 860.384331 340.827837 
L 861.166087 341.13016 
L 863.511354 342.542365 
L 864.29311 342.651963 
L 865.074866 342.483444 
L 867.420134 341.365041 
L 868.20189 341.241027 
L 868.983646 341.422831 
L 869.765402 341.90497 
L 871.328913 343.25596 
L 872.110669 343.741195 
L 872.892425 343.927472 
L 873.674181 343.74529 
L 874.455937 343.138259 
L 875.237693 342.11843 
L 876.019449 340.766262 
L 877.582961 337.476038 
L 879.146473 333.749909 
L 880.709984 329.207718 
L 882.273496 323.366267 
L 883.837008 317.334603 
L 884.618764 314.715233 
L 885.40052 312.724371 
L 886.182276 311.637223 
L 886.964032 311.536777 
L 887.745788 312.362058 
L 888.527544 313.959021 
L 889.3093 316.129345 
L 897.126859 341.405004 
L 898.69037 345.53362 
L 899.472126 347.110786 
L 900.253882 348.331025 
L 901.035638 349.222144 
L 902.59915 350.398487 
L 904.162662 351.522397 
L 905.726174 352.610101 
L 906.50793 352.819543 
L 907.289686 352.633126 
L 908.071441 351.923052 
L 908.853197 350.580309 
L 909.634953 348.608862 
L 911.198465 343.487568 
L 912.761977 338.435864 
L 913.543733 336.375018 
L 914.325489 334.865625 
L 915.107245 333.925555 
L 915.889001 333.493107 
L 916.670757 333.508719 
L 917.452512 333.91384 
L 918.234268 334.654222 
L 919.79778 336.82925 
L 921.361292 339.538148 
L 923.70656 343.831522 
L 925.270072 346.166142 
L 926.833583 348.046956 
L 928.397095 349.639963 
L 929.960607 350.898128 
L 930.742363 351.323577 
L 931.524119 351.535117 
L 932.305875 351.49678 
L 933.087631 351.209665 
L 934.651143 350.114965 
L 936.214654 348.896297 
L 936.99641 348.428819 
L 938.559922 347.875477 
L 940.123434 347.333212 
L 940.90519 346.832932 
L 941.686946 346.104263 
L 942.468702 345.129019 
L 944.032214 342.557122 
L 948.722749 333.867295 
L 951.068017 330.058942 
L 951.849773 329.026797 
L 952.631529 328.205384 
L 953.413285 327.631928 
L 954.19504 327.321614 
L 954.976796 327.259638 
L 955.758552 327.402572 
L 959.667332 328.790677 
L 961.230844 328.945923 
L 963.576111 329.057072 
L 965.139623 329.403671 
L 969.048403 330.826927 
L 970.611915 331.590911 
L 972.175427 332.689831 
L 973.738938 334.259475 
L 976.865962 337.810682 
L 977.647718 338.496271 
L 978.429474 339.032288 
L 979.992986 339.705379 
L 981.556498 340.032486 
L 983.120009 340.154425 
L 984.683521 340.099336 
L 986.247033 339.866851 
L 990.937568 338.885583 
L 998.755128 338.097775 
L 1008.917955 337.77922 
L 1008.917955 337.77922 
" clip-path="url(#p88d11720cd)" style="fill: none; stroke: #0c5da5; stroke-width: 2; stroke-linecap: square"/>
   </g>
   <g id="patch_3">
    <path d="M 50.1725 520.7175 
L 50.1725 21.7575 
" style="fill: none; stroke: #000000; stroke-linejoin: miter; stroke-linecap: square"/>
   </g>
   <g id="patch_4">
    <path d="M 1054.5725 520.7175 
L 1054.5725 21.7575 
" style="fill: none; stroke: #000000; stroke-linejoin: miter; stroke-linecap: square"/>
   </g>
   <g id="patch_5">
    <path d="M 50.1725 520.7175 
L 1054.5725 520.7175 
" style="fill: none; stroke: #000000; stroke-linejoin: miter; stroke-linecap: square"/>
   </g>
   <g id="patch_6">
    <path d="M 50.1725 21.7575 
L 1054.5725 21.7575 
" style="fill: none; stroke: #000000; stroke-linejoin: miter; stroke-linecap: square"/>
   </g>
   <g id="text_17">
    <!-- Santa Barbara Record no. 135 -->
    <g transform="translate(431.98 15.7575) scale(0.16 -0.16)">
     <defs>
      <path id="DejaVuSans-53" d="M 3425 4513 
L 3425 3897 
Q 3066 4069 2747 4153 
Q 2428 4238 2131 4238 
Q 1616 4238 1336 4038 
Q 1056 3838 1056 3469 
Q 1056 3159 1242 3001 
Q 1428 2844 1947 2747 
L 2328 2669 
Q 3034 2534 3370 2195 
Q 3706 1856 3706 1288 
Q 3706 609 3251 259 
Q 2797 -91 1919 -91 
Q 1588 -91 1214 -16 
Q 841 59 441 206 
L 441 856 
Q 825 641 1194 531 
Q 1563 422 1919 422 
Q 2459 422 2753 634 
Q 3047 847 3047 1241 
Q 3047 1584 2836 1778 
Q 2625 1972 2144 2069 
L 1759 2144 
Q 1053 2284 737 2584 
Q 422 2884 422 3419 
Q 422 4038 858 4394 
Q 1294 4750 2059 4750 
Q 2388 4750 2728 4690 
Q 3069 4631 3425 4513 
z
" transform="scale(0.015625)"/>
      <path id="DejaVuSans-72" d="M 2631 2963 
Q 2534 3019 2420 3045 
Q 2306 3072 2169 3072 
Q 1681 3072 1420 2755 
Q 1159 2438 1159 1844 
L 1159 0 
L 581 0 
L 581 3500 
L 1159 3500 
L 1159 2956 
Q 1341 3275 1631 3429 
Q 1922 3584 2338 3584 
Q 2397 3584 2469 3576 
Q 2541 3569 2628 3553 
L 2631 2963 
z
" transform="scale(0.015625)"/>
      <path id="DejaVuSans-62" d="M 3116 1747 
Q 3116 2381 2855 2742 
Q 2594 3103 2138 3103 
Q 1681 3103 1420 2742 
Q 1159 2381 1159 1747 
Q 1159 1113 1420 752 
Q 1681 391 2138 391 
Q 2594 391 2855 752 
Q 3116 1113 3116 1747 
z
M 1159 2969 
Q 1341 3281 1617 3432 
Q 1894 3584 2278 3584 
Q 2916 3584 3314 3078 
Q 3713 2572 3713 1747 
Q 3713 922 3314 415 
Q 2916 -91 2278 -91 
Q 1894 -91 1617 61 
Q 1341 213 1159 525 
L 1159 0 
L 581 0 
L 581 4863 
L 1159 4863 
L 1159 2969 
z
" transform="scale(0.015625)"/>
      <path id="DejaVuSans-52" d="M 2841 2188 
Q 3044 2119 3236 1894 
Q 3428 1669 3622 1275 
L 4263 0 
L 3584 0 
L 2988 1197 
Q 2756 1666 2539 1819 
Q 2322 1972 1947 1972 
L 1259 1972 
L 1259 0 
L 628 0 
L 628 4666 
L 2053 4666 
Q 2853 4666 3247 4331 
Q 3641 3997 3641 3322 
Q 3641 2881 3436 2590 
Q 3231 2300 2841 2188 
z
M 1259 4147 
L 1259 2491 
L 2053 2491 
Q 2509 2491 2742 2702 
Q 2975 2913 2975 3322 
Q 2975 3731 2742 3939 
Q 2509 4147 2053 4147 
L 1259 4147 
z
" transform="scale(0.015625)"/>
      <path id="DejaVuSans-6f" d="M 1959 3097 
Q 1497 3097 1228 2736 
Q 959 2375 959 1747 
Q 959 1119 1226 758 
Q 1494 397 1959 397 
Q 2419 397 2687 759 
Q 2956 1122 2956 1747 
Q 2956 2369 2687 2733 
Q 2419 3097 1959 3097 
z
M 1959 3584 
Q 2709 3584 3137 3096 
Q 3566 2609 3566 1747 
Q 3566 888 3137 398 
Q 2709 -91 1959 -91 
Q 1206 -91 779 398 
Q 353 888 353 1747 
Q 353 2609 779 3096 
Q 1206 3584 1959 3584 
z
" transform="scale(0.015625)"/>
      <path id="DejaVuSans-64" d="M 2906 2969 
L 2906 4863 
L 3481 4863 
L 3481 0 
L 2906 0 
L 2906 525 
Q 2725 213 2448 61 
Q 2172 -91 1784 -91 
Q 1150 -91 751 415 
Q 353 922 353 1747 
Q 353 2572 751 3078 
Q 1150 3584 1784 3584 
Q 2172 3584 2448 3432 
Q 2725 3281 2906 2969 
z
M 947 1747 
Q 947 1113 1208 752 
Q 1469 391 1925 391 
Q 2381 391 2643 752 
Q 2906 1113 2906 1747 
Q 2906 2381 2643 2742 
Q 2381 3103 1925 3103 
Q 1469 3103 1208 2742 
Q 947 2381 947 1747 
z
" transform="scale(0.015625)"/>
      <path id="DejaVuSans-2e" d="M 684 794 
L 1344 794 
L 1344 0 
L 684 0 
L 684 794 
z
" transform="scale(0.015625)"/>
      <path id="DejaVuSans-33" d="M 2597 2516 
Q 3050 2419 3304 2112 
Q 3559 1806 3559 1356 
Q 3559 666 3084 287 
Q 2609 -91 1734 -91 
Q 1441 -91 1130 -33 
Q 819 25 488 141 
L 488 750 
Q 750 597 1062 519 
Q 1375 441 1716 441 
Q 2309 441 2620 675 
Q 2931 909 2931 1356 
Q 2931 1769 2642 2001 
Q 2353 2234 1838 2234 
L 1294 2234 
L 1294 2753 
L 1863 2753 
Q 2328 2753 2575 2939 
Q 2822 3125 2822 3475 
Q 2822 3834 2567 4026 
Q 2313 4219 1838 4219 
Q 1578 4219 1281 4162 
Q 984 4106 628 3988 
L 628 4550 
Q 988 4650 1302 4700 
Q 1616 4750 1894 4750 
Q 2613 4750 3031 4423 
Q 3450 4097 3450 3541 
Q 3450 3153 3228 2886 
Q 3006 2619 2597 2516 
z
" transform="scale(0.015625)"/>
      <path id="DejaVuSans-35" d="M 691 4666 
L 3169 4666 
L 3169 4134 
L 1269 4134 
L 1269 2991 
Q 1406 3038 1543 3061 
Q 1681 3084 1819 3084 
Q 2600 3084 3056 2656 
Q 3513 2228 3513 1497 
Q 3513 744 3044 326 
Q 2575 -91 1722 -91 
Q 1428 -91 1123 -41 
Q 819 9 494 109 
L 494 744 
Q 775 591 1075 516 
Q 1375 441 1709 441 
Q 2250 441 2565 725 
Q 2881 1009 2881 1497 
Q 2881 1984 2565 2268 
Q 2250 2553 1709 2553 
Q 1456 2553 1204 2497 
Q 953 2441 691 2322 
L 691 4666 
z
" transform="scale(0.015625)"/>
     </defs>
     <use xlink:href="#DejaVuSans-53"/>
     <use xlink:href="#DejaVuSans-61" x="63.476562"/>
     <use xlink:href="#DejaVuSans-6e" x="124.755859"/>
     <use xlink:href="#DejaVuSans-74" x="188.134766"/>
     <use xlink:href="#DejaVuSans-61" x="227.34375"/>
     <use xlink:href="#DejaVuSans-20" x="288.623047"/>
     <use xlink:href="#DejaVuSans-42" x="320.410156"/>
     <use xlink:href="#DejaVuSans-61" x="389.013672"/>
     <use xlink:href="#DejaVuSans-72" x="450.292969"/>
     <use xlink:href="#DejaVuSans-62" x="491.40625"/>
     <use xlink:href="#DejaVuSans-61" x="554.882812"/>
     <use xlink:href="#DejaVuSans-72" x="616.162109"/>
     <use xlink:href="#DejaVuSans-61" x="657.275391"/>
     <use xlink:href="#DejaVuSans-20" x="718.554688"/>
     <use xlink:href="#DejaVuSans-52" x="750.341797"/>
     <use xlink:href="#DejaVuSans-65" x="815.324219"/>
     <use xlink:href="#DejaVuSans-63" x="876.847656"/>
     <use xlink:href="#DejaVuSans-6f" x="931.828125"/>
     <use xlink:href="#DejaVuSans-72" x="993.009766"/>
     <use xlink:href="#DejaVuSans-64" x="1032.373047"/>
     <use xlink:href="#DejaVuSans-20" x="1095.849609"/>
     <use xlink:href="#DejaVuSans-6e" x="1127.636719"/>
     <use xlink:href="#DejaVuSans-6f" x="1191.015625"/>
     <use xlink:href="#DejaVuSans-2e" x="1250.447266"/>
     <use xlink:href="#DejaVuSans-20" x="1282.234375"/>
     <use xlink:href="#DejaVuSans-31" x="1314.021484"/>
     <use xlink:href="#DejaVuSans-33" x="1377.644531"/>
     <use xlink:href="#DejaVuSans-35" x="1441.267578"/>
    </g>
   </g>
   <g id="legend_1">
    <g id="patch_7">
     <path d="M 683.16 58.0425 
L 1043.3725 58.0425 
Q 1046.5725 58.0425 1046.5725 54.8425 
L 1046.5725 32.9575 
Q 1046.5725 29.7575 1043.3725 29.7575 
L 683.16 29.7575 
Q 679.96 29.7575 679.96 32.9575 
L 679.96 54.8425 
Q 679.96 58.0425 683.16 58.0425 
z
" style="fill: #ffffff; stroke: #cccccc; stroke-linejoin: miter"/>
    </g>
    <g id="line2d_121">
     <path d="M 686.36 42.715 
L 702.36 42.715 
L 718.36 42.715 
" style="fill: none; stroke: #0c5da5; stroke-width: 2; stroke-linecap: square"/>
    </g>
    <g id="text_18">
     <!-- Residual Displacement = -0.000001 m -->
     <g transform="translate(731.16 48.315) scale(0.16 -0.16)">
      <defs>
       <path id="DejaVuSans-75" d="M 544 1381 
L 544 3500 
L 1119 3500 
L 1119 1403 
Q 1119 906 1312 657 
Q 1506 409 1894 409 
Q 2359 409 2629 706 
Q 2900 1003 2900 1516 
L 2900 3500 
L 3475 3500 
L 3475 0 
L 2900 0 
L 2900 538 
Q 2691 219 2414 64 
Q 2138 -91 1772 -91 
Q 1169 -91 856 284 
Q 544 659 544 1381 
z
M 1991 3584 
L 1991 3584 
z
" transform="scale(0.015625)"/>
       <path id="DejaVuSans-3d" d="M 678 2906 
L 4684 2906 
L 4684 2381 
L 678 2381 
L 678 2906 
z
M 678 1631 
L 4684 1631 
L 4684 1100 
L 678 1100 
L 678 1631 
z
" transform="scale(0.015625)"/>
       <path id="DejaVuSans-2d" d="M 313 2009 
L 1997 2009 
L 1997 1497 
L 313 1497 
L 313 2009 
z
" transform="scale(0.015625)"/>
      </defs>
      <use xlink:href="#DejaVuSans-52"/>
      <use xlink:href="#DejaVuSans-65" x="64.982422"/>
      <use xlink:href="#DejaVuSans-73" x="126.505859"/>
      <use xlink:href="#DejaVuSans-69" x="178.605469"/>
      <use xlink:href="#DejaVuSans-64" x="206.388672"/>
      <use xlink:href="#DejaVuSans-75" x="269.865234"/>
      <use xlink:href="#DejaVuSans-61" x="333.244141"/>
      <use xlink:href="#DejaVuSans-6c" x="394.523438"/>
      <use xlink:href="#DejaVuSans-20" x="422.306641"/>
      <use xlink:href="#DejaVuSans-44" x="454.09375"/>
      <use xlink:href="#DejaVuSans-69" x="531.095703"/>
      <use xlink:href="#DejaVuSans-73" x="558.878906"/>
      <use xlink:href="#DejaVuSans-70" x="610.978516"/>
      <use xlink:href="#DejaVuSans-6c" x="674.455078"/>
      <use xlink:href="#DejaVuSans-61" x="702.238281"/>
      <use xlink:href="#DejaVuSans-63" x="763.517578"/>
      <use xlink:href="#DejaVuSans-65" x="818.498047"/>
      <use xlink:href="#DejaVuSans-6d" x="880.021484"/>
      <use xlink:href="#DejaVuSans-65" x="977.433594"/>
      <use xlink:href="#DejaVuSans-6e" x="1038.957031"/>
      <use xlink:href="#DejaVuSans-74" x="1102.335938"/>
      <use xlink:href="#DejaVuSans-20" x="1141.544922"/>
      <use xlink:href="#DejaVuSans-3d" x="1173.332031"/>
      <use xlink:href="#DejaVuSans-20" x="1257.121094"/>
      <use xlink:href="#DejaVuSans-2d" x="1288.908203"/>
      <use xlink:href="#DejaVuSans-30" x="1324.992188"/>
      <use xlink:href="#DejaVuSans-2e" x="1388.615234"/>
      <use xlink:href="#DejaVuSans-30" x="1420.402344"/>
      <use xlink:href="#DejaVuSans-30" x="1484.025391"/>
      <use xlink:href="#DejaVuSans-30" x="1547.648438"/>
      <use xlink:href="#DejaVuSans-30" x="1611.271484"/>
      <use xlink:href="#DejaVuSans-30" x="1674.894531"/>
      <use xlink:href="#DejaVuSans-31" x="1738.517578"/>
      <use xlink:href="#DejaVuSans-20" x="1802.140625"/>
      <use xlink:href="#DejaVuSans-6d" x="1833.927734"/>
     </g>
    </g>
   </g>
  </g>
 </g>
 <defs>
  <clipPath id="p88d11720cd">
   <rect x="50.1725" y="21.7575" width="1004.4" height="498.96"/>
  </clipPath>
 </defs>
</svg>
