<?xml version="1.0" encoding="utf-8" standalone="no"?>
<!DOCTYPE svg PUBLIC "-//W3C//DTD SVG 1.1//EN"
  "http://www.w3.org/Graphics/SVG/1.1/DTD/svg11.dtd">
<svg xmlns:xlink="http://www.w3.org/1999/xlink" width="1070.21pt" height="562.7875pt" viewBox="0 0 1070.21 562.7875" xmlns="http://www.w3.org/2000/svg" version="1.1">
 <metadata>
  <rdf:RDF xmlns:dc="http://purl.org/dc/elements/1.1/" xmlns:cc="http://creativecommons.org/ns#" xmlns:rdf="http://www.w3.org/1999/02/22-rdf-syntax-ns#">
   <cc:Work>
    <dc:type rdf:resource="http://purl.org/dc/dcmitype/StillImage"/>
    <dc:date>2023-06-13T12:18:47.557759</dc:date>
    <dc:format>image/svg+xml</dc:format>
    <dc:creator>
     <cc:Agent>
      <dc:title>Matplotlib v3.7.1, https://matplotlib.org/</dc:title>
     </cc:Agent>
    </dc:creator>
   </cc:Work>
  </rdf:RDF>
 </metadata>
 <defs>
  <style type="text/css">*{stroke-linejoin: round; stroke-linecap: butt}</style>
 </defs>
 <g id="figure_1">
  <g id="patch_1">
   <path d="M 0 562.7875 
L 1070.21 562.7875 
L 1070.21 0 
L 0 0 
z
" style="fill: #ffffff"/>
  </g>
  <g id="axes_1">
   <g id="patch_2">
    <path d="M 62.21 520.7175 
L 1066.61 520.7175 
L 1066.61 21.7575 
L 62.21 21.7575 
z
" style="fill: #ffffff"/>
   </g>
   <g id="matplotlib.axis_1">
    <g id="xtick_1">
     <g id="line2d_1">
      <path d="M 130.25364 520.7175 
L 130.25364 21.7575 
" clip-path="url(#pa80f10cee3)" style="fill: none; stroke-dasharray: 1.85,0.8; stroke-dashoffset: 0; stroke: #000000; stroke-opacity: 0.5; stroke-width: 0.5"/>
     </g>
     <g id="line2d_2">
      <defs>
       <path id="m82144489e0" d="M 0 0 
L 0 -6 
" style="stroke: #000000"/>
      </defs>
      <g>
       <use xlink:href="#m82144489e0" x="130.25364" y="520.7175" style="stroke: #000000"/>
      </g>
     </g>
     <g id="line2d_3">
      <defs>
       <path id="m73dfeabbd1" d="M 0 0 
L 0 6 
" style="stroke: #000000"/>
      </defs>
      <g>
       <use xlink:href="#m73dfeabbd1" x="130.25364" y="21.7575" style="stroke: #000000"/>
      </g>
     </g>
     <g id="text_1">
      <!-- $\mathdefault{10^{-1}}$ -->
      <g transform="translate(111.45364 536.375) scale(0.16 -0.16)">
       <defs>
        <path id="DejaVuSans-31" d="M 794 531 
L 1825 531 
L 1825 4091 
L 703 3866 
L 703 4441 
L 1819 4666 
L 2450 4666 
L 2450 531 
L 3481 531 
L 3481 0 
L 794 0 
L 794 531 
z
" transform="scale(0.015625)"/>
        <path id="DejaVuSans-30" d="M 2034 4250 
Q 1547 4250 1301 3770 
Q 1056 3291 1056 2328 
Q 1056 1369 1301 889 
Q 1547 409 2034 409 
Q 2525 409 2770 889 
Q 3016 1369 3016 2328 
Q 3016 3291 2770 3770 
Q 2525 4250 2034 4250 
z
M 2034 4750 
Q 2819 4750 3233 4129 
Q 3647 3509 3647 2328 
Q 3647 1150 3233 529 
Q 2819 -91 2034 -91 
Q 1250 -91 836 529 
Q 422 1150 422 2328 
Q 422 3509 836 4129 
Q 1250 4750 2034 4750 
z
" transform="scale(0.015625)"/>
        <path id="DejaVuSans-2212" d="M 678 2272 
L 4684 2272 
L 4684 1741 
L 678 1741 
L 678 2272 
z
" transform="scale(0.015625)"/>
       </defs>
       <use xlink:href="#DejaVuSans-31" transform="translate(0 0.684375)"/>
       <use xlink:href="#DejaVuSans-30" transform="translate(63.623047 0.684375)"/>
       <use xlink:href="#DejaVuSans-2212" transform="translate(128.203125 38.965625) scale(0.7)"/>
       <use xlink:href="#DejaVuSans-31" transform="translate(186.855469 38.965625) scale(0.7)"/>
      </g>
     </g>
    </g>
    <g id="xtick_2">
     <g id="line2d_4">
      <path d="M 460.405605 520.7175 
L 460.405605 21.7575 
" clip-path="url(#pa80f10cee3)" style="fill: none; stroke-dasharray: 1.85,0.8; stroke-dashoffset: 0; stroke: #000000; stroke-opacity: 0.5; stroke-width: 0.5"/>
     </g>
     <g id="line2d_5">
      <g>
       <use xlink:href="#m82144489e0" x="460.405605" y="520.7175" style="stroke: #000000"/>
      </g>
     </g>
     <g id="line2d_6">
      <g>
       <use xlink:href="#m73dfeabbd1" x="460.405605" y="21.7575" style="stroke: #000000"/>
      </g>
     </g>
     <g id="text_2">
      <!-- $\mathdefault{10^{0}}$ -->
      <g transform="translate(446.325605 536.375) scale(0.16 -0.16)">
       <use xlink:href="#DejaVuSans-31" transform="translate(0 0.765625)"/>
       <use xlink:href="#DejaVuSans-30" transform="translate(63.623047 0.765625)"/>
       <use xlink:href="#DejaVuSans-30" transform="translate(128.203125 39.046875) scale(0.7)"/>
      </g>
     </g>
    </g>
    <g id="xtick_3">
     <g id="line2d_7">
      <path d="M 790.55757 520.7175 
L 790.55757 21.7575 
" clip-path="url(#pa80f10cee3)" style="fill: none; stroke-dasharray: 1.85,0.8; stroke-dashoffset: 0; stroke: #000000; stroke-opacity: 0.5; stroke-width: 0.5"/>
     </g>
     <g id="line2d_8">
      <g>
       <use xlink:href="#m82144489e0" x="790.55757" y="520.7175" style="stroke: #000000"/>
      </g>
     </g>
     <g id="line2d_9">
      <g>
       <use xlink:href="#m73dfeabbd1" x="790.55757" y="21.7575" style="stroke: #000000"/>
      </g>
     </g>
     <g id="text_3">
      <!-- $\mathdefault{10^{1}}$ -->
      <g transform="translate(776.47757 536.375) scale(0.16 -0.16)">
       <use xlink:href="#DejaVuSans-31" transform="translate(0 0.684375)"/>
       <use xlink:href="#DejaVuSans-30" transform="translate(63.623047 0.684375)"/>
       <use xlink:href="#DejaVuSans-31" transform="translate(128.203125 38.965625) scale(0.7)"/>
      </g>
     </g>
    </g>
    <g id="xtick_4">
     <g id="line2d_10">
      <defs>
       <path id="m67bcf14344" d="M 0 0 
L 0 -3 
" style="stroke: #000000"/>
      </defs>
      <g>
       <use xlink:href="#m67bcf14344" x="79.112453" y="520.7175" style="stroke: #000000"/>
      </g>
     </g>
     <g id="line2d_11">
      <defs>
       <path id="m98c2bcfad5" d="M 0 0 
L 0 3 
" style="stroke: #000000"/>
      </defs>
      <g>
       <use xlink:href="#m98c2bcfad5" x="79.112453" y="21.7575" style="stroke: #000000"/>
      </g>
     </g>
    </g>
    <g id="xtick_5">
     <g id="line2d_12">
      <g>
       <use xlink:href="#m67bcf14344" x="98.258608" y="520.7175" style="stroke: #000000"/>
      </g>
     </g>
     <g id="line2d_13">
      <g>
       <use xlink:href="#m98c2bcfad5" x="98.258608" y="21.7575" style="stroke: #000000"/>
      </g>
     </g>
    </g>
    <g id="xtick_6">
     <g id="line2d_14">
      <g>
       <use xlink:href="#m67bcf14344" x="115.146714" y="520.7175" style="stroke: #000000"/>
      </g>
     </g>
     <g id="line2d_15">
      <g>
       <use xlink:href="#m98c2bcfad5" x="115.146714" y="21.7575" style="stroke: #000000"/>
      </g>
     </g>
    </g>
    <g id="xtick_7">
     <g id="line2d_16">
      <g>
       <use xlink:href="#m67bcf14344" x="229.639284" y="520.7175" style="stroke: #000000"/>
      </g>
     </g>
     <g id="line2d_17">
      <g>
       <use xlink:href="#m98c2bcfad5" x="229.639284" y="21.7575" style="stroke: #000000"/>
      </g>
     </g>
    </g>
    <g id="xtick_8">
     <g id="line2d_18">
      <g>
       <use xlink:href="#m67bcf14344" x="287.77616" y="520.7175" style="stroke: #000000"/>
      </g>
     </g>
     <g id="line2d_19">
      <g>
       <use xlink:href="#m98c2bcfad5" x="287.77616" y="21.7575" style="stroke: #000000"/>
      </g>
     </g>
    </g>
    <g id="xtick_9">
     <g id="line2d_20">
      <g>
       <use xlink:href="#m67bcf14344" x="329.024929" y="520.7175" style="stroke: #000000"/>
      </g>
     </g>
     <g id="line2d_21">
      <g>
       <use xlink:href="#m98c2bcfad5" x="329.024929" y="21.7575" style="stroke: #000000"/>
      </g>
     </g>
    </g>
    <g id="xtick_10">
     <g id="line2d_22">
      <g>
       <use xlink:href="#m67bcf14344" x="361.01996" y="520.7175" style="stroke: #000000"/>
      </g>
     </g>
     <g id="line2d_23">
      <g>
       <use xlink:href="#m98c2bcfad5" x="361.01996" y="21.7575" style="stroke: #000000"/>
      </g>
     </g>
    </g>
    <g id="xtick_11">
     <g id="line2d_24">
      <g>
       <use xlink:href="#m67bcf14344" x="387.161804" y="520.7175" style="stroke: #000000"/>
      </g>
     </g>
     <g id="line2d_25">
      <g>
       <use xlink:href="#m98c2bcfad5" x="387.161804" y="21.7575" style="stroke: #000000"/>
      </g>
     </g>
    </g>
    <g id="xtick_12">
     <g id="line2d_26">
      <g>
       <use xlink:href="#m67bcf14344" x="409.264418" y="520.7175" style="stroke: #000000"/>
      </g>
     </g>
     <g id="line2d_27">
      <g>
       <use xlink:href="#m98c2bcfad5" x="409.264418" y="21.7575" style="stroke: #000000"/>
      </g>
     </g>
    </g>
    <g id="xtick_13">
     <g id="line2d_28">
      <g>
       <use xlink:href="#m67bcf14344" x="428.410574" y="520.7175" style="stroke: #000000"/>
      </g>
     </g>
     <g id="line2d_29">
      <g>
       <use xlink:href="#m98c2bcfad5" x="428.410574" y="21.7575" style="stroke: #000000"/>
      </g>
     </g>
    </g>
    <g id="xtick_14">
     <g id="line2d_30">
      <g>
       <use xlink:href="#m67bcf14344" x="445.29868" y="520.7175" style="stroke: #000000"/>
      </g>
     </g>
     <g id="line2d_31">
      <g>
       <use xlink:href="#m98c2bcfad5" x="445.29868" y="21.7575" style="stroke: #000000"/>
      </g>
     </g>
    </g>
    <g id="xtick_15">
     <g id="line2d_32">
      <g>
       <use xlink:href="#m67bcf14344" x="559.79125" y="520.7175" style="stroke: #000000"/>
      </g>
     </g>
     <g id="line2d_33">
      <g>
       <use xlink:href="#m98c2bcfad5" x="559.79125" y="21.7575" style="stroke: #000000"/>
      </g>
     </g>
    </g>
    <g id="xtick_16">
     <g id="line2d_34">
      <g>
       <use xlink:href="#m67bcf14344" x="617.928125" y="520.7175" style="stroke: #000000"/>
      </g>
     </g>
     <g id="line2d_35">
      <g>
       <use xlink:href="#m98c2bcfad5" x="617.928125" y="21.7575" style="stroke: #000000"/>
      </g>
     </g>
    </g>
    <g id="xtick_17">
     <g id="line2d_36">
      <g>
       <use xlink:href="#m67bcf14344" x="659.176894" y="520.7175" style="stroke: #000000"/>
      </g>
     </g>
     <g id="line2d_37">
      <g>
       <use xlink:href="#m98c2bcfad5" x="659.176894" y="21.7575" style="stroke: #000000"/>
      </g>
     </g>
    </g>
    <g id="xtick_18">
     <g id="line2d_38">
      <g>
       <use xlink:href="#m67bcf14344" x="691.171926" y="520.7175" style="stroke: #000000"/>
      </g>
     </g>
     <g id="line2d_39">
      <g>
       <use xlink:href="#m98c2bcfad5" x="691.171926" y="21.7575" style="stroke: #000000"/>
      </g>
     </g>
    </g>
    <g id="xtick_19">
     <g id="line2d_40">
      <g>
       <use xlink:href="#m67bcf14344" x="717.31377" y="520.7175" style="stroke: #000000"/>
      </g>
     </g>
     <g id="line2d_41">
      <g>
       <use xlink:href="#m98c2bcfad5" x="717.31377" y="21.7575" style="stroke: #000000"/>
      </g>
     </g>
    </g>
    <g id="xtick_20">
     <g id="line2d_42">
      <g>
       <use xlink:href="#m67bcf14344" x="739.416384" y="520.7175" style="stroke: #000000"/>
      </g>
     </g>
     <g id="line2d_43">
      <g>
       <use xlink:href="#m98c2bcfad5" x="739.416384" y="21.7575" style="stroke: #000000"/>
      </g>
     </g>
    </g>
    <g id="xtick_21">
     <g id="line2d_44">
      <g>
       <use xlink:href="#m67bcf14344" x="758.562539" y="520.7175" style="stroke: #000000"/>
      </g>
     </g>
     <g id="line2d_45">
      <g>
       <use xlink:href="#m98c2bcfad5" x="758.562539" y="21.7575" style="stroke: #000000"/>
      </g>
     </g>
    </g>
    <g id="xtick_22">
     <g id="line2d_46">
      <g>
       <use xlink:href="#m67bcf14344" x="775.450645" y="520.7175" style="stroke: #000000"/>
      </g>
     </g>
     <g id="line2d_47">
      <g>
       <use xlink:href="#m98c2bcfad5" x="775.450645" y="21.7575" style="stroke: #000000"/>
      </g>
     </g>
    </g>
    <g id="xtick_23">
     <g id="line2d_48">
      <g>
       <use xlink:href="#m67bcf14344" x="889.943215" y="520.7175" style="stroke: #000000"/>
      </g>
     </g>
     <g id="line2d_49">
      <g>
       <use xlink:href="#m98c2bcfad5" x="889.943215" y="21.7575" style="stroke: #000000"/>
      </g>
     </g>
    </g>
    <g id="xtick_24">
     <g id="line2d_50">
      <g>
       <use xlink:href="#m67bcf14344" x="948.08009" y="520.7175" style="stroke: #000000"/>
      </g>
     </g>
     <g id="line2d_51">
      <g>
       <use xlink:href="#m98c2bcfad5" x="948.08009" y="21.7575" style="stroke: #000000"/>
      </g>
     </g>
    </g>
    <g id="xtick_25">
     <g id="line2d_52">
      <g>
       <use xlink:href="#m67bcf14344" x="989.32886" y="520.7175" style="stroke: #000000"/>
      </g>
     </g>
     <g id="line2d_53">
      <g>
       <use xlink:href="#m98c2bcfad5" x="989.32886" y="21.7575" style="stroke: #000000"/>
      </g>
     </g>
    </g>
    <g id="xtick_26">
     <g id="line2d_54">
      <g>
       <use xlink:href="#m67bcf14344" x="1021.323891" y="520.7175" style="stroke: #000000"/>
      </g>
     </g>
     <g id="line2d_55">
      <g>
       <use xlink:href="#m98c2bcfad5" x="1021.323891" y="21.7575" style="stroke: #000000"/>
      </g>
     </g>
    </g>
    <g id="xtick_27">
     <g id="line2d_56">
      <g>
       <use xlink:href="#m67bcf14344" x="1047.465735" y="520.7175" style="stroke: #000000"/>
      </g>
     </g>
     <g id="line2d_57">
      <g>
       <use xlink:href="#m98c2bcfad5" x="1047.465735" y="21.7575" style="stroke: #000000"/>
      </g>
     </g>
    </g>
    <g id="text_4">
     <!-- Frequency (Hz) -->
     <g transform="translate(504.0825 555.86) scale(0.16 -0.16)">
      <defs>
       <path id="DejaVuSans-46" d="M 628 4666 
L 3309 4666 
L 3309 4134 
L 1259 4134 
L 1259 2759 
L 3109 2759 
L 3109 2228 
L 1259 2228 
L 1259 0 
L 628 0 
L 628 4666 
z
" transform="scale(0.015625)"/>
       <path id="DejaVuSans-72" d="M 2631 2963 
Q 2534 3019 2420 3045 
Q 2306 3072 2169 3072 
Q 1681 3072 1420 2755 
Q 1159 2438 1159 1844 
L 1159 0 
L 581 0 
L 581 3500 
L 1159 3500 
L 1159 2956 
Q 1341 3275 1631 3429 
Q 1922 3584 2338 3584 
Q 2397 3584 2469 3576 
Q 2541 3569 2628 3553 
L 2631 2963 
z
" transform="scale(0.015625)"/>
       <path id="DejaVuSans-65" d="M 3597 1894 
L 3597 1613 
L 953 1613 
Q 991 1019 1311 708 
Q 1631 397 2203 397 
Q 2534 397 2845 478 
Q 3156 559 3463 722 
L 3463 178 
Q 3153 47 2828 -22 
Q 2503 -91 2169 -91 
Q 1331 -91 842 396 
Q 353 884 353 1716 
Q 353 2575 817 3079 
Q 1281 3584 2069 3584 
Q 2775 3584 3186 3129 
Q 3597 2675 3597 1894 
z
M 3022 2063 
Q 3016 2534 2758 2815 
Q 2500 3097 2075 3097 
Q 1594 3097 1305 2825 
Q 1016 2553 972 2059 
L 3022 2063 
z
" transform="scale(0.015625)"/>
       <path id="DejaVuSans-71" d="M 947 1747 
Q 947 1113 1208 752 
Q 1469 391 1925 391 
Q 2381 391 2643 752 
Q 2906 1113 2906 1747 
Q 2906 2381 2643 2742 
Q 2381 3103 1925 3103 
Q 1469 3103 1208 2742 
Q 947 2381 947 1747 
z
M 2906 525 
Q 2725 213 2448 61 
Q 2172 -91 1784 -91 
Q 1150 -91 751 415 
Q 353 922 353 1747 
Q 353 2572 751 3078 
Q 1150 3584 1784 3584 
Q 2172 3584 2448 3432 
Q 2725 3281 2906 2969 
L 2906 3500 
L 3481 3500 
L 3481 -1331 
L 2906 -1331 
L 2906 525 
z
" transform="scale(0.015625)"/>
       <path id="DejaVuSans-75" d="M 544 1381 
L 544 3500 
L 1119 3500 
L 1119 1403 
Q 1119 906 1312 657 
Q 1506 409 1894 409 
Q 2359 409 2629 706 
Q 2900 1003 2900 1516 
L 2900 3500 
L 3475 3500 
L 3475 0 
L 2900 0 
L 2900 538 
Q 2691 219 2414 64 
Q 2138 -91 1772 -91 
Q 1169 -91 856 284 
Q 544 659 544 1381 
z
M 1991 3584 
L 1991 3584 
z
" transform="scale(0.015625)"/>
       <path id="DejaVuSans-6e" d="M 3513 2113 
L 3513 0 
L 2938 0 
L 2938 2094 
Q 2938 2591 2744 2837 
Q 2550 3084 2163 3084 
Q 1697 3084 1428 2787 
Q 1159 2491 1159 1978 
L 1159 0 
L 581 0 
L 581 3500 
L 1159 3500 
L 1159 2956 
Q 1366 3272 1645 3428 
Q 1925 3584 2291 3584 
Q 2894 3584 3203 3211 
Q 3513 2838 3513 2113 
z
" transform="scale(0.015625)"/>
       <path id="DejaVuSans-63" d="M 3122 3366 
L 3122 2828 
Q 2878 2963 2633 3030 
Q 2388 3097 2138 3097 
Q 1578 3097 1268 2742 
Q 959 2388 959 1747 
Q 959 1106 1268 751 
Q 1578 397 2138 397 
Q 2388 397 2633 464 
Q 2878 531 3122 666 
L 3122 134 
Q 2881 22 2623 -34 
Q 2366 -91 2075 -91 
Q 1284 -91 818 406 
Q 353 903 353 1747 
Q 353 2603 823 3093 
Q 1294 3584 2113 3584 
Q 2378 3584 2631 3529 
Q 2884 3475 3122 3366 
z
" transform="scale(0.015625)"/>
       <path id="DejaVuSans-79" d="M 2059 -325 
Q 1816 -950 1584 -1140 
Q 1353 -1331 966 -1331 
L 506 -1331 
L 506 -850 
L 844 -850 
Q 1081 -850 1212 -737 
Q 1344 -625 1503 -206 
L 1606 56 
L 191 3500 
L 800 3500 
L 1894 763 
L 2988 3500 
L 3597 3500 
L 2059 -325 
z
" transform="scale(0.015625)"/>
       <path id="DejaVuSans-20" transform="scale(0.015625)"/>
       <path id="DejaVuSans-28" d="M 1984 4856 
Q 1566 4138 1362 3434 
Q 1159 2731 1159 2009 
Q 1159 1288 1364 580 
Q 1569 -128 1984 -844 
L 1484 -844 
Q 1016 -109 783 600 
Q 550 1309 550 2009 
Q 550 2706 781 3412 
Q 1013 4119 1484 4856 
L 1984 4856 
z
" transform="scale(0.015625)"/>
       <path id="DejaVuSans-48" d="M 628 4666 
L 1259 4666 
L 1259 2753 
L 3553 2753 
L 3553 4666 
L 4184 4666 
L 4184 0 
L 3553 0 
L 3553 2222 
L 1259 2222 
L 1259 0 
L 628 0 
L 628 4666 
z
" transform="scale(0.015625)"/>
       <path id="DejaVuSans-7a" d="M 353 3500 
L 3084 3500 
L 3084 2975 
L 922 459 
L 3084 459 
L 3084 0 
L 275 0 
L 275 525 
L 2438 3041 
L 353 3041 
L 353 3500 
z
" transform="scale(0.015625)"/>
       <path id="DejaVuSans-29" d="M 513 4856 
L 1013 4856 
Q 1481 4119 1714 3412 
Q 1947 2706 1947 2009 
Q 1947 1309 1714 600 
Q 1481 -109 1013 -844 
L 513 -844 
Q 928 -128 1133 580 
Q 1338 1288 1338 2009 
Q 1338 2731 1133 3434 
Q 928 4138 513 4856 
z
" transform="scale(0.015625)"/>
      </defs>
      <use xlink:href="#DejaVuSans-46"/>
      <use xlink:href="#DejaVuSans-72" x="50.269531"/>
      <use xlink:href="#DejaVuSans-65" x="89.132812"/>
      <use xlink:href="#DejaVuSans-71" x="150.65625"/>
      <use xlink:href="#DejaVuSans-75" x="214.132812"/>
      <use xlink:href="#DejaVuSans-65" x="277.511719"/>
      <use xlink:href="#DejaVuSans-6e" x="339.035156"/>
      <use xlink:href="#DejaVuSans-63" x="402.414062"/>
      <use xlink:href="#DejaVuSans-79" x="457.394531"/>
      <use xlink:href="#DejaVuSans-20" x="516.574219"/>
      <use xlink:href="#DejaVuSans-28" x="548.361328"/>
      <use xlink:href="#DejaVuSans-48" x="587.375"/>
      <use xlink:href="#DejaVuSans-7a" x="662.570312"/>
      <use xlink:href="#DejaVuSans-29" x="715.060547"/>
     </g>
    </g>
   </g>
   <g id="matplotlib.axis_2">
    <g id="ytick_1">
     <g id="line2d_58">
      <path d="M 62.21 498.101513 
L 1066.61 498.101513 
" clip-path="url(#pa80f10cee3)" style="fill: none; stroke-dasharray: 1.85,0.8; stroke-dashoffset: 0; stroke: #000000; stroke-opacity: 0.5; stroke-width: 0.5"/>
     </g>
     <g id="line2d_59">
      <defs>
       <path id="m828637b90f" d="M 0 0 
L 6 0 
" style="stroke: #000000"/>
      </defs>
      <g>
       <use xlink:href="#m828637b90f" x="62.21" y="498.101513" style="stroke: #000000"/>
      </g>
     </g>
     <g id="line2d_60">
      <defs>
       <path id="madac89a5ce" d="M 0 0 
L -6 0 
" style="stroke: #000000"/>
      </defs>
      <g>
       <use xlink:href="#madac89a5ce" x="1066.61" y="498.101513" style="stroke: #000000"/>
      </g>
     </g>
     <g id="text_5">
      <!-- 0.0 -->
      <g transform="translate(33.265 504.180263) scale(0.16 -0.16)">
       <defs>
        <path id="DejaVuSans-2e" d="M 684 794 
L 1344 794 
L 1344 0 
L 684 0 
L 684 794 
z
" transform="scale(0.015625)"/>
       </defs>
       <use xlink:href="#DejaVuSans-30"/>
       <use xlink:href="#DejaVuSans-2e" x="63.623047"/>
       <use xlink:href="#DejaVuSans-30" x="95.410156"/>
      </g>
     </g>
    </g>
    <g id="ytick_2">
     <g id="line2d_61">
      <path d="M 62.21 441.4784 
L 1066.61 441.4784 
" clip-path="url(#pa80f10cee3)" style="fill: none; stroke-dasharray: 1.85,0.8; stroke-dashoffset: 0; stroke: #000000; stroke-opacity: 0.5; stroke-width: 0.5"/>
     </g>
     <g id="line2d_62">
      <g>
       <use xlink:href="#m828637b90f" x="62.21" y="441.4784" style="stroke: #000000"/>
      </g>
     </g>
     <g id="line2d_63">
      <g>
       <use xlink:href="#madac89a5ce" x="1066.61" y="441.4784" style="stroke: #000000"/>
      </g>
     </g>
     <g id="text_6">
      <!-- 2.5 -->
      <g transform="translate(33.265 447.55715) scale(0.16 -0.16)">
       <defs>
        <path id="DejaVuSans-32" d="M 1228 531 
L 3431 531 
L 3431 0 
L 469 0 
L 469 531 
Q 828 903 1448 1529 
Q 2069 2156 2228 2338 
Q 2531 2678 2651 2914 
Q 2772 3150 2772 3378 
Q 2772 3750 2511 3984 
Q 2250 4219 1831 4219 
Q 1534 4219 1204 4116 
Q 875 4013 500 3803 
L 500 4441 
Q 881 4594 1212 4672 
Q 1544 4750 1819 4750 
Q 2544 4750 2975 4387 
Q 3406 4025 3406 3419 
Q 3406 3131 3298 2873 
Q 3191 2616 2906 2266 
Q 2828 2175 2409 1742 
Q 1991 1309 1228 531 
z
" transform="scale(0.015625)"/>
        <path id="DejaVuSans-35" d="M 691 4666 
L 3169 4666 
L 3169 4134 
L 1269 4134 
L 1269 2991 
Q 1406 3038 1543 3061 
Q 1681 3084 1819 3084 
Q 2600 3084 3056 2656 
Q 3513 2228 3513 1497 
Q 3513 744 3044 326 
Q 2575 -91 1722 -91 
Q 1428 -91 1123 -41 
Q 819 9 494 109 
L 494 744 
Q 775 591 1075 516 
Q 1375 441 1709 441 
Q 2250 441 2565 725 
Q 2881 1009 2881 1497 
Q 2881 1984 2565 2268 
Q 2250 2553 1709 2553 
Q 1456 2553 1204 2497 
Q 953 2441 691 2322 
L 691 4666 
z
" transform="scale(0.015625)"/>
       </defs>
       <use xlink:href="#DejaVuSans-32"/>
       <use xlink:href="#DejaVuSans-2e" x="63.623047"/>
       <use xlink:href="#DejaVuSans-35" x="95.410156"/>
      </g>
     </g>
    </g>
    <g id="ytick_3">
     <g id="line2d_64">
      <path d="M 62.21 384.855287 
L 1066.61 384.855287 
" clip-path="url(#pa80f10cee3)" style="fill: none; stroke-dasharray: 1.85,0.8; stroke-dashoffset: 0; stroke: #000000; stroke-opacity: 0.5; stroke-width: 0.5"/>
     </g>
     <g id="line2d_65">
      <g>
       <use xlink:href="#m828637b90f" x="62.21" y="384.855287" style="stroke: #000000"/>
      </g>
     </g>
     <g id="line2d_66">
      <g>
       <use xlink:href="#madac89a5ce" x="1066.61" y="384.855287" style="stroke: #000000"/>
      </g>
     </g>
     <g id="text_7">
      <!-- 5.0 -->
      <g transform="translate(33.265 390.934037) scale(0.16 -0.16)">
       <use xlink:href="#DejaVuSans-35"/>
       <use xlink:href="#DejaVuSans-2e" x="63.623047"/>
       <use xlink:href="#DejaVuSans-30" x="95.410156"/>
      </g>
     </g>
    </g>
    <g id="ytick_4">
     <g id="line2d_67">
      <path d="M 62.21 328.232175 
L 1066.61 328.232175 
" clip-path="url(#pa80f10cee3)" style="fill: none; stroke-dasharray: 1.85,0.8; stroke-dashoffset: 0; stroke: #000000; stroke-opacity: 0.5; stroke-width: 0.5"/>
     </g>
     <g id="line2d_68">
      <g>
       <use xlink:href="#m828637b90f" x="62.21" y="328.232175" style="stroke: #000000"/>
      </g>
     </g>
     <g id="line2d_69">
      <g>
       <use xlink:href="#madac89a5ce" x="1066.61" y="328.232175" style="stroke: #000000"/>
      </g>
     </g>
     <g id="text_8">
      <!-- 7.5 -->
      <g transform="translate(33.265 334.310925) scale(0.16 -0.16)">
       <defs>
        <path id="DejaVuSans-37" d="M 525 4666 
L 3525 4666 
L 3525 4397 
L 1831 0 
L 1172 0 
L 2766 4134 
L 525 4134 
L 525 4666 
z
" transform="scale(0.015625)"/>
       </defs>
       <use xlink:href="#DejaVuSans-37"/>
       <use xlink:href="#DejaVuSans-2e" x="63.623047"/>
       <use xlink:href="#DejaVuSans-35" x="95.410156"/>
      </g>
     </g>
    </g>
    <g id="ytick_5">
     <g id="line2d_70">
      <path d="M 62.21 271.609062 
L 1066.61 271.609062 
" clip-path="url(#pa80f10cee3)" style="fill: none; stroke-dasharray: 1.85,0.8; stroke-dashoffset: 0; stroke: #000000; stroke-opacity: 0.5; stroke-width: 0.5"/>
     </g>
     <g id="line2d_71">
      <g>
       <use xlink:href="#m828637b90f" x="62.21" y="271.609062" style="stroke: #000000"/>
      </g>
     </g>
     <g id="line2d_72">
      <g>
       <use xlink:href="#madac89a5ce" x="1066.61" y="271.609062" style="stroke: #000000"/>
      </g>
     </g>
     <g id="text_9">
      <!-- 10.0 -->
      <g transform="translate(23.085 277.687812) scale(0.16 -0.16)">
       <use xlink:href="#DejaVuSans-31"/>
       <use xlink:href="#DejaVuSans-30" x="63.623047"/>
       <use xlink:href="#DejaVuSans-2e" x="127.246094"/>
       <use xlink:href="#DejaVuSans-30" x="159.033203"/>
      </g>
     </g>
    </g>
    <g id="ytick_6">
     <g id="line2d_73">
      <path d="M 62.21 214.985949 
L 1066.61 214.985949 
" clip-path="url(#pa80f10cee3)" style="fill: none; stroke-dasharray: 1.85,0.8; stroke-dashoffset: 0; stroke: #000000; stroke-opacity: 0.5; stroke-width: 0.5"/>
     </g>
     <g id="line2d_74">
      <g>
       <use xlink:href="#m828637b90f" x="62.21" y="214.985949" style="stroke: #000000"/>
      </g>
     </g>
     <g id="line2d_75">
      <g>
       <use xlink:href="#madac89a5ce" x="1066.61" y="214.985949" style="stroke: #000000"/>
      </g>
     </g>
     <g id="text_10">
      <!-- 12.5 -->
      <g transform="translate(23.085 221.064699) scale(0.16 -0.16)">
       <use xlink:href="#DejaVuSans-31"/>
       <use xlink:href="#DejaVuSans-32" x="63.623047"/>
       <use xlink:href="#DejaVuSans-2e" x="127.246094"/>
       <use xlink:href="#DejaVuSans-35" x="159.033203"/>
      </g>
     </g>
    </g>
    <g id="ytick_7">
     <g id="line2d_76">
      <path d="M 62.21 158.362836 
L 1066.61 158.362836 
" clip-path="url(#pa80f10cee3)" style="fill: none; stroke-dasharray: 1.85,0.8; stroke-dashoffset: 0; stroke: #000000; stroke-opacity: 0.5; stroke-width: 0.5"/>
     </g>
     <g id="line2d_77">
      <g>
       <use xlink:href="#m828637b90f" x="62.21" y="158.362836" style="stroke: #000000"/>
      </g>
     </g>
     <g id="line2d_78">
      <g>
       <use xlink:href="#madac89a5ce" x="1066.61" y="158.362836" style="stroke: #000000"/>
      </g>
     </g>
     <g id="text_11">
      <!-- 15.0 -->
      <g transform="translate(23.085 164.441586) scale(0.16 -0.16)">
       <use xlink:href="#DejaVuSans-31"/>
       <use xlink:href="#DejaVuSans-35" x="63.623047"/>
       <use xlink:href="#DejaVuSans-2e" x="127.246094"/>
       <use xlink:href="#DejaVuSans-30" x="159.033203"/>
      </g>
     </g>
    </g>
    <g id="ytick_8">
     <g id="line2d_79">
      <path d="M 62.21 101.739723 
L 1066.61 101.739723 
" clip-path="url(#pa80f10cee3)" style="fill: none; stroke-dasharray: 1.85,0.8; stroke-dashoffset: 0; stroke: #000000; stroke-opacity: 0.5; stroke-width: 0.5"/>
     </g>
     <g id="line2d_80">
      <g>
       <use xlink:href="#m828637b90f" x="62.21" y="101.739723" style="stroke: #000000"/>
      </g>
     </g>
     <g id="line2d_81">
      <g>
       <use xlink:href="#madac89a5ce" x="1066.61" y="101.739723" style="stroke: #000000"/>
      </g>
     </g>
     <g id="text_12">
      <!-- 17.5 -->
      <g transform="translate(23.085 107.818473) scale(0.16 -0.16)">
       <use xlink:href="#DejaVuSans-31"/>
       <use xlink:href="#DejaVuSans-37" x="63.623047"/>
       <use xlink:href="#DejaVuSans-2e" x="127.246094"/>
       <use xlink:href="#DejaVuSans-35" x="159.033203"/>
      </g>
     </g>
    </g>
    <g id="ytick_9">
     <g id="line2d_82">
      <path d="M 62.21 45.116611 
L 1066.61 45.116611 
" clip-path="url(#pa80f10cee3)" style="fill: none; stroke-dasharray: 1.85,0.8; stroke-dashoffset: 0; stroke: #000000; stroke-opacity: 0.5; stroke-width: 0.5"/>
     </g>
     <g id="line2d_83">
      <g>
       <use xlink:href="#m828637b90f" x="62.21" y="45.116611" style="stroke: #000000"/>
      </g>
     </g>
     <g id="line2d_84">
      <g>
       <use xlink:href="#madac89a5ce" x="1066.61" y="45.116611" style="stroke: #000000"/>
      </g>
     </g>
     <g id="text_13">
      <!-- 20.0 -->
      <g transform="translate(23.085 51.195361) scale(0.16 -0.16)">
       <use xlink:href="#DejaVuSans-32"/>
       <use xlink:href="#DejaVuSans-30" x="63.623047"/>
       <use xlink:href="#DejaVuSans-2e" x="127.246094"/>
       <use xlink:href="#DejaVuSans-30" x="159.033203"/>
      </g>
     </g>
    </g>
    <g id="ytick_10">
     <g id="line2d_85">
      <defs>
       <path id="m818b1b56d8" d="M 0 0 
L 3 0 
" style="stroke: #000000"/>
      </defs>
      <g>
       <use xlink:href="#m818b1b56d8" x="62.21" y="509.426136" style="stroke: #000000"/>
      </g>
     </g>
     <g id="line2d_86">
      <defs>
       <path id="mf5a08f76d4" d="M 0 0 
L -3 0 
" style="stroke: #000000"/>
      </defs>
      <g>
       <use xlink:href="#mf5a08f76d4" x="1066.61" y="509.426136" style="stroke: #000000"/>
      </g>
     </g>
    </g>
    <g id="ytick_11">
     <g id="line2d_87">
      <g>
       <use xlink:href="#m818b1b56d8" x="62.21" y="486.77689" style="stroke: #000000"/>
      </g>
     </g>
     <g id="line2d_88">
      <g>
       <use xlink:href="#mf5a08f76d4" x="1066.61" y="486.77689" style="stroke: #000000"/>
      </g>
     </g>
    </g>
    <g id="ytick_12">
     <g id="line2d_89">
      <g>
       <use xlink:href="#m818b1b56d8" x="62.21" y="475.452268" style="stroke: #000000"/>
      </g>
     </g>
     <g id="line2d_90">
      <g>
       <use xlink:href="#mf5a08f76d4" x="1066.61" y="475.452268" style="stroke: #000000"/>
      </g>
     </g>
    </g>
    <g id="ytick_13">
     <g id="line2d_91">
      <g>
       <use xlink:href="#m818b1b56d8" x="62.21" y="464.127645" style="stroke: #000000"/>
      </g>
     </g>
     <g id="line2d_92">
      <g>
       <use xlink:href="#mf5a08f76d4" x="1066.61" y="464.127645" style="stroke: #000000"/>
      </g>
     </g>
    </g>
    <g id="ytick_14">
     <g id="line2d_93">
      <g>
       <use xlink:href="#m818b1b56d8" x="62.21" y="452.803023" style="stroke: #000000"/>
      </g>
     </g>
     <g id="line2d_94">
      <g>
       <use xlink:href="#mf5a08f76d4" x="1066.61" y="452.803023" style="stroke: #000000"/>
      </g>
     </g>
    </g>
    <g id="ytick_15">
     <g id="line2d_95">
      <g>
       <use xlink:href="#m818b1b56d8" x="62.21" y="430.153778" style="stroke: #000000"/>
      </g>
     </g>
     <g id="line2d_96">
      <g>
       <use xlink:href="#mf5a08f76d4" x="1066.61" y="430.153778" style="stroke: #000000"/>
      </g>
     </g>
    </g>
    <g id="ytick_16">
     <g id="line2d_97">
      <g>
       <use xlink:href="#m818b1b56d8" x="62.21" y="418.829155" style="stroke: #000000"/>
      </g>
     </g>
     <g id="line2d_98">
      <g>
       <use xlink:href="#mf5a08f76d4" x="1066.61" y="418.829155" style="stroke: #000000"/>
      </g>
     </g>
    </g>
    <g id="ytick_17">
     <g id="line2d_99">
      <g>
       <use xlink:href="#m818b1b56d8" x="62.21" y="407.504532" style="stroke: #000000"/>
      </g>
     </g>
     <g id="line2d_100">
      <g>
       <use xlink:href="#mf5a08f76d4" x="1066.61" y="407.504532" style="stroke: #000000"/>
      </g>
     </g>
    </g>
    <g id="ytick_18">
     <g id="line2d_101">
      <g>
       <use xlink:href="#m818b1b56d8" x="62.21" y="396.17991" style="stroke: #000000"/>
      </g>
     </g>
     <g id="line2d_102">
      <g>
       <use xlink:href="#mf5a08f76d4" x="1066.61" y="396.17991" style="stroke: #000000"/>
      </g>
     </g>
    </g>
    <g id="ytick_19">
     <g id="line2d_103">
      <g>
       <use xlink:href="#m818b1b56d8" x="62.21" y="373.530665" style="stroke: #000000"/>
      </g>
     </g>
     <g id="line2d_104">
      <g>
       <use xlink:href="#mf5a08f76d4" x="1066.61" y="373.530665" style="stroke: #000000"/>
      </g>
     </g>
    </g>
    <g id="ytick_20">
     <g id="line2d_105">
      <g>
       <use xlink:href="#m818b1b56d8" x="62.21" y="362.206042" style="stroke: #000000"/>
      </g>
     </g>
     <g id="line2d_106">
      <g>
       <use xlink:href="#mf5a08f76d4" x="1066.61" y="362.206042" style="stroke: #000000"/>
      </g>
     </g>
    </g>
    <g id="ytick_21">
     <g id="line2d_107">
      <g>
       <use xlink:href="#m818b1b56d8" x="62.21" y="350.88142" style="stroke: #000000"/>
      </g>
     </g>
     <g id="line2d_108">
      <g>
       <use xlink:href="#mf5a08f76d4" x="1066.61" y="350.88142" style="stroke: #000000"/>
      </g>
     </g>
    </g>
    <g id="ytick_22">
     <g id="line2d_109">
      <g>
       <use xlink:href="#m818b1b56d8" x="62.21" y="339.556797" style="stroke: #000000"/>
      </g>
     </g>
     <g id="line2d_110">
      <g>
       <use xlink:href="#mf5a08f76d4" x="1066.61" y="339.556797" style="stroke: #000000"/>
      </g>
     </g>
    </g>
    <g id="ytick_23">
     <g id="line2d_111">
      <g>
       <use xlink:href="#m818b1b56d8" x="62.21" y="316.907552" style="stroke: #000000"/>
      </g>
     </g>
     <g id="line2d_112">
      <g>
       <use xlink:href="#mf5a08f76d4" x="1066.61" y="316.907552" style="stroke: #000000"/>
      </g>
     </g>
    </g>
    <g id="ytick_24">
     <g id="line2d_113">
      <g>
       <use xlink:href="#m818b1b56d8" x="62.21" y="305.582929" style="stroke: #000000"/>
      </g>
     </g>
     <g id="line2d_114">
      <g>
       <use xlink:href="#mf5a08f76d4" x="1066.61" y="305.582929" style="stroke: #000000"/>
      </g>
     </g>
    </g>
    <g id="ytick_25">
     <g id="line2d_115">
      <g>
       <use xlink:href="#m818b1b56d8" x="62.21" y="294.258307" style="stroke: #000000"/>
      </g>
     </g>
     <g id="line2d_116">
      <g>
       <use xlink:href="#mf5a08f76d4" x="1066.61" y="294.258307" style="stroke: #000000"/>
      </g>
     </g>
    </g>
    <g id="ytick_26">
     <g id="line2d_117">
      <g>
       <use xlink:href="#m818b1b56d8" x="62.21" y="282.933684" style="stroke: #000000"/>
      </g>
     </g>
     <g id="line2d_118">
      <g>
       <use xlink:href="#mf5a08f76d4" x="1066.61" y="282.933684" style="stroke: #000000"/>
      </g>
     </g>
    </g>
    <g id="ytick_27">
     <g id="line2d_119">
      <g>
       <use xlink:href="#m818b1b56d8" x="62.21" y="260.284439" style="stroke: #000000"/>
      </g>
     </g>
     <g id="line2d_120">
      <g>
       <use xlink:href="#mf5a08f76d4" x="1066.61" y="260.284439" style="stroke: #000000"/>
      </g>
     </g>
    </g>
    <g id="ytick_28">
     <g id="line2d_121">
      <g>
       <use xlink:href="#m818b1b56d8" x="62.21" y="248.959817" style="stroke: #000000"/>
      </g>
     </g>
     <g id="line2d_122">
      <g>
       <use xlink:href="#mf5a08f76d4" x="1066.61" y="248.959817" style="stroke: #000000"/>
      </g>
     </g>
    </g>
    <g id="ytick_29">
     <g id="line2d_123">
      <g>
       <use xlink:href="#m818b1b56d8" x="62.21" y="237.635194" style="stroke: #000000"/>
      </g>
     </g>
     <g id="line2d_124">
      <g>
       <use xlink:href="#mf5a08f76d4" x="1066.61" y="237.635194" style="stroke: #000000"/>
      </g>
     </g>
    </g>
    <g id="ytick_30">
     <g id="line2d_125">
      <g>
       <use xlink:href="#m818b1b56d8" x="62.21" y="226.310571" style="stroke: #000000"/>
      </g>
     </g>
     <g id="line2d_126">
      <g>
       <use xlink:href="#mf5a08f76d4" x="1066.61" y="226.310571" style="stroke: #000000"/>
      </g>
     </g>
    </g>
    <g id="ytick_31">
     <g id="line2d_127">
      <g>
       <use xlink:href="#m818b1b56d8" x="62.21" y="203.661326" style="stroke: #000000"/>
      </g>
     </g>
     <g id="line2d_128">
      <g>
       <use xlink:href="#mf5a08f76d4" x="1066.61" y="203.661326" style="stroke: #000000"/>
      </g>
     </g>
    </g>
    <g id="ytick_32">
     <g id="line2d_129">
      <g>
       <use xlink:href="#m818b1b56d8" x="62.21" y="192.336704" style="stroke: #000000"/>
      </g>
     </g>
     <g id="line2d_130">
      <g>
       <use xlink:href="#mf5a08f76d4" x="1066.61" y="192.336704" style="stroke: #000000"/>
      </g>
     </g>
    </g>
    <g id="ytick_33">
     <g id="line2d_131">
      <g>
       <use xlink:href="#m818b1b56d8" x="62.21" y="181.012081" style="stroke: #000000"/>
      </g>
     </g>
     <g id="line2d_132">
      <g>
       <use xlink:href="#mf5a08f76d4" x="1066.61" y="181.012081" style="stroke: #000000"/>
      </g>
     </g>
    </g>
    <g id="ytick_34">
     <g id="line2d_133">
      <g>
       <use xlink:href="#m818b1b56d8" x="62.21" y="169.687459" style="stroke: #000000"/>
      </g>
     </g>
     <g id="line2d_134">
      <g>
       <use xlink:href="#mf5a08f76d4" x="1066.61" y="169.687459" style="stroke: #000000"/>
      </g>
     </g>
    </g>
    <g id="ytick_35">
     <g id="line2d_135">
      <g>
       <use xlink:href="#m818b1b56d8" x="62.21" y="147.038214" style="stroke: #000000"/>
      </g>
     </g>
     <g id="line2d_136">
      <g>
       <use xlink:href="#mf5a08f76d4" x="1066.61" y="147.038214" style="stroke: #000000"/>
      </g>
     </g>
    </g>
    <g id="ytick_36">
     <g id="line2d_137">
      <g>
       <use xlink:href="#m818b1b56d8" x="62.21" y="135.713591" style="stroke: #000000"/>
      </g>
     </g>
     <g id="line2d_138">
      <g>
       <use xlink:href="#mf5a08f76d4" x="1066.61" y="135.713591" style="stroke: #000000"/>
      </g>
     </g>
    </g>
    <g id="ytick_37">
     <g id="line2d_139">
      <g>
       <use xlink:href="#m818b1b56d8" x="62.21" y="124.388968" style="stroke: #000000"/>
      </g>
     </g>
     <g id="line2d_140">
      <g>
       <use xlink:href="#mf5a08f76d4" x="1066.61" y="124.388968" style="stroke: #000000"/>
      </g>
     </g>
    </g>
    <g id="ytick_38">
     <g id="line2d_141">
      <g>
       <use xlink:href="#m818b1b56d8" x="62.21" y="113.064346" style="stroke: #000000"/>
      </g>
     </g>
     <g id="line2d_142">
      <g>
       <use xlink:href="#mf5a08f76d4" x="1066.61" y="113.064346" style="stroke: #000000"/>
      </g>
     </g>
    </g>
    <g id="ytick_39">
     <g id="line2d_143">
      <g>
       <use xlink:href="#m818b1b56d8" x="62.21" y="90.415101" style="stroke: #000000"/>
      </g>
     </g>
     <g id="line2d_144">
      <g>
       <use xlink:href="#mf5a08f76d4" x="1066.61" y="90.415101" style="stroke: #000000"/>
      </g>
     </g>
    </g>
    <g id="ytick_40">
     <g id="line2d_145">
      <g>
       <use xlink:href="#m818b1b56d8" x="62.21" y="79.090478" style="stroke: #000000"/>
      </g>
     </g>
     <g id="line2d_146">
      <g>
       <use xlink:href="#mf5a08f76d4" x="1066.61" y="79.090478" style="stroke: #000000"/>
      </g>
     </g>
    </g>
    <g id="ytick_41">
     <g id="line2d_147">
      <g>
       <use xlink:href="#m818b1b56d8" x="62.21" y="67.765856" style="stroke: #000000"/>
      </g>
     </g>
     <g id="line2d_148">
      <g>
       <use xlink:href="#mf5a08f76d4" x="1066.61" y="67.765856" style="stroke: #000000"/>
      </g>
     </g>
    </g>
    <g id="ytick_42">
     <g id="line2d_149">
      <g>
       <use xlink:href="#m818b1b56d8" x="62.21" y="56.441233" style="stroke: #000000"/>
      </g>
     </g>
     <g id="line2d_150">
      <g>
       <use xlink:href="#mf5a08f76d4" x="1066.61" y="56.441233" style="stroke: #000000"/>
      </g>
     </g>
    </g>
    <g id="ytick_43">
     <g id="line2d_151">
      <g>
       <use xlink:href="#m818b1b56d8" x="62.21" y="33.791988" style="stroke: #000000"/>
      </g>
     </g>
     <g id="line2d_152">
      <g>
       <use xlink:href="#mf5a08f76d4" x="1066.61" y="33.791988" style="stroke: #000000"/>
      </g>
     </g>
    </g>
    <g id="ytick_44">
     <g id="line2d_153">
      <g>
       <use xlink:href="#m818b1b56d8" x="62.21" y="22.467365" style="stroke: #000000"/>
      </g>
     </g>
     <g id="line2d_154">
      <g>
       <use xlink:href="#mf5a08f76d4" x="1066.61" y="22.467365" style="stroke: #000000"/>
      </g>
     </g>
    </g>
    <g id="text_14">
     <!-- Frequency Amplitude -->
     <g transform="translate(15.7575 356.10375) rotate(-90) scale(0.16 -0.16)">
      <defs>
       <path id="DejaVuSans-41" d="M 2188 4044 
L 1331 1722 
L 3047 1722 
L 2188 4044 
z
M 1831 4666 
L 2547 4666 
L 4325 0 
L 3669 0 
L 3244 1197 
L 1141 1197 
L 716 0 
L 50 0 
L 1831 4666 
z
" transform="scale(0.015625)"/>
       <path id="DejaVuSans-6d" d="M 3328 2828 
Q 3544 3216 3844 3400 
Q 4144 3584 4550 3584 
Q 5097 3584 5394 3201 
Q 5691 2819 5691 2113 
L 5691 0 
L 5113 0 
L 5113 2094 
Q 5113 2597 4934 2840 
Q 4756 3084 4391 3084 
Q 3944 3084 3684 2787 
Q 3425 2491 3425 1978 
L 3425 0 
L 2847 0 
L 2847 2094 
Q 2847 2600 2669 2842 
Q 2491 3084 2119 3084 
Q 1678 3084 1418 2786 
Q 1159 2488 1159 1978 
L 1159 0 
L 581 0 
L 581 3500 
L 1159 3500 
L 1159 2956 
Q 1356 3278 1631 3431 
Q 1906 3584 2284 3584 
Q 2666 3584 2933 3390 
Q 3200 3197 3328 2828 
z
" transform="scale(0.015625)"/>
       <path id="DejaVuSans-70" d="M 1159 525 
L 1159 -1331 
L 581 -1331 
L 581 3500 
L 1159 3500 
L 1159 2969 
Q 1341 3281 1617 3432 
Q 1894 3584 2278 3584 
Q 2916 3584 3314 3078 
Q 3713 2572 3713 1747 
Q 3713 922 3314 415 
Q 2916 -91 2278 -91 
Q 1894 -91 1617 61 
Q 1341 213 1159 525 
z
M 3116 1747 
Q 3116 2381 2855 2742 
Q 2594 3103 2138 3103 
Q 1681 3103 1420 2742 
Q 1159 2381 1159 1747 
Q 1159 1113 1420 752 
Q 1681 391 2138 391 
Q 2594 391 2855 752 
Q 3116 1113 3116 1747 
z
" transform="scale(0.015625)"/>
       <path id="DejaVuSans-6c" d="M 603 4863 
L 1178 4863 
L 1178 0 
L 603 0 
L 603 4863 
z
" transform="scale(0.015625)"/>
       <path id="DejaVuSans-69" d="M 603 3500 
L 1178 3500 
L 1178 0 
L 603 0 
L 603 3500 
z
M 603 4863 
L 1178 4863 
L 1178 4134 
L 603 4134 
L 603 4863 
z
" transform="scale(0.015625)"/>
       <path id="DejaVuSans-74" d="M 1172 4494 
L 1172 3500 
L 2356 3500 
L 2356 3053 
L 1172 3053 
L 1172 1153 
Q 1172 725 1289 603 
Q 1406 481 1766 481 
L 2356 481 
L 2356 0 
L 1766 0 
Q 1100 0 847 248 
Q 594 497 594 1153 
L 594 3053 
L 172 3053 
L 172 3500 
L 594 3500 
L 594 4494 
L 1172 4494 
z
" transform="scale(0.015625)"/>
       <path id="DejaVuSans-64" d="M 2906 2969 
L 2906 4863 
L 3481 4863 
L 3481 0 
L 2906 0 
L 2906 525 
Q 2725 213 2448 61 
Q 2172 -91 1784 -91 
Q 1150 -91 751 415 
Q 353 922 353 1747 
Q 353 2572 751 3078 
Q 1150 3584 1784 3584 
Q 2172 3584 2448 3432 
Q 2725 3281 2906 2969 
z
M 947 1747 
Q 947 1113 1208 752 
Q 1469 391 1925 391 
Q 2381 391 2643 752 
Q 2906 1113 2906 1747 
Q 2906 2381 2643 2742 
Q 2381 3103 1925 3103 
Q 1469 3103 1208 2742 
Q 947 2381 947 1747 
z
" transform="scale(0.015625)"/>
      </defs>
      <use xlink:href="#DejaVuSans-46"/>
      <use xlink:href="#DejaVuSans-72" x="50.269531"/>
      <use xlink:href="#DejaVuSans-65" x="89.132812"/>
      <use xlink:href="#DejaVuSans-71" x="150.65625"/>
      <use xlink:href="#DejaVuSans-75" x="214.132812"/>
      <use xlink:href="#DejaVuSans-65" x="277.511719"/>
      <use xlink:href="#DejaVuSans-6e" x="339.035156"/>
      <use xlink:href="#DejaVuSans-63" x="402.414062"/>
      <use xlink:href="#DejaVuSans-79" x="457.394531"/>
      <use xlink:href="#DejaVuSans-20" x="516.574219"/>
      <use xlink:href="#DejaVuSans-41" x="548.361328"/>
      <use xlink:href="#DejaVuSans-6d" x="616.769531"/>
      <use xlink:href="#DejaVuSans-70" x="714.181641"/>
      <use xlink:href="#DejaVuSans-6c" x="777.658203"/>
      <use xlink:href="#DejaVuSans-69" x="805.441406"/>
      <use xlink:href="#DejaVuSans-74" x="833.224609"/>
      <use xlink:href="#DejaVuSans-75" x="872.433594"/>
      <use xlink:href="#DejaVuSans-64" x="935.8125"/>
      <use xlink:href="#DejaVuSans-65" x="999.289062"/>
     </g>
    </g>
   </g>
   <g id="line2d_155">
    <path d="M -1 498.037499 
L 107.864545 498.0375 
L 207.25019 494.78053 
L 265.387065 466.851065 
L 306.635835 362.241253 
L 338.630866 165.438752 
L 364.77271 97.849608 
L 386.875324 145.194765 
L 406.02148 194.455597 
L 422.909585 161.533724 
L 438.016511 292.375206 
L 451.682387 238.492626 
L 464.158355 177.165651 
L 475.635133 61.04754 
L 486.260969 237.450913 
L 496.153386 291.797122 
L 505.407124 225.967579 
L 514.099675 193.995654 
L 522.29523 393.202937 
L 530.04756 285.516629 
L 537.402156 303.517388 
L 544.397844 390.091576 
L 551.068032 264.65745 
L 557.441667 231.928974 
L 563.544 205.840036 
L 569.397187 306.66363 
L 575.020777 233.283855 
L 580.432105 377.671619 
L 585.646614 250.914407 
L 590.678119 312.768104 
L 595.539031 379.392355 
L 600.24054 241.883758 
L 604.792769 399.470992 
L 609.204907 450.902621 
L 613.48532 378.93427 
L 617.641645 393.028307 
L 621.680875 453.513547 
L 625.609427 348.833157 
L 629.433205 181.905294 
L 633.157653 44.4375 
L 636.7878 260.153103 
L 643.783489 94.757648 
L 647.157367 278.830718 
L 650.453677 203.820932 
L 653.675906 325.426001 
L 656.827312 153.357235 
L 659.91094 170.125288 
L 662.929644 254.25897 
L 665.886103 312.51982 
L 668.782832 334.085041 
L 671.622195 191.732464 
L 674.406422 128.74748 
L 677.137613 78.839165 
L 679.81775 340.264619 
L 682.448708 324.874559 
L 685.032259 335.841697 
L 687.57008 326.280937 
L 690.063763 322.658725 
L 692.514818 311.302551 
L 694.924676 350.387421 
L 697.294699 433.152702 
L 699.626185 365.182907 
L 701.920364 358.828606 
L 704.178414 391.82128 
L 706.401453 406.390944 
L 708.590552 367.647113 
L 710.746731 448.296754 
L 712.870965 410.701798 
L 714.964187 416.727758 
L 717.02729 446.511375 
L 719.061128 435.090836 
L 721.06652 431.383249 
L 723.04425 413.718653 
L 724.995072 469.077202 
L 726.919707 465.2548 
L 728.81885 444.627902 
L 730.693166 417.146448 
L 732.543297 422.426891 
L 734.369859 416.103519 
L 736.173445 416.375297 
L 737.954625 488.723086 
L 739.71395 422.865673 
L 741.451949 463.300746 
L 743.169134 454.158914 
L 744.865996 436.676344 
L 746.543011 428.768573 
L 748.200639 425.278331 
L 749.839321 420.256984 
L 751.459488 437.929704 
L 753.061551 431.795962 
L 754.645911 446.061289 
L 756.212956 456.286664 
L 757.76306 436.840225 
L 759.296584 449.161478 
L 760.813881 477.133543 
L 762.315289 475.541955 
L 763.801138 476.878761 
L 765.271748 484.077545 
L 766.727427 455.1802 
L 768.168476 454.546422 
L 769.595186 477.919296 
L 771.00784 492.171795 
L 772.406711 489.488943 
L 773.792067 484.343127 
L 775.164165 485.382472 
L 776.523257 475.474112 
L 777.869588 479.862758 
L 779.203395 473.888271 
L 780.524908 479.17864 
L 781.834353 471.659741 
L 783.131947 461.843512 
L 784.417903 464.330852 
L 785.692429 488.179417 
L 786.955725 483.417857 
L 788.207988 487.46379 
L 789.449408 492.30792 
L 790.680173 489.745173 
L 791.900462 476.498757 
L 793.110454 468.333703 
L 794.31032 476.840051 
L 795.500229 489.537368 
L 796.680344 480.011345 
L 797.850826 481.723884 
L 799.011829 481.458136 
L 800.163508 477.757494 
L 801.306009 479.543582 
L 802.439479 481.93905 
L 803.564059 490.349081 
L 804.679887 485.235511 
L 805.787098 485.654097 
L 806.885825 474.458448 
L 807.976197 469.349752 
L 809.058339 467.10304 
L 810.132375 463.792011 
L 811.198426 463.533579 
L 812.256609 467.9851 
L 813.30704 472.927361 
L 814.349832 482.640792 
L 815.385094 487.965949 
L 816.412935 490.058291 
L 817.43346 482.033016 
L 818.446773 489.748256 
L 819.452974 489.43094 
L 820.452164 496.325836 
L 821.444439 492.20547 
L 822.429895 493.593984 
L 823.408623 490.360402 
L 824.380716 488.965988 
L 825.346263 480.572688 
L 826.305352 483.037476 
L 827.258067 483.248162 
L 828.204494 480.266501 
L 829.144715 486.100952 
L 830.078811 479.976437 
L 831.006861 482.022267 
L 831.928942 484.71681 
L 832.845132 488.799041 
L 833.755504 487.077598 
L 834.660133 490.938161 
L 835.55909 489.472639 
L 836.452446 486.692074 
L 837.34027 488.577547 
L 839.099595 489.525941 
L 839.971228 492.445595 
L 840.837594 491.346417 
L 841.698757 495.795753 
L 842.554779 494.774808 
L 843.40572 490.92445 
L 844.251641 491.659103 
L 845.0926 490.117357 
L 845.928656 487.256777 
L 846.759865 486.708032 
L 847.586283 485.72446 
L 848.407966 488.728458 
L 849.224966 490.261339 
L 850.037338 493.027643 
L 850.845132 491.237714 
L 851.648401 494.259077 
L 853.241564 487.953115 
L 854.031556 490.098222 
L 854.817219 486.01132 
L 855.598601 488.71126 
L 856.375748 494.961295 
L 857.148705 495.146012 
L 857.917517 495.824617 
L 858.682229 490.660325 
L 859.442884 489.900914 
L 860.199526 488.019704 
L 860.952195 486.574237 
L 861.700934 488.110689 
L 862.445783 487.882826 
L 863.186783 484.60923 
L 863.923973 486.260041 
L 864.657393 492.060805 
L 865.38708 495.326959 
L 866.113072 494.941837 
L 866.835407 493.313116 
L 867.554121 495.422347 
L 868.269251 493.314986 
L 868.980831 493.868777 
L 869.688898 491.509595 
L 870.393485 490.032781 
L 871.094626 496.037727 
L 871.792356 491.666136 
L 872.486707 489.580247 
L 873.177711 492.137731 
L 873.865402 494.217179 
L 874.54981 490.549026 
L 875.230966 491.985623 
L 875.908902 490.694301 
L 877.255233 495.585309 
L 877.923687 491.383707 
L 878.58904 494.112949 
L 879.251319 497.408972 
L 879.910553 494.938783 
L 880.56677 494.713858 
L 881.219997 493.886949 
L 881.870262 493.804383 
L 882.517592 492.280381 
L 883.162011 495.762173 
L 883.803548 493.398187 
L 884.442227 491.889061 
L 885.078073 488.750568 
L 885.711113 491.789383 
L 886.34137 496.95298 
L 886.968868 497.543869 
L 887.593632 495.7682 
L 888.215686 494.407446 
L 888.835053 495.53536 
L 889.451756 494.297181 
L 890.065817 491.305319 
L 890.67726 492.016541 
L 891.286107 497.864087 
L 891.892379 497.063312 
L 892.496099 497.34654 
L 893.097287 495.340621 
L 893.695965 490.024156 
L 894.292154 496.679527 
L 894.885874 494.444291 
L 895.477145 495.779485 
L 896.065989 494.846975 
L 896.652424 496.684455 
L 897.23647 496.91658 
L 897.818147 495.069866 
L 898.397474 495.819005 
L 898.974469 495.340183 
L 900.121541 496.106285 
L 900.691654 495.463417 
L 901.259509 494.280292 
L 901.825124 496.240032 
L 902.388516 494.839592 
L 903.508703 497.773716 
L 904.065531 494.161947 
L 904.620206 494.656453 
L 905.172743 494.101185 
L 905.723159 494.318095 
L 906.27147 492.263776 
L 906.817692 495.530883 
L 907.361841 493.294054 
L 907.903933 494.868016 
L 908.443984 495.142683 
L 908.982008 496.96878 
L 909.51802 492.143517 
L 910.052036 491.548191 
L 911.114139 493.74782 
L 911.642254 496.600676 
L 912.168431 494.731429 
L 912.692685 495.402131 
L 913.215029 493.150033 
L 913.735476 493.591049 
L 914.254042 497.061669 
L 914.770738 496.242625 
L 915.28558 493.823593 
L 915.798579 493.747223 
L 916.30975 494.342456 
L 916.819104 496.261691 
L 917.326656 496.912462 
L 917.832417 494.752514 
L 918.336401 497.318462 
L 918.838619 495.147084 
L 919.339084 493.850703 
L 919.837809 495.427132 
L 920.830084 497.352734 
L 921.323658 495.673587 
L 921.815539 497.251321 
L 922.305739 495.49816 
L 923.281138 497.266489 
L 923.766361 495.736536 
L 924.249947 496.974557 
L 924.731908 496.364017 
L 925.212254 497.567176 
L 925.690996 496.148298 
L 926.168145 496.277892 
L 926.643712 496.904759 
L 927.590139 495.749435 
L 928.06102 495.799747 
L 928.53036 496.258946 
L 928.998168 496.311175 
L 929.464456 497.284756 
L 930.392505 496.533699 
L 930.854287 496.864583 
L 931.314587 496.75792 
L 931.773413 496.866931 
L 932.230776 497.440374 
L 933.141149 496.015641 
L 933.594177 495.966094 
L 934.045777 496.497574 
L 934.49596 496.667321 
L 934.944735 496.365342 
L 935.392108 496.501874 
L 935.838091 496.428119 
L 936.28269 496.577438 
L 936.725915 495.46047 
L 937.167774 495.111233 
L 937.608276 494.111067 
L 938.047428 493.710631 
L 939.356873 495.090248 
L 940.223239 497.641509 
L 940.654467 497.572073 
L 941.084402 497.18651 
L 941.940423 497.467072 
L 942.366525 497.027793 
L 942.791364 497.067402 
L 943.214949 495.926233 
L 943.637285 495.564796 
L 944.058382 495.592078 
L 944.478245 496.057494 
L 944.896882 497.630051 
L 945.314301 497.464857 
L 945.730508 496.307182 
L 946.14551 494.516322 
L 946.559314 495.110251 
L 946.971928 495.091578 
L 947.383358 495.553148 
L 947.79361 494.861626 
L 948.202693 495.527427 
L 948.610611 497.232273 
L 949.017372 494.128312 
L 949.422982 494.841167 
L 949.827449 497.311452 
L 950.230777 495.999134 
L 950.632974 495.468603 
L 951.034046 494.258939 
L 951.434 497.6473 
L 951.83284 495.261628 
L 952.230575 496.699137 
L 952.627209 495.959797 
L 953.417201 497.277091 
L 953.810571 494.792859 
L 954.202864 496.183506 
L 954.594087 496.455036 
L 954.984246 497.306812 
L 955.373346 495.915587 
L 956.148392 495.680813 
L 956.534349 496.264812 
L 956.919271 497.060906 
L 957.303162 496.426553 
L 957.686028 494.911647 
L 958.067874 492.258087 
L 958.448706 495.663334 
L 958.828529 495.422477 
L 959.207349 496.422059 
L 959.58517 496.132417 
L 959.961999 494.41525 
L 960.33784 494.505595 
L 960.712698 497.529863 
L 961.086579 497.705574 
L 961.459487 495.432367 
L 961.831428 495.310437 
L 962.202407 496.886502 
L 962.572428 494.858357 
L 962.941497 496.440503 
L 963.309618 495.628415 
L 963.676797 495.59954 
L 964.043037 496.935439 
L 964.408345 497.349434 
L 964.772724 496.289637 
L 965.13618 494.76093 
L 965.498717 496.848972 
L 965.860339 497.366794 
L 966.221052 496.710312 
L 966.580859 496.960869 
L 966.939766 496.620203 
L 967.654895 497.061008 
L 968.011127 496.531238 
L 968.366476 495.055312 
L 968.720946 497.206433 
L 969.074542 497.247796 
L 969.427269 496.221175 
L 969.779129 497.072299 
L 970.130129 496.372346 
L 970.480271 496.015614 
L 970.82956 496.928551 
L 971.178001 496.596443 
L 971.525596 496.970987 
L 972.563356 496.248596 
L 972.907614 497.010057 
L 973.593659 497.265444 
L 973.935455 496.502218 
L 974.276437 496.84037 
L 974.616611 496.874123 
L 974.95598 497.936096 
L 975.294547 497.605163 
L 975.632317 496.213174 
L 975.969293 496.259025 
L 976.305478 497.299866 
L 976.640878 497.413721 
L 976.975494 495.905958 
L 977.309332 496.230611 
L 977.642394 497.363019 
L 977.974684 497.712003 
L 978.306206 496.9767 
L 978.636963 496.787465 
L 978.966959 497.345759 
L 979.296198 497.650265 
L 979.952415 497.36974 
L 980.2794 496.746185 
L 980.605642 497.313864 
L 980.931143 497.186965 
L 981.255907 497.292016 
L 981.579937 497.811245 
L 981.903236 497.525975 
L 982.225808 497.405044 
L 982.547656 497.069521 
L 982.868783 497.056266 
L 983.189193 497.794848 
L 983.508888 497.161928 
L 983.827872 497.439786 
L 984.146147 497.501952 
L 984.463718 496.404638 
L 984.780587 495.743598 
L 985.096758 495.405916 
L 985.727014 495.698977 
L 986.041107 497.630532 
L 986.354513 497.512688 
L 986.979277 497.879596 
L 987.290641 497.409251 
L 987.601331 497.178504 
L 987.911349 496.520852 
L 988.220698 497.280161 
L 988.529381 496.908751 
L 988.8374 497.257839 
L 989.451462 497.401005 
L 989.757509 497.032015 
L 990.062905 497.237821 
L 990.367652 497.887404 
L 990.975208 497.277592 
L 991.278024 497.333665 
L 991.580202 497.593501 
L 991.881744 498.022085 
L 992.182653 497.372311 
L 992.482932 497.210773 
L 992.782583 497.677103 
L 993.08161 496.934669 
L 993.380014 497.320313 
L 993.677798 496.825926 
L 993.974966 496.814547 
L 994.271518 497.665816 
L 994.567459 497.497253 
L 994.86279 497.872086 
L 995.745151 496.931102 
L 996.038069 497.632184 
L 996.330389 497.773911 
L 996.622115 497.355815 
L 996.913248 497.357139 
L 997.493748 496.923648 
L 997.783119 497.629355 
L 998.360114 497.780532 
L 998.647744 497.180186 
L 998.934797 496.957943 
L 999.221277 496.305895 
L 999.507186 496.594553 
L 1000.077299 497.783868 
L 1000.645153 497.830726 
L 1000.92824 498.036606 
L 1001.210768 497.834351 
L 1001.492741 497.401589 
L 1001.774161 497.704032 
L 1002.055029 497.743415 
L 1002.335348 497.21015 
L 1002.894347 497.624832 
L 1003.173032 497.43038 
L 1003.451176 497.841581 
L 1003.728781 497.504556 
L 1004.558387 497.888359 
L 1004.83386 497.54431 
L 1005.108803 497.812137 
L 1005.383221 497.734913 
L 1005.930486 497.908215 
L 1006.203337 497.422649 
L 1006.47567 497.559851 
L 1006.747486 497.501596 
L 1007.018788 497.610148 
L 1007.289578 497.339992 
L 1007.559858 497.314716 
L 1007.829628 497.999571 
L 1008.098893 497.944988 
L 1008.367652 497.509554 
L 1008.635909 497.491319 
L 1008.903665 497.717223 
L 1009.170921 497.623756 
L 1009.703945 497.886649 
L 1009.969716 497.671833 
L 1010.499783 497.99405 
L 1010.764084 498.004441 
L 1011.027899 497.70447 
L 1011.816443 497.619945 
L 1012.07833 497.314002 
L 1012.339739 496.796492 
L 1012.600673 497.065482 
L 1012.861133 497.033356 
L 1013.380638 497.509958 
L 1013.898268 497.248131 
L 1014.156383 497.120633 
L 1014.414035 497.360085 
L 1014.671225 496.999819 
L 1014.927954 497.094021 
L 1015.184224 497.522633 
L 1015.440037 497.612107 
L 1015.695394 497.385579 
L 1015.950298 497.760423 
L 1016.204749 497.179239 
L 1016.458749 497.762961 
L 1016.712301 497.528487 
L 1016.965404 497.66003 
L 1017.218062 497.165642 
L 1017.470275 497.530954 
L 1017.722046 496.65925 
L 1017.973375 496.816906 
L 1018.224264 497.662647 
L 1018.474715 497.905923 
L 1018.724729 497.866437 
L 1019.223454 497.558526 
L 1019.472167 497.541877 
L 1019.72045 497.043609 
L 1019.968303 497.769405 
L 1020.215729 497.413471 
L 1020.709303 497.912929 
L 1020.955455 497.558766 
L 1020.955455 497.558766 
" clip-path="url(#pa80f10cee3)" style="fill: none; stroke: #0c5da5; stroke-width: 2; stroke-linecap: square"/>
   </g>
   <g id="patch_3">
    <path d="M 62.21 520.7175 
L 62.21 21.7575 
" style="fill: none; stroke: #000000; stroke-linejoin: miter; stroke-linecap: square"/>
   </g>
   <g id="patch_4">
    <path d="M 1066.61 520.7175 
L 1066.61 21.7575 
" style="fill: none; stroke: #000000; stroke-linejoin: miter; stroke-linecap: square"/>
   </g>
   <g id="patch_5">
    <path d="M 62.21 520.7175 
L 1066.61 520.7175 
" style="fill: none; stroke: #000000; stroke-linejoin: miter; stroke-linecap: square"/>
   </g>
   <g id="patch_6">
    <path d="M 62.21 21.7575 
L 1066.61 21.7575 
" style="fill: none; stroke: #000000; stroke-linejoin: miter; stroke-linecap: square"/>
   </g>
   <g id="text_15">
    <!-- Santa Barbara Record no. 135 -->
    <g transform="translate(444.0175 15.7575) scale(0.16 -0.16)">
     <defs>
      <path id="DejaVuSans-53" d="M 3425 4513 
L 3425 3897 
Q 3066 4069 2747 4153 
Q 2428 4238 2131 4238 
Q 1616 4238 1336 4038 
Q 1056 3838 1056 3469 
Q 1056 3159 1242 3001 
Q 1428 2844 1947 2747 
L 2328 2669 
Q 3034 2534 3370 2195 
Q 3706 1856 3706 1288 
Q 3706 609 3251 259 
Q 2797 -91 1919 -91 
Q 1588 -91 1214 -16 
Q 841 59 441 206 
L 441 856 
Q 825 641 1194 531 
Q 1563 422 1919 422 
Q 2459 422 2753 634 
Q 3047 847 3047 1241 
Q 3047 1584 2836 1778 
Q 2625 1972 2144 2069 
L 1759 2144 
Q 1053 2284 737 2584 
Q 422 2884 422 3419 
Q 422 4038 858 4394 
Q 1294 4750 2059 4750 
Q 2388 4750 2728 4690 
Q 3069 4631 3425 4513 
z
" transform="scale(0.015625)"/>
      <path id="DejaVuSans-61" d="M 2194 1759 
Q 1497 1759 1228 1600 
Q 959 1441 959 1056 
Q 959 750 1161 570 
Q 1363 391 1709 391 
Q 2188 391 2477 730 
Q 2766 1069 2766 1631 
L 2766 1759 
L 2194 1759 
z
M 3341 1997 
L 3341 0 
L 2766 0 
L 2766 531 
Q 2569 213 2275 61 
Q 1981 -91 1556 -91 
Q 1019 -91 701 211 
Q 384 513 384 1019 
Q 384 1609 779 1909 
Q 1175 2209 1959 2209 
L 2766 2209 
L 2766 2266 
Q 2766 2663 2505 2880 
Q 2244 3097 1772 3097 
Q 1472 3097 1187 3025 
Q 903 2953 641 2809 
L 641 3341 
Q 956 3463 1253 3523 
Q 1550 3584 1831 3584 
Q 2591 3584 2966 3190 
Q 3341 2797 3341 1997 
z
" transform="scale(0.015625)"/>
      <path id="DejaVuSans-42" d="M 1259 2228 
L 1259 519 
L 2272 519 
Q 2781 519 3026 730 
Q 3272 941 3272 1375 
Q 3272 1813 3026 2020 
Q 2781 2228 2272 2228 
L 1259 2228 
z
M 1259 4147 
L 1259 2741 
L 2194 2741 
Q 2656 2741 2882 2914 
Q 3109 3088 3109 3444 
Q 3109 3797 2882 3972 
Q 2656 4147 2194 4147 
L 1259 4147 
z
M 628 4666 
L 2241 4666 
Q 2963 4666 3353 4366 
Q 3744 4066 3744 3513 
Q 3744 3084 3544 2831 
Q 3344 2578 2956 2516 
Q 3422 2416 3680 2098 
Q 3938 1781 3938 1306 
Q 3938 681 3513 340 
Q 3088 0 2303 0 
L 628 0 
L 628 4666 
z
" transform="scale(0.015625)"/>
      <path id="DejaVuSans-62" d="M 3116 1747 
Q 3116 2381 2855 2742 
Q 2594 3103 2138 3103 
Q 1681 3103 1420 2742 
Q 1159 2381 1159 1747 
Q 1159 1113 1420 752 
Q 1681 391 2138 391 
Q 2594 391 2855 752 
Q 3116 1113 3116 1747 
z
M 1159 2969 
Q 1341 3281 1617 3432 
Q 1894 3584 2278 3584 
Q 2916 3584 3314 3078 
Q 3713 2572 3713 1747 
Q 3713 922 3314 415 
Q 2916 -91 2278 -91 
Q 1894 -91 1617 61 
Q 1341 213 1159 525 
L 1159 0 
L 581 0 
L 581 4863 
L 1159 4863 
L 1159 2969 
z
" transform="scale(0.015625)"/>
      <path id="DejaVuSans-52" d="M 2841 2188 
Q 3044 2119 3236 1894 
Q 3428 1669 3622 1275 
L 4263 0 
L 3584 0 
L 2988 1197 
Q 2756 1666 2539 1819 
Q 2322 1972 1947 1972 
L 1259 1972 
L 1259 0 
L 628 0 
L 628 4666 
L 2053 4666 
Q 2853 4666 3247 4331 
Q 3641 3997 3641 3322 
Q 3641 2881 3436 2590 
Q 3231 2300 2841 2188 
z
M 1259 4147 
L 1259 2491 
L 2053 2491 
Q 2509 2491 2742 2702 
Q 2975 2913 2975 3322 
Q 2975 3731 2742 3939 
Q 2509 4147 2053 4147 
L 1259 4147 
z
" transform="scale(0.015625)"/>
      <path id="DejaVuSans-6f" d="M 1959 3097 
Q 1497 3097 1228 2736 
Q 959 2375 959 1747 
Q 959 1119 1226 758 
Q 1494 397 1959 397 
Q 2419 397 2687 759 
Q 2956 1122 2956 1747 
Q 2956 2369 2687 2733 
Q 2419 3097 1959 3097 
z
M 1959 3584 
Q 2709 3584 3137 3096 
Q 3566 2609 3566 1747 
Q 3566 888 3137 398 
Q 2709 -91 1959 -91 
Q 1206 -91 779 398 
Q 353 888 353 1747 
Q 353 2609 779 3096 
Q 1206 3584 1959 3584 
z
" transform="scale(0.015625)"/>
      <path id="DejaVuSans-33" d="M 2597 2516 
Q 3050 2419 3304 2112 
Q 3559 1806 3559 1356 
Q 3559 666 3084 287 
Q 2609 -91 1734 -91 
Q 1441 -91 1130 -33 
Q 819 25 488 141 
L 488 750 
Q 750 597 1062 519 
Q 1375 441 1716 441 
Q 2309 441 2620 675 
Q 2931 909 2931 1356 
Q 2931 1769 2642 2001 
Q 2353 2234 1838 2234 
L 1294 2234 
L 1294 2753 
L 1863 2753 
Q 2328 2753 2575 2939 
Q 2822 3125 2822 3475 
Q 2822 3834 2567 4026 
Q 2313 4219 1838 4219 
Q 1578 4219 1281 4162 
Q 984 4106 628 3988 
L 628 4550 
Q 988 4650 1302 4700 
Q 1616 4750 1894 4750 
Q 2613 4750 3031 4423 
Q 3450 4097 3450 3541 
Q 3450 3153 3228 2886 
Q 3006 2619 2597 2516 
z
" transform="scale(0.015625)"/>
     </defs>
     <use xlink:href="#DejaVuSans-53"/>
     <use xlink:href="#DejaVuSans-61" x="63.476562"/>
     <use xlink:href="#DejaVuSans-6e" x="124.755859"/>
     <use xlink:href="#DejaVuSans-74" x="188.134766"/>
     <use xlink:href="#DejaVuSans-61" x="227.34375"/>
     <use xlink:href="#DejaVuSans-20" x="288.623047"/>
     <use xlink:href="#DejaVuSans-42" x="320.410156"/>
     <use xlink:href="#DejaVuSans-61" x="389.013672"/>
     <use xlink:href="#DejaVuSans-72" x="450.292969"/>
     <use xlink:href="#DejaVuSans-62" x="491.40625"/>
     <use xlink:href="#DejaVuSans-61" x="554.882812"/>
     <use xlink:href="#DejaVuSans-72" x="616.162109"/>
     <use xlink:href="#DejaVuSans-61" x="657.275391"/>
     <use xlink:href="#DejaVuSans-20" x="718.554688"/>
     <use xlink:href="#DejaVuSans-52" x="750.341797"/>
     <use xlink:href="#DejaVuSans-65" x="815.324219"/>
     <use xlink:href="#DejaVuSans-63" x="876.847656"/>
     <use xlink:href="#DejaVuSans-6f" x="931.828125"/>
     <use xlink:href="#DejaVuSans-72" x="993.009766"/>
     <use xlink:href="#DejaVuSans-64" x="1032.373047"/>
     <use xlink:href="#DejaVuSans-20" x="1095.849609"/>
     <use xlink:href="#DejaVuSans-6e" x="1127.636719"/>
     <use xlink:href="#DejaVuSans-6f" x="1191.015625"/>
     <use xlink:href="#DejaVuSans-2e" x="1250.447266"/>
     <use xlink:href="#DejaVuSans-20" x="1282.234375"/>
     <use xlink:href="#DejaVuSans-31" x="1314.021484"/>
     <use xlink:href="#DejaVuSans-33" x="1377.644531"/>
     <use xlink:href="#DejaVuSans-35" x="1441.267578"/>
    </g>
   </g>
   <g id="legend_1">
    <g id="patch_7">
     <path d="M 735.7075 58.0425 
L 1055.41 58.0425 
Q 1058.61 58.0425 1058.61 54.8425 
L 1058.61 32.9575 
Q 1058.61 29.7575 1055.41 29.7575 
L 735.7075 29.7575 
Q 732.5075 29.7575 732.5075 32.9575 
L 732.5075 54.8425 
Q 732.5075 58.0425 735.7075 58.0425 
z
" style="fill: #ffffff; stroke: #cccccc; stroke-linejoin: miter"/>
    </g>
    <g id="line2d_156">
     <path d="M 738.9075 42.715 
L 754.9075 42.715 
L 770.9075 42.715 
" style="fill: none; stroke: #0c5da5; stroke-width: 2; stroke-linecap: square"/>
    </g>
    <g id="text_16">
     <!-- Predominant Time Period = 1.88s -->
     <g transform="translate(783.7075 48.315) scale(0.16 -0.16)">
      <defs>
       <path id="DejaVuSans-50" d="M 1259 4147 
L 1259 2394 
L 2053 2394 
Q 2494 2394 2734 2622 
Q 2975 2850 2975 3272 
Q 2975 3691 2734 3919 
Q 2494 4147 2053 4147 
L 1259 4147 
z
M 628 4666 
L 2053 4666 
Q 2838 4666 3239 4311 
Q 3641 3956 3641 3272 
Q 3641 2581 3239 2228 
Q 2838 1875 2053 1875 
L 1259 1875 
L 1259 0 
L 628 0 
L 628 4666 
z
" transform="scale(0.015625)"/>
       <path id="DejaVuSans-54" d="M -19 4666 
L 3928 4666 
L 3928 4134 
L 2272 4134 
L 2272 0 
L 1638 0 
L 1638 4134 
L -19 4134 
L -19 4666 
z
" transform="scale(0.015625)"/>
       <path id="DejaVuSans-3d" d="M 678 2906 
L 4684 2906 
L 4684 2381 
L 678 2381 
L 678 2906 
z
M 678 1631 
L 4684 1631 
L 4684 1100 
L 678 1100 
L 678 1631 
z
" transform="scale(0.015625)"/>
       <path id="DejaVuSans-38" d="M 2034 2216 
Q 1584 2216 1326 1975 
Q 1069 1734 1069 1313 
Q 1069 891 1326 650 
Q 1584 409 2034 409 
Q 2484 409 2743 651 
Q 3003 894 3003 1313 
Q 3003 1734 2745 1975 
Q 2488 2216 2034 2216 
z
M 1403 2484 
Q 997 2584 770 2862 
Q 544 3141 544 3541 
Q 544 4100 942 4425 
Q 1341 4750 2034 4750 
Q 2731 4750 3128 4425 
Q 3525 4100 3525 3541 
Q 3525 3141 3298 2862 
Q 3072 2584 2669 2484 
Q 3125 2378 3379 2068 
Q 3634 1759 3634 1313 
Q 3634 634 3220 271 
Q 2806 -91 2034 -91 
Q 1263 -91 848 271 
Q 434 634 434 1313 
Q 434 1759 690 2068 
Q 947 2378 1403 2484 
z
M 1172 3481 
Q 1172 3119 1398 2916 
Q 1625 2713 2034 2713 
Q 2441 2713 2670 2916 
Q 2900 3119 2900 3481 
Q 2900 3844 2670 4047 
Q 2441 4250 2034 4250 
Q 1625 4250 1398 4047 
Q 1172 3844 1172 3481 
z
" transform="scale(0.015625)"/>
       <path id="DejaVuSans-73" d="M 2834 3397 
L 2834 2853 
Q 2591 2978 2328 3040 
Q 2066 3103 1784 3103 
Q 1356 3103 1142 2972 
Q 928 2841 928 2578 
Q 928 2378 1081 2264 
Q 1234 2150 1697 2047 
L 1894 2003 
Q 2506 1872 2764 1633 
Q 3022 1394 3022 966 
Q 3022 478 2636 193 
Q 2250 -91 1575 -91 
Q 1294 -91 989 -36 
Q 684 19 347 128 
L 347 722 
Q 666 556 975 473 
Q 1284 391 1588 391 
Q 1994 391 2212 530 
Q 2431 669 2431 922 
Q 2431 1156 2273 1281 
Q 2116 1406 1581 1522 
L 1381 1569 
Q 847 1681 609 1914 
Q 372 2147 372 2553 
Q 372 3047 722 3315 
Q 1072 3584 1716 3584 
Q 2034 3584 2315 3537 
Q 2597 3491 2834 3397 
z
" transform="scale(0.015625)"/>
      </defs>
      <use xlink:href="#DejaVuSans-50"/>
      <use xlink:href="#DejaVuSans-72" x="58.552734"/>
      <use xlink:href="#DejaVuSans-65" x="97.416016"/>
      <use xlink:href="#DejaVuSans-64" x="158.939453"/>
      <use xlink:href="#DejaVuSans-6f" x="222.416016"/>
      <use xlink:href="#DejaVuSans-6d" x="283.597656"/>
      <use xlink:href="#DejaVuSans-69" x="381.009766"/>
      <use xlink:href="#DejaVuSans-6e" x="408.792969"/>
      <use xlink:href="#DejaVuSans-61" x="472.171875"/>
      <use xlink:href="#DejaVuSans-6e" x="533.451172"/>
      <use xlink:href="#DejaVuSans-74" x="596.830078"/>
      <use xlink:href="#DejaVuSans-20" x="636.039062"/>
      <use xlink:href="#DejaVuSans-54" x="667.826172"/>
      <use xlink:href="#DejaVuSans-69" x="725.785156"/>
      <use xlink:href="#DejaVuSans-6d" x="753.568359"/>
      <use xlink:href="#DejaVuSans-65" x="850.980469"/>
      <use xlink:href="#DejaVuSans-20" x="912.503906"/>
      <use xlink:href="#DejaVuSans-50" x="944.291016"/>
      <use xlink:href="#DejaVuSans-65" x="1000.96875"/>
      <use xlink:href="#DejaVuSans-72" x="1062.492188"/>
      <use xlink:href="#DejaVuSans-69" x="1103.605469"/>
      <use xlink:href="#DejaVuSans-6f" x="1131.388672"/>
      <use xlink:href="#DejaVuSans-64" x="1192.570312"/>
      <use xlink:href="#DejaVuSans-20" x="1256.046875"/>
      <use xlink:href="#DejaVuSans-3d" x="1287.833984"/>
      <use xlink:href="#DejaVuSans-20" x="1371.623047"/>
      <use xlink:href="#DejaVuSans-31" x="1403.410156"/>
      <use xlink:href="#DejaVuSans-2e" x="1467.033203"/>
      <use xlink:href="#DejaVuSans-38" x="1498.820312"/>
      <use xlink:href="#DejaVuSans-38" x="1562.443359"/>
      <use xlink:href="#DejaVuSans-73" x="1626.066406"/>
     </g>
    </g>
   </g>
  </g>
 </g>
 <defs>
  <clipPath id="pa80f10cee3">
   <rect x="62.21" y="21.7575" width="1004.4" height="498.96"/>
  </clipPath>
 </defs>
</svg>
