<?xml version="1.0" encoding="utf-8" standalone="no"?>
<!DOCTYPE svg PUBLIC "-//W3C//DTD SVG 1.1//EN"
  "http://www.w3.org/Graphics/SVG/1.1/DTD/svg11.dtd">
<svg xmlns:xlink="http://www.w3.org/1999/xlink" width="1074.7525pt" height="562.7875pt" viewBox="0 0 1074.7525 562.7875" xmlns="http://www.w3.org/2000/svg" version="1.1">
 <metadata>
  <rdf:RDF xmlns:dc="http://purl.org/dc/elements/1.1/" xmlns:cc="http://creativecommons.org/ns#" xmlns:rdf="http://www.w3.org/1999/02/22-rdf-syntax-ns#">
   <cc:Work>
    <dc:type rdf:resource="http://purl.org/dc/dcmitype/StillImage"/>
    <dc:date>2023-06-10T16:15:14.536572</dc:date>
    <dc:format>image/svg+xml</dc:format>
    <dc:creator>
     <cc:Agent>
      <dc:title>Matplotlib v3.7.1, https://matplotlib.org/</dc:title>
     </cc:Agent>
    </dc:creator>
   </cc:Work>
  </rdf:RDF>
 </metadata>
 <defs>
  <style type="text/css">*{stroke-linejoin: round; stroke-linecap: butt}</style>
 </defs>
 <g id="figure_1">
  <g id="patch_1">
   <path d="M 0 562.7875 
L 1074.7525 562.7875 
L 1074.7525 0 
L 0 0 
z
" style="fill: #ffffff"/>
  </g>
  <g id="axes_1">
   <g id="patch_2">
    <path d="M 66.7525 520.7175 
L 1071.1525 520.7175 
L 1071.1525 21.7575 
L 66.7525 21.7575 
z
" style="fill: #ffffff"/>
   </g>
   <g id="matplotlib.axis_1">
    <g id="xtick_1">
     <g id="line2d_1">
      <path d="M 112.407045 520.7175 
L 112.407045 21.7575 
" clip-path="url(#p351084dbd4)" style="fill: none; stroke-dasharray: 1.85,0.8; stroke-dashoffset: 0; stroke: #000000; stroke-opacity: 0.5; stroke-width: 0.5"/>
     </g>
     <g id="line2d_2">
      <defs>
       <path id="mec220cf9bb" d="M 0 0 
L 0 -6 
" style="stroke: #000000"/>
      </defs>
      <g>
       <use xlink:href="#mec220cf9bb" x="112.407045" y="520.7175" style="stroke: #000000"/>
      </g>
     </g>
     <g id="line2d_3">
      <defs>
       <path id="m911ce74015" d="M 0 0 
L 0 6 
" style="stroke: #000000"/>
      </defs>
      <g>
       <use xlink:href="#m911ce74015" x="112.407045" y="21.7575" style="stroke: #000000"/>
      </g>
     </g>
     <g id="text_1">
      <!-- 0 -->
      <g transform="translate(107.317045 536.375) scale(0.16 -0.16)">
       <defs>
        <path id="DejaVuSans-30" d="M 2034 4250 
Q 1547 4250 1301 3770 
Q 1056 3291 1056 2328 
Q 1056 1369 1301 889 
Q 1547 409 2034 409 
Q 2525 409 2770 889 
Q 3016 1369 3016 2328 
Q 3016 3291 2770 3770 
Q 2525 4250 2034 4250 
z
M 2034 4750 
Q 2819 4750 3233 4129 
Q 3647 3509 3647 2328 
Q 3647 1150 3233 529 
Q 2819 -91 2034 -91 
Q 1250 -91 836 529 
Q 422 1150 422 2328 
Q 422 3509 836 4129 
Q 1250 4750 2034 4750 
z
" transform="scale(0.015625)"/>
       </defs>
       <use xlink:href="#DejaVuSans-30"/>
      </g>
     </g>
    </g>
    <g id="xtick_2">
     <g id="line2d_4">
      <path d="M 268.758229 520.7175 
L 268.758229 21.7575 
" clip-path="url(#p351084dbd4)" style="fill: none; stroke-dasharray: 1.85,0.8; stroke-dashoffset: 0; stroke: #000000; stroke-opacity: 0.5; stroke-width: 0.5"/>
     </g>
     <g id="line2d_5">
      <g>
       <use xlink:href="#mec220cf9bb" x="268.758229" y="520.7175" style="stroke: #000000"/>
      </g>
     </g>
     <g id="line2d_6">
      <g>
       <use xlink:href="#m911ce74015" x="268.758229" y="21.7575" style="stroke: #000000"/>
      </g>
     </g>
     <g id="text_2">
      <!-- 2 -->
      <g transform="translate(263.668229 536.375) scale(0.16 -0.16)">
       <defs>
        <path id="DejaVuSans-32" d="M 1228 531 
L 3431 531 
L 3431 0 
L 469 0 
L 469 531 
Q 828 903 1448 1529 
Q 2069 2156 2228 2338 
Q 2531 2678 2651 2914 
Q 2772 3150 2772 3378 
Q 2772 3750 2511 3984 
Q 2250 4219 1831 4219 
Q 1534 4219 1204 4116 
Q 875 4013 500 3803 
L 500 4441 
Q 881 4594 1212 4672 
Q 1544 4750 1819 4750 
Q 2544 4750 2975 4387 
Q 3406 4025 3406 3419 
Q 3406 3131 3298 2873 
Q 3191 2616 2906 2266 
Q 2828 2175 2409 1742 
Q 1991 1309 1228 531 
z
" transform="scale(0.015625)"/>
       </defs>
       <use xlink:href="#DejaVuSans-32"/>
      </g>
     </g>
    </g>
    <g id="xtick_3">
     <g id="line2d_7">
      <path d="M 425.109412 520.7175 
L 425.109412 21.7575 
" clip-path="url(#p351084dbd4)" style="fill: none; stroke-dasharray: 1.85,0.8; stroke-dashoffset: 0; stroke: #000000; stroke-opacity: 0.5; stroke-width: 0.5"/>
     </g>
     <g id="line2d_8">
      <g>
       <use xlink:href="#mec220cf9bb" x="425.109412" y="520.7175" style="stroke: #000000"/>
      </g>
     </g>
     <g id="line2d_9">
      <g>
       <use xlink:href="#m911ce74015" x="425.109412" y="21.7575" style="stroke: #000000"/>
      </g>
     </g>
     <g id="text_3">
      <!-- 4 -->
      <g transform="translate(420.019412 536.375) scale(0.16 -0.16)">
       <defs>
        <path id="DejaVuSans-34" d="M 2419 4116 
L 825 1625 
L 2419 1625 
L 2419 4116 
z
M 2253 4666 
L 3047 4666 
L 3047 1625 
L 3713 1625 
L 3713 1100 
L 3047 1100 
L 3047 0 
L 2419 0 
L 2419 1100 
L 313 1100 
L 313 1709 
L 2253 4666 
z
" transform="scale(0.015625)"/>
       </defs>
       <use xlink:href="#DejaVuSans-34"/>
      </g>
     </g>
    </g>
    <g id="xtick_4">
     <g id="line2d_10">
      <path d="M 581.460595 520.7175 
L 581.460595 21.7575 
" clip-path="url(#p351084dbd4)" style="fill: none; stroke-dasharray: 1.85,0.8; stroke-dashoffset: 0; stroke: #000000; stroke-opacity: 0.5; stroke-width: 0.5"/>
     </g>
     <g id="line2d_11">
      <g>
       <use xlink:href="#mec220cf9bb" x="581.460595" y="520.7175" style="stroke: #000000"/>
      </g>
     </g>
     <g id="line2d_12">
      <g>
       <use xlink:href="#m911ce74015" x="581.460595" y="21.7575" style="stroke: #000000"/>
      </g>
     </g>
     <g id="text_4">
      <!-- 6 -->
      <g transform="translate(576.370595 536.375) scale(0.16 -0.16)">
       <defs>
        <path id="DejaVuSans-36" d="M 2113 2584 
Q 1688 2584 1439 2293 
Q 1191 2003 1191 1497 
Q 1191 994 1439 701 
Q 1688 409 2113 409 
Q 2538 409 2786 701 
Q 3034 994 3034 1497 
Q 3034 2003 2786 2293 
Q 2538 2584 2113 2584 
z
M 3366 4563 
L 3366 3988 
Q 3128 4100 2886 4159 
Q 2644 4219 2406 4219 
Q 1781 4219 1451 3797 
Q 1122 3375 1075 2522 
Q 1259 2794 1537 2939 
Q 1816 3084 2150 3084 
Q 2853 3084 3261 2657 
Q 3669 2231 3669 1497 
Q 3669 778 3244 343 
Q 2819 -91 2113 -91 
Q 1303 -91 875 529 
Q 447 1150 447 2328 
Q 447 3434 972 4092 
Q 1497 4750 2381 4750 
Q 2619 4750 2861 4703 
Q 3103 4656 3366 4563 
z
" transform="scale(0.015625)"/>
       </defs>
       <use xlink:href="#DejaVuSans-36"/>
      </g>
     </g>
    </g>
    <g id="xtick_5">
     <g id="line2d_13">
      <path d="M 737.811778 520.7175 
L 737.811778 21.7575 
" clip-path="url(#p351084dbd4)" style="fill: none; stroke-dasharray: 1.85,0.8; stroke-dashoffset: 0; stroke: #000000; stroke-opacity: 0.5; stroke-width: 0.5"/>
     </g>
     <g id="line2d_14">
      <g>
       <use xlink:href="#mec220cf9bb" x="737.811778" y="520.7175" style="stroke: #000000"/>
      </g>
     </g>
     <g id="line2d_15">
      <g>
       <use xlink:href="#m911ce74015" x="737.811778" y="21.7575" style="stroke: #000000"/>
      </g>
     </g>
     <g id="text_5">
      <!-- 8 -->
      <g transform="translate(732.721778 536.375) scale(0.16 -0.16)">
       <defs>
        <path id="DejaVuSans-38" d="M 2034 2216 
Q 1584 2216 1326 1975 
Q 1069 1734 1069 1313 
Q 1069 891 1326 650 
Q 1584 409 2034 409 
Q 2484 409 2743 651 
Q 3003 894 3003 1313 
Q 3003 1734 2745 1975 
Q 2488 2216 2034 2216 
z
M 1403 2484 
Q 997 2584 770 2862 
Q 544 3141 544 3541 
Q 544 4100 942 4425 
Q 1341 4750 2034 4750 
Q 2731 4750 3128 4425 
Q 3525 4100 3525 3541 
Q 3525 3141 3298 2862 
Q 3072 2584 2669 2484 
Q 3125 2378 3379 2068 
Q 3634 1759 3634 1313 
Q 3634 634 3220 271 
Q 2806 -91 2034 -91 
Q 1263 -91 848 271 
Q 434 634 434 1313 
Q 434 1759 690 2068 
Q 947 2378 1403 2484 
z
M 1172 3481 
Q 1172 3119 1398 2916 
Q 1625 2713 2034 2713 
Q 2441 2713 2670 2916 
Q 2900 3119 2900 3481 
Q 2900 3844 2670 4047 
Q 2441 4250 2034 4250 
Q 1625 4250 1398 4047 
Q 1172 3844 1172 3481 
z
" transform="scale(0.015625)"/>
       </defs>
       <use xlink:href="#DejaVuSans-38"/>
      </g>
     </g>
    </g>
    <g id="xtick_6">
     <g id="line2d_16">
      <path d="M 894.162961 520.7175 
L 894.162961 21.7575 
" clip-path="url(#p351084dbd4)" style="fill: none; stroke-dasharray: 1.85,0.8; stroke-dashoffset: 0; stroke: #000000; stroke-opacity: 0.5; stroke-width: 0.5"/>
     </g>
     <g id="line2d_17">
      <g>
       <use xlink:href="#mec220cf9bb" x="894.162961" y="520.7175" style="stroke: #000000"/>
      </g>
     </g>
     <g id="line2d_18">
      <g>
       <use xlink:href="#m911ce74015" x="894.162961" y="21.7575" style="stroke: #000000"/>
      </g>
     </g>
     <g id="text_6">
      <!-- 10 -->
      <g transform="translate(883.982961 536.375) scale(0.16 -0.16)">
       <defs>
        <path id="DejaVuSans-31" d="M 794 531 
L 1825 531 
L 1825 4091 
L 703 3866 
L 703 4441 
L 1819 4666 
L 2450 4666 
L 2450 531 
L 3481 531 
L 3481 0 
L 794 0 
L 794 531 
z
" transform="scale(0.015625)"/>
       </defs>
       <use xlink:href="#DejaVuSans-31"/>
       <use xlink:href="#DejaVuSans-30" x="63.623047"/>
      </g>
     </g>
    </g>
    <g id="xtick_7">
     <g id="line2d_19">
      <path d="M 1050.514144 520.7175 
L 1050.514144 21.7575 
" clip-path="url(#p351084dbd4)" style="fill: none; stroke-dasharray: 1.85,0.8; stroke-dashoffset: 0; stroke: #000000; stroke-opacity: 0.5; stroke-width: 0.5"/>
     </g>
     <g id="line2d_20">
      <g>
       <use xlink:href="#mec220cf9bb" x="1050.514144" y="520.7175" style="stroke: #000000"/>
      </g>
     </g>
     <g id="line2d_21">
      <g>
       <use xlink:href="#m911ce74015" x="1050.514144" y="21.7575" style="stroke: #000000"/>
      </g>
     </g>
     <g id="text_7">
      <!-- 12 -->
      <g transform="translate(1040.334144 536.375) scale(0.16 -0.16)">
       <use xlink:href="#DejaVuSans-31"/>
       <use xlink:href="#DejaVuSans-32" x="63.623047"/>
      </g>
     </g>
    </g>
    <g id="xtick_8">
     <g id="line2d_22">
      <defs>
       <path id="m168b5cef01" d="M 0 0 
L 0 -3 
" style="stroke: #000000"/>
      </defs>
      <g>
       <use xlink:href="#m168b5cef01" x="73.31925" y="520.7175" style="stroke: #000000"/>
      </g>
     </g>
     <g id="line2d_23">
      <defs>
       <path id="m7e6d23b1bb" d="M 0 0 
L 0 3 
" style="stroke: #000000"/>
      </defs>
      <g>
       <use xlink:href="#m7e6d23b1bb" x="73.31925" y="21.7575" style="stroke: #000000"/>
      </g>
     </g>
    </g>
    <g id="xtick_9">
     <g id="line2d_24">
      <g>
       <use xlink:href="#m168b5cef01" x="151.494841" y="520.7175" style="stroke: #000000"/>
      </g>
     </g>
     <g id="line2d_25">
      <g>
       <use xlink:href="#m7e6d23b1bb" x="151.494841" y="21.7575" style="stroke: #000000"/>
      </g>
     </g>
    </g>
    <g id="xtick_10">
     <g id="line2d_26">
      <g>
       <use xlink:href="#m168b5cef01" x="190.582637" y="520.7175" style="stroke: #000000"/>
      </g>
     </g>
     <g id="line2d_27">
      <g>
       <use xlink:href="#m7e6d23b1bb" x="190.582637" y="21.7575" style="stroke: #000000"/>
      </g>
     </g>
    </g>
    <g id="xtick_11">
     <g id="line2d_28">
      <g>
       <use xlink:href="#m168b5cef01" x="229.670433" y="520.7175" style="stroke: #000000"/>
      </g>
     </g>
     <g id="line2d_29">
      <g>
       <use xlink:href="#m7e6d23b1bb" x="229.670433" y="21.7575" style="stroke: #000000"/>
      </g>
     </g>
    </g>
    <g id="xtick_12">
     <g id="line2d_30">
      <g>
       <use xlink:href="#m168b5cef01" x="307.846024" y="520.7175" style="stroke: #000000"/>
      </g>
     </g>
     <g id="line2d_31">
      <g>
       <use xlink:href="#m7e6d23b1bb" x="307.846024" y="21.7575" style="stroke: #000000"/>
      </g>
     </g>
    </g>
    <g id="xtick_13">
     <g id="line2d_32">
      <g>
       <use xlink:href="#m168b5cef01" x="346.93382" y="520.7175" style="stroke: #000000"/>
      </g>
     </g>
     <g id="line2d_33">
      <g>
       <use xlink:href="#m7e6d23b1bb" x="346.93382" y="21.7575" style="stroke: #000000"/>
      </g>
     </g>
    </g>
    <g id="xtick_14">
     <g id="line2d_34">
      <g>
       <use xlink:href="#m168b5cef01" x="386.021616" y="520.7175" style="stroke: #000000"/>
      </g>
     </g>
     <g id="line2d_35">
      <g>
       <use xlink:href="#m7e6d23b1bb" x="386.021616" y="21.7575" style="stroke: #000000"/>
      </g>
     </g>
    </g>
    <g id="xtick_15">
     <g id="line2d_36">
      <g>
       <use xlink:href="#m168b5cef01" x="464.197207" y="520.7175" style="stroke: #000000"/>
      </g>
     </g>
     <g id="line2d_37">
      <g>
       <use xlink:href="#m7e6d23b1bb" x="464.197207" y="21.7575" style="stroke: #000000"/>
      </g>
     </g>
    </g>
    <g id="xtick_16">
     <g id="line2d_38">
      <g>
       <use xlink:href="#m168b5cef01" x="503.285003" y="520.7175" style="stroke: #000000"/>
      </g>
     </g>
     <g id="line2d_39">
      <g>
       <use xlink:href="#m7e6d23b1bb" x="503.285003" y="21.7575" style="stroke: #000000"/>
      </g>
     </g>
    </g>
    <g id="xtick_17">
     <g id="line2d_40">
      <g>
       <use xlink:href="#m168b5cef01" x="542.372799" y="520.7175" style="stroke: #000000"/>
      </g>
     </g>
     <g id="line2d_41">
      <g>
       <use xlink:href="#m7e6d23b1bb" x="542.372799" y="21.7575" style="stroke: #000000"/>
      </g>
     </g>
    </g>
    <g id="xtick_18">
     <g id="line2d_42">
      <g>
       <use xlink:href="#m168b5cef01" x="620.54839" y="520.7175" style="stroke: #000000"/>
      </g>
     </g>
     <g id="line2d_43">
      <g>
       <use xlink:href="#m7e6d23b1bb" x="620.54839" y="21.7575" style="stroke: #000000"/>
      </g>
     </g>
    </g>
    <g id="xtick_19">
     <g id="line2d_44">
      <g>
       <use xlink:href="#m168b5cef01" x="659.636186" y="520.7175" style="stroke: #000000"/>
      </g>
     </g>
     <g id="line2d_45">
      <g>
       <use xlink:href="#m7e6d23b1bb" x="659.636186" y="21.7575" style="stroke: #000000"/>
      </g>
     </g>
    </g>
    <g id="xtick_20">
     <g id="line2d_46">
      <g>
       <use xlink:href="#m168b5cef01" x="698.723982" y="520.7175" style="stroke: #000000"/>
      </g>
     </g>
     <g id="line2d_47">
      <g>
       <use xlink:href="#m7e6d23b1bb" x="698.723982" y="21.7575" style="stroke: #000000"/>
      </g>
     </g>
    </g>
    <g id="xtick_21">
     <g id="line2d_48">
      <g>
       <use xlink:href="#m168b5cef01" x="776.899573" y="520.7175" style="stroke: #000000"/>
      </g>
     </g>
     <g id="line2d_49">
      <g>
       <use xlink:href="#m7e6d23b1bb" x="776.899573" y="21.7575" style="stroke: #000000"/>
      </g>
     </g>
    </g>
    <g id="xtick_22">
     <g id="line2d_50">
      <g>
       <use xlink:href="#m168b5cef01" x="815.987369" y="520.7175" style="stroke: #000000"/>
      </g>
     </g>
     <g id="line2d_51">
      <g>
       <use xlink:href="#m7e6d23b1bb" x="815.987369" y="21.7575" style="stroke: #000000"/>
      </g>
     </g>
    </g>
    <g id="xtick_23">
     <g id="line2d_52">
      <g>
       <use xlink:href="#m168b5cef01" x="855.075165" y="520.7175" style="stroke: #000000"/>
      </g>
     </g>
     <g id="line2d_53">
      <g>
       <use xlink:href="#m7e6d23b1bb" x="855.075165" y="21.7575" style="stroke: #000000"/>
      </g>
     </g>
    </g>
    <g id="xtick_24">
     <g id="line2d_54">
      <g>
       <use xlink:href="#m168b5cef01" x="933.250757" y="520.7175" style="stroke: #000000"/>
      </g>
     </g>
     <g id="line2d_55">
      <g>
       <use xlink:href="#m7e6d23b1bb" x="933.250757" y="21.7575" style="stroke: #000000"/>
      </g>
     </g>
    </g>
    <g id="xtick_25">
     <g id="line2d_56">
      <g>
       <use xlink:href="#m168b5cef01" x="972.338552" y="520.7175" style="stroke: #000000"/>
      </g>
     </g>
     <g id="line2d_57">
      <g>
       <use xlink:href="#m7e6d23b1bb" x="972.338552" y="21.7575" style="stroke: #000000"/>
      </g>
     </g>
    </g>
    <g id="xtick_26">
     <g id="line2d_58">
      <g>
       <use xlink:href="#m168b5cef01" x="1011.426348" y="520.7175" style="stroke: #000000"/>
      </g>
     </g>
     <g id="line2d_59">
      <g>
       <use xlink:href="#m7e6d23b1bb" x="1011.426348" y="21.7575" style="stroke: #000000"/>
      </g>
     </g>
    </g>
    <g id="text_8">
     <!-- Time(s) -->
     <g transform="translate(538.96875 555.86) scale(0.16 -0.16)">
      <defs>
       <path id="DejaVuSans-54" d="M -19 4666 
L 3928 4666 
L 3928 4134 
L 2272 4134 
L 2272 0 
L 1638 0 
L 1638 4134 
L -19 4134 
L -19 4666 
z
" transform="scale(0.015625)"/>
       <path id="DejaVuSans-69" d="M 603 3500 
L 1178 3500 
L 1178 0 
L 603 0 
L 603 3500 
z
M 603 4863 
L 1178 4863 
L 1178 4134 
L 603 4134 
L 603 4863 
z
" transform="scale(0.015625)"/>
       <path id="DejaVuSans-6d" d="M 3328 2828 
Q 3544 3216 3844 3400 
Q 4144 3584 4550 3584 
Q 5097 3584 5394 3201 
Q 5691 2819 5691 2113 
L 5691 0 
L 5113 0 
L 5113 2094 
Q 5113 2597 4934 2840 
Q 4756 3084 4391 3084 
Q 3944 3084 3684 2787 
Q 3425 2491 3425 1978 
L 3425 0 
L 2847 0 
L 2847 2094 
Q 2847 2600 2669 2842 
Q 2491 3084 2119 3084 
Q 1678 3084 1418 2786 
Q 1159 2488 1159 1978 
L 1159 0 
L 581 0 
L 581 3500 
L 1159 3500 
L 1159 2956 
Q 1356 3278 1631 3431 
Q 1906 3584 2284 3584 
Q 2666 3584 2933 3390 
Q 3200 3197 3328 2828 
z
" transform="scale(0.015625)"/>
       <path id="DejaVuSans-65" d="M 3597 1894 
L 3597 1613 
L 953 1613 
Q 991 1019 1311 708 
Q 1631 397 2203 397 
Q 2534 397 2845 478 
Q 3156 559 3463 722 
L 3463 178 
Q 3153 47 2828 -22 
Q 2503 -91 2169 -91 
Q 1331 -91 842 396 
Q 353 884 353 1716 
Q 353 2575 817 3079 
Q 1281 3584 2069 3584 
Q 2775 3584 3186 3129 
Q 3597 2675 3597 1894 
z
M 3022 2063 
Q 3016 2534 2758 2815 
Q 2500 3097 2075 3097 
Q 1594 3097 1305 2825 
Q 1016 2553 972 2059 
L 3022 2063 
z
" transform="scale(0.015625)"/>
       <path id="DejaVuSans-28" d="M 1984 4856 
Q 1566 4138 1362 3434 
Q 1159 2731 1159 2009 
Q 1159 1288 1364 580 
Q 1569 -128 1984 -844 
L 1484 -844 
Q 1016 -109 783 600 
Q 550 1309 550 2009 
Q 550 2706 781 3412 
Q 1013 4119 1484 4856 
L 1984 4856 
z
" transform="scale(0.015625)"/>
       <path id="DejaVuSans-73" d="M 2834 3397 
L 2834 2853 
Q 2591 2978 2328 3040 
Q 2066 3103 1784 3103 
Q 1356 3103 1142 2972 
Q 928 2841 928 2578 
Q 928 2378 1081 2264 
Q 1234 2150 1697 2047 
L 1894 2003 
Q 2506 1872 2764 1633 
Q 3022 1394 3022 966 
Q 3022 478 2636 193 
Q 2250 -91 1575 -91 
Q 1294 -91 989 -36 
Q 684 19 347 128 
L 347 722 
Q 666 556 975 473 
Q 1284 391 1588 391 
Q 1994 391 2212 530 
Q 2431 669 2431 922 
Q 2431 1156 2273 1281 
Q 2116 1406 1581 1522 
L 1381 1569 
Q 847 1681 609 1914 
Q 372 2147 372 2553 
Q 372 3047 722 3315 
Q 1072 3584 1716 3584 
Q 2034 3584 2315 3537 
Q 2597 3491 2834 3397 
z
" transform="scale(0.015625)"/>
       <path id="DejaVuSans-29" d="M 513 4856 
L 1013 4856 
Q 1481 4119 1714 3412 
Q 1947 2706 1947 2009 
Q 1947 1309 1714 600 
Q 1481 -109 1013 -844 
L 513 -844 
Q 928 -128 1133 580 
Q 1338 1288 1338 2009 
Q 1338 2731 1133 3434 
Q 928 4138 513 4856 
z
" transform="scale(0.015625)"/>
      </defs>
      <use xlink:href="#DejaVuSans-54"/>
      <use xlink:href="#DejaVuSans-69" x="57.958984"/>
      <use xlink:href="#DejaVuSans-6d" x="85.742188"/>
      <use xlink:href="#DejaVuSans-65" x="183.154297"/>
      <use xlink:href="#DejaVuSans-28" x="244.677734"/>
      <use xlink:href="#DejaVuSans-73" x="283.691406"/>
      <use xlink:href="#DejaVuSans-29" x="335.791016"/>
     </g>
    </g>
   </g>
   <g id="matplotlib.axis_2">
    <g id="ytick_1">
     <g id="line2d_60">
      <path d="M 66.7525 453.497708 
L 1071.1525 453.497708 
" clip-path="url(#p351084dbd4)" style="fill: none; stroke-dasharray: 1.85,0.8; stroke-dashoffset: 0; stroke: #000000; stroke-opacity: 0.5; stroke-width: 0.5"/>
     </g>
     <g id="line2d_61">
      <defs>
       <path id="m39f295bc4d" d="M 0 0 
L 6 0 
" style="stroke: #000000"/>
      </defs>
      <g>
       <use xlink:href="#m39f295bc4d" x="66.7525" y="453.497708" style="stroke: #000000"/>
      </g>
     </g>
     <g id="line2d_62">
      <defs>
       <path id="mde37fcb61f" d="M 0 0 
L -6 0 
" style="stroke: #000000"/>
      </defs>
      <g>
       <use xlink:href="#mde37fcb61f" x="1071.1525" y="453.497708" style="stroke: #000000"/>
      </g>
     </g>
     <g id="text_9">
      <!-- −0.4 -->
      <g transform="translate(24.4 459.576458) scale(0.16 -0.16)">
       <defs>
        <path id="DejaVuSans-2212" d="M 678 2272 
L 4684 2272 
L 4684 1741 
L 678 1741 
L 678 2272 
z
" transform="scale(0.015625)"/>
        <path id="DejaVuSans-2e" d="M 684 794 
L 1344 794 
L 1344 0 
L 684 0 
L 684 794 
z
" transform="scale(0.015625)"/>
       </defs>
       <use xlink:href="#DejaVuSans-2212"/>
       <use xlink:href="#DejaVuSans-30" x="83.789062"/>
       <use xlink:href="#DejaVuSans-2e" x="147.412109"/>
       <use xlink:href="#DejaVuSans-34" x="179.199219"/>
      </g>
     </g>
    </g>
    <g id="ytick_2">
     <g id="line2d_63">
      <path d="M 66.7525 379.471653 
L 1071.1525 379.471653 
" clip-path="url(#p351084dbd4)" style="fill: none; stroke-dasharray: 1.85,0.8; stroke-dashoffset: 0; stroke: #000000; stroke-opacity: 0.5; stroke-width: 0.5"/>
     </g>
     <g id="line2d_64">
      <g>
       <use xlink:href="#m39f295bc4d" x="66.7525" y="379.471653" style="stroke: #000000"/>
      </g>
     </g>
     <g id="line2d_65">
      <g>
       <use xlink:href="#mde37fcb61f" x="1071.1525" y="379.471653" style="stroke: #000000"/>
      </g>
     </g>
     <g id="text_10">
      <!-- −0.2 -->
      <g transform="translate(24.4 385.550403) scale(0.16 -0.16)">
       <use xlink:href="#DejaVuSans-2212"/>
       <use xlink:href="#DejaVuSans-30" x="83.789062"/>
       <use xlink:href="#DejaVuSans-2e" x="147.412109"/>
       <use xlink:href="#DejaVuSans-32" x="179.199219"/>
      </g>
     </g>
    </g>
    <g id="ytick_3">
     <g id="line2d_66">
      <path d="M 66.7525 305.445597 
L 1071.1525 305.445597 
" clip-path="url(#p351084dbd4)" style="fill: none; stroke-dasharray: 1.85,0.8; stroke-dashoffset: 0; stroke: #000000; stroke-opacity: 0.5; stroke-width: 0.5"/>
     </g>
     <g id="line2d_67">
      <g>
       <use xlink:href="#m39f295bc4d" x="66.7525" y="305.445597" style="stroke: #000000"/>
      </g>
     </g>
     <g id="line2d_68">
      <g>
       <use xlink:href="#mde37fcb61f" x="1071.1525" y="305.445597" style="stroke: #000000"/>
      </g>
     </g>
     <g id="text_11">
      <!-- 0.0 -->
      <g transform="translate(37.8075 311.524347) scale(0.16 -0.16)">
       <use xlink:href="#DejaVuSans-30"/>
       <use xlink:href="#DejaVuSans-2e" x="63.623047"/>
       <use xlink:href="#DejaVuSans-30" x="95.410156"/>
      </g>
     </g>
    </g>
    <g id="ytick_4">
     <g id="line2d_69">
      <path d="M 66.7525 231.419542 
L 1071.1525 231.419542 
" clip-path="url(#p351084dbd4)" style="fill: none; stroke-dasharray: 1.85,0.8; stroke-dashoffset: 0; stroke: #000000; stroke-opacity: 0.5; stroke-width: 0.5"/>
     </g>
     <g id="line2d_70">
      <g>
       <use xlink:href="#m39f295bc4d" x="66.7525" y="231.419542" style="stroke: #000000"/>
      </g>
     </g>
     <g id="line2d_71">
      <g>
       <use xlink:href="#mde37fcb61f" x="1071.1525" y="231.419542" style="stroke: #000000"/>
      </g>
     </g>
     <g id="text_12">
      <!-- 0.2 -->
      <g transform="translate(37.8075 237.498292) scale(0.16 -0.16)">
       <use xlink:href="#DejaVuSans-30"/>
       <use xlink:href="#DejaVuSans-2e" x="63.623047"/>
       <use xlink:href="#DejaVuSans-32" x="95.410156"/>
      </g>
     </g>
    </g>
    <g id="ytick_5">
     <g id="line2d_72">
      <path d="M 66.7525 157.393487 
L 1071.1525 157.393487 
" clip-path="url(#p351084dbd4)" style="fill: none; stroke-dasharray: 1.85,0.8; stroke-dashoffset: 0; stroke: #000000; stroke-opacity: 0.5; stroke-width: 0.5"/>
     </g>
     <g id="line2d_73">
      <g>
       <use xlink:href="#m39f295bc4d" x="66.7525" y="157.393487" style="stroke: #000000"/>
      </g>
     </g>
     <g id="line2d_74">
      <g>
       <use xlink:href="#mde37fcb61f" x="1071.1525" y="157.393487" style="stroke: #000000"/>
      </g>
     </g>
     <g id="text_13">
      <!-- 0.4 -->
      <g transform="translate(37.8075 163.472237) scale(0.16 -0.16)">
       <use xlink:href="#DejaVuSans-30"/>
       <use xlink:href="#DejaVuSans-2e" x="63.623047"/>
       <use xlink:href="#DejaVuSans-34" x="95.410156"/>
      </g>
     </g>
    </g>
    <g id="ytick_6">
     <g id="line2d_75">
      <path d="M 66.7525 83.367432 
L 1071.1525 83.367432 
" clip-path="url(#p351084dbd4)" style="fill: none; stroke-dasharray: 1.85,0.8; stroke-dashoffset: 0; stroke: #000000; stroke-opacity: 0.5; stroke-width: 0.5"/>
     </g>
     <g id="line2d_76">
      <g>
       <use xlink:href="#m39f295bc4d" x="66.7525" y="83.367432" style="stroke: #000000"/>
      </g>
     </g>
     <g id="line2d_77">
      <g>
       <use xlink:href="#mde37fcb61f" x="1071.1525" y="83.367432" style="stroke: #000000"/>
      </g>
     </g>
     <g id="text_14">
      <!-- 0.6 -->
      <g transform="translate(37.8075 89.446182) scale(0.16 -0.16)">
       <use xlink:href="#DejaVuSans-30"/>
       <use xlink:href="#DejaVuSans-2e" x="63.623047"/>
       <use xlink:href="#DejaVuSans-36" x="95.410156"/>
      </g>
     </g>
    </g>
    <g id="ytick_7">
     <g id="line2d_78">
      <defs>
       <path id="mc8f056ce7a" d="M 0 0 
L 3 0 
" style="stroke: #000000"/>
      </defs>
      <g>
       <use xlink:href="#mc8f056ce7a" x="66.7525" y="509.017249" style="stroke: #000000"/>
      </g>
     </g>
     <g id="line2d_79">
      <defs>
       <path id="m6b7110cf56" d="M 0 0 
L -3 0 
" style="stroke: #000000"/>
      </defs>
      <g>
       <use xlink:href="#m6b7110cf56" x="1071.1525" y="509.017249" style="stroke: #000000"/>
      </g>
     </g>
    </g>
    <g id="ytick_8">
     <g id="line2d_80">
      <g>
       <use xlink:href="#mc8f056ce7a" x="66.7525" y="490.510735" style="stroke: #000000"/>
      </g>
     </g>
     <g id="line2d_81">
      <g>
       <use xlink:href="#m6b7110cf56" x="1071.1525" y="490.510735" style="stroke: #000000"/>
      </g>
     </g>
    </g>
    <g id="ytick_9">
     <g id="line2d_82">
      <g>
       <use xlink:href="#mc8f056ce7a" x="66.7525" y="472.004221" style="stroke: #000000"/>
      </g>
     </g>
     <g id="line2d_83">
      <g>
       <use xlink:href="#m6b7110cf56" x="1071.1525" y="472.004221" style="stroke: #000000"/>
      </g>
     </g>
    </g>
    <g id="ytick_10">
     <g id="line2d_84">
      <g>
       <use xlink:href="#mc8f056ce7a" x="66.7525" y="434.991194" style="stroke: #000000"/>
      </g>
     </g>
     <g id="line2d_85">
      <g>
       <use xlink:href="#m6b7110cf56" x="1071.1525" y="434.991194" style="stroke: #000000"/>
      </g>
     </g>
    </g>
    <g id="ytick_11">
     <g id="line2d_86">
      <g>
       <use xlink:href="#mc8f056ce7a" x="66.7525" y="416.48468" style="stroke: #000000"/>
      </g>
     </g>
     <g id="line2d_87">
      <g>
       <use xlink:href="#m6b7110cf56" x="1071.1525" y="416.48468" style="stroke: #000000"/>
      </g>
     </g>
    </g>
    <g id="ytick_12">
     <g id="line2d_88">
      <g>
       <use xlink:href="#mc8f056ce7a" x="66.7525" y="397.978166" style="stroke: #000000"/>
      </g>
     </g>
     <g id="line2d_89">
      <g>
       <use xlink:href="#m6b7110cf56" x="1071.1525" y="397.978166" style="stroke: #000000"/>
      </g>
     </g>
    </g>
    <g id="ytick_13">
     <g id="line2d_90">
      <g>
       <use xlink:href="#mc8f056ce7a" x="66.7525" y="360.965139" style="stroke: #000000"/>
      </g>
     </g>
     <g id="line2d_91">
      <g>
       <use xlink:href="#m6b7110cf56" x="1071.1525" y="360.965139" style="stroke: #000000"/>
      </g>
     </g>
    </g>
    <g id="ytick_14">
     <g id="line2d_92">
      <g>
       <use xlink:href="#mc8f056ce7a" x="66.7525" y="342.458625" style="stroke: #000000"/>
      </g>
     </g>
     <g id="line2d_93">
      <g>
       <use xlink:href="#m6b7110cf56" x="1071.1525" y="342.458625" style="stroke: #000000"/>
      </g>
     </g>
    </g>
    <g id="ytick_15">
     <g id="line2d_94">
      <g>
       <use xlink:href="#mc8f056ce7a" x="66.7525" y="323.952111" style="stroke: #000000"/>
      </g>
     </g>
     <g id="line2d_95">
      <g>
       <use xlink:href="#m6b7110cf56" x="1071.1525" y="323.952111" style="stroke: #000000"/>
      </g>
     </g>
    </g>
    <g id="ytick_16">
     <g id="line2d_96">
      <g>
       <use xlink:href="#mc8f056ce7a" x="66.7525" y="286.939084" style="stroke: #000000"/>
      </g>
     </g>
     <g id="line2d_97">
      <g>
       <use xlink:href="#m6b7110cf56" x="1071.1525" y="286.939084" style="stroke: #000000"/>
      </g>
     </g>
    </g>
    <g id="ytick_17">
     <g id="line2d_98">
      <g>
       <use xlink:href="#mc8f056ce7a" x="66.7525" y="268.43257" style="stroke: #000000"/>
      </g>
     </g>
     <g id="line2d_99">
      <g>
       <use xlink:href="#m6b7110cf56" x="1071.1525" y="268.43257" style="stroke: #000000"/>
      </g>
     </g>
    </g>
    <g id="ytick_18">
     <g id="line2d_100">
      <g>
       <use xlink:href="#mc8f056ce7a" x="66.7525" y="249.926056" style="stroke: #000000"/>
      </g>
     </g>
     <g id="line2d_101">
      <g>
       <use xlink:href="#m6b7110cf56" x="1071.1525" y="249.926056" style="stroke: #000000"/>
      </g>
     </g>
    </g>
    <g id="ytick_19">
     <g id="line2d_102">
      <g>
       <use xlink:href="#mc8f056ce7a" x="66.7525" y="212.913028" style="stroke: #000000"/>
      </g>
     </g>
     <g id="line2d_103">
      <g>
       <use xlink:href="#m6b7110cf56" x="1071.1525" y="212.913028" style="stroke: #000000"/>
      </g>
     </g>
    </g>
    <g id="ytick_20">
     <g id="line2d_104">
      <g>
       <use xlink:href="#mc8f056ce7a" x="66.7525" y="194.406515" style="stroke: #000000"/>
      </g>
     </g>
     <g id="line2d_105">
      <g>
       <use xlink:href="#m6b7110cf56" x="1071.1525" y="194.406515" style="stroke: #000000"/>
      </g>
     </g>
    </g>
    <g id="ytick_21">
     <g id="line2d_106">
      <g>
       <use xlink:href="#mc8f056ce7a" x="66.7525" y="175.900001" style="stroke: #000000"/>
      </g>
     </g>
     <g id="line2d_107">
      <g>
       <use xlink:href="#m6b7110cf56" x="1071.1525" y="175.900001" style="stroke: #000000"/>
      </g>
     </g>
    </g>
    <g id="ytick_22">
     <g id="line2d_108">
      <g>
       <use xlink:href="#mc8f056ce7a" x="66.7525" y="138.886973" style="stroke: #000000"/>
      </g>
     </g>
     <g id="line2d_109">
      <g>
       <use xlink:href="#m6b7110cf56" x="1071.1525" y="138.886973" style="stroke: #000000"/>
      </g>
     </g>
    </g>
    <g id="ytick_23">
     <g id="line2d_110">
      <g>
       <use xlink:href="#mc8f056ce7a" x="66.7525" y="120.380459" style="stroke: #000000"/>
      </g>
     </g>
     <g id="line2d_111">
      <g>
       <use xlink:href="#m6b7110cf56" x="1071.1525" y="120.380459" style="stroke: #000000"/>
      </g>
     </g>
    </g>
    <g id="ytick_24">
     <g id="line2d_112">
      <g>
       <use xlink:href="#mc8f056ce7a" x="66.7525" y="101.873946" style="stroke: #000000"/>
      </g>
     </g>
     <g id="line2d_113">
      <g>
       <use xlink:href="#m6b7110cf56" x="1071.1525" y="101.873946" style="stroke: #000000"/>
      </g>
     </g>
    </g>
    <g id="ytick_25">
     <g id="line2d_114">
      <g>
       <use xlink:href="#mc8f056ce7a" x="66.7525" y="64.860918" style="stroke: #000000"/>
      </g>
     </g>
     <g id="line2d_115">
      <g>
       <use xlink:href="#m6b7110cf56" x="1071.1525" y="64.860918" style="stroke: #000000"/>
      </g>
     </g>
    </g>
    <g id="ytick_26">
     <g id="line2d_116">
      <g>
       <use xlink:href="#mc8f056ce7a" x="66.7525" y="46.354404" style="stroke: #000000"/>
      </g>
     </g>
     <g id="line2d_117">
      <g>
       <use xlink:href="#m6b7110cf56" x="1071.1525" y="46.354404" style="stroke: #000000"/>
      </g>
     </g>
    </g>
    <g id="ytick_27">
     <g id="line2d_118">
      <g>
       <use xlink:href="#mc8f056ce7a" x="66.7525" y="27.847891" style="stroke: #000000"/>
      </g>
     </g>
     <g id="line2d_119">
      <g>
       <use xlink:href="#m6b7110cf56" x="1071.1525" y="27.847891" style="stroke: #000000"/>
      </g>
     </g>
    </g>
    <g id="text_15">
     <!-- Acceleration(m/s$^2$) -->
     <g transform="translate(17.0725 345.8775) rotate(-90) scale(0.16 -0.16)">
      <defs>
       <path id="DejaVuSans-41" d="M 2188 4044 
L 1331 1722 
L 3047 1722 
L 2188 4044 
z
M 1831 4666 
L 2547 4666 
L 4325 0 
L 3669 0 
L 3244 1197 
L 1141 1197 
L 716 0 
L 50 0 
L 1831 4666 
z
" transform="scale(0.015625)"/>
       <path id="DejaVuSans-63" d="M 3122 3366 
L 3122 2828 
Q 2878 2963 2633 3030 
Q 2388 3097 2138 3097 
Q 1578 3097 1268 2742 
Q 959 2388 959 1747 
Q 959 1106 1268 751 
Q 1578 397 2138 397 
Q 2388 397 2633 464 
Q 2878 531 3122 666 
L 3122 134 
Q 2881 22 2623 -34 
Q 2366 -91 2075 -91 
Q 1284 -91 818 406 
Q 353 903 353 1747 
Q 353 2603 823 3093 
Q 1294 3584 2113 3584 
Q 2378 3584 2631 3529 
Q 2884 3475 3122 3366 
z
" transform="scale(0.015625)"/>
       <path id="DejaVuSans-6c" d="M 603 4863 
L 1178 4863 
L 1178 0 
L 603 0 
L 603 4863 
z
" transform="scale(0.015625)"/>
       <path id="DejaVuSans-72" d="M 2631 2963 
Q 2534 3019 2420 3045 
Q 2306 3072 2169 3072 
Q 1681 3072 1420 2755 
Q 1159 2438 1159 1844 
L 1159 0 
L 581 0 
L 581 3500 
L 1159 3500 
L 1159 2956 
Q 1341 3275 1631 3429 
Q 1922 3584 2338 3584 
Q 2397 3584 2469 3576 
Q 2541 3569 2628 3553 
L 2631 2963 
z
" transform="scale(0.015625)"/>
       <path id="DejaVuSans-61" d="M 2194 1759 
Q 1497 1759 1228 1600 
Q 959 1441 959 1056 
Q 959 750 1161 570 
Q 1363 391 1709 391 
Q 2188 391 2477 730 
Q 2766 1069 2766 1631 
L 2766 1759 
L 2194 1759 
z
M 3341 1997 
L 3341 0 
L 2766 0 
L 2766 531 
Q 2569 213 2275 61 
Q 1981 -91 1556 -91 
Q 1019 -91 701 211 
Q 384 513 384 1019 
Q 384 1609 779 1909 
Q 1175 2209 1959 2209 
L 2766 2209 
L 2766 2266 
Q 2766 2663 2505 2880 
Q 2244 3097 1772 3097 
Q 1472 3097 1187 3025 
Q 903 2953 641 2809 
L 641 3341 
Q 956 3463 1253 3523 
Q 1550 3584 1831 3584 
Q 2591 3584 2966 3190 
Q 3341 2797 3341 1997 
z
" transform="scale(0.015625)"/>
       <path id="DejaVuSans-74" d="M 1172 4494 
L 1172 3500 
L 2356 3500 
L 2356 3053 
L 1172 3053 
L 1172 1153 
Q 1172 725 1289 603 
Q 1406 481 1766 481 
L 2356 481 
L 2356 0 
L 1766 0 
Q 1100 0 847 248 
Q 594 497 594 1153 
L 594 3053 
L 172 3053 
L 172 3500 
L 594 3500 
L 594 4494 
L 1172 4494 
z
" transform="scale(0.015625)"/>
       <path id="DejaVuSans-6f" d="M 1959 3097 
Q 1497 3097 1228 2736 
Q 959 2375 959 1747 
Q 959 1119 1226 758 
Q 1494 397 1959 397 
Q 2419 397 2687 759 
Q 2956 1122 2956 1747 
Q 2956 2369 2687 2733 
Q 2419 3097 1959 3097 
z
M 1959 3584 
Q 2709 3584 3137 3096 
Q 3566 2609 3566 1747 
Q 3566 888 3137 398 
Q 2709 -91 1959 -91 
Q 1206 -91 779 398 
Q 353 888 353 1747 
Q 353 2609 779 3096 
Q 1206 3584 1959 3584 
z
" transform="scale(0.015625)"/>
       <path id="DejaVuSans-6e" d="M 3513 2113 
L 3513 0 
L 2938 0 
L 2938 2094 
Q 2938 2591 2744 2837 
Q 2550 3084 2163 3084 
Q 1697 3084 1428 2787 
Q 1159 2491 1159 1978 
L 1159 0 
L 581 0 
L 581 3500 
L 1159 3500 
L 1159 2956 
Q 1366 3272 1645 3428 
Q 1925 3584 2291 3584 
Q 2894 3584 3203 3211 
Q 3513 2838 3513 2113 
z
" transform="scale(0.015625)"/>
       <path id="DejaVuSans-2f" d="M 1625 4666 
L 2156 4666 
L 531 -594 
L 0 -594 
L 1625 4666 
z
" transform="scale(0.015625)"/>
      </defs>
      <use xlink:href="#DejaVuSans-41" transform="translate(0 0.765625)"/>
      <use xlink:href="#DejaVuSans-63" transform="translate(68.408203 0.765625)"/>
      <use xlink:href="#DejaVuSans-63" transform="translate(123.388672 0.765625)"/>
      <use xlink:href="#DejaVuSans-65" transform="translate(178.369141 0.765625)"/>
      <use xlink:href="#DejaVuSans-6c" transform="translate(239.892578 0.765625)"/>
      <use xlink:href="#DejaVuSans-65" transform="translate(267.675781 0.765625)"/>
      <use xlink:href="#DejaVuSans-72" transform="translate(329.199219 0.765625)"/>
      <use xlink:href="#DejaVuSans-61" transform="translate(370.3125 0.765625)"/>
      <use xlink:href="#DejaVuSans-74" transform="translate(431.591797 0.765625)"/>
      <use xlink:href="#DejaVuSans-69" transform="translate(470.800781 0.765625)"/>
      <use xlink:href="#DejaVuSans-6f" transform="translate(498.583984 0.765625)"/>
      <use xlink:href="#DejaVuSans-6e" transform="translate(559.765625 0.765625)"/>
      <use xlink:href="#DejaVuSans-28" transform="translate(623.144531 0.765625)"/>
      <use xlink:href="#DejaVuSans-6d" transform="translate(662.158203 0.765625)"/>
      <use xlink:href="#DejaVuSans-2f" transform="translate(759.570312 0.765625)"/>
      <use xlink:href="#DejaVuSans-73" transform="translate(793.261719 0.765625)"/>
      <use xlink:href="#DejaVuSans-32" transform="translate(846.318359 39.046875) scale(0.7)"/>
      <use xlink:href="#DejaVuSans-29" transform="translate(893.588867 0.765625)"/>
     </g>
    </g>
   </g>
   <g id="line2d_120">
    <path d="M 112.407045 302.763273 
L 121.788116 303.156766 
L 124.91514 303.40732 
L 130.387432 304.219594 
L 131.169187 303.782304 
L 133.514455 302.115675 
L 134.296211 302.241191 
L 135.859723 302.246975 
L 138.204991 302.687831 
L 138.986747 303.286393 
L 140.550258 306.955569 
L 141.332014 309.057312 
L 142.11377 310.810556 
L 142.895526 312.181523 
L 143.677282 313.887741 
L 144.459038 315.322838 
L 145.240794 314.26862 
L 146.804306 311.416824 
L 147.586062 310.134443 
L 148.367818 309.887213 
L 149.931329 308.85919 
L 150.713085 309.261261 
L 151.494841 310.181315 
L 152.276597 310.860232 
L 153.058353 311.153026 
L 156.185377 300.869469 
L 158.530644 295.825739 
L 159.3124 295.726588 
L 160.094156 296.215354 
L 160.875912 296.332325 
L 161.657668 296.896812 
L 163.22118 299.523069 
L 164.784692 301.911865 
L 166.348204 303.744305 
L 167.12996 304.803151 
L 167.911715 307.205699 
L 169.475227 312.489942 
L 170.256983 314.933448 
L 172.602251 319.557615 
L 173.384007 318.562774 
L 174.165763 315.269949 
L 174.947519 312.856659 
L 175.729275 309.810349 
L 177.292786 298.550486 
L 178.074542 296.326643 
L 178.856298 297.975256 
L 179.638054 298.429088 
L 180.41981 299.262942 
L 181.201566 300.430966 
L 181.983322 301.351927 
L 182.765078 302.898726 
L 185.110346 316.611087 
L 185.892101 320.655466 
L 188.237369 329.5408 
L 189.019125 325.868505 
L 189.800881 320.618652 
L 190.582637 316.571586 
L 191.364393 311.880631 
L 193.709661 300.66377 
L 194.491417 298.615357 
L 195.273172 298.726324 
L 196.054928 298.164158 
L 196.836684 298.061866 
L 197.61844 301.322172 
L 198.400196 305.277307 
L 199.963708 312.445651 
L 202.308976 323.266942 
L 203.090732 321.754999 
L 203.872488 316.989649 
L 204.654243 313.700561 
L 206.217755 305.100206 
L 207.781267 296.360585 
L 208.563023 293.768372 
L 209.344779 294.672329 
L 210.126535 294.79156 
L 210.908291 295.034011 
L 211.690047 296.827907 
L 213.253559 301.255449 
L 214.035314 303.569151 
L 216.380582 311.467937 
L 217.162338 311.834016 
L 217.944094 309.149841 
L 219.507606 305.467291 
L 220.289362 305.943827 
L 221.071118 307.718375 
L 221.852874 308.804434 
L 222.63463 309.538635 
L 224.198141 305.985167 
L 224.979897 304.452502 
L 225.761653 303.212414 
L 226.543409 302.86136 
L 228.106921 301.796174 
L 230.452189 301.77323 
L 231.233945 302.829772 
L 232.797456 310.086016 
L 233.579212 313.432151 
L 234.360968 316.227445 
L 235.142724 318.073242 
L 235.92448 320.219706 
L 236.706236 321.381833 
L 239.83326 297.580652 
L 240.615016 298.449741 
L 241.396771 298.550396 
L 242.178527 298.484708 
L 242.960283 300.185665 
L 243.742039 302.363823 
L 244.523795 304.190201 
L 245.305551 306.775551 
L 247.650819 322.767044 
L 248.432575 324.688808 
L 249.214331 319.835032 
L 250.777842 313.136619 
L 251.559598 314.459729 
L 252.341354 318.368673 
L 253.12311 320.94109 
L 253.904866 323.009459 
L 255.468378 318.63811 
L 256.250134 316.860292 
L 257.813646 311.183672 
L 259.377158 305.256033 
L 262.504181 282.763306 
L 264.849449 272.445781 
L 265.631205 273.855406 
L 266.412961 279.636718 
L 267.976473 288.064193 
L 268.758229 289.349835 
L 269.539984 289.920055 
L 270.32174 291.0676 
L 271.103496 293.146749 
L 272.667008 304.271755 
L 273.448764 309.263502 
L 274.23052 307.664051 
L 275.012276 301.359865 
L 275.794032 297.095608 
L 276.575788 291.58508 
L 278.921055 269.840423 
L 279.702811 260.38142 
L 282.048079 222.337994 
L 282.829835 212.267694 
L 283.611591 208.194971 
L 284.393347 212.65806 
L 285.175103 221.041916 
L 285.956859 227.692742 
L 286.738615 236.337919 
L 289.083882 271.045632 
L 289.865638 279.0862 
L 290.647394 283.500061 
L 291.42915 289.199454 
L 292.210906 293.646749 
L 292.992662 291.329401 
L 293.774418 284.119368 
L 296.119686 249.382571 
L 296.901441 243.320689 
L 297.683197 242.038482 
L 298.464953 248.862034 
L 299.246709 261.597508 
L 300.810221 297.841581 
L 301.591977 305.084378 
L 302.373733 307.740687 
L 303.155489 302.846793 
L 303.937245 294.729416 
L 304.719001 288.125375 
L 305.500757 282.724168 
L 307.064268 287.156833 
L 307.846024 288.641983 
L 308.62778 292.731321 
L 310.191292 302.833064 
L 310.973048 308.089521 
L 313.318316 329.087178 
L 314.100072 338.850272 
L 317.227095 397.447463 
L 319.572363 450.862091 
L 320.354119 473.943238 
L 321.135875 485.60583 
L 321.917631 480.268256 
L 323.481143 473.208291 
L 326.608166 449.700614 
L 327.389922 435.977332 
L 328.953434 404.134999 
L 329.73519 389.999674 
L 332.080458 378.671059 
L 332.862214 376.255587 
L 333.643969 366.491052 
L 334.425725 350.484067 
L 335.989237 323.734213 
L 336.770993 318.668134 
L 337.552749 329.750609 
L 339.116261 361.036815 
L 339.898017 377.329703 
L 340.679773 389.356954 
L 341.461529 389.06368 
L 343.02504 392.772398 
L 343.806796 384.902979 
L 344.588552 372.243175 
L 346.152064 350.567797 
L 346.93382 337.729305 
L 347.715576 315.078364 
L 348.497332 281.70443 
L 350.8426 132.243226 
L 351.624356 94.166685 
L 352.406111 64.869485 
L 353.187867 48.055552 
L 353.969623 44.4375 
L 354.751379 57.030639 
L 355.533135 85.906101 
L 356.314891 135.483329 
L 357.878403 265.894371 
L 359.441915 378.222451 
L 360.223671 426.860963 
L 361.005427 468.419903 
L 361.787182 494.413965 
L 362.568938 498.0375 
L 363.350694 479.311602 
L 364.914206 404.138158 
L 365.695962 372.727257 
L 368.04123 302.497829 
L 369.604742 249.480752 
L 371.168253 195.913479 
L 371.950009 177.831099 
L 372.731765 172.29767 
L 373.513521 177.5611 
L 375.858789 206.592584 
L 378.985813 262.426387 
L 381.33108 311.974415 
L 382.112836 321.932009 
L 382.894592 320.076169 
L 383.676348 303.230182 
L 385.23986 263.36652 
L 386.021616 244.356317 
L 386.803372 239.313724 
L 387.585128 236.293948 
L 388.366884 231.048056 
L 389.148639 234.529438 
L 389.930395 250.488567 
L 391.493907 276.37923 
L 392.275663 285.192736 
L 393.057419 290.966713 
L 393.839175 298.192545 
L 394.620931 303.925976 
L 395.402687 306.533626 
L 396.966199 312.771952 
L 397.747955 317.125074 
L 400.093222 334.534019 
L 400.874978 342.217202 
L 401.656734 337.496215 
L 402.43849 323.350796 
L 404.783758 292.283839 
L 407.129026 272.189499 
L 407.910781 275.499313 
L 408.692537 283.175858 
L 410.256049 301.686435 
L 411.037805 307.028008 
L 412.601317 288.103531 
L 413.383073 280.123458 
L 416.510097 235.454974 
L 419.63712 190.163462 
L 420.418876 187.903432 
L 421.200632 201.218156 
L 422.764144 238.217059 
L 423.5459 255.75294 
L 425.891167 285.325938 
L 426.672923 297.1722 
L 429.018191 341.546923 
L 429.799947 351.849097 
L 430.581703 350.295982 
L 431.363459 349.882123 
L 432.145215 349.924642 
L 432.926971 344.876566 
L 433.708727 336.795222 
L 434.490483 330.097229 
L 435.272238 322.202474 
L 436.053994 307.672329 
L 436.83575 296.819737 
L 437.617506 295.184566 
L 438.399262 300.544307 
L 440.74453 321.142635 
L 443.089798 339.191849 
L 443.871554 335.307977 
L 444.653309 327.424452 
L 446.216821 316.048866 
L 446.998577 315.679393 
L 447.780333 315.769332 
L 448.562089 315.103494 
L 449.343845 316.51138 
L 450.125601 319.583406 
L 451.689113 324.568768 
L 452.470869 326.074545 
L 453.252625 327.149166 
L 454.03438 328.484748 
L 454.816136 330.885605 
L 456.379648 341.840124 
L 457.161404 346.951162 
L 457.94316 349.02278 
L 458.724916 347.715664 
L 459.506672 347.603648 
L 460.288428 347.842966 
L 461.070184 353.839817 
L 462.633696 366.799104 
L 463.415451 370.241489 
L 464.197207 366.306889 
L 465.760719 343.495415 
L 468.105987 308.029421 
L 470.451255 273.321961 
L 471.233011 267.871111 
L 472.014767 270.326658 
L 472.796522 279.161997 
L 474.360034 311.213148 
L 475.923546 343.431146 
L 476.705302 357.102977 
L 477.487058 360.856573 
L 478.268814 363.453485 
L 479.05057 367.379698 
L 479.832326 366.344941 
L 480.614082 358.709648 
L 482.177593 346.7723 
L 482.959349 347.370758 
L 483.741105 353.069251 
L 484.522861 356.587233 
L 486.086373 365.845718 
L 486.868129 365.131323 
L 487.649885 357.456416 
L 489.995153 315.254151 
L 490.776908 303.649839 
L 491.558664 296.314149 
L 493.122176 279.664662 
L 493.903932 274.943076 
L 494.685688 271.480028 
L 495.467444 275.668194 
L 496.2492 285.748911 
L 500.157979 324.788812 
L 500.939735 328.767536 
L 501.721491 327.989007 
L 502.503247 328.665466 
L 503.285003 328.669402 
L 504.066759 321.354738 
L 504.848515 311.445585 
L 506.412027 295.048974 
L 508.757295 282.94703 
L 509.53905 281.469716 
L 510.320806 282.921032 
L 511.102562 283.400419 
L 511.884318 284.464528 
L 512.666074 289.032241 
L 514.229586 298.899162 
L 515.011342 303.724725 
L 517.35661 315.757927 
L 518.138366 317.494845 
L 518.920121 317.840471 
L 519.701877 318.837211 
L 520.483633 319.328707 
L 522.828901 316.141812 
L 523.610657 312.290521 
L 525.174169 295.852405 
L 525.955925 288.18952 
L 526.737681 283.548309 
L 527.519436 280.650466 
L 528.301192 276.86065 
L 529.082948 275.047031 
L 532.209972 300.761672 
L 534.55524 324.137513 
L 536.118752 334.282389 
L 536.900507 339.491495 
L 537.682263 341.384085 
L 538.464019 335.071095 
L 540.027531 325.216091 
L 540.809287 313.123119 
L 542.372799 283.520118 
L 543.154555 269.214326 
L 543.936311 260.785512 
L 544.718067 259.664339 
L 545.499823 266.142947 
L 546.281578 276.533855 
L 547.063334 285.430296 
L 547.84509 295.826977 
L 550.190358 332.651444 
L 550.972114 340.698632 
L 551.75387 344.57131 
L 552.535626 349.958955 
L 553.317382 354.179531 
L 554.099138 353.061589 
L 554.880894 351.620454 
L 555.662649 350.83413 
L 556.444405 345.845275 
L 558.007917 324.674963 
L 559.571429 304.993804 
L 561.916697 279.07855 
L 564.261965 267.556414 
L 565.04372 265.25176 
L 565.825476 265.094648 
L 567.388988 263.730598 
L 569.734256 263.110609 
L 570.516012 263.237511 
L 572.86128 268.513177 
L 573.643035 269.99523 
L 575.206547 271.961197 
L 575.988303 273.10245 
L 576.770059 275.459129 
L 578.333571 280.647194 
L 579.115327 282.78287 
L 579.897083 283.528012 
L 581.460595 285.425183 
L 582.242351 284.869535 
L 583.024106 283.088849 
L 583.805862 281.79296 
L 584.587618 279.964468 
L 587.714642 262.055047 
L 589.278154 256.839837 
L 590.05991 254.268415 
L 590.841666 258.226108 
L 591.623422 266.228203 
L 592.405177 272.368049 
L 593.186933 279.887176 
L 595.532201 310.023458 
L 596.313957 317.999853 
L 597.095713 322.918415 
L 598.659225 334.153373 
L 601.004493 344.999366 
L 601.786248 347.80328 
L 602.568004 348.786657 
L 604.131516 351.297116 
L 604.913272 347.044078 
L 605.695028 339.497102 
L 609.603808 308.746602 
L 610.385564 304.856981 
L 611.167319 304.825339 
L 612.730831 303.010825 
L 613.512587 299.655916 
L 614.294343 294.244822 
L 615.076099 289.686543 
L 615.857855 284.347625 
L 618.203123 261.526123 
L 618.984879 257.323411 
L 619.766634 260.883367 
L 621.330146 283.423229 
L 622.893658 305.602048 
L 625.238926 331.504186 
L 626.020682 329.027645 
L 626.802438 322.169399 
L 627.584194 317.960239 
L 628.36595 311.885645 
L 630.711217 291.216851 
L 631.492973 287.039102 
L 632.274729 286.601842 
L 633.056485 285.05055 
L 633.838241 284.065927 
L 634.619997 286.758635 
L 635.401753 290.098837 
L 636.183509 292.832219 
L 636.965265 296.380908 
L 639.310532 309.949343 
L 640.092288 313.437543 
L 640.874044 315.84258 
L 642.437556 321.214866 
L 644.782824 327.02861 
L 645.56458 327.799732 
L 646.346336 326.496301 
L 647.909847 324.851392 
L 648.691603 325.44501 
L 649.473359 326.832944 
L 650.255115 327.809866 
L 651.036871 329.480018 
L 653.382139 341.990338 
L 654.163895 344.0568 
L 654.945651 343.030032 
L 655.727407 342.870596 
L 656.509163 342.442685 
L 658.85443 338.011639 
L 659.636186 335.309447 
L 661.199698 324.149012 
L 661.981454 318.861331 
L 665.108478 293.075571 
L 665.890233 293.606507 
L 666.671989 294.967924 
L 667.453745 295.36431 
L 668.235501 297.174393 
L 669.799013 303.10696 
L 670.580769 305.832404 
L 671.362525 304.002103 
L 672.144281 299.049139 
L 673.707793 291.737287 
L 674.489549 290.29516 
L 675.271304 289.128363 
L 676.05306 287.620099 
L 676.834816 285.668114 
L 678.398328 279.13955 
L 679.180084 276.047486 
L 679.96184 273.780463 
L 681.525352 269.962144 
L 682.307108 269.563038 
L 683.87062 279.37458 
L 684.652375 283.751764 
L 685.434131 292.177114 
L 686.997643 316.200634 
L 687.779399 327.619871 
L 688.561155 335.522706 
L 690.906423 354.463546 
L 691.688179 353.889707 
L 692.469935 354.352112 
L 693.251691 354.665647 
L 694.033446 348.713929 
L 694.815202 339.370958 
L 698.723982 301.568105 
L 699.505738 297.999366 
L 700.287494 301.087048 
L 701.851006 304.255763 
L 702.632762 303.218667 
L 703.414517 300.427491 
L 704.196273 298.487347 
L 705.759785 293.971326 
L 707.323297 289.786024 
L 708.105053 289.460954 
L 708.886809 291.513604 
L 709.668565 292.846289 
L 710.450321 294.703407 
L 711.232077 300.658222 
L 712.795588 313.584188 
L 713.577344 319.339727 
L 715.140856 326.084937 
L 715.922612 329.605635 
L 716.704368 329.047267 
L 717.486124 326.141649 
L 718.26788 324.358839 
L 719.049636 321.838773 
L 721.394903 309.904776 
L 722.176659 304.697712 
L 724.521927 283.857029 
L 726.085439 272.567603 
L 726.867195 266.999568 
L 727.648951 262.799942 
L 729.212463 267.979895 
L 729.994219 269.914876 
L 730.775974 274.567637 
L 732.339486 289.472341 
L 734.684754 311.934159 
L 735.46651 319.479985 
L 736.248266 325.138653 
L 737.030022 323.670318 
L 737.811778 322.726406 
L 738.593534 322.212314 
L 739.37529 320.844103 
L 741.720557 317.405447 
L 744.065825 309.121839 
L 744.847581 307.310958 
L 745.629337 308.443225 
L 747.192849 309.717697 
L 747.974605 309.979672 
L 748.756361 309.677767 
L 750.319872 309.500292 
L 752.66514 310.947691 
L 753.446896 311.785394 
L 755.792164 315.813859 
L 756.57392 318.492108 
L 758.137432 324.541063 
L 758.919187 326.676242 
L 760.482699 324.392622 
L 761.264455 323.537051 
L 762.046211 319.003085 
L 762.827967 311.50062 
L 765.954991 285.366151 
L 766.736747 278.866254 
L 767.518502 273.953816 
L 768.300258 274.78331 
L 769.082014 275.171469 
L 769.86377 275.25249 
L 770.645526 278.427203 
L 771.427282 283.652987 
L 773.77255 296.424523 
L 776.117818 306.816416 
L 777.681329 311.224313 
L 778.463085 313.381136 
L 779.244841 312.182594 
L 780.026597 309.677684 
L 780.808353 307.969949 
L 782.371865 303.137549 
L 783.935377 298.191393 
L 784.717133 296.214744 
L 785.498889 294.989481 
L 787.0624 292.212389 
L 787.844156 292.496451 
L 788.625912 293.383031 
L 789.407668 293.895743 
L 790.189424 295.047126 
L 791.752936 300.176329 
L 792.534692 302.583105 
L 793.316448 304.078183 
L 794.098204 304.479731 
L 794.87996 305.256795 
L 795.661715 305.715075 
L 798.006983 302.128079 
L 798.788739 300.363833 
L 800.352251 294.678807 
L 801.134007 292.02998 
L 801.915763 292.227458 
L 802.697519 294.412246 
L 803.479275 295.724562 
L 804.261031 297.614707 
L 807.388054 309.024614 
L 809.733322 317.16927 
L 810.515078 318.264133 
L 811.296834 318.703925 
L 812.07859 319.533748 
L 812.860346 320.018499 
L 814.423857 320.21765 
L 815.205613 320.357697 
L 815.987369 319.77563 
L 816.769125 318.322396 
L 820.677905 312.537297 
L 821.459661 311.905539 
L 822.241417 312.556661 
L 824.586684 313.795841 
L 826.150196 314.202678 
L 826.931952 314.060528 
L 829.27722 304.533868 
L 830.840732 296.753061 
L 832.404243 288.906917 
L 833.185999 287.924102 
L 833.967755 288.895211 
L 834.749511 288.989243 
L 835.531267 290.046166 
L 837.876535 301.97774 
L 838.658291 305.801325 
L 841.003559 315.626969 
L 841.785314 316.608571 
L 842.56707 317.051292 
L 843.348826 317.911438 
L 844.130582 317.766958 
L 845.694094 312.665107 
L 846.47585 310.372159 
L 847.257606 309.211049 
L 848.039362 309.509922 
L 849.602874 309.201521 
L 850.38463 308.248342 
L 851.948141 305.862711 
L 852.729897 305.443485 
L 853.511653 307.190977 
L 855.856921 311.363772 
L 857.420433 313.713218 
L 858.202189 314.423151 
L 860.547456 304.426723 
L 861.329212 301.062037 
L 863.67448 292.647852 
L 864.456236 290.822621 
L 865.237992 289.368574 
L 866.019748 287.678514 
L 866.801504 286.819544 
L 869.928527 298.546198 
L 871.492039 306.653872 
L 872.273795 310.307146 
L 873.055551 309.603899 
L 873.837307 307.69621 
L 874.619063 306.656673 
L 875.400819 305.264658 
L 877.746087 304.009681 
L 878.527842 304.281993 
L 879.309598 305.127473 
L 880.87311 306.331516 
L 881.654866 306.141666 
L 882.436622 305.808619 
L 883.218378 305.609568 
L 884.000134 305.034966 
L 885.563646 302.587419 
L 886.345402 301.479778 
L 887.127158 302.013163 
L 887.908913 303.696003 
L 888.690669 304.874657 
L 889.472425 306.555021 
L 891.817693 315.8998 
L 892.599449 318.439078 
L 893.381205 319.686126 
L 894.944717 322.75875 
L 895.726473 325.839127 
L 897.289984 333.102891 
L 898.07174 335.284325 
L 899.635252 329.260209 
L 900.417008 326.760549 
L 901.198764 321.794864 
L 902.762276 308.199997 
L 903.544032 301.651923 
L 905.107544 291.800033 
L 905.8893 286.817235 
L 906.671055 282.972814 
L 907.452811 282.581598 
L 908.234567 281.883604 
L 909.016323 281.010295 
L 909.798079 280.94936 
L 910.579835 281.128335 
L 911.361591 281.140764 
L 912.143347 281.48786 
L 916.052126 292.486975 
L 917.615638 296.331843 
L 918.397394 297.354054 
L 919.17915 297.832889 
L 919.960906 298.567378 
L 920.742662 299.557731 
L 923.08793 308.497056 
L 923.869686 312.224982 
L 926.214953 325.990335 
L 926.996709 326.548221 
L 927.778465 325.377299 
L 928.560221 325.195507 
L 929.341977 323.768424 
L 930.905489 316.201807 
L 932.469001 308.684369 
L 934.814268 296.798518 
L 935.596024 295.132629 
L 936.37778 294.344234 
L 937.159536 293.112636 
L 937.941292 292.579848 
L 939.504804 293.832412 
L 941.068316 294.854205 
L 942.631828 295.410231 
L 943.413583 295.871838 
L 945.758851 300.413196 
L 947.322363 303.958516 
L 948.885875 307.468522 
L 949.667631 308.379283 
L 950.449387 308.736331 
L 951.231143 309.31199 
L 952.012899 309.633135 
L 953.57641 308.876255 
L 954.358166 308.584171 
L 955.139922 308.85349 
L 955.921678 310.310708 
L 957.48519 312.559239 
L 959.830458 316.581531 
L 960.612214 317.687828 
L 962.175725 319.065959 
L 962.957481 319.66109 
L 963.739237 319.676722 
L 964.520993 319.043737 
L 965.302749 318.573544 
L 966.084505 317.938914 
L 972.338552 304.563515 
L 973.120308 303.424577 
L 974.68382 303.712661 
L 975.465576 303.720069 
L 976.247332 304.016019 
L 977.810844 304.738835 
L 978.5926 304.996519 
L 979.374356 304.593146 
L 980.156111 303.943849 
L 981.719623 303.123957 
L 983.283135 303.268253 
L 984.064891 303.256217 
L 984.846647 302.704493 
L 985.628403 301.695353 
L 987.191915 300.375783 
L 988.755427 298.579349 
L 989.537182 298.064135 
L 990.318938 297.741454 
L 991.100694 297.715728 
L 991.88245 297.843415 
L 992.664206 298.113665 
L 993.445962 298.899474 
L 994.227718 300.011625 
L 997.354742 303.557507 
L 998.918253 304.867022 
L 999.700009 305.445784 
L 1001.263521 306.21873 
L 1002.827033 306.6226 
L 1004.390545 306.761465 
L 1006.735813 306.666639 
L 1018.462151 305.742283 
L 1024.716199 305.709751 
L 1025.497955 305.718723 
L 1025.497955 305.718723 
" clip-path="url(#p351084dbd4)" style="fill: none; stroke: #0c5da5; stroke-width: 2; stroke-linecap: square"/>
   </g>
   <g id="patch_3">
    <path d="M 66.7525 520.7175 
L 66.7525 21.7575 
" style="fill: none; stroke: #000000; stroke-linejoin: miter; stroke-linecap: square"/>
   </g>
   <g id="patch_4">
    <path d="M 1071.1525 520.7175 
L 1071.1525 21.7575 
" style="fill: none; stroke: #000000; stroke-linejoin: miter; stroke-linecap: square"/>
   </g>
   <g id="patch_5">
    <path d="M 66.7525 520.7175 
L 1071.1525 520.7175 
" style="fill: none; stroke: #000000; stroke-linejoin: miter; stroke-linecap: square"/>
   </g>
   <g id="patch_6">
    <path d="M 66.7525 21.7575 
L 1071.1525 21.7575 
" style="fill: none; stroke: #000000; stroke-linejoin: miter; stroke-linecap: square"/>
   </g>
   <g id="text_16">
    <!-- Santa Barbara Record no. 135 -->
    <g transform="translate(448.56 15.7575) scale(0.16 -0.16)">
     <defs>
      <path id="DejaVuSans-53" d="M 3425 4513 
L 3425 3897 
Q 3066 4069 2747 4153 
Q 2428 4238 2131 4238 
Q 1616 4238 1336 4038 
Q 1056 3838 1056 3469 
Q 1056 3159 1242 3001 
Q 1428 2844 1947 2747 
L 2328 2669 
Q 3034 2534 3370 2195 
Q 3706 1856 3706 1288 
Q 3706 609 3251 259 
Q 2797 -91 1919 -91 
Q 1588 -91 1214 -16 
Q 841 59 441 206 
L 441 856 
Q 825 641 1194 531 
Q 1563 422 1919 422 
Q 2459 422 2753 634 
Q 3047 847 3047 1241 
Q 3047 1584 2836 1778 
Q 2625 1972 2144 2069 
L 1759 2144 
Q 1053 2284 737 2584 
Q 422 2884 422 3419 
Q 422 4038 858 4394 
Q 1294 4750 2059 4750 
Q 2388 4750 2728 4690 
Q 3069 4631 3425 4513 
z
" transform="scale(0.015625)"/>
      <path id="DejaVuSans-20" transform="scale(0.015625)"/>
      <path id="DejaVuSans-42" d="M 1259 2228 
L 1259 519 
L 2272 519 
Q 2781 519 3026 730 
Q 3272 941 3272 1375 
Q 3272 1813 3026 2020 
Q 2781 2228 2272 2228 
L 1259 2228 
z
M 1259 4147 
L 1259 2741 
L 2194 2741 
Q 2656 2741 2882 2914 
Q 3109 3088 3109 3444 
Q 3109 3797 2882 3972 
Q 2656 4147 2194 4147 
L 1259 4147 
z
M 628 4666 
L 2241 4666 
Q 2963 4666 3353 4366 
Q 3744 4066 3744 3513 
Q 3744 3084 3544 2831 
Q 3344 2578 2956 2516 
Q 3422 2416 3680 2098 
Q 3938 1781 3938 1306 
Q 3938 681 3513 340 
Q 3088 0 2303 0 
L 628 0 
L 628 4666 
z
" transform="scale(0.015625)"/>
      <path id="DejaVuSans-62" d="M 3116 1747 
Q 3116 2381 2855 2742 
Q 2594 3103 2138 3103 
Q 1681 3103 1420 2742 
Q 1159 2381 1159 1747 
Q 1159 1113 1420 752 
Q 1681 391 2138 391 
Q 2594 391 2855 752 
Q 3116 1113 3116 1747 
z
M 1159 2969 
Q 1341 3281 1617 3432 
Q 1894 3584 2278 3584 
Q 2916 3584 3314 3078 
Q 3713 2572 3713 1747 
Q 3713 922 3314 415 
Q 2916 -91 2278 -91 
Q 1894 -91 1617 61 
Q 1341 213 1159 525 
L 1159 0 
L 581 0 
L 581 4863 
L 1159 4863 
L 1159 2969 
z
" transform="scale(0.015625)"/>
      <path id="DejaVuSans-52" d="M 2841 2188 
Q 3044 2119 3236 1894 
Q 3428 1669 3622 1275 
L 4263 0 
L 3584 0 
L 2988 1197 
Q 2756 1666 2539 1819 
Q 2322 1972 1947 1972 
L 1259 1972 
L 1259 0 
L 628 0 
L 628 4666 
L 2053 4666 
Q 2853 4666 3247 4331 
Q 3641 3997 3641 3322 
Q 3641 2881 3436 2590 
Q 3231 2300 2841 2188 
z
M 1259 4147 
L 1259 2491 
L 2053 2491 
Q 2509 2491 2742 2702 
Q 2975 2913 2975 3322 
Q 2975 3731 2742 3939 
Q 2509 4147 2053 4147 
L 1259 4147 
z
" transform="scale(0.015625)"/>
      <path id="DejaVuSans-64" d="M 2906 2969 
L 2906 4863 
L 3481 4863 
L 3481 0 
L 2906 0 
L 2906 525 
Q 2725 213 2448 61 
Q 2172 -91 1784 -91 
Q 1150 -91 751 415 
Q 353 922 353 1747 
Q 353 2572 751 3078 
Q 1150 3584 1784 3584 
Q 2172 3584 2448 3432 
Q 2725 3281 2906 2969 
z
M 947 1747 
Q 947 1113 1208 752 
Q 1469 391 1925 391 
Q 2381 391 2643 752 
Q 2906 1113 2906 1747 
Q 2906 2381 2643 2742 
Q 2381 3103 1925 3103 
Q 1469 3103 1208 2742 
Q 947 2381 947 1747 
z
" transform="scale(0.015625)"/>
      <path id="DejaVuSans-33" d="M 2597 2516 
Q 3050 2419 3304 2112 
Q 3559 1806 3559 1356 
Q 3559 666 3084 287 
Q 2609 -91 1734 -91 
Q 1441 -91 1130 -33 
Q 819 25 488 141 
L 488 750 
Q 750 597 1062 519 
Q 1375 441 1716 441 
Q 2309 441 2620 675 
Q 2931 909 2931 1356 
Q 2931 1769 2642 2001 
Q 2353 2234 1838 2234 
L 1294 2234 
L 1294 2753 
L 1863 2753 
Q 2328 2753 2575 2939 
Q 2822 3125 2822 3475 
Q 2822 3834 2567 4026 
Q 2313 4219 1838 4219 
Q 1578 4219 1281 4162 
Q 984 4106 628 3988 
L 628 4550 
Q 988 4650 1302 4700 
Q 1616 4750 1894 4750 
Q 2613 4750 3031 4423 
Q 3450 4097 3450 3541 
Q 3450 3153 3228 2886 
Q 3006 2619 2597 2516 
z
" transform="scale(0.015625)"/>
      <path id="DejaVuSans-35" d="M 691 4666 
L 3169 4666 
L 3169 4134 
L 1269 4134 
L 1269 2991 
Q 1406 3038 1543 3061 
Q 1681 3084 1819 3084 
Q 2600 3084 3056 2656 
Q 3513 2228 3513 1497 
Q 3513 744 3044 326 
Q 2575 -91 1722 -91 
Q 1428 -91 1123 -41 
Q 819 9 494 109 
L 494 744 
Q 775 591 1075 516 
Q 1375 441 1709 441 
Q 2250 441 2565 725 
Q 2881 1009 2881 1497 
Q 2881 1984 2565 2268 
Q 2250 2553 1709 2553 
Q 1456 2553 1204 2497 
Q 953 2441 691 2322 
L 691 4666 
z
" transform="scale(0.015625)"/>
     </defs>
     <use xlink:href="#DejaVuSans-53"/>
     <use xlink:href="#DejaVuSans-61" x="63.476562"/>
     <use xlink:href="#DejaVuSans-6e" x="124.755859"/>
     <use xlink:href="#DejaVuSans-74" x="188.134766"/>
     <use xlink:href="#DejaVuSans-61" x="227.34375"/>
     <use xlink:href="#DejaVuSans-20" x="288.623047"/>
     <use xlink:href="#DejaVuSans-42" x="320.410156"/>
     <use xlink:href="#DejaVuSans-61" x="389.013672"/>
     <use xlink:href="#DejaVuSans-72" x="450.292969"/>
     <use xlink:href="#DejaVuSans-62" x="491.40625"/>
     <use xlink:href="#DejaVuSans-61" x="554.882812"/>
     <use xlink:href="#DejaVuSans-72" x="616.162109"/>
     <use xlink:href="#DejaVuSans-61" x="657.275391"/>
     <use xlink:href="#DejaVuSans-20" x="718.554688"/>
     <use xlink:href="#DejaVuSans-52" x="750.341797"/>
     <use xlink:href="#DejaVuSans-65" x="815.324219"/>
     <use xlink:href="#DejaVuSans-63" x="876.847656"/>
     <use xlink:href="#DejaVuSans-6f" x="931.828125"/>
     <use xlink:href="#DejaVuSans-72" x="993.009766"/>
     <use xlink:href="#DejaVuSans-64" x="1032.373047"/>
     <use xlink:href="#DejaVuSans-20" x="1095.849609"/>
     <use xlink:href="#DejaVuSans-6e" x="1127.636719"/>
     <use xlink:href="#DejaVuSans-6f" x="1191.015625"/>
     <use xlink:href="#DejaVuSans-2e" x="1250.447266"/>
     <use xlink:href="#DejaVuSans-20" x="1282.234375"/>
     <use xlink:href="#DejaVuSans-31" x="1314.021484"/>
     <use xlink:href="#DejaVuSans-33" x="1377.644531"/>
     <use xlink:href="#DejaVuSans-35" x="1441.267578"/>
    </g>
   </g>
  </g>
 </g>
 <defs>
  <clipPath id="p351084dbd4">
   <rect x="66.7525" y="21.7575" width="1004.4" height="498.96"/>
  </clipPath>
 </defs>
</svg>
