<?xml version="1.0" encoding="utf-8" standalone="no"?>
<!DOCTYPE svg PUBLIC "-//W3C//DTD SVG 1.1//EN"
  "http://www.w3.org/Graphics/SVG/1.1/DTD/svg11.dtd">
<svg xmlns:xlink="http://www.w3.org/1999/xlink" width="1103.9775pt" height="562.7875pt" viewBox="0 0 1103.9775 562.7875" xmlns="http://www.w3.org/2000/svg" version="1.1">
 <metadata>
  <rdf:RDF xmlns:dc="http://purl.org/dc/elements/1.1/" xmlns:cc="http://creativecommons.org/ns#" xmlns:rdf="http://www.w3.org/1999/02/22-rdf-syntax-ns#">
   <cc:Work>
    <dc:type rdf:resource="http://purl.org/dc/dcmitype/StillImage"/>
    <dc:date>2023-06-10T16:15:16.212064</dc:date>
    <dc:format>image/svg+xml</dc:format>
    <dc:creator>
     <cc:Agent>
      <dc:title>Matplotlib v3.7.1, https://matplotlib.org/</dc:title>
     </cc:Agent>
    </dc:creator>
   </cc:Work>
  </rdf:RDF>
 </metadata>
 <defs>
  <style type="text/css">*{stroke-linejoin: round; stroke-linecap: butt}</style>
 </defs>
 <g id="figure_1">
  <g id="patch_1">
   <path d="M 0 562.7875 
L 1103.9775 562.7875 
L 1103.9775 0 
L 0 0 
z
" style="fill: #ffffff"/>
  </g>
  <g id="axes_1">
   <g id="patch_2">
    <path d="M 95.9775 520.7175 
L 1100.3775 520.7175 
L 1100.3775 21.7575 
L 95.9775 21.7575 
z
" style="fill: #ffffff"/>
   </g>
   <g id="matplotlib.axis_1">
    <g id="xtick_1">
     <g id="line2d_1">
      <path d="M 141.632045 520.7175 
L 141.632045 21.7575 
" clip-path="url(#pbe0cc75933)" style="fill: none; stroke-dasharray: 1.85,0.8; stroke-dashoffset: 0; stroke: #000000; stroke-opacity: 0.5; stroke-width: 0.5"/>
     </g>
     <g id="line2d_2">
      <defs>
       <path id="m1c5f46bfd2" d="M 0 0 
L 0 -6 
" style="stroke: #000000"/>
      </defs>
      <g>
       <use xlink:href="#m1c5f46bfd2" x="141.632045" y="520.7175" style="stroke: #000000"/>
      </g>
     </g>
     <g id="line2d_3">
      <defs>
       <path id="m2c88e720f6" d="M 0 0 
L 0 6 
" style="stroke: #000000"/>
      </defs>
      <g>
       <use xlink:href="#m2c88e720f6" x="141.632045" y="21.7575" style="stroke: #000000"/>
      </g>
     </g>
     <g id="text_1">
      <!-- 0 -->
      <g transform="translate(136.542045 536.375) scale(0.16 -0.16)">
       <defs>
        <path id="DejaVuSans-30" d="M 2034 4250 
Q 1547 4250 1301 3770 
Q 1056 3291 1056 2328 
Q 1056 1369 1301 889 
Q 1547 409 2034 409 
Q 2525 409 2770 889 
Q 3016 1369 3016 2328 
Q 3016 3291 2770 3770 
Q 2525 4250 2034 4250 
z
M 2034 4750 
Q 2819 4750 3233 4129 
Q 3647 3509 3647 2328 
Q 3647 1150 3233 529 
Q 2819 -91 2034 -91 
Q 1250 -91 836 529 
Q 422 1150 422 2328 
Q 422 3509 836 4129 
Q 1250 4750 2034 4750 
z
" transform="scale(0.015625)"/>
       </defs>
       <use xlink:href="#DejaVuSans-30"/>
      </g>
     </g>
    </g>
    <g id="xtick_2">
     <g id="line2d_4">
      <path d="M 297.983229 520.7175 
L 297.983229 21.7575 
" clip-path="url(#pbe0cc75933)" style="fill: none; stroke-dasharray: 1.85,0.8; stroke-dashoffset: 0; stroke: #000000; stroke-opacity: 0.5; stroke-width: 0.5"/>
     </g>
     <g id="line2d_5">
      <g>
       <use xlink:href="#m1c5f46bfd2" x="297.983229" y="520.7175" style="stroke: #000000"/>
      </g>
     </g>
     <g id="line2d_6">
      <g>
       <use xlink:href="#m2c88e720f6" x="297.983229" y="21.7575" style="stroke: #000000"/>
      </g>
     </g>
     <g id="text_2">
      <!-- 2 -->
      <g transform="translate(292.893229 536.375) scale(0.16 -0.16)">
       <defs>
        <path id="DejaVuSans-32" d="M 1228 531 
L 3431 531 
L 3431 0 
L 469 0 
L 469 531 
Q 828 903 1448 1529 
Q 2069 2156 2228 2338 
Q 2531 2678 2651 2914 
Q 2772 3150 2772 3378 
Q 2772 3750 2511 3984 
Q 2250 4219 1831 4219 
Q 1534 4219 1204 4116 
Q 875 4013 500 3803 
L 500 4441 
Q 881 4594 1212 4672 
Q 1544 4750 1819 4750 
Q 2544 4750 2975 4387 
Q 3406 4025 3406 3419 
Q 3406 3131 3298 2873 
Q 3191 2616 2906 2266 
Q 2828 2175 2409 1742 
Q 1991 1309 1228 531 
z
" transform="scale(0.015625)"/>
       </defs>
       <use xlink:href="#DejaVuSans-32"/>
      </g>
     </g>
    </g>
    <g id="xtick_3">
     <g id="line2d_7">
      <path d="M 454.334412 520.7175 
L 454.334412 21.7575 
" clip-path="url(#pbe0cc75933)" style="fill: none; stroke-dasharray: 1.85,0.8; stroke-dashoffset: 0; stroke: #000000; stroke-opacity: 0.5; stroke-width: 0.5"/>
     </g>
     <g id="line2d_8">
      <g>
       <use xlink:href="#m1c5f46bfd2" x="454.334412" y="520.7175" style="stroke: #000000"/>
      </g>
     </g>
     <g id="line2d_9">
      <g>
       <use xlink:href="#m2c88e720f6" x="454.334412" y="21.7575" style="stroke: #000000"/>
      </g>
     </g>
     <g id="text_3">
      <!-- 4 -->
      <g transform="translate(449.244412 536.375) scale(0.16 -0.16)">
       <defs>
        <path id="DejaVuSans-34" d="M 2419 4116 
L 825 1625 
L 2419 1625 
L 2419 4116 
z
M 2253 4666 
L 3047 4666 
L 3047 1625 
L 3713 1625 
L 3713 1100 
L 3047 1100 
L 3047 0 
L 2419 0 
L 2419 1100 
L 313 1100 
L 313 1709 
L 2253 4666 
z
" transform="scale(0.015625)"/>
       </defs>
       <use xlink:href="#DejaVuSans-34"/>
      </g>
     </g>
    </g>
    <g id="xtick_4">
     <g id="line2d_10">
      <path d="M 610.685595 520.7175 
L 610.685595 21.7575 
" clip-path="url(#pbe0cc75933)" style="fill: none; stroke-dasharray: 1.85,0.8; stroke-dashoffset: 0; stroke: #000000; stroke-opacity: 0.5; stroke-width: 0.5"/>
     </g>
     <g id="line2d_11">
      <g>
       <use xlink:href="#m1c5f46bfd2" x="610.685595" y="520.7175" style="stroke: #000000"/>
      </g>
     </g>
     <g id="line2d_12">
      <g>
       <use xlink:href="#m2c88e720f6" x="610.685595" y="21.7575" style="stroke: #000000"/>
      </g>
     </g>
     <g id="text_4">
      <!-- 6 -->
      <g transform="translate(605.595595 536.375) scale(0.16 -0.16)">
       <defs>
        <path id="DejaVuSans-36" d="M 2113 2584 
Q 1688 2584 1439 2293 
Q 1191 2003 1191 1497 
Q 1191 994 1439 701 
Q 1688 409 2113 409 
Q 2538 409 2786 701 
Q 3034 994 3034 1497 
Q 3034 2003 2786 2293 
Q 2538 2584 2113 2584 
z
M 3366 4563 
L 3366 3988 
Q 3128 4100 2886 4159 
Q 2644 4219 2406 4219 
Q 1781 4219 1451 3797 
Q 1122 3375 1075 2522 
Q 1259 2794 1537 2939 
Q 1816 3084 2150 3084 
Q 2853 3084 3261 2657 
Q 3669 2231 3669 1497 
Q 3669 778 3244 343 
Q 2819 -91 2113 -91 
Q 1303 -91 875 529 
Q 447 1150 447 2328 
Q 447 3434 972 4092 
Q 1497 4750 2381 4750 
Q 2619 4750 2861 4703 
Q 3103 4656 3366 4563 
z
" transform="scale(0.015625)"/>
       </defs>
       <use xlink:href="#DejaVuSans-36"/>
      </g>
     </g>
    </g>
    <g id="xtick_5">
     <g id="line2d_13">
      <path d="M 767.036778 520.7175 
L 767.036778 21.7575 
" clip-path="url(#pbe0cc75933)" style="fill: none; stroke-dasharray: 1.85,0.8; stroke-dashoffset: 0; stroke: #000000; stroke-opacity: 0.5; stroke-width: 0.5"/>
     </g>
     <g id="line2d_14">
      <g>
       <use xlink:href="#m1c5f46bfd2" x="767.036778" y="520.7175" style="stroke: #000000"/>
      </g>
     </g>
     <g id="line2d_15">
      <g>
       <use xlink:href="#m2c88e720f6" x="767.036778" y="21.7575" style="stroke: #000000"/>
      </g>
     </g>
     <g id="text_5">
      <!-- 8 -->
      <g transform="translate(761.946778 536.375) scale(0.16 -0.16)">
       <defs>
        <path id="DejaVuSans-38" d="M 2034 2216 
Q 1584 2216 1326 1975 
Q 1069 1734 1069 1313 
Q 1069 891 1326 650 
Q 1584 409 2034 409 
Q 2484 409 2743 651 
Q 3003 894 3003 1313 
Q 3003 1734 2745 1975 
Q 2488 2216 2034 2216 
z
M 1403 2484 
Q 997 2584 770 2862 
Q 544 3141 544 3541 
Q 544 4100 942 4425 
Q 1341 4750 2034 4750 
Q 2731 4750 3128 4425 
Q 3525 4100 3525 3541 
Q 3525 3141 3298 2862 
Q 3072 2584 2669 2484 
Q 3125 2378 3379 2068 
Q 3634 1759 3634 1313 
Q 3634 634 3220 271 
Q 2806 -91 2034 -91 
Q 1263 -91 848 271 
Q 434 634 434 1313 
Q 434 1759 690 2068 
Q 947 2378 1403 2484 
z
M 1172 3481 
Q 1172 3119 1398 2916 
Q 1625 2713 2034 2713 
Q 2441 2713 2670 2916 
Q 2900 3119 2900 3481 
Q 2900 3844 2670 4047 
Q 2441 4250 2034 4250 
Q 1625 4250 1398 4047 
Q 1172 3844 1172 3481 
z
" transform="scale(0.015625)"/>
       </defs>
       <use xlink:href="#DejaVuSans-38"/>
      </g>
     </g>
    </g>
    <g id="xtick_6">
     <g id="line2d_16">
      <path d="M 923.387961 520.7175 
L 923.387961 21.7575 
" clip-path="url(#pbe0cc75933)" style="fill: none; stroke-dasharray: 1.85,0.8; stroke-dashoffset: 0; stroke: #000000; stroke-opacity: 0.5; stroke-width: 0.5"/>
     </g>
     <g id="line2d_17">
      <g>
       <use xlink:href="#m1c5f46bfd2" x="923.387961" y="520.7175" style="stroke: #000000"/>
      </g>
     </g>
     <g id="line2d_18">
      <g>
       <use xlink:href="#m2c88e720f6" x="923.387961" y="21.7575" style="stroke: #000000"/>
      </g>
     </g>
     <g id="text_6">
      <!-- 10 -->
      <g transform="translate(913.207961 536.375) scale(0.16 -0.16)">
       <defs>
        <path id="DejaVuSans-31" d="M 794 531 
L 1825 531 
L 1825 4091 
L 703 3866 
L 703 4441 
L 1819 4666 
L 2450 4666 
L 2450 531 
L 3481 531 
L 3481 0 
L 794 0 
L 794 531 
z
" transform="scale(0.015625)"/>
       </defs>
       <use xlink:href="#DejaVuSans-31"/>
       <use xlink:href="#DejaVuSans-30" x="63.623047"/>
      </g>
     </g>
    </g>
    <g id="xtick_7">
     <g id="line2d_19">
      <path d="M 1079.739144 520.7175 
L 1079.739144 21.7575 
" clip-path="url(#pbe0cc75933)" style="fill: none; stroke-dasharray: 1.85,0.8; stroke-dashoffset: 0; stroke: #000000; stroke-opacity: 0.5; stroke-width: 0.5"/>
     </g>
     <g id="line2d_20">
      <g>
       <use xlink:href="#m1c5f46bfd2" x="1079.739144" y="520.7175" style="stroke: #000000"/>
      </g>
     </g>
     <g id="line2d_21">
      <g>
       <use xlink:href="#m2c88e720f6" x="1079.739144" y="21.7575" style="stroke: #000000"/>
      </g>
     </g>
     <g id="text_7">
      <!-- 12 -->
      <g transform="translate(1069.559144 536.375) scale(0.16 -0.16)">
       <use xlink:href="#DejaVuSans-31"/>
       <use xlink:href="#DejaVuSans-32" x="63.623047"/>
      </g>
     </g>
    </g>
    <g id="xtick_8">
     <g id="line2d_22">
      <defs>
       <path id="m980641d4ca" d="M 0 0 
L 0 -3 
" style="stroke: #000000"/>
      </defs>
      <g>
       <use xlink:href="#m980641d4ca" x="102.54425" y="520.7175" style="stroke: #000000"/>
      </g>
     </g>
     <g id="line2d_23">
      <defs>
       <path id="m62e4585534" d="M 0 0 
L 0 3 
" style="stroke: #000000"/>
      </defs>
      <g>
       <use xlink:href="#m62e4585534" x="102.54425" y="21.7575" style="stroke: #000000"/>
      </g>
     </g>
    </g>
    <g id="xtick_9">
     <g id="line2d_24">
      <g>
       <use xlink:href="#m980641d4ca" x="180.719841" y="520.7175" style="stroke: #000000"/>
      </g>
     </g>
     <g id="line2d_25">
      <g>
       <use xlink:href="#m62e4585534" x="180.719841" y="21.7575" style="stroke: #000000"/>
      </g>
     </g>
    </g>
    <g id="xtick_10">
     <g id="line2d_26">
      <g>
       <use xlink:href="#m980641d4ca" x="219.807637" y="520.7175" style="stroke: #000000"/>
      </g>
     </g>
     <g id="line2d_27">
      <g>
       <use xlink:href="#m62e4585534" x="219.807637" y="21.7575" style="stroke: #000000"/>
      </g>
     </g>
    </g>
    <g id="xtick_11">
     <g id="line2d_28">
      <g>
       <use xlink:href="#m980641d4ca" x="258.895433" y="520.7175" style="stroke: #000000"/>
      </g>
     </g>
     <g id="line2d_29">
      <g>
       <use xlink:href="#m62e4585534" x="258.895433" y="21.7575" style="stroke: #000000"/>
      </g>
     </g>
    </g>
    <g id="xtick_12">
     <g id="line2d_30">
      <g>
       <use xlink:href="#m980641d4ca" x="337.071024" y="520.7175" style="stroke: #000000"/>
      </g>
     </g>
     <g id="line2d_31">
      <g>
       <use xlink:href="#m62e4585534" x="337.071024" y="21.7575" style="stroke: #000000"/>
      </g>
     </g>
    </g>
    <g id="xtick_13">
     <g id="line2d_32">
      <g>
       <use xlink:href="#m980641d4ca" x="376.15882" y="520.7175" style="stroke: #000000"/>
      </g>
     </g>
     <g id="line2d_33">
      <g>
       <use xlink:href="#m62e4585534" x="376.15882" y="21.7575" style="stroke: #000000"/>
      </g>
     </g>
    </g>
    <g id="xtick_14">
     <g id="line2d_34">
      <g>
       <use xlink:href="#m980641d4ca" x="415.246616" y="520.7175" style="stroke: #000000"/>
      </g>
     </g>
     <g id="line2d_35">
      <g>
       <use xlink:href="#m62e4585534" x="415.246616" y="21.7575" style="stroke: #000000"/>
      </g>
     </g>
    </g>
    <g id="xtick_15">
     <g id="line2d_36">
      <g>
       <use xlink:href="#m980641d4ca" x="493.422207" y="520.7175" style="stroke: #000000"/>
      </g>
     </g>
     <g id="line2d_37">
      <g>
       <use xlink:href="#m62e4585534" x="493.422207" y="21.7575" style="stroke: #000000"/>
      </g>
     </g>
    </g>
    <g id="xtick_16">
     <g id="line2d_38">
      <g>
       <use xlink:href="#m980641d4ca" x="532.510003" y="520.7175" style="stroke: #000000"/>
      </g>
     </g>
     <g id="line2d_39">
      <g>
       <use xlink:href="#m62e4585534" x="532.510003" y="21.7575" style="stroke: #000000"/>
      </g>
     </g>
    </g>
    <g id="xtick_17">
     <g id="line2d_40">
      <g>
       <use xlink:href="#m980641d4ca" x="571.597799" y="520.7175" style="stroke: #000000"/>
      </g>
     </g>
     <g id="line2d_41">
      <g>
       <use xlink:href="#m62e4585534" x="571.597799" y="21.7575" style="stroke: #000000"/>
      </g>
     </g>
    </g>
    <g id="xtick_18">
     <g id="line2d_42">
      <g>
       <use xlink:href="#m980641d4ca" x="649.77339" y="520.7175" style="stroke: #000000"/>
      </g>
     </g>
     <g id="line2d_43">
      <g>
       <use xlink:href="#m62e4585534" x="649.77339" y="21.7575" style="stroke: #000000"/>
      </g>
     </g>
    </g>
    <g id="xtick_19">
     <g id="line2d_44">
      <g>
       <use xlink:href="#m980641d4ca" x="688.861186" y="520.7175" style="stroke: #000000"/>
      </g>
     </g>
     <g id="line2d_45">
      <g>
       <use xlink:href="#m62e4585534" x="688.861186" y="21.7575" style="stroke: #000000"/>
      </g>
     </g>
    </g>
    <g id="xtick_20">
     <g id="line2d_46">
      <g>
       <use xlink:href="#m980641d4ca" x="727.948982" y="520.7175" style="stroke: #000000"/>
      </g>
     </g>
     <g id="line2d_47">
      <g>
       <use xlink:href="#m62e4585534" x="727.948982" y="21.7575" style="stroke: #000000"/>
      </g>
     </g>
    </g>
    <g id="xtick_21">
     <g id="line2d_48">
      <g>
       <use xlink:href="#m980641d4ca" x="806.124573" y="520.7175" style="stroke: #000000"/>
      </g>
     </g>
     <g id="line2d_49">
      <g>
       <use xlink:href="#m62e4585534" x="806.124573" y="21.7575" style="stroke: #000000"/>
      </g>
     </g>
    </g>
    <g id="xtick_22">
     <g id="line2d_50">
      <g>
       <use xlink:href="#m980641d4ca" x="845.212369" y="520.7175" style="stroke: #000000"/>
      </g>
     </g>
     <g id="line2d_51">
      <g>
       <use xlink:href="#m62e4585534" x="845.212369" y="21.7575" style="stroke: #000000"/>
      </g>
     </g>
    </g>
    <g id="xtick_23">
     <g id="line2d_52">
      <g>
       <use xlink:href="#m980641d4ca" x="884.300165" y="520.7175" style="stroke: #000000"/>
      </g>
     </g>
     <g id="line2d_53">
      <g>
       <use xlink:href="#m62e4585534" x="884.300165" y="21.7575" style="stroke: #000000"/>
      </g>
     </g>
    </g>
    <g id="xtick_24">
     <g id="line2d_54">
      <g>
       <use xlink:href="#m980641d4ca" x="962.475757" y="520.7175" style="stroke: #000000"/>
      </g>
     </g>
     <g id="line2d_55">
      <g>
       <use xlink:href="#m62e4585534" x="962.475757" y="21.7575" style="stroke: #000000"/>
      </g>
     </g>
    </g>
    <g id="xtick_25">
     <g id="line2d_56">
      <g>
       <use xlink:href="#m980641d4ca" x="1001.563552" y="520.7175" style="stroke: #000000"/>
      </g>
     </g>
     <g id="line2d_57">
      <g>
       <use xlink:href="#m62e4585534" x="1001.563552" y="21.7575" style="stroke: #000000"/>
      </g>
     </g>
    </g>
    <g id="xtick_26">
     <g id="line2d_58">
      <g>
       <use xlink:href="#m980641d4ca" x="1040.651348" y="520.7175" style="stroke: #000000"/>
      </g>
     </g>
     <g id="line2d_59">
      <g>
       <use xlink:href="#m62e4585534" x="1040.651348" y="21.7575" style="stroke: #000000"/>
      </g>
     </g>
    </g>
    <g id="text_8">
     <!-- Time(s) -->
     <g transform="translate(568.19375 555.86) scale(0.16 -0.16)">
      <defs>
       <path id="DejaVuSans-54" d="M -19 4666 
L 3928 4666 
L 3928 4134 
L 2272 4134 
L 2272 0 
L 1638 0 
L 1638 4134 
L -19 4134 
L -19 4666 
z
" transform="scale(0.015625)"/>
       <path id="DejaVuSans-69" d="M 603 3500 
L 1178 3500 
L 1178 0 
L 603 0 
L 603 3500 
z
M 603 4863 
L 1178 4863 
L 1178 4134 
L 603 4134 
L 603 4863 
z
" transform="scale(0.015625)"/>
       <path id="DejaVuSans-6d" d="M 3328 2828 
Q 3544 3216 3844 3400 
Q 4144 3584 4550 3584 
Q 5097 3584 5394 3201 
Q 5691 2819 5691 2113 
L 5691 0 
L 5113 0 
L 5113 2094 
Q 5113 2597 4934 2840 
Q 4756 3084 4391 3084 
Q 3944 3084 3684 2787 
Q 3425 2491 3425 1978 
L 3425 0 
L 2847 0 
L 2847 2094 
Q 2847 2600 2669 2842 
Q 2491 3084 2119 3084 
Q 1678 3084 1418 2786 
Q 1159 2488 1159 1978 
L 1159 0 
L 581 0 
L 581 3500 
L 1159 3500 
L 1159 2956 
Q 1356 3278 1631 3431 
Q 1906 3584 2284 3584 
Q 2666 3584 2933 3390 
Q 3200 3197 3328 2828 
z
" transform="scale(0.015625)"/>
       <path id="DejaVuSans-65" d="M 3597 1894 
L 3597 1613 
L 953 1613 
Q 991 1019 1311 708 
Q 1631 397 2203 397 
Q 2534 397 2845 478 
Q 3156 559 3463 722 
L 3463 178 
Q 3153 47 2828 -22 
Q 2503 -91 2169 -91 
Q 1331 -91 842 396 
Q 353 884 353 1716 
Q 353 2575 817 3079 
Q 1281 3584 2069 3584 
Q 2775 3584 3186 3129 
Q 3597 2675 3597 1894 
z
M 3022 2063 
Q 3016 2534 2758 2815 
Q 2500 3097 2075 3097 
Q 1594 3097 1305 2825 
Q 1016 2553 972 2059 
L 3022 2063 
z
" transform="scale(0.015625)"/>
       <path id="DejaVuSans-28" d="M 1984 4856 
Q 1566 4138 1362 3434 
Q 1159 2731 1159 2009 
Q 1159 1288 1364 580 
Q 1569 -128 1984 -844 
L 1484 -844 
Q 1016 -109 783 600 
Q 550 1309 550 2009 
Q 550 2706 781 3412 
Q 1013 4119 1484 4856 
L 1984 4856 
z
" transform="scale(0.015625)"/>
       <path id="DejaVuSans-73" d="M 2834 3397 
L 2834 2853 
Q 2591 2978 2328 3040 
Q 2066 3103 1784 3103 
Q 1356 3103 1142 2972 
Q 928 2841 928 2578 
Q 928 2378 1081 2264 
Q 1234 2150 1697 2047 
L 1894 2003 
Q 2506 1872 2764 1633 
Q 3022 1394 3022 966 
Q 3022 478 2636 193 
Q 2250 -91 1575 -91 
Q 1294 -91 989 -36 
Q 684 19 347 128 
L 347 722 
Q 666 556 975 473 
Q 1284 391 1588 391 
Q 1994 391 2212 530 
Q 2431 669 2431 922 
Q 2431 1156 2273 1281 
Q 2116 1406 1581 1522 
L 1381 1569 
Q 847 1681 609 1914 
Q 372 2147 372 2553 
Q 372 3047 722 3315 
Q 1072 3584 1716 3584 
Q 2034 3584 2315 3537 
Q 2597 3491 2834 3397 
z
" transform="scale(0.015625)"/>
       <path id="DejaVuSans-29" d="M 513 4856 
L 1013 4856 
Q 1481 4119 1714 3412 
Q 1947 2706 1947 2009 
Q 1947 1309 1714 600 
Q 1481 -109 1013 -844 
L 513 -844 
Q 928 -128 1133 580 
Q 1338 1288 1338 2009 
Q 1338 2731 1133 3434 
Q 928 4138 513 4856 
z
" transform="scale(0.015625)"/>
      </defs>
      <use xlink:href="#DejaVuSans-54"/>
      <use xlink:href="#DejaVuSans-69" x="57.958984"/>
      <use xlink:href="#DejaVuSans-6d" x="85.742188"/>
      <use xlink:href="#DejaVuSans-65" x="183.154297"/>
      <use xlink:href="#DejaVuSans-28" x="244.677734"/>
      <use xlink:href="#DejaVuSans-73" x="283.691406"/>
      <use xlink:href="#DejaVuSans-29" x="335.791016"/>
     </g>
    </g>
   </g>
   <g id="matplotlib.axis_2">
    <g id="ytick_1">
     <g id="line2d_60">
      <path d="M 95.9775 511.851266 
L 1100.3775 511.851266 
" clip-path="url(#pbe0cc75933)" style="fill: none; stroke-dasharray: 1.85,0.8; stroke-dashoffset: 0; stroke: #000000; stroke-opacity: 0.5; stroke-width: 0.5"/>
     </g>
     <g id="line2d_61">
      <defs>
       <path id="m9a07e9be9d" d="M 0 0 
L 6 0 
" style="stroke: #000000"/>
      </defs>
      <g>
       <use xlink:href="#m9a07e9be9d" x="95.9775" y="511.851266" style="stroke: #000000"/>
      </g>
     </g>
     <g id="line2d_62">
      <defs>
       <path id="m9e5fcec82c" d="M 0 0 
L -6 0 
" style="stroke: #000000"/>
      </defs>
      <g>
       <use xlink:href="#m9e5fcec82c" x="1100.3775" y="511.851266" style="stroke: #000000"/>
      </g>
     </g>
     <g id="text_9">
      <!-- −0.0125 -->
      <g transform="translate(23.085 517.930016) scale(0.16 -0.16)">
       <defs>
        <path id="DejaVuSans-2212" d="M 678 2272 
L 4684 2272 
L 4684 1741 
L 678 1741 
L 678 2272 
z
" transform="scale(0.015625)"/>
        <path id="DejaVuSans-2e" d="M 684 794 
L 1344 794 
L 1344 0 
L 684 0 
L 684 794 
z
" transform="scale(0.015625)"/>
        <path id="DejaVuSans-35" d="M 691 4666 
L 3169 4666 
L 3169 4134 
L 1269 4134 
L 1269 2991 
Q 1406 3038 1543 3061 
Q 1681 3084 1819 3084 
Q 2600 3084 3056 2656 
Q 3513 2228 3513 1497 
Q 3513 744 3044 326 
Q 2575 -91 1722 -91 
Q 1428 -91 1123 -41 
Q 819 9 494 109 
L 494 744 
Q 775 591 1075 516 
Q 1375 441 1709 441 
Q 2250 441 2565 725 
Q 2881 1009 2881 1497 
Q 2881 1984 2565 2268 
Q 2250 2553 1709 2553 
Q 1456 2553 1204 2497 
Q 953 2441 691 2322 
L 691 4666 
z
" transform="scale(0.015625)"/>
       </defs>
       <use xlink:href="#DejaVuSans-2212"/>
       <use xlink:href="#DejaVuSans-30" x="83.789062"/>
       <use xlink:href="#DejaVuSans-2e" x="147.412109"/>
       <use xlink:href="#DejaVuSans-30" x="179.199219"/>
       <use xlink:href="#DejaVuSans-31" x="242.822266"/>
       <use xlink:href="#DejaVuSans-32" x="306.445312"/>
       <use xlink:href="#DejaVuSans-35" x="370.068359"/>
      </g>
     </g>
    </g>
    <g id="ytick_2">
     <g id="line2d_63">
      <path d="M 95.9775 453.563135 
L 1100.3775 453.563135 
" clip-path="url(#pbe0cc75933)" style="fill: none; stroke-dasharray: 1.85,0.8; stroke-dashoffset: 0; stroke: #000000; stroke-opacity: 0.5; stroke-width: 0.5"/>
     </g>
     <g id="line2d_64">
      <g>
       <use xlink:href="#m9a07e9be9d" x="95.9775" y="453.563135" style="stroke: #000000"/>
      </g>
     </g>
     <g id="line2d_65">
      <g>
       <use xlink:href="#m9e5fcec82c" x="1100.3775" y="453.563135" style="stroke: #000000"/>
      </g>
     </g>
     <g id="text_10">
      <!-- −0.0100 -->
      <g transform="translate(23.085 459.641885) scale(0.16 -0.16)">
       <use xlink:href="#DejaVuSans-2212"/>
       <use xlink:href="#DejaVuSans-30" x="83.789062"/>
       <use xlink:href="#DejaVuSans-2e" x="147.412109"/>
       <use xlink:href="#DejaVuSans-30" x="179.199219"/>
       <use xlink:href="#DejaVuSans-31" x="242.822266"/>
       <use xlink:href="#DejaVuSans-30" x="306.445312"/>
       <use xlink:href="#DejaVuSans-30" x="370.068359"/>
      </g>
     </g>
    </g>
    <g id="ytick_3">
     <g id="line2d_66">
      <path d="M 95.9775 395.275004 
L 1100.3775 395.275004 
" clip-path="url(#pbe0cc75933)" style="fill: none; stroke-dasharray: 1.85,0.8; stroke-dashoffset: 0; stroke: #000000; stroke-opacity: 0.5; stroke-width: 0.5"/>
     </g>
     <g id="line2d_67">
      <g>
       <use xlink:href="#m9a07e9be9d" x="95.9775" y="395.275004" style="stroke: #000000"/>
      </g>
     </g>
     <g id="line2d_68">
      <g>
       <use xlink:href="#m9e5fcec82c" x="1100.3775" y="395.275004" style="stroke: #000000"/>
      </g>
     </g>
     <g id="text_11">
      <!-- −0.0075 -->
      <g transform="translate(23.085 401.353754) scale(0.16 -0.16)">
       <defs>
        <path id="DejaVuSans-37" d="M 525 4666 
L 3525 4666 
L 3525 4397 
L 1831 0 
L 1172 0 
L 2766 4134 
L 525 4134 
L 525 4666 
z
" transform="scale(0.015625)"/>
       </defs>
       <use xlink:href="#DejaVuSans-2212"/>
       <use xlink:href="#DejaVuSans-30" x="83.789062"/>
       <use xlink:href="#DejaVuSans-2e" x="147.412109"/>
       <use xlink:href="#DejaVuSans-30" x="179.199219"/>
       <use xlink:href="#DejaVuSans-30" x="242.822266"/>
       <use xlink:href="#DejaVuSans-37" x="306.445312"/>
       <use xlink:href="#DejaVuSans-35" x="370.068359"/>
      </g>
     </g>
    </g>
    <g id="ytick_4">
     <g id="line2d_69">
      <path d="M 95.9775 336.986873 
L 1100.3775 336.986873 
" clip-path="url(#pbe0cc75933)" style="fill: none; stroke-dasharray: 1.85,0.8; stroke-dashoffset: 0; stroke: #000000; stroke-opacity: 0.5; stroke-width: 0.5"/>
     </g>
     <g id="line2d_70">
      <g>
       <use xlink:href="#m9a07e9be9d" x="95.9775" y="336.986873" style="stroke: #000000"/>
      </g>
     </g>
     <g id="line2d_71">
      <g>
       <use xlink:href="#m9e5fcec82c" x="1100.3775" y="336.986873" style="stroke: #000000"/>
      </g>
     </g>
     <g id="text_12">
      <!-- −0.0050 -->
      <g transform="translate(23.085 343.065623) scale(0.16 -0.16)">
       <use xlink:href="#DejaVuSans-2212"/>
       <use xlink:href="#DejaVuSans-30" x="83.789062"/>
       <use xlink:href="#DejaVuSans-2e" x="147.412109"/>
       <use xlink:href="#DejaVuSans-30" x="179.199219"/>
       <use xlink:href="#DejaVuSans-30" x="242.822266"/>
       <use xlink:href="#DejaVuSans-35" x="306.445312"/>
       <use xlink:href="#DejaVuSans-30" x="370.068359"/>
      </g>
     </g>
    </g>
    <g id="ytick_5">
     <g id="line2d_72">
      <path d="M 95.9775 278.698742 
L 1100.3775 278.698742 
" clip-path="url(#pbe0cc75933)" style="fill: none; stroke-dasharray: 1.85,0.8; stroke-dashoffset: 0; stroke: #000000; stroke-opacity: 0.5; stroke-width: 0.5"/>
     </g>
     <g id="line2d_73">
      <g>
       <use xlink:href="#m9a07e9be9d" x="95.9775" y="278.698742" style="stroke: #000000"/>
      </g>
     </g>
     <g id="line2d_74">
      <g>
       <use xlink:href="#m9e5fcec82c" x="1100.3775" y="278.698742" style="stroke: #000000"/>
      </g>
     </g>
     <g id="text_13">
      <!-- −0.0025 -->
      <g transform="translate(23.085 284.777492) scale(0.16 -0.16)">
       <use xlink:href="#DejaVuSans-2212"/>
       <use xlink:href="#DejaVuSans-30" x="83.789062"/>
       <use xlink:href="#DejaVuSans-2e" x="147.412109"/>
       <use xlink:href="#DejaVuSans-30" x="179.199219"/>
       <use xlink:href="#DejaVuSans-30" x="242.822266"/>
       <use xlink:href="#DejaVuSans-32" x="306.445312"/>
       <use xlink:href="#DejaVuSans-35" x="370.068359"/>
      </g>
     </g>
    </g>
    <g id="ytick_6">
     <g id="line2d_75">
      <path d="M 95.9775 220.410611 
L 1100.3775 220.410611 
" clip-path="url(#pbe0cc75933)" style="fill: none; stroke-dasharray: 1.85,0.8; stroke-dashoffset: 0; stroke: #000000; stroke-opacity: 0.5; stroke-width: 0.5"/>
     </g>
     <g id="line2d_76">
      <g>
       <use xlink:href="#m9a07e9be9d" x="95.9775" y="220.410611" style="stroke: #000000"/>
      </g>
     </g>
     <g id="line2d_77">
      <g>
       <use xlink:href="#m9e5fcec82c" x="1100.3775" y="220.410611" style="stroke: #000000"/>
      </g>
     </g>
     <g id="text_14">
      <!-- 0.0000 -->
      <g transform="translate(36.4925 226.489361) scale(0.16 -0.16)">
       <use xlink:href="#DejaVuSans-30"/>
       <use xlink:href="#DejaVuSans-2e" x="63.623047"/>
       <use xlink:href="#DejaVuSans-30" x="95.410156"/>
       <use xlink:href="#DejaVuSans-30" x="159.033203"/>
       <use xlink:href="#DejaVuSans-30" x="222.65625"/>
       <use xlink:href="#DejaVuSans-30" x="286.279297"/>
      </g>
     </g>
    </g>
    <g id="ytick_7">
     <g id="line2d_78">
      <path d="M 95.9775 162.12248 
L 1100.3775 162.12248 
" clip-path="url(#pbe0cc75933)" style="fill: none; stroke-dasharray: 1.85,0.8; stroke-dashoffset: 0; stroke: #000000; stroke-opacity: 0.5; stroke-width: 0.5"/>
     </g>
     <g id="line2d_79">
      <g>
       <use xlink:href="#m9a07e9be9d" x="95.9775" y="162.12248" style="stroke: #000000"/>
      </g>
     </g>
     <g id="line2d_80">
      <g>
       <use xlink:href="#m9e5fcec82c" x="1100.3775" y="162.12248" style="stroke: #000000"/>
      </g>
     </g>
     <g id="text_15">
      <!-- 0.0025 -->
      <g transform="translate(36.4925 168.20123) scale(0.16 -0.16)">
       <use xlink:href="#DejaVuSans-30"/>
       <use xlink:href="#DejaVuSans-2e" x="63.623047"/>
       <use xlink:href="#DejaVuSans-30" x="95.410156"/>
       <use xlink:href="#DejaVuSans-30" x="159.033203"/>
       <use xlink:href="#DejaVuSans-32" x="222.65625"/>
       <use xlink:href="#DejaVuSans-35" x="286.279297"/>
      </g>
     </g>
    </g>
    <g id="ytick_8">
     <g id="line2d_81">
      <path d="M 95.9775 103.834349 
L 1100.3775 103.834349 
" clip-path="url(#pbe0cc75933)" style="fill: none; stroke-dasharray: 1.85,0.8; stroke-dashoffset: 0; stroke: #000000; stroke-opacity: 0.5; stroke-width: 0.5"/>
     </g>
     <g id="line2d_82">
      <g>
       <use xlink:href="#m9a07e9be9d" x="95.9775" y="103.834349" style="stroke: #000000"/>
      </g>
     </g>
     <g id="line2d_83">
      <g>
       <use xlink:href="#m9e5fcec82c" x="1100.3775" y="103.834349" style="stroke: #000000"/>
      </g>
     </g>
     <g id="text_16">
      <!-- 0.0050 -->
      <g transform="translate(36.4925 109.913099) scale(0.16 -0.16)">
       <use xlink:href="#DejaVuSans-30"/>
       <use xlink:href="#DejaVuSans-2e" x="63.623047"/>
       <use xlink:href="#DejaVuSans-30" x="95.410156"/>
       <use xlink:href="#DejaVuSans-30" x="159.033203"/>
       <use xlink:href="#DejaVuSans-35" x="222.65625"/>
       <use xlink:href="#DejaVuSans-30" x="286.279297"/>
      </g>
     </g>
    </g>
    <g id="ytick_9">
     <g id="line2d_84">
      <path d="M 95.9775 45.546218 
L 1100.3775 45.546218 
" clip-path="url(#pbe0cc75933)" style="fill: none; stroke-dasharray: 1.85,0.8; stroke-dashoffset: 0; stroke: #000000; stroke-opacity: 0.5; stroke-width: 0.5"/>
     </g>
     <g id="line2d_85">
      <g>
       <use xlink:href="#m9a07e9be9d" x="95.9775" y="45.546218" style="stroke: #000000"/>
      </g>
     </g>
     <g id="line2d_86">
      <g>
       <use xlink:href="#m9e5fcec82c" x="1100.3775" y="45.546218" style="stroke: #000000"/>
      </g>
     </g>
     <g id="text_17">
      <!-- 0.0075 -->
      <g transform="translate(36.4925 51.624968) scale(0.16 -0.16)">
       <use xlink:href="#DejaVuSans-30"/>
       <use xlink:href="#DejaVuSans-2e" x="63.623047"/>
       <use xlink:href="#DejaVuSans-30" x="95.410156"/>
       <use xlink:href="#DejaVuSans-30" x="159.033203"/>
       <use xlink:href="#DejaVuSans-37" x="222.65625"/>
       <use xlink:href="#DejaVuSans-35" x="286.279297"/>
      </g>
     </g>
    </g>
    <g id="ytick_10">
     <g id="line2d_87">
      <defs>
       <path id="me2c68c14be" d="M 0 0 
L 3 0 
" style="stroke: #000000"/>
      </defs>
      <g>
       <use xlink:href="#me2c68c14be" x="95.9775" y="500.193639" style="stroke: #000000"/>
      </g>
     </g>
     <g id="line2d_88">
      <defs>
       <path id="m8caabe9711" d="M 0 0 
L -3 0 
" style="stroke: #000000"/>
      </defs>
      <g>
       <use xlink:href="#m8caabe9711" x="1100.3775" y="500.193639" style="stroke: #000000"/>
      </g>
     </g>
    </g>
    <g id="ytick_11">
     <g id="line2d_89">
      <g>
       <use xlink:href="#me2c68c14be" x="95.9775" y="488.536013" style="stroke: #000000"/>
      </g>
     </g>
     <g id="line2d_90">
      <g>
       <use xlink:href="#m8caabe9711" x="1100.3775" y="488.536013" style="stroke: #000000"/>
      </g>
     </g>
    </g>
    <g id="ytick_12">
     <g id="line2d_91">
      <g>
       <use xlink:href="#me2c68c14be" x="95.9775" y="476.878387" style="stroke: #000000"/>
      </g>
     </g>
     <g id="line2d_92">
      <g>
       <use xlink:href="#m8caabe9711" x="1100.3775" y="476.878387" style="stroke: #000000"/>
      </g>
     </g>
    </g>
    <g id="ytick_13">
     <g id="line2d_93">
      <g>
       <use xlink:href="#me2c68c14be" x="95.9775" y="465.220761" style="stroke: #000000"/>
      </g>
     </g>
     <g id="line2d_94">
      <g>
       <use xlink:href="#m8caabe9711" x="1100.3775" y="465.220761" style="stroke: #000000"/>
      </g>
     </g>
    </g>
    <g id="ytick_14">
     <g id="line2d_95">
      <g>
       <use xlink:href="#me2c68c14be" x="95.9775" y="441.905508" style="stroke: #000000"/>
      </g>
     </g>
     <g id="line2d_96">
      <g>
       <use xlink:href="#m8caabe9711" x="1100.3775" y="441.905508" style="stroke: #000000"/>
      </g>
     </g>
    </g>
    <g id="ytick_15">
     <g id="line2d_97">
      <g>
       <use xlink:href="#me2c68c14be" x="95.9775" y="430.247882" style="stroke: #000000"/>
      </g>
     </g>
     <g id="line2d_98">
      <g>
       <use xlink:href="#m8caabe9711" x="1100.3775" y="430.247882" style="stroke: #000000"/>
      </g>
     </g>
    </g>
    <g id="ytick_16">
     <g id="line2d_99">
      <g>
       <use xlink:href="#me2c68c14be" x="95.9775" y="418.590256" style="stroke: #000000"/>
      </g>
     </g>
     <g id="line2d_100">
      <g>
       <use xlink:href="#m8caabe9711" x="1100.3775" y="418.590256" style="stroke: #000000"/>
      </g>
     </g>
    </g>
    <g id="ytick_17">
     <g id="line2d_101">
      <g>
       <use xlink:href="#me2c68c14be" x="95.9775" y="406.93263" style="stroke: #000000"/>
      </g>
     </g>
     <g id="line2d_102">
      <g>
       <use xlink:href="#m8caabe9711" x="1100.3775" y="406.93263" style="stroke: #000000"/>
      </g>
     </g>
    </g>
    <g id="ytick_18">
     <g id="line2d_103">
      <g>
       <use xlink:href="#me2c68c14be" x="95.9775" y="383.617377" style="stroke: #000000"/>
      </g>
     </g>
     <g id="line2d_104">
      <g>
       <use xlink:href="#m8caabe9711" x="1100.3775" y="383.617377" style="stroke: #000000"/>
      </g>
     </g>
    </g>
    <g id="ytick_19">
     <g id="line2d_105">
      <g>
       <use xlink:href="#me2c68c14be" x="95.9775" y="371.959751" style="stroke: #000000"/>
      </g>
     </g>
     <g id="line2d_106">
      <g>
       <use xlink:href="#m8caabe9711" x="1100.3775" y="371.959751" style="stroke: #000000"/>
      </g>
     </g>
    </g>
    <g id="ytick_20">
     <g id="line2d_107">
      <g>
       <use xlink:href="#me2c68c14be" x="95.9775" y="360.302125" style="stroke: #000000"/>
      </g>
     </g>
     <g id="line2d_108">
      <g>
       <use xlink:href="#m8caabe9711" x="1100.3775" y="360.302125" style="stroke: #000000"/>
      </g>
     </g>
    </g>
    <g id="ytick_21">
     <g id="line2d_109">
      <g>
       <use xlink:href="#me2c68c14be" x="95.9775" y="348.644499" style="stroke: #000000"/>
      </g>
     </g>
     <g id="line2d_110">
      <g>
       <use xlink:href="#m8caabe9711" x="1100.3775" y="348.644499" style="stroke: #000000"/>
      </g>
     </g>
    </g>
    <g id="ytick_22">
     <g id="line2d_111">
      <g>
       <use xlink:href="#me2c68c14be" x="95.9775" y="325.329246" style="stroke: #000000"/>
      </g>
     </g>
     <g id="line2d_112">
      <g>
       <use xlink:href="#m8caabe9711" x="1100.3775" y="325.329246" style="stroke: #000000"/>
      </g>
     </g>
    </g>
    <g id="ytick_23">
     <g id="line2d_113">
      <g>
       <use xlink:href="#me2c68c14be" x="95.9775" y="313.67162" style="stroke: #000000"/>
      </g>
     </g>
     <g id="line2d_114">
      <g>
       <use xlink:href="#m8caabe9711" x="1100.3775" y="313.67162" style="stroke: #000000"/>
      </g>
     </g>
    </g>
    <g id="ytick_24">
     <g id="line2d_115">
      <g>
       <use xlink:href="#me2c68c14be" x="95.9775" y="302.013994" style="stroke: #000000"/>
      </g>
     </g>
     <g id="line2d_116">
      <g>
       <use xlink:href="#m8caabe9711" x="1100.3775" y="302.013994" style="stroke: #000000"/>
      </g>
     </g>
    </g>
    <g id="ytick_25">
     <g id="line2d_117">
      <g>
       <use xlink:href="#me2c68c14be" x="95.9775" y="290.356368" style="stroke: #000000"/>
      </g>
     </g>
     <g id="line2d_118">
      <g>
       <use xlink:href="#m8caabe9711" x="1100.3775" y="290.356368" style="stroke: #000000"/>
      </g>
     </g>
    </g>
    <g id="ytick_26">
     <g id="line2d_119">
      <g>
       <use xlink:href="#me2c68c14be" x="95.9775" y="267.041115" style="stroke: #000000"/>
      </g>
     </g>
     <g id="line2d_120">
      <g>
       <use xlink:href="#m8caabe9711" x="1100.3775" y="267.041115" style="stroke: #000000"/>
      </g>
     </g>
    </g>
    <g id="ytick_27">
     <g id="line2d_121">
      <g>
       <use xlink:href="#me2c68c14be" x="95.9775" y="255.383489" style="stroke: #000000"/>
      </g>
     </g>
     <g id="line2d_122">
      <g>
       <use xlink:href="#m8caabe9711" x="1100.3775" y="255.383489" style="stroke: #000000"/>
      </g>
     </g>
    </g>
    <g id="ytick_28">
     <g id="line2d_123">
      <g>
       <use xlink:href="#me2c68c14be" x="95.9775" y="243.725863" style="stroke: #000000"/>
      </g>
     </g>
     <g id="line2d_124">
      <g>
       <use xlink:href="#m8caabe9711" x="1100.3775" y="243.725863" style="stroke: #000000"/>
      </g>
     </g>
    </g>
    <g id="ytick_29">
     <g id="line2d_125">
      <g>
       <use xlink:href="#me2c68c14be" x="95.9775" y="232.068237" style="stroke: #000000"/>
      </g>
     </g>
     <g id="line2d_126">
      <g>
       <use xlink:href="#m8caabe9711" x="1100.3775" y="232.068237" style="stroke: #000000"/>
      </g>
     </g>
    </g>
    <g id="ytick_30">
     <g id="line2d_127">
      <g>
       <use xlink:href="#me2c68c14be" x="95.9775" y="208.752984" style="stroke: #000000"/>
      </g>
     </g>
     <g id="line2d_128">
      <g>
       <use xlink:href="#m8caabe9711" x="1100.3775" y="208.752984" style="stroke: #000000"/>
      </g>
     </g>
    </g>
    <g id="ytick_31">
     <g id="line2d_129">
      <g>
       <use xlink:href="#me2c68c14be" x="95.9775" y="197.095358" style="stroke: #000000"/>
      </g>
     </g>
     <g id="line2d_130">
      <g>
       <use xlink:href="#m8caabe9711" x="1100.3775" y="197.095358" style="stroke: #000000"/>
      </g>
     </g>
    </g>
    <g id="ytick_32">
     <g id="line2d_131">
      <g>
       <use xlink:href="#me2c68c14be" x="95.9775" y="185.437732" style="stroke: #000000"/>
      </g>
     </g>
     <g id="line2d_132">
      <g>
       <use xlink:href="#m8caabe9711" x="1100.3775" y="185.437732" style="stroke: #000000"/>
      </g>
     </g>
    </g>
    <g id="ytick_33">
     <g id="line2d_133">
      <g>
       <use xlink:href="#me2c68c14be" x="95.9775" y="173.780106" style="stroke: #000000"/>
      </g>
     </g>
     <g id="line2d_134">
      <g>
       <use xlink:href="#m8caabe9711" x="1100.3775" y="173.780106" style="stroke: #000000"/>
      </g>
     </g>
    </g>
    <g id="ytick_34">
     <g id="line2d_135">
      <g>
       <use xlink:href="#me2c68c14be" x="95.9775" y="150.464853" style="stroke: #000000"/>
      </g>
     </g>
     <g id="line2d_136">
      <g>
       <use xlink:href="#m8caabe9711" x="1100.3775" y="150.464853" style="stroke: #000000"/>
      </g>
     </g>
    </g>
    <g id="ytick_35">
     <g id="line2d_137">
      <g>
       <use xlink:href="#me2c68c14be" x="95.9775" y="138.807227" style="stroke: #000000"/>
      </g>
     </g>
     <g id="line2d_138">
      <g>
       <use xlink:href="#m8caabe9711" x="1100.3775" y="138.807227" style="stroke: #000000"/>
      </g>
     </g>
    </g>
    <g id="ytick_36">
     <g id="line2d_139">
      <g>
       <use xlink:href="#me2c68c14be" x="95.9775" y="127.149601" style="stroke: #000000"/>
      </g>
     </g>
     <g id="line2d_140">
      <g>
       <use xlink:href="#m8caabe9711" x="1100.3775" y="127.149601" style="stroke: #000000"/>
      </g>
     </g>
    </g>
    <g id="ytick_37">
     <g id="line2d_141">
      <g>
       <use xlink:href="#me2c68c14be" x="95.9775" y="115.491975" style="stroke: #000000"/>
      </g>
     </g>
     <g id="line2d_142">
      <g>
       <use xlink:href="#m8caabe9711" x="1100.3775" y="115.491975" style="stroke: #000000"/>
      </g>
     </g>
    </g>
    <g id="ytick_38">
     <g id="line2d_143">
      <g>
       <use xlink:href="#me2c68c14be" x="95.9775" y="92.176722" style="stroke: #000000"/>
      </g>
     </g>
     <g id="line2d_144">
      <g>
       <use xlink:href="#m8caabe9711" x="1100.3775" y="92.176722" style="stroke: #000000"/>
      </g>
     </g>
    </g>
    <g id="ytick_39">
     <g id="line2d_145">
      <g>
       <use xlink:href="#me2c68c14be" x="95.9775" y="80.519096" style="stroke: #000000"/>
      </g>
     </g>
     <g id="line2d_146">
      <g>
       <use xlink:href="#m8caabe9711" x="1100.3775" y="80.519096" style="stroke: #000000"/>
      </g>
     </g>
    </g>
    <g id="ytick_40">
     <g id="line2d_147">
      <g>
       <use xlink:href="#me2c68c14be" x="95.9775" y="68.86147" style="stroke: #000000"/>
      </g>
     </g>
     <g id="line2d_148">
      <g>
       <use xlink:href="#m8caabe9711" x="1100.3775" y="68.86147" style="stroke: #000000"/>
      </g>
     </g>
    </g>
    <g id="ytick_41">
     <g id="line2d_149">
      <g>
       <use xlink:href="#me2c68c14be" x="95.9775" y="57.203844" style="stroke: #000000"/>
      </g>
     </g>
     <g id="line2d_150">
      <g>
       <use xlink:href="#m8caabe9711" x="1100.3775" y="57.203844" style="stroke: #000000"/>
      </g>
     </g>
    </g>
    <g id="ytick_42">
     <g id="line2d_151">
      <g>
       <use xlink:href="#me2c68c14be" x="95.9775" y="33.888591" style="stroke: #000000"/>
      </g>
     </g>
     <g id="line2d_152">
      <g>
       <use xlink:href="#m8caabe9711" x="1100.3775" y="33.888591" style="stroke: #000000"/>
      </g>
     </g>
    </g>
    <g id="ytick_43">
     <g id="line2d_153">
      <g>
       <use xlink:href="#me2c68c14be" x="95.9775" y="22.230965" style="stroke: #000000"/>
      </g>
     </g>
     <g id="line2d_154">
      <g>
       <use xlink:href="#m8caabe9711" x="1100.3775" y="22.230965" style="stroke: #000000"/>
      </g>
     </g>
    </g>
    <g id="text_18">
     <!-- IDR (%) -->
     <g transform="translate(15.7575 301.7025) rotate(-90) scale(0.16 -0.16)">
      <defs>
       <path id="DejaVuSans-49" d="M 628 4666 
L 1259 4666 
L 1259 0 
L 628 0 
L 628 4666 
z
" transform="scale(0.015625)"/>
       <path id="DejaVuSans-44" d="M 1259 4147 
L 1259 519 
L 2022 519 
Q 2988 519 3436 956 
Q 3884 1394 3884 2338 
Q 3884 3275 3436 3711 
Q 2988 4147 2022 4147 
L 1259 4147 
z
M 628 4666 
L 1925 4666 
Q 3281 4666 3915 4102 
Q 4550 3538 4550 2338 
Q 4550 1131 3912 565 
Q 3275 0 1925 0 
L 628 0 
L 628 4666 
z
" transform="scale(0.015625)"/>
       <path id="DejaVuSans-52" d="M 2841 2188 
Q 3044 2119 3236 1894 
Q 3428 1669 3622 1275 
L 4263 0 
L 3584 0 
L 2988 1197 
Q 2756 1666 2539 1819 
Q 2322 1972 1947 1972 
L 1259 1972 
L 1259 0 
L 628 0 
L 628 4666 
L 2053 4666 
Q 2853 4666 3247 4331 
Q 3641 3997 3641 3322 
Q 3641 2881 3436 2590 
Q 3231 2300 2841 2188 
z
M 1259 4147 
L 1259 2491 
L 2053 2491 
Q 2509 2491 2742 2702 
Q 2975 2913 2975 3322 
Q 2975 3731 2742 3939 
Q 2509 4147 2053 4147 
L 1259 4147 
z
" transform="scale(0.015625)"/>
       <path id="DejaVuSans-20" transform="scale(0.015625)"/>
       <path id="DejaVuSans-25" d="M 4653 2053 
Q 4381 2053 4226 1822 
Q 4072 1591 4072 1178 
Q 4072 772 4226 539 
Q 4381 306 4653 306 
Q 4919 306 5073 539 
Q 5228 772 5228 1178 
Q 5228 1588 5073 1820 
Q 4919 2053 4653 2053 
z
M 4653 2450 
Q 5147 2450 5437 2106 
Q 5728 1763 5728 1178 
Q 5728 594 5436 251 
Q 5144 -91 4653 -91 
Q 4153 -91 3862 251 
Q 3572 594 3572 1178 
Q 3572 1766 3864 2108 
Q 4156 2450 4653 2450 
z
M 1428 4353 
Q 1159 4353 1004 4120 
Q 850 3888 850 3481 
Q 850 3069 1003 2837 
Q 1156 2606 1428 2606 
Q 1700 2606 1854 2837 
Q 2009 3069 2009 3481 
Q 2009 3884 1853 4118 
Q 1697 4353 1428 4353 
z
M 4250 4750 
L 4750 4750 
L 1831 -91 
L 1331 -91 
L 4250 4750 
z
M 1428 4750 
Q 1922 4750 2215 4408 
Q 2509 4066 2509 3481 
Q 2509 2891 2217 2550 
Q 1925 2209 1428 2209 
Q 931 2209 642 2551 
Q 353 2894 353 3481 
Q 353 4063 643 4406 
Q 934 4750 1428 4750 
z
" transform="scale(0.015625)"/>
      </defs>
      <use xlink:href="#DejaVuSans-49"/>
      <use xlink:href="#DejaVuSans-44" x="29.492188"/>
      <use xlink:href="#DejaVuSans-52" x="106.494141"/>
      <use xlink:href="#DejaVuSans-20" x="175.976562"/>
      <use xlink:href="#DejaVuSans-28" x="207.763672"/>
      <use xlink:href="#DejaVuSans-25" x="246.777344"/>
      <use xlink:href="#DejaVuSans-29" x="341.796875"/>
     </g>
    </g>
   </g>
   <g id="line2d_155">
    <path d="M 141.632045 220.410611 
L 142.413801 220.604617 
L 143.195557 221.365655 
L 144.759069 223.274598 
L 145.540825 223.846679 
L 146.322581 223.891611 
L 147.104337 223.411894 
L 149.449605 221.006608 
L 150.231361 220.729045 
L 151.013116 220.948828 
L 152.576628 222.320552 
L 153.358384 222.939833 
L 154.14014 223.188357 
L 154.921896 222.972243 
L 155.703652 222.357278 
L 157.267164 220.796921 
L 158.04892 220.339021 
L 158.830676 220.285832 
L 159.612432 220.609411 
L 161.175943 221.839378 
L 162.739455 223.010556 
L 163.521211 223.386445 
L 164.302967 223.564113 
L 165.084723 223.509479 
L 165.866479 223.253927 
L 168.211747 221.933843 
L 168.993502 221.465428 
L 169.775258 220.84335 
L 170.557014 219.836512 
L 171.33877 218.333162 
L 173.684038 212.343154 
L 174.465794 210.926103 
L 175.24755 210.501771 
L 176.029306 211.437401 
L 176.811062 213.758647 
L 178.374573 220.054955 
L 179.156329 222.067838 
L 179.938085 222.426916 
L 180.719841 221.155742 
L 181.501597 218.663039 
L 182.283353 215.699754 
L 183.065109 213.268557 
L 183.846865 212.518337 
L 184.628621 214.276265 
L 185.410377 218.534766 
L 186.973889 229.641547 
L 187.755644 233.369047 
L 188.5374 234.640372 
L 189.319156 233.453465 
L 190.100912 230.38552 
L 191.664424 223.097323 
L 192.44618 221.064104 
L 193.227936 220.533063 
L 194.009692 221.208008 
L 194.791448 222.440621 
L 195.573204 223.463783 
L 196.35496 223.7115 
L 197.136715 222.877069 
L 197.918471 220.886293 
L 198.700227 217.878614 
L 200.263739 210.689292 
L 201.045495 207.889974 
L 201.827251 206.428689 
L 202.609007 206.469407 
L 203.390763 207.915175 
L 204.172519 210.650547 
L 204.954275 214.431484 
L 208.081298 231.888372 
L 208.863054 233.881149 
L 209.64481 233.016634 
L 210.426566 229.527158 
L 211.990078 219.743456 
L 212.771834 216.112557 
L 213.55359 214.059684 
L 215.117101 211.812003 
L 215.898857 209.879941 
L 216.680613 207.046212 
L 218.244125 200.424815 
L 219.025881 198.742942 
L 219.807637 200.277995 
L 220.589393 205.702128 
L 222.934661 230.7592 
L 223.716417 235.291765 
L 224.498172 235.999728 
L 225.279928 233.244025 
L 227.625196 218.620568 
L 228.406952 215.733359 
L 229.188708 214.032203 
L 230.75222 211.963951 
L 231.533976 210.311069 
L 233.097488 205.457914 
L 233.879243 204.980577 
L 234.660999 207.705759 
L 235.442755 213.407152 
L 237.788023 235.05724 
L 238.569779 238.788414 
L 239.351535 239.039688 
L 240.133291 235.78034 
L 242.478559 218.894122 
L 243.260314 215.976646 
L 244.04207 215.375128 
L 244.823826 216.455944 
L 245.605582 217.989797 
L 246.387338 218.758869 
L 247.169094 218.255 
L 247.95085 217.13559 
L 248.732606 216.630805 
L 249.514362 217.370519 
L 251.077874 220.761883 
L 251.85963 221.483804 
L 252.641385 220.784197 
L 254.204897 217.850133 
L 254.986653 217.697474 
L 255.768409 219.096388 
L 258.113677 226.322408 
L 258.895433 227.053513 
L 259.677189 226.360355 
L 260.458945 224.53899 
L 262.022456 219.329113 
L 265.14948 207.22877 
L 265.931236 205.812463 
L 266.712992 205.747286 
L 267.494748 207.69234 
L 268.276504 212.509619 
L 269.05826 220.185422 
L 269.840016 229.117637 
L 270.621771 236.53657 
L 271.403527 239.700074 
L 272.185283 237.710601 
L 272.967039 231.42261 
L 274.530551 214.57699 
L 275.312307 208.815644 
L 276.094063 206.281444 
L 276.875819 205.980891 
L 277.657575 206.397739 
L 278.439331 206.638506 
L 279.221087 207.217487 
L 280.002842 209.217067 
L 281.566354 216.410669 
L 282.34811 218.370806 
L 283.129866 217.11909 
L 283.911622 212.803248 
L 284.693378 207.296504 
L 285.475134 203.233982 
L 286.25689 202.613461 
L 287.038646 205.876993 
L 287.820402 212.387484 
L 289.383913 227.928292 
L 290.165669 233.343229 
L 290.947425 236.532103 
L 291.729181 238.16641 
L 292.510937 239.209819 
L 293.292693 240.451267 
L 294.074449 242.282553 
L 295.637961 246.677257 
L 296.419717 246.686533 
L 297.201473 243.326368 
L 297.983229 236.878918 
L 298.764984 229.198221 
L 299.54674 222.850303 
L 300.328496 219.780985 
L 301.110252 220.293415 
L 301.892008 222.757161 
L 302.673764 224.550185 
L 303.45552 223.833509 
L 305.019032 218.388463 
L 305.800788 218.674281 
L 306.582544 222.854925 
L 307.3643 230.967873 
L 309.709567 263.414504 
L 311.273079 279.849708 
L 312.836591 294.320294 
L 313.618347 300.094591 
L 314.400103 302.237844 
L 315.181859 298.215977 
L 315.963615 287.554742 
L 317.527126 255.229374 
L 318.308882 239.422915 
L 319.090638 227.249468 
L 319.872394 220.212829 
L 320.65415 218.752161 
L 321.435906 221.782421 
L 323.781174 237.378876 
L 324.56293 243.624615 
L 325.344686 252.024269 
L 326.908197 273.378253 
L 327.689953 281.25466 
L 328.471709 282.422169 
L 329.253465 273.975199 
L 330.035221 255.106131 
L 331.598733 201.262827 
L 332.380489 181.960316 
L 333.162245 177.533527 
L 333.944001 190.12294 
L 334.725757 215.910102 
L 335.507512 246.267787 
L 336.289268 270.35932 
L 337.071024 279.588123 
L 337.85278 271.548313 
L 338.634536 249.96196 
L 340.198048 197.372256 
L 340.979804 182.252559 
L 341.76156 179.714514 
L 342.543316 187.409982 
L 343.325072 199.712277 
L 344.106828 209.549827 
L 344.888583 210.414586 
L 345.670339 198.983617 
L 346.452095 176.846712 
L 348.015607 120.752595 
L 348.797363 97.842168 
L 349.579119 82.883224 
L 350.360875 75.06479 
L 351.142631 72.458368 
L 351.924387 75.335853 
L 352.706143 83.888898 
L 355.05141 119.477993 
L 355.833166 126.062763 
L 356.614922 128.557889 
L 357.396678 129.31556 
L 358.178434 132.492443 
L 358.96019 141.074188 
L 359.741946 155.056079 
L 360.523702 171.095185 
L 361.305458 184.008367 
L 362.087214 190.33279 
L 362.868969 189.282207 
L 363.650725 183.667214 
L 364.432481 179.355197 
L 365.214237 181.677431 
L 365.995993 192.534503 
L 367.559505 223.676848 
L 368.341261 226.933701 
L 369.123017 214.224504 
L 369.904773 187.212206 
L 371.468285 123.651989 
L 372.25004 108.476562 
L 373.031796 111.48016 
L 373.813552 131.169595 
L 376.15882 223.220284 
L 376.940576 238.859357 
L 377.722332 243.616954 
L 378.504088 245.170966 
L 379.285844 254.947563 
L 380.0676 282.438904 
L 380.849356 329.444013 
L 382.412867 445.628512 
L 383.194623 485.893068 
L 383.976379 498.0375 
L 384.758135 477.785464 
L 385.539891 428.106841 
L 386.321647 356.89973 
L 387.885159 192.317991 
L 388.666915 123.217185 
L 389.448671 75.357896 
L 390.230427 50.554081 
L 391.012182 44.4375 
L 391.793938 50.002743 
L 392.575694 62.284293 
L 393.35745 80.5854 
L 394.139206 107.338832 
L 394.920962 143.481878 
L 396.484474 224.254526 
L 397.26623 253.672732 
L 398.047986 270.04614 
L 398.829742 275.237597 
L 399.611498 275.250638 
L 400.393253 277.674196 
L 401.175009 288.13568 
L 401.956765 307.378334 
L 402.738521 329.849106 
L 403.520277 346.355724 
L 404.302033 348.923447 
L 405.083789 335.032419 
L 405.865545 308.049173 
L 407.429057 244.619005 
L 408.210813 223.34932 
L 408.992568 214.115125 
L 409.774324 214.591124 
L 410.55608 219.241831 
L 411.337836 222.019974 
L 412.119592 219.183099 
L 412.901348 212.052509 
L 413.683104 207.073253 
L 414.46486 211.482824 
L 415.246616 228.531445 
L 417.591884 308.752805 
L 418.373639 317.592385 
L 419.155395 310.30099 
L 419.937151 287.908695 
L 421.500663 221.880847 
L 422.282419 195.99071 
L 423.064175 184.317029 
L 423.845931 188.062801 
L 424.627687 202.810363 
L 425.409443 221.382445 
L 426.191199 236.365714 
L 426.972955 242.135573 
L 427.75471 236.694289 
L 428.536466 221.665386 
L 430.099978 182.644011 
L 430.881734 169.728867 
L 431.66349 166.936598 
L 432.445246 177.195325 
L 433.227002 199.199569 
L 434.790514 253.483736 
L 435.57227 271.097042 
L 436.354026 276.468141 
L 437.135781 270.364109 
L 437.917537 255.903334 
L 439.481049 218.146667 
L 440.262805 203.277658 
L 441.044561 195.648164 
L 441.826317 198.279076 
L 442.608073 211.925435 
L 444.953341 277.403453 
L 445.735097 290.829754 
L 446.516852 296.171379 
L 447.298608 295.410707 
L 448.080364 292.331903 
L 448.86212 291.257 
L 449.643876 294.947483 
L 450.425632 302.655602 
L 451.207388 308.971834 
L 451.989144 306.71904 
L 452.7709 292.285115 
L 453.552656 267.206615 
L 455.116167 212.29698 
L 455.897923 196.845505 
L 456.679679 192.87275 
L 457.461435 197.168442 
L 458.243191 203.583923 
L 459.024947 205.896382 
L 459.806703 200.888413 
L 461.370215 179.30034 
L 462.151971 171.917097 
L 462.933727 171.510787 
L 463.715483 179.522911 
L 464.497238 194.641205 
L 466.06075 230.995209 
L 466.842506 245.508591 
L 467.624262 253.080662 
L 468.406018 250.863868 
L 469.187774 238.536074 
L 471.533042 182.01741 
L 472.314798 173.468733 
L 473.096554 173.757499 
L 473.878309 181.949607 
L 474.660065 196.284321 
L 476.223577 227.883922 
L 477.005333 236.386873 
L 477.787089 236.229599 
L 478.568845 228.185107 
L 480.132357 202.639551 
L 480.914113 193.043101 
L 481.695869 189.139713 
L 482.477625 191.226914 
L 483.25938 197.730037 
L 484.041136 205.702962 
L 484.822892 211.556543 
L 485.604648 212.306589 
L 486.386404 206.667773 
L 487.16816 195.925203 
L 487.949916 183.554365 
L 488.731672 173.978029 
L 489.513428 170.621071 
L 490.295184 174.008769 
L 491.858696 187.978446 
L 492.640451 189.852447 
L 493.422207 185.729116 
L 494.203963 178.102686 
L 494.985719 172.372768 
L 495.767475 173.754345 
L 496.549231 184.291293 
L 497.330987 202.595991 
L 498.894499 245.861712 
L 499.676255 261.469281 
L 500.458011 269.478492 
L 501.239767 269.646114 
L 502.021522 262.523362 
L 502.803278 249.150061 
L 504.36679 210.402 
L 505.148546 189.933612 
L 505.930302 172.487162 
L 506.712058 160.341192 
L 507.493814 155.214666 
L 508.27557 157.663916 
L 509.057326 165.733563 
L 510.620837 186.377843 
L 511.402593 195.083274 
L 512.184349 200.890619 
L 512.966105 202.543122 
L 513.747861 199.057096 
L 514.529617 190.744963 
L 516.093129 168.844321 
L 516.874885 161.721049 
L 517.656641 161.976763 
L 518.438397 172.077054 
L 519.220153 191.55418 
L 520.783664 240.93135 
L 521.56542 258.771171 
L 522.347176 266.24256 
L 523.128932 263.721089 
L 523.910688 254.631656 
L 525.4742 233.732281 
L 526.255956 226.402491 
L 527.037712 221.196955 
L 530.164735 205.336979 
L 530.946491 200.072799 
L 531.728247 195.900005 
L 532.510003 194.419074 
L 533.291759 196.259678 
L 534.073515 201.678984 
L 534.855271 210.866989 
L 537.200539 245.452338 
L 537.982295 250.778996 
L 538.76405 250.760867 
L 539.545806 246.518385 
L 541.891074 227.512059 
L 542.67283 224.717097 
L 543.454586 223.869637 
L 544.236342 223.674593 
L 545.018098 222.838856 
L 545.799854 220.555826 
L 546.58161 216.708235 
L 548.145121 207.175249 
L 548.926877 204.008278 
L 549.708633 203.310338 
L 550.490389 205.058386 
L 551.272145 208.563516 
L 552.835657 216.59835 
L 554.399169 222.4328 
L 555.180925 226.47771 
L 555.962681 232.295823 
L 557.526192 245.635177 
L 558.307948 250.064781 
L 559.089704 251.443703 
L 559.87146 248.794039 
L 560.653216 241.591072 
L 563.78024 199.499987 
L 564.561996 194.404609 
L 565.343752 192.531692 
L 566.125507 192.922116 
L 566.907263 194.204335 
L 568.470775 196.472588 
L 569.252531 199.108163 
L 570.034287 203.898208 
L 570.816043 211.562119 
L 571.597799 222.877568 
L 573.943067 268.676345 
L 574.724823 277.699603 
L 575.506578 277.081719 
L 576.288334 265.231344 
L 577.07009 244.37492 
L 578.633602 197.625281 
L 579.415358 181.62128 
L 580.197114 173.824534 
L 580.97887 173.732006 
L 581.760626 179.240608 
L 582.542382 186.921012 
L 583.324138 192.979607 
L 584.105894 195.246527 
L 584.887649 193.840978 
L 586.451161 186.912929 
L 587.232917 187.433465 
L 588.014673 194.246566 
L 588.796429 207.095869 
L 590.359941 239.877674 
L 591.141697 252.600322 
L 591.923453 259.775127 
L 592.705209 260.850353 
L 593.486965 256.782287 
L 595.050476 244.212271 
L 595.832232 241.191138 
L 596.613988 241.896671 
L 597.395744 245.747333 
L 598.959256 256.114871 
L 599.741012 258.899597 
L 600.522768 258.731873 
L 601.304524 255.645153 
L 603.649791 239.665775 
L 604.431547 237.215044 
L 605.213303 237.553617 
L 605.995059 240.02196 
L 606.776815 243.106277 
L 607.558571 244.993546 
L 608.340327 244.389037 
L 609.122083 241.193064 
L 610.685595 231.5986 
L 611.467351 228.395187 
L 612.249106 227.829732 
L 613.030862 230.177477 
L 613.812618 234.825399 
L 615.37613 246.007462 
L 616.157886 250.643028 
L 616.939642 254.198865 
L 617.721398 256.640646 
L 618.503154 258.035035 
L 619.28491 258.615824 
L 620.066666 258.620238 
L 620.848422 257.704576 
L 621.630177 254.648993 
L 622.411933 248.536331 
L 623.193689 239.743318 
L 625.538957 207.559325 
L 626.320713 199.192632 
L 627.102469 194.023303 
L 627.884225 192.329128 
L 628.665981 193.11757 
L 629.447737 194.804796 
L 630.229493 195.850664 
L 631.011248 195.245542 
L 631.793004 192.656517 
L 633.356516 184.522053 
L 634.138272 181.727979 
L 634.920028 181.777104 
L 635.701784 185.985068 
L 636.48354 194.456606 
L 638.047052 217.169621 
L 638.828808 226.4669 
L 639.610564 231.921104 
L 640.392319 233.141626 
L 641.174075 230.564963 
L 642.737587 219.801218 
L 643.519343 216.461318 
L 644.301099 217.459789 
L 645.082855 223.430442 
L 645.864611 233.174398 
L 647.428123 255.730077 
L 648.209879 264.527776 
L 648.991634 269.406589 
L 649.77339 268.726322 
L 650.555146 261.019684 
L 651.336902 246.260095 
L 652.900414 207.165512 
L 653.68217 191.497565 
L 654.463926 182.768988 
L 655.245682 181.447049 
L 656.027438 186.879855 
L 656.809194 198.134488 
L 658.372705 226.256412 
L 659.154461 236.52327 
L 659.936217 241.954129 
L 660.717973 242.880203 
L 661.499729 240.696766 
L 663.063241 233.355767 
L 663.844997 231.012718 
L 664.626753 230.271625 
L 665.408509 230.421808 
L 666.190265 230.394748 
L 666.972021 229.26028 
L 667.753776 226.424374 
L 668.535532 221.801334 
L 670.099044 210.109408 
L 670.8808 205.426919 
L 671.662556 202.932563 
L 672.444312 202.725496 
L 673.226068 204.081742 
L 674.007824 205.960183 
L 674.78958 207.247379 
L 675.571336 207.256658 
L 676.353092 206.209586 
L 677.134847 204.891182 
L 677.916603 204.083922 
L 678.698359 204.049564 
L 680.261871 204.785027 
L 681.043627 204.431512 
L 681.825383 202.765387 
L 682.607139 199.367914 
L 684.952407 185.297626 
L 685.734163 184.312229 
L 686.515918 186.61422 
L 687.297674 191.35468 
L 688.861186 202.278065 
L 689.642942 205.732781 
L 690.424698 207.513614 
L 691.206454 208.763352 
L 691.98821 210.634996 
L 692.769966 213.918043 
L 693.551722 219.033126 
L 695.896989 239.006188 
L 696.678745 241.131848 
L 697.460501 238.592567 
L 698.242257 232.19074 
L 699.805769 215.811339 
L 700.587525 210.199198 
L 701.369281 208.810495 
L 702.151037 212.669603 
L 702.932793 221.277141 
L 704.496304 241.800994 
L 705.27806 247.33019 
L 706.059816 247.488184 
L 706.841572 243.210056 
L 707.623328 237.171341 
L 708.405084 232.565175 
L 709.18684 231.703741 
L 709.968596 235.112233 
L 710.750352 241.65344 
L 711.532108 249.157951 
L 712.313864 255.034514 
L 713.09562 256.614903 
L 713.877375 252.283091 
L 714.659131 242.738498 
L 716.222643 215.808854 
L 717.004399 201.996308 
L 717.786155 190.384117 
L 718.567911 182.350289 
L 719.349667 178.523978 
L 720.131423 178.210511 
L 720.913179 179.960928 
L 723.258446 187.520423 
L 724.040202 189.428132 
L 724.821958 192.621296 
L 725.603714 198.354458 
L 726.38547 206.589756 
L 727.948982 225.883457 
L 728.730738 233.764157 
L 729.512494 238.286845 
L 730.29425 238.194792 
L 731.076006 233.145114 
L 732.639517 216.203881 
L 733.421273 210.996001 
L 734.203029 211.38088 
L 734.984785 217.224972 
L 736.548297 236.301676 
L 737.330053 243.583219 
L 738.111809 246.185824 
L 738.893565 243.368714 
L 739.675321 236.08682 
L 741.238833 217.692628 
L 742.020588 210.280762 
L 742.802344 205.08709 
L 743.5841 202.230648 
L 744.365856 201.371556 
L 745.147612 201.785242 
L 745.929368 202.573114 
L 747.49288 203.945222 
L 748.274636 205.347037 
L 749.056392 207.624789 
L 749.838148 210.794972 
L 751.401659 219.158474 
L 752.965171 228.760177 
L 756.092195 249.915895 
L 756.873951 253.94628 
L 757.655707 256.689226 
L 758.437463 257.408988 
L 759.219219 255.142873 
L 760.000974 250.107268 
L 760.78273 243.29488 
L 763.127998 219.760913 
L 763.909754 213.412487 
L 764.69151 208.413231 
L 765.473266 204.465767 
L 766.255022 201.382557 
L 767.036778 199.768626 
L 767.818534 200.626765 
L 768.60029 203.848695 
L 770.163801 212.899183 
L 770.945557 216.22134 
L 771.727313 217.71 
L 772.509069 217.594694 
L 773.290825 216.765091 
L 774.072581 216.298314 
L 774.854337 216.838437 
L 776.417849 219.431779 
L 777.199605 219.941075 
L 777.981361 219.468143 
L 778.763116 218.250281 
L 779.544872 216.8131 
L 780.326628 215.681252 
L 781.108384 215.181323 
L 781.89014 215.311645 
L 783.453652 216.333419 
L 784.235408 216.390883 
L 785.017164 215.61643 
L 785.79892 213.904776 
L 786.580676 211.365715 
L 788.925943 201.865306 
L 789.707699 200.139055 
L 790.489455 200.530574 
L 791.271211 203.276392 
L 792.052967 208.08676 
L 792.834723 214.676319 
L 795.179991 237.905584 
L 795.961747 243.643861 
L 796.743502 247.521551 
L 797.525258 249.630962 
L 798.307014 249.823299 
L 799.08877 247.810548 
L 799.870526 244.196951 
L 801.434038 235.060976 
L 802.99755 225.718799 
L 803.779306 222.027414 
L 804.561062 219.351882 
L 805.342818 217.607668 
L 806.124573 216.562778 
L 809.251597 213.952156 
L 810.033353 214.123675 
L 810.815109 215.646947 
L 811.596865 218.577335 
L 813.942133 229.663097 
L 814.723889 231.827664 
L 815.505644 232.579081 
L 816.2874 232.083101 
L 818.632668 228.523138 
L 819.414424 227.710373 
L 820.977936 226.305269 
L 821.759692 225.034844 
L 822.541448 223.035564 
L 824.10496 218.318973 
L 824.886715 217.005561 
L 825.668471 216.943247 
L 826.450227 218.13739 
L 827.231983 220.391513 
L 829.577251 228.701988 
L 830.359007 230.707944 
L 831.140763 232.198027 
L 831.922519 232.929985 
L 832.704275 232.402261 
L 833.486031 230.423888 
L 834.267786 227.233199 
L 836.613054 215.887873 
L 837.39481 213.425596 
L 838.176566 212.019693 
L 838.958322 211.372404 
L 840.521834 210.503103 
L 842.085346 209.311765 
L 842.867101 208.947518 
L 843.648857 208.809304 
L 844.430613 208.914274 
L 845.212369 209.25634 
L 845.994125 209.822074 
L 846.775881 210.634907 
L 847.557637 211.719975 
L 849.902905 215.727267 
L 850.684661 216.705093 
L 851.466417 217.246288 
L 852.248172 217.255164 
L 853.029928 216.642036 
L 853.811684 215.50518 
L 855.375196 212.893885 
L 856.156952 212.135 
L 856.938708 212.236918 
L 857.720464 213.562557 
L 858.50222 216.323381 
L 859.283976 220.401569 
L 861.629243 234.512105 
L 862.410999 237.575906 
L 863.192755 238.994328 
L 863.974511 238.457508 
L 864.756267 236.067967 
L 865.538023 232.427286 
L 868.665047 215.698741 
L 869.446803 213.105278 
L 870.228559 211.494917 
L 871.010314 210.618975 
L 871.79207 210.193774 
L 872.573826 210.090618 
L 873.355582 210.32415 
L 874.137338 210.895011 
L 874.919094 211.943911 
L 875.70085 213.771465 
L 878.046118 221.530463 
L 878.827874 222.310846 
L 879.60963 221.523605 
L 881.173141 217.843479 
L 881.954897 216.831764 
L 882.736653 217.15385 
L 884.300165 219.59757 
L 885.081921 219.811421 
L 885.863677 218.71751 
L 886.645433 216.530816 
L 888.208945 211.418104 
L 888.9907 210.5682 
L 889.772456 212.338122 
L 890.554212 216.937003 
L 892.89948 235.428105 
L 893.681236 238.269405 
L 894.462992 238.384719 
L 895.244748 236.416845 
L 896.80826 231.186305 
L 897.590016 229.663677 
L 899.153527 227.423631 
L 899.935283 225.830564 
L 900.717039 223.279043 
L 901.498795 219.644788 
L 902.280551 215.448478 
L 903.062307 211.933851 
L 903.844063 210.672032 
L 904.625819 212.490516 
L 905.407575 216.855038 
L 906.189331 222.190748 
L 906.971087 226.661094 
L 907.752842 228.84634 
L 908.534598 228.183694 
L 909.316354 225.054389 
L 910.879866 216.214151 
L 911.661622 213.480184 
L 912.443378 213.267667 
L 913.225134 215.533568 
L 915.570402 227.069059 
L 916.352158 228.750063 
L 917.133913 228.298972 
L 917.915669 225.795332 
L 920.260937 213.548402 
L 921.042693 210.644883 
L 921.824449 208.790517 
L 922.606205 207.867782 
L 923.387961 207.632833 
L 924.169717 207.741544 
L 924.951473 207.715338 
L 925.733229 207.044726 
L 926.514984 205.164947 
L 927.29674 201.85532 
L 928.078496 197.785911 
L 928.860252 194.637239 
L 929.642008 194.317817 
L 930.423764 197.701146 
L 931.20552 204.404216 
L 933.550788 232.041841 
L 934.332544 238.445361 
L 935.1143 241.641012 
L 935.896055 241.895701 
L 936.677811 240.396322 
L 938.241323 236.576227 
L 939.023079 235.614337 
L 939.804835 235.809366 
L 940.586591 236.932314 
L 941.368347 238.410639 
L 942.150103 239.535714 
L 942.931859 239.570608 
L 943.713615 237.99426 
L 944.49537 234.854362 
L 946.058882 226.6322 
L 946.840638 223.394531 
L 947.622394 221.691532 
L 948.40415 221.70616 
L 949.185906 223.092189 
L 949.967662 225.088264 
L 950.749418 226.675318 
L 951.531174 226.799846 
L 952.31293 224.722293 
L 953.094686 220.463239 
L 955.439953 203.452626 
L 956.221709 199.300211 
L 957.003465 197.222721 
L 957.785221 197.881219 
L 958.566977 201.194479 
L 961.694001 220.833127 
L 962.475757 223.586739 
L 963.257512 225.16454 
L 964.821024 227.14812 
L 967.166292 231.469479 
L 967.948048 232.155374 
L 968.729804 231.964964 
L 969.51156 230.85615 
L 971.856828 225.610263 
L 972.638583 224.92601 
L 973.420339 225.087271 
L 974.202095 225.699681 
L 974.983851 226.140126 
L 975.765607 225.846043 
L 976.547363 224.535082 
L 977.329119 222.328058 
L 978.892631 216.784225 
L 979.674387 214.649277 
L 980.456143 213.719009 
L 981.237899 214.163629 
L 982.019654 215.687467 
L 983.583166 219.53467 
L 984.364922 220.68089 
L 985.146678 220.764965 
L 985.928434 219.667203 
L 986.71019 217.529965 
L 988.273702 211.949031 
L 989.055458 209.810273 
L 989.837214 208.739269 
L 990.618969 208.741797 
L 991.400725 209.460319 
L 992.182481 210.490069 
L 992.964237 211.308573 
L 993.745993 211.596676 
L 994.527749 211.359754 
L 995.309505 210.90525 
L 996.091261 210.612036 
L 996.873017 210.91034 
L 997.654773 212.102461 
L 998.436529 214.20389 
L 1000.781796 221.904983 
L 1001.563552 223.336513 
L 1002.345308 223.860462 
L 1003.127064 223.64556 
L 1003.90882 222.925198 
L 1005.472332 221.050794 
L 1006.254088 220.369164 
L 1007.035844 220.051434 
L 1007.8176 220.113505 
L 1008.599356 220.457363 
L 1011.726379 222.513503 
L 1012.508135 222.837939 
L 1013.289891 222.920408 
L 1014.071647 222.714317 
L 1014.853403 222.369927 
L 1015.635159 222.17537 
L 1016.416915 222.463099 
L 1017.198671 223.337079 
L 1019.543938 227.354591 
L 1020.325694 228.074101 
L 1021.10745 228.074143 
L 1021.889206 227.374277 
L 1022.670962 226.154707 
L 1024.234474 223.353753 
L 1025.01623 222.301322 
L 1025.797986 221.616336 
L 1026.579742 221.272439 
L 1029.706765 220.593449 
L 1031.270277 219.560935 
L 1032.052033 219.028842 
L 1032.833789 218.642657 
L 1033.615545 218.524044 
L 1034.397301 218.681337 
L 1035.179057 219.08523 
L 1036.742568 220.08885 
L 1037.524324 220.392908 
L 1038.30608 220.414606 
L 1039.087836 220.182584 
L 1040.651348 219.43699 
L 1041.433104 219.210508 
L 1042.21486 219.249443 
L 1042.996616 219.509056 
L 1045.341884 220.672764 
L 1046.123639 220.836604 
L 1046.905395 220.774782 
L 1048.468907 220.162275 
L 1049.250663 219.813395 
L 1050.032419 219.610496 
L 1050.814175 219.601109 
L 1051.595931 219.810966 
L 1053.941199 220.802911 
L 1054.722955 220.867161 
L 1054.722955 220.867161 
" clip-path="url(#pbe0cc75933)" style="fill: none; stroke: #0c5da5; stroke-width: 2; stroke-linecap: square"/>
   </g>
   <g id="patch_3">
    <path d="M 95.9775 520.7175 
L 95.9775 21.7575 
" style="fill: none; stroke: #000000; stroke-linejoin: miter; stroke-linecap: square"/>
   </g>
   <g id="patch_4">
    <path d="M 1100.3775 520.7175 
L 1100.3775 21.7575 
" style="fill: none; stroke: #000000; stroke-linejoin: miter; stroke-linecap: square"/>
   </g>
   <g id="patch_5">
    <path d="M 95.9775 520.7175 
L 1100.3775 520.7175 
" style="fill: none; stroke: #000000; stroke-linejoin: miter; stroke-linecap: square"/>
   </g>
   <g id="patch_6">
    <path d="M 95.9775 21.7575 
L 1100.3775 21.7575 
" style="fill: none; stroke: #000000; stroke-linejoin: miter; stroke-linecap: square"/>
   </g>
   <g id="text_19">
    <!-- Santa Barbara Record no. 135 -->
    <g transform="translate(477.785 15.7575) scale(0.16 -0.16)">
     <defs>
      <path id="DejaVuSans-53" d="M 3425 4513 
L 3425 3897 
Q 3066 4069 2747 4153 
Q 2428 4238 2131 4238 
Q 1616 4238 1336 4038 
Q 1056 3838 1056 3469 
Q 1056 3159 1242 3001 
Q 1428 2844 1947 2747 
L 2328 2669 
Q 3034 2534 3370 2195 
Q 3706 1856 3706 1288 
Q 3706 609 3251 259 
Q 2797 -91 1919 -91 
Q 1588 -91 1214 -16 
Q 841 59 441 206 
L 441 856 
Q 825 641 1194 531 
Q 1563 422 1919 422 
Q 2459 422 2753 634 
Q 3047 847 3047 1241 
Q 3047 1584 2836 1778 
Q 2625 1972 2144 2069 
L 1759 2144 
Q 1053 2284 737 2584 
Q 422 2884 422 3419 
Q 422 4038 858 4394 
Q 1294 4750 2059 4750 
Q 2388 4750 2728 4690 
Q 3069 4631 3425 4513 
z
" transform="scale(0.015625)"/>
      <path id="DejaVuSans-61" d="M 2194 1759 
Q 1497 1759 1228 1600 
Q 959 1441 959 1056 
Q 959 750 1161 570 
Q 1363 391 1709 391 
Q 2188 391 2477 730 
Q 2766 1069 2766 1631 
L 2766 1759 
L 2194 1759 
z
M 3341 1997 
L 3341 0 
L 2766 0 
L 2766 531 
Q 2569 213 2275 61 
Q 1981 -91 1556 -91 
Q 1019 -91 701 211 
Q 384 513 384 1019 
Q 384 1609 779 1909 
Q 1175 2209 1959 2209 
L 2766 2209 
L 2766 2266 
Q 2766 2663 2505 2880 
Q 2244 3097 1772 3097 
Q 1472 3097 1187 3025 
Q 903 2953 641 2809 
L 641 3341 
Q 956 3463 1253 3523 
Q 1550 3584 1831 3584 
Q 2591 3584 2966 3190 
Q 3341 2797 3341 1997 
z
" transform="scale(0.015625)"/>
      <path id="DejaVuSans-6e" d="M 3513 2113 
L 3513 0 
L 2938 0 
L 2938 2094 
Q 2938 2591 2744 2837 
Q 2550 3084 2163 3084 
Q 1697 3084 1428 2787 
Q 1159 2491 1159 1978 
L 1159 0 
L 581 0 
L 581 3500 
L 1159 3500 
L 1159 2956 
Q 1366 3272 1645 3428 
Q 1925 3584 2291 3584 
Q 2894 3584 3203 3211 
Q 3513 2838 3513 2113 
z
" transform="scale(0.015625)"/>
      <path id="DejaVuSans-74" d="M 1172 4494 
L 1172 3500 
L 2356 3500 
L 2356 3053 
L 1172 3053 
L 1172 1153 
Q 1172 725 1289 603 
Q 1406 481 1766 481 
L 2356 481 
L 2356 0 
L 1766 0 
Q 1100 0 847 248 
Q 594 497 594 1153 
L 594 3053 
L 172 3053 
L 172 3500 
L 594 3500 
L 594 4494 
L 1172 4494 
z
" transform="scale(0.015625)"/>
      <path id="DejaVuSans-42" d="M 1259 2228 
L 1259 519 
L 2272 519 
Q 2781 519 3026 730 
Q 3272 941 3272 1375 
Q 3272 1813 3026 2020 
Q 2781 2228 2272 2228 
L 1259 2228 
z
M 1259 4147 
L 1259 2741 
L 2194 2741 
Q 2656 2741 2882 2914 
Q 3109 3088 3109 3444 
Q 3109 3797 2882 3972 
Q 2656 4147 2194 4147 
L 1259 4147 
z
M 628 4666 
L 2241 4666 
Q 2963 4666 3353 4366 
Q 3744 4066 3744 3513 
Q 3744 3084 3544 2831 
Q 3344 2578 2956 2516 
Q 3422 2416 3680 2098 
Q 3938 1781 3938 1306 
Q 3938 681 3513 340 
Q 3088 0 2303 0 
L 628 0 
L 628 4666 
z
" transform="scale(0.015625)"/>
      <path id="DejaVuSans-72" d="M 2631 2963 
Q 2534 3019 2420 3045 
Q 2306 3072 2169 3072 
Q 1681 3072 1420 2755 
Q 1159 2438 1159 1844 
L 1159 0 
L 581 0 
L 581 3500 
L 1159 3500 
L 1159 2956 
Q 1341 3275 1631 3429 
Q 1922 3584 2338 3584 
Q 2397 3584 2469 3576 
Q 2541 3569 2628 3553 
L 2631 2963 
z
" transform="scale(0.015625)"/>
      <path id="DejaVuSans-62" d="M 3116 1747 
Q 3116 2381 2855 2742 
Q 2594 3103 2138 3103 
Q 1681 3103 1420 2742 
Q 1159 2381 1159 1747 
Q 1159 1113 1420 752 
Q 1681 391 2138 391 
Q 2594 391 2855 752 
Q 3116 1113 3116 1747 
z
M 1159 2969 
Q 1341 3281 1617 3432 
Q 1894 3584 2278 3584 
Q 2916 3584 3314 3078 
Q 3713 2572 3713 1747 
Q 3713 922 3314 415 
Q 2916 -91 2278 -91 
Q 1894 -91 1617 61 
Q 1341 213 1159 525 
L 1159 0 
L 581 0 
L 581 4863 
L 1159 4863 
L 1159 2969 
z
" transform="scale(0.015625)"/>
      <path id="DejaVuSans-63" d="M 3122 3366 
L 3122 2828 
Q 2878 2963 2633 3030 
Q 2388 3097 2138 3097 
Q 1578 3097 1268 2742 
Q 959 2388 959 1747 
Q 959 1106 1268 751 
Q 1578 397 2138 397 
Q 2388 397 2633 464 
Q 2878 531 3122 666 
L 3122 134 
Q 2881 22 2623 -34 
Q 2366 -91 2075 -91 
Q 1284 -91 818 406 
Q 353 903 353 1747 
Q 353 2603 823 3093 
Q 1294 3584 2113 3584 
Q 2378 3584 2631 3529 
Q 2884 3475 3122 3366 
z
" transform="scale(0.015625)"/>
      <path id="DejaVuSans-6f" d="M 1959 3097 
Q 1497 3097 1228 2736 
Q 959 2375 959 1747 
Q 959 1119 1226 758 
Q 1494 397 1959 397 
Q 2419 397 2687 759 
Q 2956 1122 2956 1747 
Q 2956 2369 2687 2733 
Q 2419 3097 1959 3097 
z
M 1959 3584 
Q 2709 3584 3137 3096 
Q 3566 2609 3566 1747 
Q 3566 888 3137 398 
Q 2709 -91 1959 -91 
Q 1206 -91 779 398 
Q 353 888 353 1747 
Q 353 2609 779 3096 
Q 1206 3584 1959 3584 
z
" transform="scale(0.015625)"/>
      <path id="DejaVuSans-64" d="M 2906 2969 
L 2906 4863 
L 3481 4863 
L 3481 0 
L 2906 0 
L 2906 525 
Q 2725 213 2448 61 
Q 2172 -91 1784 -91 
Q 1150 -91 751 415 
Q 353 922 353 1747 
Q 353 2572 751 3078 
Q 1150 3584 1784 3584 
Q 2172 3584 2448 3432 
Q 2725 3281 2906 2969 
z
M 947 1747 
Q 947 1113 1208 752 
Q 1469 391 1925 391 
Q 2381 391 2643 752 
Q 2906 1113 2906 1747 
Q 2906 2381 2643 2742 
Q 2381 3103 1925 3103 
Q 1469 3103 1208 2742 
Q 947 2381 947 1747 
z
" transform="scale(0.015625)"/>
      <path id="DejaVuSans-33" d="M 2597 2516 
Q 3050 2419 3304 2112 
Q 3559 1806 3559 1356 
Q 3559 666 3084 287 
Q 2609 -91 1734 -91 
Q 1441 -91 1130 -33 
Q 819 25 488 141 
L 488 750 
Q 750 597 1062 519 
Q 1375 441 1716 441 
Q 2309 441 2620 675 
Q 2931 909 2931 1356 
Q 2931 1769 2642 2001 
Q 2353 2234 1838 2234 
L 1294 2234 
L 1294 2753 
L 1863 2753 
Q 2328 2753 2575 2939 
Q 2822 3125 2822 3475 
Q 2822 3834 2567 4026 
Q 2313 4219 1838 4219 
Q 1578 4219 1281 4162 
Q 984 4106 628 3988 
L 628 4550 
Q 988 4650 1302 4700 
Q 1616 4750 1894 4750 
Q 2613 4750 3031 4423 
Q 3450 4097 3450 3541 
Q 3450 3153 3228 2886 
Q 3006 2619 2597 2516 
z
" transform="scale(0.015625)"/>
     </defs>
     <use xlink:href="#DejaVuSans-53"/>
     <use xlink:href="#DejaVuSans-61" x="63.476562"/>
     <use xlink:href="#DejaVuSans-6e" x="124.755859"/>
     <use xlink:href="#DejaVuSans-74" x="188.134766"/>
     <use xlink:href="#DejaVuSans-61" x="227.34375"/>
     <use xlink:href="#DejaVuSans-20" x="288.623047"/>
     <use xlink:href="#DejaVuSans-42" x="320.410156"/>
     <use xlink:href="#DejaVuSans-61" x="389.013672"/>
     <use xlink:href="#DejaVuSans-72" x="450.292969"/>
     <use xlink:href="#DejaVuSans-62" x="491.40625"/>
     <use xlink:href="#DejaVuSans-61" x="554.882812"/>
     <use xlink:href="#DejaVuSans-72" x="616.162109"/>
     <use xlink:href="#DejaVuSans-61" x="657.275391"/>
     <use xlink:href="#DejaVuSans-20" x="718.554688"/>
     <use xlink:href="#DejaVuSans-52" x="750.341797"/>
     <use xlink:href="#DejaVuSans-65" x="815.324219"/>
     <use xlink:href="#DejaVuSans-63" x="876.847656"/>
     <use xlink:href="#DejaVuSans-6f" x="931.828125"/>
     <use xlink:href="#DejaVuSans-72" x="993.009766"/>
     <use xlink:href="#DejaVuSans-64" x="1032.373047"/>
     <use xlink:href="#DejaVuSans-20" x="1095.849609"/>
     <use xlink:href="#DejaVuSans-6e" x="1127.636719"/>
     <use xlink:href="#DejaVuSans-6f" x="1191.015625"/>
     <use xlink:href="#DejaVuSans-2e" x="1250.447266"/>
     <use xlink:href="#DejaVuSans-20" x="1282.234375"/>
     <use xlink:href="#DejaVuSans-31" x="1314.021484"/>
     <use xlink:href="#DejaVuSans-33" x="1377.644531"/>
     <use xlink:href="#DejaVuSans-35" x="1441.267578"/>
    </g>
   </g>
  </g>
 </g>
 <defs>
  <clipPath id="pbe0cc75933">
   <rect x="95.9775" y="21.7575" width="1004.4" height="498.96"/>
  </clipPath>
 </defs>
</svg>
