<?xml version="1.0" encoding="utf-8" standalone="no"?>
<!DOCTYPE svg PUBLIC "-//W3C//DTD SVG 1.1//EN"
  "http://www.w3.org/Graphics/SVG/1.1/DTD/svg11.dtd">
<svg xmlns:xlink="http://www.w3.org/1999/xlink" width="1093.7975pt" height="562.7875pt" viewBox="0 0 1093.7975 562.7875" xmlns="http://www.w3.org/2000/svg" version="1.1">
 <metadata>
  <rdf:RDF xmlns:dc="http://purl.org/dc/elements/1.1/" xmlns:cc="http://creativecommons.org/ns#" xmlns:rdf="http://www.w3.org/1999/02/22-rdf-syntax-ns#">
   <cc:Work>
    <dc:type rdf:resource="http://purl.org/dc/dcmitype/StillImage"/>
    <dc:date>2023-06-13T12:18:48.779261</dc:date>
    <dc:format>image/svg+xml</dc:format>
    <dc:creator>
     <cc:Agent>
      <dc:title>Matplotlib v3.7.1, https://matplotlib.org/</dc:title>
     </cc:Agent>
    </dc:creator>
   </cc:Work>
  </rdf:RDF>
 </metadata>
 <defs>
  <style type="text/css">*{stroke-linejoin: round; stroke-linecap: butt}</style>
 </defs>
 <g id="figure_1">
  <g id="patch_1">
   <path d="M 0 562.7875 
L 1093.7975 562.7875 
L 1093.7975 0 
L 0 0 
z
" style="fill: #ffffff"/>
  </g>
  <g id="axes_1">
   <g id="patch_2">
    <path d="M 85.7975 520.7175 
L 1090.1975 520.7175 
L 1090.1975 21.7575 
L 85.7975 21.7575 
z
" style="fill: #ffffff"/>
   </g>
   <g id="matplotlib.axis_1">
    <g id="xtick_1">
     <g id="line2d_1">
      <path d="M 131.452045 520.7175 
L 131.452045 21.7575 
" clip-path="url(#p893e56b644)" style="fill: none; stroke-dasharray: 1.85,0.8; stroke-dashoffset: 0; stroke: #000000; stroke-opacity: 0.5; stroke-width: 0.5"/>
     </g>
     <g id="line2d_2">
      <defs>
       <path id="m306d192c26" d="M 0 0 
L 0 -6 
" style="stroke: #000000"/>
      </defs>
      <g>
       <use xlink:href="#m306d192c26" x="131.452045" y="520.7175" style="stroke: #000000"/>
      </g>
     </g>
     <g id="line2d_3">
      <defs>
       <path id="me72f0b3b76" d="M 0 0 
L 0 6 
" style="stroke: #000000"/>
      </defs>
      <g>
       <use xlink:href="#me72f0b3b76" x="131.452045" y="21.7575" style="stroke: #000000"/>
      </g>
     </g>
     <g id="text_1">
      <!-- 0 -->
      <g transform="translate(126.362045 536.375) scale(0.16 -0.16)">
       <defs>
        <path id="DejaVuSans-30" d="M 2034 4250 
Q 1547 4250 1301 3770 
Q 1056 3291 1056 2328 
Q 1056 1369 1301 889 
Q 1547 409 2034 409 
Q 2525 409 2770 889 
Q 3016 1369 3016 2328 
Q 3016 3291 2770 3770 
Q 2525 4250 2034 4250 
z
M 2034 4750 
Q 2819 4750 3233 4129 
Q 3647 3509 3647 2328 
Q 3647 1150 3233 529 
Q 2819 -91 2034 -91 
Q 1250 -91 836 529 
Q 422 1150 422 2328 
Q 422 3509 836 4129 
Q 1250 4750 2034 4750 
z
" transform="scale(0.015625)"/>
       </defs>
       <use xlink:href="#DejaVuSans-30"/>
      </g>
     </g>
    </g>
    <g id="xtick_2">
     <g id="line2d_4">
      <path d="M 287.803229 520.7175 
L 287.803229 21.7575 
" clip-path="url(#p893e56b644)" style="fill: none; stroke-dasharray: 1.85,0.8; stroke-dashoffset: 0; stroke: #000000; stroke-opacity: 0.5; stroke-width: 0.5"/>
     </g>
     <g id="line2d_5">
      <g>
       <use xlink:href="#m306d192c26" x="287.803229" y="520.7175" style="stroke: #000000"/>
      </g>
     </g>
     <g id="line2d_6">
      <g>
       <use xlink:href="#me72f0b3b76" x="287.803229" y="21.7575" style="stroke: #000000"/>
      </g>
     </g>
     <g id="text_2">
      <!-- 2 -->
      <g transform="translate(282.713229 536.375) scale(0.16 -0.16)">
       <defs>
        <path id="DejaVuSans-32" d="M 1228 531 
L 3431 531 
L 3431 0 
L 469 0 
L 469 531 
Q 828 903 1448 1529 
Q 2069 2156 2228 2338 
Q 2531 2678 2651 2914 
Q 2772 3150 2772 3378 
Q 2772 3750 2511 3984 
Q 2250 4219 1831 4219 
Q 1534 4219 1204 4116 
Q 875 4013 500 3803 
L 500 4441 
Q 881 4594 1212 4672 
Q 1544 4750 1819 4750 
Q 2544 4750 2975 4387 
Q 3406 4025 3406 3419 
Q 3406 3131 3298 2873 
Q 3191 2616 2906 2266 
Q 2828 2175 2409 1742 
Q 1991 1309 1228 531 
z
" transform="scale(0.015625)"/>
       </defs>
       <use xlink:href="#DejaVuSans-32"/>
      </g>
     </g>
    </g>
    <g id="xtick_3">
     <g id="line2d_7">
      <path d="M 444.154412 520.7175 
L 444.154412 21.7575 
" clip-path="url(#p893e56b644)" style="fill: none; stroke-dasharray: 1.85,0.8; stroke-dashoffset: 0; stroke: #000000; stroke-opacity: 0.5; stroke-width: 0.5"/>
     </g>
     <g id="line2d_8">
      <g>
       <use xlink:href="#m306d192c26" x="444.154412" y="520.7175" style="stroke: #000000"/>
      </g>
     </g>
     <g id="line2d_9">
      <g>
       <use xlink:href="#me72f0b3b76" x="444.154412" y="21.7575" style="stroke: #000000"/>
      </g>
     </g>
     <g id="text_3">
      <!-- 4 -->
      <g transform="translate(439.064412 536.375) scale(0.16 -0.16)">
       <defs>
        <path id="DejaVuSans-34" d="M 2419 4116 
L 825 1625 
L 2419 1625 
L 2419 4116 
z
M 2253 4666 
L 3047 4666 
L 3047 1625 
L 3713 1625 
L 3713 1100 
L 3047 1100 
L 3047 0 
L 2419 0 
L 2419 1100 
L 313 1100 
L 313 1709 
L 2253 4666 
z
" transform="scale(0.015625)"/>
       </defs>
       <use xlink:href="#DejaVuSans-34"/>
      </g>
     </g>
    </g>
    <g id="xtick_4">
     <g id="line2d_10">
      <path d="M 600.505595 520.7175 
L 600.505595 21.7575 
" clip-path="url(#p893e56b644)" style="fill: none; stroke-dasharray: 1.85,0.8; stroke-dashoffset: 0; stroke: #000000; stroke-opacity: 0.5; stroke-width: 0.5"/>
     </g>
     <g id="line2d_11">
      <g>
       <use xlink:href="#m306d192c26" x="600.505595" y="520.7175" style="stroke: #000000"/>
      </g>
     </g>
     <g id="line2d_12">
      <g>
       <use xlink:href="#me72f0b3b76" x="600.505595" y="21.7575" style="stroke: #000000"/>
      </g>
     </g>
     <g id="text_4">
      <!-- 6 -->
      <g transform="translate(595.415595 536.375) scale(0.16 -0.16)">
       <defs>
        <path id="DejaVuSans-36" d="M 2113 2584 
Q 1688 2584 1439 2293 
Q 1191 2003 1191 1497 
Q 1191 994 1439 701 
Q 1688 409 2113 409 
Q 2538 409 2786 701 
Q 3034 994 3034 1497 
Q 3034 2003 2786 2293 
Q 2538 2584 2113 2584 
z
M 3366 4563 
L 3366 3988 
Q 3128 4100 2886 4159 
Q 2644 4219 2406 4219 
Q 1781 4219 1451 3797 
Q 1122 3375 1075 2522 
Q 1259 2794 1537 2939 
Q 1816 3084 2150 3084 
Q 2853 3084 3261 2657 
Q 3669 2231 3669 1497 
Q 3669 778 3244 343 
Q 2819 -91 2113 -91 
Q 1303 -91 875 529 
Q 447 1150 447 2328 
Q 447 3434 972 4092 
Q 1497 4750 2381 4750 
Q 2619 4750 2861 4703 
Q 3103 4656 3366 4563 
z
" transform="scale(0.015625)"/>
       </defs>
       <use xlink:href="#DejaVuSans-36"/>
      </g>
     </g>
    </g>
    <g id="xtick_5">
     <g id="line2d_13">
      <path d="M 756.856778 520.7175 
L 756.856778 21.7575 
" clip-path="url(#p893e56b644)" style="fill: none; stroke-dasharray: 1.85,0.8; stroke-dashoffset: 0; stroke: #000000; stroke-opacity: 0.5; stroke-width: 0.5"/>
     </g>
     <g id="line2d_14">
      <g>
       <use xlink:href="#m306d192c26" x="756.856778" y="520.7175" style="stroke: #000000"/>
      </g>
     </g>
     <g id="line2d_15">
      <g>
       <use xlink:href="#me72f0b3b76" x="756.856778" y="21.7575" style="stroke: #000000"/>
      </g>
     </g>
     <g id="text_5">
      <!-- 8 -->
      <g transform="translate(751.766778 536.375) scale(0.16 -0.16)">
       <defs>
        <path id="DejaVuSans-38" d="M 2034 2216 
Q 1584 2216 1326 1975 
Q 1069 1734 1069 1313 
Q 1069 891 1326 650 
Q 1584 409 2034 409 
Q 2484 409 2743 651 
Q 3003 894 3003 1313 
Q 3003 1734 2745 1975 
Q 2488 2216 2034 2216 
z
M 1403 2484 
Q 997 2584 770 2862 
Q 544 3141 544 3541 
Q 544 4100 942 4425 
Q 1341 4750 2034 4750 
Q 2731 4750 3128 4425 
Q 3525 4100 3525 3541 
Q 3525 3141 3298 2862 
Q 3072 2584 2669 2484 
Q 3125 2378 3379 2068 
Q 3634 1759 3634 1313 
Q 3634 634 3220 271 
Q 2806 -91 2034 -91 
Q 1263 -91 848 271 
Q 434 634 434 1313 
Q 434 1759 690 2068 
Q 947 2378 1403 2484 
z
M 1172 3481 
Q 1172 3119 1398 2916 
Q 1625 2713 2034 2713 
Q 2441 2713 2670 2916 
Q 2900 3119 2900 3481 
Q 2900 3844 2670 4047 
Q 2441 4250 2034 4250 
Q 1625 4250 1398 4047 
Q 1172 3844 1172 3481 
z
" transform="scale(0.015625)"/>
       </defs>
       <use xlink:href="#DejaVuSans-38"/>
      </g>
     </g>
    </g>
    <g id="xtick_6">
     <g id="line2d_16">
      <path d="M 913.207961 520.7175 
L 913.207961 21.7575 
" clip-path="url(#p893e56b644)" style="fill: none; stroke-dasharray: 1.85,0.8; stroke-dashoffset: 0; stroke: #000000; stroke-opacity: 0.5; stroke-width: 0.5"/>
     </g>
     <g id="line2d_17">
      <g>
       <use xlink:href="#m306d192c26" x="913.207961" y="520.7175" style="stroke: #000000"/>
      </g>
     </g>
     <g id="line2d_18">
      <g>
       <use xlink:href="#me72f0b3b76" x="913.207961" y="21.7575" style="stroke: #000000"/>
      </g>
     </g>
     <g id="text_6">
      <!-- 10 -->
      <g transform="translate(903.027961 536.375) scale(0.16 -0.16)">
       <defs>
        <path id="DejaVuSans-31" d="M 794 531 
L 1825 531 
L 1825 4091 
L 703 3866 
L 703 4441 
L 1819 4666 
L 2450 4666 
L 2450 531 
L 3481 531 
L 3481 0 
L 794 0 
L 794 531 
z
" transform="scale(0.015625)"/>
       </defs>
       <use xlink:href="#DejaVuSans-31"/>
       <use xlink:href="#DejaVuSans-30" x="63.623047"/>
      </g>
     </g>
    </g>
    <g id="xtick_7">
     <g id="line2d_19">
      <path d="M 1069.559144 520.7175 
L 1069.559144 21.7575 
" clip-path="url(#p893e56b644)" style="fill: none; stroke-dasharray: 1.85,0.8; stroke-dashoffset: 0; stroke: #000000; stroke-opacity: 0.5; stroke-width: 0.5"/>
     </g>
     <g id="line2d_20">
      <g>
       <use xlink:href="#m306d192c26" x="1069.559144" y="520.7175" style="stroke: #000000"/>
      </g>
     </g>
     <g id="line2d_21">
      <g>
       <use xlink:href="#me72f0b3b76" x="1069.559144" y="21.7575" style="stroke: #000000"/>
      </g>
     </g>
     <g id="text_7">
      <!-- 12 -->
      <g transform="translate(1059.379144 536.375) scale(0.16 -0.16)">
       <use xlink:href="#DejaVuSans-31"/>
       <use xlink:href="#DejaVuSans-32" x="63.623047"/>
      </g>
     </g>
    </g>
    <g id="xtick_8">
     <g id="line2d_22">
      <defs>
       <path id="m7297e5485d" d="M 0 0 
L 0 -3 
" style="stroke: #000000"/>
      </defs>
      <g>
       <use xlink:href="#m7297e5485d" x="92.36425" y="520.7175" style="stroke: #000000"/>
      </g>
     </g>
     <g id="line2d_23">
      <defs>
       <path id="mec8a75f040" d="M 0 0 
L 0 3 
" style="stroke: #000000"/>
      </defs>
      <g>
       <use xlink:href="#mec8a75f040" x="92.36425" y="21.7575" style="stroke: #000000"/>
      </g>
     </g>
    </g>
    <g id="xtick_9">
     <g id="line2d_24">
      <g>
       <use xlink:href="#m7297e5485d" x="170.539841" y="520.7175" style="stroke: #000000"/>
      </g>
     </g>
     <g id="line2d_25">
      <g>
       <use xlink:href="#mec8a75f040" x="170.539841" y="21.7575" style="stroke: #000000"/>
      </g>
     </g>
    </g>
    <g id="xtick_10">
     <g id="line2d_26">
      <g>
       <use xlink:href="#m7297e5485d" x="209.627637" y="520.7175" style="stroke: #000000"/>
      </g>
     </g>
     <g id="line2d_27">
      <g>
       <use xlink:href="#mec8a75f040" x="209.627637" y="21.7575" style="stroke: #000000"/>
      </g>
     </g>
    </g>
    <g id="xtick_11">
     <g id="line2d_28">
      <g>
       <use xlink:href="#m7297e5485d" x="248.715433" y="520.7175" style="stroke: #000000"/>
      </g>
     </g>
     <g id="line2d_29">
      <g>
       <use xlink:href="#mec8a75f040" x="248.715433" y="21.7575" style="stroke: #000000"/>
      </g>
     </g>
    </g>
    <g id="xtick_12">
     <g id="line2d_30">
      <g>
       <use xlink:href="#m7297e5485d" x="326.891024" y="520.7175" style="stroke: #000000"/>
      </g>
     </g>
     <g id="line2d_31">
      <g>
       <use xlink:href="#mec8a75f040" x="326.891024" y="21.7575" style="stroke: #000000"/>
      </g>
     </g>
    </g>
    <g id="xtick_13">
     <g id="line2d_32">
      <g>
       <use xlink:href="#m7297e5485d" x="365.97882" y="520.7175" style="stroke: #000000"/>
      </g>
     </g>
     <g id="line2d_33">
      <g>
       <use xlink:href="#mec8a75f040" x="365.97882" y="21.7575" style="stroke: #000000"/>
      </g>
     </g>
    </g>
    <g id="xtick_14">
     <g id="line2d_34">
      <g>
       <use xlink:href="#m7297e5485d" x="405.066616" y="520.7175" style="stroke: #000000"/>
      </g>
     </g>
     <g id="line2d_35">
      <g>
       <use xlink:href="#mec8a75f040" x="405.066616" y="21.7575" style="stroke: #000000"/>
      </g>
     </g>
    </g>
    <g id="xtick_15">
     <g id="line2d_36">
      <g>
       <use xlink:href="#m7297e5485d" x="483.242207" y="520.7175" style="stroke: #000000"/>
      </g>
     </g>
     <g id="line2d_37">
      <g>
       <use xlink:href="#mec8a75f040" x="483.242207" y="21.7575" style="stroke: #000000"/>
      </g>
     </g>
    </g>
    <g id="xtick_16">
     <g id="line2d_38">
      <g>
       <use xlink:href="#m7297e5485d" x="522.330003" y="520.7175" style="stroke: #000000"/>
      </g>
     </g>
     <g id="line2d_39">
      <g>
       <use xlink:href="#mec8a75f040" x="522.330003" y="21.7575" style="stroke: #000000"/>
      </g>
     </g>
    </g>
    <g id="xtick_17">
     <g id="line2d_40">
      <g>
       <use xlink:href="#m7297e5485d" x="561.417799" y="520.7175" style="stroke: #000000"/>
      </g>
     </g>
     <g id="line2d_41">
      <g>
       <use xlink:href="#mec8a75f040" x="561.417799" y="21.7575" style="stroke: #000000"/>
      </g>
     </g>
    </g>
    <g id="xtick_18">
     <g id="line2d_42">
      <g>
       <use xlink:href="#m7297e5485d" x="639.59339" y="520.7175" style="stroke: #000000"/>
      </g>
     </g>
     <g id="line2d_43">
      <g>
       <use xlink:href="#mec8a75f040" x="639.59339" y="21.7575" style="stroke: #000000"/>
      </g>
     </g>
    </g>
    <g id="xtick_19">
     <g id="line2d_44">
      <g>
       <use xlink:href="#m7297e5485d" x="678.681186" y="520.7175" style="stroke: #000000"/>
      </g>
     </g>
     <g id="line2d_45">
      <g>
       <use xlink:href="#mec8a75f040" x="678.681186" y="21.7575" style="stroke: #000000"/>
      </g>
     </g>
    </g>
    <g id="xtick_20">
     <g id="line2d_46">
      <g>
       <use xlink:href="#m7297e5485d" x="717.768982" y="520.7175" style="stroke: #000000"/>
      </g>
     </g>
     <g id="line2d_47">
      <g>
       <use xlink:href="#mec8a75f040" x="717.768982" y="21.7575" style="stroke: #000000"/>
      </g>
     </g>
    </g>
    <g id="xtick_21">
     <g id="line2d_48">
      <g>
       <use xlink:href="#m7297e5485d" x="795.944573" y="520.7175" style="stroke: #000000"/>
      </g>
     </g>
     <g id="line2d_49">
      <g>
       <use xlink:href="#mec8a75f040" x="795.944573" y="21.7575" style="stroke: #000000"/>
      </g>
     </g>
    </g>
    <g id="xtick_22">
     <g id="line2d_50">
      <g>
       <use xlink:href="#m7297e5485d" x="835.032369" y="520.7175" style="stroke: #000000"/>
      </g>
     </g>
     <g id="line2d_51">
      <g>
       <use xlink:href="#mec8a75f040" x="835.032369" y="21.7575" style="stroke: #000000"/>
      </g>
     </g>
    </g>
    <g id="xtick_23">
     <g id="line2d_52">
      <g>
       <use xlink:href="#m7297e5485d" x="874.120165" y="520.7175" style="stroke: #000000"/>
      </g>
     </g>
     <g id="line2d_53">
      <g>
       <use xlink:href="#mec8a75f040" x="874.120165" y="21.7575" style="stroke: #000000"/>
      </g>
     </g>
    </g>
    <g id="xtick_24">
     <g id="line2d_54">
      <g>
       <use xlink:href="#m7297e5485d" x="952.295757" y="520.7175" style="stroke: #000000"/>
      </g>
     </g>
     <g id="line2d_55">
      <g>
       <use xlink:href="#mec8a75f040" x="952.295757" y="21.7575" style="stroke: #000000"/>
      </g>
     </g>
    </g>
    <g id="xtick_25">
     <g id="line2d_56">
      <g>
       <use xlink:href="#m7297e5485d" x="991.383552" y="520.7175" style="stroke: #000000"/>
      </g>
     </g>
     <g id="line2d_57">
      <g>
       <use xlink:href="#mec8a75f040" x="991.383552" y="21.7575" style="stroke: #000000"/>
      </g>
     </g>
    </g>
    <g id="xtick_26">
     <g id="line2d_58">
      <g>
       <use xlink:href="#m7297e5485d" x="1030.471348" y="520.7175" style="stroke: #000000"/>
      </g>
     </g>
     <g id="line2d_59">
      <g>
       <use xlink:href="#mec8a75f040" x="1030.471348" y="21.7575" style="stroke: #000000"/>
      </g>
     </g>
    </g>
    <g id="text_8">
     <!-- Time(s) -->
     <g transform="translate(558.01375 555.86) scale(0.16 -0.16)">
      <defs>
       <path id="DejaVuSans-54" d="M -19 4666 
L 3928 4666 
L 3928 4134 
L 2272 4134 
L 2272 0 
L 1638 0 
L 1638 4134 
L -19 4134 
L -19 4666 
z
" transform="scale(0.015625)"/>
       <path id="DejaVuSans-69" d="M 603 3500 
L 1178 3500 
L 1178 0 
L 603 0 
L 603 3500 
z
M 603 4863 
L 1178 4863 
L 1178 4134 
L 603 4134 
L 603 4863 
z
" transform="scale(0.015625)"/>
       <path id="DejaVuSans-6d" d="M 3328 2828 
Q 3544 3216 3844 3400 
Q 4144 3584 4550 3584 
Q 5097 3584 5394 3201 
Q 5691 2819 5691 2113 
L 5691 0 
L 5113 0 
L 5113 2094 
Q 5113 2597 4934 2840 
Q 4756 3084 4391 3084 
Q 3944 3084 3684 2787 
Q 3425 2491 3425 1978 
L 3425 0 
L 2847 0 
L 2847 2094 
Q 2847 2600 2669 2842 
Q 2491 3084 2119 3084 
Q 1678 3084 1418 2786 
Q 1159 2488 1159 1978 
L 1159 0 
L 581 0 
L 581 3500 
L 1159 3500 
L 1159 2956 
Q 1356 3278 1631 3431 
Q 1906 3584 2284 3584 
Q 2666 3584 2933 3390 
Q 3200 3197 3328 2828 
z
" transform="scale(0.015625)"/>
       <path id="DejaVuSans-65" d="M 3597 1894 
L 3597 1613 
L 953 1613 
Q 991 1019 1311 708 
Q 1631 397 2203 397 
Q 2534 397 2845 478 
Q 3156 559 3463 722 
L 3463 178 
Q 3153 47 2828 -22 
Q 2503 -91 2169 -91 
Q 1331 -91 842 396 
Q 353 884 353 1716 
Q 353 2575 817 3079 
Q 1281 3584 2069 3584 
Q 2775 3584 3186 3129 
Q 3597 2675 3597 1894 
z
M 3022 2063 
Q 3016 2534 2758 2815 
Q 2500 3097 2075 3097 
Q 1594 3097 1305 2825 
Q 1016 2553 972 2059 
L 3022 2063 
z
" transform="scale(0.015625)"/>
       <path id="DejaVuSans-28" d="M 1984 4856 
Q 1566 4138 1362 3434 
Q 1159 2731 1159 2009 
Q 1159 1288 1364 580 
Q 1569 -128 1984 -844 
L 1484 -844 
Q 1016 -109 783 600 
Q 550 1309 550 2009 
Q 550 2706 781 3412 
Q 1013 4119 1484 4856 
L 1984 4856 
z
" transform="scale(0.015625)"/>
       <path id="DejaVuSans-73" d="M 2834 3397 
L 2834 2853 
Q 2591 2978 2328 3040 
Q 2066 3103 1784 3103 
Q 1356 3103 1142 2972 
Q 928 2841 928 2578 
Q 928 2378 1081 2264 
Q 1234 2150 1697 2047 
L 1894 2003 
Q 2506 1872 2764 1633 
Q 3022 1394 3022 966 
Q 3022 478 2636 193 
Q 2250 -91 1575 -91 
Q 1294 -91 989 -36 
Q 684 19 347 128 
L 347 722 
Q 666 556 975 473 
Q 1284 391 1588 391 
Q 1994 391 2212 530 
Q 2431 669 2431 922 
Q 2431 1156 2273 1281 
Q 2116 1406 1581 1522 
L 1381 1569 
Q 847 1681 609 1914 
Q 372 2147 372 2553 
Q 372 3047 722 3315 
Q 1072 3584 1716 3584 
Q 2034 3584 2315 3537 
Q 2597 3491 2834 3397 
z
" transform="scale(0.015625)"/>
       <path id="DejaVuSans-29" d="M 513 4856 
L 1013 4856 
Q 1481 4119 1714 3412 
Q 1947 2706 1947 2009 
Q 1947 1309 1714 600 
Q 1481 -109 1013 -844 
L 513 -844 
Q 928 -128 1133 580 
Q 1338 1288 1338 2009 
Q 1338 2731 1133 3434 
Q 928 4138 513 4856 
z
" transform="scale(0.015625)"/>
      </defs>
      <use xlink:href="#DejaVuSans-54"/>
      <use xlink:href="#DejaVuSans-69" x="57.958984"/>
      <use xlink:href="#DejaVuSans-6d" x="85.742188"/>
      <use xlink:href="#DejaVuSans-65" x="183.154297"/>
      <use xlink:href="#DejaVuSans-28" x="244.677734"/>
      <use xlink:href="#DejaVuSans-73" x="283.691406"/>
      <use xlink:href="#DejaVuSans-29" x="335.791016"/>
     </g>
    </g>
   </g>
   <g id="matplotlib.axis_2">
    <g id="ytick_1">
     <g id="line2d_60">
      <path d="M 85.7975 458.570944 
L 1090.1975 458.570944 
" clip-path="url(#p893e56b644)" style="fill: none; stroke-dasharray: 1.85,0.8; stroke-dashoffset: 0; stroke: #000000; stroke-opacity: 0.5; stroke-width: 0.5"/>
     </g>
     <g id="line2d_61">
      <defs>
       <path id="m2882063b91" d="M 0 0 
L 6 0 
" style="stroke: #000000"/>
      </defs>
      <g>
       <use xlink:href="#m2882063b91" x="85.7975" y="458.570944" style="stroke: #000000"/>
      </g>
     </g>
     <g id="line2d_62">
      <defs>
       <path id="mef6ee1cba1" d="M 0 0 
L -6 0 
" style="stroke: #000000"/>
      </defs>
      <g>
       <use xlink:href="#mef6ee1cba1" x="1090.1975" y="458.570944" style="stroke: #000000"/>
      </g>
     </g>
     <g id="text_9">
      <!-- −0.010 -->
      <g transform="translate(23.085 464.649694) scale(0.16 -0.16)">
       <defs>
        <path id="DejaVuSans-2212" d="M 678 2272 
L 4684 2272 
L 4684 1741 
L 678 1741 
L 678 2272 
z
" transform="scale(0.015625)"/>
        <path id="DejaVuSans-2e" d="M 684 794 
L 1344 794 
L 1344 0 
L 684 0 
L 684 794 
z
" transform="scale(0.015625)"/>
       </defs>
       <use xlink:href="#DejaVuSans-2212"/>
       <use xlink:href="#DejaVuSans-30" x="83.789062"/>
       <use xlink:href="#DejaVuSans-2e" x="147.412109"/>
       <use xlink:href="#DejaVuSans-30" x="179.199219"/>
       <use xlink:href="#DejaVuSans-31" x="242.822266"/>
       <use xlink:href="#DejaVuSans-30" x="306.445312"/>
      </g>
     </g>
    </g>
    <g id="ytick_2">
     <g id="line2d_63">
      <path d="M 85.7975 352.871383 
L 1090.1975 352.871383 
" clip-path="url(#p893e56b644)" style="fill: none; stroke-dasharray: 1.85,0.8; stroke-dashoffset: 0; stroke: #000000; stroke-opacity: 0.5; stroke-width: 0.5"/>
     </g>
     <g id="line2d_64">
      <g>
       <use xlink:href="#m2882063b91" x="85.7975" y="352.871383" style="stroke: #000000"/>
      </g>
     </g>
     <g id="line2d_65">
      <g>
       <use xlink:href="#mef6ee1cba1" x="1090.1975" y="352.871383" style="stroke: #000000"/>
      </g>
     </g>
     <g id="text_10">
      <!-- −0.005 -->
      <g transform="translate(23.085 358.950133) scale(0.16 -0.16)">
       <defs>
        <path id="DejaVuSans-35" d="M 691 4666 
L 3169 4666 
L 3169 4134 
L 1269 4134 
L 1269 2991 
Q 1406 3038 1543 3061 
Q 1681 3084 1819 3084 
Q 2600 3084 3056 2656 
Q 3513 2228 3513 1497 
Q 3513 744 3044 326 
Q 2575 -91 1722 -91 
Q 1428 -91 1123 -41 
Q 819 9 494 109 
L 494 744 
Q 775 591 1075 516 
Q 1375 441 1709 441 
Q 2250 441 2565 725 
Q 2881 1009 2881 1497 
Q 2881 1984 2565 2268 
Q 2250 2553 1709 2553 
Q 1456 2553 1204 2497 
Q 953 2441 691 2322 
L 691 4666 
z
" transform="scale(0.015625)"/>
       </defs>
       <use xlink:href="#DejaVuSans-2212"/>
       <use xlink:href="#DejaVuSans-30" x="83.789062"/>
       <use xlink:href="#DejaVuSans-2e" x="147.412109"/>
       <use xlink:href="#DejaVuSans-30" x="179.199219"/>
       <use xlink:href="#DejaVuSans-30" x="242.822266"/>
       <use xlink:href="#DejaVuSans-35" x="306.445312"/>
      </g>
     </g>
    </g>
    <g id="ytick_3">
     <g id="line2d_66">
      <path d="M 85.7975 247.171822 
L 1090.1975 247.171822 
" clip-path="url(#p893e56b644)" style="fill: none; stroke-dasharray: 1.85,0.8; stroke-dashoffset: 0; stroke: #000000; stroke-opacity: 0.5; stroke-width: 0.5"/>
     </g>
     <g id="line2d_67">
      <g>
       <use xlink:href="#m2882063b91" x="85.7975" y="247.171822" style="stroke: #000000"/>
      </g>
     </g>
     <g id="line2d_68">
      <g>
       <use xlink:href="#mef6ee1cba1" x="1090.1975" y="247.171822" style="stroke: #000000"/>
      </g>
     </g>
     <g id="text_11">
      <!-- 0.000 -->
      <g transform="translate(36.4925 253.250572) scale(0.16 -0.16)">
       <use xlink:href="#DejaVuSans-30"/>
       <use xlink:href="#DejaVuSans-2e" x="63.623047"/>
       <use xlink:href="#DejaVuSans-30" x="95.410156"/>
       <use xlink:href="#DejaVuSans-30" x="159.033203"/>
       <use xlink:href="#DejaVuSans-30" x="222.65625"/>
      </g>
     </g>
    </g>
    <g id="ytick_4">
     <g id="line2d_69">
      <path d="M 85.7975 141.472262 
L 1090.1975 141.472262 
" clip-path="url(#p893e56b644)" style="fill: none; stroke-dasharray: 1.85,0.8; stroke-dashoffset: 0; stroke: #000000; stroke-opacity: 0.5; stroke-width: 0.5"/>
     </g>
     <g id="line2d_70">
      <g>
       <use xlink:href="#m2882063b91" x="85.7975" y="141.472262" style="stroke: #000000"/>
      </g>
     </g>
     <g id="line2d_71">
      <g>
       <use xlink:href="#mef6ee1cba1" x="1090.1975" y="141.472262" style="stroke: #000000"/>
      </g>
     </g>
     <g id="text_12">
      <!-- 0.005 -->
      <g transform="translate(36.4925 147.551012) scale(0.16 -0.16)">
       <use xlink:href="#DejaVuSans-30"/>
       <use xlink:href="#DejaVuSans-2e" x="63.623047"/>
       <use xlink:href="#DejaVuSans-30" x="95.410156"/>
       <use xlink:href="#DejaVuSans-30" x="159.033203"/>
       <use xlink:href="#DejaVuSans-35" x="222.65625"/>
      </g>
     </g>
    </g>
    <g id="ytick_5">
     <g id="line2d_72">
      <path d="M 85.7975 35.772701 
L 1090.1975 35.772701 
" clip-path="url(#p893e56b644)" style="fill: none; stroke-dasharray: 1.85,0.8; stroke-dashoffset: 0; stroke: #000000; stroke-opacity: 0.5; stroke-width: 0.5"/>
     </g>
     <g id="line2d_73">
      <g>
       <use xlink:href="#m2882063b91" x="85.7975" y="35.772701" style="stroke: #000000"/>
      </g>
     </g>
     <g id="line2d_74">
      <g>
       <use xlink:href="#mef6ee1cba1" x="1090.1975" y="35.772701" style="stroke: #000000"/>
      </g>
     </g>
     <g id="text_13">
      <!-- 0.010 -->
      <g transform="translate(36.4925 41.851451) scale(0.16 -0.16)">
       <use xlink:href="#DejaVuSans-30"/>
       <use xlink:href="#DejaVuSans-2e" x="63.623047"/>
       <use xlink:href="#DejaVuSans-30" x="95.410156"/>
       <use xlink:href="#DejaVuSans-31" x="159.033203"/>
       <use xlink:href="#DejaVuSans-30" x="222.65625"/>
      </g>
     </g>
    </g>
    <g id="ytick_6">
     <g id="line2d_75">
      <defs>
       <path id="m8b40a1f56d" d="M 0 0 
L 3 0 
" style="stroke: #000000"/>
      </defs>
      <g>
       <use xlink:href="#m8b40a1f56d" x="85.7975" y="500.850768" style="stroke: #000000"/>
      </g>
     </g>
     <g id="line2d_76">
      <defs>
       <path id="m7c402e9f61" d="M 0 0 
L -3 0 
" style="stroke: #000000"/>
      </defs>
      <g>
       <use xlink:href="#m7c402e9f61" x="1090.1975" y="500.850768" style="stroke: #000000"/>
      </g>
     </g>
    </g>
    <g id="ytick_7">
     <g id="line2d_77">
      <g>
       <use xlink:href="#m8b40a1f56d" x="85.7975" y="479.710856" style="stroke: #000000"/>
      </g>
     </g>
     <g id="line2d_78">
      <g>
       <use xlink:href="#m7c402e9f61" x="1090.1975" y="479.710856" style="stroke: #000000"/>
      </g>
     </g>
    </g>
    <g id="ytick_8">
     <g id="line2d_79">
      <g>
       <use xlink:href="#m8b40a1f56d" x="85.7975" y="437.431032" style="stroke: #000000"/>
      </g>
     </g>
     <g id="line2d_80">
      <g>
       <use xlink:href="#m7c402e9f61" x="1090.1975" y="437.431032" style="stroke: #000000"/>
      </g>
     </g>
    </g>
    <g id="ytick_9">
     <g id="line2d_81">
      <g>
       <use xlink:href="#m8b40a1f56d" x="85.7975" y="416.29112" style="stroke: #000000"/>
      </g>
     </g>
     <g id="line2d_82">
      <g>
       <use xlink:href="#m7c402e9f61" x="1090.1975" y="416.29112" style="stroke: #000000"/>
      </g>
     </g>
    </g>
    <g id="ytick_10">
     <g id="line2d_83">
      <g>
       <use xlink:href="#m8b40a1f56d" x="85.7975" y="395.151207" style="stroke: #000000"/>
      </g>
     </g>
     <g id="line2d_84">
      <g>
       <use xlink:href="#m7c402e9f61" x="1090.1975" y="395.151207" style="stroke: #000000"/>
      </g>
     </g>
    </g>
    <g id="ytick_11">
     <g id="line2d_85">
      <g>
       <use xlink:href="#m8b40a1f56d" x="85.7975" y="374.011295" style="stroke: #000000"/>
      </g>
     </g>
     <g id="line2d_86">
      <g>
       <use xlink:href="#m7c402e9f61" x="1090.1975" y="374.011295" style="stroke: #000000"/>
      </g>
     </g>
    </g>
    <g id="ytick_12">
     <g id="line2d_87">
      <g>
       <use xlink:href="#m8b40a1f56d" x="85.7975" y="331.731471" style="stroke: #000000"/>
      </g>
     </g>
     <g id="line2d_88">
      <g>
       <use xlink:href="#m7c402e9f61" x="1090.1975" y="331.731471" style="stroke: #000000"/>
      </g>
     </g>
    </g>
    <g id="ytick_13">
     <g id="line2d_89">
      <g>
       <use xlink:href="#m8b40a1f56d" x="85.7975" y="310.591559" style="stroke: #000000"/>
      </g>
     </g>
     <g id="line2d_90">
      <g>
       <use xlink:href="#m7c402e9f61" x="1090.1975" y="310.591559" style="stroke: #000000"/>
      </g>
     </g>
    </g>
    <g id="ytick_14">
     <g id="line2d_91">
      <g>
       <use xlink:href="#m8b40a1f56d" x="85.7975" y="289.451647" style="stroke: #000000"/>
      </g>
     </g>
     <g id="line2d_92">
      <g>
       <use xlink:href="#m7c402e9f61" x="1090.1975" y="289.451647" style="stroke: #000000"/>
      </g>
     </g>
    </g>
    <g id="ytick_15">
     <g id="line2d_93">
      <g>
       <use xlink:href="#m8b40a1f56d" x="85.7975" y="268.311735" style="stroke: #000000"/>
      </g>
     </g>
     <g id="line2d_94">
      <g>
       <use xlink:href="#m7c402e9f61" x="1090.1975" y="268.311735" style="stroke: #000000"/>
      </g>
     </g>
    </g>
    <g id="ytick_16">
     <g id="line2d_95">
      <g>
       <use xlink:href="#m8b40a1f56d" x="85.7975" y="226.03191" style="stroke: #000000"/>
      </g>
     </g>
     <g id="line2d_96">
      <g>
       <use xlink:href="#m7c402e9f61" x="1090.1975" y="226.03191" style="stroke: #000000"/>
      </g>
     </g>
    </g>
    <g id="ytick_17">
     <g id="line2d_97">
      <g>
       <use xlink:href="#m8b40a1f56d" x="85.7975" y="204.891998" style="stroke: #000000"/>
      </g>
     </g>
     <g id="line2d_98">
      <g>
       <use xlink:href="#m7c402e9f61" x="1090.1975" y="204.891998" style="stroke: #000000"/>
      </g>
     </g>
    </g>
    <g id="ytick_18">
     <g id="line2d_99">
      <g>
       <use xlink:href="#m8b40a1f56d" x="85.7975" y="183.752086" style="stroke: #000000"/>
      </g>
     </g>
     <g id="line2d_100">
      <g>
       <use xlink:href="#m7c402e9f61" x="1090.1975" y="183.752086" style="stroke: #000000"/>
      </g>
     </g>
    </g>
    <g id="ytick_19">
     <g id="line2d_101">
      <g>
       <use xlink:href="#m8b40a1f56d" x="85.7975" y="162.612174" style="stroke: #000000"/>
      </g>
     </g>
     <g id="line2d_102">
      <g>
       <use xlink:href="#m7c402e9f61" x="1090.1975" y="162.612174" style="stroke: #000000"/>
      </g>
     </g>
    </g>
    <g id="ytick_20">
     <g id="line2d_103">
      <g>
       <use xlink:href="#m8b40a1f56d" x="85.7975" y="120.332349" style="stroke: #000000"/>
      </g>
     </g>
     <g id="line2d_104">
      <g>
       <use xlink:href="#m7c402e9f61" x="1090.1975" y="120.332349" style="stroke: #000000"/>
      </g>
     </g>
    </g>
    <g id="ytick_21">
     <g id="line2d_105">
      <g>
       <use xlink:href="#m8b40a1f56d" x="85.7975" y="99.192437" style="stroke: #000000"/>
      </g>
     </g>
     <g id="line2d_106">
      <g>
       <use xlink:href="#m7c402e9f61" x="1090.1975" y="99.192437" style="stroke: #000000"/>
      </g>
     </g>
    </g>
    <g id="ytick_22">
     <g id="line2d_107">
      <g>
       <use xlink:href="#m8b40a1f56d" x="85.7975" y="78.052525" style="stroke: #000000"/>
      </g>
     </g>
     <g id="line2d_108">
      <g>
       <use xlink:href="#m7c402e9f61" x="1090.1975" y="78.052525" style="stroke: #000000"/>
      </g>
     </g>
    </g>
    <g id="ytick_23">
     <g id="line2d_109">
      <g>
       <use xlink:href="#m8b40a1f56d" x="85.7975" y="56.912613" style="stroke: #000000"/>
      </g>
     </g>
     <g id="line2d_110">
      <g>
       <use xlink:href="#m7c402e9f61" x="1090.1975" y="56.912613" style="stroke: #000000"/>
      </g>
     </g>
    </g>
    <g id="text_14">
     <!-- IDR (%) -->
     <g transform="translate(15.7575 301.7025) rotate(-90) scale(0.16 -0.16)">
      <defs>
       <path id="DejaVuSans-49" d="M 628 4666 
L 1259 4666 
L 1259 0 
L 628 0 
L 628 4666 
z
" transform="scale(0.015625)"/>
       <path id="DejaVuSans-44" d="M 1259 4147 
L 1259 519 
L 2022 519 
Q 2988 519 3436 956 
Q 3884 1394 3884 2338 
Q 3884 3275 3436 3711 
Q 2988 4147 2022 4147 
L 1259 4147 
z
M 628 4666 
L 1925 4666 
Q 3281 4666 3915 4102 
Q 4550 3538 4550 2338 
Q 4550 1131 3912 565 
Q 3275 0 1925 0 
L 628 0 
L 628 4666 
z
" transform="scale(0.015625)"/>
       <path id="DejaVuSans-52" d="M 2841 2188 
Q 3044 2119 3236 1894 
Q 3428 1669 3622 1275 
L 4263 0 
L 3584 0 
L 2988 1197 
Q 2756 1666 2539 1819 
Q 2322 1972 1947 1972 
L 1259 1972 
L 1259 0 
L 628 0 
L 628 4666 
L 2053 4666 
Q 2853 4666 3247 4331 
Q 3641 3997 3641 3322 
Q 3641 2881 3436 2590 
Q 3231 2300 2841 2188 
z
M 1259 4147 
L 1259 2491 
L 2053 2491 
Q 2509 2491 2742 2702 
Q 2975 2913 2975 3322 
Q 2975 3731 2742 3939 
Q 2509 4147 2053 4147 
L 1259 4147 
z
" transform="scale(0.015625)"/>
       <path id="DejaVuSans-20" transform="scale(0.015625)"/>
       <path id="DejaVuSans-25" d="M 4653 2053 
Q 4381 2053 4226 1822 
Q 4072 1591 4072 1178 
Q 4072 772 4226 539 
Q 4381 306 4653 306 
Q 4919 306 5073 539 
Q 5228 772 5228 1178 
Q 5228 1588 5073 1820 
Q 4919 2053 4653 2053 
z
M 4653 2450 
Q 5147 2450 5437 2106 
Q 5728 1763 5728 1178 
Q 5728 594 5436 251 
Q 5144 -91 4653 -91 
Q 4153 -91 3862 251 
Q 3572 594 3572 1178 
Q 3572 1766 3864 2108 
Q 4156 2450 4653 2450 
z
M 1428 4353 
Q 1159 4353 1004 4120 
Q 850 3888 850 3481 
Q 850 3069 1003 2837 
Q 1156 2606 1428 2606 
Q 1700 2606 1854 2837 
Q 2009 3069 2009 3481 
Q 2009 3884 1853 4118 
Q 1697 4353 1428 4353 
z
M 4250 4750 
L 4750 4750 
L 1831 -91 
L 1331 -91 
L 4250 4750 
z
M 1428 4750 
Q 1922 4750 2215 4408 
Q 2509 4066 2509 3481 
Q 2509 2891 2217 2550 
Q 1925 2209 1428 2209 
Q 931 2209 642 2551 
Q 353 2894 353 3481 
Q 353 4063 643 4406 
Q 934 4750 1428 4750 
z
" transform="scale(0.015625)"/>
      </defs>
      <use xlink:href="#DejaVuSans-49"/>
      <use xlink:href="#DejaVuSans-44" x="29.492188"/>
      <use xlink:href="#DejaVuSans-52" x="106.494141"/>
      <use xlink:href="#DejaVuSans-20" x="175.976562"/>
      <use xlink:href="#DejaVuSans-28" x="207.763672"/>
      <use xlink:href="#DejaVuSans-25" x="246.777344"/>
      <use xlink:href="#DejaVuSans-29" x="341.796875"/>
     </g>
    </g>
   </g>
   <g id="line2d_111">
    <path d="M 131.452045 247.171822 
L 132.233801 247.284977 
L 133.015557 247.788371 
L 135.360825 250.475956 
L 136.142581 250.65649 
L 136.924337 250.216603 
L 139.269605 247.783218 
L 140.051361 247.453345 
L 140.833116 247.534393 
L 141.614872 247.956372 
L 143.178384 249.088237 
L 143.96014 249.411706 
L 144.741896 249.447219 
L 145.523652 249.214882 
L 147.087164 248.242548 
L 148.650676 247.30502 
L 149.432432 247.100175 
L 150.214187 247.176127 
L 150.995943 247.516172 
L 151.777699 248.111499 
L 154.122967 250.361295 
L 154.904723 250.818291 
L 155.686479 250.864973 
L 156.468235 250.4593 
L 157.249991 249.694025 
L 159.595258 246.849232 
L 160.377014 245.998382 
L 161.15877 244.969742 
L 161.940526 243.61836 
L 164.285794 238.833056 
L 165.06755 238.063092 
L 165.849306 238.370527 
L 166.631062 239.974208 
L 168.976329 248.279569 
L 169.758085 249.503183 
L 170.539841 249.173477 
L 171.321597 247.490695 
L 172.885109 242.214428 
L 173.666865 240.349888 
L 174.448621 240.344777 
L 175.230377 242.759498 
L 176.012133 247.240137 
L 177.575644 257.578249 
L 178.3574 260.805691 
L 179.139156 261.650385 
L 179.920912 260.080159 
L 180.702668 256.69485 
L 182.26618 248.769231 
L 183.047936 246.196437 
L 183.829692 245.120788 
L 184.611448 245.388196 
L 185.393204 246.556459 
L 186.17496 248.034204 
L 186.956715 249.124683 
L 187.738471 249.273474 
L 188.520227 247.976628 
L 189.301983 245.243985 
L 191.647251 234.090599 
L 192.429007 232.189941 
L 193.210763 232.226957 
L 193.992519 234.362169 
L 194.774275 238.457017 
L 197.901298 260.211973 
L 198.683054 262.731966 
L 199.46481 262.069713 
L 200.246566 258.330616 
L 202.591834 242.041564 
L 203.37359 239.260179 
L 204.155346 238.02978 
L 204.937101 237.368363 
L 205.718857 236.428778 
L 206.500613 234.857737 
L 208.845881 228.479983 
L 209.627637 228.848513 
L 210.409393 232.436437 
L 211.191149 238.90244 
L 212.754661 254.44845 
L 213.536417 260.109987 
L 214.318172 262.832549 
L 215.099928 262.33802 
L 215.881684 259.037316 
L 218.226952 243.934449 
L 219.008708 239.995014 
L 219.790464 237.126441 
L 220.57222 235.302947 
L 221.353976 234.232082 
L 222.135732 233.559231 
L 222.917488 233.288349 
L 223.699243 234.106911 
L 224.480999 236.912326 
L 225.262755 241.75031 
L 227.608023 259.606084 
L 228.389779 263.314691 
L 229.171535 264.501747 
L 229.953291 262.849006 
L 230.735047 258.798259 
L 232.298559 248.26328 
L 233.080314 244.107132 
L 233.86207 241.617316 
L 234.643826 240.829612 
L 235.425582 241.288508 
L 236.989094 243.088532 
L 237.77085 243.766886 
L 238.552606 244.671806 
L 239.334362 246.181324 
L 240.116118 248.038078 
L 240.897874 249.453837 
L 241.67963 249.555895 
L 242.461385 248.083217 
L 244.024897 243.636006 
L 244.806653 243.013817 
L 245.588409 244.247158 
L 246.370165 246.953468 
L 247.151921 250.196047 
L 247.933677 252.940198 
L 248.715433 254.399483 
L 249.497189 254.245042 
L 250.278945 252.663956 
L 251.0607 250.163205 
L 252.624212 243.790687 
L 254.187724 236.715298 
L 254.96948 233.992651 
L 255.751236 232.441043 
L 256.532992 232.26856 
L 257.314748 233.897957 
L 258.096504 238.174996 
L 258.87826 245.22779 
L 260.441771 261.772181 
L 261.223527 266.3487 
L 262.005283 266.180834 
L 262.787039 261.497994 
L 265.132307 237.80226 
L 265.914063 232.952985 
L 266.695819 230.667814 
L 267.477575 230.104482 
L 268.259331 230.505661 
L 269.041087 231.972104 
L 269.822842 235.03993 
L 271.386354 244.815777 
L 272.16811 248.288234 
L 272.949866 248.228389 
L 273.731622 244.322383 
L 275.295134 232.296424 
L 276.07689 229.27962 
L 276.858646 230.287117 
L 277.640402 235.177435 
L 279.985669 257.958007 
L 280.767425 263.245046 
L 281.549181 266.591134 
L 282.330937 268.443215 
L 283.112693 269.343774 
L 283.894449 269.744829 
L 284.676205 270.008042 
L 285.457961 270.141813 
L 286.239717 269.335607 
L 287.021473 266.48868 
L 287.803229 261.479968 
L 289.36674 250.058209 
L 290.148496 247.013027 
L 290.930252 246.794794 
L 292.493764 249.861892 
L 293.27552 249.473842 
L 294.839032 244.868816 
L 295.620788 244.884081 
L 296.402544 248.408282 
L 297.1843 255.400245 
L 300.311323 293.984581 
L 301.874835 308.958449 
L 302.656591 315.918507 
L 303.438347 321.732397 
L 304.220103 324.486413 
L 305.001859 321.795833 
L 305.783615 312.631622 
L 306.56537 298.326248 
L 308.128882 265.174359 
L 308.910638 251.689715 
L 309.692394 242.850006 
L 310.47415 239.571059 
L 311.255906 241.495748 
L 312.037662 246.892763 
L 313.601174 260.978316 
L 314.38293 268.945329 
L 315.946441 288.331468 
L 316.728197 298.309597 
L 317.509953 305.554463 
L 318.291709 307.103041 
L 319.073465 300.415599 
L 319.855221 284.405807 
L 322.200489 212.376026 
L 322.982245 202.407027 
L 323.764001 207.96131 
L 324.545757 227.888097 
L 326.109268 283.277046 
L 326.891024 300.814515 
L 327.67278 303.669551 
L 328.454536 291.922129 
L 329.236292 269.789373 
L 330.799804 221.603016 
L 331.58156 207.679873 
L 332.363316 203.884182 
L 333.145072 208.470733 
L 333.926828 217.235022 
L 334.708583 224.589897 
L 335.490339 225.449334 
L 336.272095 217.363809 
L 337.053851 200.683982 
L 340.180875 111.866104 
L 340.962631 99.310955 
L 341.744387 95.187047 
L 342.526143 101.446705 
L 343.307899 116.975019 
L 344.87141 158.101025 
L 345.653166 173.558815 
L 346.434922 181.244567 
L 347.216678 181.702414 
L 347.998434 178.925979 
L 348.78019 177.848134 
L 349.561946 181.704508 
L 350.343702 190.533752 
L 351.907214 210.778046 
L 352.688969 216.395062 
L 353.470725 218.158624 
L 354.252481 218.547607 
L 355.034237 221.099829 
L 355.815993 228.000209 
L 357.379505 247.993747 
L 358.161261 250.223674 
L 358.943017 240.69453 
L 359.724773 219.614724 
L 361.288285 165.18563 
L 362.07004 148.235908 
L 362.851796 145.425821 
L 363.633552 156.928111 
L 364.415308 179.926205 
L 365.97882 237.764045 
L 366.760576 259.944621 
L 367.542332 273.640066 
L 368.324088 281.811731 
L 369.105844 291.763261 
L 369.8876 311.695505 
L 370.669356 345.625723 
L 373.014623 477.90051 
L 373.796379 498.0375 
L 374.578135 492.731135 
L 375.359891 460.55263 
L 376.141647 404.436158 
L 377.705159 247.231723 
L 378.486915 167.391849 
L 379.268671 102.764557 
L 380.050427 61.198945 
L 380.832182 44.4375 
L 381.613938 49.039837 
L 382.395694 69.665954 
L 383.17745 101.916802 
L 384.740962 190.042006 
L 385.522718 236.809698 
L 386.304474 275.513764 
L 387.08623 299.639824 
L 387.867986 307.601089 
L 388.649742 303.244492 
L 389.431498 294.365898 
L 390.213253 289.716204 
L 390.995009 295.57625 
L 391.776765 313.202597 
L 393.340277 360.024609 
L 394.122033 370.802539 
L 394.903789 365.079645 
L 395.685545 343.870511 
L 398.030813 251.441901 
L 398.812568 233.521452 
L 399.594324 226.632513 
L 400.37608 227.97458 
L 401.157836 232.808101 
L 401.939592 236.812685 
L 403.503104 240.477786 
L 404.28486 247.092954 
L 405.066616 261.31898 
L 407.411884 324.579597 
L 408.193639 333.278972 
L 408.975395 329.915095 
L 409.757151 314.586009 
L 410.538907 289.722345 
L 412.102419 233.924264 
L 412.884175 215.98192 
L 413.665931 210.244288 
L 414.447687 216.016917 
L 415.229443 229.477288 
L 416.011199 245.347354 
L 416.792955 258.176477 
L 417.57471 263.803128 
L 418.356466 260.406131 
L 419.138222 248.866764 
L 420.701734 215.206702 
L 421.48349 202.332124 
L 422.265246 199.156839 
L 423.047002 208.717947 
L 423.828758 229.664631 
L 425.39227 282.537262 
L 426.174026 300.763898 
L 426.955781 307.837009 
L 427.737537 302.982234 
L 428.519293 287.592402 
L 430.864561 220.416436 
L 431.646317 210.142612 
L 432.428073 214.2811 
L 433.209829 232.563181 
L 435.555097 315.902443 
L 436.336852 332.125362 
L 437.118608 337.551408 
L 437.900364 334.234234 
L 439.463876 319.400144 
L 440.245632 315.776836 
L 441.027388 314.75292 
L 441.809144 312.070891 
L 442.5909 303.715197 
L 443.372656 288.55022 
L 444.936167 249.487309 
L 445.717923 234.81144 
L 446.499679 226.893608 
L 447.281435 224.655437 
L 448.063191 224.93951 
L 448.844947 224.266467 
L 449.626703 220.475184 
L 451.190215 208.712555 
L 451.971971 206.296392 
L 452.753727 208.324214 
L 453.535483 215.200687 
L 454.317238 226.11469 
L 456.662506 263.975622 
L 457.444262 272.721412 
L 458.226018 275.457848 
L 459.007774 270.098258 
L 459.78953 256.988434 
L 461.353042 221.112585 
L 462.134798 207.070605 
L 462.916554 199.825781 
L 463.698309 200.621943 
L 464.480065 209.698686 
L 465.261821 225.353843 
L 466.825333 259.777058 
L 467.607089 268.892007 
L 468.388845 268.799459 
L 469.170601 260.285192 
L 471.515869 218.548408 
L 472.297625 211.908484 
L 473.07938 212.113061 
L 473.861136 218.041297 
L 475.424648 235.009975 
L 476.206404 238.678019 
L 476.98816 236.151114 
L 477.769916 228.143148 
L 478.551672 217.725586 
L 479.333428 208.793933 
L 480.115184 204.064022 
L 480.89694 203.858352 
L 482.460451 208.53812 
L 483.242207 208.910029 
L 484.023963 207.584368 
L 484.805719 207.066615 
L 485.587475 210.492864 
L 486.369231 219.459055 
L 487.150987 233.313858 
L 488.714499 265.99013 
L 489.496255 279.301517 
L 490.278011 288.250962 
L 491.059767 292.210016 
L 491.841522 290.56727 
L 492.623278 282.719753 
L 493.405034 268.525126 
L 494.18679 248.913761 
L 495.750302 204.333682 
L 496.532058 186.655059 
L 497.313814 176.457143 
L 498.09557 175.681262 
L 498.877326 183.692483 
L 500.440837 212.739132 
L 501.222593 227.050133 
L 502.004349 237.623152 
L 502.786105 242.395486 
L 503.567861 239.947787 
L 504.349617 230.38575 
L 506.694885 188.815757 
L 507.476641 184.490715 
L 508.258397 190.674978 
L 509.040153 207.838281 
L 511.38542 284.170316 
L 512.167176 298.052924 
L 512.948932 300.594433 
L 513.730688 293.544205 
L 515.2942 266.332702 
L 516.075956 253.020078 
L 516.857712 242.167202 
L 517.639468 234.499985 
L 518.421224 230.133846 
L 519.202979 228.470152 
L 519.984735 228.373258 
L 521.548247 229.162083 
L 522.330003 229.827699 
L 523.111759 231.036139 
L 523.893515 233.277694 
L 524.675271 237.646321 
L 525.457027 244.852309 
L 527.802295 272.139694 
L 528.58405 276.435405 
L 529.365806 276.532521 
L 530.147562 272.825745 
L 530.929318 266.49638 
L 532.49283 252.588656 
L 533.274586 247.580722 
L 534.056342 244.259886 
L 534.838098 242.338533 
L 535.619854 241.283422 
L 537.183366 239.723468 
L 539.528633 236.060246 
L 540.310389 235.564835 
L 541.092145 235.977645 
L 541.873901 237.307068 
L 542.655657 239.392126 
L 543.437413 242.149729 
L 544.219169 245.882147 
L 545.000925 251.219842 
L 547.346192 273.13025 
L 548.127948 277.457097 
L 548.909704 278.387196 
L 549.69146 275.540904 
L 550.473216 268.605514 
L 552.036728 246.848155 
L 552.818484 235.901913 
L 553.60024 227.144047 
L 554.381996 221.398091 
L 555.163752 218.724067 
L 555.945507 218.592754 
L 556.727263 220.04716 
L 557.509019 221.991175 
L 558.290775 224.286686 
L 559.072531 227.71143 
L 559.854287 232.783459 
L 560.636043 239.788744 
L 561.417799 249.349926 
L 562.199555 261.725458 
L 563.763067 289.738617 
L 564.544823 299.774039 
L 565.326578 302.357824 
L 566.108334 295.008146 
L 566.89009 278.21469 
L 569.235358 212.988005 
L 570.017114 200.208676 
L 570.79887 195.166204 
L 571.580626 197.342893 
L 572.362382 204.703088 
L 573.925894 222.022509 
L 574.707649 227.011379 
L 575.489405 228.448791 
L 576.271161 227.271498 
L 577.052917 225.804644 
L 577.834673 226.994839 
L 578.616429 232.626491 
L 579.398185 242.575714 
L 580.961697 267.835291 
L 581.743453 278.397447 
L 582.525209 285.108825 
L 583.306965 286.972794 
L 584.08872 284.481078 
L 586.433988 268.939669 
L 587.215744 266.500003 
L 587.9975 266.832031 
L 588.779256 269.534734 
L 590.342768 277.555262 
L 591.124524 280.085292 
L 591.90628 280.197888 
L 592.688035 277.658131 
L 595.033303 263.807233 
L 595.815059 261.401327 
L 596.596815 261.032893 
L 597.378571 262.017771 
L 598.160327 263.255848 
L 598.942083 263.821344 
L 599.723839 263.346771 
L 600.505595 262.013551 
L 602.069106 258.783773 
L 602.850862 258.107976 
L 603.632618 258.786013 
L 604.414374 261.011577 
L 605.19613 264.642838 
L 606.759642 274.65572 
L 607.541398 279.885835 
L 608.323154 284.211805 
L 609.10491 286.846083 
L 609.886666 287.397411 
L 610.668422 285.752263 
L 611.450177 281.416134 
L 612.231933 273.996271 
L 613.795445 253.528259 
L 615.358957 233.784053 
L 616.140713 226.543584 
L 616.922469 221.977681 
L 617.704225 220.277543 
L 618.485981 220.807145 
L 620.049493 223.83393 
L 620.831248 224.096524 
L 621.613004 222.729359 
L 622.39476 219.947961 
L 623.176516 216.582462 
L 623.958272 213.742214 
L 624.740028 212.6568 
L 625.521784 214.641182 
L 626.30354 220.497835 
L 627.085296 229.644425 
L 628.648808 250.331902 
L 629.430564 257.900222 
L 630.212319 261.875756 
L 630.994075 261.84487 
L 631.775831 258.210437 
L 633.339343 246.574659 
L 634.121099 243.509585 
L 634.902855 245.0002 
L 635.684611 251.320489 
L 636.466367 261.29801 
L 638.029879 284.57039 
L 638.811634 293.472668 
L 639.59339 297.376078 
L 640.375146 293.945992 
L 641.156902 282.05228 
L 641.938658 263.097163 
L 643.50217 220.858152 
L 644.283926 206.814428 
L 645.065682 200.985812 
L 645.847438 203.685545 
L 646.629194 214.324955 
L 648.974461 264.611167 
L 649.756217 275.093847 
L 650.537973 279.110474 
L 651.319729 277.265582 
L 652.101485 271.21153 
L 653.664997 255.674506 
L 654.446753 250.58136 
L 655.228509 248.387112 
L 656.010265 248.495969 
L 657.573776 251.010982 
L 658.355532 250.756809 
L 659.137288 248.389465 
L 659.919044 244.09495 
L 661.482556 233.768372 
L 662.264312 230.102412 
L 663.046068 228.363172 
L 663.827824 228.467788 
L 664.60958 229.846033 
L 666.173092 233.460611 
L 666.954847 234.884686 
L 667.736603 235.968778 
L 668.518359 236.54951 
L 669.300115 236.317841 
L 670.081871 235.057165 
L 670.863627 232.796428 
L 671.645383 229.693144 
L 674.772407 215.223052 
L 675.554163 214.645419 
L 676.335918 216.505995 
L 677.117674 220.283768 
L 678.681186 229.36198 
L 679.462942 232.807141 
L 680.244698 235.2071 
L 681.80821 239.353285 
L 682.589966 242.456812 
L 683.371722 246.744258 
L 685.716989 263.363974 
L 686.498745 265.940623 
L 687.280501 264.743833 
L 688.062257 260.102545 
L 690.407525 239.591897 
L 691.189281 236.118369 
L 691.971037 236.867205 
L 692.752793 242.3186 
L 695.09806 269.780644 
L 695.879816 273.971102 
L 696.661572 273.543517 
L 697.443328 269.726585 
L 698.225084 264.787496 
L 699.00684 261.047391 
L 699.788596 260.069577 
L 700.570352 262.240866 
L 701.352108 266.76944 
L 702.133864 272.039877 
L 702.91562 275.92429 
L 703.697375 276.285543 
L 704.479131 272.05503 
L 705.260887 263.48523 
L 706.042643 251.546132 
L 708.387911 211.10516 
L 709.169667 202.976572 
L 709.951423 199.81817 
L 710.733179 201.100113 
L 711.514935 205.567861 
L 713.860202 223.287782 
L 715.423714 232.366064 
L 716.987226 243.698371 
L 718.550738 255.703592 
L 719.332494 260.234896 
L 720.11425 262.285697 
L 720.896006 260.716097 
L 721.677762 255.599746 
L 723.241273 242.620006 
L 724.023029 239.914126 
L 724.804785 241.595772 
L 725.586541 247.117696 
L 727.150053 262.429589 
L 727.931809 267.932807 
L 728.713565 269.713729 
L 729.495321 267.221418 
L 730.277077 261.05884 
L 733.4041 227.86032 
L 734.185856 223.491881 
L 734.967612 222.18114 
L 735.749368 223.570531 
L 736.531124 226.730099 
L 738.094636 235.595325 
L 738.876392 240.024212 
L 739.658148 243.619991 
L 740.439903 246.25546 
L 742.785171 252.023911 
L 743.566927 255.3897 
L 744.348683 260.350504 
L 746.693951 279.32967 
L 747.475707 283.630612 
L 748.257463 285.268464 
L 749.039219 283.398598 
L 749.820974 277.999427 
L 750.60273 270.130983 
L 752.947998 244.14542 
L 753.729754 237.895352 
L 754.51151 233.545338 
L 755.293266 230.687383 
L 756.075022 228.844267 
L 756.856778 228.002579 
L 757.638534 228.82957 
L 758.42029 231.583755 
L 760.765557 243.525838 
L 761.547313 245.492282 
L 762.329069 245.788118 
L 763.892581 244.420862 
L 764.674337 244.493694 
L 766.237849 246.087387 
L 767.019605 246.304568 
L 767.801361 245.78347 
L 770.146628 242.893187 
L 770.928384 242.663851 
L 771.71014 242.93914 
L 772.491896 243.396665 
L 773.273652 243.658974 
L 774.055408 243.438785 
L 774.837164 242.583211 
L 775.61892 241.089057 
L 776.400676 239.052328 
L 777.964187 233.821611 
L 778.745943 231.062602 
L 779.527699 229.004804 
L 780.309455 228.592012 
L 781.091211 230.200167 
L 781.872967 233.762084 
L 782.654723 239.332897 
L 784.218235 254.909217 
L 784.999991 262.864436 
L 785.781747 269.521182 
L 786.563502 274.256293 
L 787.345258 276.826004 
L 788.127014 277.112033 
L 788.90877 275.039247 
L 789.690526 270.95418 
L 792.81755 250.027267 
L 793.599306 246.480142 
L 794.381062 244.287986 
L 795.162818 243.337254 
L 795.944573 243.187117 
L 796.726329 243.326804 
L 797.508085 243.251819 
L 798.289841 242.770414 
L 799.071597 242.048226 
L 799.853353 241.700762 
L 800.635109 242.394434 
L 801.416865 244.429787 
L 802.198621 247.599408 
L 803.762133 254.935458 
L 804.543889 257.760584 
L 805.325644 259.363468 
L 806.1074 259.608169 
L 806.889156 258.724926 
L 808.452668 255.491988 
L 810.01618 252.424242 
L 812.361448 248.626228 
L 813.92496 245.708444 
L 814.706715 244.748709 
L 815.488471 244.505792 
L 816.270227 245.10879 
L 817.051983 246.519545 
L 817.833739 248.573284 
L 820.960763 258.215396 
L 821.742519 259.727346 
L 822.524275 260.02919 
L 823.306031 258.560986 
L 824.087786 255.335482 
L 826.433054 242.361654 
L 827.21481 239.340087 
L 827.996566 237.623938 
L 828.778322 237.088481 
L 829.560078 237.270704 
L 830.341834 237.628101 
L 831.12359 237.849015 
L 831.905346 237.901727 
L 833.468857 237.659376 
L 835.032369 237.14663 
L 835.814125 237.07153 
L 836.595881 237.372352 
L 837.377637 238.19798 
L 838.159393 239.561214 
L 840.504661 244.624107 
L 841.286417 245.538658 
L 842.068172 245.62495 
L 842.849928 244.82842 
L 843.631684 243.305002 
L 845.195196 239.682773 
L 845.976952 238.565713 
L 846.758708 238.457215 
L 847.540464 239.645103 
L 848.32222 242.240939 
L 849.103976 246.136931 
L 851.449243 260.383233 
L 852.230999 263.759917 
L 853.012755 265.60554 
L 853.794511 265.570395 
L 854.576267 263.540717 
L 855.358023 259.89847 
L 858.485047 241.682284 
L 859.266803 238.856668 
L 860.048559 237.264493 
L 860.830314 236.663573 
L 861.61207 236.755099 
L 862.393826 237.293947 
L 863.957338 239.064115 
L 864.739094 240.224425 
L 865.52085 241.74604 
L 867.866118 247.857672 
L 868.647874 248.82417 
L 869.42963 248.52206 
L 870.211385 247.18481 
L 870.993141 245.522309 
L 871.774897 244.390443 
L 872.556653 244.302482 
L 874.120165 245.965698 
L 874.901921 246.258041 
L 875.683677 245.539235 
L 876.465433 243.86431 
L 878.028945 239.557839 
L 878.8107 238.475645 
L 879.592456 239.363363 
L 880.374212 242.696042 
L 881.937724 254.043475 
L 882.71948 259.498742 
L 883.501236 263.292935 
L 884.282992 264.880942 
L 885.064748 264.350281 
L 885.846504 262.340103 
L 888.191771 255.027338 
L 889.755283 250.162829 
L 892.882307 239.745839 
L 893.664063 238.848094 
L 894.445819 240.075563 
L 895.227575 243.378926 
L 896.791087 251.871311 
L 897.572842 254.441666 
L 898.354598 254.809379 
L 899.136354 252.990938 
L 899.91811 249.62339 
L 900.699866 245.731401 
L 901.481622 242.487544 
L 902.263378 240.871973 
L 903.045134 241.314608 
L 903.82689 243.560393 
L 906.172158 253.348759 
L 906.953913 254.949375 
L 907.735669 254.712006 
L 908.517425 252.507236 
L 909.299181 248.689762 
L 910.862693 239.324741 
L 911.644449 235.420508 
L 912.426205 232.786095 
L 913.207961 231.631308 
L 913.989717 231.890085 
L 915.553229 234.495479 
L 916.334984 234.962575 
L 917.11674 233.609543 
L 917.898496 230.413273 
L 918.680252 226.637875 
L 919.462008 224.222869 
L 920.243764 224.75822 
L 921.02552 228.710017 
L 921.807276 235.743712 
L 924.152544 263.268695 
L 924.9343 269.240987 
L 925.716055 271.863711 
L 926.497811 271.415314 
L 927.279567 268.867492 
L 928.843079 261.503225 
L 929.624835 258.838808 
L 930.406591 257.8547 
L 931.188347 258.546375 
L 932.751859 262.523891 
L 933.533615 263.788922 
L 934.31537 263.315101 
L 935.097126 260.875171 
L 937.442394 248.837932 
L 938.22415 246.429787 
L 939.005906 245.844117 
L 939.787662 246.957289 
L 941.351174 251.193021 
L 942.13293 251.949642 
L 942.914686 250.529687 
L 943.696441 246.820281 
L 944.478197 241.371086 
L 946.041709 228.935788 
L 946.823465 224.35003 
L 947.605221 222.531806 
L 948.386977 224.140262 
L 949.168733 228.865238 
L 951.514001 248.996961 
L 952.295757 253.594742 
L 953.077512 256.060334 
L 953.859268 256.732524 
L 954.641024 256.217297 
L 955.42278 255.415652 
L 956.204536 254.872964 
L 956.986292 254.740201 
L 957.768048 254.960961 
L 959.33156 255.629794 
L 960.113316 255.558276 
L 960.895072 255.066315 
L 962.458583 253.344186 
L 963.240339 252.492474 
L 965.585607 250.488262 
L 966.367363 249.469194 
L 967.149119 248.124536 
L 969.494387 243.38144 
L 970.276143 242.295108 
L 971.057899 241.875919 
L 971.839654 242.215741 
L 972.62141 243.204619 
L 974.184922 245.924888 
L 974.966678 246.885873 
L 975.748434 247.065562 
L 976.53019 246.202055 
L 977.311946 244.317762 
L 979.657214 236.820364 
L 980.438969 235.441125 
L 981.220725 235.087243 
L 982.002481 235.622083 
L 985.129505 239.849113 
L 985.911261 240.259593 
L 987.474773 240.828697 
L 988.256529 241.560989 
L 989.038285 242.849525 
L 990.601796 246.686832 
L 991.383552 248.614435 
L 992.165308 250.125115 
L 992.947064 251.029175 
L 993.72882 251.260278 
L 994.510576 250.794816 
L 995.292332 249.725894 
L 996.855844 246.820568 
L 997.6376 245.674613 
L 998.419356 245.149863 
L 999.201111 245.396584 
L 999.982867 246.365907 
L 1002.328135 250.719996 
L 1003.109891 251.378488 
L 1003.891647 251.194428 
L 1004.673403 250.315398 
L 1005.455159 249.182804 
L 1006.236915 248.38142 
L 1007.018671 248.351069 
L 1007.800427 249.211117 
L 1008.582182 250.735228 
L 1010.145694 254.169402 
L 1010.92745 255.136228 
L 1011.709206 255.188667 
L 1012.490962 254.275958 
L 1013.272718 252.603166 
L 1014.83623 248.69945 
L 1015.617986 247.268881 
L 1016.399742 246.460798 
L 1017.181498 246.268995 
L 1017.963253 246.550344 
L 1019.526765 247.536624 
L 1020.308521 247.746666 
L 1021.090277 247.597545 
L 1021.872033 247.057398 
L 1023.435545 245.581183 
L 1024.217301 245.152411 
L 1024.999057 245.140557 
L 1025.780813 245.502589 
L 1028.12608 247.237651 
L 1028.907836 247.483259 
L 1029.689592 247.45292 
L 1030.471348 247.179628 
L 1032.03486 246.373674 
L 1032.816616 246.108582 
L 1033.598372 246.074877 
L 1034.380128 246.26501 
L 1037.507151 247.708211 
L 1038.288907 247.70622 
L 1039.070663 247.510066 
L 1041.415931 246.477173 
L 1042.197687 246.333012 
L 1042.979443 246.382432 
L 1043.761199 246.602844 
L 1044.542955 246.947381 
L 1044.542955 246.947381 
" clip-path="url(#p893e56b644)" style="fill: none; stroke: #0c5da5; stroke-width: 2; stroke-linecap: square"/>
   </g>
   <g id="patch_3">
    <path d="M 85.7975 520.7175 
L 85.7975 21.7575 
" style="fill: none; stroke: #000000; stroke-linejoin: miter; stroke-linecap: square"/>
   </g>
   <g id="patch_4">
    <path d="M 1090.1975 520.7175 
L 1090.1975 21.7575 
" style="fill: none; stroke: #000000; stroke-linejoin: miter; stroke-linecap: square"/>
   </g>
   <g id="patch_5">
    <path d="M 85.7975 520.7175 
L 1090.1975 520.7175 
" style="fill: none; stroke: #000000; stroke-linejoin: miter; stroke-linecap: square"/>
   </g>
   <g id="patch_6">
    <path d="M 85.7975 21.7575 
L 1090.1975 21.7575 
" style="fill: none; stroke: #000000; stroke-linejoin: miter; stroke-linecap: square"/>
   </g>
   <g id="text_15">
    <!-- Santa Barbara Record no. 135 -->
    <g transform="translate(467.605 15.7575) scale(0.16 -0.16)">
     <defs>
      <path id="DejaVuSans-53" d="M 3425 4513 
L 3425 3897 
Q 3066 4069 2747 4153 
Q 2428 4238 2131 4238 
Q 1616 4238 1336 4038 
Q 1056 3838 1056 3469 
Q 1056 3159 1242 3001 
Q 1428 2844 1947 2747 
L 2328 2669 
Q 3034 2534 3370 2195 
Q 3706 1856 3706 1288 
Q 3706 609 3251 259 
Q 2797 -91 1919 -91 
Q 1588 -91 1214 -16 
Q 841 59 441 206 
L 441 856 
Q 825 641 1194 531 
Q 1563 422 1919 422 
Q 2459 422 2753 634 
Q 3047 847 3047 1241 
Q 3047 1584 2836 1778 
Q 2625 1972 2144 2069 
L 1759 2144 
Q 1053 2284 737 2584 
Q 422 2884 422 3419 
Q 422 4038 858 4394 
Q 1294 4750 2059 4750 
Q 2388 4750 2728 4690 
Q 3069 4631 3425 4513 
z
" transform="scale(0.015625)"/>
      <path id="DejaVuSans-61" d="M 2194 1759 
Q 1497 1759 1228 1600 
Q 959 1441 959 1056 
Q 959 750 1161 570 
Q 1363 391 1709 391 
Q 2188 391 2477 730 
Q 2766 1069 2766 1631 
L 2766 1759 
L 2194 1759 
z
M 3341 1997 
L 3341 0 
L 2766 0 
L 2766 531 
Q 2569 213 2275 61 
Q 1981 -91 1556 -91 
Q 1019 -91 701 211 
Q 384 513 384 1019 
Q 384 1609 779 1909 
Q 1175 2209 1959 2209 
L 2766 2209 
L 2766 2266 
Q 2766 2663 2505 2880 
Q 2244 3097 1772 3097 
Q 1472 3097 1187 3025 
Q 903 2953 641 2809 
L 641 3341 
Q 956 3463 1253 3523 
Q 1550 3584 1831 3584 
Q 2591 3584 2966 3190 
Q 3341 2797 3341 1997 
z
" transform="scale(0.015625)"/>
      <path id="DejaVuSans-6e" d="M 3513 2113 
L 3513 0 
L 2938 0 
L 2938 2094 
Q 2938 2591 2744 2837 
Q 2550 3084 2163 3084 
Q 1697 3084 1428 2787 
Q 1159 2491 1159 1978 
L 1159 0 
L 581 0 
L 581 3500 
L 1159 3500 
L 1159 2956 
Q 1366 3272 1645 3428 
Q 1925 3584 2291 3584 
Q 2894 3584 3203 3211 
Q 3513 2838 3513 2113 
z
" transform="scale(0.015625)"/>
      <path id="DejaVuSans-74" d="M 1172 4494 
L 1172 3500 
L 2356 3500 
L 2356 3053 
L 1172 3053 
L 1172 1153 
Q 1172 725 1289 603 
Q 1406 481 1766 481 
L 2356 481 
L 2356 0 
L 1766 0 
Q 1100 0 847 248 
Q 594 497 594 1153 
L 594 3053 
L 172 3053 
L 172 3500 
L 594 3500 
L 594 4494 
L 1172 4494 
z
" transform="scale(0.015625)"/>
      <path id="DejaVuSans-42" d="M 1259 2228 
L 1259 519 
L 2272 519 
Q 2781 519 3026 730 
Q 3272 941 3272 1375 
Q 3272 1813 3026 2020 
Q 2781 2228 2272 2228 
L 1259 2228 
z
M 1259 4147 
L 1259 2741 
L 2194 2741 
Q 2656 2741 2882 2914 
Q 3109 3088 3109 3444 
Q 3109 3797 2882 3972 
Q 2656 4147 2194 4147 
L 1259 4147 
z
M 628 4666 
L 2241 4666 
Q 2963 4666 3353 4366 
Q 3744 4066 3744 3513 
Q 3744 3084 3544 2831 
Q 3344 2578 2956 2516 
Q 3422 2416 3680 2098 
Q 3938 1781 3938 1306 
Q 3938 681 3513 340 
Q 3088 0 2303 0 
L 628 0 
L 628 4666 
z
" transform="scale(0.015625)"/>
      <path id="DejaVuSans-72" d="M 2631 2963 
Q 2534 3019 2420 3045 
Q 2306 3072 2169 3072 
Q 1681 3072 1420 2755 
Q 1159 2438 1159 1844 
L 1159 0 
L 581 0 
L 581 3500 
L 1159 3500 
L 1159 2956 
Q 1341 3275 1631 3429 
Q 1922 3584 2338 3584 
Q 2397 3584 2469 3576 
Q 2541 3569 2628 3553 
L 2631 2963 
z
" transform="scale(0.015625)"/>
      <path id="DejaVuSans-62" d="M 3116 1747 
Q 3116 2381 2855 2742 
Q 2594 3103 2138 3103 
Q 1681 3103 1420 2742 
Q 1159 2381 1159 1747 
Q 1159 1113 1420 752 
Q 1681 391 2138 391 
Q 2594 391 2855 752 
Q 3116 1113 3116 1747 
z
M 1159 2969 
Q 1341 3281 1617 3432 
Q 1894 3584 2278 3584 
Q 2916 3584 3314 3078 
Q 3713 2572 3713 1747 
Q 3713 922 3314 415 
Q 2916 -91 2278 -91 
Q 1894 -91 1617 61 
Q 1341 213 1159 525 
L 1159 0 
L 581 0 
L 581 4863 
L 1159 4863 
L 1159 2969 
z
" transform="scale(0.015625)"/>
      <path id="DejaVuSans-63" d="M 3122 3366 
L 3122 2828 
Q 2878 2963 2633 3030 
Q 2388 3097 2138 3097 
Q 1578 3097 1268 2742 
Q 959 2388 959 1747 
Q 959 1106 1268 751 
Q 1578 397 2138 397 
Q 2388 397 2633 464 
Q 2878 531 3122 666 
L 3122 134 
Q 2881 22 2623 -34 
Q 2366 -91 2075 -91 
Q 1284 -91 818 406 
Q 353 903 353 1747 
Q 353 2603 823 3093 
Q 1294 3584 2113 3584 
Q 2378 3584 2631 3529 
Q 2884 3475 3122 3366 
z
" transform="scale(0.015625)"/>
      <path id="DejaVuSans-6f" d="M 1959 3097 
Q 1497 3097 1228 2736 
Q 959 2375 959 1747 
Q 959 1119 1226 758 
Q 1494 397 1959 397 
Q 2419 397 2687 759 
Q 2956 1122 2956 1747 
Q 2956 2369 2687 2733 
Q 2419 3097 1959 3097 
z
M 1959 3584 
Q 2709 3584 3137 3096 
Q 3566 2609 3566 1747 
Q 3566 888 3137 398 
Q 2709 -91 1959 -91 
Q 1206 -91 779 398 
Q 353 888 353 1747 
Q 353 2609 779 3096 
Q 1206 3584 1959 3584 
z
" transform="scale(0.015625)"/>
      <path id="DejaVuSans-64" d="M 2906 2969 
L 2906 4863 
L 3481 4863 
L 3481 0 
L 2906 0 
L 2906 525 
Q 2725 213 2448 61 
Q 2172 -91 1784 -91 
Q 1150 -91 751 415 
Q 353 922 353 1747 
Q 353 2572 751 3078 
Q 1150 3584 1784 3584 
Q 2172 3584 2448 3432 
Q 2725 3281 2906 2969 
z
M 947 1747 
Q 947 1113 1208 752 
Q 1469 391 1925 391 
Q 2381 391 2643 752 
Q 2906 1113 2906 1747 
Q 2906 2381 2643 2742 
Q 2381 3103 1925 3103 
Q 1469 3103 1208 2742 
Q 947 2381 947 1747 
z
" transform="scale(0.015625)"/>
      <path id="DejaVuSans-33" d="M 2597 2516 
Q 3050 2419 3304 2112 
Q 3559 1806 3559 1356 
Q 3559 666 3084 287 
Q 2609 -91 1734 -91 
Q 1441 -91 1130 -33 
Q 819 25 488 141 
L 488 750 
Q 750 597 1062 519 
Q 1375 441 1716 441 
Q 2309 441 2620 675 
Q 2931 909 2931 1356 
Q 2931 1769 2642 2001 
Q 2353 2234 1838 2234 
L 1294 2234 
L 1294 2753 
L 1863 2753 
Q 2328 2753 2575 2939 
Q 2822 3125 2822 3475 
Q 2822 3834 2567 4026 
Q 2313 4219 1838 4219 
Q 1578 4219 1281 4162 
Q 984 4106 628 3988 
L 628 4550 
Q 988 4650 1302 4700 
Q 1616 4750 1894 4750 
Q 2613 4750 3031 4423 
Q 3450 4097 3450 3541 
Q 3450 3153 3228 2886 
Q 3006 2619 2597 2516 
z
" transform="scale(0.015625)"/>
     </defs>
     <use xlink:href="#DejaVuSans-53"/>
     <use xlink:href="#DejaVuSans-61" x="63.476562"/>
     <use xlink:href="#DejaVuSans-6e" x="124.755859"/>
     <use xlink:href="#DejaVuSans-74" x="188.134766"/>
     <use xlink:href="#DejaVuSans-61" x="227.34375"/>
     <use xlink:href="#DejaVuSans-20" x="288.623047"/>
     <use xlink:href="#DejaVuSans-42" x="320.410156"/>
     <use xlink:href="#DejaVuSans-61" x="389.013672"/>
     <use xlink:href="#DejaVuSans-72" x="450.292969"/>
     <use xlink:href="#DejaVuSans-62" x="491.40625"/>
     <use xlink:href="#DejaVuSans-61" x="554.882812"/>
     <use xlink:href="#DejaVuSans-72" x="616.162109"/>
     <use xlink:href="#DejaVuSans-61" x="657.275391"/>
     <use xlink:href="#DejaVuSans-20" x="718.554688"/>
     <use xlink:href="#DejaVuSans-52" x="750.341797"/>
     <use xlink:href="#DejaVuSans-65" x="815.324219"/>
     <use xlink:href="#DejaVuSans-63" x="876.847656"/>
     <use xlink:href="#DejaVuSans-6f" x="931.828125"/>
     <use xlink:href="#DejaVuSans-72" x="993.009766"/>
     <use xlink:href="#DejaVuSans-64" x="1032.373047"/>
     <use xlink:href="#DejaVuSans-20" x="1095.849609"/>
     <use xlink:href="#DejaVuSans-6e" x="1127.636719"/>
     <use xlink:href="#DejaVuSans-6f" x="1191.015625"/>
     <use xlink:href="#DejaVuSans-2e" x="1250.447266"/>
     <use xlink:href="#DejaVuSans-20" x="1282.234375"/>
     <use xlink:href="#DejaVuSans-31" x="1314.021484"/>
     <use xlink:href="#DejaVuSans-33" x="1377.644531"/>
     <use xlink:href="#DejaVuSans-35" x="1441.267578"/>
    </g>
   </g>
  </g>
 </g>
 <defs>
  <clipPath id="p893e56b644">
   <rect x="85.7975" y="21.7575" width="1004.4" height="498.96"/>
  </clipPath>
 </defs>
</svg>
