<?xml version="1.0" encoding="utf-8" standalone="no"?>
<!DOCTYPE svg PUBLIC "-//W3C//DTD SVG 1.1//EN"
  "http://www.w3.org/Graphics/SVG/1.1/DTD/svg11.dtd">
<svg xmlns:xlink="http://www.w3.org/1999/xlink" width="1103.9775pt" height="396.4675pt" viewBox="0 0 1103.9775 396.4675" xmlns="http://www.w3.org/2000/svg" version="1.1">
 <metadata>
  <rdf:RDF xmlns:dc="http://purl.org/dc/elements/1.1/" xmlns:cc="http://creativecommons.org/ns#" xmlns:rdf="http://www.w3.org/1999/02/22-rdf-syntax-ns#">
   <cc:Work>
    <dc:type rdf:resource="http://purl.org/dc/dcmitype/StillImage"/>
    <dc:date>2023-06-06T10:02:19.430057</dc:date>
    <dc:format>image/svg+xml</dc:format>
    <dc:creator>
     <cc:Agent>
      <dc:title>Matplotlib v3.7.1, https://matplotlib.org/</dc:title>
     </cc:Agent>
    </dc:creator>
   </cc:Work>
  </rdf:RDF>
 </metadata>
 <defs>
  <style type="text/css">*{stroke-linejoin: round; stroke-linecap: butt}</style>
 </defs>
 <g id="figure_1">
  <g id="patch_1">
   <path d="M 0 396.4675 
L 1103.9775 396.4675 
L 1103.9775 0 
L 0 0 
z
" style="fill: #ffffff"/>
  </g>
  <g id="axes_1">
   <g id="patch_2">
    <path d="M 95.9775 354.3975 
L 1100.3775 354.3975 
L 1100.3775 21.7575 
L 95.9775 21.7575 
z
" style="fill: #ffffff"/>
   </g>
   <g id="matplotlib.axis_1">
    <g id="xtick_1">
     <g id="line2d_1">
      <path d="M 141.632045 354.3975 
L 141.632045 21.7575 
" clip-path="url(#pb7b506b916)" style="fill: none; stroke-dasharray: 1.85,0.8; stroke-dashoffset: 0; stroke: #000000; stroke-opacity: 0.5; stroke-width: 0.5"/>
     </g>
     <g id="line2d_2">
      <defs>
       <path id="mb2c81cb1f1" d="M 0 0 
L 0 -6 
" style="stroke: #000000"/>
      </defs>
      <g>
       <use xlink:href="#mb2c81cb1f1" x="141.632045" y="354.3975" style="stroke: #000000"/>
      </g>
     </g>
     <g id="line2d_3">
      <defs>
       <path id="me51b259e2a" d="M 0 0 
L 0 6 
" style="stroke: #000000"/>
      </defs>
      <g>
       <use xlink:href="#me51b259e2a" x="141.632045" y="21.7575" style="stroke: #000000"/>
      </g>
     </g>
     <g id="text_1">
      <!-- 0 -->
      <g transform="translate(136.542045 370.055) scale(0.16 -0.16)">
       <defs>
        <path id="DejaVuSans-30" d="M 2034 4250 
Q 1547 4250 1301 3770 
Q 1056 3291 1056 2328 
Q 1056 1369 1301 889 
Q 1547 409 2034 409 
Q 2525 409 2770 889 
Q 3016 1369 3016 2328 
Q 3016 3291 2770 3770 
Q 2525 4250 2034 4250 
z
M 2034 4750 
Q 2819 4750 3233 4129 
Q 3647 3509 3647 2328 
Q 3647 1150 3233 529 
Q 2819 -91 2034 -91 
Q 1250 -91 836 529 
Q 422 1150 422 2328 
Q 422 3509 836 4129 
Q 1250 4750 2034 4750 
z
" transform="scale(0.015625)"/>
       </defs>
       <use xlink:href="#DejaVuSans-30"/>
      </g>
     </g>
    </g>
    <g id="xtick_2">
     <g id="line2d_4">
      <path d="M 297.983229 354.3975 
L 297.983229 21.7575 
" clip-path="url(#pb7b506b916)" style="fill: none; stroke-dasharray: 1.85,0.8; stroke-dashoffset: 0; stroke: #000000; stroke-opacity: 0.5; stroke-width: 0.5"/>
     </g>
     <g id="line2d_5">
      <g>
       <use xlink:href="#mb2c81cb1f1" x="297.983229" y="354.3975" style="stroke: #000000"/>
      </g>
     </g>
     <g id="line2d_6">
      <g>
       <use xlink:href="#me51b259e2a" x="297.983229" y="21.7575" style="stroke: #000000"/>
      </g>
     </g>
     <g id="text_2">
      <!-- 2 -->
      <g transform="translate(292.893229 370.055) scale(0.16 -0.16)">
       <defs>
        <path id="DejaVuSans-32" d="M 1228 531 
L 3431 531 
L 3431 0 
L 469 0 
L 469 531 
Q 828 903 1448 1529 
Q 2069 2156 2228 2338 
Q 2531 2678 2651 2914 
Q 2772 3150 2772 3378 
Q 2772 3750 2511 3984 
Q 2250 4219 1831 4219 
Q 1534 4219 1204 4116 
Q 875 4013 500 3803 
L 500 4441 
Q 881 4594 1212 4672 
Q 1544 4750 1819 4750 
Q 2544 4750 2975 4387 
Q 3406 4025 3406 3419 
Q 3406 3131 3298 2873 
Q 3191 2616 2906 2266 
Q 2828 2175 2409 1742 
Q 1991 1309 1228 531 
z
" transform="scale(0.015625)"/>
       </defs>
       <use xlink:href="#DejaVuSans-32"/>
      </g>
     </g>
    </g>
    <g id="xtick_3">
     <g id="line2d_7">
      <path d="M 454.334412 354.3975 
L 454.334412 21.7575 
" clip-path="url(#pb7b506b916)" style="fill: none; stroke-dasharray: 1.85,0.8; stroke-dashoffset: 0; stroke: #000000; stroke-opacity: 0.5; stroke-width: 0.5"/>
     </g>
     <g id="line2d_8">
      <g>
       <use xlink:href="#mb2c81cb1f1" x="454.334412" y="354.3975" style="stroke: #000000"/>
      </g>
     </g>
     <g id="line2d_9">
      <g>
       <use xlink:href="#me51b259e2a" x="454.334412" y="21.7575" style="stroke: #000000"/>
      </g>
     </g>
     <g id="text_3">
      <!-- 4 -->
      <g transform="translate(449.244412 370.055) scale(0.16 -0.16)">
       <defs>
        <path id="DejaVuSans-34" d="M 2419 4116 
L 825 1625 
L 2419 1625 
L 2419 4116 
z
M 2253 4666 
L 3047 4666 
L 3047 1625 
L 3713 1625 
L 3713 1100 
L 3047 1100 
L 3047 0 
L 2419 0 
L 2419 1100 
L 313 1100 
L 313 1709 
L 2253 4666 
z
" transform="scale(0.015625)"/>
       </defs>
       <use xlink:href="#DejaVuSans-34"/>
      </g>
     </g>
    </g>
    <g id="xtick_4">
     <g id="line2d_10">
      <path d="M 610.685595 354.3975 
L 610.685595 21.7575 
" clip-path="url(#pb7b506b916)" style="fill: none; stroke-dasharray: 1.85,0.8; stroke-dashoffset: 0; stroke: #000000; stroke-opacity: 0.5; stroke-width: 0.5"/>
     </g>
     <g id="line2d_11">
      <g>
       <use xlink:href="#mb2c81cb1f1" x="610.685595" y="354.3975" style="stroke: #000000"/>
      </g>
     </g>
     <g id="line2d_12">
      <g>
       <use xlink:href="#me51b259e2a" x="610.685595" y="21.7575" style="stroke: #000000"/>
      </g>
     </g>
     <g id="text_4">
      <!-- 6 -->
      <g transform="translate(605.595595 370.055) scale(0.16 -0.16)">
       <defs>
        <path id="DejaVuSans-36" d="M 2113 2584 
Q 1688 2584 1439 2293 
Q 1191 2003 1191 1497 
Q 1191 994 1439 701 
Q 1688 409 2113 409 
Q 2538 409 2786 701 
Q 3034 994 3034 1497 
Q 3034 2003 2786 2293 
Q 2538 2584 2113 2584 
z
M 3366 4563 
L 3366 3988 
Q 3128 4100 2886 4159 
Q 2644 4219 2406 4219 
Q 1781 4219 1451 3797 
Q 1122 3375 1075 2522 
Q 1259 2794 1537 2939 
Q 1816 3084 2150 3084 
Q 2853 3084 3261 2657 
Q 3669 2231 3669 1497 
Q 3669 778 3244 343 
Q 2819 -91 2113 -91 
Q 1303 -91 875 529 
Q 447 1150 447 2328 
Q 447 3434 972 4092 
Q 1497 4750 2381 4750 
Q 2619 4750 2861 4703 
Q 3103 4656 3366 4563 
z
" transform="scale(0.015625)"/>
       </defs>
       <use xlink:href="#DejaVuSans-36"/>
      </g>
     </g>
    </g>
    <g id="xtick_5">
     <g id="line2d_13">
      <path d="M 767.036778 354.3975 
L 767.036778 21.7575 
" clip-path="url(#pb7b506b916)" style="fill: none; stroke-dasharray: 1.85,0.8; stroke-dashoffset: 0; stroke: #000000; stroke-opacity: 0.5; stroke-width: 0.5"/>
     </g>
     <g id="line2d_14">
      <g>
       <use xlink:href="#mb2c81cb1f1" x="767.036778" y="354.3975" style="stroke: #000000"/>
      </g>
     </g>
     <g id="line2d_15">
      <g>
       <use xlink:href="#me51b259e2a" x="767.036778" y="21.7575" style="stroke: #000000"/>
      </g>
     </g>
     <g id="text_5">
      <!-- 8 -->
      <g transform="translate(761.946778 370.055) scale(0.16 -0.16)">
       <defs>
        <path id="DejaVuSans-38" d="M 2034 2216 
Q 1584 2216 1326 1975 
Q 1069 1734 1069 1313 
Q 1069 891 1326 650 
Q 1584 409 2034 409 
Q 2484 409 2743 651 
Q 3003 894 3003 1313 
Q 3003 1734 2745 1975 
Q 2488 2216 2034 2216 
z
M 1403 2484 
Q 997 2584 770 2862 
Q 544 3141 544 3541 
Q 544 4100 942 4425 
Q 1341 4750 2034 4750 
Q 2731 4750 3128 4425 
Q 3525 4100 3525 3541 
Q 3525 3141 3298 2862 
Q 3072 2584 2669 2484 
Q 3125 2378 3379 2068 
Q 3634 1759 3634 1313 
Q 3634 634 3220 271 
Q 2806 -91 2034 -91 
Q 1263 -91 848 271 
Q 434 634 434 1313 
Q 434 1759 690 2068 
Q 947 2378 1403 2484 
z
M 1172 3481 
Q 1172 3119 1398 2916 
Q 1625 2713 2034 2713 
Q 2441 2713 2670 2916 
Q 2900 3119 2900 3481 
Q 2900 3844 2670 4047 
Q 2441 4250 2034 4250 
Q 1625 4250 1398 4047 
Q 1172 3844 1172 3481 
z
" transform="scale(0.015625)"/>
       </defs>
       <use xlink:href="#DejaVuSans-38"/>
      </g>
     </g>
    </g>
    <g id="xtick_6">
     <g id="line2d_16">
      <path d="M 923.387961 354.3975 
L 923.387961 21.7575 
" clip-path="url(#pb7b506b916)" style="fill: none; stroke-dasharray: 1.85,0.8; stroke-dashoffset: 0; stroke: #000000; stroke-opacity: 0.5; stroke-width: 0.5"/>
     </g>
     <g id="line2d_17">
      <g>
       <use xlink:href="#mb2c81cb1f1" x="923.387961" y="354.3975" style="stroke: #000000"/>
      </g>
     </g>
     <g id="line2d_18">
      <g>
       <use xlink:href="#me51b259e2a" x="923.387961" y="21.7575" style="stroke: #000000"/>
      </g>
     </g>
     <g id="text_6">
      <!-- 10 -->
      <g transform="translate(913.207961 370.055) scale(0.16 -0.16)">
       <defs>
        <path id="DejaVuSans-31" d="M 794 531 
L 1825 531 
L 1825 4091 
L 703 3866 
L 703 4441 
L 1819 4666 
L 2450 4666 
L 2450 531 
L 3481 531 
L 3481 0 
L 794 0 
L 794 531 
z
" transform="scale(0.015625)"/>
       </defs>
       <use xlink:href="#DejaVuSans-31"/>
       <use xlink:href="#DejaVuSans-30" x="63.623047"/>
      </g>
     </g>
    </g>
    <g id="xtick_7">
     <g id="line2d_19">
      <path d="M 1079.739144 354.3975 
L 1079.739144 21.7575 
" clip-path="url(#pb7b506b916)" style="fill: none; stroke-dasharray: 1.85,0.8; stroke-dashoffset: 0; stroke: #000000; stroke-opacity: 0.5; stroke-width: 0.5"/>
     </g>
     <g id="line2d_20">
      <g>
       <use xlink:href="#mb2c81cb1f1" x="1079.739144" y="354.3975" style="stroke: #000000"/>
      </g>
     </g>
     <g id="line2d_21">
      <g>
       <use xlink:href="#me51b259e2a" x="1079.739144" y="21.7575" style="stroke: #000000"/>
      </g>
     </g>
     <g id="text_7">
      <!-- 12 -->
      <g transform="translate(1069.559144 370.055) scale(0.16 -0.16)">
       <use xlink:href="#DejaVuSans-31"/>
       <use xlink:href="#DejaVuSans-32" x="63.623047"/>
      </g>
     </g>
    </g>
    <g id="xtick_8">
     <g id="line2d_22">
      <defs>
       <path id="m556fe3ee2b" d="M 0 0 
L 0 -3 
" style="stroke: #000000"/>
      </defs>
      <g>
       <use xlink:href="#m556fe3ee2b" x="102.54425" y="354.3975" style="stroke: #000000"/>
      </g>
     </g>
     <g id="line2d_23">
      <defs>
       <path id="m874514f0ab" d="M 0 0 
L 0 3 
" style="stroke: #000000"/>
      </defs>
      <g>
       <use xlink:href="#m874514f0ab" x="102.54425" y="21.7575" style="stroke: #000000"/>
      </g>
     </g>
    </g>
    <g id="xtick_9">
     <g id="line2d_24">
      <g>
       <use xlink:href="#m556fe3ee2b" x="180.719841" y="354.3975" style="stroke: #000000"/>
      </g>
     </g>
     <g id="line2d_25">
      <g>
       <use xlink:href="#m874514f0ab" x="180.719841" y="21.7575" style="stroke: #000000"/>
      </g>
     </g>
    </g>
    <g id="xtick_10">
     <g id="line2d_26">
      <g>
       <use xlink:href="#m556fe3ee2b" x="219.807637" y="354.3975" style="stroke: #000000"/>
      </g>
     </g>
     <g id="line2d_27">
      <g>
       <use xlink:href="#m874514f0ab" x="219.807637" y="21.7575" style="stroke: #000000"/>
      </g>
     </g>
    </g>
    <g id="xtick_11">
     <g id="line2d_28">
      <g>
       <use xlink:href="#m556fe3ee2b" x="258.895433" y="354.3975" style="stroke: #000000"/>
      </g>
     </g>
     <g id="line2d_29">
      <g>
       <use xlink:href="#m874514f0ab" x="258.895433" y="21.7575" style="stroke: #000000"/>
      </g>
     </g>
    </g>
    <g id="xtick_12">
     <g id="line2d_30">
      <g>
       <use xlink:href="#m556fe3ee2b" x="337.071024" y="354.3975" style="stroke: #000000"/>
      </g>
     </g>
     <g id="line2d_31">
      <g>
       <use xlink:href="#m874514f0ab" x="337.071024" y="21.7575" style="stroke: #000000"/>
      </g>
     </g>
    </g>
    <g id="xtick_13">
     <g id="line2d_32">
      <g>
       <use xlink:href="#m556fe3ee2b" x="376.15882" y="354.3975" style="stroke: #000000"/>
      </g>
     </g>
     <g id="line2d_33">
      <g>
       <use xlink:href="#m874514f0ab" x="376.15882" y="21.7575" style="stroke: #000000"/>
      </g>
     </g>
    </g>
    <g id="xtick_14">
     <g id="line2d_34">
      <g>
       <use xlink:href="#m556fe3ee2b" x="415.246616" y="354.3975" style="stroke: #000000"/>
      </g>
     </g>
     <g id="line2d_35">
      <g>
       <use xlink:href="#m874514f0ab" x="415.246616" y="21.7575" style="stroke: #000000"/>
      </g>
     </g>
    </g>
    <g id="xtick_15">
     <g id="line2d_36">
      <g>
       <use xlink:href="#m556fe3ee2b" x="493.422207" y="354.3975" style="stroke: #000000"/>
      </g>
     </g>
     <g id="line2d_37">
      <g>
       <use xlink:href="#m874514f0ab" x="493.422207" y="21.7575" style="stroke: #000000"/>
      </g>
     </g>
    </g>
    <g id="xtick_16">
     <g id="line2d_38">
      <g>
       <use xlink:href="#m556fe3ee2b" x="532.510003" y="354.3975" style="stroke: #000000"/>
      </g>
     </g>
     <g id="line2d_39">
      <g>
       <use xlink:href="#m874514f0ab" x="532.510003" y="21.7575" style="stroke: #000000"/>
      </g>
     </g>
    </g>
    <g id="xtick_17">
     <g id="line2d_40">
      <g>
       <use xlink:href="#m556fe3ee2b" x="571.597799" y="354.3975" style="stroke: #000000"/>
      </g>
     </g>
     <g id="line2d_41">
      <g>
       <use xlink:href="#m874514f0ab" x="571.597799" y="21.7575" style="stroke: #000000"/>
      </g>
     </g>
    </g>
    <g id="xtick_18">
     <g id="line2d_42">
      <g>
       <use xlink:href="#m556fe3ee2b" x="649.77339" y="354.3975" style="stroke: #000000"/>
      </g>
     </g>
     <g id="line2d_43">
      <g>
       <use xlink:href="#m874514f0ab" x="649.77339" y="21.7575" style="stroke: #000000"/>
      </g>
     </g>
    </g>
    <g id="xtick_19">
     <g id="line2d_44">
      <g>
       <use xlink:href="#m556fe3ee2b" x="688.861186" y="354.3975" style="stroke: #000000"/>
      </g>
     </g>
     <g id="line2d_45">
      <g>
       <use xlink:href="#m874514f0ab" x="688.861186" y="21.7575" style="stroke: #000000"/>
      </g>
     </g>
    </g>
    <g id="xtick_20">
     <g id="line2d_46">
      <g>
       <use xlink:href="#m556fe3ee2b" x="727.948982" y="354.3975" style="stroke: #000000"/>
      </g>
     </g>
     <g id="line2d_47">
      <g>
       <use xlink:href="#m874514f0ab" x="727.948982" y="21.7575" style="stroke: #000000"/>
      </g>
     </g>
    </g>
    <g id="xtick_21">
     <g id="line2d_48">
      <g>
       <use xlink:href="#m556fe3ee2b" x="806.124573" y="354.3975" style="stroke: #000000"/>
      </g>
     </g>
     <g id="line2d_49">
      <g>
       <use xlink:href="#m874514f0ab" x="806.124573" y="21.7575" style="stroke: #000000"/>
      </g>
     </g>
    </g>
    <g id="xtick_22">
     <g id="line2d_50">
      <g>
       <use xlink:href="#m556fe3ee2b" x="845.212369" y="354.3975" style="stroke: #000000"/>
      </g>
     </g>
     <g id="line2d_51">
      <g>
       <use xlink:href="#m874514f0ab" x="845.212369" y="21.7575" style="stroke: #000000"/>
      </g>
     </g>
    </g>
    <g id="xtick_23">
     <g id="line2d_52">
      <g>
       <use xlink:href="#m556fe3ee2b" x="884.300165" y="354.3975" style="stroke: #000000"/>
      </g>
     </g>
     <g id="line2d_53">
      <g>
       <use xlink:href="#m874514f0ab" x="884.300165" y="21.7575" style="stroke: #000000"/>
      </g>
     </g>
    </g>
    <g id="xtick_24">
     <g id="line2d_54">
      <g>
       <use xlink:href="#m556fe3ee2b" x="962.475757" y="354.3975" style="stroke: #000000"/>
      </g>
     </g>
     <g id="line2d_55">
      <g>
       <use xlink:href="#m874514f0ab" x="962.475757" y="21.7575" style="stroke: #000000"/>
      </g>
     </g>
    </g>
    <g id="xtick_25">
     <g id="line2d_56">
      <g>
       <use xlink:href="#m556fe3ee2b" x="1001.563552" y="354.3975" style="stroke: #000000"/>
      </g>
     </g>
     <g id="line2d_57">
      <g>
       <use xlink:href="#m874514f0ab" x="1001.563552" y="21.7575" style="stroke: #000000"/>
      </g>
     </g>
    </g>
    <g id="xtick_26">
     <g id="line2d_58">
      <g>
       <use xlink:href="#m556fe3ee2b" x="1040.651348" y="354.3975" style="stroke: #000000"/>
      </g>
     </g>
     <g id="line2d_59">
      <g>
       <use xlink:href="#m874514f0ab" x="1040.651348" y="21.7575" style="stroke: #000000"/>
      </g>
     </g>
    </g>
    <g id="text_8">
     <!-- Time(s) -->
     <g transform="translate(568.19375 389.54) scale(0.16 -0.16)">
      <defs>
       <path id="DejaVuSans-54" d="M -19 4666 
L 3928 4666 
L 3928 4134 
L 2272 4134 
L 2272 0 
L 1638 0 
L 1638 4134 
L -19 4134 
L -19 4666 
z
" transform="scale(0.015625)"/>
       <path id="DejaVuSans-69" d="M 603 3500 
L 1178 3500 
L 1178 0 
L 603 0 
L 603 3500 
z
M 603 4863 
L 1178 4863 
L 1178 4134 
L 603 4134 
L 603 4863 
z
" transform="scale(0.015625)"/>
       <path id="DejaVuSans-6d" d="M 3328 2828 
Q 3544 3216 3844 3400 
Q 4144 3584 4550 3584 
Q 5097 3584 5394 3201 
Q 5691 2819 5691 2113 
L 5691 0 
L 5113 0 
L 5113 2094 
Q 5113 2597 4934 2840 
Q 4756 3084 4391 3084 
Q 3944 3084 3684 2787 
Q 3425 2491 3425 1978 
L 3425 0 
L 2847 0 
L 2847 2094 
Q 2847 2600 2669 2842 
Q 2491 3084 2119 3084 
Q 1678 3084 1418 2786 
Q 1159 2488 1159 1978 
L 1159 0 
L 581 0 
L 581 3500 
L 1159 3500 
L 1159 2956 
Q 1356 3278 1631 3431 
Q 1906 3584 2284 3584 
Q 2666 3584 2933 3390 
Q 3200 3197 3328 2828 
z
" transform="scale(0.015625)"/>
       <path id="DejaVuSans-65" d="M 3597 1894 
L 3597 1613 
L 953 1613 
Q 991 1019 1311 708 
Q 1631 397 2203 397 
Q 2534 397 2845 478 
Q 3156 559 3463 722 
L 3463 178 
Q 3153 47 2828 -22 
Q 2503 -91 2169 -91 
Q 1331 -91 842 396 
Q 353 884 353 1716 
Q 353 2575 817 3079 
Q 1281 3584 2069 3584 
Q 2775 3584 3186 3129 
Q 3597 2675 3597 1894 
z
M 3022 2063 
Q 3016 2534 2758 2815 
Q 2500 3097 2075 3097 
Q 1594 3097 1305 2825 
Q 1016 2553 972 2059 
L 3022 2063 
z
" transform="scale(0.015625)"/>
       <path id="DejaVuSans-28" d="M 1984 4856 
Q 1566 4138 1362 3434 
Q 1159 2731 1159 2009 
Q 1159 1288 1364 580 
Q 1569 -128 1984 -844 
L 1484 -844 
Q 1016 -109 783 600 
Q 550 1309 550 2009 
Q 550 2706 781 3412 
Q 1013 4119 1484 4856 
L 1984 4856 
z
" transform="scale(0.015625)"/>
       <path id="DejaVuSans-73" d="M 2834 3397 
L 2834 2853 
Q 2591 2978 2328 3040 
Q 2066 3103 1784 3103 
Q 1356 3103 1142 2972 
Q 928 2841 928 2578 
Q 928 2378 1081 2264 
Q 1234 2150 1697 2047 
L 1894 2003 
Q 2506 1872 2764 1633 
Q 3022 1394 3022 966 
Q 3022 478 2636 193 
Q 2250 -91 1575 -91 
Q 1294 -91 989 -36 
Q 684 19 347 128 
L 347 722 
Q 666 556 975 473 
Q 1284 391 1588 391 
Q 1994 391 2212 530 
Q 2431 669 2431 922 
Q 2431 1156 2273 1281 
Q 2116 1406 1581 1522 
L 1381 1569 
Q 847 1681 609 1914 
Q 372 2147 372 2553 
Q 372 3047 722 3315 
Q 1072 3584 1716 3584 
Q 2034 3584 2315 3537 
Q 2597 3491 2834 3397 
z
" transform="scale(0.015625)"/>
       <path id="DejaVuSans-29" d="M 513 4856 
L 1013 4856 
Q 1481 4119 1714 3412 
Q 1947 2706 1947 2009 
Q 1947 1309 1714 600 
Q 1481 -109 1013 -844 
L 513 -844 
Q 928 -128 1133 580 
Q 1338 1288 1338 2009 
Q 1338 2731 1133 3434 
Q 928 4138 513 4856 
z
" transform="scale(0.015625)"/>
      </defs>
      <use xlink:href="#DejaVuSans-54"/>
      <use xlink:href="#DejaVuSans-69" x="57.958984"/>
      <use xlink:href="#DejaVuSans-6d" x="85.742188"/>
      <use xlink:href="#DejaVuSans-65" x="183.154297"/>
      <use xlink:href="#DejaVuSans-28" x="244.677734"/>
      <use xlink:href="#DejaVuSans-73" x="283.691406"/>
      <use xlink:href="#DejaVuSans-29" x="335.791016"/>
     </g>
    </g>
   </g>
   <g id="matplotlib.axis_2">
    <g id="ytick_1">
     <g id="line2d_60">
      <path d="M 95.9775 350.443042 
L 1100.3775 350.443042 
" clip-path="url(#pb7b506b916)" style="fill: none; stroke-dasharray: 1.85,0.8; stroke-dashoffset: 0; stroke: #000000; stroke-opacity: 0.5; stroke-width: 0.5"/>
     </g>
     <g id="line2d_61">
      <defs>
       <path id="m995922d094" d="M 0 0 
L 6 0 
" style="stroke: #000000"/>
      </defs>
      <g>
       <use xlink:href="#m995922d094" x="95.9775" y="350.443042" style="stroke: #000000"/>
      </g>
     </g>
     <g id="line2d_62">
      <defs>
       <path id="mc0f7198f9b" d="M 0 0 
L -6 0 
" style="stroke: #000000"/>
      </defs>
      <g>
       <use xlink:href="#mc0f7198f9b" x="1100.3775" y="350.443042" style="stroke: #000000"/>
      </g>
     </g>
     <g id="text_9">
      <!-- −0.0125 -->
      <g transform="translate(23.085 356.521792) scale(0.16 -0.16)">
       <defs>
        <path id="DejaVuSans-2212" d="M 678 2272 
L 4684 2272 
L 4684 1741 
L 678 1741 
L 678 2272 
z
" transform="scale(0.015625)"/>
        <path id="DejaVuSans-2e" d="M 684 794 
L 1344 794 
L 1344 0 
L 684 0 
L 684 794 
z
" transform="scale(0.015625)"/>
        <path id="DejaVuSans-35" d="M 691 4666 
L 3169 4666 
L 3169 4134 
L 1269 4134 
L 1269 2991 
Q 1406 3038 1543 3061 
Q 1681 3084 1819 3084 
Q 2600 3084 3056 2656 
Q 3513 2228 3513 1497 
Q 3513 744 3044 326 
Q 2575 -91 1722 -91 
Q 1428 -91 1123 -41 
Q 819 9 494 109 
L 494 744 
Q 775 591 1075 516 
Q 1375 441 1709 441 
Q 2250 441 2565 725 
Q 2881 1009 2881 1497 
Q 2881 1984 2565 2268 
Q 2250 2553 1709 2553 
Q 1456 2553 1204 2497 
Q 953 2441 691 2322 
L 691 4666 
z
" transform="scale(0.015625)"/>
       </defs>
       <use xlink:href="#DejaVuSans-2212"/>
       <use xlink:href="#DejaVuSans-30" x="83.789062"/>
       <use xlink:href="#DejaVuSans-2e" x="147.412109"/>
       <use xlink:href="#DejaVuSans-30" x="179.199219"/>
       <use xlink:href="#DejaVuSans-31" x="242.822266"/>
       <use xlink:href="#DejaVuSans-32" x="306.445312"/>
       <use xlink:href="#DejaVuSans-35" x="370.068359"/>
      </g>
     </g>
    </g>
    <g id="ytick_2">
     <g id="line2d_63">
      <path d="M 95.9775 311.072938 
L 1100.3775 311.072938 
" clip-path="url(#pb7b506b916)" style="fill: none; stroke-dasharray: 1.85,0.8; stroke-dashoffset: 0; stroke: #000000; stroke-opacity: 0.5; stroke-width: 0.5"/>
     </g>
     <g id="line2d_64">
      <g>
       <use xlink:href="#m995922d094" x="95.9775" y="311.072938" style="stroke: #000000"/>
      </g>
     </g>
     <g id="line2d_65">
      <g>
       <use xlink:href="#mc0f7198f9b" x="1100.3775" y="311.072938" style="stroke: #000000"/>
      </g>
     </g>
     <g id="text_10">
      <!-- −0.0100 -->
      <g transform="translate(23.085 317.151688) scale(0.16 -0.16)">
       <use xlink:href="#DejaVuSans-2212"/>
       <use xlink:href="#DejaVuSans-30" x="83.789062"/>
       <use xlink:href="#DejaVuSans-2e" x="147.412109"/>
       <use xlink:href="#DejaVuSans-30" x="179.199219"/>
       <use xlink:href="#DejaVuSans-31" x="242.822266"/>
       <use xlink:href="#DejaVuSans-30" x="306.445312"/>
       <use xlink:href="#DejaVuSans-30" x="370.068359"/>
      </g>
     </g>
    </g>
    <g id="ytick_3">
     <g id="line2d_66">
      <path d="M 95.9775 271.702834 
L 1100.3775 271.702834 
" clip-path="url(#pb7b506b916)" style="fill: none; stroke-dasharray: 1.85,0.8; stroke-dashoffset: 0; stroke: #000000; stroke-opacity: 0.5; stroke-width: 0.5"/>
     </g>
     <g id="line2d_67">
      <g>
       <use xlink:href="#m995922d094" x="95.9775" y="271.702834" style="stroke: #000000"/>
      </g>
     </g>
     <g id="line2d_68">
      <g>
       <use xlink:href="#mc0f7198f9b" x="1100.3775" y="271.702834" style="stroke: #000000"/>
      </g>
     </g>
     <g id="text_11">
      <!-- −0.0075 -->
      <g transform="translate(23.085 277.781584) scale(0.16 -0.16)">
       <defs>
        <path id="DejaVuSans-37" d="M 525 4666 
L 3525 4666 
L 3525 4397 
L 1831 0 
L 1172 0 
L 2766 4134 
L 525 4134 
L 525 4666 
z
" transform="scale(0.015625)"/>
       </defs>
       <use xlink:href="#DejaVuSans-2212"/>
       <use xlink:href="#DejaVuSans-30" x="83.789062"/>
       <use xlink:href="#DejaVuSans-2e" x="147.412109"/>
       <use xlink:href="#DejaVuSans-30" x="179.199219"/>
       <use xlink:href="#DejaVuSans-30" x="242.822266"/>
       <use xlink:href="#DejaVuSans-37" x="306.445312"/>
       <use xlink:href="#DejaVuSans-35" x="370.068359"/>
      </g>
     </g>
    </g>
    <g id="ytick_4">
     <g id="line2d_69">
      <path d="M 95.9775 232.33273 
L 1100.3775 232.33273 
" clip-path="url(#pb7b506b916)" style="fill: none; stroke-dasharray: 1.85,0.8; stroke-dashoffset: 0; stroke: #000000; stroke-opacity: 0.5; stroke-width: 0.5"/>
     </g>
     <g id="line2d_70">
      <g>
       <use xlink:href="#m995922d094" x="95.9775" y="232.33273" style="stroke: #000000"/>
      </g>
     </g>
     <g id="line2d_71">
      <g>
       <use xlink:href="#mc0f7198f9b" x="1100.3775" y="232.33273" style="stroke: #000000"/>
      </g>
     </g>
     <g id="text_12">
      <!-- −0.0050 -->
      <g transform="translate(23.085 238.41148) scale(0.16 -0.16)">
       <use xlink:href="#DejaVuSans-2212"/>
       <use xlink:href="#DejaVuSans-30" x="83.789062"/>
       <use xlink:href="#DejaVuSans-2e" x="147.412109"/>
       <use xlink:href="#DejaVuSans-30" x="179.199219"/>
       <use xlink:href="#DejaVuSans-30" x="242.822266"/>
       <use xlink:href="#DejaVuSans-35" x="306.445312"/>
       <use xlink:href="#DejaVuSans-30" x="370.068359"/>
      </g>
     </g>
    </g>
    <g id="ytick_5">
     <g id="line2d_72">
      <path d="M 95.9775 192.962626 
L 1100.3775 192.962626 
" clip-path="url(#pb7b506b916)" style="fill: none; stroke-dasharray: 1.85,0.8; stroke-dashoffset: 0; stroke: #000000; stroke-opacity: 0.5; stroke-width: 0.5"/>
     </g>
     <g id="line2d_73">
      <g>
       <use xlink:href="#m995922d094" x="95.9775" y="192.962626" style="stroke: #000000"/>
      </g>
     </g>
     <g id="line2d_74">
      <g>
       <use xlink:href="#mc0f7198f9b" x="1100.3775" y="192.962626" style="stroke: #000000"/>
      </g>
     </g>
     <g id="text_13">
      <!-- −0.0025 -->
      <g transform="translate(23.085 199.041376) scale(0.16 -0.16)">
       <use xlink:href="#DejaVuSans-2212"/>
       <use xlink:href="#DejaVuSans-30" x="83.789062"/>
       <use xlink:href="#DejaVuSans-2e" x="147.412109"/>
       <use xlink:href="#DejaVuSans-30" x="179.199219"/>
       <use xlink:href="#DejaVuSans-30" x="242.822266"/>
       <use xlink:href="#DejaVuSans-32" x="306.445312"/>
       <use xlink:href="#DejaVuSans-35" x="370.068359"/>
      </g>
     </g>
    </g>
    <g id="ytick_6">
     <g id="line2d_75">
      <path d="M 95.9775 153.592522 
L 1100.3775 153.592522 
" clip-path="url(#pb7b506b916)" style="fill: none; stroke-dasharray: 1.85,0.8; stroke-dashoffset: 0; stroke: #000000; stroke-opacity: 0.5; stroke-width: 0.5"/>
     </g>
     <g id="line2d_76">
      <g>
       <use xlink:href="#m995922d094" x="95.9775" y="153.592522" style="stroke: #000000"/>
      </g>
     </g>
     <g id="line2d_77">
      <g>
       <use xlink:href="#mc0f7198f9b" x="1100.3775" y="153.592522" style="stroke: #000000"/>
      </g>
     </g>
     <g id="text_14">
      <!-- 0.0000 -->
      <g transform="translate(36.4925 159.671272) scale(0.16 -0.16)">
       <use xlink:href="#DejaVuSans-30"/>
       <use xlink:href="#DejaVuSans-2e" x="63.623047"/>
       <use xlink:href="#DejaVuSans-30" x="95.410156"/>
       <use xlink:href="#DejaVuSans-30" x="159.033203"/>
       <use xlink:href="#DejaVuSans-30" x="222.65625"/>
       <use xlink:href="#DejaVuSans-30" x="286.279297"/>
      </g>
     </g>
    </g>
    <g id="ytick_7">
     <g id="line2d_78">
      <path d="M 95.9775 114.222418 
L 1100.3775 114.222418 
" clip-path="url(#pb7b506b916)" style="fill: none; stroke-dasharray: 1.85,0.8; stroke-dashoffset: 0; stroke: #000000; stroke-opacity: 0.5; stroke-width: 0.5"/>
     </g>
     <g id="line2d_79">
      <g>
       <use xlink:href="#m995922d094" x="95.9775" y="114.222418" style="stroke: #000000"/>
      </g>
     </g>
     <g id="line2d_80">
      <g>
       <use xlink:href="#mc0f7198f9b" x="1100.3775" y="114.222418" style="stroke: #000000"/>
      </g>
     </g>
     <g id="text_15">
      <!-- 0.0025 -->
      <g transform="translate(36.4925 120.301168) scale(0.16 -0.16)">
       <use xlink:href="#DejaVuSans-30"/>
       <use xlink:href="#DejaVuSans-2e" x="63.623047"/>
       <use xlink:href="#DejaVuSans-30" x="95.410156"/>
       <use xlink:href="#DejaVuSans-30" x="159.033203"/>
       <use xlink:href="#DejaVuSans-32" x="222.65625"/>
       <use xlink:href="#DejaVuSans-35" x="286.279297"/>
      </g>
     </g>
    </g>
    <g id="ytick_8">
     <g id="line2d_81">
      <path d="M 95.9775 74.852314 
L 1100.3775 74.852314 
" clip-path="url(#pb7b506b916)" style="fill: none; stroke-dasharray: 1.85,0.8; stroke-dashoffset: 0; stroke: #000000; stroke-opacity: 0.5; stroke-width: 0.5"/>
     </g>
     <g id="line2d_82">
      <g>
       <use xlink:href="#m995922d094" x="95.9775" y="74.852314" style="stroke: #000000"/>
      </g>
     </g>
     <g id="line2d_83">
      <g>
       <use xlink:href="#mc0f7198f9b" x="1100.3775" y="74.852314" style="stroke: #000000"/>
      </g>
     </g>
     <g id="text_16">
      <!-- 0.0050 -->
      <g transform="translate(36.4925 80.931064) scale(0.16 -0.16)">
       <use xlink:href="#DejaVuSans-30"/>
       <use xlink:href="#DejaVuSans-2e" x="63.623047"/>
       <use xlink:href="#DejaVuSans-30" x="95.410156"/>
       <use xlink:href="#DejaVuSans-30" x="159.033203"/>
       <use xlink:href="#DejaVuSans-35" x="222.65625"/>
       <use xlink:href="#DejaVuSans-30" x="286.279297"/>
      </g>
     </g>
    </g>
    <g id="ytick_9">
     <g id="line2d_84">
      <path d="M 95.9775 35.48221 
L 1100.3775 35.48221 
" clip-path="url(#pb7b506b916)" style="fill: none; stroke-dasharray: 1.85,0.8; stroke-dashoffset: 0; stroke: #000000; stroke-opacity: 0.5; stroke-width: 0.5"/>
     </g>
     <g id="line2d_85">
      <g>
       <use xlink:href="#m995922d094" x="95.9775" y="35.48221" style="stroke: #000000"/>
      </g>
     </g>
     <g id="line2d_86">
      <g>
       <use xlink:href="#mc0f7198f9b" x="1100.3775" y="35.48221" style="stroke: #000000"/>
      </g>
     </g>
     <g id="text_17">
      <!-- 0.0075 -->
      <g transform="translate(36.4925 41.56096) scale(0.16 -0.16)">
       <use xlink:href="#DejaVuSans-30"/>
       <use xlink:href="#DejaVuSans-2e" x="63.623047"/>
       <use xlink:href="#DejaVuSans-30" x="95.410156"/>
       <use xlink:href="#DejaVuSans-30" x="159.033203"/>
       <use xlink:href="#DejaVuSans-37" x="222.65625"/>
       <use xlink:href="#DejaVuSans-35" x="286.279297"/>
      </g>
     </g>
    </g>
    <g id="ytick_10">
     <g id="line2d_87">
      <defs>
       <path id="m6748da3224" d="M 0 0 
L 3 0 
" style="stroke: #000000"/>
      </defs>
      <g>
       <use xlink:href="#m6748da3224" x="95.9775" y="342.569021" style="stroke: #000000"/>
      </g>
     </g>
     <g id="line2d_88">
      <defs>
       <path id="m3fd947fd98" d="M 0 0 
L -3 0 
" style="stroke: #000000"/>
      </defs>
      <g>
       <use xlink:href="#m3fd947fd98" x="1100.3775" y="342.569021" style="stroke: #000000"/>
      </g>
     </g>
    </g>
    <g id="ytick_11">
     <g id="line2d_89">
      <g>
       <use xlink:href="#m6748da3224" x="95.9775" y="334.695" style="stroke: #000000"/>
      </g>
     </g>
     <g id="line2d_90">
      <g>
       <use xlink:href="#m3fd947fd98" x="1100.3775" y="334.695" style="stroke: #000000"/>
      </g>
     </g>
    </g>
    <g id="ytick_12">
     <g id="line2d_91">
      <g>
       <use xlink:href="#m6748da3224" x="95.9775" y="326.820979" style="stroke: #000000"/>
      </g>
     </g>
     <g id="line2d_92">
      <g>
       <use xlink:href="#m3fd947fd98" x="1100.3775" y="326.820979" style="stroke: #000000"/>
      </g>
     </g>
    </g>
    <g id="ytick_13">
     <g id="line2d_93">
      <g>
       <use xlink:href="#m6748da3224" x="95.9775" y="318.946959" style="stroke: #000000"/>
      </g>
     </g>
     <g id="line2d_94">
      <g>
       <use xlink:href="#m3fd947fd98" x="1100.3775" y="318.946959" style="stroke: #000000"/>
      </g>
     </g>
    </g>
    <g id="ytick_14">
     <g id="line2d_95">
      <g>
       <use xlink:href="#m6748da3224" x="95.9775" y="303.198917" style="stroke: #000000"/>
      </g>
     </g>
     <g id="line2d_96">
      <g>
       <use xlink:href="#m3fd947fd98" x="1100.3775" y="303.198917" style="stroke: #000000"/>
      </g>
     </g>
    </g>
    <g id="ytick_15">
     <g id="line2d_97">
      <g>
       <use xlink:href="#m6748da3224" x="95.9775" y="295.324896" style="stroke: #000000"/>
      </g>
     </g>
     <g id="line2d_98">
      <g>
       <use xlink:href="#m3fd947fd98" x="1100.3775" y="295.324896" style="stroke: #000000"/>
      </g>
     </g>
    </g>
    <g id="ytick_16">
     <g id="line2d_99">
      <g>
       <use xlink:href="#m6748da3224" x="95.9775" y="287.450875" style="stroke: #000000"/>
      </g>
     </g>
     <g id="line2d_100">
      <g>
       <use xlink:href="#m3fd947fd98" x="1100.3775" y="287.450875" style="stroke: #000000"/>
      </g>
     </g>
    </g>
    <g id="ytick_17">
     <g id="line2d_101">
      <g>
       <use xlink:href="#m6748da3224" x="95.9775" y="279.576855" style="stroke: #000000"/>
      </g>
     </g>
     <g id="line2d_102">
      <g>
       <use xlink:href="#m3fd947fd98" x="1100.3775" y="279.576855" style="stroke: #000000"/>
      </g>
     </g>
    </g>
    <g id="ytick_18">
     <g id="line2d_103">
      <g>
       <use xlink:href="#m6748da3224" x="95.9775" y="263.828813" style="stroke: #000000"/>
      </g>
     </g>
     <g id="line2d_104">
      <g>
       <use xlink:href="#m3fd947fd98" x="1100.3775" y="263.828813" style="stroke: #000000"/>
      </g>
     </g>
    </g>
    <g id="ytick_19">
     <g id="line2d_105">
      <g>
       <use xlink:href="#m6748da3224" x="95.9775" y="255.954792" style="stroke: #000000"/>
      </g>
     </g>
     <g id="line2d_106">
      <g>
       <use xlink:href="#m3fd947fd98" x="1100.3775" y="255.954792" style="stroke: #000000"/>
      </g>
     </g>
    </g>
    <g id="ytick_20">
     <g id="line2d_107">
      <g>
       <use xlink:href="#m6748da3224" x="95.9775" y="248.080771" style="stroke: #000000"/>
      </g>
     </g>
     <g id="line2d_108">
      <g>
       <use xlink:href="#m3fd947fd98" x="1100.3775" y="248.080771" style="stroke: #000000"/>
      </g>
     </g>
    </g>
    <g id="ytick_21">
     <g id="line2d_109">
      <g>
       <use xlink:href="#m6748da3224" x="95.9775" y="240.206751" style="stroke: #000000"/>
      </g>
     </g>
     <g id="line2d_110">
      <g>
       <use xlink:href="#m3fd947fd98" x="1100.3775" y="240.206751" style="stroke: #000000"/>
      </g>
     </g>
    </g>
    <g id="ytick_22">
     <g id="line2d_111">
      <g>
       <use xlink:href="#m6748da3224" x="95.9775" y="224.458709" style="stroke: #000000"/>
      </g>
     </g>
     <g id="line2d_112">
      <g>
       <use xlink:href="#m3fd947fd98" x="1100.3775" y="224.458709" style="stroke: #000000"/>
      </g>
     </g>
    </g>
    <g id="ytick_23">
     <g id="line2d_113">
      <g>
       <use xlink:href="#m6748da3224" x="95.9775" y="216.584688" style="stroke: #000000"/>
      </g>
     </g>
     <g id="line2d_114">
      <g>
       <use xlink:href="#m3fd947fd98" x="1100.3775" y="216.584688" style="stroke: #000000"/>
      </g>
     </g>
    </g>
    <g id="ytick_24">
     <g id="line2d_115">
      <g>
       <use xlink:href="#m6748da3224" x="95.9775" y="208.710667" style="stroke: #000000"/>
      </g>
     </g>
     <g id="line2d_116">
      <g>
       <use xlink:href="#m3fd947fd98" x="1100.3775" y="208.710667" style="stroke: #000000"/>
      </g>
     </g>
    </g>
    <g id="ytick_25">
     <g id="line2d_117">
      <g>
       <use xlink:href="#m6748da3224" x="95.9775" y="200.836647" style="stroke: #000000"/>
      </g>
     </g>
     <g id="line2d_118">
      <g>
       <use xlink:href="#m3fd947fd98" x="1100.3775" y="200.836647" style="stroke: #000000"/>
      </g>
     </g>
    </g>
    <g id="ytick_26">
     <g id="line2d_119">
      <g>
       <use xlink:href="#m6748da3224" x="95.9775" y="185.088605" style="stroke: #000000"/>
      </g>
     </g>
     <g id="line2d_120">
      <g>
       <use xlink:href="#m3fd947fd98" x="1100.3775" y="185.088605" style="stroke: #000000"/>
      </g>
     </g>
    </g>
    <g id="ytick_27">
     <g id="line2d_121">
      <g>
       <use xlink:href="#m6748da3224" x="95.9775" y="177.214584" style="stroke: #000000"/>
      </g>
     </g>
     <g id="line2d_122">
      <g>
       <use xlink:href="#m3fd947fd98" x="1100.3775" y="177.214584" style="stroke: #000000"/>
      </g>
     </g>
    </g>
    <g id="ytick_28">
     <g id="line2d_123">
      <g>
       <use xlink:href="#m6748da3224" x="95.9775" y="169.340563" style="stroke: #000000"/>
      </g>
     </g>
     <g id="line2d_124">
      <g>
       <use xlink:href="#m3fd947fd98" x="1100.3775" y="169.340563" style="stroke: #000000"/>
      </g>
     </g>
    </g>
    <g id="ytick_29">
     <g id="line2d_125">
      <g>
       <use xlink:href="#m6748da3224" x="95.9775" y="161.466543" style="stroke: #000000"/>
      </g>
     </g>
     <g id="line2d_126">
      <g>
       <use xlink:href="#m3fd947fd98" x="1100.3775" y="161.466543" style="stroke: #000000"/>
      </g>
     </g>
    </g>
    <g id="ytick_30">
     <g id="line2d_127">
      <g>
       <use xlink:href="#m6748da3224" x="95.9775" y="145.718501" style="stroke: #000000"/>
      </g>
     </g>
     <g id="line2d_128">
      <g>
       <use xlink:href="#m3fd947fd98" x="1100.3775" y="145.718501" style="stroke: #000000"/>
      </g>
     </g>
    </g>
    <g id="ytick_31">
     <g id="line2d_129">
      <g>
       <use xlink:href="#m6748da3224" x="95.9775" y="137.84448" style="stroke: #000000"/>
      </g>
     </g>
     <g id="line2d_130">
      <g>
       <use xlink:href="#m3fd947fd98" x="1100.3775" y="137.84448" style="stroke: #000000"/>
      </g>
     </g>
    </g>
    <g id="ytick_32">
     <g id="line2d_131">
      <g>
       <use xlink:href="#m6748da3224" x="95.9775" y="129.970459" style="stroke: #000000"/>
      </g>
     </g>
     <g id="line2d_132">
      <g>
       <use xlink:href="#m3fd947fd98" x="1100.3775" y="129.970459" style="stroke: #000000"/>
      </g>
     </g>
    </g>
    <g id="ytick_33">
     <g id="line2d_133">
      <g>
       <use xlink:href="#m6748da3224" x="95.9775" y="122.096439" style="stroke: #000000"/>
      </g>
     </g>
     <g id="line2d_134">
      <g>
       <use xlink:href="#m3fd947fd98" x="1100.3775" y="122.096439" style="stroke: #000000"/>
      </g>
     </g>
    </g>
    <g id="ytick_34">
     <g id="line2d_135">
      <g>
       <use xlink:href="#m6748da3224" x="95.9775" y="106.348397" style="stroke: #000000"/>
      </g>
     </g>
     <g id="line2d_136">
      <g>
       <use xlink:href="#m3fd947fd98" x="1100.3775" y="106.348397" style="stroke: #000000"/>
      </g>
     </g>
    </g>
    <g id="ytick_35">
     <g id="line2d_137">
      <g>
       <use xlink:href="#m6748da3224" x="95.9775" y="98.474376" style="stroke: #000000"/>
      </g>
     </g>
     <g id="line2d_138">
      <g>
       <use xlink:href="#m3fd947fd98" x="1100.3775" y="98.474376" style="stroke: #000000"/>
      </g>
     </g>
    </g>
    <g id="ytick_36">
     <g id="line2d_139">
      <g>
       <use xlink:href="#m6748da3224" x="95.9775" y="90.600355" style="stroke: #000000"/>
      </g>
     </g>
     <g id="line2d_140">
      <g>
       <use xlink:href="#m3fd947fd98" x="1100.3775" y="90.600355" style="stroke: #000000"/>
      </g>
     </g>
    </g>
    <g id="ytick_37">
     <g id="line2d_141">
      <g>
       <use xlink:href="#m6748da3224" x="95.9775" y="82.726334" style="stroke: #000000"/>
      </g>
     </g>
     <g id="line2d_142">
      <g>
       <use xlink:href="#m3fd947fd98" x="1100.3775" y="82.726334" style="stroke: #000000"/>
      </g>
     </g>
    </g>
    <g id="ytick_38">
     <g id="line2d_143">
      <g>
       <use xlink:href="#m6748da3224" x="95.9775" y="66.978293" style="stroke: #000000"/>
      </g>
     </g>
     <g id="line2d_144">
      <g>
       <use xlink:href="#m3fd947fd98" x="1100.3775" y="66.978293" style="stroke: #000000"/>
      </g>
     </g>
    </g>
    <g id="ytick_39">
     <g id="line2d_145">
      <g>
       <use xlink:href="#m6748da3224" x="95.9775" y="59.104272" style="stroke: #000000"/>
      </g>
     </g>
     <g id="line2d_146">
      <g>
       <use xlink:href="#m3fd947fd98" x="1100.3775" y="59.104272" style="stroke: #000000"/>
      </g>
     </g>
    </g>
    <g id="ytick_40">
     <g id="line2d_147">
      <g>
       <use xlink:href="#m6748da3224" x="95.9775" y="51.230251" style="stroke: #000000"/>
      </g>
     </g>
     <g id="line2d_148">
      <g>
       <use xlink:href="#m3fd947fd98" x="1100.3775" y="51.230251" style="stroke: #000000"/>
      </g>
     </g>
    </g>
    <g id="ytick_41">
     <g id="line2d_149">
      <g>
       <use xlink:href="#m6748da3224" x="95.9775" y="43.35623" style="stroke: #000000"/>
      </g>
     </g>
     <g id="line2d_150">
      <g>
       <use xlink:href="#m3fd947fd98" x="1100.3775" y="43.35623" style="stroke: #000000"/>
      </g>
     </g>
    </g>
    <g id="ytick_42">
     <g id="line2d_151">
      <g>
       <use xlink:href="#m6748da3224" x="95.9775" y="27.608189" style="stroke: #000000"/>
      </g>
     </g>
     <g id="line2d_152">
      <g>
       <use xlink:href="#m3fd947fd98" x="1100.3775" y="27.608189" style="stroke: #000000"/>
      </g>
     </g>
    </g>
    <g id="text_18">
     <!-- IDR (%) -->
     <g transform="translate(15.7575 218.5425) rotate(-90) scale(0.16 -0.16)">
      <defs>
       <path id="DejaVuSans-49" d="M 628 4666 
L 1259 4666 
L 1259 0 
L 628 0 
L 628 4666 
z
" transform="scale(0.015625)"/>
       <path id="DejaVuSans-44" d="M 1259 4147 
L 1259 519 
L 2022 519 
Q 2988 519 3436 956 
Q 3884 1394 3884 2338 
Q 3884 3275 3436 3711 
Q 2988 4147 2022 4147 
L 1259 4147 
z
M 628 4666 
L 1925 4666 
Q 3281 4666 3915 4102 
Q 4550 3538 4550 2338 
Q 4550 1131 3912 565 
Q 3275 0 1925 0 
L 628 0 
L 628 4666 
z
" transform="scale(0.015625)"/>
       <path id="DejaVuSans-52" d="M 2841 2188 
Q 3044 2119 3236 1894 
Q 3428 1669 3622 1275 
L 4263 0 
L 3584 0 
L 2988 1197 
Q 2756 1666 2539 1819 
Q 2322 1972 1947 1972 
L 1259 1972 
L 1259 0 
L 628 0 
L 628 4666 
L 2053 4666 
Q 2853 4666 3247 4331 
Q 3641 3997 3641 3322 
Q 3641 2881 3436 2590 
Q 3231 2300 2841 2188 
z
M 1259 4147 
L 1259 2491 
L 2053 2491 
Q 2509 2491 2742 2702 
Q 2975 2913 2975 3322 
Q 2975 3731 2742 3939 
Q 2509 4147 2053 4147 
L 1259 4147 
z
" transform="scale(0.015625)"/>
       <path id="DejaVuSans-20" transform="scale(0.015625)"/>
       <path id="DejaVuSans-25" d="M 4653 2053 
Q 4381 2053 4226 1822 
Q 4072 1591 4072 1178 
Q 4072 772 4226 539 
Q 4381 306 4653 306 
Q 4919 306 5073 539 
Q 5228 772 5228 1178 
Q 5228 1588 5073 1820 
Q 4919 2053 4653 2053 
z
M 4653 2450 
Q 5147 2450 5437 2106 
Q 5728 1763 5728 1178 
Q 5728 594 5436 251 
Q 5144 -91 4653 -91 
Q 4153 -91 3862 251 
Q 3572 594 3572 1178 
Q 3572 1766 3864 2108 
Q 4156 2450 4653 2450 
z
M 1428 4353 
Q 1159 4353 1004 4120 
Q 850 3888 850 3481 
Q 850 3069 1003 2837 
Q 1156 2606 1428 2606 
Q 1700 2606 1854 2837 
Q 2009 3069 2009 3481 
Q 2009 3884 1853 4118 
Q 1697 4353 1428 4353 
z
M 4250 4750 
L 4750 4750 
L 1831 -91 
L 1331 -91 
L 4250 4750 
z
M 1428 4750 
Q 1922 4750 2215 4408 
Q 2509 4066 2509 3481 
Q 2509 2891 2217 2550 
Q 1925 2209 1428 2209 
Q 931 2209 642 2551 
Q 353 2894 353 3481 
Q 353 4063 643 4406 
Q 934 4750 1428 4750 
z
" transform="scale(0.015625)"/>
      </defs>
      <use xlink:href="#DejaVuSans-49"/>
      <use xlink:href="#DejaVuSans-44" x="29.492188"/>
      <use xlink:href="#DejaVuSans-52" x="106.494141"/>
      <use xlink:href="#DejaVuSans-20" x="175.976562"/>
      <use xlink:href="#DejaVuSans-28" x="207.763672"/>
      <use xlink:href="#DejaVuSans-25" x="246.777344"/>
      <use xlink:href="#DejaVuSans-29" x="341.796875"/>
     </g>
    </g>
   </g>
   <g id="line2d_153">
    <path d="M 141.632045 153.592522 
L 142.413801 153.738656 
L 143.195557 154.266998 
L 144.759069 155.610831 
L 145.540825 155.972623 
L 146.322581 155.953108 
L 147.104337 155.5938 
L 149.449605 153.904654 
L 150.231361 153.740819 
L 151.013116 153.937705 
L 153.358384 155.385067 
L 154.14014 155.548367 
L 154.921896 155.372085 
L 155.703652 154.926486 
L 157.267164 153.777307 
L 158.04892 153.437584 
L 158.830676 153.382892 
L 159.612432 153.630393 
L 162.739455 155.542691 
L 163.521211 155.758855 
L 164.302967 155.794256 
L 165.084723 155.648493 
L 168.993502 154.258426 
L 169.775258 153.910588 
L 170.557014 153.280218 
L 171.33877 152.278161 
L 174.465794 147.13739 
L 175.24755 146.847042 
L 176.029306 147.503593 
L 176.811062 149.127667 
L 178.374573 153.473611 
L 179.156329 154.834027 
L 179.938085 155.023611 
L 180.719841 154.061441 
L 181.501597 152.283111 
L 182.283353 150.223803 
L 183.065109 148.635337 
L 183.846865 148.188391 
L 184.628621 149.515125 
L 185.410377 152.442799 
L 186.973889 159.952273 
L 187.755644 162.48741 
L 188.5374 163.295787 
L 189.319156 162.366281 
L 190.100912 160.15469 
L 191.664424 155.08994 
L 192.44618 153.729034 
L 193.227936 153.46819 
L 194.009692 154.106076 
L 195.573204 156.024931 
L 196.35496 156.241396 
L 197.136715 155.56501 
L 197.918471 153.983642 
L 199.481983 149.057231 
L 200.263739 146.602071 
L 201.045495 144.828959 
L 201.827251 144.067062 
L 202.609007 144.347511 
L 203.390763 145.542341 
L 204.172519 147.525032 
L 205.736031 152.964665 
L 207.299542 158.7431 
L 208.081298 161.16709 
L 208.863054 162.334856 
L 209.64481 161.648627 
L 210.426566 159.323543 
L 211.990078 153.099891 
L 212.771834 150.893914 
L 213.55359 149.635376 
L 215.117101 147.827758 
L 215.898857 146.323005 
L 217.462369 141.925422 
L 218.244125 139.835998 
L 219.025881 138.94659 
L 219.807637 140.367305 
L 220.589393 144.34326 
L 222.934661 160.708103 
L 223.716417 163.365229 
L 224.498172 163.597687 
L 225.279928 161.681143 
L 227.625196 152.322993 
L 228.406952 150.512428 
L 229.188708 149.43049 
L 230.75222 147.97624 
L 231.533976 146.797048 
L 233.097488 143.591901 
L 233.879243 143.354653 
L 234.660999 145.262617 
L 235.442755 149.108983 
L 237.788023 163.574416 
L 238.569779 165.958405 
L 239.351535 165.927862 
L 240.133291 163.521885 
L 241.696803 155.6321 
L 242.478559 152.463662 
L 243.260314 150.691963 
L 244.04207 150.416818 
L 244.823826 151.181612 
L 245.605582 152.151981 
L 246.387338 152.5695 
L 247.169094 152.173486 
L 247.95085 151.401487 
L 248.732606 150.999215 
L 249.514362 151.458641 
L 251.077874 153.742271 
L 251.85963 154.232431 
L 252.641385 153.790041 
L 254.204897 151.987941 
L 254.986653 151.938856 
L 255.768409 152.866694 
L 257.331921 156.202391 
L 258.113677 157.465579 
L 258.895433 157.915867 
L 259.677189 157.462767 
L 260.458945 156.303858 
L 261.2407 154.749577 
L 262.022456 152.903012 
L 264.367724 146.242389 
L 265.14948 144.619793 
L 265.931236 143.729296 
L 266.712992 143.686001 
L 267.494748 145.072801 
L 268.276504 148.582744 
L 270.621771 164.702587 
L 271.403527 166.527118 
L 272.185283 164.885024 
L 272.967039 160.460944 
L 274.530551 149.268152 
L 275.312307 145.646169 
L 276.094063 144.087034 
L 276.875819 143.873556 
L 278.439331 144.430634 
L 279.221087 144.957626 
L 280.002842 146.360588 
L 281.566354 151.013744 
L 282.34811 152.066595 
L 283.129866 151.03855 
L 283.911622 148.208804 
L 284.693378 144.641741 
L 285.475134 142.009718 
L 286.25689 141.71177 
L 287.038646 144.045315 
L 287.820402 148.474035 
L 289.383913 158.757736 
L 290.165669 162.306857 
L 290.947425 164.416231 
L 291.729181 165.516478 
L 293.292693 167.053807 
L 294.074449 168.297607 
L 295.637961 171.30017 
L 296.419717 171.222617 
L 297.201473 168.778972 
L 297.983229 164.347697 
L 298.764984 159.253243 
L 299.54674 155.173856 
L 300.328496 153.336263 
L 301.110252 153.80828 
L 301.892008 155.422114 
L 302.673764 156.484968 
L 303.45552 155.887491 
L 305.019032 152.285627 
L 305.800788 152.574115 
L 306.582544 155.513843 
L 307.3643 161.020077 
L 309.709567 182.837242 
L 311.273079 193.884984 
L 312.836591 203.484943 
L 313.618347 207.228194 
L 314.400103 208.407157 
L 315.181859 205.412955 
L 315.963615 198.158164 
L 319.090638 158.437261 
L 319.872394 153.758365 
L 320.65415 152.823669 
L 321.435906 154.873941 
L 323.781174 165.190978 
L 324.56293 169.611247 
L 325.344686 175.49898 
L 326.908197 189.757898 
L 327.689953 194.652712 
L 328.471709 194.892573 
L 329.253465 188.684319 
L 330.035221 175.65396 
L 331.598733 139.9163 
L 332.380489 127.741205 
L 333.162245 125.672547 
L 333.944001 134.857748 
L 336.289268 187.730528 
L 337.071024 192.961622 
L 337.85278 186.901903 
L 338.634536 172.080736 
L 340.198048 137.250059 
L 340.979804 127.779255 
L 341.76156 126.691646 
L 342.543316 132.201551 
L 343.325072 140.474869 
L 344.106828 146.756013 
L 344.888583 146.758132 
L 345.670339 138.523742 
L 346.452095 123.27498 
L 348.015607 85.533196 
L 348.797363 70.502547 
L 349.579119 60.862536 
L 350.360875 55.831617 
L 351.142631 54.252724 
L 351.924387 56.450292 
L 352.706143 62.398111 
L 354.269654 78.801166 
L 355.05141 85.568681 
L 355.833166 89.734099 
L 356.614922 91.360658 
L 357.396678 91.98568 
L 358.178434 94.257383 
L 358.96019 100.170573 
L 361.305458 128.843367 
L 362.087214 132.857153 
L 362.868969 132.020019 
L 363.650725 128.369188 
L 364.432481 125.857693 
L 365.214237 127.897093 
L 365.995993 135.548793 
L 366.777749 146.72115 
L 367.559505 155.88672 
L 368.341261 157.151048 
L 369.123017 147.860774 
L 369.904773 129.438959 
L 370.686529 106.932776 
L 371.468285 87.886828 
L 372.25004 78.650199 
L 373.031796 81.419841 
L 373.813552 95.068909 
L 376.15882 155.873727 
L 376.940576 165.735767 
L 377.722332 168.619932 
L 378.504088 169.867873 
L 379.285844 177.152311 
L 380.0676 196.533447 
L 380.849356 228.830973 
L 382.412867 306.389032 
L 383.194623 332.350927 
L 383.976379 339.2775 
L 384.758135 324.588932 
L 385.539891 290.50234 
L 386.321647 242.39706 
L 387.885159 132.634587 
L 388.666915 87.224244 
L 389.448671 56.241794 
L 390.230427 40.510276 
L 391.012182 36.8775 
L 391.793938 40.72281 
L 392.575694 48.919703 
L 393.35745 61.179124 
L 394.139206 79.246713 
L 395.702718 130.905662 
L 396.484474 156.447699 
L 397.26623 175.356036 
L 398.047986 185.815943 
L 398.829742 189.227684 
L 399.611498 189.618531 
L 400.393253 191.941537 
L 401.175009 199.668784 
L 403.520277 238.4169 
L 404.302033 239.319136 
L 405.083789 229.342784 
L 405.865545 211.101708 
L 407.429057 169.569101 
L 408.210813 155.995056 
L 408.992568 150.183849 
L 409.774324 150.523808 
L 410.55608 153.409738 
L 411.337836 154.868903 
L 412.119592 152.66206 
L 412.901348 147.945979 
L 413.683104 144.944415 
L 414.46486 148.382563 
L 415.246616 160.209453 
L 417.591884 213.177167 
L 418.373639 218.502859 
L 419.155395 213.090039 
L 419.937151 197.739161 
L 421.500663 153.59835 
L 422.282419 136.734917 
L 423.064175 129.552944 
L 423.845931 132.610168 
L 424.627687 142.781671 
L 425.409443 155.236687 
L 426.191199 165.031829 
L 426.972955 168.477894 
L 427.75471 164.270289 
L 428.536466 153.719742 
L 430.099978 127.535472 
L 430.881734 119.195597 
L 431.66349 117.839813 
L 432.445246 125.324566 
L 433.227002 140.459688 
L 434.790514 176.700484 
L 435.57227 187.999326 
L 436.354026 191.001977 
L 437.135781 186.438708 
L 437.917537 176.463441 
L 439.481049 151.181455 
L 440.262805 141.541686 
L 441.044561 136.939451 
L 441.826317 139.338361 
L 442.608073 149.048874 
L 444.953341 192.661997 
L 445.735097 201.130186 
L 446.516852 204.217523 
L 447.298608 203.390674 
L 448.080364 201.384459 
L 448.86212 201.021328 
L 449.643876 203.964048 
L 450.425632 209.4511 
L 451.207388 213.572981 
L 451.989144 211.58219 
L 452.7709 201.289338 
L 453.552656 184.085187 
L 454.334412 164.344492 
L 455.116167 147.615426 
L 455.897923 137.760745 
L 456.679679 135.580657 
L 457.461435 138.691699 
L 458.243191 142.895093 
L 459.024947 144.127061 
L 459.806703 140.424314 
L 461.370215 125.798338 
L 462.151971 120.980316 
L 462.933727 120.927188 
L 463.715483 126.542464 
L 464.497238 136.813607 
L 466.06075 161.077871 
L 466.842506 170.653353 
L 467.624262 175.456631 
L 468.406018 173.562213 
L 469.187774 164.915453 
L 471.533042 127.25352 
L 472.314798 121.959214 
L 473.096554 122.593024 
L 473.878309 128.444893 
L 474.660065 138.293098 
L 475.441821 149.611771 
L 476.223577 159.208308 
L 477.005333 164.374015 
L 477.787089 163.724514 
L 478.568845 157.961368 
L 480.132357 140.851234 
L 480.914113 134.788409 
L 481.695869 132.66255 
L 482.477625 134.497655 
L 483.25938 139.026389 
L 484.041136 144.24576 
L 484.822892 147.865555 
L 485.604648 147.972957 
L 486.386404 143.801875 
L 488.731672 121.98517 
L 489.513428 120.253353 
L 490.295184 122.927701 
L 491.07694 127.950761 
L 491.858696 132.097602 
L 492.640451 132.875361 
L 493.422207 129.728803 
L 494.203963 124.532932 
L 494.985719 120.900245 
L 495.767475 122.190102 
L 496.549231 129.56838 
L 497.330987 142.109052 
L 498.894499 171.287879 
L 499.676255 181.61031 
L 500.458011 186.741863 
L 501.239767 186.530252 
L 502.021522 181.377069 
L 502.803278 172.024096 
L 504.36679 145.69324 
L 505.148546 132.165528 
L 505.930302 120.903546 
L 506.712058 113.280951 
L 507.493814 110.360024 
L 508.27557 112.365058 
L 509.057326 117.809286 
L 510.620837 131.077075 
L 511.402593 136.528326 
L 512.184349 140.08559 
L 512.966105 140.975225 
L 513.747861 138.51834 
L 514.529617 132.977991 
L 516.093129 118.685432 
L 516.874885 114.204377 
L 517.656641 114.6611 
L 518.438397 121.71247 
L 519.220153 134.950579 
L 520.783664 167.812847 
L 521.56542 179.373967 
L 522.347176 184.015156 
L 523.128932 182.154673 
L 523.910688 176.042017 
L 525.4742 162.12531 
L 526.255956 157.262704 
L 527.037712 153.82316 
L 529.382979 146.688227 
L 531.728247 137.304333 
L 532.510003 136.327034 
L 533.291759 137.521364 
L 534.073515 141.153841 
L 534.855271 147.404531 
L 536.418783 163.946783 
L 537.200539 170.596857 
L 537.982295 174.001828 
L 538.76405 173.838042 
L 539.545806 170.853145 
L 541.109318 161.569175 
L 541.891074 158.113233 
L 542.67283 156.419235 
L 543.454586 155.976047 
L 544.236342 155.883595 
L 545.018098 155.304876 
L 545.799854 153.717495 
L 546.58161 151.081645 
L 548.145121 144.651786 
L 548.926877 142.543829 
L 549.708633 142.121681 
L 550.490389 143.341442 
L 551.272145 145.724562 
L 552.835657 151.109539 
L 554.399169 155.140652 
L 555.180925 157.986905 
L 555.962681 161.885887 
L 557.526192 170.559412 
L 558.307948 173.357382 
L 559.089704 174.173026 
L 559.87146 172.303575 
L 560.653216 167.387595 
L 563.78024 139.526594 
L 564.561996 136.187941 
L 565.343752 134.964879 
L 566.125507 135.231284 
L 566.907263 136.056988 
L 567.689019 136.712536 
L 568.470775 137.555811 
L 569.252531 139.437105 
L 570.034287 142.748387 
L 570.816043 147.960818 
L 571.597799 155.718234 
L 573.943067 186.410617 
L 574.724823 192.048854 
L 575.506578 191.084941 
L 576.288334 182.660886 
L 577.07009 168.507051 
L 578.633602 137.66839 
L 579.415358 127.379121 
L 580.197114 122.489381 
L 580.97887 122.699351 
L 581.760626 126.537653 
L 582.542382 131.646253 
L 583.324138 135.501725 
L 584.105894 136.771664 
L 584.887649 135.608427 
L 585.669405 133.031929 
L 586.451161 130.845812 
L 587.232917 131.352855 
L 588.014673 136.163244 
L 588.796429 145.020357 
L 590.359941 167.099601 
L 591.141697 175.463688 
L 591.923453 179.954471 
L 592.705209 180.33699 
L 593.486965 177.433148 
L 594.26872 173.059898 
L 595.050476 169.318132 
L 595.832232 167.550559 
L 596.613988 168.206976 
L 597.395744 170.911765 
L 598.959256 177.881348 
L 599.741012 179.666034 
L 600.522768 179.384698 
L 601.304524 177.123093 
L 603.649791 166.474636 
L 604.431547 164.99668 
L 605.213303 165.369494 
L 605.995059 167.104207 
L 606.776815 169.15068 
L 607.558571 170.299628 
L 608.340327 169.733496 
L 609.122083 167.456748 
L 610.685595 160.992546 
L 611.467351 158.934556 
L 612.249106 158.682739 
L 613.030862 160.389538 
L 613.812618 163.595544 
L 615.37613 171.068462 
L 616.157886 174.12706 
L 616.939642 176.458681 
L 617.721398 178.02724 
L 618.503154 178.888021 
L 619.28491 179.242225 
L 620.066666 179.266937 
L 620.848422 178.66465 
L 621.630177 176.509622 
L 622.411933 172.285292 
L 623.193689 166.324145 
L 625.538957 144.790203 
L 626.320713 139.281274 
L 627.102469 135.963656 
L 627.884225 134.933975 
L 628.665981 135.539118 
L 629.447737 136.658578 
L 630.229493 137.267627 
L 631.011248 136.65412 
L 631.793004 134.667685 
L 633.356516 129.128956 
L 634.138272 127.390943 
L 634.920028 127.618189 
L 635.701784 130.736416 
L 636.48354 136.738538 
L 638.047052 151.876145 
L 638.828808 157.774366 
L 639.610564 161.09112 
L 640.392319 161.641538 
L 641.174075 159.780466 
L 642.737587 152.875672 
L 643.519343 150.914101 
L 644.301099 151.949449 
L 645.082855 156.136894 
L 645.864611 162.592245 
L 647.428123 177.326235 
L 648.209879 183.035349 
L 648.991634 186.175958 
L 649.77339 185.566483 
L 650.555146 180.354498 
L 651.336902 170.47472 
L 652.900414 144.507811 
L 653.68217 134.175484 
L 654.463926 128.466361 
L 655.245682 127.68326 
L 656.027438 131.474709 
L 656.809194 139.14898 
L 658.372705 157.997277 
L 659.154461 164.777244 
L 659.936217 168.31911 
L 660.717973 168.751504 
L 661.499729 166.997754 
L 663.063241 161.765997 
L 663.844997 160.286207 
L 664.626753 159.987223 
L 665.408509 160.29826 
L 666.190265 160.449303 
L 666.972021 159.774834 
L 667.753776 157.836299 
L 668.535532 154.612989 
L 670.099044 146.470775 
L 670.8808 143.317166 
L 671.662556 141.70941 
L 672.444312 141.670415 
L 673.226068 142.682304 
L 674.007824 144.007641 
L 674.78958 144.879995 
L 675.571336 144.86097 
L 677.916603 142.588955 
L 678.698359 142.533172 
L 680.261871 142.955096 
L 681.043627 142.650632 
L 681.825383 141.51371 
L 682.607139 139.227241 
L 684.170651 132.59791 
L 684.952407 130.116003 
L 685.734163 129.536031 
L 686.515918 131.06662 
L 687.297674 134.160961 
L 688.861186 141.228285 
L 689.642942 143.474836 
L 690.424698 144.796262 
L 691.206454 145.808882 
L 691.98821 147.17859 
L 692.769966 149.444283 
L 693.551722 152.890982 
L 695.896989 165.998361 
L 696.678745 167.135216 
L 697.460501 165.228108 
L 698.242257 160.978293 
L 699.805769 150.443508 
L 700.587525 146.92941 
L 701.369281 146.189164 
L 702.151037 148.887897 
L 702.932793 154.654025 
L 704.496304 168.067644 
L 705.27806 171.549638 
L 706.059816 171.492544 
L 706.841572 168.594785 
L 707.623328 164.661461 
L 708.405084 161.762553 
L 709.18684 161.35775 
L 709.968596 163.7327 
L 712.313864 177.056485 
L 713.09562 177.956635 
L 713.877375 174.896168 
L 714.659131 168.365263 
L 716.222643 149.975148 
L 717.004399 140.693235 
L 717.786155 132.998496 
L 718.567911 127.818765 
L 719.349667 125.51385 
L 720.131423 125.607837 
L 720.913179 127.029656 
L 722.476691 130.464352 
L 724.040202 132.722356 
L 724.821958 134.778617 
L 725.603714 138.640259 
L 726.38547 144.258267 
L 727.948982 157.387702 
L 728.730738 162.57829 
L 729.512494 165.498323 
L 730.29425 165.2662 
L 731.076006 161.76959 
L 732.639517 150.527053 
L 733.421273 147.255295 
L 734.203029 147.655175 
L 734.984785 151.614677 
L 736.548297 164.46101 
L 737.330053 169.27331 
L 738.111809 170.925967 
L 738.893565 168.935464 
L 739.675321 163.967571 
L 741.238833 151.545717 
L 742.020588 146.520089 
L 742.802344 143.041915 
L 743.5841 141.205355 
L 744.365856 140.758713 
L 745.147612 141.169323 
L 745.929368 141.791053 
L 747.49288 142.805612 
L 748.274636 143.737434 
L 749.056392 145.180659 
L 749.838148 147.200127 
L 750.619903 149.773871 
L 752.183415 155.914931 
L 753.746927 162.795336 
L 756.092195 173.438325 
L 756.873951 176.118704 
L 757.655707 177.930169 
L 758.437463 178.273449 
L 759.219219 176.713081 
L 760.000974 173.403528 
L 760.78273 168.857858 
L 763.127998 153.0311 
L 763.909754 148.791086 
L 764.69151 145.46984 
L 765.473266 142.860292 
L 766.255022 140.851667 
L 767.036778 139.874691 
L 767.818534 140.573815 
L 768.60029 142.780189 
L 770.163801 148.667826 
L 770.945557 150.744449 
L 771.727313 151.630115 
L 772.509069 151.517362 
L 773.290825 150.981942 
L 774.072581 150.73674 
L 774.854337 151.166099 
L 776.417849 153.04356 
L 777.199605 153.309901 
L 777.981361 152.910111 
L 780.326628 150.310009 
L 781.108384 150.015752 
L 781.89014 150.18007 
L 783.453652 150.941854 
L 784.235408 150.891857 
L 785.017164 150.246399 
L 785.79892 148.990797 
L 786.580676 147.251678 
L 788.925943 141.114963 
L 789.707699 140.105065 
L 790.489455 140.536733 
L 791.271211 142.447542 
L 792.052967 145.6004 
L 792.834723 149.964128 
L 795.179991 165.390669 
L 795.961747 169.174036 
L 796.743502 171.788615 
L 797.525258 173.216513 
L 798.307014 173.287365 
L 799.08877 171.906613 
L 799.870526 169.458974 
L 801.434038 163.241669 
L 802.99755 157.089841 
L 803.779306 154.690601 
L 804.561062 152.945675 
L 805.342818 151.828751 
L 806.124573 151.158546 
L 807.688085 150.218827 
L 808.469841 149.653733 
L 809.251597 149.239808 
L 810.033353 149.428366 
L 810.815109 150.534964 
L 811.596865 152.53841 
L 813.942133 159.921514 
L 814.723889 161.34309 
L 815.505644 161.798013 
L 816.2874 161.403559 
L 818.632668 158.938366 
L 820.19618 158.031895 
L 820.977936 157.567703 
L 821.759692 156.728835 
L 822.541448 155.36985 
L 824.10496 152.17013 
L 824.886715 151.251127 
L 825.668471 151.19864 
L 826.450227 151.998796 
L 827.231983 153.564836 
L 829.577251 159.455867 
L 830.359007 160.827747 
L 831.140763 161.742505 
L 831.922519 162.05023 
L 832.704275 161.485657 
L 833.486031 159.972995 
L 835.049542 155.23146 
L 836.613054 150.653681 
L 837.39481 149.09155 
L 838.176566 148.098266 
L 838.958322 147.541077 
L 841.30359 146.487379 
L 842.867101 145.988386 
L 844.430613 145.897463 
L 845.212369 146.072463 
L 845.994125 146.405516 
L 846.775881 146.947451 
L 847.557637 147.685316 
L 850.684661 151.13952 
L 851.466417 151.511275 
L 852.248172 151.501631 
L 853.029928 151.030228 
L 855.375196 148.366964 
L 856.156952 147.920521 
L 856.938708 148.112568 
L 857.720464 149.123075 
L 858.50222 151.093354 
L 859.283976 153.872304 
L 860.847488 160.254564 
L 861.629243 163.001054 
L 862.410999 164.994391 
L 863.192755 165.930494 
L 863.974511 165.58228 
L 864.756267 163.988447 
L 865.538023 161.546072 
L 867.883291 152.870298 
L 868.665047 150.510001 
L 869.446803 148.725497 
L 870.228559 147.529696 
L 871.010314 146.816447 
L 871.79207 146.502183 
L 872.573826 146.53128 
L 873.355582 146.834065 
L 874.137338 147.372527 
L 874.919094 148.229895 
L 875.70085 149.51182 
L 877.264362 152.835648 
L 878.046118 154.054434 
L 878.827874 154.426254 
L 879.60963 153.883406 
L 881.173141 151.74311 
L 881.954897 151.335486 
L 882.736653 151.7471 
L 884.300165 153.309947 
L 885.081921 153.291262 
L 885.863677 152.362004 
L 886.645433 150.745181 
L 887.427189 148.845655 
L 888.208945 147.290346 
L 888.9907 146.855073 
L 889.772456 148.267229 
L 890.554212 151.577394 
L 892.117724 160.478778 
L 892.89948 163.867405 
L 893.681236 165.555337 
L 894.462992 165.466588 
L 895.244748 164.06881 
L 896.026504 162.192756 
L 896.80826 160.667207 
L 897.590016 159.761982 
L 899.153527 158.422793 
L 899.935283 157.319334 
L 900.717039 155.553836 
L 903.062307 147.870845 
L 903.844063 147.100352 
L 904.625819 148.408025 
L 905.407575 151.367076 
L 906.189331 154.944348 
L 906.971087 157.922337 
L 907.752842 159.352325 
L 908.534598 158.834329 
L 909.316354 156.617991 
L 910.879866 150.572208 
L 911.661622 148.855735 
L 912.443378 148.898666 
L 913.225134 150.57161 
L 914.788646 155.910039 
L 915.570402 158.031572 
L 916.352158 159.061329 
L 917.133913 158.718558 
L 917.915669 157.025179 
L 920.260937 148.983492 
L 921.042693 147.09016 
L 921.824449 145.845022 
L 922.606205 145.179016 
L 923.387961 144.969964 
L 924.951473 145.036133 
L 925.733229 144.567892 
L 926.514984 143.233889 
L 927.29674 140.933283 
L 928.078496 138.186163 
L 928.860252 136.153333 
L 929.642008 136.101039 
L 930.423764 138.53621 
L 931.20552 143.144186 
L 933.550788 161.60043 
L 934.332544 165.74607 
L 935.1143 167.741761 
L 935.896055 167.81552 
L 936.677811 166.792025 
L 938.241323 164.335507 
L 939.023079 163.781299 
L 939.804835 164.004103 
L 940.586591 164.82077 
L 941.368347 165.836561 
L 942.150103 166.572919 
L 942.931859 166.534096 
L 943.713615 165.389032 
L 944.49537 163.21714 
L 946.058882 157.678207 
L 946.840638 155.555415 
L 947.622394 154.483333 
L 948.40415 154.56562 
L 949.185906 155.549912 
L 949.967662 156.906985 
L 950.749418 157.937084 
L 951.531174 157.931921 
L 952.31293 156.413146 
L 953.094686 153.444927 
L 955.439953 142.004039 
L 956.221709 139.298412 
L 957.003465 138.017907 
L 957.785221 138.573632 
L 958.566977 140.887532 
L 961.694001 153.927193 
L 962.475757 155.715541 
L 963.257512 156.782487 
L 964.821024 158.175248 
L 967.166292 160.919905 
L 967.948048 161.334834 
L 968.729804 161.224105 
L 969.51156 160.552098 
L 971.856828 157.239948 
L 972.638583 156.753879 
L 973.420339 156.802566 
L 974.983851 157.349313 
L 975.765607 157.113192 
L 976.547363 156.251109 
L 977.329119 154.805321 
L 978.892631 151.188814 
L 979.674387 149.812597 
L 980.456143 149.176515 
L 981.237899 149.444388 
L 982.019654 150.386113 
L 983.583166 152.88681 
L 984.364922 153.678629 
L 985.146678 153.765574 
L 985.928434 153.021554 
L 986.71019 151.53922 
L 988.273702 147.833753 
L 989.055458 146.521205 
L 989.837214 145.907691 
L 990.618969 145.932013 
L 991.400725 146.373104 
L 992.182481 146.94188 
L 992.964237 147.368233 
L 993.745993 147.486243 
L 996.091261 146.973213 
L 996.873017 147.315099 
L 997.654773 148.239644 
L 998.436529 149.708062 
L 1000.00004 153.197861 
L 1000.781796 154.537925 
L 1001.563552 155.326649 
L 1002.345308 155.586558 
L 1003.127064 155.455175 
L 1004.690576 154.63638 
L 1006.254088 153.816469 
L 1007.035844 153.587118 
L 1007.8176 153.499763 
L 1008.599356 153.550275 
L 1009.381111 153.735172 
L 1010.944623 154.460437 
L 1012.508135 155.214311 
L 1013.289891 155.38243 
L 1014.071647 155.348342 
L 1015.635159 155.099415 
L 1016.416915 155.222916 
L 1017.198671 155.618463 
L 1017.980427 156.268959 
L 1019.543938 157.886556 
L 1020.325694 158.492039 
L 1021.10745 158.708696 
L 1021.889206 158.455769 
L 1022.670962 157.771799 
L 1025.01623 154.856461 
L 1025.797986 154.207549 
L 1026.579742 153.869562 
L 1027.361498 153.800353 
L 1028.925009 153.968335 
L 1029.706765 153.890985 
L 1030.488521 153.6078 
L 1032.833789 152.367208 
L 1033.615545 152.272293 
L 1034.397301 152.439578 
L 1036.742568 153.391849 
L 1037.524324 153.472448 
L 1039.087836 153.223192 
L 1040.651348 152.946827 
L 1041.433104 152.977047 
L 1042.996616 153.344256 
L 1044.560128 153.661447 
L 1046.123639 153.54088 
L 1047.687151 153.24191 
L 1048.468907 153.1787 
L 1050.032419 153.372694 
L 1051.595931 153.710422 
L 1053.159443 153.765301 
L 1054.722955 153.4389 
L 1054.722955 153.4389 
" clip-path="url(#pb7b506b916)" style="fill: none; stroke: #0c5da5; stroke-width: 2; stroke-linecap: square"/>
   </g>
   <g id="patch_3">
    <path d="M 95.9775 354.3975 
L 95.9775 21.7575 
" style="fill: none; stroke: #000000; stroke-linejoin: miter; stroke-linecap: square"/>
   </g>
   <g id="patch_4">
    <path d="M 1100.3775 354.3975 
L 1100.3775 21.7575 
" style="fill: none; stroke: #000000; stroke-linejoin: miter; stroke-linecap: square"/>
   </g>
   <g id="patch_5">
    <path d="M 95.9775 354.3975 
L 1100.3775 354.3975 
" style="fill: none; stroke: #000000; stroke-linejoin: miter; stroke-linecap: square"/>
   </g>
   <g id="patch_6">
    <path d="M 95.9775 21.7575 
L 1100.3775 21.7575 
" style="fill: none; stroke: #000000; stroke-linejoin: miter; stroke-linecap: square"/>
   </g>
   <g id="text_19">
    <!-- Santa Barbara Record no. 135 -->
    <g transform="translate(477.785 15.7575) scale(0.16 -0.16)">
     <defs>
      <path id="DejaVuSans-53" d="M 3425 4513 
L 3425 3897 
Q 3066 4069 2747 4153 
Q 2428 4238 2131 4238 
Q 1616 4238 1336 4038 
Q 1056 3838 1056 3469 
Q 1056 3159 1242 3001 
Q 1428 2844 1947 2747 
L 2328 2669 
Q 3034 2534 3370 2195 
Q 3706 1856 3706 1288 
Q 3706 609 3251 259 
Q 2797 -91 1919 -91 
Q 1588 -91 1214 -16 
Q 841 59 441 206 
L 441 856 
Q 825 641 1194 531 
Q 1563 422 1919 422 
Q 2459 422 2753 634 
Q 3047 847 3047 1241 
Q 3047 1584 2836 1778 
Q 2625 1972 2144 2069 
L 1759 2144 
Q 1053 2284 737 2584 
Q 422 2884 422 3419 
Q 422 4038 858 4394 
Q 1294 4750 2059 4750 
Q 2388 4750 2728 4690 
Q 3069 4631 3425 4513 
z
" transform="scale(0.015625)"/>
      <path id="DejaVuSans-61" d="M 2194 1759 
Q 1497 1759 1228 1600 
Q 959 1441 959 1056 
Q 959 750 1161 570 
Q 1363 391 1709 391 
Q 2188 391 2477 730 
Q 2766 1069 2766 1631 
L 2766 1759 
L 2194 1759 
z
M 3341 1997 
L 3341 0 
L 2766 0 
L 2766 531 
Q 2569 213 2275 61 
Q 1981 -91 1556 -91 
Q 1019 -91 701 211 
Q 384 513 384 1019 
Q 384 1609 779 1909 
Q 1175 2209 1959 2209 
L 2766 2209 
L 2766 2266 
Q 2766 2663 2505 2880 
Q 2244 3097 1772 3097 
Q 1472 3097 1187 3025 
Q 903 2953 641 2809 
L 641 3341 
Q 956 3463 1253 3523 
Q 1550 3584 1831 3584 
Q 2591 3584 2966 3190 
Q 3341 2797 3341 1997 
z
" transform="scale(0.015625)"/>
      <path id="DejaVuSans-6e" d="M 3513 2113 
L 3513 0 
L 2938 0 
L 2938 2094 
Q 2938 2591 2744 2837 
Q 2550 3084 2163 3084 
Q 1697 3084 1428 2787 
Q 1159 2491 1159 1978 
L 1159 0 
L 581 0 
L 581 3500 
L 1159 3500 
L 1159 2956 
Q 1366 3272 1645 3428 
Q 1925 3584 2291 3584 
Q 2894 3584 3203 3211 
Q 3513 2838 3513 2113 
z
" transform="scale(0.015625)"/>
      <path id="DejaVuSans-74" d="M 1172 4494 
L 1172 3500 
L 2356 3500 
L 2356 3053 
L 1172 3053 
L 1172 1153 
Q 1172 725 1289 603 
Q 1406 481 1766 481 
L 2356 481 
L 2356 0 
L 1766 0 
Q 1100 0 847 248 
Q 594 497 594 1153 
L 594 3053 
L 172 3053 
L 172 3500 
L 594 3500 
L 594 4494 
L 1172 4494 
z
" transform="scale(0.015625)"/>
      <path id="DejaVuSans-42" d="M 1259 2228 
L 1259 519 
L 2272 519 
Q 2781 519 3026 730 
Q 3272 941 3272 1375 
Q 3272 1813 3026 2020 
Q 2781 2228 2272 2228 
L 1259 2228 
z
M 1259 4147 
L 1259 2741 
L 2194 2741 
Q 2656 2741 2882 2914 
Q 3109 3088 3109 3444 
Q 3109 3797 2882 3972 
Q 2656 4147 2194 4147 
L 1259 4147 
z
M 628 4666 
L 2241 4666 
Q 2963 4666 3353 4366 
Q 3744 4066 3744 3513 
Q 3744 3084 3544 2831 
Q 3344 2578 2956 2516 
Q 3422 2416 3680 2098 
Q 3938 1781 3938 1306 
Q 3938 681 3513 340 
Q 3088 0 2303 0 
L 628 0 
L 628 4666 
z
" transform="scale(0.015625)"/>
      <path id="DejaVuSans-72" d="M 2631 2963 
Q 2534 3019 2420 3045 
Q 2306 3072 2169 3072 
Q 1681 3072 1420 2755 
Q 1159 2438 1159 1844 
L 1159 0 
L 581 0 
L 581 3500 
L 1159 3500 
L 1159 2956 
Q 1341 3275 1631 3429 
Q 1922 3584 2338 3584 
Q 2397 3584 2469 3576 
Q 2541 3569 2628 3553 
L 2631 2963 
z
" transform="scale(0.015625)"/>
      <path id="DejaVuSans-62" d="M 3116 1747 
Q 3116 2381 2855 2742 
Q 2594 3103 2138 3103 
Q 1681 3103 1420 2742 
Q 1159 2381 1159 1747 
Q 1159 1113 1420 752 
Q 1681 391 2138 391 
Q 2594 391 2855 752 
Q 3116 1113 3116 1747 
z
M 1159 2969 
Q 1341 3281 1617 3432 
Q 1894 3584 2278 3584 
Q 2916 3584 3314 3078 
Q 3713 2572 3713 1747 
Q 3713 922 3314 415 
Q 2916 -91 2278 -91 
Q 1894 -91 1617 61 
Q 1341 213 1159 525 
L 1159 0 
L 581 0 
L 581 4863 
L 1159 4863 
L 1159 2969 
z
" transform="scale(0.015625)"/>
      <path id="DejaVuSans-63" d="M 3122 3366 
L 3122 2828 
Q 2878 2963 2633 3030 
Q 2388 3097 2138 3097 
Q 1578 3097 1268 2742 
Q 959 2388 959 1747 
Q 959 1106 1268 751 
Q 1578 397 2138 397 
Q 2388 397 2633 464 
Q 2878 531 3122 666 
L 3122 134 
Q 2881 22 2623 -34 
Q 2366 -91 2075 -91 
Q 1284 -91 818 406 
Q 353 903 353 1747 
Q 353 2603 823 3093 
Q 1294 3584 2113 3584 
Q 2378 3584 2631 3529 
Q 2884 3475 3122 3366 
z
" transform="scale(0.015625)"/>
      <path id="DejaVuSans-6f" d="M 1959 3097 
Q 1497 3097 1228 2736 
Q 959 2375 959 1747 
Q 959 1119 1226 758 
Q 1494 397 1959 397 
Q 2419 397 2687 759 
Q 2956 1122 2956 1747 
Q 2956 2369 2687 2733 
Q 2419 3097 1959 3097 
z
M 1959 3584 
Q 2709 3584 3137 3096 
Q 3566 2609 3566 1747 
Q 3566 888 3137 398 
Q 2709 -91 1959 -91 
Q 1206 -91 779 398 
Q 353 888 353 1747 
Q 353 2609 779 3096 
Q 1206 3584 1959 3584 
z
" transform="scale(0.015625)"/>
      <path id="DejaVuSans-64" d="M 2906 2969 
L 2906 4863 
L 3481 4863 
L 3481 0 
L 2906 0 
L 2906 525 
Q 2725 213 2448 61 
Q 2172 -91 1784 -91 
Q 1150 -91 751 415 
Q 353 922 353 1747 
Q 353 2572 751 3078 
Q 1150 3584 1784 3584 
Q 2172 3584 2448 3432 
Q 2725 3281 2906 2969 
z
M 947 1747 
Q 947 1113 1208 752 
Q 1469 391 1925 391 
Q 2381 391 2643 752 
Q 2906 1113 2906 1747 
Q 2906 2381 2643 2742 
Q 2381 3103 1925 3103 
Q 1469 3103 1208 2742 
Q 947 2381 947 1747 
z
" transform="scale(0.015625)"/>
      <path id="DejaVuSans-33" d="M 2597 2516 
Q 3050 2419 3304 2112 
Q 3559 1806 3559 1356 
Q 3559 666 3084 287 
Q 2609 -91 1734 -91 
Q 1441 -91 1130 -33 
Q 819 25 488 141 
L 488 750 
Q 750 597 1062 519 
Q 1375 441 1716 441 
Q 2309 441 2620 675 
Q 2931 909 2931 1356 
Q 2931 1769 2642 2001 
Q 2353 2234 1838 2234 
L 1294 2234 
L 1294 2753 
L 1863 2753 
Q 2328 2753 2575 2939 
Q 2822 3125 2822 3475 
Q 2822 3834 2567 4026 
Q 2313 4219 1838 4219 
Q 1578 4219 1281 4162 
Q 984 4106 628 3988 
L 628 4550 
Q 988 4650 1302 4700 
Q 1616 4750 1894 4750 
Q 2613 4750 3031 4423 
Q 3450 4097 3450 3541 
Q 3450 3153 3228 2886 
Q 3006 2619 2597 2516 
z
" transform="scale(0.015625)"/>
     </defs>
     <use xlink:href="#DejaVuSans-53"/>
     <use xlink:href="#DejaVuSans-61" x="63.476562"/>
     <use xlink:href="#DejaVuSans-6e" x="124.755859"/>
     <use xlink:href="#DejaVuSans-74" x="188.134766"/>
     <use xlink:href="#DejaVuSans-61" x="227.34375"/>
     <use xlink:href="#DejaVuSans-20" x="288.623047"/>
     <use xlink:href="#DejaVuSans-42" x="320.410156"/>
     <use xlink:href="#DejaVuSans-61" x="389.013672"/>
     <use xlink:href="#DejaVuSans-72" x="450.292969"/>
     <use xlink:href="#DejaVuSans-62" x="491.40625"/>
     <use xlink:href="#DejaVuSans-61" x="554.882812"/>
     <use xlink:href="#DejaVuSans-72" x="616.162109"/>
     <use xlink:href="#DejaVuSans-61" x="657.275391"/>
     <use xlink:href="#DejaVuSans-20" x="718.554688"/>
     <use xlink:href="#DejaVuSans-52" x="750.341797"/>
     <use xlink:href="#DejaVuSans-65" x="815.324219"/>
     <use xlink:href="#DejaVuSans-63" x="876.847656"/>
     <use xlink:href="#DejaVuSans-6f" x="931.828125"/>
     <use xlink:href="#DejaVuSans-72" x="993.009766"/>
     <use xlink:href="#DejaVuSans-64" x="1032.373047"/>
     <use xlink:href="#DejaVuSans-20" x="1095.849609"/>
     <use xlink:href="#DejaVuSans-6e" x="1127.636719"/>
     <use xlink:href="#DejaVuSans-6f" x="1191.015625"/>
     <use xlink:href="#DejaVuSans-2e" x="1250.447266"/>
     <use xlink:href="#DejaVuSans-20" x="1282.234375"/>
     <use xlink:href="#DejaVuSans-31" x="1314.021484"/>
     <use xlink:href="#DejaVuSans-33" x="1377.644531"/>
     <use xlink:href="#DejaVuSans-35" x="1441.267578"/>
    </g>
   </g>
  </g>
 </g>
 <defs>
  <clipPath id="pb7b506b916">
   <rect x="95.9775" y="21.7575" width="1004.4" height="332.64"/>
  </clipPath>
 </defs>
</svg>
