<?xml version="1.0" encoding="utf-8" standalone="no"?>
<!DOCTYPE svg PUBLIC "-//W3C//DTD SVG 1.1//EN"
  "http://www.w3.org/Graphics/SVG/1.1/DTD/svg11.dtd">
<svg xmlns:xlink="http://www.w3.org/1999/xlink" width="1084.9325pt" height="562.7875pt" viewBox="0 0 1084.9325 562.7875" xmlns="http://www.w3.org/2000/svg" version="1.1">
 <metadata>
  <rdf:RDF xmlns:dc="http://purl.org/dc/elements/1.1/" xmlns:cc="http://creativecommons.org/ns#" xmlns:rdf="http://www.w3.org/1999/02/22-rdf-syntax-ns#">
   <cc:Work>
    <dc:type rdf:resource="http://purl.org/dc/dcmitype/StillImage"/>
    <dc:date>2023-06-13T12:18:49.152163</dc:date>
    <dc:format>image/svg+xml</dc:format>
    <dc:creator>
     <cc:Agent>
      <dc:title>Matplotlib v3.7.1, https://matplotlib.org/</dc:title>
     </cc:Agent>
    </dc:creator>
   </cc:Work>
  </rdf:RDF>
 </metadata>
 <defs>
  <style type="text/css">*{stroke-linejoin: round; stroke-linecap: butt}</style>
 </defs>
 <g id="figure_1">
  <g id="patch_1">
   <path d="M 0 562.7875 
L 1084.9325 562.7875 
L 1084.9325 0 
L 0 0 
z
" style="fill: #ffffff"/>
  </g>
  <g id="axes_1">
   <g id="patch_2">
    <path d="M 76.9325 520.7175 
L 1081.3325 520.7175 
L 1081.3325 21.7575 
L 76.9325 21.7575 
z
" style="fill: #ffffff"/>
   </g>
   <g id="matplotlib.axis_1">
    <g id="xtick_1">
     <g id="line2d_1">
      <path d="M 122.587045 520.7175 
L 122.587045 21.7575 
" clip-path="url(#pfe773fee4e)" style="fill: none; stroke-dasharray: 1.85,0.8; stroke-dashoffset: 0; stroke: #000000; stroke-opacity: 0.5; stroke-width: 0.5"/>
     </g>
     <g id="line2d_2">
      <defs>
       <path id="m6d63797ac8" d="M 0 0 
L 0 -6 
" style="stroke: #000000"/>
      </defs>
      <g>
       <use xlink:href="#m6d63797ac8" x="122.587045" y="520.7175" style="stroke: #000000"/>
      </g>
     </g>
     <g id="line2d_3">
      <defs>
       <path id="m8eb7b3ee4e" d="M 0 0 
L 0 6 
" style="stroke: #000000"/>
      </defs>
      <g>
       <use xlink:href="#m8eb7b3ee4e" x="122.587045" y="21.7575" style="stroke: #000000"/>
      </g>
     </g>
     <g id="text_1">
      <!-- 0 -->
      <g transform="translate(117.497045 536.375) scale(0.16 -0.16)">
       <defs>
        <path id="DejaVuSans-30" d="M 2034 4250 
Q 1547 4250 1301 3770 
Q 1056 3291 1056 2328 
Q 1056 1369 1301 889 
Q 1547 409 2034 409 
Q 2525 409 2770 889 
Q 3016 1369 3016 2328 
Q 3016 3291 2770 3770 
Q 2525 4250 2034 4250 
z
M 2034 4750 
Q 2819 4750 3233 4129 
Q 3647 3509 3647 2328 
Q 3647 1150 3233 529 
Q 2819 -91 2034 -91 
Q 1250 -91 836 529 
Q 422 1150 422 2328 
Q 422 3509 836 4129 
Q 1250 4750 2034 4750 
z
" transform="scale(0.015625)"/>
       </defs>
       <use xlink:href="#DejaVuSans-30"/>
      </g>
     </g>
    </g>
    <g id="xtick_2">
     <g id="line2d_4">
      <path d="M 278.938229 520.7175 
L 278.938229 21.7575 
" clip-path="url(#pfe773fee4e)" style="fill: none; stroke-dasharray: 1.85,0.8; stroke-dashoffset: 0; stroke: #000000; stroke-opacity: 0.5; stroke-width: 0.5"/>
     </g>
     <g id="line2d_5">
      <g>
       <use xlink:href="#m6d63797ac8" x="278.938229" y="520.7175" style="stroke: #000000"/>
      </g>
     </g>
     <g id="line2d_6">
      <g>
       <use xlink:href="#m8eb7b3ee4e" x="278.938229" y="21.7575" style="stroke: #000000"/>
      </g>
     </g>
     <g id="text_2">
      <!-- 2 -->
      <g transform="translate(273.848229 536.375) scale(0.16 -0.16)">
       <defs>
        <path id="DejaVuSans-32" d="M 1228 531 
L 3431 531 
L 3431 0 
L 469 0 
L 469 531 
Q 828 903 1448 1529 
Q 2069 2156 2228 2338 
Q 2531 2678 2651 2914 
Q 2772 3150 2772 3378 
Q 2772 3750 2511 3984 
Q 2250 4219 1831 4219 
Q 1534 4219 1204 4116 
Q 875 4013 500 3803 
L 500 4441 
Q 881 4594 1212 4672 
Q 1544 4750 1819 4750 
Q 2544 4750 2975 4387 
Q 3406 4025 3406 3419 
Q 3406 3131 3298 2873 
Q 3191 2616 2906 2266 
Q 2828 2175 2409 1742 
Q 1991 1309 1228 531 
z
" transform="scale(0.015625)"/>
       </defs>
       <use xlink:href="#DejaVuSans-32"/>
      </g>
     </g>
    </g>
    <g id="xtick_3">
     <g id="line2d_7">
      <path d="M 435.289412 520.7175 
L 435.289412 21.7575 
" clip-path="url(#pfe773fee4e)" style="fill: none; stroke-dasharray: 1.85,0.8; stroke-dashoffset: 0; stroke: #000000; stroke-opacity: 0.5; stroke-width: 0.5"/>
     </g>
     <g id="line2d_8">
      <g>
       <use xlink:href="#m6d63797ac8" x="435.289412" y="520.7175" style="stroke: #000000"/>
      </g>
     </g>
     <g id="line2d_9">
      <g>
       <use xlink:href="#m8eb7b3ee4e" x="435.289412" y="21.7575" style="stroke: #000000"/>
      </g>
     </g>
     <g id="text_3">
      <!-- 4 -->
      <g transform="translate(430.199412 536.375) scale(0.16 -0.16)">
       <defs>
        <path id="DejaVuSans-34" d="M 2419 4116 
L 825 1625 
L 2419 1625 
L 2419 4116 
z
M 2253 4666 
L 3047 4666 
L 3047 1625 
L 3713 1625 
L 3713 1100 
L 3047 1100 
L 3047 0 
L 2419 0 
L 2419 1100 
L 313 1100 
L 313 1709 
L 2253 4666 
z
" transform="scale(0.015625)"/>
       </defs>
       <use xlink:href="#DejaVuSans-34"/>
      </g>
     </g>
    </g>
    <g id="xtick_4">
     <g id="line2d_10">
      <path d="M 591.640595 520.7175 
L 591.640595 21.7575 
" clip-path="url(#pfe773fee4e)" style="fill: none; stroke-dasharray: 1.85,0.8; stroke-dashoffset: 0; stroke: #000000; stroke-opacity: 0.5; stroke-width: 0.5"/>
     </g>
     <g id="line2d_11">
      <g>
       <use xlink:href="#m6d63797ac8" x="591.640595" y="520.7175" style="stroke: #000000"/>
      </g>
     </g>
     <g id="line2d_12">
      <g>
       <use xlink:href="#m8eb7b3ee4e" x="591.640595" y="21.7575" style="stroke: #000000"/>
      </g>
     </g>
     <g id="text_4">
      <!-- 6 -->
      <g transform="translate(586.550595 536.375) scale(0.16 -0.16)">
       <defs>
        <path id="DejaVuSans-36" d="M 2113 2584 
Q 1688 2584 1439 2293 
Q 1191 2003 1191 1497 
Q 1191 994 1439 701 
Q 1688 409 2113 409 
Q 2538 409 2786 701 
Q 3034 994 3034 1497 
Q 3034 2003 2786 2293 
Q 2538 2584 2113 2584 
z
M 3366 4563 
L 3366 3988 
Q 3128 4100 2886 4159 
Q 2644 4219 2406 4219 
Q 1781 4219 1451 3797 
Q 1122 3375 1075 2522 
Q 1259 2794 1537 2939 
Q 1816 3084 2150 3084 
Q 2853 3084 3261 2657 
Q 3669 2231 3669 1497 
Q 3669 778 3244 343 
Q 2819 -91 2113 -91 
Q 1303 -91 875 529 
Q 447 1150 447 2328 
Q 447 3434 972 4092 
Q 1497 4750 2381 4750 
Q 2619 4750 2861 4703 
Q 3103 4656 3366 4563 
z
" transform="scale(0.015625)"/>
       </defs>
       <use xlink:href="#DejaVuSans-36"/>
      </g>
     </g>
    </g>
    <g id="xtick_5">
     <g id="line2d_13">
      <path d="M 747.991778 520.7175 
L 747.991778 21.7575 
" clip-path="url(#pfe773fee4e)" style="fill: none; stroke-dasharray: 1.85,0.8; stroke-dashoffset: 0; stroke: #000000; stroke-opacity: 0.5; stroke-width: 0.5"/>
     </g>
     <g id="line2d_14">
      <g>
       <use xlink:href="#m6d63797ac8" x="747.991778" y="520.7175" style="stroke: #000000"/>
      </g>
     </g>
     <g id="line2d_15">
      <g>
       <use xlink:href="#m8eb7b3ee4e" x="747.991778" y="21.7575" style="stroke: #000000"/>
      </g>
     </g>
     <g id="text_5">
      <!-- 8 -->
      <g transform="translate(742.901778 536.375) scale(0.16 -0.16)">
       <defs>
        <path id="DejaVuSans-38" d="M 2034 2216 
Q 1584 2216 1326 1975 
Q 1069 1734 1069 1313 
Q 1069 891 1326 650 
Q 1584 409 2034 409 
Q 2484 409 2743 651 
Q 3003 894 3003 1313 
Q 3003 1734 2745 1975 
Q 2488 2216 2034 2216 
z
M 1403 2484 
Q 997 2584 770 2862 
Q 544 3141 544 3541 
Q 544 4100 942 4425 
Q 1341 4750 2034 4750 
Q 2731 4750 3128 4425 
Q 3525 4100 3525 3541 
Q 3525 3141 3298 2862 
Q 3072 2584 2669 2484 
Q 3125 2378 3379 2068 
Q 3634 1759 3634 1313 
Q 3634 634 3220 271 
Q 2806 -91 2034 -91 
Q 1263 -91 848 271 
Q 434 634 434 1313 
Q 434 1759 690 2068 
Q 947 2378 1403 2484 
z
M 1172 3481 
Q 1172 3119 1398 2916 
Q 1625 2713 2034 2713 
Q 2441 2713 2670 2916 
Q 2900 3119 2900 3481 
Q 2900 3844 2670 4047 
Q 2441 4250 2034 4250 
Q 1625 4250 1398 4047 
Q 1172 3844 1172 3481 
z
" transform="scale(0.015625)"/>
       </defs>
       <use xlink:href="#DejaVuSans-38"/>
      </g>
     </g>
    </g>
    <g id="xtick_6">
     <g id="line2d_16">
      <path d="M 904.342961 520.7175 
L 904.342961 21.7575 
" clip-path="url(#pfe773fee4e)" style="fill: none; stroke-dasharray: 1.85,0.8; stroke-dashoffset: 0; stroke: #000000; stroke-opacity: 0.5; stroke-width: 0.5"/>
     </g>
     <g id="line2d_17">
      <g>
       <use xlink:href="#m6d63797ac8" x="904.342961" y="520.7175" style="stroke: #000000"/>
      </g>
     </g>
     <g id="line2d_18">
      <g>
       <use xlink:href="#m8eb7b3ee4e" x="904.342961" y="21.7575" style="stroke: #000000"/>
      </g>
     </g>
     <g id="text_6">
      <!-- 10 -->
      <g transform="translate(894.162961 536.375) scale(0.16 -0.16)">
       <defs>
        <path id="DejaVuSans-31" d="M 794 531 
L 1825 531 
L 1825 4091 
L 703 3866 
L 703 4441 
L 1819 4666 
L 2450 4666 
L 2450 531 
L 3481 531 
L 3481 0 
L 794 0 
L 794 531 
z
" transform="scale(0.015625)"/>
       </defs>
       <use xlink:href="#DejaVuSans-31"/>
       <use xlink:href="#DejaVuSans-30" x="63.623047"/>
      </g>
     </g>
    </g>
    <g id="xtick_7">
     <g id="line2d_19">
      <path d="M 1060.694144 520.7175 
L 1060.694144 21.7575 
" clip-path="url(#pfe773fee4e)" style="fill: none; stroke-dasharray: 1.85,0.8; stroke-dashoffset: 0; stroke: #000000; stroke-opacity: 0.5; stroke-width: 0.5"/>
     </g>
     <g id="line2d_20">
      <g>
       <use xlink:href="#m6d63797ac8" x="1060.694144" y="520.7175" style="stroke: #000000"/>
      </g>
     </g>
     <g id="line2d_21">
      <g>
       <use xlink:href="#m8eb7b3ee4e" x="1060.694144" y="21.7575" style="stroke: #000000"/>
      </g>
     </g>
     <g id="text_7">
      <!-- 12 -->
      <g transform="translate(1050.514144 536.375) scale(0.16 -0.16)">
       <use xlink:href="#DejaVuSans-31"/>
       <use xlink:href="#DejaVuSans-32" x="63.623047"/>
      </g>
     </g>
    </g>
    <g id="xtick_8">
     <g id="line2d_22">
      <defs>
       <path id="m5e3f351e4b" d="M 0 0 
L 0 -3 
" style="stroke: #000000"/>
      </defs>
      <g>
       <use xlink:href="#m5e3f351e4b" x="83.49925" y="520.7175" style="stroke: #000000"/>
      </g>
     </g>
     <g id="line2d_23">
      <defs>
       <path id="maa0b4454d3" d="M 0 0 
L 0 3 
" style="stroke: #000000"/>
      </defs>
      <g>
       <use xlink:href="#maa0b4454d3" x="83.49925" y="21.7575" style="stroke: #000000"/>
      </g>
     </g>
    </g>
    <g id="xtick_9">
     <g id="line2d_24">
      <g>
       <use xlink:href="#m5e3f351e4b" x="161.674841" y="520.7175" style="stroke: #000000"/>
      </g>
     </g>
     <g id="line2d_25">
      <g>
       <use xlink:href="#maa0b4454d3" x="161.674841" y="21.7575" style="stroke: #000000"/>
      </g>
     </g>
    </g>
    <g id="xtick_10">
     <g id="line2d_26">
      <g>
       <use xlink:href="#m5e3f351e4b" x="200.762637" y="520.7175" style="stroke: #000000"/>
      </g>
     </g>
     <g id="line2d_27">
      <g>
       <use xlink:href="#maa0b4454d3" x="200.762637" y="21.7575" style="stroke: #000000"/>
      </g>
     </g>
    </g>
    <g id="xtick_11">
     <g id="line2d_28">
      <g>
       <use xlink:href="#m5e3f351e4b" x="239.850433" y="520.7175" style="stroke: #000000"/>
      </g>
     </g>
     <g id="line2d_29">
      <g>
       <use xlink:href="#maa0b4454d3" x="239.850433" y="21.7575" style="stroke: #000000"/>
      </g>
     </g>
    </g>
    <g id="xtick_12">
     <g id="line2d_30">
      <g>
       <use xlink:href="#m5e3f351e4b" x="318.026024" y="520.7175" style="stroke: #000000"/>
      </g>
     </g>
     <g id="line2d_31">
      <g>
       <use xlink:href="#maa0b4454d3" x="318.026024" y="21.7575" style="stroke: #000000"/>
      </g>
     </g>
    </g>
    <g id="xtick_13">
     <g id="line2d_32">
      <g>
       <use xlink:href="#m5e3f351e4b" x="357.11382" y="520.7175" style="stroke: #000000"/>
      </g>
     </g>
     <g id="line2d_33">
      <g>
       <use xlink:href="#maa0b4454d3" x="357.11382" y="21.7575" style="stroke: #000000"/>
      </g>
     </g>
    </g>
    <g id="xtick_14">
     <g id="line2d_34">
      <g>
       <use xlink:href="#m5e3f351e4b" x="396.201616" y="520.7175" style="stroke: #000000"/>
      </g>
     </g>
     <g id="line2d_35">
      <g>
       <use xlink:href="#maa0b4454d3" x="396.201616" y="21.7575" style="stroke: #000000"/>
      </g>
     </g>
    </g>
    <g id="xtick_15">
     <g id="line2d_36">
      <g>
       <use xlink:href="#m5e3f351e4b" x="474.377207" y="520.7175" style="stroke: #000000"/>
      </g>
     </g>
     <g id="line2d_37">
      <g>
       <use xlink:href="#maa0b4454d3" x="474.377207" y="21.7575" style="stroke: #000000"/>
      </g>
     </g>
    </g>
    <g id="xtick_16">
     <g id="line2d_38">
      <g>
       <use xlink:href="#m5e3f351e4b" x="513.465003" y="520.7175" style="stroke: #000000"/>
      </g>
     </g>
     <g id="line2d_39">
      <g>
       <use xlink:href="#maa0b4454d3" x="513.465003" y="21.7575" style="stroke: #000000"/>
      </g>
     </g>
    </g>
    <g id="xtick_17">
     <g id="line2d_40">
      <g>
       <use xlink:href="#m5e3f351e4b" x="552.552799" y="520.7175" style="stroke: #000000"/>
      </g>
     </g>
     <g id="line2d_41">
      <g>
       <use xlink:href="#maa0b4454d3" x="552.552799" y="21.7575" style="stroke: #000000"/>
      </g>
     </g>
    </g>
    <g id="xtick_18">
     <g id="line2d_42">
      <g>
       <use xlink:href="#m5e3f351e4b" x="630.72839" y="520.7175" style="stroke: #000000"/>
      </g>
     </g>
     <g id="line2d_43">
      <g>
       <use xlink:href="#maa0b4454d3" x="630.72839" y="21.7575" style="stroke: #000000"/>
      </g>
     </g>
    </g>
    <g id="xtick_19">
     <g id="line2d_44">
      <g>
       <use xlink:href="#m5e3f351e4b" x="669.816186" y="520.7175" style="stroke: #000000"/>
      </g>
     </g>
     <g id="line2d_45">
      <g>
       <use xlink:href="#maa0b4454d3" x="669.816186" y="21.7575" style="stroke: #000000"/>
      </g>
     </g>
    </g>
    <g id="xtick_20">
     <g id="line2d_46">
      <g>
       <use xlink:href="#m5e3f351e4b" x="708.903982" y="520.7175" style="stroke: #000000"/>
      </g>
     </g>
     <g id="line2d_47">
      <g>
       <use xlink:href="#maa0b4454d3" x="708.903982" y="21.7575" style="stroke: #000000"/>
      </g>
     </g>
    </g>
    <g id="xtick_21">
     <g id="line2d_48">
      <g>
       <use xlink:href="#m5e3f351e4b" x="787.079573" y="520.7175" style="stroke: #000000"/>
      </g>
     </g>
     <g id="line2d_49">
      <g>
       <use xlink:href="#maa0b4454d3" x="787.079573" y="21.7575" style="stroke: #000000"/>
      </g>
     </g>
    </g>
    <g id="xtick_22">
     <g id="line2d_50">
      <g>
       <use xlink:href="#m5e3f351e4b" x="826.167369" y="520.7175" style="stroke: #000000"/>
      </g>
     </g>
     <g id="line2d_51">
      <g>
       <use xlink:href="#maa0b4454d3" x="826.167369" y="21.7575" style="stroke: #000000"/>
      </g>
     </g>
    </g>
    <g id="xtick_23">
     <g id="line2d_52">
      <g>
       <use xlink:href="#m5e3f351e4b" x="865.255165" y="520.7175" style="stroke: #000000"/>
      </g>
     </g>
     <g id="line2d_53">
      <g>
       <use xlink:href="#maa0b4454d3" x="865.255165" y="21.7575" style="stroke: #000000"/>
      </g>
     </g>
    </g>
    <g id="xtick_24">
     <g id="line2d_54">
      <g>
       <use xlink:href="#m5e3f351e4b" x="943.430757" y="520.7175" style="stroke: #000000"/>
      </g>
     </g>
     <g id="line2d_55">
      <g>
       <use xlink:href="#maa0b4454d3" x="943.430757" y="21.7575" style="stroke: #000000"/>
      </g>
     </g>
    </g>
    <g id="xtick_25">
     <g id="line2d_56">
      <g>
       <use xlink:href="#m5e3f351e4b" x="982.518552" y="520.7175" style="stroke: #000000"/>
      </g>
     </g>
     <g id="line2d_57">
      <g>
       <use xlink:href="#maa0b4454d3" x="982.518552" y="21.7575" style="stroke: #000000"/>
      </g>
     </g>
    </g>
    <g id="xtick_26">
     <g id="line2d_58">
      <g>
       <use xlink:href="#m5e3f351e4b" x="1021.606348" y="520.7175" style="stroke: #000000"/>
      </g>
     </g>
     <g id="line2d_59">
      <g>
       <use xlink:href="#maa0b4454d3" x="1021.606348" y="21.7575" style="stroke: #000000"/>
      </g>
     </g>
    </g>
    <g id="text_8">
     <!-- Time(s) -->
     <g transform="translate(549.14875 555.86) scale(0.16 -0.16)">
      <defs>
       <path id="DejaVuSans-54" d="M -19 4666 
L 3928 4666 
L 3928 4134 
L 2272 4134 
L 2272 0 
L 1638 0 
L 1638 4134 
L -19 4134 
L -19 4666 
z
" transform="scale(0.015625)"/>
       <path id="DejaVuSans-69" d="M 603 3500 
L 1178 3500 
L 1178 0 
L 603 0 
L 603 3500 
z
M 603 4863 
L 1178 4863 
L 1178 4134 
L 603 4134 
L 603 4863 
z
" transform="scale(0.015625)"/>
       <path id="DejaVuSans-6d" d="M 3328 2828 
Q 3544 3216 3844 3400 
Q 4144 3584 4550 3584 
Q 5097 3584 5394 3201 
Q 5691 2819 5691 2113 
L 5691 0 
L 5113 0 
L 5113 2094 
Q 5113 2597 4934 2840 
Q 4756 3084 4391 3084 
Q 3944 3084 3684 2787 
Q 3425 2491 3425 1978 
L 3425 0 
L 2847 0 
L 2847 2094 
Q 2847 2600 2669 2842 
Q 2491 3084 2119 3084 
Q 1678 3084 1418 2786 
Q 1159 2488 1159 1978 
L 1159 0 
L 581 0 
L 581 3500 
L 1159 3500 
L 1159 2956 
Q 1356 3278 1631 3431 
Q 1906 3584 2284 3584 
Q 2666 3584 2933 3390 
Q 3200 3197 3328 2828 
z
" transform="scale(0.015625)"/>
       <path id="DejaVuSans-65" d="M 3597 1894 
L 3597 1613 
L 953 1613 
Q 991 1019 1311 708 
Q 1631 397 2203 397 
Q 2534 397 2845 478 
Q 3156 559 3463 722 
L 3463 178 
Q 3153 47 2828 -22 
Q 2503 -91 2169 -91 
Q 1331 -91 842 396 
Q 353 884 353 1716 
Q 353 2575 817 3079 
Q 1281 3584 2069 3584 
Q 2775 3584 3186 3129 
Q 3597 2675 3597 1894 
z
M 3022 2063 
Q 3016 2534 2758 2815 
Q 2500 3097 2075 3097 
Q 1594 3097 1305 2825 
Q 1016 2553 972 2059 
L 3022 2063 
z
" transform="scale(0.015625)"/>
       <path id="DejaVuSans-28" d="M 1984 4856 
Q 1566 4138 1362 3434 
Q 1159 2731 1159 2009 
Q 1159 1288 1364 580 
Q 1569 -128 1984 -844 
L 1484 -844 
Q 1016 -109 783 600 
Q 550 1309 550 2009 
Q 550 2706 781 3412 
Q 1013 4119 1484 4856 
L 1984 4856 
z
" transform="scale(0.015625)"/>
       <path id="DejaVuSans-73" d="M 2834 3397 
L 2834 2853 
Q 2591 2978 2328 3040 
Q 2066 3103 1784 3103 
Q 1356 3103 1142 2972 
Q 928 2841 928 2578 
Q 928 2378 1081 2264 
Q 1234 2150 1697 2047 
L 1894 2003 
Q 2506 1872 2764 1633 
Q 3022 1394 3022 966 
Q 3022 478 2636 193 
Q 2250 -91 1575 -91 
Q 1294 -91 989 -36 
Q 684 19 347 128 
L 347 722 
Q 666 556 975 473 
Q 1284 391 1588 391 
Q 1994 391 2212 530 
Q 2431 669 2431 922 
Q 2431 1156 2273 1281 
Q 2116 1406 1581 1522 
L 1381 1569 
Q 847 1681 609 1914 
Q 372 2147 372 2553 
Q 372 3047 722 3315 
Q 1072 3584 1716 3584 
Q 2034 3584 2315 3537 
Q 2597 3491 2834 3397 
z
" transform="scale(0.015625)"/>
       <path id="DejaVuSans-29" d="M 513 4856 
L 1013 4856 
Q 1481 4119 1714 3412 
Q 1947 2706 1947 2009 
Q 1947 1309 1714 600 
Q 1481 -109 1013 -844 
L 513 -844 
Q 928 -128 1133 580 
Q 1338 1288 1338 2009 
Q 1338 2731 1133 3434 
Q 928 4138 513 4856 
z
" transform="scale(0.015625)"/>
      </defs>
      <use xlink:href="#DejaVuSans-54"/>
      <use xlink:href="#DejaVuSans-69" x="57.958984"/>
      <use xlink:href="#DejaVuSans-6d" x="85.742188"/>
      <use xlink:href="#DejaVuSans-65" x="183.154297"/>
      <use xlink:href="#DejaVuSans-28" x="244.677734"/>
      <use xlink:href="#DejaVuSans-73" x="283.691406"/>
      <use xlink:href="#DejaVuSans-29" x="335.791016"/>
     </g>
    </g>
   </g>
   <g id="matplotlib.axis_2">
    <g id="ytick_1">
     <g id="line2d_60">
      <path d="M 76.9325 481.24303 
L 1081.3325 481.24303 
" clip-path="url(#pfe773fee4e)" style="fill: none; stroke-dasharray: 1.85,0.8; stroke-dashoffset: 0; stroke: #000000; stroke-opacity: 0.5; stroke-width: 0.5"/>
     </g>
     <g id="line2d_61">
      <defs>
       <path id="ma3e0b33148" d="M 0 0 
L 6 0 
" style="stroke: #000000"/>
      </defs>
      <g>
       <use xlink:href="#ma3e0b33148" x="76.9325" y="481.24303" style="stroke: #000000"/>
      </g>
     </g>
     <g id="line2d_62">
      <defs>
       <path id="ma81423ff3b" d="M 0 0 
L -6 0 
" style="stroke: #000000"/>
      </defs>
      <g>
       <use xlink:href="#ma81423ff3b" x="1081.3325" y="481.24303" style="stroke: #000000"/>
      </g>
     </g>
     <g id="text_9">
      <!-- −0.75 -->
      <g transform="translate(24.4 487.32178) scale(0.16 -0.16)">
       <defs>
        <path id="DejaVuSans-2212" d="M 678 2272 
L 4684 2272 
L 4684 1741 
L 678 1741 
L 678 2272 
z
" transform="scale(0.015625)"/>
        <path id="DejaVuSans-2e" d="M 684 794 
L 1344 794 
L 1344 0 
L 684 0 
L 684 794 
z
" transform="scale(0.015625)"/>
        <path id="DejaVuSans-37" d="M 525 4666 
L 3525 4666 
L 3525 4397 
L 1831 0 
L 1172 0 
L 2766 4134 
L 525 4134 
L 525 4666 
z
" transform="scale(0.015625)"/>
        <path id="DejaVuSans-35" d="M 691 4666 
L 3169 4666 
L 3169 4134 
L 1269 4134 
L 1269 2991 
Q 1406 3038 1543 3061 
Q 1681 3084 1819 3084 
Q 2600 3084 3056 2656 
Q 3513 2228 3513 1497 
Q 3513 744 3044 326 
Q 2575 -91 1722 -91 
Q 1428 -91 1123 -41 
Q 819 9 494 109 
L 494 744 
Q 775 591 1075 516 
Q 1375 441 1709 441 
Q 2250 441 2565 725 
Q 2881 1009 2881 1497 
Q 2881 1984 2565 2268 
Q 2250 2553 1709 2553 
Q 1456 2553 1204 2497 
Q 953 2441 691 2322 
L 691 4666 
z
" transform="scale(0.015625)"/>
       </defs>
       <use xlink:href="#DejaVuSans-2212"/>
       <use xlink:href="#DejaVuSans-30" x="83.789062"/>
       <use xlink:href="#DejaVuSans-2e" x="147.412109"/>
       <use xlink:href="#DejaVuSans-37" x="179.199219"/>
       <use xlink:href="#DejaVuSans-35" x="242.822266"/>
      </g>
     </g>
    </g>
    <g id="ytick_2">
     <g id="line2d_63">
      <path d="M 76.9325 419.499148 
L 1081.3325 419.499148 
" clip-path="url(#pfe773fee4e)" style="fill: none; stroke-dasharray: 1.85,0.8; stroke-dashoffset: 0; stroke: #000000; stroke-opacity: 0.5; stroke-width: 0.5"/>
     </g>
     <g id="line2d_64">
      <g>
       <use xlink:href="#ma3e0b33148" x="76.9325" y="419.499148" style="stroke: #000000"/>
      </g>
     </g>
     <g id="line2d_65">
      <g>
       <use xlink:href="#ma81423ff3b" x="1081.3325" y="419.499148" style="stroke: #000000"/>
      </g>
     </g>
     <g id="text_10">
      <!-- −0.50 -->
      <g transform="translate(24.4 425.577898) scale(0.16 -0.16)">
       <use xlink:href="#DejaVuSans-2212"/>
       <use xlink:href="#DejaVuSans-30" x="83.789062"/>
       <use xlink:href="#DejaVuSans-2e" x="147.412109"/>
       <use xlink:href="#DejaVuSans-35" x="179.199219"/>
       <use xlink:href="#DejaVuSans-30" x="242.822266"/>
      </g>
     </g>
    </g>
    <g id="ytick_3">
     <g id="line2d_66">
      <path d="M 76.9325 357.755266 
L 1081.3325 357.755266 
" clip-path="url(#pfe773fee4e)" style="fill: none; stroke-dasharray: 1.85,0.8; stroke-dashoffset: 0; stroke: #000000; stroke-opacity: 0.5; stroke-width: 0.5"/>
     </g>
     <g id="line2d_67">
      <g>
       <use xlink:href="#ma3e0b33148" x="76.9325" y="357.755266" style="stroke: #000000"/>
      </g>
     </g>
     <g id="line2d_68">
      <g>
       <use xlink:href="#ma81423ff3b" x="1081.3325" y="357.755266" style="stroke: #000000"/>
      </g>
     </g>
     <g id="text_11">
      <!-- −0.25 -->
      <g transform="translate(24.4 363.834016) scale(0.16 -0.16)">
       <use xlink:href="#DejaVuSans-2212"/>
       <use xlink:href="#DejaVuSans-30" x="83.789062"/>
       <use xlink:href="#DejaVuSans-2e" x="147.412109"/>
       <use xlink:href="#DejaVuSans-32" x="179.199219"/>
       <use xlink:href="#DejaVuSans-35" x="242.822266"/>
      </g>
     </g>
    </g>
    <g id="ytick_4">
     <g id="line2d_69">
      <path d="M 76.9325 296.011385 
L 1081.3325 296.011385 
" clip-path="url(#pfe773fee4e)" style="fill: none; stroke-dasharray: 1.85,0.8; stroke-dashoffset: 0; stroke: #000000; stroke-opacity: 0.5; stroke-width: 0.5"/>
     </g>
     <g id="line2d_70">
      <g>
       <use xlink:href="#ma3e0b33148" x="76.9325" y="296.011385" style="stroke: #000000"/>
      </g>
     </g>
     <g id="line2d_71">
      <g>
       <use xlink:href="#ma81423ff3b" x="1081.3325" y="296.011385" style="stroke: #000000"/>
      </g>
     </g>
     <g id="text_12">
      <!-- 0.00 -->
      <g transform="translate(37.8075 302.090135) scale(0.16 -0.16)">
       <use xlink:href="#DejaVuSans-30"/>
       <use xlink:href="#DejaVuSans-2e" x="63.623047"/>
       <use xlink:href="#DejaVuSans-30" x="95.410156"/>
       <use xlink:href="#DejaVuSans-30" x="159.033203"/>
      </g>
     </g>
    </g>
    <g id="ytick_5">
     <g id="line2d_72">
      <path d="M 76.9325 234.267503 
L 1081.3325 234.267503 
" clip-path="url(#pfe773fee4e)" style="fill: none; stroke-dasharray: 1.85,0.8; stroke-dashoffset: 0; stroke: #000000; stroke-opacity: 0.5; stroke-width: 0.5"/>
     </g>
     <g id="line2d_73">
      <g>
       <use xlink:href="#ma3e0b33148" x="76.9325" y="234.267503" style="stroke: #000000"/>
      </g>
     </g>
     <g id="line2d_74">
      <g>
       <use xlink:href="#ma81423ff3b" x="1081.3325" y="234.267503" style="stroke: #000000"/>
      </g>
     </g>
     <g id="text_13">
      <!-- 0.25 -->
      <g transform="translate(37.8075 240.346253) scale(0.16 -0.16)">
       <use xlink:href="#DejaVuSans-30"/>
       <use xlink:href="#DejaVuSans-2e" x="63.623047"/>
       <use xlink:href="#DejaVuSans-32" x="95.410156"/>
       <use xlink:href="#DejaVuSans-35" x="159.033203"/>
      </g>
     </g>
    </g>
    <g id="ytick_6">
     <g id="line2d_75">
      <path d="M 76.9325 172.523622 
L 1081.3325 172.523622 
" clip-path="url(#pfe773fee4e)" style="fill: none; stroke-dasharray: 1.85,0.8; stroke-dashoffset: 0; stroke: #000000; stroke-opacity: 0.5; stroke-width: 0.5"/>
     </g>
     <g id="line2d_76">
      <g>
       <use xlink:href="#ma3e0b33148" x="76.9325" y="172.523622" style="stroke: #000000"/>
      </g>
     </g>
     <g id="line2d_77">
      <g>
       <use xlink:href="#ma81423ff3b" x="1081.3325" y="172.523622" style="stroke: #000000"/>
      </g>
     </g>
     <g id="text_14">
      <!-- 0.50 -->
      <g transform="translate(37.8075 178.602372) scale(0.16 -0.16)">
       <use xlink:href="#DejaVuSans-30"/>
       <use xlink:href="#DejaVuSans-2e" x="63.623047"/>
       <use xlink:href="#DejaVuSans-35" x="95.410156"/>
       <use xlink:href="#DejaVuSans-30" x="159.033203"/>
      </g>
     </g>
    </g>
    <g id="ytick_7">
     <g id="line2d_78">
      <path d="M 76.9325 110.77974 
L 1081.3325 110.77974 
" clip-path="url(#pfe773fee4e)" style="fill: none; stroke-dasharray: 1.85,0.8; stroke-dashoffset: 0; stroke: #000000; stroke-opacity: 0.5; stroke-width: 0.5"/>
     </g>
     <g id="line2d_79">
      <g>
       <use xlink:href="#ma3e0b33148" x="76.9325" y="110.77974" style="stroke: #000000"/>
      </g>
     </g>
     <g id="line2d_80">
      <g>
       <use xlink:href="#ma81423ff3b" x="1081.3325" y="110.77974" style="stroke: #000000"/>
      </g>
     </g>
     <g id="text_15">
      <!-- 0.75 -->
      <g transform="translate(37.8075 116.85849) scale(0.16 -0.16)">
       <use xlink:href="#DejaVuSans-30"/>
       <use xlink:href="#DejaVuSans-2e" x="63.623047"/>
       <use xlink:href="#DejaVuSans-37" x="95.410156"/>
       <use xlink:href="#DejaVuSans-35" x="159.033203"/>
      </g>
     </g>
    </g>
    <g id="ytick_8">
     <g id="line2d_81">
      <path d="M 76.9325 49.035858 
L 1081.3325 49.035858 
" clip-path="url(#pfe773fee4e)" style="fill: none; stroke-dasharray: 1.85,0.8; stroke-dashoffset: 0; stroke: #000000; stroke-opacity: 0.5; stroke-width: 0.5"/>
     </g>
     <g id="line2d_82">
      <g>
       <use xlink:href="#ma3e0b33148" x="76.9325" y="49.035858" style="stroke: #000000"/>
      </g>
     </g>
     <g id="line2d_83">
      <g>
       <use xlink:href="#ma81423ff3b" x="1081.3325" y="49.035858" style="stroke: #000000"/>
      </g>
     </g>
     <g id="text_16">
      <!-- 1.00 -->
      <g transform="translate(37.8075 55.114608) scale(0.16 -0.16)">
       <use xlink:href="#DejaVuSans-31"/>
       <use xlink:href="#DejaVuSans-2e" x="63.623047"/>
       <use xlink:href="#DejaVuSans-30" x="95.410156"/>
       <use xlink:href="#DejaVuSans-30" x="159.033203"/>
      </g>
     </g>
    </g>
    <g id="ytick_9">
     <g id="line2d_84">
      <defs>
       <path id="m862c5be3b8" d="M 0 0 
L 3 0 
" style="stroke: #000000"/>
      </defs>
      <g>
       <use xlink:href="#m862c5be3b8" x="76.9325" y="518.289359" style="stroke: #000000"/>
      </g>
     </g>
     <g id="line2d_85">
      <defs>
       <path id="mf0273377fe" d="M 0 0 
L -3 0 
" style="stroke: #000000"/>
      </defs>
      <g>
       <use xlink:href="#mf0273377fe" x="1081.3325" y="518.289359" style="stroke: #000000"/>
      </g>
     </g>
    </g>
    <g id="ytick_10">
     <g id="line2d_86">
      <g>
       <use xlink:href="#m862c5be3b8" x="76.9325" y="505.940582" style="stroke: #000000"/>
      </g>
     </g>
     <g id="line2d_87">
      <g>
       <use xlink:href="#mf0273377fe" x="1081.3325" y="505.940582" style="stroke: #000000"/>
      </g>
     </g>
    </g>
    <g id="ytick_11">
     <g id="line2d_88">
      <g>
       <use xlink:href="#m862c5be3b8" x="76.9325" y="493.591806" style="stroke: #000000"/>
      </g>
     </g>
     <g id="line2d_89">
      <g>
       <use xlink:href="#mf0273377fe" x="1081.3325" y="493.591806" style="stroke: #000000"/>
      </g>
     </g>
    </g>
    <g id="ytick_12">
     <g id="line2d_90">
      <g>
       <use xlink:href="#m862c5be3b8" x="76.9325" y="468.894253" style="stroke: #000000"/>
      </g>
     </g>
     <g id="line2d_91">
      <g>
       <use xlink:href="#mf0273377fe" x="1081.3325" y="468.894253" style="stroke: #000000"/>
      </g>
     </g>
    </g>
    <g id="ytick_13">
     <g id="line2d_92">
      <g>
       <use xlink:href="#m862c5be3b8" x="76.9325" y="456.545477" style="stroke: #000000"/>
      </g>
     </g>
     <g id="line2d_93">
      <g>
       <use xlink:href="#mf0273377fe" x="1081.3325" y="456.545477" style="stroke: #000000"/>
      </g>
     </g>
    </g>
    <g id="ytick_14">
     <g id="line2d_94">
      <g>
       <use xlink:href="#m862c5be3b8" x="76.9325" y="444.196701" style="stroke: #000000"/>
      </g>
     </g>
     <g id="line2d_95">
      <g>
       <use xlink:href="#mf0273377fe" x="1081.3325" y="444.196701" style="stroke: #000000"/>
      </g>
     </g>
    </g>
    <g id="ytick_15">
     <g id="line2d_96">
      <g>
       <use xlink:href="#m862c5be3b8" x="76.9325" y="431.847924" style="stroke: #000000"/>
      </g>
     </g>
     <g id="line2d_97">
      <g>
       <use xlink:href="#mf0273377fe" x="1081.3325" y="431.847924" style="stroke: #000000"/>
      </g>
     </g>
    </g>
    <g id="ytick_16">
     <g id="line2d_98">
      <g>
       <use xlink:href="#m862c5be3b8" x="76.9325" y="407.150372" style="stroke: #000000"/>
      </g>
     </g>
     <g id="line2d_99">
      <g>
       <use xlink:href="#mf0273377fe" x="1081.3325" y="407.150372" style="stroke: #000000"/>
      </g>
     </g>
    </g>
    <g id="ytick_17">
     <g id="line2d_100">
      <g>
       <use xlink:href="#m862c5be3b8" x="76.9325" y="394.801595" style="stroke: #000000"/>
      </g>
     </g>
     <g id="line2d_101">
      <g>
       <use xlink:href="#mf0273377fe" x="1081.3325" y="394.801595" style="stroke: #000000"/>
      </g>
     </g>
    </g>
    <g id="ytick_18">
     <g id="line2d_102">
      <g>
       <use xlink:href="#m862c5be3b8" x="76.9325" y="382.452819" style="stroke: #000000"/>
      </g>
     </g>
     <g id="line2d_103">
      <g>
       <use xlink:href="#mf0273377fe" x="1081.3325" y="382.452819" style="stroke: #000000"/>
      </g>
     </g>
    </g>
    <g id="ytick_19">
     <g id="line2d_104">
      <g>
       <use xlink:href="#m862c5be3b8" x="76.9325" y="370.104043" style="stroke: #000000"/>
      </g>
     </g>
     <g id="line2d_105">
      <g>
       <use xlink:href="#mf0273377fe" x="1081.3325" y="370.104043" style="stroke: #000000"/>
      </g>
     </g>
    </g>
    <g id="ytick_20">
     <g id="line2d_106">
      <g>
       <use xlink:href="#m862c5be3b8" x="76.9325" y="345.40649" style="stroke: #000000"/>
      </g>
     </g>
     <g id="line2d_107">
      <g>
       <use xlink:href="#mf0273377fe" x="1081.3325" y="345.40649" style="stroke: #000000"/>
      </g>
     </g>
    </g>
    <g id="ytick_21">
     <g id="line2d_108">
      <g>
       <use xlink:href="#m862c5be3b8" x="76.9325" y="333.057714" style="stroke: #000000"/>
      </g>
     </g>
     <g id="line2d_109">
      <g>
       <use xlink:href="#mf0273377fe" x="1081.3325" y="333.057714" style="stroke: #000000"/>
      </g>
     </g>
    </g>
    <g id="ytick_22">
     <g id="line2d_110">
      <g>
       <use xlink:href="#m862c5be3b8" x="76.9325" y="320.708937" style="stroke: #000000"/>
      </g>
     </g>
     <g id="line2d_111">
      <g>
       <use xlink:href="#mf0273377fe" x="1081.3325" y="320.708937" style="stroke: #000000"/>
      </g>
     </g>
    </g>
    <g id="ytick_23">
     <g id="line2d_112">
      <g>
       <use xlink:href="#m862c5be3b8" x="76.9325" y="308.360161" style="stroke: #000000"/>
      </g>
     </g>
     <g id="line2d_113">
      <g>
       <use xlink:href="#mf0273377fe" x="1081.3325" y="308.360161" style="stroke: #000000"/>
      </g>
     </g>
    </g>
    <g id="ytick_24">
     <g id="line2d_114">
      <g>
       <use xlink:href="#m862c5be3b8" x="76.9325" y="283.662608" style="stroke: #000000"/>
      </g>
     </g>
     <g id="line2d_115">
      <g>
       <use xlink:href="#mf0273377fe" x="1081.3325" y="283.662608" style="stroke: #000000"/>
      </g>
     </g>
    </g>
    <g id="ytick_25">
     <g id="line2d_116">
      <g>
       <use xlink:href="#m862c5be3b8" x="76.9325" y="271.313832" style="stroke: #000000"/>
      </g>
     </g>
     <g id="line2d_117">
      <g>
       <use xlink:href="#mf0273377fe" x="1081.3325" y="271.313832" style="stroke: #000000"/>
      </g>
     </g>
    </g>
    <g id="ytick_26">
     <g id="line2d_118">
      <g>
       <use xlink:href="#m862c5be3b8" x="76.9325" y="258.965056" style="stroke: #000000"/>
      </g>
     </g>
     <g id="line2d_119">
      <g>
       <use xlink:href="#mf0273377fe" x="1081.3325" y="258.965056" style="stroke: #000000"/>
      </g>
     </g>
    </g>
    <g id="ytick_27">
     <g id="line2d_120">
      <g>
       <use xlink:href="#m862c5be3b8" x="76.9325" y="246.61628" style="stroke: #000000"/>
      </g>
     </g>
     <g id="line2d_121">
      <g>
       <use xlink:href="#mf0273377fe" x="1081.3325" y="246.61628" style="stroke: #000000"/>
      </g>
     </g>
    </g>
    <g id="ytick_28">
     <g id="line2d_122">
      <g>
       <use xlink:href="#m862c5be3b8" x="76.9325" y="221.918727" style="stroke: #000000"/>
      </g>
     </g>
     <g id="line2d_123">
      <g>
       <use xlink:href="#mf0273377fe" x="1081.3325" y="221.918727" style="stroke: #000000"/>
      </g>
     </g>
    </g>
    <g id="ytick_29">
     <g id="line2d_124">
      <g>
       <use xlink:href="#m862c5be3b8" x="76.9325" y="209.569951" style="stroke: #000000"/>
      </g>
     </g>
     <g id="line2d_125">
      <g>
       <use xlink:href="#mf0273377fe" x="1081.3325" y="209.569951" style="stroke: #000000"/>
      </g>
     </g>
    </g>
    <g id="ytick_30">
     <g id="line2d_126">
      <g>
       <use xlink:href="#m862c5be3b8" x="76.9325" y="197.221174" style="stroke: #000000"/>
      </g>
     </g>
     <g id="line2d_127">
      <g>
       <use xlink:href="#mf0273377fe" x="1081.3325" y="197.221174" style="stroke: #000000"/>
      </g>
     </g>
    </g>
    <g id="ytick_31">
     <g id="line2d_128">
      <g>
       <use xlink:href="#m862c5be3b8" x="76.9325" y="184.872398" style="stroke: #000000"/>
      </g>
     </g>
     <g id="line2d_129">
      <g>
       <use xlink:href="#mf0273377fe" x="1081.3325" y="184.872398" style="stroke: #000000"/>
      </g>
     </g>
    </g>
    <g id="ytick_32">
     <g id="line2d_130">
      <g>
       <use xlink:href="#m862c5be3b8" x="76.9325" y="160.174845" style="stroke: #000000"/>
      </g>
     </g>
     <g id="line2d_131">
      <g>
       <use xlink:href="#mf0273377fe" x="1081.3325" y="160.174845" style="stroke: #000000"/>
      </g>
     </g>
    </g>
    <g id="ytick_33">
     <g id="line2d_132">
      <g>
       <use xlink:href="#m862c5be3b8" x="76.9325" y="147.826069" style="stroke: #000000"/>
      </g>
     </g>
     <g id="line2d_133">
      <g>
       <use xlink:href="#mf0273377fe" x="1081.3325" y="147.826069" style="stroke: #000000"/>
      </g>
     </g>
    </g>
    <g id="ytick_34">
     <g id="line2d_134">
      <g>
       <use xlink:href="#m862c5be3b8" x="76.9325" y="135.477293" style="stroke: #000000"/>
      </g>
     </g>
     <g id="line2d_135">
      <g>
       <use xlink:href="#mf0273377fe" x="1081.3325" y="135.477293" style="stroke: #000000"/>
      </g>
     </g>
    </g>
    <g id="ytick_35">
     <g id="line2d_136">
      <g>
       <use xlink:href="#m862c5be3b8" x="76.9325" y="123.128516" style="stroke: #000000"/>
      </g>
     </g>
     <g id="line2d_137">
      <g>
       <use xlink:href="#mf0273377fe" x="1081.3325" y="123.128516" style="stroke: #000000"/>
      </g>
     </g>
    </g>
    <g id="ytick_36">
     <g id="line2d_138">
      <g>
       <use xlink:href="#m862c5be3b8" x="76.9325" y="98.430964" style="stroke: #000000"/>
      </g>
     </g>
     <g id="line2d_139">
      <g>
       <use xlink:href="#mf0273377fe" x="1081.3325" y="98.430964" style="stroke: #000000"/>
      </g>
     </g>
    </g>
    <g id="ytick_37">
     <g id="line2d_140">
      <g>
       <use xlink:href="#m862c5be3b8" x="76.9325" y="86.082187" style="stroke: #000000"/>
      </g>
     </g>
     <g id="line2d_141">
      <g>
       <use xlink:href="#mf0273377fe" x="1081.3325" y="86.082187" style="stroke: #000000"/>
      </g>
     </g>
    </g>
    <g id="ytick_38">
     <g id="line2d_142">
      <g>
       <use xlink:href="#m862c5be3b8" x="76.9325" y="73.733411" style="stroke: #000000"/>
      </g>
     </g>
     <g id="line2d_143">
      <g>
       <use xlink:href="#mf0273377fe" x="1081.3325" y="73.733411" style="stroke: #000000"/>
      </g>
     </g>
    </g>
    <g id="ytick_39">
     <g id="line2d_144">
      <g>
       <use xlink:href="#m862c5be3b8" x="76.9325" y="61.384635" style="stroke: #000000"/>
      </g>
     </g>
     <g id="line2d_145">
      <g>
       <use xlink:href="#mf0273377fe" x="1081.3325" y="61.384635" style="stroke: #000000"/>
      </g>
     </g>
    </g>
    <g id="ytick_40">
     <g id="line2d_146">
      <g>
       <use xlink:href="#m862c5be3b8" x="76.9325" y="36.687082" style="stroke: #000000"/>
      </g>
     </g>
     <g id="line2d_147">
      <g>
       <use xlink:href="#mf0273377fe" x="1081.3325" y="36.687082" style="stroke: #000000"/>
      </g>
     </g>
    </g>
    <g id="ytick_41">
     <g id="line2d_148">
      <g>
       <use xlink:href="#m862c5be3b8" x="76.9325" y="24.338306" style="stroke: #000000"/>
      </g>
     </g>
     <g id="line2d_149">
      <g>
       <use xlink:href="#mf0273377fe" x="1081.3325" y="24.338306" style="stroke: #000000"/>
      </g>
     </g>
    </g>
    <g id="text_17">
     <!-- Absolute Roof Acceleration (m/s$^2$) -->
     <g transform="translate(17.0725 406.6775) rotate(-90) scale(0.16 -0.16)">
      <defs>
       <path id="DejaVuSans-41" d="M 2188 4044 
L 1331 1722 
L 3047 1722 
L 2188 4044 
z
M 1831 4666 
L 2547 4666 
L 4325 0 
L 3669 0 
L 3244 1197 
L 1141 1197 
L 716 0 
L 50 0 
L 1831 4666 
z
" transform="scale(0.015625)"/>
       <path id="DejaVuSans-62" d="M 3116 1747 
Q 3116 2381 2855 2742 
Q 2594 3103 2138 3103 
Q 1681 3103 1420 2742 
Q 1159 2381 1159 1747 
Q 1159 1113 1420 752 
Q 1681 391 2138 391 
Q 2594 391 2855 752 
Q 3116 1113 3116 1747 
z
M 1159 2969 
Q 1341 3281 1617 3432 
Q 1894 3584 2278 3584 
Q 2916 3584 3314 3078 
Q 3713 2572 3713 1747 
Q 3713 922 3314 415 
Q 2916 -91 2278 -91 
Q 1894 -91 1617 61 
Q 1341 213 1159 525 
L 1159 0 
L 581 0 
L 581 4863 
L 1159 4863 
L 1159 2969 
z
" transform="scale(0.015625)"/>
       <path id="DejaVuSans-6f" d="M 1959 3097 
Q 1497 3097 1228 2736 
Q 959 2375 959 1747 
Q 959 1119 1226 758 
Q 1494 397 1959 397 
Q 2419 397 2687 759 
Q 2956 1122 2956 1747 
Q 2956 2369 2687 2733 
Q 2419 3097 1959 3097 
z
M 1959 3584 
Q 2709 3584 3137 3096 
Q 3566 2609 3566 1747 
Q 3566 888 3137 398 
Q 2709 -91 1959 -91 
Q 1206 -91 779 398 
Q 353 888 353 1747 
Q 353 2609 779 3096 
Q 1206 3584 1959 3584 
z
" transform="scale(0.015625)"/>
       <path id="DejaVuSans-6c" d="M 603 4863 
L 1178 4863 
L 1178 0 
L 603 0 
L 603 4863 
z
" transform="scale(0.015625)"/>
       <path id="DejaVuSans-75" d="M 544 1381 
L 544 3500 
L 1119 3500 
L 1119 1403 
Q 1119 906 1312 657 
Q 1506 409 1894 409 
Q 2359 409 2629 706 
Q 2900 1003 2900 1516 
L 2900 3500 
L 3475 3500 
L 3475 0 
L 2900 0 
L 2900 538 
Q 2691 219 2414 64 
Q 2138 -91 1772 -91 
Q 1169 -91 856 284 
Q 544 659 544 1381 
z
M 1991 3584 
L 1991 3584 
z
" transform="scale(0.015625)"/>
       <path id="DejaVuSans-74" d="M 1172 4494 
L 1172 3500 
L 2356 3500 
L 2356 3053 
L 1172 3053 
L 1172 1153 
Q 1172 725 1289 603 
Q 1406 481 1766 481 
L 2356 481 
L 2356 0 
L 1766 0 
Q 1100 0 847 248 
Q 594 497 594 1153 
L 594 3053 
L 172 3053 
L 172 3500 
L 594 3500 
L 594 4494 
L 1172 4494 
z
" transform="scale(0.015625)"/>
       <path id="DejaVuSans-20" transform="scale(0.015625)"/>
       <path id="DejaVuSans-52" d="M 2841 2188 
Q 3044 2119 3236 1894 
Q 3428 1669 3622 1275 
L 4263 0 
L 3584 0 
L 2988 1197 
Q 2756 1666 2539 1819 
Q 2322 1972 1947 1972 
L 1259 1972 
L 1259 0 
L 628 0 
L 628 4666 
L 2053 4666 
Q 2853 4666 3247 4331 
Q 3641 3997 3641 3322 
Q 3641 2881 3436 2590 
Q 3231 2300 2841 2188 
z
M 1259 4147 
L 1259 2491 
L 2053 2491 
Q 2509 2491 2742 2702 
Q 2975 2913 2975 3322 
Q 2975 3731 2742 3939 
Q 2509 4147 2053 4147 
L 1259 4147 
z
" transform="scale(0.015625)"/>
       <path id="DejaVuSans-66" d="M 2375 4863 
L 2375 4384 
L 1825 4384 
Q 1516 4384 1395 4259 
Q 1275 4134 1275 3809 
L 1275 3500 
L 2222 3500 
L 2222 3053 
L 1275 3053 
L 1275 0 
L 697 0 
L 697 3053 
L 147 3053 
L 147 3500 
L 697 3500 
L 697 3744 
Q 697 4328 969 4595 
Q 1241 4863 1831 4863 
L 2375 4863 
z
" transform="scale(0.015625)"/>
       <path id="DejaVuSans-63" d="M 3122 3366 
L 3122 2828 
Q 2878 2963 2633 3030 
Q 2388 3097 2138 3097 
Q 1578 3097 1268 2742 
Q 959 2388 959 1747 
Q 959 1106 1268 751 
Q 1578 397 2138 397 
Q 2388 397 2633 464 
Q 2878 531 3122 666 
L 3122 134 
Q 2881 22 2623 -34 
Q 2366 -91 2075 -91 
Q 1284 -91 818 406 
Q 353 903 353 1747 
Q 353 2603 823 3093 
Q 1294 3584 2113 3584 
Q 2378 3584 2631 3529 
Q 2884 3475 3122 3366 
z
" transform="scale(0.015625)"/>
       <path id="DejaVuSans-72" d="M 2631 2963 
Q 2534 3019 2420 3045 
Q 2306 3072 2169 3072 
Q 1681 3072 1420 2755 
Q 1159 2438 1159 1844 
L 1159 0 
L 581 0 
L 581 3500 
L 1159 3500 
L 1159 2956 
Q 1341 3275 1631 3429 
Q 1922 3584 2338 3584 
Q 2397 3584 2469 3576 
Q 2541 3569 2628 3553 
L 2631 2963 
z
" transform="scale(0.015625)"/>
       <path id="DejaVuSans-61" d="M 2194 1759 
Q 1497 1759 1228 1600 
Q 959 1441 959 1056 
Q 959 750 1161 570 
Q 1363 391 1709 391 
Q 2188 391 2477 730 
Q 2766 1069 2766 1631 
L 2766 1759 
L 2194 1759 
z
M 3341 1997 
L 3341 0 
L 2766 0 
L 2766 531 
Q 2569 213 2275 61 
Q 1981 -91 1556 -91 
Q 1019 -91 701 211 
Q 384 513 384 1019 
Q 384 1609 779 1909 
Q 1175 2209 1959 2209 
L 2766 2209 
L 2766 2266 
Q 2766 2663 2505 2880 
Q 2244 3097 1772 3097 
Q 1472 3097 1187 3025 
Q 903 2953 641 2809 
L 641 3341 
Q 956 3463 1253 3523 
Q 1550 3584 1831 3584 
Q 2591 3584 2966 3190 
Q 3341 2797 3341 1997 
z
" transform="scale(0.015625)"/>
       <path id="DejaVuSans-6e" d="M 3513 2113 
L 3513 0 
L 2938 0 
L 2938 2094 
Q 2938 2591 2744 2837 
Q 2550 3084 2163 3084 
Q 1697 3084 1428 2787 
Q 1159 2491 1159 1978 
L 1159 0 
L 581 0 
L 581 3500 
L 1159 3500 
L 1159 2956 
Q 1366 3272 1645 3428 
Q 1925 3584 2291 3584 
Q 2894 3584 3203 3211 
Q 3513 2838 3513 2113 
z
" transform="scale(0.015625)"/>
       <path id="DejaVuSans-2f" d="M 1625 4666 
L 2156 4666 
L 531 -594 
L 0 -594 
L 1625 4666 
z
" transform="scale(0.015625)"/>
      </defs>
      <use xlink:href="#DejaVuSans-41" transform="translate(0 0.765625)"/>
      <use xlink:href="#DejaVuSans-62" transform="translate(68.408203 0.765625)"/>
      <use xlink:href="#DejaVuSans-73" transform="translate(131.884766 0.765625)"/>
      <use xlink:href="#DejaVuSans-6f" transform="translate(183.984375 0.765625)"/>
      <use xlink:href="#DejaVuSans-6c" transform="translate(245.166016 0.765625)"/>
      <use xlink:href="#DejaVuSans-75" transform="translate(272.949219 0.765625)"/>
      <use xlink:href="#DejaVuSans-74" transform="translate(336.328125 0.765625)"/>
      <use xlink:href="#DejaVuSans-65" transform="translate(375.537109 0.765625)"/>
      <use xlink:href="#DejaVuSans-20" transform="translate(437.060547 0.765625)"/>
      <use xlink:href="#DejaVuSans-52" transform="translate(468.847656 0.765625)"/>
      <use xlink:href="#DejaVuSans-6f" transform="translate(538.330078 0.765625)"/>
      <use xlink:href="#DejaVuSans-6f" transform="translate(599.511719 0.765625)"/>
      <use xlink:href="#DejaVuSans-66" transform="translate(660.693359 0.765625)"/>
      <use xlink:href="#DejaVuSans-20" transform="translate(695.898438 0.765625)"/>
      <use xlink:href="#DejaVuSans-41" transform="translate(727.685547 0.765625)"/>
      <use xlink:href="#DejaVuSans-63" transform="translate(796.09375 0.765625)"/>
      <use xlink:href="#DejaVuSans-63" transform="translate(851.074219 0.765625)"/>
      <use xlink:href="#DejaVuSans-65" transform="translate(906.054688 0.765625)"/>
      <use xlink:href="#DejaVuSans-6c" transform="translate(967.578125 0.765625)"/>
      <use xlink:href="#DejaVuSans-65" transform="translate(995.361328 0.765625)"/>
      <use xlink:href="#DejaVuSans-72" transform="translate(1056.884766 0.765625)"/>
      <use xlink:href="#DejaVuSans-61" transform="translate(1097.998047 0.765625)"/>
      <use xlink:href="#DejaVuSans-74" transform="translate(1159.277344 0.765625)"/>
      <use xlink:href="#DejaVuSans-69" transform="translate(1198.486328 0.765625)"/>
      <use xlink:href="#DejaVuSans-6f" transform="translate(1226.269531 0.765625)"/>
      <use xlink:href="#DejaVuSans-6e" transform="translate(1287.451172 0.765625)"/>
      <use xlink:href="#DejaVuSans-20" transform="translate(1350.830078 0.765625)"/>
      <use xlink:href="#DejaVuSans-28" transform="translate(1382.617188 0.765625)"/>
      <use xlink:href="#DejaVuSans-6d" transform="translate(1421.630859 0.765625)"/>
      <use xlink:href="#DejaVuSans-2f" transform="translate(1519.042969 0.765625)"/>
      <use xlink:href="#DejaVuSans-73" transform="translate(1552.734375 0.765625)"/>
      <use xlink:href="#DejaVuSans-32" transform="translate(1605.791016 39.046875) scale(0.7)"/>
      <use xlink:href="#DejaVuSans-29" transform="translate(1653.061523 0.765625)"/>
     </g>
    </g>
   </g>
   <g id="line2d_150">
    <path d="M 122.587045 296.011385 
L 123.368801 295.830343 
L 124.150557 295.190181 
L 125.714069 293.236894 
L 126.495825 292.668147 
L 127.277581 292.660289 
L 128.059337 293.162934 
L 130.404605 295.403505 
L 131.186361 295.682079 
L 131.968116 295.546096 
L 133.531628 294.50292 
L 134.313384 294.005096 
L 135.09514 293.759317 
L 135.876896 293.79141 
L 136.658652 294.064665 
L 138.222164 295.023002 
L 139.785676 295.871519 
L 140.567432 296.029078 
L 141.349187 295.91394 
L 142.130943 295.538598 
L 143.694455 294.157176 
L 145.257967 292.704368 
L 146.039723 292.323558 
L 146.821479 292.377822 
L 147.603235 292.870378 
L 148.384991 293.676444 
L 150.730258 296.413849 
L 151.512014 297.327993 
L 152.29377 298.490386 
L 153.857282 301.638809 
L 154.639038 303.27507 
L 155.420794 304.568087 
L 156.20255 305.131885 
L 156.984306 304.571213 
L 157.766062 302.722085 
L 159.329573 296.953195 
L 160.111329 294.752655 
L 160.893085 293.890489 
L 161.674841 294.470652 
L 162.456597 296.263361 
L 164.020109 301.378526 
L 164.801865 302.891383 
L 165.583621 302.362455 
L 166.365377 299.435922 
L 168.710644 285.008996 
L 169.4924 282.301932 
L 170.274156 281.881313 
L 171.055912 283.730071 
L 171.837668 287.222337 
L 173.40118 294.754008 
L 174.182936 297.000123 
L 174.964692 297.844809 
L 175.746448 297.47433 
L 176.528204 296.309361 
L 177.30996 294.930528 
L 178.091715 294.038234 
L 178.873471 294.181103 
L 179.655227 295.804415 
L 180.436983 298.781173 
L 182.000495 306.472609 
L 182.782251 309.507582 
L 183.564007 311.026482 
L 184.345763 310.627476 
L 185.127519 308.146464 
L 185.909275 303.75791 
L 188.254542 286.807622 
L 189.036298 282.403569 
L 189.818054 280.488079 
L 190.59981 281.872619 
L 191.381566 286.05436 
L 192.945078 297.216553 
L 193.726834 301.421904 
L 194.50859 303.897429 
L 195.290346 305.161514 
L 196.072101 306.078434 
L 196.853857 307.273424 
L 197.635613 308.983384 
L 199.199125 313.549039 
L 199.980881 314.964794 
L 200.762637 313.843981 
L 201.544393 309.485472 
L 203.107905 294.867586 
L 203.889661 287.756655 
L 204.671417 282.706713 
L 205.453172 280.549897 
L 206.234928 281.514303 
L 207.016684 285.103488 
L 209.361952 299.804635 
L 210.143708 303.636309 
L 210.925464 306.393229 
L 211.70722 308.119677 
L 212.488976 309.170117 
L 213.270732 309.875875 
L 214.052488 310.043444 
L 214.834243 308.793674 
L 215.615999 305.399444 
L 216.397755 300.199801 
L 217.961267 288.044744 
L 218.743023 282.918436 
L 219.524779 279.619978 
L 220.306535 278.932185 
L 221.088291 281.077886 
L 221.870047 285.39176 
L 223.433559 295.541272 
L 224.215314 299.338347 
L 224.99707 301.5355 
L 225.778826 302.158906 
L 226.560582 301.693797 
L 228.124094 300.141321 
L 228.90585 299.426433 
L 229.687606 298.297228 
L 231.251118 294.732941 
L 232.032874 293.666384 
L 232.81463 294.038425 
L 233.596385 295.785085 
L 234.378141 298.044159 
L 235.159897 299.670575 
L 235.941653 299.778502 
L 236.723409 298.219982 
L 239.068677 290.030603 
L 239.850433 288.885915 
L 240.632189 289.27432 
L 241.413945 290.983263 
L 242.1957 293.531901 
L 243.759212 300.042064 
L 245.322724 307.101157 
L 246.10448 309.580766 
L 246.886236 310.851168 
L 247.667992 310.769598 
L 248.449748 308.700091 
L 249.231504 303.75343 
L 251.576771 280.400462 
L 252.358527 276.973684 
L 253.140283 278.1556 
L 253.922039 283.359117 
L 256.267307 306.063789 
L 257.049063 310.411428 
L 257.830819 312.489685 
L 258.612575 313.115263 
L 259.394331 312.747581 
L 260.176087 310.997649 
L 260.957842 307.423657 
L 262.521354 297.562721 
L 263.30311 294.968521 
L 264.084866 296.066992 
L 264.866622 300.5633 
L 265.648378 306.572207 
L 266.430134 311.579426 
L 267.21189 313.566234 
L 267.993646 311.750312 
L 268.775402 306.460052 
L 271.120669 284.418507 
L 271.902425 279.455239 
L 272.684181 276.249101 
L 273.465937 274.405946 
L 274.247693 273.491338 
L 275.811205 272.790972 
L 276.592961 272.739314 
L 277.374717 273.979938 
L 278.156473 277.471526 
L 280.50174 293.525082 
L 281.283496 295.820303 
L 282.065252 295.625997 
L 282.847008 294.178567 
L 283.628764 293.37081 
L 284.41052 294.430509 
L 285.192276 296.862576 
L 285.974032 298.525433 
L 286.755788 297.46635 
L 287.537544 293.086829 
L 288.3193 285.621056 
L 291.446323 247.527704 
L 293.009835 232.170242 
L 293.791591 225.153567 
L 294.573347 219.769838 
L 295.355103 218.120491 
L 296.136859 222.363071 
L 296.918615 232.80304 
L 298.482126 264.088175 
L 299.263882 279.791701 
L 300.045638 292.474529 
L 300.827394 300.432036 
L 301.60915 302.821979 
L 302.390906 300.28366 
L 303.172662 294.795826 
L 304.736174 280.898505 
L 305.51793 272.511558 
L 307.863197 242.713828 
L 308.644953 236.613512 
L 309.426709 236.787134 
L 310.208465 245.45517 
L 310.990221 263.226664 
L 312.553733 313.482869 
L 313.335489 332.669286 
L 314.117245 339.189125 
L 314.899001 330.536317 
L 315.680757 309.006215 
L 317.244268 256.505379 
L 318.026024 242.379068 
L 318.80778 242.580569 
L 319.589536 256.122901 
L 321.934804 323.67792 
L 322.71656 335.524416 
L 323.498316 337.83772 
L 324.280072 332.755022 
L 325.061828 324.600663 
L 325.843583 318.905061 
L 326.625339 320.19425 
L 327.407095 330.140127 
L 328.188851 347.95561 
L 330.534119 417.197907 
L 331.315875 434.80962 
L 332.097631 446.298445 
L 332.879387 448.600445 
L 333.661143 440.256195 
L 334.442899 423.493979 
L 336.00641 383.87509 
L 336.788166 370.199442 
L 337.569922 364.007576 
L 338.351678 364.028667 
L 339.133434 365.971498 
L 339.91519 365.425299 
L 340.696946 360.089942 
L 343.042214 332.334865 
L 343.823969 327.69996 
L 344.605725 326.162475 
L 345.387481 324.986803 
L 346.169237 321.024418 
L 346.950993 312.928844 
L 347.732749 302.388342 
L 348.514505 294.438501 
L 349.296261 295.182233 
L 350.078017 307.643493 
L 350.859773 330.286928 
L 352.423285 382.002729 
L 353.20504 395.624015 
L 353.986796 395.510296 
L 354.768552 382.082876 
L 355.550308 358.200805 
L 357.11382 302.065562 
L 357.895576 281.802439 
L 358.677332 269.324635 
L 359.459088 260.529454 
L 360.240844 247.753293 
L 361.0226 223.789373 
L 361.804356 186.551109 
L 363.367867 94.417275 
L 364.149623 59.391889 
L 364.931379 44.4375 
L 365.713135 54.895648 
L 366.494891 91.437177 
L 367.276647 150.838919 
L 370.403671 447.697055 
L 371.185427 484.688562 
L 371.967182 498.0375 
L 372.748938 491.51343 
L 373.530694 469.727868 
L 374.31245 436.186808 
L 375.875962 345.535447 
L 376.657718 299.705732 
L 377.439474 263.891409 
L 378.22123 243.268375 
L 379.002986 237.705447 
L 379.784742 242.395222 
L 380.566498 249.548394 
L 381.348253 251.248314 
L 382.130009 242.41915 
L 382.911765 223.094503 
L 383.693521 199.122349 
L 384.475277 179.705406 
L 385.257033 172.942414 
L 386.038789 182.126341 
L 386.820545 205.076858 
L 389.165813 293.777622 
L 389.947568 309.575716 
L 390.729324 315.154868 
L 391.51108 313.669185 
L 392.292836 309.651347 
L 393.074592 306.716168 
L 393.856348 305.291959 
L 394.638104 302.191352 
L 395.41986 293.334394 
L 396.201616 277.030231 
L 397.765128 232.72494 
L 398.546884 216.514088 
L 399.328639 210.507119 
L 400.110395 216.013955 
L 400.892151 232.968102 
L 403.237419 312.233223 
L 404.019175 327.571048 
L 404.800931 330.943858 
L 405.582687 323.908681 
L 407.927955 284.365987 
L 408.70971 280.582102 
L 409.491466 285.568369 
L 410.273222 297.988955 
L 411.836734 330.730222 
L 412.61849 341.758562 
L 413.400246 342.202974 
L 414.182002 330.039013 
L 414.963758 307.754033 
L 416.52727 257.274737 
L 417.309026 241.516201 
L 418.090781 236.64644 
L 418.872537 243.215535 
L 419.654293 259.755699 
L 421.217805 306.166558 
L 421.999561 324.610116 
L 422.781317 331.956269 
L 423.563073 324.698257 
L 424.344829 304.44723 
L 426.690097 224.31125 
L 427.471852 210.212793 
L 428.253608 206.270329 
L 429.035364 210.034494 
L 429.81712 217.106833 
L 430.598876 223.042504 
L 431.380632 225.694008 
L 432.162388 227.036424 
L 432.944144 231.456355 
L 433.7259 241.935214 
L 434.507656 258.447089 
L 436.071167 296.08166 
L 436.852923 309.059694 
L 437.634679 315.83938 
L 438.416435 317.934125 
L 439.198191 318.377357 
L 439.979947 320.174836 
L 440.761703 324.805515 
L 441.543459 330.877012 
L 442.325215 335.457853 
L 443.106971 336.693511 
L 443.888727 333.707716 
L 444.670483 326.099715 
L 446.233994 302.011778 
L 447.797506 277.598032 
L 448.579262 269.744844 
L 449.361018 268.631335 
L 450.142774 275.806645 
L 450.92453 290.035705 
L 452.488042 324.789924 
L 453.269798 337.328063 
L 454.051554 343.117562 
L 454.833309 340.933133 
L 455.615065 330.612201 
L 457.960333 281.881007 
L 458.742089 274.847955 
L 459.523845 276.705757 
L 460.305601 286.109407 
L 461.869113 314.515407 
L 462.650869 325.734881 
L 463.432625 331.030443 
L 464.21438 329.750526 
L 464.996136 323.357805 
L 465.777892 314.789045 
L 466.559648 307.833616 
L 467.341404 305.621917 
L 468.12316 309.379726 
L 468.904916 317.843548 
L 469.686672 327.734045 
L 470.468428 335.487557 
L 471.250184 339.072955 
L 472.03194 338.791881 
L 472.813696 336.751822 
L 473.595451 335.28157 
L 474.377207 335.570524 
L 475.158963 336.804123 
L 475.940719 336.276502 
L 476.722475 331.297959 
L 477.504231 321.052896 
L 479.067743 290.353744 
L 479.849499 274.82491 
L 480.631255 262.354111 
L 481.413011 254.195842 
L 482.194767 251.012705 
L 482.976522 253.652027 
L 483.758278 262.741878 
L 484.540034 278.17394 
L 486.103546 321.223502 
L 486.885302 342.38561 
L 487.667058 358.663053 
L 488.448814 367.099529 
L 489.23057 366.148283 
L 490.012326 357.11439 
L 492.357593 314.943098 
L 493.139349 305.310707 
L 493.921105 301.767814 
L 494.702861 305.629315 
L 495.484617 316.263327 
L 497.048129 345.319273 
L 497.829885 355.661639 
L 498.611641 357.85535 
L 499.393397 349.366745 
L 500.175153 330.431921 
L 502.52042 256.696168 
L 503.302176 245.239217 
L 504.083932 244.464887 
L 504.865688 252.229329 
L 507.992712 301.986385 
L 508.774468 309.285396 
L 509.556224 313.263375 
L 510.337979 314.695876 
L 511.119735 314.846341 
L 511.901491 314.672986 
L 512.683247 314.310619 
L 513.465003 313.458184 
L 514.246759 311.994183 
L 515.028515 309.36289 
L 515.810271 304.329558 
L 516.592027 296.453323 
L 518.155539 277.2812 
L 518.937295 270.189467 
L 519.71905 266.813086 
L 520.500806 267.372815 
L 521.282562 271.43538 
L 523.62783 291.188126 
L 524.409586 295.874789 
L 525.191342 299.038384 
L 525.973098 300.951858 
L 526.754854 302.056875 
L 528.318366 303.796908 
L 530.663633 307.367717 
L 531.445389 307.639829 
L 532.227145 307.023184 
L 533.008901 305.567063 
L 533.790657 303.416934 
L 534.572413 300.53171 
L 535.354169 296.450259 
L 536.135925 290.58599 
L 538.481192 269.013245 
L 539.262948 265.459252 
L 540.044704 265.177477 
L 540.82646 268.694717 
L 541.608216 276.334176 
L 543.953484 308.778893 
L 544.73524 316.958087 
L 545.516996 322.225388 
L 546.298752 324.558837 
L 547.080507 324.50891 
L 547.862263 323.076389 
L 548.644019 321.254502 
L 549.425775 318.804559 
L 550.207531 314.893797 
L 550.989287 309.299189 
L 551.771043 301.78355 
L 552.552799 291.566997 
L 554.898067 250.983003 
L 555.679823 242.404873 
L 556.461578 241.932928 
L 557.243334 251.40682 
L 558.02509 269.460779 
L 559.588602 314.158554 
L 560.370358 332.21268 
L 561.152114 343.619036 
L 561.93387 347.545933 
L 562.715626 344.5847 
L 563.497382 336.997813 
L 564.279138 328.1654 
L 565.060894 320.977004 
L 565.842649 316.739366 
L 566.624405 315.727907 
L 567.406161 316.863255 
L 568.187917 317.635043 
L 568.969673 315.264621 
L 569.751429 308.51834 
L 570.533185 297.98703 
L 572.096697 273.321433 
L 572.878453 263.504908 
L 573.660209 257.654786 
L 574.441965 256.605626 
L 575.22372 259.526402 
L 577.568988 274.129876 
L 578.350744 276.045014 
L 579.1325 275.283772 
L 579.914256 272.366921 
L 581.477768 264.768872 
L 582.259524 262.774386 
L 583.04128 263.222529 
L 583.823035 266.158038 
L 586.168303 279.385689 
L 586.950059 281.351628 
L 587.731815 281.491807 
L 589.295327 279.59261 
L 590.077083 279.329659 
L 590.858839 279.991803 
L 591.640595 281.353421 
L 592.422351 282.984358 
L 593.204106 284.32518 
L 593.985862 284.725366 
L 594.767618 283.716937 
L 595.549374 281.198347 
L 596.33113 277.363247 
L 597.894642 267.209742 
L 598.676398 262.093431 
L 599.458154 258.062101 
L 600.23991 255.840707 
L 601.021666 255.670815 
L 601.803422 257.713107 
L 602.585177 262.66525 
L 603.366933 270.72203 
L 606.493957 310.620847 
L 607.275713 317.473547 
L 608.057469 321.576706 
L 608.839225 322.882656 
L 609.620981 322.213642 
L 610.402737 320.775737 
L 611.184493 319.703988 
L 611.966248 319.828898 
L 612.748004 321.491924 
L 615.093272 330.099343 
L 615.875028 330.592867 
L 616.656784 327.776035 
L 617.43854 321.113681 
L 619.783808 291.661737 
L 620.565564 284.813691 
L 621.347319 281.518803 
L 622.129075 282.14629 
L 622.910831 286.18323 
L 624.474343 297.209189 
L 625.256099 299.204309 
L 626.037855 296.59396 
L 626.819611 289.542855 
L 628.383123 267.683317 
L 629.164879 256.64771 
L 629.946634 248.561881 
L 630.72839 245.974408 
L 631.510146 251.170723 
L 632.291902 264.723935 
L 634.63717 324.793179 
L 635.418926 337.095766 
L 636.200682 341.453477 
L 636.982438 337.527933 
L 637.764194 325.882334 
L 640.109461 276.894154 
L 640.891217 267.754729 
L 641.672973 264.748526 
L 642.454729 267.126295 
L 643.236485 273.324738 
L 644.799997 288.115644 
L 645.581753 292.552359 
L 646.363509 294.33749 
L 647.145265 294.147523 
L 647.927021 292.984356 
L 648.708776 292.185917 
L 649.490532 292.950904 
L 650.272288 295.774442 
L 651.054044 300.285705 
L 652.617556 310.157649 
L 653.399312 313.404223 
L 654.181068 314.815979 
L 654.962824 314.544095 
L 655.74458 313.164305 
L 657.308092 309.755412 
L 658.089847 308.362597 
L 658.871603 307.292701 
L 659.653359 306.818849 
L 660.435115 307.281612 
L 661.216871 308.799635 
L 661.998627 311.238115 
L 662.780383 314.442809 
L 665.125651 326.180494 
L 665.907407 328.465962 
L 666.689163 328.471604 
L 667.470918 326.169988 
L 668.252674 322.254639 
L 669.816186 313.604961 
L 670.597942 310.413763 
L 672.94321 303.385017 
L 673.724966 299.96779 
L 674.506722 295.420256 
L 676.851989 279.117167 
L 677.633745 277.414383 
L 678.415501 279.444061 
L 679.197257 284.497479 
L 681.542525 304.140321 
L 682.324281 306.864018 
L 683.106037 305.158922 
L 683.887793 298.86983 
L 685.451304 279.87667 
L 686.23306 272.624036 
L 687.014816 269.480355 
L 687.796572 270.542007 
L 688.578328 274.396654 
L 689.360084 278.860657 
L 690.14184 281.867435 
L 690.923596 282.152879 
L 691.705352 279.556174 
L 693.268864 269.999616 
L 694.05062 266.865334 
L 694.832375 267.551069 
L 695.614131 272.729692 
L 696.395887 281.902012 
L 697.177643 294.179478 
L 698.741155 322.295697 
L 699.522911 333.784821 
L 700.304667 340.915753 
L 701.086423 343.216885 
L 701.868179 341.493888 
L 702.649935 336.919936 
L 704.213446 324.79305 
L 707.34047 304.461176 
L 709.685738 286.660554 
L 710.467494 282.487843 
L 711.24925 281.103868 
L 712.031006 283.505767 
L 712.812762 289.131366 
L 713.594517 295.866553 
L 714.376273 301.029188 
L 715.158029 302.641214 
L 715.939785 300.137861 
L 716.721541 294.297576 
L 718.285053 279.6525 
L 719.066809 274.895923 
L 719.848565 273.973465 
L 720.630321 277.193923 
L 721.412077 283.723658 
L 723.757344 309.562625 
L 724.5391 316.166871 
L 725.320856 320.003451 
L 726.102612 320.793065 
L 726.884368 319.120839 
L 727.666124 315.916311 
L 730.793148 299.293086 
L 731.574903 296.779792 
L 733.138415 292.983554 
L 733.920171 290.50385 
L 734.701927 286.717301 
L 735.483683 281.386932 
L 737.828951 262.759127 
L 738.610707 258.91683 
L 739.392463 257.885072 
L 740.174219 260.485602 
L 740.955974 266.441151 
L 742.519486 283.390984 
L 744.082998 299.961605 
L 744.864754 305.921581 
L 745.64651 310.061909 
L 746.428266 312.867138 
L 747.210022 314.736452 
L 747.991778 315.366716 
L 748.773534 314.052193 
L 749.55529 310.878209 
L 751.118801 302.646553 
L 751.900557 299.547414 
L 752.682313 297.93835 
L 753.464069 297.771158 
L 754.245825 298.348193 
L 755.027581 298.749563 
L 755.809337 298.440892 
L 756.591093 297.641756 
L 757.372849 297.045507 
L 758.154605 297.09548 
L 758.936361 297.751998 
L 760.499872 299.68063 
L 761.281628 300.290407 
L 762.063384 300.436521 
L 762.84514 300.179834 
L 763.626896 299.799693 
L 764.408652 299.636503 
L 765.190408 299.977151 
L 765.972164 300.969393 
L 766.75392 302.585419 
L 767.535676 304.707879 
L 769.099187 310.046059 
L 769.880943 312.748208 
L 770.662699 314.512786 
L 771.444455 314.440052 
L 772.226211 312.416716 
L 773.007967 308.524117 
L 773.789723 302.593686 
L 776.916747 272.739419 
L 777.698502 268.355976 
L 778.480258 266.078886 
L 779.262014 266.131772 
L 780.04377 268.613652 
L 780.825526 272.969899 
L 783.95255 293.616063 
L 784.734306 296.960797 
L 785.516062 298.938697 
L 786.297818 299.757642 
L 787.079573 299.919325 
L 787.861329 299.900413 
L 788.643085 300.13081 
L 790.206597 301.374215 
L 790.988353 301.450091 
L 791.770109 300.385126 
L 792.551865 298.062347 
L 794.115377 291.138448 
L 794.897133 287.72132 
L 795.678889 285.114905 
L 796.460644 283.731834 
L 797.2424 283.674411 
L 798.024156 284.661542 
L 801.932936 292.088715 
L 803.496448 294.818279 
L 805.05996 297.68295 
L 805.841715 298.47076 
L 806.623471 298.52664 
L 807.405227 297.766777 
L 808.186983 296.240692 
L 808.968739 294.12297 
L 812.095763 284.558285 
L 812.877519 283.226765 
L 813.659275 283.281924 
L 814.441031 285.18657 
L 815.222786 288.681933 
L 817.568054 301.290687 
L 818.34981 304.097353 
L 819.131566 305.63543 
L 819.913322 306.078712 
L 823.040346 305.467488 
L 823.822101 305.511751 
L 825.385613 305.985963 
L 826.167369 306.231577 
L 826.949125 306.218256 
L 827.730881 305.770796 
L 828.512637 304.80388 
L 829.294393 303.357858 
L 830.857905 299.894973 
L 831.639661 298.498865 
L 832.421417 297.733307 
L 833.203172 297.80043 
L 833.984928 298.732226 
L 834.766684 300.332003 
L 836.330196 303.7862 
L 837.111952 304.688267 
L 837.893708 304.546011 
L 838.675464 303.097565 
L 839.45722 300.243665 
L 840.238976 296.140634 
L 842.584243 282.121068 
L 843.365999 279.007609 
L 844.147755 277.456523 
L 844.929511 277.838613 
L 845.711267 280.2061 
L 846.493023 284.0323 
L 849.620047 301.970047 
L 850.401803 304.576539 
L 851.183559 306.006171 
L 851.965314 306.547088 
L 852.74707 306.454832 
L 853.528826 305.906201 
L 854.310582 305.065561 
L 855.092338 304.050375 
L 855.874094 302.807655 
L 856.65585 301.161258 
L 859.001118 295.143793 
L 859.782874 294.507082 
L 860.56463 295.081988 
L 862.128141 297.928281 
L 862.909897 298.727977 
L 863.691653 298.579407 
L 865.255165 297.163887 
L 866.036921 297.183389 
L 866.818677 298.127432 
L 867.600433 299.872857 
L 869.163945 303.917858 
L 869.9457 304.632231 
L 870.727456 303.198095 
L 871.509212 299.36646 
L 873.85448 282.990691 
L 874.636236 279.644063 
L 875.417992 278.401356 
L 876.199748 279.12963 
L 876.981504 281.179648 
L 881.672039 296.103098 
L 883.235551 301.654775 
L 884.017307 303.729624 
L 884.799063 304.162796 
L 885.580819 302.394581 
L 886.362575 298.795654 
L 887.926087 290.870444 
L 888.707842 288.827737 
L 889.489598 288.865028 
L 890.271354 290.91086 
L 892.616622 300.964068 
L 893.398378 302.128227 
L 894.180134 301.314122 
L 894.96189 298.906184 
L 896.525402 292.253802 
L 897.307158 289.569337 
L 898.088913 288.288203 
L 898.870669 288.900761 
L 899.652425 291.4457 
L 900.434181 295.446146 
L 901.997693 304.581506 
L 902.779449 308.232827 
L 903.561205 310.62971 
L 904.342961 311.576597 
L 905.124717 311.16509 
L 906.688229 308.723709 
L 907.469984 308.695311 
L 908.25174 310.558384 
L 909.815252 317.463136 
L 910.597008 319.086375 
L 911.378764 317.698173 
L 912.16052 313.134524 
L 912.942276 305.763339 
L 915.287544 278.815847 
L 916.0693 273.504481 
L 916.851055 271.458543 
L 917.632811 272.196469 
L 918.414567 274.792907 
L 919.978079 281.898383 
L 920.759835 284.21362 
L 921.541591 284.834473 
L 922.323347 283.917105 
L 923.886859 280.181916 
L 924.668615 279.341992 
L 925.45037 280.2683 
L 926.232126 283.0145 
L 928.577394 294.615186 
L 929.35915 296.66962 
L 930.140906 296.951207 
L 930.922662 295.659902 
L 931.704418 293.538993 
L 932.486174 291.775048 
L 933.26793 291.544966 
L 934.049686 293.498972 
L 934.831441 297.561763 
L 936.394953 309.400313 
L 937.176709 315.247795 
L 937.958465 319.350393 
L 938.740221 320.477699 
L 939.521977 318.194752 
L 940.303733 313.095166 
L 942.649001 293.567111 
L 943.430757 289.332508 
L 944.212512 287.151747 
L 944.994268 286.611256 
L 945.776024 287.070198 
L 946.55778 287.713179 
L 947.339536 288.125224 
L 948.121292 288.210628 
L 948.903048 288.005605 
L 949.684804 287.666789 
L 950.46656 287.461047 
L 951.248316 287.626106 
L 952.030072 288.194771 
L 955.157095 291.340296 
L 955.938851 291.989477 
L 956.720607 292.826823 
L 957.502363 293.959598 
L 959.065875 296.974812 
L 960.629387 300.014658 
L 961.411143 300.974572 
L 962.192899 301.249765 
L 962.974654 300.787283 
L 963.75641 299.734529 
L 965.319922 297.11611 
L 966.101678 296.311995 
L 966.883434 296.343067 
L 967.66519 297.425577 
L 968.446946 299.461089 
L 970.010458 304.617176 
L 970.792214 306.666477 
L 971.573969 307.841965 
L 972.355725 308.050282 
L 973.137481 307.450999 
L 975.482749 304.127701 
L 976.264505 303.438605 
L 978.609773 302.315168 
L 979.391529 301.434042 
L 980.173285 300.020211 
L 982.518552 294.330143 
L 983.300308 292.926666 
L 984.082064 292.12085 
L 984.86382 291.994267 
L 985.645576 292.564522 
L 986.427332 293.719923 
L 987.990844 296.580531 
L 988.7726 297.582114 
L 989.554356 297.930108 
L 990.336111 297.536078 
L 991.117867 296.489777 
L 992.681379 293.535656 
L 993.463135 292.352919 
L 994.244891 291.863374 
L 995.026647 292.189587 
L 996.590159 294.148339 
L 997.371915 294.741277 
L 998.153671 294.550173 
L 998.935427 293.55048 
L 1001.280694 288.803766 
L 1002.06245 288.019829 
L 1002.844206 288.138045 
L 1003.625962 289.173618 
L 1005.189474 292.879553 
L 1005.97123 294.680082 
L 1006.752986 295.987821 
L 1007.534742 296.682379 
L 1008.316498 296.800439 
L 1009.098253 296.502343 
L 1010.661765 295.630009 
L 1011.443521 295.506001 
L 1012.225277 295.727224 
L 1013.007033 296.29519 
L 1014.570545 297.677523 
L 1015.352301 298.02018 
L 1016.134057 297.961097 
L 1016.915813 297.565374 
L 1018.479324 296.383207 
L 1019.26108 295.935476 
L 1020.042836 295.744834 
L 1020.824592 295.813244 
L 1022.388104 296.496022 
L 1023.16986 296.850372 
L 1023.951616 297.066284 
L 1024.733372 297.053353 
L 1025.515128 296.834196 
L 1027.860395 295.683258 
L 1028.642151 295.499995 
L 1029.423907 295.541264 
L 1030.205663 295.756669 
L 1032.550931 296.71656 
L 1033.332687 296.81922 
L 1034.114443 296.740295 
L 1035.677955 296.175295 
L 1035.677955 296.175295 
" clip-path="url(#pfe773fee4e)" style="fill: none; stroke: #0c5da5; stroke-width: 2; stroke-linecap: square"/>
   </g>
   <g id="patch_3">
    <path d="M 76.9325 520.7175 
L 76.9325 21.7575 
" style="fill: none; stroke: #000000; stroke-linejoin: miter; stroke-linecap: square"/>
   </g>
   <g id="patch_4">
    <path d="M 1081.3325 520.7175 
L 1081.3325 21.7575 
" style="fill: none; stroke: #000000; stroke-linejoin: miter; stroke-linecap: square"/>
   </g>
   <g id="patch_5">
    <path d="M 76.9325 520.7175 
L 1081.3325 520.7175 
" style="fill: none; stroke: #000000; stroke-linejoin: miter; stroke-linecap: square"/>
   </g>
   <g id="patch_6">
    <path d="M 76.9325 21.7575 
L 1081.3325 21.7575 
" style="fill: none; stroke: #000000; stroke-linejoin: miter; stroke-linecap: square"/>
   </g>
   <g id="text_18">
    <!-- Santa Barbara Record no. 135 -->
    <g transform="translate(458.74 15.7575) scale(0.16 -0.16)">
     <defs>
      <path id="DejaVuSans-53" d="M 3425 4513 
L 3425 3897 
Q 3066 4069 2747 4153 
Q 2428 4238 2131 4238 
Q 1616 4238 1336 4038 
Q 1056 3838 1056 3469 
Q 1056 3159 1242 3001 
Q 1428 2844 1947 2747 
L 2328 2669 
Q 3034 2534 3370 2195 
Q 3706 1856 3706 1288 
Q 3706 609 3251 259 
Q 2797 -91 1919 -91 
Q 1588 -91 1214 -16 
Q 841 59 441 206 
L 441 856 
Q 825 641 1194 531 
Q 1563 422 1919 422 
Q 2459 422 2753 634 
Q 3047 847 3047 1241 
Q 3047 1584 2836 1778 
Q 2625 1972 2144 2069 
L 1759 2144 
Q 1053 2284 737 2584 
Q 422 2884 422 3419 
Q 422 4038 858 4394 
Q 1294 4750 2059 4750 
Q 2388 4750 2728 4690 
Q 3069 4631 3425 4513 
z
" transform="scale(0.015625)"/>
      <path id="DejaVuSans-42" d="M 1259 2228 
L 1259 519 
L 2272 519 
Q 2781 519 3026 730 
Q 3272 941 3272 1375 
Q 3272 1813 3026 2020 
Q 2781 2228 2272 2228 
L 1259 2228 
z
M 1259 4147 
L 1259 2741 
L 2194 2741 
Q 2656 2741 2882 2914 
Q 3109 3088 3109 3444 
Q 3109 3797 2882 3972 
Q 2656 4147 2194 4147 
L 1259 4147 
z
M 628 4666 
L 2241 4666 
Q 2963 4666 3353 4366 
Q 3744 4066 3744 3513 
Q 3744 3084 3544 2831 
Q 3344 2578 2956 2516 
Q 3422 2416 3680 2098 
Q 3938 1781 3938 1306 
Q 3938 681 3513 340 
Q 3088 0 2303 0 
L 628 0 
L 628 4666 
z
" transform="scale(0.015625)"/>
      <path id="DejaVuSans-64" d="M 2906 2969 
L 2906 4863 
L 3481 4863 
L 3481 0 
L 2906 0 
L 2906 525 
Q 2725 213 2448 61 
Q 2172 -91 1784 -91 
Q 1150 -91 751 415 
Q 353 922 353 1747 
Q 353 2572 751 3078 
Q 1150 3584 1784 3584 
Q 2172 3584 2448 3432 
Q 2725 3281 2906 2969 
z
M 947 1747 
Q 947 1113 1208 752 
Q 1469 391 1925 391 
Q 2381 391 2643 752 
Q 2906 1113 2906 1747 
Q 2906 2381 2643 2742 
Q 2381 3103 1925 3103 
Q 1469 3103 1208 2742 
Q 947 2381 947 1747 
z
" transform="scale(0.015625)"/>
      <path id="DejaVuSans-33" d="M 2597 2516 
Q 3050 2419 3304 2112 
Q 3559 1806 3559 1356 
Q 3559 666 3084 287 
Q 2609 -91 1734 -91 
Q 1441 -91 1130 -33 
Q 819 25 488 141 
L 488 750 
Q 750 597 1062 519 
Q 1375 441 1716 441 
Q 2309 441 2620 675 
Q 2931 909 2931 1356 
Q 2931 1769 2642 2001 
Q 2353 2234 1838 2234 
L 1294 2234 
L 1294 2753 
L 1863 2753 
Q 2328 2753 2575 2939 
Q 2822 3125 2822 3475 
Q 2822 3834 2567 4026 
Q 2313 4219 1838 4219 
Q 1578 4219 1281 4162 
Q 984 4106 628 3988 
L 628 4550 
Q 988 4650 1302 4700 
Q 1616 4750 1894 4750 
Q 2613 4750 3031 4423 
Q 3450 4097 3450 3541 
Q 3450 3153 3228 2886 
Q 3006 2619 2597 2516 
z
" transform="scale(0.015625)"/>
     </defs>
     <use xlink:href="#DejaVuSans-53"/>
     <use xlink:href="#DejaVuSans-61" x="63.476562"/>
     <use xlink:href="#DejaVuSans-6e" x="124.755859"/>
     <use xlink:href="#DejaVuSans-74" x="188.134766"/>
     <use xlink:href="#DejaVuSans-61" x="227.34375"/>
     <use xlink:href="#DejaVuSans-20" x="288.623047"/>
     <use xlink:href="#DejaVuSans-42" x="320.410156"/>
     <use xlink:href="#DejaVuSans-61" x="389.013672"/>
     <use xlink:href="#DejaVuSans-72" x="450.292969"/>
     <use xlink:href="#DejaVuSans-62" x="491.40625"/>
     <use xlink:href="#DejaVuSans-61" x="554.882812"/>
     <use xlink:href="#DejaVuSans-72" x="616.162109"/>
     <use xlink:href="#DejaVuSans-61" x="657.275391"/>
     <use xlink:href="#DejaVuSans-20" x="718.554688"/>
     <use xlink:href="#DejaVuSans-52" x="750.341797"/>
     <use xlink:href="#DejaVuSans-65" x="815.324219"/>
     <use xlink:href="#DejaVuSans-63" x="876.847656"/>
     <use xlink:href="#DejaVuSans-6f" x="931.828125"/>
     <use xlink:href="#DejaVuSans-72" x="993.009766"/>
     <use xlink:href="#DejaVuSans-64" x="1032.373047"/>
     <use xlink:href="#DejaVuSans-20" x="1095.849609"/>
     <use xlink:href="#DejaVuSans-6e" x="1127.636719"/>
     <use xlink:href="#DejaVuSans-6f" x="1191.015625"/>
     <use xlink:href="#DejaVuSans-2e" x="1250.447266"/>
     <use xlink:href="#DejaVuSans-20" x="1282.234375"/>
     <use xlink:href="#DejaVuSans-31" x="1314.021484"/>
     <use xlink:href="#DejaVuSans-33" x="1377.644531"/>
     <use xlink:href="#DejaVuSans-35" x="1441.267578"/>
    </g>
   </g>
  </g>
 </g>
 <defs>
  <clipPath id="pfe773fee4e">
   <rect x="76.9325" y="21.7575" width="1004.4" height="498.96"/>
  </clipPath>
 </defs>
</svg>
