<?xml version="1.0" encoding="utf-8" standalone="no"?>
<!DOCTYPE svg PUBLIC "-//W3C//DTD SVG 1.1//EN"
  "http://www.w3.org/Graphics/SVG/1.1/DTD/svg11.dtd">
<svg xmlns:xlink="http://www.w3.org/1999/xlink" width="1065.125pt" height="562.7875pt" viewBox="0 0 1065.125 562.7875" xmlns="http://www.w3.org/2000/svg" version="1.1">
 <metadata>
  <rdf:RDF xmlns:dc="http://purl.org/dc/elements/1.1/" xmlns:cc="http://creativecommons.org/ns#" xmlns:rdf="http://www.w3.org/1999/02/22-rdf-syntax-ns#">
   <cc:Work>
    <dc:type rdf:resource="http://purl.org/dc/dcmitype/StillImage"/>
    <dc:date>2023-05-16T14:28:39.684736</dc:date>
    <dc:format>image/svg+xml</dc:format>
    <dc:creator>
     <cc:Agent>
      <dc:title>Matplotlib v3.7.1, https://matplotlib.org/</dc:title>
     </cc:Agent>
    </dc:creator>
   </cc:Work>
  </rdf:RDF>
 </metadata>
 <defs>
  <style type="text/css">*{stroke-linejoin: round; stroke-linecap: butt}</style>
 </defs>
 <g id="figure_1">
  <g id="patch_1">
   <path d="M 0 562.7875 
L 1065.125 562.7875 
L 1065.125 0 
L 0 0 
z
" style="fill: #ffffff"/>
  </g>
  <g id="axes_1">
   <g id="patch_2">
    <path d="M 57.125 520.7175 
L 1061.525 520.7175 
L 1061.525 21.7575 
L 57.125 21.7575 
z
" style="fill: #ffffff"/>
   </g>
   <g id="matplotlib.axis_1">
    <g id="xtick_1">
     <g id="line2d_1">
      <path d="M 273.437165 520.7175 
L 273.437165 21.7575 
" clip-path="url(#pd2aa2a80a6)" style="fill: none; stroke-dasharray: 1.85,0.8; stroke-dashoffset: 0; stroke: #000000; stroke-opacity: 0.5; stroke-width: 0.5"/>
     </g>
     <g id="line2d_2">
      <defs>
       <path id="m4caee9cf0e" d="M 0 0 
L 0 -6 
" style="stroke: #000000"/>
      </defs>
      <g>
       <use xlink:href="#m4caee9cf0e" x="273.437165" y="520.7175" style="stroke: #000000"/>
      </g>
     </g>
     <g id="line2d_3">
      <defs>
       <path id="mef76e09d20" d="M 0 0 
L 0 6 
" style="stroke: #000000"/>
      </defs>
      <g>
       <use xlink:href="#mef76e09d20" x="273.437165" y="21.7575" style="stroke: #000000"/>
      </g>
     </g>
     <g id="text_1">
      <!-- $\mathdefault{10^{-1}}$ -->
      <g transform="translate(254.637165 536.375) scale(0.16 -0.16)">
       <defs>
        <path id="DejaVuSans-31" d="M 794 531 
L 1825 531 
L 1825 4091 
L 703 3866 
L 703 4441 
L 1819 4666 
L 2450 4666 
L 2450 531 
L 3481 531 
L 3481 0 
L 794 0 
L 794 531 
z
" transform="scale(0.015625)"/>
        <path id="DejaVuSans-30" d="M 2034 4250 
Q 1547 4250 1301 3770 
Q 1056 3291 1056 2328 
Q 1056 1369 1301 889 
Q 1547 409 2034 409 
Q 2525 409 2770 889 
Q 3016 1369 3016 2328 
Q 3016 3291 2770 3770 
Q 2525 4250 2034 4250 
z
M 2034 4750 
Q 2819 4750 3233 4129 
Q 3647 3509 3647 2328 
Q 3647 1150 3233 529 
Q 2819 -91 2034 -91 
Q 1250 -91 836 529 
Q 422 1150 422 2328 
Q 422 3509 836 4129 
Q 1250 4750 2034 4750 
z
" transform="scale(0.015625)"/>
        <path id="DejaVuSans-2212" d="M 678 2272 
L 4684 2272 
L 4684 1741 
L 678 1741 
L 678 2272 
z
" transform="scale(0.015625)"/>
       </defs>
       <use xlink:href="#DejaVuSans-31" transform="translate(0 0.684375)"/>
       <use xlink:href="#DejaVuSans-30" transform="translate(63.623047 0.684375)"/>
       <use xlink:href="#DejaVuSans-2212" transform="translate(128.203125 38.965625) scale(0.7)"/>
       <use xlink:href="#DejaVuSans-31" transform="translate(186.855469 38.965625) scale(0.7)"/>
      </g>
     </g>
    </g>
    <g id="xtick_2">
     <g id="line2d_4">
      <path d="M 548.538621 520.7175 
L 548.538621 21.7575 
" clip-path="url(#pd2aa2a80a6)" style="fill: none; stroke-dasharray: 1.85,0.8; stroke-dashoffset: 0; stroke: #000000; stroke-opacity: 0.5; stroke-width: 0.5"/>
     </g>
     <g id="line2d_5">
      <g>
       <use xlink:href="#m4caee9cf0e" x="548.538621" y="520.7175" style="stroke: #000000"/>
      </g>
     </g>
     <g id="line2d_6">
      <g>
       <use xlink:href="#mef76e09d20" x="548.538621" y="21.7575" style="stroke: #000000"/>
      </g>
     </g>
     <g id="text_2">
      <!-- $\mathdefault{10^{0}}$ -->
      <g transform="translate(534.458621 536.375) scale(0.16 -0.16)">
       <use xlink:href="#DejaVuSans-31" transform="translate(0 0.765625)"/>
       <use xlink:href="#DejaVuSans-30" transform="translate(63.623047 0.765625)"/>
       <use xlink:href="#DejaVuSans-30" transform="translate(128.203125 39.046875) scale(0.7)"/>
      </g>
     </g>
    </g>
    <g id="xtick_3">
     <g id="line2d_7">
      <path d="M 823.640077 520.7175 
L 823.640077 21.7575 
" clip-path="url(#pd2aa2a80a6)" style="fill: none; stroke-dasharray: 1.85,0.8; stroke-dashoffset: 0; stroke: #000000; stroke-opacity: 0.5; stroke-width: 0.5"/>
     </g>
     <g id="line2d_8">
      <g>
       <use xlink:href="#m4caee9cf0e" x="823.640077" y="520.7175" style="stroke: #000000"/>
      </g>
     </g>
     <g id="line2d_9">
      <g>
       <use xlink:href="#mef76e09d20" x="823.640077" y="21.7575" style="stroke: #000000"/>
      </g>
     </g>
     <g id="text_3">
      <!-- $\mathdefault{10^{1}}$ -->
      <g transform="translate(809.560077 536.375) scale(0.16 -0.16)">
       <use xlink:href="#DejaVuSans-31" transform="translate(0 0.684375)"/>
       <use xlink:href="#DejaVuSans-30" transform="translate(63.623047 0.684375)"/>
       <use xlink:href="#DejaVuSans-31" transform="translate(128.203125 38.965625) scale(0.7)"/>
      </g>
     </g>
    </g>
    <g id="xtick_4">
     <g id="line2d_10">
      <defs>
       <path id="m8262baf8c8" d="M 0 0 
L 0 -3 
" style="stroke: #000000"/>
      </defs>
      <g>
       <use xlink:href="#m8262baf8c8" x="81.1495" y="520.7175" style="stroke: #000000"/>
      </g>
     </g>
     <g id="line2d_11">
      <defs>
       <path id="m50f2155b4a" d="M 0 0 
L 0 3 
" style="stroke: #000000"/>
      </defs>
      <g>
       <use xlink:href="#m50f2155b4a" x="81.1495" y="21.7575" style="stroke: #000000"/>
      </g>
     </g>
    </g>
    <g id="xtick_5">
     <g id="line2d_12">
      <g>
       <use xlink:href="#m8262baf8c8" x="129.592461" y="520.7175" style="stroke: #000000"/>
      </g>
     </g>
     <g id="line2d_13">
      <g>
       <use xlink:href="#m50f2155b4a" x="129.592461" y="21.7575" style="stroke: #000000"/>
      </g>
     </g>
    </g>
    <g id="xtick_6">
     <g id="line2d_14">
      <g>
       <use xlink:href="#m8262baf8c8" x="163.96329" y="520.7175" style="stroke: #000000"/>
      </g>
     </g>
     <g id="line2d_15">
      <g>
       <use xlink:href="#m50f2155b4a" x="163.96329" y="21.7575" style="stroke: #000000"/>
      </g>
     </g>
    </g>
    <g id="xtick_7">
     <g id="line2d_16">
      <g>
       <use xlink:href="#m8262baf8c8" x="190.623375" y="520.7175" style="stroke: #000000"/>
      </g>
     </g>
     <g id="line2d_17">
      <g>
       <use xlink:href="#m50f2155b4a" x="190.623375" y="21.7575" style="stroke: #000000"/>
      </g>
     </g>
    </g>
    <g id="xtick_8">
     <g id="line2d_18">
      <g>
       <use xlink:href="#m8262baf8c8" x="212.406251" y="520.7175" style="stroke: #000000"/>
      </g>
     </g>
     <g id="line2d_19">
      <g>
       <use xlink:href="#m50f2155b4a" x="212.406251" y="21.7575" style="stroke: #000000"/>
      </g>
     </g>
    </g>
    <g id="xtick_9">
     <g id="line2d_20">
      <g>
       <use xlink:href="#m8262baf8c8" x="230.823411" y="520.7175" style="stroke: #000000"/>
      </g>
     </g>
     <g id="line2d_21">
      <g>
       <use xlink:href="#m50f2155b4a" x="230.823411" y="21.7575" style="stroke: #000000"/>
      </g>
     </g>
    </g>
    <g id="xtick_10">
     <g id="line2d_22">
      <g>
       <use xlink:href="#m8262baf8c8" x="246.77708" y="520.7175" style="stroke: #000000"/>
      </g>
     </g>
     <g id="line2d_23">
      <g>
       <use xlink:href="#m50f2155b4a" x="246.77708" y="21.7575" style="stroke: #000000"/>
      </g>
     </g>
    </g>
    <g id="xtick_11">
     <g id="line2d_24">
      <g>
       <use xlink:href="#m8262baf8c8" x="260.849213" y="520.7175" style="stroke: #000000"/>
      </g>
     </g>
     <g id="line2d_25">
      <g>
       <use xlink:href="#m50f2155b4a" x="260.849213" y="21.7575" style="stroke: #000000"/>
      </g>
     </g>
    </g>
    <g id="xtick_12">
     <g id="line2d_26">
      <g>
       <use xlink:href="#m8262baf8c8" x="356.250956" y="520.7175" style="stroke: #000000"/>
      </g>
     </g>
     <g id="line2d_27">
      <g>
       <use xlink:href="#m50f2155b4a" x="356.250956" y="21.7575" style="stroke: #000000"/>
      </g>
     </g>
    </g>
    <g id="xtick_13">
     <g id="line2d_28">
      <g>
       <use xlink:href="#m8262baf8c8" x="404.693917" y="520.7175" style="stroke: #000000"/>
      </g>
     </g>
     <g id="line2d_29">
      <g>
       <use xlink:href="#m50f2155b4a" x="404.693917" y="21.7575" style="stroke: #000000"/>
      </g>
     </g>
    </g>
    <g id="xtick_14">
     <g id="line2d_30">
      <g>
       <use xlink:href="#m8262baf8c8" x="439.064746" y="520.7175" style="stroke: #000000"/>
      </g>
     </g>
     <g id="line2d_31">
      <g>
       <use xlink:href="#m50f2155b4a" x="439.064746" y="21.7575" style="stroke: #000000"/>
      </g>
     </g>
    </g>
    <g id="xtick_15">
     <g id="line2d_32">
      <g>
       <use xlink:href="#m8262baf8c8" x="465.724831" y="520.7175" style="stroke: #000000"/>
      </g>
     </g>
     <g id="line2d_33">
      <g>
       <use xlink:href="#m50f2155b4a" x="465.724831" y="21.7575" style="stroke: #000000"/>
      </g>
     </g>
    </g>
    <g id="xtick_16">
     <g id="line2d_34">
      <g>
       <use xlink:href="#m8262baf8c8" x="487.507707" y="520.7175" style="stroke: #000000"/>
      </g>
     </g>
     <g id="line2d_35">
      <g>
       <use xlink:href="#m50f2155b4a" x="487.507707" y="21.7575" style="stroke: #000000"/>
      </g>
     </g>
    </g>
    <g id="xtick_17">
     <g id="line2d_36">
      <g>
       <use xlink:href="#m8262baf8c8" x="505.924867" y="520.7175" style="stroke: #000000"/>
      </g>
     </g>
     <g id="line2d_37">
      <g>
       <use xlink:href="#m50f2155b4a" x="505.924867" y="21.7575" style="stroke: #000000"/>
      </g>
     </g>
    </g>
    <g id="xtick_18">
     <g id="line2d_38">
      <g>
       <use xlink:href="#m8262baf8c8" x="521.878536" y="520.7175" style="stroke: #000000"/>
      </g>
     </g>
     <g id="line2d_39">
      <g>
       <use xlink:href="#m50f2155b4a" x="521.878536" y="21.7575" style="stroke: #000000"/>
      </g>
     </g>
    </g>
    <g id="xtick_19">
     <g id="line2d_40">
      <g>
       <use xlink:href="#m8262baf8c8" x="535.950669" y="520.7175" style="stroke: #000000"/>
      </g>
     </g>
     <g id="line2d_41">
      <g>
       <use xlink:href="#m50f2155b4a" x="535.950669" y="21.7575" style="stroke: #000000"/>
      </g>
     </g>
    </g>
    <g id="xtick_20">
     <g id="line2d_42">
      <g>
       <use xlink:href="#m8262baf8c8" x="631.352411" y="520.7175" style="stroke: #000000"/>
      </g>
     </g>
     <g id="line2d_43">
      <g>
       <use xlink:href="#m50f2155b4a" x="631.352411" y="21.7575" style="stroke: #000000"/>
      </g>
     </g>
    </g>
    <g id="xtick_21">
     <g id="line2d_44">
      <g>
       <use xlink:href="#m8262baf8c8" x="679.795373" y="520.7175" style="stroke: #000000"/>
      </g>
     </g>
     <g id="line2d_45">
      <g>
       <use xlink:href="#m50f2155b4a" x="679.795373" y="21.7575" style="stroke: #000000"/>
      </g>
     </g>
    </g>
    <g id="xtick_22">
     <g id="line2d_46">
      <g>
       <use xlink:href="#m8262baf8c8" x="714.166201" y="520.7175" style="stroke: #000000"/>
      </g>
     </g>
     <g id="line2d_47">
      <g>
       <use xlink:href="#m50f2155b4a" x="714.166201" y="21.7575" style="stroke: #000000"/>
      </g>
     </g>
    </g>
    <g id="xtick_23">
     <g id="line2d_48">
      <g>
       <use xlink:href="#m8262baf8c8" x="740.826287" y="520.7175" style="stroke: #000000"/>
      </g>
     </g>
     <g id="line2d_49">
      <g>
       <use xlink:href="#m50f2155b4a" x="740.826287" y="21.7575" style="stroke: #000000"/>
      </g>
     </g>
    </g>
    <g id="xtick_24">
     <g id="line2d_50">
      <g>
       <use xlink:href="#m8262baf8c8" x="762.609163" y="520.7175" style="stroke: #000000"/>
      </g>
     </g>
     <g id="line2d_51">
      <g>
       <use xlink:href="#m50f2155b4a" x="762.609163" y="21.7575" style="stroke: #000000"/>
      </g>
     </g>
    </g>
    <g id="xtick_25">
     <g id="line2d_52">
      <g>
       <use xlink:href="#m8262baf8c8" x="781.026322" y="520.7175" style="stroke: #000000"/>
      </g>
     </g>
     <g id="line2d_53">
      <g>
       <use xlink:href="#m50f2155b4a" x="781.026322" y="21.7575" style="stroke: #000000"/>
      </g>
     </g>
    </g>
    <g id="xtick_26">
     <g id="line2d_54">
      <g>
       <use xlink:href="#m8262baf8c8" x="796.979992" y="520.7175" style="stroke: #000000"/>
      </g>
     </g>
     <g id="line2d_55">
      <g>
       <use xlink:href="#m50f2155b4a" x="796.979992" y="21.7575" style="stroke: #000000"/>
      </g>
     </g>
    </g>
    <g id="xtick_27">
     <g id="line2d_56">
      <g>
       <use xlink:href="#m8262baf8c8" x="811.052125" y="520.7175" style="stroke: #000000"/>
      </g>
     </g>
     <g id="line2d_57">
      <g>
       <use xlink:href="#m50f2155b4a" x="811.052125" y="21.7575" style="stroke: #000000"/>
      </g>
     </g>
    </g>
    <g id="xtick_28">
     <g id="line2d_58">
      <g>
       <use xlink:href="#m8262baf8c8" x="906.453867" y="520.7175" style="stroke: #000000"/>
      </g>
     </g>
     <g id="line2d_59">
      <g>
       <use xlink:href="#m50f2155b4a" x="906.453867" y="21.7575" style="stroke: #000000"/>
      </g>
     </g>
    </g>
    <g id="xtick_29">
     <g id="line2d_60">
      <g>
       <use xlink:href="#m8262baf8c8" x="954.896829" y="520.7175" style="stroke: #000000"/>
      </g>
     </g>
     <g id="line2d_61">
      <g>
       <use xlink:href="#m50f2155b4a" x="954.896829" y="21.7575" style="stroke: #000000"/>
      </g>
     </g>
    </g>
    <g id="xtick_30">
     <g id="line2d_62">
      <g>
       <use xlink:href="#m8262baf8c8" x="989.267657" y="520.7175" style="stroke: #000000"/>
      </g>
     </g>
     <g id="line2d_63">
      <g>
       <use xlink:href="#m50f2155b4a" x="989.267657" y="21.7575" style="stroke: #000000"/>
      </g>
     </g>
    </g>
    <g id="xtick_31">
     <g id="line2d_64">
      <g>
       <use xlink:href="#m8262baf8c8" x="1015.927743" y="520.7175" style="stroke: #000000"/>
      </g>
     </g>
     <g id="line2d_65">
      <g>
       <use xlink:href="#m50f2155b4a" x="1015.927743" y="21.7575" style="stroke: #000000"/>
      </g>
     </g>
    </g>
    <g id="xtick_32">
     <g id="line2d_66">
      <g>
       <use xlink:href="#m8262baf8c8" x="1037.710619" y="520.7175" style="stroke: #000000"/>
      </g>
     </g>
     <g id="line2d_67">
      <g>
       <use xlink:href="#m50f2155b4a" x="1037.710619" y="21.7575" style="stroke: #000000"/>
      </g>
     </g>
    </g>
    <g id="xtick_33">
     <g id="line2d_68">
      <g>
       <use xlink:href="#m8262baf8c8" x="1056.127778" y="520.7175" style="stroke: #000000"/>
      </g>
     </g>
     <g id="line2d_69">
      <g>
       <use xlink:href="#m50f2155b4a" x="1056.127778" y="21.7575" style="stroke: #000000"/>
      </g>
     </g>
    </g>
    <g id="text_4">
     <!-- Frequency (Hz) -->
     <g transform="translate(498.9975 555.86) scale(0.16 -0.16)">
      <defs>
       <path id="DejaVuSans-46" d="M 628 4666 
L 3309 4666 
L 3309 4134 
L 1259 4134 
L 1259 2759 
L 3109 2759 
L 3109 2228 
L 1259 2228 
L 1259 0 
L 628 0 
L 628 4666 
z
" transform="scale(0.015625)"/>
       <path id="DejaVuSans-72" d="M 2631 2963 
Q 2534 3019 2420 3045 
Q 2306 3072 2169 3072 
Q 1681 3072 1420 2755 
Q 1159 2438 1159 1844 
L 1159 0 
L 581 0 
L 581 3500 
L 1159 3500 
L 1159 2956 
Q 1341 3275 1631 3429 
Q 1922 3584 2338 3584 
Q 2397 3584 2469 3576 
Q 2541 3569 2628 3553 
L 2631 2963 
z
" transform="scale(0.015625)"/>
       <path id="DejaVuSans-65" d="M 3597 1894 
L 3597 1613 
L 953 1613 
Q 991 1019 1311 708 
Q 1631 397 2203 397 
Q 2534 397 2845 478 
Q 3156 559 3463 722 
L 3463 178 
Q 3153 47 2828 -22 
Q 2503 -91 2169 -91 
Q 1331 -91 842 396 
Q 353 884 353 1716 
Q 353 2575 817 3079 
Q 1281 3584 2069 3584 
Q 2775 3584 3186 3129 
Q 3597 2675 3597 1894 
z
M 3022 2063 
Q 3016 2534 2758 2815 
Q 2500 3097 2075 3097 
Q 1594 3097 1305 2825 
Q 1016 2553 972 2059 
L 3022 2063 
z
" transform="scale(0.015625)"/>
       <path id="DejaVuSans-71" d="M 947 1747 
Q 947 1113 1208 752 
Q 1469 391 1925 391 
Q 2381 391 2643 752 
Q 2906 1113 2906 1747 
Q 2906 2381 2643 2742 
Q 2381 3103 1925 3103 
Q 1469 3103 1208 2742 
Q 947 2381 947 1747 
z
M 2906 525 
Q 2725 213 2448 61 
Q 2172 -91 1784 -91 
Q 1150 -91 751 415 
Q 353 922 353 1747 
Q 353 2572 751 3078 
Q 1150 3584 1784 3584 
Q 2172 3584 2448 3432 
Q 2725 3281 2906 2969 
L 2906 3500 
L 3481 3500 
L 3481 -1331 
L 2906 -1331 
L 2906 525 
z
" transform="scale(0.015625)"/>
       <path id="DejaVuSans-75" d="M 544 1381 
L 544 3500 
L 1119 3500 
L 1119 1403 
Q 1119 906 1312 657 
Q 1506 409 1894 409 
Q 2359 409 2629 706 
Q 2900 1003 2900 1516 
L 2900 3500 
L 3475 3500 
L 3475 0 
L 2900 0 
L 2900 538 
Q 2691 219 2414 64 
Q 2138 -91 1772 -91 
Q 1169 -91 856 284 
Q 544 659 544 1381 
z
M 1991 3584 
L 1991 3584 
z
" transform="scale(0.015625)"/>
       <path id="DejaVuSans-6e" d="M 3513 2113 
L 3513 0 
L 2938 0 
L 2938 2094 
Q 2938 2591 2744 2837 
Q 2550 3084 2163 3084 
Q 1697 3084 1428 2787 
Q 1159 2491 1159 1978 
L 1159 0 
L 581 0 
L 581 3500 
L 1159 3500 
L 1159 2956 
Q 1366 3272 1645 3428 
Q 1925 3584 2291 3584 
Q 2894 3584 3203 3211 
Q 3513 2838 3513 2113 
z
" transform="scale(0.015625)"/>
       <path id="DejaVuSans-63" d="M 3122 3366 
L 3122 2828 
Q 2878 2963 2633 3030 
Q 2388 3097 2138 3097 
Q 1578 3097 1268 2742 
Q 959 2388 959 1747 
Q 959 1106 1268 751 
Q 1578 397 2138 397 
Q 2388 397 2633 464 
Q 2878 531 3122 666 
L 3122 134 
Q 2881 22 2623 -34 
Q 2366 -91 2075 -91 
Q 1284 -91 818 406 
Q 353 903 353 1747 
Q 353 2603 823 3093 
Q 1294 3584 2113 3584 
Q 2378 3584 2631 3529 
Q 2884 3475 3122 3366 
z
" transform="scale(0.015625)"/>
       <path id="DejaVuSans-79" d="M 2059 -325 
Q 1816 -950 1584 -1140 
Q 1353 -1331 966 -1331 
L 506 -1331 
L 506 -850 
L 844 -850 
Q 1081 -850 1212 -737 
Q 1344 -625 1503 -206 
L 1606 56 
L 191 3500 
L 800 3500 
L 1894 763 
L 2988 3500 
L 3597 3500 
L 2059 -325 
z
" transform="scale(0.015625)"/>
       <path id="DejaVuSans-20" transform="scale(0.015625)"/>
       <path id="DejaVuSans-28" d="M 1984 4856 
Q 1566 4138 1362 3434 
Q 1159 2731 1159 2009 
Q 1159 1288 1364 580 
Q 1569 -128 1984 -844 
L 1484 -844 
Q 1016 -109 783 600 
Q 550 1309 550 2009 
Q 550 2706 781 3412 
Q 1013 4119 1484 4856 
L 1984 4856 
z
" transform="scale(0.015625)"/>
       <path id="DejaVuSans-48" d="M 628 4666 
L 1259 4666 
L 1259 2753 
L 3553 2753 
L 3553 4666 
L 4184 4666 
L 4184 0 
L 3553 0 
L 3553 2222 
L 1259 2222 
L 1259 0 
L 628 0 
L 628 4666 
z
" transform="scale(0.015625)"/>
       <path id="DejaVuSans-7a" d="M 353 3500 
L 3084 3500 
L 3084 2975 
L 922 459 
L 3084 459 
L 3084 0 
L 275 0 
L 275 525 
L 2438 3041 
L 353 3041 
L 353 3500 
z
" transform="scale(0.015625)"/>
       <path id="DejaVuSans-29" d="M 513 4856 
L 1013 4856 
Q 1481 4119 1714 3412 
Q 1947 2706 1947 2009 
Q 1947 1309 1714 600 
Q 1481 -109 1013 -844 
L 513 -844 
Q 928 -128 1133 580 
Q 1338 1288 1338 2009 
Q 1338 2731 1133 3434 
Q 928 4138 513 4856 
z
" transform="scale(0.015625)"/>
      </defs>
      <use xlink:href="#DejaVuSans-46"/>
      <use xlink:href="#DejaVuSans-72" x="50.269531"/>
      <use xlink:href="#DejaVuSans-65" x="89.132812"/>
      <use xlink:href="#DejaVuSans-71" x="150.65625"/>
      <use xlink:href="#DejaVuSans-75" x="214.132812"/>
      <use xlink:href="#DejaVuSans-65" x="277.511719"/>
      <use xlink:href="#DejaVuSans-6e" x="339.035156"/>
      <use xlink:href="#DejaVuSans-63" x="402.414062"/>
      <use xlink:href="#DejaVuSans-79" x="457.394531"/>
      <use xlink:href="#DejaVuSans-20" x="516.574219"/>
      <use xlink:href="#DejaVuSans-28" x="548.361328"/>
      <use xlink:href="#DejaVuSans-48" x="587.375"/>
      <use xlink:href="#DejaVuSans-7a" x="662.570312"/>
      <use xlink:href="#DejaVuSans-29" x="715.060547"/>
     </g>
    </g>
   </g>
   <g id="matplotlib.axis_2">
    <g id="ytick_1">
     <g id="line2d_70">
      <path d="M 57.125 498.040478 
L 1061.525 498.040478 
" clip-path="url(#pd2aa2a80a6)" style="fill: none; stroke-dasharray: 1.85,0.8; stroke-dashoffset: 0; stroke: #000000; stroke-opacity: 0.5; stroke-width: 0.5"/>
     </g>
     <g id="line2d_71">
      <defs>
       <path id="mc5ac94932e" d="M 0 0 
L 6 0 
" style="stroke: #000000"/>
      </defs>
      <g>
       <use xlink:href="#mc5ac94932e" x="57.125" y="498.040478" style="stroke: #000000"/>
      </g>
     </g>
     <g id="line2d_72">
      <defs>
       <path id="m90dd62e99d" d="M 0 0 
L -6 0 
" style="stroke: #000000"/>
      </defs>
      <g>
       <use xlink:href="#m90dd62e99d" x="1061.525" y="498.040478" style="stroke: #000000"/>
      </g>
     </g>
     <g id="text_5">
      <!-- 0 -->
      <g transform="translate(43.445 504.119228) scale(0.16 -0.16)">
       <use xlink:href="#DejaVuSans-30"/>
      </g>
     </g>
    </g>
    <g id="ytick_2">
     <g id="line2d_73">
      <path d="M 57.125 438.038264 
L 1061.525 438.038264 
" clip-path="url(#pd2aa2a80a6)" style="fill: none; stroke-dasharray: 1.85,0.8; stroke-dashoffset: 0; stroke: #000000; stroke-opacity: 0.5; stroke-width: 0.5"/>
     </g>
     <g id="line2d_74">
      <g>
       <use xlink:href="#mc5ac94932e" x="57.125" y="438.038264" style="stroke: #000000"/>
      </g>
     </g>
     <g id="line2d_75">
      <g>
       <use xlink:href="#m90dd62e99d" x="1061.525" y="438.038264" style="stroke: #000000"/>
      </g>
     </g>
     <g id="text_6">
      <!-- 50 -->
      <g transform="translate(33.265 444.117014) scale(0.16 -0.16)">
       <defs>
        <path id="DejaVuSans-35" d="M 691 4666 
L 3169 4666 
L 3169 4134 
L 1269 4134 
L 1269 2991 
Q 1406 3038 1543 3061 
Q 1681 3084 1819 3084 
Q 2600 3084 3056 2656 
Q 3513 2228 3513 1497 
Q 3513 744 3044 326 
Q 2575 -91 1722 -91 
Q 1428 -91 1123 -41 
Q 819 9 494 109 
L 494 744 
Q 775 591 1075 516 
Q 1375 441 1709 441 
Q 2250 441 2565 725 
Q 2881 1009 2881 1497 
Q 2881 1984 2565 2268 
Q 2250 2553 1709 2553 
Q 1456 2553 1204 2497 
Q 953 2441 691 2322 
L 691 4666 
z
" transform="scale(0.015625)"/>
       </defs>
       <use xlink:href="#DejaVuSans-35"/>
       <use xlink:href="#DejaVuSans-30" x="63.623047"/>
      </g>
     </g>
    </g>
    <g id="ytick_3">
     <g id="line2d_76">
      <path d="M 57.125 378.03605 
L 1061.525 378.03605 
" clip-path="url(#pd2aa2a80a6)" style="fill: none; stroke-dasharray: 1.85,0.8; stroke-dashoffset: 0; stroke: #000000; stroke-opacity: 0.5; stroke-width: 0.5"/>
     </g>
     <g id="line2d_77">
      <g>
       <use xlink:href="#mc5ac94932e" x="57.125" y="378.03605" style="stroke: #000000"/>
      </g>
     </g>
     <g id="line2d_78">
      <g>
       <use xlink:href="#m90dd62e99d" x="1061.525" y="378.03605" style="stroke: #000000"/>
      </g>
     </g>
     <g id="text_7">
      <!-- 100 -->
      <g transform="translate(23.085 384.1148) scale(0.16 -0.16)">
       <use xlink:href="#DejaVuSans-31"/>
       <use xlink:href="#DejaVuSans-30" x="63.623047"/>
       <use xlink:href="#DejaVuSans-30" x="127.246094"/>
      </g>
     </g>
    </g>
    <g id="ytick_4">
     <g id="line2d_79">
      <path d="M 57.125 318.033836 
L 1061.525 318.033836 
" clip-path="url(#pd2aa2a80a6)" style="fill: none; stroke-dasharray: 1.85,0.8; stroke-dashoffset: 0; stroke: #000000; stroke-opacity: 0.5; stroke-width: 0.5"/>
     </g>
     <g id="line2d_80">
      <g>
       <use xlink:href="#mc5ac94932e" x="57.125" y="318.033836" style="stroke: #000000"/>
      </g>
     </g>
     <g id="line2d_81">
      <g>
       <use xlink:href="#m90dd62e99d" x="1061.525" y="318.033836" style="stroke: #000000"/>
      </g>
     </g>
     <g id="text_8">
      <!-- 150 -->
      <g transform="translate(23.085 324.112586) scale(0.16 -0.16)">
       <use xlink:href="#DejaVuSans-31"/>
       <use xlink:href="#DejaVuSans-35" x="63.623047"/>
       <use xlink:href="#DejaVuSans-30" x="127.246094"/>
      </g>
     </g>
    </g>
    <g id="ytick_5">
     <g id="line2d_82">
      <path d="M 57.125 258.031622 
L 1061.525 258.031622 
" clip-path="url(#pd2aa2a80a6)" style="fill: none; stroke-dasharray: 1.85,0.8; stroke-dashoffset: 0; stroke: #000000; stroke-opacity: 0.5; stroke-width: 0.5"/>
     </g>
     <g id="line2d_83">
      <g>
       <use xlink:href="#mc5ac94932e" x="57.125" y="258.031622" style="stroke: #000000"/>
      </g>
     </g>
     <g id="line2d_84">
      <g>
       <use xlink:href="#m90dd62e99d" x="1061.525" y="258.031622" style="stroke: #000000"/>
      </g>
     </g>
     <g id="text_9">
      <!-- 200 -->
      <g transform="translate(23.085 264.110372) scale(0.16 -0.16)">
       <defs>
        <path id="DejaVuSans-32" d="M 1228 531 
L 3431 531 
L 3431 0 
L 469 0 
L 469 531 
Q 828 903 1448 1529 
Q 2069 2156 2228 2338 
Q 2531 2678 2651 2914 
Q 2772 3150 2772 3378 
Q 2772 3750 2511 3984 
Q 2250 4219 1831 4219 
Q 1534 4219 1204 4116 
Q 875 4013 500 3803 
L 500 4441 
Q 881 4594 1212 4672 
Q 1544 4750 1819 4750 
Q 2544 4750 2975 4387 
Q 3406 4025 3406 3419 
Q 3406 3131 3298 2873 
Q 3191 2616 2906 2266 
Q 2828 2175 2409 1742 
Q 1991 1309 1228 531 
z
" transform="scale(0.015625)"/>
       </defs>
       <use xlink:href="#DejaVuSans-32"/>
       <use xlink:href="#DejaVuSans-30" x="63.623047"/>
       <use xlink:href="#DejaVuSans-30" x="127.246094"/>
      </g>
     </g>
    </g>
    <g id="ytick_6">
     <g id="line2d_85">
      <path d="M 57.125 198.029408 
L 1061.525 198.029408 
" clip-path="url(#pd2aa2a80a6)" style="fill: none; stroke-dasharray: 1.85,0.8; stroke-dashoffset: 0; stroke: #000000; stroke-opacity: 0.5; stroke-width: 0.5"/>
     </g>
     <g id="line2d_86">
      <g>
       <use xlink:href="#mc5ac94932e" x="57.125" y="198.029408" style="stroke: #000000"/>
      </g>
     </g>
     <g id="line2d_87">
      <g>
       <use xlink:href="#m90dd62e99d" x="1061.525" y="198.029408" style="stroke: #000000"/>
      </g>
     </g>
     <g id="text_10">
      <!-- 250 -->
      <g transform="translate(23.085 204.108158) scale(0.16 -0.16)">
       <use xlink:href="#DejaVuSans-32"/>
       <use xlink:href="#DejaVuSans-35" x="63.623047"/>
       <use xlink:href="#DejaVuSans-30" x="127.246094"/>
      </g>
     </g>
    </g>
    <g id="ytick_7">
     <g id="line2d_88">
      <path d="M 57.125 138.027194 
L 1061.525 138.027194 
" clip-path="url(#pd2aa2a80a6)" style="fill: none; stroke-dasharray: 1.85,0.8; stroke-dashoffset: 0; stroke: #000000; stroke-opacity: 0.5; stroke-width: 0.5"/>
     </g>
     <g id="line2d_89">
      <g>
       <use xlink:href="#mc5ac94932e" x="57.125" y="138.027194" style="stroke: #000000"/>
      </g>
     </g>
     <g id="line2d_90">
      <g>
       <use xlink:href="#m90dd62e99d" x="1061.525" y="138.027194" style="stroke: #000000"/>
      </g>
     </g>
     <g id="text_11">
      <!-- 300 -->
      <g transform="translate(23.085 144.105944) scale(0.16 -0.16)">
       <defs>
        <path id="DejaVuSans-33" d="M 2597 2516 
Q 3050 2419 3304 2112 
Q 3559 1806 3559 1356 
Q 3559 666 3084 287 
Q 2609 -91 1734 -91 
Q 1441 -91 1130 -33 
Q 819 25 488 141 
L 488 750 
Q 750 597 1062 519 
Q 1375 441 1716 441 
Q 2309 441 2620 675 
Q 2931 909 2931 1356 
Q 2931 1769 2642 2001 
Q 2353 2234 1838 2234 
L 1294 2234 
L 1294 2753 
L 1863 2753 
Q 2328 2753 2575 2939 
Q 2822 3125 2822 3475 
Q 2822 3834 2567 4026 
Q 2313 4219 1838 4219 
Q 1578 4219 1281 4162 
Q 984 4106 628 3988 
L 628 4550 
Q 988 4650 1302 4700 
Q 1616 4750 1894 4750 
Q 2613 4750 3031 4423 
Q 3450 4097 3450 3541 
Q 3450 3153 3228 2886 
Q 3006 2619 2597 2516 
z
" transform="scale(0.015625)"/>
       </defs>
       <use xlink:href="#DejaVuSans-33"/>
       <use xlink:href="#DejaVuSans-30" x="63.623047"/>
       <use xlink:href="#DejaVuSans-30" x="127.246094"/>
      </g>
     </g>
    </g>
    <g id="ytick_8">
     <g id="line2d_91">
      <path d="M 57.125 78.02498 
L 1061.525 78.02498 
" clip-path="url(#pd2aa2a80a6)" style="fill: none; stroke-dasharray: 1.85,0.8; stroke-dashoffset: 0; stroke: #000000; stroke-opacity: 0.5; stroke-width: 0.5"/>
     </g>
     <g id="line2d_92">
      <g>
       <use xlink:href="#mc5ac94932e" x="57.125" y="78.02498" style="stroke: #000000"/>
      </g>
     </g>
     <g id="line2d_93">
      <g>
       <use xlink:href="#m90dd62e99d" x="1061.525" y="78.02498" style="stroke: #000000"/>
      </g>
     </g>
     <g id="text_12">
      <!-- 350 -->
      <g transform="translate(23.085 84.10373) scale(0.16 -0.16)">
       <use xlink:href="#DejaVuSans-33"/>
       <use xlink:href="#DejaVuSans-35" x="63.623047"/>
       <use xlink:href="#DejaVuSans-30" x="127.246094"/>
      </g>
     </g>
    </g>
    <g id="ytick_9">
     <g id="line2d_94">
      <defs>
       <path id="mc607ae4d9a" d="M 0 0 
L 3 0 
" style="stroke: #000000"/>
      </defs>
      <g>
       <use xlink:href="#mc607ae4d9a" x="57.125" y="510.040921" style="stroke: #000000"/>
      </g>
     </g>
     <g id="line2d_95">
      <defs>
       <path id="m08328878c8" d="M 0 0 
L -3 0 
" style="stroke: #000000"/>
      </defs>
      <g>
       <use xlink:href="#m08328878c8" x="1061.525" y="510.040921" style="stroke: #000000"/>
      </g>
     </g>
    </g>
    <g id="ytick_10">
     <g id="line2d_96">
      <g>
       <use xlink:href="#mc607ae4d9a" x="57.125" y="486.040035" style="stroke: #000000"/>
      </g>
     </g>
     <g id="line2d_97">
      <g>
       <use xlink:href="#m08328878c8" x="1061.525" y="486.040035" style="stroke: #000000"/>
      </g>
     </g>
    </g>
    <g id="ytick_11">
     <g id="line2d_98">
      <g>
       <use xlink:href="#mc607ae4d9a" x="57.125" y="474.039592" style="stroke: #000000"/>
      </g>
     </g>
     <g id="line2d_99">
      <g>
       <use xlink:href="#m08328878c8" x="1061.525" y="474.039592" style="stroke: #000000"/>
      </g>
     </g>
    </g>
    <g id="ytick_12">
     <g id="line2d_100">
      <g>
       <use xlink:href="#mc607ae4d9a" x="57.125" y="462.039149" style="stroke: #000000"/>
      </g>
     </g>
     <g id="line2d_101">
      <g>
       <use xlink:href="#m08328878c8" x="1061.525" y="462.039149" style="stroke: #000000"/>
      </g>
     </g>
    </g>
    <g id="ytick_13">
     <g id="line2d_102">
      <g>
       <use xlink:href="#mc607ae4d9a" x="57.125" y="450.038707" style="stroke: #000000"/>
      </g>
     </g>
     <g id="line2d_103">
      <g>
       <use xlink:href="#m08328878c8" x="1061.525" y="450.038707" style="stroke: #000000"/>
      </g>
     </g>
    </g>
    <g id="ytick_14">
     <g id="line2d_104">
      <g>
       <use xlink:href="#mc607ae4d9a" x="57.125" y="426.037821" style="stroke: #000000"/>
      </g>
     </g>
     <g id="line2d_105">
      <g>
       <use xlink:href="#m08328878c8" x="1061.525" y="426.037821" style="stroke: #000000"/>
      </g>
     </g>
    </g>
    <g id="ytick_15">
     <g id="line2d_106">
      <g>
       <use xlink:href="#mc607ae4d9a" x="57.125" y="414.037378" style="stroke: #000000"/>
      </g>
     </g>
     <g id="line2d_107">
      <g>
       <use xlink:href="#m08328878c8" x="1061.525" y="414.037378" style="stroke: #000000"/>
      </g>
     </g>
    </g>
    <g id="ytick_16">
     <g id="line2d_108">
      <g>
       <use xlink:href="#mc607ae4d9a" x="57.125" y="402.036935" style="stroke: #000000"/>
      </g>
     </g>
     <g id="line2d_109">
      <g>
       <use xlink:href="#m08328878c8" x="1061.525" y="402.036935" style="stroke: #000000"/>
      </g>
     </g>
    </g>
    <g id="ytick_17">
     <g id="line2d_110">
      <g>
       <use xlink:href="#mc607ae4d9a" x="57.125" y="390.036493" style="stroke: #000000"/>
      </g>
     </g>
     <g id="line2d_111">
      <g>
       <use xlink:href="#m08328878c8" x="1061.525" y="390.036493" style="stroke: #000000"/>
      </g>
     </g>
    </g>
    <g id="ytick_18">
     <g id="line2d_112">
      <g>
       <use xlink:href="#mc607ae4d9a" x="57.125" y="366.035607" style="stroke: #000000"/>
      </g>
     </g>
     <g id="line2d_113">
      <g>
       <use xlink:href="#m08328878c8" x="1061.525" y="366.035607" style="stroke: #000000"/>
      </g>
     </g>
    </g>
    <g id="ytick_19">
     <g id="line2d_114">
      <g>
       <use xlink:href="#mc607ae4d9a" x="57.125" y="354.035164" style="stroke: #000000"/>
      </g>
     </g>
     <g id="line2d_115">
      <g>
       <use xlink:href="#m08328878c8" x="1061.525" y="354.035164" style="stroke: #000000"/>
      </g>
     </g>
    </g>
    <g id="ytick_20">
     <g id="line2d_116">
      <g>
       <use xlink:href="#mc607ae4d9a" x="57.125" y="342.034721" style="stroke: #000000"/>
      </g>
     </g>
     <g id="line2d_117">
      <g>
       <use xlink:href="#m08328878c8" x="1061.525" y="342.034721" style="stroke: #000000"/>
      </g>
     </g>
    </g>
    <g id="ytick_21">
     <g id="line2d_118">
      <g>
       <use xlink:href="#mc607ae4d9a" x="57.125" y="330.034279" style="stroke: #000000"/>
      </g>
     </g>
     <g id="line2d_119">
      <g>
       <use xlink:href="#m08328878c8" x="1061.525" y="330.034279" style="stroke: #000000"/>
      </g>
     </g>
    </g>
    <g id="ytick_22">
     <g id="line2d_120">
      <g>
       <use xlink:href="#mc607ae4d9a" x="57.125" y="306.033393" style="stroke: #000000"/>
      </g>
     </g>
     <g id="line2d_121">
      <g>
       <use xlink:href="#m08328878c8" x="1061.525" y="306.033393" style="stroke: #000000"/>
      </g>
     </g>
    </g>
    <g id="ytick_23">
     <g id="line2d_122">
      <g>
       <use xlink:href="#mc607ae4d9a" x="57.125" y="294.03295" style="stroke: #000000"/>
      </g>
     </g>
     <g id="line2d_123">
      <g>
       <use xlink:href="#m08328878c8" x="1061.525" y="294.03295" style="stroke: #000000"/>
      </g>
     </g>
    </g>
    <g id="ytick_24">
     <g id="line2d_124">
      <g>
       <use xlink:href="#mc607ae4d9a" x="57.125" y="282.032507" style="stroke: #000000"/>
      </g>
     </g>
     <g id="line2d_125">
      <g>
       <use xlink:href="#m08328878c8" x="1061.525" y="282.032507" style="stroke: #000000"/>
      </g>
     </g>
    </g>
    <g id="ytick_25">
     <g id="line2d_126">
      <g>
       <use xlink:href="#mc607ae4d9a" x="57.125" y="270.032065" style="stroke: #000000"/>
      </g>
     </g>
     <g id="line2d_127">
      <g>
       <use xlink:href="#m08328878c8" x="1061.525" y="270.032065" style="stroke: #000000"/>
      </g>
     </g>
    </g>
    <g id="ytick_26">
     <g id="line2d_128">
      <g>
       <use xlink:href="#mc607ae4d9a" x="57.125" y="246.031179" style="stroke: #000000"/>
      </g>
     </g>
     <g id="line2d_129">
      <g>
       <use xlink:href="#m08328878c8" x="1061.525" y="246.031179" style="stroke: #000000"/>
      </g>
     </g>
    </g>
    <g id="ytick_27">
     <g id="line2d_130">
      <g>
       <use xlink:href="#mc607ae4d9a" x="57.125" y="234.030736" style="stroke: #000000"/>
      </g>
     </g>
     <g id="line2d_131">
      <g>
       <use xlink:href="#m08328878c8" x="1061.525" y="234.030736" style="stroke: #000000"/>
      </g>
     </g>
    </g>
    <g id="ytick_28">
     <g id="line2d_132">
      <g>
       <use xlink:href="#mc607ae4d9a" x="57.125" y="222.030293" style="stroke: #000000"/>
      </g>
     </g>
     <g id="line2d_133">
      <g>
       <use xlink:href="#m08328878c8" x="1061.525" y="222.030293" style="stroke: #000000"/>
      </g>
     </g>
    </g>
    <g id="ytick_29">
     <g id="line2d_134">
      <g>
       <use xlink:href="#mc607ae4d9a" x="57.125" y="210.029851" style="stroke: #000000"/>
      </g>
     </g>
     <g id="line2d_135">
      <g>
       <use xlink:href="#m08328878c8" x="1061.525" y="210.029851" style="stroke: #000000"/>
      </g>
     </g>
    </g>
    <g id="ytick_30">
     <g id="line2d_136">
      <g>
       <use xlink:href="#mc607ae4d9a" x="57.125" y="186.028965" style="stroke: #000000"/>
      </g>
     </g>
     <g id="line2d_137">
      <g>
       <use xlink:href="#m08328878c8" x="1061.525" y="186.028965" style="stroke: #000000"/>
      </g>
     </g>
    </g>
    <g id="ytick_31">
     <g id="line2d_138">
      <g>
       <use xlink:href="#mc607ae4d9a" x="57.125" y="174.028522" style="stroke: #000000"/>
      </g>
     </g>
     <g id="line2d_139">
      <g>
       <use xlink:href="#m08328878c8" x="1061.525" y="174.028522" style="stroke: #000000"/>
      </g>
     </g>
    </g>
    <g id="ytick_32">
     <g id="line2d_140">
      <g>
       <use xlink:href="#mc607ae4d9a" x="57.125" y="162.028079" style="stroke: #000000"/>
      </g>
     </g>
     <g id="line2d_141">
      <g>
       <use xlink:href="#m08328878c8" x="1061.525" y="162.028079" style="stroke: #000000"/>
      </g>
     </g>
    </g>
    <g id="ytick_33">
     <g id="line2d_142">
      <g>
       <use xlink:href="#mc607ae4d9a" x="57.125" y="150.027637" style="stroke: #000000"/>
      </g>
     </g>
     <g id="line2d_143">
      <g>
       <use xlink:href="#m08328878c8" x="1061.525" y="150.027637" style="stroke: #000000"/>
      </g>
     </g>
    </g>
    <g id="ytick_34">
     <g id="line2d_144">
      <g>
       <use xlink:href="#mc607ae4d9a" x="57.125" y="126.026751" style="stroke: #000000"/>
      </g>
     </g>
     <g id="line2d_145">
      <g>
       <use xlink:href="#m08328878c8" x="1061.525" y="126.026751" style="stroke: #000000"/>
      </g>
     </g>
    </g>
    <g id="ytick_35">
     <g id="line2d_146">
      <g>
       <use xlink:href="#mc607ae4d9a" x="57.125" y="114.026308" style="stroke: #000000"/>
      </g>
     </g>
     <g id="line2d_147">
      <g>
       <use xlink:href="#m08328878c8" x="1061.525" y="114.026308" style="stroke: #000000"/>
      </g>
     </g>
    </g>
    <g id="ytick_36">
     <g id="line2d_148">
      <g>
       <use xlink:href="#mc607ae4d9a" x="57.125" y="102.025865" style="stroke: #000000"/>
      </g>
     </g>
     <g id="line2d_149">
      <g>
       <use xlink:href="#m08328878c8" x="1061.525" y="102.025865" style="stroke: #000000"/>
      </g>
     </g>
    </g>
    <g id="ytick_37">
     <g id="line2d_150">
      <g>
       <use xlink:href="#mc607ae4d9a" x="57.125" y="90.025423" style="stroke: #000000"/>
      </g>
     </g>
     <g id="line2d_151">
      <g>
       <use xlink:href="#m08328878c8" x="1061.525" y="90.025423" style="stroke: #000000"/>
      </g>
     </g>
    </g>
    <g id="ytick_38">
     <g id="line2d_152">
      <g>
       <use xlink:href="#mc607ae4d9a" x="57.125" y="66.024537" style="stroke: #000000"/>
      </g>
     </g>
     <g id="line2d_153">
      <g>
       <use xlink:href="#m08328878c8" x="1061.525" y="66.024537" style="stroke: #000000"/>
      </g>
     </g>
    </g>
    <g id="ytick_39">
     <g id="line2d_154">
      <g>
       <use xlink:href="#mc607ae4d9a" x="57.125" y="54.024094" style="stroke: #000000"/>
      </g>
     </g>
     <g id="line2d_155">
      <g>
       <use xlink:href="#m08328878c8" x="1061.525" y="54.024094" style="stroke: #000000"/>
      </g>
     </g>
    </g>
    <g id="ytick_40">
     <g id="line2d_156">
      <g>
       <use xlink:href="#mc607ae4d9a" x="57.125" y="42.023651" style="stroke: #000000"/>
      </g>
     </g>
     <g id="line2d_157">
      <g>
       <use xlink:href="#m08328878c8" x="1061.525" y="42.023651" style="stroke: #000000"/>
      </g>
     </g>
    </g>
    <g id="ytick_41">
     <g id="line2d_158">
      <g>
       <use xlink:href="#mc607ae4d9a" x="57.125" y="30.023209" style="stroke: #000000"/>
      </g>
     </g>
     <g id="line2d_159">
      <g>
       <use xlink:href="#m08328878c8" x="1061.525" y="30.023209" style="stroke: #000000"/>
      </g>
     </g>
    </g>
    <g id="text_13">
     <!-- Frequency Amplitude -->
     <g transform="translate(15.7575 356.10375) rotate(-90) scale(0.16 -0.16)">
      <defs>
       <path id="DejaVuSans-41" d="M 2188 4044 
L 1331 1722 
L 3047 1722 
L 2188 4044 
z
M 1831 4666 
L 2547 4666 
L 4325 0 
L 3669 0 
L 3244 1197 
L 1141 1197 
L 716 0 
L 50 0 
L 1831 4666 
z
" transform="scale(0.015625)"/>
       <path id="DejaVuSans-6d" d="M 3328 2828 
Q 3544 3216 3844 3400 
Q 4144 3584 4550 3584 
Q 5097 3584 5394 3201 
Q 5691 2819 5691 2113 
L 5691 0 
L 5113 0 
L 5113 2094 
Q 5113 2597 4934 2840 
Q 4756 3084 4391 3084 
Q 3944 3084 3684 2787 
Q 3425 2491 3425 1978 
L 3425 0 
L 2847 0 
L 2847 2094 
Q 2847 2600 2669 2842 
Q 2491 3084 2119 3084 
Q 1678 3084 1418 2786 
Q 1159 2488 1159 1978 
L 1159 0 
L 581 0 
L 581 3500 
L 1159 3500 
L 1159 2956 
Q 1356 3278 1631 3431 
Q 1906 3584 2284 3584 
Q 2666 3584 2933 3390 
Q 3200 3197 3328 2828 
z
" transform="scale(0.015625)"/>
       <path id="DejaVuSans-70" d="M 1159 525 
L 1159 -1331 
L 581 -1331 
L 581 3500 
L 1159 3500 
L 1159 2969 
Q 1341 3281 1617 3432 
Q 1894 3584 2278 3584 
Q 2916 3584 3314 3078 
Q 3713 2572 3713 1747 
Q 3713 922 3314 415 
Q 2916 -91 2278 -91 
Q 1894 -91 1617 61 
Q 1341 213 1159 525 
z
M 3116 1747 
Q 3116 2381 2855 2742 
Q 2594 3103 2138 3103 
Q 1681 3103 1420 2742 
Q 1159 2381 1159 1747 
Q 1159 1113 1420 752 
Q 1681 391 2138 391 
Q 2594 391 2855 752 
Q 3116 1113 3116 1747 
z
" transform="scale(0.015625)"/>
       <path id="DejaVuSans-6c" d="M 603 4863 
L 1178 4863 
L 1178 0 
L 603 0 
L 603 4863 
z
" transform="scale(0.015625)"/>
       <path id="DejaVuSans-69" d="M 603 3500 
L 1178 3500 
L 1178 0 
L 603 0 
L 603 3500 
z
M 603 4863 
L 1178 4863 
L 1178 4134 
L 603 4134 
L 603 4863 
z
" transform="scale(0.015625)"/>
       <path id="DejaVuSans-74" d="M 1172 4494 
L 1172 3500 
L 2356 3500 
L 2356 3053 
L 1172 3053 
L 1172 1153 
Q 1172 725 1289 603 
Q 1406 481 1766 481 
L 2356 481 
L 2356 0 
L 1766 0 
Q 1100 0 847 248 
Q 594 497 594 1153 
L 594 3053 
L 172 3053 
L 172 3500 
L 594 3500 
L 594 4494 
L 1172 4494 
z
" transform="scale(0.015625)"/>
       <path id="DejaVuSans-64" d="M 2906 2969 
L 2906 4863 
L 3481 4863 
L 3481 0 
L 2906 0 
L 2906 525 
Q 2725 213 2448 61 
Q 2172 -91 1784 -91 
Q 1150 -91 751 415 
Q 353 922 353 1747 
Q 353 2572 751 3078 
Q 1150 3584 1784 3584 
Q 2172 3584 2448 3432 
Q 2725 3281 2906 2969 
z
M 947 1747 
Q 947 1113 1208 752 
Q 1469 391 1925 391 
Q 2381 391 2643 752 
Q 2906 1113 2906 1747 
Q 2906 2381 2643 2742 
Q 2381 3103 1925 3103 
Q 1469 3103 1208 2742 
Q 947 2381 947 1747 
z
" transform="scale(0.015625)"/>
      </defs>
      <use xlink:href="#DejaVuSans-46"/>
      <use xlink:href="#DejaVuSans-72" x="50.269531"/>
      <use xlink:href="#DejaVuSans-65" x="89.132812"/>
      <use xlink:href="#DejaVuSans-71" x="150.65625"/>
      <use xlink:href="#DejaVuSans-75" x="214.132812"/>
      <use xlink:href="#DejaVuSans-65" x="277.511719"/>
      <use xlink:href="#DejaVuSans-6e" x="339.035156"/>
      <use xlink:href="#DejaVuSans-63" x="402.414062"/>
      <use xlink:href="#DejaVuSans-79" x="457.394531"/>
      <use xlink:href="#DejaVuSans-20" x="516.574219"/>
      <use xlink:href="#DejaVuSans-41" x="548.361328"/>
      <use xlink:href="#DejaVuSans-6d" x="616.769531"/>
      <use xlink:href="#DejaVuSans-70" x="714.181641"/>
      <use xlink:href="#DejaVuSans-6c" x="777.658203"/>
      <use xlink:href="#DejaVuSans-69" x="805.441406"/>
      <use xlink:href="#DejaVuSans-74" x="833.224609"/>
      <use xlink:href="#DejaVuSans-75" x="872.433594"/>
      <use xlink:href="#DejaVuSans-64" x="935.8125"/>
      <use xlink:href="#DejaVuSans-65" x="999.289062"/>
     </g>
    </g>
   </g>
   <g id="line2d_160">
    <path d="M -1 497.845343 
L 102.779545 497.845271 
L 185.593336 496.03723 
L 234.036297 479.713733 
L 268.407126 450.932406 
L 295.067211 420.390184 
L 316.850087 390.357195 
L 335.267247 352.952205 
L 351.220916 320.862705 
L 365.293049 314.240331 
L 377.881001 369.140649 
L 389.268189 451.734875 
L 399.663877 476.452554 
L 409.226983 398.279813 
L 418.081037 379.105788 
L 426.323963 307.704849 
L 434.034706 300.507569 
L 441.277835 381.526247 
L 448.106839 439.003866 
L 454.566523 396.80677 
L 460.694791 391.245425 
L 466.523998 326.210132 
L 472.081979 247.362785 
L 477.392856 167.907605 
L 482.477667 146.960575 
L 487.354877 131.441709 
L 492.040773 132.950158 
L 496.549801 131.756824 
L 500.894827 128.437882 
L 505.087364 91.980746 
L 509.137753 122.664402 
L 513.055319 137.171497 
L 516.848496 192.46188 
L 520.524941 253.058132 
L 524.091625 263.573463 
L 527.554912 231.350991 
L 530.920629 250.989525 
L 534.194123 243.990548 
L 537.380313 176.669466 
L 540.483735 96.268986 
L 543.508581 76.505828 
L 546.458732 114.888756 
L 549.337788 145.888808 
L 552.149096 258.840748 
L 554.895769 283.598343 
L 557.580715 190.068323 
L 560.206646 133.070366 
L 562.776101 102.947862 
L 565.291458 124.218842 
L 567.754948 206.653314 
L 570.168667 295.573375 
L 572.534587 350.178474 
L 574.854564 429.100614 
L 577.130347 392.863409 
L 579.363591 359.093199 
L 581.555855 319.027297 
L 583.708617 315.193286 
L 587.901154 454.184719 
L 589.943512 486.003826 
L 591.951543 433.669995 
L 593.926382 402.46808 
L 595.869109 345.650787 
L 597.78075 340.123482 
L 599.662286 325.290819 
L 601.514649 294.449178 
L 603.338731 331.45932 
L 605.135382 360.495806 
L 606.905415 402.552985 
L 608.649607 459.495688 
L 610.368702 473.686826 
L 612.063412 448.697552 
L 613.734419 450.774137 
L 615.382377 445.389403 
L 617.007913 423.931977 
L 618.611629 386.144041 
L 620.194103 345.898539 
L 621.75589 267.781282 
L 623.297525 197.070524 
L 624.819521 160.01892 
L 626.322372 165.424191 
L 627.806553 205.584766 
L 629.272523 264.062808 
L 630.720723 304.182686 
L 632.151579 291.509755 
L 633.565501 250.283502 
L 634.962886 219.96602 
L 636.344116 212.244157 
L 637.709559 242.501997 
L 639.059574 315.550059 
L 640.394505 367.664259 
L 641.714685 348.27815 
L 643.020436 266.780044 
L 644.31207 195.942442 
L 645.589891 147.951808 
L 646.854189 107.025639 
L 648.105248 91.171836 
L 649.343342 100.578716 
L 650.568738 140.2111 
L 652.982457 208.156336 
L 654.171273 215.446951 
L 655.348377 227.776208 
L 656.513996 173.013087 
L 657.668354 130.311109 
L 658.811664 124.466949 
L 659.944138 55.320475 
L 661.065977 57.910667 
L 662.177381 111.681127 
L 663.278541 122.082729 
L 664.369645 163.016901 
L 665.450875 171.453374 
L 666.522407 170.850379 
L 667.584414 199.989116 
L 668.637065 183.138108 
L 669.680521 255.972791 
L 670.714944 291.808022 
L 671.740487 296.993042 
L 672.757302 279.71045 
L 673.765536 228.815697 
L 674.765333 295.750092 
L 675.756833 316.770843 
L 676.740172 319.083612 
L 677.715484 436.872243 
L 678.682899 422.375964 
L 679.642543 447.825608 
L 680.59454 436.742073 
L 681.539012 440.429056 
L 682.476076 457.197915 
L 683.405847 446.762113 
L 684.328439 346.742758 
L 685.243961 278.902307 
L 686.152521 235.754862 
L 687.054224 162.166208 
L 687.949172 223.123115 
L 688.837467 221.472687 
L 689.719205 192.292348 
L 690.594484 231.533218 
L 691.463398 221.554562 
L 692.326037 206.872385 
L 693.182493 226.946343 
L 694.032852 268.482166 
L 694.877202 341.239717 
L 695.715627 423.998274 
L 696.548209 449.170521 
L 697.37503 441.770007 
L 698.196167 381.617622 
L 699.0117 401.809253 
L 699.821703 464.2579 
L 700.626252 477.326084 
L 701.425419 434.723909 
L 702.219276 324.590096 
L 703.007893 264.854352 
L 703.791339 144.926854 
L 704.56968 92.227978 
L 705.342984 127.775364 
L 706.111315 93.470642 
L 709.136162 456.587816 
L 709.880557 354.801116 
L 710.620343 325.927297 
L 711.355576 279.475407 
L 712.086313 263.843842 
L 712.812607 298.11413 
L 714.252083 478.157929 
L 714.965369 430.199523 
L 715.674421 347.147263 
L 716.379291 399.032431 
L 717.080026 422.077165 
L 717.776676 480.691685 
L 718.469287 352.745251 
L 719.157906 283.441712 
L 719.842578 304.93979 
L 720.52335 270.668371 
L 721.200264 413.044938 
L 721.873364 408.494922 
L 723.208295 199.205886 
L 723.870208 171.709283 
L 724.528475 171.463387 
L 725.183134 211.767254 
L 726.481789 390.715069 
L 727.125861 439.57371 
L 727.766479 391.461804 
L 728.403681 431.621049 
L 729.037502 375.330081 
L 729.667979 353.4339 
L 730.295146 190.953409 
L 730.919038 172.418281 
L 731.539689 121.526259 
L 732.157132 82.475222 
L 732.771401 154.665911 
L 733.382528 128.318735 
L 733.990545 155.125152 
L 734.595483 76.269054 
L 735.197374 44.4375 
L 735.796247 85.169575 
L 736.392134 138.618157 
L 737.575065 270.458596 
L 738.162167 364.840391 
L 738.746398 439.1293 
L 739.327786 396.349115 
L 739.906359 397.713741 
L 740.482144 356.112083 
L 741.055167 303.111124 
L 741.625454 369.381183 
L 742.193033 402.233896 
L 742.757928 445.028624 
L 743.320164 475.040597 
L 743.879767 357.25834 
L 744.436761 322.471136 
L 744.991171 303.416045 
L 745.54302 295.405771 
L 746.092331 384.050724 
L 746.639129 411.27439 
L 747.183435 419.221462 
L 747.725273 410.182209 
L 748.264665 422.678139 
L 748.801632 370.059233 
L 749.336197 363.802094 
L 749.868381 399.154181 
L 750.398204 373.893247 
L 751.973722 440.39568 
L 752.494312 443.859838 
L 753.012642 359.35051 
L 753.528734 407.369051 
L 754.042606 401.913594 
L 754.554277 302.609795 
L 755.063766 350.354078 
L 755.571092 301.285112 
L 756.076273 269.683101 
L 756.579326 381.521356 
L 757.080271 420.392409 
L 757.579123 396.194746 
L 758.075902 397.678083 
L 758.570623 415.317279 
L 759.063304 356.234821 
L 759.553962 317.712826 
L 760.042614 364.470669 
L 760.529274 316.567709 
L 761.013961 341.134204 
L 761.496689 414.380668 
L 762.456333 381.670201 
L 762.93328 265.05915 
L 763.40833 311.411192 
L 763.881499 316.205436 
L 764.352802 349.552122 
L 764.822253 474.623689 
L 765.755656 403.749545 
L 766.219638 331.724674 
L 766.681824 331.028098 
L 767.142229 382.411564 
L 767.600867 392.182581 
L 768.057751 417.226972 
L 768.966311 299.220838 
L 769.868014 251.328797 
L 770.316326 278.403314 
L 770.762962 352.177112 
L 771.207935 405.724687 
L 771.651257 476.303035 
L 772.092939 455.947688 
L 772.532995 445.351462 
L 772.971436 407.618585 
L 773.408274 398.305101 
L 773.843521 393.467963 
L 774.709286 349.818952 
L 775.139827 349.520827 
L 775.568822 386.244998 
L 775.996283 377.543797 
L 776.422219 374.870932 
L 776.846642 410.013266 
L 777.269563 377.064157 
L 777.690993 379.040302 
L 778.11094 411.205066 
L 778.529417 360.201286 
L 778.946434 409.489252 
L 779.361999 419.488394 
L 779.776125 425.198231 
L 780.18882 419.961975 
L 780.600094 329.66831 
L 781.009957 328.217203 
L 781.418419 263.565548 
L 781.82549 224.561769 
L 782.231178 311.617218 
L 782.635493 271.32249 
L 783.038445 361.413813 
L 783.440042 419.176321 
L 783.840294 426.570622 
L 784.239209 463.545555 
L 784.636797 430.715436 
L 785.033066 440.829487 
L 785.428025 428.155006 
L 785.821683 467.331691 
L 786.214048 473.59373 
L 786.605129 476.545879 
L 786.994933 452.353232 
L 787.383471 454.329933 
L 787.770748 453.858892 
L 788.156775 445.32058 
L 788.541558 450.534249 
L 788.925105 426.803803 
L 789.307426 439.459146 
L 789.688527 419.178068 
L 790.068416 420.113656 
L 790.447101 411.370322 
L 790.82459 393.581547 
L 791.200889 406.566976 
L 791.576008 369.456671 
L 791.949952 353.598979 
L 792.322729 369.048003 
L 792.694347 407.697453 
L 793.064812 425.83717 
L 793.434133 435.117433 
L 793.802315 425.187402 
L 794.169366 393.443214 
L 794.535293 399.97377 
L 795.263802 376.417513 
L 795.626397 389.398427 
L 795.987895 384.560205 
L 796.348303 383.347342 
L 796.707626 364.967731 
L 797.065873 365.503791 
L 797.423048 382.610218 
L 797.779159 379.46353 
L 798.134211 392.734166 
L 798.488211 390.388665 
L 798.841166 377.117091 
L 799.193081 352.971555 
L 799.543962 339.138363 
L 799.893816 348.20702 
L 800.242649 374.374324 
L 800.590466 439.704861 
L 800.937273 459.114292 
L 801.283077 458.739322 
L 801.627882 415.496017 
L 801.971696 425.268651 
L 802.314522 430.730964 
L 802.656368 400.699147 
L 804.014054 482.484161 
L 804.351078 455.17263 
L 804.687154 457.392343 
L 805.022288 441.704093 
L 805.356484 433.340513 
L 805.689748 459.772807 
L 807.013585 387.238173 
L 807.342265 381.626092 
L 807.996924 446.435194 
L 808.322914 427.439033 
L 808.648016 433.671018 
L 808.972236 426.527279 
L 809.295579 423.601716 
L 809.618049 458.239385 
L 809.939651 471.091554 
L 810.580269 376.804757 
L 810.899295 370.415667 
L 811.217471 385.808816 
L 811.534802 418.878146 
L 811.851292 439.684758 
L 812.166946 433.590273 
L 812.481769 435.856902 
L 812.795764 445.563421 
L 813.108936 428.147836 
L 813.421289 436.112186 
L 813.732828 460.033113 
L 814.043556 451.625852 
L 814.353479 460.410496 
L 814.662599 450.147251 
L 814.970922 414.283449 
L 815.278451 402.44246 
L 815.585191 359.913553 
L 815.891145 351.207371 
L 816.196318 366.006668 
L 816.500713 368.975499 
L 816.804335 382.663043 
L 817.107187 378.156101 
L 817.409273 385.812814 
L 817.710597 416.106623 
L 818.310976 439.236781 
L 818.908352 345.480455 
L 819.205924 320.813042 
L 819.502757 318.680334 
L 819.798854 349.122234 
L 820.094218 352.897542 
L 820.388855 389.728271 
L 820.682767 401.716598 
L 820.975957 402.87908 
L 821.26843 425.113214 
L 821.560188 418.697852 
L 821.851236 420.724576 
L 822.141577 400.509457 
L 822.431213 399.412338 
L 822.720149 412.015397 
L 823.008388 430.428643 
L 823.295934 462.097508 
L 823.582789 464.629994 
L 823.868957 431.999375 
L 824.154441 419.733357 
L 824.439244 396.263595 
L 824.723371 390.952066 
L 825.006823 411.203408 
L 825.289604 408.46264 
L 826.414083 444.174332 
L 826.693557 437.557802 
L 826.972379 445.007005 
L 827.250552 459.533987 
L 827.528078 463.327529 
L 827.804961 484.6731 
L 828.081204 479.896486 
L 828.35681 467.186 
L 828.631781 461.583866 
L 828.906121 481.681309 
L 829.179833 481.049886 
L 830.268451 393.190129 
L 830.539063 379.27279 
L 831.078455 404.544471 
L 831.615422 450.498636 
L 831.883004 455.253657 
L 832.149987 473.23202 
L 832.416375 469.184677 
L 832.682171 472.864616 
L 832.947376 444.25092 
L 833.211994 448.268236 
L 833.476028 432.993793 
L 833.739479 430.852846 
L 834.00235 439.567496 
L 834.264645 438.972887 
L 834.526365 461.598778 
L 834.787512 444.270012 
L 835.04809 456.749469 
L 835.308102 445.39359 
L 835.567548 446.454139 
L 835.826432 446.527791 
L 836.084757 441.416369 
L 836.342524 444.515523 
L 836.599736 435.158061 
L 837.112505 457.938231 
L 837.368067 456.011232 
L 837.623083 461.275509 
L 837.877556 438.818178 
L 838.131489 437.730147 
L 838.384882 438.958934 
L 839.141854 482.149328 
L 839.393116 471.393067 
L 839.643851 446.422492 
L 839.894061 444.246877 
L 840.143747 433.997408 
L 840.392913 441.934241 
L 840.641561 457.019476 
L 840.889692 465.057097 
L 841.137309 489.218129 
L 841.384413 480.157637 
L 841.631008 476.92298 
L 841.877095 453.522436 
L 842.122675 458.603193 
L 842.612328 488.071233 
L 843.099982 459.799793 
L 843.343064 454.963249 
L 843.827751 460.664645 
L 844.069359 459.852197 
L 845.030934 373.401182 
L 845.270123 376.235916 
L 845.508834 385.700009 
L 845.74707 401.175516 
L 845.984831 424.959209 
L 846.458939 454.212925 
L 846.69529 450.832286 
L 846.931173 444.214025 
L 847.166592 446.41583 
L 847.401548 449.925448 
L 847.636043 448.018302 
L 847.870078 447.746295 
L 848.103656 433.036857 
L 848.569446 423.100994 
L 848.801662 425.089115 
L 849.033428 447.353187 
L 849.956019 484.60113 
L 850.185558 492.516835 
L 850.643318 464.952881 
L 850.871541 463.694015 
L 851.09933 466.447335 
L 851.326685 466.615419 
L 851.553608 467.437637 
L 851.780101 472.888393 
L 852.006166 472.813562 
L 852.231803 464.900543 
L 852.457016 475.668383 
L 852.681804 459.038425 
L 852.90617 458.21455 
L 853.353643 451.655783 
L 853.576752 468.141628 
L 853.799446 448.049285 
L 854.021725 469.44738 
L 854.243592 459.255691 
L 854.465047 455.703411 
L 854.686092 474.543223 
L 854.90673 466.710847 
L 855.12696 476.241868 
L 855.346785 449.209574 
L 855.566207 443.719611 
L 855.785226 428.036024 
L 856.003845 425.185845 
L 856.222064 428.463642 
L 856.657311 416.226562 
L 857.307222 352.810163 
L 857.523076 359.820263 
L 857.73854 358.03725 
L 858.168307 410.015347 
L 858.382612 416.407606 
L 858.596534 416.046412 
L 858.810073 403.212919 
L 859.023231 417.044187 
L 859.236009 419.085664 
L 859.448409 442.092757 
L 859.660432 443.321244 
L 859.87208 435.640645 
L 860.294254 392.884984 
L 860.714941 414.507231 
L 860.92473 453.374278 
L 861.134152 464.03738 
L 861.343207 455.49935 
L 861.551897 413.906435 
L 861.760224 423.685902 
L 861.968187 423.236992 
L 862.175789 444.486839 
L 862.383032 451.598414 
L 862.589915 426.23728 
L 862.79644 430.01741 
L 863.00261 412.326591 
L 863.208424 440.985204 
L 863.618991 455.673732 
L 863.823747 482.000298 
L 864.028153 465.975551 
L 864.232209 486.05718 
L 864.435918 477.613922 
L 864.63928 485.893699 
L 865.044968 459.798172 
L 865.449283 467.799411 
L 865.650929 477.209832 
L 866.253832 453.54734 
L 866.454125 471.268548 
L 866.654084 463.042434 
L 866.853708 471.953991 
L 867.052999 465.527574 
L 867.251958 480.434361 
L 867.450587 477.042852 
L 867.648886 471.085971 
L 868.044499 448.161572 
L 868.438806 462.297506 
L 868.635473 459.45331 
L 868.831817 467.980508 
L 869.223538 454.797512 
L 869.418919 439.698576 
L 869.61398 466.398129 
L 869.808724 455.202016 
L 870.00315 464.83191 
L 870.197261 429.641507 
L 870.391056 419.946163 
L 870.584538 425.462882 
L 870.777707 419.117634 
L 870.970565 437.513101 
L 871.163111 407.419608 
L 871.547275 427.952805 
L 871.738895 414.021707 
L 871.930209 444.975396 
L 872.311918 461.98146 
L 872.502317 461.538075 
L 872.692412 447.873758 
L 872.882206 456.86709 
L 873.071699 437.906193 
L 873.260891 476.962503 
L 873.449785 449.438218 
L 873.63838 481.098104 
L 873.826678 442.88209 
L 874.014679 456.63773 
L 874.202386 439.005621 
L 874.576916 451.558356 
L 874.763742 454.097241 
L 874.950276 482.475083 
L 875.136519 471.264369 
L 875.322472 481.588828 
L 875.508137 449.916268 
L 875.693513 456.589396 
L 875.878602 427.30282 
L 876.063405 436.932528 
L 876.247923 453.476843 
L 876.432156 437.167138 
L 876.616105 463.035548 
L 876.799772 431.176324 
L 876.983156 449.819789 
L 877.16626 437.361356 
L 877.349083 440.540849 
L 877.531627 460.047677 
L 877.713893 446.561359 
L 878.077592 475.610743 
L 878.259027 453.725959 
L 878.440187 458.168839 
L 878.621073 445.037979 
L 878.801685 467.493286 
L 878.982025 466.973579 
L 879.162093 474.585138 
L 879.521417 449.529584 
L 879.700674 451.98719 
L 879.879663 426.630912 
L 880.058384 438.028289 
L 880.415026 414.740895 
L 880.948001 485.194779 
L 881.125132 459.429081 
L 881.302002 451.962043 
L 881.478609 413.148423 
L 881.654956 437.75682 
L 881.831043 433.057224 
L 882.006871 422.056553 
L 882.182441 437.643351 
L 882.357753 412.593045 
L 882.532808 423.412783 
L 882.707607 427.140094 
L 883.056439 452.941911 
L 883.230474 434.992283 
L 883.404256 442.276506 
L 883.577785 433.78494 
L 883.92409 474.873493 
L 884.096867 467.979713 
L 884.269394 447.82131 
L 884.613703 434.250989 
L 884.785486 420.197357 
L 884.957022 443.994211 
L 885.128312 445.541627 
L 885.299358 448.555685 
L 885.470158 477.950654 
L 885.640715 463.25933 
L 885.811029 459.089045 
L 886.15093 426.870729 
L 886.320518 420.296342 
L 886.489866 394.053756 
L 886.996475 412.673862 
L 887.164868 430.898212 
L 887.333025 431.98488 
L 887.500945 438.864306 
L 887.668629 455.650941 
L 887.836078 455.574307 
L 888.170274 476.921274 
L 888.337022 461.131601 
L 888.503538 467.335357 
L 889.16729 439.191838 
L 889.332654 470.191338 
L 889.497788 470.319178 
L 889.827375 493.275839 
L 889.991828 475.093349 
L 890.156055 486.431728 
L 890.320056 474.179547 
L 890.483833 484.556654 
L 890.97382 459.326919 
L 891.136704 447.608659 
L 891.624026 490.215153 
L 891.786026 478.051328 
L 891.947807 480.121676 
L 892.270713 489.354297 
L 892.753441 478.093966 
L 892.913918 484.195015 
L 893.234226 473.825817 
L 893.394059 484.723793 
L 893.553678 482.407827 
L 893.713085 488.950017 
L 893.872279 490.12782 
L 894.031261 477.361446 
L 894.190032 479.287781 
L 894.348592 468.882135 
L 894.506942 470.029528 
L 894.665082 452.761985 
L 894.823013 448.544723 
L 894.980736 450.777191 
L 895.138251 432.765629 
L 895.452659 448.41074 
L 895.922726 411.484021 
L 896.235079 438.546541 
L 896.546618 477.926018 
L 896.702083 479.102047 
L 896.857346 474.3619 
L 897.012408 459.001202 
L 897.167269 457.664639 
L 897.321929 459.216583 
L 897.476389 465.715964 
L 897.63065 478.183142 
L 897.784712 478.961588 
L 897.938576 487.706759 
L 898.24571 480.610487 
L 898.398981 459.430179 
L 898.704935 478.910386 
L 898.857619 476.915417 
L 899.010108 489.273082 
L 899.162403 490.570437 
L 899.314503 481.163292 
L 899.618125 443.237129 
L 899.920977 406.178744 
L 900.072115 408.514059 
L 900.223063 416.19723 
L 900.524387 447.925523 
L 900.824954 435.413928 
L 901.124766 409.642604 
L 902.168223 491.189144 
L 902.464687 480.805593 
L 902.612644 467.160607 
L 902.760417 473.824272 
L 902.908009 489.961107 
L 903.055418 483.066115 
L 903.349691 448.600599 
L 903.496557 442.805182 
L 903.643242 445.857268 
L 903.789747 451.590727 
L 904.228188 484.225173 
L 904.373978 481.310471 
L 904.810285 462.892806 
L 905.100273 469.664169 
L 905.678146 445.064276 
L 905.822178 448.322202 
L 906.539748 483.944123 
L 906.682747 483.260744 
L 906.968231 469.427669 
L 907.110717 478.287001 
L 907.537161 464.85349 
L 907.820613 452.602798 
L 908.103394 451.808312 
L 908.244534 448.686053 
L 908.385508 469.080443 
L 908.526315 462.431353 
L 908.807433 479.889851 
L 908.947744 491.654587 
L 909.367692 452.459308 
L 909.507347 445.257139 
L 909.925336 474.635725 
L 910.064342 476.781681 
L 910.203185 470.929979 
L 910.48039 479.082349 
L 910.756953 491.800635 
L 911.445571 443.428909 
L 911.58282 437.927519 
L 911.856846 459.555067 
L 911.993623 457.758598 
L 912.130244 462.069277 
L 912.266709 453.262916 
L 912.539172 469.952987 
L 912.675171 473.70478 
L 912.811015 485.720831 
L 912.946705 487.762612 
L 913.082241 485.542557 
L 913.217624 492.34771 
L 913.352853 489.292598 
L 913.48793 476.405674 
L 913.757625 473.32716 
L 913.892245 474.775539 
L 914.026713 481.817695 
L 914.16103 473.505251 
L 914.295196 473.83212 
L 914.429212 465.08188 
L 914.563078 469.718098 
L 914.696794 487.819825 
L 914.83036 484.628297 
L 915.097045 458.268178 
L 915.230165 456.994996 
L 915.363137 461.128271 
L 915.628637 488.788647 
L 915.761166 482.459778 
L 916.025784 461.64966 
L 916.157874 465.367243 
L 916.289818 456.62867 
L 916.684777 483.319162 
L 916.81614 488.708788 
L 917.078435 490.193524 
L 917.209366 482.812184 
L 917.340155 492.977376 
L 917.4708 485.825033 
L 917.601302 492.294614 
L 917.731663 483.469333 
L 917.861881 486.298091 
L 917.991957 496.356924 
L 918.251685 484.021385 
L 918.381338 490.376768 
L 918.51085 487.303822 
L 918.640222 488.234478 
L 918.769454 490.404185 
L 918.898547 483.669034 
L 919.156314 491.237801 
L 919.541925 482.605693 
L 919.798309 471.440719 
L 919.926296 473.975845 
L 920.054145 469.919615 
L 920.309433 478.555946 
L 920.436873 476.581601 
L 920.564178 488.056503 
L 920.691346 484.619821 
L 920.81838 485.732746 
L 921.072043 467.357533 
L 921.325168 473.219738 
L 921.577758 492.322312 
L 922.081341 438.433731 
L 922.33234 456.709351 
L 922.582811 476.440343 
L 922.832759 448.227505 
L 922.957537 446.740513 
L 923.082185 447.031849 
L 923.206703 449.405926 
L 923.455351 467.300283 
L 923.579481 468.250084 
L 923.827354 488.459473 
L 923.951099 489.850784 
L 924.074715 497.511466 
L 924.321564 481.20741 
L 924.567905 459.426966 
L 924.690885 461.281559 
L 924.936465 456.522945 
L 925.426118 491.731091 
L 925.548218 488.281698 
L 925.913772 464.423796 
L 926.035375 467.357268 
L 926.156854 474.611364 
L 926.278211 471.802075 
L 926.399443 473.106876 
L 926.520553 472.44372 
L 926.641541 464.189067 
L 926.762406 469.239547 
L 926.883149 458.441816 
L 927.00377 458.825055 
L 927.124269 463.841916 
L 927.244647 457.214745 
L 927.485039 468.646071 
L 927.605055 473.844374 
L 927.724949 491.105059 
L 927.844724 483.57671 
L 927.964378 483.971602 
L 928.203328 472.065643 
L 928.322625 476.209801 
L 928.56086 493.666479 
L 928.6798 492.308148 
L 928.798621 487.270082 
L 929.03591 492.2459 
L 929.272729 491.497302 
L 929.390963 480.502539 
L 929.62708 484.87842 
L 929.744963 474.255494 
L 929.862731 475.850953 
L 929.980382 475.120035 
L 930.097918 469.195396 
L 930.215338 469.718374 
L 930.332643 458.231228 
L 930.449833 459.086 
L 930.566908 461.03037 
L 930.683868 456.199946 
L 930.917446 481.021326 
L 931.150568 487.243022 
L 931.266959 478.322549 
L 931.383236 486.082846 
L 931.499401 477.622692 
L 931.847218 495.721384 
L 932.078534 476.131766 
L 932.194025 472.975242 
L 932.309404 456.545558 
L 932.539829 465.232981 
L 932.654874 458.272477 
L 932.769809 459.472554 
L 933.113953 449.372609 
L 933.228447 452.355845 
L 933.571274 476.493144 
L 933.685332 478.71061 
L 933.79928 489.147507 
L 933.91312 487.995278 
L 934.026852 480.17048 
L 934.140475 487.549549 
L 934.253991 486.361008 
L 934.367398 491.708198 
L 934.593891 486.992447 
L 934.819956 476.464511 
L 934.932828 479.601668 
L 935.045593 476.006347 
L 935.270806 485.36709 
L 935.831986 469.051085 
L 935.943906 470.708933 
L 936.390542 491.639599 
L 936.501941 490.885906 
L 936.613236 494.377844 
L 937.389411 477.368466 
L 937.72052 489.277066 
L 937.94075 486.259353 
L 938.050713 487.676008 
L 938.160575 484.113019 
L 938.270337 485.649102 
L 938.708376 466.444196 
L 938.926795 471.697227 
L 939.035854 473.338668 
L 939.144815 480.620645 
L 939.253676 475.0625 
L 939.362438 478.271381 
L 939.471101 478.177744 
L 939.579665 477.344918 
L 939.688131 473.191255 
L 939.796499 473.740856 
L 939.904768 469.930021 
L 940.121012 474.027904 
L 940.228988 470.785736 
L 940.336866 477.043189 
L 940.552331 469.082492 
L 940.659917 473.168455 
L 940.767407 464.087462 
L 940.982097 479.155556 
L 941.089298 476.811796 
L 941.196402 483.998155 
L 941.303411 470.57472 
L 941.410324 474.341679 
L 941.517141 470.735964 
L 941.623863 472.871868 
L 941.943457 484.290213 
L 942.049799 484.079236 
L 942.262199 481.028282 
L 942.474223 484.917472 
L 942.68587 491.441374 
L 942.791554 489.809667 
L 942.897143 489.933246 
L 943.108044 481.904099 
L 943.213355 483.380356 
L 943.318573 482.827373 
L 943.423698 488.169196 
L 943.528731 481.270191 
L 943.738521 483.482214 
L 943.843277 489.39778 
L 944.261388 472.155326 
L 944.574014 481.97637 
L 944.781977 474.376799 
L 944.98958 469.773521 
L 945.093246 471.514346 
L 945.196822 470.30053 
L 945.300308 472.082481 
L 945.71336 457.869422 
L 945.8164 458.400099 
L 946.330272 474.016119 
L 946.432781 480.521235 
L 946.535203 479.373756 
L 946.739784 484.332478 
L 947.045999 471.475078 
L 947.351432 464.780011 
L 947.45307 469.932364 
L 947.554621 465.416609 
L 947.858758 471.293325 
L 947.959965 476.586354 
L 948.061087 475.204363 
L 948.464719 486.103964 
L 948.565414 485.981789 
L 948.866992 470.235734 
L 948.967349 474.490216 
L 949.067622 469.775116 
L 949.467874 481.979391 
L 949.667498 469.478557 
L 949.866789 461.155127 
L 949.96631 463.298247 
L 950.065748 456.17801 
L 950.165104 461.819717 
L 950.363568 460.382938 
L 950.660646 468.969899 
L 950.759508 468.498964 
L 951.252596 494.972224 
L 951.449263 493.325661 
L 952.330279 457.428739 
L 952.42777 458.293942 
L 952.525182 456.264529 
L 953.011051 467.043687 
L 953.301627 495.939735 
L 953.398328 494.783494 
L 953.591497 482.102115 
L 953.784355 488.498355 
L 953.880667 484.985713 
L 954.169138 494.516604 
L 954.361066 490.095612 
L 954.456914 491.246561 
L 954.935006 461.517832 
L 955.125708 455.522377 
L 955.220946 459.016461 
L 955.316107 457.344197 
L 955.79078 489.040756 
L 955.885489 488.511816 
L 955.980122 484.983556 
L 956.169165 489.23719 
L 956.263575 488.596438 
L 956.357909 488.871633 
L 956.45217 483.66469 
L 956.546356 489.732423 
L 956.640468 487.170675 
L 956.828469 494.79704 
L 957.109918 479.031188 
L 957.390706 460.020772 
L 957.484155 456.010789 
L 957.857224 481.715902 
L 957.950309 476.518561 
L 958.043322 476.696899 
L 958.136263 476.049343 
L 958.414651 487.003935 
L 958.692393 493.8668 
L 958.877195 484.675114 
L 958.96949 477.885839 
L 959.245946 493.151937 
L 959.613562 469.374221 
L 959.705289 471.118471 
L 959.796946 468.198417 
L 959.888533 469.270916 
L 959.98005 463.627251 
L 960.25418 470.112108 
L 960.345417 478.972074 
L 960.436585 476.806051 
L 960.527683 479.397376 
L 960.618711 475.324253 
L 960.709671 475.839383 
L 960.891382 485.807982 
L 960.982134 488.98768 
L 961.163431 471.805675 
L 961.344454 458.314982 
L 961.975883 496.512945 
L 962.065815 494.485722 
L 962.245477 485.183258 
L 962.335207 483.401701 
L 962.424869 479.203637 
L 962.693453 486.280792 
L 962.782847 495.035346 
L 962.872174 491.870397 
L 963.139755 470.446404 
L 963.228816 471.76196 
L 963.406739 480.573659 
L 963.584397 492.825603 
L 963.673127 494.700047 
L 963.938923 475.707804 
L 964.02739 472.572434 
L 964.115792 473.572756 
L 964.204128 470.500079 
L 964.292399 482.631221 
L 964.380605 481.49026 
L 964.468746 489.074497 
L 964.644833 478.766277 
L 964.73278 477.639829 
L 964.820661 474.326746 
L 964.908478 480.016978 
L 965.171543 471.804347 
L 965.259102 472.35367 
L 965.346598 467.109107 
L 965.434029 468.065429 
L 965.521397 473.041188 
L 965.6087 472.35249 
L 965.69594 473.567793 
L 965.783116 465.575641 
L 965.870229 468.997928 
L 965.957278 459.411235 
L 966.044264 461.355311 
L 966.218046 478.883076 
L 966.391576 489.311684 
L 966.478246 485.445208 
L 966.564853 475.229856 
L 966.651398 479.44232 
L 966.8243 469.408914 
L 967.169354 490.948673 
L 967.255462 493.431506 
L 967.341509 491.010246 
L 967.427493 491.521619 
L 967.599276 494.223172 
L 967.856488 490.513016 
L 968.027656 481.70395 
L 968.113148 480.412573 
L 968.198579 476.890588 
L 968.454505 482.81769 
L 968.624819 492.177133 
L 968.79489 486.936118 
L 968.879835 493.531942 
L 968.96472 493.15612 
L 969.049544 496.170599 
L 969.303656 486.76707 
L 969.38824 488.503132 
L 969.472765 487.014403 
L 969.978658 462.166498 
L 970.146815 465.113472 
L 970.314735 484.19378 
L 970.398606 496.068438 
L 970.649868 482.302803 
L 970.733505 483.711264 
L 970.984064 494.485347 
L 971.067468 488.696993 
L 971.150812 489.299373 
L 971.234099 489.21315 
L 971.317328 489.811586 
L 971.483612 495.151747 
L 971.566668 493.891249 
L 971.649665 494.67246 
L 971.98108 484.345874 
L 972.146444 490.589377 
L 972.22904 486.52525 
L 972.311578 489.258756 
L 972.39406 484.273202 
L 972.476485 490.710001 
L 972.558854 484.1289 
L 972.641165 484.484677 
L 972.72342 490.410063 
L 972.805618 487.679128 
L 972.88776 489.039381 
L 972.969845 493.939984 
L 973.133846 489.089324 
L 973.297623 490.91574 
L 973.624504 480.838731 
L 973.706085 481.170571 
L 973.78761 482.199313 
L 973.86908 481.115513 
L 973.950494 482.087457 
L 974.031852 478.116411 
L 974.113155 478.140083 
L 974.518844 491.915707 
L 974.599816 490.555933 
L 974.761597 488.211853 
L 974.842405 487.104743 
L 974.923159 489.476751 
L 975.003858 488.669854 
L 975.084503 489.090317 
L 975.165093 491.51784 
L 975.245629 491.050235 
L 975.727708 482.148914 
L 975.807865 484.501334 
L 975.887969 482.629793 
L 976.048016 489.707606 
L 976.127959 485.339899 
L 976.207849 486.135093 
L 976.606498 495.367352 
L 976.686069 495.329067 
L 976.765586 494.27374 
L 976.924463 495.930414 
L 977.320732 482.173291 
L 977.636804 469.329411 
L 977.794526 468.34656 
L 977.952041 476.783499 
L 978.030721 475.054228 
L 978.187925 466.316783 
L 978.344922 472.966389 
L 978.580032 496.231528 
L 978.814681 489.021372 
L 979.048869 494.880639 
L 979.360408 476.742202 
L 979.59353 480.105404 
L 979.903654 495.298298 
L 980.212974 485.105691 
L 980.290179 487.12785 
L 980.521496 481.673408 
L 980.598502 482.429759 
L 980.675459 484.281239 
L 980.906032 493.681979 
L 981.289333 481.884838 
L 981.44231 490.416287 
L 981.595092 486.858677 
L 981.671409 489.537215 
L 981.747678 487.720512 
L 981.976193 496.593001 
L 982.280201 485.552109 
L 982.431915 491.665207 
L 982.583437 494.552688 
L 982.885905 483.386964 
L 982.961403 484.281495 
L 983.18761 492.299084 
L 983.262918 492.241471 
L 983.338177 490.572466 
L 983.41339 491.0848 
L 983.638744 495.765205 
L 984.013391 486.215341 
L 984.237617 495.108848 
L 984.386868 491.017458 
L 984.535932 495.523123 
L 984.684811 485.413657 
L 984.907782 476.163505 
L 984.982013 476.774716 
L 985.574207 492.204978 
L 985.648026 491.39626 
L 985.721799 494.11786 
L 986.016435 479.2204 
L 986.089981 479.32421 
L 986.163481 478.140763 
L 986.457032 491.65175 
L 986.530307 489.238361 
L 986.603537 490.853041 
L 986.676723 490.154809 
L 986.749863 490.01433 
L 986.822959 491.898457 
L 986.89601 491.75677 
L 986.969016 492.638903 
L 987.041978 495.750348 
L 987.114896 495.526111 
L 987.696638 481.239621 
L 987.769157 482.13697 
L 987.841632 481.504957 
L 988.203349 492.970249 
L 988.275561 492.368977 
L 988.491936 486.242613 
L 988.635969 483.71319 
L 988.70792 483.946508 
L 988.779828 488.515444 
L 988.851692 488.107796 
L 988.995292 489.623445 
L 989.067027 488.689503 
L 989.13872 490.144704 
L 989.210369 490.038809 
L 989.281975 490.065033 
L 989.353539 490.738673 
L 989.496537 485.333002 
L 989.567972 486.314059 
L 989.782021 496.000018 
L 989.853285 494.657317 
L 989.924508 494.056584 
L 990.137919 489.733327 
L 990.208972 487.77093 
L 990.421877 492.632364 
L 990.563603 486.517297 
L 990.634403 488.562418 
L 990.705161 484.022377 
L 990.775877 484.706683 
L 990.846552 486.839461 
L 990.917184 484.012464 
L 991.199298 494.776583 
L 991.269722 495.979439 
L 991.551006 490.917895 
L 991.691399 484.627687 
L 991.831628 487.343405 
L 991.971693 491.754228 
L 992.181482 484.633503 
L 992.390904 489.524181 
L 992.530315 494.3858 
L 992.599959 495.088717 
L 992.808649 488.927542 
L 992.878132 488.784127 
L 993.016975 485.846219 
L 993.086337 486.750141 
L 993.29418 491.938636 
L 993.363381 491.729635 
L 993.570743 487.528869 
L 993.846667 495.652332 
L 993.915548 493.90051 
L 994.053192 491.30866 
L 994.259361 495.877915 
L 994.533702 489.126002 
L 994.739044 493.65705 
L 994.807413 492.557925 
L 994.875743 493.974914 
L 995.080499 490.095084 
L 995.148673 489.306016 
L 995.216808 491.358796 
L 995.284905 489.039823 
L 995.352962 491.126743 
L 995.420981 490.277991 
L 995.556903 488.667037 
L 995.760495 482.747021 
L 996.099048 491.755735 
L 996.166643 490.849906 
L 996.436643 482.445897 
L 996.571415 481.617358 
L 996.706035 484.647482 
L 996.907681 490.728455 
L 997.041922 489.137916 
L 997.108987 489.68808 
L 997.176013 487.545841 
L 997.443745 493.403608 
L 997.510584 494.488391 
L 997.577386 494.333381 
L 997.84422 489.621932 
L 997.910835 489.742203 
L 998.11046 492.791515 
L 998.309751 492.180246 
L 998.50871 492.854721 
L 998.574956 491.348349 
L 998.641166 491.803714 
L 998.905638 495.31634 
L 998.971664 493.710418 
L 999.037654 495.037732 
L 999.103608 494.480823 
L 999.169525 494.4276 
L 999.235406 493.742043 
L 999.301251 491.748475 
L 999.367059 491.992209 
L 999.432831 492.066772 
L 999.629931 490.084684 
L 999.695558 490.252802 
L 999.76115 491.055026 
L 999.826705 490.369502 
L 1000.153945 495.210668 
L 1000.219285 496.670536 
L 1000.28459 496.644308 
L 1000.48029 495.509623 
L 1000.545453 495.250414 
L 1000.610579 495.597911 
L 1000.675671 495.443863 
L 1000.740726 494.74328 
L 1000.870732 495.822347 
L 1001.065475 494.516266 
L 1001.195128 497.281091 
L 1001.259902 497.166426 
L 1001.518646 486.739544 
L 1001.583245 486.909738 
L 1001.84129 495.490932 
L 1001.970104 495.169848 
L 1002.098779 494.497055 
L 1002.163065 494.825008 
L 1002.483976 488.590808 
L 1002.804027 494.177516 
L 1002.931808 491.770563 
L 1003.123223 488.121241 
L 1003.250663 490.210362 
L 1003.441569 493.888611 
L 1003.505137 493.54899 
L 1003.56867 491.55662 
L 1003.63217 491.727162 
L 1003.759069 492.879247 
L 1003.885833 491.974456 
L 1004.075727 488.871252 
L 1004.138958 489.081487 
L 1004.643605 495.89948 
L 1004.769435 496.975238 
L 1004.8323 496.784244 
L 1005.08343 495.003928 
L 1005.271431 490.399775 
L 1005.334033 489.146615 
L 1005.459138 491.09196 
L 1005.521641 491.438754 
L 1005.584111 491.282085 
L 1005.646549 490.109723 
L 1005.708955 490.290134 
L 1005.771328 490.607443 
L 1005.895975 494.561533 
L 1005.958251 494.306062 
L 1006.144882 491.923992 
L 1006.331222 496.36791 
L 1006.579224 492.16662 
L 1006.764889 495.781598 
L 1006.826713 492.764652 
L 1006.888505 492.788141 
L 1006.950265 492.854939 
L 1007.07369 496.031593 
L 1007.135354 494.087192 
L 1007.381695 491.109306 
L 1007.627528 497.245025 
L 1007.688908 497.037164 
L 1007.872857 493.523759 
L 1007.995333 493.835044 
L 1008.117683 491.218355 
L 1008.178811 489.666052 
L 1008.239908 490.705693 
L 1008.544925 495.627024 
L 1008.605835 495.423107 
L 1008.666714 495.55312 
L 1009.031338 488.905723 
L 1009.273804 494.87327 
L 1009.334344 493.976788 
L 1009.455331 492.512752 
L 1009.576196 493.091615 
L 1009.696939 495.510497 
L 1009.757264 494.071242 
L 1009.81756 494.361039 
L 1009.877825 494.364237 
L 1010.11858 489.938367 
L 1010.418845 493.892138 
L 1010.478807 495.701885 
L 1010.538739 495.098237 
L 1010.718356 490.391092 
L 1010.837951 491.564767 
L 1011.076781 496.769195 
L 1011.136415 496.363833 
L 1011.37465 487.602946 
L 1011.49359 488.877856 
L 1011.908949 496.152148 
L 1011.968169 496.684413 
L 1012.027359 496.438789 
L 1012.145651 495.167202 
L 1012.204753 497.083448 
L 1012.263826 496.531898 
L 1012.32287 497.084824 
L 1012.44087 493.769954 
L 1012.499826 494.349154 
L 1012.558753 493.736142 
L 1012.617652 495.553215 
L 1012.852955 489.901229 
L 1013.029128 494.307283 
L 1013.087795 495.206018 
L 1013.146433 493.936913 
L 1013.205042 494.491422 
L 1013.263623 494.249475 
L 1013.556096 496.056132 
L 1013.731236 495.017632 
L 1013.789559 495.048443 
L 1013.90612 494.293269 
L 1013.964358 495.052729 
L 1014.022568 494.762483 
L 1014.138902 493.017665 
L 1014.487226 497.749237 
L 1014.545181 496.972037 
L 1015.007815 493.941975 
L 1015.123194 494.477704 
L 1015.180842 494.411617 
L 1015.238462 494.467001 
L 1015.353619 495.884036 
L 1015.411155 495.778673 
L 1015.526146 495.121808 
L 1015.870455 490.788271 
L 1015.870455 490.788271 
" clip-path="url(#pd2aa2a80a6)" style="fill: none; stroke: #0c5da5; stroke-width: 2; stroke-linecap: square"/>
   </g>
   <g id="patch_3">
    <path d="M 57.125 520.7175 
L 57.125 21.7575 
" style="fill: none; stroke: #000000; stroke-linejoin: miter; stroke-linecap: square"/>
   </g>
   <g id="patch_4">
    <path d="M 1061.525 520.7175 
L 1061.525 21.7575 
" style="fill: none; stroke: #000000; stroke-linejoin: miter; stroke-linecap: square"/>
   </g>
   <g id="patch_5">
    <path d="M 57.125 520.7175 
L 1061.525 520.7175 
" style="fill: none; stroke: #000000; stroke-linejoin: miter; stroke-linecap: square"/>
   </g>
   <g id="patch_6">
    <path d="M 57.125 21.7575 
L 1061.525 21.7575 
" style="fill: none; stroke: #000000; stroke-linejoin: miter; stroke-linecap: square"/>
   </g>
   <g id="text_14">
    <!-- San Fernando Record no. 77 -->
    <g transform="translate(446.665 15.7575) scale(0.16 -0.16)">
     <defs>
      <path id="DejaVuSans-53" d="M 3425 4513 
L 3425 3897 
Q 3066 4069 2747 4153 
Q 2428 4238 2131 4238 
Q 1616 4238 1336 4038 
Q 1056 3838 1056 3469 
Q 1056 3159 1242 3001 
Q 1428 2844 1947 2747 
L 2328 2669 
Q 3034 2534 3370 2195 
Q 3706 1856 3706 1288 
Q 3706 609 3251 259 
Q 2797 -91 1919 -91 
Q 1588 -91 1214 -16 
Q 841 59 441 206 
L 441 856 
Q 825 641 1194 531 
Q 1563 422 1919 422 
Q 2459 422 2753 634 
Q 3047 847 3047 1241 
Q 3047 1584 2836 1778 
Q 2625 1972 2144 2069 
L 1759 2144 
Q 1053 2284 737 2584 
Q 422 2884 422 3419 
Q 422 4038 858 4394 
Q 1294 4750 2059 4750 
Q 2388 4750 2728 4690 
Q 3069 4631 3425 4513 
z
" transform="scale(0.015625)"/>
      <path id="DejaVuSans-61" d="M 2194 1759 
Q 1497 1759 1228 1600 
Q 959 1441 959 1056 
Q 959 750 1161 570 
Q 1363 391 1709 391 
Q 2188 391 2477 730 
Q 2766 1069 2766 1631 
L 2766 1759 
L 2194 1759 
z
M 3341 1997 
L 3341 0 
L 2766 0 
L 2766 531 
Q 2569 213 2275 61 
Q 1981 -91 1556 -91 
Q 1019 -91 701 211 
Q 384 513 384 1019 
Q 384 1609 779 1909 
Q 1175 2209 1959 2209 
L 2766 2209 
L 2766 2266 
Q 2766 2663 2505 2880 
Q 2244 3097 1772 3097 
Q 1472 3097 1187 3025 
Q 903 2953 641 2809 
L 641 3341 
Q 956 3463 1253 3523 
Q 1550 3584 1831 3584 
Q 2591 3584 2966 3190 
Q 3341 2797 3341 1997 
z
" transform="scale(0.015625)"/>
      <path id="DejaVuSans-6f" d="M 1959 3097 
Q 1497 3097 1228 2736 
Q 959 2375 959 1747 
Q 959 1119 1226 758 
Q 1494 397 1959 397 
Q 2419 397 2687 759 
Q 2956 1122 2956 1747 
Q 2956 2369 2687 2733 
Q 2419 3097 1959 3097 
z
M 1959 3584 
Q 2709 3584 3137 3096 
Q 3566 2609 3566 1747 
Q 3566 888 3137 398 
Q 2709 -91 1959 -91 
Q 1206 -91 779 398 
Q 353 888 353 1747 
Q 353 2609 779 3096 
Q 1206 3584 1959 3584 
z
" transform="scale(0.015625)"/>
      <path id="DejaVuSans-52" d="M 2841 2188 
Q 3044 2119 3236 1894 
Q 3428 1669 3622 1275 
L 4263 0 
L 3584 0 
L 2988 1197 
Q 2756 1666 2539 1819 
Q 2322 1972 1947 1972 
L 1259 1972 
L 1259 0 
L 628 0 
L 628 4666 
L 2053 4666 
Q 2853 4666 3247 4331 
Q 3641 3997 3641 3322 
Q 3641 2881 3436 2590 
Q 3231 2300 2841 2188 
z
M 1259 4147 
L 1259 2491 
L 2053 2491 
Q 2509 2491 2742 2702 
Q 2975 2913 2975 3322 
Q 2975 3731 2742 3939 
Q 2509 4147 2053 4147 
L 1259 4147 
z
" transform="scale(0.015625)"/>
      <path id="DejaVuSans-2e" d="M 684 794 
L 1344 794 
L 1344 0 
L 684 0 
L 684 794 
z
" transform="scale(0.015625)"/>
      <path id="DejaVuSans-37" d="M 525 4666 
L 3525 4666 
L 3525 4397 
L 1831 0 
L 1172 0 
L 2766 4134 
L 525 4134 
L 525 4666 
z
" transform="scale(0.015625)"/>
     </defs>
     <use xlink:href="#DejaVuSans-53"/>
     <use xlink:href="#DejaVuSans-61" x="63.476562"/>
     <use xlink:href="#DejaVuSans-6e" x="124.755859"/>
     <use xlink:href="#DejaVuSans-20" x="188.134766"/>
     <use xlink:href="#DejaVuSans-46" x="219.921875"/>
     <use xlink:href="#DejaVuSans-65" x="271.941406"/>
     <use xlink:href="#DejaVuSans-72" x="333.464844"/>
     <use xlink:href="#DejaVuSans-6e" x="372.828125"/>
     <use xlink:href="#DejaVuSans-61" x="436.207031"/>
     <use xlink:href="#DejaVuSans-6e" x="497.486328"/>
     <use xlink:href="#DejaVuSans-64" x="560.865234"/>
     <use xlink:href="#DejaVuSans-6f" x="624.341797"/>
     <use xlink:href="#DejaVuSans-20" x="685.523438"/>
     <use xlink:href="#DejaVuSans-52" x="717.310547"/>
     <use xlink:href="#DejaVuSans-65" x="782.292969"/>
     <use xlink:href="#DejaVuSans-63" x="843.816406"/>
     <use xlink:href="#DejaVuSans-6f" x="898.796875"/>
     <use xlink:href="#DejaVuSans-72" x="959.978516"/>
     <use xlink:href="#DejaVuSans-64" x="999.341797"/>
     <use xlink:href="#DejaVuSans-20" x="1062.818359"/>
     <use xlink:href="#DejaVuSans-6e" x="1094.605469"/>
     <use xlink:href="#DejaVuSans-6f" x="1157.984375"/>
     <use xlink:href="#DejaVuSans-2e" x="1217.416016"/>
     <use xlink:href="#DejaVuSans-20" x="1249.203125"/>
     <use xlink:href="#DejaVuSans-37" x="1280.990234"/>
     <use xlink:href="#DejaVuSans-37" x="1344.613281"/>
    </g>
   </g>
   <g id="legend_1">
    <g id="patch_7">
     <path d="M 68.325 58.0425 
L 388.0275 58.0425 
Q 391.2275 58.0425 391.2275 54.8425 
L 391.2275 32.9575 
Q 391.2275 29.7575 388.0275 29.7575 
L 68.325 29.7575 
Q 65.125 29.7575 65.125 32.9575 
L 65.125 54.8425 
Q 65.125 58.0425 68.325 58.0425 
z
" style="fill: #ffffff; stroke: #cccccc; stroke-linejoin: miter"/>
    </g>
    <g id="line2d_161">
     <path d="M 71.525 42.715 
L 87.525 42.715 
L 103.525 42.715 
" style="fill: none; stroke: #0c5da5; stroke-width: 2; stroke-linecap: square"/>
    </g>
    <g id="text_15">
     <!-- Predominant Time Period = 1.32s -->
     <g transform="translate(116.325 48.315) scale(0.16 -0.16)">
      <defs>
       <path id="DejaVuSans-50" d="M 1259 4147 
L 1259 2394 
L 2053 2394 
Q 2494 2394 2734 2622 
Q 2975 2850 2975 3272 
Q 2975 3691 2734 3919 
Q 2494 4147 2053 4147 
L 1259 4147 
z
M 628 4666 
L 2053 4666 
Q 2838 4666 3239 4311 
Q 3641 3956 3641 3272 
Q 3641 2581 3239 2228 
Q 2838 1875 2053 1875 
L 1259 1875 
L 1259 0 
L 628 0 
L 628 4666 
z
" transform="scale(0.015625)"/>
       <path id="DejaVuSans-54" d="M -19 4666 
L 3928 4666 
L 3928 4134 
L 2272 4134 
L 2272 0 
L 1638 0 
L 1638 4134 
L -19 4134 
L -19 4666 
z
" transform="scale(0.015625)"/>
       <path id="DejaVuSans-3d" d="M 678 2906 
L 4684 2906 
L 4684 2381 
L 678 2381 
L 678 2906 
z
M 678 1631 
L 4684 1631 
L 4684 1100 
L 678 1100 
L 678 1631 
z
" transform="scale(0.015625)"/>
       <path id="DejaVuSans-73" d="M 2834 3397 
L 2834 2853 
Q 2591 2978 2328 3040 
Q 2066 3103 1784 3103 
Q 1356 3103 1142 2972 
Q 928 2841 928 2578 
Q 928 2378 1081 2264 
Q 1234 2150 1697 2047 
L 1894 2003 
Q 2506 1872 2764 1633 
Q 3022 1394 3022 966 
Q 3022 478 2636 193 
Q 2250 -91 1575 -91 
Q 1294 -91 989 -36 
Q 684 19 347 128 
L 347 722 
Q 666 556 975 473 
Q 1284 391 1588 391 
Q 1994 391 2212 530 
Q 2431 669 2431 922 
Q 2431 1156 2273 1281 
Q 2116 1406 1581 1522 
L 1381 1569 
Q 847 1681 609 1914 
Q 372 2147 372 2553 
Q 372 3047 722 3315 
Q 1072 3584 1716 3584 
Q 2034 3584 2315 3537 
Q 2597 3491 2834 3397 
z
" transform="scale(0.015625)"/>
      </defs>
      <use xlink:href="#DejaVuSans-50"/>
      <use xlink:href="#DejaVuSans-72" x="58.552734"/>
      <use xlink:href="#DejaVuSans-65" x="97.416016"/>
      <use xlink:href="#DejaVuSans-64" x="158.939453"/>
      <use xlink:href="#DejaVuSans-6f" x="222.416016"/>
      <use xlink:href="#DejaVuSans-6d" x="283.597656"/>
      <use xlink:href="#DejaVuSans-69" x="381.009766"/>
      <use xlink:href="#DejaVuSans-6e" x="408.792969"/>
      <use xlink:href="#DejaVuSans-61" x="472.171875"/>
      <use xlink:href="#DejaVuSans-6e" x="533.451172"/>
      <use xlink:href="#DejaVuSans-74" x="596.830078"/>
      <use xlink:href="#DejaVuSans-20" x="636.039062"/>
      <use xlink:href="#DejaVuSans-54" x="667.826172"/>
      <use xlink:href="#DejaVuSans-69" x="725.785156"/>
      <use xlink:href="#DejaVuSans-6d" x="753.568359"/>
      <use xlink:href="#DejaVuSans-65" x="850.980469"/>
      <use xlink:href="#DejaVuSans-20" x="912.503906"/>
      <use xlink:href="#DejaVuSans-50" x="944.291016"/>
      <use xlink:href="#DejaVuSans-65" x="1000.96875"/>
      <use xlink:href="#DejaVuSans-72" x="1062.492188"/>
      <use xlink:href="#DejaVuSans-69" x="1103.605469"/>
      <use xlink:href="#DejaVuSans-6f" x="1131.388672"/>
      <use xlink:href="#DejaVuSans-64" x="1192.570312"/>
      <use xlink:href="#DejaVuSans-20" x="1256.046875"/>
      <use xlink:href="#DejaVuSans-3d" x="1287.833984"/>
      <use xlink:href="#DejaVuSans-20" x="1371.623047"/>
      <use xlink:href="#DejaVuSans-31" x="1403.410156"/>
      <use xlink:href="#DejaVuSans-2e" x="1467.033203"/>
      <use xlink:href="#DejaVuSans-33" x="1498.820312"/>
      <use xlink:href="#DejaVuSans-32" x="1562.443359"/>
      <use xlink:href="#DejaVuSans-73" x="1626.066406"/>
     </g>
    </g>
   </g>
  </g>
 </g>
 <defs>
  <clipPath id="pd2aa2a80a6">
   <rect x="57.125" y="21.7575" width="1004.4" height="498.96"/>
  </clipPath>
 </defs>
</svg>
