<?xml version="1.0" encoding="utf-8" standalone="no"?>
<!DOCTYPE svg PUBLIC "-//W3C//DTD SVG 1.1//EN"
  "http://www.w3.org/Graphics/SVG/1.1/DTD/svg11.dtd">
<svg xmlns:xlink="http://www.w3.org/1999/xlink" width="1070.408998pt" height="562.7875pt" viewBox="0 0 1070.408998 562.7875" xmlns="http://www.w3.org/2000/svg" version="1.1">
 <metadata>
  <rdf:RDF xmlns:dc="http://purl.org/dc/elements/1.1/" xmlns:cc="http://creativecommons.org/ns#" xmlns:rdf="http://www.w3.org/1999/02/22-rdf-syntax-ns#">
   <cc:Work>
    <dc:type rdf:resource="http://purl.org/dc/dcmitype/StillImage"/>
    <dc:date>2023-06-10T16:00:30.526349</dc:date>
    <dc:format>image/svg+xml</dc:format>
    <dc:creator>
     <cc:Agent>
      <dc:title>Matplotlib v3.7.1, https://matplotlib.org/</dc:title>
     </cc:Agent>
    </dc:creator>
   </cc:Work>
  </rdf:RDF>
 </metadata>
 <defs>
  <style type="text/css">*{stroke-linejoin: round; stroke-linecap: butt}</style>
 </defs>
 <g id="figure_1">
  <g id="patch_1">
   <path d="M 0 562.7875 
L 1070.408998 562.7875 
L 1070.408998 0 
L 0 0 
z
" style="fill: #ffffff"/>
  </g>
  <g id="axes_1">
   <g id="patch_2">
    <path d="M 62.21 520.7175 
L 1066.61 520.7175 
L 1066.61 21.7575 
L 62.21 21.7575 
z
" style="fill: #ffffff"/>
   </g>
   <g id="matplotlib.axis_1">
    <g id="xtick_1">
     <g id="line2d_1">
      <path d="M 107.864545 520.7175 
L 107.864545 21.7575 
" clip-path="url(#p2425a03053)" style="fill: none; stroke-dasharray: 1.85,0.8; stroke-dashoffset: 0; stroke: #000000; stroke-opacity: 0.5; stroke-width: 0.5"/>
     </g>
     <g id="line2d_2">
      <defs>
       <path id="mc95db2c569" d="M 0 0 
L 0 -6 
" style="stroke: #000000"/>
      </defs>
      <g>
       <use xlink:href="#mc95db2c569" x="107.864545" y="520.7175" style="stroke: #000000"/>
      </g>
     </g>
     <g id="line2d_3">
      <defs>
       <path id="mb3deb65801" d="M 0 0 
L 0 6 
" style="stroke: #000000"/>
      </defs>
      <g>
       <use xlink:href="#mb3deb65801" x="107.864545" y="21.7575" style="stroke: #000000"/>
      </g>
     </g>
     <g id="text_1">
      <!-- 0 -->
      <g transform="translate(102.774545 536.375) scale(0.16 -0.16)">
       <defs>
        <path id="DejaVuSans-30" d="M 2034 4250 
Q 1547 4250 1301 3770 
Q 1056 3291 1056 2328 
Q 1056 1369 1301 889 
Q 1547 409 2034 409 
Q 2525 409 2770 889 
Q 3016 1369 3016 2328 
Q 3016 3291 2770 3770 
Q 2525 4250 2034 4250 
z
M 2034 4750 
Q 2819 4750 3233 4129 
Q 3647 3509 3647 2328 
Q 3647 1150 3233 529 
Q 2819 -91 2034 -91 
Q 1250 -91 836 529 
Q 422 1150 422 2328 
Q 422 3509 836 4129 
Q 1250 4750 2034 4750 
z
" transform="scale(0.015625)"/>
       </defs>
       <use xlink:href="#DejaVuSans-30"/>
      </g>
     </g>
    </g>
    <g id="xtick_2">
     <g id="line2d_4">
      <path d="M 297.617436 520.7175 
L 297.617436 21.7575 
" clip-path="url(#p2425a03053)" style="fill: none; stroke-dasharray: 1.85,0.8; stroke-dashoffset: 0; stroke: #000000; stroke-opacity: 0.5; stroke-width: 0.5"/>
     </g>
     <g id="line2d_5">
      <g>
       <use xlink:href="#mc95db2c569" x="297.617436" y="520.7175" style="stroke: #000000"/>
      </g>
     </g>
     <g id="line2d_6">
      <g>
       <use xlink:href="#mb3deb65801" x="297.617436" y="21.7575" style="stroke: #000000"/>
      </g>
     </g>
     <g id="text_2">
      <!-- 10 -->
      <g transform="translate(287.437436 536.375) scale(0.16 -0.16)">
       <defs>
        <path id="DejaVuSans-31" d="M 794 531 
L 1825 531 
L 1825 4091 
L 703 3866 
L 703 4441 
L 1819 4666 
L 2450 4666 
L 2450 531 
L 3481 531 
L 3481 0 
L 794 0 
L 794 531 
z
" transform="scale(0.015625)"/>
       </defs>
       <use xlink:href="#DejaVuSans-31"/>
       <use xlink:href="#DejaVuSans-30" x="63.623047"/>
      </g>
     </g>
    </g>
    <g id="xtick_3">
     <g id="line2d_7">
      <path d="M 487.370326 520.7175 
L 487.370326 21.7575 
" clip-path="url(#p2425a03053)" style="fill: none; stroke-dasharray: 1.85,0.8; stroke-dashoffset: 0; stroke: #000000; stroke-opacity: 0.5; stroke-width: 0.5"/>
     </g>
     <g id="line2d_8">
      <g>
       <use xlink:href="#mc95db2c569" x="487.370326" y="520.7175" style="stroke: #000000"/>
      </g>
     </g>
     <g id="line2d_9">
      <g>
       <use xlink:href="#mb3deb65801" x="487.370326" y="21.7575" style="stroke: #000000"/>
      </g>
     </g>
     <g id="text_3">
      <!-- 20 -->
      <g transform="translate(477.190326 536.375) scale(0.16 -0.16)">
       <defs>
        <path id="DejaVuSans-32" d="M 1228 531 
L 3431 531 
L 3431 0 
L 469 0 
L 469 531 
Q 828 903 1448 1529 
Q 2069 2156 2228 2338 
Q 2531 2678 2651 2914 
Q 2772 3150 2772 3378 
Q 2772 3750 2511 3984 
Q 2250 4219 1831 4219 
Q 1534 4219 1204 4116 
Q 875 4013 500 3803 
L 500 4441 
Q 881 4594 1212 4672 
Q 1544 4750 1819 4750 
Q 2544 4750 2975 4387 
Q 3406 4025 3406 3419 
Q 3406 3131 3298 2873 
Q 3191 2616 2906 2266 
Q 2828 2175 2409 1742 
Q 1991 1309 1228 531 
z
" transform="scale(0.015625)"/>
       </defs>
       <use xlink:href="#DejaVuSans-32"/>
       <use xlink:href="#DejaVuSans-30" x="63.623047"/>
      </g>
     </g>
    </g>
    <g id="xtick_4">
     <g id="line2d_10">
      <path d="M 677.123217 520.7175 
L 677.123217 21.7575 
" clip-path="url(#p2425a03053)" style="fill: none; stroke-dasharray: 1.85,0.8; stroke-dashoffset: 0; stroke: #000000; stroke-opacity: 0.5; stroke-width: 0.5"/>
     </g>
     <g id="line2d_11">
      <g>
       <use xlink:href="#mc95db2c569" x="677.123217" y="520.7175" style="stroke: #000000"/>
      </g>
     </g>
     <g id="line2d_12">
      <g>
       <use xlink:href="#mb3deb65801" x="677.123217" y="21.7575" style="stroke: #000000"/>
      </g>
     </g>
     <g id="text_4">
      <!-- 30 -->
      <g transform="translate(666.943217 536.375) scale(0.16 -0.16)">
       <defs>
        <path id="DejaVuSans-33" d="M 2597 2516 
Q 3050 2419 3304 2112 
Q 3559 1806 3559 1356 
Q 3559 666 3084 287 
Q 2609 -91 1734 -91 
Q 1441 -91 1130 -33 
Q 819 25 488 141 
L 488 750 
Q 750 597 1062 519 
Q 1375 441 1716 441 
Q 2309 441 2620 675 
Q 2931 909 2931 1356 
Q 2931 1769 2642 2001 
Q 2353 2234 1838 2234 
L 1294 2234 
L 1294 2753 
L 1863 2753 
Q 2328 2753 2575 2939 
Q 2822 3125 2822 3475 
Q 2822 3834 2567 4026 
Q 2313 4219 1838 4219 
Q 1578 4219 1281 4162 
Q 984 4106 628 3988 
L 628 4550 
Q 988 4650 1302 4700 
Q 1616 4750 1894 4750 
Q 2613 4750 3031 4423 
Q 3450 4097 3450 3541 
Q 3450 3153 3228 2886 
Q 3006 2619 2597 2516 
z
" transform="scale(0.015625)"/>
       </defs>
       <use xlink:href="#DejaVuSans-33"/>
       <use xlink:href="#DejaVuSans-30" x="63.623047"/>
      </g>
     </g>
    </g>
    <g id="xtick_5">
     <g id="line2d_13">
      <path d="M 866.876107 520.7175 
L 866.876107 21.7575 
" clip-path="url(#p2425a03053)" style="fill: none; stroke-dasharray: 1.85,0.8; stroke-dashoffset: 0; stroke: #000000; stroke-opacity: 0.5; stroke-width: 0.5"/>
     </g>
     <g id="line2d_14">
      <g>
       <use xlink:href="#mc95db2c569" x="866.876107" y="520.7175" style="stroke: #000000"/>
      </g>
     </g>
     <g id="line2d_15">
      <g>
       <use xlink:href="#mb3deb65801" x="866.876107" y="21.7575" style="stroke: #000000"/>
      </g>
     </g>
     <g id="text_5">
      <!-- 40 -->
      <g transform="translate(856.696107 536.375) scale(0.16 -0.16)">
       <defs>
        <path id="DejaVuSans-34" d="M 2419 4116 
L 825 1625 
L 2419 1625 
L 2419 4116 
z
M 2253 4666 
L 3047 4666 
L 3047 1625 
L 3713 1625 
L 3713 1100 
L 3047 1100 
L 3047 0 
L 2419 0 
L 2419 1100 
L 313 1100 
L 313 1709 
L 2253 4666 
z
" transform="scale(0.015625)"/>
       </defs>
       <use xlink:href="#DejaVuSans-34"/>
       <use xlink:href="#DejaVuSans-30" x="63.623047"/>
      </g>
     </g>
    </g>
    <g id="xtick_6">
     <g id="line2d_16">
      <path d="M 1056.628998 520.7175 
L 1056.628998 21.7575 
" clip-path="url(#p2425a03053)" style="fill: none; stroke-dasharray: 1.85,0.8; stroke-dashoffset: 0; stroke: #000000; stroke-opacity: 0.5; stroke-width: 0.5"/>
     </g>
     <g id="line2d_17">
      <g>
       <use xlink:href="#mc95db2c569" x="1056.628998" y="520.7175" style="stroke: #000000"/>
      </g>
     </g>
     <g id="line2d_18">
      <g>
       <use xlink:href="#mb3deb65801" x="1056.628998" y="21.7575" style="stroke: #000000"/>
      </g>
     </g>
     <g id="text_6">
      <!-- 50 -->
      <g transform="translate(1046.448998 536.375) scale(0.16 -0.16)">
       <defs>
        <path id="DejaVuSans-35" d="M 691 4666 
L 3169 4666 
L 3169 4134 
L 1269 4134 
L 1269 2991 
Q 1406 3038 1543 3061 
Q 1681 3084 1819 3084 
Q 2600 3084 3056 2656 
Q 3513 2228 3513 1497 
Q 3513 744 3044 326 
Q 2575 -91 1722 -91 
Q 1428 -91 1123 -41 
Q 819 9 494 109 
L 494 744 
Q 775 591 1075 516 
Q 1375 441 1709 441 
Q 2250 441 2565 725 
Q 2881 1009 2881 1497 
Q 2881 1984 2565 2268 
Q 2250 2553 1709 2553 
Q 1456 2553 1204 2497 
Q 953 2441 691 2322 
L 691 4666 
z
" transform="scale(0.015625)"/>
       </defs>
       <use xlink:href="#DejaVuSans-35"/>
       <use xlink:href="#DejaVuSans-30" x="63.623047"/>
      </g>
     </g>
    </g>
    <g id="xtick_7">
     <g id="line2d_19">
      <defs>
       <path id="maef6328210" d="M 0 0 
L 0 -3 
" style="stroke: #000000"/>
      </defs>
      <g>
       <use xlink:href="#maef6328210" x="69.913967" y="520.7175" style="stroke: #000000"/>
      </g>
     </g>
     <g id="line2d_20">
      <defs>
       <path id="m40746630f1" d="M 0 0 
L 0 3 
" style="stroke: #000000"/>
      </defs>
      <g>
       <use xlink:href="#m40746630f1" x="69.913967" y="21.7575" style="stroke: #000000"/>
      </g>
     </g>
    </g>
    <g id="xtick_8">
     <g id="line2d_21">
      <g>
       <use xlink:href="#maef6328210" x="145.815124" y="520.7175" style="stroke: #000000"/>
      </g>
     </g>
     <g id="line2d_22">
      <g>
       <use xlink:href="#m40746630f1" x="145.815124" y="21.7575" style="stroke: #000000"/>
      </g>
     </g>
    </g>
    <g id="xtick_9">
     <g id="line2d_23">
      <g>
       <use xlink:href="#maef6328210" x="183.765702" y="520.7175" style="stroke: #000000"/>
      </g>
     </g>
     <g id="line2d_24">
      <g>
       <use xlink:href="#m40746630f1" x="183.765702" y="21.7575" style="stroke: #000000"/>
      </g>
     </g>
    </g>
    <g id="xtick_10">
     <g id="line2d_25">
      <g>
       <use xlink:href="#maef6328210" x="221.71628" y="520.7175" style="stroke: #000000"/>
      </g>
     </g>
     <g id="line2d_26">
      <g>
       <use xlink:href="#m40746630f1" x="221.71628" y="21.7575" style="stroke: #000000"/>
      </g>
     </g>
    </g>
    <g id="xtick_11">
     <g id="line2d_27">
      <g>
       <use xlink:href="#maef6328210" x="259.666858" y="520.7175" style="stroke: #000000"/>
      </g>
     </g>
     <g id="line2d_28">
      <g>
       <use xlink:href="#m40746630f1" x="259.666858" y="21.7575" style="stroke: #000000"/>
      </g>
     </g>
    </g>
    <g id="xtick_12">
     <g id="line2d_29">
      <g>
       <use xlink:href="#maef6328210" x="335.568014" y="520.7175" style="stroke: #000000"/>
      </g>
     </g>
     <g id="line2d_30">
      <g>
       <use xlink:href="#m40746630f1" x="335.568014" y="21.7575" style="stroke: #000000"/>
      </g>
     </g>
    </g>
    <g id="xtick_13">
     <g id="line2d_31">
      <g>
       <use xlink:href="#maef6328210" x="373.518592" y="520.7175" style="stroke: #000000"/>
      </g>
     </g>
     <g id="line2d_32">
      <g>
       <use xlink:href="#m40746630f1" x="373.518592" y="21.7575" style="stroke: #000000"/>
      </g>
     </g>
    </g>
    <g id="xtick_14">
     <g id="line2d_33">
      <g>
       <use xlink:href="#maef6328210" x="411.46917" y="520.7175" style="stroke: #000000"/>
      </g>
     </g>
     <g id="line2d_34">
      <g>
       <use xlink:href="#m40746630f1" x="411.46917" y="21.7575" style="stroke: #000000"/>
      </g>
     </g>
    </g>
    <g id="xtick_15">
     <g id="line2d_35">
      <g>
       <use xlink:href="#maef6328210" x="449.419748" y="520.7175" style="stroke: #000000"/>
      </g>
     </g>
     <g id="line2d_36">
      <g>
       <use xlink:href="#m40746630f1" x="449.419748" y="21.7575" style="stroke: #000000"/>
      </g>
     </g>
    </g>
    <g id="xtick_16">
     <g id="line2d_37">
      <g>
       <use xlink:href="#maef6328210" x="525.320905" y="520.7175" style="stroke: #000000"/>
      </g>
     </g>
     <g id="line2d_38">
      <g>
       <use xlink:href="#m40746630f1" x="525.320905" y="21.7575" style="stroke: #000000"/>
      </g>
     </g>
    </g>
    <g id="xtick_17">
     <g id="line2d_39">
      <g>
       <use xlink:href="#maef6328210" x="563.271483" y="520.7175" style="stroke: #000000"/>
      </g>
     </g>
     <g id="line2d_40">
      <g>
       <use xlink:href="#m40746630f1" x="563.271483" y="21.7575" style="stroke: #000000"/>
      </g>
     </g>
    </g>
    <g id="xtick_18">
     <g id="line2d_41">
      <g>
       <use xlink:href="#maef6328210" x="601.222061" y="520.7175" style="stroke: #000000"/>
      </g>
     </g>
     <g id="line2d_42">
      <g>
       <use xlink:href="#m40746630f1" x="601.222061" y="21.7575" style="stroke: #000000"/>
      </g>
     </g>
    </g>
    <g id="xtick_19">
     <g id="line2d_43">
      <g>
       <use xlink:href="#maef6328210" x="639.172639" y="520.7175" style="stroke: #000000"/>
      </g>
     </g>
     <g id="line2d_44">
      <g>
       <use xlink:href="#m40746630f1" x="639.172639" y="21.7575" style="stroke: #000000"/>
      </g>
     </g>
    </g>
    <g id="xtick_20">
     <g id="line2d_45">
      <g>
       <use xlink:href="#maef6328210" x="715.073795" y="520.7175" style="stroke: #000000"/>
      </g>
     </g>
     <g id="line2d_46">
      <g>
       <use xlink:href="#m40746630f1" x="715.073795" y="21.7575" style="stroke: #000000"/>
      </g>
     </g>
    </g>
    <g id="xtick_21">
     <g id="line2d_47">
      <g>
       <use xlink:href="#maef6328210" x="753.024373" y="520.7175" style="stroke: #000000"/>
      </g>
     </g>
     <g id="line2d_48">
      <g>
       <use xlink:href="#m40746630f1" x="753.024373" y="21.7575" style="stroke: #000000"/>
      </g>
     </g>
    </g>
    <g id="xtick_22">
     <g id="line2d_49">
      <g>
       <use xlink:href="#maef6328210" x="790.974951" y="520.7175" style="stroke: #000000"/>
      </g>
     </g>
     <g id="line2d_50">
      <g>
       <use xlink:href="#m40746630f1" x="790.974951" y="21.7575" style="stroke: #000000"/>
      </g>
     </g>
    </g>
    <g id="xtick_23">
     <g id="line2d_51">
      <g>
       <use xlink:href="#maef6328210" x="828.925529" y="520.7175" style="stroke: #000000"/>
      </g>
     </g>
     <g id="line2d_52">
      <g>
       <use xlink:href="#m40746630f1" x="828.925529" y="21.7575" style="stroke: #000000"/>
      </g>
     </g>
    </g>
    <g id="xtick_24">
     <g id="line2d_53">
      <g>
       <use xlink:href="#maef6328210" x="904.826686" y="520.7175" style="stroke: #000000"/>
      </g>
     </g>
     <g id="line2d_54">
      <g>
       <use xlink:href="#m40746630f1" x="904.826686" y="21.7575" style="stroke: #000000"/>
      </g>
     </g>
    </g>
    <g id="xtick_25">
     <g id="line2d_55">
      <g>
       <use xlink:href="#maef6328210" x="942.777264" y="520.7175" style="stroke: #000000"/>
      </g>
     </g>
     <g id="line2d_56">
      <g>
       <use xlink:href="#m40746630f1" x="942.777264" y="21.7575" style="stroke: #000000"/>
      </g>
     </g>
    </g>
    <g id="xtick_26">
     <g id="line2d_57">
      <g>
       <use xlink:href="#maef6328210" x="980.727842" y="520.7175" style="stroke: #000000"/>
      </g>
     </g>
     <g id="line2d_58">
      <g>
       <use xlink:href="#m40746630f1" x="980.727842" y="21.7575" style="stroke: #000000"/>
      </g>
     </g>
    </g>
    <g id="xtick_27">
     <g id="line2d_59">
      <g>
       <use xlink:href="#maef6328210" x="1018.67842" y="520.7175" style="stroke: #000000"/>
      </g>
     </g>
     <g id="line2d_60">
      <g>
       <use xlink:href="#m40746630f1" x="1018.67842" y="21.7575" style="stroke: #000000"/>
      </g>
     </g>
    </g>
    <g id="text_7">
     <!-- Time (s) -->
     <g transform="translate(531.88375 555.86) scale(0.16 -0.16)">
      <defs>
       <path id="DejaVuSans-54" d="M -19 4666 
L 3928 4666 
L 3928 4134 
L 2272 4134 
L 2272 0 
L 1638 0 
L 1638 4134 
L -19 4134 
L -19 4666 
z
" transform="scale(0.015625)"/>
       <path id="DejaVuSans-69" d="M 603 3500 
L 1178 3500 
L 1178 0 
L 603 0 
L 603 3500 
z
M 603 4863 
L 1178 4863 
L 1178 4134 
L 603 4134 
L 603 4863 
z
" transform="scale(0.015625)"/>
       <path id="DejaVuSans-6d" d="M 3328 2828 
Q 3544 3216 3844 3400 
Q 4144 3584 4550 3584 
Q 5097 3584 5394 3201 
Q 5691 2819 5691 2113 
L 5691 0 
L 5113 0 
L 5113 2094 
Q 5113 2597 4934 2840 
Q 4756 3084 4391 3084 
Q 3944 3084 3684 2787 
Q 3425 2491 3425 1978 
L 3425 0 
L 2847 0 
L 2847 2094 
Q 2847 2600 2669 2842 
Q 2491 3084 2119 3084 
Q 1678 3084 1418 2786 
Q 1159 2488 1159 1978 
L 1159 0 
L 581 0 
L 581 3500 
L 1159 3500 
L 1159 2956 
Q 1356 3278 1631 3431 
Q 1906 3584 2284 3584 
Q 2666 3584 2933 3390 
Q 3200 3197 3328 2828 
z
" transform="scale(0.015625)"/>
       <path id="DejaVuSans-65" d="M 3597 1894 
L 3597 1613 
L 953 1613 
Q 991 1019 1311 708 
Q 1631 397 2203 397 
Q 2534 397 2845 478 
Q 3156 559 3463 722 
L 3463 178 
Q 3153 47 2828 -22 
Q 2503 -91 2169 -91 
Q 1331 -91 842 396 
Q 353 884 353 1716 
Q 353 2575 817 3079 
Q 1281 3584 2069 3584 
Q 2775 3584 3186 3129 
Q 3597 2675 3597 1894 
z
M 3022 2063 
Q 3016 2534 2758 2815 
Q 2500 3097 2075 3097 
Q 1594 3097 1305 2825 
Q 1016 2553 972 2059 
L 3022 2063 
z
" transform="scale(0.015625)"/>
       <path id="DejaVuSans-20" transform="scale(0.015625)"/>
       <path id="DejaVuSans-28" d="M 1984 4856 
Q 1566 4138 1362 3434 
Q 1159 2731 1159 2009 
Q 1159 1288 1364 580 
Q 1569 -128 1984 -844 
L 1484 -844 
Q 1016 -109 783 600 
Q 550 1309 550 2009 
Q 550 2706 781 3412 
Q 1013 4119 1484 4856 
L 1984 4856 
z
" transform="scale(0.015625)"/>
       <path id="DejaVuSans-73" d="M 2834 3397 
L 2834 2853 
Q 2591 2978 2328 3040 
Q 2066 3103 1784 3103 
Q 1356 3103 1142 2972 
Q 928 2841 928 2578 
Q 928 2378 1081 2264 
Q 1234 2150 1697 2047 
L 1894 2003 
Q 2506 1872 2764 1633 
Q 3022 1394 3022 966 
Q 3022 478 2636 193 
Q 2250 -91 1575 -91 
Q 1294 -91 989 -36 
Q 684 19 347 128 
L 347 722 
Q 666 556 975 473 
Q 1284 391 1588 391 
Q 1994 391 2212 530 
Q 2431 669 2431 922 
Q 2431 1156 2273 1281 
Q 2116 1406 1581 1522 
L 1381 1569 
Q 847 1681 609 1914 
Q 372 2147 372 2553 
Q 372 3047 722 3315 
Q 1072 3584 1716 3584 
Q 2034 3584 2315 3537 
Q 2597 3491 2834 3397 
z
" transform="scale(0.015625)"/>
       <path id="DejaVuSans-29" d="M 513 4856 
L 1013 4856 
Q 1481 4119 1714 3412 
Q 1947 2706 1947 2009 
Q 1947 1309 1714 600 
Q 1481 -109 1013 -844 
L 513 -844 
Q 928 -128 1133 580 
Q 1338 1288 1338 2009 
Q 1338 2731 1133 3434 
Q 928 4138 513 4856 
z
" transform="scale(0.015625)"/>
      </defs>
      <use xlink:href="#DejaVuSans-54"/>
      <use xlink:href="#DejaVuSans-69" x="57.958984"/>
      <use xlink:href="#DejaVuSans-6d" x="85.742188"/>
      <use xlink:href="#DejaVuSans-65" x="183.154297"/>
      <use xlink:href="#DejaVuSans-20" x="244.677734"/>
      <use xlink:href="#DejaVuSans-28" x="276.464844"/>
      <use xlink:href="#DejaVuSans-73" x="315.478516"/>
      <use xlink:href="#DejaVuSans-29" x="367.578125"/>
     </g>
    </g>
   </g>
   <g id="matplotlib.axis_2">
    <g id="ytick_1">
     <g id="line2d_61">
      <path d="M 62.21 428.379016 
L 1066.61 428.379016 
" clip-path="url(#p2425a03053)" style="fill: none; stroke-dasharray: 1.85,0.8; stroke-dashoffset: 0; stroke: #000000; stroke-opacity: 0.5; stroke-width: 0.5"/>
     </g>
     <g id="line2d_62">
      <defs>
       <path id="me3b2c2801a" d="M 0 0 
L 6 0 
" style="stroke: #000000"/>
      </defs>
      <g>
       <use xlink:href="#me3b2c2801a" x="62.21" y="428.379016" style="stroke: #000000"/>
      </g>
     </g>
     <g id="line2d_63">
      <defs>
       <path id="m357c9564a3" d="M 0 0 
L -6 0 
" style="stroke: #000000"/>
      </defs>
      <g>
       <use xlink:href="#m357c9564a3" x="1066.61" y="428.379016" style="stroke: #000000"/>
      </g>
     </g>
     <g id="text_8">
      <!-- 0.00 -->
      <g transform="translate(23.085 434.457766) scale(0.16 -0.16)">
       <defs>
        <path id="DejaVuSans-2e" d="M 684 794 
L 1344 794 
L 1344 0 
L 684 0 
L 684 794 
z
" transform="scale(0.015625)"/>
       </defs>
       <use xlink:href="#DejaVuSans-30"/>
       <use xlink:href="#DejaVuSans-2e" x="63.623047"/>
       <use xlink:href="#DejaVuSans-30" x="95.410156"/>
       <use xlink:href="#DejaVuSans-30" x="159.033203"/>
      </g>
     </g>
    </g>
    <g id="ytick_2">
     <g id="line2d_64">
      <path d="M 62.21 322.704688 
L 1066.61 322.704688 
" clip-path="url(#p2425a03053)" style="fill: none; stroke-dasharray: 1.85,0.8; stroke-dashoffset: 0; stroke: #000000; stroke-opacity: 0.5; stroke-width: 0.5"/>
     </g>
     <g id="line2d_65">
      <g>
       <use xlink:href="#me3b2c2801a" x="62.21" y="322.704688" style="stroke: #000000"/>
      </g>
     </g>
     <g id="line2d_66">
      <g>
       <use xlink:href="#m357c9564a3" x="1066.61" y="322.704688" style="stroke: #000000"/>
      </g>
     </g>
     <g id="text_9">
      <!-- 0.05 -->
      <g transform="translate(23.085 328.783438) scale(0.16 -0.16)">
       <use xlink:href="#DejaVuSans-30"/>
       <use xlink:href="#DejaVuSans-2e" x="63.623047"/>
       <use xlink:href="#DejaVuSans-30" x="95.410156"/>
       <use xlink:href="#DejaVuSans-35" x="159.033203"/>
      </g>
     </g>
    </g>
    <g id="ytick_3">
     <g id="line2d_67">
      <path d="M 62.21 217.030361 
L 1066.61 217.030361 
" clip-path="url(#p2425a03053)" style="fill: none; stroke-dasharray: 1.85,0.8; stroke-dashoffset: 0; stroke: #000000; stroke-opacity: 0.5; stroke-width: 0.5"/>
     </g>
     <g id="line2d_68">
      <g>
       <use xlink:href="#me3b2c2801a" x="62.21" y="217.030361" style="stroke: #000000"/>
      </g>
     </g>
     <g id="line2d_69">
      <g>
       <use xlink:href="#m357c9564a3" x="1066.61" y="217.030361" style="stroke: #000000"/>
      </g>
     </g>
     <g id="text_10">
      <!-- 0.10 -->
      <g transform="translate(23.085 223.109111) scale(0.16 -0.16)">
       <use xlink:href="#DejaVuSans-30"/>
       <use xlink:href="#DejaVuSans-2e" x="63.623047"/>
       <use xlink:href="#DejaVuSans-31" x="95.410156"/>
       <use xlink:href="#DejaVuSans-30" x="159.033203"/>
      </g>
     </g>
    </g>
    <g id="ytick_4">
     <g id="line2d_70">
      <path d="M 62.21 111.356033 
L 1066.61 111.356033 
" clip-path="url(#p2425a03053)" style="fill: none; stroke-dasharray: 1.85,0.8; stroke-dashoffset: 0; stroke: #000000; stroke-opacity: 0.5; stroke-width: 0.5"/>
     </g>
     <g id="line2d_71">
      <g>
       <use xlink:href="#me3b2c2801a" x="62.21" y="111.356033" style="stroke: #000000"/>
      </g>
     </g>
     <g id="line2d_72">
      <g>
       <use xlink:href="#m357c9564a3" x="1066.61" y="111.356033" style="stroke: #000000"/>
      </g>
     </g>
     <g id="text_11">
      <!-- 0.15 -->
      <g transform="translate(23.085 117.434783) scale(0.16 -0.16)">
       <use xlink:href="#DejaVuSans-30"/>
       <use xlink:href="#DejaVuSans-2e" x="63.623047"/>
       <use xlink:href="#DejaVuSans-31" x="95.410156"/>
       <use xlink:href="#DejaVuSans-35" x="159.033203"/>
      </g>
     </g>
    </g>
    <g id="ytick_5">
     <g id="line2d_73">
      <defs>
       <path id="m2259ad8037" d="M 0 0 
L 3 0 
" style="stroke: #000000"/>
      </defs>
      <g>
       <use xlink:href="#m2259ad8037" x="62.21" y="512.918478" style="stroke: #000000"/>
      </g>
     </g>
     <g id="line2d_74">
      <defs>
       <path id="md84af995ac" d="M 0 0 
L -3 0 
" style="stroke: #000000"/>
      </defs>
      <g>
       <use xlink:href="#md84af995ac" x="1066.61" y="512.918478" style="stroke: #000000"/>
      </g>
     </g>
    </g>
    <g id="ytick_6">
     <g id="line2d_75">
      <g>
       <use xlink:href="#m2259ad8037" x="62.21" y="491.783613" style="stroke: #000000"/>
      </g>
     </g>
     <g id="line2d_76">
      <g>
       <use xlink:href="#md84af995ac" x="1066.61" y="491.783613" style="stroke: #000000"/>
      </g>
     </g>
    </g>
    <g id="ytick_7">
     <g id="line2d_77">
      <g>
       <use xlink:href="#m2259ad8037" x="62.21" y="470.648747" style="stroke: #000000"/>
      </g>
     </g>
     <g id="line2d_78">
      <g>
       <use xlink:href="#md84af995ac" x="1066.61" y="470.648747" style="stroke: #000000"/>
      </g>
     </g>
    </g>
    <g id="ytick_8">
     <g id="line2d_79">
      <g>
       <use xlink:href="#m2259ad8037" x="62.21" y="449.513882" style="stroke: #000000"/>
      </g>
     </g>
     <g id="line2d_80">
      <g>
       <use xlink:href="#md84af995ac" x="1066.61" y="449.513882" style="stroke: #000000"/>
      </g>
     </g>
    </g>
    <g id="ytick_9">
     <g id="line2d_81">
      <g>
       <use xlink:href="#m2259ad8037" x="62.21" y="407.244151" style="stroke: #000000"/>
      </g>
     </g>
     <g id="line2d_82">
      <g>
       <use xlink:href="#md84af995ac" x="1066.61" y="407.244151" style="stroke: #000000"/>
      </g>
     </g>
    </g>
    <g id="ytick_10">
     <g id="line2d_83">
      <g>
       <use xlink:href="#m2259ad8037" x="62.21" y="386.109285" style="stroke: #000000"/>
      </g>
     </g>
     <g id="line2d_84">
      <g>
       <use xlink:href="#md84af995ac" x="1066.61" y="386.109285" style="stroke: #000000"/>
      </g>
     </g>
    </g>
    <g id="ytick_11">
     <g id="line2d_85">
      <g>
       <use xlink:href="#m2259ad8037" x="62.21" y="364.974419" style="stroke: #000000"/>
      </g>
     </g>
     <g id="line2d_86">
      <g>
       <use xlink:href="#md84af995ac" x="1066.61" y="364.974419" style="stroke: #000000"/>
      </g>
     </g>
    </g>
    <g id="ytick_12">
     <g id="line2d_87">
      <g>
       <use xlink:href="#m2259ad8037" x="62.21" y="343.839554" style="stroke: #000000"/>
      </g>
     </g>
     <g id="line2d_88">
      <g>
       <use xlink:href="#md84af995ac" x="1066.61" y="343.839554" style="stroke: #000000"/>
      </g>
     </g>
    </g>
    <g id="ytick_13">
     <g id="line2d_89">
      <g>
       <use xlink:href="#m2259ad8037" x="62.21" y="301.569823" style="stroke: #000000"/>
      </g>
     </g>
     <g id="line2d_90">
      <g>
       <use xlink:href="#md84af995ac" x="1066.61" y="301.569823" style="stroke: #000000"/>
      </g>
     </g>
    </g>
    <g id="ytick_14">
     <g id="line2d_91">
      <g>
       <use xlink:href="#m2259ad8037" x="62.21" y="280.434957" style="stroke: #000000"/>
      </g>
     </g>
     <g id="line2d_92">
      <g>
       <use xlink:href="#md84af995ac" x="1066.61" y="280.434957" style="stroke: #000000"/>
      </g>
     </g>
    </g>
    <g id="ytick_15">
     <g id="line2d_93">
      <g>
       <use xlink:href="#m2259ad8037" x="62.21" y="259.300092" style="stroke: #000000"/>
      </g>
     </g>
     <g id="line2d_94">
      <g>
       <use xlink:href="#md84af995ac" x="1066.61" y="259.300092" style="stroke: #000000"/>
      </g>
     </g>
    </g>
    <g id="ytick_16">
     <g id="line2d_95">
      <g>
       <use xlink:href="#m2259ad8037" x="62.21" y="238.165226" style="stroke: #000000"/>
      </g>
     </g>
     <g id="line2d_96">
      <g>
       <use xlink:href="#md84af995ac" x="1066.61" y="238.165226" style="stroke: #000000"/>
      </g>
     </g>
    </g>
    <g id="ytick_17">
     <g id="line2d_97">
      <g>
       <use xlink:href="#m2259ad8037" x="62.21" y="195.895495" style="stroke: #000000"/>
      </g>
     </g>
     <g id="line2d_98">
      <g>
       <use xlink:href="#md84af995ac" x="1066.61" y="195.895495" style="stroke: #000000"/>
      </g>
     </g>
    </g>
    <g id="ytick_18">
     <g id="line2d_99">
      <g>
       <use xlink:href="#m2259ad8037" x="62.21" y="174.76063" style="stroke: #000000"/>
      </g>
     </g>
     <g id="line2d_100">
      <g>
       <use xlink:href="#md84af995ac" x="1066.61" y="174.76063" style="stroke: #000000"/>
      </g>
     </g>
    </g>
    <g id="ytick_19">
     <g id="line2d_101">
      <g>
       <use xlink:href="#m2259ad8037" x="62.21" y="153.625764" style="stroke: #000000"/>
      </g>
     </g>
     <g id="line2d_102">
      <g>
       <use xlink:href="#md84af995ac" x="1066.61" y="153.625764" style="stroke: #000000"/>
      </g>
     </g>
    </g>
    <g id="ytick_20">
     <g id="line2d_103">
      <g>
       <use xlink:href="#m2259ad8037" x="62.21" y="132.490899" style="stroke: #000000"/>
      </g>
     </g>
     <g id="line2d_104">
      <g>
       <use xlink:href="#md84af995ac" x="1066.61" y="132.490899" style="stroke: #000000"/>
      </g>
     </g>
    </g>
    <g id="ytick_21">
     <g id="line2d_105">
      <g>
       <use xlink:href="#m2259ad8037" x="62.21" y="90.221168" style="stroke: #000000"/>
      </g>
     </g>
     <g id="line2d_106">
      <g>
       <use xlink:href="#md84af995ac" x="1066.61" y="90.221168" style="stroke: #000000"/>
      </g>
     </g>
    </g>
    <g id="ytick_22">
     <g id="line2d_107">
      <g>
       <use xlink:href="#m2259ad8037" x="62.21" y="69.086302" style="stroke: #000000"/>
      </g>
     </g>
     <g id="line2d_108">
      <g>
       <use xlink:href="#md84af995ac" x="1066.61" y="69.086302" style="stroke: #000000"/>
      </g>
     </g>
    </g>
    <g id="ytick_23">
     <g id="line2d_109">
      <g>
       <use xlink:href="#m2259ad8037" x="62.21" y="47.951437" style="stroke: #000000"/>
      </g>
     </g>
     <g id="line2d_110">
      <g>
       <use xlink:href="#md84af995ac" x="1066.61" y="47.951437" style="stroke: #000000"/>
      </g>
     </g>
    </g>
    <g id="ytick_24">
     <g id="line2d_111">
      <g>
       <use xlink:href="#m2259ad8037" x="62.21" y="26.816571" style="stroke: #000000"/>
      </g>
     </g>
     <g id="line2d_112">
      <g>
       <use xlink:href="#md84af995ac" x="1066.61" y="26.816571" style="stroke: #000000"/>
      </g>
     </g>
    </g>
    <g id="text_12">
     <!-- Base Displacement -->
     <g transform="translate(15.7575 348.2575) rotate(-90) scale(0.16 -0.16)">
      <defs>
       <path id="DejaVuSans-42" d="M 1259 2228 
L 1259 519 
L 2272 519 
Q 2781 519 3026 730 
Q 3272 941 3272 1375 
Q 3272 1813 3026 2020 
Q 2781 2228 2272 2228 
L 1259 2228 
z
M 1259 4147 
L 1259 2741 
L 2194 2741 
Q 2656 2741 2882 2914 
Q 3109 3088 3109 3444 
Q 3109 3797 2882 3972 
Q 2656 4147 2194 4147 
L 1259 4147 
z
M 628 4666 
L 2241 4666 
Q 2963 4666 3353 4366 
Q 3744 4066 3744 3513 
Q 3744 3084 3544 2831 
Q 3344 2578 2956 2516 
Q 3422 2416 3680 2098 
Q 3938 1781 3938 1306 
Q 3938 681 3513 340 
Q 3088 0 2303 0 
L 628 0 
L 628 4666 
z
" transform="scale(0.015625)"/>
       <path id="DejaVuSans-61" d="M 2194 1759 
Q 1497 1759 1228 1600 
Q 959 1441 959 1056 
Q 959 750 1161 570 
Q 1363 391 1709 391 
Q 2188 391 2477 730 
Q 2766 1069 2766 1631 
L 2766 1759 
L 2194 1759 
z
M 3341 1997 
L 3341 0 
L 2766 0 
L 2766 531 
Q 2569 213 2275 61 
Q 1981 -91 1556 -91 
Q 1019 -91 701 211 
Q 384 513 384 1019 
Q 384 1609 779 1909 
Q 1175 2209 1959 2209 
L 2766 2209 
L 2766 2266 
Q 2766 2663 2505 2880 
Q 2244 3097 1772 3097 
Q 1472 3097 1187 3025 
Q 903 2953 641 2809 
L 641 3341 
Q 956 3463 1253 3523 
Q 1550 3584 1831 3584 
Q 2591 3584 2966 3190 
Q 3341 2797 3341 1997 
z
" transform="scale(0.015625)"/>
       <path id="DejaVuSans-44" d="M 1259 4147 
L 1259 519 
L 2022 519 
Q 2988 519 3436 956 
Q 3884 1394 3884 2338 
Q 3884 3275 3436 3711 
Q 2988 4147 2022 4147 
L 1259 4147 
z
M 628 4666 
L 1925 4666 
Q 3281 4666 3915 4102 
Q 4550 3538 4550 2338 
Q 4550 1131 3912 565 
Q 3275 0 1925 0 
L 628 0 
L 628 4666 
z
" transform="scale(0.015625)"/>
       <path id="DejaVuSans-70" d="M 1159 525 
L 1159 -1331 
L 581 -1331 
L 581 3500 
L 1159 3500 
L 1159 2969 
Q 1341 3281 1617 3432 
Q 1894 3584 2278 3584 
Q 2916 3584 3314 3078 
Q 3713 2572 3713 1747 
Q 3713 922 3314 415 
Q 2916 -91 2278 -91 
Q 1894 -91 1617 61 
Q 1341 213 1159 525 
z
M 3116 1747 
Q 3116 2381 2855 2742 
Q 2594 3103 2138 3103 
Q 1681 3103 1420 2742 
Q 1159 2381 1159 1747 
Q 1159 1113 1420 752 
Q 1681 391 2138 391 
Q 2594 391 2855 752 
Q 3116 1113 3116 1747 
z
" transform="scale(0.015625)"/>
       <path id="DejaVuSans-6c" d="M 603 4863 
L 1178 4863 
L 1178 0 
L 603 0 
L 603 4863 
z
" transform="scale(0.015625)"/>
       <path id="DejaVuSans-63" d="M 3122 3366 
L 3122 2828 
Q 2878 2963 2633 3030 
Q 2388 3097 2138 3097 
Q 1578 3097 1268 2742 
Q 959 2388 959 1747 
Q 959 1106 1268 751 
Q 1578 397 2138 397 
Q 2388 397 2633 464 
Q 2878 531 3122 666 
L 3122 134 
Q 2881 22 2623 -34 
Q 2366 -91 2075 -91 
Q 1284 -91 818 406 
Q 353 903 353 1747 
Q 353 2603 823 3093 
Q 1294 3584 2113 3584 
Q 2378 3584 2631 3529 
Q 2884 3475 3122 3366 
z
" transform="scale(0.015625)"/>
       <path id="DejaVuSans-6e" d="M 3513 2113 
L 3513 0 
L 2938 0 
L 2938 2094 
Q 2938 2591 2744 2837 
Q 2550 3084 2163 3084 
Q 1697 3084 1428 2787 
Q 1159 2491 1159 1978 
L 1159 0 
L 581 0 
L 581 3500 
L 1159 3500 
L 1159 2956 
Q 1366 3272 1645 3428 
Q 1925 3584 2291 3584 
Q 2894 3584 3203 3211 
Q 3513 2838 3513 2113 
z
" transform="scale(0.015625)"/>
       <path id="DejaVuSans-74" d="M 1172 4494 
L 1172 3500 
L 2356 3500 
L 2356 3053 
L 1172 3053 
L 1172 1153 
Q 1172 725 1289 603 
Q 1406 481 1766 481 
L 2356 481 
L 2356 0 
L 1766 0 
Q 1100 0 847 248 
Q 594 497 594 1153 
L 594 3053 
L 172 3053 
L 172 3500 
L 594 3500 
L 594 4494 
L 1172 4494 
z
" transform="scale(0.015625)"/>
      </defs>
      <use xlink:href="#DejaVuSans-42"/>
      <use xlink:href="#DejaVuSans-61" x="68.603516"/>
      <use xlink:href="#DejaVuSans-73" x="129.882812"/>
      <use xlink:href="#DejaVuSans-65" x="181.982422"/>
      <use xlink:href="#DejaVuSans-20" x="243.505859"/>
      <use xlink:href="#DejaVuSans-44" x="275.292969"/>
      <use xlink:href="#DejaVuSans-69" x="352.294922"/>
      <use xlink:href="#DejaVuSans-73" x="380.078125"/>
      <use xlink:href="#DejaVuSans-70" x="432.177734"/>
      <use xlink:href="#DejaVuSans-6c" x="495.654297"/>
      <use xlink:href="#DejaVuSans-61" x="523.4375"/>
      <use xlink:href="#DejaVuSans-63" x="584.716797"/>
      <use xlink:href="#DejaVuSans-65" x="639.697266"/>
      <use xlink:href="#DejaVuSans-6d" x="701.220703"/>
      <use xlink:href="#DejaVuSans-65" x="798.632812"/>
      <use xlink:href="#DejaVuSans-6e" x="860.15625"/>
      <use xlink:href="#DejaVuSans-74" x="923.535156"/>
     </g>
    </g>
   </g>
   <g id="line2d_113">
    <path d="M 107.864545 428.379016 
L 223.04455 428.411876 
L 223.803562 429.43533 
L 243.727615 429.615688 
L 244.39175 429.907138 
L 246.289279 429.825815 
L 246.479032 429.691343 
L 246.763661 429.018421 
L 247.048291 428.254434 
L 247.238044 428.182609 
L 249.420202 428.222387 
L 249.609955 428.589069 
L 250.084337 429.921119 
L 250.558719 429.950219 
L 252.361372 429.852246 
L 252.740877 429.419847 
L 257.20007 429.474587 
L 258.907846 429.485296 
L 261.374634 429.580056 
L 261.75414 429.749175 
L 262.323398 429.639673 
L 262.797781 429.244965 
L 263.651669 429.246655 
L 264.600433 429.419027 
L 266.782591 429.351714 
L 267.541603 429.00647 
L 269.534008 429.116565 
L 269.723761 429.527396 
L 270.00839 430.770145 
L 270.577649 433.614542 
L 270.767402 433.732644 
L 271.241784 433.821905 
L 271.431537 434.095387 
L 272.380302 436.616273 
L 272.854684 436.975911 
L 273.23419 437.836247 
L 273.613695 438.443826 
L 273.898325 438.531641 
L 274.657336 438.637451 
L 275.036842 438.965367 
L 275.511224 439.088634 
L 275.795854 439.576529 
L 276.554865 441.545614 
L 277.313877 443.775613 
L 278.262641 443.734938 
L 278.54727 443.647883 
L 280.444799 443.537198 
L 280.919182 443.504468 
L 281.962822 443.396126 
L 282.721834 442.159497 
L 283.006463 442.199661 
L 283.196216 442.545855 
L 283.575722 443.643849 
L 283.765475 443.938198 
L 284.050104 444.546632 
L 284.42961 444.745345 
L 284.714239 445.762531 
L 285.473251 448.898774 
L 287.655409 449.09334 
L 288.319544 450.344818 
L 291.355591 450.55074 
L 291.829973 451.57252 
L 292.114602 452.075089 
L 292.873614 452.133862 
L 295.625031 452.170834 
L 295.814783 452.693577 
L 296.099413 454.207547 
L 296.668672 457.698845 
L 296.858424 457.981479 
L 299.230336 458.012594 
L 299.420088 458.317154 
L 299.609841 459.158109 
L 299.894471 461.665981 
L 300.1791 465.695991 
L 301.222741 484.588306 
L 301.981752 493.161937 
L 302.361258 497.718276 
L 302.551011 498.0375 
L 303.025393 497.931301 
L 303.404899 496.932799 
L 303.784405 495.295529 
L 304.163911 493.92787 
L 304.353664 493.814282 
L 304.922922 493.738447 
L 305.302428 493.651044 
L 305.587057 493.568776 
L 305.871687 493.137943 
L 306.156316 492.411195 
L 306.346069 491.382411 
L 306.630698 487.850279 
L 307.294833 473.243566 
L 307.769216 465.289024 
L 308.71798 452.829156 
L 309.192362 442.937264 
L 310.520633 408.900566 
L 311.089891 386.956375 
L 312.892544 308.055684 
L 314.790073 250.082455 
L 315.549084 223.708017 
L 316.592725 189.190569 
L 317.731242 158.228581 
L 318.300501 148.231685 
L 319.154389 134.780288 
L 319.913401 123.757347 
L 320.672412 115.168328 
L 321.336547 105.059375 
L 321.716053 100.732259 
L 322.095559 98.601959 
L 322.285312 98.515252 
L 323.708458 98.634224 
L 323.898211 99.070439 
L 324.182841 100.54849 
L 324.657223 103.431788 
L 324.846976 103.44006 
L 325.036729 103.097475 
L 325.226482 101.944964 
L 325.511111 98.171083 
L 326.459875 84.050062 
L 326.934258 77.64052 
L 327.693269 65.65824 
L 327.883022 64.938872 
L 328.072775 65.053845 
L 328.357404 66.07321 
L 329.021539 68.609954 
L 329.211292 68.599752 
L 329.401045 68.190512 
L 329.685674 66.47026 
L 330.539562 60.03869 
L 330.919068 58.814886 
L 331.772956 54.357324 
L 331.962709 53.943158 
L 332.531968 53.934797 
L 333.670485 53.978939 
L 333.860238 53.582755 
L 334.524373 51.257614 
L 335.757767 51.334641 
L 335.94752 51.51957 
L 336.327026 52.454581 
L 336.611655 52.892226 
L 336.896284 52.826628 
L 337.086037 52.416787 
L 337.465543 50.53398 
L 338.129678 47.421499 
L 338.60406 46.451584 
L 338.983566 46.408884 
L 342.304242 46.314067 
L 343.253006 46.305978 
L 346.004423 46.329276 
L 346.194176 46.665297 
L 346.668558 47.954766 
L 347.048064 47.986996 
L 348.471211 48.081039 
L 349.230222 48.143207 
L 350.653369 48.169778 
L 350.937998 47.646083 
L 351.317504 46.996071 
L 351.602133 47.083493 
L 351.791886 47.558802 
L 352.550898 50.114075 
L 353.974044 50.185828 
L 354.35355 50.272795 
L 356.156203 50.323667 
L 356.725461 50.718958 
L 357.484473 50.730618 
L 357.769102 50.641774 
L 358.053732 50.586416 
L 358.338361 50.67683 
L 358.62299 51.079889 
L 359.287125 52.880804 
L 359.666631 54.530592 
L 359.95126 57.130245 
L 360.710272 64.958087 
L 361.089778 67.101595 
L 361.659036 69.112042 
L 361.943666 69.583282 
L 362.323172 69.506647 
L 362.987307 68.543036 
L 363.271936 68.254949 
L 363.651442 68.332364 
L 363.936071 68.429746 
L 364.315577 68.371879 
L 364.50533 67.92792 
L 364.884836 65.810742 
L 365.264341 64.035519 
L 365.454094 63.916485 
L 365.643847 64.005345 
L 365.8336 64.461506 
L 366.118229 66.189144 
L 366.497735 68.544717 
L 366.687488 68.673685 
L 369.628658 68.725437 
L 370.197917 69.388222 
L 370.387669 69.248243 
L 370.577422 68.803203 
L 370.862052 67.286009 
L 371.241557 65.069996 
L 371.43131 64.98454 
L 371.71594 65.133549 
L 372.000569 65.216532 
L 372.569828 65.109265 
L 372.854457 65.064285 
L 373.139086 65.144677 
L 373.518592 65.421935 
L 375.795627 65.540318 
L 376.080256 65.780983 
L 376.364886 65.845465 
L 377.598279 65.828205 
L 377.788032 65.445229 
L 378.167538 64.425056 
L 378.452167 64.471036 
L 378.736797 65.091281 
L 379.021426 65.573793 
L 379.306055 65.477588 
L 379.495808 64.772426 
L 379.875314 61.019075 
L 380.634326 53.75849 
L 380.918955 52.726309 
L 381.108708 52.611489 
L 382.152349 52.674634 
L 382.342102 53.09956 
L 383.006237 55.199374 
L 383.290866 55.380088 
L 384.619136 55.304996 
L 384.903766 55.235299 
L 386.326912 55.248184 
L 386.516665 55.673247 
L 386.801294 57.067994 
L 387.46543 61.420117 
L 387.655182 61.492917 
L 388.129565 61.462682 
L 388.319318 61.593624 
L 388.603947 61.822061 
L 389.078329 61.754346 
L 389.268082 61.034048 
L 390.691229 49.651616 
L 390.975858 47.461697 
L 391.165611 47.045042 
L 393.252893 47.143617 
L 393.727275 47.133756 
L 394.296534 46.380492 
L 394.581163 45.991839 
L 395.150422 45.941345 
L 395.340175 45.684254 
L 395.909433 44.4375 
L 396.288939 44.529958 
L 396.478692 45.040653 
L 396.858198 47.403618 
L 397.142827 48.662266 
L 397.617209 48.577527 
L 398.281344 48.524362 
L 398.471097 48.616876 
L 398.66085 49.036322 
L 398.945479 50.749866 
L 399.704491 56.18873 
L 400.368626 58.031221 
L 400.558379 58.316512 
L 401.222514 58.263886 
L 401.412267 58.021228 
L 401.696896 56.732318 
L 401.886649 56.002116 
L 402.266155 55.970959 
L 404.54319 55.872099 
L 405.017572 55.380191 
L 405.302201 55.495132 
L 405.681707 56.222878 
L 406.156089 57.336387 
L 407.863865 57.269231 
L 408.338248 57.202918 
L 408.622877 57.265105 
L 408.81263 57.564065 
L 409.002383 58.437945 
L 409.571641 62.646969 
L 410.520406 62.590252 
L 410.710159 62.644701 
L 410.899912 63.03758 
L 411.279417 64.0318 
L 411.564047 64.06444 
L 411.848676 63.827616 
L 412.038429 63.698195 
L 412.892317 63.773347 
L 413.366699 63.992663 
L 413.651328 63.88281 
L 413.935958 63.031365 
L 414.220587 62.449677 
L 414.505217 62.504907 
L 414.789846 62.94447 
L 415.359105 63.876245 
L 415.548857 64.125397 
L 416.687375 64.222618 
L 417.066881 64.437468 
L 417.731016 64.472113 
L 419.913174 64.39101 
L 420.29268 64.020177 
L 420.767062 64.113163 
L 420.956815 64.635823 
L 421.336321 65.941163 
L 421.905579 66.126832 
L 422.379961 66.152597 
L 423.613355 66.083376 
L 423.803108 65.609257 
L 424.182614 64.573426 
L 424.846749 63.956148 
L 425.226255 63.307959 
L 425.795513 63.38598 
L 425.985266 63.751196 
L 426.364772 64.584911 
L 426.839154 64.475666 
L 427.21866 64.119266 
L 427.977672 64.18748 
L 428.167425 64.351246 
L 428.54693 64.803404 
L 429.021313 64.701091 
L 429.305942 64.535407 
L 430.823965 64.451323 
L 431.203471 64.012922 
L 433.290753 63.987977 
L 433.480506 63.777803 
L 433.765135 63.406204 
L 434.524146 63.515548 
L 434.713899 64.175308 
L 435.093405 65.84313 
L 435.378034 65.888038 
L 436.421675 66.008384 
L 436.611428 66.114354 
L 436.990934 66.49673 
L 439.173092 66.476188 
L 439.457722 65.846281 
L 439.837227 65.079482 
L 440.121857 65.038411 
L 441.829633 65.020843 
L 442.304015 64.704691 
L 443.537409 64.603113 
L 443.727162 64.280232 
L 444.011791 63.317054 
L 444.675926 60.695974 
L 444.960555 60.681872 
L 445.150308 60.817489 
L 445.529814 61.324546 
L 447.23759 61.414216 
L 447.617096 61.746444 
L 449.135119 61.784752 
L 449.419748 62.202655 
L 449.609501 62.398337 
L 450.273636 62.349785 
L 450.748019 61.929441 
L 456.440605 61.970707 
L 457.009864 62.274759 
L 457.484246 62.183211 
L 457.673999 61.57059 
L 457.958628 59.344106 
L 458.622764 53.358886 
L 458.812516 53.242107 
L 459.856157 53.299101 
L 460.140787 53.557982 
L 460.710045 54.299458 
L 464.410227 54.37933 
L 464.59998 54.774842 
L 465.264115 56.961683 
L 466.023126 56.932596 
L 466.212879 56.672153 
L 466.592385 55.380684 
L 466.877014 54.6433 
L 467.351397 54.616367 
L 468.300161 54.687951 
L 468.86942 55.022189 
L 472.095219 55.113248 
L 472.379848 55.267048 
L 473.233736 55.218608 
L 473.613242 54.805011 
L 473.897871 54.562002 
L 475.321018 54.685256 
L 475.700524 55.532296 
L 476.174906 56.589713 
L 479.210952 56.540879 
L 481.39311 56.583063 
L 481.582863 56.775048 
L 482.057246 57.619611 
L 482.341875 57.545024 
L 482.531628 57.244296 
L 482.816257 56.752379 
L 483.385516 56.819268 
L 483.765022 57.028723 
L 484.144527 57.005064 
L 484.33428 56.723576 
L 484.61891 55.471373 
L 485.472798 50.831833 
L 485.66255 50.564745 
L 486.611315 50.603407 
L 486.801068 50.848355 
L 487.27545 51.659003 
L 496.857971 51.692409 
L 497.237477 51.801997 
L 502.645434 51.699074 
L 503.214693 51.539099 
L 503.594199 51.613451 
L 503.973704 51.745087 
L 506.725121 51.870034 
L 507.29438 53.290442 
L 507.579009 54.130198 
L 507.863639 54.076831 
L 508.527774 53.125389 
L 508.812403 53.206959 
L 509.002156 53.587332 
L 509.666291 55.695068 
L 512.512584 55.645428 
L 522.095105 55.678281 
L 523.138746 55.720461 
L 523.613129 55.976011 
L 523.992634 55.916502 
L 524.846522 55.496992 
L 525.036275 55.603319 
L 525.510657 56.062841 
L 624.277037 56.078967 
L 658.053051 56.082872 
L 724.27681 56.076272 
L 769.343122 56.077261 
L 898.280211 56.082225 
L 1020.955455 56.082088 
L 1020.955455 56.082088 
" clip-path="url(#p2425a03053)" style="fill: none; stroke: #0c5da5; stroke-width: 2; stroke-linecap: square"/>
   </g>
   <g id="patch_3">
    <path d="M 62.21 520.7175 
L 62.21 21.7575 
" style="fill: none; stroke: #000000; stroke-linejoin: miter; stroke-linecap: square"/>
   </g>
   <g id="patch_4">
    <path d="M 1066.61 520.7175 
L 1066.61 21.7575 
" style="fill: none; stroke: #000000; stroke-linejoin: miter; stroke-linecap: square"/>
   </g>
   <g id="patch_5">
    <path d="M 62.21 520.7175 
L 1066.61 520.7175 
" style="fill: none; stroke: #000000; stroke-linejoin: miter; stroke-linecap: square"/>
   </g>
   <g id="patch_6">
    <path d="M 62.21 21.7575 
L 1066.61 21.7575 
" style="fill: none; stroke: #000000; stroke-linejoin: miter; stroke-linecap: square"/>
   </g>
   <g id="text_13">
    <!-- Landers Record no. 879 -->
    <g transform="translate(469.615 15.7575) scale(0.16 -0.16)">
     <defs>
      <path id="DejaVuSans-4c" d="M 628 4666 
L 1259 4666 
L 1259 531 
L 3531 531 
L 3531 0 
L 628 0 
L 628 4666 
z
" transform="scale(0.015625)"/>
      <path id="DejaVuSans-64" d="M 2906 2969 
L 2906 4863 
L 3481 4863 
L 3481 0 
L 2906 0 
L 2906 525 
Q 2725 213 2448 61 
Q 2172 -91 1784 -91 
Q 1150 -91 751 415 
Q 353 922 353 1747 
Q 353 2572 751 3078 
Q 1150 3584 1784 3584 
Q 2172 3584 2448 3432 
Q 2725 3281 2906 2969 
z
M 947 1747 
Q 947 1113 1208 752 
Q 1469 391 1925 391 
Q 2381 391 2643 752 
Q 2906 1113 2906 1747 
Q 2906 2381 2643 2742 
Q 2381 3103 1925 3103 
Q 1469 3103 1208 2742 
Q 947 2381 947 1747 
z
" transform="scale(0.015625)"/>
      <path id="DejaVuSans-72" d="M 2631 2963 
Q 2534 3019 2420 3045 
Q 2306 3072 2169 3072 
Q 1681 3072 1420 2755 
Q 1159 2438 1159 1844 
L 1159 0 
L 581 0 
L 581 3500 
L 1159 3500 
L 1159 2956 
Q 1341 3275 1631 3429 
Q 1922 3584 2338 3584 
Q 2397 3584 2469 3576 
Q 2541 3569 2628 3553 
L 2631 2963 
z
" transform="scale(0.015625)"/>
      <path id="DejaVuSans-52" d="M 2841 2188 
Q 3044 2119 3236 1894 
Q 3428 1669 3622 1275 
L 4263 0 
L 3584 0 
L 2988 1197 
Q 2756 1666 2539 1819 
Q 2322 1972 1947 1972 
L 1259 1972 
L 1259 0 
L 628 0 
L 628 4666 
L 2053 4666 
Q 2853 4666 3247 4331 
Q 3641 3997 3641 3322 
Q 3641 2881 3436 2590 
Q 3231 2300 2841 2188 
z
M 1259 4147 
L 1259 2491 
L 2053 2491 
Q 2509 2491 2742 2702 
Q 2975 2913 2975 3322 
Q 2975 3731 2742 3939 
Q 2509 4147 2053 4147 
L 1259 4147 
z
" transform="scale(0.015625)"/>
      <path id="DejaVuSans-6f" d="M 1959 3097 
Q 1497 3097 1228 2736 
Q 959 2375 959 1747 
Q 959 1119 1226 758 
Q 1494 397 1959 397 
Q 2419 397 2687 759 
Q 2956 1122 2956 1747 
Q 2956 2369 2687 2733 
Q 2419 3097 1959 3097 
z
M 1959 3584 
Q 2709 3584 3137 3096 
Q 3566 2609 3566 1747 
Q 3566 888 3137 398 
Q 2709 -91 1959 -91 
Q 1206 -91 779 398 
Q 353 888 353 1747 
Q 353 2609 779 3096 
Q 1206 3584 1959 3584 
z
" transform="scale(0.015625)"/>
      <path id="DejaVuSans-38" d="M 2034 2216 
Q 1584 2216 1326 1975 
Q 1069 1734 1069 1313 
Q 1069 891 1326 650 
Q 1584 409 2034 409 
Q 2484 409 2743 651 
Q 3003 894 3003 1313 
Q 3003 1734 2745 1975 
Q 2488 2216 2034 2216 
z
M 1403 2484 
Q 997 2584 770 2862 
Q 544 3141 544 3541 
Q 544 4100 942 4425 
Q 1341 4750 2034 4750 
Q 2731 4750 3128 4425 
Q 3525 4100 3525 3541 
Q 3525 3141 3298 2862 
Q 3072 2584 2669 2484 
Q 3125 2378 3379 2068 
Q 3634 1759 3634 1313 
Q 3634 634 3220 271 
Q 2806 -91 2034 -91 
Q 1263 -91 848 271 
Q 434 634 434 1313 
Q 434 1759 690 2068 
Q 947 2378 1403 2484 
z
M 1172 3481 
Q 1172 3119 1398 2916 
Q 1625 2713 2034 2713 
Q 2441 2713 2670 2916 
Q 2900 3119 2900 3481 
Q 2900 3844 2670 4047 
Q 2441 4250 2034 4250 
Q 1625 4250 1398 4047 
Q 1172 3844 1172 3481 
z
" transform="scale(0.015625)"/>
      <path id="DejaVuSans-37" d="M 525 4666 
L 3525 4666 
L 3525 4397 
L 1831 0 
L 1172 0 
L 2766 4134 
L 525 4134 
L 525 4666 
z
" transform="scale(0.015625)"/>
      <path id="DejaVuSans-39" d="M 703 97 
L 703 672 
Q 941 559 1184 500 
Q 1428 441 1663 441 
Q 2288 441 2617 861 
Q 2947 1281 2994 2138 
Q 2813 1869 2534 1725 
Q 2256 1581 1919 1581 
Q 1219 1581 811 2004 
Q 403 2428 403 3163 
Q 403 3881 828 4315 
Q 1253 4750 1959 4750 
Q 2769 4750 3195 4129 
Q 3622 3509 3622 2328 
Q 3622 1225 3098 567 
Q 2575 -91 1691 -91 
Q 1453 -91 1209 -44 
Q 966 3 703 97 
z
M 1959 2075 
Q 2384 2075 2632 2365 
Q 2881 2656 2881 3163 
Q 2881 3666 2632 3958 
Q 2384 4250 1959 4250 
Q 1534 4250 1286 3958 
Q 1038 3666 1038 3163 
Q 1038 2656 1286 2365 
Q 1534 2075 1959 2075 
z
" transform="scale(0.015625)"/>
     </defs>
     <use xlink:href="#DejaVuSans-4c"/>
     <use xlink:href="#DejaVuSans-61" x="55.712891"/>
     <use xlink:href="#DejaVuSans-6e" x="116.992188"/>
     <use xlink:href="#DejaVuSans-64" x="180.371094"/>
     <use xlink:href="#DejaVuSans-65" x="243.847656"/>
     <use xlink:href="#DejaVuSans-72" x="305.371094"/>
     <use xlink:href="#DejaVuSans-73" x="346.484375"/>
     <use xlink:href="#DejaVuSans-20" x="398.583984"/>
     <use xlink:href="#DejaVuSans-52" x="430.371094"/>
     <use xlink:href="#DejaVuSans-65" x="495.353516"/>
     <use xlink:href="#DejaVuSans-63" x="556.876953"/>
     <use xlink:href="#DejaVuSans-6f" x="611.857422"/>
     <use xlink:href="#DejaVuSans-72" x="673.039062"/>
     <use xlink:href="#DejaVuSans-64" x="712.402344"/>
     <use xlink:href="#DejaVuSans-20" x="775.878906"/>
     <use xlink:href="#DejaVuSans-6e" x="807.666016"/>
     <use xlink:href="#DejaVuSans-6f" x="871.044922"/>
     <use xlink:href="#DejaVuSans-2e" x="930.476562"/>
     <use xlink:href="#DejaVuSans-20" x="962.263672"/>
     <use xlink:href="#DejaVuSans-38" x="994.050781"/>
     <use xlink:href="#DejaVuSans-37" x="1057.673828"/>
     <use xlink:href="#DejaVuSans-39" x="1121.296875"/>
    </g>
   </g>
   <g id="legend_1">
    <g id="patch_7">
     <path d="M 700.97 512.7175 
L 1055.41 512.7175 
Q 1058.61 512.7175 1058.61 509.5175 
L 1058.61 487.6325 
Q 1058.61 484.4325 1055.41 484.4325 
L 700.97 484.4325 
Q 697.77 484.4325 697.77 487.6325 
L 697.77 509.5175 
Q 697.77 512.7175 700.97 512.7175 
z
" style="fill: #ffffff; stroke: #cccccc; stroke-linejoin: miter"/>
    </g>
    <g id="line2d_114">
     <path d="M 704.17 497.39 
L 720.17 497.39 
L 736.17 497.39 
" style="fill: none; stroke: #0c5da5; stroke-width: 2; stroke-linecap: square"/>
    </g>
    <g id="text_14">
     <!-- Residual Displacement = 0.176153 m -->
     <g transform="translate(748.97 502.99) scale(0.16 -0.16)">
      <defs>
       <path id="DejaVuSans-75" d="M 544 1381 
L 544 3500 
L 1119 3500 
L 1119 1403 
Q 1119 906 1312 657 
Q 1506 409 1894 409 
Q 2359 409 2629 706 
Q 2900 1003 2900 1516 
L 2900 3500 
L 3475 3500 
L 3475 0 
L 2900 0 
L 2900 538 
Q 2691 219 2414 64 
Q 2138 -91 1772 -91 
Q 1169 -91 856 284 
Q 544 659 544 1381 
z
M 1991 3584 
L 1991 3584 
z
" transform="scale(0.015625)"/>
       <path id="DejaVuSans-3d" d="M 678 2906 
L 4684 2906 
L 4684 2381 
L 678 2381 
L 678 2906 
z
M 678 1631 
L 4684 1631 
L 4684 1100 
L 678 1100 
L 678 1631 
z
" transform="scale(0.015625)"/>
       <path id="DejaVuSans-36" d="M 2113 2584 
Q 1688 2584 1439 2293 
Q 1191 2003 1191 1497 
Q 1191 994 1439 701 
Q 1688 409 2113 409 
Q 2538 409 2786 701 
Q 3034 994 3034 1497 
Q 3034 2003 2786 2293 
Q 2538 2584 2113 2584 
z
M 3366 4563 
L 3366 3988 
Q 3128 4100 2886 4159 
Q 2644 4219 2406 4219 
Q 1781 4219 1451 3797 
Q 1122 3375 1075 2522 
Q 1259 2794 1537 2939 
Q 1816 3084 2150 3084 
Q 2853 3084 3261 2657 
Q 3669 2231 3669 1497 
Q 3669 778 3244 343 
Q 2819 -91 2113 -91 
Q 1303 -91 875 529 
Q 447 1150 447 2328 
Q 447 3434 972 4092 
Q 1497 4750 2381 4750 
Q 2619 4750 2861 4703 
Q 3103 4656 3366 4563 
z
" transform="scale(0.015625)"/>
      </defs>
      <use xlink:href="#DejaVuSans-52"/>
      <use xlink:href="#DejaVuSans-65" x="64.982422"/>
      <use xlink:href="#DejaVuSans-73" x="126.505859"/>
      <use xlink:href="#DejaVuSans-69" x="178.605469"/>
      <use xlink:href="#DejaVuSans-64" x="206.388672"/>
      <use xlink:href="#DejaVuSans-75" x="269.865234"/>
      <use xlink:href="#DejaVuSans-61" x="333.244141"/>
      <use xlink:href="#DejaVuSans-6c" x="394.523438"/>
      <use xlink:href="#DejaVuSans-20" x="422.306641"/>
      <use xlink:href="#DejaVuSans-44" x="454.09375"/>
      <use xlink:href="#DejaVuSans-69" x="531.095703"/>
      <use xlink:href="#DejaVuSans-73" x="558.878906"/>
      <use xlink:href="#DejaVuSans-70" x="610.978516"/>
      <use xlink:href="#DejaVuSans-6c" x="674.455078"/>
      <use xlink:href="#DejaVuSans-61" x="702.238281"/>
      <use xlink:href="#DejaVuSans-63" x="763.517578"/>
      <use xlink:href="#DejaVuSans-65" x="818.498047"/>
      <use xlink:href="#DejaVuSans-6d" x="880.021484"/>
      <use xlink:href="#DejaVuSans-65" x="977.433594"/>
      <use xlink:href="#DejaVuSans-6e" x="1038.957031"/>
      <use xlink:href="#DejaVuSans-74" x="1102.335938"/>
      <use xlink:href="#DejaVuSans-20" x="1141.544922"/>
      <use xlink:href="#DejaVuSans-3d" x="1173.332031"/>
      <use xlink:href="#DejaVuSans-20" x="1257.121094"/>
      <use xlink:href="#DejaVuSans-30" x="1288.908203"/>
      <use xlink:href="#DejaVuSans-2e" x="1352.53125"/>
      <use xlink:href="#DejaVuSans-31" x="1384.318359"/>
      <use xlink:href="#DejaVuSans-37" x="1447.941406"/>
      <use xlink:href="#DejaVuSans-36" x="1511.564453"/>
      <use xlink:href="#DejaVuSans-31" x="1575.1875"/>
      <use xlink:href="#DejaVuSans-35" x="1638.810547"/>
      <use xlink:href="#DejaVuSans-33" x="1702.433594"/>
      <use xlink:href="#DejaVuSans-20" x="1766.056641"/>
      <use xlink:href="#DejaVuSans-6d" x="1797.84375"/>
     </g>
    </g>
   </g>
  </g>
 </g>
 <defs>
  <clipPath id="p2425a03053">
   <rect x="62.21" y="21.7575" width="1004.4" height="498.96"/>
  </clipPath>
 </defs>
</svg>
