<?xml version="1.0" encoding="utf-8" standalone="no"?>
<!DOCTYPE svg PUBLIC "-//W3C//DTD SVG 1.1//EN"
  "http://www.w3.org/Graphics/SVG/1.1/DTD/svg11.dtd">
<svg xmlns:xlink="http://www.w3.org/1999/xlink" width="1093.7975pt" height="562.7875pt" viewBox="0 0 1093.7975 562.7875" xmlns="http://www.w3.org/2000/svg" version="1.1">
 <metadata>
  <rdf:RDF xmlns:dc="http://purl.org/dc/elements/1.1/" xmlns:cc="http://creativecommons.org/ns#" xmlns:rdf="http://www.w3.org/1999/02/22-rdf-syntax-ns#">
   <cc:Work>
    <dc:type rdf:resource="http://purl.org/dc/dcmitype/StillImage"/>
    <dc:date>2023-05-16T14:52:30.480223</dc:date>
    <dc:format>image/svg+xml</dc:format>
    <dc:creator>
     <cc:Agent>
      <dc:title>Matplotlib v3.7.1, https://matplotlib.org/</dc:title>
     </cc:Agent>
    </dc:creator>
   </cc:Work>
  </rdf:RDF>
 </metadata>
 <defs>
  <style type="text/css">*{stroke-linejoin: round; stroke-linecap: butt}</style>
 </defs>
 <g id="figure_1">
  <g id="patch_1">
   <path d="M 0 562.7875 
L 1093.7975 562.7875 
L 1093.7975 0 
L 0 0 
z
" style="fill: #ffffff"/>
  </g>
  <g id="axes_1">
   <g id="patch_2">
    <path d="M 85.7975 520.7175 
L 1090.1975 520.7175 
L 1090.1975 21.7575 
L 85.7975 21.7575 
z
" style="fill: #ffffff"/>
   </g>
   <g id="matplotlib.axis_1">
    <g id="xtick_1">
     <g id="line2d_1">
      <path d="M 131.452045 520.7175 
L 131.452045 21.7575 
" clip-path="url(#pf34ce87b5c)" style="fill: none; stroke-dasharray: 1.85,0.8; stroke-dashoffset: 0; stroke: #000000; stroke-opacity: 0.5; stroke-width: 0.5"/>
     </g>
     <g id="line2d_2">
      <defs>
       <path id="mfd8a9d49e3" d="M 0 0 
L 0 -6 
" style="stroke: #000000"/>
      </defs>
      <g>
       <use xlink:href="#mfd8a9d49e3" x="131.452045" y="520.7175" style="stroke: #000000"/>
      </g>
     </g>
     <g id="line2d_3">
      <defs>
       <path id="m8400d531eb" d="M 0 0 
L 0 6 
" style="stroke: #000000"/>
      </defs>
      <g>
       <use xlink:href="#m8400d531eb" x="131.452045" y="21.7575" style="stroke: #000000"/>
      </g>
     </g>
     <g id="text_1">
      <!-- 0 -->
      <g transform="translate(126.362045 536.375) scale(0.16 -0.16)">
       <defs>
        <path id="DejaVuSans-30" d="M 2034 4250 
Q 1547 4250 1301 3770 
Q 1056 3291 1056 2328 
Q 1056 1369 1301 889 
Q 1547 409 2034 409 
Q 2525 409 2770 889 
Q 3016 1369 3016 2328 
Q 3016 3291 2770 3770 
Q 2525 4250 2034 4250 
z
M 2034 4750 
Q 2819 4750 3233 4129 
Q 3647 3509 3647 2328 
Q 3647 1150 3233 529 
Q 2819 -91 2034 -91 
Q 1250 -91 836 529 
Q 422 1150 422 2328 
Q 422 3509 836 4129 
Q 1250 4750 2034 4750 
z
" transform="scale(0.015625)"/>
       </defs>
       <use xlink:href="#DejaVuSans-30"/>
      </g>
     </g>
    </g>
    <g id="xtick_2">
     <g id="line2d_4">
      <path d="M 245.645506 520.7175 
L 245.645506 21.7575 
" clip-path="url(#pf34ce87b5c)" style="fill: none; stroke-dasharray: 1.85,0.8; stroke-dashoffset: 0; stroke: #000000; stroke-opacity: 0.5; stroke-width: 0.5"/>
     </g>
     <g id="line2d_5">
      <g>
       <use xlink:href="#mfd8a9d49e3" x="245.645506" y="520.7175" style="stroke: #000000"/>
      </g>
     </g>
     <g id="line2d_6">
      <g>
       <use xlink:href="#m8400d531eb" x="245.645506" y="21.7575" style="stroke: #000000"/>
      </g>
     </g>
     <g id="text_2">
      <!-- 5 -->
      <g transform="translate(240.555506 536.375) scale(0.16 -0.16)">
       <defs>
        <path id="DejaVuSans-35" d="M 691 4666 
L 3169 4666 
L 3169 4134 
L 1269 4134 
L 1269 2991 
Q 1406 3038 1543 3061 
Q 1681 3084 1819 3084 
Q 2600 3084 3056 2656 
Q 3513 2228 3513 1497 
Q 3513 744 3044 326 
Q 2575 -91 1722 -91 
Q 1428 -91 1123 -41 
Q 819 9 494 109 
L 494 744 
Q 775 591 1075 516 
Q 1375 441 1709 441 
Q 2250 441 2565 725 
Q 2881 1009 2881 1497 
Q 2881 1984 2565 2268 
Q 2250 2553 1709 2553 
Q 1456 2553 1204 2497 
Q 953 2441 691 2322 
L 691 4666 
z
" transform="scale(0.015625)"/>
       </defs>
       <use xlink:href="#DejaVuSans-35"/>
      </g>
     </g>
    </g>
    <g id="xtick_3">
     <g id="line2d_7">
      <path d="M 359.838966 520.7175 
L 359.838966 21.7575 
" clip-path="url(#pf34ce87b5c)" style="fill: none; stroke-dasharray: 1.85,0.8; stroke-dashoffset: 0; stroke: #000000; stroke-opacity: 0.5; stroke-width: 0.5"/>
     </g>
     <g id="line2d_8">
      <g>
       <use xlink:href="#mfd8a9d49e3" x="359.838966" y="520.7175" style="stroke: #000000"/>
      </g>
     </g>
     <g id="line2d_9">
      <g>
       <use xlink:href="#m8400d531eb" x="359.838966" y="21.7575" style="stroke: #000000"/>
      </g>
     </g>
     <g id="text_3">
      <!-- 10 -->
      <g transform="translate(349.658966 536.375) scale(0.16 -0.16)">
       <defs>
        <path id="DejaVuSans-31" d="M 794 531 
L 1825 531 
L 1825 4091 
L 703 3866 
L 703 4441 
L 1819 4666 
L 2450 4666 
L 2450 531 
L 3481 531 
L 3481 0 
L 794 0 
L 794 531 
z
" transform="scale(0.015625)"/>
       </defs>
       <use xlink:href="#DejaVuSans-31"/>
       <use xlink:href="#DejaVuSans-30" x="63.623047"/>
      </g>
     </g>
    </g>
    <g id="xtick_4">
     <g id="line2d_10">
      <path d="M 474.032427 520.7175 
L 474.032427 21.7575 
" clip-path="url(#pf34ce87b5c)" style="fill: none; stroke-dasharray: 1.85,0.8; stroke-dashoffset: 0; stroke: #000000; stroke-opacity: 0.5; stroke-width: 0.5"/>
     </g>
     <g id="line2d_11">
      <g>
       <use xlink:href="#mfd8a9d49e3" x="474.032427" y="520.7175" style="stroke: #000000"/>
      </g>
     </g>
     <g id="line2d_12">
      <g>
       <use xlink:href="#m8400d531eb" x="474.032427" y="21.7575" style="stroke: #000000"/>
      </g>
     </g>
     <g id="text_4">
      <!-- 15 -->
      <g transform="translate(463.852427 536.375) scale(0.16 -0.16)">
       <use xlink:href="#DejaVuSans-31"/>
       <use xlink:href="#DejaVuSans-35" x="63.623047"/>
      </g>
     </g>
    </g>
    <g id="xtick_5">
     <g id="line2d_13">
      <path d="M 588.225887 520.7175 
L 588.225887 21.7575 
" clip-path="url(#pf34ce87b5c)" style="fill: none; stroke-dasharray: 1.85,0.8; stroke-dashoffset: 0; stroke: #000000; stroke-opacity: 0.5; stroke-width: 0.5"/>
     </g>
     <g id="line2d_14">
      <g>
       <use xlink:href="#mfd8a9d49e3" x="588.225887" y="520.7175" style="stroke: #000000"/>
      </g>
     </g>
     <g id="line2d_15">
      <g>
       <use xlink:href="#m8400d531eb" x="588.225887" y="21.7575" style="stroke: #000000"/>
      </g>
     </g>
     <g id="text_5">
      <!-- 20 -->
      <g transform="translate(578.045887 536.375) scale(0.16 -0.16)">
       <defs>
        <path id="DejaVuSans-32" d="M 1228 531 
L 3431 531 
L 3431 0 
L 469 0 
L 469 531 
Q 828 903 1448 1529 
Q 2069 2156 2228 2338 
Q 2531 2678 2651 2914 
Q 2772 3150 2772 3378 
Q 2772 3750 2511 3984 
Q 2250 4219 1831 4219 
Q 1534 4219 1204 4116 
Q 875 4013 500 3803 
L 500 4441 
Q 881 4594 1212 4672 
Q 1544 4750 1819 4750 
Q 2544 4750 2975 4387 
Q 3406 4025 3406 3419 
Q 3406 3131 3298 2873 
Q 3191 2616 2906 2266 
Q 2828 2175 2409 1742 
Q 1991 1309 1228 531 
z
" transform="scale(0.015625)"/>
       </defs>
       <use xlink:href="#DejaVuSans-32"/>
       <use xlink:href="#DejaVuSans-30" x="63.623047"/>
      </g>
     </g>
    </g>
    <g id="xtick_6">
     <g id="line2d_16">
      <path d="M 702.419347 520.7175 
L 702.419347 21.7575 
" clip-path="url(#pf34ce87b5c)" style="fill: none; stroke-dasharray: 1.85,0.8; stroke-dashoffset: 0; stroke: #000000; stroke-opacity: 0.5; stroke-width: 0.5"/>
     </g>
     <g id="line2d_17">
      <g>
       <use xlink:href="#mfd8a9d49e3" x="702.419347" y="520.7175" style="stroke: #000000"/>
      </g>
     </g>
     <g id="line2d_18">
      <g>
       <use xlink:href="#m8400d531eb" x="702.419347" y="21.7575" style="stroke: #000000"/>
      </g>
     </g>
     <g id="text_6">
      <!-- 25 -->
      <g transform="translate(692.239347 536.375) scale(0.16 -0.16)">
       <use xlink:href="#DejaVuSans-32"/>
       <use xlink:href="#DejaVuSans-35" x="63.623047"/>
      </g>
     </g>
    </g>
    <g id="xtick_7">
     <g id="line2d_19">
      <path d="M 816.612808 520.7175 
L 816.612808 21.7575 
" clip-path="url(#pf34ce87b5c)" style="fill: none; stroke-dasharray: 1.85,0.8; stroke-dashoffset: 0; stroke: #000000; stroke-opacity: 0.5; stroke-width: 0.5"/>
     </g>
     <g id="line2d_20">
      <g>
       <use xlink:href="#mfd8a9d49e3" x="816.612808" y="520.7175" style="stroke: #000000"/>
      </g>
     </g>
     <g id="line2d_21">
      <g>
       <use xlink:href="#m8400d531eb" x="816.612808" y="21.7575" style="stroke: #000000"/>
      </g>
     </g>
     <g id="text_7">
      <!-- 30 -->
      <g transform="translate(806.432808 536.375) scale(0.16 -0.16)">
       <defs>
        <path id="DejaVuSans-33" d="M 2597 2516 
Q 3050 2419 3304 2112 
Q 3559 1806 3559 1356 
Q 3559 666 3084 287 
Q 2609 -91 1734 -91 
Q 1441 -91 1130 -33 
Q 819 25 488 141 
L 488 750 
Q 750 597 1062 519 
Q 1375 441 1716 441 
Q 2309 441 2620 675 
Q 2931 909 2931 1356 
Q 2931 1769 2642 2001 
Q 2353 2234 1838 2234 
L 1294 2234 
L 1294 2753 
L 1863 2753 
Q 2328 2753 2575 2939 
Q 2822 3125 2822 3475 
Q 2822 3834 2567 4026 
Q 2313 4219 1838 4219 
Q 1578 4219 1281 4162 
Q 984 4106 628 3988 
L 628 4550 
Q 988 4650 1302 4700 
Q 1616 4750 1894 4750 
Q 2613 4750 3031 4423 
Q 3450 4097 3450 3541 
Q 3450 3153 3228 2886 
Q 3006 2619 2597 2516 
z
" transform="scale(0.015625)"/>
       </defs>
       <use xlink:href="#DejaVuSans-33"/>
       <use xlink:href="#DejaVuSans-30" x="63.623047"/>
      </g>
     </g>
    </g>
    <g id="xtick_8">
     <g id="line2d_22">
      <path d="M 930.806268 520.7175 
L 930.806268 21.7575 
" clip-path="url(#pf34ce87b5c)" style="fill: none; stroke-dasharray: 1.85,0.8; stroke-dashoffset: 0; stroke: #000000; stroke-opacity: 0.5; stroke-width: 0.5"/>
     </g>
     <g id="line2d_23">
      <g>
       <use xlink:href="#mfd8a9d49e3" x="930.806268" y="520.7175" style="stroke: #000000"/>
      </g>
     </g>
     <g id="line2d_24">
      <g>
       <use xlink:href="#m8400d531eb" x="930.806268" y="21.7575" style="stroke: #000000"/>
      </g>
     </g>
     <g id="text_8">
      <!-- 35 -->
      <g transform="translate(920.626268 536.375) scale(0.16 -0.16)">
       <use xlink:href="#DejaVuSans-33"/>
       <use xlink:href="#DejaVuSans-35" x="63.623047"/>
      </g>
     </g>
    </g>
    <g id="xtick_9">
     <g id="line2d_25">
      <path d="M 1044.999728 520.7175 
L 1044.999728 21.7575 
" clip-path="url(#pf34ce87b5c)" style="fill: none; stroke-dasharray: 1.85,0.8; stroke-dashoffset: 0; stroke: #000000; stroke-opacity: 0.5; stroke-width: 0.5"/>
     </g>
     <g id="line2d_26">
      <g>
       <use xlink:href="#mfd8a9d49e3" x="1044.999728" y="520.7175" style="stroke: #000000"/>
      </g>
     </g>
     <g id="line2d_27">
      <g>
       <use xlink:href="#m8400d531eb" x="1044.999728" y="21.7575" style="stroke: #000000"/>
      </g>
     </g>
     <g id="text_9">
      <!-- 40 -->
      <g transform="translate(1034.819728 536.375) scale(0.16 -0.16)">
       <defs>
        <path id="DejaVuSans-34" d="M 2419 4116 
L 825 1625 
L 2419 1625 
L 2419 4116 
z
M 2253 4666 
L 3047 4666 
L 3047 1625 
L 3713 1625 
L 3713 1100 
L 3047 1100 
L 3047 0 
L 2419 0 
L 2419 1100 
L 313 1100 
L 313 1709 
L 2253 4666 
z
" transform="scale(0.015625)"/>
       </defs>
       <use xlink:href="#DejaVuSans-34"/>
       <use xlink:href="#DejaVuSans-30" x="63.623047"/>
      </g>
     </g>
    </g>
    <g id="xtick_10">
     <g id="line2d_28">
      <defs>
       <path id="mf00527e2b8" d="M 0 0 
L 0 -3 
" style="stroke: #000000"/>
      </defs>
      <g>
       <use xlink:href="#mf00527e2b8" x="108.613353" y="520.7175" style="stroke: #000000"/>
      </g>
     </g>
     <g id="line2d_29">
      <defs>
       <path id="m3a01e7aa2c" d="M 0 0 
L 0 3 
" style="stroke: #000000"/>
      </defs>
      <g>
       <use xlink:href="#m3a01e7aa2c" x="108.613353" y="21.7575" style="stroke: #000000"/>
      </g>
     </g>
    </g>
    <g id="xtick_11">
     <g id="line2d_30">
      <g>
       <use xlink:href="#mf00527e2b8" x="154.290738" y="520.7175" style="stroke: #000000"/>
      </g>
     </g>
     <g id="line2d_31">
      <g>
       <use xlink:href="#m3a01e7aa2c" x="154.290738" y="21.7575" style="stroke: #000000"/>
      </g>
     </g>
    </g>
    <g id="xtick_12">
     <g id="line2d_32">
      <g>
       <use xlink:href="#mf00527e2b8" x="177.12943" y="520.7175" style="stroke: #000000"/>
      </g>
     </g>
     <g id="line2d_33">
      <g>
       <use xlink:href="#m3a01e7aa2c" x="177.12943" y="21.7575" style="stroke: #000000"/>
      </g>
     </g>
    </g>
    <g id="xtick_13">
     <g id="line2d_34">
      <g>
       <use xlink:href="#mf00527e2b8" x="199.968122" y="520.7175" style="stroke: #000000"/>
      </g>
     </g>
     <g id="line2d_35">
      <g>
       <use xlink:href="#m3a01e7aa2c" x="199.968122" y="21.7575" style="stroke: #000000"/>
      </g>
     </g>
    </g>
    <g id="xtick_14">
     <g id="line2d_36">
      <g>
       <use xlink:href="#mf00527e2b8" x="222.806814" y="520.7175" style="stroke: #000000"/>
      </g>
     </g>
     <g id="line2d_37">
      <g>
       <use xlink:href="#m3a01e7aa2c" x="222.806814" y="21.7575" style="stroke: #000000"/>
      </g>
     </g>
    </g>
    <g id="xtick_15">
     <g id="line2d_38">
      <g>
       <use xlink:href="#mf00527e2b8" x="268.484198" y="520.7175" style="stroke: #000000"/>
      </g>
     </g>
     <g id="line2d_39">
      <g>
       <use xlink:href="#m3a01e7aa2c" x="268.484198" y="21.7575" style="stroke: #000000"/>
      </g>
     </g>
    </g>
    <g id="xtick_16">
     <g id="line2d_40">
      <g>
       <use xlink:href="#mf00527e2b8" x="291.32289" y="520.7175" style="stroke: #000000"/>
      </g>
     </g>
     <g id="line2d_41">
      <g>
       <use xlink:href="#m3a01e7aa2c" x="291.32289" y="21.7575" style="stroke: #000000"/>
      </g>
     </g>
    </g>
    <g id="xtick_17">
     <g id="line2d_42">
      <g>
       <use xlink:href="#mf00527e2b8" x="314.161582" y="520.7175" style="stroke: #000000"/>
      </g>
     </g>
     <g id="line2d_43">
      <g>
       <use xlink:href="#m3a01e7aa2c" x="314.161582" y="21.7575" style="stroke: #000000"/>
      </g>
     </g>
    </g>
    <g id="xtick_18">
     <g id="line2d_44">
      <g>
       <use xlink:href="#mf00527e2b8" x="337.000274" y="520.7175" style="stroke: #000000"/>
      </g>
     </g>
     <g id="line2d_45">
      <g>
       <use xlink:href="#m3a01e7aa2c" x="337.000274" y="21.7575" style="stroke: #000000"/>
      </g>
     </g>
    </g>
    <g id="xtick_19">
     <g id="line2d_46">
      <g>
       <use xlink:href="#mf00527e2b8" x="382.677658" y="520.7175" style="stroke: #000000"/>
      </g>
     </g>
     <g id="line2d_47">
      <g>
       <use xlink:href="#m3a01e7aa2c" x="382.677658" y="21.7575" style="stroke: #000000"/>
      </g>
     </g>
    </g>
    <g id="xtick_20">
     <g id="line2d_48">
      <g>
       <use xlink:href="#mf00527e2b8" x="405.51635" y="520.7175" style="stroke: #000000"/>
      </g>
     </g>
     <g id="line2d_49">
      <g>
       <use xlink:href="#m3a01e7aa2c" x="405.51635" y="21.7575" style="stroke: #000000"/>
      </g>
     </g>
    </g>
    <g id="xtick_21">
     <g id="line2d_50">
      <g>
       <use xlink:href="#mf00527e2b8" x="428.355042" y="520.7175" style="stroke: #000000"/>
      </g>
     </g>
     <g id="line2d_51">
      <g>
       <use xlink:href="#m3a01e7aa2c" x="428.355042" y="21.7575" style="stroke: #000000"/>
      </g>
     </g>
    </g>
    <g id="xtick_22">
     <g id="line2d_52">
      <g>
       <use xlink:href="#mf00527e2b8" x="451.193734" y="520.7175" style="stroke: #000000"/>
      </g>
     </g>
     <g id="line2d_53">
      <g>
       <use xlink:href="#m3a01e7aa2c" x="451.193734" y="21.7575" style="stroke: #000000"/>
      </g>
     </g>
    </g>
    <g id="xtick_23">
     <g id="line2d_54">
      <g>
       <use xlink:href="#mf00527e2b8" x="496.871119" y="520.7175" style="stroke: #000000"/>
      </g>
     </g>
     <g id="line2d_55">
      <g>
       <use xlink:href="#m3a01e7aa2c" x="496.871119" y="21.7575" style="stroke: #000000"/>
      </g>
     </g>
    </g>
    <g id="xtick_24">
     <g id="line2d_56">
      <g>
       <use xlink:href="#mf00527e2b8" x="519.709811" y="520.7175" style="stroke: #000000"/>
      </g>
     </g>
     <g id="line2d_57">
      <g>
       <use xlink:href="#m3a01e7aa2c" x="519.709811" y="21.7575" style="stroke: #000000"/>
      </g>
     </g>
    </g>
    <g id="xtick_25">
     <g id="line2d_58">
      <g>
       <use xlink:href="#mf00527e2b8" x="542.548503" y="520.7175" style="stroke: #000000"/>
      </g>
     </g>
     <g id="line2d_59">
      <g>
       <use xlink:href="#m3a01e7aa2c" x="542.548503" y="21.7575" style="stroke: #000000"/>
      </g>
     </g>
    </g>
    <g id="xtick_26">
     <g id="line2d_60">
      <g>
       <use xlink:href="#mf00527e2b8" x="565.387195" y="520.7175" style="stroke: #000000"/>
      </g>
     </g>
     <g id="line2d_61">
      <g>
       <use xlink:href="#m3a01e7aa2c" x="565.387195" y="21.7575" style="stroke: #000000"/>
      </g>
     </g>
    </g>
    <g id="xtick_27">
     <g id="line2d_62">
      <g>
       <use xlink:href="#mf00527e2b8" x="611.064579" y="520.7175" style="stroke: #000000"/>
      </g>
     </g>
     <g id="line2d_63">
      <g>
       <use xlink:href="#m3a01e7aa2c" x="611.064579" y="21.7575" style="stroke: #000000"/>
      </g>
     </g>
    </g>
    <g id="xtick_28">
     <g id="line2d_64">
      <g>
       <use xlink:href="#mf00527e2b8" x="633.903271" y="520.7175" style="stroke: #000000"/>
      </g>
     </g>
     <g id="line2d_65">
      <g>
       <use xlink:href="#m3a01e7aa2c" x="633.903271" y="21.7575" style="stroke: #000000"/>
      </g>
     </g>
    </g>
    <g id="xtick_29">
     <g id="line2d_66">
      <g>
       <use xlink:href="#mf00527e2b8" x="656.741963" y="520.7175" style="stroke: #000000"/>
      </g>
     </g>
     <g id="line2d_67">
      <g>
       <use xlink:href="#m3a01e7aa2c" x="656.741963" y="21.7575" style="stroke: #000000"/>
      </g>
     </g>
    </g>
    <g id="xtick_30">
     <g id="line2d_68">
      <g>
       <use xlink:href="#mf00527e2b8" x="679.580655" y="520.7175" style="stroke: #000000"/>
      </g>
     </g>
     <g id="line2d_69">
      <g>
       <use xlink:href="#m3a01e7aa2c" x="679.580655" y="21.7575" style="stroke: #000000"/>
      </g>
     </g>
    </g>
    <g id="xtick_31">
     <g id="line2d_70">
      <g>
       <use xlink:href="#mf00527e2b8" x="725.258039" y="520.7175" style="stroke: #000000"/>
      </g>
     </g>
     <g id="line2d_71">
      <g>
       <use xlink:href="#m3a01e7aa2c" x="725.258039" y="21.7575" style="stroke: #000000"/>
      </g>
     </g>
    </g>
    <g id="xtick_32">
     <g id="line2d_72">
      <g>
       <use xlink:href="#mf00527e2b8" x="748.096731" y="520.7175" style="stroke: #000000"/>
      </g>
     </g>
     <g id="line2d_73">
      <g>
       <use xlink:href="#m3a01e7aa2c" x="748.096731" y="21.7575" style="stroke: #000000"/>
      </g>
     </g>
    </g>
    <g id="xtick_33">
     <g id="line2d_74">
      <g>
       <use xlink:href="#mf00527e2b8" x="770.935424" y="520.7175" style="stroke: #000000"/>
      </g>
     </g>
     <g id="line2d_75">
      <g>
       <use xlink:href="#m3a01e7aa2c" x="770.935424" y="21.7575" style="stroke: #000000"/>
      </g>
     </g>
    </g>
    <g id="xtick_34">
     <g id="line2d_76">
      <g>
       <use xlink:href="#mf00527e2b8" x="793.774116" y="520.7175" style="stroke: #000000"/>
      </g>
     </g>
     <g id="line2d_77">
      <g>
       <use xlink:href="#m3a01e7aa2c" x="793.774116" y="21.7575" style="stroke: #000000"/>
      </g>
     </g>
    </g>
    <g id="xtick_35">
     <g id="line2d_78">
      <g>
       <use xlink:href="#mf00527e2b8" x="839.4515" y="520.7175" style="stroke: #000000"/>
      </g>
     </g>
     <g id="line2d_79">
      <g>
       <use xlink:href="#m3a01e7aa2c" x="839.4515" y="21.7575" style="stroke: #000000"/>
      </g>
     </g>
    </g>
    <g id="xtick_36">
     <g id="line2d_80">
      <g>
       <use xlink:href="#mf00527e2b8" x="862.290192" y="520.7175" style="stroke: #000000"/>
      </g>
     </g>
     <g id="line2d_81">
      <g>
       <use xlink:href="#m3a01e7aa2c" x="862.290192" y="21.7575" style="stroke: #000000"/>
      </g>
     </g>
    </g>
    <g id="xtick_37">
     <g id="line2d_82">
      <g>
       <use xlink:href="#mf00527e2b8" x="885.128884" y="520.7175" style="stroke: #000000"/>
      </g>
     </g>
     <g id="line2d_83">
      <g>
       <use xlink:href="#m3a01e7aa2c" x="885.128884" y="21.7575" style="stroke: #000000"/>
      </g>
     </g>
    </g>
    <g id="xtick_38">
     <g id="line2d_84">
      <g>
       <use xlink:href="#mf00527e2b8" x="907.967576" y="520.7175" style="stroke: #000000"/>
      </g>
     </g>
     <g id="line2d_85">
      <g>
       <use xlink:href="#m3a01e7aa2c" x="907.967576" y="21.7575" style="stroke: #000000"/>
      </g>
     </g>
    </g>
    <g id="xtick_39">
     <g id="line2d_86">
      <g>
       <use xlink:href="#mf00527e2b8" x="953.64496" y="520.7175" style="stroke: #000000"/>
      </g>
     </g>
     <g id="line2d_87">
      <g>
       <use xlink:href="#m3a01e7aa2c" x="953.64496" y="21.7575" style="stroke: #000000"/>
      </g>
     </g>
    </g>
    <g id="xtick_40">
     <g id="line2d_88">
      <g>
       <use xlink:href="#mf00527e2b8" x="976.483652" y="520.7175" style="stroke: #000000"/>
      </g>
     </g>
     <g id="line2d_89">
      <g>
       <use xlink:href="#m3a01e7aa2c" x="976.483652" y="21.7575" style="stroke: #000000"/>
      </g>
     </g>
    </g>
    <g id="xtick_41">
     <g id="line2d_90">
      <g>
       <use xlink:href="#mf00527e2b8" x="999.322344" y="520.7175" style="stroke: #000000"/>
      </g>
     </g>
     <g id="line2d_91">
      <g>
       <use xlink:href="#m3a01e7aa2c" x="999.322344" y="21.7575" style="stroke: #000000"/>
      </g>
     </g>
    </g>
    <g id="xtick_42">
     <g id="line2d_92">
      <g>
       <use xlink:href="#mf00527e2b8" x="1022.161036" y="520.7175" style="stroke: #000000"/>
      </g>
     </g>
     <g id="line2d_93">
      <g>
       <use xlink:href="#m3a01e7aa2c" x="1022.161036" y="21.7575" style="stroke: #000000"/>
      </g>
     </g>
    </g>
    <g id="xtick_43">
     <g id="line2d_94">
      <g>
       <use xlink:href="#mf00527e2b8" x="1067.83842" y="520.7175" style="stroke: #000000"/>
      </g>
     </g>
     <g id="line2d_95">
      <g>
       <use xlink:href="#m3a01e7aa2c" x="1067.83842" y="21.7575" style="stroke: #000000"/>
      </g>
     </g>
    </g>
    <g id="text_10">
     <!-- Time(s) -->
     <g transform="translate(558.01375 555.86) scale(0.16 -0.16)">
      <defs>
       <path id="DejaVuSans-54" d="M -19 4666 
L 3928 4666 
L 3928 4134 
L 2272 4134 
L 2272 0 
L 1638 0 
L 1638 4134 
L -19 4134 
L -19 4666 
z
" transform="scale(0.015625)"/>
       <path id="DejaVuSans-69" d="M 603 3500 
L 1178 3500 
L 1178 0 
L 603 0 
L 603 3500 
z
M 603 4863 
L 1178 4863 
L 1178 4134 
L 603 4134 
L 603 4863 
z
" transform="scale(0.015625)"/>
       <path id="DejaVuSans-6d" d="M 3328 2828 
Q 3544 3216 3844 3400 
Q 4144 3584 4550 3584 
Q 5097 3584 5394 3201 
Q 5691 2819 5691 2113 
L 5691 0 
L 5113 0 
L 5113 2094 
Q 5113 2597 4934 2840 
Q 4756 3084 4391 3084 
Q 3944 3084 3684 2787 
Q 3425 2491 3425 1978 
L 3425 0 
L 2847 0 
L 2847 2094 
Q 2847 2600 2669 2842 
Q 2491 3084 2119 3084 
Q 1678 3084 1418 2786 
Q 1159 2488 1159 1978 
L 1159 0 
L 581 0 
L 581 3500 
L 1159 3500 
L 1159 2956 
Q 1356 3278 1631 3431 
Q 1906 3584 2284 3584 
Q 2666 3584 2933 3390 
Q 3200 3197 3328 2828 
z
" transform="scale(0.015625)"/>
       <path id="DejaVuSans-65" d="M 3597 1894 
L 3597 1613 
L 953 1613 
Q 991 1019 1311 708 
Q 1631 397 2203 397 
Q 2534 397 2845 478 
Q 3156 559 3463 722 
L 3463 178 
Q 3153 47 2828 -22 
Q 2503 -91 2169 -91 
Q 1331 -91 842 396 
Q 353 884 353 1716 
Q 353 2575 817 3079 
Q 1281 3584 2069 3584 
Q 2775 3584 3186 3129 
Q 3597 2675 3597 1894 
z
M 3022 2063 
Q 3016 2534 2758 2815 
Q 2500 3097 2075 3097 
Q 1594 3097 1305 2825 
Q 1016 2553 972 2059 
L 3022 2063 
z
" transform="scale(0.015625)"/>
       <path id="DejaVuSans-28" d="M 1984 4856 
Q 1566 4138 1362 3434 
Q 1159 2731 1159 2009 
Q 1159 1288 1364 580 
Q 1569 -128 1984 -844 
L 1484 -844 
Q 1016 -109 783 600 
Q 550 1309 550 2009 
Q 550 2706 781 3412 
Q 1013 4119 1484 4856 
L 1984 4856 
z
" transform="scale(0.015625)"/>
       <path id="DejaVuSans-73" d="M 2834 3397 
L 2834 2853 
Q 2591 2978 2328 3040 
Q 2066 3103 1784 3103 
Q 1356 3103 1142 2972 
Q 928 2841 928 2578 
Q 928 2378 1081 2264 
Q 1234 2150 1697 2047 
L 1894 2003 
Q 2506 1872 2764 1633 
Q 3022 1394 3022 966 
Q 3022 478 2636 193 
Q 2250 -91 1575 -91 
Q 1294 -91 989 -36 
Q 684 19 347 128 
L 347 722 
Q 666 556 975 473 
Q 1284 391 1588 391 
Q 1994 391 2212 530 
Q 2431 669 2431 922 
Q 2431 1156 2273 1281 
Q 2116 1406 1581 1522 
L 1381 1569 
Q 847 1681 609 1914 
Q 372 2147 372 2553 
Q 372 3047 722 3315 
Q 1072 3584 1716 3584 
Q 2034 3584 2315 3537 
Q 2597 3491 2834 3397 
z
" transform="scale(0.015625)"/>
       <path id="DejaVuSans-29" d="M 513 4856 
L 1013 4856 
Q 1481 4119 1714 3412 
Q 1947 2706 1947 2009 
Q 1947 1309 1714 600 
Q 1481 -109 1013 -844 
L 513 -844 
Q 928 -128 1133 580 
Q 1338 1288 1338 2009 
Q 1338 2731 1133 3434 
Q 928 4138 513 4856 
z
" transform="scale(0.015625)"/>
      </defs>
      <use xlink:href="#DejaVuSans-54"/>
      <use xlink:href="#DejaVuSans-69" x="57.958984"/>
      <use xlink:href="#DejaVuSans-6d" x="85.742188"/>
      <use xlink:href="#DejaVuSans-65" x="183.154297"/>
      <use xlink:href="#DejaVuSans-28" x="244.677734"/>
      <use xlink:href="#DejaVuSans-73" x="283.691406"/>
      <use xlink:href="#DejaVuSans-29" x="335.791016"/>
     </g>
    </g>
   </g>
   <g id="matplotlib.axis_2">
    <g id="ytick_1">
     <g id="line2d_96">
      <path d="M 85.7975 437.873278 
L 1090.1975 437.873278 
" clip-path="url(#pf34ce87b5c)" style="fill: none; stroke-dasharray: 1.85,0.8; stroke-dashoffset: 0; stroke: #000000; stroke-opacity: 0.5; stroke-width: 0.5"/>
     </g>
     <g id="line2d_97">
      <defs>
       <path id="m79438bca3a" d="M 0 0 
L 6 0 
" style="stroke: #000000"/>
      </defs>
      <g>
       <use xlink:href="#m79438bca3a" x="85.7975" y="437.873278" style="stroke: #000000"/>
      </g>
     </g>
     <g id="line2d_98">
      <defs>
       <path id="m6bf19fb299" d="M 0 0 
L -6 0 
" style="stroke: #000000"/>
      </defs>
      <g>
       <use xlink:href="#m6bf19fb299" x="1090.1975" y="437.873278" style="stroke: #000000"/>
      </g>
     </g>
     <g id="text_11">
      <!-- −0.010 -->
      <g transform="translate(23.085 443.952028) scale(0.16 -0.16)">
       <defs>
        <path id="DejaVuSans-2212" d="M 678 2272 
L 4684 2272 
L 4684 1741 
L 678 1741 
L 678 2272 
z
" transform="scale(0.015625)"/>
        <path id="DejaVuSans-2e" d="M 684 794 
L 1344 794 
L 1344 0 
L 684 0 
L 684 794 
z
" transform="scale(0.015625)"/>
       </defs>
       <use xlink:href="#DejaVuSans-2212"/>
       <use xlink:href="#DejaVuSans-30" x="83.789062"/>
       <use xlink:href="#DejaVuSans-2e" x="147.412109"/>
       <use xlink:href="#DejaVuSans-30" x="179.199219"/>
       <use xlink:href="#DejaVuSans-31" x="242.822266"/>
       <use xlink:href="#DejaVuSans-30" x="306.445312"/>
      </g>
     </g>
    </g>
    <g id="ytick_2">
     <g id="line2d_99">
      <path d="M 85.7975 340.605254 
L 1090.1975 340.605254 
" clip-path="url(#pf34ce87b5c)" style="fill: none; stroke-dasharray: 1.85,0.8; stroke-dashoffset: 0; stroke: #000000; stroke-opacity: 0.5; stroke-width: 0.5"/>
     </g>
     <g id="line2d_100">
      <g>
       <use xlink:href="#m79438bca3a" x="85.7975" y="340.605254" style="stroke: #000000"/>
      </g>
     </g>
     <g id="line2d_101">
      <g>
       <use xlink:href="#m6bf19fb299" x="1090.1975" y="340.605254" style="stroke: #000000"/>
      </g>
     </g>
     <g id="text_12">
      <!-- −0.005 -->
      <g transform="translate(23.085 346.684004) scale(0.16 -0.16)">
       <use xlink:href="#DejaVuSans-2212"/>
       <use xlink:href="#DejaVuSans-30" x="83.789062"/>
       <use xlink:href="#DejaVuSans-2e" x="147.412109"/>
       <use xlink:href="#DejaVuSans-30" x="179.199219"/>
       <use xlink:href="#DejaVuSans-30" x="242.822266"/>
       <use xlink:href="#DejaVuSans-35" x="306.445312"/>
      </g>
     </g>
    </g>
    <g id="ytick_3">
     <g id="line2d_102">
      <path d="M 85.7975 243.337231 
L 1090.1975 243.337231 
" clip-path="url(#pf34ce87b5c)" style="fill: none; stroke-dasharray: 1.85,0.8; stroke-dashoffset: 0; stroke: #000000; stroke-opacity: 0.5; stroke-width: 0.5"/>
     </g>
     <g id="line2d_103">
      <g>
       <use xlink:href="#m79438bca3a" x="85.7975" y="243.337231" style="stroke: #000000"/>
      </g>
     </g>
     <g id="line2d_104">
      <g>
       <use xlink:href="#m6bf19fb299" x="1090.1975" y="243.337231" style="stroke: #000000"/>
      </g>
     </g>
     <g id="text_13">
      <!-- 0.000 -->
      <g transform="translate(36.4925 249.415981) scale(0.16 -0.16)">
       <use xlink:href="#DejaVuSans-30"/>
       <use xlink:href="#DejaVuSans-2e" x="63.623047"/>
       <use xlink:href="#DejaVuSans-30" x="95.410156"/>
       <use xlink:href="#DejaVuSans-30" x="159.033203"/>
       <use xlink:href="#DejaVuSans-30" x="222.65625"/>
      </g>
     </g>
    </g>
    <g id="ytick_4">
     <g id="line2d_105">
      <path d="M 85.7975 146.069207 
L 1090.1975 146.069207 
" clip-path="url(#pf34ce87b5c)" style="fill: none; stroke-dasharray: 1.85,0.8; stroke-dashoffset: 0; stroke: #000000; stroke-opacity: 0.5; stroke-width: 0.5"/>
     </g>
     <g id="line2d_106">
      <g>
       <use xlink:href="#m79438bca3a" x="85.7975" y="146.069207" style="stroke: #000000"/>
      </g>
     </g>
     <g id="line2d_107">
      <g>
       <use xlink:href="#m6bf19fb299" x="1090.1975" y="146.069207" style="stroke: #000000"/>
      </g>
     </g>
     <g id="text_14">
      <!-- 0.005 -->
      <g transform="translate(36.4925 152.147957) scale(0.16 -0.16)">
       <use xlink:href="#DejaVuSans-30"/>
       <use xlink:href="#DejaVuSans-2e" x="63.623047"/>
       <use xlink:href="#DejaVuSans-30" x="95.410156"/>
       <use xlink:href="#DejaVuSans-30" x="159.033203"/>
       <use xlink:href="#DejaVuSans-35" x="222.65625"/>
      </g>
     </g>
    </g>
    <g id="ytick_5">
     <g id="line2d_108">
      <path d="M 85.7975 48.801184 
L 1090.1975 48.801184 
" clip-path="url(#pf34ce87b5c)" style="fill: none; stroke-dasharray: 1.85,0.8; stroke-dashoffset: 0; stroke: #000000; stroke-opacity: 0.5; stroke-width: 0.5"/>
     </g>
     <g id="line2d_109">
      <g>
       <use xlink:href="#m79438bca3a" x="85.7975" y="48.801184" style="stroke: #000000"/>
      </g>
     </g>
     <g id="line2d_110">
      <g>
       <use xlink:href="#m6bf19fb299" x="1090.1975" y="48.801184" style="stroke: #000000"/>
      </g>
     </g>
     <g id="text_15">
      <!-- 0.010 -->
      <g transform="translate(36.4925 54.879934) scale(0.16 -0.16)">
       <use xlink:href="#DejaVuSans-30"/>
       <use xlink:href="#DejaVuSans-2e" x="63.623047"/>
       <use xlink:href="#DejaVuSans-30" x="95.410156"/>
       <use xlink:href="#DejaVuSans-31" x="159.033203"/>
       <use xlink:href="#DejaVuSans-30" x="222.65625"/>
      </g>
     </g>
    </g>
    <g id="ytick_6">
     <g id="line2d_111">
      <defs>
       <path id="m812609e12a" d="M 0 0 
L 3 0 
" style="stroke: #000000"/>
      </defs>
      <g>
       <use xlink:href="#m812609e12a" x="85.7975" y="515.687696" style="stroke: #000000"/>
      </g>
     </g>
     <g id="line2d_112">
      <defs>
       <path id="m127256370e" d="M 0 0 
L -3 0 
" style="stroke: #000000"/>
      </defs>
      <g>
       <use xlink:href="#m127256370e" x="1090.1975" y="515.687696" style="stroke: #000000"/>
      </g>
     </g>
    </g>
    <g id="ytick_7">
     <g id="line2d_113">
      <g>
       <use xlink:href="#m812609e12a" x="85.7975" y="496.234092" style="stroke: #000000"/>
      </g>
     </g>
     <g id="line2d_114">
      <g>
       <use xlink:href="#m127256370e" x="1090.1975" y="496.234092" style="stroke: #000000"/>
      </g>
     </g>
    </g>
    <g id="ytick_8">
     <g id="line2d_115">
      <g>
       <use xlink:href="#m812609e12a" x="85.7975" y="476.780487" style="stroke: #000000"/>
      </g>
     </g>
     <g id="line2d_116">
      <g>
       <use xlink:href="#m127256370e" x="1090.1975" y="476.780487" style="stroke: #000000"/>
      </g>
     </g>
    </g>
    <g id="ytick_9">
     <g id="line2d_117">
      <g>
       <use xlink:href="#m812609e12a" x="85.7975" y="457.326882" style="stroke: #000000"/>
      </g>
     </g>
     <g id="line2d_118">
      <g>
       <use xlink:href="#m127256370e" x="1090.1975" y="457.326882" style="stroke: #000000"/>
      </g>
     </g>
    </g>
    <g id="ytick_10">
     <g id="line2d_119">
      <g>
       <use xlink:href="#m812609e12a" x="85.7975" y="418.419673" style="stroke: #000000"/>
      </g>
     </g>
     <g id="line2d_120">
      <g>
       <use xlink:href="#m127256370e" x="1090.1975" y="418.419673" style="stroke: #000000"/>
      </g>
     </g>
    </g>
    <g id="ytick_11">
     <g id="line2d_121">
      <g>
       <use xlink:href="#m812609e12a" x="85.7975" y="398.966068" style="stroke: #000000"/>
      </g>
     </g>
     <g id="line2d_122">
      <g>
       <use xlink:href="#m127256370e" x="1090.1975" y="398.966068" style="stroke: #000000"/>
      </g>
     </g>
    </g>
    <g id="ytick_12">
     <g id="line2d_123">
      <g>
       <use xlink:href="#m812609e12a" x="85.7975" y="379.512464" style="stroke: #000000"/>
      </g>
     </g>
     <g id="line2d_124">
      <g>
       <use xlink:href="#m127256370e" x="1090.1975" y="379.512464" style="stroke: #000000"/>
      </g>
     </g>
    </g>
    <g id="ytick_13">
     <g id="line2d_125">
      <g>
       <use xlink:href="#m812609e12a" x="85.7975" y="360.058859" style="stroke: #000000"/>
      </g>
     </g>
     <g id="line2d_126">
      <g>
       <use xlink:href="#m127256370e" x="1090.1975" y="360.058859" style="stroke: #000000"/>
      </g>
     </g>
    </g>
    <g id="ytick_14">
     <g id="line2d_127">
      <g>
       <use xlink:href="#m812609e12a" x="85.7975" y="321.151649" style="stroke: #000000"/>
      </g>
     </g>
     <g id="line2d_128">
      <g>
       <use xlink:href="#m127256370e" x="1090.1975" y="321.151649" style="stroke: #000000"/>
      </g>
     </g>
    </g>
    <g id="ytick_15">
     <g id="line2d_129">
      <g>
       <use xlink:href="#m812609e12a" x="85.7975" y="301.698045" style="stroke: #000000"/>
      </g>
     </g>
     <g id="line2d_130">
      <g>
       <use xlink:href="#m127256370e" x="1090.1975" y="301.698045" style="stroke: #000000"/>
      </g>
     </g>
    </g>
    <g id="ytick_16">
     <g id="line2d_131">
      <g>
       <use xlink:href="#m812609e12a" x="85.7975" y="282.24444" style="stroke: #000000"/>
      </g>
     </g>
     <g id="line2d_132">
      <g>
       <use xlink:href="#m127256370e" x="1090.1975" y="282.24444" style="stroke: #000000"/>
      </g>
     </g>
    </g>
    <g id="ytick_17">
     <g id="line2d_133">
      <g>
       <use xlink:href="#m812609e12a" x="85.7975" y="262.790835" style="stroke: #000000"/>
      </g>
     </g>
     <g id="line2d_134">
      <g>
       <use xlink:href="#m127256370e" x="1090.1975" y="262.790835" style="stroke: #000000"/>
      </g>
     </g>
    </g>
    <g id="ytick_18">
     <g id="line2d_135">
      <g>
       <use xlink:href="#m812609e12a" x="85.7975" y="223.883626" style="stroke: #000000"/>
      </g>
     </g>
     <g id="line2d_136">
      <g>
       <use xlink:href="#m127256370e" x="1090.1975" y="223.883626" style="stroke: #000000"/>
      </g>
     </g>
    </g>
    <g id="ytick_19">
     <g id="line2d_137">
      <g>
       <use xlink:href="#m812609e12a" x="85.7975" y="204.430021" style="stroke: #000000"/>
      </g>
     </g>
     <g id="line2d_138">
      <g>
       <use xlink:href="#m127256370e" x="1090.1975" y="204.430021" style="stroke: #000000"/>
      </g>
     </g>
    </g>
    <g id="ytick_20">
     <g id="line2d_139">
      <g>
       <use xlink:href="#m812609e12a" x="85.7975" y="184.976416" style="stroke: #000000"/>
      </g>
     </g>
     <g id="line2d_140">
      <g>
       <use xlink:href="#m127256370e" x="1090.1975" y="184.976416" style="stroke: #000000"/>
      </g>
     </g>
    </g>
    <g id="ytick_21">
     <g id="line2d_141">
      <g>
       <use xlink:href="#m812609e12a" x="85.7975" y="165.522812" style="stroke: #000000"/>
      </g>
     </g>
     <g id="line2d_142">
      <g>
       <use xlink:href="#m127256370e" x="1090.1975" y="165.522812" style="stroke: #000000"/>
      </g>
     </g>
    </g>
    <g id="ytick_22">
     <g id="line2d_143">
      <g>
       <use xlink:href="#m812609e12a" x="85.7975" y="126.615602" style="stroke: #000000"/>
      </g>
     </g>
     <g id="line2d_144">
      <g>
       <use xlink:href="#m127256370e" x="1090.1975" y="126.615602" style="stroke: #000000"/>
      </g>
     </g>
    </g>
    <g id="ytick_23">
     <g id="line2d_145">
      <g>
       <use xlink:href="#m812609e12a" x="85.7975" y="107.161998" style="stroke: #000000"/>
      </g>
     </g>
     <g id="line2d_146">
      <g>
       <use xlink:href="#m127256370e" x="1090.1975" y="107.161998" style="stroke: #000000"/>
      </g>
     </g>
    </g>
    <g id="ytick_24">
     <g id="line2d_147">
      <g>
       <use xlink:href="#m812609e12a" x="85.7975" y="87.708393" style="stroke: #000000"/>
      </g>
     </g>
     <g id="line2d_148">
      <g>
       <use xlink:href="#m127256370e" x="1090.1975" y="87.708393" style="stroke: #000000"/>
      </g>
     </g>
    </g>
    <g id="ytick_25">
     <g id="line2d_149">
      <g>
       <use xlink:href="#m812609e12a" x="85.7975" y="68.254788" style="stroke: #000000"/>
      </g>
     </g>
     <g id="line2d_150">
      <g>
       <use xlink:href="#m127256370e" x="1090.1975" y="68.254788" style="stroke: #000000"/>
      </g>
     </g>
    </g>
    <g id="ytick_26">
     <g id="line2d_151">
      <g>
       <use xlink:href="#m812609e12a" x="85.7975" y="29.347579" style="stroke: #000000"/>
      </g>
     </g>
     <g id="line2d_152">
      <g>
       <use xlink:href="#m127256370e" x="1090.1975" y="29.347579" style="stroke: #000000"/>
      </g>
     </g>
    </g>
    <g id="text_16">
     <!-- IDR (%) -->
     <g transform="translate(15.7575 301.7025) rotate(-90) scale(0.16 -0.16)">
      <defs>
       <path id="DejaVuSans-49" d="M 628 4666 
L 1259 4666 
L 1259 0 
L 628 0 
L 628 4666 
z
" transform="scale(0.015625)"/>
       <path id="DejaVuSans-44" d="M 1259 4147 
L 1259 519 
L 2022 519 
Q 2988 519 3436 956 
Q 3884 1394 3884 2338 
Q 3884 3275 3436 3711 
Q 2988 4147 2022 4147 
L 1259 4147 
z
M 628 4666 
L 1925 4666 
Q 3281 4666 3915 4102 
Q 4550 3538 4550 2338 
Q 4550 1131 3912 565 
Q 3275 0 1925 0 
L 628 0 
L 628 4666 
z
" transform="scale(0.015625)"/>
       <path id="DejaVuSans-52" d="M 2841 2188 
Q 3044 2119 3236 1894 
Q 3428 1669 3622 1275 
L 4263 0 
L 3584 0 
L 2988 1197 
Q 2756 1666 2539 1819 
Q 2322 1972 1947 1972 
L 1259 1972 
L 1259 0 
L 628 0 
L 628 4666 
L 2053 4666 
Q 2853 4666 3247 4331 
Q 3641 3997 3641 3322 
Q 3641 2881 3436 2590 
Q 3231 2300 2841 2188 
z
M 1259 4147 
L 1259 2491 
L 2053 2491 
Q 2509 2491 2742 2702 
Q 2975 2913 2975 3322 
Q 2975 3731 2742 3939 
Q 2509 4147 2053 4147 
L 1259 4147 
z
" transform="scale(0.015625)"/>
       <path id="DejaVuSans-20" transform="scale(0.015625)"/>
       <path id="DejaVuSans-25" d="M 4653 2053 
Q 4381 2053 4226 1822 
Q 4072 1591 4072 1178 
Q 4072 772 4226 539 
Q 4381 306 4653 306 
Q 4919 306 5073 539 
Q 5228 772 5228 1178 
Q 5228 1588 5073 1820 
Q 4919 2053 4653 2053 
z
M 4653 2450 
Q 5147 2450 5437 2106 
Q 5728 1763 5728 1178 
Q 5728 594 5436 251 
Q 5144 -91 4653 -91 
Q 4153 -91 3862 251 
Q 3572 594 3572 1178 
Q 3572 1766 3864 2108 
Q 4156 2450 4653 2450 
z
M 1428 4353 
Q 1159 4353 1004 4120 
Q 850 3888 850 3481 
Q 850 3069 1003 2837 
Q 1156 2606 1428 2606 
Q 1700 2606 1854 2837 
Q 2009 3069 2009 3481 
Q 2009 3884 1853 4118 
Q 1697 4353 1428 4353 
z
M 4250 4750 
L 4750 4750 
L 1831 -91 
L 1331 -91 
L 4250 4750 
z
M 1428 4750 
Q 1922 4750 2215 4408 
Q 2509 4066 2509 3481 
Q 2509 2891 2217 2550 
Q 1925 2209 1428 2209 
Q 931 2209 642 2551 
Q 353 2894 353 3481 
Q 353 4063 643 4406 
Q 934 4750 1428 4750 
z
" transform="scale(0.015625)"/>
      </defs>
      <use xlink:href="#DejaVuSans-49"/>
      <use xlink:href="#DejaVuSans-44" x="29.492188"/>
      <use xlink:href="#DejaVuSans-52" x="106.494141"/>
      <use xlink:href="#DejaVuSans-20" x="175.976562"/>
      <use xlink:href="#DejaVuSans-28" x="207.763672"/>
      <use xlink:href="#DejaVuSans-25" x="246.777344"/>
      <use xlink:href="#DejaVuSans-29" x="341.796875"/>
     </g>
    </g>
   </g>
   <g id="line2d_153">
    <path d="M 131.452045 243.337231 
L 131.908819 245.692899 
L 132.822367 260.66402 
L 133.279141 257.092363 
L 133.735915 239.679696 
L 134.192689 214.899661 
L 134.649462 203.202736 
L 135.106236 218.139799 
L 136.019784 296.08357 
L 136.476558 305.688757 
L 136.933332 265.52486 
L 137.390105 203.602144 
L 137.846879 174.104052 
L 138.303653 203.238037 
L 138.760427 263.909252 
L 139.217201 296.635425 
L 139.673975 273.801826 
L 140.130748 227.609289 
L 140.587522 207.190265 
L 141.044296 227.174356 
L 141.50107 257.502791 
L 141.957844 263.813927 
L 142.871391 220.587489 
L 143.328165 224.366208 
L 144.241713 289.187498 
L 144.698487 288.046745 
L 145.612035 207.658716 
L 146.068808 190.728638 
L 146.525582 207.024054 
L 146.982356 233.153194 
L 147.43913 251.318091 
L 147.895904 260.994549 
L 148.352678 265.200491 
L 148.809451 266.219205 
L 149.266225 264.265333 
L 149.722999 255.287817 
L 150.179773 233.555634 
L 150.636547 205.97046 
L 151.093321 195.22299 
L 151.550094 219.112189 
L 152.006868 263.06422 
L 152.463642 288.273671 
L 152.920416 273.036073 
L 153.37719 235.762679 
L 153.833964 213.068118 
L 154.290738 220.16165 
L 155.204285 261.579732 
L 155.661059 261.383503 
L 156.117833 249.964179 
L 156.574607 242.385454 
L 157.031381 238.011522 
L 157.488154 231.778739 
L 157.944928 223.894793 
L 158.401702 224.165881 
L 159.31525 254.529269 
L 159.772024 256.24536 
L 160.685571 242.653725 
L 161.142345 242.71126 
L 161.599119 246.243414 
L 162.055893 248.292175 
L 162.512667 247.433058 
L 163.426214 237.093938 
L 163.882988 239.729942 
L 164.339762 248.568849 
L 164.796536 254.075842 
L 165.25331 248.625502 
L 165.710084 235.140429 
L 166.166857 230.059405 
L 167.080405 252.656222 
L 167.537179 250.471973 
L 167.993953 238.441198 
L 168.450727 232.023797 
L 168.9075 238.127889 
L 169.364274 249.106469 
L 169.821048 253.49329 
L 170.277822 246.006135 
L 170.734596 232.394115 
L 171.19137 230.413274 
L 172.104917 263.739129 
L 172.561691 260.81125 
L 173.475239 215.032423 
L 173.932013 215.378467 
L 174.84556 259.397039 
L 175.302334 268.452821 
L 175.759108 263.412731 
L 176.672656 247.594531 
L 177.586203 223.653031 
L 178.042977 220.793436 
L 178.499751 231.301127 
L 178.956525 247.576418 
L 179.413299 256.997863 
L 179.870073 255.366373 
L 180.326846 250.002828 
L 180.78362 249.061018 
L 181.240394 250.38826 
L 181.697168 246.057995 
L 182.610716 226.688821 
L 183.06749 227.353404 
L 184.437811 259.229405 
L 184.894585 265.347354 
L 185.351359 266.782089 
L 185.808133 255.404257 
L 186.72168 200.717365 
L 187.178454 199.688085 
L 187.635228 235.498339 
L 188.092002 280.067819 
L 188.548776 294.962915 
L 189.005549 270.618856 
L 189.462323 231.267365 
L 189.919097 210.642301 
L 190.375871 219.485983 
L 190.832645 240.23472 
L 191.289419 254.700758 
L 191.746193 254.814492 
L 192.202966 242.974304 
L 192.65974 238.883495 
L 193.573288 266.365055 
L 194.030062 264.323505 
L 194.486836 245.72493 
L 194.943609 221.098687 
L 195.400383 202.585524 
L 195.857157 204.744332 
L 196.313931 234.254389 
L 196.770705 280.371037 
L 197.227479 309.319405 
L 197.684252 291.270522 
L 198.5978 182.335696 
L 199.054574 181.916664 
L 199.968122 276.830121 
L 200.424896 285.071889 
L 201.338443 231.664757 
L 201.795217 222.454971 
L 202.251991 234.863967 
L 202.708765 256.428206 
L 203.165539 263.246718 
L 204.079086 212.598562 
L 204.53586 220.565766 
L 205.449408 295.274285 
L 205.906182 291.270637 
L 206.819729 200.330083 
L 207.276503 188.444913 
L 207.733277 219.637045 
L 208.190051 262.760839 
L 208.646825 281.418842 
L 209.103599 267.894828 
L 210.017146 213.292539 
L 210.47392 213.245253 
L 211.387468 254.412586 
L 211.844242 252.925193 
L 212.301015 235.844419 
L 212.757789 227.624325 
L 213.214563 245.390814 
L 213.671337 273.004935 
L 214.128111 273.328489 
L 215.041658 207.356946 
L 215.498432 208.48469 
L 216.41198 274.053241 
L 216.868754 277.341632 
L 217.325528 243.136263 
L 217.782301 200.221336 
L 218.239075 187.228577 
L 218.695849 218.648337 
L 219.152623 271.103136 
L 219.609397 301.097335 
L 220.066171 285.753913 
L 220.522945 241.83915 
L 220.979718 209.336299 
L 221.436492 215.666003 
L 221.893266 246.609578 
L 222.35004 263.287839 
L 222.806814 247.292258 
L 223.263588 217.361231 
L 223.720361 211.801786 
L 224.177135 244.933089 
L 224.633909 287.095013 
L 225.090683 301.377505 
L 225.547457 277.141596 
L 226.004231 236.63555 
L 226.461004 214.304242 
L 226.917778 218.688033 
L 227.374552 234.145862 
L 227.831326 242.448724 
L 228.2881 240.972686 
L 228.744874 246.143509 
L 229.201648 259.618118 
L 229.658421 261.879857 
L 230.571969 226.87914 
L 231.028743 221.312516 
L 231.942291 239.07213 
L 232.399064 242.736956 
L 232.855838 242.147327 
L 233.769386 236.712406 
L 234.22616 237.404387 
L 234.682934 241.192501 
L 235.139707 240.906795 
L 235.596481 234.835803 
L 236.053255 231.33416 
L 236.510029 239.133595 
L 236.966803 258.409793 
L 237.423577 270.43685 
L 237.880351 257.859388 
L 238.337124 235.141801 
L 238.793898 225.572361 
L 239.250672 233.281993 
L 239.707446 246.836447 
L 240.16422 253.121742 
L 240.620994 248.478208 
L 241.077767 239.356895 
L 241.534541 234.725284 
L 241.991315 239.572508 
L 242.448089 249.601715 
L 242.904863 253.504237 
L 243.361637 245.782831 
L 243.81841 231.90653 
L 244.275184 229.604548 
L 245.188732 275.022652 
L 245.645506 271.754734 
L 246.559054 208.81962 
L 247.015827 215.848619 
L 247.472601 251.534954 
L 247.929375 277.248309 
L 248.386149 271.070315 
L 249.299697 222.893887 
L 249.75647 211.296087 
L 250.213244 213.228323 
L 250.670018 236.175074 
L 251.126792 270.703867 
L 251.583566 288.868926 
L 252.04034 274.71332 
L 252.953887 213.601066 
L 253.410661 208.06218 
L 253.867435 219.936244 
L 255.69453 282.332575 
L 256.151304 273.999358 
L 257.064852 207.688864 
L 257.521626 200.938927 
L 258.435173 249.868377 
L 258.891947 261.583507 
L 259.805495 274.396487 
L 260.262269 268.346476 
L 261.175816 215.12917 
L 261.63259 209.709716 
L 262.089364 228.862958 
L 262.546138 256.909446 
L 263.002912 272.142883 
L 263.459686 264.882428 
L 264.373233 226.286347 
L 264.830007 223.089789 
L 265.286781 233.945708 
L 265.743555 252.273071 
L 266.200329 262.81918 
L 266.657103 250.397744 
L 267.113876 222.601179 
L 267.57065 206.318566 
L 268.027424 219.420361 
L 268.940972 282.164275 
L 269.397746 288.88065 
L 269.854519 268.25008 
L 270.768067 200.655484 
L 271.224841 202.034088 
L 272.138389 258.632139 
L 272.595162 263.854385 
L 273.50871 237.676988 
L 273.965484 242.226463 
L 274.422258 256.294761 
L 274.879032 262.945636 
L 275.335806 252.23824 
L 275.792579 235.664772 
L 276.249353 230.160809 
L 276.706127 236.043259 
L 277.162901 245.574277 
L 277.619675 251.049715 
L 278.076449 247.54094 
L 278.533222 239.74321 
L 278.989996 240.165395 
L 279.44677 252.82517 
L 279.903544 262.099305 
L 280.360318 251.324147 
L 280.817092 227.691588 
L 281.273865 214.549293 
L 281.730639 224.289359 
L 282.187413 246.478735 
L 282.644187 261.391075 
L 283.100961 261.982332 
L 283.557735 253.740773 
L 284.471282 234.122002 
L 285.38483 221.968573 
L 285.841604 220.419626 
L 286.298378 227.585178 
L 287.211925 262.965561 
L 287.668699 266.655553 
L 288.125473 251.07782 
L 288.582247 231.167126 
L 289.039021 225.307627 
L 289.495795 230.911802 
L 289.952568 233.399582 
L 290.409342 234.513178 
L 290.866116 246.912304 
L 291.32289 266.080895 
L 291.779664 273.675985 
L 292.236438 263.226745 
L 292.693211 246.006432 
L 293.149985 235.430111 
L 293.606759 235.598478 
L 294.520307 251.137322 
L 294.977081 248.818866 
L 295.890628 232.842568 
L 296.347402 229.777416 
L 296.804176 236.046951 
L 297.26095 249.694647 
L 297.717724 257.311434 
L 298.174498 251.482039 
L 298.631271 238.530024 
L 299.088045 229.795375 
L 299.544819 230.611786 
L 300.001593 241.779769 
L 300.458367 258.489657 
L 300.915141 269.808671 
L 301.371914 266.61123 
L 302.285462 233.64116 
L 302.742236 230.362016 
L 303.19901 235.748937 
L 303.655784 237.617387 
L 304.112558 232.867017 
L 304.569331 230.010054 
L 305.026105 234.54133 
L 305.482879 241.714092 
L 305.939653 243.768148 
L 306.396427 242.300204 
L 306.853201 247.468168 
L 307.309974 258.874741 
L 307.766748 264.674033 
L 308.223522 259.98101 
L 309.593844 236.571667 
L 310.050617 229.227159 
L 310.507391 234.661668 
L 310.964165 251.181181 
L 311.420939 262.880418 
L 311.877713 261.869375 
L 312.334487 254.652062 
L 312.791261 254.092078 
L 313.248034 260.639226 
L 313.704808 254.380828 
L 314.618356 191.106271 
L 315.07513 188.190833 
L 315.531904 219.910656 
L 315.988677 261.770633 
L 316.445451 283.424589 
L 316.902225 272.454553 
L 317.815773 210.955591 
L 318.272547 216.549101 
L 318.72932 249.571866 
L 319.186094 260.012558 
L 320.099642 196.811532 
L 320.556416 226.789653 
L 321.01319 290.058805 
L 321.469964 311.579005 
L 321.926737 264.582423 
L 322.383511 197.476009 
L 322.840285 170.428767 
L 323.297059 194.31341 
L 323.753833 235.104696 
L 324.210607 254.646776 
L 325.124154 245.0798 
L 325.580928 260.403445 
L 326.037702 284.202993 
L 326.494476 284.416989 
L 326.95125 244.745579 
L 327.408023 194.897831 
L 327.864797 186.76858 
L 328.321571 239.071484 
L 328.778345 307.033225 
L 329.235119 322.17259 
L 329.691893 267.984878 
L 330.148666 196.853749 
L 330.60544 170.798843 
L 331.062214 201.72819 
L 331.518988 253.706484 
L 331.975762 282.111569 
L 332.432536 271.499036 
L 332.88931 243.554659 
L 333.346083 227.86143 
L 333.802857 231.467202 
L 334.716405 257.171037 
L 335.629953 277.287517 
L 336.086726 291.599488 
L 336.5435 299.415077 
L 337.000274 288.076509 
L 337.457048 254.002033 
L 337.913822 207.104915 
L 338.370596 171.815768 
L 338.827369 173.374981 
L 339.284143 212.865324 
L 339.740917 265.533299 
L 340.197691 297.459709 
L 340.654465 285.854626 
L 341.568013 203.423946 
L 342.024786 210.215292 
L 342.938334 318.62694 
L 343.395108 338.860499 
L 343.851882 314.247713 
L 344.308656 255.716969 
L 345.222203 98.037559 
L 345.678977 44.4375 
L 346.135751 45.08937 
L 346.592525 99.345926 
L 348.41962 449.058762 
L 348.876394 458.034417 
L 349.333168 400.971288 
L 350.246716 161.715226 
L 350.703489 90.996852 
L 351.160263 94.847001 
L 352.530585 248.310932 
L 352.987359 266.005119 
L 353.444132 269.372673 
L 353.900906 279.032613 
L 354.814454 330.229674 
L 355.271228 303.967727 
L 356.184775 134.333213 
L 356.641549 102.657387 
L 357.098323 152.298743 
L 358.011871 364.265442 
L 358.468645 417.22758 
L 358.925419 397.628361 
L 360.29574 177.290711 
L 360.752514 163.228193 
L 361.209288 203.334675 
L 361.666062 258.759295 
L 362.122835 274.45729 
L 362.579609 232.791174 
L 363.036383 168.733761 
L 363.493157 142.05312 
L 363.949931 185.448371 
L 364.406705 265.677109 
L 364.863478 318.334506 
L 365.320252 309.795248 
L 366.2338 197.331794 
L 366.690574 196.803038 
L 367.604121 295.761547 
L 368.060895 276.674853 
L 368.974443 146.187633 
L 369.431217 149.976924 
L 369.887991 216.896336 
L 370.344765 303.097872 
L 370.801538 353.08173 
L 371.258312 340.367624 
L 372.628634 149.389326 
L 373.085408 143.844915 
L 373.542181 169.290597 
L 374.455729 251.818636 
L 374.912503 296.735761 
L 375.369277 323.294945 
L 375.826051 317.059465 
L 376.282824 295.541435 
L 376.739598 293.345666 
L 377.196372 314.160009 
L 377.653146 316.466165 
L 378.10992 266.138094 
L 378.566694 184.392987 
L 379.023468 130.281589 
L 379.480241 150.678516 
L 380.393789 316.200981 
L 380.850563 350.271143 
L 381.307337 332.972653 
L 381.764111 271.983643 
L 382.677658 93.466519 
L 383.134432 81.593807 
L 383.591206 148.56039 
L 384.04798 237.310407 
L 384.504754 297.558991 
L 384.961527 319.998744 
L 385.418301 314.778729 
L 385.875075 288.810111 
L 386.331849 252.799279 
L 386.788623 225.68756 
L 387.245397 210.092897 
L 387.702171 190.19715 
L 388.158944 164.851012 
L 388.615718 159.152328 
L 389.072492 199.702019 
L 389.98604 366.200575 
L 390.442814 411.928476 
L 390.899587 386.193625 
L 391.356361 287.109588 
L 391.813135 160.03397 
L 392.269909 77.572535 
L 392.726683 79.805994 
L 393.64023 202.926843 
L 394.097004 225.913594 
L 394.553778 232.088162 
L 395.010552 267.714975 
L 395.9241 416.836222 
L 396.380874 400.346548 
L 397.294421 178.420044 
L 397.751195 114.136186 
L 398.207969 112.882239 
L 398.664743 148.715781 
L 399.121517 211.223626 
L 400.035064 374.500531 
L 400.491838 389.59892 
L 400.948612 318.218993 
L 401.405386 216.280897 
L 401.86216 176.375568 
L 402.318933 227.379476 
L 402.775707 303.413592 
L 403.232481 323.519427 
L 403.689255 275.514033 
L 404.146029 212.494604 
L 404.602803 196.074229 
L 405.51635 293.52657 
L 405.973124 301.896902 
L 406.429898 265.577644 
L 407.343446 184.097728 
L 407.80022 155.900576 
L 408.256993 141.035336 
L 408.713767 142.441875 
L 409.170541 161.415863 
L 409.627315 217.567314 
L 410.540863 377.078131 
L 410.997636 381.270648 
L 411.45441 330.74257 
L 412.367958 208.417208 
L 412.824732 180.122364 
L 413.281506 184.341047 
L 413.738279 207.127689 
L 414.651827 281.320949 
L 415.108601 295.817759 
L 415.565375 265.820785 
L 416.478923 152.372506 
L 416.935696 135.893631 
L 417.39247 166.483754 
L 418.306018 291.817963 
L 418.762792 329.693864 
L 419.219566 320.585104 
L 419.676339 262.4192 
L 420.133113 189.585784 
L 420.589887 150.395446 
L 421.046661 172.803482 
L 421.960209 313.293076 
L 422.416982 323.624494 
L 422.873756 266.583511 
L 423.33053 185.009387 
L 423.787304 140.585621 
L 424.244078 169.984834 
L 425.157626 332.318793 
L 425.614399 363.526653 
L 426.071173 338.884879 
L 426.527947 264.104288 
L 426.984721 167.975231 
L 427.441495 98.439136 
L 427.898269 93.691666 
L 428.355042 169.826234 
L 429.26859 449.794582 
L 429.725364 498.0375 
L 430.182138 418.123886 
L 431.095685 131.330064 
L 431.552459 75.602875 
L 432.009233 85.811278 
L 432.466007 128.239321 
L 433.379555 251.341253 
L 433.836329 317.09226 
L 434.293102 359.505872 
L 434.749876 373.909151 
L 435.20665 368.215948 
L 435.663424 339.991392 
L 436.120198 282.341047 
L 437.033745 149.137737 
L 437.490519 112.186186 
L 437.947293 104.33607 
L 438.404067 130.518501 
L 438.860841 190.815668 
L 439.774388 331.124255 
L 440.231162 352.206433 
L 440.687936 330.952781 
L 442.058258 216.071481 
L 442.515031 192.992224 
L 442.971805 183.456364 
L 443.428579 185.054322 
L 443.885353 201.968718 
L 444.342127 238.507799 
L 445.255675 331.897459 
L 445.712448 339.500352 
L 446.169222 287.329331 
L 446.625996 199.624781 
L 447.08277 142.311981 
L 447.539544 156.585179 
L 447.996318 213.283142 
L 448.453091 252.283175 
L 448.909865 248.472564 
L 449.366639 221.481202 
L 449.823413 205.99979 
L 450.280187 221.463109 
L 451.193734 288.375263 
L 451.650508 287.272195 
L 452.107282 257.761836 
L 452.564056 235.45642 
L 453.02083 255.284788 
L 453.477604 306.769556 
L 453.934378 333.78146 
L 454.391151 296.852728 
L 454.847925 231.019885 
L 455.304699 198.839823 
L 455.761473 207.120699 
L 456.218247 218.523875 
L 456.675021 210.108723 
L 457.588568 156.212829 
L 458.045342 160.418296 
L 458.502116 214.167596 
L 458.95889 295.890468 
L 459.415664 357.329328 
L 459.872437 350.668385 
L 460.785985 175.344837 
L 461.242759 144.117034 
L 461.699533 181.314331 
L 462.613081 306.108279 
L 463.069854 342.929254 
L 463.526628 346.299864 
L 463.983402 304.399681 
L 464.89695 160.739965 
L 465.353724 133.795834 
L 465.810497 150.700025 
L 467.180819 297.114953 
L 467.637593 303.326058 
L 468.094367 271.135903 
L 468.55114 221.691631 
L 469.007914 190.485142 
L 469.464688 199.790867 
L 470.83501 317.00605 
L 471.291784 301.217405 
L 472.205331 218.73905 
L 472.662105 209.073737 
L 473.118879 232.232392 
L 473.575653 264.392531 
L 474.032427 276.887876 
L 474.945974 239.10787 
L 475.402748 256.238583 
L 475.859522 301.921285 
L 476.316296 321.78034 
L 476.77307 280.195695 
L 477.686617 142.938923 
L 478.143391 125.382652 
L 478.600165 139.791405 
L 479.056939 184.334685 
L 480.42726 407.194103 
L 480.884034 403.680347 
L 481.340808 335.86265 
L 482.254356 157.548481 
L 482.71113 130.245185 
L 483.167903 154.902091 
L 484.081451 271.610271 
L 484.538225 294.45525 
L 484.994999 269.604766 
L 485.908546 166.246926 
L 486.36532 147.626984 
L 486.822094 160.19932 
L 488.192416 245.730716 
L 488.649189 258.543832 
L 489.105963 263.498913 
L 489.562737 261.727374 
L 490.019511 255.441919 
L 490.476285 264.646578 
L 491.389833 345.285079 
L 491.846606 327.07597 
L 492.760154 183.706356 
L 493.216928 174.235007 
L 493.673702 235.454779 
L 494.130476 312.307451 
L 494.587249 307.879355 
L 495.500797 110.816704 
L 495.957571 65.926691 
L 496.414345 81.767838 
L 496.871119 142.200283 
L 497.784666 341.416876 
L 498.24144 405.250375 
L 498.698214 413.447251 
L 499.154988 374.287404 
L 500.068536 215.419542 
L 500.525309 138.898168 
L 500.982083 106.744511 
L 501.438857 147.972559 
L 502.352405 340.143382 
L 502.809179 363.917856 
L 503.265952 328.492364 
L 504.1795 208.784489 
L 504.636274 180.125353 
L 505.093048 187.083287 
L 506.006595 234.934211 
L 506.463369 242.974146 
L 506.920143 241.167893 
L 507.376917 242.059744 
L 507.833691 256.242886 
L 508.747239 294.165162 
L 509.204012 307.825211 
L 509.660786 315.525712 
L 510.11756 289.332253 
L 511.031108 114.255908 
L 511.487882 73.744698 
L 511.944655 131.154661 
L 512.858203 371.733267 
L 513.314977 411.887917 
L 513.771751 371.27358 
L 514.685298 206.5307 
L 515.142072 160.414906 
L 515.598846 163.343738 
L 516.969168 286.062188 
L 517.425941 296.956801 
L 517.882715 281.64592 
L 519.253037 157.158394 
L 519.709811 170.660775 
L 521.080132 328.16069 
L 521.536906 321.375392 
L 521.99368 277.022363 
L 522.450454 220.857738 
L 522.907228 180.759382 
L 523.364001 171.601923 
L 523.820775 189.76701 
L 525.191097 274.664233 
L 525.647871 273.478822 
L 526.104644 237.836714 
L 526.561418 189.449728 
L 527.018192 169.024207 
L 527.474966 195.433767 
L 528.388514 291.395595 
L 528.845288 301.111334 
L 529.758835 269.158481 
L 531.129157 245.983002 
L 531.585931 247.405933 
L 532.499478 281.386508 
L 532.956252 289.379025 
L 533.413026 279.70618 
L 533.8698 247.762642 
L 534.326574 203.306492 
L 534.783347 169.875995 
L 535.240121 171.660005 
L 536.153669 248.043406 
L 536.610443 268.306113 
L 537.067217 272.292018 
L 537.523991 273.593654 
L 537.980764 272.013902 
L 538.437538 259.979096 
L 539.351086 210.912388 
L 539.80786 197.700021 
L 540.264634 210.762995 
L 540.721407 243.110963 
L 541.178181 267.172909 
L 541.634955 263.952127 
L 542.091729 244.604514 
L 542.548503 235.230362 
L 543.005277 246.194188 
L 543.46205 265.046132 
L 543.918824 270.950353 
L 544.375598 252.965318 
L 545.289146 195.987575 
L 545.74592 185.423678 
L 546.202694 193.2216 
L 546.659467 225.727542 
L 547.573015 315.113581 
L 548.029789 332.502734 
L 548.486563 314.251461 
L 548.943337 257.719671 
L 549.40011 185.624911 
L 549.856884 140.730668 
L 550.313658 149.788496 
L 551.68398 300.15573 
L 552.140753 310.438791 
L 552.597527 302.223573 
L 553.054301 284.142198 
L 553.511075 259.913246 
L 554.424623 202.498578 
L 554.881396 194.448853 
L 555.33817 207.656126 
L 556.251718 251.520274 
L 556.708492 257.362544 
L 557.165266 249.280616 
L 557.62204 236.861107 
L 558.078813 233.082986 
L 558.535587 240.121703 
L 558.992361 250.816271 
L 559.449135 257.477075 
L 559.905909 256.535204 
L 560.362683 252.421499 
L 561.27623 248.833965 
L 561.733004 246.291837 
L 562.189778 251.749277 
L 563.103326 289.165484 
L 563.560099 297.549361 
L 564.016873 276.159532 
L 564.930421 195.139317 
L 565.387195 183.017533 
L 565.843969 193.438744 
L 566.757516 225.354032 
L 567.671064 253.766927 
L 568.127838 267.305291 
L 568.584612 271.465529 
L 569.041386 264.509638 
L 569.498159 253.75749 
L 569.954933 247.667292 
L 570.411707 246.343615 
L 570.868481 245.768923 
L 571.325255 245.778015 
L 571.782029 244.90655 
L 572.238802 236.502733 
L 573.15235 207.969982 
L 573.609124 208.341378 
L 574.065898 225.574123 
L 574.522672 249.13165 
L 574.979446 262.852471 
L 575.436219 257.845666 
L 576.349767 225.567446 
L 576.806541 221.872543 
L 577.263315 227.050449 
L 578.633636 256.834344 
L 579.09041 261.552484 
L 579.547184 256.977044 
L 580.003958 239.796659 
L 580.460732 216.892948 
L 580.917505 205.154719 
L 581.374279 215.093688 
L 582.287827 258.323823 
L 582.744601 262.477732 
L 583.658149 249.401355 
L 584.114922 251.457928 
L 584.571696 256.217575 
L 585.02847 250.894396 
L 585.485244 237.886121 
L 585.942018 230.803698 
L 586.855565 235.847324 
L 587.312339 236.078186 
L 587.769113 241.743123 
L 588.682661 265.850984 
L 589.139435 270.148374 
L 589.596208 269.530769 
L 590.052982 270.726977 
L 590.509756 270.227867 
L 590.96653 257.041412 
L 591.880078 211.817535 
L 592.336851 216.665811 
L 592.793625 252.404936 
L 593.250399 298.599895 
L 593.707173 318.699848 
L 594.163947 291.758886 
L 595.077495 178.851083 
L 595.534268 154.545851 
L 595.991042 162.331951 
L 596.447816 195.246955 
L 597.361364 284.982945 
L 597.818138 297.340538 
L 598.274911 271.912082 
L 598.731685 230.024417 
L 599.188459 202.357529 
L 599.645233 200.534218 
L 600.102007 218.686789 
L 601.015554 264.499274 
L 601.472328 275.947176 
L 602.385876 290.125563 
L 602.84265 287.368816 
L 603.299424 264.427862 
L 603.756198 229.193048 
L 604.212971 205.013984 
L 604.669745 208.306934 
L 605.583293 247.86172 
L 606.040067 245.314138 
L 606.496841 230.695285 
L 606.953614 225.059359 
L 607.410388 237.527192 
L 607.867162 258.122651 
L 608.323936 272.887696 
L 608.78071 276.381778 
L 609.237484 270.665904 
L 609.694257 258.004225 
L 611.064579 210.672706 
L 611.521353 200.498959 
L 611.978127 204.053697 
L 612.434901 225.043628 
L 612.891674 254.861635 
L 613.348448 273.168085 
L 613.805222 267.706623 
L 614.71877 226.897155 
L 615.175544 223.775946 
L 616.089091 239.823934 
L 617.002639 245.604994 
L 617.916187 259.013655 
L 618.37296 257.618346 
L 619.286508 230.235015 
L 619.743282 227.761531 
L 620.200056 241.119545 
L 620.65683 259.702814 
L 621.113604 269.873246 
L 621.570377 264.453103 
L 622.940699 206.292321 
L 623.397473 213.215477 
L 624.31102 257.890764 
L 624.767794 267.572672 
L 625.224568 258.986425 
L 625.681342 240.72814 
L 626.138116 227.863788 
L 626.59489 231.317769 
L 627.508437 258.162275 
L 627.965211 259.434387 
L 628.421985 252.383256 
L 628.878759 247.931493 
L 629.792306 257.229666 
L 630.24908 249.05946 
L 631.162628 214.671278 
L 631.619402 213.456246 
L 632.076176 228.133253 
L 632.53295 247.229172 
L 632.989723 256.613971 
L 633.446497 252.601096 
L 633.903271 242.794279 
L 634.360045 240.266335 
L 635.273593 262.735331 
L 635.730366 263.899859 
L 636.18714 251.46298 
L 637.100688 206.101862 
L 637.557462 192.983621 
L 638.014236 202.067756 
L 639.384557 302.391665 
L 639.841331 304.644739 
L 640.298105 284.633141 
L 641.211653 223.745403 
L 641.668426 213.96325 
L 642.1252 224.137212 
L 643.038748 263.023761 
L 643.495522 267.287999 
L 643.952296 252.889678 
L 644.409069 229.781617 
L 644.865843 213.045469 
L 645.322617 214.134187 
L 646.236165 247.190348 
L 646.692939 247.63156 
L 647.149712 239.482306 
L 647.606486 239.313984 
L 648.520034 264.644889 
L 648.976808 261.510212 
L 649.890356 223.439323 
L 650.347129 229.000332 
L 651.260677 294.02128 
L 651.717451 299.4303 
L 652.174225 265.178976 
L 652.630999 215.405074 
L 653.087772 187.190875 
L 653.544546 193.707903 
L 654.458094 247.235326 
L 654.914868 262.938368 
L 655.371642 266.740981 
L 655.828415 258.215771 
L 656.741963 224.511611 
L 657.198737 219.927125 
L 657.655511 227.405964 
L 659.025832 276.050001 
L 659.482606 279.443297 
L 659.93938 268.954239 
L 660.852928 235.041232 
L 661.309702 221.188124 
L 661.766475 214.234535 
L 662.223249 221.038353 
L 662.680023 235.574004 
L 663.136797 241.409815 
L 663.593571 234.528622 
L 664.050345 229.738375 
L 664.507118 238.24654 
L 664.963892 250.068597 
L 665.420666 250.702743 
L 665.87744 243.803352 
L 666.334214 243.878656 
L 667.247761 271.809323 
L 667.704535 273.834642 
L 668.161309 257.397117 
L 668.618083 234.735162 
L 669.074857 221.475965 
L 669.531631 221.325558 
L 670.445178 237.550238 
L 670.901952 241.649966 
L 671.358726 242.406745 
L 671.8155 241.797851 
L 672.272274 242.363515 
L 672.729048 241.867005 
L 673.185821 238.634835 
L 673.642595 238.468576 
L 674.556143 252.15269 
L 675.012917 252.127789 
L 675.469691 242.442078 
L 675.926464 230.303543 
L 676.383238 222.953275 
L 676.840012 221.027001 
L 677.296786 222.292343 
L 677.75356 225.280305 
L 678.210334 226.454023 
L 678.667108 224.392553 
L 679.123881 224.800429 
L 679.580655 233.112747 
L 680.494203 259.904975 
L 680.950977 265.679128 
L 681.407751 268.813142 
L 681.864524 269.961619 
L 682.321298 262.243473 
L 683.234846 225.139942 
L 683.69162 221.876066 
L 684.148394 234.997776 
L 685.061941 270.635638 
L 685.518715 273.157633 
L 685.975489 258.985476 
L 686.432263 235.426794 
L 686.889037 217.643225 
L 687.345811 216.810815 
L 687.802584 232.464122 
L 688.716132 272.099509 
L 689.172906 277.934842 
L 689.62968 272.499933 
L 690.543227 251.219625 
L 691.913549 213.758877 
L 692.370323 218.329876 
L 693.28387 264.140303 
L 693.740644 275.353694 
L 694.197418 266.46447 
L 695.110966 230.314577 
L 695.56774 222.978021 
L 696.024514 222.813325 
L 696.481287 228.807676 
L 697.394835 251.116922 
L 697.851609 252.199009 
L 698.308383 241.176165 
L 698.765157 225.051091 
L 699.22193 215.574215 
L 699.678704 221.511714 
L 701.049026 277.104346 
L 701.5058 272.053007 
L 702.419347 224.991073 
L 702.876121 216.826492 
L 703.332895 226.789814 
L 703.789669 239.811564 
L 704.246443 242.447505 
L 704.703216 238.188942 
L 705.15999 239.696862 
L 706.073538 261.834961 
L 706.530312 261.800784 
L 707.44386 232.976743 
L 707.900633 231.410075 
L 708.814181 253.918776 
L 709.270955 253.214115 
L 710.184503 230.996001 
L 710.641276 232.124134 
L 711.554824 258.434779 
L 712.011598 263.963614 
L 712.925146 259.213922 
L 713.381919 261.280147 
L 713.838693 261.67865 
L 714.295467 252.907802 
L 715.209015 219.832801 
L 715.665789 219.912592 
L 716.579336 253.460539 
L 717.03611 256.25008 
L 717.949658 233.086615 
L 718.406432 230.348309 
L 718.863206 238.664798 
L 719.319979 251.356311 
L 719.776753 260.097894 
L 720.233527 261.990618 
L 720.690301 257.20612 
L 721.603849 242.693837 
L 722.517396 221.089769 
L 722.97417 216.241235 
L 723.430944 225.410917 
L 724.344492 261.683652 
L 724.801266 263.776594 
L 725.258039 250.74885 
L 725.714813 234.241569 
L 726.171587 226.30321 
L 726.628361 228.434794 
L 727.541909 241.241675 
L 727.998682 243.535024 
L 728.455456 242.429469 
L 728.91223 240.678146 
L 729.369004 242.370391 
L 729.825778 247.440396 
L 730.282552 250.049958 
L 730.739325 245.556284 
L 731.652873 227.056658 
L 732.109647 227.288644 
L 733.479969 248.756195 
L 733.936742 252.815389 
L 734.393516 255.853331 
L 734.85029 252.133175 
L 735.763838 224.118983 
L 736.220612 217.313932 
L 736.677385 223.791964 
L 737.590933 255.821228 
L 738.047707 263.715196 
L 738.504481 261.708372 
L 738.961255 252.8327 
L 739.418028 241.56671 
L 739.874802 233.884872 
L 740.331576 236.235633 
L 741.245124 261.377984 
L 741.701898 264.165227 
L 742.158671 256.521535 
L 742.615445 244.80998 
L 743.072219 236.562876 
L 743.528993 235.070403 
L 743.985767 239.398975 
L 744.442541 245.246493 
L 744.899315 247.3525 
L 745.356088 243.53996 
L 745.812862 237.27733 
L 746.269636 234.106458 
L 746.72641 235.187648 
L 747.183184 237.880629 
L 747.639958 241.838472 
L 748.096731 247.46978 
L 748.553505 251.555473 
L 749.010279 248.209065 
L 749.467053 237.9185 
L 749.923827 232.351799 
L 750.380601 238.695897 
L 750.837374 251.678719 
L 751.294148 260.979809 
L 751.750922 259.556617 
L 752.66447 240.042852 
L 753.121244 236.409818 
L 753.578018 237.131547 
L 754.491565 241.280301 
L 754.948339 241.575244 
L 755.405113 239.469442 
L 755.861887 236.194455 
L 756.318661 234.473529 
L 756.775434 236.547006 
L 757.688982 246.730874 
L 758.145756 247.455927 
L 758.60253 242.690473 
L 759.516077 227.571156 
L 759.972851 225.302843 
L 760.429625 228.996581 
L 760.886399 237.293793 
L 761.799947 258.014045 
L 762.256721 260.633337 
L 762.713494 256.209536 
L 763.627042 239.005989 
L 764.083816 235.573374 
L 764.54059 238.416271 
L 765.454137 251.862039 
L 765.910911 251.694074 
L 766.824459 240.922977 
L 767.281233 240.242962 
L 767.738007 243.803233 
L 768.19478 248.523033 
L 768.651554 251.400821 
L 769.108328 252.172684 
L 769.565102 251.644035 
L 770.021876 249.200561 
L 770.935424 239.72311 
L 771.392197 238.387467 
L 772.305745 244.182393 
L 772.762519 245.339754 
L 773.219293 243.510905 
L 774.13284 232.072881 
L 774.589614 229.928724 
L 775.046388 237.38886 
L 775.959936 264.968563 
L 776.41671 271.299347 
L 776.873483 268.622506 
L 777.330257 255.859961 
L 777.787031 236.879433 
L 778.243805 223.993974 
L 778.700579 225.582493 
L 779.614126 250.908116 
L 780.0709 253.39678 
L 780.527674 247.091485 
L 781.441222 230.926709 
L 781.897996 228.165852 
L 782.35477 230.640317 
L 783.725091 253.785176 
L 784.181865 255.079109 
L 784.638639 253.259977 
L 785.095413 247.592437 
L 786.00896 232.770859 
L 786.465734 232.00495 
L 787.836056 244.337078 
L 788.292829 245.335806 
L 788.749603 244.83983 
L 789.206377 243.693732 
L 789.663151 243.585683 
L 790.119925 244.29696 
L 790.576699 244.661722 
L 791.033473 244.445515 
L 791.490246 243.904167 
L 791.94702 241.871992 
L 792.860568 232.046323 
L 793.317342 232.284099 
L 793.774116 239.338456 
L 794.230889 250.285881 
L 794.687663 257.373511 
L 795.144437 253.500835 
L 795.601211 243.558152 
L 796.057985 236.615796 
L 796.514759 236.864086 
L 796.971532 242.799246 
L 797.88508 256.492214 
L 798.341854 259.451579 
L 798.798628 257.108819 
L 799.255402 249.118383 
L 800.168949 228.373242 
L 800.625723 224.198514 
L 801.082497 225.641684 
L 801.996045 237.230077 
L 802.909592 250.533338 
L 803.366366 251.983357 
L 803.82314 250.411405 
L 804.279914 250.084986 
L 804.736688 250.802694 
L 805.193462 249.932177 
L 805.650235 248.537968 
L 806.107009 248.359373 
L 806.563783 249.174962 
L 807.477331 256.010047 
L 807.934105 255.999083 
L 808.390879 251.037577 
L 808.847652 244.271348 
L 809.304426 241.358466 
L 809.7612 241.614393 
L 810.217974 239.893584 
L 811.131522 229.410455 
L 811.588295 226.925724 
L 812.045069 225.370115 
L 812.501843 224.476629 
L 812.958617 227.173491 
L 813.415391 235.332342 
L 813.872165 245.629868 
L 814.328938 251.033258 
L 814.785712 248.612071 
L 815.69926 235.221514 
L 816.156034 234.878576 
L 816.612808 240.404993 
L 817.069581 247.528952 
L 817.526355 249.854234 
L 818.439903 242.757406 
L 818.896677 243.883415 
L 819.353451 247.153895 
L 819.810225 247.194535 
L 820.266998 244.218739 
L 820.723772 242.67478 
L 821.180546 243.098735 
L 821.63732 242.751066 
L 822.094094 241.267604 
L 822.550868 242.247605 
L 823.007641 248.074478 
L 823.464415 255.853653 
L 823.921189 258.37775 
L 824.377963 252.514677 
L 825.291511 231.338193 
L 825.748284 227.057155 
L 826.205058 233.150177 
L 827.118606 257.390093 
L 827.57538 260.32065 
L 828.032154 255.815558 
L 828.945701 243.030171 
L 829.402475 238.83544 
L 829.859249 235.922546 
L 830.316023 235.385459 
L 830.772797 236.604284 
L 831.229571 236.226396 
L 831.686344 234.68639 
L 832.143118 236.333684 
L 833.056666 245.37514 
L 833.51344 245.818443 
L 834.426987 242.595123 
L 834.883761 242.788504 
L 835.340535 243.250515 
L 835.797309 241.998524 
L 836.254083 240.175878 
L 836.710857 241.335238 
L 837.624404 249.295882 
L 838.081178 248.082097 
L 839.4515 231.126694 
L 839.908274 233.023263 
L 841.278595 253.461698 
L 841.735369 254.163859 
L 842.192143 250.068402 
L 842.648917 242.752603 
L 843.10569 238.440249 
L 843.562464 242.184535 
L 844.476012 262.198737 
L 844.932786 266.462293 
L 845.38956 261.793963 
L 846.303107 234.894635 
L 846.759881 229.128868 
L 847.216655 233.171034 
L 848.130203 250.990667 
L 848.586977 252.423266 
L 849.500524 245.578141 
L 849.957298 244.697392 
L 850.870846 248.509573 
L 851.32762 246.391119 
L 851.784393 238.114197 
L 852.241167 227.689402 
L 852.697941 221.759122 
L 853.154715 224.535569 
L 854.525036 259.103208 
L 854.98181 259.280395 
L 855.895358 244.198469 
L 856.352132 241.060561 
L 857.26568 241.514732 
L 857.722453 239.846645 
L 858.636001 233.42558 
L 859.092775 233.056066 
L 859.549549 235.10815 
L 860.006323 237.732935 
L 861.376644 247.870493 
L 861.833418 245.215967 
L 862.290192 241.773931 
L 862.746966 241.839381 
L 863.660513 247.857734 
L 864.117287 249.124802 
L 864.574061 250.882534 
L 865.030835 253.323871 
L 865.487609 253.748383 
L 865.944383 251.615404 
L 866.401156 245.9683 
L 867.314704 226.872172 
L 867.771478 221.085196 
L 868.228252 220.653874 
L 868.685026 226.522706 
L 869.598573 247.257678 
L 870.055347 247.636397 
L 870.968895 227.355598 
L 871.425669 230.970304 
L 872.339216 265.516116 
L 872.79599 269.712973 
L 873.252764 261.778605 
L 874.166312 239.355348 
L 874.623086 232.337399 
L 875.079859 232.2088 
L 875.993407 242.43485 
L 877.363729 259.438564 
L 877.820502 257.119239 
L 878.73405 242.882431 
L 879.190824 242.470137 
L 879.647598 244.480983 
L 880.104372 244.27085 
L 881.017919 239.67552 
L 881.474693 240.830164 
L 882.388241 253.116493 
L 882.845015 255.05206 
L 883.301789 251.139124 
L 884.215336 238.123677 
L 884.67211 235.142878 
L 885.128884 237.629098 
L 886.042432 250.919974 
L 886.499205 253.411189 
L 886.955979 251.808599 
L 887.412753 246.795004 
L 887.869527 240.256805 
L 888.326301 235.31536 
L 888.783075 234.553847 
L 889.239848 236.844481 
L 889.696622 240.663851 
L 890.153396 245.464189 
L 890.61017 248.301626 
L 891.066944 247.593656 
L 892.437265 238.277164 
L 893.350813 229.403944 
L 893.807587 228.34715 
L 894.264361 231.430096 
L 894.721135 236.921253 
L 895.177908 240.576514 
L 895.634682 239.384038 
L 896.091456 235.093755 
L 896.54823 233.430495 
L 897.005004 237.969671 
L 897.461778 244.223472 
L 897.918551 246.636152 
L 898.375325 245.316348 
L 899.745647 237.041433 
L 900.202421 236.670035 
L 900.659194 237.30575 
L 901.572742 237.929526 
L 902.029516 239.351539 
L 902.48629 241.9378 
L 903.856611 254.59523 
L 904.313385 255.86565 
L 904.770159 252.272845 
L 905.226933 245.745926 
L 905.683707 241.775557 
L 906.140481 244.158446 
L 907.510802 260.538479 
L 907.967576 263.622299 
L 908.42435 263.938687 
L 908.881124 262.048274 
L 909.337897 257.311629 
L 910.251445 244.992758 
L 910.708219 241.365212 
L 911.621767 236.52629 
L 912.078541 236.184555 
L 912.992088 243.050957 
L 913.448862 242.754338 
L 914.36241 236.266871 
L 914.819184 235.518282 
L 915.275957 237.88619 
L 916.189505 248.11704 
L 916.646279 248.574246 
L 917.103053 244.394528 
L 918.0166 230.946067 
L 918.473374 230.834071 
L 918.930148 236.49368 
L 919.386922 240.145616 
L 919.843696 238.762815 
L 920.757244 231.277957 
L 921.214017 231.52844 
L 922.127565 236.98353 
L 922.584339 238.656218 
L 923.041113 241.123021 
L 923.95466 250.438993 
L 924.411434 251.633089 
L 924.868208 248.161772 
L 925.324982 243.07424 
L 925.781756 241.422326 
L 926.23853 244.310842 
L 927.152077 256.118675 
L 927.608851 255.702011 
L 928.065625 250.168343 
L 928.522399 246.120952 
L 928.979173 245.569775 
L 929.435946 244.843654 
L 930.349494 236.124849 
L 930.806268 235.910544 
L 931.263042 241.224999 
L 932.17659 253.737851 
L 932.633363 257.484212 
L 933.090137 259.2246 
L 933.546911 256.320947 
L 934.460459 239.099238 
L 934.917233 235.921255 
L 935.83078 240.970308 
L 936.744328 241.619216 
L 937.201102 242.674272 
L 937.657876 242.407515 
L 938.114649 239.808768 
L 938.571423 235.838958 
L 939.028197 233.541768 
L 939.484971 234.101975 
L 939.941745 236.10387 
L 940.855293 241.998092 
L 941.312066 242.086355 
L 941.76884 241.545863 
L 942.225614 243.981087 
L 942.682388 248.03985 
L 943.139162 249.317949 
L 943.595936 247.808075 
L 944.052709 245.511471 
L 944.509483 242.117276 
L 945.423031 232.621338 
L 945.879805 232.554861 
L 946.336579 237.502584 
L 947.250126 250.548277 
L 947.7069 252.224112 
L 948.163674 248.73195 
L 948.620448 243.873093 
L 949.077222 242.464666 
L 949.990769 246.427767 
L 950.904317 247.61124 
L 952.731412 253.161452 
L 953.188186 253.755639 
L 953.64496 251.498328 
L 954.101734 247.263655 
L 955.015282 235.953628 
L 955.472055 233.771004 
L 955.928829 236.745395 
L 956.385603 243.272411 
L 956.842377 247.342367 
L 957.299151 246.505277 
L 957.755925 241.55141 
L 958.669472 227.721447 
L 959.126246 226.495777 
L 959.58302 233.176874 
L 960.039794 243.626761 
L 960.496568 250.532521 
L 960.953342 250.719246 
L 961.866889 241.437974 
L 962.323663 240.719669 
L 963.693985 247.579934 
L 964.150758 248.777405 
L 964.607532 247.189664 
L 965.064306 243.809858 
L 965.52108 242.352196 
L 965.977854 242.409013 
L 966.434628 241.554334 
L 967.348175 238.242765 
L 967.804949 237.525252 
L 968.261723 237.669851 
L 968.718497 238.219036 
L 969.175271 238.206558 
L 969.632045 238.537514 
L 970.088818 240.505485 
L 971.002366 246.035231 
L 971.45914 246.635074 
L 972.372688 243.646127 
L 972.829461 243.042577 
L 973.286235 242.047568 
L 973.743009 241.401947 
L 974.199783 242.599801 
L 975.113331 249.920195 
L 975.570104 251.692244 
L 976.026878 250.69771 
L 976.483652 248.070184 
L 977.853974 237.056233 
L 978.310748 237.755666 
L 979.224295 248.508783 
L 979.681069 251.072199 
L 980.137843 250.960647 
L 980.594617 248.5697 
L 981.508164 241.545583 
L 981.964938 240.110176 
L 982.421712 239.255598 
L 982.878486 239.318143 
L 983.33526 241.577242 
L 983.792034 245.147547 
L 984.248807 246.244287 
L 985.162355 239.614218 
L 985.619129 240.4956 
L 986.075903 244.540735 
L 986.532677 246.997131 
L 986.989451 246.267641 
L 987.902998 241.320197 
L 988.359772 241.299548 
L 989.27332 245.572615 
L 989.730094 245.472411 
L 990.643641 242.730445 
L 991.100415 241.014158 
L 991.557189 239.850218 
L 992.013963 240.363994 
L 993.384284 245.379678 
L 993.841058 245.07323 
L 994.754606 242.228613 
L 995.21138 242.842387 
L 995.668154 244.560658 
L 996.124927 245.577352 
L 996.581701 245.239112 
L 998.408797 241.125775 
L 998.86557 241.168726 
L 999.322344 242.185657 
L 999.779118 243.71468 
L 1000.235892 244.763448 
L 1000.692666 244.569886 
L 1001.606213 242.093225 
L 1002.062987 242.103264 
L 1002.976535 243.907501 
L 1003.433309 244.400772 
L 1003.890083 244.499029 
L 1004.346856 244.21423 
L 1005.260404 243.108064 
L 1005.717178 242.832478 
L 1006.630726 243.126238 
L 1007.0875 243.016725 
L 1007.544273 242.723898 
L 1008.001047 242.656307 
L 1009.371369 243.483645 
L 1010.284916 243.215516 
L 1010.74169 243.085974 
L 1011.655238 243.256552 
L 1012.568786 243.453076 
L 1021.247489 243.45489 
L 1024.444906 243.356194 
L 1033.580382 243.316708 
L 1044.542955 243.27489 
L 1044.542955 243.27489 
" clip-path="url(#pf34ce87b5c)" style="fill: none; stroke: #0c5da5; stroke-width: 2; stroke-linecap: square"/>
   </g>
   <g id="patch_3">
    <path d="M 85.7975 520.7175 
L 85.7975 21.7575 
" style="fill: none; stroke: #000000; stroke-linejoin: miter; stroke-linecap: square"/>
   </g>
   <g id="patch_4">
    <path d="M 1090.1975 520.7175 
L 1090.1975 21.7575 
" style="fill: none; stroke: #000000; stroke-linejoin: miter; stroke-linecap: square"/>
   </g>
   <g id="patch_5">
    <path d="M 85.7975 520.7175 
L 1090.1975 520.7175 
" style="fill: none; stroke: #000000; stroke-linejoin: miter; stroke-linecap: square"/>
   </g>
   <g id="patch_6">
    <path d="M 85.7975 21.7575 
L 1090.1975 21.7575 
" style="fill: none; stroke: #000000; stroke-linejoin: miter; stroke-linecap: square"/>
   </g>
   <g id="text_17">
    <!-- Northridge-01 Record no. 943 -->
    <g transform="translate(469.0575 15.7575) scale(0.16 -0.16)">
     <defs>
      <path id="DejaVuSans-4e" d="M 628 4666 
L 1478 4666 
L 3547 763 
L 3547 4666 
L 4159 4666 
L 4159 0 
L 3309 0 
L 1241 3903 
L 1241 0 
L 628 0 
L 628 4666 
z
" transform="scale(0.015625)"/>
      <path id="DejaVuSans-6f" d="M 1959 3097 
Q 1497 3097 1228 2736 
Q 959 2375 959 1747 
Q 959 1119 1226 758 
Q 1494 397 1959 397 
Q 2419 397 2687 759 
Q 2956 1122 2956 1747 
Q 2956 2369 2687 2733 
Q 2419 3097 1959 3097 
z
M 1959 3584 
Q 2709 3584 3137 3096 
Q 3566 2609 3566 1747 
Q 3566 888 3137 398 
Q 2709 -91 1959 -91 
Q 1206 -91 779 398 
Q 353 888 353 1747 
Q 353 2609 779 3096 
Q 1206 3584 1959 3584 
z
" transform="scale(0.015625)"/>
      <path id="DejaVuSans-72" d="M 2631 2963 
Q 2534 3019 2420 3045 
Q 2306 3072 2169 3072 
Q 1681 3072 1420 2755 
Q 1159 2438 1159 1844 
L 1159 0 
L 581 0 
L 581 3500 
L 1159 3500 
L 1159 2956 
Q 1341 3275 1631 3429 
Q 1922 3584 2338 3584 
Q 2397 3584 2469 3576 
Q 2541 3569 2628 3553 
L 2631 2963 
z
" transform="scale(0.015625)"/>
      <path id="DejaVuSans-74" d="M 1172 4494 
L 1172 3500 
L 2356 3500 
L 2356 3053 
L 1172 3053 
L 1172 1153 
Q 1172 725 1289 603 
Q 1406 481 1766 481 
L 2356 481 
L 2356 0 
L 1766 0 
Q 1100 0 847 248 
Q 594 497 594 1153 
L 594 3053 
L 172 3053 
L 172 3500 
L 594 3500 
L 594 4494 
L 1172 4494 
z
" transform="scale(0.015625)"/>
      <path id="DejaVuSans-68" d="M 3513 2113 
L 3513 0 
L 2938 0 
L 2938 2094 
Q 2938 2591 2744 2837 
Q 2550 3084 2163 3084 
Q 1697 3084 1428 2787 
Q 1159 2491 1159 1978 
L 1159 0 
L 581 0 
L 581 4863 
L 1159 4863 
L 1159 2956 
Q 1366 3272 1645 3428 
Q 1925 3584 2291 3584 
Q 2894 3584 3203 3211 
Q 3513 2838 3513 2113 
z
" transform="scale(0.015625)"/>
      <path id="DejaVuSans-64" d="M 2906 2969 
L 2906 4863 
L 3481 4863 
L 3481 0 
L 2906 0 
L 2906 525 
Q 2725 213 2448 61 
Q 2172 -91 1784 -91 
Q 1150 -91 751 415 
Q 353 922 353 1747 
Q 353 2572 751 3078 
Q 1150 3584 1784 3584 
Q 2172 3584 2448 3432 
Q 2725 3281 2906 2969 
z
M 947 1747 
Q 947 1113 1208 752 
Q 1469 391 1925 391 
Q 2381 391 2643 752 
Q 2906 1113 2906 1747 
Q 2906 2381 2643 2742 
Q 2381 3103 1925 3103 
Q 1469 3103 1208 2742 
Q 947 2381 947 1747 
z
" transform="scale(0.015625)"/>
      <path id="DejaVuSans-67" d="M 2906 1791 
Q 2906 2416 2648 2759 
Q 2391 3103 1925 3103 
Q 1463 3103 1205 2759 
Q 947 2416 947 1791 
Q 947 1169 1205 825 
Q 1463 481 1925 481 
Q 2391 481 2648 825 
Q 2906 1169 2906 1791 
z
M 3481 434 
Q 3481 -459 3084 -895 
Q 2688 -1331 1869 -1331 
Q 1566 -1331 1297 -1286 
Q 1028 -1241 775 -1147 
L 775 -588 
Q 1028 -725 1275 -790 
Q 1522 -856 1778 -856 
Q 2344 -856 2625 -561 
Q 2906 -266 2906 331 
L 2906 616 
Q 2728 306 2450 153 
Q 2172 0 1784 0 
Q 1141 0 747 490 
Q 353 981 353 1791 
Q 353 2603 747 3093 
Q 1141 3584 1784 3584 
Q 2172 3584 2450 3431 
Q 2728 3278 2906 2969 
L 2906 3500 
L 3481 3500 
L 3481 434 
z
" transform="scale(0.015625)"/>
      <path id="DejaVuSans-2d" d="M 313 2009 
L 1997 2009 
L 1997 1497 
L 313 1497 
L 313 2009 
z
" transform="scale(0.015625)"/>
      <path id="DejaVuSans-63" d="M 3122 3366 
L 3122 2828 
Q 2878 2963 2633 3030 
Q 2388 3097 2138 3097 
Q 1578 3097 1268 2742 
Q 959 2388 959 1747 
Q 959 1106 1268 751 
Q 1578 397 2138 397 
Q 2388 397 2633 464 
Q 2878 531 3122 666 
L 3122 134 
Q 2881 22 2623 -34 
Q 2366 -91 2075 -91 
Q 1284 -91 818 406 
Q 353 903 353 1747 
Q 353 2603 823 3093 
Q 1294 3584 2113 3584 
Q 2378 3584 2631 3529 
Q 2884 3475 3122 3366 
z
" transform="scale(0.015625)"/>
      <path id="DejaVuSans-6e" d="M 3513 2113 
L 3513 0 
L 2938 0 
L 2938 2094 
Q 2938 2591 2744 2837 
Q 2550 3084 2163 3084 
Q 1697 3084 1428 2787 
Q 1159 2491 1159 1978 
L 1159 0 
L 581 0 
L 581 3500 
L 1159 3500 
L 1159 2956 
Q 1366 3272 1645 3428 
Q 1925 3584 2291 3584 
Q 2894 3584 3203 3211 
Q 3513 2838 3513 2113 
z
" transform="scale(0.015625)"/>
      <path id="DejaVuSans-39" d="M 703 97 
L 703 672 
Q 941 559 1184 500 
Q 1428 441 1663 441 
Q 2288 441 2617 861 
Q 2947 1281 2994 2138 
Q 2813 1869 2534 1725 
Q 2256 1581 1919 1581 
Q 1219 1581 811 2004 
Q 403 2428 403 3163 
Q 403 3881 828 4315 
Q 1253 4750 1959 4750 
Q 2769 4750 3195 4129 
Q 3622 3509 3622 2328 
Q 3622 1225 3098 567 
Q 2575 -91 1691 -91 
Q 1453 -91 1209 -44 
Q 966 3 703 97 
z
M 1959 2075 
Q 2384 2075 2632 2365 
Q 2881 2656 2881 3163 
Q 2881 3666 2632 3958 
Q 2384 4250 1959 4250 
Q 1534 4250 1286 3958 
Q 1038 3666 1038 3163 
Q 1038 2656 1286 2365 
Q 1534 2075 1959 2075 
z
" transform="scale(0.015625)"/>
     </defs>
     <use xlink:href="#DejaVuSans-4e"/>
     <use xlink:href="#DejaVuSans-6f" x="74.804688"/>
     <use xlink:href="#DejaVuSans-72" x="135.986328"/>
     <use xlink:href="#DejaVuSans-74" x="177.099609"/>
     <use xlink:href="#DejaVuSans-68" x="216.308594"/>
     <use xlink:href="#DejaVuSans-72" x="279.6875"/>
     <use xlink:href="#DejaVuSans-69" x="320.800781"/>
     <use xlink:href="#DejaVuSans-64" x="348.583984"/>
     <use xlink:href="#DejaVuSans-67" x="412.060547"/>
     <use xlink:href="#DejaVuSans-65" x="475.537109"/>
     <use xlink:href="#DejaVuSans-2d" x="537.060547"/>
     <use xlink:href="#DejaVuSans-30" x="573.144531"/>
     <use xlink:href="#DejaVuSans-31" x="636.767578"/>
     <use xlink:href="#DejaVuSans-20" x="700.390625"/>
     <use xlink:href="#DejaVuSans-52" x="732.177734"/>
     <use xlink:href="#DejaVuSans-65" x="797.160156"/>
     <use xlink:href="#DejaVuSans-63" x="858.683594"/>
     <use xlink:href="#DejaVuSans-6f" x="913.664062"/>
     <use xlink:href="#DejaVuSans-72" x="974.845703"/>
     <use xlink:href="#DejaVuSans-64" x="1014.208984"/>
     <use xlink:href="#DejaVuSans-20" x="1077.685547"/>
     <use xlink:href="#DejaVuSans-6e" x="1109.472656"/>
     <use xlink:href="#DejaVuSans-6f" x="1172.851562"/>
     <use xlink:href="#DejaVuSans-2e" x="1232.283203"/>
     <use xlink:href="#DejaVuSans-20" x="1264.070312"/>
     <use xlink:href="#DejaVuSans-39" x="1295.857422"/>
     <use xlink:href="#DejaVuSans-34" x="1359.480469"/>
     <use xlink:href="#DejaVuSans-33" x="1423.103516"/>
    </g>
   </g>
  </g>
 </g>
 <defs>
  <clipPath id="pf34ce87b5c">
   <rect x="85.7975" y="21.7575" width="1004.4" height="498.96"/>
  </clipPath>
 </defs>
</svg>
