<?xml version="1.0" encoding="utf-8" standalone="no"?>
<!DOCTYPE svg PUBLIC "-//W3C//DTD SVG 1.1//EN"
  "http://www.w3.org/Graphics/SVG/1.1/DTD/svg11.dtd">
<svg xmlns:xlink="http://www.w3.org/1999/xlink" width="1084.9325pt" height="562.7875pt" viewBox="0 0 1084.9325 562.7875" xmlns="http://www.w3.org/2000/svg" version="1.1">
 <metadata>
  <rdf:RDF xmlns:dc="http://purl.org/dc/elements/1.1/" xmlns:cc="http://creativecommons.org/ns#" xmlns:rdf="http://www.w3.org/1999/02/22-rdf-syntax-ns#">
   <cc:Work>
    <dc:type rdf:resource="http://purl.org/dc/dcmitype/StillImage"/>
    <dc:date>2023-05-16T14:52:30.914925</dc:date>
    <dc:format>image/svg+xml</dc:format>
    <dc:creator>
     <cc:Agent>
      <dc:title>Matplotlib v3.7.1, https://matplotlib.org/</dc:title>
     </cc:Agent>
    </dc:creator>
   </cc:Work>
  </rdf:RDF>
 </metadata>
 <defs>
  <style type="text/css">*{stroke-linejoin: round; stroke-linecap: butt}</style>
 </defs>
 <g id="figure_1">
  <g id="patch_1">
   <path d="M 0 562.7875 
L 1084.9325 562.7875 
L 1084.9325 0 
L 0 0 
z
" style="fill: #ffffff"/>
  </g>
  <g id="axes_1">
   <g id="patch_2">
    <path d="M 76.9325 520.7175 
L 1081.3325 520.7175 
L 1081.3325 21.7575 
L 76.9325 21.7575 
z
" style="fill: #ffffff"/>
   </g>
   <g id="matplotlib.axis_1">
    <g id="xtick_1">
     <g id="line2d_1">
      <path d="M 122.587045 520.7175 
L 122.587045 21.7575 
" clip-path="url(#p711fb1cbe7)" style="fill: none; stroke-dasharray: 1.85,0.8; stroke-dashoffset: 0; stroke: #000000; stroke-opacity: 0.5; stroke-width: 0.5"/>
     </g>
     <g id="line2d_2">
      <defs>
       <path id="m340fc2ffb5" d="M 0 0 
L 0 -6 
" style="stroke: #000000"/>
      </defs>
      <g>
       <use xlink:href="#m340fc2ffb5" x="122.587045" y="520.7175" style="stroke: #000000"/>
      </g>
     </g>
     <g id="line2d_3">
      <defs>
       <path id="m1d861e7a9c" d="M 0 0 
L 0 6 
" style="stroke: #000000"/>
      </defs>
      <g>
       <use xlink:href="#m1d861e7a9c" x="122.587045" y="21.7575" style="stroke: #000000"/>
      </g>
     </g>
     <g id="text_1">
      <!-- 0 -->
      <g transform="translate(117.497045 536.375) scale(0.16 -0.16)">
       <defs>
        <path id="DejaVuSans-30" d="M 2034 4250 
Q 1547 4250 1301 3770 
Q 1056 3291 1056 2328 
Q 1056 1369 1301 889 
Q 1547 409 2034 409 
Q 2525 409 2770 889 
Q 3016 1369 3016 2328 
Q 3016 3291 2770 3770 
Q 2525 4250 2034 4250 
z
M 2034 4750 
Q 2819 4750 3233 4129 
Q 3647 3509 3647 2328 
Q 3647 1150 3233 529 
Q 2819 -91 2034 -91 
Q 1250 -91 836 529 
Q 422 1150 422 2328 
Q 422 3509 836 4129 
Q 1250 4750 2034 4750 
z
" transform="scale(0.015625)"/>
       </defs>
       <use xlink:href="#DejaVuSans-30"/>
      </g>
     </g>
    </g>
    <g id="xtick_2">
     <g id="line2d_4">
      <path d="M 236.780506 520.7175 
L 236.780506 21.7575 
" clip-path="url(#p711fb1cbe7)" style="fill: none; stroke-dasharray: 1.85,0.8; stroke-dashoffset: 0; stroke: #000000; stroke-opacity: 0.5; stroke-width: 0.5"/>
     </g>
     <g id="line2d_5">
      <g>
       <use xlink:href="#m340fc2ffb5" x="236.780506" y="520.7175" style="stroke: #000000"/>
      </g>
     </g>
     <g id="line2d_6">
      <g>
       <use xlink:href="#m1d861e7a9c" x="236.780506" y="21.7575" style="stroke: #000000"/>
      </g>
     </g>
     <g id="text_2">
      <!-- 5 -->
      <g transform="translate(231.690506 536.375) scale(0.16 -0.16)">
       <defs>
        <path id="DejaVuSans-35" d="M 691 4666 
L 3169 4666 
L 3169 4134 
L 1269 4134 
L 1269 2991 
Q 1406 3038 1543 3061 
Q 1681 3084 1819 3084 
Q 2600 3084 3056 2656 
Q 3513 2228 3513 1497 
Q 3513 744 3044 326 
Q 2575 -91 1722 -91 
Q 1428 -91 1123 -41 
Q 819 9 494 109 
L 494 744 
Q 775 591 1075 516 
Q 1375 441 1709 441 
Q 2250 441 2565 725 
Q 2881 1009 2881 1497 
Q 2881 1984 2565 2268 
Q 2250 2553 1709 2553 
Q 1456 2553 1204 2497 
Q 953 2441 691 2322 
L 691 4666 
z
" transform="scale(0.015625)"/>
       </defs>
       <use xlink:href="#DejaVuSans-35"/>
      </g>
     </g>
    </g>
    <g id="xtick_3">
     <g id="line2d_7">
      <path d="M 350.973966 520.7175 
L 350.973966 21.7575 
" clip-path="url(#p711fb1cbe7)" style="fill: none; stroke-dasharray: 1.85,0.8; stroke-dashoffset: 0; stroke: #000000; stroke-opacity: 0.5; stroke-width: 0.5"/>
     </g>
     <g id="line2d_8">
      <g>
       <use xlink:href="#m340fc2ffb5" x="350.973966" y="520.7175" style="stroke: #000000"/>
      </g>
     </g>
     <g id="line2d_9">
      <g>
       <use xlink:href="#m1d861e7a9c" x="350.973966" y="21.7575" style="stroke: #000000"/>
      </g>
     </g>
     <g id="text_3">
      <!-- 10 -->
      <g transform="translate(340.793966 536.375) scale(0.16 -0.16)">
       <defs>
        <path id="DejaVuSans-31" d="M 794 531 
L 1825 531 
L 1825 4091 
L 703 3866 
L 703 4441 
L 1819 4666 
L 2450 4666 
L 2450 531 
L 3481 531 
L 3481 0 
L 794 0 
L 794 531 
z
" transform="scale(0.015625)"/>
       </defs>
       <use xlink:href="#DejaVuSans-31"/>
       <use xlink:href="#DejaVuSans-30" x="63.623047"/>
      </g>
     </g>
    </g>
    <g id="xtick_4">
     <g id="line2d_10">
      <path d="M 465.167427 520.7175 
L 465.167427 21.7575 
" clip-path="url(#p711fb1cbe7)" style="fill: none; stroke-dasharray: 1.85,0.8; stroke-dashoffset: 0; stroke: #000000; stroke-opacity: 0.5; stroke-width: 0.5"/>
     </g>
     <g id="line2d_11">
      <g>
       <use xlink:href="#m340fc2ffb5" x="465.167427" y="520.7175" style="stroke: #000000"/>
      </g>
     </g>
     <g id="line2d_12">
      <g>
       <use xlink:href="#m1d861e7a9c" x="465.167427" y="21.7575" style="stroke: #000000"/>
      </g>
     </g>
     <g id="text_4">
      <!-- 15 -->
      <g transform="translate(454.987427 536.375) scale(0.16 -0.16)">
       <use xlink:href="#DejaVuSans-31"/>
       <use xlink:href="#DejaVuSans-35" x="63.623047"/>
      </g>
     </g>
    </g>
    <g id="xtick_5">
     <g id="line2d_13">
      <path d="M 579.360887 520.7175 
L 579.360887 21.7575 
" clip-path="url(#p711fb1cbe7)" style="fill: none; stroke-dasharray: 1.85,0.8; stroke-dashoffset: 0; stroke: #000000; stroke-opacity: 0.5; stroke-width: 0.5"/>
     </g>
     <g id="line2d_14">
      <g>
       <use xlink:href="#m340fc2ffb5" x="579.360887" y="520.7175" style="stroke: #000000"/>
      </g>
     </g>
     <g id="line2d_15">
      <g>
       <use xlink:href="#m1d861e7a9c" x="579.360887" y="21.7575" style="stroke: #000000"/>
      </g>
     </g>
     <g id="text_5">
      <!-- 20 -->
      <g transform="translate(569.180887 536.375) scale(0.16 -0.16)">
       <defs>
        <path id="DejaVuSans-32" d="M 1228 531 
L 3431 531 
L 3431 0 
L 469 0 
L 469 531 
Q 828 903 1448 1529 
Q 2069 2156 2228 2338 
Q 2531 2678 2651 2914 
Q 2772 3150 2772 3378 
Q 2772 3750 2511 3984 
Q 2250 4219 1831 4219 
Q 1534 4219 1204 4116 
Q 875 4013 500 3803 
L 500 4441 
Q 881 4594 1212 4672 
Q 1544 4750 1819 4750 
Q 2544 4750 2975 4387 
Q 3406 4025 3406 3419 
Q 3406 3131 3298 2873 
Q 3191 2616 2906 2266 
Q 2828 2175 2409 1742 
Q 1991 1309 1228 531 
z
" transform="scale(0.015625)"/>
       </defs>
       <use xlink:href="#DejaVuSans-32"/>
       <use xlink:href="#DejaVuSans-30" x="63.623047"/>
      </g>
     </g>
    </g>
    <g id="xtick_6">
     <g id="line2d_16">
      <path d="M 693.554347 520.7175 
L 693.554347 21.7575 
" clip-path="url(#p711fb1cbe7)" style="fill: none; stroke-dasharray: 1.85,0.8; stroke-dashoffset: 0; stroke: #000000; stroke-opacity: 0.5; stroke-width: 0.5"/>
     </g>
     <g id="line2d_17">
      <g>
       <use xlink:href="#m340fc2ffb5" x="693.554347" y="520.7175" style="stroke: #000000"/>
      </g>
     </g>
     <g id="line2d_18">
      <g>
       <use xlink:href="#m1d861e7a9c" x="693.554347" y="21.7575" style="stroke: #000000"/>
      </g>
     </g>
     <g id="text_6">
      <!-- 25 -->
      <g transform="translate(683.374347 536.375) scale(0.16 -0.16)">
       <use xlink:href="#DejaVuSans-32"/>
       <use xlink:href="#DejaVuSans-35" x="63.623047"/>
      </g>
     </g>
    </g>
    <g id="xtick_7">
     <g id="line2d_19">
      <path d="M 807.747808 520.7175 
L 807.747808 21.7575 
" clip-path="url(#p711fb1cbe7)" style="fill: none; stroke-dasharray: 1.85,0.8; stroke-dashoffset: 0; stroke: #000000; stroke-opacity: 0.5; stroke-width: 0.5"/>
     </g>
     <g id="line2d_20">
      <g>
       <use xlink:href="#m340fc2ffb5" x="807.747808" y="520.7175" style="stroke: #000000"/>
      </g>
     </g>
     <g id="line2d_21">
      <g>
       <use xlink:href="#m1d861e7a9c" x="807.747808" y="21.7575" style="stroke: #000000"/>
      </g>
     </g>
     <g id="text_7">
      <!-- 30 -->
      <g transform="translate(797.567808 536.375) scale(0.16 -0.16)">
       <defs>
        <path id="DejaVuSans-33" d="M 2597 2516 
Q 3050 2419 3304 2112 
Q 3559 1806 3559 1356 
Q 3559 666 3084 287 
Q 2609 -91 1734 -91 
Q 1441 -91 1130 -33 
Q 819 25 488 141 
L 488 750 
Q 750 597 1062 519 
Q 1375 441 1716 441 
Q 2309 441 2620 675 
Q 2931 909 2931 1356 
Q 2931 1769 2642 2001 
Q 2353 2234 1838 2234 
L 1294 2234 
L 1294 2753 
L 1863 2753 
Q 2328 2753 2575 2939 
Q 2822 3125 2822 3475 
Q 2822 3834 2567 4026 
Q 2313 4219 1838 4219 
Q 1578 4219 1281 4162 
Q 984 4106 628 3988 
L 628 4550 
Q 988 4650 1302 4700 
Q 1616 4750 1894 4750 
Q 2613 4750 3031 4423 
Q 3450 4097 3450 3541 
Q 3450 3153 3228 2886 
Q 3006 2619 2597 2516 
z
" transform="scale(0.015625)"/>
       </defs>
       <use xlink:href="#DejaVuSans-33"/>
       <use xlink:href="#DejaVuSans-30" x="63.623047"/>
      </g>
     </g>
    </g>
    <g id="xtick_8">
     <g id="line2d_22">
      <path d="M 921.941268 520.7175 
L 921.941268 21.7575 
" clip-path="url(#p711fb1cbe7)" style="fill: none; stroke-dasharray: 1.85,0.8; stroke-dashoffset: 0; stroke: #000000; stroke-opacity: 0.5; stroke-width: 0.5"/>
     </g>
     <g id="line2d_23">
      <g>
       <use xlink:href="#m340fc2ffb5" x="921.941268" y="520.7175" style="stroke: #000000"/>
      </g>
     </g>
     <g id="line2d_24">
      <g>
       <use xlink:href="#m1d861e7a9c" x="921.941268" y="21.7575" style="stroke: #000000"/>
      </g>
     </g>
     <g id="text_8">
      <!-- 35 -->
      <g transform="translate(911.761268 536.375) scale(0.16 -0.16)">
       <use xlink:href="#DejaVuSans-33"/>
       <use xlink:href="#DejaVuSans-35" x="63.623047"/>
      </g>
     </g>
    </g>
    <g id="xtick_9">
     <g id="line2d_25">
      <path d="M 1036.134728 520.7175 
L 1036.134728 21.7575 
" clip-path="url(#p711fb1cbe7)" style="fill: none; stroke-dasharray: 1.85,0.8; stroke-dashoffset: 0; stroke: #000000; stroke-opacity: 0.5; stroke-width: 0.5"/>
     </g>
     <g id="line2d_26">
      <g>
       <use xlink:href="#m340fc2ffb5" x="1036.134728" y="520.7175" style="stroke: #000000"/>
      </g>
     </g>
     <g id="line2d_27">
      <g>
       <use xlink:href="#m1d861e7a9c" x="1036.134728" y="21.7575" style="stroke: #000000"/>
      </g>
     </g>
     <g id="text_9">
      <!-- 40 -->
      <g transform="translate(1025.954728 536.375) scale(0.16 -0.16)">
       <defs>
        <path id="DejaVuSans-34" d="M 2419 4116 
L 825 1625 
L 2419 1625 
L 2419 4116 
z
M 2253 4666 
L 3047 4666 
L 3047 1625 
L 3713 1625 
L 3713 1100 
L 3047 1100 
L 3047 0 
L 2419 0 
L 2419 1100 
L 313 1100 
L 313 1709 
L 2253 4666 
z
" transform="scale(0.015625)"/>
       </defs>
       <use xlink:href="#DejaVuSans-34"/>
       <use xlink:href="#DejaVuSans-30" x="63.623047"/>
      </g>
     </g>
    </g>
    <g id="xtick_10">
     <g id="line2d_28">
      <defs>
       <path id="m42ec0437dc" d="M 0 0 
L 0 -3 
" style="stroke: #000000"/>
      </defs>
      <g>
       <use xlink:href="#m42ec0437dc" x="99.748353" y="520.7175" style="stroke: #000000"/>
      </g>
     </g>
     <g id="line2d_29">
      <defs>
       <path id="m0b2e38a6c7" d="M 0 0 
L 0 3 
" style="stroke: #000000"/>
      </defs>
      <g>
       <use xlink:href="#m0b2e38a6c7" x="99.748353" y="21.7575" style="stroke: #000000"/>
      </g>
     </g>
    </g>
    <g id="xtick_11">
     <g id="line2d_30">
      <g>
       <use xlink:href="#m42ec0437dc" x="145.425738" y="520.7175" style="stroke: #000000"/>
      </g>
     </g>
     <g id="line2d_31">
      <g>
       <use xlink:href="#m0b2e38a6c7" x="145.425738" y="21.7575" style="stroke: #000000"/>
      </g>
     </g>
    </g>
    <g id="xtick_12">
     <g id="line2d_32">
      <g>
       <use xlink:href="#m42ec0437dc" x="168.26443" y="520.7175" style="stroke: #000000"/>
      </g>
     </g>
     <g id="line2d_33">
      <g>
       <use xlink:href="#m0b2e38a6c7" x="168.26443" y="21.7575" style="stroke: #000000"/>
      </g>
     </g>
    </g>
    <g id="xtick_13">
     <g id="line2d_34">
      <g>
       <use xlink:href="#m42ec0437dc" x="191.103122" y="520.7175" style="stroke: #000000"/>
      </g>
     </g>
     <g id="line2d_35">
      <g>
       <use xlink:href="#m0b2e38a6c7" x="191.103122" y="21.7575" style="stroke: #000000"/>
      </g>
     </g>
    </g>
    <g id="xtick_14">
     <g id="line2d_36">
      <g>
       <use xlink:href="#m42ec0437dc" x="213.941814" y="520.7175" style="stroke: #000000"/>
      </g>
     </g>
     <g id="line2d_37">
      <g>
       <use xlink:href="#m0b2e38a6c7" x="213.941814" y="21.7575" style="stroke: #000000"/>
      </g>
     </g>
    </g>
    <g id="xtick_15">
     <g id="line2d_38">
      <g>
       <use xlink:href="#m42ec0437dc" x="259.619198" y="520.7175" style="stroke: #000000"/>
      </g>
     </g>
     <g id="line2d_39">
      <g>
       <use xlink:href="#m0b2e38a6c7" x="259.619198" y="21.7575" style="stroke: #000000"/>
      </g>
     </g>
    </g>
    <g id="xtick_16">
     <g id="line2d_40">
      <g>
       <use xlink:href="#m42ec0437dc" x="282.45789" y="520.7175" style="stroke: #000000"/>
      </g>
     </g>
     <g id="line2d_41">
      <g>
       <use xlink:href="#m0b2e38a6c7" x="282.45789" y="21.7575" style="stroke: #000000"/>
      </g>
     </g>
    </g>
    <g id="xtick_17">
     <g id="line2d_42">
      <g>
       <use xlink:href="#m42ec0437dc" x="305.296582" y="520.7175" style="stroke: #000000"/>
      </g>
     </g>
     <g id="line2d_43">
      <g>
       <use xlink:href="#m0b2e38a6c7" x="305.296582" y="21.7575" style="stroke: #000000"/>
      </g>
     </g>
    </g>
    <g id="xtick_18">
     <g id="line2d_44">
      <g>
       <use xlink:href="#m42ec0437dc" x="328.135274" y="520.7175" style="stroke: #000000"/>
      </g>
     </g>
     <g id="line2d_45">
      <g>
       <use xlink:href="#m0b2e38a6c7" x="328.135274" y="21.7575" style="stroke: #000000"/>
      </g>
     </g>
    </g>
    <g id="xtick_19">
     <g id="line2d_46">
      <g>
       <use xlink:href="#m42ec0437dc" x="373.812658" y="520.7175" style="stroke: #000000"/>
      </g>
     </g>
     <g id="line2d_47">
      <g>
       <use xlink:href="#m0b2e38a6c7" x="373.812658" y="21.7575" style="stroke: #000000"/>
      </g>
     </g>
    </g>
    <g id="xtick_20">
     <g id="line2d_48">
      <g>
       <use xlink:href="#m42ec0437dc" x="396.65135" y="520.7175" style="stroke: #000000"/>
      </g>
     </g>
     <g id="line2d_49">
      <g>
       <use xlink:href="#m0b2e38a6c7" x="396.65135" y="21.7575" style="stroke: #000000"/>
      </g>
     </g>
    </g>
    <g id="xtick_21">
     <g id="line2d_50">
      <g>
       <use xlink:href="#m42ec0437dc" x="419.490042" y="520.7175" style="stroke: #000000"/>
      </g>
     </g>
     <g id="line2d_51">
      <g>
       <use xlink:href="#m0b2e38a6c7" x="419.490042" y="21.7575" style="stroke: #000000"/>
      </g>
     </g>
    </g>
    <g id="xtick_22">
     <g id="line2d_52">
      <g>
       <use xlink:href="#m42ec0437dc" x="442.328734" y="520.7175" style="stroke: #000000"/>
      </g>
     </g>
     <g id="line2d_53">
      <g>
       <use xlink:href="#m0b2e38a6c7" x="442.328734" y="21.7575" style="stroke: #000000"/>
      </g>
     </g>
    </g>
    <g id="xtick_23">
     <g id="line2d_54">
      <g>
       <use xlink:href="#m42ec0437dc" x="488.006119" y="520.7175" style="stroke: #000000"/>
      </g>
     </g>
     <g id="line2d_55">
      <g>
       <use xlink:href="#m0b2e38a6c7" x="488.006119" y="21.7575" style="stroke: #000000"/>
      </g>
     </g>
    </g>
    <g id="xtick_24">
     <g id="line2d_56">
      <g>
       <use xlink:href="#m42ec0437dc" x="510.844811" y="520.7175" style="stroke: #000000"/>
      </g>
     </g>
     <g id="line2d_57">
      <g>
       <use xlink:href="#m0b2e38a6c7" x="510.844811" y="21.7575" style="stroke: #000000"/>
      </g>
     </g>
    </g>
    <g id="xtick_25">
     <g id="line2d_58">
      <g>
       <use xlink:href="#m42ec0437dc" x="533.683503" y="520.7175" style="stroke: #000000"/>
      </g>
     </g>
     <g id="line2d_59">
      <g>
       <use xlink:href="#m0b2e38a6c7" x="533.683503" y="21.7575" style="stroke: #000000"/>
      </g>
     </g>
    </g>
    <g id="xtick_26">
     <g id="line2d_60">
      <g>
       <use xlink:href="#m42ec0437dc" x="556.522195" y="520.7175" style="stroke: #000000"/>
      </g>
     </g>
     <g id="line2d_61">
      <g>
       <use xlink:href="#m0b2e38a6c7" x="556.522195" y="21.7575" style="stroke: #000000"/>
      </g>
     </g>
    </g>
    <g id="xtick_27">
     <g id="line2d_62">
      <g>
       <use xlink:href="#m42ec0437dc" x="602.199579" y="520.7175" style="stroke: #000000"/>
      </g>
     </g>
     <g id="line2d_63">
      <g>
       <use xlink:href="#m0b2e38a6c7" x="602.199579" y="21.7575" style="stroke: #000000"/>
      </g>
     </g>
    </g>
    <g id="xtick_28">
     <g id="line2d_64">
      <g>
       <use xlink:href="#m42ec0437dc" x="625.038271" y="520.7175" style="stroke: #000000"/>
      </g>
     </g>
     <g id="line2d_65">
      <g>
       <use xlink:href="#m0b2e38a6c7" x="625.038271" y="21.7575" style="stroke: #000000"/>
      </g>
     </g>
    </g>
    <g id="xtick_29">
     <g id="line2d_66">
      <g>
       <use xlink:href="#m42ec0437dc" x="647.876963" y="520.7175" style="stroke: #000000"/>
      </g>
     </g>
     <g id="line2d_67">
      <g>
       <use xlink:href="#m0b2e38a6c7" x="647.876963" y="21.7575" style="stroke: #000000"/>
      </g>
     </g>
    </g>
    <g id="xtick_30">
     <g id="line2d_68">
      <g>
       <use xlink:href="#m42ec0437dc" x="670.715655" y="520.7175" style="stroke: #000000"/>
      </g>
     </g>
     <g id="line2d_69">
      <g>
       <use xlink:href="#m0b2e38a6c7" x="670.715655" y="21.7575" style="stroke: #000000"/>
      </g>
     </g>
    </g>
    <g id="xtick_31">
     <g id="line2d_70">
      <g>
       <use xlink:href="#m42ec0437dc" x="716.393039" y="520.7175" style="stroke: #000000"/>
      </g>
     </g>
     <g id="line2d_71">
      <g>
       <use xlink:href="#m0b2e38a6c7" x="716.393039" y="21.7575" style="stroke: #000000"/>
      </g>
     </g>
    </g>
    <g id="xtick_32">
     <g id="line2d_72">
      <g>
       <use xlink:href="#m42ec0437dc" x="739.231731" y="520.7175" style="stroke: #000000"/>
      </g>
     </g>
     <g id="line2d_73">
      <g>
       <use xlink:href="#m0b2e38a6c7" x="739.231731" y="21.7575" style="stroke: #000000"/>
      </g>
     </g>
    </g>
    <g id="xtick_33">
     <g id="line2d_74">
      <g>
       <use xlink:href="#m42ec0437dc" x="762.070424" y="520.7175" style="stroke: #000000"/>
      </g>
     </g>
     <g id="line2d_75">
      <g>
       <use xlink:href="#m0b2e38a6c7" x="762.070424" y="21.7575" style="stroke: #000000"/>
      </g>
     </g>
    </g>
    <g id="xtick_34">
     <g id="line2d_76">
      <g>
       <use xlink:href="#m42ec0437dc" x="784.909116" y="520.7175" style="stroke: #000000"/>
      </g>
     </g>
     <g id="line2d_77">
      <g>
       <use xlink:href="#m0b2e38a6c7" x="784.909116" y="21.7575" style="stroke: #000000"/>
      </g>
     </g>
    </g>
    <g id="xtick_35">
     <g id="line2d_78">
      <g>
       <use xlink:href="#m42ec0437dc" x="830.5865" y="520.7175" style="stroke: #000000"/>
      </g>
     </g>
     <g id="line2d_79">
      <g>
       <use xlink:href="#m0b2e38a6c7" x="830.5865" y="21.7575" style="stroke: #000000"/>
      </g>
     </g>
    </g>
    <g id="xtick_36">
     <g id="line2d_80">
      <g>
       <use xlink:href="#m42ec0437dc" x="853.425192" y="520.7175" style="stroke: #000000"/>
      </g>
     </g>
     <g id="line2d_81">
      <g>
       <use xlink:href="#m0b2e38a6c7" x="853.425192" y="21.7575" style="stroke: #000000"/>
      </g>
     </g>
    </g>
    <g id="xtick_37">
     <g id="line2d_82">
      <g>
       <use xlink:href="#m42ec0437dc" x="876.263884" y="520.7175" style="stroke: #000000"/>
      </g>
     </g>
     <g id="line2d_83">
      <g>
       <use xlink:href="#m0b2e38a6c7" x="876.263884" y="21.7575" style="stroke: #000000"/>
      </g>
     </g>
    </g>
    <g id="xtick_38">
     <g id="line2d_84">
      <g>
       <use xlink:href="#m42ec0437dc" x="899.102576" y="520.7175" style="stroke: #000000"/>
      </g>
     </g>
     <g id="line2d_85">
      <g>
       <use xlink:href="#m0b2e38a6c7" x="899.102576" y="21.7575" style="stroke: #000000"/>
      </g>
     </g>
    </g>
    <g id="xtick_39">
     <g id="line2d_86">
      <g>
       <use xlink:href="#m42ec0437dc" x="944.77996" y="520.7175" style="stroke: #000000"/>
      </g>
     </g>
     <g id="line2d_87">
      <g>
       <use xlink:href="#m0b2e38a6c7" x="944.77996" y="21.7575" style="stroke: #000000"/>
      </g>
     </g>
    </g>
    <g id="xtick_40">
     <g id="line2d_88">
      <g>
       <use xlink:href="#m42ec0437dc" x="967.618652" y="520.7175" style="stroke: #000000"/>
      </g>
     </g>
     <g id="line2d_89">
      <g>
       <use xlink:href="#m0b2e38a6c7" x="967.618652" y="21.7575" style="stroke: #000000"/>
      </g>
     </g>
    </g>
    <g id="xtick_41">
     <g id="line2d_90">
      <g>
       <use xlink:href="#m42ec0437dc" x="990.457344" y="520.7175" style="stroke: #000000"/>
      </g>
     </g>
     <g id="line2d_91">
      <g>
       <use xlink:href="#m0b2e38a6c7" x="990.457344" y="21.7575" style="stroke: #000000"/>
      </g>
     </g>
    </g>
    <g id="xtick_42">
     <g id="line2d_92">
      <g>
       <use xlink:href="#m42ec0437dc" x="1013.296036" y="520.7175" style="stroke: #000000"/>
      </g>
     </g>
     <g id="line2d_93">
      <g>
       <use xlink:href="#m0b2e38a6c7" x="1013.296036" y="21.7575" style="stroke: #000000"/>
      </g>
     </g>
    </g>
    <g id="xtick_43">
     <g id="line2d_94">
      <g>
       <use xlink:href="#m42ec0437dc" x="1058.97342" y="520.7175" style="stroke: #000000"/>
      </g>
     </g>
     <g id="line2d_95">
      <g>
       <use xlink:href="#m0b2e38a6c7" x="1058.97342" y="21.7575" style="stroke: #000000"/>
      </g>
     </g>
    </g>
    <g id="text_10">
     <!-- Time(s) -->
     <g transform="translate(549.14875 555.86) scale(0.16 -0.16)">
      <defs>
       <path id="DejaVuSans-54" d="M -19 4666 
L 3928 4666 
L 3928 4134 
L 2272 4134 
L 2272 0 
L 1638 0 
L 1638 4134 
L -19 4134 
L -19 4666 
z
" transform="scale(0.015625)"/>
       <path id="DejaVuSans-69" d="M 603 3500 
L 1178 3500 
L 1178 0 
L 603 0 
L 603 3500 
z
M 603 4863 
L 1178 4863 
L 1178 4134 
L 603 4134 
L 603 4863 
z
" transform="scale(0.015625)"/>
       <path id="DejaVuSans-6d" d="M 3328 2828 
Q 3544 3216 3844 3400 
Q 4144 3584 4550 3584 
Q 5097 3584 5394 3201 
Q 5691 2819 5691 2113 
L 5691 0 
L 5113 0 
L 5113 2094 
Q 5113 2597 4934 2840 
Q 4756 3084 4391 3084 
Q 3944 3084 3684 2787 
Q 3425 2491 3425 1978 
L 3425 0 
L 2847 0 
L 2847 2094 
Q 2847 2600 2669 2842 
Q 2491 3084 2119 3084 
Q 1678 3084 1418 2786 
Q 1159 2488 1159 1978 
L 1159 0 
L 581 0 
L 581 3500 
L 1159 3500 
L 1159 2956 
Q 1356 3278 1631 3431 
Q 1906 3584 2284 3584 
Q 2666 3584 2933 3390 
Q 3200 3197 3328 2828 
z
" transform="scale(0.015625)"/>
       <path id="DejaVuSans-65" d="M 3597 1894 
L 3597 1613 
L 953 1613 
Q 991 1019 1311 708 
Q 1631 397 2203 397 
Q 2534 397 2845 478 
Q 3156 559 3463 722 
L 3463 178 
Q 3153 47 2828 -22 
Q 2503 -91 2169 -91 
Q 1331 -91 842 396 
Q 353 884 353 1716 
Q 353 2575 817 3079 
Q 1281 3584 2069 3584 
Q 2775 3584 3186 3129 
Q 3597 2675 3597 1894 
z
M 3022 2063 
Q 3016 2534 2758 2815 
Q 2500 3097 2075 3097 
Q 1594 3097 1305 2825 
Q 1016 2553 972 2059 
L 3022 2063 
z
" transform="scale(0.015625)"/>
       <path id="DejaVuSans-28" d="M 1984 4856 
Q 1566 4138 1362 3434 
Q 1159 2731 1159 2009 
Q 1159 1288 1364 580 
Q 1569 -128 1984 -844 
L 1484 -844 
Q 1016 -109 783 600 
Q 550 1309 550 2009 
Q 550 2706 781 3412 
Q 1013 4119 1484 4856 
L 1984 4856 
z
" transform="scale(0.015625)"/>
       <path id="DejaVuSans-73" d="M 2834 3397 
L 2834 2853 
Q 2591 2978 2328 3040 
Q 2066 3103 1784 3103 
Q 1356 3103 1142 2972 
Q 928 2841 928 2578 
Q 928 2378 1081 2264 
Q 1234 2150 1697 2047 
L 1894 2003 
Q 2506 1872 2764 1633 
Q 3022 1394 3022 966 
Q 3022 478 2636 193 
Q 2250 -91 1575 -91 
Q 1294 -91 989 -36 
Q 684 19 347 128 
L 347 722 
Q 666 556 975 473 
Q 1284 391 1588 391 
Q 1994 391 2212 530 
Q 2431 669 2431 922 
Q 2431 1156 2273 1281 
Q 2116 1406 1581 1522 
L 1381 1569 
Q 847 1681 609 1914 
Q 372 2147 372 2553 
Q 372 3047 722 3315 
Q 1072 3584 1716 3584 
Q 2034 3584 2315 3537 
Q 2597 3491 2834 3397 
z
" transform="scale(0.015625)"/>
       <path id="DejaVuSans-29" d="M 513 4856 
L 1013 4856 
Q 1481 4119 1714 3412 
Q 1947 2706 1947 2009 
Q 1947 1309 1714 600 
Q 1481 -109 1013 -844 
L 513 -844 
Q 928 -128 1133 580 
Q 1338 1288 1338 2009 
Q 1338 2731 1133 3434 
Q 928 4138 513 4856 
z
" transform="scale(0.015625)"/>
      </defs>
      <use xlink:href="#DejaVuSans-54"/>
      <use xlink:href="#DejaVuSans-69" x="57.958984"/>
      <use xlink:href="#DejaVuSans-6d" x="85.742188"/>
      <use xlink:href="#DejaVuSans-65" x="183.154297"/>
      <use xlink:href="#DejaVuSans-28" x="244.677734"/>
      <use xlink:href="#DejaVuSans-73" x="283.691406"/>
      <use xlink:href="#DejaVuSans-29" x="335.791016"/>
     </g>
    </g>
   </g>
   <g id="matplotlib.axis_2">
    <g id="ytick_1">
     <g id="line2d_96">
      <path d="M 76.9325 466.27116 
L 1081.3325 466.27116 
" clip-path="url(#p711fb1cbe7)" style="fill: none; stroke-dasharray: 1.85,0.8; stroke-dashoffset: 0; stroke: #000000; stroke-opacity: 0.5; stroke-width: 0.5"/>
     </g>
     <g id="line2d_97">
      <defs>
       <path id="m8e75324288" d="M 0 0 
L 6 0 
" style="stroke: #000000"/>
      </defs>
      <g>
       <use xlink:href="#m8e75324288" x="76.9325" y="466.27116" style="stroke: #000000"/>
      </g>
     </g>
     <g id="line2d_98">
      <defs>
       <path id="m74505255eb" d="M 0 0 
L -6 0 
" style="stroke: #000000"/>
      </defs>
      <g>
       <use xlink:href="#m74505255eb" x="1081.3325" y="466.27116" style="stroke: #000000"/>
      </g>
     </g>
     <g id="text_11">
      <!-- −0.75 -->
      <g transform="translate(24.4 472.34991) scale(0.16 -0.16)">
       <defs>
        <path id="DejaVuSans-2212" d="M 678 2272 
L 4684 2272 
L 4684 1741 
L 678 1741 
L 678 2272 
z
" transform="scale(0.015625)"/>
        <path id="DejaVuSans-2e" d="M 684 794 
L 1344 794 
L 1344 0 
L 684 0 
L 684 794 
z
" transform="scale(0.015625)"/>
        <path id="DejaVuSans-37" d="M 525 4666 
L 3525 4666 
L 3525 4397 
L 1831 0 
L 1172 0 
L 2766 4134 
L 525 4134 
L 525 4666 
z
" transform="scale(0.015625)"/>
       </defs>
       <use xlink:href="#DejaVuSans-2212"/>
       <use xlink:href="#DejaVuSans-30" x="83.789062"/>
       <use xlink:href="#DejaVuSans-2e" x="147.412109"/>
       <use xlink:href="#DejaVuSans-37" x="179.199219"/>
       <use xlink:href="#DejaVuSans-35" x="242.822266"/>
      </g>
     </g>
    </g>
    <g id="ytick_2">
     <g id="line2d_99">
      <path d="M 76.9325 409.490078 
L 1081.3325 409.490078 
" clip-path="url(#p711fb1cbe7)" style="fill: none; stroke-dasharray: 1.85,0.8; stroke-dashoffset: 0; stroke: #000000; stroke-opacity: 0.5; stroke-width: 0.5"/>
     </g>
     <g id="line2d_100">
      <g>
       <use xlink:href="#m8e75324288" x="76.9325" y="409.490078" style="stroke: #000000"/>
      </g>
     </g>
     <g id="line2d_101">
      <g>
       <use xlink:href="#m74505255eb" x="1081.3325" y="409.490078" style="stroke: #000000"/>
      </g>
     </g>
     <g id="text_12">
      <!-- −0.50 -->
      <g transform="translate(24.4 415.568828) scale(0.16 -0.16)">
       <use xlink:href="#DejaVuSans-2212"/>
       <use xlink:href="#DejaVuSans-30" x="83.789062"/>
       <use xlink:href="#DejaVuSans-2e" x="147.412109"/>
       <use xlink:href="#DejaVuSans-35" x="179.199219"/>
       <use xlink:href="#DejaVuSans-30" x="242.822266"/>
      </g>
     </g>
    </g>
    <g id="ytick_3">
     <g id="line2d_102">
      <path d="M 76.9325 352.708996 
L 1081.3325 352.708996 
" clip-path="url(#p711fb1cbe7)" style="fill: none; stroke-dasharray: 1.85,0.8; stroke-dashoffset: 0; stroke: #000000; stroke-opacity: 0.5; stroke-width: 0.5"/>
     </g>
     <g id="line2d_103">
      <g>
       <use xlink:href="#m8e75324288" x="76.9325" y="352.708996" style="stroke: #000000"/>
      </g>
     </g>
     <g id="line2d_104">
      <g>
       <use xlink:href="#m74505255eb" x="1081.3325" y="352.708996" style="stroke: #000000"/>
      </g>
     </g>
     <g id="text_13">
      <!-- −0.25 -->
      <g transform="translate(24.4 358.787746) scale(0.16 -0.16)">
       <use xlink:href="#DejaVuSans-2212"/>
       <use xlink:href="#DejaVuSans-30" x="83.789062"/>
       <use xlink:href="#DejaVuSans-2e" x="147.412109"/>
       <use xlink:href="#DejaVuSans-32" x="179.199219"/>
       <use xlink:href="#DejaVuSans-35" x="242.822266"/>
      </g>
     </g>
    </g>
    <g id="ytick_4">
     <g id="line2d_105">
      <path d="M 76.9325 295.927914 
L 1081.3325 295.927914 
" clip-path="url(#p711fb1cbe7)" style="fill: none; stroke-dasharray: 1.85,0.8; stroke-dashoffset: 0; stroke: #000000; stroke-opacity: 0.5; stroke-width: 0.5"/>
     </g>
     <g id="line2d_106">
      <g>
       <use xlink:href="#m8e75324288" x="76.9325" y="295.927914" style="stroke: #000000"/>
      </g>
     </g>
     <g id="line2d_107">
      <g>
       <use xlink:href="#m74505255eb" x="1081.3325" y="295.927914" style="stroke: #000000"/>
      </g>
     </g>
     <g id="text_14">
      <!-- 0.00 -->
      <g transform="translate(37.8075 302.006664) scale(0.16 -0.16)">
       <use xlink:href="#DejaVuSans-30"/>
       <use xlink:href="#DejaVuSans-2e" x="63.623047"/>
       <use xlink:href="#DejaVuSans-30" x="95.410156"/>
       <use xlink:href="#DejaVuSans-30" x="159.033203"/>
      </g>
     </g>
    </g>
    <g id="ytick_5">
     <g id="line2d_108">
      <path d="M 76.9325 239.146831 
L 1081.3325 239.146831 
" clip-path="url(#p711fb1cbe7)" style="fill: none; stroke-dasharray: 1.85,0.8; stroke-dashoffset: 0; stroke: #000000; stroke-opacity: 0.5; stroke-width: 0.5"/>
     </g>
     <g id="line2d_109">
      <g>
       <use xlink:href="#m8e75324288" x="76.9325" y="239.146831" style="stroke: #000000"/>
      </g>
     </g>
     <g id="line2d_110">
      <g>
       <use xlink:href="#m74505255eb" x="1081.3325" y="239.146831" style="stroke: #000000"/>
      </g>
     </g>
     <g id="text_15">
      <!-- 0.25 -->
      <g transform="translate(37.8075 245.225581) scale(0.16 -0.16)">
       <use xlink:href="#DejaVuSans-30"/>
       <use xlink:href="#DejaVuSans-2e" x="63.623047"/>
       <use xlink:href="#DejaVuSans-32" x="95.410156"/>
       <use xlink:href="#DejaVuSans-35" x="159.033203"/>
      </g>
     </g>
    </g>
    <g id="ytick_6">
     <g id="line2d_111">
      <path d="M 76.9325 182.365749 
L 1081.3325 182.365749 
" clip-path="url(#p711fb1cbe7)" style="fill: none; stroke-dasharray: 1.85,0.8; stroke-dashoffset: 0; stroke: #000000; stroke-opacity: 0.5; stroke-width: 0.5"/>
     </g>
     <g id="line2d_112">
      <g>
       <use xlink:href="#m8e75324288" x="76.9325" y="182.365749" style="stroke: #000000"/>
      </g>
     </g>
     <g id="line2d_113">
      <g>
       <use xlink:href="#m74505255eb" x="1081.3325" y="182.365749" style="stroke: #000000"/>
      </g>
     </g>
     <g id="text_16">
      <!-- 0.50 -->
      <g transform="translate(37.8075 188.444499) scale(0.16 -0.16)">
       <use xlink:href="#DejaVuSans-30"/>
       <use xlink:href="#DejaVuSans-2e" x="63.623047"/>
       <use xlink:href="#DejaVuSans-35" x="95.410156"/>
       <use xlink:href="#DejaVuSans-30" x="159.033203"/>
      </g>
     </g>
    </g>
    <g id="ytick_7">
     <g id="line2d_114">
      <path d="M 76.9325 125.584667 
L 1081.3325 125.584667 
" clip-path="url(#p711fb1cbe7)" style="fill: none; stroke-dasharray: 1.85,0.8; stroke-dashoffset: 0; stroke: #000000; stroke-opacity: 0.5; stroke-width: 0.5"/>
     </g>
     <g id="line2d_115">
      <g>
       <use xlink:href="#m8e75324288" x="76.9325" y="125.584667" style="stroke: #000000"/>
      </g>
     </g>
     <g id="line2d_116">
      <g>
       <use xlink:href="#m74505255eb" x="1081.3325" y="125.584667" style="stroke: #000000"/>
      </g>
     </g>
     <g id="text_17">
      <!-- 0.75 -->
      <g transform="translate(37.8075 131.663417) scale(0.16 -0.16)">
       <use xlink:href="#DejaVuSans-30"/>
       <use xlink:href="#DejaVuSans-2e" x="63.623047"/>
       <use xlink:href="#DejaVuSans-37" x="95.410156"/>
       <use xlink:href="#DejaVuSans-35" x="159.033203"/>
      </g>
     </g>
    </g>
    <g id="ytick_8">
     <g id="line2d_117">
      <path d="M 76.9325 68.803584 
L 1081.3325 68.803584 
" clip-path="url(#p711fb1cbe7)" style="fill: none; stroke-dasharray: 1.85,0.8; stroke-dashoffset: 0; stroke: #000000; stroke-opacity: 0.5; stroke-width: 0.5"/>
     </g>
     <g id="line2d_118">
      <g>
       <use xlink:href="#m8e75324288" x="76.9325" y="68.803584" style="stroke: #000000"/>
      </g>
     </g>
     <g id="line2d_119">
      <g>
       <use xlink:href="#m74505255eb" x="1081.3325" y="68.803584" style="stroke: #000000"/>
      </g>
     </g>
     <g id="text_18">
      <!-- 1.00 -->
      <g transform="translate(37.8075 74.882334) scale(0.16 -0.16)">
       <use xlink:href="#DejaVuSans-31"/>
       <use xlink:href="#DejaVuSans-2e" x="63.623047"/>
       <use xlink:href="#DejaVuSans-30" x="95.410156"/>
       <use xlink:href="#DejaVuSans-30" x="159.033203"/>
      </g>
     </g>
    </g>
    <g id="ytick_9">
     <g id="line2d_120">
      <defs>
       <path id="m7138cab180" d="M 0 0 
L 3 0 
" style="stroke: #000000"/>
      </defs>
      <g>
       <use xlink:href="#m7138cab180" x="76.9325" y="511.696026" style="stroke: #000000"/>
      </g>
     </g>
     <g id="line2d_121">
      <defs>
       <path id="m2db8a26219" d="M 0 0 
L -3 0 
" style="stroke: #000000"/>
      </defs>
      <g>
       <use xlink:href="#m2db8a26219" x="1081.3325" y="511.696026" style="stroke: #000000"/>
      </g>
     </g>
    </g>
    <g id="ytick_10">
     <g id="line2d_122">
      <g>
       <use xlink:href="#m7138cab180" x="76.9325" y="500.33981" style="stroke: #000000"/>
      </g>
     </g>
     <g id="line2d_123">
      <g>
       <use xlink:href="#m2db8a26219" x="1081.3325" y="500.33981" style="stroke: #000000"/>
      </g>
     </g>
    </g>
    <g id="ytick_11">
     <g id="line2d_124">
      <g>
       <use xlink:href="#m7138cab180" x="76.9325" y="488.983593" style="stroke: #000000"/>
      </g>
     </g>
     <g id="line2d_125">
      <g>
       <use xlink:href="#m2db8a26219" x="1081.3325" y="488.983593" style="stroke: #000000"/>
      </g>
     </g>
    </g>
    <g id="ytick_12">
     <g id="line2d_126">
      <g>
       <use xlink:href="#m7138cab180" x="76.9325" y="477.627377" style="stroke: #000000"/>
      </g>
     </g>
     <g id="line2d_127">
      <g>
       <use xlink:href="#m2db8a26219" x="1081.3325" y="477.627377" style="stroke: #000000"/>
      </g>
     </g>
    </g>
    <g id="ytick_13">
     <g id="line2d_128">
      <g>
       <use xlink:href="#m7138cab180" x="76.9325" y="454.914944" style="stroke: #000000"/>
      </g>
     </g>
     <g id="line2d_129">
      <g>
       <use xlink:href="#m2db8a26219" x="1081.3325" y="454.914944" style="stroke: #000000"/>
      </g>
     </g>
    </g>
    <g id="ytick_14">
     <g id="line2d_130">
      <g>
       <use xlink:href="#m7138cab180" x="76.9325" y="443.558727" style="stroke: #000000"/>
      </g>
     </g>
     <g id="line2d_131">
      <g>
       <use xlink:href="#m2db8a26219" x="1081.3325" y="443.558727" style="stroke: #000000"/>
      </g>
     </g>
    </g>
    <g id="ytick_15">
     <g id="line2d_132">
      <g>
       <use xlink:href="#m7138cab180" x="76.9325" y="432.202511" style="stroke: #000000"/>
      </g>
     </g>
     <g id="line2d_133">
      <g>
       <use xlink:href="#m2db8a26219" x="1081.3325" y="432.202511" style="stroke: #000000"/>
      </g>
     </g>
    </g>
    <g id="ytick_16">
     <g id="line2d_134">
      <g>
       <use xlink:href="#m7138cab180" x="76.9325" y="420.846295" style="stroke: #000000"/>
      </g>
     </g>
     <g id="line2d_135">
      <g>
       <use xlink:href="#m2db8a26219" x="1081.3325" y="420.846295" style="stroke: #000000"/>
      </g>
     </g>
    </g>
    <g id="ytick_17">
     <g id="line2d_136">
      <g>
       <use xlink:href="#m7138cab180" x="76.9325" y="398.133862" style="stroke: #000000"/>
      </g>
     </g>
     <g id="line2d_137">
      <g>
       <use xlink:href="#m2db8a26219" x="1081.3325" y="398.133862" style="stroke: #000000"/>
      </g>
     </g>
    </g>
    <g id="ytick_18">
     <g id="line2d_138">
      <g>
       <use xlink:href="#m7138cab180" x="76.9325" y="386.777645" style="stroke: #000000"/>
      </g>
     </g>
     <g id="line2d_139">
      <g>
       <use xlink:href="#m2db8a26219" x="1081.3325" y="386.777645" style="stroke: #000000"/>
      </g>
     </g>
    </g>
    <g id="ytick_19">
     <g id="line2d_140">
      <g>
       <use xlink:href="#m7138cab180" x="76.9325" y="375.421429" style="stroke: #000000"/>
      </g>
     </g>
     <g id="line2d_141">
      <g>
       <use xlink:href="#m2db8a26219" x="1081.3325" y="375.421429" style="stroke: #000000"/>
      </g>
     </g>
    </g>
    <g id="ytick_20">
     <g id="line2d_142">
      <g>
       <use xlink:href="#m7138cab180" x="76.9325" y="364.065212" style="stroke: #000000"/>
      </g>
     </g>
     <g id="line2d_143">
      <g>
       <use xlink:href="#m2db8a26219" x="1081.3325" y="364.065212" style="stroke: #000000"/>
      </g>
     </g>
    </g>
    <g id="ytick_21">
     <g id="line2d_144">
      <g>
       <use xlink:href="#m7138cab180" x="76.9325" y="341.352779" style="stroke: #000000"/>
      </g>
     </g>
     <g id="line2d_145">
      <g>
       <use xlink:href="#m2db8a26219" x="1081.3325" y="341.352779" style="stroke: #000000"/>
      </g>
     </g>
    </g>
    <g id="ytick_22">
     <g id="line2d_146">
      <g>
       <use xlink:href="#m7138cab180" x="76.9325" y="329.996563" style="stroke: #000000"/>
      </g>
     </g>
     <g id="line2d_147">
      <g>
       <use xlink:href="#m2db8a26219" x="1081.3325" y="329.996563" style="stroke: #000000"/>
      </g>
     </g>
    </g>
    <g id="ytick_23">
     <g id="line2d_148">
      <g>
       <use xlink:href="#m7138cab180" x="76.9325" y="318.640346" style="stroke: #000000"/>
      </g>
     </g>
     <g id="line2d_149">
      <g>
       <use xlink:href="#m2db8a26219" x="1081.3325" y="318.640346" style="stroke: #000000"/>
      </g>
     </g>
    </g>
    <g id="ytick_24">
     <g id="line2d_150">
      <g>
       <use xlink:href="#m7138cab180" x="76.9325" y="307.28413" style="stroke: #000000"/>
      </g>
     </g>
     <g id="line2d_151">
      <g>
       <use xlink:href="#m2db8a26219" x="1081.3325" y="307.28413" style="stroke: #000000"/>
      </g>
     </g>
    </g>
    <g id="ytick_25">
     <g id="line2d_152">
      <g>
       <use xlink:href="#m7138cab180" x="76.9325" y="284.571697" style="stroke: #000000"/>
      </g>
     </g>
     <g id="line2d_153">
      <g>
       <use xlink:href="#m2db8a26219" x="1081.3325" y="284.571697" style="stroke: #000000"/>
      </g>
     </g>
    </g>
    <g id="ytick_26">
     <g id="line2d_154">
      <g>
       <use xlink:href="#m7138cab180" x="76.9325" y="273.215481" style="stroke: #000000"/>
      </g>
     </g>
     <g id="line2d_155">
      <g>
       <use xlink:href="#m2db8a26219" x="1081.3325" y="273.215481" style="stroke: #000000"/>
      </g>
     </g>
    </g>
    <g id="ytick_27">
     <g id="line2d_156">
      <g>
       <use xlink:href="#m7138cab180" x="76.9325" y="261.859264" style="stroke: #000000"/>
      </g>
     </g>
     <g id="line2d_157">
      <g>
       <use xlink:href="#m2db8a26219" x="1081.3325" y="261.859264" style="stroke: #000000"/>
      </g>
     </g>
    </g>
    <g id="ytick_28">
     <g id="line2d_158">
      <g>
       <use xlink:href="#m7138cab180" x="76.9325" y="250.503048" style="stroke: #000000"/>
      </g>
     </g>
     <g id="line2d_159">
      <g>
       <use xlink:href="#m2db8a26219" x="1081.3325" y="250.503048" style="stroke: #000000"/>
      </g>
     </g>
    </g>
    <g id="ytick_29">
     <g id="line2d_160">
      <g>
       <use xlink:href="#m7138cab180" x="76.9325" y="227.790615" style="stroke: #000000"/>
      </g>
     </g>
     <g id="line2d_161">
      <g>
       <use xlink:href="#m2db8a26219" x="1081.3325" y="227.790615" style="stroke: #000000"/>
      </g>
     </g>
    </g>
    <g id="ytick_30">
     <g id="line2d_162">
      <g>
       <use xlink:href="#m7138cab180" x="76.9325" y="216.434398" style="stroke: #000000"/>
      </g>
     </g>
     <g id="line2d_163">
      <g>
       <use xlink:href="#m2db8a26219" x="1081.3325" y="216.434398" style="stroke: #000000"/>
      </g>
     </g>
    </g>
    <g id="ytick_31">
     <g id="line2d_164">
      <g>
       <use xlink:href="#m7138cab180" x="76.9325" y="205.078182" style="stroke: #000000"/>
      </g>
     </g>
     <g id="line2d_165">
      <g>
       <use xlink:href="#m2db8a26219" x="1081.3325" y="205.078182" style="stroke: #000000"/>
      </g>
     </g>
    </g>
    <g id="ytick_32">
     <g id="line2d_166">
      <g>
       <use xlink:href="#m7138cab180" x="76.9325" y="193.721965" style="stroke: #000000"/>
      </g>
     </g>
     <g id="line2d_167">
      <g>
       <use xlink:href="#m2db8a26219" x="1081.3325" y="193.721965" style="stroke: #000000"/>
      </g>
     </g>
    </g>
    <g id="ytick_33">
     <g id="line2d_168">
      <g>
       <use xlink:href="#m7138cab180" x="76.9325" y="171.009533" style="stroke: #000000"/>
      </g>
     </g>
     <g id="line2d_169">
      <g>
       <use xlink:href="#m2db8a26219" x="1081.3325" y="171.009533" style="stroke: #000000"/>
      </g>
     </g>
    </g>
    <g id="ytick_34">
     <g id="line2d_170">
      <g>
       <use xlink:href="#m7138cab180" x="76.9325" y="159.653316" style="stroke: #000000"/>
      </g>
     </g>
     <g id="line2d_171">
      <g>
       <use xlink:href="#m2db8a26219" x="1081.3325" y="159.653316" style="stroke: #000000"/>
      </g>
     </g>
    </g>
    <g id="ytick_35">
     <g id="line2d_172">
      <g>
       <use xlink:href="#m7138cab180" x="76.9325" y="148.2971" style="stroke: #000000"/>
      </g>
     </g>
     <g id="line2d_173">
      <g>
       <use xlink:href="#m2db8a26219" x="1081.3325" y="148.2971" style="stroke: #000000"/>
      </g>
     </g>
    </g>
    <g id="ytick_36">
     <g id="line2d_174">
      <g>
       <use xlink:href="#m7138cab180" x="76.9325" y="136.940883" style="stroke: #000000"/>
      </g>
     </g>
     <g id="line2d_175">
      <g>
       <use xlink:href="#m2db8a26219" x="1081.3325" y="136.940883" style="stroke: #000000"/>
      </g>
     </g>
    </g>
    <g id="ytick_37">
     <g id="line2d_176">
      <g>
       <use xlink:href="#m7138cab180" x="76.9325" y="114.22845" style="stroke: #000000"/>
      </g>
     </g>
     <g id="line2d_177">
      <g>
       <use xlink:href="#m2db8a26219" x="1081.3325" y="114.22845" style="stroke: #000000"/>
      </g>
     </g>
    </g>
    <g id="ytick_38">
     <g id="line2d_178">
      <g>
       <use xlink:href="#m7138cab180" x="76.9325" y="102.872234" style="stroke: #000000"/>
      </g>
     </g>
     <g id="line2d_179">
      <g>
       <use xlink:href="#m2db8a26219" x="1081.3325" y="102.872234" style="stroke: #000000"/>
      </g>
     </g>
    </g>
    <g id="ytick_39">
     <g id="line2d_180">
      <g>
       <use xlink:href="#m7138cab180" x="76.9325" y="91.516017" style="stroke: #000000"/>
      </g>
     </g>
     <g id="line2d_181">
      <g>
       <use xlink:href="#m2db8a26219" x="1081.3325" y="91.516017" style="stroke: #000000"/>
      </g>
     </g>
    </g>
    <g id="ytick_40">
     <g id="line2d_182">
      <g>
       <use xlink:href="#m7138cab180" x="76.9325" y="80.159801" style="stroke: #000000"/>
      </g>
     </g>
     <g id="line2d_183">
      <g>
       <use xlink:href="#m2db8a26219" x="1081.3325" y="80.159801" style="stroke: #000000"/>
      </g>
     </g>
    </g>
    <g id="ytick_41">
     <g id="line2d_184">
      <g>
       <use xlink:href="#m7138cab180" x="76.9325" y="57.447368" style="stroke: #000000"/>
      </g>
     </g>
     <g id="line2d_185">
      <g>
       <use xlink:href="#m2db8a26219" x="1081.3325" y="57.447368" style="stroke: #000000"/>
      </g>
     </g>
    </g>
    <g id="ytick_42">
     <g id="line2d_186">
      <g>
       <use xlink:href="#m7138cab180" x="76.9325" y="46.091151" style="stroke: #000000"/>
      </g>
     </g>
     <g id="line2d_187">
      <g>
       <use xlink:href="#m2db8a26219" x="1081.3325" y="46.091151" style="stroke: #000000"/>
      </g>
     </g>
    </g>
    <g id="ytick_43">
     <g id="line2d_188">
      <g>
       <use xlink:href="#m7138cab180" x="76.9325" y="34.734935" style="stroke: #000000"/>
      </g>
     </g>
     <g id="line2d_189">
      <g>
       <use xlink:href="#m2db8a26219" x="1081.3325" y="34.734935" style="stroke: #000000"/>
      </g>
     </g>
    </g>
    <g id="ytick_44">
     <g id="line2d_190">
      <g>
       <use xlink:href="#m7138cab180" x="76.9325" y="23.378719" style="stroke: #000000"/>
      </g>
     </g>
     <g id="line2d_191">
      <g>
       <use xlink:href="#m2db8a26219" x="1081.3325" y="23.378719" style="stroke: #000000"/>
      </g>
     </g>
    </g>
    <g id="text_19">
     <!-- Absolute Roof Acceleration (m/s$^2$) -->
     <g transform="translate(17.0725 406.6775) rotate(-90) scale(0.16 -0.16)">
      <defs>
       <path id="DejaVuSans-41" d="M 2188 4044 
L 1331 1722 
L 3047 1722 
L 2188 4044 
z
M 1831 4666 
L 2547 4666 
L 4325 0 
L 3669 0 
L 3244 1197 
L 1141 1197 
L 716 0 
L 50 0 
L 1831 4666 
z
" transform="scale(0.015625)"/>
       <path id="DejaVuSans-62" d="M 3116 1747 
Q 3116 2381 2855 2742 
Q 2594 3103 2138 3103 
Q 1681 3103 1420 2742 
Q 1159 2381 1159 1747 
Q 1159 1113 1420 752 
Q 1681 391 2138 391 
Q 2594 391 2855 752 
Q 3116 1113 3116 1747 
z
M 1159 2969 
Q 1341 3281 1617 3432 
Q 1894 3584 2278 3584 
Q 2916 3584 3314 3078 
Q 3713 2572 3713 1747 
Q 3713 922 3314 415 
Q 2916 -91 2278 -91 
Q 1894 -91 1617 61 
Q 1341 213 1159 525 
L 1159 0 
L 581 0 
L 581 4863 
L 1159 4863 
L 1159 2969 
z
" transform="scale(0.015625)"/>
       <path id="DejaVuSans-6f" d="M 1959 3097 
Q 1497 3097 1228 2736 
Q 959 2375 959 1747 
Q 959 1119 1226 758 
Q 1494 397 1959 397 
Q 2419 397 2687 759 
Q 2956 1122 2956 1747 
Q 2956 2369 2687 2733 
Q 2419 3097 1959 3097 
z
M 1959 3584 
Q 2709 3584 3137 3096 
Q 3566 2609 3566 1747 
Q 3566 888 3137 398 
Q 2709 -91 1959 -91 
Q 1206 -91 779 398 
Q 353 888 353 1747 
Q 353 2609 779 3096 
Q 1206 3584 1959 3584 
z
" transform="scale(0.015625)"/>
       <path id="DejaVuSans-6c" d="M 603 4863 
L 1178 4863 
L 1178 0 
L 603 0 
L 603 4863 
z
" transform="scale(0.015625)"/>
       <path id="DejaVuSans-75" d="M 544 1381 
L 544 3500 
L 1119 3500 
L 1119 1403 
Q 1119 906 1312 657 
Q 1506 409 1894 409 
Q 2359 409 2629 706 
Q 2900 1003 2900 1516 
L 2900 3500 
L 3475 3500 
L 3475 0 
L 2900 0 
L 2900 538 
Q 2691 219 2414 64 
Q 2138 -91 1772 -91 
Q 1169 -91 856 284 
Q 544 659 544 1381 
z
M 1991 3584 
L 1991 3584 
z
" transform="scale(0.015625)"/>
       <path id="DejaVuSans-74" d="M 1172 4494 
L 1172 3500 
L 2356 3500 
L 2356 3053 
L 1172 3053 
L 1172 1153 
Q 1172 725 1289 603 
Q 1406 481 1766 481 
L 2356 481 
L 2356 0 
L 1766 0 
Q 1100 0 847 248 
Q 594 497 594 1153 
L 594 3053 
L 172 3053 
L 172 3500 
L 594 3500 
L 594 4494 
L 1172 4494 
z
" transform="scale(0.015625)"/>
       <path id="DejaVuSans-20" transform="scale(0.015625)"/>
       <path id="DejaVuSans-52" d="M 2841 2188 
Q 3044 2119 3236 1894 
Q 3428 1669 3622 1275 
L 4263 0 
L 3584 0 
L 2988 1197 
Q 2756 1666 2539 1819 
Q 2322 1972 1947 1972 
L 1259 1972 
L 1259 0 
L 628 0 
L 628 4666 
L 2053 4666 
Q 2853 4666 3247 4331 
Q 3641 3997 3641 3322 
Q 3641 2881 3436 2590 
Q 3231 2300 2841 2188 
z
M 1259 4147 
L 1259 2491 
L 2053 2491 
Q 2509 2491 2742 2702 
Q 2975 2913 2975 3322 
Q 2975 3731 2742 3939 
Q 2509 4147 2053 4147 
L 1259 4147 
z
" transform="scale(0.015625)"/>
       <path id="DejaVuSans-66" d="M 2375 4863 
L 2375 4384 
L 1825 4384 
Q 1516 4384 1395 4259 
Q 1275 4134 1275 3809 
L 1275 3500 
L 2222 3500 
L 2222 3053 
L 1275 3053 
L 1275 0 
L 697 0 
L 697 3053 
L 147 3053 
L 147 3500 
L 697 3500 
L 697 3744 
Q 697 4328 969 4595 
Q 1241 4863 1831 4863 
L 2375 4863 
z
" transform="scale(0.015625)"/>
       <path id="DejaVuSans-63" d="M 3122 3366 
L 3122 2828 
Q 2878 2963 2633 3030 
Q 2388 3097 2138 3097 
Q 1578 3097 1268 2742 
Q 959 2388 959 1747 
Q 959 1106 1268 751 
Q 1578 397 2138 397 
Q 2388 397 2633 464 
Q 2878 531 3122 666 
L 3122 134 
Q 2881 22 2623 -34 
Q 2366 -91 2075 -91 
Q 1284 -91 818 406 
Q 353 903 353 1747 
Q 353 2603 823 3093 
Q 1294 3584 2113 3584 
Q 2378 3584 2631 3529 
Q 2884 3475 3122 3366 
z
" transform="scale(0.015625)"/>
       <path id="DejaVuSans-72" d="M 2631 2963 
Q 2534 3019 2420 3045 
Q 2306 3072 2169 3072 
Q 1681 3072 1420 2755 
Q 1159 2438 1159 1844 
L 1159 0 
L 581 0 
L 581 3500 
L 1159 3500 
L 1159 2956 
Q 1341 3275 1631 3429 
Q 1922 3584 2338 3584 
Q 2397 3584 2469 3576 
Q 2541 3569 2628 3553 
L 2631 2963 
z
" transform="scale(0.015625)"/>
       <path id="DejaVuSans-61" d="M 2194 1759 
Q 1497 1759 1228 1600 
Q 959 1441 959 1056 
Q 959 750 1161 570 
Q 1363 391 1709 391 
Q 2188 391 2477 730 
Q 2766 1069 2766 1631 
L 2766 1759 
L 2194 1759 
z
M 3341 1997 
L 3341 0 
L 2766 0 
L 2766 531 
Q 2569 213 2275 61 
Q 1981 -91 1556 -91 
Q 1019 -91 701 211 
Q 384 513 384 1019 
Q 384 1609 779 1909 
Q 1175 2209 1959 2209 
L 2766 2209 
L 2766 2266 
Q 2766 2663 2505 2880 
Q 2244 3097 1772 3097 
Q 1472 3097 1187 3025 
Q 903 2953 641 2809 
L 641 3341 
Q 956 3463 1253 3523 
Q 1550 3584 1831 3584 
Q 2591 3584 2966 3190 
Q 3341 2797 3341 1997 
z
" transform="scale(0.015625)"/>
       <path id="DejaVuSans-6e" d="M 3513 2113 
L 3513 0 
L 2938 0 
L 2938 2094 
Q 2938 2591 2744 2837 
Q 2550 3084 2163 3084 
Q 1697 3084 1428 2787 
Q 1159 2491 1159 1978 
L 1159 0 
L 581 0 
L 581 3500 
L 1159 3500 
L 1159 2956 
Q 1366 3272 1645 3428 
Q 1925 3584 2291 3584 
Q 2894 3584 3203 3211 
Q 3513 2838 3513 2113 
z
" transform="scale(0.015625)"/>
       <path id="DejaVuSans-2f" d="M 1625 4666 
L 2156 4666 
L 531 -594 
L 0 -594 
L 1625 4666 
z
" transform="scale(0.015625)"/>
      </defs>
      <use xlink:href="#DejaVuSans-41" transform="translate(0 0.765625)"/>
      <use xlink:href="#DejaVuSans-62" transform="translate(68.408203 0.765625)"/>
      <use xlink:href="#DejaVuSans-73" transform="translate(131.884766 0.765625)"/>
      <use xlink:href="#DejaVuSans-6f" transform="translate(183.984375 0.765625)"/>
      <use xlink:href="#DejaVuSans-6c" transform="translate(245.166016 0.765625)"/>
      <use xlink:href="#DejaVuSans-75" transform="translate(272.949219 0.765625)"/>
      <use xlink:href="#DejaVuSans-74" transform="translate(336.328125 0.765625)"/>
      <use xlink:href="#DejaVuSans-65" transform="translate(375.537109 0.765625)"/>
      <use xlink:href="#DejaVuSans-20" transform="translate(437.060547 0.765625)"/>
      <use xlink:href="#DejaVuSans-52" transform="translate(468.847656 0.765625)"/>
      <use xlink:href="#DejaVuSans-6f" transform="translate(538.330078 0.765625)"/>
      <use xlink:href="#DejaVuSans-6f" transform="translate(599.511719 0.765625)"/>
      <use xlink:href="#DejaVuSans-66" transform="translate(660.693359 0.765625)"/>
      <use xlink:href="#DejaVuSans-20" transform="translate(695.898438 0.765625)"/>
      <use xlink:href="#DejaVuSans-41" transform="translate(727.685547 0.765625)"/>
      <use xlink:href="#DejaVuSans-63" transform="translate(796.09375 0.765625)"/>
      <use xlink:href="#DejaVuSans-63" transform="translate(851.074219 0.765625)"/>
      <use xlink:href="#DejaVuSans-65" transform="translate(906.054688 0.765625)"/>
      <use xlink:href="#DejaVuSans-6c" transform="translate(967.578125 0.765625)"/>
      <use xlink:href="#DejaVuSans-65" transform="translate(995.361328 0.765625)"/>
      <use xlink:href="#DejaVuSans-72" transform="translate(1056.884766 0.765625)"/>
      <use xlink:href="#DejaVuSans-61" transform="translate(1097.998047 0.765625)"/>
      <use xlink:href="#DejaVuSans-74" transform="translate(1159.277344 0.765625)"/>
      <use xlink:href="#DejaVuSans-69" transform="translate(1198.486328 0.765625)"/>
      <use xlink:href="#DejaVuSans-6f" transform="translate(1226.269531 0.765625)"/>
      <use xlink:href="#DejaVuSans-6e" transform="translate(1287.451172 0.765625)"/>
      <use xlink:href="#DejaVuSans-20" transform="translate(1350.830078 0.765625)"/>
      <use xlink:href="#DejaVuSans-28" transform="translate(1382.617188 0.765625)"/>
      <use xlink:href="#DejaVuSans-6d" transform="translate(1421.630859 0.765625)"/>
      <use xlink:href="#DejaVuSans-2f" transform="translate(1519.042969 0.765625)"/>
      <use xlink:href="#DejaVuSans-73" transform="translate(1552.734375 0.765625)"/>
      <use xlink:href="#DejaVuSans-32" transform="translate(1605.791016 39.046875) scale(0.7)"/>
      <use xlink:href="#DejaVuSans-29" transform="translate(1653.061523 0.765625)"/>
     </g>
    </g>
   </g>
   <g id="line2d_192">
    <path d="M 122.587045 295.927914 
L 123.043819 292.792942 
L 123.500593 284.073468 
L 123.957367 278.43091 
L 124.414141 283.390891 
L 124.870915 302.139345 
L 125.327689 326.525059 
L 125.784462 335.570473 
L 126.241236 317.970868 
L 127.154784 240.470514 
L 127.611558 235.947744 
L 128.068332 280.217354 
L 128.525105 340.516745 
L 128.981879 363.920379 
L 129.438653 329.864379 
L 129.895427 270.200031 
L 130.352201 243.631003 
L 130.808975 270.64348 
L 131.265748 315.173773 
L 131.722522 330.798516 
L 132.179296 308.325844 
L 132.63607 280.074658 
L 133.092844 277.202011 
L 134.006391 319.528639 
L 134.463165 312.033676 
L 135.376713 248.660397 
L 135.833487 254.067965 
L 136.747035 334.519115 
L 137.203808 347.628317 
L 137.660582 329.517094 
L 138.117356 304.320291 
L 138.57413 287.117324 
L 139.030904 277.827433 
L 139.487678 273.796739 
L 139.944451 272.876858 
L 140.401225 275.276319 
L 140.857999 285.493772 
L 141.771547 335.546939 
L 142.228321 343.024536 
L 142.685094 315.800137 
L 143.141868 272.426916 
L 143.598642 251.38331 
L 144.055416 270.075034 
L 144.51219 306.754284 
L 144.968964 326.140626 
L 145.425738 316.708847 
L 145.882511 293.276741 
L 146.339285 277.212663 
L 146.796059 279.087205 
L 147.252833 290.307226 
L 147.709607 297.055052 
L 148.166381 301.742477 
L 149.079928 316.058275 
L 149.536702 314.077493 
L 150.45025 284.186104 
L 150.907024 283.818073 
L 151.363797 291.348551 
L 151.820571 296.693289 
L 152.277345 296.093967 
L 152.734119 292.662607 
L 153.190893 290.953348 
L 153.647667 292.151928 
L 154.561214 302.246082 
L 155.017988 298.634231 
L 155.474762 289.801785 
L 155.931536 285.317608 
L 156.38831 292.001542 
L 156.845084 305.303207 
L 157.301857 308.441007 
L 158.215405 286.329977 
L 158.672179 290.067141 
L 159.128953 301.989407 
L 159.585727 306.931653 
L 160.0425 299.895045 
L 160.499274 289.339744 
L 160.956048 286.182041 
L 161.412822 294.751174 
L 161.869596 307.856237 
L 162.32637 307.559069 
L 163.239917 274.939937 
L 163.696691 280.46458 
L 164.610239 325.129585 
L 165.067013 322.095771 
L 165.98056 278.503024 
L 166.437334 271.080898 
L 166.894108 276.712608 
L 167.807656 292.468251 
L 168.721203 316.414048 
L 169.177977 317.897221 
L 169.634751 306.340622 
L 170.091525 290.448075 
L 170.548299 282.23679 
L 171.005073 284.551954 
L 171.461846 289.45543 
L 171.91862 289.819718 
L 172.375394 288.889245 
L 172.832168 294.159694 
L 173.288942 304.940277 
L 173.745716 312.951872 
L 174.20249 311.107675 
L 175.116037 287.540457 
L 175.572811 279.38158 
L 176.029585 273.326223 
L 176.486359 272.844004 
L 176.943133 286.032301 
L 177.85668 340.124493 
L 178.313454 337.056749 
L 179.227002 256.306247 
L 179.683776 245.800625 
L 180.140549 272.778972 
L 180.597323 310.971439 
L 181.054097 328.278072 
L 181.510871 317.502716 
L 181.967645 297.34243 
L 182.424419 284.175425 
L 182.881193 285.625715 
L 183.337966 297.438559 
L 183.79474 299.350155 
L 184.708288 272.255035 
L 185.165062 276.448238 
L 185.621836 295.965409 
L 186.078609 320.50421 
L 186.535383 337.509848 
L 186.992157 332.586572 
L 187.448931 300.590204 
L 187.905705 254.589526 
L 188.362479 229.905393 
L 188.819252 253.007667 
L 189.7328 359.009327 
L 190.189574 353.24739 
L 191.103122 260.393545 
L 191.559896 256.45399 
L 192.473443 309.127701 
L 192.930217 315.907688 
L 193.386991 302.067799 
L 193.843765 281.161003 
L 194.300539 277.524668 
L 195.214086 327.553467 
L 195.67086 314.843149 
L 196.127634 273.356934 
L 196.584408 242.809295 
L 197.041182 251.407005 
L 197.954729 341.669522 
L 198.411503 348.647794 
L 199.325051 273.595288 
L 199.781825 258.598416 
L 200.238599 274.320779 
L 200.695372 304.657297 
L 201.152146 326.842598 
L 201.60892 324.162759 
L 202.522468 284.382587 
L 202.979242 288.185299 
L 203.436015 305.17245 
L 203.892789 310.692174 
L 204.349563 290.520279 
L 204.806337 264.608007 
L 205.263111 268.719424 
L 206.176658 333.156238 
L 206.633432 327.954703 
L 207.54698 263.552413 
L 208.003754 264.546763 
L 208.917301 341.930655 
L 209.374075 350.207729 
L 209.830849 315.250374 
L 210.287623 263.755694 
L 210.744397 238.353294 
L 211.201171 257.712694 
L 211.657945 301.668133 
L 212.114718 330.414313 
L 212.571492 320.306411 
L 213.028266 289.813128 
L 213.48504 276.84519 
L 213.941814 295.507052 
L 214.398588 324.049057 
L 214.855361 325.064768 
L 215.768909 249.290382 
L 216.225683 239.183666 
L 216.682457 266.228104 
L 217.139231 305.687636 
L 217.596004 324.843101 
L 218.052778 318.903098 
L 218.509552 303.933017 
L 218.966326 297.146769 
L 219.4231 298.523558 
L 219.879874 291.673249 
L 220.336648 278.533736 
L 220.793421 278.54731 
L 221.706969 313.516513 
L 222.163743 317.328696 
L 223.077291 299.801277 
L 223.534064 296.697077 
L 223.990838 297.419095 
L 224.904386 302.724958 
L 225.36116 301.490874 
L 225.817934 297.873411 
L 226.274707 298.990419 
L 226.731481 305.199318 
L 227.188255 307.681081 
L 227.645029 298.398071 
L 228.101803 278.79656 
L 228.558577 269.2218 
L 229.015351 283.971414 
L 229.472124 305.69308 
L 229.928898 313.180523 
L 230.385672 304.458218 
L 230.842446 291.444602 
L 231.29922 286.417565 
L 231.755994 291.810358 
L 232.212767 300.645129 
L 232.669541 304.350305 
L 233.126315 298.59547 
L 233.583089 288.857251 
L 234.039863 286.198394 
L 234.496637 294.974893 
L 234.95341 308.415083 
L 235.410184 308.198095 
L 236.323732 263.157832 
L 236.780506 270.346662 
L 237.694054 331.156073 
L 238.150827 319.896959 
L 238.607601 284.050959 
L 239.064375 261.713366 
L 239.521149 270.757207 
L 240.434697 317.744244 
L 240.89147 328.375046 
L 241.348244 324.677139 
L 241.805018 299.608084 
L 242.261792 265.679367 
L 242.718566 250.759113 
L 243.17534 267.756423 
L 243.632113 301.770549 
L 244.088887 326.790951 
L 244.545661 330.325582 
L 245.459209 303.276687 
L 245.915983 288.980039 
L 246.372756 269.778082 
L 246.82953 256.529818 
L 247.286304 267.923897 
L 248.199852 333.447424 
L 248.656626 336.596248 
L 249.570173 288.037677 
L 250.026947 277.409843 
L 250.940495 264.397039 
L 251.397269 272.83283 
L 252.310816 325.5765 
L 252.76759 328.202506 
L 253.224364 307.496206 
L 253.681138 280.169947 
L 254.137912 267.248361 
L 254.594686 276.392479 
L 255.508233 313.704912 
L 255.965007 315.416666 
L 256.421781 303.561961 
L 256.878555 285.325772 
L 257.335329 276.881228 
L 257.792103 291.739057 
L 258.248876 319.313052 
L 258.70565 332.682133 
L 259.162424 316.700867 
L 260.075972 255.545396 
L 260.532746 251.52302 
L 260.989519 274.48364 
L 261.446293 312.707025 
L 261.903067 339.605453 
L 262.359841 334.846966 
L 263.273389 279.409371 
L 263.730162 276.836726 
L 264.186936 291.612721 
L 264.64371 301.527739 
L 265.100484 295.429494 
L 265.557258 281.613561 
L 266.014032 276.804765 
L 266.470806 288.932366 
L 266.927579 304.622031 
L 267.384353 308.594268 
L 267.841127 302.247548 
L 268.297901 292.892577 
L 268.754675 288.329 
L 269.211449 292.642882 
L 269.668222 299.988246 
L 270.124996 297.985112 
L 270.58177 284.805454 
L 271.038544 277.438287 
L 271.495318 290.388346 
L 271.952092 313.722842 
L 272.408865 324.44934 
L 272.865639 312.737027 
L 273.322413 290.857486 
L 273.779187 277.544871 
L 274.235961 277.999386 
L 275.149509 296.842369 
L 275.606282 305.844578 
L 276.51983 317.850579 
L 276.976604 318.697387 
L 277.433378 310.414253 
L 278.346925 275.223005 
L 278.803699 273.697975 
L 279.717247 309.247825 
L 280.174021 313.341833 
L 280.630795 307.858152 
L 281.544342 304.191163 
L 282.001116 290.262148 
L 282.45789 271.639911 
L 282.914664 266.097127 
L 283.371438 277.746767 
L 283.828211 294.502631 
L 284.284985 303.957066 
L 284.741759 302.903184 
L 285.655307 288.002326 
L 286.112081 291.367019 
L 287.025628 306.930637 
L 287.482402 309.328474 
L 287.939176 301.898646 
L 288.39595 288.337784 
L 288.852724 282.183559 
L 289.309498 289.137069 
L 289.766271 301.895599 
L 290.223045 309.691413 
L 290.679819 307.871242 
L 291.136593 295.813245 
L 291.593367 279.215667 
L 292.050141 269.140732 
L 292.506914 273.970711 
L 293.420462 306.292995 
L 293.877236 308.261603 
L 294.33401 303.057028 
L 294.790784 302.168004 
L 295.247558 307.136305 
L 295.704331 309.127009 
L 296.161105 303.992324 
L 296.617879 297.174535 
L 297.074653 295.844291 
L 297.531427 296.886402 
L 297.988201 290.558631 
L 298.444974 279.282722 
L 298.901748 274.688315 
L 299.358522 280.079368 
L 301.185617 310.122656 
L 301.642391 302.998439 
L 302.099165 286.422653 
L 302.555939 276.127014 
L 303.012713 278.112561 
L 303.469487 284.95877 
L 303.926261 284.21135 
L 304.383034 278.102688 
L 304.839808 287.253477 
L 305.753356 350.027387 
L 306.21013 348.880923 
L 307.123677 274.480309 
L 307.580451 256.110241 
L 308.037225 269.87155 
L 308.493999 303.615916 
L 308.950773 329.078015 
L 309.407547 319.39344 
L 309.86432 286.804366 
L 310.321094 281.978053 
L 310.777868 318.467586 
L 311.234642 341.79949 
L 311.691416 305.458811 
L 312.14819 244.240457 
L 312.604964 230.769463 
L 313.518511 346.432054 
L 313.975285 367.49021 
L 314.432059 340.637528 
L 314.888833 301.486158 
L 315.345607 285.297163 
L 315.80238 291.386573 
L 316.259154 293.261257 
L 316.715928 275.911043 
L 317.172702 253.325003 
L 317.629476 257.53167 
L 318.543023 347.395649 
L 318.999797 348.775638 
L 319.913345 227.963471 
L 320.370119 220.961833 
L 321.283666 347.038018 
L 321.74044 366.51548 
L 322.197214 332.050155 
L 322.653988 281.595019 
L 323.110762 257.490712 
L 323.567536 270.882586 
L 324.02431 297.929135 
L 324.481083 311.282711 
L 324.937857 306.427403 
L 325.851405 281.069704 
L 326.764953 260.292854 
L 327.221726 245.881102 
L 327.6785 239.694708 
L 328.135274 253.447003 
L 328.592048 289.594285 
L 329.048822 336.555516 
L 329.505596 368.946304 
L 329.962369 363.11431 
L 331.332691 241.606812 
L 331.789465 257.46208 
L 332.703013 336.890463 
L 333.159786 324.468625 
L 334.073334 216.855445 
L 334.530108 201.232087 
L 334.986882 229.538305 
L 335.443656 290.4397 
L 336.357203 448.787579 
L 336.813977 498.0375 
L 337.270751 491.865625 
L 337.727525 433.510693 
L 339.097846 142.733392 
L 339.55462 86.278225 
L 340.011394 82.843278 
L 340.468168 146.707825 
L 341.381716 386.242595 
L 341.838489 449.996237 
L 342.295263 440.410395 
L 343.665585 289.517823 
L 344.122359 273.261068 
L 344.579132 269.627282 
L 345.035906 257.527993 
L 345.49268 227.948926 
L 345.949454 208.673054 
L 346.406228 241.89457 
L 347.319775 410.894735 
L 347.776549 434.559343 
L 348.233323 377.745757 
L 349.146871 167.424759 
L 349.603645 121.299074 
L 350.060419 146.769387 
L 351.43074 364.774891 
L 351.887514 373.241716 
L 352.801062 277.189307 
L 353.257835 267.985862 
L 353.714609 313.772382 
L 354.171383 375.91113 
L 354.628157 395.363795 
L 355.084931 345.926954 
L 355.541705 266.686044 
L 355.998478 220.080384 
L 356.455252 234.392364 
L 357.3688 344.139979 
L 357.825574 337.56498 
L 358.282348 282.187689 
L 358.739121 243.036185 
L 359.195895 269.465029 
L 359.652669 341.991838 
L 360.109443 395.31118 
L 360.566217 384.27113 
L 361.936538 185.416267 
L 362.393312 203.853362 
L 363.763634 391.69902 
L 364.220408 393.820474 
L 364.677181 367.184934 
L 365.590729 283.267179 
L 366.047503 238.900274 
L 366.504277 215.276448 
L 366.961051 224.094616 
L 367.417824 244.327973 
L 367.874598 242.99409 
L 368.331372 222.19417 
L 368.788146 225.326114 
L 369.24492 281.06471 
L 369.701694 362.373311 
L 370.158468 409.865608 
L 370.615241 381.530691 
L 371.528789 218.108872 
L 371.985563 189.350037 
L 372.442337 210.54122 
L 372.899111 275.520568 
L 373.812658 450.581366 
L 374.269432 453.392885 
L 375.639754 239.237076 
L 376.096527 219.203692 
L 376.553301 226.031103 
L 377.010075 253.445949 
L 377.466849 289.22506 
L 377.923623 314.817987 
L 378.380397 330.684119 
L 379.293944 376.987544 
L 379.750718 378.516755 
L 380.207492 332.660032 
L 381.12104 166.144162 
L 381.577814 126.47893 
L 382.034587 160.00925 
L 383.404909 464.251912 
L 383.861683 454.714013 
L 384.77523 334.304859 
L 385.232004 314.492015 
L 385.688778 305.984328 
L 386.145552 264.474801 
L 387.0591 119.232371 
L 387.515874 146.815748 
L 388.429421 368.855119 
L 388.886195 426.520509 
L 389.342969 424.005419 
L 389.799743 386.362689 
L 390.256517 320.945071 
L 391.170064 159.926586 
L 391.626838 153.824305 
L 392.083612 231.528274 
L 392.540386 329.68437 
L 392.99716 359.209695 
L 393.453933 302.517327 
L 393.910707 230.951373 
L 394.367481 219.240598 
L 395.281029 330.462885 
L 395.737803 339.763579 
L 396.65135 242.8677 
L 397.108124 240.368353 
L 398.93522 385.974988 
L 399.391993 399.42343 
L 399.848767 396.788773 
L 400.305541 374.993791 
L 400.762315 313.773523 
L 401.219089 223.300403 
L 401.675863 159.081337 
L 402.132636 161.50288 
L 403.046184 279.700529 
L 403.502958 334.227235 
L 403.959732 359.361185 
L 404.416506 353.175927 
L 404.873279 329.527814 
L 405.786827 255.164655 
L 406.243601 244.978943 
L 406.700375 279.130293 
L 407.613923 390.366175 
L 408.070696 402.229905 
L 408.52747 367.731222 
L 409.441018 242.784143 
L 409.897792 208.63426 
L 410.354566 222.9598 
L 411.268113 355.274102 
L 411.724887 388.764522 
L 412.181661 360.282619 
L 413.095209 222.61941 
L 413.551982 219.801575 
L 414.008756 281.259015 
L 414.46553 360.903813 
L 414.922304 398.254751 
L 415.379078 361.753451 
L 416.292626 202.169474 
L 416.749399 176.207694 
L 417.206173 205.879263 
L 418.576495 444.157971 
L 419.033269 441.329305 
L 419.490042 357.397392 
L 420.40359 79.851607 
L 420.860364 44.4375 
L 421.317138 134.730921 
L 422.230685 415.06427 
L 422.687459 463.927064 
L 423.144233 450.634883 
L 423.601007 407.391134 
L 424.514555 281.692525 
L 424.971329 217.112839 
L 425.428102 177.188187 
L 425.884876 164.425167 
L 426.34165 171.534715 
L 426.798424 202.735382 
L 428.168745 394.68367 
L 428.625519 429.558469 
L 429.082293 434.66058 
L 429.539067 405.030007 
L 430.909388 204.635002 
L 431.366162 187.810188 
L 431.822936 211.599989 
L 433.193258 325.618073 
L 433.650031 347.659064 
L 434.106805 356.367314 
L 434.563579 353.773939 
L 435.020353 334.82345 
L 435.477127 296.314716 
L 436.390675 204.430958 
L 436.847448 202.475363 
L 437.304222 260.297028 
L 437.760996 347.456077 
L 438.21777 397.726029 
L 438.674544 377.209278 
L 439.131318 321.061778 
L 439.588091 286.917956 
L 440.044865 294.109494 
L 440.501639 320.63533 
L 440.958413 332.8715 
L 441.415187 314.318917 
L 441.871961 276.865748 
L 442.328734 249.794888 
L 442.785508 254.408892 
L 443.242282 284.753608 
L 443.699056 303.119586 
L 444.15583 278.402077 
L 444.612604 227.168403 
L 445.069378 206.702886 
L 445.526151 249.289591 
L 445.982925 312.952464 
L 446.439699 339.724861 
L 447.353247 321.243972 
L 447.810021 332.083839 
L 448.723568 385.020958 
L 449.180342 375.683693 
L 449.637116 317.400743 
L 450.09389 235.711817 
L 450.550664 179.588755 
L 451.007437 194.703612 
L 451.920985 369.464352 
L 452.377759 392.636773 
L 452.834533 351.642823 
L 453.748081 228.799123 
L 454.204854 194.407219 
L 454.661628 194.884823 
L 455.118402 241.300371 
L 456.03195 382.637941 
L 456.488724 405.228996 
L 456.945497 385.169397 
L 458.315819 240.454343 
L 458.772593 238.089931 
L 459.229367 273.009859 
L 459.68614 321.742878 
L 460.142914 349.124025 
L 460.599688 335.856353 
L 461.513236 243.866242 
L 461.97001 222.378243 
L 462.426784 241.776641 
L 463.340331 322.423445 
L 463.797105 328.363545 
L 464.710653 272.606428 
L 465.167427 263.451659 
L 466.080974 299.84079 
L 466.537748 277.983655 
L 466.994522 232.799723 
L 467.451296 219.32893 
L 467.90807 266.634968 
L 468.364843 343.719083 
L 468.821617 399.476984 
L 469.278391 413.648351 
L 469.735165 397.246989 
L 470.191939 349.012655 
L 471.105486 181.842128 
L 471.56226 129.433622 
L 472.019034 139.541492 
L 472.475808 212.093491 
L 472.932582 311.233196 
L 473.389356 385.727904 
L 473.84613 408.05777 
L 474.302903 379.676876 
L 475.216451 264.314636 
L 475.673225 246.256779 
L 476.129999 274.891074 
L 477.043546 376.260203 
L 477.50032 391.534615 
L 477.957094 377.131592 
L 479.327416 292.499601 
L 479.784189 280.307092 
L 480.240963 275.679206 
L 480.697737 278.086449 
L 481.154511 283.787441 
L 481.611285 270.978328 
L 482.524833 192.651341 
L 482.981606 218.167187 
L 483.895154 358.639364 
L 484.351928 360.436653 
L 485.265476 223.268755 
L 485.722249 239.795426 
L 486.635797 435.642693 
L 487.092571 473.879867 
L 487.549345 454.032581 
L 488.006119 389.842667 
L 488.919666 189.931137 
L 489.37644 131.109622 
L 489.833214 127.401672 
L 490.289988 169.894541 
L 491.660309 405.596507 
L 492.117083 431.468903 
L 492.573857 382.737934 
L 493.487405 194.641092 
L 493.944179 177.691286 
L 494.400952 216.073158 
L 495.3145 334.086253 
L 495.771274 359.185324 
L 496.228048 349.920748 
L 497.141595 303.625337 
L 497.598369 296.742193 
L 498.055143 298.626331 
L 498.511917 296.263695 
L 498.968691 280.677254 
L 499.882239 243.411258 
L 500.339012 229.573378 
L 500.795786 223.818653 
L 501.25256 255.812266 
L 502.166108 432.614992 
L 502.622882 463.634585 
L 503.079655 397.048322 
L 503.993203 160.914375 
L 504.449977 129.109074 
L 504.906751 175.118285 
L 505.820298 337.920423 
L 506.277072 379.872322 
L 506.733846 372.663182 
L 508.104168 251.649549 
L 508.560941 242.780109 
L 509.017715 260.861068 
L 509.931263 356.888336 
L 510.388037 382.531086 
L 510.844811 364.603524 
L 511.758358 244.455102 
L 512.215132 210.307178 
L 512.671906 221.180092 
L 514.042228 360.368751 
L 514.499001 366.682804 
L 514.955775 347.039908 
L 515.869323 285.299688 
L 516.326097 263.711515 
L 516.782871 268.361312 
L 517.696418 353.619774 
L 518.153192 369.201841 
L 518.609966 338.84239 
L 519.06674 285.168267 
L 519.523514 246.06344 
L 519.980288 239.243885 
L 520.893835 270.563594 
L 521.807383 284.927359 
L 522.264157 293.601484 
L 522.720931 290.30282 
L 523.634478 256.381481 
L 524.091252 249.790036 
L 524.548026 261.730499 
L 525.0048 295.718884 
L 525.461574 340.218627 
L 525.918347 370.869259 
L 526.375121 365.030417 
L 527.288669 288.929021 
L 527.745443 270.727889 
L 528.202217 266.934485 
L 528.658991 265.260804 
L 529.115764 267.667487 
L 529.572538 281.078646 
L 530.486086 330.482038 
L 530.94286 341.359887 
L 531.399634 325.631702 
L 531.856407 293.074957 
L 532.313181 271.709484 
L 532.769955 277.435311 
L 533.226729 296.324836 
L 533.683503 303.299739 
L 534.140277 290.807043 
L 534.59705 272.696415 
L 535.053824 269.298962 
L 535.510598 289.439721 
L 535.967372 321.086416 
L 536.424146 344.903664 
L 536.88092 354.131066 
L 537.337694 344.094067 
L 537.794467 309.168526 
L 538.708015 221.246021 
L 539.164789 206.809142 
L 539.621563 228.988986 
L 540.991884 399.603165 
L 541.448658 385.425076 
L 542.362206 272.288365 
L 542.81898 237.645453 
L 543.275753 229.049443 
L 543.732527 238.106958 
L 544.189301 256.680502 
L 545.102849 312.654882 
L 545.559623 338.401424 
L 546.016396 344.194514 
L 546.47317 329.592196 
L 547.386718 286.950691 
L 547.843492 282.540915 
L 548.300266 291.434677 
L 548.75704 303.21499 
L 549.213813 305.633459 
L 549.670587 298.004718 
L 550.127361 287.514623 
L 550.584135 281.659103 
L 551.040909 283.140601 
L 551.497683 286.989184 
L 551.954456 288.529748 
L 552.868004 292.801442 
L 553.324778 285.953842 
L 554.238326 248.105393 
L 554.695099 242.345507 
L 555.151873 267.006064 
L 556.065421 346.149679 
L 556.522195 355.842428 
L 556.978969 344.34387 
L 557.892516 313.344333 
L 559.262838 271.103153 
L 559.719612 268.073324 
L 560.176386 275.736695 
L 560.633159 286.0854 
L 561.089933 291.541392 
L 561.546707 292.797929 
L 562.003481 293.485764 
L 562.460255 293.365426 
L 562.917029 294.826015 
L 563.373802 304.302287 
L 564.28735 332.110697 
L 564.744124 329.877663 
L 565.200898 311.438092 
L 565.657672 288.363092 
L 566.114446 276.440242 
L 566.571219 283.148844 
L 567.484767 314.369297 
L 567.941541 317.102635 
L 568.398315 311.447949 
L 569.768636 281.729123 
L 570.22541 277.694351 
L 570.682184 283.511638 
L 571.595732 324.314811 
L 572.052505 333.950158 
L 572.509279 322.022605 
L 572.966053 297.901141 
L 573.422827 280.253332 
L 573.879601 277.378354 
L 574.793149 289.802209 
L 575.249922 286.902528 
L 575.706696 282.946285 
L 576.16347 289.670741 
L 576.620244 302.502731 
L 577.077018 308.32985 
L 577.533792 305.548803 
L 577.990565 303.593754 
L 578.447339 303.079985 
L 578.904113 296.411214 
L 579.817661 272.609102 
L 580.274435 269.021614 
L 580.731208 269.466061 
L 581.187982 267.932493 
L 581.644756 269.434663 
L 582.10153 284.377796 
L 582.558304 309.782709 
L 583.015078 328.077936 
L 583.471851 319.844647 
L 584.385399 236.95549 
L 584.842173 221.495595 
L 585.298947 252.782614 
L 586.212495 363.896201 
L 586.669268 385.070096 
L 587.126042 374.915658 
L 587.582816 340.178184 
L 588.496364 251.973067 
L 588.953138 243.469542 
L 589.409911 271.59508 
L 589.866685 312.71101 
L 590.323459 337.730652 
L 590.780233 337.402292 
L 591.237007 318.251663 
L 592.150554 273.518091 
L 592.607328 262.547999 
L 593.520876 248.303108 
L 593.97765 253.016179 
L 594.434424 278.026959 
L 594.891198 313.15182 
L 595.347971 334.785524 
L 595.804745 328.895186 
L 596.261519 306.408693 
L 596.718293 291.291505 
L 597.175067 295.705067 
L 597.631841 309.981297 
L 598.088614 313.476658 
L 598.545388 299.587474 
L 599.002162 279.275293 
L 599.458936 265.621771 
L 599.91571 263.050163 
L 600.372484 269.383245 
L 601.286031 298.713676 
L 602.199579 330.105206 
L 602.656353 339.307934 
L 603.113127 333.980831 
L 603.569901 311.472947 
L 604.026674 281.967976 
L 604.483448 265.992895 
L 604.940222 273.574172 
L 605.85377 313.093677 
L 606.310544 314.704574 
L 607.224091 299.170147 
L 608.137639 293.200344 
L 609.051187 279.813122 
L 609.50796 282.616364 
L 610.421508 309.835569 
L 610.878282 310.529397 
L 611.335056 296.104738 
L 611.79183 278.065117 
L 612.248604 269.325488 
L 612.705377 276.384956 
L 613.618925 321.810913 
L 614.075699 332.983804 
L 614.532473 324.299224 
L 615.44602 279.890361 
L 615.902794 272.139074 
L 616.359568 282.040344 
L 616.816342 300.232872 
L 617.273116 311.543878 
L 617.72989 306.470636 
L 618.186663 291.635727 
L 618.643437 280.616538 
L 619.100211 280.442806 
L 619.556985 287.578772 
L 620.013759 290.919298 
L 620.470533 285.455546 
L 620.927306 282.230231 
L 621.38408 291.936793 
L 622.297628 325.399468 
L 622.754402 324.847722 
L 623.66795 290.769518 
L 624.124723 282.862691 
L 624.581497 287.760468 
L 625.038271 297.173163 
L 625.495045 298.171637 
L 626.408593 275.8394 
L 626.865366 276.128985 
L 627.32214 289.766527 
L 628.235688 335.18766 
L 628.692462 346.538495 
L 629.149236 334.824423 
L 630.519557 235.736692 
L 630.976331 235.723827 
L 631.433105 257.268834 
L 632.346653 316.99183 
L 632.803426 324.621765 
L 633.2602 313.262412 
L 634.173748 275.185335 
L 634.630522 272.94163 
L 635.087296 288.673684 
L 635.544069 311.613465 
L 636.000843 326.81944 
L 636.457617 323.782585 
L 637.371165 291.689833 
L 637.827939 292.767124 
L 638.284712 300.395483 
L 638.741486 298.922072 
L 639.655034 274.123614 
L 640.111808 279.406207 
L 641.025356 316.304223 
L 641.482129 307.507418 
L 642.395677 243.134455 
L 642.852451 241.966297 
L 643.309225 279.228389 
L 643.765999 327.76632 
L 644.222772 352.323523 
L 644.679546 343.19169 
L 645.593094 290.438127 
L 646.049868 275.787073 
L 646.506642 272.966116 
L 646.963415 282.567554 
L 647.876963 315.642639 
L 648.333737 318.916333 
L 648.790511 310.630436 
L 650.160832 262.264558 
L 650.617606 260.269436 
L 651.07438 271.78451 
L 651.987928 305.514399 
L 652.444702 319.170562 
L 652.901475 324.978581 
L 653.358249 316.859836 
L 653.815023 302.751817 
L 654.271797 298.595094 
L 654.728571 305.921611 
L 655.185345 309.170517 
L 656.098892 288.700685 
L 656.555666 289.414421 
L 657.01244 295.941424 
L 657.469214 294.340997 
L 658.382761 266.391795 
L 658.839535 266.42599 
L 660.209857 318.059061 
L 660.666631 317.314027 
L 661.580178 301.389414 
L 662.036952 297.626262 
L 662.493726 297.034766 
L 662.9505 297.509833 
L 663.407274 296.816001 
L 663.864048 297.743569 
L 664.320821 300.946903 
L 664.777595 300.343037 
L 665.691143 286.706856 
L 666.147917 287.897285 
L 667.518238 316.707482 
L 667.975012 318.343163 
L 668.431786 316.94241 
L 668.88856 313.975494 
L 669.345334 313.258362 
L 669.802108 315.360538 
L 670.258881 314.147489 
L 670.715655 304.927904 
L 671.629203 278.634376 
L 672.085977 273.219793 
L 672.542751 269.921779 
L 672.999524 269.344593 
L 673.456298 278.415561 
L 674.369846 315.043054 
L 674.82662 316.411751 
L 675.283394 302.29602 
L 675.740167 282.409256 
L 676.196941 267.803715 
L 676.653715 266.890201 
L 677.110489 282.473567 
L 677.567263 305.985601 
L 678.024037 322.292292 
L 678.480811 321.298389 
L 678.937584 304.654775 
L 679.394358 282.691326 
L 679.851132 266.115148 
L 680.307906 261.480072 
L 680.76468 267.474951 
L 681.678227 288.994122 
L 682.591775 317.07732 
L 683.048549 325.822222 
L 683.505323 319.378442 
L 684.41887 273.37712 
L 684.875644 264.207336 
L 685.332418 274.687483 
L 686.245966 309.790884 
L 686.70274 316.481399 
L 687.159514 316.182802 
L 687.616287 309.615899 
L 688.529835 287.686721 
L 688.986609 287.927419 
L 689.443383 299.8232 
L 689.900157 315.687785 
L 690.35693 323.768792 
L 690.813704 316.190015 
L 691.727252 273.857745 
L 692.184026 261.901458 
L 692.6408 268.968866 
L 693.554347 315.731289 
L 694.011121 321.732577 
L 694.924669 298.955687 
L 695.381443 297.513467 
L 695.838216 301.454278 
L 696.29499 298.669008 
L 697.208538 276.835214 
L 697.665312 278.462126 
L 698.57886 306.969925 
L 699.035633 306.800983 
L 699.949181 284.953336 
L 700.405955 287.111408 
L 701.319503 308.652981 
L 701.776276 306.023398 
L 702.689824 279.973266 
L 703.146598 275.31845 
L 703.603372 277.834967 
L 704.060146 279.696846 
L 704.516919 277.408028 
L 704.973693 277.863615 
L 705.430467 287.818709 
L 706.344015 320.151135 
L 706.800789 318.035935 
L 707.714336 285.082649 
L 708.17111 283.971296 
L 709.084658 306.821939 
L 709.541432 308.346007 
L 709.998206 299.274575 
L 710.454979 286.812805 
L 710.911753 278.747433 
L 711.368527 277.465385 
L 711.825301 282.698652 
L 712.738849 297.291298 
L 713.652396 319.220601 
L 714.10917 322.746977 
L 714.565944 312.181797 
L 715.479492 276.861071 
L 715.936266 276.479136 
L 716.849813 306.135644 
L 717.306587 312.937501 
L 717.763361 310.222943 
L 718.676909 297.800802 
L 719.133682 295.873543 
L 720.04723 298.61411 
L 720.504004 296.382653 
L 720.960778 291.319894 
L 721.417552 289.410314 
L 721.874325 294.665796 
L 722.331099 305.102698 
L 722.787873 312.540223 
L 723.244647 311.428828 
L 724.158195 295.354671 
L 725.071742 286.009378 
L 725.528516 283.346061 
L 725.98529 288.139546 
L 726.898838 316.269218 
L 727.355612 321.849874 
L 727.812385 314.122591 
L 728.725933 282.401149 
L 729.182707 275.476518 
L 729.639481 278.206512 
L 731.009802 305.487264 
L 731.466576 301.917407 
L 732.380124 277.178497 
L 732.836898 275.538737 
L 733.293671 283.846176 
L 733.750445 295.352405 
L 734.207219 302.980862 
L 734.663993 303.835521 
L 735.577541 293.644629 
L 736.034315 292.182064 
L 736.491088 296.442648 
L 736.947862 302.500131 
L 737.404636 305.156239 
L 737.86141 303.866553 
L 738.318184 301.159589 
L 738.774958 296.941003 
L 739.231731 291.249478 
L 739.688505 287.681825 
L 740.145279 292.052176 
L 740.602053 302.346339 
L 741.058827 306.606986 
L 741.515601 299.258129 
L 741.972374 286.307437 
L 742.429148 278.01892 
L 742.885922 280.533531 
L 743.79947 299.663848 
L 744.256244 302.786141 
L 744.713018 301.919127 
L 745.626565 297.94227 
L 746.083339 297.885512 
L 746.540113 300.207159 
L 746.996887 303.411204 
L 747.453661 304.803372 
L 747.910434 302.28189 
L 748.823982 292.34123 
L 749.280756 292.137045 
L 749.73753 297.396333 
L 750.651077 312.225459 
L 751.107851 313.872417 
L 751.564625 309.72208 
L 752.021399 301.011607 
L 752.934947 280.746996 
L 753.391721 278.813359 
L 753.848494 283.767089 
L 754.762042 300.730368 
L 755.218816 303.52745 
L 755.67559 300.222453 
L 756.589137 287.116685 
L 757.045911 288.124256 
L 757.959459 298.52014 
L 758.416233 298.702635 
L 759.786554 287.713628 
L 760.243328 287.03435 
L 760.700102 287.674636 
L 761.156876 290.409477 
L 762.070424 299.804917 
L 762.527197 300.660468 
L 763.440745 294.934489 
L 763.897519 293.993742 
L 764.354293 296.225663 
L 765.26784 307.750804 
L 765.724614 309.013982 
L 766.181388 300.526669 
L 767.094936 273.328407 
L 767.55171 267.772544 
L 768.008483 271.367942 
L 768.465257 285.090663 
L 768.922031 304.020788 
L 769.378805 315.521018 
L 769.835579 312.58999 
L 770.749126 287.824248 
L 771.2059 286.428834 
L 771.662674 293.105869 
L 772.119448 302.056194 
L 772.576222 308.785526 
L 773.032996 311.119355 
L 773.48977 308.094503 
L 774.403317 290.371659 
L 774.860091 285.310236 
L 775.316865 284.179041 
L 775.773639 286.358631 
L 776.230413 292.377019 
L 776.687186 300.652076 
L 777.14396 306.794211 
L 777.600734 306.941253 
L 778.514282 297.668827 
L 778.971056 294.863002 
L 779.427829 293.95948 
L 779.884603 294.566197 
L 780.341377 295.632466 
L 780.798151 295.572967 
L 781.254925 294.895999 
L 781.711699 294.602218 
L 782.168473 294.856934 
L 782.625246 295.447535 
L 783.08202 297.828202 
L 783.995568 307.511565 
L 784.452342 306.527027 
L 784.909116 298.901146 
L 785.365889 287.963885 
L 785.822663 281.896938 
L 786.279437 286.791426 
L 786.736211 296.569894 
L 787.192985 302.804063 
L 787.649759 301.850957 
L 789.02008 282.266475 
L 789.476854 279.749254 
L 789.933628 282.678573 
L 790.390402 291.139947 
L 791.303949 311.514123 
L 791.760723 315.175725 
L 792.217497 313.318021 
L 793.131045 301.532181 
L 794.044592 288.447931 
L 794.501366 287.445386 
L 794.95814 288.904734 
L 795.414914 288.960089 
L 795.871688 288.370523 
L 796.785235 290.675335 
L 797.242009 290.784898 
L 797.698783 289.782753 
L 798.612331 282.956496 
L 799.069105 283.524001 
L 799.982652 295.404802 
L 800.439426 297.761503 
L 800.8962 297.657756 
L 801.352974 299.845933 
L 802.266522 310.287793 
L 802.723295 312.600317 
L 803.180069 314.272851 
L 803.636843 314.91025 
L 804.093617 311.668598 
L 805.007165 292.929142 
L 805.463938 288.322556 
L 805.920712 291.382477 
L 806.83426 304.289163 
L 807.291034 303.968206 
L 808.204581 291.280295 
L 808.661355 289.714315 
L 809.574903 296.491849 
L 810.031677 294.941583 
L 810.488451 291.885916 
L 810.945225 292.38003 
L 811.401998 295.287357 
L 811.858772 296.51703 
L 812.315546 296.099377 
L 812.77232 296.703396 
L 813.229094 298.078966 
L 813.685868 296.566607 
L 814.599415 282.780207 
L 815.056189 281.168869 
L 815.512963 287.707087 
L 816.426511 308.643558 
L 816.883284 311.994263 
L 817.340058 304.893665 
L 818.253606 281.306743 
L 818.71038 279.206336 
L 819.167154 284.063545 
L 820.080701 296.577007 
L 820.537475 300.728069 
L 820.994249 303.525372 
L 821.451023 303.798468 
L 821.907797 302.676691 
L 822.364571 303.369268 
L 822.821344 304.69476 
L 823.278118 302.525721 
L 823.734892 297.431688 
L 824.191666 293.79824 
L 824.64844 293.638393 
L 825.105214 295.418495 
L 825.561987 296.680254 
L 826.475535 296.082061 
L 827.389083 299.14993 
L 827.845857 297.511584 
L 828.302631 292.949633 
L 828.759404 289.908294 
L 829.216178 291.663197 
L 830.129726 305.090972 
L 830.5865 308.190737 
L 831.043274 305.714272 
L 831.956821 290.171883 
L 832.413595 285.594833 
L 832.870369 285.295913 
L 833.327143 289.85413 
L 833.783917 297.139466 
L 834.24069 300.657214 
L 834.697464 296.109362 
L 835.611012 276.2732 
L 836.067786 272.817123 
L 836.52456 278.402245 
L 837.438107 305.197745 
L 837.894881 309.944446 
L 838.351655 305.195837 
L 839.265203 287.946774 
L 839.721977 287.167327 
L 840.635524 293.78537 
L 841.092298 294.388528 
L 842.005846 290.700303 
L 842.46262 293.533243 
L 843.376167 312.502697 
L 843.832941 317.651933 
L 844.289715 313.938106 
L 845.660036 279.885795 
L 846.11681 280.515738 
L 847.030358 295.38222 
L 847.487132 298.136789 
L 847.943906 297.848224 
L 848.40068 297.87948 
L 848.857453 299.758766 
L 849.771001 306.07542 
L 850.227775 306.114201 
L 850.684549 304.014776 
L 851.141323 301.327359 
L 852.05487 293.16138 
L 852.511644 291.555482 
L 853.425192 297.597234 
L 853.881966 297.124699 
L 854.795513 291.232299 
L 855.252287 290.018374 
L 856.165835 285.704052 
L 856.622609 285.546844 
L 857.079383 287.95358 
L 857.536156 294.104446 
L 858.449704 313.174965 
L 858.906478 318.566616 
L 859.363252 318.427176 
L 859.820026 311.964804 
L 860.733573 291.661575 
L 861.190347 292.559037 
L 862.103895 312.25336 
L 862.560669 306.711675 
L 863.474216 272.832344 
L 863.93099 270.016103 
L 864.387764 278.577986 
L 865.301312 300.655547 
L 865.758086 307.160592 
L 866.214859 306.614747 
L 867.128407 296.365534 
L 868.041955 283.367911 
L 868.498729 279.680702 
L 868.955502 282.774909 
L 869.412276 290.837111 
L 869.86905 296.458259 
L 870.325824 296.444402 
L 870.782598 294.660302 
L 871.239372 295.229298 
L 871.696145 297.804152 
L 872.152919 299.642929 
L 872.609693 297.990557 
L 873.523241 285.669684 
L 873.980015 284.441008 
L 874.436789 288.682146 
L 875.350336 301.557583 
L 875.80711 304.064054 
L 876.263884 301.02282 
L 877.177432 287.981173 
L 877.634205 285.857155 
L 878.090979 287.816365 
L 878.547753 293.053752 
L 879.004527 299.588383 
L 879.461301 304.161321 
L 879.918075 304.557963 
L 880.374848 302.158124 
L 881.74517 290.957401 
L 882.201944 291.93709 
L 883.115491 297.760167 
L 883.572265 301.477744 
L 884.485813 310.207484 
L 884.942587 310.874095 
L 885.399361 307.418017 
L 885.856135 301.976523 
L 886.312908 298.773003 
L 886.769682 300.444987 
L 887.226456 304.643001 
L 887.68323 305.63357 
L 888.596778 294.712513 
L 889.053551 292.751118 
L 889.510325 294.244755 
L 890.423873 300.384702 
L 890.880647 302.343867 
L 891.337421 302.57606 
L 891.794194 301.973437 
L 892.707742 301.317366 
L 893.164516 299.74564 
L 893.62129 297.025732 
L 894.991611 284.325683 
L 895.448385 283.492692 
L 895.905159 287.556572 
L 896.361933 294.020021 
L 896.818707 297.367503 
L 897.275481 294.429553 
L 898.645802 278.142666 
L 899.102576 275.387292 
L 899.55935 275.187883 
L 900.016124 277.362408 
L 900.472897 282.36428 
L 901.386445 294.566058 
L 901.843219 298.038729 
L 902.756767 302.959358 
L 903.213541 302.880632 
L 904.127088 296.184571 
L 904.583862 296.839886 
L 905.49741 303.207399 
L 905.954184 303.677974 
L 906.410957 300.960702 
L 907.324505 290.959358 
L 907.781279 291.006819 
L 908.238053 295.528744 
L 909.1516 308.677134 
L 909.608374 307.951609 
L 910.065148 302.288653 
L 910.521922 299.272673 
L 910.978696 301.010928 
L 911.43547 305.153304 
L 911.892244 308.210175 
L 912.349017 307.553638 
L 913.262565 302.244757 
L 913.719339 300.553365 
L 914.176113 297.795982 
L 915.08966 288.539187 
L 915.546434 287.810494 
L 916.003208 291.642563 
L 916.459982 296.475063 
L 916.916756 297.61059 
L 917.37353 294.373797 
L 918.287077 282.866512 
L 918.743851 284.017098 
L 919.200625 289.565307 
L 919.657399 293.119899 
L 920.114173 293.561846 
L 920.570946 294.679565 
L 921.484494 303.41215 
L 921.941268 302.958309 
L 923.768363 281.397658 
L 924.225137 279.986025 
L 924.681911 283.500318 
L 925.595459 300.650019 
L 926.052233 303.125386 
L 926.96578 298.265979 
L 927.422554 298.087062 
L 927.879328 297.546886 
L 928.336102 296.567642 
L 928.792876 297.06756 
L 929.249649 299.914194 
L 929.706423 303.82902 
L 930.163197 305.794072 
L 930.619971 305.082449 
L 931.076745 302.978386 
L 931.990293 297.247065 
L 932.447066 297.379778 
L 932.90384 297.631316 
L 933.360614 294.818371 
L 933.817388 290.930565 
L 934.274162 290.055032 
L 934.730936 291.637704 
L 935.187709 293.983121 
L 935.644483 297.584789 
L 936.558031 306.92169 
L 937.014805 306.376196 
L 937.471579 301.153276 
L 938.385126 288.380333 
L 938.8419 287.262553 
L 939.755448 295.63164 
L 940.212222 296.569407 
L 941.125769 292.726565 
L 941.582543 292.196499 
L 942.039317 291.472102 
L 943.866412 285.84497 
L 944.323186 285.52281 
L 944.77996 288.056332 
L 945.236734 292.422425 
L 946.150282 303.672214 
L 946.607055 305.416666 
L 947.063829 301.919504 
L 947.520603 295.440752 
L 947.977377 291.926548 
L 948.434151 293.166182 
L 948.890925 298.445658 
L 949.804472 312.020116 
L 950.261246 312.451358 
L 950.71802 305.117558 
L 951.174794 294.835668 
L 951.631568 288.570854 
L 952.088342 288.981409 
L 953.001889 297.987768 
L 953.458663 298.308447 
L 954.828985 291.472691 
L 955.285758 290.501637 
L 955.742532 292.411023 
L 956.199306 295.679366 
L 956.65608 296.834435 
L 957.112854 296.887432 
L 957.569628 297.892358 
L 958.483175 301.166087 
L 958.939949 301.79179 
L 959.396723 301.597524 
L 959.853497 301.089452 
L 960.310271 301.165832 
L 960.767045 300.646027 
L 961.223818 298.514091 
L 962.137366 293.103093 
L 962.59414 292.748357 
L 963.507688 295.654484 
L 963.964461 296.27876 
L 964.421235 297.336379 
L 964.878009 297.82361 
L 965.334783 296.401159 
L 966.248331 289.029157 
L 966.705104 287.563207 
L 967.161878 288.728846 
L 967.618652 291.443325 
L 968.988974 302.34175 
L 969.445748 301.074413 
L 970.359295 290.414471 
L 970.816069 288.111869 
L 971.272843 288.432663 
L 971.729617 290.985759 
L 972.643164 297.852392 
L 973.099938 299.229416 
L 973.556712 300.098413 
L 974.013486 299.842436 
L 974.47026 297.325474 
L 974.927034 293.861475 
L 975.383807 293.270459 
L 976.297355 299.73842 
L 976.754129 298.341814 
L 977.210903 294.350911 
L 977.667677 292.278215 
L 978.124451 293.238196 
L 979.037998 298.036967 
L 979.494772 297.745442 
L 979.951546 295.394356 
L 980.40832 293.652887 
L 980.865094 293.924066 
L 981.778641 296.690562 
L 982.235415 298.430773 
L 982.692189 299.433074 
L 983.148963 298.754547 
L 984.06251 294.972305 
L 984.519284 293.867018 
L 984.976058 294.345673 
L 985.432832 295.95766 
L 985.889606 297.018925 
L 986.34638 296.225107 
L 986.803154 294.550802 
L 987.259927 293.691398 
L 987.716701 294.113863 
L 989.543797 298.18521 
L 990.00057 298.03382 
L 990.457344 296.933572 
L 990.914118 295.414731 
L 991.370892 294.482859 
L 991.827666 294.817377 
L 992.741213 297.206604 
L 993.197987 297.062323 
L 994.111535 295.307119 
L 994.568309 294.840682 
L 995.025083 294.778862 
L 995.481856 295.095065 
L 996.395404 296.196185 
L 996.852178 296.424488 
L 997.765726 296.146593 
L 998.2225 296.295447 
L 998.679273 296.568271 
L 999.136047 296.583296 
L 1000.049595 295.921644 
L 1000.506369 295.793134 
L 1002.333464 296.132307 
L 1003.703786 295.812722 
L 1006.901203 295.696644 
L 1009.185072 295.667948 
L 1022.431513 295.957296 
L 1035.677955 295.991358 
L 1035.677955 295.991358 
" clip-path="url(#p711fb1cbe7)" style="fill: none; stroke: #0c5da5; stroke-width: 2; stroke-linecap: square"/>
   </g>
   <g id="patch_3">
    <path d="M 76.9325 520.7175 
L 76.9325 21.7575 
" style="fill: none; stroke: #000000; stroke-linejoin: miter; stroke-linecap: square"/>
   </g>
   <g id="patch_4">
    <path d="M 1081.3325 520.7175 
L 1081.3325 21.7575 
" style="fill: none; stroke: #000000; stroke-linejoin: miter; stroke-linecap: square"/>
   </g>
   <g id="patch_5">
    <path d="M 76.9325 520.7175 
L 1081.3325 520.7175 
" style="fill: none; stroke: #000000; stroke-linejoin: miter; stroke-linecap: square"/>
   </g>
   <g id="patch_6">
    <path d="M 76.9325 21.7575 
L 1081.3325 21.7575 
" style="fill: none; stroke: #000000; stroke-linejoin: miter; stroke-linecap: square"/>
   </g>
   <g id="text_20">
    <!-- Northridge-01 Record no. 943 -->
    <g transform="translate(460.1925 15.7575) scale(0.16 -0.16)">
     <defs>
      <path id="DejaVuSans-4e" d="M 628 4666 
L 1478 4666 
L 3547 763 
L 3547 4666 
L 4159 4666 
L 4159 0 
L 3309 0 
L 1241 3903 
L 1241 0 
L 628 0 
L 628 4666 
z
" transform="scale(0.015625)"/>
      <path id="DejaVuSans-68" d="M 3513 2113 
L 3513 0 
L 2938 0 
L 2938 2094 
Q 2938 2591 2744 2837 
Q 2550 3084 2163 3084 
Q 1697 3084 1428 2787 
Q 1159 2491 1159 1978 
L 1159 0 
L 581 0 
L 581 4863 
L 1159 4863 
L 1159 2956 
Q 1366 3272 1645 3428 
Q 1925 3584 2291 3584 
Q 2894 3584 3203 3211 
Q 3513 2838 3513 2113 
z
" transform="scale(0.015625)"/>
      <path id="DejaVuSans-64" d="M 2906 2969 
L 2906 4863 
L 3481 4863 
L 3481 0 
L 2906 0 
L 2906 525 
Q 2725 213 2448 61 
Q 2172 -91 1784 -91 
Q 1150 -91 751 415 
Q 353 922 353 1747 
Q 353 2572 751 3078 
Q 1150 3584 1784 3584 
Q 2172 3584 2448 3432 
Q 2725 3281 2906 2969 
z
M 947 1747 
Q 947 1113 1208 752 
Q 1469 391 1925 391 
Q 2381 391 2643 752 
Q 2906 1113 2906 1747 
Q 2906 2381 2643 2742 
Q 2381 3103 1925 3103 
Q 1469 3103 1208 2742 
Q 947 2381 947 1747 
z
" transform="scale(0.015625)"/>
      <path id="DejaVuSans-67" d="M 2906 1791 
Q 2906 2416 2648 2759 
Q 2391 3103 1925 3103 
Q 1463 3103 1205 2759 
Q 947 2416 947 1791 
Q 947 1169 1205 825 
Q 1463 481 1925 481 
Q 2391 481 2648 825 
Q 2906 1169 2906 1791 
z
M 3481 434 
Q 3481 -459 3084 -895 
Q 2688 -1331 1869 -1331 
Q 1566 -1331 1297 -1286 
Q 1028 -1241 775 -1147 
L 775 -588 
Q 1028 -725 1275 -790 
Q 1522 -856 1778 -856 
Q 2344 -856 2625 -561 
Q 2906 -266 2906 331 
L 2906 616 
Q 2728 306 2450 153 
Q 2172 0 1784 0 
Q 1141 0 747 490 
Q 353 981 353 1791 
Q 353 2603 747 3093 
Q 1141 3584 1784 3584 
Q 2172 3584 2450 3431 
Q 2728 3278 2906 2969 
L 2906 3500 
L 3481 3500 
L 3481 434 
z
" transform="scale(0.015625)"/>
      <path id="DejaVuSans-2d" d="M 313 2009 
L 1997 2009 
L 1997 1497 
L 313 1497 
L 313 2009 
z
" transform="scale(0.015625)"/>
      <path id="DejaVuSans-39" d="M 703 97 
L 703 672 
Q 941 559 1184 500 
Q 1428 441 1663 441 
Q 2288 441 2617 861 
Q 2947 1281 2994 2138 
Q 2813 1869 2534 1725 
Q 2256 1581 1919 1581 
Q 1219 1581 811 2004 
Q 403 2428 403 3163 
Q 403 3881 828 4315 
Q 1253 4750 1959 4750 
Q 2769 4750 3195 4129 
Q 3622 3509 3622 2328 
Q 3622 1225 3098 567 
Q 2575 -91 1691 -91 
Q 1453 -91 1209 -44 
Q 966 3 703 97 
z
M 1959 2075 
Q 2384 2075 2632 2365 
Q 2881 2656 2881 3163 
Q 2881 3666 2632 3958 
Q 2384 4250 1959 4250 
Q 1534 4250 1286 3958 
Q 1038 3666 1038 3163 
Q 1038 2656 1286 2365 
Q 1534 2075 1959 2075 
z
" transform="scale(0.015625)"/>
     </defs>
     <use xlink:href="#DejaVuSans-4e"/>
     <use xlink:href="#DejaVuSans-6f" x="74.804688"/>
     <use xlink:href="#DejaVuSans-72" x="135.986328"/>
     <use xlink:href="#DejaVuSans-74" x="177.099609"/>
     <use xlink:href="#DejaVuSans-68" x="216.308594"/>
     <use xlink:href="#DejaVuSans-72" x="279.6875"/>
     <use xlink:href="#DejaVuSans-69" x="320.800781"/>
     <use xlink:href="#DejaVuSans-64" x="348.583984"/>
     <use xlink:href="#DejaVuSans-67" x="412.060547"/>
     <use xlink:href="#DejaVuSans-65" x="475.537109"/>
     <use xlink:href="#DejaVuSans-2d" x="537.060547"/>
     <use xlink:href="#DejaVuSans-30" x="573.144531"/>
     <use xlink:href="#DejaVuSans-31" x="636.767578"/>
     <use xlink:href="#DejaVuSans-20" x="700.390625"/>
     <use xlink:href="#DejaVuSans-52" x="732.177734"/>
     <use xlink:href="#DejaVuSans-65" x="797.160156"/>
     <use xlink:href="#DejaVuSans-63" x="858.683594"/>
     <use xlink:href="#DejaVuSans-6f" x="913.664062"/>
     <use xlink:href="#DejaVuSans-72" x="974.845703"/>
     <use xlink:href="#DejaVuSans-64" x="1014.208984"/>
     <use xlink:href="#DejaVuSans-20" x="1077.685547"/>
     <use xlink:href="#DejaVuSans-6e" x="1109.472656"/>
     <use xlink:href="#DejaVuSans-6f" x="1172.851562"/>
     <use xlink:href="#DejaVuSans-2e" x="1232.283203"/>
     <use xlink:href="#DejaVuSans-20" x="1264.070312"/>
     <use xlink:href="#DejaVuSans-39" x="1295.857422"/>
     <use xlink:href="#DejaVuSans-34" x="1359.480469"/>
     <use xlink:href="#DejaVuSans-33" x="1423.103516"/>
    </g>
   </g>
  </g>
 </g>
 <defs>
  <clipPath id="p711fb1cbe7">
   <rect x="76.9325" y="21.7575" width="1004.4" height="498.96"/>
  </clipPath>
 </defs>
</svg>
