<?xml version="1.0" encoding="utf-8" standalone="no"?>
<!DOCTYPE svg PUBLIC "-//W3C//DTD SVG 1.1//EN"
  "http://www.w3.org/Graphics/SVG/1.1/DTD/svg11.dtd">
<svg xmlns:xlink="http://www.w3.org/1999/xlink" width="1058.1725pt" height="396.4675pt" viewBox="0 0 1058.1725 396.4675" xmlns="http://www.w3.org/2000/svg" version="1.1">
 <metadata>
  <rdf:RDF xmlns:dc="http://purl.org/dc/elements/1.1/" xmlns:cc="http://creativecommons.org/ns#" xmlns:rdf="http://www.w3.org/1999/02/22-rdf-syntax-ns#">
   <cc:Work>
    <dc:type rdf:resource="http://purl.org/dc/dcmitype/StillImage"/>
    <dc:date>2023-06-06T10:02:53.096450</dc:date>
    <dc:format>image/svg+xml</dc:format>
    <dc:creator>
     <cc:Agent>
      <dc:title>Matplotlib v3.7.1, https://matplotlib.org/</dc:title>
     </cc:Agent>
    </dc:creator>
   </cc:Work>
  </rdf:RDF>
 </metadata>
 <defs>
  <style type="text/css">*{stroke-linejoin: round; stroke-linecap: butt}</style>
 </defs>
 <g id="figure_1">
  <g id="patch_1">
   <path d="M 0 396.4675 
L 1058.1725 396.4675 
L 1058.1725 0 
L 0 0 
z
" style="fill: #ffffff"/>
  </g>
  <g id="axes_1">
   <g id="patch_2">
    <path d="M 50.1725 354.3975 
L 1054.5725 354.3975 
L 1054.5725 21.7575 
L 50.1725 21.7575 
z
" style="fill: #ffffff"/>
   </g>
   <g id="matplotlib.axis_1">
    <g id="xtick_1">
     <g id="line2d_1">
      <path d="M 95.827045 354.3975 
L 95.827045 21.7575 
" clip-path="url(#pd69b325067)" style="fill: none; stroke-dasharray: 1.85,0.8; stroke-dashoffset: 0; stroke: #000000; stroke-opacity: 0.5; stroke-width: 0.5"/>
     </g>
     <g id="line2d_2">
      <defs>
       <path id="me404449ac6" d="M 0 0 
L 0 -6 
" style="stroke: #000000"/>
      </defs>
      <g>
       <use xlink:href="#me404449ac6" x="95.827045" y="354.3975" style="stroke: #000000"/>
      </g>
     </g>
     <g id="line2d_3">
      <defs>
       <path id="m7ce8ee5302" d="M 0 0 
L 0 6 
" style="stroke: #000000"/>
      </defs>
      <g>
       <use xlink:href="#m7ce8ee5302" x="95.827045" y="21.7575" style="stroke: #000000"/>
      </g>
     </g>
     <g id="text_1">
      <!-- 0 -->
      <g transform="translate(90.737045 370.055) scale(0.16 -0.16)">
       <defs>
        <path id="DejaVuSans-30" d="M 2034 4250 
Q 1547 4250 1301 3770 
Q 1056 3291 1056 2328 
Q 1056 1369 1301 889 
Q 1547 409 2034 409 
Q 2525 409 2770 889 
Q 3016 1369 3016 2328 
Q 3016 3291 2770 3770 
Q 2525 4250 2034 4250 
z
M 2034 4750 
Q 2819 4750 3233 4129 
Q 3647 3509 3647 2328 
Q 3647 1150 3233 529 
Q 2819 -91 2034 -91 
Q 1250 -91 836 529 
Q 422 1150 422 2328 
Q 422 3509 836 4129 
Q 1250 4750 2034 4750 
z
" transform="scale(0.015625)"/>
       </defs>
       <use xlink:href="#DejaVuSans-30"/>
      </g>
     </g>
    </g>
    <g id="xtick_2">
     <g id="line2d_4">
      <path d="M 278.463491 354.3975 
L 278.463491 21.7575 
" clip-path="url(#pd69b325067)" style="fill: none; stroke-dasharray: 1.85,0.8; stroke-dashoffset: 0; stroke: #000000; stroke-opacity: 0.5; stroke-width: 0.5"/>
     </g>
     <g id="line2d_5">
      <g>
       <use xlink:href="#me404449ac6" x="278.463491" y="354.3975" style="stroke: #000000"/>
      </g>
     </g>
     <g id="line2d_6">
      <g>
       <use xlink:href="#m7ce8ee5302" x="278.463491" y="21.7575" style="stroke: #000000"/>
      </g>
     </g>
     <g id="text_2">
      <!-- 10 -->
      <g transform="translate(268.283491 370.055) scale(0.16 -0.16)">
       <defs>
        <path id="DejaVuSans-31" d="M 794 531 
L 1825 531 
L 1825 4091 
L 703 3866 
L 703 4441 
L 1819 4666 
L 2450 4666 
L 2450 531 
L 3481 531 
L 3481 0 
L 794 0 
L 794 531 
z
" transform="scale(0.015625)"/>
       </defs>
       <use xlink:href="#DejaVuSans-31"/>
       <use xlink:href="#DejaVuSans-30" x="63.623047"/>
      </g>
     </g>
    </g>
    <g id="xtick_3">
     <g id="line2d_7">
      <path d="M 461.099936 354.3975 
L 461.099936 21.7575 
" clip-path="url(#pd69b325067)" style="fill: none; stroke-dasharray: 1.85,0.8; stroke-dashoffset: 0; stroke: #000000; stroke-opacity: 0.5; stroke-width: 0.5"/>
     </g>
     <g id="line2d_8">
      <g>
       <use xlink:href="#me404449ac6" x="461.099936" y="354.3975" style="stroke: #000000"/>
      </g>
     </g>
     <g id="line2d_9">
      <g>
       <use xlink:href="#m7ce8ee5302" x="461.099936" y="21.7575" style="stroke: #000000"/>
      </g>
     </g>
     <g id="text_3">
      <!-- 20 -->
      <g transform="translate(450.919936 370.055) scale(0.16 -0.16)">
       <defs>
        <path id="DejaVuSans-32" d="M 1228 531 
L 3431 531 
L 3431 0 
L 469 0 
L 469 531 
Q 828 903 1448 1529 
Q 2069 2156 2228 2338 
Q 2531 2678 2651 2914 
Q 2772 3150 2772 3378 
Q 2772 3750 2511 3984 
Q 2250 4219 1831 4219 
Q 1534 4219 1204 4116 
Q 875 4013 500 3803 
L 500 4441 
Q 881 4594 1212 4672 
Q 1544 4750 1819 4750 
Q 2544 4750 2975 4387 
Q 3406 4025 3406 3419 
Q 3406 3131 3298 2873 
Q 3191 2616 2906 2266 
Q 2828 2175 2409 1742 
Q 1991 1309 1228 531 
z
" transform="scale(0.015625)"/>
       </defs>
       <use xlink:href="#DejaVuSans-32"/>
       <use xlink:href="#DejaVuSans-30" x="63.623047"/>
      </g>
     </g>
    </g>
    <g id="xtick_4">
     <g id="line2d_10">
      <path d="M 643.736382 354.3975 
L 643.736382 21.7575 
" clip-path="url(#pd69b325067)" style="fill: none; stroke-dasharray: 1.85,0.8; stroke-dashoffset: 0; stroke: #000000; stroke-opacity: 0.5; stroke-width: 0.5"/>
     </g>
     <g id="line2d_11">
      <g>
       <use xlink:href="#me404449ac6" x="643.736382" y="354.3975" style="stroke: #000000"/>
      </g>
     </g>
     <g id="line2d_12">
      <g>
       <use xlink:href="#m7ce8ee5302" x="643.736382" y="21.7575" style="stroke: #000000"/>
      </g>
     </g>
     <g id="text_4">
      <!-- 30 -->
      <g transform="translate(633.556382 370.055) scale(0.16 -0.16)">
       <defs>
        <path id="DejaVuSans-33" d="M 2597 2516 
Q 3050 2419 3304 2112 
Q 3559 1806 3559 1356 
Q 3559 666 3084 287 
Q 2609 -91 1734 -91 
Q 1441 -91 1130 -33 
Q 819 25 488 141 
L 488 750 
Q 750 597 1062 519 
Q 1375 441 1716 441 
Q 2309 441 2620 675 
Q 2931 909 2931 1356 
Q 2931 1769 2642 2001 
Q 2353 2234 1838 2234 
L 1294 2234 
L 1294 2753 
L 1863 2753 
Q 2328 2753 2575 2939 
Q 2822 3125 2822 3475 
Q 2822 3834 2567 4026 
Q 2313 4219 1838 4219 
Q 1578 4219 1281 4162 
Q 984 4106 628 3988 
L 628 4550 
Q 988 4650 1302 4700 
Q 1616 4750 1894 4750 
Q 2613 4750 3031 4423 
Q 3450 4097 3450 3541 
Q 3450 3153 3228 2886 
Q 3006 2619 2597 2516 
z
" transform="scale(0.015625)"/>
       </defs>
       <use xlink:href="#DejaVuSans-33"/>
       <use xlink:href="#DejaVuSans-30" x="63.623047"/>
      </g>
     </g>
    </g>
    <g id="xtick_5">
     <g id="line2d_13">
      <path d="M 826.372827 354.3975 
L 826.372827 21.7575 
" clip-path="url(#pd69b325067)" style="fill: none; stroke-dasharray: 1.85,0.8; stroke-dashoffset: 0; stroke: #000000; stroke-opacity: 0.5; stroke-width: 0.5"/>
     </g>
     <g id="line2d_14">
      <g>
       <use xlink:href="#me404449ac6" x="826.372827" y="354.3975" style="stroke: #000000"/>
      </g>
     </g>
     <g id="line2d_15">
      <g>
       <use xlink:href="#m7ce8ee5302" x="826.372827" y="21.7575" style="stroke: #000000"/>
      </g>
     </g>
     <g id="text_5">
      <!-- 40 -->
      <g transform="translate(816.192827 370.055) scale(0.16 -0.16)">
       <defs>
        <path id="DejaVuSans-34" d="M 2419 4116 
L 825 1625 
L 2419 1625 
L 2419 4116 
z
M 2253 4666 
L 3047 4666 
L 3047 1625 
L 3713 1625 
L 3713 1100 
L 3047 1100 
L 3047 0 
L 2419 0 
L 2419 1100 
L 313 1100 
L 313 1709 
L 2253 4666 
z
" transform="scale(0.015625)"/>
       </defs>
       <use xlink:href="#DejaVuSans-34"/>
       <use xlink:href="#DejaVuSans-30" x="63.623047"/>
      </g>
     </g>
    </g>
    <g id="xtick_6">
     <g id="line2d_16">
      <path d="M 1009.009273 354.3975 
L 1009.009273 21.7575 
" clip-path="url(#pd69b325067)" style="fill: none; stroke-dasharray: 1.85,0.8; stroke-dashoffset: 0; stroke: #000000; stroke-opacity: 0.5; stroke-width: 0.5"/>
     </g>
     <g id="line2d_17">
      <g>
       <use xlink:href="#me404449ac6" x="1009.009273" y="354.3975" style="stroke: #000000"/>
      </g>
     </g>
     <g id="line2d_18">
      <g>
       <use xlink:href="#m7ce8ee5302" x="1009.009273" y="21.7575" style="stroke: #000000"/>
      </g>
     </g>
     <g id="text_6">
      <!-- 50 -->
      <g transform="translate(998.829273 370.055) scale(0.16 -0.16)">
       <defs>
        <path id="DejaVuSans-35" d="M 691 4666 
L 3169 4666 
L 3169 4134 
L 1269 4134 
L 1269 2991 
Q 1406 3038 1543 3061 
Q 1681 3084 1819 3084 
Q 2600 3084 3056 2656 
Q 3513 2228 3513 1497 
Q 3513 744 3044 326 
Q 2575 -91 1722 -91 
Q 1428 -91 1123 -41 
Q 819 9 494 109 
L 494 744 
Q 775 591 1075 516 
Q 1375 441 1709 441 
Q 2250 441 2565 725 
Q 2881 1009 2881 1497 
Q 2881 1984 2565 2268 
Q 2250 2553 1709 2553 
Q 1456 2553 1204 2497 
Q 953 2441 691 2322 
L 691 4666 
z
" transform="scale(0.015625)"/>
       </defs>
       <use xlink:href="#DejaVuSans-35"/>
       <use xlink:href="#DejaVuSans-30" x="63.623047"/>
      </g>
     </g>
    </g>
    <g id="xtick_7">
     <g id="line2d_19">
      <defs>
       <path id="m0d33676581" d="M 0 0 
L 0 -3 
" style="stroke: #000000"/>
      </defs>
      <g>
       <use xlink:href="#m0d33676581" x="59.299756" y="354.3975" style="stroke: #000000"/>
      </g>
     </g>
     <g id="line2d_20">
      <defs>
       <path id="m1a4a480a7d" d="M 0 0 
L 0 3 
" style="stroke: #000000"/>
      </defs>
      <g>
       <use xlink:href="#m1a4a480a7d" x="59.299756" y="21.7575" style="stroke: #000000"/>
      </g>
     </g>
    </g>
    <g id="xtick_8">
     <g id="line2d_21">
      <g>
       <use xlink:href="#m0d33676581" x="132.354335" y="354.3975" style="stroke: #000000"/>
      </g>
     </g>
     <g id="line2d_22">
      <g>
       <use xlink:href="#m1a4a480a7d" x="132.354335" y="21.7575" style="stroke: #000000"/>
      </g>
     </g>
    </g>
    <g id="xtick_9">
     <g id="line2d_23">
      <g>
       <use xlink:href="#m0d33676581" x="168.881624" y="354.3975" style="stroke: #000000"/>
      </g>
     </g>
     <g id="line2d_24">
      <g>
       <use xlink:href="#m1a4a480a7d" x="168.881624" y="21.7575" style="stroke: #000000"/>
      </g>
     </g>
    </g>
    <g id="xtick_10">
     <g id="line2d_25">
      <g>
       <use xlink:href="#m0d33676581" x="205.408913" y="354.3975" style="stroke: #000000"/>
      </g>
     </g>
     <g id="line2d_26">
      <g>
       <use xlink:href="#m1a4a480a7d" x="205.408913" y="21.7575" style="stroke: #000000"/>
      </g>
     </g>
    </g>
    <g id="xtick_11">
     <g id="line2d_27">
      <g>
       <use xlink:href="#m0d33676581" x="241.936202" y="354.3975" style="stroke: #000000"/>
      </g>
     </g>
     <g id="line2d_28">
      <g>
       <use xlink:href="#m1a4a480a7d" x="241.936202" y="21.7575" style="stroke: #000000"/>
      </g>
     </g>
    </g>
    <g id="xtick_12">
     <g id="line2d_29">
      <g>
       <use xlink:href="#m0d33676581" x="314.99078" y="354.3975" style="stroke: #000000"/>
      </g>
     </g>
     <g id="line2d_30">
      <g>
       <use xlink:href="#m1a4a480a7d" x="314.99078" y="21.7575" style="stroke: #000000"/>
      </g>
     </g>
    </g>
    <g id="xtick_13">
     <g id="line2d_31">
      <g>
       <use xlink:href="#m0d33676581" x="351.518069" y="354.3975" style="stroke: #000000"/>
      </g>
     </g>
     <g id="line2d_32">
      <g>
       <use xlink:href="#m1a4a480a7d" x="351.518069" y="21.7575" style="stroke: #000000"/>
      </g>
     </g>
    </g>
    <g id="xtick_14">
     <g id="line2d_33">
      <g>
       <use xlink:href="#m0d33676581" x="388.045358" y="354.3975" style="stroke: #000000"/>
      </g>
     </g>
     <g id="line2d_34">
      <g>
       <use xlink:href="#m1a4a480a7d" x="388.045358" y="21.7575" style="stroke: #000000"/>
      </g>
     </g>
    </g>
    <g id="xtick_15">
     <g id="line2d_35">
      <g>
       <use xlink:href="#m0d33676581" x="424.572647" y="354.3975" style="stroke: #000000"/>
      </g>
     </g>
     <g id="line2d_36">
      <g>
       <use xlink:href="#m1a4a480a7d" x="424.572647" y="21.7575" style="stroke: #000000"/>
      </g>
     </g>
    </g>
    <g id="xtick_16">
     <g id="line2d_37">
      <g>
       <use xlink:href="#m0d33676581" x="497.627225" y="354.3975" style="stroke: #000000"/>
      </g>
     </g>
     <g id="line2d_38">
      <g>
       <use xlink:href="#m1a4a480a7d" x="497.627225" y="21.7575" style="stroke: #000000"/>
      </g>
     </g>
    </g>
    <g id="xtick_17">
     <g id="line2d_39">
      <g>
       <use xlink:href="#m0d33676581" x="534.154515" y="354.3975" style="stroke: #000000"/>
      </g>
     </g>
     <g id="line2d_40">
      <g>
       <use xlink:href="#m1a4a480a7d" x="534.154515" y="21.7575" style="stroke: #000000"/>
      </g>
     </g>
    </g>
    <g id="xtick_18">
     <g id="line2d_41">
      <g>
       <use xlink:href="#m0d33676581" x="570.681804" y="354.3975" style="stroke: #000000"/>
      </g>
     </g>
     <g id="line2d_42">
      <g>
       <use xlink:href="#m1a4a480a7d" x="570.681804" y="21.7575" style="stroke: #000000"/>
      </g>
     </g>
    </g>
    <g id="xtick_19">
     <g id="line2d_43">
      <g>
       <use xlink:href="#m0d33676581" x="607.209093" y="354.3975" style="stroke: #000000"/>
      </g>
     </g>
     <g id="line2d_44">
      <g>
       <use xlink:href="#m1a4a480a7d" x="607.209093" y="21.7575" style="stroke: #000000"/>
      </g>
     </g>
    </g>
    <g id="xtick_20">
     <g id="line2d_45">
      <g>
       <use xlink:href="#m0d33676581" x="680.263671" y="354.3975" style="stroke: #000000"/>
      </g>
     </g>
     <g id="line2d_46">
      <g>
       <use xlink:href="#m1a4a480a7d" x="680.263671" y="21.7575" style="stroke: #000000"/>
      </g>
     </g>
    </g>
    <g id="xtick_21">
     <g id="line2d_47">
      <g>
       <use xlink:href="#m0d33676581" x="716.79096" y="354.3975" style="stroke: #000000"/>
      </g>
     </g>
     <g id="line2d_48">
      <g>
       <use xlink:href="#m1a4a480a7d" x="716.79096" y="21.7575" style="stroke: #000000"/>
      </g>
     </g>
    </g>
    <g id="xtick_22">
     <g id="line2d_49">
      <g>
       <use xlink:href="#m0d33676581" x="753.318249" y="354.3975" style="stroke: #000000"/>
      </g>
     </g>
     <g id="line2d_50">
      <g>
       <use xlink:href="#m1a4a480a7d" x="753.318249" y="21.7575" style="stroke: #000000"/>
      </g>
     </g>
    </g>
    <g id="xtick_23">
     <g id="line2d_51">
      <g>
       <use xlink:href="#m0d33676581" x="789.845538" y="354.3975" style="stroke: #000000"/>
      </g>
     </g>
     <g id="line2d_52">
      <g>
       <use xlink:href="#m1a4a480a7d" x="789.845538" y="21.7575" style="stroke: #000000"/>
      </g>
     </g>
    </g>
    <g id="xtick_24">
     <g id="line2d_53">
      <g>
       <use xlink:href="#m0d33676581" x="862.900116" y="354.3975" style="stroke: #000000"/>
      </g>
     </g>
     <g id="line2d_54">
      <g>
       <use xlink:href="#m1a4a480a7d" x="862.900116" y="21.7575" style="stroke: #000000"/>
      </g>
     </g>
    </g>
    <g id="xtick_25">
     <g id="line2d_55">
      <g>
       <use xlink:href="#m0d33676581" x="899.427405" y="354.3975" style="stroke: #000000"/>
      </g>
     </g>
     <g id="line2d_56">
      <g>
       <use xlink:href="#m1a4a480a7d" x="899.427405" y="21.7575" style="stroke: #000000"/>
      </g>
     </g>
    </g>
    <g id="xtick_26">
     <g id="line2d_57">
      <g>
       <use xlink:href="#m0d33676581" x="935.954695" y="354.3975" style="stroke: #000000"/>
      </g>
     </g>
     <g id="line2d_58">
      <g>
       <use xlink:href="#m1a4a480a7d" x="935.954695" y="21.7575" style="stroke: #000000"/>
      </g>
     </g>
    </g>
    <g id="xtick_27">
     <g id="line2d_59">
      <g>
       <use xlink:href="#m0d33676581" x="972.481984" y="354.3975" style="stroke: #000000"/>
      </g>
     </g>
     <g id="line2d_60">
      <g>
       <use xlink:href="#m1a4a480a7d" x="972.481984" y="21.7575" style="stroke: #000000"/>
      </g>
     </g>
    </g>
    <g id="xtick_28">
     <g id="line2d_61">
      <g>
       <use xlink:href="#m0d33676581" x="1045.536562" y="354.3975" style="stroke: #000000"/>
      </g>
     </g>
     <g id="line2d_62">
      <g>
       <use xlink:href="#m1a4a480a7d" x="1045.536562" y="21.7575" style="stroke: #000000"/>
      </g>
     </g>
    </g>
    <g id="text_7">
     <!-- Time (s) -->
     <g transform="translate(519.84625 389.54) scale(0.16 -0.16)">
      <defs>
       <path id="DejaVuSans-54" d="M -19 4666 
L 3928 4666 
L 3928 4134 
L 2272 4134 
L 2272 0 
L 1638 0 
L 1638 4134 
L -19 4134 
L -19 4666 
z
" transform="scale(0.015625)"/>
       <path id="DejaVuSans-69" d="M 603 3500 
L 1178 3500 
L 1178 0 
L 603 0 
L 603 3500 
z
M 603 4863 
L 1178 4863 
L 1178 4134 
L 603 4134 
L 603 4863 
z
" transform="scale(0.015625)"/>
       <path id="DejaVuSans-6d" d="M 3328 2828 
Q 3544 3216 3844 3400 
Q 4144 3584 4550 3584 
Q 5097 3584 5394 3201 
Q 5691 2819 5691 2113 
L 5691 0 
L 5113 0 
L 5113 2094 
Q 5113 2597 4934 2840 
Q 4756 3084 4391 3084 
Q 3944 3084 3684 2787 
Q 3425 2491 3425 1978 
L 3425 0 
L 2847 0 
L 2847 2094 
Q 2847 2600 2669 2842 
Q 2491 3084 2119 3084 
Q 1678 3084 1418 2786 
Q 1159 2488 1159 1978 
L 1159 0 
L 581 0 
L 581 3500 
L 1159 3500 
L 1159 2956 
Q 1356 3278 1631 3431 
Q 1906 3584 2284 3584 
Q 2666 3584 2933 3390 
Q 3200 3197 3328 2828 
z
" transform="scale(0.015625)"/>
       <path id="DejaVuSans-65" d="M 3597 1894 
L 3597 1613 
L 953 1613 
Q 991 1019 1311 708 
Q 1631 397 2203 397 
Q 2534 397 2845 478 
Q 3156 559 3463 722 
L 3463 178 
Q 3153 47 2828 -22 
Q 2503 -91 2169 -91 
Q 1331 -91 842 396 
Q 353 884 353 1716 
Q 353 2575 817 3079 
Q 1281 3584 2069 3584 
Q 2775 3584 3186 3129 
Q 3597 2675 3597 1894 
z
M 3022 2063 
Q 3016 2534 2758 2815 
Q 2500 3097 2075 3097 
Q 1594 3097 1305 2825 
Q 1016 2553 972 2059 
L 3022 2063 
z
" transform="scale(0.015625)"/>
       <path id="DejaVuSans-20" transform="scale(0.015625)"/>
       <path id="DejaVuSans-28" d="M 1984 4856 
Q 1566 4138 1362 3434 
Q 1159 2731 1159 2009 
Q 1159 1288 1364 580 
Q 1569 -128 1984 -844 
L 1484 -844 
Q 1016 -109 783 600 
Q 550 1309 550 2009 
Q 550 2706 781 3412 
Q 1013 4119 1484 4856 
L 1984 4856 
z
" transform="scale(0.015625)"/>
       <path id="DejaVuSans-73" d="M 2834 3397 
L 2834 2853 
Q 2591 2978 2328 3040 
Q 2066 3103 1784 3103 
Q 1356 3103 1142 2972 
Q 928 2841 928 2578 
Q 928 2378 1081 2264 
Q 1234 2150 1697 2047 
L 1894 2003 
Q 2506 1872 2764 1633 
Q 3022 1394 3022 966 
Q 3022 478 2636 193 
Q 2250 -91 1575 -91 
Q 1294 -91 989 -36 
Q 684 19 347 128 
L 347 722 
Q 666 556 975 473 
Q 1284 391 1588 391 
Q 1994 391 2212 530 
Q 2431 669 2431 922 
Q 2431 1156 2273 1281 
Q 2116 1406 1581 1522 
L 1381 1569 
Q 847 1681 609 1914 
Q 372 2147 372 2553 
Q 372 3047 722 3315 
Q 1072 3584 1716 3584 
Q 2034 3584 2315 3537 
Q 2597 3491 2834 3397 
z
" transform="scale(0.015625)"/>
       <path id="DejaVuSans-29" d="M 513 4856 
L 1013 4856 
Q 1481 4119 1714 3412 
Q 1947 2706 1947 2009 
Q 1947 1309 1714 600 
Q 1481 -109 1013 -844 
L 513 -844 
Q 928 -128 1133 580 
Q 1338 1288 1338 2009 
Q 1338 2731 1133 3434 
Q 928 4138 513 4856 
z
" transform="scale(0.015625)"/>
      </defs>
      <use xlink:href="#DejaVuSans-54"/>
      <use xlink:href="#DejaVuSans-69" x="57.958984"/>
      <use xlink:href="#DejaVuSans-6d" x="85.742188"/>
      <use xlink:href="#DejaVuSans-65" x="183.154297"/>
      <use xlink:href="#DejaVuSans-20" x="244.677734"/>
      <use xlink:href="#DejaVuSans-28" x="276.464844"/>
      <use xlink:href="#DejaVuSans-73" x="315.478516"/>
      <use xlink:href="#DejaVuSans-29" x="367.578125"/>
     </g>
    </g>
   </g>
   <g id="matplotlib.axis_2">
    <g id="ytick_1">
     <g id="line2d_63">
      <path d="M 50.1725 335.055768 
L 1054.5725 335.055768 
" clip-path="url(#pd69b325067)" style="fill: none; stroke-dasharray: 1.85,0.8; stroke-dashoffset: 0; stroke: #000000; stroke-opacity: 0.5; stroke-width: 0.5"/>
     </g>
     <g id="line2d_64">
      <defs>
       <path id="mef2bc70ab2" d="M 0 0 
L 6 0 
" style="stroke: #000000"/>
      </defs>
      <g>
       <use xlink:href="#mef2bc70ab2" x="50.1725" y="335.055768" style="stroke: #000000"/>
      </g>
     </g>
     <g id="line2d_65">
      <defs>
       <path id="mfce6ace264" d="M 0 0 
L -6 0 
" style="stroke: #000000"/>
      </defs>
      <g>
       <use xlink:href="#mfce6ace264" x="1054.5725" y="335.055768" style="stroke: #000000"/>
      </g>
     </g>
     <g id="text_8">
      <!-- −8 -->
      <g transform="translate(23.085 341.134518) scale(0.16 -0.16)">
       <defs>
        <path id="DejaVuSans-2212" d="M 678 2272 
L 4684 2272 
L 4684 1741 
L 678 1741 
L 678 2272 
z
" transform="scale(0.015625)"/>
        <path id="DejaVuSans-38" d="M 2034 2216 
Q 1584 2216 1326 1975 
Q 1069 1734 1069 1313 
Q 1069 891 1326 650 
Q 1584 409 2034 409 
Q 2484 409 2743 651 
Q 3003 894 3003 1313 
Q 3003 1734 2745 1975 
Q 2488 2216 2034 2216 
z
M 1403 2484 
Q 997 2584 770 2862 
Q 544 3141 544 3541 
Q 544 4100 942 4425 
Q 1341 4750 2034 4750 
Q 2731 4750 3128 4425 
Q 3525 4100 3525 3541 
Q 3525 3141 3298 2862 
Q 3072 2584 2669 2484 
Q 3125 2378 3379 2068 
Q 3634 1759 3634 1313 
Q 3634 634 3220 271 
Q 2806 -91 2034 -91 
Q 1263 -91 848 271 
Q 434 634 434 1313 
Q 434 1759 690 2068 
Q 947 2378 1403 2484 
z
M 1172 3481 
Q 1172 3119 1398 2916 
Q 1625 2713 2034 2713 
Q 2441 2713 2670 2916 
Q 2900 3119 2900 3481 
Q 2900 3844 2670 4047 
Q 2441 4250 2034 4250 
Q 1625 4250 1398 4047 
Q 1172 3844 1172 3481 
z
" transform="scale(0.015625)"/>
       </defs>
       <use xlink:href="#DejaVuSans-2212"/>
       <use xlink:href="#DejaVuSans-38" x="83.789062"/>
      </g>
     </g>
    </g>
    <g id="ytick_2">
     <g id="line2d_66">
      <path d="M 50.1725 289.071745 
L 1054.5725 289.071745 
" clip-path="url(#pd69b325067)" style="fill: none; stroke-dasharray: 1.85,0.8; stroke-dashoffset: 0; stroke: #000000; stroke-opacity: 0.5; stroke-width: 0.5"/>
     </g>
     <g id="line2d_67">
      <g>
       <use xlink:href="#mef2bc70ab2" x="50.1725" y="289.071745" style="stroke: #000000"/>
      </g>
     </g>
     <g id="line2d_68">
      <g>
       <use xlink:href="#mfce6ace264" x="1054.5725" y="289.071745" style="stroke: #000000"/>
      </g>
     </g>
     <g id="text_9">
      <!-- −6 -->
      <g transform="translate(23.085 295.150495) scale(0.16 -0.16)">
       <defs>
        <path id="DejaVuSans-36" d="M 2113 2584 
Q 1688 2584 1439 2293 
Q 1191 2003 1191 1497 
Q 1191 994 1439 701 
Q 1688 409 2113 409 
Q 2538 409 2786 701 
Q 3034 994 3034 1497 
Q 3034 2003 2786 2293 
Q 2538 2584 2113 2584 
z
M 3366 4563 
L 3366 3988 
Q 3128 4100 2886 4159 
Q 2644 4219 2406 4219 
Q 1781 4219 1451 3797 
Q 1122 3375 1075 2522 
Q 1259 2794 1537 2939 
Q 1816 3084 2150 3084 
Q 2853 3084 3261 2657 
Q 3669 2231 3669 1497 
Q 3669 778 3244 343 
Q 2819 -91 2113 -91 
Q 1303 -91 875 529 
Q 447 1150 447 2328 
Q 447 3434 972 4092 
Q 1497 4750 2381 4750 
Q 2619 4750 2861 4703 
Q 3103 4656 3366 4563 
z
" transform="scale(0.015625)"/>
       </defs>
       <use xlink:href="#DejaVuSans-2212"/>
       <use xlink:href="#DejaVuSans-36" x="83.789062"/>
      </g>
     </g>
    </g>
    <g id="ytick_3">
     <g id="line2d_69">
      <path d="M 50.1725 243.087722 
L 1054.5725 243.087722 
" clip-path="url(#pd69b325067)" style="fill: none; stroke-dasharray: 1.85,0.8; stroke-dashoffset: 0; stroke: #000000; stroke-opacity: 0.5; stroke-width: 0.5"/>
     </g>
     <g id="line2d_70">
      <g>
       <use xlink:href="#mef2bc70ab2" x="50.1725" y="243.087722" style="stroke: #000000"/>
      </g>
     </g>
     <g id="line2d_71">
      <g>
       <use xlink:href="#mfce6ace264" x="1054.5725" y="243.087722" style="stroke: #000000"/>
      </g>
     </g>
     <g id="text_10">
      <!-- −4 -->
      <g transform="translate(23.085 249.166472) scale(0.16 -0.16)">
       <use xlink:href="#DejaVuSans-2212"/>
       <use xlink:href="#DejaVuSans-34" x="83.789062"/>
      </g>
     </g>
    </g>
    <g id="ytick_4">
     <g id="line2d_72">
      <path d="M 50.1725 197.103698 
L 1054.5725 197.103698 
" clip-path="url(#pd69b325067)" style="fill: none; stroke-dasharray: 1.85,0.8; stroke-dashoffset: 0; stroke: #000000; stroke-opacity: 0.5; stroke-width: 0.5"/>
     </g>
     <g id="line2d_73">
      <g>
       <use xlink:href="#mef2bc70ab2" x="50.1725" y="197.103698" style="stroke: #000000"/>
      </g>
     </g>
     <g id="line2d_74">
      <g>
       <use xlink:href="#mfce6ace264" x="1054.5725" y="197.103698" style="stroke: #000000"/>
      </g>
     </g>
     <g id="text_11">
      <!-- −2 -->
      <g transform="translate(23.085 203.182448) scale(0.16 -0.16)">
       <use xlink:href="#DejaVuSans-2212"/>
       <use xlink:href="#DejaVuSans-32" x="83.789062"/>
      </g>
     </g>
    </g>
    <g id="ytick_5">
     <g id="line2d_75">
      <path d="M 50.1725 151.119675 
L 1054.5725 151.119675 
" clip-path="url(#pd69b325067)" style="fill: none; stroke-dasharray: 1.85,0.8; stroke-dashoffset: 0; stroke: #000000; stroke-opacity: 0.5; stroke-width: 0.5"/>
     </g>
     <g id="line2d_76">
      <g>
       <use xlink:href="#mef2bc70ab2" x="50.1725" y="151.119675" style="stroke: #000000"/>
      </g>
     </g>
     <g id="line2d_77">
      <g>
       <use xlink:href="#mfce6ace264" x="1054.5725" y="151.119675" style="stroke: #000000"/>
      </g>
     </g>
     <g id="text_12">
      <!-- 0 -->
      <g transform="translate(36.4925 157.198425) scale(0.16 -0.16)">
       <use xlink:href="#DejaVuSans-30"/>
      </g>
     </g>
    </g>
    <g id="ytick_6">
     <g id="line2d_78">
      <path d="M 50.1725 105.135652 
L 1054.5725 105.135652 
" clip-path="url(#pd69b325067)" style="fill: none; stroke-dasharray: 1.85,0.8; stroke-dashoffset: 0; stroke: #000000; stroke-opacity: 0.5; stroke-width: 0.5"/>
     </g>
     <g id="line2d_79">
      <g>
       <use xlink:href="#mef2bc70ab2" x="50.1725" y="105.135652" style="stroke: #000000"/>
      </g>
     </g>
     <g id="line2d_80">
      <g>
       <use xlink:href="#mfce6ace264" x="1054.5725" y="105.135652" style="stroke: #000000"/>
      </g>
     </g>
     <g id="text_13">
      <!-- 2 -->
      <g transform="translate(36.4925 111.214402) scale(0.16 -0.16)">
       <use xlink:href="#DejaVuSans-32"/>
      </g>
     </g>
    </g>
    <g id="ytick_7">
     <g id="line2d_81">
      <path d="M 50.1725 59.151628 
L 1054.5725 59.151628 
" clip-path="url(#pd69b325067)" style="fill: none; stroke-dasharray: 1.85,0.8; stroke-dashoffset: 0; stroke: #000000; stroke-opacity: 0.5; stroke-width: 0.5"/>
     </g>
     <g id="line2d_82">
      <g>
       <use xlink:href="#mef2bc70ab2" x="50.1725" y="59.151628" style="stroke: #000000"/>
      </g>
     </g>
     <g id="line2d_83">
      <g>
       <use xlink:href="#mfce6ace264" x="1054.5725" y="59.151628" style="stroke: #000000"/>
      </g>
     </g>
     <g id="text_14">
      <!-- 4 -->
      <g transform="translate(36.4925 65.230378) scale(0.16 -0.16)">
       <use xlink:href="#DejaVuSans-34"/>
      </g>
     </g>
    </g>
    <g id="ytick_8">
     <g id="line2d_84">
      <defs>
       <path id="mf39f545ecb" d="M 0 0 
L 3 0 
" style="stroke: #000000"/>
      </defs>
      <g>
       <use xlink:href="#mf39f545ecb" x="50.1725" y="346.551774" style="stroke: #000000"/>
      </g>
     </g>
     <g id="line2d_85">
      <defs>
       <path id="mbf69fccbec" d="M 0 0 
L -3 0 
" style="stroke: #000000"/>
      </defs>
      <g>
       <use xlink:href="#mbf69fccbec" x="1054.5725" y="346.551774" style="stroke: #000000"/>
      </g>
     </g>
    </g>
    <g id="ytick_9">
     <g id="line2d_86">
      <g>
       <use xlink:href="#mf39f545ecb" x="50.1725" y="323.559762" style="stroke: #000000"/>
      </g>
     </g>
     <g id="line2d_87">
      <g>
       <use xlink:href="#mbf69fccbec" x="1054.5725" y="323.559762" style="stroke: #000000"/>
      </g>
     </g>
    </g>
    <g id="ytick_10">
     <g id="line2d_88">
      <g>
       <use xlink:href="#mf39f545ecb" x="50.1725" y="312.063756" style="stroke: #000000"/>
      </g>
     </g>
     <g id="line2d_89">
      <g>
       <use xlink:href="#mbf69fccbec" x="1054.5725" y="312.063756" style="stroke: #000000"/>
      </g>
     </g>
    </g>
    <g id="ytick_11">
     <g id="line2d_90">
      <g>
       <use xlink:href="#mf39f545ecb" x="50.1725" y="300.567751" style="stroke: #000000"/>
      </g>
     </g>
     <g id="line2d_91">
      <g>
       <use xlink:href="#mbf69fccbec" x="1054.5725" y="300.567751" style="stroke: #000000"/>
      </g>
     </g>
    </g>
    <g id="ytick_12">
     <g id="line2d_92">
      <g>
       <use xlink:href="#mf39f545ecb" x="50.1725" y="277.575739" style="stroke: #000000"/>
      </g>
     </g>
     <g id="line2d_93">
      <g>
       <use xlink:href="#mbf69fccbec" x="1054.5725" y="277.575739" style="stroke: #000000"/>
      </g>
     </g>
    </g>
    <g id="ytick_13">
     <g id="line2d_94">
      <g>
       <use xlink:href="#mf39f545ecb" x="50.1725" y="266.079733" style="stroke: #000000"/>
      </g>
     </g>
     <g id="line2d_95">
      <g>
       <use xlink:href="#mbf69fccbec" x="1054.5725" y="266.079733" style="stroke: #000000"/>
      </g>
     </g>
    </g>
    <g id="ytick_14">
     <g id="line2d_96">
      <g>
       <use xlink:href="#mf39f545ecb" x="50.1725" y="254.583727" style="stroke: #000000"/>
      </g>
     </g>
     <g id="line2d_97">
      <g>
       <use xlink:href="#mbf69fccbec" x="1054.5725" y="254.583727" style="stroke: #000000"/>
      </g>
     </g>
    </g>
    <g id="ytick_15">
     <g id="line2d_98">
      <g>
       <use xlink:href="#mf39f545ecb" x="50.1725" y="231.591716" style="stroke: #000000"/>
      </g>
     </g>
     <g id="line2d_99">
      <g>
       <use xlink:href="#mbf69fccbec" x="1054.5725" y="231.591716" style="stroke: #000000"/>
      </g>
     </g>
    </g>
    <g id="ytick_16">
     <g id="line2d_100">
      <g>
       <use xlink:href="#mf39f545ecb" x="50.1725" y="220.09571" style="stroke: #000000"/>
      </g>
     </g>
     <g id="line2d_101">
      <g>
       <use xlink:href="#mbf69fccbec" x="1054.5725" y="220.09571" style="stroke: #000000"/>
      </g>
     </g>
    </g>
    <g id="ytick_17">
     <g id="line2d_102">
      <g>
       <use xlink:href="#mf39f545ecb" x="50.1725" y="208.599704" style="stroke: #000000"/>
      </g>
     </g>
     <g id="line2d_103">
      <g>
       <use xlink:href="#mbf69fccbec" x="1054.5725" y="208.599704" style="stroke: #000000"/>
      </g>
     </g>
    </g>
    <g id="ytick_18">
     <g id="line2d_104">
      <g>
       <use xlink:href="#mf39f545ecb" x="50.1725" y="185.607692" style="stroke: #000000"/>
      </g>
     </g>
     <g id="line2d_105">
      <g>
       <use xlink:href="#mbf69fccbec" x="1054.5725" y="185.607692" style="stroke: #000000"/>
      </g>
     </g>
    </g>
    <g id="ytick_19">
     <g id="line2d_106">
      <g>
       <use xlink:href="#mf39f545ecb" x="50.1725" y="174.111687" style="stroke: #000000"/>
      </g>
     </g>
     <g id="line2d_107">
      <g>
       <use xlink:href="#mbf69fccbec" x="1054.5725" y="174.111687" style="stroke: #000000"/>
      </g>
     </g>
    </g>
    <g id="ytick_20">
     <g id="line2d_108">
      <g>
       <use xlink:href="#mf39f545ecb" x="50.1725" y="162.615681" style="stroke: #000000"/>
      </g>
     </g>
     <g id="line2d_109">
      <g>
       <use xlink:href="#mbf69fccbec" x="1054.5725" y="162.615681" style="stroke: #000000"/>
      </g>
     </g>
    </g>
    <g id="ytick_21">
     <g id="line2d_110">
      <g>
       <use xlink:href="#mf39f545ecb" x="50.1725" y="139.623669" style="stroke: #000000"/>
      </g>
     </g>
     <g id="line2d_111">
      <g>
       <use xlink:href="#mbf69fccbec" x="1054.5725" y="139.623669" style="stroke: #000000"/>
      </g>
     </g>
    </g>
    <g id="ytick_22">
     <g id="line2d_112">
      <g>
       <use xlink:href="#mf39f545ecb" x="50.1725" y="128.127663" style="stroke: #000000"/>
      </g>
     </g>
     <g id="line2d_113">
      <g>
       <use xlink:href="#mbf69fccbec" x="1054.5725" y="128.127663" style="stroke: #000000"/>
      </g>
     </g>
    </g>
    <g id="ytick_23">
     <g id="line2d_114">
      <g>
       <use xlink:href="#mf39f545ecb" x="50.1725" y="116.631657" style="stroke: #000000"/>
      </g>
     </g>
     <g id="line2d_115">
      <g>
       <use xlink:href="#mbf69fccbec" x="1054.5725" y="116.631657" style="stroke: #000000"/>
      </g>
     </g>
    </g>
    <g id="ytick_24">
     <g id="line2d_116">
      <g>
       <use xlink:href="#mf39f545ecb" x="50.1725" y="93.639646" style="stroke: #000000"/>
      </g>
     </g>
     <g id="line2d_117">
      <g>
       <use xlink:href="#mbf69fccbec" x="1054.5725" y="93.639646" style="stroke: #000000"/>
      </g>
     </g>
    </g>
    <g id="ytick_25">
     <g id="line2d_118">
      <g>
       <use xlink:href="#mf39f545ecb" x="50.1725" y="82.14364" style="stroke: #000000"/>
      </g>
     </g>
     <g id="line2d_119">
      <g>
       <use xlink:href="#mbf69fccbec" x="1054.5725" y="82.14364" style="stroke: #000000"/>
      </g>
     </g>
    </g>
    <g id="ytick_26">
     <g id="line2d_120">
      <g>
       <use xlink:href="#mf39f545ecb" x="50.1725" y="70.647634" style="stroke: #000000"/>
      </g>
     </g>
     <g id="line2d_121">
      <g>
       <use xlink:href="#mbf69fccbec" x="1054.5725" y="70.647634" style="stroke: #000000"/>
      </g>
     </g>
    </g>
    <g id="ytick_27">
     <g id="line2d_122">
      <g>
       <use xlink:href="#mf39f545ecb" x="50.1725" y="47.655623" style="stroke: #000000"/>
      </g>
     </g>
     <g id="line2d_123">
      <g>
       <use xlink:href="#mbf69fccbec" x="1054.5725" y="47.655623" style="stroke: #000000"/>
      </g>
     </g>
    </g>
    <g id="ytick_28">
     <g id="line2d_124">
      <g>
       <use xlink:href="#mf39f545ecb" x="50.1725" y="36.159617" style="stroke: #000000"/>
      </g>
     </g>
     <g id="line2d_125">
      <g>
       <use xlink:href="#mbf69fccbec" x="1054.5725" y="36.159617" style="stroke: #000000"/>
      </g>
     </g>
    </g>
    <g id="ytick_29">
     <g id="line2d_126">
      <g>
       <use xlink:href="#mf39f545ecb" x="50.1725" y="24.663611" style="stroke: #000000"/>
      </g>
     </g>
     <g id="line2d_127">
      <g>
       <use xlink:href="#mbf69fccbec" x="1054.5725" y="24.663611" style="stroke: #000000"/>
      </g>
     </g>
    </g>
    <g id="text_15">
     <!-- Base Displacement -->
     <g transform="translate(15.7575 265.0975) rotate(-90) scale(0.16 -0.16)">
      <defs>
       <path id="DejaVuSans-42" d="M 1259 2228 
L 1259 519 
L 2272 519 
Q 2781 519 3026 730 
Q 3272 941 3272 1375 
Q 3272 1813 3026 2020 
Q 2781 2228 2272 2228 
L 1259 2228 
z
M 1259 4147 
L 1259 2741 
L 2194 2741 
Q 2656 2741 2882 2914 
Q 3109 3088 3109 3444 
Q 3109 3797 2882 3972 
Q 2656 4147 2194 4147 
L 1259 4147 
z
M 628 4666 
L 2241 4666 
Q 2963 4666 3353 4366 
Q 3744 4066 3744 3513 
Q 3744 3084 3544 2831 
Q 3344 2578 2956 2516 
Q 3422 2416 3680 2098 
Q 3938 1781 3938 1306 
Q 3938 681 3513 340 
Q 3088 0 2303 0 
L 628 0 
L 628 4666 
z
" transform="scale(0.015625)"/>
       <path id="DejaVuSans-61" d="M 2194 1759 
Q 1497 1759 1228 1600 
Q 959 1441 959 1056 
Q 959 750 1161 570 
Q 1363 391 1709 391 
Q 2188 391 2477 730 
Q 2766 1069 2766 1631 
L 2766 1759 
L 2194 1759 
z
M 3341 1997 
L 3341 0 
L 2766 0 
L 2766 531 
Q 2569 213 2275 61 
Q 1981 -91 1556 -91 
Q 1019 -91 701 211 
Q 384 513 384 1019 
Q 384 1609 779 1909 
Q 1175 2209 1959 2209 
L 2766 2209 
L 2766 2266 
Q 2766 2663 2505 2880 
Q 2244 3097 1772 3097 
Q 1472 3097 1187 3025 
Q 903 2953 641 2809 
L 641 3341 
Q 956 3463 1253 3523 
Q 1550 3584 1831 3584 
Q 2591 3584 2966 3190 
Q 3341 2797 3341 1997 
z
" transform="scale(0.015625)"/>
       <path id="DejaVuSans-44" d="M 1259 4147 
L 1259 519 
L 2022 519 
Q 2988 519 3436 956 
Q 3884 1394 3884 2338 
Q 3884 3275 3436 3711 
Q 2988 4147 2022 4147 
L 1259 4147 
z
M 628 4666 
L 1925 4666 
Q 3281 4666 3915 4102 
Q 4550 3538 4550 2338 
Q 4550 1131 3912 565 
Q 3275 0 1925 0 
L 628 0 
L 628 4666 
z
" transform="scale(0.015625)"/>
       <path id="DejaVuSans-70" d="M 1159 525 
L 1159 -1331 
L 581 -1331 
L 581 3500 
L 1159 3500 
L 1159 2969 
Q 1341 3281 1617 3432 
Q 1894 3584 2278 3584 
Q 2916 3584 3314 3078 
Q 3713 2572 3713 1747 
Q 3713 922 3314 415 
Q 2916 -91 2278 -91 
Q 1894 -91 1617 61 
Q 1341 213 1159 525 
z
M 3116 1747 
Q 3116 2381 2855 2742 
Q 2594 3103 2138 3103 
Q 1681 3103 1420 2742 
Q 1159 2381 1159 1747 
Q 1159 1113 1420 752 
Q 1681 391 2138 391 
Q 2594 391 2855 752 
Q 3116 1113 3116 1747 
z
" transform="scale(0.015625)"/>
       <path id="DejaVuSans-6c" d="M 603 4863 
L 1178 4863 
L 1178 0 
L 603 0 
L 603 4863 
z
" transform="scale(0.015625)"/>
       <path id="DejaVuSans-63" d="M 3122 3366 
L 3122 2828 
Q 2878 2963 2633 3030 
Q 2388 3097 2138 3097 
Q 1578 3097 1268 2742 
Q 959 2388 959 1747 
Q 959 1106 1268 751 
Q 1578 397 2138 397 
Q 2388 397 2633 464 
Q 2878 531 3122 666 
L 3122 134 
Q 2881 22 2623 -34 
Q 2366 -91 2075 -91 
Q 1284 -91 818 406 
Q 353 903 353 1747 
Q 353 2603 823 3093 
Q 1294 3584 2113 3584 
Q 2378 3584 2631 3529 
Q 2884 3475 3122 3366 
z
" transform="scale(0.015625)"/>
       <path id="DejaVuSans-6e" d="M 3513 2113 
L 3513 0 
L 2938 0 
L 2938 2094 
Q 2938 2591 2744 2837 
Q 2550 3084 2163 3084 
Q 1697 3084 1428 2787 
Q 1159 2491 1159 1978 
L 1159 0 
L 581 0 
L 581 3500 
L 1159 3500 
L 1159 2956 
Q 1366 3272 1645 3428 
Q 1925 3584 2291 3584 
Q 2894 3584 3203 3211 
Q 3513 2838 3513 2113 
z
" transform="scale(0.015625)"/>
       <path id="DejaVuSans-74" d="M 1172 4494 
L 1172 3500 
L 2356 3500 
L 2356 3053 
L 1172 3053 
L 1172 1153 
Q 1172 725 1289 603 
Q 1406 481 1766 481 
L 2356 481 
L 2356 0 
L 1766 0 
Q 1100 0 847 248 
Q 594 497 594 1153 
L 594 3053 
L 172 3053 
L 172 3500 
L 594 3500 
L 594 4494 
L 1172 4494 
z
" transform="scale(0.015625)"/>
      </defs>
      <use xlink:href="#DejaVuSans-42"/>
      <use xlink:href="#DejaVuSans-61" x="68.603516"/>
      <use xlink:href="#DejaVuSans-73" x="129.882812"/>
      <use xlink:href="#DejaVuSans-65" x="181.982422"/>
      <use xlink:href="#DejaVuSans-20" x="243.505859"/>
      <use xlink:href="#DejaVuSans-44" x="275.292969"/>
      <use xlink:href="#DejaVuSans-69" x="352.294922"/>
      <use xlink:href="#DejaVuSans-73" x="380.078125"/>
      <use xlink:href="#DejaVuSans-70" x="432.177734"/>
      <use xlink:href="#DejaVuSans-6c" x="495.654297"/>
      <use xlink:href="#DejaVuSans-61" x="523.4375"/>
      <use xlink:href="#DejaVuSans-63" x="584.716797"/>
      <use xlink:href="#DejaVuSans-65" x="639.697266"/>
      <use xlink:href="#DejaVuSans-6d" x="701.220703"/>
      <use xlink:href="#DejaVuSans-65" x="798.632812"/>
      <use xlink:href="#DejaVuSans-6e" x="860.15625"/>
      <use xlink:href="#DejaVuSans-74" x="923.535156"/>
     </g>
    </g>
    <g id="text_16">
     <!-- 1e−6 -->
     <g transform="translate(50.1725 18.7575) scale(0.16 -0.16)">
      <use xlink:href="#DejaVuSans-31"/>
      <use xlink:href="#DejaVuSans-65" x="63.623047"/>
      <use xlink:href="#DejaVuSans-2212" x="125.146484"/>
      <use xlink:href="#DejaVuSans-36" x="208.935547"/>
     </g>
    </g>
   </g>
   <g id="line2d_128">
    <path d="M 95.827045 151.119675 
L 96.466273 151.270483 
L 99.753729 152.273078 
L 103.223821 153.209047 
L 104.410958 153.340434 
L 105.232822 153.675787 
L 105.780732 154.201333 
L 106.328641 154.696567 
L 106.785232 154.787006 
L 107.150505 154.916227 
L 107.42446 155.247099 
L 107.881051 156.255238 
L 109.342142 160.000693 
L 109.524779 160.059438 
L 109.707415 159.788759 
L 109.98137 158.710225 
L 110.437961 155.557937 
L 111.53378 147.26336 
L 111.807734 146.527708 
L 111.990371 146.529958 
L 112.173007 146.918989 
L 112.446962 148.228944 
L 112.812235 151.256359 
L 113.816735 160.379806 
L 113.999372 160.729859 
L 114.09069 160.6827 
L 114.273326 160.126152 
L 114.547281 158.282902 
L 115.6431 149.543673 
L 115.825736 149.247191 
L 116.008373 149.812749 
L 116.282327 152.188528 
L 116.830237 157.776239 
L 117.012873 158.353757 
L 117.104191 158.271875 
L 117.286828 157.410843 
L 117.743419 152.945179 
L 118.017374 151.240519 
L 118.108692 151.249267 
L 118.291328 152.293139 
L 118.565283 155.982083 
L 119.20451 165.119389 
L 119.387147 165.697894 
L 119.478465 165.56631 
L 119.661102 164.64443 
L 120.391647 159.984735 
L 120.482966 160.11513 
L 120.665602 161.115313 
L 121.213511 165.431169 
L 121.30483 165.506616 
L 121.487466 164.82743 
L 121.761421 162.183232 
L 122.400648 155.347886 
L 122.674603 154.47541 
L 123.039876 154.189387 
L 123.222512 153.478302 
L 123.496467 151.056736 
L 124.227013 143.212351 
L 124.500967 142.319161 
L 124.774922 141.486181 
L 125.048877 139.272647 
L 125.596786 134.251419 
L 125.688104 134.264836 
L 125.870741 135.291583 
L 126.236014 140.086946 
L 126.601287 143.993789 
L 126.692605 144.226675 
L 126.783923 144.08923 
L 126.966559 142.799809 
L 127.514469 137.595498 
L 127.605787 137.576041 
L 127.788423 138.499299 
L 128.336333 142.802211 
L 128.427651 142.576024 
L 128.610287 140.510735 
L 128.884242 133.038466 
L 129.888743 97.586211 
L 129.980061 97.215824 
L 130.071379 97.448874 
L 130.254015 99.600295 
L 130.710607 110.297287 
L 131.167198 118.648201 
L 132.08038 129.436569 
L 132.628289 145.969857 
L 132.902244 151.915235 
L 133.08488 152.733373 
L 133.267517 151.142208 
L 133.63279 143.722769 
L 134.089381 135.107217 
L 134.819927 124.637673 
L 135.367836 112.329765 
L 135.459154 112.363232 
L 135.641791 115.390416 
L 135.915745 127.463681 
L 136.463655 156.642496 
L 136.646291 158.468473 
L 136.828927 155.240308 
L 137.1942 138.462533 
L 137.559473 125.118907 
L 137.650791 124.616104 
L 137.74211 125.560653 
L 137.924746 131.723173 
L 138.837928 178.209124 
L 139.020565 179.079174 
L 139.203201 177.732171 
L 140.116383 167.189723 
L 140.755611 162.37849 
L 141.577475 155.557505 
L 142.308021 152.326182 
L 142.490657 151.927133 
L 142.581975 151.990251 
L 142.764612 152.897739 
L 143.038567 156.578533 
L 143.860431 171.036253 
L 144.043067 171.737346 
L 144.134385 171.554172 
L 144.317022 169.949288 
L 144.590976 164.362685 
L 144.956249 151.373877 
L 145.321522 130.925874 
L 146.508659 53.041769 
L 146.691296 51.904485 
L 146.873932 53.571083 
L 147.239205 61.231702 
L 147.695796 75.91278 
L 147.969751 91.564472 
L 148.335024 126.696138 
L 149.065569 203.812075 
L 149.339524 216.141093 
L 149.613479 220.534925 
L 149.796115 221.089455 
L 149.978752 220.952873 
L 150.252706 220.70117 
L 150.435343 220.877813 
L 151.07457 222.060393 
L 151.165888 222.048458 
L 151.348525 221.573593 
L 151.531161 220.256887 
L 151.805116 216.035125 
L 152.079071 207.929999 
L 152.444344 189.258687 
L 153.448844 125.093077 
L 153.63148 123.03938 
L 153.722799 123.439817 
L 153.905435 126.52673 
L 154.453344 143.731879 
L 154.818617 152.144748 
L 155.457845 162.035708 
L 155.7318 171.809529 
L 156.462345 203.195325 
L 156.644982 204.749618 
L 156.7363 204.166043 
L 157.010255 198.436271 
L 157.466846 188.508073 
L 157.558164 188.070234 
L 157.649482 188.240563 
L 157.832119 190.017553 
L 158.28871 195.959171 
L 158.380028 196.072644 
L 158.471346 195.504102 
L 158.653983 192.039648 
L 158.927937 181.051015 
L 159.932438 131.494087 
L 160.115074 129.272008 
L 160.206392 129.222066 
L 160.389029 131.452198 
L 160.662984 140.509929 
L 161.119575 155.347391 
L 161.302211 156.529813 
L 161.393529 155.612725 
L 161.576166 150.225093 
L 161.941439 126.847269 
L 162.39803 100.831872 
L 162.580666 98.255418 
L 162.671984 98.639707 
L 162.854621 102.016168 
L 163.40253 114.767481 
L 163.493848 114.759621 
L 163.676485 111.950932 
L 164.498349 89.045199 
L 164.589667 89.39692 
L 164.772304 92.145517 
L 165.137577 103.813598 
L 165.868122 129.479999 
L 166.142077 133.074523 
L 166.324713 133.67724 
L 166.416032 133.514326 
L 166.872623 131.720901 
L 166.963941 132.12233 
L 167.146577 134.683574 
L 167.420532 143.503791 
L 168.05976 167.678988 
L 168.242396 169.501548 
L 168.333714 168.932463 
L 168.516351 164.788816 
L 168.881624 147.865192 
L 169.520851 119.432476 
L 170.068761 106.420993 
L 170.707988 90.61941 
L 171.438534 70.8695 
L 171.712489 68.187835 
L 171.803807 68.073373 
L 171.895125 68.350163 
L 172.077761 70.035667 
L 172.625671 76.670757 
L 172.716989 76.789902 
L 172.808307 76.49358 
L 172.990944 74.729876 
L 173.812808 64.16038 
L 173.995444 65.656123 
L 174.269399 71.61659 
L 175.365217 103.290535 
L 176.461036 115.254753 
L 177.100264 122.552916 
L 177.465537 130.965949 
L 177.830809 138.68629 
L 178.013446 139.756407 
L 178.104764 139.387123 
L 178.287401 136.550774 
L 178.652673 123.934365 
L 179.017946 112.763773 
L 179.109265 111.93398 
L 179.200583 112.20821 
L 179.383219 116.436642 
L 179.657174 132.389937 
L 180.570356 199.836188 
L 180.752993 202.840416 
L 180.844311 203.163675 
L 180.935629 202.901368 
L 181.118265 201.061505 
L 181.39222 195.720697 
L 181.757493 183.284244 
L 182.305402 152.447556 
L 182.761993 131.42088 
L 183.127266 122.637491 
L 183.218585 121.920143 
L 183.309903 122.050234 
L 183.492539 125.278007 
L 183.766494 137.635464 
L 184.131767 165.993814 
L 185.136267 256.640105 
L 185.410222 263.682318 
L 185.50154 264.205944 
L 185.592858 264.033197 
L 185.866813 261.304694 
L 186.140768 259.237005 
L 186.232086 259.210077 
L 186.414722 260.239411 
L 186.779995 265.13864 
L 187.05395 268.086234 
L 187.145268 268.209639 
L 187.236586 267.71835 
L 187.419223 264.711689 
L 187.784496 251.689053 
L 188.60636 220.227818 
L 189.245587 196.092253 
L 189.702178 181.551533 
L 189.884815 179.632319 
L 189.976133 179.663212 
L 190.15877 181.766666 
L 190.889315 197.950989 
L 190.980634 197.565614 
L 191.16327 194.275906 
L 192.076452 168.836522 
L 192.16777 168.602484 
L 192.259089 168.732533 
L 192.624362 169.819561 
L 192.71568 169.563754 
L 192.898316 168.084672 
L 193.263589 165.023769 
L 193.354907 165.351402 
L 193.537544 168.338591 
L 193.811498 180.478704 
L 194.176771 213.095988 
L 194.633362 249.932622 
L 194.907317 256.775968 
L 194.998635 256.722636 
L 195.181272 253.778502 
L 195.546545 240.464456 
L 196.642363 187.25934 
L 197.281591 158.110394 
L 197.464227 155.499046 
L 197.555546 155.853322 
L 197.738182 159.447295 
L 198.194773 177.183187 
L 198.651364 191.873796 
L 198.834001 193.266591 
L 198.925319 192.688002 
L 199.107955 189.004588 
L 199.473228 174.666328 
L 199.929819 157.182022 
L 200.203774 153.497881 
L 200.295092 153.455961 
L 200.477729 154.4791 
L 200.843002 156.631933 
L 200.93432 156.271768 
L 201.116956 153.628832 
L 201.390911 144.474323 
L 202.030138 120.182571 
L 202.121457 119.647708 
L 202.212775 120.3627 
L 202.395411 125.979046 
L 202.669366 144.674106 
L 203.217275 185.351695 
L 203.49123 192.085344 
L 203.582548 192.179645 
L 203.765185 189.857759 
L 204.495731 174.602522 
L 204.587049 174.418446 
L 204.678367 174.732161 
L 204.861003 176.645284 
L 205.408913 186.93925 
L 206.230777 201.107893 
L 206.413413 201.757292 
L 206.504731 201.582787 
L 206.778686 199.753342 
L 207.052641 198.154708 
L 207.143959 198.147661 
L 207.326595 199.164518 
L 208.057141 206.336588 
L 208.148459 206.076919 
L 208.331096 204.172997 
L 208.605051 197.91407 
L 210.066142 157.405192 
L 210.248779 156.160071 
L 210.340097 156.552244 
L 210.522733 159.306335 
L 211.253279 174.644825 
L 211.344597 174.89948 
L 211.435915 174.562221 
L 211.618552 172.337315 
L 212.166461 164.416561 
L 212.257779 164.753969 
L 212.440416 167.843623 
L 212.714371 178.243481 
L 213.627553 219.912903 
L 213.901507 225.168114 
L 214.084144 226.26675 
L 214.175462 226.134753 
L 214.358099 224.710966 
L 214.723371 218.957931 
L 215.179963 211.841417 
L 215.362599 211.216279 
L 215.545235 212.788689 
L 215.81919 219.749311 
L 216.184463 237.41343 
L 216.823691 270.549596 
L 217.097645 276.322205 
L 217.280282 276.990907 
L 217.462918 275.603567 
L 217.828191 269.323465 
L 219.654555 233.470969 
L 220.202465 230.946993 
L 220.476419 226.977001 
L 220.841692 217.028151 
L 221.754875 188.37236 
L 222.028829 185.301199 
L 222.394102 183.97524 
L 222.759375 182.367998 
L 223.124648 181.015343 
L 223.215966 181.102962 
L 223.398603 182.388343 
L 223.581239 185.6877 
L 223.946512 198.631081 
L 224.58574 223.236775 
L 224.859694 226.298151 
L 224.951012 226.180343 
L 225.133649 224.646626 
L 225.681558 218.336681 
L 225.772876 218.235583 
L 225.864195 218.59246 
L 226.046831 220.730959 
L 227.781877 252.302512 
L 227.873196 252.404305 
L 227.964514 251.644365 
L 228.14715 247.050419 
L 228.421105 232.013135 
L 229.242969 178.195356 
L 229.425605 175.450258 
L 229.516924 175.367566 
L 229.69956 176.93037 
L 230.064833 181.008031 
L 230.156151 181.171535 
L 230.247469 180.799633 
L 230.430106 178.520934 
L 231.069333 167.743817 
L 231.160652 167.6674 
L 231.343288 169.032119 
L 232.25647 181.25463 
L 232.80438 182.398298 
L 233.078334 184.766315 
L 235.452608 212.99926 
L 235.543926 212.874464 
L 235.726563 211.260837 
L 236.000517 205.52126 
L 236.9137 181.925832 
L 237.187654 180.878826 
L 237.370291 180.571488 
L 237.552927 179.838194 
L 238.283473 175.809367 
L 238.466109 176.684602 
L 238.740064 179.853439 
L 239.561928 193.740918 
L 239.927201 204.560723 
L 240.383792 227.312308 
L 240.840383 248.884434 
L 241.114338 253.759484 
L 241.205656 253.658862 
L 241.388292 250.800403 
L 241.753565 237.114041 
L 242.210156 219.955262 
L 242.484111 215.812631 
L 242.575429 215.661015 
L 242.758066 216.763224 
L 243.214657 221.087211 
L 243.305975 221.052802 
L 243.488612 219.443331 
L 243.762566 213.858954 
L 244.401794 200.163574 
L 244.58443 199.045062 
L 244.675749 199.023524 
L 244.858385 199.742465 
L 245.223658 201.459166 
L 245.314976 201.361638 
L 245.497613 200.098286 
L 245.771567 195.629056 
L 246.502113 181.933274 
L 246.684749 181.078886 
L 246.776068 181.050765 
L 247.232659 181.795457 
L 247.415295 181.16771 
L 247.68925 178.611632 
L 248.145841 173.993106 
L 248.328477 173.628302 
L 248.511114 174.374232 
L 249.059023 177.657856 
L 249.150341 177.370863 
L 249.332978 175.718393 
L 250.063524 165.766705 
L 250.154842 165.982452 
L 250.337478 168.164402 
L 250.702751 177.985018 
L 251.250661 192.822164 
L 251.524615 195.649652 
L 251.889888 196.817077 
L 252.163843 197.899867 
L 252.711752 201.753145 
L 253.168343 204.140952 
L 253.624934 206.245713 
L 254.446798 210.931339 
L 254.538117 210.991142 
L 254.629435 210.85361 
L 254.812071 209.95299 
L 255.086026 207.152668 
L 255.90789 196.745306 
L 256.090526 196.229122 
L 256.181845 196.374363 
L 256.364481 197.410859 
L 256.729754 201.763939 
L 257.368981 210.543596 
L 257.551618 210.931701 
L 257.734254 209.990953 
L 258.099527 205.571378 
L 258.921391 194.73817 
L 259.469301 188.402865 
L 260.473801 173.790417 
L 260.565119 173.779101 
L 260.747756 174.953432 
L 261.02171 179.20912 
L 261.56962 187.896224 
L 261.660938 188.124118 
L 261.752256 187.80674 
L 261.934893 185.529473 
L 262.848075 168.694022 
L 263.030711 169.733875 
L 263.487302 174.173332 
L 263.578621 174.211527 
L 263.761257 172.681941 
L 264.035212 166.394003 
L 264.765758 145.684934 
L 265.039712 143.479324 
L 265.313667 142.423584 
L 265.496303 140.421637 
L 265.770258 132.951205 
L 266.592122 99.679384 
L 266.68344 99.848334 
L 266.866077 104.183917 
L 267.140031 119.741089 
L 267.779259 162.327473 
L 268.053214 167.542352 
L 268.144532 167.433501 
L 268.327168 165.502773 
L 268.692441 161.639339 
L 268.783759 161.948144 
L 268.966396 165.006158 
L 269.24035 175.953371 
L 270.244851 226.507226 
L 270.701442 235.356671 
L 271.158033 240.660484 
L 271.249351 240.983474 
L 271.34067 240.931627 
L 271.523306 239.430776 
L 271.705942 235.579217 
L 272.071215 220.552586 
L 272.710443 190.955345 
L 272.984398 185.352033 
L 273.167034 184.245535 
L 273.258352 184.221448 
L 273.532307 185.031961 
L 273.806262 185.533729 
L 273.988898 185.205557 
L 274.445489 182.999768 
L 274.810762 181.943787 
L 275.084717 181.390842 
L 275.267353 180.436164 
L 275.541308 177.192576 
L 275.906581 169.149946 
L 276.363172 159.95885 
L 276.45449 159.544659 
L 276.545808 159.781298 
L 276.728445 162.201869 
L 277.002399 170.052002 
L 277.732945 194.377936 
L 278.0069 196.975675 
L 278.098218 197.079674 
L 278.372173 196.826817 
L 278.463491 196.956158 
L 278.646127 198.029684 
L 278.920082 202.026447 
L 279.55931 213.548146 
L 279.741946 214.096019 
L 279.924582 213.262453 
L 280.56381 208.751793 
L 280.655128 208.926919 
L 280.837765 210.15071 
L 281.294356 214.307026 
L 281.385674 214.376975 
L 281.476992 213.961643 
L 281.659629 211.445124 
L 281.933583 203.709591 
L 282.481493 186.244593 
L 282.664129 184.269634 
L 282.755447 184.314323 
L 282.938084 186.180368 
L 283.577311 196.385409 
L 283.66863 196.326298 
L 283.851266 194.214708 
L 284.125221 186.19683 
L 284.947085 157.040849 
L 285.038403 156.762734 
L 285.129721 157.292382 
L 285.312358 160.439665 
L 285.768949 174.776097 
L 286.22554 187.146083 
L 286.499495 189.861408 
L 286.590813 189.993353 
L 286.773449 189.468696 
L 287.138722 187.979934 
L 287.23004 188.135801 
L 287.412677 189.589489 
L 287.686631 194.711604 
L 288.873768 223.421122 
L 289.330359 227.635981 
L 289.969587 233.372901 
L 290.608815 242.497094 
L 291.248042 251.124134 
L 291.430679 251.790724 
L 291.521997 251.503276 
L 291.704633 249.361204 
L 291.978588 242.05166 
L 293.074407 205.43492 
L 293.257043 204.153217 
L 293.439679 204.051882 
L 293.713634 204.385608 
L 293.804952 204.301334 
L 293.987589 203.614061 
L 294.352862 200.666604 
L 294.626816 198.790615 
L 294.809453 198.581241 
L 294.992089 199.366451 
L 295.266044 202.030426 
L 296.087908 211.078742 
L 296.270544 211.611859 
L 296.361863 211.539914 
L 296.544499 210.761506 
L 296.909772 207.530882 
L 298.279545 192.417278 
L 298.736136 181.080653 
L 299.740637 152.787222 
L 300.10591 148.044625 
L 300.379864 147.04438 
L 300.562501 147.150628 
L 300.745137 147.368943 
L 300.836455 147.33609 
L 301.019092 146.567702 
L 301.201728 144.323922 
L 301.475683 137.523857 
L 302.480183 107.059908 
L 302.571502 106.804564 
L 302.66282 107.243384 
L 302.845456 110.000712 
L 303.210729 120.516374 
L 303.758639 136.009486 
L 304.123912 140.543383 
L 304.397866 141.470083 
L 304.763139 142.25195 
L 305.037094 143.832721 
L 305.402367 147.790205 
L 305.950276 153.429992 
L 306.224231 154.448973 
L 306.498185 154.750591 
L 306.680822 154.656609 
L 306.863458 154.166981 
L 307.137413 152.595447 
L 307.502686 149.015219 
L 308.050595 140.47473 
L 308.415868 136.320786 
L 308.507186 136.092696 
L 308.598504 136.253109 
L 308.781141 137.638748 
L 309.32905 143.196152 
L 309.420368 143.021646 
L 309.603005 141.103567 
L 309.87696 134.329769 
L 310.607505 111.68632 
L 310.698824 111.13899 
L 310.790142 111.475376 
L 310.972778 114.749365 
L 311.338051 129.11967 
L 312.159915 165.555459 
L 312.43387 170.670886 
L 312.616506 171.907725 
L 312.799143 172.026179 
L 313.073097 171.145858 
L 313.43837 169.950509 
L 313.621007 169.882854 
L 313.803643 170.334572 
L 314.077598 172.060644 
L 314.716825 176.833422 
L 314.899462 176.995566 
L 315.082098 176.555832 
L 315.721326 174.262359 
L 315.812644 174.306096 
L 315.99528 174.81072 
L 316.451872 177.465811 
L 316.725826 178.559404 
L 316.817144 178.646504 
L 316.908463 178.575521 
L 317.091099 177.986582 
L 317.456372 175.519966 
L 318.0956 169.348004 
L 318.460872 162.769756 
L 319.008782 146.403956 
L 319.465373 134.888404 
L 319.739328 131.824302 
L 320.013282 130.996854 
L 320.195919 131.033235 
L 320.65251 131.403662 
L 320.835146 132.121417 
L 321.109101 135.11679 
L 321.474374 142.878619 
L 322.387556 164.649659 
L 322.935465 175.091443 
L 323.300738 187.401885 
L 324.213921 222.108538 
L 324.396557 223.960344 
L 324.487875 224.159651 
L 324.579193 223.970854 
L 324.76183 222.728096 
L 326.222921 207.405949 
L 326.588194 199.845944 
L 327.866649 168.555695 
L 328.140604 165.980091 
L 328.323241 165.404804 
L 328.414559 165.408061 
L 328.597195 165.812107 
L 328.87115 166.523059 
L 328.962468 166.510542 
L 329.145105 165.85214 
L 329.419059 163.166397 
L 329.87565 157.671915 
L 329.966969 157.420308 
L 330.058287 157.736005 
L 330.240923 160.281144 
L 330.514878 168.892319 
L 331.062787 197.128392 
L 331.42806 211.774548 
L 331.610697 214.425017 
L 331.702015 214.594256 
L 331.884651 213.138326 
L 332.706515 202.56362 
L 332.797833 202.81418 
L 332.98047 204.388847 
L 333.711016 213.753884 
L 333.802334 213.434718 
L 333.98497 210.803976 
L 334.258925 202.220089 
L 335.446062 156.18451 
L 335.720017 153.096955 
L 336.633199 147.325655 
L 337.08979 141.090169 
L 337.546381 131.801568 
L 338.550881 107.813866 
L 338.6422 107.36087 
L 338.733518 107.461111 
L 338.916154 109.276142 
L 339.190109 115.489665 
L 340.468564 151.062415 
L 341.19911 163.092756 
L 341.473065 164.65975 
L 341.564383 164.487403 
L 341.747019 163.087253 
L 342.20361 156.013729 
L 342.568883 151.292946 
L 342.842838 150.171886 
L 342.934156 150.240224 
L 343.116793 150.861354 
L 343.573384 153.752021 
L 344.121293 157.041049 
L 344.30393 157.289105 
L 344.486566 156.902975 
L 344.760521 155.289137 
L 345.125794 151.364291 
L 346.221612 136.840196 
L 346.404249 136.393414 
L 346.495567 136.457906 
L 346.678203 137.025491 
L 347.134794 139.693607 
L 347.956658 144.3598 
L 348.321931 146.917077 
L 348.687204 151.727803 
L 349.235114 163.22844 
L 350.056978 180.981777 
L 350.330932 183.047158 
L 350.42225 183.055734 
L 350.604887 182.109361 
L 350.878842 178.770018 
L 351.700706 167.330268 
L 351.883342 166.529076 
L 351.97466 166.448436 
L 352.065978 166.571533 
L 352.248615 167.377543 
L 352.613888 170.678493 
L 354.440252 191.993309 
L 355.353434 208.301945 
L 355.627389 209.580672 
L 355.718707 209.503076 
L 355.901344 208.752622 
L 356.905844 202.755759 
L 357.545072 200.719692 
L 357.63639 200.71361 
L 357.819026 201.430035 
L 358.092981 204.795955 
L 358.458254 213.378868 
L 360.375937 267.473062 
L 360.558573 268.70206 
L 360.649891 268.822773 
L 360.74121 268.661406 
L 361.015164 267.128593 
L 361.289119 265.884586 
L 361.380437 265.932703 
L 361.563074 267.059941 
L 361.837028 271.515405 
L 362.75021 290.167248 
L 362.841529 290.092257 
L 363.024165 288.505979 
L 363.389438 281.359903 
L 364.393939 254.133977 
L 365.124484 235.800401 
L 365.398439 232.571249 
L 365.581075 231.913132 
L 365.672394 231.979976 
L 365.85503 232.709487 
L 366.402939 235.520645 
L 366.494258 235.410735 
L 366.676894 234.060532 
L 366.950849 229.089556 
L 367.590076 210.692491 
L 369.599077 153.461354 
L 370.055668 147.650929 
L 370.329623 146.17883 
L 370.512259 146.022468 
L 370.694896 146.597507 
L 370.968851 149.101751 
L 371.882033 161.111311 
L 372.064669 161.24965 
L 372.52126 160.117257 
L 372.612579 160.269174 
L 372.795215 161.588258 
L 373.06917 166.763782 
L 373.891034 186.617403 
L 373.982352 186.732207 
L 374.164988 185.139084 
L 374.438943 179.007907 
L 375.169489 160.794254 
L 375.352125 160.188803 
L 375.534762 161.603283 
L 375.808716 166.523788 
L 377.17849 196.061072 
L 377.635081 200.212382 
L 378.000354 201.623137 
L 378.274308 201.927742 
L 378.456945 201.848182 
L 378.639581 201.513096 
L 378.822218 200.792596 
L 379.096172 198.436883 
L 379.461445 191.965257 
L 380.557264 166.832244 
L 380.648582 166.85751 
L 380.831219 168.527672 
L 381.105173 174.49827 
L 382.29231 207.787271 
L 382.474947 208.902026 
L 382.566265 208.991799 
L 382.748901 208.404009 
L 383.022856 206.12189 
L 383.753402 199.066215 
L 383.936038 198.533329 
L 384.027356 198.535968 
L 384.209993 199.050677 
L 384.483948 200.816379 
L 385.031857 206.095226 
L 385.579766 213.558273 
L 386.218994 225.942334 
L 386.858221 237.108923 
L 387.223494 240.225095 
L 387.588767 241.729489 
L 388.684586 244.677136 
L 389.049859 244.987342 
L 389.415132 245.215601 
L 389.689086 245.701354 
L 390.054359 246.864805 
L 390.51095 249.128289 
L 390.876223 252.21605 
L 391.424132 258.996942 
L 392.337315 271.051598 
L 392.702588 272.787045 
L 393.159179 274.04984 
L 393.433133 276.0251 
L 393.707088 279.97062 
L 394.894225 300.923725 
L 394.985543 301.025001 
L 395.076861 300.824136 
L 395.259498 299.574398 
L 395.533452 295.905496 
L 395.990044 286.253644 
L 396.720589 264.593041 
L 397.359817 248.748418 
L 397.999044 239.295714 
L 399.186181 224.404411 
L 399.2775 224.34585 
L 399.368818 224.592773 
L 399.551454 226.143497 
L 399.825409 231.206122 
L 401.2865 265.085918 
L 401.560455 267.195806 
L 401.743092 267.422383 
L 401.925728 266.612416 
L 402.199683 263.201263 
L 402.564956 254.231676 
L 403.112865 233.3025 
L 404.026047 196.972402 
L 404.39132 190.783475 
L 404.573957 189.98745 
L 404.665275 190.011534 
L 405.121866 191.216508 
L 405.213184 191.033314 
L 405.395821 189.659483 
L 405.669775 184.946725 
L 406.674276 162.936822 
L 406.94823 161.581915 
L 407.039549 161.599583 
L 407.587458 162.598462 
L 407.770094 162.331022 
L 408.135367 160.990487 
L 408.683277 159.072845 
L 408.865913 158.87274 
L 409.048549 159.076254 
L 409.231186 159.816817 
L 409.505141 162.184515 
L 409.961732 169.222511 
L 410.418323 176.099041 
L 410.600959 177.079684 
L 410.692277 177.103357 
L 410.874914 176.294085 
L 411.148869 173.352071 
L 411.696778 167.069269 
L 411.788096 166.815473 
L 411.879414 166.950462 
L 412.062051 168.373848 
L 413.066551 180.597029 
L 413.249188 180.626391 
L 413.614461 180.120046 
L 413.705779 180.286741 
L 413.888415 181.391023 
L 414.16237 185.186626 
L 415.16687 202.404773 
L 415.988734 208.659623 
L 416.354007 216.057107 
L 417.632462 247.138 
L 417.723781 247.264326 
L 417.815099 246.995413 
L 417.997735 245.382486 
L 418.27169 240.614623 
L 419.732781 208.337703 
L 420.098054 205.391563 
L 420.463327 204.133642 
L 420.737282 203.908279 
L 421.011237 203.79815 
L 421.193873 203.368954 
L 421.467828 201.618794 
L 421.833101 196.959653 
L 422.837601 181.879958 
L 423.020238 181.236371 
L 423.111556 181.293146 
L 423.294192 182.187272 
L 423.659465 186.314221 
L 424.116056 194.118329 
L 424.663966 208.119874 
L 425.48583 230.183727 
L 425.942421 235.904393 
L 427.312194 247.2178 
L 427.49483 246.333825 
L 427.768785 242.441304 
L 428.316694 228.757974 
L 428.864604 216.456829 
L 429.321195 210.482982 
L 429.59515 208.776657 
L 429.777786 208.552416 
L 429.960422 208.970403 
L 430.234377 210.631841 
L 430.873605 215.480195 
L 430.964923 215.611897 
L 431.056241 215.523883 
L 431.238878 214.799201 
L 431.878105 211.388989 
L 431.969423 211.433236 
L 432.15206 212.198942 
L 432.426014 214.880957 
L 433.339197 225.627389 
L 434.343697 233.199 
L 434.70897 235.620999 
L 434.891606 235.945093 
L 434.982925 235.818016 
L 435.165561 234.945923 
L 435.439516 231.957413 
L 435.896107 223.247549 
L 436.626653 209.303466 
L 436.991926 205.809429 
L 437.174562 205.133979 
L 437.26588 205.083694 
L 437.448517 205.587704 
L 437.722471 207.680077 
L 438.453017 214.510576 
L 438.726972 215.200129 
L 438.909608 215.075841 
L 439.548836 213.93688 
L 439.731472 214.184324 
L 440.005427 215.219794 
L 440.827291 218.805176 
L 441.101246 220.11731 
L 441.3752 222.536594 
L 442.105746 230.280117 
L 442.197064 230.305502 
L 442.379701 229.268727 
L 442.653655 225.036293 
L 443.110247 212.510848 
L 444.297383 177.263288 
L 444.936611 164.251636 
L 445.393202 158.820636 
L 446.762975 147.133561 
L 447.03693 146.075157 
L 447.219567 145.910143 
L 447.402203 146.170942 
L 447.676158 147.287917 
L 448.041431 149.944489 
L 448.771976 155.991691 
L 448.954613 156.270194 
L 449.137249 155.645445 
L 449.411204 152.729607 
L 449.867795 143.745364 
L 450.780977 125.489122 
L 452.059432 104.283311 
L 452.333387 103.045947 
L 452.424705 103.062572 
L 452.607342 103.587787 
L 452.972615 105.868805 
L 453.70316 111.906576 
L 454.068433 116.739822 
L 454.616343 127.723225 
L 455.803479 152.984867 
L 456.351389 160.661922 
L 456.80798 164.213243 
L 456.990616 164.733896 
L 457.081935 164.687702 
L 457.264571 163.901249 
L 457.538526 161.16231 
L 457.903799 155.089073 
L 458.999617 133.51372 
L 459.182254 132.52281 
L 459.273572 132.430366 
L 459.36489 132.597004 
L 459.547527 133.669179 
L 459.912799 137.8 
L 460.460709 143.960649 
L 460.825982 145.765444 
L 461.282573 146.699303 
L 462.743664 149.061649 
L 463.108937 149.649944 
L 463.200256 149.623299 
L 463.382892 149.133637 
L 463.565528 147.857926 
L 463.839483 144.083448 
L 464.296074 133.318933 
L 464.935302 118.364353 
L 465.209256 115.512662 
L 465.391893 114.887723 
L 465.574529 114.912616 
L 466.122439 115.649354 
L 466.305075 115.455669 
L 466.57903 114.49298 
L 467.857485 108.347086 
L 468.13144 108.012443 
L 468.314076 108.295626 
L 468.588031 109.721963 
L 468.953304 113.336323 
L 470.323077 128.53521 
L 471.327577 137.028566 
L 471.510214 137.339941 
L 471.601532 137.16361 
L 471.784168 136.079643 
L 472.058123 132.799412 
L 472.697351 121.017884 
L 473.427896 108.570071 
L 475.162943 84.738221 
L 476.258761 75.528837 
L 476.715352 72.953986 
L 477.080625 72.052114 
L 477.35458 71.857928 
L 478.176444 71.740866 
L 478.541717 71.938545 
L 478.90699 72.095706 
L 479.089626 71.949694 
L 479.363581 71.245106 
L 479.728854 69.295061 
L 480.368081 65.472147 
L 480.642036 64.818548 
L 480.824672 64.79586 
L 481.007309 65.061983 
L 481.281264 65.926539 
L 481.646536 67.904072 
L 482.011809 71.25893 
L 482.4684 78.147708 
L 483.381583 97.123801 
L 484.56872 124.662501 
L 486.577721 174.744393 
L 487.034312 180.889178 
L 487.399585 183.382329 
L 487.673539 184.206597 
L 487.856176 184.349677 
L 488.038812 184.153824 
L 488.312767 183.192238 
L 488.67804 180.719789 
L 490.047813 169.603888 
L 490.321768 168.941506 
L 490.504404 168.839966 
L 490.687041 168.971551 
L 490.960995 169.525358 
L 491.874177 171.849089 
L 492.056814 171.875682 
L 492.23945 171.689125 
L 492.513405 171.00811 
L 492.878678 169.373106 
L 493.517905 165.201997 
L 493.974497 160.949069 
L 494.613724 152.481083 
L 495.252952 144.368232 
L 495.526906 142.931111 
L 495.618225 142.857988 
L 495.709543 142.963114 
L 495.892179 143.669544 
L 496.257452 146.321146 
L 497.444589 157.592856 
L 497.90118 165.015952 
L 500.001499 204.708789 
L 500.45809 208.326288 
L 501.097318 212.424135 
L 501.645227 218.167962 
L 502.101818 222.374336 
L 502.284455 223.007559 
L 502.375773 223.011986 
L 502.55841 222.357648 
L 502.832364 219.851569 
L 503.288955 213.006426 
L 504.110819 200.28204 
L 504.476092 197.751876 
L 504.750047 197.167105 
L 505.297956 196.868658 
L 505.571911 195.90251 
L 506.576411 190.890888 
L 506.759048 191.263141 
L 507.398275 193.573397 
L 507.489594 193.498737 
L 507.67223 192.846753 
L 507.946185 190.747443 
L 508.950685 181.309162 
L 509.407276 179.461782 
L 509.955186 178.101419 
L 510.22914 177.845464 
L 510.411777 177.887095 
L 510.685731 178.232713 
L 511.507595 179.907308 
L 511.872868 181.239868 
L 512.420778 184.453901 
L 513.151323 188.60876 
L 514.064506 193.094982 
L 514.795051 198.514771 
L 515.434279 204.441866 
L 515.89087 210.633614 
L 517.351962 233.396219 
L 517.625916 234.234284 
L 518.44778 235.402163 
L 518.630417 235.513962 
L 518.813053 235.396045 
L 518.99569 234.963732 
L 519.360962 233.274403 
L 519.817554 231.37723 
L 520.00019 231.162387 
L 520.182826 231.316665 
L 520.548099 232.325192 
L 521.00469 233.513332 
L 521.643918 234.762848 
L 522.009191 236.316409 
L 522.739737 239.553672 
L 523.10501 240.18192 
L 523.744237 240.878325 
L 524.200828 241.852623 
L 524.657419 243.273998 
L 525.022692 245.389076 
L 525.387965 249.198082 
L 525.935875 257.850797 
L 528.036194 294.170759 
L 528.401467 297.198101 
L 528.675421 298.256648 
L 528.858058 298.443871 
L 529.040694 298.261642 
L 529.314649 297.356898 
L 529.862558 294.129678 
L 530.410467 291.391071 
L 530.593104 291.079886 
L 530.684422 291.117701 
L 530.867059 291.627819 
L 531.141013 293.381554 
L 532.236832 301.846719 
L 532.32815 301.76536 
L 532.510787 301.019683 
L 532.784741 298.681253 
L 534.063196 285.578878 
L 534.428469 284.226006 
L 534.793742 283.699201 
L 535.159015 283.241555 
L 535.43297 282.374776 
L 535.706924 280.60752 
L 536.072197 276.483987 
L 536.711425 265.460199 
L 538.081198 241.226025 
L 538.629107 234.970289 
L 539.085699 231.923347 
L 539.54229 230.155468 
L 539.907563 229.409411 
L 540.272835 229.18291 
L 540.729427 229.024061 
L 541.003381 228.554039 
L 541.459972 226.999368 
L 541.733927 226.257416 
L 541.916563 226.164864 
L 542.0992 226.500347 
L 542.373155 227.867003 
L 542.829746 231.917459 
L 543.925564 242.308009 
L 544.290837 243.687317 
L 544.930065 245.239115 
L 545.20402 246.6921 
L 545.660611 250.71016 
L 546.847748 264.074271 
L 547.486975 274.881991 
L 548.217521 286.735236 
L 548.76543 291.964348 
L 549.495976 297.034346 
L 549.769931 298.003586 
L 549.952567 298.040935 
L 550.135204 297.485423 
L 550.409158 295.557816 
L 550.865749 290.224258 
L 553.787932 251.826878 
L 554.244524 248.408698 
L 554.518478 247.435573 
L 554.701115 247.36597 
L 554.883751 247.754258 
L 555.157706 249.105525 
L 555.796933 254.160654 
L 556.253524 256.936083 
L 556.527479 257.459596 
L 556.710116 257.359953 
L 556.98407 256.778367 
L 557.714616 254.895275 
L 557.988571 254.709842 
L 558.262525 254.789912 
L 559.54098 255.484338 
L 559.723617 255.319826 
L 559.906253 254.797072 
L 560.180208 252.997089 
L 560.728117 246.781195 
L 561.549981 237.819255 
L 562.189209 231.142077 
L 563.285028 218.081398 
L 563.832937 213.089351 
L 564.19821 207.125701 
L 564.654801 194.658996 
L 567.394348 105.813547 
L 567.850939 98.05389 
L 568.216212 94.642481 
L 568.490166 93.755433 
L 568.581485 93.779174 
L 568.764121 94.28905 
L 569.038076 96.095413 
L 569.585985 101.973708 
L 570.407849 110.597231 
L 571.229713 118.65576 
L 571.777622 126.690862 
L 572.508168 141.52539 
L 574.699805 189.842811 
L 575.430351 199.108739 
L 575.886942 202.866178 
L 576.252215 204.43598 
L 576.617488 205.148152 
L 576.982761 205.37771 
L 577.256716 205.262968 
L 577.53067 204.834735 
L 578.352534 203.08444 
L 578.535171 203.165446 
L 578.809125 203.74558 
L 579.357035 205.023188 
L 579.539671 204.917415 
L 579.722308 204.387568 
L 579.996262 202.820269 
L 580.452853 198.686229 
L 580.909445 192.715507 
L 581.366036 184.017637 
L 582.005263 167.068489 
L 583.101082 131.828009 
L 583.922946 107.532991 
L 584.379537 99.845066 
L 584.836128 96.102075 
L 585.931947 88.928295 
L 586.936447 82.04733 
L 587.484357 79.511424 
L 587.84963 78.72414 
L 588.032266 78.689959 
L 588.214902 78.87066 
L 588.580175 79.684231 
L 589.128085 80.863787 
L 589.402039 81.016846 
L 589.675994 80.869834 
L 590.223903 80.140443 
L 590.863131 78.913088 
L 591.41104 77.273852 
L 591.867631 75.213191 
L 592.324222 71.928858 
L 592.780814 66.423979 
L 593.693996 50.71273 
L 594.241905 43.518598 
L 594.789814 39.1446 
L 595.246406 37.232372 
L 595.52036 36.8775 
L 595.702997 36.971044 
L 595.976951 37.492164 
L 597.346725 41.343359 
L 597.711998 43.746457 
L 598.168589 48.684551 
L 598.716498 57.698343 
L 599.355726 72.938561 
L 601.273408 123.093309 
L 602.18659 143.201095 
L 602.825818 151.993908 
L 603.921637 166.251105 
L 606.204592 198.265246 
L 607.574366 211.282407 
L 607.757002 211.881938 
L 607.84832 211.933175 
L 608.030957 211.522272 
L 608.304911 209.826371 
L 608.852821 204.384988 
L 609.492048 195.674525 
L 610.039958 184.459406 
L 611.683686 145.913449 
L 612.140277 140.935744 
L 612.50555 138.891485 
L 612.870823 137.981559 
L 613.144777 137.729062 
L 613.418732 137.742942 
L 613.784005 138.054217 
L 614.240596 138.436814 
L 614.514551 138.369216 
L 614.788505 137.908845 
L 615.153778 136.602692 
L 615.701687 133.415269 
L 616.340915 128.250239 
L 616.888824 121.743143 
L 617.710688 108.396923 
L 618.715189 92.641731 
L 619.17178 87.99376 
L 619.537053 86.303213 
L 619.811007 85.952924 
L 620.084962 85.986333 
L 620.632871 86.398358 
L 620.906826 86.884238 
L 621.272099 88.168292 
L 621.72869 90.904001 
L 622.641872 98.119502 
L 623.098464 103.407435 
L 623.737691 114.425612 
L 624.83351 133.37756 
L 625.746692 147.319652 
L 626.38592 161.481806 
L 627.755693 193.365566 
L 628.212284 199.062357 
L 628.577557 201.100337 
L 628.851512 201.513902 
L 629.034148 201.432285 
L 630.038648 200.346028 
L 630.49524 200.504829 
L 630.860512 200.551803 
L 631.134467 200.366419 
L 631.682376 199.611698 
L 632.230286 198.999966 
L 632.686877 198.813707 
L 633.143468 198.841329 
L 633.600059 199.098824 
L 634.05665 199.632474 
L 634.513241 200.531904 
L 635.152469 202.345298 
L 635.974333 204.640349 
L 636.248288 204.959363 
L 636.430924 204.92379 
L 636.61356 204.658914 
L 636.887515 203.771834 
L 637.344106 201.170745 
L 638.987834 190.231779 
L 639.444425 188.956696 
L 639.809698 188.497022 
L 640.448926 188.011536 
L 640.72288 187.383296 
L 640.996835 186.140465 
L 641.362108 183.229219 
L 642.001336 175.512094 
L 642.640563 168.436479 
L 643.097154 165.577646 
L 643.371109 164.797919 
L 643.553745 164.65413 
L 643.736382 164.830796 
L 644.010337 165.740946 
L 644.375609 168.038521 
L 645.471428 177.476547 
L 646.110656 183.888702 
L 646.567247 190.774627 
L 647.297793 206.267408 
L 651.04184 291.222218 
L 651.772385 303.329402 
L 652.411613 310.168085 
L 652.868204 313.389415 
L 653.142159 314.268756 
L 653.324795 314.266017 
L 653.507432 313.71928 
L 653.781386 311.811395 
L 654.146659 307.434677 
L 654.785887 296.385789 
L 656.064342 273.800098 
L 656.794888 265.277174 
L 657.525433 258.766765 
L 658.073343 255.623302 
L 659.077843 251.96448 
L 659.717071 250.062219 
L 659.991025 249.794964 
L 660.173662 249.924635 
L 660.356298 250.368733 
L 660.630253 251.706933 
L 660.995526 254.793015 
L 662.182663 266.345353 
L 662.456618 267.350427 
L 662.639254 267.417513 
L 662.82189 267.057453 
L 663.095845 265.930333 
L 663.461118 263.237891 
L 663.826391 258.635018 
L 664.282982 249.872639 
L 665.013528 230.119113 
L 665.92671 206.552722 
L 666.657256 192.999524 
L 667.47912 181.639557 
L 668.027029 176.900168 
L 668.392302 175.425318 
L 668.666257 175.041487 
L 668.848893 175.096302 
L 669.122848 175.574965 
L 669.579439 176.999203 
L 670.03603 179.282607 
L 671.04053 186.179688 
L 671.862394 190.814936 
L 672.684258 195.620058 
L 673.506122 201.931854 
L 674.236668 209.247439 
L 674.875896 217.855006 
L 675.69776 232.436643 
L 676.519624 246.194452 
L 677.980715 267.293587 
L 679.350489 290.320499 
L 680.81158 311.15348 
L 682.820581 337.628492 
L 683.185854 339.208674 
L 683.277172 339.2775 
L 683.459809 338.991592 
L 683.733763 337.529863 
L 684.099036 333.858345 
L 684.738264 324.354736 
L 685.742764 305.746691 
L 688.02572 260.197691 
L 688.664947 253.270771 
L 689.486811 246.724139 
L 690.491312 239.066395 
L 691.313176 230.304135 
L 692.591631 216.798508 
L 693.13954 213.15931 
L 694.144041 207.685116 
L 694.69195 202.492531 
L 696.061723 188.607247 
L 696.792269 184.014904 
L 697.79677 179.094432 
L 698.618634 175.93067 
L 699.075225 174.806283 
L 699.440498 174.363192 
L 699.714452 174.316281 
L 700.079725 174.533762 
L 700.627635 174.849528 
L 700.901589 174.707364 
L 701.175544 174.249927 
L 701.540817 173.095349 
L 701.997408 170.792359 
L 702.545317 166.754189 
L 703.732454 155.515294 
L 704.371682 148.130523 
L 706.106728 124.881913 
L 706.654637 121.488515 
L 707.01991 120.4039 
L 707.293865 120.2071 
L 707.659138 120.345088 
L 708.024411 120.418697 
L 708.207047 120.234166 
L 708.481002 119.540412 
L 708.937593 117.462386 
L 710.033412 110.93363 
L 711.037912 105.139028 
L 711.494503 103.661903 
L 711.859776 103.103002 
L 712.133731 102.973434 
L 712.407685 103.043949 
L 712.864276 103.446112 
L 713.960095 104.839018 
L 714.508004 105.913335 
L 715.147232 107.171079 
L 715.329868 107.245753 
L 715.512505 107.085033 
L 715.78646 106.379561 
L 716.334369 103.930119 
L 717.338869 99.509467 
L 718.526006 94.883943 
L 718.708643 94.830516 
L 718.891279 95.117033 
L 719.165234 96.19334 
L 719.530507 98.7687 
L 719.987098 103.652666 
L 720.626325 113.077441 
L 722.270053 138.587641 
L 723.365872 150.490441 
L 723.731145 152.993678 
L 724.0051 153.758392 
L 724.187736 153.720075 
L 724.370373 153.235922 
L 724.644327 151.707779 
L 725.192237 146.795552 
L 726.835965 128.690062 
L 728.936284 104.880983 
L 729.666829 99.429304 
L 730.488693 94.902001 
L 731.858467 88.258491 
L 732.497694 83.059043 
L 733.958786 70.584313 
L 734.324059 68.955356 
L 734.506695 68.635893 
L 734.689332 68.707261 
L 734.871968 69.164327 
L 735.145923 70.527733 
L 735.693832 74.942778 
L 736.424378 80.639135 
L 736.789651 82.253292 
L 737.154924 83.015071 
L 737.428878 83.230375 
L 737.702833 83.146879 
L 737.976788 82.660873 
L 738.342061 81.249066 
L 739.072606 76.773038 
L 739.89447 72.377708 
L 740.990289 67.416859 
L 741.172925 67.38144 
L 741.355562 67.813862 
L 741.629517 69.289382 
L 742.177426 74.058075 
L 742.907972 82.167631 
L 743.547199 91.970985 
L 745.464882 126.431483 
L 748.021792 184.945681 
L 748.843656 198.636421 
L 749.482884 206.433603 
L 749.848157 208.771384 
L 750.122111 209.52776 
L 750.396066 209.758805 
L 750.852657 209.766434 
L 751.126612 209.653959 
L 751.400566 209.27343 
L 751.765839 208.132275 
L 752.679022 204.743659 
L 752.952976 204.416463 
L 753.409567 204.301498 
L 753.957477 204.286742 
L 754.231431 204.509204 
L 754.596704 205.264861 
L 755.418568 207.951514 
L 756.423069 211.524342 
L 758.249433 219.280195 
L 760.532389 234.062332 
L 760.98898 235.645067 
L 761.445571 236.468251 
L 761.902162 236.842603 
L 762.176117 236.847768 
L 762.450071 236.634694 
L 762.906663 235.930745 
L 763.728527 234.689418 
L 764.459072 233.757225 
L 765.463573 232.084863 
L 765.828846 231.916742 
L 766.924664 231.685107 
L 767.289937 231.374983 
L 767.65521 230.7361 
L 768.020483 229.580575 
L 769.572893 223.722797 
L 770.120802 221.922174 
L 771.033984 217.630687 
L 772.221121 212.52843 
L 772.403758 212.328669 
L 772.586394 212.501332 
L 772.860349 213.447998 
L 773.225622 215.921103 
L 773.773531 221.749511 
L 774.412759 231.159101 
L 775.599895 253.463505 
L 776.421759 266.031823 
L 777.060987 272.634577 
L 777.517578 275.364437 
L 777.882851 276.344701 
L 778.704715 277.672913 
L 779.069988 279.351262 
L 780.987671 290.318096 
L 781.352943 291.304692 
L 781.53558 291.40757 
L 781.718216 291.164625 
L 781.992171 290.188398 
L 782.54008 286.811304 
L 782.905353 285.007039 
L 783.179308 284.519977 
L 783.361944 284.575239 
L 784.09249 285.288179 
L 784.366445 285.164062 
L 784.823036 284.856034 
L 785.096991 284.97922 
L 785.462264 285.557253 
L 786.010173 286.968605 
L 786.466764 288.799859 
L 787.105992 292.685019 
L 787.653901 295.520822 
L 788.019174 296.481266 
L 788.567083 297.208676 
L 789.297629 297.887891 
L 789.480265 297.843824 
L 789.75422 297.471834 
L 790.119493 296.430532 
L 790.576084 294.370977 
L 791.123993 290.835718 
L 791.763221 284.962886 
L 794.685404 255.965214 
L 795.598586 250.72227 
L 797.059678 243.350316 
L 797.881542 240.061578 
L 798.246815 239.294816 
L 798.612088 239.032827 
L 799.068679 239.079225 
L 799.799224 239.39938 
L 800.255816 239.883387 
L 801.07768 240.815856 
L 801.990862 241.443865 
L 803.360635 243.059467 
L 803.725908 243.119418 
L 803.999863 243.002528 
L 804.273817 242.618964 
L 804.547772 241.72707 
L 804.913045 239.588671 
L 805.460954 234.591677 
L 806.100182 226.559028 
L 806.648091 216.661276 
L 807.469955 195.964488 
L 808.474456 172.228506 
L 809.478956 155.359876 
L 811.670593 121.246649 
L 812.127185 118.050932 
L 812.675094 115.802043 
L 813.040367 115.124214 
L 813.223003 115.11657 
L 813.40564 115.390769 
L 813.679594 116.392879 
L 814.044867 118.839126 
L 814.592777 124.348726 
L 815.597277 137.072663 
L 817.51496 163.79334 
L 817.971551 166.72231 
L 818.428142 168.221063 
L 818.702097 168.576058 
L 818.884733 168.595422 
L 819.067369 168.434958 
L 819.341324 167.821791 
L 819.706597 166.288558 
L 820.345825 162.28429 
L 821.441643 153.959073 
L 822.62878 144.452812 
L 823.633281 137.863488 
L 824.089872 132.827018 
L 824.911736 120.744304 
L 826.555464 96.857108 
L 827.377328 86.924724 
L 827.925237 82.420342 
L 828.381828 80.154312 
L 828.747101 79.245602 
L 829.021056 79.075548 
L 829.29501 79.274574 
L 829.660283 79.926069 
L 831.304011 83.94737 
L 831.851921 85.984882 
L 832.947739 90.438701 
L 833.221694 90.750957 
L 833.40433 90.68036 
L 833.678285 90.206139 
L 834.043558 89.020013 
L 835.322013 83.459069 
L 835.869922 80.359442 
L 836.417832 76.001986 
L 838.426833 57.972306 
L 839.06606 54.675827 
L 839.431333 53.631529 
L 839.705288 53.424359 
L 839.887924 53.608951 
L 840.161879 54.402318 
L 840.527152 56.388116 
L 840.983743 60.298378 
L 841.714289 69.066351 
L 847.376019 142.597802 
L 847.923928 146.30867 
L 848.289201 147.634033 
L 848.654474 148.233002 
L 848.928428 148.303 
L 849.202383 148.073342 
L 849.567656 147.354474 
L 850.206883 145.382541 
L 850.754793 143.951055 
L 851.028747 143.77824 
L 851.211384 143.918127 
L 851.485339 144.516143 
L 851.94193 146.326944 
L 853.585658 154.591943 
L 854.681476 160.452898 
L 855.138067 161.870181 
L 855.50334 162.369982 
L 855.868613 162.492982 
L 857.238387 162.568061 
L 857.786296 163.011729 
L 858.151569 163.664131 
L 858.516842 164.92772 
L 858.882115 167.119904 
L 859.338706 171.485865 
L 860.069251 181.382914 
L 862.534844 219.126877 
L 865.27439 266.177407 
L 867.922619 318.896899 
L 868.653164 327.676259 
L 869.475028 335.255847 
L 869.840301 336.723922 
L 870.022938 336.782067 
L 870.205574 336.416145 
L 870.570847 334.802162 
L 871.210075 330.623624 
L 871.666666 326.233509 
L 872.214575 318.548787 
L 873.949621 292.509882 
L 874.862804 283.386965 
L 875.775986 273.401881 
L 877.145759 258.322482 
L 877.693668 254.326807 
L 880.067942 241.845753 
L 880.889806 236.99011 
L 882.624853 225.99443 
L 883.355398 222.231039 
L 883.720671 221.141667 
L 883.994626 220.9161 
L 884.177262 221.067304 
L 884.451217 221.735219 
L 884.81649 223.441543 
L 885.364399 227.321902 
L 889.017128 255.876857 
L 889.747674 259.564583 
L 890.386901 261.702656 
L 891.026129 263.074778 
L 891.574038 263.779195 
L 892.121948 264.073186 
L 892.669857 263.887864 
L 892.943812 263.614997 
L 893.491721 262.633383 
L 894.404903 260.775843 
L 894.678858 260.608849 
L 894.952813 260.684321 
L 895.409404 261.171456 
L 896.048631 261.81913 
L 896.505222 261.951817 
L 896.870495 261.807509 
L 897.235768 261.327764 
L 897.692359 260.230841 
L 898.879496 257.135918 
L 899.792678 255.514501 
L 900.979815 253.580194 
L 901.345088 252.16008 
L 901.801679 249.163318 
L 902.532225 242.456735 
L 903.354089 233.216951 
L 904.175953 220.82771 
L 906.276272 188.140201 
L 906.824182 183.799101 
L 907.92 177.552834 
L 908.46791 175.629069 
L 910.47691 170.681155 
L 911.02482 169.740021 
L 911.390093 169.454732 
L 911.664047 169.477385 
L 911.938002 169.716728 
L 912.303275 170.368657 
L 912.759866 171.702422 
L 913.399094 174.45124 
L 914.220958 179.200962 
L 915.316776 185.783955 
L 915.590731 186.333716 
L 915.773367 186.248341 
L 915.956004 185.794352 
L 916.321277 183.960311 
L 916.869186 179.800264 
L 917.508414 173.392001 
L 918.238959 163.768079 
L 919.517414 147.057385 
L 920.156642 141.364945 
L 920.887188 136.869331 
L 921.80037 132.537025 
L 922.622234 129.668187 
L 923.35278 127.841539 
L 923.900689 126.523088 
L 924.35728 124.637054 
L 924.996508 120.674877 
L 925.90969 113.447208 
L 926.914191 103.065386 
L 927.644736 96.438673 
L 928.010009 94.674264 
L 928.375282 93.820011 
L 929.379783 92.276603 
L 930.932192 88.45323 
L 932.028011 85.341618 
L 932.667239 83.533317 
L 933.580421 79.900236 
L 934.402285 77.032639 
L 934.767558 76.293694 
L 934.950194 76.171206 
L 935.132831 76.274435 
L 935.406785 76.892598 
L 935.772058 78.52609 
L 936.319967 82.300723 
L 937.050513 89.002315 
L 939.150832 110.092731 
L 941.068515 124.656777 
L 941.799061 128.402153 
L 944.355971 139.725877 
L 946.091017 149.48817 
L 946.912881 155.967136 
L 948.373973 167.594475 
L 949.0132 170.92197 
L 949.56111 172.687817 
L 950.109019 173.740649 
L 950.56561 174.224811 
L 950.839565 174.249881 
L 951.11352 174.005138 
L 951.478792 173.240628 
L 952.026702 171.371915 
L 954.492294 161.805338 
L 955.040203 160.860437 
L 955.496794 160.448382 
L 955.770749 160.465538 
L 956.044704 160.781772 
L 956.409976 161.674602 
L 956.957886 163.848947 
L 957.77975 168.251984 
L 959.33216 178.245722 
L 960.062705 183.819667 
L 961.341161 196.183383 
L 962.710934 207.956454 
L 963.532798 213.416085 
L 965.267844 222.883816 
L 966.272345 227.161053 
L 966.911572 229.063256 
L 967.916073 231.134072 
L 968.646618 232.274319 
L 969.285846 232.905781 
L 969.925073 233.220097 
L 970.472983 233.241377 
L 970.838256 233.041031 
L 971.203529 232.583136 
L 971.751438 231.453105 
L 972.573302 229.058969 
L 973.943075 224.535521 
L 977.595804 211.122845 
L 978.874259 206.640273 
L 980.88326 200.789526 
L 981.979079 198.345208 
L 982.800943 196.987232 
L 983.805443 195.787157 
L 984.809944 194.919021 
L 985.723126 194.432242 
L 987.914763 193.365929 
L 989.467173 192.269358 
L 993.119902 189.641098 
L 994.033084 189.18579 
L 1000.607996 187.479885 
L 1007.913454 187.410406 
L 1008.917955 187.469323 
L 1008.917955 187.469323 
" clip-path="url(#pd69b325067)" style="fill: none; stroke: #0c5da5; stroke-width: 2; stroke-linecap: square"/>
   </g>
   <g id="patch_3">
    <path d="M 50.1725 354.3975 
L 50.1725 21.7575 
" style="fill: none; stroke: #000000; stroke-linejoin: miter; stroke-linecap: square"/>
   </g>
   <g id="patch_4">
    <path d="M 1054.5725 354.3975 
L 1054.5725 21.7575 
" style="fill: none; stroke: #000000; stroke-linejoin: miter; stroke-linecap: square"/>
   </g>
   <g id="patch_5">
    <path d="M 50.1725 354.3975 
L 1054.5725 354.3975 
" style="fill: none; stroke: #000000; stroke-linejoin: miter; stroke-linecap: square"/>
   </g>
   <g id="patch_6">
    <path d="M 50.1725 21.7575 
L 1054.5725 21.7575 
" style="fill: none; stroke: #000000; stroke-linejoin: miter; stroke-linecap: square"/>
   </g>
   <g id="text_17">
    <!-- Borrego Record no. 9 -->
    <g transform="translate(468.1075 15.7575) scale(0.16 -0.16)">
     <defs>
      <path id="DejaVuSans-6f" d="M 1959 3097 
Q 1497 3097 1228 2736 
Q 959 2375 959 1747 
Q 959 1119 1226 758 
Q 1494 397 1959 397 
Q 2419 397 2687 759 
Q 2956 1122 2956 1747 
Q 2956 2369 2687 2733 
Q 2419 3097 1959 3097 
z
M 1959 3584 
Q 2709 3584 3137 3096 
Q 3566 2609 3566 1747 
Q 3566 888 3137 398 
Q 2709 -91 1959 -91 
Q 1206 -91 779 398 
Q 353 888 353 1747 
Q 353 2609 779 3096 
Q 1206 3584 1959 3584 
z
" transform="scale(0.015625)"/>
      <path id="DejaVuSans-72" d="M 2631 2963 
Q 2534 3019 2420 3045 
Q 2306 3072 2169 3072 
Q 1681 3072 1420 2755 
Q 1159 2438 1159 1844 
L 1159 0 
L 581 0 
L 581 3500 
L 1159 3500 
L 1159 2956 
Q 1341 3275 1631 3429 
Q 1922 3584 2338 3584 
Q 2397 3584 2469 3576 
Q 2541 3569 2628 3553 
L 2631 2963 
z
" transform="scale(0.015625)"/>
      <path id="DejaVuSans-67" d="M 2906 1791 
Q 2906 2416 2648 2759 
Q 2391 3103 1925 3103 
Q 1463 3103 1205 2759 
Q 947 2416 947 1791 
Q 947 1169 1205 825 
Q 1463 481 1925 481 
Q 2391 481 2648 825 
Q 2906 1169 2906 1791 
z
M 3481 434 
Q 3481 -459 3084 -895 
Q 2688 -1331 1869 -1331 
Q 1566 -1331 1297 -1286 
Q 1028 -1241 775 -1147 
L 775 -588 
Q 1028 -725 1275 -790 
Q 1522 -856 1778 -856 
Q 2344 -856 2625 -561 
Q 2906 -266 2906 331 
L 2906 616 
Q 2728 306 2450 153 
Q 2172 0 1784 0 
Q 1141 0 747 490 
Q 353 981 353 1791 
Q 353 2603 747 3093 
Q 1141 3584 1784 3584 
Q 2172 3584 2450 3431 
Q 2728 3278 2906 2969 
L 2906 3500 
L 3481 3500 
L 3481 434 
z
" transform="scale(0.015625)"/>
      <path id="DejaVuSans-52" d="M 2841 2188 
Q 3044 2119 3236 1894 
Q 3428 1669 3622 1275 
L 4263 0 
L 3584 0 
L 2988 1197 
Q 2756 1666 2539 1819 
Q 2322 1972 1947 1972 
L 1259 1972 
L 1259 0 
L 628 0 
L 628 4666 
L 2053 4666 
Q 2853 4666 3247 4331 
Q 3641 3997 3641 3322 
Q 3641 2881 3436 2590 
Q 3231 2300 2841 2188 
z
M 1259 4147 
L 1259 2491 
L 2053 2491 
Q 2509 2491 2742 2702 
Q 2975 2913 2975 3322 
Q 2975 3731 2742 3939 
Q 2509 4147 2053 4147 
L 1259 4147 
z
" transform="scale(0.015625)"/>
      <path id="DejaVuSans-64" d="M 2906 2969 
L 2906 4863 
L 3481 4863 
L 3481 0 
L 2906 0 
L 2906 525 
Q 2725 213 2448 61 
Q 2172 -91 1784 -91 
Q 1150 -91 751 415 
Q 353 922 353 1747 
Q 353 2572 751 3078 
Q 1150 3584 1784 3584 
Q 2172 3584 2448 3432 
Q 2725 3281 2906 2969 
z
M 947 1747 
Q 947 1113 1208 752 
Q 1469 391 1925 391 
Q 2381 391 2643 752 
Q 2906 1113 2906 1747 
Q 2906 2381 2643 2742 
Q 2381 3103 1925 3103 
Q 1469 3103 1208 2742 
Q 947 2381 947 1747 
z
" transform="scale(0.015625)"/>
      <path id="DejaVuSans-2e" d="M 684 794 
L 1344 794 
L 1344 0 
L 684 0 
L 684 794 
z
" transform="scale(0.015625)"/>
      <path id="DejaVuSans-39" d="M 703 97 
L 703 672 
Q 941 559 1184 500 
Q 1428 441 1663 441 
Q 2288 441 2617 861 
Q 2947 1281 2994 2138 
Q 2813 1869 2534 1725 
Q 2256 1581 1919 1581 
Q 1219 1581 811 2004 
Q 403 2428 403 3163 
Q 403 3881 828 4315 
Q 1253 4750 1959 4750 
Q 2769 4750 3195 4129 
Q 3622 3509 3622 2328 
Q 3622 1225 3098 567 
Q 2575 -91 1691 -91 
Q 1453 -91 1209 -44 
Q 966 3 703 97 
z
M 1959 2075 
Q 2384 2075 2632 2365 
Q 2881 2656 2881 3163 
Q 2881 3666 2632 3958 
Q 2384 4250 1959 4250 
Q 1534 4250 1286 3958 
Q 1038 3666 1038 3163 
Q 1038 2656 1286 2365 
Q 1534 2075 1959 2075 
z
" transform="scale(0.015625)"/>
     </defs>
     <use xlink:href="#DejaVuSans-42"/>
     <use xlink:href="#DejaVuSans-6f" x="68.603516"/>
     <use xlink:href="#DejaVuSans-72" x="129.785156"/>
     <use xlink:href="#DejaVuSans-72" x="169.148438"/>
     <use xlink:href="#DejaVuSans-65" x="208.011719"/>
     <use xlink:href="#DejaVuSans-67" x="269.535156"/>
     <use xlink:href="#DejaVuSans-6f" x="333.011719"/>
     <use xlink:href="#DejaVuSans-20" x="394.193359"/>
     <use xlink:href="#DejaVuSans-52" x="425.980469"/>
     <use xlink:href="#DejaVuSans-65" x="490.962891"/>
     <use xlink:href="#DejaVuSans-63" x="552.486328"/>
     <use xlink:href="#DejaVuSans-6f" x="607.466797"/>
     <use xlink:href="#DejaVuSans-72" x="668.648438"/>
     <use xlink:href="#DejaVuSans-64" x="708.011719"/>
     <use xlink:href="#DejaVuSans-20" x="771.488281"/>
     <use xlink:href="#DejaVuSans-6e" x="803.275391"/>
     <use xlink:href="#DejaVuSans-6f" x="866.654297"/>
     <use xlink:href="#DejaVuSans-2e" x="926.085938"/>
     <use xlink:href="#DejaVuSans-20" x="957.873047"/>
     <use xlink:href="#DejaVuSans-39" x="989.660156"/>
    </g>
   </g>
   <g id="legend_1">
    <g id="patch_7">
     <path d="M 61.3725 346.3975 
L 421.585 346.3975 
Q 424.785 346.3975 424.785 343.1975 
L 424.785 321.3125 
Q 424.785 318.1125 421.585 318.1125 
L 61.3725 318.1125 
Q 58.1725 318.1125 58.1725 321.3125 
L 58.1725 343.1975 
Q 58.1725 346.3975 61.3725 346.3975 
z
" style="fill: #ffffff; stroke: #cccccc; stroke-linejoin: miter"/>
    </g>
    <g id="line2d_129">
     <path d="M 64.5725 331.07 
L 80.5725 331.07 
L 96.5725 331.07 
" style="fill: none; stroke: #0c5da5; stroke-width: 2; stroke-linecap: square"/>
    </g>
    <g id="text_18">
     <!-- Residual Displacement = -0.000002 m -->
     <g transform="translate(109.3725 336.67) scale(0.16 -0.16)">
      <defs>
       <path id="DejaVuSans-75" d="M 544 1381 
L 544 3500 
L 1119 3500 
L 1119 1403 
Q 1119 906 1312 657 
Q 1506 409 1894 409 
Q 2359 409 2629 706 
Q 2900 1003 2900 1516 
L 2900 3500 
L 3475 3500 
L 3475 0 
L 2900 0 
L 2900 538 
Q 2691 219 2414 64 
Q 2138 -91 1772 -91 
Q 1169 -91 856 284 
Q 544 659 544 1381 
z
M 1991 3584 
L 1991 3584 
z
" transform="scale(0.015625)"/>
       <path id="DejaVuSans-3d" d="M 678 2906 
L 4684 2906 
L 4684 2381 
L 678 2381 
L 678 2906 
z
M 678 1631 
L 4684 1631 
L 4684 1100 
L 678 1100 
L 678 1631 
z
" transform="scale(0.015625)"/>
       <path id="DejaVuSans-2d" d="M 313 2009 
L 1997 2009 
L 1997 1497 
L 313 1497 
L 313 2009 
z
" transform="scale(0.015625)"/>
      </defs>
      <use xlink:href="#DejaVuSans-52"/>
      <use xlink:href="#DejaVuSans-65" x="64.982422"/>
      <use xlink:href="#DejaVuSans-73" x="126.505859"/>
      <use xlink:href="#DejaVuSans-69" x="178.605469"/>
      <use xlink:href="#DejaVuSans-64" x="206.388672"/>
      <use xlink:href="#DejaVuSans-75" x="269.865234"/>
      <use xlink:href="#DejaVuSans-61" x="333.244141"/>
      <use xlink:href="#DejaVuSans-6c" x="394.523438"/>
      <use xlink:href="#DejaVuSans-20" x="422.306641"/>
      <use xlink:href="#DejaVuSans-44" x="454.09375"/>
      <use xlink:href="#DejaVuSans-69" x="531.095703"/>
      <use xlink:href="#DejaVuSans-73" x="558.878906"/>
      <use xlink:href="#DejaVuSans-70" x="610.978516"/>
      <use xlink:href="#DejaVuSans-6c" x="674.455078"/>
      <use xlink:href="#DejaVuSans-61" x="702.238281"/>
      <use xlink:href="#DejaVuSans-63" x="763.517578"/>
      <use xlink:href="#DejaVuSans-65" x="818.498047"/>
      <use xlink:href="#DejaVuSans-6d" x="880.021484"/>
      <use xlink:href="#DejaVuSans-65" x="977.433594"/>
      <use xlink:href="#DejaVuSans-6e" x="1038.957031"/>
      <use xlink:href="#DejaVuSans-74" x="1102.335938"/>
      <use xlink:href="#DejaVuSans-20" x="1141.544922"/>
      <use xlink:href="#DejaVuSans-3d" x="1173.332031"/>
      <use xlink:href="#DejaVuSans-20" x="1257.121094"/>
      <use xlink:href="#DejaVuSans-2d" x="1288.908203"/>
      <use xlink:href="#DejaVuSans-30" x="1324.992188"/>
      <use xlink:href="#DejaVuSans-2e" x="1388.615234"/>
      <use xlink:href="#DejaVuSans-30" x="1420.402344"/>
      <use xlink:href="#DejaVuSans-30" x="1484.025391"/>
      <use xlink:href="#DejaVuSans-30" x="1547.648438"/>
      <use xlink:href="#DejaVuSans-30" x="1611.271484"/>
      <use xlink:href="#DejaVuSans-30" x="1674.894531"/>
      <use xlink:href="#DejaVuSans-32" x="1738.517578"/>
      <use xlink:href="#DejaVuSans-20" x="1802.140625"/>
      <use xlink:href="#DejaVuSans-6d" x="1833.927734"/>
     </g>
    </g>
   </g>
  </g>
 </g>
 <defs>
  <clipPath id="pd69b325067">
   <rect x="50.1725" y="21.7575" width="1004.4" height="332.64"/>
  </clipPath>
 </defs>
</svg>
