<?xml version="1.0" encoding="utf-8" standalone="no"?>
<!DOCTYPE svg PUBLIC "-//W3C//DTD SVG 1.1//EN"
  "http://www.w3.org/Graphics/SVG/1.1/DTD/svg11.dtd">
<svg xmlns:xlink="http://www.w3.org/1999/xlink" width="1093.7975pt" height="562.7875pt" viewBox="0 0 1093.7975 562.7875" xmlns="http://www.w3.org/2000/svg" version="1.1">
 <metadata>
  <rdf:RDF xmlns:dc="http://purl.org/dc/elements/1.1/" xmlns:cc="http://creativecommons.org/ns#" xmlns:rdf="http://www.w3.org/1999/02/22-rdf-syntax-ns#">
   <cc:Work>
    <dc:type rdf:resource="http://purl.org/dc/dcmitype/StillImage"/>
    <dc:date>2023-05-16T15:01:09.588095</dc:date>
    <dc:format>image/svg+xml</dc:format>
    <dc:creator>
     <cc:Agent>
      <dc:title>Matplotlib v3.7.1, https://matplotlib.org/</dc:title>
     </cc:Agent>
    </dc:creator>
   </cc:Work>
  </rdf:RDF>
 </metadata>
 <defs>
  <style type="text/css">*{stroke-linejoin: round; stroke-linecap: butt}</style>
 </defs>
 <g id="figure_1">
  <g id="patch_1">
   <path d="M 0 562.7875 
L 1093.7975 562.7875 
L 1093.7975 0 
L 0 0 
z
" style="fill: #ffffff"/>
  </g>
  <g id="axes_1">
   <g id="patch_2">
    <path d="M 85.7975 520.7175 
L 1090.1975 520.7175 
L 1090.1975 21.7575 
L 85.7975 21.7575 
z
" style="fill: #ffffff"/>
   </g>
   <g id="matplotlib.axis_1">
    <g id="xtick_1">
     <g id="line2d_1">
      <path d="M 131.452045 520.7175 
L 131.452045 21.7575 
" clip-path="url(#pce0dd17185)" style="fill: none; stroke-dasharray: 1.85,0.8; stroke-dashoffset: 0; stroke: #000000; stroke-opacity: 0.5; stroke-width: 0.5"/>
     </g>
     <g id="line2d_2">
      <defs>
       <path id="mb10793ff36" d="M 0 0 
L 0 -6 
" style="stroke: #000000"/>
      </defs>
      <g>
       <use xlink:href="#mb10793ff36" x="131.452045" y="520.7175" style="stroke: #000000"/>
      </g>
     </g>
     <g id="line2d_3">
      <defs>
       <path id="mcd8cc17342" d="M 0 0 
L 0 6 
" style="stroke: #000000"/>
      </defs>
      <g>
       <use xlink:href="#mcd8cc17342" x="131.452045" y="21.7575" style="stroke: #000000"/>
      </g>
     </g>
     <g id="text_1">
      <!-- 0 -->
      <g transform="translate(126.362045 536.375) scale(0.16 -0.16)">
       <defs>
        <path id="DejaVuSans-30" d="M 2034 4250 
Q 1547 4250 1301 3770 
Q 1056 3291 1056 2328 
Q 1056 1369 1301 889 
Q 1547 409 2034 409 
Q 2525 409 2770 889 
Q 3016 1369 3016 2328 
Q 3016 3291 2770 3770 
Q 2525 4250 2034 4250 
z
M 2034 4750 
Q 2819 4750 3233 4129 
Q 3647 3509 3647 2328 
Q 3647 1150 3233 529 
Q 2819 -91 2034 -91 
Q 1250 -91 836 529 
Q 422 1150 422 2328 
Q 422 3509 836 4129 
Q 1250 4750 2034 4750 
z
" transform="scale(0.015625)"/>
       </defs>
       <use xlink:href="#DejaVuSans-30"/>
      </g>
     </g>
    </g>
    <g id="xtick_2">
     <g id="line2d_4">
      <path d="M 245.645506 520.7175 
L 245.645506 21.7575 
" clip-path="url(#pce0dd17185)" style="fill: none; stroke-dasharray: 1.85,0.8; stroke-dashoffset: 0; stroke: #000000; stroke-opacity: 0.5; stroke-width: 0.5"/>
     </g>
     <g id="line2d_5">
      <g>
       <use xlink:href="#mb10793ff36" x="245.645506" y="520.7175" style="stroke: #000000"/>
      </g>
     </g>
     <g id="line2d_6">
      <g>
       <use xlink:href="#mcd8cc17342" x="245.645506" y="21.7575" style="stroke: #000000"/>
      </g>
     </g>
     <g id="text_2">
      <!-- 5 -->
      <g transform="translate(240.555506 536.375) scale(0.16 -0.16)">
       <defs>
        <path id="DejaVuSans-35" d="M 691 4666 
L 3169 4666 
L 3169 4134 
L 1269 4134 
L 1269 2991 
Q 1406 3038 1543 3061 
Q 1681 3084 1819 3084 
Q 2600 3084 3056 2656 
Q 3513 2228 3513 1497 
Q 3513 744 3044 326 
Q 2575 -91 1722 -91 
Q 1428 -91 1123 -41 
Q 819 9 494 109 
L 494 744 
Q 775 591 1075 516 
Q 1375 441 1709 441 
Q 2250 441 2565 725 
Q 2881 1009 2881 1497 
Q 2881 1984 2565 2268 
Q 2250 2553 1709 2553 
Q 1456 2553 1204 2497 
Q 953 2441 691 2322 
L 691 4666 
z
" transform="scale(0.015625)"/>
       </defs>
       <use xlink:href="#DejaVuSans-35"/>
      </g>
     </g>
    </g>
    <g id="xtick_3">
     <g id="line2d_7">
      <path d="M 359.838966 520.7175 
L 359.838966 21.7575 
" clip-path="url(#pce0dd17185)" style="fill: none; stroke-dasharray: 1.85,0.8; stroke-dashoffset: 0; stroke: #000000; stroke-opacity: 0.5; stroke-width: 0.5"/>
     </g>
     <g id="line2d_8">
      <g>
       <use xlink:href="#mb10793ff36" x="359.838966" y="520.7175" style="stroke: #000000"/>
      </g>
     </g>
     <g id="line2d_9">
      <g>
       <use xlink:href="#mcd8cc17342" x="359.838966" y="21.7575" style="stroke: #000000"/>
      </g>
     </g>
     <g id="text_3">
      <!-- 10 -->
      <g transform="translate(349.658966 536.375) scale(0.16 -0.16)">
       <defs>
        <path id="DejaVuSans-31" d="M 794 531 
L 1825 531 
L 1825 4091 
L 703 3866 
L 703 4441 
L 1819 4666 
L 2450 4666 
L 2450 531 
L 3481 531 
L 3481 0 
L 794 0 
L 794 531 
z
" transform="scale(0.015625)"/>
       </defs>
       <use xlink:href="#DejaVuSans-31"/>
       <use xlink:href="#DejaVuSans-30" x="63.623047"/>
      </g>
     </g>
    </g>
    <g id="xtick_4">
     <g id="line2d_10">
      <path d="M 474.032427 520.7175 
L 474.032427 21.7575 
" clip-path="url(#pce0dd17185)" style="fill: none; stroke-dasharray: 1.85,0.8; stroke-dashoffset: 0; stroke: #000000; stroke-opacity: 0.5; stroke-width: 0.5"/>
     </g>
     <g id="line2d_11">
      <g>
       <use xlink:href="#mb10793ff36" x="474.032427" y="520.7175" style="stroke: #000000"/>
      </g>
     </g>
     <g id="line2d_12">
      <g>
       <use xlink:href="#mcd8cc17342" x="474.032427" y="21.7575" style="stroke: #000000"/>
      </g>
     </g>
     <g id="text_4">
      <!-- 15 -->
      <g transform="translate(463.852427 536.375) scale(0.16 -0.16)">
       <use xlink:href="#DejaVuSans-31"/>
       <use xlink:href="#DejaVuSans-35" x="63.623047"/>
      </g>
     </g>
    </g>
    <g id="xtick_5">
     <g id="line2d_13">
      <path d="M 588.225887 520.7175 
L 588.225887 21.7575 
" clip-path="url(#pce0dd17185)" style="fill: none; stroke-dasharray: 1.85,0.8; stroke-dashoffset: 0; stroke: #000000; stroke-opacity: 0.5; stroke-width: 0.5"/>
     </g>
     <g id="line2d_14">
      <g>
       <use xlink:href="#mb10793ff36" x="588.225887" y="520.7175" style="stroke: #000000"/>
      </g>
     </g>
     <g id="line2d_15">
      <g>
       <use xlink:href="#mcd8cc17342" x="588.225887" y="21.7575" style="stroke: #000000"/>
      </g>
     </g>
     <g id="text_5">
      <!-- 20 -->
      <g transform="translate(578.045887 536.375) scale(0.16 -0.16)">
       <defs>
        <path id="DejaVuSans-32" d="M 1228 531 
L 3431 531 
L 3431 0 
L 469 0 
L 469 531 
Q 828 903 1448 1529 
Q 2069 2156 2228 2338 
Q 2531 2678 2651 2914 
Q 2772 3150 2772 3378 
Q 2772 3750 2511 3984 
Q 2250 4219 1831 4219 
Q 1534 4219 1204 4116 
Q 875 4013 500 3803 
L 500 4441 
Q 881 4594 1212 4672 
Q 1544 4750 1819 4750 
Q 2544 4750 2975 4387 
Q 3406 4025 3406 3419 
Q 3406 3131 3298 2873 
Q 3191 2616 2906 2266 
Q 2828 2175 2409 1742 
Q 1991 1309 1228 531 
z
" transform="scale(0.015625)"/>
       </defs>
       <use xlink:href="#DejaVuSans-32"/>
       <use xlink:href="#DejaVuSans-30" x="63.623047"/>
      </g>
     </g>
    </g>
    <g id="xtick_6">
     <g id="line2d_16">
      <path d="M 702.419347 520.7175 
L 702.419347 21.7575 
" clip-path="url(#pce0dd17185)" style="fill: none; stroke-dasharray: 1.85,0.8; stroke-dashoffset: 0; stroke: #000000; stroke-opacity: 0.5; stroke-width: 0.5"/>
     </g>
     <g id="line2d_17">
      <g>
       <use xlink:href="#mb10793ff36" x="702.419347" y="520.7175" style="stroke: #000000"/>
      </g>
     </g>
     <g id="line2d_18">
      <g>
       <use xlink:href="#mcd8cc17342" x="702.419347" y="21.7575" style="stroke: #000000"/>
      </g>
     </g>
     <g id="text_6">
      <!-- 25 -->
      <g transform="translate(692.239347 536.375) scale(0.16 -0.16)">
       <use xlink:href="#DejaVuSans-32"/>
       <use xlink:href="#DejaVuSans-35" x="63.623047"/>
      </g>
     </g>
    </g>
    <g id="xtick_7">
     <g id="line2d_19">
      <path d="M 816.612808 520.7175 
L 816.612808 21.7575 
" clip-path="url(#pce0dd17185)" style="fill: none; stroke-dasharray: 1.85,0.8; stroke-dashoffset: 0; stroke: #000000; stroke-opacity: 0.5; stroke-width: 0.5"/>
     </g>
     <g id="line2d_20">
      <g>
       <use xlink:href="#mb10793ff36" x="816.612808" y="520.7175" style="stroke: #000000"/>
      </g>
     </g>
     <g id="line2d_21">
      <g>
       <use xlink:href="#mcd8cc17342" x="816.612808" y="21.7575" style="stroke: #000000"/>
      </g>
     </g>
     <g id="text_7">
      <!-- 30 -->
      <g transform="translate(806.432808 536.375) scale(0.16 -0.16)">
       <defs>
        <path id="DejaVuSans-33" d="M 2597 2516 
Q 3050 2419 3304 2112 
Q 3559 1806 3559 1356 
Q 3559 666 3084 287 
Q 2609 -91 1734 -91 
Q 1441 -91 1130 -33 
Q 819 25 488 141 
L 488 750 
Q 750 597 1062 519 
Q 1375 441 1716 441 
Q 2309 441 2620 675 
Q 2931 909 2931 1356 
Q 2931 1769 2642 2001 
Q 2353 2234 1838 2234 
L 1294 2234 
L 1294 2753 
L 1863 2753 
Q 2328 2753 2575 2939 
Q 2822 3125 2822 3475 
Q 2822 3834 2567 4026 
Q 2313 4219 1838 4219 
Q 1578 4219 1281 4162 
Q 984 4106 628 3988 
L 628 4550 
Q 988 4650 1302 4700 
Q 1616 4750 1894 4750 
Q 2613 4750 3031 4423 
Q 3450 4097 3450 3541 
Q 3450 3153 3228 2886 
Q 3006 2619 2597 2516 
z
" transform="scale(0.015625)"/>
       </defs>
       <use xlink:href="#DejaVuSans-33"/>
       <use xlink:href="#DejaVuSans-30" x="63.623047"/>
      </g>
     </g>
    </g>
    <g id="xtick_8">
     <g id="line2d_22">
      <path d="M 930.806268 520.7175 
L 930.806268 21.7575 
" clip-path="url(#pce0dd17185)" style="fill: none; stroke-dasharray: 1.85,0.8; stroke-dashoffset: 0; stroke: #000000; stroke-opacity: 0.5; stroke-width: 0.5"/>
     </g>
     <g id="line2d_23">
      <g>
       <use xlink:href="#mb10793ff36" x="930.806268" y="520.7175" style="stroke: #000000"/>
      </g>
     </g>
     <g id="line2d_24">
      <g>
       <use xlink:href="#mcd8cc17342" x="930.806268" y="21.7575" style="stroke: #000000"/>
      </g>
     </g>
     <g id="text_8">
      <!-- 35 -->
      <g transform="translate(920.626268 536.375) scale(0.16 -0.16)">
       <use xlink:href="#DejaVuSans-33"/>
       <use xlink:href="#DejaVuSans-35" x="63.623047"/>
      </g>
     </g>
    </g>
    <g id="xtick_9">
     <g id="line2d_25">
      <path d="M 1044.999728 520.7175 
L 1044.999728 21.7575 
" clip-path="url(#pce0dd17185)" style="fill: none; stroke-dasharray: 1.85,0.8; stroke-dashoffset: 0; stroke: #000000; stroke-opacity: 0.5; stroke-width: 0.5"/>
     </g>
     <g id="line2d_26">
      <g>
       <use xlink:href="#mb10793ff36" x="1044.999728" y="520.7175" style="stroke: #000000"/>
      </g>
     </g>
     <g id="line2d_27">
      <g>
       <use xlink:href="#mcd8cc17342" x="1044.999728" y="21.7575" style="stroke: #000000"/>
      </g>
     </g>
     <g id="text_9">
      <!-- 40 -->
      <g transform="translate(1034.819728 536.375) scale(0.16 -0.16)">
       <defs>
        <path id="DejaVuSans-34" d="M 2419 4116 
L 825 1625 
L 2419 1625 
L 2419 4116 
z
M 2253 4666 
L 3047 4666 
L 3047 1625 
L 3713 1625 
L 3713 1100 
L 3047 1100 
L 3047 0 
L 2419 0 
L 2419 1100 
L 313 1100 
L 313 1709 
L 2253 4666 
z
" transform="scale(0.015625)"/>
       </defs>
       <use xlink:href="#DejaVuSans-34"/>
       <use xlink:href="#DejaVuSans-30" x="63.623047"/>
      </g>
     </g>
    </g>
    <g id="xtick_10">
     <g id="line2d_28">
      <defs>
       <path id="m2c18a8f5ba" d="M 0 0 
L 0 -3 
" style="stroke: #000000"/>
      </defs>
      <g>
       <use xlink:href="#m2c18a8f5ba" x="108.613353" y="520.7175" style="stroke: #000000"/>
      </g>
     </g>
     <g id="line2d_29">
      <defs>
       <path id="mf0dc5dd5fc" d="M 0 0 
L 0 3 
" style="stroke: #000000"/>
      </defs>
      <g>
       <use xlink:href="#mf0dc5dd5fc" x="108.613353" y="21.7575" style="stroke: #000000"/>
      </g>
     </g>
    </g>
    <g id="xtick_11">
     <g id="line2d_30">
      <g>
       <use xlink:href="#m2c18a8f5ba" x="154.290738" y="520.7175" style="stroke: #000000"/>
      </g>
     </g>
     <g id="line2d_31">
      <g>
       <use xlink:href="#mf0dc5dd5fc" x="154.290738" y="21.7575" style="stroke: #000000"/>
      </g>
     </g>
    </g>
    <g id="xtick_12">
     <g id="line2d_32">
      <g>
       <use xlink:href="#m2c18a8f5ba" x="177.12943" y="520.7175" style="stroke: #000000"/>
      </g>
     </g>
     <g id="line2d_33">
      <g>
       <use xlink:href="#mf0dc5dd5fc" x="177.12943" y="21.7575" style="stroke: #000000"/>
      </g>
     </g>
    </g>
    <g id="xtick_13">
     <g id="line2d_34">
      <g>
       <use xlink:href="#m2c18a8f5ba" x="199.968122" y="520.7175" style="stroke: #000000"/>
      </g>
     </g>
     <g id="line2d_35">
      <g>
       <use xlink:href="#mf0dc5dd5fc" x="199.968122" y="21.7575" style="stroke: #000000"/>
      </g>
     </g>
    </g>
    <g id="xtick_14">
     <g id="line2d_36">
      <g>
       <use xlink:href="#m2c18a8f5ba" x="222.806814" y="520.7175" style="stroke: #000000"/>
      </g>
     </g>
     <g id="line2d_37">
      <g>
       <use xlink:href="#mf0dc5dd5fc" x="222.806814" y="21.7575" style="stroke: #000000"/>
      </g>
     </g>
    </g>
    <g id="xtick_15">
     <g id="line2d_38">
      <g>
       <use xlink:href="#m2c18a8f5ba" x="268.484198" y="520.7175" style="stroke: #000000"/>
      </g>
     </g>
     <g id="line2d_39">
      <g>
       <use xlink:href="#mf0dc5dd5fc" x="268.484198" y="21.7575" style="stroke: #000000"/>
      </g>
     </g>
    </g>
    <g id="xtick_16">
     <g id="line2d_40">
      <g>
       <use xlink:href="#m2c18a8f5ba" x="291.32289" y="520.7175" style="stroke: #000000"/>
      </g>
     </g>
     <g id="line2d_41">
      <g>
       <use xlink:href="#mf0dc5dd5fc" x="291.32289" y="21.7575" style="stroke: #000000"/>
      </g>
     </g>
    </g>
    <g id="xtick_17">
     <g id="line2d_42">
      <g>
       <use xlink:href="#m2c18a8f5ba" x="314.161582" y="520.7175" style="stroke: #000000"/>
      </g>
     </g>
     <g id="line2d_43">
      <g>
       <use xlink:href="#mf0dc5dd5fc" x="314.161582" y="21.7575" style="stroke: #000000"/>
      </g>
     </g>
    </g>
    <g id="xtick_18">
     <g id="line2d_44">
      <g>
       <use xlink:href="#m2c18a8f5ba" x="337.000274" y="520.7175" style="stroke: #000000"/>
      </g>
     </g>
     <g id="line2d_45">
      <g>
       <use xlink:href="#mf0dc5dd5fc" x="337.000274" y="21.7575" style="stroke: #000000"/>
      </g>
     </g>
    </g>
    <g id="xtick_19">
     <g id="line2d_46">
      <g>
       <use xlink:href="#m2c18a8f5ba" x="382.677658" y="520.7175" style="stroke: #000000"/>
      </g>
     </g>
     <g id="line2d_47">
      <g>
       <use xlink:href="#mf0dc5dd5fc" x="382.677658" y="21.7575" style="stroke: #000000"/>
      </g>
     </g>
    </g>
    <g id="xtick_20">
     <g id="line2d_48">
      <g>
       <use xlink:href="#m2c18a8f5ba" x="405.51635" y="520.7175" style="stroke: #000000"/>
      </g>
     </g>
     <g id="line2d_49">
      <g>
       <use xlink:href="#mf0dc5dd5fc" x="405.51635" y="21.7575" style="stroke: #000000"/>
      </g>
     </g>
    </g>
    <g id="xtick_21">
     <g id="line2d_50">
      <g>
       <use xlink:href="#m2c18a8f5ba" x="428.355042" y="520.7175" style="stroke: #000000"/>
      </g>
     </g>
     <g id="line2d_51">
      <g>
       <use xlink:href="#mf0dc5dd5fc" x="428.355042" y="21.7575" style="stroke: #000000"/>
      </g>
     </g>
    </g>
    <g id="xtick_22">
     <g id="line2d_52">
      <g>
       <use xlink:href="#m2c18a8f5ba" x="451.193734" y="520.7175" style="stroke: #000000"/>
      </g>
     </g>
     <g id="line2d_53">
      <g>
       <use xlink:href="#mf0dc5dd5fc" x="451.193734" y="21.7575" style="stroke: #000000"/>
      </g>
     </g>
    </g>
    <g id="xtick_23">
     <g id="line2d_54">
      <g>
       <use xlink:href="#m2c18a8f5ba" x="496.871119" y="520.7175" style="stroke: #000000"/>
      </g>
     </g>
     <g id="line2d_55">
      <g>
       <use xlink:href="#mf0dc5dd5fc" x="496.871119" y="21.7575" style="stroke: #000000"/>
      </g>
     </g>
    </g>
    <g id="xtick_24">
     <g id="line2d_56">
      <g>
       <use xlink:href="#m2c18a8f5ba" x="519.709811" y="520.7175" style="stroke: #000000"/>
      </g>
     </g>
     <g id="line2d_57">
      <g>
       <use xlink:href="#mf0dc5dd5fc" x="519.709811" y="21.7575" style="stroke: #000000"/>
      </g>
     </g>
    </g>
    <g id="xtick_25">
     <g id="line2d_58">
      <g>
       <use xlink:href="#m2c18a8f5ba" x="542.548503" y="520.7175" style="stroke: #000000"/>
      </g>
     </g>
     <g id="line2d_59">
      <g>
       <use xlink:href="#mf0dc5dd5fc" x="542.548503" y="21.7575" style="stroke: #000000"/>
      </g>
     </g>
    </g>
    <g id="xtick_26">
     <g id="line2d_60">
      <g>
       <use xlink:href="#m2c18a8f5ba" x="565.387195" y="520.7175" style="stroke: #000000"/>
      </g>
     </g>
     <g id="line2d_61">
      <g>
       <use xlink:href="#mf0dc5dd5fc" x="565.387195" y="21.7575" style="stroke: #000000"/>
      </g>
     </g>
    </g>
    <g id="xtick_27">
     <g id="line2d_62">
      <g>
       <use xlink:href="#m2c18a8f5ba" x="611.064579" y="520.7175" style="stroke: #000000"/>
      </g>
     </g>
     <g id="line2d_63">
      <g>
       <use xlink:href="#mf0dc5dd5fc" x="611.064579" y="21.7575" style="stroke: #000000"/>
      </g>
     </g>
    </g>
    <g id="xtick_28">
     <g id="line2d_64">
      <g>
       <use xlink:href="#m2c18a8f5ba" x="633.903271" y="520.7175" style="stroke: #000000"/>
      </g>
     </g>
     <g id="line2d_65">
      <g>
       <use xlink:href="#mf0dc5dd5fc" x="633.903271" y="21.7575" style="stroke: #000000"/>
      </g>
     </g>
    </g>
    <g id="xtick_29">
     <g id="line2d_66">
      <g>
       <use xlink:href="#m2c18a8f5ba" x="656.741963" y="520.7175" style="stroke: #000000"/>
      </g>
     </g>
     <g id="line2d_67">
      <g>
       <use xlink:href="#mf0dc5dd5fc" x="656.741963" y="21.7575" style="stroke: #000000"/>
      </g>
     </g>
    </g>
    <g id="xtick_30">
     <g id="line2d_68">
      <g>
       <use xlink:href="#m2c18a8f5ba" x="679.580655" y="520.7175" style="stroke: #000000"/>
      </g>
     </g>
     <g id="line2d_69">
      <g>
       <use xlink:href="#mf0dc5dd5fc" x="679.580655" y="21.7575" style="stroke: #000000"/>
      </g>
     </g>
    </g>
    <g id="xtick_31">
     <g id="line2d_70">
      <g>
       <use xlink:href="#m2c18a8f5ba" x="725.258039" y="520.7175" style="stroke: #000000"/>
      </g>
     </g>
     <g id="line2d_71">
      <g>
       <use xlink:href="#mf0dc5dd5fc" x="725.258039" y="21.7575" style="stroke: #000000"/>
      </g>
     </g>
    </g>
    <g id="xtick_32">
     <g id="line2d_72">
      <g>
       <use xlink:href="#m2c18a8f5ba" x="748.096731" y="520.7175" style="stroke: #000000"/>
      </g>
     </g>
     <g id="line2d_73">
      <g>
       <use xlink:href="#mf0dc5dd5fc" x="748.096731" y="21.7575" style="stroke: #000000"/>
      </g>
     </g>
    </g>
    <g id="xtick_33">
     <g id="line2d_74">
      <g>
       <use xlink:href="#m2c18a8f5ba" x="770.935424" y="520.7175" style="stroke: #000000"/>
      </g>
     </g>
     <g id="line2d_75">
      <g>
       <use xlink:href="#mf0dc5dd5fc" x="770.935424" y="21.7575" style="stroke: #000000"/>
      </g>
     </g>
    </g>
    <g id="xtick_34">
     <g id="line2d_76">
      <g>
       <use xlink:href="#m2c18a8f5ba" x="793.774116" y="520.7175" style="stroke: #000000"/>
      </g>
     </g>
     <g id="line2d_77">
      <g>
       <use xlink:href="#mf0dc5dd5fc" x="793.774116" y="21.7575" style="stroke: #000000"/>
      </g>
     </g>
    </g>
    <g id="xtick_35">
     <g id="line2d_78">
      <g>
       <use xlink:href="#m2c18a8f5ba" x="839.4515" y="520.7175" style="stroke: #000000"/>
      </g>
     </g>
     <g id="line2d_79">
      <g>
       <use xlink:href="#mf0dc5dd5fc" x="839.4515" y="21.7575" style="stroke: #000000"/>
      </g>
     </g>
    </g>
    <g id="xtick_36">
     <g id="line2d_80">
      <g>
       <use xlink:href="#m2c18a8f5ba" x="862.290192" y="520.7175" style="stroke: #000000"/>
      </g>
     </g>
     <g id="line2d_81">
      <g>
       <use xlink:href="#mf0dc5dd5fc" x="862.290192" y="21.7575" style="stroke: #000000"/>
      </g>
     </g>
    </g>
    <g id="xtick_37">
     <g id="line2d_82">
      <g>
       <use xlink:href="#m2c18a8f5ba" x="885.128884" y="520.7175" style="stroke: #000000"/>
      </g>
     </g>
     <g id="line2d_83">
      <g>
       <use xlink:href="#mf0dc5dd5fc" x="885.128884" y="21.7575" style="stroke: #000000"/>
      </g>
     </g>
    </g>
    <g id="xtick_38">
     <g id="line2d_84">
      <g>
       <use xlink:href="#m2c18a8f5ba" x="907.967576" y="520.7175" style="stroke: #000000"/>
      </g>
     </g>
     <g id="line2d_85">
      <g>
       <use xlink:href="#mf0dc5dd5fc" x="907.967576" y="21.7575" style="stroke: #000000"/>
      </g>
     </g>
    </g>
    <g id="xtick_39">
     <g id="line2d_86">
      <g>
       <use xlink:href="#m2c18a8f5ba" x="953.64496" y="520.7175" style="stroke: #000000"/>
      </g>
     </g>
     <g id="line2d_87">
      <g>
       <use xlink:href="#mf0dc5dd5fc" x="953.64496" y="21.7575" style="stroke: #000000"/>
      </g>
     </g>
    </g>
    <g id="xtick_40">
     <g id="line2d_88">
      <g>
       <use xlink:href="#m2c18a8f5ba" x="976.483652" y="520.7175" style="stroke: #000000"/>
      </g>
     </g>
     <g id="line2d_89">
      <g>
       <use xlink:href="#mf0dc5dd5fc" x="976.483652" y="21.7575" style="stroke: #000000"/>
      </g>
     </g>
    </g>
    <g id="xtick_41">
     <g id="line2d_90">
      <g>
       <use xlink:href="#m2c18a8f5ba" x="999.322344" y="520.7175" style="stroke: #000000"/>
      </g>
     </g>
     <g id="line2d_91">
      <g>
       <use xlink:href="#mf0dc5dd5fc" x="999.322344" y="21.7575" style="stroke: #000000"/>
      </g>
     </g>
    </g>
    <g id="xtick_42">
     <g id="line2d_92">
      <g>
       <use xlink:href="#m2c18a8f5ba" x="1022.161036" y="520.7175" style="stroke: #000000"/>
      </g>
     </g>
     <g id="line2d_93">
      <g>
       <use xlink:href="#mf0dc5dd5fc" x="1022.161036" y="21.7575" style="stroke: #000000"/>
      </g>
     </g>
    </g>
    <g id="xtick_43">
     <g id="line2d_94">
      <g>
       <use xlink:href="#m2c18a8f5ba" x="1067.83842" y="520.7175" style="stroke: #000000"/>
      </g>
     </g>
     <g id="line2d_95">
      <g>
       <use xlink:href="#mf0dc5dd5fc" x="1067.83842" y="21.7575" style="stroke: #000000"/>
      </g>
     </g>
    </g>
    <g id="text_10">
     <!-- Time(s) -->
     <g transform="translate(558.01375 555.86) scale(0.16 -0.16)">
      <defs>
       <path id="DejaVuSans-54" d="M -19 4666 
L 3928 4666 
L 3928 4134 
L 2272 4134 
L 2272 0 
L 1638 0 
L 1638 4134 
L -19 4134 
L -19 4666 
z
" transform="scale(0.015625)"/>
       <path id="DejaVuSans-69" d="M 603 3500 
L 1178 3500 
L 1178 0 
L 603 0 
L 603 3500 
z
M 603 4863 
L 1178 4863 
L 1178 4134 
L 603 4134 
L 603 4863 
z
" transform="scale(0.015625)"/>
       <path id="DejaVuSans-6d" d="M 3328 2828 
Q 3544 3216 3844 3400 
Q 4144 3584 4550 3584 
Q 5097 3584 5394 3201 
Q 5691 2819 5691 2113 
L 5691 0 
L 5113 0 
L 5113 2094 
Q 5113 2597 4934 2840 
Q 4756 3084 4391 3084 
Q 3944 3084 3684 2787 
Q 3425 2491 3425 1978 
L 3425 0 
L 2847 0 
L 2847 2094 
Q 2847 2600 2669 2842 
Q 2491 3084 2119 3084 
Q 1678 3084 1418 2786 
Q 1159 2488 1159 1978 
L 1159 0 
L 581 0 
L 581 3500 
L 1159 3500 
L 1159 2956 
Q 1356 3278 1631 3431 
Q 1906 3584 2284 3584 
Q 2666 3584 2933 3390 
Q 3200 3197 3328 2828 
z
" transform="scale(0.015625)"/>
       <path id="DejaVuSans-65" d="M 3597 1894 
L 3597 1613 
L 953 1613 
Q 991 1019 1311 708 
Q 1631 397 2203 397 
Q 2534 397 2845 478 
Q 3156 559 3463 722 
L 3463 178 
Q 3153 47 2828 -22 
Q 2503 -91 2169 -91 
Q 1331 -91 842 396 
Q 353 884 353 1716 
Q 353 2575 817 3079 
Q 1281 3584 2069 3584 
Q 2775 3584 3186 3129 
Q 3597 2675 3597 1894 
z
M 3022 2063 
Q 3016 2534 2758 2815 
Q 2500 3097 2075 3097 
Q 1594 3097 1305 2825 
Q 1016 2553 972 2059 
L 3022 2063 
z
" transform="scale(0.015625)"/>
       <path id="DejaVuSans-28" d="M 1984 4856 
Q 1566 4138 1362 3434 
Q 1159 2731 1159 2009 
Q 1159 1288 1364 580 
Q 1569 -128 1984 -844 
L 1484 -844 
Q 1016 -109 783 600 
Q 550 1309 550 2009 
Q 550 2706 781 3412 
Q 1013 4119 1484 4856 
L 1984 4856 
z
" transform="scale(0.015625)"/>
       <path id="DejaVuSans-73" d="M 2834 3397 
L 2834 2853 
Q 2591 2978 2328 3040 
Q 2066 3103 1784 3103 
Q 1356 3103 1142 2972 
Q 928 2841 928 2578 
Q 928 2378 1081 2264 
Q 1234 2150 1697 2047 
L 1894 2003 
Q 2506 1872 2764 1633 
Q 3022 1394 3022 966 
Q 3022 478 2636 193 
Q 2250 -91 1575 -91 
Q 1294 -91 989 -36 
Q 684 19 347 128 
L 347 722 
Q 666 556 975 473 
Q 1284 391 1588 391 
Q 1994 391 2212 530 
Q 2431 669 2431 922 
Q 2431 1156 2273 1281 
Q 2116 1406 1581 1522 
L 1381 1569 
Q 847 1681 609 1914 
Q 372 2147 372 2553 
Q 372 3047 722 3315 
Q 1072 3584 1716 3584 
Q 2034 3584 2315 3537 
Q 2597 3491 2834 3397 
z
" transform="scale(0.015625)"/>
       <path id="DejaVuSans-29" d="M 513 4856 
L 1013 4856 
Q 1481 4119 1714 3412 
Q 1947 2706 1947 2009 
Q 1947 1309 1714 600 
Q 1481 -109 1013 -844 
L 513 -844 
Q 928 -128 1133 580 
Q 1338 1288 1338 2009 
Q 1338 2731 1133 3434 
Q 928 4138 513 4856 
z
" transform="scale(0.015625)"/>
      </defs>
      <use xlink:href="#DejaVuSans-54"/>
      <use xlink:href="#DejaVuSans-69" x="57.958984"/>
      <use xlink:href="#DejaVuSans-6d" x="85.742188"/>
      <use xlink:href="#DejaVuSans-65" x="183.154297"/>
      <use xlink:href="#DejaVuSans-28" x="244.677734"/>
      <use xlink:href="#DejaVuSans-73" x="283.691406"/>
      <use xlink:href="#DejaVuSans-29" x="335.791016"/>
     </g>
    </g>
   </g>
   <g id="matplotlib.axis_2">
    <g id="ytick_1">
     <g id="line2d_96">
      <path d="M 85.7975 469.916903 
L 1090.1975 469.916903 
" clip-path="url(#pce0dd17185)" style="fill: none; stroke-dasharray: 1.85,0.8; stroke-dashoffset: 0; stroke: #000000; stroke-opacity: 0.5; stroke-width: 0.5"/>
     </g>
     <g id="line2d_97">
      <defs>
       <path id="m0635c3dea6" d="M 0 0 
L 6 0 
" style="stroke: #000000"/>
      </defs>
      <g>
       <use xlink:href="#m0635c3dea6" x="85.7975" y="469.916903" style="stroke: #000000"/>
      </g>
     </g>
     <g id="line2d_98">
      <defs>
       <path id="m9aa30e90b6" d="M 0 0 
L -6 0 
" style="stroke: #000000"/>
      </defs>
      <g>
       <use xlink:href="#m9aa30e90b6" x="1090.1975" y="469.916903" style="stroke: #000000"/>
      </g>
     </g>
     <g id="text_11">
      <!-- −0.015 -->
      <g transform="translate(23.085 475.995653) scale(0.16 -0.16)">
       <defs>
        <path id="DejaVuSans-2212" d="M 678 2272 
L 4684 2272 
L 4684 1741 
L 678 1741 
L 678 2272 
z
" transform="scale(0.015625)"/>
        <path id="DejaVuSans-2e" d="M 684 794 
L 1344 794 
L 1344 0 
L 684 0 
L 684 794 
z
" transform="scale(0.015625)"/>
       </defs>
       <use xlink:href="#DejaVuSans-2212"/>
       <use xlink:href="#DejaVuSans-30" x="83.789062"/>
       <use xlink:href="#DejaVuSans-2e" x="147.412109"/>
       <use xlink:href="#DejaVuSans-30" x="179.199219"/>
       <use xlink:href="#DejaVuSans-31" x="242.822266"/>
       <use xlink:href="#DejaVuSans-35" x="306.445312"/>
      </g>
     </g>
    </g>
    <g id="ytick_2">
     <g id="line2d_99">
      <path d="M 85.7975 396.860689 
L 1090.1975 396.860689 
" clip-path="url(#pce0dd17185)" style="fill: none; stroke-dasharray: 1.85,0.8; stroke-dashoffset: 0; stroke: #000000; stroke-opacity: 0.5; stroke-width: 0.5"/>
     </g>
     <g id="line2d_100">
      <g>
       <use xlink:href="#m0635c3dea6" x="85.7975" y="396.860689" style="stroke: #000000"/>
      </g>
     </g>
     <g id="line2d_101">
      <g>
       <use xlink:href="#m9aa30e90b6" x="1090.1975" y="396.860689" style="stroke: #000000"/>
      </g>
     </g>
     <g id="text_12">
      <!-- −0.010 -->
      <g transform="translate(23.085 402.939439) scale(0.16 -0.16)">
       <use xlink:href="#DejaVuSans-2212"/>
       <use xlink:href="#DejaVuSans-30" x="83.789062"/>
       <use xlink:href="#DejaVuSans-2e" x="147.412109"/>
       <use xlink:href="#DejaVuSans-30" x="179.199219"/>
       <use xlink:href="#DejaVuSans-31" x="242.822266"/>
       <use xlink:href="#DejaVuSans-30" x="306.445312"/>
      </g>
     </g>
    </g>
    <g id="ytick_3">
     <g id="line2d_102">
      <path d="M 85.7975 323.804476 
L 1090.1975 323.804476 
" clip-path="url(#pce0dd17185)" style="fill: none; stroke-dasharray: 1.85,0.8; stroke-dashoffset: 0; stroke: #000000; stroke-opacity: 0.5; stroke-width: 0.5"/>
     </g>
     <g id="line2d_103">
      <g>
       <use xlink:href="#m0635c3dea6" x="85.7975" y="323.804476" style="stroke: #000000"/>
      </g>
     </g>
     <g id="line2d_104">
      <g>
       <use xlink:href="#m9aa30e90b6" x="1090.1975" y="323.804476" style="stroke: #000000"/>
      </g>
     </g>
     <g id="text_13">
      <!-- −0.005 -->
      <g transform="translate(23.085 329.883226) scale(0.16 -0.16)">
       <use xlink:href="#DejaVuSans-2212"/>
       <use xlink:href="#DejaVuSans-30" x="83.789062"/>
       <use xlink:href="#DejaVuSans-2e" x="147.412109"/>
       <use xlink:href="#DejaVuSans-30" x="179.199219"/>
       <use xlink:href="#DejaVuSans-30" x="242.822266"/>
       <use xlink:href="#DejaVuSans-35" x="306.445312"/>
      </g>
     </g>
    </g>
    <g id="ytick_4">
     <g id="line2d_105">
      <path d="M 85.7975 250.748263 
L 1090.1975 250.748263 
" clip-path="url(#pce0dd17185)" style="fill: none; stroke-dasharray: 1.85,0.8; stroke-dashoffset: 0; stroke: #000000; stroke-opacity: 0.5; stroke-width: 0.5"/>
     </g>
     <g id="line2d_106">
      <g>
       <use xlink:href="#m0635c3dea6" x="85.7975" y="250.748263" style="stroke: #000000"/>
      </g>
     </g>
     <g id="line2d_107">
      <g>
       <use xlink:href="#m9aa30e90b6" x="1090.1975" y="250.748263" style="stroke: #000000"/>
      </g>
     </g>
     <g id="text_14">
      <!-- 0.000 -->
      <g transform="translate(36.4925 256.827013) scale(0.16 -0.16)">
       <use xlink:href="#DejaVuSans-30"/>
       <use xlink:href="#DejaVuSans-2e" x="63.623047"/>
       <use xlink:href="#DejaVuSans-30" x="95.410156"/>
       <use xlink:href="#DejaVuSans-30" x="159.033203"/>
       <use xlink:href="#DejaVuSans-30" x="222.65625"/>
      </g>
     </g>
    </g>
    <g id="ytick_5">
     <g id="line2d_108">
      <path d="M 85.7975 177.692049 
L 1090.1975 177.692049 
" clip-path="url(#pce0dd17185)" style="fill: none; stroke-dasharray: 1.85,0.8; stroke-dashoffset: 0; stroke: #000000; stroke-opacity: 0.5; stroke-width: 0.5"/>
     </g>
     <g id="line2d_109">
      <g>
       <use xlink:href="#m0635c3dea6" x="85.7975" y="177.692049" style="stroke: #000000"/>
      </g>
     </g>
     <g id="line2d_110">
      <g>
       <use xlink:href="#m9aa30e90b6" x="1090.1975" y="177.692049" style="stroke: #000000"/>
      </g>
     </g>
     <g id="text_15">
      <!-- 0.005 -->
      <g transform="translate(36.4925 183.770799) scale(0.16 -0.16)">
       <use xlink:href="#DejaVuSans-30"/>
       <use xlink:href="#DejaVuSans-2e" x="63.623047"/>
       <use xlink:href="#DejaVuSans-30" x="95.410156"/>
       <use xlink:href="#DejaVuSans-30" x="159.033203"/>
       <use xlink:href="#DejaVuSans-35" x="222.65625"/>
      </g>
     </g>
    </g>
    <g id="ytick_6">
     <g id="line2d_111">
      <path d="M 85.7975 104.635836 
L 1090.1975 104.635836 
" clip-path="url(#pce0dd17185)" style="fill: none; stroke-dasharray: 1.85,0.8; stroke-dashoffset: 0; stroke: #000000; stroke-opacity: 0.5; stroke-width: 0.5"/>
     </g>
     <g id="line2d_112">
      <g>
       <use xlink:href="#m0635c3dea6" x="85.7975" y="104.635836" style="stroke: #000000"/>
      </g>
     </g>
     <g id="line2d_113">
      <g>
       <use xlink:href="#m9aa30e90b6" x="1090.1975" y="104.635836" style="stroke: #000000"/>
      </g>
     </g>
     <g id="text_16">
      <!-- 0.010 -->
      <g transform="translate(36.4925 110.714586) scale(0.16 -0.16)">
       <use xlink:href="#DejaVuSans-30"/>
       <use xlink:href="#DejaVuSans-2e" x="63.623047"/>
       <use xlink:href="#DejaVuSans-30" x="95.410156"/>
       <use xlink:href="#DejaVuSans-31" x="159.033203"/>
       <use xlink:href="#DejaVuSans-30" x="222.65625"/>
      </g>
     </g>
    </g>
    <g id="ytick_7">
     <g id="line2d_114">
      <path d="M 85.7975 31.579623 
L 1090.1975 31.579623 
" clip-path="url(#pce0dd17185)" style="fill: none; stroke-dasharray: 1.85,0.8; stroke-dashoffset: 0; stroke: #000000; stroke-opacity: 0.5; stroke-width: 0.5"/>
     </g>
     <g id="line2d_115">
      <g>
       <use xlink:href="#m0635c3dea6" x="85.7975" y="31.579623" style="stroke: #000000"/>
      </g>
     </g>
     <g id="line2d_116">
      <g>
       <use xlink:href="#m9aa30e90b6" x="1090.1975" y="31.579623" style="stroke: #000000"/>
      </g>
     </g>
     <g id="text_17">
      <!-- 0.015 -->
      <g transform="translate(36.4925 37.658373) scale(0.16 -0.16)">
       <use xlink:href="#DejaVuSans-30"/>
       <use xlink:href="#DejaVuSans-2e" x="63.623047"/>
       <use xlink:href="#DejaVuSans-30" x="95.410156"/>
       <use xlink:href="#DejaVuSans-31" x="159.033203"/>
       <use xlink:href="#DejaVuSans-35" x="222.65625"/>
      </g>
     </g>
    </g>
    <g id="ytick_8">
     <g id="line2d_117">
      <defs>
       <path id="m74440df9ad" d="M 0 0 
L 3 0 
" style="stroke: #000000"/>
      </defs>
      <g>
       <use xlink:href="#m74440df9ad" x="85.7975" y="513.750631" style="stroke: #000000"/>
      </g>
     </g>
     <g id="line2d_118">
      <defs>
       <path id="m32b780315f" d="M 0 0 
L -3 0 
" style="stroke: #000000"/>
      </defs>
      <g>
       <use xlink:href="#m32b780315f" x="1090.1975" y="513.750631" style="stroke: #000000"/>
      </g>
     </g>
    </g>
    <g id="ytick_9">
     <g id="line2d_119">
      <g>
       <use xlink:href="#m74440df9ad" x="85.7975" y="499.139388" style="stroke: #000000"/>
      </g>
     </g>
     <g id="line2d_120">
      <g>
       <use xlink:href="#m32b780315f" x="1090.1975" y="499.139388" style="stroke: #000000"/>
      </g>
     </g>
    </g>
    <g id="ytick_10">
     <g id="line2d_121">
      <g>
       <use xlink:href="#m74440df9ad" x="85.7975" y="484.528145" style="stroke: #000000"/>
      </g>
     </g>
     <g id="line2d_122">
      <g>
       <use xlink:href="#m32b780315f" x="1090.1975" y="484.528145" style="stroke: #000000"/>
      </g>
     </g>
    </g>
    <g id="ytick_11">
     <g id="line2d_123">
      <g>
       <use xlink:href="#m74440df9ad" x="85.7975" y="455.30566" style="stroke: #000000"/>
      </g>
     </g>
     <g id="line2d_124">
      <g>
       <use xlink:href="#m32b780315f" x="1090.1975" y="455.30566" style="stroke: #000000"/>
      </g>
     </g>
    </g>
    <g id="ytick_12">
     <g id="line2d_125">
      <g>
       <use xlink:href="#m74440df9ad" x="85.7975" y="440.694417" style="stroke: #000000"/>
      </g>
     </g>
     <g id="line2d_126">
      <g>
       <use xlink:href="#m32b780315f" x="1090.1975" y="440.694417" style="stroke: #000000"/>
      </g>
     </g>
    </g>
    <g id="ytick_13">
     <g id="line2d_127">
      <g>
       <use xlink:href="#m74440df9ad" x="85.7975" y="426.083175" style="stroke: #000000"/>
      </g>
     </g>
     <g id="line2d_128">
      <g>
       <use xlink:href="#m32b780315f" x="1090.1975" y="426.083175" style="stroke: #000000"/>
      </g>
     </g>
    </g>
    <g id="ytick_14">
     <g id="line2d_129">
      <g>
       <use xlink:href="#m74440df9ad" x="85.7975" y="411.471932" style="stroke: #000000"/>
      </g>
     </g>
     <g id="line2d_130">
      <g>
       <use xlink:href="#m32b780315f" x="1090.1975" y="411.471932" style="stroke: #000000"/>
      </g>
     </g>
    </g>
    <g id="ytick_15">
     <g id="line2d_131">
      <g>
       <use xlink:href="#m74440df9ad" x="85.7975" y="382.249447" style="stroke: #000000"/>
      </g>
     </g>
     <g id="line2d_132">
      <g>
       <use xlink:href="#m32b780315f" x="1090.1975" y="382.249447" style="stroke: #000000"/>
      </g>
     </g>
    </g>
    <g id="ytick_16">
     <g id="line2d_133">
      <g>
       <use xlink:href="#m74440df9ad" x="85.7975" y="367.638204" style="stroke: #000000"/>
      </g>
     </g>
     <g id="line2d_134">
      <g>
       <use xlink:href="#m32b780315f" x="1090.1975" y="367.638204" style="stroke: #000000"/>
      </g>
     </g>
    </g>
    <g id="ytick_17">
     <g id="line2d_135">
      <g>
       <use xlink:href="#m74440df9ad" x="85.7975" y="353.026961" style="stroke: #000000"/>
      </g>
     </g>
     <g id="line2d_136">
      <g>
       <use xlink:href="#m32b780315f" x="1090.1975" y="353.026961" style="stroke: #000000"/>
      </g>
     </g>
    </g>
    <g id="ytick_18">
     <g id="line2d_137">
      <g>
       <use xlink:href="#m74440df9ad" x="85.7975" y="338.415719" style="stroke: #000000"/>
      </g>
     </g>
     <g id="line2d_138">
      <g>
       <use xlink:href="#m32b780315f" x="1090.1975" y="338.415719" style="stroke: #000000"/>
      </g>
     </g>
    </g>
    <g id="ytick_19">
     <g id="line2d_139">
      <g>
       <use xlink:href="#m74440df9ad" x="85.7975" y="309.193233" style="stroke: #000000"/>
      </g>
     </g>
     <g id="line2d_140">
      <g>
       <use xlink:href="#m32b780315f" x="1090.1975" y="309.193233" style="stroke: #000000"/>
      </g>
     </g>
    </g>
    <g id="ytick_20">
     <g id="line2d_141">
      <g>
       <use xlink:href="#m74440df9ad" x="85.7975" y="294.581991" style="stroke: #000000"/>
      </g>
     </g>
     <g id="line2d_142">
      <g>
       <use xlink:href="#m32b780315f" x="1090.1975" y="294.581991" style="stroke: #000000"/>
      </g>
     </g>
    </g>
    <g id="ytick_21">
     <g id="line2d_143">
      <g>
       <use xlink:href="#m74440df9ad" x="85.7975" y="279.970748" style="stroke: #000000"/>
      </g>
     </g>
     <g id="line2d_144">
      <g>
       <use xlink:href="#m32b780315f" x="1090.1975" y="279.970748" style="stroke: #000000"/>
      </g>
     </g>
    </g>
    <g id="ytick_22">
     <g id="line2d_145">
      <g>
       <use xlink:href="#m74440df9ad" x="85.7975" y="265.359505" style="stroke: #000000"/>
      </g>
     </g>
     <g id="line2d_146">
      <g>
       <use xlink:href="#m32b780315f" x="1090.1975" y="265.359505" style="stroke: #000000"/>
      </g>
     </g>
    </g>
    <g id="ytick_23">
     <g id="line2d_147">
      <g>
       <use xlink:href="#m74440df9ad" x="85.7975" y="236.13702" style="stroke: #000000"/>
      </g>
     </g>
     <g id="line2d_148">
      <g>
       <use xlink:href="#m32b780315f" x="1090.1975" y="236.13702" style="stroke: #000000"/>
      </g>
     </g>
    </g>
    <g id="ytick_24">
     <g id="line2d_149">
      <g>
       <use xlink:href="#m74440df9ad" x="85.7975" y="221.525777" style="stroke: #000000"/>
      </g>
     </g>
     <g id="line2d_150">
      <g>
       <use xlink:href="#m32b780315f" x="1090.1975" y="221.525777" style="stroke: #000000"/>
      </g>
     </g>
    </g>
    <g id="ytick_25">
     <g id="line2d_151">
      <g>
       <use xlink:href="#m74440df9ad" x="85.7975" y="206.914535" style="stroke: #000000"/>
      </g>
     </g>
     <g id="line2d_152">
      <g>
       <use xlink:href="#m32b780315f" x="1090.1975" y="206.914535" style="stroke: #000000"/>
      </g>
     </g>
    </g>
    <g id="ytick_26">
     <g id="line2d_153">
      <g>
       <use xlink:href="#m74440df9ad" x="85.7975" y="192.303292" style="stroke: #000000"/>
      </g>
     </g>
     <g id="line2d_154">
      <g>
       <use xlink:href="#m32b780315f" x="1090.1975" y="192.303292" style="stroke: #000000"/>
      </g>
     </g>
    </g>
    <g id="ytick_27">
     <g id="line2d_155">
      <g>
       <use xlink:href="#m74440df9ad" x="85.7975" y="163.080807" style="stroke: #000000"/>
      </g>
     </g>
     <g id="line2d_156">
      <g>
       <use xlink:href="#m32b780315f" x="1090.1975" y="163.080807" style="stroke: #000000"/>
      </g>
     </g>
    </g>
    <g id="ytick_28">
     <g id="line2d_157">
      <g>
       <use xlink:href="#m74440df9ad" x="85.7975" y="148.469564" style="stroke: #000000"/>
      </g>
     </g>
     <g id="line2d_158">
      <g>
       <use xlink:href="#m32b780315f" x="1090.1975" y="148.469564" style="stroke: #000000"/>
      </g>
     </g>
    </g>
    <g id="ytick_29">
     <g id="line2d_159">
      <g>
       <use xlink:href="#m74440df9ad" x="85.7975" y="133.858321" style="stroke: #000000"/>
      </g>
     </g>
     <g id="line2d_160">
      <g>
       <use xlink:href="#m32b780315f" x="1090.1975" y="133.858321" style="stroke: #000000"/>
      </g>
     </g>
    </g>
    <g id="ytick_30">
     <g id="line2d_161">
      <g>
       <use xlink:href="#m74440df9ad" x="85.7975" y="119.247079" style="stroke: #000000"/>
      </g>
     </g>
     <g id="line2d_162">
      <g>
       <use xlink:href="#m32b780315f" x="1090.1975" y="119.247079" style="stroke: #000000"/>
      </g>
     </g>
    </g>
    <g id="ytick_31">
     <g id="line2d_163">
      <g>
       <use xlink:href="#m74440df9ad" x="85.7975" y="90.024593" style="stroke: #000000"/>
      </g>
     </g>
     <g id="line2d_164">
      <g>
       <use xlink:href="#m32b780315f" x="1090.1975" y="90.024593" style="stroke: #000000"/>
      </g>
     </g>
    </g>
    <g id="ytick_32">
     <g id="line2d_165">
      <g>
       <use xlink:href="#m74440df9ad" x="85.7975" y="75.413351" style="stroke: #000000"/>
      </g>
     </g>
     <g id="line2d_166">
      <g>
       <use xlink:href="#m32b780315f" x="1090.1975" y="75.413351" style="stroke: #000000"/>
      </g>
     </g>
    </g>
    <g id="ytick_33">
     <g id="line2d_167">
      <g>
       <use xlink:href="#m74440df9ad" x="85.7975" y="60.802108" style="stroke: #000000"/>
      </g>
     </g>
     <g id="line2d_168">
      <g>
       <use xlink:href="#m32b780315f" x="1090.1975" y="60.802108" style="stroke: #000000"/>
      </g>
     </g>
    </g>
    <g id="ytick_34">
     <g id="line2d_169">
      <g>
       <use xlink:href="#m74440df9ad" x="85.7975" y="46.190865" style="stroke: #000000"/>
      </g>
     </g>
     <g id="line2d_170">
      <g>
       <use xlink:href="#m32b780315f" x="1090.1975" y="46.190865" style="stroke: #000000"/>
      </g>
     </g>
    </g>
    <g id="text_18">
     <!-- IDR (%) -->
     <g transform="translate(15.7575 301.7025) rotate(-90) scale(0.16 -0.16)">
      <defs>
       <path id="DejaVuSans-49" d="M 628 4666 
L 1259 4666 
L 1259 0 
L 628 0 
L 628 4666 
z
" transform="scale(0.015625)"/>
       <path id="DejaVuSans-44" d="M 1259 4147 
L 1259 519 
L 2022 519 
Q 2988 519 3436 956 
Q 3884 1394 3884 2338 
Q 3884 3275 3436 3711 
Q 2988 4147 2022 4147 
L 1259 4147 
z
M 628 4666 
L 1925 4666 
Q 3281 4666 3915 4102 
Q 4550 3538 4550 2338 
Q 4550 1131 3912 565 
Q 3275 0 1925 0 
L 628 0 
L 628 4666 
z
" transform="scale(0.015625)"/>
       <path id="DejaVuSans-52" d="M 2841 2188 
Q 3044 2119 3236 1894 
Q 3428 1669 3622 1275 
L 4263 0 
L 3584 0 
L 2988 1197 
Q 2756 1666 2539 1819 
Q 2322 1972 1947 1972 
L 1259 1972 
L 1259 0 
L 628 0 
L 628 4666 
L 2053 4666 
Q 2853 4666 3247 4331 
Q 3641 3997 3641 3322 
Q 3641 2881 3436 2590 
Q 3231 2300 2841 2188 
z
M 1259 4147 
L 1259 2491 
L 2053 2491 
Q 2509 2491 2742 2702 
Q 2975 2913 2975 3322 
Q 2975 3731 2742 3939 
Q 2509 4147 2053 4147 
L 1259 4147 
z
" transform="scale(0.015625)"/>
       <path id="DejaVuSans-20" transform="scale(0.015625)"/>
       <path id="DejaVuSans-25" d="M 4653 2053 
Q 4381 2053 4226 1822 
Q 4072 1591 4072 1178 
Q 4072 772 4226 539 
Q 4381 306 4653 306 
Q 4919 306 5073 539 
Q 5228 772 5228 1178 
Q 5228 1588 5073 1820 
Q 4919 2053 4653 2053 
z
M 4653 2450 
Q 5147 2450 5437 2106 
Q 5728 1763 5728 1178 
Q 5728 594 5436 251 
Q 5144 -91 4653 -91 
Q 4153 -91 3862 251 
Q 3572 594 3572 1178 
Q 3572 1766 3864 2108 
Q 4156 2450 4653 2450 
z
M 1428 4353 
Q 1159 4353 1004 4120 
Q 850 3888 850 3481 
Q 850 3069 1003 2837 
Q 1156 2606 1428 2606 
Q 1700 2606 1854 2837 
Q 2009 3069 2009 3481 
Q 2009 3884 1853 4118 
Q 1697 4353 1428 4353 
z
M 4250 4750 
L 4750 4750 
L 1831 -91 
L 1331 -91 
L 4250 4750 
z
M 1428 4750 
Q 1922 4750 2215 4408 
Q 2509 4066 2509 3481 
Q 2509 2891 2217 2550 
Q 1925 2209 1428 2209 
Q 931 2209 642 2551 
Q 353 2894 353 3481 
Q 353 4063 643 4406 
Q 934 4750 1428 4750 
z
" transform="scale(0.015625)"/>
      </defs>
      <use xlink:href="#DejaVuSans-49"/>
      <use xlink:href="#DejaVuSans-44" x="29.492188"/>
      <use xlink:href="#DejaVuSans-52" x="106.494141"/>
      <use xlink:href="#DejaVuSans-20" x="175.976562"/>
      <use xlink:href="#DejaVuSans-28" x="207.763672"/>
      <use xlink:href="#DejaVuSans-25" x="246.777344"/>
      <use xlink:href="#DejaVuSans-29" x="341.796875"/>
     </g>
    </g>
   </g>
   <g id="line2d_171">
    <path d="M 131.452045 250.748263 
L 131.908819 250.625342 
L 132.822367 249.991013 
L 133.279141 250.103574 
L 134.192689 250.551852 
L 135.106236 250.502917 
L 136.476558 250.305427 
L 137.390105 250.288673 
L 137.846879 250.379595 
L 138.303653 250.660448 
L 138.760427 251.089072 
L 139.217201 251.294154 
L 139.673975 250.922909 
L 140.130748 250.388191 
L 140.587522 250.427448 
L 142.414618 252.388443 
L 142.871391 252.736712 
L 143.328165 251.523767 
L 143.784939 249.932733 
L 144.241713 249.723112 
L 144.698487 249.024087 
L 145.155261 247.989231 
L 145.612035 249.83951 
L 146.068808 253.014311 
L 146.525582 252.517197 
L 146.982356 249.078925 
L 147.43913 246.893406 
L 147.895904 247.627207 
L 148.809451 255.292546 
L 149.266225 252.556505 
L 149.722999 243.915276 
L 150.179773 241.287508 
L 151.093321 252.610874 
L 151.550094 253.77453 
L 152.463642 250.658602 
L 152.920416 252.902656 
L 153.37719 257.75239 
L 153.833964 259.213728 
L 154.747511 244.830445 
L 155.204285 243.41252 
L 155.661059 250.228289 
L 156.117833 259.817957 
L 156.574607 259.627683 
L 157.031381 248.968533 
L 157.488154 241.937099 
L 157.944928 247.849076 
L 158.401702 259.829182 
L 158.858476 263.222219 
L 159.772024 247.554515 
L 160.228797 245.577307 
L 160.685571 247.687566 
L 161.142345 247.128703 
L 161.599119 244.703263 
L 162.055893 247.641929 
L 162.512667 254.359698 
L 162.969441 259.312628 
L 163.426214 258.980661 
L 163.882988 251.229726 
L 164.339762 245.464504 
L 164.796536 254.971056 
L 165.25331 271.522199 
L 165.710084 274.888479 
L 166.166857 261.528108 
L 166.623631 243.961733 
L 167.080405 235.767206 
L 167.537179 240.322284 
L 168.450727 266.555812 
L 168.9075 270.171214 
L 169.364274 259.51239 
L 169.821048 244.425755 
L 170.277822 238.82149 
L 171.19137 249.742226 
L 171.648144 252.613895 
L 172.104917 253.229636 
L 173.018465 243.735145 
L 173.475239 256.066305 
L 173.932013 277.741688 
L 174.388787 282.507558 
L 174.84556 257.533518 
L 175.302334 215.899623 
L 175.759108 192.912058 
L 176.215882 216.505909 
L 176.672656 267.638194 
L 177.12943 297.97613 
L 177.586203 275.797419 
L 178.042977 227.401873 
L 178.499751 209.14873 
L 178.956525 230.655023 
L 179.413299 263.289119 
L 179.870073 279.821213 
L 180.326846 272.416021 
L 180.78362 253.389582 
L 181.240394 242.049895 
L 181.697168 245.303804 
L 182.153942 252.146486 
L 182.610716 255.042807 
L 183.06749 257.137355 
L 183.524263 259.958074 
L 183.981037 259.258102 
L 184.894585 244.948493 
L 185.351359 247.266903 
L 185.808133 257.304705 
L 186.264906 260.71481 
L 186.72168 243.505207 
L 187.178454 213.992615 
L 187.635228 200.845613 
L 188.092002 224.789782 
L 188.548776 265.952812 
L 189.005549 291.993059 
L 189.462323 295.176307 
L 189.919097 272.35505 
L 190.375871 236.643904 
L 190.832645 211.62436 
L 191.289419 206.269438 
L 191.746193 227.875013 
L 192.202966 260.171146 
L 192.65974 276.43029 
L 193.116514 277.995268 
L 193.573288 269.638833 
L 194.486836 238.105524 
L 194.943609 238.953529 
L 195.400383 248.826984 
L 195.857157 255.726323 
L 196.313931 249.256069 
L 196.770705 232.687529 
L 197.227479 222.21923 
L 197.684252 228.480578 
L 198.141026 252.813178 
L 198.5978 283.617933 
L 199.054574 301.818065 
L 199.511348 287.688068 
L 200.424896 191.349674 
L 200.881669 192.618827 
L 201.795217 274.55293 
L 202.251991 286.489992 
L 202.708765 262.66785 
L 203.165539 221.200051 
L 203.622312 200.91078 
L 204.079086 224.895906 
L 204.53586 266.589618 
L 204.992634 284.106821 
L 205.449408 274.926868 
L 206.362955 237.025128 
L 206.819729 210.829649 
L 207.276503 198.174239 
L 207.733277 220.572432 
L 208.190051 258.610556 
L 208.646825 277.828737 
L 209.103599 274.836702 
L 210.47392 241.112175 
L 211.387468 253.923392 
L 212.301015 257.247936 
L 212.757789 254.826673 
L 213.671337 236.385769 
L 214.128111 238.337936 
L 215.041658 267.009546 
L 215.498432 273.075233 
L 215.955206 266.582109 
L 216.41198 247.497039 
L 216.868754 238.749812 
L 217.782301 274.676083 
L 218.239075 257.846126 
L 218.695849 222.086015 
L 219.152623 222.17219 
L 220.066171 298.367392 
L 220.522945 278.487271 
L 220.979718 222.018639 
L 221.436492 202.890471 
L 222.35004 268.985553 
L 222.806814 278.167932 
L 223.263588 269.332639 
L 223.720361 258.202403 
L 224.177135 252.361248 
L 224.633909 252.683989 
L 225.090683 255.68095 
L 225.547457 255.662575 
L 226.004231 252.678943 
L 226.917778 245.321018 
L 227.374552 246.469943 
L 227.831326 249.264729 
L 228.2881 251.035772 
L 228.744874 258.923265 
L 229.201648 269.925979 
L 229.658421 276.287249 
L 230.115195 273.415793 
L 231.028743 226.10176 
L 231.485517 231.753793 
L 231.942291 255.489448 
L 232.399064 272.662616 
L 232.855838 265.458209 
L 233.312612 247.430177 
L 233.769386 245.985173 
L 234.22616 254.459262 
L 234.682934 256.727717 
L 235.139707 257.121955 
L 235.596481 260.642957 
L 236.053255 261.715552 
L 236.510029 253.490266 
L 236.966803 242.376005 
L 237.423577 242.866759 
L 237.880351 251.207171 
L 238.337124 254.404034 
L 239.250672 265.906813 
L 240.16422 239.645567 
L 240.620994 247.355692 
L 241.077767 261.555123 
L 241.534541 263.775979 
L 242.448089 224.527446 
L 242.904863 223.025211 
L 243.81841 276.578418 
L 244.275184 286.25163 
L 244.731958 270.626736 
L 245.188732 249.755229 
L 245.645506 243.199875 
L 246.10228 248.892558 
L 246.559054 251.853849 
L 247.015827 239.531261 
L 247.472601 218.786578 
L 247.929375 209.407989 
L 248.386149 224.03128 
L 249.299697 274.968721 
L 249.75647 285.919262 
L 250.213244 272.454418 
L 250.670018 238.632978 
L 251.126792 222.304139 
L 252.04034 255.952678 
L 252.497113 260.923739 
L 252.953887 252.96109 
L 253.410661 235.239736 
L 253.867435 236.004885 
L 254.780983 290.791675 
L 255.237756 279.471353 
L 256.151304 210.774353 
L 256.608078 218.355377 
L 257.521626 284.901218 
L 257.9784 288.829677 
L 258.435173 274.313738 
L 258.891947 252.930064 
L 259.348721 244.581414 
L 260.262269 268.169711 
L 260.719043 259.645839 
L 261.175816 236.437295 
L 261.63259 221.094777 
L 262.089364 228.387198 
L 262.546138 242.13671 
L 263.002912 239.020578 
L 263.459686 230.975111 
L 263.916459 248.790283 
L 264.373233 280.340969 
L 264.830007 291.77964 
L 265.286781 276.931801 
L 266.200329 210.568523 
L 266.657103 203.27081 
L 267.113876 231.199654 
L 267.57065 273.732945 
L 268.027424 300.184599 
L 268.484198 294.858113 
L 269.854519 211.545688 
L 270.311293 220.550696 
L 271.224841 292.24912 
L 271.681615 273.592943 
L 272.138389 226.143421 
L 272.595162 198.767856 
L 273.051936 208.61908 
L 273.965484 283.77261 
L 274.422258 284.482077 
L 275.335806 217.373985 
L 275.792579 218.430433 
L 276.706127 277.531236 
L 277.162901 285.017309 
L 277.619675 261.131398 
L 278.076449 223.107156 
L 278.533222 204.310922 
L 278.989996 221.4802 
L 279.44677 257.35778 
L 279.903544 281.663313 
L 280.360318 281.045877 
L 281.273865 248.444863 
L 281.730639 223.088447 
L 282.187413 204.686024 
L 282.644187 228.362703 
L 283.100961 280.080488 
L 283.557735 300.469747 
L 284.014509 270.442436 
L 284.471282 218.275305 
L 284.928056 186.04086 
L 285.38483 205.650407 
L 285.841604 256.724605 
L 286.298378 285.63252 
L 286.755152 260.22746 
L 287.211925 213.208835 
L 287.668699 207.406551 
L 288.582247 271.548465 
L 289.039021 273.388456 
L 289.495795 255.078347 
L 289.952568 244.49833 
L 290.866116 249.450845 
L 291.32289 242.799198 
L 291.779664 239.560223 
L 292.693211 256.132313 
L 293.149985 255.90519 
L 294.063533 246.214641 
L 294.977081 231.899424 
L 295.433855 234.542061 
L 296.347402 271.270117 
L 296.804176 263.108456 
L 297.26095 246.469394 
L 297.717724 248.162009 
L 298.174498 257.532884 
L 298.631271 258.400216 
L 299.088045 254.297741 
L 299.544819 252.410166 
L 300.001593 248.915569 
L 300.458367 242.157844 
L 300.915141 238.886699 
L 301.371914 242.841182 
L 302.285462 262.249463 
L 302.742236 264.642402 
L 303.19901 259.442761 
L 304.112558 233.054146 
L 304.569331 244.249795 
L 305.026105 267.214428 
L 305.482879 278.215274 
L 305.939653 269.976241 
L 306.853201 208.477781 
L 307.309974 216.02378 
L 308.223522 296.802833 
L 308.680296 308.380149 
L 309.13707 274.028065 
L 309.593844 214.320054 
L 310.050617 185.73492 
L 310.507391 211.76775 
L 310.964165 255.64979 
L 311.420939 279.058308 
L 311.877713 277.724403 
L 312.791261 249.681562 
L 313.248034 246.064591 
L 314.161582 253.04165 
L 314.618356 245.988588 
L 315.07513 233.471989 
L 315.531904 233.396523 
L 315.988677 252.463232 
L 316.445451 263.897168 
L 316.902225 248.491666 
L 317.358999 226.686343 
L 317.815773 233.817986 
L 318.272547 265.599146 
L 318.72932 274.428118 
L 319.642868 212.046811 
L 320.099642 211.497949 
L 321.01319 291.279677 
L 321.469964 304.107116 
L 321.926737 277.734762 
L 322.383511 235.59505 
L 322.840285 207.163921 
L 323.297059 202.599721 
L 323.753833 227.015847 
L 324.210607 265.74444 
L 324.66738 286.93288 
L 325.124154 279.411095 
L 326.037702 220.921882 
L 326.494476 233.66634 
L 326.95125 274.387629 
L 327.408023 294.340693 
L 327.864797 271.706429 
L 328.321571 233.321986 
L 328.778345 224.971304 
L 329.235119 250.423566 
L 329.691893 266.432319 
L 330.148666 250.664548 
L 330.60544 227.711699 
L 331.062214 226.017144 
L 331.518988 247.367505 
L 331.975762 263.099191 
L 332.88931 232.403566 
L 333.346083 242.31251 
L 333.802857 257.4009 
L 334.259631 261.352784 
L 334.716405 249.079277 
L 335.173179 242.320159 
L 336.086726 286.023895 
L 336.5435 276.812978 
L 337.000274 236.380604 
L 337.457048 206.171298 
L 337.913822 229.682943 
L 338.370596 284.632751 
L 338.827369 304.697739 
L 339.284143 276.938013 
L 339.740917 237.500288 
L 340.197691 210.284379 
L 340.654465 206.299077 
L 341.111239 239.884581 
L 341.568013 284.220879 
L 342.024786 287.47036 
L 342.938334 195.05447 
L 343.395108 201.823904 
L 344.308656 288.401297 
L 344.765429 300.545346 
L 345.222203 271.510442 
L 345.678977 225.562049 
L 346.135751 205.292238 
L 346.592525 230.276861 
L 347.049299 279.723281 
L 347.506072 310.256059 
L 347.962846 290.080298 
L 348.876394 190.973826 
L 349.333168 191.322797 
L 350.246716 290.680354 
L 350.703489 310.493955 
L 351.160263 296.357474 
L 351.617037 269.615166 
L 352.073811 235.506829 
L 352.530585 224.448017 
L 353.444132 276.186196 
L 353.900906 262.016791 
L 354.35768 234.219565 
L 354.814454 225.292467 
L 355.271228 243.599422 
L 355.728002 274.766459 
L 356.184775 294.86901 
L 356.641549 280.949191 
L 357.555097 205.438161 
L 358.011871 216.86239 
L 358.925419 299.818021 
L 359.382192 308.469808 
L 359.838966 274.475061 
L 360.29574 218.443602 
L 360.752514 187.410258 
L 361.209288 202.638183 
L 362.122835 293.824228 
L 362.579609 317.165664 
L 363.036383 295.075655 
L 363.949931 196.295021 
L 364.406705 203.961875 
L 365.320252 296.630251 
L 365.777026 291.42144 
L 366.690574 212.387324 
L 367.147348 229.156573 
L 367.604121 278.589897 
L 368.060895 301.196366 
L 368.517669 274.345066 
L 368.974443 229.448479 
L 369.431217 210.390656 
L 369.887991 226.75565 
L 370.801538 273.029089 
L 371.258312 291.140456 
L 371.715086 285.080425 
L 372.17186 251.001133 
L 372.628634 225.788915 
L 373.085408 228.840459 
L 373.542181 244.50872 
L 373.998955 256.350871 
L 374.455729 258.123548 
L 375.369277 247.864384 
L 375.826051 246.73921 
L 376.282824 242.910078 
L 376.739598 235.752635 
L 377.196372 245.127925 
L 377.653146 271.827697 
L 378.10992 279.623071 
L 378.566694 259.078078 
L 379.023468 244.696981 
L 379.937015 257.756246 
L 380.393789 251.456386 
L 380.850563 251.100869 
L 381.764111 278.149807 
L 382.220884 263.951917 
L 382.677658 232.055735 
L 383.134432 215.486764 
L 383.591206 224.192738 
L 384.504754 277.285261 
L 384.961527 287.101971 
L 385.418301 259.672854 
L 385.875075 216.560081 
L 386.331849 203.675329 
L 387.245397 261.485889 
L 387.702171 272.206147 
L 388.158944 279.105472 
L 388.615718 274.13066 
L 389.072492 245.507767 
L 389.529266 233.166837 
L 389.98604 249.372012 
L 390.442814 258.535676 
L 390.899587 247.431815 
L 391.356361 226.002532 
L 391.813135 217.94304 
L 392.269909 240.663951 
L 392.726683 285.300909 
L 393.183457 316.914794 
L 393.64023 296.606595 
L 394.097004 250.570619 
L 394.553778 241.608817 
L 395.010552 268.119317 
L 395.467326 286.451531 
L 395.9241 270.47194 
L 396.837647 184.69944 
L 397.294421 176.648303 
L 397.751195 212.287237 
L 398.207969 269.123029 
L 398.664743 302.93789 
L 399.121517 303.734772 
L 400.035064 254.643102 
L 400.491838 244.561659 
L 400.948612 249.226469 
L 401.405386 257.085448 
L 401.86216 268.503064 
L 402.318933 264.289801 
L 403.232481 182.173698 
L 403.689255 205.049248 
L 404.146029 291.504671 
L 404.602803 355.275067 
L 405.059576 327.059839 
L 405.51635 236.257448 
L 405.973124 178.804395 
L 406.429898 201.473254 
L 406.886672 261.887598 
L 407.343446 289.819726 
L 407.80022 264.171597 
L 408.256993 222.699534 
L 408.713767 210.943765 
L 409.170541 240.296359 
L 409.627315 282.941239 
L 410.084089 295.124537 
L 410.540863 265.663435 
L 410.997636 225.633529 
L 411.45441 214.425025 
L 412.367958 257.536759 
L 412.824732 267.712826 
L 413.281506 265.455155 
L 413.738279 257.164934 
L 414.195053 244.907934 
L 414.651827 236.273476 
L 415.108601 248.287946 
L 416.022149 309.553221 
L 416.478923 301.338595 
L 417.39247 213.818996 
L 417.849244 222.963331 
L 418.306018 268.796989 
L 418.762792 270.805831 
L 419.676339 168.109032 
L 420.133113 183.300837 
L 421.046661 289.630158 
L 421.503435 297.140261 
L 422.416982 234.56485 
L 422.873756 227.113019 
L 423.33053 247.082134 
L 424.244078 304.9034 
L 424.700852 298.865445 
L 425.614399 208.902051 
L 426.071173 196.578585 
L 426.984721 240.862889 
L 427.441495 247.477138 
L 428.811816 232.354196 
L 429.26859 235.111058 
L 429.725364 260.031545 
L 430.182138 305.598683 
L 430.638912 330.519211 
L 431.095685 303.891272 
L 432.009233 202.217999 
L 432.466007 200.165103 
L 432.922781 237.712555 
L 433.379555 285.568463 
L 433.836329 304.132046 
L 434.293102 257.473074 
L 434.749876 180.96731 
L 435.20665 160.497372 
L 435.663424 227.304783 
L 436.120198 323.300158 
L 436.576972 350.805511 
L 437.490519 231.150906 
L 437.947293 232.003088 
L 438.404067 251.011411 
L 438.860841 237.861455 
L 439.317615 198.849673 
L 439.774388 173.542088 
L 440.231162 190.148915 
L 440.687936 231.136093 
L 441.14471 254.683263 
L 441.601484 246.89454 
L 442.058258 228.957757 
L 442.515031 232.50015 
L 443.428579 283.272298 
L 443.885353 268.600046 
L 444.798901 185.256426 
L 445.255675 200.313018 
L 445.712448 261.033408 
L 446.169222 306.72929 
L 446.625996 306.323968 
L 447.08277 276.560292 
L 447.996318 185.307212 
L 448.453091 168.6645 
L 448.909865 204.689888 
L 449.823413 355.113321 
L 450.280187 354.217735 
L 451.193734 199.878475 
L 451.650508 206.64264 
L 452.107282 283.949387 
L 452.564056 322.519064 
L 453.02083 271.267126 
L 453.477604 185.587204 
L 453.934378 140.051699 
L 454.391151 171.706077 
L 455.304699 347.799059 
L 455.761473 356.895584 
L 456.675021 196.428826 
L 457.131794 165.506962 
L 457.588568 182.411801 
L 458.045342 211.42017 
L 458.502116 224.539778 
L 459.415664 202.127443 
L 459.872437 229.947568 
L 460.329211 285.833402 
L 460.785985 312.596135 
L 461.242759 286.905963 
L 461.699533 236.075023 
L 462.156307 206.776504 
L 462.613081 220.907879 
L 463.526628 300.89471 
L 463.983402 292.04813 
L 464.89695 167.555233 
L 465.353724 149.370034 
L 465.810497 190.42971 
L 466.724045 329.501986 
L 467.180819 363.664949 
L 467.637593 357.213291 
L 468.094367 308.314402 
L 469.007914 191.469663 
L 469.464688 172.18802 
L 469.921462 194.305619 
L 470.378236 236.080319 
L 470.83501 254.393455 
L 471.291784 239.876967 
L 471.748557 232.464333 
L 472.205331 261.629718 
L 472.662105 309.160494 
L 473.118879 333.397951 
L 473.575653 295.526694 
L 474.4892 128.119614 
L 474.945974 151.41216 
L 475.859522 353.893295 
L 476.316296 370.627718 
L 477.686617 164.808942 
L 478.143391 180.947975 
L 479.056939 280.213986 
L 479.513713 286.924234 
L 479.970486 266.824608 
L 480.42726 252.881922 
L 480.884034 265.108545 
L 481.340808 269.219383 
L 482.254356 205.167914 
L 482.71113 228.573089 
L 483.167903 293.563824 
L 483.624677 325.421941 
L 484.081451 285.287949 
L 484.538225 215.32721 
L 484.994999 176.128724 
L 485.451773 189.517836 
L 486.36532 276.426392 
L 486.822094 294.998728 
L 487.278868 293.058548 
L 487.735642 268.358634 
L 488.192416 250.527503 
L 488.649189 272.636284 
L 489.105963 307.813966 
L 489.562737 306.376457 
L 490.019511 255.697244 
L 490.476285 186.60227 
L 490.933059 154.681906 
L 491.389833 189.630214 
L 492.30338 317.035308 
L 492.760154 354.567275 
L 493.216928 327.786991 
L 494.130476 145.942344 
L 494.587249 124.830261 
L 495.044023 182.355447 
L 495.500797 262.794577 
L 495.957571 316.228983 
L 496.414345 330.367836 
L 496.871119 309.997573 
L 497.784666 237.384557 
L 498.24144 227.286394 
L 498.698214 240.001098 
L 499.154988 258.242633 
L 499.611762 265.563267 
L 500.525309 206.544009 
L 500.982083 234.159058 
L 501.438857 284.2587 
L 501.895631 292.535527 
L 502.352405 262.154824 
L 502.809179 249.595157 
L 503.265952 264.670954 
L 503.722726 261.925986 
L 504.1795 236.488526 
L 504.636274 231.137131 
L 505.093048 258.149857 
L 505.549822 296.72694 
L 506.006595 308.797186 
L 506.920143 239.569188 
L 507.376917 252.473194 
L 507.833691 307.834357 
L 508.290465 337.010401 
L 508.747239 287.34322 
L 509.204012 195.065467 
L 509.660786 160.785111 
L 510.574334 259.530338 
L 511.031108 237.503832 
L 511.487882 190.333734 
L 511.944655 193.322493 
L 512.858203 313.168113 
L 513.314977 345.837897 
L 513.771751 336.847025 
L 515.142072 190.620327 
L 515.598846 185.737768 
L 516.05562 211.384149 
L 516.969168 296.879292 
L 517.425941 299.605588 
L 518.339489 201.789046 
L 518.796263 180.648081 
L 519.253037 210.197359 
L 519.709811 272.803341 
L 520.166585 303.93143 
L 520.623358 265.569493 
L 521.080132 199.598664 
L 521.536906 197.416242 
L 522.450454 358.090821 
L 522.907228 350.187428 
L 523.364001 276.131188 
L 523.820775 229.938715 
L 524.277549 258.109142 
L 524.734323 312.326906 
L 525.191097 315.422588 
L 526.104644 185.10293 
L 526.561418 156.503299 
L 527.018192 164.490937 
L 527.474966 204.705245 
L 528.388514 333.04569 
L 528.845288 347.436819 
L 529.302061 311.977502 
L 530.215609 210.593671 
L 530.672383 192.290887 
L 531.129157 214.816113 
L 532.042704 300.528981 
L 532.499478 304.609948 
L 532.956252 266.189602 
L 533.8698 153.36655 
L 534.326574 148.760592 
L 534.783347 196.764273 
L 535.696895 336.323846 
L 536.153669 332.572324 
L 537.067217 203.387212 
L 537.523991 189.353574 
L 537.980764 215.801067 
L 538.437538 251.084716 
L 538.894312 258.098909 
L 539.351086 235.174633 
L 539.80786 230.595871 
L 540.721407 297.940702 
L 541.178181 294.281072 
L 542.091729 200.506153 
L 542.548503 210.126886 
L 543.46205 310.151811 
L 543.918824 305.58087 
L 544.832372 233.874298 
L 545.289146 229.03024 
L 545.74592 227.63571 
L 546.202694 222.855786 
L 546.659467 235.209373 
L 547.116241 261.943084 
L 547.573015 266.554438 
L 548.486563 212.024841 
L 548.943337 224.155157 
L 549.40011 262.576229 
L 549.856884 273.628214 
L 550.770432 210.121929 
L 551.227206 198.164169 
L 551.68398 229.26631 
L 552.140753 287.026007 
L 552.597527 317.112874 
L 553.054301 291.638675 
L 553.967849 190.866979 
L 554.424623 171.092906 
L 554.881396 193.770889 
L 555.794944 292.459131 
L 556.251718 307.789258 
L 556.708492 289.613109 
L 557.62204 219.358975 
L 558.078813 204.750487 
L 558.535587 207.460057 
L 558.992361 220.165724 
L 559.905909 272.802423 
L 560.362683 278.453759 
L 561.27623 246.250848 
L 561.733004 245.529515 
L 562.189778 253.025061 
L 562.646552 271.173155 
L 563.103326 297.904936 
L 563.560099 302.661514 
L 564.016873 267.454011 
L 564.473647 218.491623 
L 564.930421 192.921118 
L 565.387195 203.909934 
L 566.300743 260.440035 
L 566.757516 268.856972 
L 567.21429 264.172695 
L 567.671064 254.564623 
L 568.127838 248.529812 
L 568.584612 240.61329 
L 569.041386 220.188456 
L 569.498159 213.129428 
L 569.954933 250.633026 
L 570.411707 310.292747 
L 570.868481 335.715804 
L 571.325255 293.933312 
L 572.238802 136.626294 
L 572.695576 109.441679 
L 573.15235 140.389798 
L 574.522672 362.210003 
L 574.979446 379.293951 
L 575.436219 323.440164 
L 575.892993 227.609847 
L 576.349767 162.014067 
L 576.806541 162.345543 
L 577.263315 225.915899 
L 577.720089 323.220399 
L 578.176862 370.469687 
L 578.633636 321.320621 
L 579.09041 225.044873 
L 579.547184 158.324631 
L 580.003958 156.668735 
L 580.917505 256.150302 
L 581.374279 251.996915 
L 581.831053 231.063923 
L 582.287827 244.86579 
L 582.744601 280.293694 
L 583.201375 283.770552 
L 584.114922 156.224842 
L 584.571696 161.251101 
L 585.485244 376.057256 
L 585.942018 405.008426 
L 586.398792 322.973778 
L 586.855565 213.987134 
L 587.312339 149.580508 
L 587.769113 151.048156 
L 588.682661 280.206704 
L 589.139435 297.987316 
L 589.596208 287.807632 
L 590.052982 283.271265 
L 590.509756 277.312635 
L 591.423304 233.551249 
L 591.880078 251.476879 
L 592.336851 291.231332 
L 592.793625 310.10604 
L 593.250399 284.267185 
L 593.707173 228.041042 
L 594.163947 194.214119 
L 594.620721 207.843881 
L 595.077495 226.170747 
L 595.534268 214.709603 
L 595.991042 199.543218 
L 596.447816 228.90995 
L 597.361364 373.828551 
L 597.818138 358.010983 
L 598.731685 172.411483 
L 599.188459 169.04823 
L 600.102007 282.580536 
L 600.558781 302.096646 
L 601.015554 294.44523 
L 601.472328 292.702373 
L 601.929102 285.11897 
L 602.84265 206.801259 
L 603.299424 189.425533 
L 604.212971 209.246489 
L 604.669745 202.87119 
L 605.126519 210.20345 
L 605.583293 268.258432 
L 606.040067 351.942318 
L 606.496841 404.147995 
L 606.953614 372.717522 
L 607.867162 173.669446 
L 608.323936 146.168744 
L 609.237484 218.743255 
L 609.694257 219.281734 
L 610.151031 200.220737 
L 610.607805 214.347253 
L 611.064579 277.700686 
L 611.521353 363.237523 
L 611.978127 413.994737 
L 612.434901 375.627179 
L 613.348448 165.371006 
L 613.805222 134.985555 
L 614.261996 195.350535 
L 614.71877 293.929961 
L 615.175544 353.980846 
L 615.632317 352.871202 
L 616.089091 319.633957 
L 617.459413 190.994743 
L 617.916187 177.083197 
L 618.37296 189.407748 
L 619.743282 311.755067 
L 620.200056 280.414679 
L 620.65683 212.846037 
L 621.113604 168.621339 
L 621.570377 179.257909 
L 622.027151 213.707006 
L 622.483925 237.042659 
L 622.940699 244.870631 
L 623.397473 229.392934 
L 624.31102 146.957439 
L 624.767794 155.301432 
L 625.224568 230.943027 
L 625.681342 328.632089 
L 626.138116 387.762149 
L 626.59489 379.049417 
L 627.508437 257.961362 
L 627.965211 255.577412 
L 628.878759 340.038248 
L 629.335533 329.642583 
L 630.705854 177.064099 
L 631.162628 189.500264 
L 632.076176 319.811032 
L 632.53295 312.177351 
L 633.446497 183.576048 
L 633.903271 214.977509 
L 634.360045 301.337854 
L 634.816819 340.323261 
L 635.273593 299.274018 
L 636.18714 174.495862 
L 636.643914 138.269449 
L 637.100688 132.496927 
L 637.557462 189.537668 
L 638.014236 301.805415 
L 638.471009 370.832245 
L 638.927783 319.834288 
L 639.384557 190.979226 
L 639.841331 120.676994 
L 640.298105 183.076815 
L 640.754879 307.4499 
L 641.211653 376.501875 
L 641.668426 338.032706 
L 642.581974 124.840316 
L 643.038748 124.317277 
L 643.952296 321.607784 
L 644.409069 334.120466 
L 644.865843 273.081325 
L 645.322617 239.775249 
L 645.779391 292.04849 
L 646.236165 373.742184 
L 646.692939 380.813103 
L 647.149712 313.433866 
L 647.606486 212.45853 
L 648.06326 84.11902 
L 648.520034 48.449132 
L 648.976808 199.861429 
L 649.433582 401.387378 
L 649.890356 477.203968 
L 650.347129 393.871657 
L 651.260677 104.115757 
L 651.717451 83.003382 
L 652.174225 148.230315 
L 652.630999 237.775009 
L 653.087772 304.493919 
L 653.544546 334.926609 
L 654.00132 318.848444 
L 654.458094 265.132708 
L 654.914868 237.910018 
L 655.371642 263.526513 
L 655.828415 280.471924 
L 656.285189 244.327224 
L 656.741963 197.927498 
L 657.198737 199.309255 
L 657.655511 233.835033 
L 659.025832 311.805441 
L 659.482606 310.478606 
L 659.93938 233.618906 
L 660.396154 123.927323 
L 660.852928 55.678123 
L 661.309702 55.95975 
L 661.766475 115.871046 
L 663.136797 398.296877 
L 663.593571 412.616325 
L 664.050345 349.803974 
L 664.507118 242.054615 
L 664.963892 200.740683 
L 665.420666 275.903096 
L 665.87744 380.273457 
L 666.334214 403.730771 
L 666.790988 330.599112 
L 667.247761 234.405156 
L 667.704535 178.969246 
L 668.161309 174.822929 
L 668.618083 212.764892 
L 669.074857 263.350295 
L 669.531631 284.206554 
L 669.988405 257.514441 
L 670.901952 167.525706 
L 671.358726 147.847525 
L 671.8155 152.483727 
L 672.272274 201.206226 
L 672.729048 290.530223 
L 673.185821 345.744908 
L 673.642595 306.454819 
L 674.099369 218.992454 
L 674.556143 164.11633 
L 675.012917 159.179239 
L 675.469691 187.115599 
L 676.840012 329.505819 
L 677.296786 310.940355 
L 677.75356 255.277083 
L 678.210334 235.032557 
L 678.667108 272.890408 
L 679.123881 321.428005 
L 679.580655 322.407755 
L 680.037429 264.699444 
L 680.494203 186.266024 
L 680.950977 139.94454 
L 681.407751 163.514623 
L 682.321298 289.6771 
L 682.778072 291.160528 
L 683.69162 210.037494 
L 684.148394 238.46625 
L 684.605167 309.650081 
L 685.061941 340.988694 
L 685.518715 296.661995 
L 685.975489 212.322912 
L 686.432263 157.198879 
L 686.889037 187.5608 
L 687.802584 386.05351 
L 688.259358 390.686431 
L 689.172906 209.480754 
L 689.62968 170.565322 
L 690.086454 201.490475 
L 690.543227 263.429366 
L 691.000001 302.344289 
L 691.456775 283.949963 
L 692.370323 171.368228 
L 692.827097 175.41122 
L 693.740644 305.175842 
L 694.197418 315.231036 
L 695.110966 214.590682 
L 695.56774 192.097738 
L 696.024514 205.271685 
L 696.938061 271.298359 
L 697.851609 348.124268 
L 698.308383 330.648983 
L 699.22193 181.694705 
L 699.678704 155.101094 
L 700.135478 172.681682 
L 701.962573 287.808407 
L 702.419347 282.364978 
L 703.332895 182.075342 
L 703.789669 189.476133 
L 704.703216 332.232964 
L 705.15999 363.443969 
L 705.616764 349.96449 
L 706.073538 325.416417 
L 706.530312 309.9394 
L 706.987086 302.814937 
L 707.44386 291.048152 
L 708.357407 254.691189 
L 708.814181 261.3747 
L 709.270955 283.003431 
L 709.727729 278.4299 
L 710.641276 181.672894 
L 711.09805 183.808321 
L 712.011598 283.083479 
L 712.468372 276.241056 
L 713.381919 174.648352 
L 713.838693 169.85422 
L 714.752241 240.252253 
L 715.209015 229.137558 
L 715.665789 204.508736 
L 716.122563 219.792105 
L 716.579336 270.509649 
L 717.03611 279.704909 
L 717.492884 243.36713 
L 717.949658 295.415944 
L 718.406432 418.125354 
L 718.863206 446.855543 
L 719.319979 342.77793 
L 720.233527 80.48719 
L 720.690301 65.68277 
L 721.147075 155.150468 
L 721.603849 269.992128 
L 722.060622 335.145414 
L 722.517396 329.841373 
L 722.97417 276.161407 
L 723.887718 124.242669 
L 724.344492 102.33402 
L 724.801266 181.500672 
L 725.258039 338.809227 
L 725.714813 440.161457 
L 726.171587 387.892264 
L 727.085135 131.093518 
L 727.541909 96.762881 
L 727.998682 143.721567 
L 728.91223 295.161236 
L 729.369004 328.050472 
L 730.282552 345.657338 
L 730.739325 357.080455 
L 731.196099 333.883952 
L 732.566421 148.528065 
L 733.023195 145.98354 
L 733.479969 195.898556 
L 734.393516 339.923873 
L 734.85029 351.336342 
L 735.307064 310.528417 
L 736.220612 165.469175 
L 736.677385 143.816322 
L 737.134159 194.850874 
L 737.590933 284.937048 
L 738.047707 324.989591 
L 738.504481 276.029833 
L 738.961255 200.640909 
L 739.418028 190.277262 
L 740.331576 311.204624 
L 740.78835 295.361141 
L 741.701898 160.343616 
L 742.158671 195.461945 
L 742.615445 316.62618 
L 743.072219 382.642005 
L 743.528993 316.269158 
L 743.985767 208.694606 
L 744.442541 160.394424 
L 744.899315 182.441909 
L 745.812862 302.308345 
L 746.269636 310.602375 
L 746.72641 273.314061 
L 747.183184 223.557098 
L 747.639958 188.473543 
L 748.096731 176.127227 
L 748.553505 186.023986 
L 749.010279 225.620228 
L 749.467053 285.265148 
L 749.923827 310.730845 
L 750.380601 280.274009 
L 750.837374 236.339845 
L 751.294148 227.633033 
L 752.207696 292.711259 
L 752.66447 283.128196 
L 753.121244 251.386015 
L 753.578018 249.478973 
L 754.034791 285.24414 
L 754.491565 304.572354 
L 754.948339 275.890739 
L 755.405113 224.813774 
L 755.861887 188.739278 
L 756.318661 184.386481 
L 756.775434 203.674441 
L 757.232208 228.388627 
L 757.688982 243.098149 
L 758.60253 244.389601 
L 759.059304 248.588248 
L 759.516077 251.361419 
L 759.972851 255.69146 
L 760.429625 247.226718 
L 760.886399 220.182283 
L 761.343173 199.898989 
L 761.799947 193.866828 
L 762.256721 178.533642 
L 762.713494 159.166794 
L 763.170268 182.714154 
L 763.627042 262.257212 
L 764.083816 364.330071 
L 764.54059 432.144868 
L 764.997364 393.239023 
L 765.910911 90.342269 
L 766.367685 44.4375 
L 766.824459 125.881965 
L 767.738007 377.163908 
L 768.19478 368.251543 
L 769.108328 160.176005 
L 769.565102 141.431291 
L 770.935424 231.493973 
L 771.392197 248.432405 
L 771.848971 252.832704 
L 772.305745 264.898606 
L 773.676067 346.509808 
L 774.13284 357.435581 
L 774.589614 346.924269 
L 775.046388 314.267106 
L 775.959936 221.66791 
L 776.41671 219.311505 
L 776.873483 244.449652 
L 777.330257 258.928939 
L 777.787031 238.451666 
L 778.243805 197.951089 
L 778.700579 177.353142 
L 779.157353 203.231609 
L 780.0709 321.525431 
L 780.527674 350.336369 
L 780.984448 334.67643 
L 781.441222 263.575727 
L 781.897996 164.663192 
L 782.35477 97.190336 
L 782.811543 98.558568 
L 783.268317 163.587054 
L 783.725091 251.471533 
L 784.181865 306.789968 
L 784.638639 305.249866 
L 786.00896 198.642539 
L 786.465734 201.379611 
L 786.922508 216.713984 
L 787.379282 262.378873 
L 787.836056 336.854532 
L 788.292829 382.649562 
L 788.749603 341.790656 
L 789.206377 241.300653 
L 789.663151 167.170251 
L 790.119925 153.383378 
L 790.576699 191.792845 
L 791.033473 258.266798 
L 791.490246 300.657066 
L 791.94702 295.23719 
L 793.317342 194.546567 
L 793.774116 188.555964 
L 794.230889 219.894044 
L 795.144437 340.04971 
L 795.601211 348.792964 
L 796.057985 292.671941 
L 796.514759 217.648247 
L 796.971532 187.002468 
L 797.428306 219.232575 
L 797.88508 278.942788 
L 798.341854 308.751037 
L 798.798628 275.062308 
L 799.255402 218.089865 
L 799.712176 197.070901 
L 800.168949 205.17671 
L 800.625723 209.12544 
L 801.082497 222.72228 
L 801.996045 314.674611 
L 802.452819 339.677144 
L 802.909592 336.311533 
L 803.366366 291.674847 
L 803.82314 224.667531 
L 804.279914 188.624108 
L 804.736688 195.238378 
L 805.193462 218.259642 
L 805.650235 254.573638 
L 806.107009 303.793204 
L 806.563783 332.350019 
L 807.020557 305.829762 
L 807.477331 248.137324 
L 807.934105 210.263507 
L 808.390879 207.276179 
L 809.304426 260.773421 
L 809.7612 274.335429 
L 810.217974 298.474725 
L 810.674748 333.015842 
L 811.131522 318.633006 
L 812.045069 194.658405 
L 812.501843 176.770664 
L 812.958617 203.886351 
L 813.415391 254.963259 
L 813.872165 275.18661 
L 814.785712 225.404044 
L 815.242486 234.319754 
L 815.69926 267.400385 
L 816.156034 274.914648 
L 817.069581 201.061733 
L 817.526355 202.358819 
L 818.896677 322.658723 
L 819.353451 327.160983 
L 819.810225 292.408611 
L 820.266998 230.044692 
L 820.723772 188.192942 
L 821.180546 191.548181 
L 821.63732 228.291613 
L 822.094094 274.960473 
L 822.550868 299.458919 
L 823.007641 290.82888 
L 823.464415 272.938074 
L 823.921189 266.649021 
L 824.377963 270.597843 
L 824.834737 276.6135 
L 825.291511 295.172046 
L 825.748284 327.964759 
L 826.205058 321.404804 
L 827.118606 194.310909 
L 827.57538 158.331812 
L 828.032154 150.582627 
L 828.488928 186.140884 
L 829.402475 343.500874 
L 829.859249 343.276702 
L 830.316023 289.055766 
L 830.772797 280.514331 
L 831.229571 284.742215 
L 831.686344 260.135962 
L 832.143118 254.049546 
L 832.599892 263.795552 
L 833.056666 261.440692 
L 833.51344 256.903891 
L 833.970214 264.12538 
L 834.426987 276.309159 
L 834.883761 275.198934 
L 835.340535 253.464676 
L 835.797309 244.630833 
L 836.254083 270.363265 
L 836.710857 305.008192 
L 837.167631 311.38455 
L 837.624404 268.577837 
L 838.081178 207.13691 
L 838.537952 178.802003 
L 838.994726 186.521604 
L 839.4515 210.507323 
L 839.908274 218.24776 
L 840.365047 183.610959 
L 840.821821 190.856962 
L 841.278595 263.546639 
L 841.735369 307.651456 
L 842.192143 292.135461 
L 843.10569 219.477917 
L 843.562464 222.141419 
L 844.476012 374.142152 
L 844.932786 373.583218 
L 845.846334 157.812001 
L 846.303107 105.506942 
L 846.759881 125.869682 
L 847.673429 250.124635 
L 848.130203 281.609207 
L 849.04375 316.560418 
L 849.500524 303.180395 
L 849.957298 264.788938 
L 850.414072 248.54562 
L 851.32762 299.119307 
L 851.784393 287.155513 
L 852.241167 250.471355 
L 852.697941 231.830251 
L 853.154715 234.729591 
L 853.611489 243.170923 
L 854.068263 234.354967 
L 854.525036 189.357955 
L 854.98181 155.806564 
L 855.438584 174.231832 
L 855.895358 221.467105 
L 856.352132 256.058753 
L 856.808906 248.207655 
L 857.26568 208.035104 
L 857.722453 184.788783 
L 858.179227 221.599305 
L 858.636001 285.845752 
L 859.092775 322.156301 
L 859.549549 332.4372 
L 860.006323 334.844125 
L 860.463096 332.061596 
L 860.91987 324.62728 
L 861.376644 300.410426 
L 862.290192 197.525408 
L 862.746966 171.407312 
L 863.203739 172.291092 
L 863.660513 213.037872 
L 864.117287 286.155909 
L 864.574061 338.264036 
L 865.030835 337.768503 
L 865.487609 301.809815 
L 866.401156 214.411647 
L 866.85793 201.394622 
L 867.771478 204.796626 
L 868.228252 194.5319 
L 869.598573 132.128471 
L 870.055347 155.88283 
L 870.512121 214.275024 
L 870.968895 244.353717 
L 871.425669 286.61455 
L 871.882442 348.125736 
L 872.339216 324.163918 
L 872.79599 227.042616 
L 873.252764 161.064784 
L 873.709538 166.338698 
L 874.623086 297.889073 
L 875.079859 328.030693 
L 875.536633 305.617666 
L 876.450181 219.685786 
L 876.906955 213.367996 
L 877.363729 248.858055 
L 877.820502 310.782692 
L 878.277276 349.343645 
L 878.73405 324.290069 
L 879.647598 205.257515 
L 880.104372 198.226321 
L 881.017919 248.301217 
L 881.474693 255.979353 
L 881.931467 248.916214 
L 882.388241 239.878496 
L 882.845015 233.824287 
L 883.301789 221.865141 
L 884.215336 148.398192 
L 884.67211 155.287023 
L 885.128884 209.712173 
L 885.585658 248.178305 
L 886.042432 248.369542 
L 886.499205 252.054113 
L 886.955979 284.494924 
L 887.412753 331.308396 
L 887.869527 366.077628 
L 888.326301 350.410869 
L 889.239848 203.656452 
L 889.696622 204.894517 
L 890.153396 267.022773 
L 890.61017 312.873121 
L 891.066944 294.224112 
L 891.523718 238.545818 
L 891.980491 210.74301 
L 892.437265 235.51463 
L 892.894039 283.095262 
L 893.350813 308.154134 
L 893.807587 291.006516 
L 894.721135 218.828573 
L 895.177908 205.086941 
L 895.634682 210.014549 
L 896.54823 254.07354 
L 897.005004 257.346081 
L 897.461778 242.025932 
L 897.918551 230.85884 
L 898.375325 233.627569 
L 898.832099 243.450862 
L 899.288873 271.209166 
L 899.745647 311.692263 
L 900.202421 332.756912 
L 900.659194 321.042205 
L 901.115968 275.665038 
L 902.029516 150.65843 
L 902.48629 145.730102 
L 902.943064 197.359048 
L 903.399838 274.727759 
L 903.856611 329.907714 
L 904.313385 334.176872 
L 904.770159 291.001487 
L 906.140481 106.021367 
L 906.597254 77.636237 
L 907.054028 139.491355 
L 907.510802 226.830515 
L 907.967576 268.232131 
L 908.42435 270.79463 
L 908.881124 289.303185 
L 909.337897 357.644617 
L 909.794671 451.872155 
L 910.251445 498.0375 
L 910.708219 452.133669 
L 911.621767 253.809105 
L 912.078541 190.365688 
L 912.535314 177.114262 
L 912.992088 213.675663 
L 913.448862 261.952602 
L 913.905636 273.793809 
L 914.36241 238.400343 
L 914.819184 186.466909 
L 915.275957 159.358341 
L 915.732731 169.861222 
L 916.189505 206.615105 
L 917.103053 299.568344 
L 917.559827 303.46148 
L 918.473374 258.323922 
L 918.930148 251.092483 
L 919.386922 251.870083 
L 919.843696 240.074433 
L 920.30047 221.34365 
L 920.757244 229.667738 
L 921.670791 308.389061 
L 922.127565 328.484887 
L 922.584339 336.494703 
L 923.041113 305.983465 
L 923.95466 160.627786 
L 924.411434 147.959402 
L 924.868208 224.921518 
L 925.324982 325.038915 
L 925.781756 347.948516 
L 926.695303 223.765564 
L 927.152077 208.385672 
L 927.608851 245.513985 
L 928.522399 355.587749 
L 928.979173 367.807595 
L 929.435946 328.111253 
L 929.89272 275.74213 
L 930.349494 251.910566 
L 930.806268 255.055243 
L 931.263042 259.655124 
L 931.719816 243.310865 
L 932.17659 204.069689 
L 932.633363 154.804124 
L 933.090137 129.041464 
L 933.546911 180.954694 
L 934.003685 278.666527 
L 934.460459 312.934315 
L 934.917233 257.253977 
L 935.83078 103.948277 
L 936.287554 113.261521 
L 936.744328 220.471466 
L 937.201102 367.984317 
L 937.657876 430.378376 
L 938.114649 343.656874 
L 938.571423 198.984551 
L 939.028197 129.89078 
L 939.484971 177.437036 
L 939.941745 272.838536 
L 940.398519 317.480816 
L 940.855293 294.286274 
L 941.312066 255.29215 
L 941.76884 238.596347 
L 942.225614 256.679925 
L 943.139162 332.603185 
L 943.595936 315.112315 
L 944.509483 186.261731 
L 944.966257 148.880161 
L 945.423031 149.13313 
L 945.879805 202.238912 
L 946.793352 373.652463 
L 947.250126 358.654876 
L 948.163674 168.339715 
L 948.620448 128.200035 
L 949.077222 122.845752 
L 949.533996 156.331136 
L 950.447543 279.097657 
L 950.904317 283.532142 
L 951.817865 218.12058 
L 952.274639 202.254151 
L 952.731412 223.728582 
L 953.188186 265.190309 
L 953.64496 286.555855 
L 954.101734 276.394575 
L 955.015282 218.888327 
L 955.472055 216.866701 
L 956.385603 291.966268 
L 956.842377 293.972432 
L 957.755925 259.952663 
L 958.212699 258.806141 
L 958.669472 275.773681 
L 959.126246 299.91178 
L 959.58302 305.429958 
L 960.039794 275.133631 
L 960.496568 226.263389 
L 960.953342 191.944467 
L 961.410115 195.087363 
L 961.866889 226.530039 
L 962.323663 243.695395 
L 962.780437 233.544639 
L 963.237211 212.519804 
L 963.693985 186.310177 
L 964.150758 216.180006 
L 964.607532 296.525687 
L 965.064306 327.866258 
L 965.52108 283.404935 
L 965.977854 215.270939 
L 966.434628 172.482441 
L 966.891401 182.169951 
L 968.261723 348.199474 
L 968.718497 343.955879 
L 969.175271 297.01122 
L 970.088818 184.776974 
L 970.545592 160.006996 
L 971.002366 165.660354 
L 971.45914 205.796413 
L 971.915914 262.257324 
L 972.372688 294.144866 
L 972.829461 287.282553 
L 973.286235 264.182531 
L 973.743009 257.150705 
L 974.199783 266.088591 
L 974.656557 257.036626 
L 975.113331 222.937169 
L 975.570104 199.887949 
L 976.026878 225.447541 
L 976.940426 351.18183 
L 977.3972 346.124754 
L 978.310748 221.140137 
L 978.767521 201.826625 
L 979.224295 218.25236 
L 979.681069 230.146015 
L 980.137843 212.815206 
L 980.594617 172.631957 
L 981.051391 154.49848 
L 981.508164 189.581536 
L 981.964938 247.520309 
L 982.421712 278.704952 
L 982.878486 270.320641 
L 983.33526 248.854356 
L 983.792034 248.554619 
L 984.248807 275.852825 
L 984.705581 311.018338 
L 985.162355 328.471887 
L 985.619129 303.582898 
L 986.075903 252.624516 
L 986.532677 219.189161 
L 986.989451 210.464543 
L 987.446224 222.671947 
L 988.359772 283.944148 
L 988.816546 277.887817 
L 989.730094 214.311046 
L 990.186867 210.610504 
L 990.643641 238.058808 
L 991.557189 310.456969 
L 992.013963 319.800904 
L 992.470737 289.961156 
L 993.384284 174.011792 
L 993.841058 152.138364 
L 994.297832 186.202041 
L 995.21138 309.60016 
L 995.668154 327.374487 
L 996.124927 294.588268 
L 996.581701 237.71416 
L 997.038475 195.784245 
L 997.495249 184.599309 
L 997.952023 209.49477 
L 998.408797 255.59338 
L 998.86557 286.044799 
L 999.322344 283.328968 
L 1000.235892 249.593805 
L 1000.692666 247.5539 
L 1001.606213 271.912037 
L 1002.062987 276.015749 
L 1002.519761 267.716966 
L 1003.890083 203.076891 
L 1004.346856 214.686499 
L 1005.260404 276.331964 
L 1005.717178 289.146876 
L 1006.173952 279.353186 
L 1006.630726 256.255086 
L 1007.0875 240.053456 
L 1007.544273 238.748835 
L 1008.914595 261.72933 
L 1009.828143 268.491935 
L 1010.284916 264.632022 
L 1010.74169 257.607889 
L 1011.198464 258.792074 
L 1011.655238 266.374382 
L 1012.112012 265.968683 
L 1013.025559 237.670829 
L 1013.482333 233.585011 
L 1014.395881 256.26378 
L 1014.852655 259.106061 
L 1015.766203 252.606971 
L 1016.222976 250.27467 
L 1017.136524 243.573699 
L 1017.593298 241.778366 
L 1018.050072 244.19884 
L 1019.420393 264.321731 
L 1019.877167 266.863324 
L 1020.333941 262.901688 
L 1021.247489 244.955622 
L 1021.704262 241.794972 
L 1022.161036 243.156048 
L 1023.074584 249.377439 
L 1023.531358 251.264322 
L 1023.988132 252.567502 
L 1024.444906 253.297464 
L 1024.901679 252.825244 
L 1025.358453 251.495256 
L 1025.815227 250.661477 
L 1026.272001 251.255829 
L 1026.728775 252.61733 
L 1027.185549 252.715972 
L 1028.099096 248.692228 
L 1028.55587 248.579708 
L 1029.469418 252.203978 
L 1029.926192 251.945553 
L 1030.382965 250.311506 
L 1030.839739 249.153014 
L 1031.296513 249.430552 
L 1032.210061 251.569785 
L 1032.666835 251.551108 
L 1033.580382 250.519312 
L 1034.037156 250.417168 
L 1034.950704 250.861082 
L 1035.407478 250.829244 
L 1036.321025 250.397662 
L 1036.777799 250.31883 
L 1037.691347 250.519894 
L 1038.604895 250.720652 
L 1039.518442 250.627788 
L 1040.43199 250.500061 
L 1041.802311 250.686164 
L 1042.715859 250.738412 
L 1044.542955 250.664718 
L 1044.542955 250.664718 
" clip-path="url(#pce0dd17185)" style="fill: none; stroke: #0c5da5; stroke-width: 2; stroke-linecap: square"/>
   </g>
   <g id="patch_3">
    <path d="M 85.7975 520.7175 
L 85.7975 21.7575 
" style="fill: none; stroke: #000000; stroke-linejoin: miter; stroke-linecap: square"/>
   </g>
   <g id="patch_4">
    <path d="M 1090.1975 520.7175 
L 1090.1975 21.7575 
" style="fill: none; stroke: #000000; stroke-linejoin: miter; stroke-linecap: square"/>
   </g>
   <g id="patch_5">
    <path d="M 85.7975 520.7175 
L 1090.1975 520.7175 
" style="fill: none; stroke: #000000; stroke-linejoin: miter; stroke-linecap: square"/>
   </g>
   <g id="patch_6">
    <path d="M 85.7975 21.7575 
L 1090.1975 21.7575 
" style="fill: none; stroke: #000000; stroke-linejoin: miter; stroke-linecap: square"/>
   </g>
   <g id="text_19">
    <!-- Tabas_ Iran Record no. 140 -->
    <g transform="translate(480.30875 15.7575) scale(0.16 -0.16)">
     <defs>
      <path id="DejaVuSans-61" d="M 2194 1759 
Q 1497 1759 1228 1600 
Q 959 1441 959 1056 
Q 959 750 1161 570 
Q 1363 391 1709 391 
Q 2188 391 2477 730 
Q 2766 1069 2766 1631 
L 2766 1759 
L 2194 1759 
z
M 3341 1997 
L 3341 0 
L 2766 0 
L 2766 531 
Q 2569 213 2275 61 
Q 1981 -91 1556 -91 
Q 1019 -91 701 211 
Q 384 513 384 1019 
Q 384 1609 779 1909 
Q 1175 2209 1959 2209 
L 2766 2209 
L 2766 2266 
Q 2766 2663 2505 2880 
Q 2244 3097 1772 3097 
Q 1472 3097 1187 3025 
Q 903 2953 641 2809 
L 641 3341 
Q 956 3463 1253 3523 
Q 1550 3584 1831 3584 
Q 2591 3584 2966 3190 
Q 3341 2797 3341 1997 
z
" transform="scale(0.015625)"/>
      <path id="DejaVuSans-62" d="M 3116 1747 
Q 3116 2381 2855 2742 
Q 2594 3103 2138 3103 
Q 1681 3103 1420 2742 
Q 1159 2381 1159 1747 
Q 1159 1113 1420 752 
Q 1681 391 2138 391 
Q 2594 391 2855 752 
Q 3116 1113 3116 1747 
z
M 1159 2969 
Q 1341 3281 1617 3432 
Q 1894 3584 2278 3584 
Q 2916 3584 3314 3078 
Q 3713 2572 3713 1747 
Q 3713 922 3314 415 
Q 2916 -91 2278 -91 
Q 1894 -91 1617 61 
Q 1341 213 1159 525 
L 1159 0 
L 581 0 
L 581 4863 
L 1159 4863 
L 1159 2969 
z
" transform="scale(0.015625)"/>
      <path id="DejaVuSans-5f" d="M 3263 -1063 
L 3263 -1509 
L -63 -1509 
L -63 -1063 
L 3263 -1063 
z
" transform="scale(0.015625)"/>
      <path id="DejaVuSans-72" d="M 2631 2963 
Q 2534 3019 2420 3045 
Q 2306 3072 2169 3072 
Q 1681 3072 1420 2755 
Q 1159 2438 1159 1844 
L 1159 0 
L 581 0 
L 581 3500 
L 1159 3500 
L 1159 2956 
Q 1341 3275 1631 3429 
Q 1922 3584 2338 3584 
Q 2397 3584 2469 3576 
Q 2541 3569 2628 3553 
L 2631 2963 
z
" transform="scale(0.015625)"/>
      <path id="DejaVuSans-6e" d="M 3513 2113 
L 3513 0 
L 2938 0 
L 2938 2094 
Q 2938 2591 2744 2837 
Q 2550 3084 2163 3084 
Q 1697 3084 1428 2787 
Q 1159 2491 1159 1978 
L 1159 0 
L 581 0 
L 581 3500 
L 1159 3500 
L 1159 2956 
Q 1366 3272 1645 3428 
Q 1925 3584 2291 3584 
Q 2894 3584 3203 3211 
Q 3513 2838 3513 2113 
z
" transform="scale(0.015625)"/>
      <path id="DejaVuSans-63" d="M 3122 3366 
L 3122 2828 
Q 2878 2963 2633 3030 
Q 2388 3097 2138 3097 
Q 1578 3097 1268 2742 
Q 959 2388 959 1747 
Q 959 1106 1268 751 
Q 1578 397 2138 397 
Q 2388 397 2633 464 
Q 2878 531 3122 666 
L 3122 134 
Q 2881 22 2623 -34 
Q 2366 -91 2075 -91 
Q 1284 -91 818 406 
Q 353 903 353 1747 
Q 353 2603 823 3093 
Q 1294 3584 2113 3584 
Q 2378 3584 2631 3529 
Q 2884 3475 3122 3366 
z
" transform="scale(0.015625)"/>
      <path id="DejaVuSans-6f" d="M 1959 3097 
Q 1497 3097 1228 2736 
Q 959 2375 959 1747 
Q 959 1119 1226 758 
Q 1494 397 1959 397 
Q 2419 397 2687 759 
Q 2956 1122 2956 1747 
Q 2956 2369 2687 2733 
Q 2419 3097 1959 3097 
z
M 1959 3584 
Q 2709 3584 3137 3096 
Q 3566 2609 3566 1747 
Q 3566 888 3137 398 
Q 2709 -91 1959 -91 
Q 1206 -91 779 398 
Q 353 888 353 1747 
Q 353 2609 779 3096 
Q 1206 3584 1959 3584 
z
" transform="scale(0.015625)"/>
      <path id="DejaVuSans-64" d="M 2906 2969 
L 2906 4863 
L 3481 4863 
L 3481 0 
L 2906 0 
L 2906 525 
Q 2725 213 2448 61 
Q 2172 -91 1784 -91 
Q 1150 -91 751 415 
Q 353 922 353 1747 
Q 353 2572 751 3078 
Q 1150 3584 1784 3584 
Q 2172 3584 2448 3432 
Q 2725 3281 2906 2969 
z
M 947 1747 
Q 947 1113 1208 752 
Q 1469 391 1925 391 
Q 2381 391 2643 752 
Q 2906 1113 2906 1747 
Q 2906 2381 2643 2742 
Q 2381 3103 1925 3103 
Q 1469 3103 1208 2742 
Q 947 2381 947 1747 
z
" transform="scale(0.015625)"/>
     </defs>
     <use xlink:href="#DejaVuSans-54"/>
     <use xlink:href="#DejaVuSans-61" x="44.583984"/>
     <use xlink:href="#DejaVuSans-62" x="105.863281"/>
     <use xlink:href="#DejaVuSans-61" x="169.339844"/>
     <use xlink:href="#DejaVuSans-73" x="230.619141"/>
     <use xlink:href="#DejaVuSans-5f" x="282.71875"/>
     <use xlink:href="#DejaVuSans-20" x="332.71875"/>
     <use xlink:href="#DejaVuSans-49" x="364.505859"/>
     <use xlink:href="#DejaVuSans-72" x="393.998047"/>
     <use xlink:href="#DejaVuSans-61" x="435.111328"/>
     <use xlink:href="#DejaVuSans-6e" x="496.390625"/>
     <use xlink:href="#DejaVuSans-20" x="559.769531"/>
     <use xlink:href="#DejaVuSans-52" x="591.556641"/>
     <use xlink:href="#DejaVuSans-65" x="656.539062"/>
     <use xlink:href="#DejaVuSans-63" x="718.0625"/>
     <use xlink:href="#DejaVuSans-6f" x="773.042969"/>
     <use xlink:href="#DejaVuSans-72" x="834.224609"/>
     <use xlink:href="#DejaVuSans-64" x="873.587891"/>
     <use xlink:href="#DejaVuSans-20" x="937.064453"/>
     <use xlink:href="#DejaVuSans-6e" x="968.851562"/>
     <use xlink:href="#DejaVuSans-6f" x="1032.230469"/>
     <use xlink:href="#DejaVuSans-2e" x="1091.662109"/>
     <use xlink:href="#DejaVuSans-20" x="1123.449219"/>
     <use xlink:href="#DejaVuSans-31" x="1155.236328"/>
     <use xlink:href="#DejaVuSans-34" x="1218.859375"/>
     <use xlink:href="#DejaVuSans-30" x="1282.482422"/>
    </g>
   </g>
  </g>
 </g>
 <defs>
  <clipPath id="pce0dd17185">
   <rect x="85.7975" y="21.7575" width="1004.4" height="498.96"/>
  </clipPath>
 </defs>
</svg>
