<?xml version="1.0" encoding="utf-8" standalone="no"?>
<!DOCTYPE svg PUBLIC "-//W3C//DTD SVG 1.1//EN"
  "http://www.w3.org/Graphics/SVG/1.1/DTD/svg11.dtd">
<svg xmlns:xlink="http://www.w3.org/1999/xlink" width="1083.6175pt" height="562.7875pt" viewBox="0 0 1083.6175 562.7875" xmlns="http://www.w3.org/2000/svg" version="1.1">
 <metadata>
  <rdf:RDF xmlns:dc="http://purl.org/dc/elements/1.1/" xmlns:cc="http://creativecommons.org/ns#" xmlns:rdf="http://www.w3.org/1999/02/22-rdf-syntax-ns#">
   <cc:Work>
    <dc:type rdf:resource="http://purl.org/dc/dcmitype/StillImage"/>
    <dc:date>2023-06-13T12:08:51.080612</dc:date>
    <dc:format>image/svg+xml</dc:format>
    <dc:creator>
     <cc:Agent>
      <dc:title>Matplotlib v3.7.1, https://matplotlib.org/</dc:title>
     </cc:Agent>
    </dc:creator>
   </cc:Work>
  </rdf:RDF>
 </metadata>
 <defs>
  <style type="text/css">*{stroke-linejoin: round; stroke-linecap: butt}</style>
 </defs>
 <g id="figure_1">
  <g id="patch_1">
   <path d="M 0 562.7875 
L 1083.6175 562.7875 
L 1083.6175 0 
L 0 0 
z
" style="fill: #ffffff"/>
  </g>
  <g id="axes_1">
   <g id="patch_2">
    <path d="M 75.6175 520.7175 
L 1080.0175 520.7175 
L 1080.0175 21.7575 
L 75.6175 21.7575 
z
" style="fill: #ffffff"/>
   </g>
   <g id="matplotlib.axis_1">
    <g id="xtick_1">
     <g id="line2d_1">
      <path d="M 121.272045 520.7175 
L 121.272045 21.7575 
" clip-path="url(#p8b1aa84eab)" style="fill: none; stroke-dasharray: 1.85,0.8; stroke-dashoffset: 0; stroke: #000000; stroke-opacity: 0.5; stroke-width: 0.5"/>
     </g>
     <g id="line2d_2">
      <defs>
       <path id="m194823b466" d="M 0 0 
L 0 -6 
" style="stroke: #000000"/>
      </defs>
      <g>
       <use xlink:href="#m194823b466" x="121.272045" y="520.7175" style="stroke: #000000"/>
      </g>
     </g>
     <g id="line2d_3">
      <defs>
       <path id="m8409089352" d="M 0 0 
L 0 6 
" style="stroke: #000000"/>
      </defs>
      <g>
       <use xlink:href="#m8409089352" x="121.272045" y="21.7575" style="stroke: #000000"/>
      </g>
     </g>
     <g id="text_1">
      <!-- 0.0 -->
      <g transform="translate(108.549545 536.375) scale(0.16 -0.16)">
       <defs>
        <path id="DejaVuSans-30" d="M 2034 4250 
Q 1547 4250 1301 3770 
Q 1056 3291 1056 2328 
Q 1056 1369 1301 889 
Q 1547 409 2034 409 
Q 2525 409 2770 889 
Q 3016 1369 3016 2328 
Q 3016 3291 2770 3770 
Q 2525 4250 2034 4250 
z
M 2034 4750 
Q 2819 4750 3233 4129 
Q 3647 3509 3647 2328 
Q 3647 1150 3233 529 
Q 2819 -91 2034 -91 
Q 1250 -91 836 529 
Q 422 1150 422 2328 
Q 422 3509 836 4129 
Q 1250 4750 2034 4750 
z
" transform="scale(0.015625)"/>
        <path id="DejaVuSans-2e" d="M 684 794 
L 1344 794 
L 1344 0 
L 684 0 
L 684 794 
z
" transform="scale(0.015625)"/>
       </defs>
       <use xlink:href="#DejaVuSans-30"/>
       <use xlink:href="#DejaVuSans-2e" x="63.623047"/>
       <use xlink:href="#DejaVuSans-30" x="95.410156"/>
      </g>
     </g>
    </g>
    <g id="xtick_2">
     <g id="line2d_4">
      <path d="M 235.52266 520.7175 
L 235.52266 21.7575 
" clip-path="url(#p8b1aa84eab)" style="fill: none; stroke-dasharray: 1.85,0.8; stroke-dashoffset: 0; stroke: #000000; stroke-opacity: 0.5; stroke-width: 0.5"/>
     </g>
     <g id="line2d_5">
      <g>
       <use xlink:href="#m194823b466" x="235.52266" y="520.7175" style="stroke: #000000"/>
      </g>
     </g>
     <g id="line2d_6">
      <g>
       <use xlink:href="#m8409089352" x="235.52266" y="21.7575" style="stroke: #000000"/>
      </g>
     </g>
     <g id="text_2">
      <!-- 2.5 -->
      <g transform="translate(222.80016 536.375) scale(0.16 -0.16)">
       <defs>
        <path id="DejaVuSans-32" d="M 1228 531 
L 3431 531 
L 3431 0 
L 469 0 
L 469 531 
Q 828 903 1448 1529 
Q 2069 2156 2228 2338 
Q 2531 2678 2651 2914 
Q 2772 3150 2772 3378 
Q 2772 3750 2511 3984 
Q 2250 4219 1831 4219 
Q 1534 4219 1204 4116 
Q 875 4013 500 3803 
L 500 4441 
Q 881 4594 1212 4672 
Q 1544 4750 1819 4750 
Q 2544 4750 2975 4387 
Q 3406 4025 3406 3419 
Q 3406 3131 3298 2873 
Q 3191 2616 2906 2266 
Q 2828 2175 2409 1742 
Q 1991 1309 1228 531 
z
" transform="scale(0.015625)"/>
        <path id="DejaVuSans-35" d="M 691 4666 
L 3169 4666 
L 3169 4134 
L 1269 4134 
L 1269 2991 
Q 1406 3038 1543 3061 
Q 1681 3084 1819 3084 
Q 2600 3084 3056 2656 
Q 3513 2228 3513 1497 
Q 3513 744 3044 326 
Q 2575 -91 1722 -91 
Q 1428 -91 1123 -41 
Q 819 9 494 109 
L 494 744 
Q 775 591 1075 516 
Q 1375 441 1709 441 
Q 2250 441 2565 725 
Q 2881 1009 2881 1497 
Q 2881 1984 2565 2268 
Q 2250 2553 1709 2553 
Q 1456 2553 1204 2497 
Q 953 2441 691 2322 
L 691 4666 
z
" transform="scale(0.015625)"/>
       </defs>
       <use xlink:href="#DejaVuSans-32"/>
       <use xlink:href="#DejaVuSans-2e" x="63.623047"/>
       <use xlink:href="#DejaVuSans-35" x="95.410156"/>
      </g>
     </g>
    </g>
    <g id="xtick_3">
     <g id="line2d_7">
      <path d="M 349.773274 520.7175 
L 349.773274 21.7575 
" clip-path="url(#p8b1aa84eab)" style="fill: none; stroke-dasharray: 1.85,0.8; stroke-dashoffset: 0; stroke: #000000; stroke-opacity: 0.5; stroke-width: 0.5"/>
     </g>
     <g id="line2d_8">
      <g>
       <use xlink:href="#m194823b466" x="349.773274" y="520.7175" style="stroke: #000000"/>
      </g>
     </g>
     <g id="line2d_9">
      <g>
       <use xlink:href="#m8409089352" x="349.773274" y="21.7575" style="stroke: #000000"/>
      </g>
     </g>
     <g id="text_3">
      <!-- 5.0 -->
      <g transform="translate(337.050774 536.375) scale(0.16 -0.16)">
       <use xlink:href="#DejaVuSans-35"/>
       <use xlink:href="#DejaVuSans-2e" x="63.623047"/>
       <use xlink:href="#DejaVuSans-30" x="95.410156"/>
      </g>
     </g>
    </g>
    <g id="xtick_4">
     <g id="line2d_10">
      <path d="M 464.023888 520.7175 
L 464.023888 21.7575 
" clip-path="url(#p8b1aa84eab)" style="fill: none; stroke-dasharray: 1.85,0.8; stroke-dashoffset: 0; stroke: #000000; stroke-opacity: 0.5; stroke-width: 0.5"/>
     </g>
     <g id="line2d_11">
      <g>
       <use xlink:href="#m194823b466" x="464.023888" y="520.7175" style="stroke: #000000"/>
      </g>
     </g>
     <g id="line2d_12">
      <g>
       <use xlink:href="#m8409089352" x="464.023888" y="21.7575" style="stroke: #000000"/>
      </g>
     </g>
     <g id="text_4">
      <!-- 7.5 -->
      <g transform="translate(451.301388 536.375) scale(0.16 -0.16)">
       <defs>
        <path id="DejaVuSans-37" d="M 525 4666 
L 3525 4666 
L 3525 4397 
L 1831 0 
L 1172 0 
L 2766 4134 
L 525 4134 
L 525 4666 
z
" transform="scale(0.015625)"/>
       </defs>
       <use xlink:href="#DejaVuSans-37"/>
       <use xlink:href="#DejaVuSans-2e" x="63.623047"/>
       <use xlink:href="#DejaVuSans-35" x="95.410156"/>
      </g>
     </g>
    </g>
    <g id="xtick_5">
     <g id="line2d_13">
      <path d="M 578.274502 520.7175 
L 578.274502 21.7575 
" clip-path="url(#p8b1aa84eab)" style="fill: none; stroke-dasharray: 1.85,0.8; stroke-dashoffset: 0; stroke: #000000; stroke-opacity: 0.5; stroke-width: 0.5"/>
     </g>
     <g id="line2d_14">
      <g>
       <use xlink:href="#m194823b466" x="578.274502" y="520.7175" style="stroke: #000000"/>
      </g>
     </g>
     <g id="line2d_15">
      <g>
       <use xlink:href="#m8409089352" x="578.274502" y="21.7575" style="stroke: #000000"/>
      </g>
     </g>
     <g id="text_5">
      <!-- 10.0 -->
      <g transform="translate(560.462002 536.375) scale(0.16 -0.16)">
       <defs>
        <path id="DejaVuSans-31" d="M 794 531 
L 1825 531 
L 1825 4091 
L 703 3866 
L 703 4441 
L 1819 4666 
L 2450 4666 
L 2450 531 
L 3481 531 
L 3481 0 
L 794 0 
L 794 531 
z
" transform="scale(0.015625)"/>
       </defs>
       <use xlink:href="#DejaVuSans-31"/>
       <use xlink:href="#DejaVuSans-30" x="63.623047"/>
       <use xlink:href="#DejaVuSans-2e" x="127.246094"/>
       <use xlink:href="#DejaVuSans-30" x="159.033203"/>
      </g>
     </g>
    </g>
    <g id="xtick_6">
     <g id="line2d_16">
      <path d="M 692.525117 520.7175 
L 692.525117 21.7575 
" clip-path="url(#p8b1aa84eab)" style="fill: none; stroke-dasharray: 1.85,0.8; stroke-dashoffset: 0; stroke: #000000; stroke-opacity: 0.5; stroke-width: 0.5"/>
     </g>
     <g id="line2d_17">
      <g>
       <use xlink:href="#m194823b466" x="692.525117" y="520.7175" style="stroke: #000000"/>
      </g>
     </g>
     <g id="line2d_18">
      <g>
       <use xlink:href="#m8409089352" x="692.525117" y="21.7575" style="stroke: #000000"/>
      </g>
     </g>
     <g id="text_6">
      <!-- 12.5 -->
      <g transform="translate(674.712617 536.375) scale(0.16 -0.16)">
       <use xlink:href="#DejaVuSans-31"/>
       <use xlink:href="#DejaVuSans-32" x="63.623047"/>
       <use xlink:href="#DejaVuSans-2e" x="127.246094"/>
       <use xlink:href="#DejaVuSans-35" x="159.033203"/>
      </g>
     </g>
    </g>
    <g id="xtick_7">
     <g id="line2d_19">
      <path d="M 806.775731 520.7175 
L 806.775731 21.7575 
" clip-path="url(#p8b1aa84eab)" style="fill: none; stroke-dasharray: 1.85,0.8; stroke-dashoffset: 0; stroke: #000000; stroke-opacity: 0.5; stroke-width: 0.5"/>
     </g>
     <g id="line2d_20">
      <g>
       <use xlink:href="#m194823b466" x="806.775731" y="520.7175" style="stroke: #000000"/>
      </g>
     </g>
     <g id="line2d_21">
      <g>
       <use xlink:href="#m8409089352" x="806.775731" y="21.7575" style="stroke: #000000"/>
      </g>
     </g>
     <g id="text_7">
      <!-- 15.0 -->
      <g transform="translate(788.963231 536.375) scale(0.16 -0.16)">
       <use xlink:href="#DejaVuSans-31"/>
       <use xlink:href="#DejaVuSans-35" x="63.623047"/>
       <use xlink:href="#DejaVuSans-2e" x="127.246094"/>
       <use xlink:href="#DejaVuSans-30" x="159.033203"/>
      </g>
     </g>
    </g>
    <g id="xtick_8">
     <g id="line2d_22">
      <path d="M 921.026345 520.7175 
L 921.026345 21.7575 
" clip-path="url(#p8b1aa84eab)" style="fill: none; stroke-dasharray: 1.85,0.8; stroke-dashoffset: 0; stroke: #000000; stroke-opacity: 0.5; stroke-width: 0.5"/>
     </g>
     <g id="line2d_23">
      <g>
       <use xlink:href="#m194823b466" x="921.026345" y="520.7175" style="stroke: #000000"/>
      </g>
     </g>
     <g id="line2d_24">
      <g>
       <use xlink:href="#m8409089352" x="921.026345" y="21.7575" style="stroke: #000000"/>
      </g>
     </g>
     <g id="text_8">
      <!-- 17.5 -->
      <g transform="translate(903.213845 536.375) scale(0.16 -0.16)">
       <use xlink:href="#DejaVuSans-31"/>
       <use xlink:href="#DejaVuSans-37" x="63.623047"/>
       <use xlink:href="#DejaVuSans-2e" x="127.246094"/>
       <use xlink:href="#DejaVuSans-35" x="159.033203"/>
      </g>
     </g>
    </g>
    <g id="xtick_9">
     <g id="line2d_25">
      <path d="M 1035.276959 520.7175 
L 1035.276959 21.7575 
" clip-path="url(#p8b1aa84eab)" style="fill: none; stroke-dasharray: 1.85,0.8; stroke-dashoffset: 0; stroke: #000000; stroke-opacity: 0.5; stroke-width: 0.5"/>
     </g>
     <g id="line2d_26">
      <g>
       <use xlink:href="#m194823b466" x="1035.276959" y="520.7175" style="stroke: #000000"/>
      </g>
     </g>
     <g id="line2d_27">
      <g>
       <use xlink:href="#m8409089352" x="1035.276959" y="21.7575" style="stroke: #000000"/>
      </g>
     </g>
     <g id="text_9">
      <!-- 20.0 -->
      <g transform="translate(1017.464459 536.375) scale(0.16 -0.16)">
       <use xlink:href="#DejaVuSans-32"/>
       <use xlink:href="#DejaVuSans-30" x="63.623047"/>
       <use xlink:href="#DejaVuSans-2e" x="127.246094"/>
       <use xlink:href="#DejaVuSans-30" x="159.033203"/>
      </g>
     </g>
    </g>
    <g id="xtick_10">
     <g id="line2d_28">
      <defs>
       <path id="mede6ced7db" d="M 0 0 
L 0 -3 
" style="stroke: #000000"/>
      </defs>
      <g>
       <use xlink:href="#mede6ced7db" x="98.421923" y="520.7175" style="stroke: #000000"/>
      </g>
     </g>
     <g id="line2d_29">
      <defs>
       <path id="md70712ca9d" d="M 0 0 
L 0 3 
" style="stroke: #000000"/>
      </defs>
      <g>
       <use xlink:href="#md70712ca9d" x="98.421923" y="21.7575" style="stroke: #000000"/>
      </g>
     </g>
    </g>
    <g id="xtick_11">
     <g id="line2d_30">
      <g>
       <use xlink:href="#mede6ced7db" x="144.122168" y="520.7175" style="stroke: #000000"/>
      </g>
     </g>
     <g id="line2d_31">
      <g>
       <use xlink:href="#md70712ca9d" x="144.122168" y="21.7575" style="stroke: #000000"/>
      </g>
     </g>
    </g>
    <g id="xtick_12">
     <g id="line2d_32">
      <g>
       <use xlink:href="#mede6ced7db" x="166.972291" y="520.7175" style="stroke: #000000"/>
      </g>
     </g>
     <g id="line2d_33">
      <g>
       <use xlink:href="#md70712ca9d" x="166.972291" y="21.7575" style="stroke: #000000"/>
      </g>
     </g>
    </g>
    <g id="xtick_13">
     <g id="line2d_34">
      <g>
       <use xlink:href="#mede6ced7db" x="189.822414" y="520.7175" style="stroke: #000000"/>
      </g>
     </g>
     <g id="line2d_35">
      <g>
       <use xlink:href="#md70712ca9d" x="189.822414" y="21.7575" style="stroke: #000000"/>
      </g>
     </g>
    </g>
    <g id="xtick_14">
     <g id="line2d_36">
      <g>
       <use xlink:href="#mede6ced7db" x="212.672537" y="520.7175" style="stroke: #000000"/>
      </g>
     </g>
     <g id="line2d_37">
      <g>
       <use xlink:href="#md70712ca9d" x="212.672537" y="21.7575" style="stroke: #000000"/>
      </g>
     </g>
    </g>
    <g id="xtick_15">
     <g id="line2d_38">
      <g>
       <use xlink:href="#mede6ced7db" x="258.372783" y="520.7175" style="stroke: #000000"/>
      </g>
     </g>
     <g id="line2d_39">
      <g>
       <use xlink:href="#md70712ca9d" x="258.372783" y="21.7575" style="stroke: #000000"/>
      </g>
     </g>
    </g>
    <g id="xtick_16">
     <g id="line2d_40">
      <g>
       <use xlink:href="#mede6ced7db" x="281.222905" y="520.7175" style="stroke: #000000"/>
      </g>
     </g>
     <g id="line2d_41">
      <g>
       <use xlink:href="#md70712ca9d" x="281.222905" y="21.7575" style="stroke: #000000"/>
      </g>
     </g>
    </g>
    <g id="xtick_17">
     <g id="line2d_42">
      <g>
       <use xlink:href="#mede6ced7db" x="304.073028" y="520.7175" style="stroke: #000000"/>
      </g>
     </g>
     <g id="line2d_43">
      <g>
       <use xlink:href="#md70712ca9d" x="304.073028" y="21.7575" style="stroke: #000000"/>
      </g>
     </g>
    </g>
    <g id="xtick_18">
     <g id="line2d_44">
      <g>
       <use xlink:href="#mede6ced7db" x="326.923151" y="520.7175" style="stroke: #000000"/>
      </g>
     </g>
     <g id="line2d_45">
      <g>
       <use xlink:href="#md70712ca9d" x="326.923151" y="21.7575" style="stroke: #000000"/>
      </g>
     </g>
    </g>
    <g id="xtick_19">
     <g id="line2d_46">
      <g>
       <use xlink:href="#mede6ced7db" x="372.623397" y="520.7175" style="stroke: #000000"/>
      </g>
     </g>
     <g id="line2d_47">
      <g>
       <use xlink:href="#md70712ca9d" x="372.623397" y="21.7575" style="stroke: #000000"/>
      </g>
     </g>
    </g>
    <g id="xtick_20">
     <g id="line2d_48">
      <g>
       <use xlink:href="#mede6ced7db" x="395.47352" y="520.7175" style="stroke: #000000"/>
      </g>
     </g>
     <g id="line2d_49">
      <g>
       <use xlink:href="#md70712ca9d" x="395.47352" y="21.7575" style="stroke: #000000"/>
      </g>
     </g>
    </g>
    <g id="xtick_21">
     <g id="line2d_50">
      <g>
       <use xlink:href="#mede6ced7db" x="418.323643" y="520.7175" style="stroke: #000000"/>
      </g>
     </g>
     <g id="line2d_51">
      <g>
       <use xlink:href="#md70712ca9d" x="418.323643" y="21.7575" style="stroke: #000000"/>
      </g>
     </g>
    </g>
    <g id="xtick_22">
     <g id="line2d_52">
      <g>
       <use xlink:href="#mede6ced7db" x="441.173765" y="520.7175" style="stroke: #000000"/>
      </g>
     </g>
     <g id="line2d_53">
      <g>
       <use xlink:href="#md70712ca9d" x="441.173765" y="21.7575" style="stroke: #000000"/>
      </g>
     </g>
    </g>
    <g id="xtick_23">
     <g id="line2d_54">
      <g>
       <use xlink:href="#mede6ced7db" x="486.874011" y="520.7175" style="stroke: #000000"/>
      </g>
     </g>
     <g id="line2d_55">
      <g>
       <use xlink:href="#md70712ca9d" x="486.874011" y="21.7575" style="stroke: #000000"/>
      </g>
     </g>
    </g>
    <g id="xtick_24">
     <g id="line2d_56">
      <g>
       <use xlink:href="#mede6ced7db" x="509.724134" y="520.7175" style="stroke: #000000"/>
      </g>
     </g>
     <g id="line2d_57">
      <g>
       <use xlink:href="#md70712ca9d" x="509.724134" y="21.7575" style="stroke: #000000"/>
      </g>
     </g>
    </g>
    <g id="xtick_25">
     <g id="line2d_58">
      <g>
       <use xlink:href="#mede6ced7db" x="532.574257" y="520.7175" style="stroke: #000000"/>
      </g>
     </g>
     <g id="line2d_59">
      <g>
       <use xlink:href="#md70712ca9d" x="532.574257" y="21.7575" style="stroke: #000000"/>
      </g>
     </g>
    </g>
    <g id="xtick_26">
     <g id="line2d_60">
      <g>
       <use xlink:href="#mede6ced7db" x="555.42438" y="520.7175" style="stroke: #000000"/>
      </g>
     </g>
     <g id="line2d_61">
      <g>
       <use xlink:href="#md70712ca9d" x="555.42438" y="21.7575" style="stroke: #000000"/>
      </g>
     </g>
    </g>
    <g id="xtick_27">
     <g id="line2d_62">
      <g>
       <use xlink:href="#mede6ced7db" x="601.124625" y="520.7175" style="stroke: #000000"/>
      </g>
     </g>
     <g id="line2d_63">
      <g>
       <use xlink:href="#md70712ca9d" x="601.124625" y="21.7575" style="stroke: #000000"/>
      </g>
     </g>
    </g>
    <g id="xtick_28">
     <g id="line2d_64">
      <g>
       <use xlink:href="#mede6ced7db" x="623.974748" y="520.7175" style="stroke: #000000"/>
      </g>
     </g>
     <g id="line2d_65">
      <g>
       <use xlink:href="#md70712ca9d" x="623.974748" y="21.7575" style="stroke: #000000"/>
      </g>
     </g>
    </g>
    <g id="xtick_29">
     <g id="line2d_66">
      <g>
       <use xlink:href="#mede6ced7db" x="646.824871" y="520.7175" style="stroke: #000000"/>
      </g>
     </g>
     <g id="line2d_67">
      <g>
       <use xlink:href="#md70712ca9d" x="646.824871" y="21.7575" style="stroke: #000000"/>
      </g>
     </g>
    </g>
    <g id="xtick_30">
     <g id="line2d_68">
      <g>
       <use xlink:href="#mede6ced7db" x="669.674994" y="520.7175" style="stroke: #000000"/>
      </g>
     </g>
     <g id="line2d_69">
      <g>
       <use xlink:href="#md70712ca9d" x="669.674994" y="21.7575" style="stroke: #000000"/>
      </g>
     </g>
    </g>
    <g id="xtick_31">
     <g id="line2d_70">
      <g>
       <use xlink:href="#mede6ced7db" x="715.37524" y="520.7175" style="stroke: #000000"/>
      </g>
     </g>
     <g id="line2d_71">
      <g>
       <use xlink:href="#md70712ca9d" x="715.37524" y="21.7575" style="stroke: #000000"/>
      </g>
     </g>
    </g>
    <g id="xtick_32">
     <g id="line2d_72">
      <g>
       <use xlink:href="#mede6ced7db" x="738.225362" y="520.7175" style="stroke: #000000"/>
      </g>
     </g>
     <g id="line2d_73">
      <g>
       <use xlink:href="#md70712ca9d" x="738.225362" y="21.7575" style="stroke: #000000"/>
      </g>
     </g>
    </g>
    <g id="xtick_33">
     <g id="line2d_74">
      <g>
       <use xlink:href="#mede6ced7db" x="761.075485" y="520.7175" style="stroke: #000000"/>
      </g>
     </g>
     <g id="line2d_75">
      <g>
       <use xlink:href="#md70712ca9d" x="761.075485" y="21.7575" style="stroke: #000000"/>
      </g>
     </g>
    </g>
    <g id="xtick_34">
     <g id="line2d_76">
      <g>
       <use xlink:href="#mede6ced7db" x="783.925608" y="520.7175" style="stroke: #000000"/>
      </g>
     </g>
     <g id="line2d_77">
      <g>
       <use xlink:href="#md70712ca9d" x="783.925608" y="21.7575" style="stroke: #000000"/>
      </g>
     </g>
    </g>
    <g id="xtick_35">
     <g id="line2d_78">
      <g>
       <use xlink:href="#mede6ced7db" x="829.625854" y="520.7175" style="stroke: #000000"/>
      </g>
     </g>
     <g id="line2d_79">
      <g>
       <use xlink:href="#md70712ca9d" x="829.625854" y="21.7575" style="stroke: #000000"/>
      </g>
     </g>
    </g>
    <g id="xtick_36">
     <g id="line2d_80">
      <g>
       <use xlink:href="#mede6ced7db" x="852.475977" y="520.7175" style="stroke: #000000"/>
      </g>
     </g>
     <g id="line2d_81">
      <g>
       <use xlink:href="#md70712ca9d" x="852.475977" y="21.7575" style="stroke: #000000"/>
      </g>
     </g>
    </g>
    <g id="xtick_37">
     <g id="line2d_82">
      <g>
       <use xlink:href="#mede6ced7db" x="875.3261" y="520.7175" style="stroke: #000000"/>
      </g>
     </g>
     <g id="line2d_83">
      <g>
       <use xlink:href="#md70712ca9d" x="875.3261" y="21.7575" style="stroke: #000000"/>
      </g>
     </g>
    </g>
    <g id="xtick_38">
     <g id="line2d_84">
      <g>
       <use xlink:href="#mede6ced7db" x="898.176222" y="520.7175" style="stroke: #000000"/>
      </g>
     </g>
     <g id="line2d_85">
      <g>
       <use xlink:href="#md70712ca9d" x="898.176222" y="21.7575" style="stroke: #000000"/>
      </g>
     </g>
    </g>
    <g id="xtick_39">
     <g id="line2d_86">
      <g>
       <use xlink:href="#mede6ced7db" x="943.876468" y="520.7175" style="stroke: #000000"/>
      </g>
     </g>
     <g id="line2d_87">
      <g>
       <use xlink:href="#md70712ca9d" x="943.876468" y="21.7575" style="stroke: #000000"/>
      </g>
     </g>
    </g>
    <g id="xtick_40">
     <g id="line2d_88">
      <g>
       <use xlink:href="#mede6ced7db" x="966.726591" y="520.7175" style="stroke: #000000"/>
      </g>
     </g>
     <g id="line2d_89">
      <g>
       <use xlink:href="#md70712ca9d" x="966.726591" y="21.7575" style="stroke: #000000"/>
      </g>
     </g>
    </g>
    <g id="xtick_41">
     <g id="line2d_90">
      <g>
       <use xlink:href="#mede6ced7db" x="989.576714" y="520.7175" style="stroke: #000000"/>
      </g>
     </g>
     <g id="line2d_91">
      <g>
       <use xlink:href="#md70712ca9d" x="989.576714" y="21.7575" style="stroke: #000000"/>
      </g>
     </g>
    </g>
    <g id="xtick_42">
     <g id="line2d_92">
      <g>
       <use xlink:href="#mede6ced7db" x="1012.426837" y="520.7175" style="stroke: #000000"/>
      </g>
     </g>
     <g id="line2d_93">
      <g>
       <use xlink:href="#md70712ca9d" x="1012.426837" y="21.7575" style="stroke: #000000"/>
      </g>
     </g>
    </g>
    <g id="xtick_43">
     <g id="line2d_94">
      <g>
       <use xlink:href="#mede6ced7db" x="1058.127082" y="520.7175" style="stroke: #000000"/>
      </g>
     </g>
     <g id="line2d_95">
      <g>
       <use xlink:href="#md70712ca9d" x="1058.127082" y="21.7575" style="stroke: #000000"/>
      </g>
     </g>
    </g>
    <g id="text_10">
     <!-- Time(s) -->
     <g transform="translate(547.83375 555.86) scale(0.16 -0.16)">
      <defs>
       <path id="DejaVuSans-54" d="M -19 4666 
L 3928 4666 
L 3928 4134 
L 2272 4134 
L 2272 0 
L 1638 0 
L 1638 4134 
L -19 4134 
L -19 4666 
z
" transform="scale(0.015625)"/>
       <path id="DejaVuSans-69" d="M 603 3500 
L 1178 3500 
L 1178 0 
L 603 0 
L 603 3500 
z
M 603 4863 
L 1178 4863 
L 1178 4134 
L 603 4134 
L 603 4863 
z
" transform="scale(0.015625)"/>
       <path id="DejaVuSans-6d" d="M 3328 2828 
Q 3544 3216 3844 3400 
Q 4144 3584 4550 3584 
Q 5097 3584 5394 3201 
Q 5691 2819 5691 2113 
L 5691 0 
L 5113 0 
L 5113 2094 
Q 5113 2597 4934 2840 
Q 4756 3084 4391 3084 
Q 3944 3084 3684 2787 
Q 3425 2491 3425 1978 
L 3425 0 
L 2847 0 
L 2847 2094 
Q 2847 2600 2669 2842 
Q 2491 3084 2119 3084 
Q 1678 3084 1418 2786 
Q 1159 2488 1159 1978 
L 1159 0 
L 581 0 
L 581 3500 
L 1159 3500 
L 1159 2956 
Q 1356 3278 1631 3431 
Q 1906 3584 2284 3584 
Q 2666 3584 2933 3390 
Q 3200 3197 3328 2828 
z
" transform="scale(0.015625)"/>
       <path id="DejaVuSans-65" d="M 3597 1894 
L 3597 1613 
L 953 1613 
Q 991 1019 1311 708 
Q 1631 397 2203 397 
Q 2534 397 2845 478 
Q 3156 559 3463 722 
L 3463 178 
Q 3153 47 2828 -22 
Q 2503 -91 2169 -91 
Q 1331 -91 842 396 
Q 353 884 353 1716 
Q 353 2575 817 3079 
Q 1281 3584 2069 3584 
Q 2775 3584 3186 3129 
Q 3597 2675 3597 1894 
z
M 3022 2063 
Q 3016 2534 2758 2815 
Q 2500 3097 2075 3097 
Q 1594 3097 1305 2825 
Q 1016 2553 972 2059 
L 3022 2063 
z
" transform="scale(0.015625)"/>
       <path id="DejaVuSans-28" d="M 1984 4856 
Q 1566 4138 1362 3434 
Q 1159 2731 1159 2009 
Q 1159 1288 1364 580 
Q 1569 -128 1984 -844 
L 1484 -844 
Q 1016 -109 783 600 
Q 550 1309 550 2009 
Q 550 2706 781 3412 
Q 1013 4119 1484 4856 
L 1984 4856 
z
" transform="scale(0.015625)"/>
       <path id="DejaVuSans-73" d="M 2834 3397 
L 2834 2853 
Q 2591 2978 2328 3040 
Q 2066 3103 1784 3103 
Q 1356 3103 1142 2972 
Q 928 2841 928 2578 
Q 928 2378 1081 2264 
Q 1234 2150 1697 2047 
L 1894 2003 
Q 2506 1872 2764 1633 
Q 3022 1394 3022 966 
Q 3022 478 2636 193 
Q 2250 -91 1575 -91 
Q 1294 -91 989 -36 
Q 684 19 347 128 
L 347 722 
Q 666 556 975 473 
Q 1284 391 1588 391 
Q 1994 391 2212 530 
Q 2431 669 2431 922 
Q 2431 1156 2273 1281 
Q 2116 1406 1581 1522 
L 1381 1569 
Q 847 1681 609 1914 
Q 372 2147 372 2553 
Q 372 3047 722 3315 
Q 1072 3584 1716 3584 
Q 2034 3584 2315 3537 
Q 2597 3491 2834 3397 
z
" transform="scale(0.015625)"/>
       <path id="DejaVuSans-29" d="M 513 4856 
L 1013 4856 
Q 1481 4119 1714 3412 
Q 1947 2706 1947 2009 
Q 1947 1309 1714 600 
Q 1481 -109 1013 -844 
L 513 -844 
Q 928 -128 1133 580 
Q 1338 1288 1338 2009 
Q 1338 2731 1133 3434 
Q 928 4138 513 4856 
z
" transform="scale(0.015625)"/>
      </defs>
      <use xlink:href="#DejaVuSans-54"/>
      <use xlink:href="#DejaVuSans-69" x="57.958984"/>
      <use xlink:href="#DejaVuSans-6d" x="85.742188"/>
      <use xlink:href="#DejaVuSans-65" x="183.154297"/>
      <use xlink:href="#DejaVuSans-28" x="244.677734"/>
      <use xlink:href="#DejaVuSans-73" x="283.691406"/>
      <use xlink:href="#DejaVuSans-29" x="335.791016"/>
     </g>
    </g>
   </g>
   <g id="matplotlib.axis_2">
    <g id="ytick_1">
     <g id="line2d_96">
      <path d="M 75.6175 465.869091 
L 1080.0175 465.869091 
" clip-path="url(#p8b1aa84eab)" style="fill: none; stroke-dasharray: 1.85,0.8; stroke-dashoffset: 0; stroke: #000000; stroke-opacity: 0.5; stroke-width: 0.5"/>
     </g>
     <g id="line2d_97">
      <defs>
       <path id="maaa38a4214" d="M 0 0 
L 6 0 
" style="stroke: #000000"/>
      </defs>
      <g>
       <use xlink:href="#maaa38a4214" x="75.6175" y="465.869091" style="stroke: #000000"/>
      </g>
     </g>
     <g id="line2d_98">
      <defs>
       <path id="m331e797fd3" d="M 0 0 
L -6 0 
" style="stroke: #000000"/>
      </defs>
      <g>
       <use xlink:href="#m331e797fd3" x="1080.0175" y="465.869091" style="stroke: #000000"/>
      </g>
     </g>
     <g id="text_11">
      <!-- −0.03 -->
      <g transform="translate(23.085 471.947841) scale(0.16 -0.16)">
       <defs>
        <path id="DejaVuSans-2212" d="M 678 2272 
L 4684 2272 
L 4684 1741 
L 678 1741 
L 678 2272 
z
" transform="scale(0.015625)"/>
        <path id="DejaVuSans-33" d="M 2597 2516 
Q 3050 2419 3304 2112 
Q 3559 1806 3559 1356 
Q 3559 666 3084 287 
Q 2609 -91 1734 -91 
Q 1441 -91 1130 -33 
Q 819 25 488 141 
L 488 750 
Q 750 597 1062 519 
Q 1375 441 1716 441 
Q 2309 441 2620 675 
Q 2931 909 2931 1356 
Q 2931 1769 2642 2001 
Q 2353 2234 1838 2234 
L 1294 2234 
L 1294 2753 
L 1863 2753 
Q 2328 2753 2575 2939 
Q 2822 3125 2822 3475 
Q 2822 3834 2567 4026 
Q 2313 4219 1838 4219 
Q 1578 4219 1281 4162 
Q 984 4106 628 3988 
L 628 4550 
Q 988 4650 1302 4700 
Q 1616 4750 1894 4750 
Q 2613 4750 3031 4423 
Q 3450 4097 3450 3541 
Q 3450 3153 3228 2886 
Q 3006 2619 2597 2516 
z
" transform="scale(0.015625)"/>
       </defs>
       <use xlink:href="#DejaVuSans-2212"/>
       <use xlink:href="#DejaVuSans-30" x="83.789062"/>
       <use xlink:href="#DejaVuSans-2e" x="147.412109"/>
       <use xlink:href="#DejaVuSans-30" x="179.199219"/>
       <use xlink:href="#DejaVuSans-33" x="242.822266"/>
      </g>
     </g>
    </g>
    <g id="ytick_2">
     <g id="line2d_99">
      <path d="M 75.6175 409.943254 
L 1080.0175 409.943254 
" clip-path="url(#p8b1aa84eab)" style="fill: none; stroke-dasharray: 1.85,0.8; stroke-dashoffset: 0; stroke: #000000; stroke-opacity: 0.5; stroke-width: 0.5"/>
     </g>
     <g id="line2d_100">
      <g>
       <use xlink:href="#maaa38a4214" x="75.6175" y="409.943254" style="stroke: #000000"/>
      </g>
     </g>
     <g id="line2d_101">
      <g>
       <use xlink:href="#m331e797fd3" x="1080.0175" y="409.943254" style="stroke: #000000"/>
      </g>
     </g>
     <g id="text_12">
      <!-- −0.02 -->
      <g transform="translate(23.085 416.022004) scale(0.16 -0.16)">
       <use xlink:href="#DejaVuSans-2212"/>
       <use xlink:href="#DejaVuSans-30" x="83.789062"/>
       <use xlink:href="#DejaVuSans-2e" x="147.412109"/>
       <use xlink:href="#DejaVuSans-30" x="179.199219"/>
       <use xlink:href="#DejaVuSans-32" x="242.822266"/>
      </g>
     </g>
    </g>
    <g id="ytick_3">
     <g id="line2d_102">
      <path d="M 75.6175 354.017417 
L 1080.0175 354.017417 
" clip-path="url(#p8b1aa84eab)" style="fill: none; stroke-dasharray: 1.85,0.8; stroke-dashoffset: 0; stroke: #000000; stroke-opacity: 0.5; stroke-width: 0.5"/>
     </g>
     <g id="line2d_103">
      <g>
       <use xlink:href="#maaa38a4214" x="75.6175" y="354.017417" style="stroke: #000000"/>
      </g>
     </g>
     <g id="line2d_104">
      <g>
       <use xlink:href="#m331e797fd3" x="1080.0175" y="354.017417" style="stroke: #000000"/>
      </g>
     </g>
     <g id="text_13">
      <!-- −0.01 -->
      <g transform="translate(23.085 360.096167) scale(0.16 -0.16)">
       <use xlink:href="#DejaVuSans-2212"/>
       <use xlink:href="#DejaVuSans-30" x="83.789062"/>
       <use xlink:href="#DejaVuSans-2e" x="147.412109"/>
       <use xlink:href="#DejaVuSans-30" x="179.199219"/>
       <use xlink:href="#DejaVuSans-31" x="242.822266"/>
      </g>
     </g>
    </g>
    <g id="ytick_4">
     <g id="line2d_105">
      <path d="M 75.6175 298.091579 
L 1080.0175 298.091579 
" clip-path="url(#p8b1aa84eab)" style="fill: none; stroke-dasharray: 1.85,0.8; stroke-dashoffset: 0; stroke: #000000; stroke-opacity: 0.5; stroke-width: 0.5"/>
     </g>
     <g id="line2d_106">
      <g>
       <use xlink:href="#maaa38a4214" x="75.6175" y="298.091579" style="stroke: #000000"/>
      </g>
     </g>
     <g id="line2d_107">
      <g>
       <use xlink:href="#m331e797fd3" x="1080.0175" y="298.091579" style="stroke: #000000"/>
      </g>
     </g>
     <g id="text_14">
      <!-- 0.00 -->
      <g transform="translate(36.4925 304.170329) scale(0.16 -0.16)">
       <use xlink:href="#DejaVuSans-30"/>
       <use xlink:href="#DejaVuSans-2e" x="63.623047"/>
       <use xlink:href="#DejaVuSans-30" x="95.410156"/>
       <use xlink:href="#DejaVuSans-30" x="159.033203"/>
      </g>
     </g>
    </g>
    <g id="ytick_5">
     <g id="line2d_108">
      <path d="M 75.6175 242.165742 
L 1080.0175 242.165742 
" clip-path="url(#p8b1aa84eab)" style="fill: none; stroke-dasharray: 1.85,0.8; stroke-dashoffset: 0; stroke: #000000; stroke-opacity: 0.5; stroke-width: 0.5"/>
     </g>
     <g id="line2d_109">
      <g>
       <use xlink:href="#maaa38a4214" x="75.6175" y="242.165742" style="stroke: #000000"/>
      </g>
     </g>
     <g id="line2d_110">
      <g>
       <use xlink:href="#m331e797fd3" x="1080.0175" y="242.165742" style="stroke: #000000"/>
      </g>
     </g>
     <g id="text_15">
      <!-- 0.01 -->
      <g transform="translate(36.4925 248.244492) scale(0.16 -0.16)">
       <use xlink:href="#DejaVuSans-30"/>
       <use xlink:href="#DejaVuSans-2e" x="63.623047"/>
       <use xlink:href="#DejaVuSans-30" x="95.410156"/>
       <use xlink:href="#DejaVuSans-31" x="159.033203"/>
      </g>
     </g>
    </g>
    <g id="ytick_6">
     <g id="line2d_111">
      <path d="M 75.6175 186.239905 
L 1080.0175 186.239905 
" clip-path="url(#p8b1aa84eab)" style="fill: none; stroke-dasharray: 1.85,0.8; stroke-dashoffset: 0; stroke: #000000; stroke-opacity: 0.5; stroke-width: 0.5"/>
     </g>
     <g id="line2d_112">
      <g>
       <use xlink:href="#maaa38a4214" x="75.6175" y="186.239905" style="stroke: #000000"/>
      </g>
     </g>
     <g id="line2d_113">
      <g>
       <use xlink:href="#m331e797fd3" x="1080.0175" y="186.239905" style="stroke: #000000"/>
      </g>
     </g>
     <g id="text_16">
      <!-- 0.02 -->
      <g transform="translate(36.4925 192.318655) scale(0.16 -0.16)">
       <use xlink:href="#DejaVuSans-30"/>
       <use xlink:href="#DejaVuSans-2e" x="63.623047"/>
       <use xlink:href="#DejaVuSans-30" x="95.410156"/>
       <use xlink:href="#DejaVuSans-32" x="159.033203"/>
      </g>
     </g>
    </g>
    <g id="ytick_7">
     <g id="line2d_114">
      <path d="M 75.6175 130.314067 
L 1080.0175 130.314067 
" clip-path="url(#p8b1aa84eab)" style="fill: none; stroke-dasharray: 1.85,0.8; stroke-dashoffset: 0; stroke: #000000; stroke-opacity: 0.5; stroke-width: 0.5"/>
     </g>
     <g id="line2d_115">
      <g>
       <use xlink:href="#maaa38a4214" x="75.6175" y="130.314067" style="stroke: #000000"/>
      </g>
     </g>
     <g id="line2d_116">
      <g>
       <use xlink:href="#m331e797fd3" x="1080.0175" y="130.314067" style="stroke: #000000"/>
      </g>
     </g>
     <g id="text_17">
      <!-- 0.03 -->
      <g transform="translate(36.4925 136.392817) scale(0.16 -0.16)">
       <use xlink:href="#DejaVuSans-30"/>
       <use xlink:href="#DejaVuSans-2e" x="63.623047"/>
       <use xlink:href="#DejaVuSans-30" x="95.410156"/>
       <use xlink:href="#DejaVuSans-33" x="159.033203"/>
      </g>
     </g>
    </g>
    <g id="ytick_8">
     <g id="line2d_117">
      <path d="M 75.6175 74.38823 
L 1080.0175 74.38823 
" clip-path="url(#p8b1aa84eab)" style="fill: none; stroke-dasharray: 1.85,0.8; stroke-dashoffset: 0; stroke: #000000; stroke-opacity: 0.5; stroke-width: 0.5"/>
     </g>
     <g id="line2d_118">
      <g>
       <use xlink:href="#maaa38a4214" x="75.6175" y="74.38823" style="stroke: #000000"/>
      </g>
     </g>
     <g id="line2d_119">
      <g>
       <use xlink:href="#m331e797fd3" x="1080.0175" y="74.38823" style="stroke: #000000"/>
      </g>
     </g>
     <g id="text_18">
      <!-- 0.04 -->
      <g transform="translate(36.4925 80.46698) scale(0.16 -0.16)">
       <defs>
        <path id="DejaVuSans-34" d="M 2419 4116 
L 825 1625 
L 2419 1625 
L 2419 4116 
z
M 2253 4666 
L 3047 4666 
L 3047 1625 
L 3713 1625 
L 3713 1100 
L 3047 1100 
L 3047 0 
L 2419 0 
L 2419 1100 
L 313 1100 
L 313 1709 
L 2253 4666 
z
" transform="scale(0.015625)"/>
       </defs>
       <use xlink:href="#DejaVuSans-30"/>
       <use xlink:href="#DejaVuSans-2e" x="63.623047"/>
       <use xlink:href="#DejaVuSans-30" x="95.410156"/>
       <use xlink:href="#DejaVuSans-34" x="159.033203"/>
      </g>
     </g>
    </g>
    <g id="ytick_9">
     <g id="line2d_120">
      <defs>
       <path id="mae1698b3b0" d="M 0 0 
L 3 0 
" style="stroke: #000000"/>
      </defs>
      <g>
       <use xlink:href="#mae1698b3b0" x="75.6175" y="510.609761" style="stroke: #000000"/>
      </g>
     </g>
     <g id="line2d_121">
      <defs>
       <path id="m5b56b8b9fb" d="M 0 0 
L -3 0 
" style="stroke: #000000"/>
      </defs>
      <g>
       <use xlink:href="#m5b56b8b9fb" x="1080.0175" y="510.609761" style="stroke: #000000"/>
      </g>
     </g>
    </g>
    <g id="ytick_10">
     <g id="line2d_122">
      <g>
       <use xlink:href="#mae1698b3b0" x="75.6175" y="499.424594" style="stroke: #000000"/>
      </g>
     </g>
     <g id="line2d_123">
      <g>
       <use xlink:href="#m5b56b8b9fb" x="1080.0175" y="499.424594" style="stroke: #000000"/>
      </g>
     </g>
    </g>
    <g id="ytick_11">
     <g id="line2d_124">
      <g>
       <use xlink:href="#mae1698b3b0" x="75.6175" y="488.239426" style="stroke: #000000"/>
      </g>
     </g>
     <g id="line2d_125">
      <g>
       <use xlink:href="#m5b56b8b9fb" x="1080.0175" y="488.239426" style="stroke: #000000"/>
      </g>
     </g>
    </g>
    <g id="ytick_12">
     <g id="line2d_126">
      <g>
       <use xlink:href="#mae1698b3b0" x="75.6175" y="477.054259" style="stroke: #000000"/>
      </g>
     </g>
     <g id="line2d_127">
      <g>
       <use xlink:href="#m5b56b8b9fb" x="1080.0175" y="477.054259" style="stroke: #000000"/>
      </g>
     </g>
    </g>
    <g id="ytick_13">
     <g id="line2d_128">
      <g>
       <use xlink:href="#mae1698b3b0" x="75.6175" y="454.683924" style="stroke: #000000"/>
      </g>
     </g>
     <g id="line2d_129">
      <g>
       <use xlink:href="#m5b56b8b9fb" x="1080.0175" y="454.683924" style="stroke: #000000"/>
      </g>
     </g>
    </g>
    <g id="ytick_14">
     <g id="line2d_130">
      <g>
       <use xlink:href="#mae1698b3b0" x="75.6175" y="443.498756" style="stroke: #000000"/>
      </g>
     </g>
     <g id="line2d_131">
      <g>
       <use xlink:href="#m5b56b8b9fb" x="1080.0175" y="443.498756" style="stroke: #000000"/>
      </g>
     </g>
    </g>
    <g id="ytick_15">
     <g id="line2d_132">
      <g>
       <use xlink:href="#mae1698b3b0" x="75.6175" y="432.313589" style="stroke: #000000"/>
      </g>
     </g>
     <g id="line2d_133">
      <g>
       <use xlink:href="#m5b56b8b9fb" x="1080.0175" y="432.313589" style="stroke: #000000"/>
      </g>
     </g>
    </g>
    <g id="ytick_16">
     <g id="line2d_134">
      <g>
       <use xlink:href="#mae1698b3b0" x="75.6175" y="421.128421" style="stroke: #000000"/>
      </g>
     </g>
     <g id="line2d_135">
      <g>
       <use xlink:href="#m5b56b8b9fb" x="1080.0175" y="421.128421" style="stroke: #000000"/>
      </g>
     </g>
    </g>
    <g id="ytick_17">
     <g id="line2d_136">
      <g>
       <use xlink:href="#mae1698b3b0" x="75.6175" y="398.758087" style="stroke: #000000"/>
      </g>
     </g>
     <g id="line2d_137">
      <g>
       <use xlink:href="#m5b56b8b9fb" x="1080.0175" y="398.758087" style="stroke: #000000"/>
      </g>
     </g>
    </g>
    <g id="ytick_18">
     <g id="line2d_138">
      <g>
       <use xlink:href="#mae1698b3b0" x="75.6175" y="387.572919" style="stroke: #000000"/>
      </g>
     </g>
     <g id="line2d_139">
      <g>
       <use xlink:href="#m5b56b8b9fb" x="1080.0175" y="387.572919" style="stroke: #000000"/>
      </g>
     </g>
    </g>
    <g id="ytick_19">
     <g id="line2d_140">
      <g>
       <use xlink:href="#mae1698b3b0" x="75.6175" y="376.387752" style="stroke: #000000"/>
      </g>
     </g>
     <g id="line2d_141">
      <g>
       <use xlink:href="#m5b56b8b9fb" x="1080.0175" y="376.387752" style="stroke: #000000"/>
      </g>
     </g>
    </g>
    <g id="ytick_20">
     <g id="line2d_142">
      <g>
       <use xlink:href="#mae1698b3b0" x="75.6175" y="365.202584" style="stroke: #000000"/>
      </g>
     </g>
     <g id="line2d_143">
      <g>
       <use xlink:href="#m5b56b8b9fb" x="1080.0175" y="365.202584" style="stroke: #000000"/>
      </g>
     </g>
    </g>
    <g id="ytick_21">
     <g id="line2d_144">
      <g>
       <use xlink:href="#mae1698b3b0" x="75.6175" y="342.832249" style="stroke: #000000"/>
      </g>
     </g>
     <g id="line2d_145">
      <g>
       <use xlink:href="#m5b56b8b9fb" x="1080.0175" y="342.832249" style="stroke: #000000"/>
      </g>
     </g>
    </g>
    <g id="ytick_22">
     <g id="line2d_146">
      <g>
       <use xlink:href="#mae1698b3b0" x="75.6175" y="331.647082" style="stroke: #000000"/>
      </g>
     </g>
     <g id="line2d_147">
      <g>
       <use xlink:href="#m5b56b8b9fb" x="1080.0175" y="331.647082" style="stroke: #000000"/>
      </g>
     </g>
    </g>
    <g id="ytick_23">
     <g id="line2d_148">
      <g>
       <use xlink:href="#mae1698b3b0" x="75.6175" y="320.461914" style="stroke: #000000"/>
      </g>
     </g>
     <g id="line2d_149">
      <g>
       <use xlink:href="#m5b56b8b9fb" x="1080.0175" y="320.461914" style="stroke: #000000"/>
      </g>
     </g>
    </g>
    <g id="ytick_24">
     <g id="line2d_150">
      <g>
       <use xlink:href="#mae1698b3b0" x="75.6175" y="309.276747" style="stroke: #000000"/>
      </g>
     </g>
     <g id="line2d_151">
      <g>
       <use xlink:href="#m5b56b8b9fb" x="1080.0175" y="309.276747" style="stroke: #000000"/>
      </g>
     </g>
    </g>
    <g id="ytick_25">
     <g id="line2d_152">
      <g>
       <use xlink:href="#mae1698b3b0" x="75.6175" y="286.906412" style="stroke: #000000"/>
      </g>
     </g>
     <g id="line2d_153">
      <g>
       <use xlink:href="#m5b56b8b9fb" x="1080.0175" y="286.906412" style="stroke: #000000"/>
      </g>
     </g>
    </g>
    <g id="ytick_26">
     <g id="line2d_154">
      <g>
       <use xlink:href="#mae1698b3b0" x="75.6175" y="275.721244" style="stroke: #000000"/>
      </g>
     </g>
     <g id="line2d_155">
      <g>
       <use xlink:href="#m5b56b8b9fb" x="1080.0175" y="275.721244" style="stroke: #000000"/>
      </g>
     </g>
    </g>
    <g id="ytick_27">
     <g id="line2d_156">
      <g>
       <use xlink:href="#mae1698b3b0" x="75.6175" y="264.536077" style="stroke: #000000"/>
      </g>
     </g>
     <g id="line2d_157">
      <g>
       <use xlink:href="#m5b56b8b9fb" x="1080.0175" y="264.536077" style="stroke: #000000"/>
      </g>
     </g>
    </g>
    <g id="ytick_28">
     <g id="line2d_158">
      <g>
       <use xlink:href="#mae1698b3b0" x="75.6175" y="253.35091" style="stroke: #000000"/>
      </g>
     </g>
     <g id="line2d_159">
      <g>
       <use xlink:href="#m5b56b8b9fb" x="1080.0175" y="253.35091" style="stroke: #000000"/>
      </g>
     </g>
    </g>
    <g id="ytick_29">
     <g id="line2d_160">
      <g>
       <use xlink:href="#mae1698b3b0" x="75.6175" y="230.980575" style="stroke: #000000"/>
      </g>
     </g>
     <g id="line2d_161">
      <g>
       <use xlink:href="#m5b56b8b9fb" x="1080.0175" y="230.980575" style="stroke: #000000"/>
      </g>
     </g>
    </g>
    <g id="ytick_30">
     <g id="line2d_162">
      <g>
       <use xlink:href="#mae1698b3b0" x="75.6175" y="219.795407" style="stroke: #000000"/>
      </g>
     </g>
     <g id="line2d_163">
      <g>
       <use xlink:href="#m5b56b8b9fb" x="1080.0175" y="219.795407" style="stroke: #000000"/>
      </g>
     </g>
    </g>
    <g id="ytick_31">
     <g id="line2d_164">
      <g>
       <use xlink:href="#mae1698b3b0" x="75.6175" y="208.61024" style="stroke: #000000"/>
      </g>
     </g>
     <g id="line2d_165">
      <g>
       <use xlink:href="#m5b56b8b9fb" x="1080.0175" y="208.61024" style="stroke: #000000"/>
      </g>
     </g>
    </g>
    <g id="ytick_32">
     <g id="line2d_166">
      <g>
       <use xlink:href="#mae1698b3b0" x="75.6175" y="197.425072" style="stroke: #000000"/>
      </g>
     </g>
     <g id="line2d_167">
      <g>
       <use xlink:href="#m5b56b8b9fb" x="1080.0175" y="197.425072" style="stroke: #000000"/>
      </g>
     </g>
    </g>
    <g id="ytick_33">
     <g id="line2d_168">
      <g>
       <use xlink:href="#mae1698b3b0" x="75.6175" y="175.054737" style="stroke: #000000"/>
      </g>
     </g>
     <g id="line2d_169">
      <g>
       <use xlink:href="#m5b56b8b9fb" x="1080.0175" y="175.054737" style="stroke: #000000"/>
      </g>
     </g>
    </g>
    <g id="ytick_34">
     <g id="line2d_170">
      <g>
       <use xlink:href="#mae1698b3b0" x="75.6175" y="163.86957" style="stroke: #000000"/>
      </g>
     </g>
     <g id="line2d_171">
      <g>
       <use xlink:href="#m5b56b8b9fb" x="1080.0175" y="163.86957" style="stroke: #000000"/>
      </g>
     </g>
    </g>
    <g id="ytick_35">
     <g id="line2d_172">
      <g>
       <use xlink:href="#mae1698b3b0" x="75.6175" y="152.684402" style="stroke: #000000"/>
      </g>
     </g>
     <g id="line2d_173">
      <g>
       <use xlink:href="#m5b56b8b9fb" x="1080.0175" y="152.684402" style="stroke: #000000"/>
      </g>
     </g>
    </g>
    <g id="ytick_36">
     <g id="line2d_174">
      <g>
       <use xlink:href="#mae1698b3b0" x="75.6175" y="141.499235" style="stroke: #000000"/>
      </g>
     </g>
     <g id="line2d_175">
      <g>
       <use xlink:href="#m5b56b8b9fb" x="1080.0175" y="141.499235" style="stroke: #000000"/>
      </g>
     </g>
    </g>
    <g id="ytick_37">
     <g id="line2d_176">
      <g>
       <use xlink:href="#mae1698b3b0" x="75.6175" y="119.1289" style="stroke: #000000"/>
      </g>
     </g>
     <g id="line2d_177">
      <g>
       <use xlink:href="#m5b56b8b9fb" x="1080.0175" y="119.1289" style="stroke: #000000"/>
      </g>
     </g>
    </g>
    <g id="ytick_38">
     <g id="line2d_178">
      <g>
       <use xlink:href="#mae1698b3b0" x="75.6175" y="107.943732" style="stroke: #000000"/>
      </g>
     </g>
     <g id="line2d_179">
      <g>
       <use xlink:href="#m5b56b8b9fb" x="1080.0175" y="107.943732" style="stroke: #000000"/>
      </g>
     </g>
    </g>
    <g id="ytick_39">
     <g id="line2d_180">
      <g>
       <use xlink:href="#mae1698b3b0" x="75.6175" y="96.758565" style="stroke: #000000"/>
      </g>
     </g>
     <g id="line2d_181">
      <g>
       <use xlink:href="#m5b56b8b9fb" x="1080.0175" y="96.758565" style="stroke: #000000"/>
      </g>
     </g>
    </g>
    <g id="ytick_40">
     <g id="line2d_182">
      <g>
       <use xlink:href="#mae1698b3b0" x="75.6175" y="85.573398" style="stroke: #000000"/>
      </g>
     </g>
     <g id="line2d_183">
      <g>
       <use xlink:href="#m5b56b8b9fb" x="1080.0175" y="85.573398" style="stroke: #000000"/>
      </g>
     </g>
    </g>
    <g id="ytick_41">
     <g id="line2d_184">
      <g>
       <use xlink:href="#mae1698b3b0" x="75.6175" y="63.203063" style="stroke: #000000"/>
      </g>
     </g>
     <g id="line2d_185">
      <g>
       <use xlink:href="#m5b56b8b9fb" x="1080.0175" y="63.203063" style="stroke: #000000"/>
      </g>
     </g>
    </g>
    <g id="ytick_42">
     <g id="line2d_186">
      <g>
       <use xlink:href="#mae1698b3b0" x="75.6175" y="52.017895" style="stroke: #000000"/>
      </g>
     </g>
     <g id="line2d_187">
      <g>
       <use xlink:href="#m5b56b8b9fb" x="1080.0175" y="52.017895" style="stroke: #000000"/>
      </g>
     </g>
    </g>
    <g id="ytick_43">
     <g id="line2d_188">
      <g>
       <use xlink:href="#mae1698b3b0" x="75.6175" y="40.832728" style="stroke: #000000"/>
      </g>
     </g>
     <g id="line2d_189">
      <g>
       <use xlink:href="#m5b56b8b9fb" x="1080.0175" y="40.832728" style="stroke: #000000"/>
      </g>
     </g>
    </g>
    <g id="ytick_44">
     <g id="line2d_190">
      <g>
       <use xlink:href="#mae1698b3b0" x="75.6175" y="29.64756" style="stroke: #000000"/>
      </g>
     </g>
     <g id="line2d_191">
      <g>
       <use xlink:href="#m5b56b8b9fb" x="1080.0175" y="29.64756" style="stroke: #000000"/>
      </g>
     </g>
    </g>
    <g id="text_19">
     <!-- IDR (%) -->
     <g transform="translate(15.7575 301.7025) rotate(-90) scale(0.16 -0.16)">
      <defs>
       <path id="DejaVuSans-49" d="M 628 4666 
L 1259 4666 
L 1259 0 
L 628 0 
L 628 4666 
z
" transform="scale(0.015625)"/>
       <path id="DejaVuSans-44" d="M 1259 4147 
L 1259 519 
L 2022 519 
Q 2988 519 3436 956 
Q 3884 1394 3884 2338 
Q 3884 3275 3436 3711 
Q 2988 4147 2022 4147 
L 1259 4147 
z
M 628 4666 
L 1925 4666 
Q 3281 4666 3915 4102 
Q 4550 3538 4550 2338 
Q 4550 1131 3912 565 
Q 3275 0 1925 0 
L 628 0 
L 628 4666 
z
" transform="scale(0.015625)"/>
       <path id="DejaVuSans-52" d="M 2841 2188 
Q 3044 2119 3236 1894 
Q 3428 1669 3622 1275 
L 4263 0 
L 3584 0 
L 2988 1197 
Q 2756 1666 2539 1819 
Q 2322 1972 1947 1972 
L 1259 1972 
L 1259 0 
L 628 0 
L 628 4666 
L 2053 4666 
Q 2853 4666 3247 4331 
Q 3641 3997 3641 3322 
Q 3641 2881 3436 2590 
Q 3231 2300 2841 2188 
z
M 1259 4147 
L 1259 2491 
L 2053 2491 
Q 2509 2491 2742 2702 
Q 2975 2913 2975 3322 
Q 2975 3731 2742 3939 
Q 2509 4147 2053 4147 
L 1259 4147 
z
" transform="scale(0.015625)"/>
       <path id="DejaVuSans-20" transform="scale(0.015625)"/>
       <path id="DejaVuSans-25" d="M 4653 2053 
Q 4381 2053 4226 1822 
Q 4072 1591 4072 1178 
Q 4072 772 4226 539 
Q 4381 306 4653 306 
Q 4919 306 5073 539 
Q 5228 772 5228 1178 
Q 5228 1588 5073 1820 
Q 4919 2053 4653 2053 
z
M 4653 2450 
Q 5147 2450 5437 2106 
Q 5728 1763 5728 1178 
Q 5728 594 5436 251 
Q 5144 -91 4653 -91 
Q 4153 -91 3862 251 
Q 3572 594 3572 1178 
Q 3572 1766 3864 2108 
Q 4156 2450 4653 2450 
z
M 1428 4353 
Q 1159 4353 1004 4120 
Q 850 3888 850 3481 
Q 850 3069 1003 2837 
Q 1156 2606 1428 2606 
Q 1700 2606 1854 2837 
Q 2009 3069 2009 3481 
Q 2009 3884 1853 4118 
Q 1697 4353 1428 4353 
z
M 4250 4750 
L 4750 4750 
L 1831 -91 
L 1331 -91 
L 4250 4750 
z
M 1428 4750 
Q 1922 4750 2215 4408 
Q 2509 4066 2509 3481 
Q 2509 2891 2217 2550 
Q 1925 2209 1428 2209 
Q 931 2209 642 2551 
Q 353 2894 353 3481 
Q 353 4063 643 4406 
Q 934 4750 1428 4750 
z
" transform="scale(0.015625)"/>
      </defs>
      <use xlink:href="#DejaVuSans-49"/>
      <use xlink:href="#DejaVuSans-44" x="29.492188"/>
      <use xlink:href="#DejaVuSans-52" x="106.494141"/>
      <use xlink:href="#DejaVuSans-20" x="175.976562"/>
      <use xlink:href="#DejaVuSans-28" x="207.763672"/>
      <use xlink:href="#DejaVuSans-25" x="246.777344"/>
      <use xlink:href="#DejaVuSans-29" x="341.796875"/>
     </g>
    </g>
   </g>
   <g id="line2d_192">
    <path d="M 121.272045 298.091579 
L 123.100055 299.039345 
L 124.01406 298.137456 
L 124.928065 301.135044 
L 125.84207 306.298149 
L 126.756075 308.581257 
L 127.67008 300.969619 
L 128.584085 284.084497 
L 129.49809 279.897834 
L 130.412095 297.361115 
L 131.3261 312.336011 
L 132.240104 308.152982 
L 133.154109 293.300195 
L 134.068114 286.202926 
L 134.982119 304.646654 
L 135.896124 328.137437 
L 136.810129 322.676056 
L 137.724134 293.403396 
L 138.638139 272.927423 
L 139.552144 267.968117 
L 140.466149 276.028308 
L 141.380154 301.088333 
L 142.294158 322.583798 
L 143.208163 321.219517 
L 144.122168 308.702785 
L 145.036173 306.305706 
L 145.950178 294.941793 
L 146.864183 265.726619 
L 147.778188 269.910704 
L 148.692193 308.973376 
L 149.606198 322.278169 
L 150.520203 308.306604 
L 151.434208 303.738742 
L 152.348213 307.522188 
L 153.262217 303.453133 
L 155.090227 275.77707 
L 156.004232 285.779834 
L 156.918237 314.407855 
L 157.832242 319.027603 
L 158.746247 293.624625 
L 159.660252 277.182857 
L 160.574257 291.131211 
L 161.488262 314.392325 
L 162.402267 313.559502 
L 163.316271 290.151764 
L 164.230276 283.745981 
L 165.144281 303.51903 
L 166.058286 316.232409 
L 166.972291 295.176716 
L 167.886296 270.499397 
L 168.800301 284.856338 
L 169.714306 316.842488 
L 170.628311 324.946607 
L 171.542316 315.358954 
L 172.456321 310.930657 
L 173.370326 287.321346 
L 174.28433 255.271721 
L 175.198335 261.887449 
L 176.11234 297.895921 
L 177.026345 314.189448 
L 177.94035 299.750151 
L 178.854355 302.215806 
L 179.76836 311.890821 
L 180.682365 293.172733 
L 181.59637 267.378805 
L 182.510375 277.305341 
L 183.42438 310.061459 
L 184.338385 316.899126 
L 185.252389 301.206998 
L 186.166394 302.515348 
L 187.080399 309.975059 
L 187.994404 295.781724 
L 188.908409 276.934763 
L 189.822414 277.004746 
L 191.650424 321.488023 
L 192.564429 306.246919 
L 193.478434 277.181042 
L 194.392439 280.818095 
L 195.306443 296.83993 
L 196.220448 309.27555 
L 197.134453 301.050448 
L 198.048458 285.766901 
L 198.962463 295.35888 
L 199.876468 310.0267 
L 200.790473 303.727515 
L 201.704478 290.664615 
L 202.618483 287.371073 
L 203.532488 286.021376 
L 204.446493 297.452908 
L 205.360498 319.160847 
L 206.274502 331.363685 
L 207.188507 298.632676 
L 208.102512 252.266391 
L 209.016517 263.198368 
L 209.930522 308.745304 
L 210.844527 332.509304 
L 211.758532 316.862552 
L 212.672537 291.119357 
L 213.586542 281.811739 
L 214.500547 295.614903 
L 215.414552 311.668967 
L 216.328557 294.076508 
L 217.242561 265.078443 
L 218.156566 256.18916 
L 219.070571 277.968159 
L 219.984576 313.497532 
L 220.898581 334.500264 
L 221.812586 331.818111 
L 222.726591 301.891148 
L 223.640596 266.268126 
L 224.554601 260.610799 
L 225.468606 287.442734 
L 226.382611 309.928873 
L 227.296615 306.921356 
L 228.21062 290.079702 
L 229.124625 286.727384 
L 230.03863 302.545686 
L 230.952635 312.242982 
L 231.86664 309.671996 
L 232.780645 306.249867 
L 233.69465 297.587437 
L 234.608655 276.417607 
L 235.52266 266.871928 
L 236.436665 290.275217 
L 237.35067 321.560889 
L 238.264674 323.702388 
L 239.178679 296.474833 
L 240.092684 278.840742 
L 241.006689 289.530025 
L 241.920694 306.217705 
L 242.834699 316.535371 
L 243.748704 312.616112 
L 244.662709 283.965589 
L 245.576714 270.144711 
L 247.404724 319.519929 
L 248.318729 318.429674 
L 249.232733 295.221871 
L 250.146738 279.661669 
L 251.974748 305.278647 
L 252.888753 288.936892 
L 253.802758 262.080367 
L 254.716763 266.873004 
L 255.630768 296.267869 
L 256.544773 310.066926 
L 257.458778 303.04209 
L 259.286787 264.690859 
L 260.200792 275.065436 
L 261.114797 309.120712 
L 262.028802 315.164643 
L 262.942807 286.018109 
L 263.856812 271.329092 
L 264.770817 290.476788 
L 266.598827 377.181915 
L 267.512832 389.60018 
L 269.340842 338.291334 
L 270.254846 338.274331 
L 271.168851 369.67688 
L 272.082856 392.35286 
L 272.996861 374.853843 
L 273.910866 364.015318 
L 274.824871 383.207221 
L 275.738876 399.662973 
L 276.652881 397.989235 
L 277.566886 377.585713 
L 279.394896 83.555245 
L 280.3089 155.066256 
L 281.222905 288.17114 
L 282.13691 261.492025 
L 283.050915 148.303115 
L 283.96492 144.16445 
L 284.878925 234.413536 
L 285.79293 258.035058 
L 286.706935 190.800696 
L 287.62094 158.732041 
L 288.534945 268.042891 
L 289.44895 454.503545 
L 290.362955 498.0375 
L 291.276959 365.62366 
L 292.190964 302.40812 
L 293.104969 394.21657 
L 294.018974 465.889466 
L 294.932979 408.132337 
L 295.846984 337.386299 
L 296.760989 368.012695 
L 297.674994 431.767931 
L 298.588999 395.149263 
L 299.503004 156.62482 
L 300.417009 44.4375 
L 301.331014 206.368893 
L 302.245018 331.35638 
L 303.159023 230.217986 
L 304.073028 164.433237 
L 304.987033 365.376999 
L 305.901038 491.215421 
L 306.815043 323.952943 
L 307.729048 72.745472 
L 308.643053 83.564956 
L 309.557058 283.128072 
L 310.471063 320.882436 
L 311.385068 206.068256 
L 312.299072 165.522897 
L 313.213077 252.489907 
L 314.127082 375.592734 
L 315.041087 450.403426 
L 315.955092 415.445507 
L 316.869097 350.357263 
L 317.783102 341.187222 
L 318.697107 327.729035 
L 319.611112 291.555832 
L 320.525117 249.493 
L 321.439122 231.638506 
L 322.353127 257.594673 
L 323.267131 294.822492 
L 324.181136 298.885269 
L 325.095141 272.413777 
L 326.009146 255.227053 
L 326.923151 288.16737 
L 327.837156 342.550476 
L 328.751161 349.278017 
L 329.665166 310.202258 
L 331.493176 197.88743 
L 332.407181 197.933504 
L 333.321186 272.168735 
L 334.23519 364.008622 
L 335.149195 388.694703 
L 336.977205 267.225191 
L 337.89121 271.153762 
L 338.805215 301.967227 
L 339.71922 308.390241 
L 340.633225 307.780721 
L 341.54723 316.495594 
L 342.461235 305.158125 
L 343.37524 269.647403 
L 344.289244 244.698921 
L 345.203249 260.867091 
L 346.117254 310.264477 
L 347.031259 325.802544 
L 347.945264 267.557649 
L 348.859269 197.164124 
L 349.773274 193.94555 
L 351.601284 347.072596 
L 352.515289 349.016756 
L 353.429294 280.978209 
L 354.343299 230.931342 
L 355.257303 265.151881 
L 356.171308 344.002797 
L 357.085313 381.526423 
L 357.999318 348.939163 
L 358.913323 300.622048 
L 359.827328 272.582454 
L 360.741333 279.939723 
L 362.569343 363.145421 
L 363.483348 374.884696 
L 364.397353 349.521716 
L 365.311357 314.350317 
L 366.225362 303.430134 
L 367.139367 329.133605 
L 368.053372 351.709285 
L 368.967377 330.871448 
L 369.881382 281.405325 
L 370.795387 245.286392 
L 371.709392 262.09968 
L 372.623397 328.682347 
L 373.537402 372.969565 
L 374.451407 347.714418 
L 375.365412 297.301174 
L 376.279416 267.768839 
L 377.193421 256.383972 
L 378.107426 250.400386 
L 379.021431 261.353281 
L 379.935436 282.242671 
L 380.849441 271.533974 
L 381.763446 246.109829 
L 382.677451 251.69913 
L 383.591456 280.077333 
L 384.505461 296.290864 
L 385.419466 304.079125 
L 386.333471 301.611222 
L 387.247475 287.375417 
L 388.16148 281.82138 
L 389.075485 301.774367 
L 389.98949 342.592819 
L 390.903495 342.927562 
L 391.8175 290.899757 
L 392.731505 256.49024 
L 393.64551 267.451424 
L 394.559515 289.043413 
L 395.47352 296.016392 
L 396.387525 291.328929 
L 397.301529 284.86036 
L 398.215534 285.13829 
L 400.043544 294.704015 
L 400.957549 294.559476 
L 402.785559 277.526983 
L 403.699564 273.825211 
L 404.613569 278.888205 
L 405.527574 292.981571 
L 406.441579 312.84105 
L 407.355584 335.704276 
L 408.269588 340.589888 
L 409.183593 324.245425 
L 410.097598 322.08059 
L 411.011603 352.354963 
L 411.925608 374.423358 
L 412.839613 357.529877 
L 413.753618 333.554567 
L 414.667623 331.338094 
L 415.581628 337.784967 
L 417.409638 328.313929 
L 418.323643 341.468412 
L 419.237647 359.969944 
L 420.151652 372.823637 
L 421.065657 387.296092 
L 421.979662 398.543039 
L 422.893667 393.29032 
L 425.635682 340.735768 
L 426.549687 317.860934 
L 427.463692 304.340359 
L 428.377697 309.588889 
L 429.291701 311.05481 
L 430.205706 300.664589 
L 431.119711 281.427592 
L 432.033716 268.03333 
L 432.947721 265.228178 
L 433.861726 237.606467 
L 434.775731 182.09941 
L 435.689736 173.24566 
L 436.603741 214.120646 
L 437.517746 230.153795 
L 438.431751 200.9355 
L 439.345756 181.401793 
L 441.173765 220.664176 
L 442.08777 212.035255 
L 443.001775 242.772748 
L 443.91578 297.99831 
L 444.829785 300.050996 
L 445.74379 264.78743 
L 446.657795 251.594701 
L 448.485805 312.216127 
L 449.39981 303.396373 
L 450.313814 277.135179 
L 451.227819 284.320739 
L 452.141824 320.830507 
L 453.055829 344.835572 
L 453.969834 331.155587 
L 454.883839 295.062877 
L 455.797844 270.196199 
L 456.711849 278.091163 
L 457.625854 313.989494 
L 458.539859 345.250879 
L 459.453864 343.432617 
L 460.367869 322.602451 
L 461.281873 326.983794 
L 462.195878 357.402483 
L 463.109883 370.171219 
L 464.023888 348.5431 
L 464.937893 315.520188 
L 465.851898 288.963502 
L 467.679908 213.647454 
L 468.593913 227.201768 
L 470.421923 361.738482 
L 471.335928 381.600764 
L 472.249932 339.383621 
L 473.163937 281.107607 
L 474.077942 269.518693 
L 475.905952 342.869097 
L 476.819957 334.76669 
L 477.733962 294.260803 
L 478.647967 265.207954 
L 479.561972 265.735525 
L 480.475977 288.244908 
L 481.389982 316.48181 
L 482.303986 339.93847 
L 483.217991 348.775196 
L 484.131996 329.855099 
L 485.046001 292.372643 
L 485.960006 265.724162 
L 486.874011 272.449599 
L 487.788016 306.911043 
L 488.702021 334.192064 
L 489.616026 327.741185 
L 490.530031 299.300146 
L 491.444036 278.506897 
L 492.358041 272.971576 
L 493.272045 264.0819 
L 494.18605 249.706497 
L 495.100055 247.356893 
L 496.01406 258.371044 
L 496.928065 273.026862 
L 497.84207 295.454351 
L 498.756075 320.692397 
L 499.67008 314.253871 
L 500.584085 279.734739 
L 501.49809 271.556403 
L 502.412095 296.954081 
L 503.3261 304.381851 
L 504.240104 276.891442 
L 505.154109 256.69761 
L 506.068114 277.211023 
L 506.982119 324.546217 
L 507.896124 348.495682 
L 508.810129 331.768511 
L 509.724134 308.815704 
L 510.638139 294.68085 
L 511.552144 296.708533 
L 512.466149 310.084382 
L 513.380154 318.856204 
L 514.294158 315.827448 
L 515.208163 294.689204 
L 516.122168 266.168832 
L 517.036173 244.454473 
L 517.950178 243.77556 
L 518.864183 271.366467 
L 519.778188 307.253457 
L 520.692193 316.31267 
L 522.520203 263.373786 
L 523.434208 273.490457 
L 524.348213 300.994247 
L 525.262217 323.066674 
L 526.176222 320.760249 
L 527.090227 295.686896 
L 528.004232 274.354148 
L 528.918237 280.886138 
L 529.832242 302.516876 
L 530.746247 310.761536 
L 531.660252 303.641368 
L 532.574257 300.41533 
L 534.402267 320.450021 
L 535.316271 324.042195 
L 536.230276 323.118022 
L 537.144281 322.973649 
L 538.058286 315.840782 
L 538.972291 290.672138 
L 539.886296 262.297565 
L 540.800301 263.149648 
L 541.714306 292.058733 
L 542.628311 313.218601 
L 543.542316 307.301324 
L 544.456321 285.598664 
L 545.370326 276.406581 
L 546.28433 292.872282 
L 547.198335 315.985738 
L 548.11234 321.106837 
L 549.94035 299.984782 
L 550.854355 298.869994 
L 552.682365 319.969835 
L 553.59637 320.006048 
L 554.510375 314.644309 
L 556.338385 311.627453 
L 557.252389 300.803706 
L 558.166394 281.252967 
L 559.080399 274.664255 
L 559.994404 294.753969 
L 560.908409 319.080673 
L 561.822414 317.068149 
L 562.736419 289.978768 
L 563.650424 271.184563 
L 564.564429 278.912282 
L 565.478434 301.416672 
L 566.392439 318.062013 
L 567.306443 316.816784 
L 568.220448 304.70586 
L 569.134453 298.218237 
L 570.048458 296.80796 
L 570.962463 293.364016 
L 571.876468 293.075213 
L 572.790473 295.673547 
L 573.704478 294.147608 
L 574.618483 286.756254 
L 575.532488 284.486228 
L 577.360498 311.962331 
L 578.274502 304.818221 
L 579.188507 284.83703 
L 580.102512 275.760512 
L 581.016517 284.569502 
L 581.930522 299.500009 
L 582.844527 300.377155 
L 584.672537 269.918928 
L 585.586542 272.329306 
L 586.500547 294.848202 
L 587.414552 322.769851 
L 588.328557 330.510754 
L 589.242561 306.611389 
L 590.156566 277.04589 
L 591.070571 270.932812 
L 591.984576 290.725694 
L 592.898581 317.394159 
L 593.812586 328.176991 
L 594.726591 314.181604 
L 595.640596 288.070542 
L 596.554601 277.031327 
L 597.468606 293.846835 
L 598.382611 318.208186 
L 599.296615 319.072596 
L 600.21062 297.737414 
L 601.124625 287.646204 
L 602.952635 310.348783 
L 603.86664 307.297756 
L 604.780645 295.867352 
L 605.69465 295.793888 
L 606.608655 305.358444 
L 607.52266 305.559864 
L 608.436665 297.040798 
L 609.35067 296.886317 
L 610.264674 307.774883 
L 611.178679 315.455042 
L 612.092684 310.239232 
L 613.006689 297.682831 
L 613.920694 289.178795 
L 614.834699 289.881531 
L 615.748704 297.84312 
L 617.576714 318.226537 
L 618.490719 322.342033 
L 619.404724 314.855327 
L 620.318729 301.531523 
L 621.232733 295.782443 
L 622.146738 299.856797 
L 623.060743 307.529956 
L 623.974748 308.415042 
L 624.888753 297.203861 
L 625.802758 282.865167 
L 626.716763 278.709366 
L 627.630768 289.492602 
L 628.544773 301.612576 
L 629.458778 298.415945 
L 630.372783 285.212757 
L 631.286787 281.254665 
L 632.200792 291.607431 
L 633.114797 304.68544 
L 634.028802 307.875676 
L 634.942807 300.422641 
L 635.856812 291.915629 
L 636.770817 289.950865 
L 637.684822 293.144707 
L 638.598827 295.622369 
L 639.512832 297.208673 
L 640.426837 299.346478 
L 641.340842 298.769621 
L 642.254846 295.936341 
L 643.168851 301.040209 
L 644.082856 309.288074 
L 644.996861 305.968489 
L 645.910866 292.965929 
L 646.824871 286.029653 
L 647.738876 295.01962 
L 648.652881 307.88957 
L 649.566886 307.820024 
L 650.480891 297.386503 
L 651.394896 292.37873 
L 653.222905 305.949932 
L 654.13691 303.262568 
L 655.96492 288.429311 
L 656.878925 286.636806 
L 657.79293 290.313908 
L 659.62094 301.319885 
L 660.534945 299.640421 
L 661.44895 295.737212 
L 662.362955 297.477225 
L 663.276959 300.336843 
L 664.190964 302.003278 
L 665.104969 305.187065 
L 666.018974 304.364397 
L 667.846984 290.69597 
L 668.760989 288.408929 
L 669.674994 294.542851 
L 670.588999 306.291426 
L 671.503004 311.953977 
L 672.417009 303.581437 
L 673.331014 290.750068 
L 674.245018 288.660519 
L 675.159023 296.544578 
L 676.073028 301.67662 
L 676.987033 297.516637 
L 677.901038 289.554313 
L 678.815043 288.53768 
L 679.729048 294.788103 
L 680.643053 298.490349 
L 681.557058 297.095935 
L 683.385068 292.798012 
L 684.299072 292.362895 
L 686.127082 298.597179 
L 687.041087 289.932744 
L 687.955092 275.189242 
L 688.869097 277.780761 
L 689.783102 297.941762 
L 690.697107 310.293632 
L 691.611112 304.353119 
L 692.525117 293.919414 
L 693.439122 291.149024 
L 694.353127 295.471874 
L 695.267131 301.111608 
L 696.181136 301.522195 
L 698.009146 283.325697 
L 698.923151 283.314189 
L 700.751161 303.921685 
L 701.665166 305.493269 
L 703.493176 290.252057 
L 704.407181 291.785732 
L 705.321186 303.183011 
L 706.23519 312.390638 
L 707.149195 308.762633 
L 708.0632 297.708768 
L 708.977205 291.592223 
L 709.89121 294.937354 
L 710.805215 301.824961 
L 711.71922 303.24664 
L 712.633225 299.059859 
L 713.54723 293.364825 
L 714.461235 290.817311 
L 715.37524 295.841554 
L 716.289244 306.239121 
L 717.203249 310.75406 
L 718.117254 304.395092 
L 719.031259 295.077445 
L 719.945264 291.201184 
L 720.859269 293.468563 
L 721.773274 297.516327 
L 722.687279 300.530419 
L 723.601284 301.952842 
L 724.515289 301.747237 
L 725.429294 299.767354 
L 726.343299 298.938386 
L 727.257303 302.678556 
L 728.171308 307.981071 
L 729.085313 308.757533 
L 730.913323 298.963099 
L 731.827328 298.599817 
L 733.655338 307.930603 
L 734.569343 307.654214 
L 736.397353 301.739419 
L 737.311357 296.832116 
L 738.225362 289.699755 
L 739.139367 285.248097 
L 740.053372 286.4637 
L 740.967377 290.571412 
L 742.795387 296.634762 
L 743.709392 301.857341 
L 744.623397 304.008097 
L 745.537402 295.484863 
L 746.451407 278.976868 
L 747.365412 272.284427 
L 748.279416 285.51964 
L 749.193421 308.512878 
L 750.107426 324.282521 
L 751.021431 320.16797 
L 751.935436 300.78101 
L 752.849441 284.01583 
L 753.763446 283.148872 
L 755.591456 302.238884 
L 756.505461 306.72117 
L 757.419466 305.696017 
L 758.333471 301.765305 
L 759.247475 301.543649 
L 760.16148 305.918802 
L 761.075485 308.355314 
L 761.98949 305.565221 
L 762.903495 299.274748 
L 763.8175 296.216904 
L 764.731505 302.01222 
L 765.64551 310.302006 
L 766.559515 307.736931 
L 767.47352 294.735583 
L 768.387525 287.488951 
L 769.301529 295.773495 
L 770.215534 309.794113 
L 771.129539 311.283561 
L 772.043544 297.918664 
L 772.957549 286.204534 
L 773.871554 290.117277 
L 774.785559 304.327518 
L 775.699564 309.797527 
L 776.613569 300.497786 
L 777.527574 288.27044 
L 778.441579 285.316002 
L 779.355584 296.345601 
L 780.269588 309.529426 
L 781.183593 308.576991 
L 782.097598 296.345815 
L 783.011603 288.353058 
L 783.925608 292.644032 
L 784.839613 303.004192 
L 785.753618 304.455991 
L 786.667623 294.492147 
L 787.581628 286.941557 
L 788.495633 291.773653 
L 789.409638 302.246367 
L 790.323643 303.488071 
L 791.237647 296.720958 
L 792.151652 293.910843 
L 793.065657 298.337033 
L 793.979662 301.160485 
L 794.893667 297.318013 
L 795.807672 292.002291 
L 796.721677 290.822415 
L 797.635682 293.781201 
L 798.549687 297.146563 
L 799.463692 297.834587 
L 800.377697 294.836303 
L 801.291701 290.51481 
L 802.205706 289.78535 
L 804.033716 299.38589 
L 804.947721 300.810866 
L 805.861726 298.646704 
L 806.775731 297.143337 
L 807.689736 298.983014 
L 808.603741 301.796828 
L 809.517746 302.594276 
L 810.431751 301.219523 
L 811.345756 298.472492 
L 812.25976 293.858423 
L 813.173765 290.586385 
L 814.08777 293.675806 
L 815.001775 301.045944 
L 815.91578 305.85429 
L 816.829785 304.20548 
L 817.74379 298.24264 
L 818.657795 294.149735 
L 819.5718 294.759187 
L 821.39981 303.841377 
L 822.313814 303.589629 
L 823.227819 298.506526 
L 824.141824 291.598832 
L 825.055829 288.317627 
L 825.969834 291.764066 
L 826.883839 299.25449 
L 827.797844 301.628169 
L 829.625854 295.608199 
L 830.539859 296.003985 
L 831.453864 299.303945 
L 832.367869 298.141651 
L 833.281873 291.584833 
L 834.195878 288.473347 
L 835.109883 292.883851 
L 836.023888 299.230212 
L 836.937893 301.820445 
L 837.851898 302.646618 
L 838.765903 301.118206 
L 840.593913 289.32804 
L 841.507918 288.650493 
L 843.335928 298.470344 
L 844.249932 297.985298 
L 845.163937 293.104469 
L 846.077942 292.424257 
L 846.991947 295.450867 
L 848.819957 332.752779 
L 849.733962 319.101384 
L 850.647967 291.626978 
L 851.561972 282.001378 
L 852.475977 294.499446 
L 853.389982 308.755061 
L 854.303986 307.572629 
L 855.217991 294.882304 
L 856.131996 287.800105 
L 857.046001 292.612692 
L 857.960006 301.743677 
L 858.874011 304.769355 
L 859.788016 299.143824 
L 860.702021 291.153924 
L 861.616026 289.522915 
L 863.444036 301.539152 
L 864.358041 302.775695 
L 866.18605 295.205995 
L 867.100055 294.777233 
L 868.01406 299.719704 
L 868.928065 306.543383 
L 869.84207 308.129129 
L 870.756075 303.810742 
L 871.67008 301.348972 
L 872.584085 306.450608 
L 873.49809 312.368976 
L 874.412095 306.835269 
L 875.3261 293.431707 
L 876.240104 289.408763 
L 877.154109 298.487771 
L 878.068114 306.275033 
L 878.982119 302.830343 
L 879.896124 294.671268 
L 880.810129 292.854238 
L 881.724134 298.892687 
L 882.638139 303.021551 
L 883.552144 298.463694 
L 884.466149 291.771836 
L 885.380154 290.93309 
L 887.208163 299.690885 
L 888.122168 301.548178 
L 889.036173 301.583635 
L 889.950178 300.459725 
L 890.864183 299.983875 
L 891.778188 300.51039 
L 892.692193 299.260367 
L 893.606198 295.812776 
L 894.520203 294.76666 
L 895.434208 296.971862 
L 896.348213 296.708034 
L 897.262217 292.548923 
L 898.176222 291.960738 
L 899.090227 298.20705 
L 900.004232 303.409066 
L 900.918237 302.931454 
L 901.832242 297.395801 
L 902.746247 290.87185 
L 903.660252 289.660235 
L 904.574257 294.528287 
L 905.488262 299.998747 
L 906.402267 301.09821 
L 907.316271 299.11648 
L 908.230276 297.725253 
L 909.144281 299.055651 
L 910.058286 298.570905 
L 910.972291 295.556955 
L 911.886296 294.370915 
L 912.800301 297.004272 
L 913.714306 301.18973 
L 914.628311 301.735799 
L 916.456321 293.397198 
L 917.370326 292.007869 
L 918.28433 293.142527 
L 919.198335 295.138259 
L 920.11234 295.931713 
L 921.026345 296.219267 
L 921.94035 295.837406 
L 922.854355 294.326259 
L 923.76836 294.597769 
L 924.682365 296.18506 
L 925.59637 295.728323 
L 926.510375 292.742241 
L 927.42438 291.650267 
L 929.252389 298.756338 
L 930.166394 299.522758 
L 931.994404 291.311528 
L 932.908409 292.043423 
L 934.736419 301.700304 
L 935.650424 300.15165 
L 936.564429 296.022396 
L 937.478434 294.550273 
L 938.392439 296.429573 
L 939.306443 300.323466 
L 940.220448 303.220105 
L 941.134453 301.699305 
L 942.048458 297.963055 
L 942.962463 298.143566 
L 943.876468 301.774226 
L 944.790473 304.384743 
L 945.704478 303.89328 
L 946.618483 300.75175 
L 947.532488 298.842118 
L 948.446493 302.211429 
L 949.360498 308.792561 
L 950.274502 309.854109 
L 951.188507 303.29271 
L 952.102512 297.610105 
L 953.016517 298.390175 
L 953.930522 302.760767 
L 954.844527 305.301629 
L 955.758532 303.758031 
L 956.672537 300.147336 
L 957.586542 298.111528 
L 958.500547 298.986297 
L 959.414552 300.938859 
L 960.328557 301.549009 
L 961.242561 299.946378 
L 962.156566 297.094979 
L 963.070571 296.54663 
L 963.984576 299.692638 
L 964.898581 301.825103 
L 965.812586 299.835614 
L 966.726591 294.949697 
L 967.640596 292.287958 
L 969.468606 296.994872 
L 970.382611 296.290716 
L 971.296615 294.365361 
L 972.21062 293.002759 
L 973.124625 293.533486 
L 974.03863 295.919699 
L 974.952635 297.841299 
L 975.86664 297.060536 
L 976.780645 294.975082 
L 977.69465 293.874139 
L 978.608655 294.502492 
L 979.52266 296.841986 
L 980.436665 298.44926 
L 981.35067 297.297087 
L 982.264674 294.769224 
L 983.178679 294.703837 
L 984.092684 297.952763 
L 985.006689 300.320883 
L 985.920694 299.000408 
L 986.834699 296.177655 
L 987.748704 295.287887 
L 988.662709 296.611891 
L 989.576714 297.696715 
L 991.404724 297.43189 
L 992.318729 297.878256 
L 993.232733 298.466437 
L 994.146738 298.370513 
L 995.060743 297.807783 
L 995.974748 297.380111 
L 996.888753 297.681069 
L 997.802758 298.675533 
L 998.716763 299.406554 
L 999.630768 299.283143 
L 1001.458778 297.44134 
L 1002.372783 297.615122 
L 1003.286787 298.613897 
L 1004.200792 299.228284 
L 1005.114797 298.917753 
L 1006.028802 298.198088 
L 1006.942807 297.885318 
L 1007.856812 298.284482 
L 1008.770817 298.870089 
L 1009.684822 299.006836 
L 1011.512832 298.483773 
L 1012.426837 298.590055 
L 1013.340842 298.853234 
L 1014.254846 298.909417 
L 1016.082856 298.582183 
L 1023.394896 298.379183 
L 1026.13691 298.129099 
L 1027.96492 298.048339 
L 1030.706935 297.990549 
L 1033.44895 297.811362 
L 1034.362955 297.833294 
L 1034.362955 297.833294 
" clip-path="url(#p8b1aa84eab)" style="fill: none; stroke: #0c5da5; stroke-width: 2; stroke-linecap: square"/>
   </g>
   <g id="patch_3">
    <path d="M 75.6175 520.7175 
L 75.6175 21.7575 
" style="fill: none; stroke: #000000; stroke-linejoin: miter; stroke-linecap: square"/>
   </g>
   <g id="patch_4">
    <path d="M 1080.0175 520.7175 
L 1080.0175 21.7575 
" style="fill: none; stroke: #000000; stroke-linejoin: miter; stroke-linecap: square"/>
   </g>
   <g id="patch_5">
    <path d="M 75.6175 520.7175 
L 1080.0175 520.7175 
" style="fill: none; stroke: #000000; stroke-linejoin: miter; stroke-linecap: square"/>
   </g>
   <g id="patch_6">
    <path d="M 75.6175 21.7575 
L 1080.0175 21.7575 
" style="fill: none; stroke: #000000; stroke-linejoin: miter; stroke-linecap: square"/>
   </g>
   <g id="text_20">
    <!-- Northridge-01 Record no. 1050 -->
    <g transform="translate(453.7875 15.7575) scale(0.16 -0.16)">
     <defs>
      <path id="DejaVuSans-4e" d="M 628 4666 
L 1478 4666 
L 3547 763 
L 3547 4666 
L 4159 4666 
L 4159 0 
L 3309 0 
L 1241 3903 
L 1241 0 
L 628 0 
L 628 4666 
z
" transform="scale(0.015625)"/>
      <path id="DejaVuSans-6f" d="M 1959 3097 
Q 1497 3097 1228 2736 
Q 959 2375 959 1747 
Q 959 1119 1226 758 
Q 1494 397 1959 397 
Q 2419 397 2687 759 
Q 2956 1122 2956 1747 
Q 2956 2369 2687 2733 
Q 2419 3097 1959 3097 
z
M 1959 3584 
Q 2709 3584 3137 3096 
Q 3566 2609 3566 1747 
Q 3566 888 3137 398 
Q 2709 -91 1959 -91 
Q 1206 -91 779 398 
Q 353 888 353 1747 
Q 353 2609 779 3096 
Q 1206 3584 1959 3584 
z
" transform="scale(0.015625)"/>
      <path id="DejaVuSans-72" d="M 2631 2963 
Q 2534 3019 2420 3045 
Q 2306 3072 2169 3072 
Q 1681 3072 1420 2755 
Q 1159 2438 1159 1844 
L 1159 0 
L 581 0 
L 581 3500 
L 1159 3500 
L 1159 2956 
Q 1341 3275 1631 3429 
Q 1922 3584 2338 3584 
Q 2397 3584 2469 3576 
Q 2541 3569 2628 3553 
L 2631 2963 
z
" transform="scale(0.015625)"/>
      <path id="DejaVuSans-74" d="M 1172 4494 
L 1172 3500 
L 2356 3500 
L 2356 3053 
L 1172 3053 
L 1172 1153 
Q 1172 725 1289 603 
Q 1406 481 1766 481 
L 2356 481 
L 2356 0 
L 1766 0 
Q 1100 0 847 248 
Q 594 497 594 1153 
L 594 3053 
L 172 3053 
L 172 3500 
L 594 3500 
L 594 4494 
L 1172 4494 
z
" transform="scale(0.015625)"/>
      <path id="DejaVuSans-68" d="M 3513 2113 
L 3513 0 
L 2938 0 
L 2938 2094 
Q 2938 2591 2744 2837 
Q 2550 3084 2163 3084 
Q 1697 3084 1428 2787 
Q 1159 2491 1159 1978 
L 1159 0 
L 581 0 
L 581 4863 
L 1159 4863 
L 1159 2956 
Q 1366 3272 1645 3428 
Q 1925 3584 2291 3584 
Q 2894 3584 3203 3211 
Q 3513 2838 3513 2113 
z
" transform="scale(0.015625)"/>
      <path id="DejaVuSans-64" d="M 2906 2969 
L 2906 4863 
L 3481 4863 
L 3481 0 
L 2906 0 
L 2906 525 
Q 2725 213 2448 61 
Q 2172 -91 1784 -91 
Q 1150 -91 751 415 
Q 353 922 353 1747 
Q 353 2572 751 3078 
Q 1150 3584 1784 3584 
Q 2172 3584 2448 3432 
Q 2725 3281 2906 2969 
z
M 947 1747 
Q 947 1113 1208 752 
Q 1469 391 1925 391 
Q 2381 391 2643 752 
Q 2906 1113 2906 1747 
Q 2906 2381 2643 2742 
Q 2381 3103 1925 3103 
Q 1469 3103 1208 2742 
Q 947 2381 947 1747 
z
" transform="scale(0.015625)"/>
      <path id="DejaVuSans-67" d="M 2906 1791 
Q 2906 2416 2648 2759 
Q 2391 3103 1925 3103 
Q 1463 3103 1205 2759 
Q 947 2416 947 1791 
Q 947 1169 1205 825 
Q 1463 481 1925 481 
Q 2391 481 2648 825 
Q 2906 1169 2906 1791 
z
M 3481 434 
Q 3481 -459 3084 -895 
Q 2688 -1331 1869 -1331 
Q 1566 -1331 1297 -1286 
Q 1028 -1241 775 -1147 
L 775 -588 
Q 1028 -725 1275 -790 
Q 1522 -856 1778 -856 
Q 2344 -856 2625 -561 
Q 2906 -266 2906 331 
L 2906 616 
Q 2728 306 2450 153 
Q 2172 0 1784 0 
Q 1141 0 747 490 
Q 353 981 353 1791 
Q 353 2603 747 3093 
Q 1141 3584 1784 3584 
Q 2172 3584 2450 3431 
Q 2728 3278 2906 2969 
L 2906 3500 
L 3481 3500 
L 3481 434 
z
" transform="scale(0.015625)"/>
      <path id="DejaVuSans-2d" d="M 313 2009 
L 1997 2009 
L 1997 1497 
L 313 1497 
L 313 2009 
z
" transform="scale(0.015625)"/>
      <path id="DejaVuSans-63" d="M 3122 3366 
L 3122 2828 
Q 2878 2963 2633 3030 
Q 2388 3097 2138 3097 
Q 1578 3097 1268 2742 
Q 959 2388 959 1747 
Q 959 1106 1268 751 
Q 1578 397 2138 397 
Q 2388 397 2633 464 
Q 2878 531 3122 666 
L 3122 134 
Q 2881 22 2623 -34 
Q 2366 -91 2075 -91 
Q 1284 -91 818 406 
Q 353 903 353 1747 
Q 353 2603 823 3093 
Q 1294 3584 2113 3584 
Q 2378 3584 2631 3529 
Q 2884 3475 3122 3366 
z
" transform="scale(0.015625)"/>
      <path id="DejaVuSans-6e" d="M 3513 2113 
L 3513 0 
L 2938 0 
L 2938 2094 
Q 2938 2591 2744 2837 
Q 2550 3084 2163 3084 
Q 1697 3084 1428 2787 
Q 1159 2491 1159 1978 
L 1159 0 
L 581 0 
L 581 3500 
L 1159 3500 
L 1159 2956 
Q 1366 3272 1645 3428 
Q 1925 3584 2291 3584 
Q 2894 3584 3203 3211 
Q 3513 2838 3513 2113 
z
" transform="scale(0.015625)"/>
     </defs>
     <use xlink:href="#DejaVuSans-4e"/>
     <use xlink:href="#DejaVuSans-6f" x="74.804688"/>
     <use xlink:href="#DejaVuSans-72" x="135.986328"/>
     <use xlink:href="#DejaVuSans-74" x="177.099609"/>
     <use xlink:href="#DejaVuSans-68" x="216.308594"/>
     <use xlink:href="#DejaVuSans-72" x="279.6875"/>
     <use xlink:href="#DejaVuSans-69" x="320.800781"/>
     <use xlink:href="#DejaVuSans-64" x="348.583984"/>
     <use xlink:href="#DejaVuSans-67" x="412.060547"/>
     <use xlink:href="#DejaVuSans-65" x="475.537109"/>
     <use xlink:href="#DejaVuSans-2d" x="537.060547"/>
     <use xlink:href="#DejaVuSans-30" x="573.144531"/>
     <use xlink:href="#DejaVuSans-31" x="636.767578"/>
     <use xlink:href="#DejaVuSans-20" x="700.390625"/>
     <use xlink:href="#DejaVuSans-52" x="732.177734"/>
     <use xlink:href="#DejaVuSans-65" x="797.160156"/>
     <use xlink:href="#DejaVuSans-63" x="858.683594"/>
     <use xlink:href="#DejaVuSans-6f" x="913.664062"/>
     <use xlink:href="#DejaVuSans-72" x="974.845703"/>
     <use xlink:href="#DejaVuSans-64" x="1014.208984"/>
     <use xlink:href="#DejaVuSans-20" x="1077.685547"/>
     <use xlink:href="#DejaVuSans-6e" x="1109.472656"/>
     <use xlink:href="#DejaVuSans-6f" x="1172.851562"/>
     <use xlink:href="#DejaVuSans-2e" x="1232.283203"/>
     <use xlink:href="#DejaVuSans-20" x="1264.070312"/>
     <use xlink:href="#DejaVuSans-31" x="1295.857422"/>
     <use xlink:href="#DejaVuSans-30" x="1359.480469"/>
     <use xlink:href="#DejaVuSans-35" x="1423.103516"/>
     <use xlink:href="#DejaVuSans-30" x="1486.726562"/>
    </g>
   </g>
  </g>
 </g>
 <defs>
  <clipPath id="p8b1aa84eab">
   <rect x="75.6175" y="21.7575" width="1004.4" height="498.96"/>
  </clipPath>
 </defs>
</svg>
