<?xml version="1.0" encoding="utf-8" standalone="no"?>
<!DOCTYPE svg PUBLIC "-//W3C//DTD SVG 1.1//EN"
  "http://www.w3.org/Graphics/SVG/1.1/DTD/svg11.dtd">
<svg xmlns:xlink="http://www.w3.org/1999/xlink" width="1083.6175pt" height="562.7875pt" viewBox="0 0 1083.6175 562.7875" xmlns="http://www.w3.org/2000/svg" version="1.1">
 <metadata>
  <rdf:RDF xmlns:dc="http://purl.org/dc/elements/1.1/" xmlns:cc="http://creativecommons.org/ns#" xmlns:rdf="http://www.w3.org/1999/02/22-rdf-syntax-ns#">
   <cc:Work>
    <dc:type rdf:resource="http://purl.org/dc/dcmitype/StillImage"/>
    <dc:date>2023-06-10T16:04:30.760173</dc:date>
    <dc:format>image/svg+xml</dc:format>
    <dc:creator>
     <cc:Agent>
      <dc:title>Matplotlib v3.7.1, https://matplotlib.org/</dc:title>
     </cc:Agent>
    </dc:creator>
   </cc:Work>
  </rdf:RDF>
 </metadata>
 <defs>
  <style type="text/css">*{stroke-linejoin: round; stroke-linecap: butt}</style>
 </defs>
 <g id="figure_1">
  <g id="patch_1">
   <path d="M 0 562.7875 
L 1083.6175 562.7875 
L 1083.6175 0 
L 0 0 
z
" style="fill: #ffffff"/>
  </g>
  <g id="axes_1">
   <g id="patch_2">
    <path d="M 75.6175 520.7175 
L 1080.0175 520.7175 
L 1080.0175 21.7575 
L 75.6175 21.7575 
z
" style="fill: #ffffff"/>
   </g>
   <g id="matplotlib.axis_1">
    <g id="xtick_1">
     <g id="line2d_1">
      <path d="M 121.272045 520.7175 
L 121.272045 21.7575 
" clip-path="url(#p0ece3e8db3)" style="fill: none; stroke-dasharray: 1.85,0.8; stroke-dashoffset: 0; stroke: #000000; stroke-opacity: 0.5; stroke-width: 0.5"/>
     </g>
     <g id="line2d_2">
      <defs>
       <path id="m4da50dd316" d="M 0 0 
L 0 -6 
" style="stroke: #000000"/>
      </defs>
      <g>
       <use xlink:href="#m4da50dd316" x="121.272045" y="520.7175" style="stroke: #000000"/>
      </g>
     </g>
     <g id="line2d_3">
      <defs>
       <path id="mb3676b4dd6" d="M 0 0 
L 0 6 
" style="stroke: #000000"/>
      </defs>
      <g>
       <use xlink:href="#mb3676b4dd6" x="121.272045" y="21.7575" style="stroke: #000000"/>
      </g>
     </g>
     <g id="text_1">
      <!-- 0.0 -->
      <g transform="translate(108.549545 536.375) scale(0.16 -0.16)">
       <defs>
        <path id="DejaVuSans-30" d="M 2034 4250 
Q 1547 4250 1301 3770 
Q 1056 3291 1056 2328 
Q 1056 1369 1301 889 
Q 1547 409 2034 409 
Q 2525 409 2770 889 
Q 3016 1369 3016 2328 
Q 3016 3291 2770 3770 
Q 2525 4250 2034 4250 
z
M 2034 4750 
Q 2819 4750 3233 4129 
Q 3647 3509 3647 2328 
Q 3647 1150 3233 529 
Q 2819 -91 2034 -91 
Q 1250 -91 836 529 
Q 422 1150 422 2328 
Q 422 3509 836 4129 
Q 1250 4750 2034 4750 
z
" transform="scale(0.015625)"/>
        <path id="DejaVuSans-2e" d="M 684 794 
L 1344 794 
L 1344 0 
L 684 0 
L 684 794 
z
" transform="scale(0.015625)"/>
       </defs>
       <use xlink:href="#DejaVuSans-30"/>
       <use xlink:href="#DejaVuSans-2e" x="63.623047"/>
       <use xlink:href="#DejaVuSans-30" x="95.410156"/>
      </g>
     </g>
    </g>
    <g id="xtick_2">
     <g id="line2d_4">
      <path d="M 235.52266 520.7175 
L 235.52266 21.7575 
" clip-path="url(#p0ece3e8db3)" style="fill: none; stroke-dasharray: 1.85,0.8; stroke-dashoffset: 0; stroke: #000000; stroke-opacity: 0.5; stroke-width: 0.5"/>
     </g>
     <g id="line2d_5">
      <g>
       <use xlink:href="#m4da50dd316" x="235.52266" y="520.7175" style="stroke: #000000"/>
      </g>
     </g>
     <g id="line2d_6">
      <g>
       <use xlink:href="#mb3676b4dd6" x="235.52266" y="21.7575" style="stroke: #000000"/>
      </g>
     </g>
     <g id="text_2">
      <!-- 2.5 -->
      <g transform="translate(222.80016 536.375) scale(0.16 -0.16)">
       <defs>
        <path id="DejaVuSans-32" d="M 1228 531 
L 3431 531 
L 3431 0 
L 469 0 
L 469 531 
Q 828 903 1448 1529 
Q 2069 2156 2228 2338 
Q 2531 2678 2651 2914 
Q 2772 3150 2772 3378 
Q 2772 3750 2511 3984 
Q 2250 4219 1831 4219 
Q 1534 4219 1204 4116 
Q 875 4013 500 3803 
L 500 4441 
Q 881 4594 1212 4672 
Q 1544 4750 1819 4750 
Q 2544 4750 2975 4387 
Q 3406 4025 3406 3419 
Q 3406 3131 3298 2873 
Q 3191 2616 2906 2266 
Q 2828 2175 2409 1742 
Q 1991 1309 1228 531 
z
" transform="scale(0.015625)"/>
        <path id="DejaVuSans-35" d="M 691 4666 
L 3169 4666 
L 3169 4134 
L 1269 4134 
L 1269 2991 
Q 1406 3038 1543 3061 
Q 1681 3084 1819 3084 
Q 2600 3084 3056 2656 
Q 3513 2228 3513 1497 
Q 3513 744 3044 326 
Q 2575 -91 1722 -91 
Q 1428 -91 1123 -41 
Q 819 9 494 109 
L 494 744 
Q 775 591 1075 516 
Q 1375 441 1709 441 
Q 2250 441 2565 725 
Q 2881 1009 2881 1497 
Q 2881 1984 2565 2268 
Q 2250 2553 1709 2553 
Q 1456 2553 1204 2497 
Q 953 2441 691 2322 
L 691 4666 
z
" transform="scale(0.015625)"/>
       </defs>
       <use xlink:href="#DejaVuSans-32"/>
       <use xlink:href="#DejaVuSans-2e" x="63.623047"/>
       <use xlink:href="#DejaVuSans-35" x="95.410156"/>
      </g>
     </g>
    </g>
    <g id="xtick_3">
     <g id="line2d_7">
      <path d="M 349.773274 520.7175 
L 349.773274 21.7575 
" clip-path="url(#p0ece3e8db3)" style="fill: none; stroke-dasharray: 1.85,0.8; stroke-dashoffset: 0; stroke: #000000; stroke-opacity: 0.5; stroke-width: 0.5"/>
     </g>
     <g id="line2d_8">
      <g>
       <use xlink:href="#m4da50dd316" x="349.773274" y="520.7175" style="stroke: #000000"/>
      </g>
     </g>
     <g id="line2d_9">
      <g>
       <use xlink:href="#mb3676b4dd6" x="349.773274" y="21.7575" style="stroke: #000000"/>
      </g>
     </g>
     <g id="text_3">
      <!-- 5.0 -->
      <g transform="translate(337.050774 536.375) scale(0.16 -0.16)">
       <use xlink:href="#DejaVuSans-35"/>
       <use xlink:href="#DejaVuSans-2e" x="63.623047"/>
       <use xlink:href="#DejaVuSans-30" x="95.410156"/>
      </g>
     </g>
    </g>
    <g id="xtick_4">
     <g id="line2d_10">
      <path d="M 464.023888 520.7175 
L 464.023888 21.7575 
" clip-path="url(#p0ece3e8db3)" style="fill: none; stroke-dasharray: 1.85,0.8; stroke-dashoffset: 0; stroke: #000000; stroke-opacity: 0.5; stroke-width: 0.5"/>
     </g>
     <g id="line2d_11">
      <g>
       <use xlink:href="#m4da50dd316" x="464.023888" y="520.7175" style="stroke: #000000"/>
      </g>
     </g>
     <g id="line2d_12">
      <g>
       <use xlink:href="#mb3676b4dd6" x="464.023888" y="21.7575" style="stroke: #000000"/>
      </g>
     </g>
     <g id="text_4">
      <!-- 7.5 -->
      <g transform="translate(451.301388 536.375) scale(0.16 -0.16)">
       <defs>
        <path id="DejaVuSans-37" d="M 525 4666 
L 3525 4666 
L 3525 4397 
L 1831 0 
L 1172 0 
L 2766 4134 
L 525 4134 
L 525 4666 
z
" transform="scale(0.015625)"/>
       </defs>
       <use xlink:href="#DejaVuSans-37"/>
       <use xlink:href="#DejaVuSans-2e" x="63.623047"/>
       <use xlink:href="#DejaVuSans-35" x="95.410156"/>
      </g>
     </g>
    </g>
    <g id="xtick_5">
     <g id="line2d_13">
      <path d="M 578.274502 520.7175 
L 578.274502 21.7575 
" clip-path="url(#p0ece3e8db3)" style="fill: none; stroke-dasharray: 1.85,0.8; stroke-dashoffset: 0; stroke: #000000; stroke-opacity: 0.5; stroke-width: 0.5"/>
     </g>
     <g id="line2d_14">
      <g>
       <use xlink:href="#m4da50dd316" x="578.274502" y="520.7175" style="stroke: #000000"/>
      </g>
     </g>
     <g id="line2d_15">
      <g>
       <use xlink:href="#mb3676b4dd6" x="578.274502" y="21.7575" style="stroke: #000000"/>
      </g>
     </g>
     <g id="text_5">
      <!-- 10.0 -->
      <g transform="translate(560.462002 536.375) scale(0.16 -0.16)">
       <defs>
        <path id="DejaVuSans-31" d="M 794 531 
L 1825 531 
L 1825 4091 
L 703 3866 
L 703 4441 
L 1819 4666 
L 2450 4666 
L 2450 531 
L 3481 531 
L 3481 0 
L 794 0 
L 794 531 
z
" transform="scale(0.015625)"/>
       </defs>
       <use xlink:href="#DejaVuSans-31"/>
       <use xlink:href="#DejaVuSans-30" x="63.623047"/>
       <use xlink:href="#DejaVuSans-2e" x="127.246094"/>
       <use xlink:href="#DejaVuSans-30" x="159.033203"/>
      </g>
     </g>
    </g>
    <g id="xtick_6">
     <g id="line2d_16">
      <path d="M 692.525117 520.7175 
L 692.525117 21.7575 
" clip-path="url(#p0ece3e8db3)" style="fill: none; stroke-dasharray: 1.85,0.8; stroke-dashoffset: 0; stroke: #000000; stroke-opacity: 0.5; stroke-width: 0.5"/>
     </g>
     <g id="line2d_17">
      <g>
       <use xlink:href="#m4da50dd316" x="692.525117" y="520.7175" style="stroke: #000000"/>
      </g>
     </g>
     <g id="line2d_18">
      <g>
       <use xlink:href="#mb3676b4dd6" x="692.525117" y="21.7575" style="stroke: #000000"/>
      </g>
     </g>
     <g id="text_6">
      <!-- 12.5 -->
      <g transform="translate(674.712617 536.375) scale(0.16 -0.16)">
       <use xlink:href="#DejaVuSans-31"/>
       <use xlink:href="#DejaVuSans-32" x="63.623047"/>
       <use xlink:href="#DejaVuSans-2e" x="127.246094"/>
       <use xlink:href="#DejaVuSans-35" x="159.033203"/>
      </g>
     </g>
    </g>
    <g id="xtick_7">
     <g id="line2d_19">
      <path d="M 806.775731 520.7175 
L 806.775731 21.7575 
" clip-path="url(#p0ece3e8db3)" style="fill: none; stroke-dasharray: 1.85,0.8; stroke-dashoffset: 0; stroke: #000000; stroke-opacity: 0.5; stroke-width: 0.5"/>
     </g>
     <g id="line2d_20">
      <g>
       <use xlink:href="#m4da50dd316" x="806.775731" y="520.7175" style="stroke: #000000"/>
      </g>
     </g>
     <g id="line2d_21">
      <g>
       <use xlink:href="#mb3676b4dd6" x="806.775731" y="21.7575" style="stroke: #000000"/>
      </g>
     </g>
     <g id="text_7">
      <!-- 15.0 -->
      <g transform="translate(788.963231 536.375) scale(0.16 -0.16)">
       <use xlink:href="#DejaVuSans-31"/>
       <use xlink:href="#DejaVuSans-35" x="63.623047"/>
       <use xlink:href="#DejaVuSans-2e" x="127.246094"/>
       <use xlink:href="#DejaVuSans-30" x="159.033203"/>
      </g>
     </g>
    </g>
    <g id="xtick_8">
     <g id="line2d_22">
      <path d="M 921.026345 520.7175 
L 921.026345 21.7575 
" clip-path="url(#p0ece3e8db3)" style="fill: none; stroke-dasharray: 1.85,0.8; stroke-dashoffset: 0; stroke: #000000; stroke-opacity: 0.5; stroke-width: 0.5"/>
     </g>
     <g id="line2d_23">
      <g>
       <use xlink:href="#m4da50dd316" x="921.026345" y="520.7175" style="stroke: #000000"/>
      </g>
     </g>
     <g id="line2d_24">
      <g>
       <use xlink:href="#mb3676b4dd6" x="921.026345" y="21.7575" style="stroke: #000000"/>
      </g>
     </g>
     <g id="text_8">
      <!-- 17.5 -->
      <g transform="translate(903.213845 536.375) scale(0.16 -0.16)">
       <use xlink:href="#DejaVuSans-31"/>
       <use xlink:href="#DejaVuSans-37" x="63.623047"/>
       <use xlink:href="#DejaVuSans-2e" x="127.246094"/>
       <use xlink:href="#DejaVuSans-35" x="159.033203"/>
      </g>
     </g>
    </g>
    <g id="xtick_9">
     <g id="line2d_25">
      <path d="M 1035.276959 520.7175 
L 1035.276959 21.7575 
" clip-path="url(#p0ece3e8db3)" style="fill: none; stroke-dasharray: 1.85,0.8; stroke-dashoffset: 0; stroke: #000000; stroke-opacity: 0.5; stroke-width: 0.5"/>
     </g>
     <g id="line2d_26">
      <g>
       <use xlink:href="#m4da50dd316" x="1035.276959" y="520.7175" style="stroke: #000000"/>
      </g>
     </g>
     <g id="line2d_27">
      <g>
       <use xlink:href="#mb3676b4dd6" x="1035.276959" y="21.7575" style="stroke: #000000"/>
      </g>
     </g>
     <g id="text_9">
      <!-- 20.0 -->
      <g transform="translate(1017.464459 536.375) scale(0.16 -0.16)">
       <use xlink:href="#DejaVuSans-32"/>
       <use xlink:href="#DejaVuSans-30" x="63.623047"/>
       <use xlink:href="#DejaVuSans-2e" x="127.246094"/>
       <use xlink:href="#DejaVuSans-30" x="159.033203"/>
      </g>
     </g>
    </g>
    <g id="xtick_10">
     <g id="line2d_28">
      <defs>
       <path id="m5e5aaeeb6e" d="M 0 0 
L 0 -3 
" style="stroke: #000000"/>
      </defs>
      <g>
       <use xlink:href="#m5e5aaeeb6e" x="98.421923" y="520.7175" style="stroke: #000000"/>
      </g>
     </g>
     <g id="line2d_29">
      <defs>
       <path id="m07be822106" d="M 0 0 
L 0 3 
" style="stroke: #000000"/>
      </defs>
      <g>
       <use xlink:href="#m07be822106" x="98.421923" y="21.7575" style="stroke: #000000"/>
      </g>
     </g>
    </g>
    <g id="xtick_11">
     <g id="line2d_30">
      <g>
       <use xlink:href="#m5e5aaeeb6e" x="144.122168" y="520.7175" style="stroke: #000000"/>
      </g>
     </g>
     <g id="line2d_31">
      <g>
       <use xlink:href="#m07be822106" x="144.122168" y="21.7575" style="stroke: #000000"/>
      </g>
     </g>
    </g>
    <g id="xtick_12">
     <g id="line2d_32">
      <g>
       <use xlink:href="#m5e5aaeeb6e" x="166.972291" y="520.7175" style="stroke: #000000"/>
      </g>
     </g>
     <g id="line2d_33">
      <g>
       <use xlink:href="#m07be822106" x="166.972291" y="21.7575" style="stroke: #000000"/>
      </g>
     </g>
    </g>
    <g id="xtick_13">
     <g id="line2d_34">
      <g>
       <use xlink:href="#m5e5aaeeb6e" x="189.822414" y="520.7175" style="stroke: #000000"/>
      </g>
     </g>
     <g id="line2d_35">
      <g>
       <use xlink:href="#m07be822106" x="189.822414" y="21.7575" style="stroke: #000000"/>
      </g>
     </g>
    </g>
    <g id="xtick_14">
     <g id="line2d_36">
      <g>
       <use xlink:href="#m5e5aaeeb6e" x="212.672537" y="520.7175" style="stroke: #000000"/>
      </g>
     </g>
     <g id="line2d_37">
      <g>
       <use xlink:href="#m07be822106" x="212.672537" y="21.7575" style="stroke: #000000"/>
      </g>
     </g>
    </g>
    <g id="xtick_15">
     <g id="line2d_38">
      <g>
       <use xlink:href="#m5e5aaeeb6e" x="258.372783" y="520.7175" style="stroke: #000000"/>
      </g>
     </g>
     <g id="line2d_39">
      <g>
       <use xlink:href="#m07be822106" x="258.372783" y="21.7575" style="stroke: #000000"/>
      </g>
     </g>
    </g>
    <g id="xtick_16">
     <g id="line2d_40">
      <g>
       <use xlink:href="#m5e5aaeeb6e" x="281.222905" y="520.7175" style="stroke: #000000"/>
      </g>
     </g>
     <g id="line2d_41">
      <g>
       <use xlink:href="#m07be822106" x="281.222905" y="21.7575" style="stroke: #000000"/>
      </g>
     </g>
    </g>
    <g id="xtick_17">
     <g id="line2d_42">
      <g>
       <use xlink:href="#m5e5aaeeb6e" x="304.073028" y="520.7175" style="stroke: #000000"/>
      </g>
     </g>
     <g id="line2d_43">
      <g>
       <use xlink:href="#m07be822106" x="304.073028" y="21.7575" style="stroke: #000000"/>
      </g>
     </g>
    </g>
    <g id="xtick_18">
     <g id="line2d_44">
      <g>
       <use xlink:href="#m5e5aaeeb6e" x="326.923151" y="520.7175" style="stroke: #000000"/>
      </g>
     </g>
     <g id="line2d_45">
      <g>
       <use xlink:href="#m07be822106" x="326.923151" y="21.7575" style="stroke: #000000"/>
      </g>
     </g>
    </g>
    <g id="xtick_19">
     <g id="line2d_46">
      <g>
       <use xlink:href="#m5e5aaeeb6e" x="372.623397" y="520.7175" style="stroke: #000000"/>
      </g>
     </g>
     <g id="line2d_47">
      <g>
       <use xlink:href="#m07be822106" x="372.623397" y="21.7575" style="stroke: #000000"/>
      </g>
     </g>
    </g>
    <g id="xtick_20">
     <g id="line2d_48">
      <g>
       <use xlink:href="#m5e5aaeeb6e" x="395.47352" y="520.7175" style="stroke: #000000"/>
      </g>
     </g>
     <g id="line2d_49">
      <g>
       <use xlink:href="#m07be822106" x="395.47352" y="21.7575" style="stroke: #000000"/>
      </g>
     </g>
    </g>
    <g id="xtick_21">
     <g id="line2d_50">
      <g>
       <use xlink:href="#m5e5aaeeb6e" x="418.323643" y="520.7175" style="stroke: #000000"/>
      </g>
     </g>
     <g id="line2d_51">
      <g>
       <use xlink:href="#m07be822106" x="418.323643" y="21.7575" style="stroke: #000000"/>
      </g>
     </g>
    </g>
    <g id="xtick_22">
     <g id="line2d_52">
      <g>
       <use xlink:href="#m5e5aaeeb6e" x="441.173765" y="520.7175" style="stroke: #000000"/>
      </g>
     </g>
     <g id="line2d_53">
      <g>
       <use xlink:href="#m07be822106" x="441.173765" y="21.7575" style="stroke: #000000"/>
      </g>
     </g>
    </g>
    <g id="xtick_23">
     <g id="line2d_54">
      <g>
       <use xlink:href="#m5e5aaeeb6e" x="486.874011" y="520.7175" style="stroke: #000000"/>
      </g>
     </g>
     <g id="line2d_55">
      <g>
       <use xlink:href="#m07be822106" x="486.874011" y="21.7575" style="stroke: #000000"/>
      </g>
     </g>
    </g>
    <g id="xtick_24">
     <g id="line2d_56">
      <g>
       <use xlink:href="#m5e5aaeeb6e" x="509.724134" y="520.7175" style="stroke: #000000"/>
      </g>
     </g>
     <g id="line2d_57">
      <g>
       <use xlink:href="#m07be822106" x="509.724134" y="21.7575" style="stroke: #000000"/>
      </g>
     </g>
    </g>
    <g id="xtick_25">
     <g id="line2d_58">
      <g>
       <use xlink:href="#m5e5aaeeb6e" x="532.574257" y="520.7175" style="stroke: #000000"/>
      </g>
     </g>
     <g id="line2d_59">
      <g>
       <use xlink:href="#m07be822106" x="532.574257" y="21.7575" style="stroke: #000000"/>
      </g>
     </g>
    </g>
    <g id="xtick_26">
     <g id="line2d_60">
      <g>
       <use xlink:href="#m5e5aaeeb6e" x="555.42438" y="520.7175" style="stroke: #000000"/>
      </g>
     </g>
     <g id="line2d_61">
      <g>
       <use xlink:href="#m07be822106" x="555.42438" y="21.7575" style="stroke: #000000"/>
      </g>
     </g>
    </g>
    <g id="xtick_27">
     <g id="line2d_62">
      <g>
       <use xlink:href="#m5e5aaeeb6e" x="601.124625" y="520.7175" style="stroke: #000000"/>
      </g>
     </g>
     <g id="line2d_63">
      <g>
       <use xlink:href="#m07be822106" x="601.124625" y="21.7575" style="stroke: #000000"/>
      </g>
     </g>
    </g>
    <g id="xtick_28">
     <g id="line2d_64">
      <g>
       <use xlink:href="#m5e5aaeeb6e" x="623.974748" y="520.7175" style="stroke: #000000"/>
      </g>
     </g>
     <g id="line2d_65">
      <g>
       <use xlink:href="#m07be822106" x="623.974748" y="21.7575" style="stroke: #000000"/>
      </g>
     </g>
    </g>
    <g id="xtick_29">
     <g id="line2d_66">
      <g>
       <use xlink:href="#m5e5aaeeb6e" x="646.824871" y="520.7175" style="stroke: #000000"/>
      </g>
     </g>
     <g id="line2d_67">
      <g>
       <use xlink:href="#m07be822106" x="646.824871" y="21.7575" style="stroke: #000000"/>
      </g>
     </g>
    </g>
    <g id="xtick_30">
     <g id="line2d_68">
      <g>
       <use xlink:href="#m5e5aaeeb6e" x="669.674994" y="520.7175" style="stroke: #000000"/>
      </g>
     </g>
     <g id="line2d_69">
      <g>
       <use xlink:href="#m07be822106" x="669.674994" y="21.7575" style="stroke: #000000"/>
      </g>
     </g>
    </g>
    <g id="xtick_31">
     <g id="line2d_70">
      <g>
       <use xlink:href="#m5e5aaeeb6e" x="715.37524" y="520.7175" style="stroke: #000000"/>
      </g>
     </g>
     <g id="line2d_71">
      <g>
       <use xlink:href="#m07be822106" x="715.37524" y="21.7575" style="stroke: #000000"/>
      </g>
     </g>
    </g>
    <g id="xtick_32">
     <g id="line2d_72">
      <g>
       <use xlink:href="#m5e5aaeeb6e" x="738.225362" y="520.7175" style="stroke: #000000"/>
      </g>
     </g>
     <g id="line2d_73">
      <g>
       <use xlink:href="#m07be822106" x="738.225362" y="21.7575" style="stroke: #000000"/>
      </g>
     </g>
    </g>
    <g id="xtick_33">
     <g id="line2d_74">
      <g>
       <use xlink:href="#m5e5aaeeb6e" x="761.075485" y="520.7175" style="stroke: #000000"/>
      </g>
     </g>
     <g id="line2d_75">
      <g>
       <use xlink:href="#m07be822106" x="761.075485" y="21.7575" style="stroke: #000000"/>
      </g>
     </g>
    </g>
    <g id="xtick_34">
     <g id="line2d_76">
      <g>
       <use xlink:href="#m5e5aaeeb6e" x="783.925608" y="520.7175" style="stroke: #000000"/>
      </g>
     </g>
     <g id="line2d_77">
      <g>
       <use xlink:href="#m07be822106" x="783.925608" y="21.7575" style="stroke: #000000"/>
      </g>
     </g>
    </g>
    <g id="xtick_35">
     <g id="line2d_78">
      <g>
       <use xlink:href="#m5e5aaeeb6e" x="829.625854" y="520.7175" style="stroke: #000000"/>
      </g>
     </g>
     <g id="line2d_79">
      <g>
       <use xlink:href="#m07be822106" x="829.625854" y="21.7575" style="stroke: #000000"/>
      </g>
     </g>
    </g>
    <g id="xtick_36">
     <g id="line2d_80">
      <g>
       <use xlink:href="#m5e5aaeeb6e" x="852.475977" y="520.7175" style="stroke: #000000"/>
      </g>
     </g>
     <g id="line2d_81">
      <g>
       <use xlink:href="#m07be822106" x="852.475977" y="21.7575" style="stroke: #000000"/>
      </g>
     </g>
    </g>
    <g id="xtick_37">
     <g id="line2d_82">
      <g>
       <use xlink:href="#m5e5aaeeb6e" x="875.3261" y="520.7175" style="stroke: #000000"/>
      </g>
     </g>
     <g id="line2d_83">
      <g>
       <use xlink:href="#m07be822106" x="875.3261" y="21.7575" style="stroke: #000000"/>
      </g>
     </g>
    </g>
    <g id="xtick_38">
     <g id="line2d_84">
      <g>
       <use xlink:href="#m5e5aaeeb6e" x="898.176222" y="520.7175" style="stroke: #000000"/>
      </g>
     </g>
     <g id="line2d_85">
      <g>
       <use xlink:href="#m07be822106" x="898.176222" y="21.7575" style="stroke: #000000"/>
      </g>
     </g>
    </g>
    <g id="xtick_39">
     <g id="line2d_86">
      <g>
       <use xlink:href="#m5e5aaeeb6e" x="943.876468" y="520.7175" style="stroke: #000000"/>
      </g>
     </g>
     <g id="line2d_87">
      <g>
       <use xlink:href="#m07be822106" x="943.876468" y="21.7575" style="stroke: #000000"/>
      </g>
     </g>
    </g>
    <g id="xtick_40">
     <g id="line2d_88">
      <g>
       <use xlink:href="#m5e5aaeeb6e" x="966.726591" y="520.7175" style="stroke: #000000"/>
      </g>
     </g>
     <g id="line2d_89">
      <g>
       <use xlink:href="#m07be822106" x="966.726591" y="21.7575" style="stroke: #000000"/>
      </g>
     </g>
    </g>
    <g id="xtick_41">
     <g id="line2d_90">
      <g>
       <use xlink:href="#m5e5aaeeb6e" x="989.576714" y="520.7175" style="stroke: #000000"/>
      </g>
     </g>
     <g id="line2d_91">
      <g>
       <use xlink:href="#m07be822106" x="989.576714" y="21.7575" style="stroke: #000000"/>
      </g>
     </g>
    </g>
    <g id="xtick_42">
     <g id="line2d_92">
      <g>
       <use xlink:href="#m5e5aaeeb6e" x="1012.426837" y="520.7175" style="stroke: #000000"/>
      </g>
     </g>
     <g id="line2d_93">
      <g>
       <use xlink:href="#m07be822106" x="1012.426837" y="21.7575" style="stroke: #000000"/>
      </g>
     </g>
    </g>
    <g id="xtick_43">
     <g id="line2d_94">
      <g>
       <use xlink:href="#m5e5aaeeb6e" x="1058.127082" y="520.7175" style="stroke: #000000"/>
      </g>
     </g>
     <g id="line2d_95">
      <g>
       <use xlink:href="#m07be822106" x="1058.127082" y="21.7575" style="stroke: #000000"/>
      </g>
     </g>
    </g>
    <g id="text_10">
     <!-- Time(s) -->
     <g transform="translate(547.83375 555.86) scale(0.16 -0.16)">
      <defs>
       <path id="DejaVuSans-54" d="M -19 4666 
L 3928 4666 
L 3928 4134 
L 2272 4134 
L 2272 0 
L 1638 0 
L 1638 4134 
L -19 4134 
L -19 4666 
z
" transform="scale(0.015625)"/>
       <path id="DejaVuSans-69" d="M 603 3500 
L 1178 3500 
L 1178 0 
L 603 0 
L 603 3500 
z
M 603 4863 
L 1178 4863 
L 1178 4134 
L 603 4134 
L 603 4863 
z
" transform="scale(0.015625)"/>
       <path id="DejaVuSans-6d" d="M 3328 2828 
Q 3544 3216 3844 3400 
Q 4144 3584 4550 3584 
Q 5097 3584 5394 3201 
Q 5691 2819 5691 2113 
L 5691 0 
L 5113 0 
L 5113 2094 
Q 5113 2597 4934 2840 
Q 4756 3084 4391 3084 
Q 3944 3084 3684 2787 
Q 3425 2491 3425 1978 
L 3425 0 
L 2847 0 
L 2847 2094 
Q 2847 2600 2669 2842 
Q 2491 3084 2119 3084 
Q 1678 3084 1418 2786 
Q 1159 2488 1159 1978 
L 1159 0 
L 581 0 
L 581 3500 
L 1159 3500 
L 1159 2956 
Q 1356 3278 1631 3431 
Q 1906 3584 2284 3584 
Q 2666 3584 2933 3390 
Q 3200 3197 3328 2828 
z
" transform="scale(0.015625)"/>
       <path id="DejaVuSans-65" d="M 3597 1894 
L 3597 1613 
L 953 1613 
Q 991 1019 1311 708 
Q 1631 397 2203 397 
Q 2534 397 2845 478 
Q 3156 559 3463 722 
L 3463 178 
Q 3153 47 2828 -22 
Q 2503 -91 2169 -91 
Q 1331 -91 842 396 
Q 353 884 353 1716 
Q 353 2575 817 3079 
Q 1281 3584 2069 3584 
Q 2775 3584 3186 3129 
Q 3597 2675 3597 1894 
z
M 3022 2063 
Q 3016 2534 2758 2815 
Q 2500 3097 2075 3097 
Q 1594 3097 1305 2825 
Q 1016 2553 972 2059 
L 3022 2063 
z
" transform="scale(0.015625)"/>
       <path id="DejaVuSans-28" d="M 1984 4856 
Q 1566 4138 1362 3434 
Q 1159 2731 1159 2009 
Q 1159 1288 1364 580 
Q 1569 -128 1984 -844 
L 1484 -844 
Q 1016 -109 783 600 
Q 550 1309 550 2009 
Q 550 2706 781 3412 
Q 1013 4119 1484 4856 
L 1984 4856 
z
" transform="scale(0.015625)"/>
       <path id="DejaVuSans-73" d="M 2834 3397 
L 2834 2853 
Q 2591 2978 2328 3040 
Q 2066 3103 1784 3103 
Q 1356 3103 1142 2972 
Q 928 2841 928 2578 
Q 928 2378 1081 2264 
Q 1234 2150 1697 2047 
L 1894 2003 
Q 2506 1872 2764 1633 
Q 3022 1394 3022 966 
Q 3022 478 2636 193 
Q 2250 -91 1575 -91 
Q 1294 -91 989 -36 
Q 684 19 347 128 
L 347 722 
Q 666 556 975 473 
Q 1284 391 1588 391 
Q 1994 391 2212 530 
Q 2431 669 2431 922 
Q 2431 1156 2273 1281 
Q 2116 1406 1581 1522 
L 1381 1569 
Q 847 1681 609 1914 
Q 372 2147 372 2553 
Q 372 3047 722 3315 
Q 1072 3584 1716 3584 
Q 2034 3584 2315 3537 
Q 2597 3491 2834 3397 
z
" transform="scale(0.015625)"/>
       <path id="DejaVuSans-29" d="M 513 4856 
L 1013 4856 
Q 1481 4119 1714 3412 
Q 1947 2706 1947 2009 
Q 1947 1309 1714 600 
Q 1481 -109 1013 -844 
L 513 -844 
Q 928 -128 1133 580 
Q 1338 1288 1338 2009 
Q 1338 2731 1133 3434 
Q 928 4138 513 4856 
z
" transform="scale(0.015625)"/>
      </defs>
      <use xlink:href="#DejaVuSans-54"/>
      <use xlink:href="#DejaVuSans-69" x="57.958984"/>
      <use xlink:href="#DejaVuSans-6d" x="85.742188"/>
      <use xlink:href="#DejaVuSans-65" x="183.154297"/>
      <use xlink:href="#DejaVuSans-28" x="244.677734"/>
      <use xlink:href="#DejaVuSans-73" x="283.691406"/>
      <use xlink:href="#DejaVuSans-29" x="335.791016"/>
     </g>
    </g>
   </g>
   <g id="matplotlib.axis_2">
    <g id="ytick_1">
     <g id="line2d_96">
      <path d="M 75.6175 509.468582 
L 1080.0175 509.468582 
" clip-path="url(#p0ece3e8db3)" style="fill: none; stroke-dasharray: 1.85,0.8; stroke-dashoffset: 0; stroke: #000000; stroke-opacity: 0.5; stroke-width: 0.5"/>
     </g>
     <g id="line2d_97">
      <defs>
       <path id="m216ce03985" d="M 0 0 
L 6 0 
" style="stroke: #000000"/>
      </defs>
      <g>
       <use xlink:href="#m216ce03985" x="75.6175" y="509.468582" style="stroke: #000000"/>
      </g>
     </g>
     <g id="line2d_98">
      <defs>
       <path id="mc33ee116b5" d="M 0 0 
L -6 0 
" style="stroke: #000000"/>
      </defs>
      <g>
       <use xlink:href="#mc33ee116b5" x="1080.0175" y="509.468582" style="stroke: #000000"/>
      </g>
     </g>
     <g id="text_11">
      <!-- −0.04 -->
      <g transform="translate(23.085 515.547332) scale(0.16 -0.16)">
       <defs>
        <path id="DejaVuSans-2212" d="M 678 2272 
L 4684 2272 
L 4684 1741 
L 678 1741 
L 678 2272 
z
" transform="scale(0.015625)"/>
        <path id="DejaVuSans-34" d="M 2419 4116 
L 825 1625 
L 2419 1625 
L 2419 4116 
z
M 2253 4666 
L 3047 4666 
L 3047 1625 
L 3713 1625 
L 3713 1100 
L 3047 1100 
L 3047 0 
L 2419 0 
L 2419 1100 
L 313 1100 
L 313 1709 
L 2253 4666 
z
" transform="scale(0.015625)"/>
       </defs>
       <use xlink:href="#DejaVuSans-2212"/>
       <use xlink:href="#DejaVuSans-30" x="83.789062"/>
       <use xlink:href="#DejaVuSans-2e" x="147.412109"/>
       <use xlink:href="#DejaVuSans-30" x="179.199219"/>
       <use xlink:href="#DejaVuSans-34" x="242.822266"/>
      </g>
     </g>
    </g>
    <g id="ytick_2">
     <g id="line2d_99">
      <path d="M 75.6175 407.320182 
L 1080.0175 407.320182 
" clip-path="url(#p0ece3e8db3)" style="fill: none; stroke-dasharray: 1.85,0.8; stroke-dashoffset: 0; stroke: #000000; stroke-opacity: 0.5; stroke-width: 0.5"/>
     </g>
     <g id="line2d_100">
      <g>
       <use xlink:href="#m216ce03985" x="75.6175" y="407.320182" style="stroke: #000000"/>
      </g>
     </g>
     <g id="line2d_101">
      <g>
       <use xlink:href="#mc33ee116b5" x="1080.0175" y="407.320182" style="stroke: #000000"/>
      </g>
     </g>
     <g id="text_12">
      <!-- −0.02 -->
      <g transform="translate(23.085 413.398932) scale(0.16 -0.16)">
       <use xlink:href="#DejaVuSans-2212"/>
       <use xlink:href="#DejaVuSans-30" x="83.789062"/>
       <use xlink:href="#DejaVuSans-2e" x="147.412109"/>
       <use xlink:href="#DejaVuSans-30" x="179.199219"/>
       <use xlink:href="#DejaVuSans-32" x="242.822266"/>
      </g>
     </g>
    </g>
    <g id="ytick_3">
     <g id="line2d_102">
      <path d="M 75.6175 305.171782 
L 1080.0175 305.171782 
" clip-path="url(#p0ece3e8db3)" style="fill: none; stroke-dasharray: 1.85,0.8; stroke-dashoffset: 0; stroke: #000000; stroke-opacity: 0.5; stroke-width: 0.5"/>
     </g>
     <g id="line2d_103">
      <g>
       <use xlink:href="#m216ce03985" x="75.6175" y="305.171782" style="stroke: #000000"/>
      </g>
     </g>
     <g id="line2d_104">
      <g>
       <use xlink:href="#mc33ee116b5" x="1080.0175" y="305.171782" style="stroke: #000000"/>
      </g>
     </g>
     <g id="text_13">
      <!-- 0.00 -->
      <g transform="translate(36.4925 311.250532) scale(0.16 -0.16)">
       <use xlink:href="#DejaVuSans-30"/>
       <use xlink:href="#DejaVuSans-2e" x="63.623047"/>
       <use xlink:href="#DejaVuSans-30" x="95.410156"/>
       <use xlink:href="#DejaVuSans-30" x="159.033203"/>
      </g>
     </g>
    </g>
    <g id="ytick_4">
     <g id="line2d_105">
      <path d="M 75.6175 203.023382 
L 1080.0175 203.023382 
" clip-path="url(#p0ece3e8db3)" style="fill: none; stroke-dasharray: 1.85,0.8; stroke-dashoffset: 0; stroke: #000000; stroke-opacity: 0.5; stroke-width: 0.5"/>
     </g>
     <g id="line2d_106">
      <g>
       <use xlink:href="#m216ce03985" x="75.6175" y="203.023382" style="stroke: #000000"/>
      </g>
     </g>
     <g id="line2d_107">
      <g>
       <use xlink:href="#mc33ee116b5" x="1080.0175" y="203.023382" style="stroke: #000000"/>
      </g>
     </g>
     <g id="text_14">
      <!-- 0.02 -->
      <g transform="translate(36.4925 209.102132) scale(0.16 -0.16)">
       <use xlink:href="#DejaVuSans-30"/>
       <use xlink:href="#DejaVuSans-2e" x="63.623047"/>
       <use xlink:href="#DejaVuSans-30" x="95.410156"/>
       <use xlink:href="#DejaVuSans-32" x="159.033203"/>
      </g>
     </g>
    </g>
    <g id="ytick_5">
     <g id="line2d_108">
      <path d="M 75.6175 100.874982 
L 1080.0175 100.874982 
" clip-path="url(#p0ece3e8db3)" style="fill: none; stroke-dasharray: 1.85,0.8; stroke-dashoffset: 0; stroke: #000000; stroke-opacity: 0.5; stroke-width: 0.5"/>
     </g>
     <g id="line2d_109">
      <g>
       <use xlink:href="#m216ce03985" x="75.6175" y="100.874982" style="stroke: #000000"/>
      </g>
     </g>
     <g id="line2d_110">
      <g>
       <use xlink:href="#mc33ee116b5" x="1080.0175" y="100.874982" style="stroke: #000000"/>
      </g>
     </g>
     <g id="text_15">
      <!-- 0.04 -->
      <g transform="translate(36.4925 106.953732) scale(0.16 -0.16)">
       <use xlink:href="#DejaVuSans-30"/>
       <use xlink:href="#DejaVuSans-2e" x="63.623047"/>
       <use xlink:href="#DejaVuSans-30" x="95.410156"/>
       <use xlink:href="#DejaVuSans-34" x="159.033203"/>
      </g>
     </g>
    </g>
    <g id="ytick_6">
     <g id="line2d_111">
      <defs>
       <path id="md63f86486e" d="M 0 0 
L 3 0 
" style="stroke: #000000"/>
      </defs>
      <g>
       <use xlink:href="#md63f86486e" x="75.6175" y="483.931482" style="stroke: #000000"/>
      </g>
     </g>
     <g id="line2d_112">
      <defs>
       <path id="mb93ff40f0b" d="M 0 0 
L -3 0 
" style="stroke: #000000"/>
      </defs>
      <g>
       <use xlink:href="#mb93ff40f0b" x="1080.0175" y="483.931482" style="stroke: #000000"/>
      </g>
     </g>
    </g>
    <g id="ytick_7">
     <g id="line2d_113">
      <g>
       <use xlink:href="#md63f86486e" x="75.6175" y="458.394382" style="stroke: #000000"/>
      </g>
     </g>
     <g id="line2d_114">
      <g>
       <use xlink:href="#mb93ff40f0b" x="1080.0175" y="458.394382" style="stroke: #000000"/>
      </g>
     </g>
    </g>
    <g id="ytick_8">
     <g id="line2d_115">
      <g>
       <use xlink:href="#md63f86486e" x="75.6175" y="432.857282" style="stroke: #000000"/>
      </g>
     </g>
     <g id="line2d_116">
      <g>
       <use xlink:href="#mb93ff40f0b" x="1080.0175" y="432.857282" style="stroke: #000000"/>
      </g>
     </g>
    </g>
    <g id="ytick_9">
     <g id="line2d_117">
      <g>
       <use xlink:href="#md63f86486e" x="75.6175" y="381.783082" style="stroke: #000000"/>
      </g>
     </g>
     <g id="line2d_118">
      <g>
       <use xlink:href="#mb93ff40f0b" x="1080.0175" y="381.783082" style="stroke: #000000"/>
      </g>
     </g>
    </g>
    <g id="ytick_10">
     <g id="line2d_119">
      <g>
       <use xlink:href="#md63f86486e" x="75.6175" y="356.245982" style="stroke: #000000"/>
      </g>
     </g>
     <g id="line2d_120">
      <g>
       <use xlink:href="#mb93ff40f0b" x="1080.0175" y="356.245982" style="stroke: #000000"/>
      </g>
     </g>
    </g>
    <g id="ytick_11">
     <g id="line2d_121">
      <g>
       <use xlink:href="#md63f86486e" x="75.6175" y="330.708882" style="stroke: #000000"/>
      </g>
     </g>
     <g id="line2d_122">
      <g>
       <use xlink:href="#mb93ff40f0b" x="1080.0175" y="330.708882" style="stroke: #000000"/>
      </g>
     </g>
    </g>
    <g id="ytick_12">
     <g id="line2d_123">
      <g>
       <use xlink:href="#md63f86486e" x="75.6175" y="279.634682" style="stroke: #000000"/>
      </g>
     </g>
     <g id="line2d_124">
      <g>
       <use xlink:href="#mb93ff40f0b" x="1080.0175" y="279.634682" style="stroke: #000000"/>
      </g>
     </g>
    </g>
    <g id="ytick_13">
     <g id="line2d_125">
      <g>
       <use xlink:href="#md63f86486e" x="75.6175" y="254.097582" style="stroke: #000000"/>
      </g>
     </g>
     <g id="line2d_126">
      <g>
       <use xlink:href="#mb93ff40f0b" x="1080.0175" y="254.097582" style="stroke: #000000"/>
      </g>
     </g>
    </g>
    <g id="ytick_14">
     <g id="line2d_127">
      <g>
       <use xlink:href="#md63f86486e" x="75.6175" y="228.560482" style="stroke: #000000"/>
      </g>
     </g>
     <g id="line2d_128">
      <g>
       <use xlink:href="#mb93ff40f0b" x="1080.0175" y="228.560482" style="stroke: #000000"/>
      </g>
     </g>
    </g>
    <g id="ytick_15">
     <g id="line2d_129">
      <g>
       <use xlink:href="#md63f86486e" x="75.6175" y="177.486282" style="stroke: #000000"/>
      </g>
     </g>
     <g id="line2d_130">
      <g>
       <use xlink:href="#mb93ff40f0b" x="1080.0175" y="177.486282" style="stroke: #000000"/>
      </g>
     </g>
    </g>
    <g id="ytick_16">
     <g id="line2d_131">
      <g>
       <use xlink:href="#md63f86486e" x="75.6175" y="151.949182" style="stroke: #000000"/>
      </g>
     </g>
     <g id="line2d_132">
      <g>
       <use xlink:href="#mb93ff40f0b" x="1080.0175" y="151.949182" style="stroke: #000000"/>
      </g>
     </g>
    </g>
    <g id="ytick_17">
     <g id="line2d_133">
      <g>
       <use xlink:href="#md63f86486e" x="75.6175" y="126.412082" style="stroke: #000000"/>
      </g>
     </g>
     <g id="line2d_134">
      <g>
       <use xlink:href="#mb93ff40f0b" x="1080.0175" y="126.412082" style="stroke: #000000"/>
      </g>
     </g>
    </g>
    <g id="ytick_18">
     <g id="line2d_135">
      <g>
       <use xlink:href="#md63f86486e" x="75.6175" y="75.337882" style="stroke: #000000"/>
      </g>
     </g>
     <g id="line2d_136">
      <g>
       <use xlink:href="#mb93ff40f0b" x="1080.0175" y="75.337882" style="stroke: #000000"/>
      </g>
     </g>
    </g>
    <g id="ytick_19">
     <g id="line2d_137">
      <g>
       <use xlink:href="#md63f86486e" x="75.6175" y="49.800782" style="stroke: #000000"/>
      </g>
     </g>
     <g id="line2d_138">
      <g>
       <use xlink:href="#mb93ff40f0b" x="1080.0175" y="49.800782" style="stroke: #000000"/>
      </g>
     </g>
    </g>
    <g id="ytick_20">
     <g id="line2d_139">
      <g>
       <use xlink:href="#md63f86486e" x="75.6175" y="24.263682" style="stroke: #000000"/>
      </g>
     </g>
     <g id="line2d_140">
      <g>
       <use xlink:href="#mb93ff40f0b" x="1080.0175" y="24.263682" style="stroke: #000000"/>
      </g>
     </g>
    </g>
    <g id="text_16">
     <!-- IDR (%) -->
     <g transform="translate(15.7575 301.7025) rotate(-90) scale(0.16 -0.16)">
      <defs>
       <path id="DejaVuSans-49" d="M 628 4666 
L 1259 4666 
L 1259 0 
L 628 0 
L 628 4666 
z
" transform="scale(0.015625)"/>
       <path id="DejaVuSans-44" d="M 1259 4147 
L 1259 519 
L 2022 519 
Q 2988 519 3436 956 
Q 3884 1394 3884 2338 
Q 3884 3275 3436 3711 
Q 2988 4147 2022 4147 
L 1259 4147 
z
M 628 4666 
L 1925 4666 
Q 3281 4666 3915 4102 
Q 4550 3538 4550 2338 
Q 4550 1131 3912 565 
Q 3275 0 1925 0 
L 628 0 
L 628 4666 
z
" transform="scale(0.015625)"/>
       <path id="DejaVuSans-52" d="M 2841 2188 
Q 3044 2119 3236 1894 
Q 3428 1669 3622 1275 
L 4263 0 
L 3584 0 
L 2988 1197 
Q 2756 1666 2539 1819 
Q 2322 1972 1947 1972 
L 1259 1972 
L 1259 0 
L 628 0 
L 628 4666 
L 2053 4666 
Q 2853 4666 3247 4331 
Q 3641 3997 3641 3322 
Q 3641 2881 3436 2590 
Q 3231 2300 2841 2188 
z
M 1259 4147 
L 1259 2491 
L 2053 2491 
Q 2509 2491 2742 2702 
Q 2975 2913 2975 3322 
Q 2975 3731 2742 3939 
Q 2509 4147 2053 4147 
L 1259 4147 
z
" transform="scale(0.015625)"/>
       <path id="DejaVuSans-20" transform="scale(0.015625)"/>
       <path id="DejaVuSans-25" d="M 4653 2053 
Q 4381 2053 4226 1822 
Q 4072 1591 4072 1178 
Q 4072 772 4226 539 
Q 4381 306 4653 306 
Q 4919 306 5073 539 
Q 5228 772 5228 1178 
Q 5228 1588 5073 1820 
Q 4919 2053 4653 2053 
z
M 4653 2450 
Q 5147 2450 5437 2106 
Q 5728 1763 5728 1178 
Q 5728 594 5436 251 
Q 5144 -91 4653 -91 
Q 4153 -91 3862 251 
Q 3572 594 3572 1178 
Q 3572 1766 3864 2108 
Q 4156 2450 4653 2450 
z
M 1428 4353 
Q 1159 4353 1004 4120 
Q 850 3888 850 3481 
Q 850 3069 1003 2837 
Q 1156 2606 1428 2606 
Q 1700 2606 1854 2837 
Q 2009 3069 2009 3481 
Q 2009 3884 1853 4118 
Q 1697 4353 1428 4353 
z
M 4250 4750 
L 4750 4750 
L 1831 -91 
L 1331 -91 
L 4250 4750 
z
M 1428 4750 
Q 1922 4750 2215 4408 
Q 2509 4066 2509 3481 
Q 2509 2891 2217 2550 
Q 1925 2209 1428 2209 
Q 931 2209 642 2551 
Q 353 2894 353 3481 
Q 353 4063 643 4406 
Q 934 4750 1428 4750 
z
" transform="scale(0.015625)"/>
      </defs>
      <use xlink:href="#DejaVuSans-49"/>
      <use xlink:href="#DejaVuSans-44" x="29.492188"/>
      <use xlink:href="#DejaVuSans-52" x="106.494141"/>
      <use xlink:href="#DejaVuSans-20" x="175.976562"/>
      <use xlink:href="#DejaVuSans-28" x="207.763672"/>
      <use xlink:href="#DejaVuSans-25" x="246.777344"/>
      <use xlink:href="#DejaVuSans-29" x="341.796875"/>
     </g>
    </g>
   </g>
   <g id="line2d_141">
    <path d="M 121.272045 305.171782 
L 122.18605 305.814316 
L 123.100055 305.889748 
L 124.01406 305.179636 
L 124.928065 308.652178 
L 125.84207 313.007738 
L 126.756075 314.100878 
L 127.67008 305.222845 
L 128.584085 290.591469 
L 129.49809 291.759671 
L 130.412095 309.899227 
L 131.3261 318.73031 
L 132.240104 308.981243 
L 133.154109 295.128032 
L 134.068114 296.000468 
L 134.982119 320.114579 
L 135.896124 336.331062 
L 136.810129 320.024974 
L 137.724134 290.442611 
L 138.638139 281.553919 
L 139.552144 286.663633 
L 140.466149 295.494052 
L 141.380154 310.04661 
L 142.294158 319.031534 
L 144.122168 314.337474 
L 145.036173 319.267119 
L 145.950178 303.613576 
L 146.864183 272.388788 
L 147.778188 282.30321 
L 148.692193 320.439739 
L 149.606198 326.542181 
L 150.520203 309.341658 
L 151.434208 306.00141 
L 152.348213 314.069221 
L 153.262217 313.896206 
L 155.090227 282.951032 
L 156.004232 295.536545 
L 156.918237 323.302915 
L 157.832242 322.272388 
L 158.746247 294.96522 
L 159.660252 284.219757 
L 161.488262 326.768624 
L 162.402267 316.440036 
L 163.316271 288.936393 
L 164.230276 290.324728 
L 165.144281 317.647515 
L 166.058286 327.208566 
L 166.972291 296.785477 
L 167.886296 272.984111 
L 168.800301 296.42373 
L 169.714306 331.070062 
L 170.628311 331.940535 
L 171.542316 314.107189 
L 172.456321 308.077202 
L 174.28433 273.558421 
L 175.198335 285.034609 
L 176.11234 309.277251 
L 177.026345 310.870274 
L 177.94035 296.398285 
L 178.854355 310.542315 
L 179.76836 322.948636 
L 180.682365 301.474682 
L 181.59637 274.644865 
L 182.510375 287.860719 
L 183.42438 320.060234 
L 184.338385 322.037888 
L 185.252389 304.029479 
L 186.166394 306.740636 
L 187.080399 315.385642 
L 187.994404 304.09439 
L 188.908409 287.792062 
L 189.822414 287.810873 
L 190.736419 309.959678 
L 191.650424 325.880884 
L 192.564429 305.804631 
L 193.478434 282.233893 
L 194.392439 294.051258 
L 195.306443 310.511705 
L 196.220448 318.357732 
L 197.134453 300.262394 
L 198.048458 288.054018 
L 199.876468 322.427438 
L 200.790473 310.643718 
L 201.704478 293.323326 
L 202.618483 291.172056 
L 203.532488 296.335726 
L 205.360498 328.050104 
L 206.274502 328.970898 
L 207.188507 291.416315 
L 208.102512 261.717574 
L 209.016517 289.043681 
L 209.930522 328.681084 
L 210.844527 332.993022 
L 211.758532 304.470688 
L 212.672537 288.050767 
L 213.586542 297.92201 
L 214.500547 320.261177 
L 215.414552 321.860898 
L 216.328557 286.845918 
L 217.242561 262.45715 
L 218.156566 271.580651 
L 219.070571 304.949676 
L 219.984576 328.738815 
L 220.898581 328.8693 
L 221.812586 318.090214 
L 222.726591 299.741202 
L 223.640596 284.843756 
L 224.554601 287.424988 
L 225.468606 302.836497 
L 226.382611 307.71397 
L 228.21062 294.015341 
L 229.124625 303.612532 
L 230.03863 318.894291 
L 230.952635 316.917691 
L 231.86664 307.304845 
L 232.780645 307.052976 
L 233.69465 305.839265 
L 234.608655 289.63543 
L 235.52266 281.690434 
L 236.436665 301.300593 
L 237.35067 325.092398 
L 238.264674 322.141174 
L 239.178679 297.523878 
L 240.092684 289.284372 
L 241.006689 305.149677 
L 241.920694 318.003892 
L 242.834699 320.214071 
L 243.748704 309.18855 
L 244.662709 284.737744 
L 245.576714 286.223555 
L 246.490719 315.058311 
L 247.404724 327.729917 
L 248.318729 314.074809 
L 249.232733 290.328664 
L 250.146738 289.506761 
L 251.060743 313.038075 
L 251.974748 318.172245 
L 253.802758 261.750559 
L 254.716763 280.092181 
L 255.630768 315.586677 
L 256.544773 320.757178 
L 257.458778 300.904272 
L 258.372783 278.212017 
L 259.286787 274.269114 
L 261.114797 326.840342 
L 262.028802 312.12847 
L 262.942807 277.619936 
L 263.856812 278.03829 
L 264.770817 312.764365 
L 265.684822 353.130739 
L 266.598827 376.566118 
L 267.512832 369.712265 
L 268.426837 349.704316 
L 269.340842 345.864486 
L 270.254846 359.861408 
L 271.168851 383.373288 
L 272.082856 382.989946 
L 272.996861 357.713816 
L 273.910866 363.172043 
L 274.824871 394.716202 
L 275.738876 403.892717 
L 276.652881 386.887852 
L 277.566886 365.658855 
L 278.480891 223.13023 
L 279.394896 112.536428 
L 281.222905 305.292563 
L 283.050915 148.063335 
L 284.878925 276.32715 
L 286.706935 171.823789 
L 287.62094 215.826273 
L 289.44895 464.046639 
L 290.362955 426.624981 
L 291.276959 333.085015 
L 292.190964 362.065984 
L 293.104969 438.909029 
L 294.018974 416.646721 
L 294.932979 353.458063 
L 295.846984 370.631618 
L 296.760989 422.480198 
L 297.674994 409.342099 
L 298.588999 322.775344 
L 299.503004 129.245667 
L 300.417009 133.364912 
L 301.331014 290.297214 
L 302.245018 289.596325 
L 303.159023 161.861514 
L 304.073028 215.356506 
L 304.987033 460.299397 
L 305.901038 498.0375 
L 306.815043 242.745849 
L 307.729048 44.4375 
L 309.557058 360.876591 
L 310.471063 270.938481 
L 311.385068 145.779143 
L 312.299072 183.604081 
L 313.213077 326.065374 
L 314.127082 425.579247 
L 315.041087 419.232483 
L 315.955092 362.122951 
L 316.869097 346.027925 
L 317.783102 352.579716 
L 318.697107 341.202262 
L 319.611112 301.107279 
L 320.525117 254.553581 
L 321.439122 243.234415 
L 323.267131 310.843272 
L 324.181136 299.885202 
L 325.095141 267.020642 
L 326.009146 262.294225 
L 327.837156 359.414125 
L 328.751161 343.278671 
L 330.579171 250.499861 
L 331.493176 223.568825 
L 332.407181 241.938332 
L 334.23519 358.145531 
L 335.149195 357.823117 
L 336.0632 308.262998 
L 336.977205 284.340996 
L 337.89121 308.391105 
L 338.805215 324.327582 
L 339.71922 304.281453 
L 340.633225 296.186892 
L 341.54723 316.058852 
L 342.461235 318.190858 
L 344.289244 257.271804 
L 345.203249 271.486949 
L 346.117254 319.950437 
L 347.031259 326.828205 
L 348.859269 206.328691 
L 349.773274 223.808805 
L 350.687279 303.836316 
L 351.601284 355.883787 
L 352.515289 326.663072 
L 353.429294 259.011687 
L 354.343299 245.956559 
L 356.171308 373.598239 
L 357.085313 367.052137 
L 357.999318 313.439273 
L 358.913323 290.477371 
L 359.827328 300.917791 
L 360.741333 321.862782 
L 361.655338 336.842795 
L 362.569343 345.937559 
L 363.483348 350.596353 
L 364.397353 346.053799 
L 365.311357 333.445422 
L 366.225362 325.932512 
L 367.139367 337.527457 
L 368.053372 343.190657 
L 368.967377 321.186587 
L 369.881382 286.051921 
L 370.795387 266.454952 
L 371.709392 289.571445 
L 372.623397 342.945546 
L 373.537402 362.547229 
L 375.365412 294.88334 
L 376.279416 287.255923 
L 377.193421 283.290779 
L 378.107426 267.987969 
L 379.021431 266.980466 
L 379.935436 281.729538 
L 380.849441 274.946275 
L 381.763446 262.002231 
L 382.677451 271.876583 
L 383.591456 292.32728 
L 384.505461 299.218215 
L 385.419466 305.250801 
L 386.333471 304.133517 
L 387.247475 296.182245 
L 388.16148 295.601464 
L 389.075485 315.256464 
L 389.98949 347.458324 
L 390.903495 334.644307 
L 391.8175 286.773088 
L 392.731505 269.932486 
L 393.64551 291.258163 
L 394.559515 306.740141 
L 395.47352 299.155223 
L 396.387525 286.587188 
L 397.301529 287.142913 
L 398.215534 300.086264 
L 399.129539 307.394284 
L 400.043544 303.015042 
L 400.957549 293.857529 
L 401.871554 287.158023 
L 402.785559 288.83041 
L 403.699564 290.251908 
L 404.613569 292.235475 
L 405.527574 298.88464 
L 406.441579 315.623601 
L 407.355584 338.857965 
L 408.269588 342.33011 
L 409.183593 326.869518 
L 410.097598 329.186099 
L 411.011603 360.247257 
L 411.925608 374.749942 
L 413.753618 332.510641 
L 414.667623 338.075476 
L 415.581628 347.943165 
L 417.409638 330.707635 
L 418.323643 342.488755 
L 419.237647 362.254349 
L 420.151652 376.424962 
L 421.065657 388.128471 
L 421.979662 394.106922 
L 422.893667 387.474091 
L 424.721677 358.575311 
L 425.635682 346.758242 
L 426.549687 324.244832 
L 427.463692 312.909596 
L 428.377697 316.95296 
L 429.291701 316.21529 
L 430.205706 305.323466 
L 431.119711 287.346703 
L 432.033716 278.700624 
L 432.947721 277.408042 
L 433.861726 245.963634 
L 434.775731 193.877669 
L 435.689736 197.804491 
L 436.603741 238.936232 
L 437.517746 236.265911 
L 438.431751 202.581283 
L 439.345756 204.17896 
L 440.25976 231.775272 
L 441.173765 230.97493 
L 442.08777 212.382891 
L 443.91578 318.711755 
L 444.829785 305.332116 
L 445.74379 259.453439 
L 446.657795 254.949234 
L 447.5718 300.179722 
L 448.485805 332.278928 
L 449.39981 306.502949 
L 450.313814 271.642117 
L 451.227819 288.692687 
L 452.141824 337.575082 
L 453.055829 357.936554 
L 453.969834 327.763777 
L 454.883839 285.75667 
L 455.797844 275.862893 
L 456.711849 303.071252 
L 457.625854 337.687841 
L 458.539859 346.097436 
L 459.453864 326.671231 
L 460.367869 314.789987 
L 461.281873 341.971983 
L 462.195878 377.158714 
L 463.109883 372.171665 
L 464.023888 334.58496 
L 464.937893 307.179501 
L 465.851898 299.850182 
L 466.765903 274.1231 
L 467.679908 236.701168 
L 468.593913 245.173175 
L 470.421923 362.458981 
L 471.335928 372.376716 
L 473.163937 284.008068 
L 474.077942 293.083079 
L 474.991947 333.191461 
L 475.905952 349.187901 
L 476.819957 320.053296 
L 477.733962 283.005694 
L 478.647967 277.912743 
L 480.475977 311.249178 
L 481.389982 317.597419 
L 482.303986 328.370074 
L 483.217991 341.969433 
L 484.131996 335.242547 
L 485.960006 279.47571 
L 486.874011 284.794751 
L 487.788016 316.67641 
L 488.702021 337.512154 
L 489.616026 324.996438 
L 490.530031 298.509182 
L 491.444036 287.57371 
L 492.358041 289.556037 
L 493.272045 278.954534 
L 494.18605 259.576017 
L 495.100055 255.558681 
L 496.01406 269.185312 
L 496.928065 286.835202 
L 497.84207 307.339664 
L 498.756075 323.191989 
L 499.67008 308.975098 
L 500.584085 282.203477 
L 501.49809 288.850895 
L 502.412095 315.589414 
L 503.3261 310.338624 
L 504.240104 274.642979 
L 505.154109 261.822646 
L 506.068114 295.569167 
L 506.982119 343.173703 
L 507.896124 349.582454 
L 508.810129 319.897303 
L 509.724134 303.393922 
L 510.638139 306.660711 
L 511.552144 320.118844 
L 512.466149 324.098992 
L 514.294158 308.105598 
L 515.208163 296.80658 
L 516.122168 282.361454 
L 517.036173 264.800676 
L 517.950178 260.10653 
L 518.864183 281.216391 
L 519.778188 311.30323 
L 520.692193 316.104004 
L 521.606198 289.814494 
L 522.520203 273.979855 
L 523.434208 291.006545 
L 524.348213 315.645819 
L 525.262217 327.494315 
L 526.176222 315.06628 
L 527.090227 293.415708 
L 528.004232 286.189542 
L 529.832242 316.694735 
L 530.746247 310.906356 
L 531.660252 299.365885 
L 532.574257 305.092342 
L 533.488262 324.962007 
L 534.402267 332.279121 
L 535.316271 327.036549 
L 536.230276 320.155348 
L 537.144281 324.451738 
L 538.058286 323.116465 
L 538.972291 300.358903 
L 539.886296 272.831762 
L 540.800301 276.225543 
L 541.714306 304.165603 
L 542.628311 319.504184 
L 543.542316 307.387804 
L 544.456321 286.569592 
L 545.370326 286.833525 
L 546.28433 310.022615 
L 547.198335 327.556773 
L 548.11234 320.803931 
L 549.026345 306.500071 
L 549.94035 303.552153 
L 550.854355 313.194653 
L 551.76836 324.443422 
L 552.682365 325.118877 
L 553.59637 316.784298 
L 554.510375 314.512343 
L 555.42438 321.642531 
L 556.338385 323.307703 
L 557.252389 307.741865 
L 558.166394 284.713932 
L 559.080399 283.164253 
L 559.994404 308.906861 
L 560.908409 329.273639 
L 561.822414 317.128751 
L 562.736419 287.386475 
L 563.650424 278.889032 
L 564.564429 297.47264 
L 565.478434 318.692992 
L 566.392439 322.141591 
L 567.306443 310.658037 
L 568.220448 303.130257 
L 569.134453 309.449894 
L 570.048458 312.987753 
L 570.962463 303.923414 
L 571.876468 296.236138 
L 572.790473 297.594041 
L 573.704478 301.35273 
L 574.618483 298.498423 
L 575.532488 296.324763 
L 577.360498 314.787878 
L 578.274502 306.547299 
L 579.188507 291.497677 
L 580.102512 288.050912 
L 581.930522 308.483595 
L 582.844527 302.587685 
L 583.758532 286.957579 
L 584.672537 278.71431 
L 585.586542 288.658505 
L 586.500547 310.21446 
L 587.414552 328.12166 
L 588.328557 325.264063 
L 589.242561 302.415726 
L 590.156566 286.08523 
L 591.070571 291.120622 
L 591.984576 309.098185 
L 592.898581 322.84072 
L 593.812586 322.415307 
L 595.640596 295.581815 
L 596.554601 295.843663 
L 597.468606 311.367605 
L 598.382611 323.038406 
L 599.296615 313.577523 
L 600.21062 296.47331 
L 601.124625 299.669189 
L 602.03863 315.925608 
L 602.952635 320.447031 
L 604.780645 294.922056 
L 605.69465 304.227 
L 606.608655 319.279215 
L 607.52266 315.125823 
L 608.436665 300.078478 
L 609.35067 299.666914 
L 610.264674 315.289063 
L 611.178679 325.169668 
L 612.092684 316.45859 
L 613.006689 300.4255 
L 613.920694 294.164291 
L 614.834699 300.799295 
L 615.748704 310.781197 
L 616.662709 316.637345 
L 617.576714 319.955572 
L 618.490719 322.069398 
L 619.404724 318.148571 
L 620.318729 310.494083 
L 621.232733 306.990724 
L 622.146738 308.729755 
L 623.060743 312.899345 
L 623.974748 311.540077 
L 625.802758 291.452652 
L 626.716763 291.001605 
L 627.630768 301.434403 
L 628.544773 308.251144 
L 629.458778 300.576757 
L 630.372783 289.429276 
L 631.286787 291.877739 
L 632.200792 305.124291 
L 633.114797 314.039304 
L 634.028802 310.226195 
L 634.942807 301.095839 
L 635.856812 298.139706 
L 636.770817 302.405525 
L 637.684822 305.483861 
L 638.598827 302.59628 
L 639.512832 300.532954 
L 640.426837 303.909514 
L 641.340842 306.759031 
L 642.254846 305.994263 
L 644.082856 313.737874 
L 644.996861 308.705811 
L 645.910866 298.73357 
L 646.824871 296.671567 
L 647.738876 307.046985 
L 648.652881 315.362739 
L 649.566886 310.082382 
L 650.480891 299.97487 
L 651.394896 300.47014 
L 652.3089 311.03908 
L 653.222905 315.108772 
L 654.13691 307.169825 
L 655.050915 298.113118 
L 655.96492 295.101639 
L 657.79293 302.369979 
L 658.706935 303.621039 
L 659.62094 304.52511 
L 660.534945 303.120114 
L 661.44895 303.880783 
L 662.362955 308.020863 
L 663.276959 308.641704 
L 664.190964 307.474543 
L 665.104969 309.744189 
L 666.018974 309.707889 
L 666.932979 305.229304 
L 667.846984 299.344203 
L 668.760989 297.321077 
L 669.674994 303.27718 
L 670.588999 313.531607 
L 671.503004 316.262325 
L 673.331014 297.042091 
L 674.245018 299.450299 
L 675.159023 307.767445 
L 676.073028 308.792465 
L 676.987033 300.80809 
L 677.901038 294.177313 
L 678.815043 298.172382 
L 679.729048 306.375379 
L 680.643053 306.807652 
L 681.557058 301.446039 
L 682.471063 298.935177 
L 683.385068 300.272186 
L 684.299072 303.092018 
L 685.213077 305.483606 
L 686.127082 304.197907 
L 687.955092 282.80178 
L 688.869097 291.7982 
L 689.783102 310.768956 
L 690.697107 315.165277 
L 691.611112 304.086251 
L 692.525117 296.880324 
L 693.439122 301.473969 
L 694.353127 309.118417 
L 695.267131 310.466658 
L 696.181136 304.03183 
L 697.095141 294.376447 
L 698.009146 291.524522 
L 698.923151 297.395898 
L 699.837156 305.896067 
L 700.751161 309.368608 
L 701.665166 305.963121 
L 702.579171 301.073426 
L 703.493176 299.899338 
L 704.407181 305.225019 
L 705.321186 313.155478 
L 706.23519 315.418003 
L 708.0632 302.485625 
L 708.977205 302.609261 
L 709.89121 307.421491 
L 710.805215 309.722667 
L 712.633225 302.179389 
L 713.54723 300.803309 
L 714.461235 302.127816 
L 715.37524 306.609352 
L 716.289244 312.525443 
L 717.203249 312.99646 
L 719.031259 302.535593 
L 719.945264 302.122218 
L 720.859269 303.736116 
L 722.687279 305.251161 
L 724.515289 308.870865 
L 726.343299 306.702665 
L 727.257303 309.417195 
L 728.171308 313.749958 
L 729.085313 314.118485 
L 730.913323 305.859009 
L 731.827328 306.815967 
L 732.741333 311.53296 
L 733.655338 314.26162 
L 734.569343 312.331682 
L 735.483348 309.653184 
L 736.397353 308.323984 
L 737.311357 304.655663 
L 738.225362 298.099561 
L 739.139367 293.821393 
L 740.053372 295.003456 
L 740.967377 298.830374 
L 742.795387 303.729167 
L 743.709392 308.218255 
L 744.623397 309.424652 
L 745.537402 300.818018 
L 746.451407 286.649013 
L 747.365412 284.217742 
L 748.279416 298.682069 
L 749.193421 317.564674 
L 750.107426 326.195041 
L 751.021431 318.043856 
L 751.935436 302.854526 
L 752.849441 294.989152 
L 753.763446 299.076682 
L 754.677451 304.916975 
L 755.591456 306.637888 
L 756.505461 307.680001 
L 757.419466 309.299803 
L 758.333471 310.60635 
L 759.247475 312.2566 
L 760.16148 313.407947 
L 761.075485 311.930801 
L 762.903495 305.989382 
L 763.8175 306.226996 
L 764.731505 311.713197 
L 765.64551 315.996667 
L 766.559515 310.054868 
L 767.47352 299.013487 
L 768.387525 297.298346 
L 770.215534 318.429507 
L 771.129539 313.211353 
L 772.043544 298.828356 
L 772.957549 293.621375 
L 773.871554 304.061625 
L 774.785559 316.575267 
L 775.699564 313.692355 
L 776.613569 299.975804 
L 777.527574 292.464819 
L 778.441579 298.096998 
L 779.355584 311.545654 
L 780.269588 317.004739 
L 781.183593 307.714047 
L 782.097598 296.77737 
L 783.011603 297.727723 
L 783.925608 307.884815 
L 784.839613 314.182337 
L 785.753618 306.641042 
L 786.667623 294.559199 
L 787.581628 294.035086 
L 788.495633 305.913182 
L 789.409638 314.385723 
L 790.323643 307.510647 
L 791.237647 297.452291 
L 792.151652 299.412674 
L 793.065657 309.84733 
L 793.979662 312.129614 
L 795.807672 295.13174 
L 796.721677 297.128581 
L 797.635682 304.553216 
L 798.549687 307.817426 
L 799.463692 304.058381 
L 800.377697 298.141502 
L 801.291701 296.277475 
L 802.205706 300.231143 
L 803.119711 305.72296 
L 804.033716 306.760378 
L 804.947721 304.456737 
L 805.861726 302.775821 
L 806.775731 305.134363 
L 807.689736 309.014506 
L 808.603741 309.970042 
L 809.517746 307.509606 
L 810.431751 305.511341 
L 811.345756 304.928231 
L 813.173765 300.160438 
L 814.08777 302.050705 
L 815.001775 307.458794 
L 815.91578 311.126694 
L 816.829785 309.476934 
L 817.74379 304.642029 
L 818.657795 302.135841 
L 819.5718 303.681735 
L 820.485805 307.89391 
L 821.39981 309.971947 
L 822.313814 308.302684 
L 824.141824 299.324533 
L 825.055829 298.222677 
L 825.969834 301.660663 
L 826.883839 306.64346 
L 827.797844 306.236163 
L 828.711849 303.571953 
L 829.625854 302.886692 
L 831.453864 307.74342 
L 832.367869 303.917592 
L 833.281873 297.042432 
L 834.195878 296.492468 
L 835.109883 302.942004 
L 836.023888 308.072907 
L 836.937893 307.676571 
L 838.765903 306.161928 
L 839.679908 303.13445 
L 840.593913 298.904478 
L 841.507918 298.139639 
L 843.335928 304.680018 
L 844.249932 303.639962 
L 845.163937 299.991192 
L 846.077942 300.912848 
L 846.991947 304.624842 
L 847.905952 323.86081 
L 848.819957 335.025672 
L 849.733962 317.212419 
L 850.647967 295.091355 
L 851.561972 294.49327 
L 852.475977 310.415105 
L 853.389982 318.104104 
L 854.303986 307.857528 
L 855.217991 294.34106 
L 856.131996 295.807606 
L 857.046001 307.557118 
L 857.960006 314.125572 
L 858.874011 308.291556 
L 859.788016 298.668342 
L 860.702021 296.001114 
L 862.530031 308.82569 
L 863.444036 308.561609 
L 864.358041 303.966311 
L 865.272045 301.900476 
L 866.18605 303.924179 
L 867.100055 306.995521 
L 868.01406 309.397664 
L 868.928065 310.879837 
L 869.84207 310.199113 
L 870.756075 308.91549 
L 871.67008 310.729646 
L 872.584085 316.253319 
L 873.49809 317.948616 
L 874.412095 308.945515 
L 875.3261 298.049538 
L 876.240104 299.887871 
L 877.154109 310.620032 
L 878.068114 313.794588 
L 878.982119 305.294252 
L 879.896124 297.861322 
L 880.810129 301.486933 
L 881.724134 310.763971 
L 882.638139 311.684443 
L 883.552144 302.155864 
L 884.466149 295.43745 
L 885.380154 299.187592 
L 886.294158 306.916131 
L 887.208163 309.195164 
L 888.122168 306.370002 
L 889.036173 304.544775 
L 889.950178 306.181907 
L 890.864183 309.422444 
L 891.778188 309.835924 
L 892.692193 305.513119 
L 893.606198 300.593198 
L 894.520203 301.585187 
L 895.434208 305.96098 
L 896.348213 305.125359 
L 897.262217 299.298233 
L 898.176222 298.669576 
L 899.090227 305.860303 
L 900.004232 311.000622 
L 900.918237 309.318727 
L 901.832242 302.48846 
L 902.746247 297.348535 
L 903.660252 299.127157 
L 904.574257 304.829785 
L 905.488262 307.63979 
L 907.316271 303.611535 
L 908.230276 304.934904 
L 909.144281 308.340275 
L 910.058286 306.530494 
L 910.972291 301.796878 
L 911.886296 300.462461 
L 913.714306 309.599568 
L 914.628311 308.564033 
L 915.542316 303.009253 
L 916.456321 299.503103 
L 917.370326 300.479081 
L 918.28433 302.800028 
L 919.198335 303.442656 
L 920.11234 301.928788 
L 921.026345 301.860129 
L 921.94035 302.762083 
L 922.854355 302.825059 
L 923.76836 303.197896 
L 924.682365 303.248295 
L 925.59637 301.715745 
L 926.510375 299.435379 
L 927.42438 300.166413 
L 928.338385 303.934708 
L 929.252389 306.126623 
L 930.166394 305.131521 
L 931.080399 300.982314 
L 931.994404 298.98587 
L 932.908409 301.630163 
L 933.822414 306.219487 
L 934.736419 307.999561 
L 935.650424 304.523278 
L 936.564429 301.872676 
L 937.478434 303.016365 
L 938.392439 305.975237 
L 939.306443 308.247651 
L 940.220448 308.487239 
L 941.134453 306.156024 
L 942.048458 304.581055 
L 942.962463 307.153608 
L 943.876468 310.363337 
L 944.790473 310.625485 
L 946.618483 306.103491 
L 947.532488 306.77826 
L 949.360498 316.040208 
L 950.274502 313.777943 
L 951.188507 307.00757 
L 952.102512 304.613758 
L 953.930522 311.878507 
L 954.844527 311.192864 
L 955.758532 307.515374 
L 956.672537 305.308559 
L 957.586542 306.475147 
L 958.500547 308.519928 
L 959.414552 308.591584 
L 961.242561 304.856914 
L 962.156566 304.131038 
L 963.070571 305.746991 
L 963.984576 308.249144 
L 964.898581 307.851962 
L 966.726591 301.103687 
L 967.640596 301.216767 
L 968.554601 304.168341 
L 969.468606 304.558789 
L 970.382611 301.896848 
L 971.296615 300.185634 
L 972.21062 300.752325 
L 973.124625 302.738411 
L 974.03863 304.312057 
L 974.952635 304.146073 
L 975.86664 302.477355 
L 976.780645 301.773221 
L 977.69465 302.341779 
L 979.52266 304.347695 
L 980.436665 304.434144 
L 982.264674 302.066564 
L 983.178679 303.354975 
L 984.092684 306.167166 
L 985.006689 306.752621 
L 985.920694 304.49327 
L 986.834699 302.649544 
L 987.748704 303.405352 
L 988.662709 305.195634 
L 989.576714 305.107473 
L 990.490719 303.801661 
L 991.404724 303.687071 
L 992.318729 305.15657 
L 993.232733 306.338814 
L 994.146738 305.763859 
L 995.060743 304.374259 
L 995.974748 303.882145 
L 996.888753 304.952556 
L 997.802758 306.438898 
L 998.716763 306.698713 
L 1000.544773 304.632532 
L 1001.458778 304.57108 
L 1002.372783 305.492563 
L 1003.286787 306.223302 
L 1004.200792 305.92583 
L 1005.114797 305.176208 
L 1006.028802 304.942408 
L 1007.856812 305.976618 
L 1008.770817 305.961755 
L 1009.684822 305.515185 
L 1010.598827 305.309047 
L 1012.426837 306.091842 
L 1013.340842 306.07215 
L 1014.254846 305.658042 
L 1015.168851 305.382642 
L 1016.082856 305.580443 
L 1016.996861 305.92178 
L 1017.910866 305.926957 
L 1019.738876 305.286746 
L 1020.652881 305.376439 
L 1021.566886 305.645638 
L 1022.480891 305.695782 
L 1024.3089 305.118796 
L 1025.222905 305.104508 
L 1027.050915 305.444758 
L 1027.96492 305.257519 
L 1028.878925 304.948274 
L 1029.79293 304.856396 
L 1031.62094 305.218376 
L 1032.534945 305.12347 
L 1033.44895 304.860261 
L 1034.362955 304.739016 
L 1034.362955 304.739016 
" clip-path="url(#p0ece3e8db3)" style="fill: none; stroke: #0c5da5; stroke-width: 2; stroke-linecap: square"/>
   </g>
   <g id="patch_3">
    <path d="M 75.6175 520.7175 
L 75.6175 21.7575 
" style="fill: none; stroke: #000000; stroke-linejoin: miter; stroke-linecap: square"/>
   </g>
   <g id="patch_4">
    <path d="M 1080.0175 520.7175 
L 1080.0175 21.7575 
" style="fill: none; stroke: #000000; stroke-linejoin: miter; stroke-linecap: square"/>
   </g>
   <g id="patch_5">
    <path d="M 75.6175 520.7175 
L 1080.0175 520.7175 
" style="fill: none; stroke: #000000; stroke-linejoin: miter; stroke-linecap: square"/>
   </g>
   <g id="patch_6">
    <path d="M 75.6175 21.7575 
L 1080.0175 21.7575 
" style="fill: none; stroke: #000000; stroke-linejoin: miter; stroke-linecap: square"/>
   </g>
   <g id="text_17">
    <!-- Northridge-01 Record no. 1050 -->
    <g transform="translate(453.7875 15.7575) scale(0.16 -0.16)">
     <defs>
      <path id="DejaVuSans-4e" d="M 628 4666 
L 1478 4666 
L 3547 763 
L 3547 4666 
L 4159 4666 
L 4159 0 
L 3309 0 
L 1241 3903 
L 1241 0 
L 628 0 
L 628 4666 
z
" transform="scale(0.015625)"/>
      <path id="DejaVuSans-6f" d="M 1959 3097 
Q 1497 3097 1228 2736 
Q 959 2375 959 1747 
Q 959 1119 1226 758 
Q 1494 397 1959 397 
Q 2419 397 2687 759 
Q 2956 1122 2956 1747 
Q 2956 2369 2687 2733 
Q 2419 3097 1959 3097 
z
M 1959 3584 
Q 2709 3584 3137 3096 
Q 3566 2609 3566 1747 
Q 3566 888 3137 398 
Q 2709 -91 1959 -91 
Q 1206 -91 779 398 
Q 353 888 353 1747 
Q 353 2609 779 3096 
Q 1206 3584 1959 3584 
z
" transform="scale(0.015625)"/>
      <path id="DejaVuSans-72" d="M 2631 2963 
Q 2534 3019 2420 3045 
Q 2306 3072 2169 3072 
Q 1681 3072 1420 2755 
Q 1159 2438 1159 1844 
L 1159 0 
L 581 0 
L 581 3500 
L 1159 3500 
L 1159 2956 
Q 1341 3275 1631 3429 
Q 1922 3584 2338 3584 
Q 2397 3584 2469 3576 
Q 2541 3569 2628 3553 
L 2631 2963 
z
" transform="scale(0.015625)"/>
      <path id="DejaVuSans-74" d="M 1172 4494 
L 1172 3500 
L 2356 3500 
L 2356 3053 
L 1172 3053 
L 1172 1153 
Q 1172 725 1289 603 
Q 1406 481 1766 481 
L 2356 481 
L 2356 0 
L 1766 0 
Q 1100 0 847 248 
Q 594 497 594 1153 
L 594 3053 
L 172 3053 
L 172 3500 
L 594 3500 
L 594 4494 
L 1172 4494 
z
" transform="scale(0.015625)"/>
      <path id="DejaVuSans-68" d="M 3513 2113 
L 3513 0 
L 2938 0 
L 2938 2094 
Q 2938 2591 2744 2837 
Q 2550 3084 2163 3084 
Q 1697 3084 1428 2787 
Q 1159 2491 1159 1978 
L 1159 0 
L 581 0 
L 581 4863 
L 1159 4863 
L 1159 2956 
Q 1366 3272 1645 3428 
Q 1925 3584 2291 3584 
Q 2894 3584 3203 3211 
Q 3513 2838 3513 2113 
z
" transform="scale(0.015625)"/>
      <path id="DejaVuSans-64" d="M 2906 2969 
L 2906 4863 
L 3481 4863 
L 3481 0 
L 2906 0 
L 2906 525 
Q 2725 213 2448 61 
Q 2172 -91 1784 -91 
Q 1150 -91 751 415 
Q 353 922 353 1747 
Q 353 2572 751 3078 
Q 1150 3584 1784 3584 
Q 2172 3584 2448 3432 
Q 2725 3281 2906 2969 
z
M 947 1747 
Q 947 1113 1208 752 
Q 1469 391 1925 391 
Q 2381 391 2643 752 
Q 2906 1113 2906 1747 
Q 2906 2381 2643 2742 
Q 2381 3103 1925 3103 
Q 1469 3103 1208 2742 
Q 947 2381 947 1747 
z
" transform="scale(0.015625)"/>
      <path id="DejaVuSans-67" d="M 2906 1791 
Q 2906 2416 2648 2759 
Q 2391 3103 1925 3103 
Q 1463 3103 1205 2759 
Q 947 2416 947 1791 
Q 947 1169 1205 825 
Q 1463 481 1925 481 
Q 2391 481 2648 825 
Q 2906 1169 2906 1791 
z
M 3481 434 
Q 3481 -459 3084 -895 
Q 2688 -1331 1869 -1331 
Q 1566 -1331 1297 -1286 
Q 1028 -1241 775 -1147 
L 775 -588 
Q 1028 -725 1275 -790 
Q 1522 -856 1778 -856 
Q 2344 -856 2625 -561 
Q 2906 -266 2906 331 
L 2906 616 
Q 2728 306 2450 153 
Q 2172 0 1784 0 
Q 1141 0 747 490 
Q 353 981 353 1791 
Q 353 2603 747 3093 
Q 1141 3584 1784 3584 
Q 2172 3584 2450 3431 
Q 2728 3278 2906 2969 
L 2906 3500 
L 3481 3500 
L 3481 434 
z
" transform="scale(0.015625)"/>
      <path id="DejaVuSans-2d" d="M 313 2009 
L 1997 2009 
L 1997 1497 
L 313 1497 
L 313 2009 
z
" transform="scale(0.015625)"/>
      <path id="DejaVuSans-63" d="M 3122 3366 
L 3122 2828 
Q 2878 2963 2633 3030 
Q 2388 3097 2138 3097 
Q 1578 3097 1268 2742 
Q 959 2388 959 1747 
Q 959 1106 1268 751 
Q 1578 397 2138 397 
Q 2388 397 2633 464 
Q 2878 531 3122 666 
L 3122 134 
Q 2881 22 2623 -34 
Q 2366 -91 2075 -91 
Q 1284 -91 818 406 
Q 353 903 353 1747 
Q 353 2603 823 3093 
Q 1294 3584 2113 3584 
Q 2378 3584 2631 3529 
Q 2884 3475 3122 3366 
z
" transform="scale(0.015625)"/>
      <path id="DejaVuSans-6e" d="M 3513 2113 
L 3513 0 
L 2938 0 
L 2938 2094 
Q 2938 2591 2744 2837 
Q 2550 3084 2163 3084 
Q 1697 3084 1428 2787 
Q 1159 2491 1159 1978 
L 1159 0 
L 581 0 
L 581 3500 
L 1159 3500 
L 1159 2956 
Q 1366 3272 1645 3428 
Q 1925 3584 2291 3584 
Q 2894 3584 3203 3211 
Q 3513 2838 3513 2113 
z
" transform="scale(0.015625)"/>
     </defs>
     <use xlink:href="#DejaVuSans-4e"/>
     <use xlink:href="#DejaVuSans-6f" x="74.804688"/>
     <use xlink:href="#DejaVuSans-72" x="135.986328"/>
     <use xlink:href="#DejaVuSans-74" x="177.099609"/>
     <use xlink:href="#DejaVuSans-68" x="216.308594"/>
     <use xlink:href="#DejaVuSans-72" x="279.6875"/>
     <use xlink:href="#DejaVuSans-69" x="320.800781"/>
     <use xlink:href="#DejaVuSans-64" x="348.583984"/>
     <use xlink:href="#DejaVuSans-67" x="412.060547"/>
     <use xlink:href="#DejaVuSans-65" x="475.537109"/>
     <use xlink:href="#DejaVuSans-2d" x="537.060547"/>
     <use xlink:href="#DejaVuSans-30" x="573.144531"/>
     <use xlink:href="#DejaVuSans-31" x="636.767578"/>
     <use xlink:href="#DejaVuSans-20" x="700.390625"/>
     <use xlink:href="#DejaVuSans-52" x="732.177734"/>
     <use xlink:href="#DejaVuSans-65" x="797.160156"/>
     <use xlink:href="#DejaVuSans-63" x="858.683594"/>
     <use xlink:href="#DejaVuSans-6f" x="913.664062"/>
     <use xlink:href="#DejaVuSans-72" x="974.845703"/>
     <use xlink:href="#DejaVuSans-64" x="1014.208984"/>
     <use xlink:href="#DejaVuSans-20" x="1077.685547"/>
     <use xlink:href="#DejaVuSans-6e" x="1109.472656"/>
     <use xlink:href="#DejaVuSans-6f" x="1172.851562"/>
     <use xlink:href="#DejaVuSans-2e" x="1232.283203"/>
     <use xlink:href="#DejaVuSans-20" x="1264.070312"/>
     <use xlink:href="#DejaVuSans-31" x="1295.857422"/>
     <use xlink:href="#DejaVuSans-30" x="1359.480469"/>
     <use xlink:href="#DejaVuSans-35" x="1423.103516"/>
     <use xlink:href="#DejaVuSans-30" x="1486.726562"/>
    </g>
   </g>
  </g>
 </g>
 <defs>
  <clipPath id="p0ece3e8db3">
   <rect x="75.6175" y="21.7575" width="1004.4" height="498.96"/>
  </clipPath>
 </defs>
</svg>
