<?xml version="1.0" encoding="utf-8" standalone="no"?>
<!DOCTYPE svg PUBLIC "-//W3C//DTD SVG 1.1//EN"
  "http://www.w3.org/Graphics/SVG/1.1/DTD/svg11.dtd">
<svg xmlns:xlink="http://www.w3.org/1999/xlink" width="1059.4875pt" height="562.7875pt" viewBox="0 0 1059.4875 562.7875" xmlns="http://www.w3.org/2000/svg" version="1.1">
 <metadata>
  <rdf:RDF xmlns:dc="http://purl.org/dc/elements/1.1/" xmlns:cc="http://creativecommons.org/ns#" xmlns:rdf="http://www.w3.org/1999/02/22-rdf-syntax-ns#">
   <cc:Work>
    <dc:type rdf:resource="http://purl.org/dc/dcmitype/StillImage"/>
    <dc:date>2023-06-11T21:46:14.582225</dc:date>
    <dc:format>image/svg+xml</dc:format>
    <dc:creator>
     <cc:Agent>
      <dc:title>Matplotlib v3.7.1, https://matplotlib.org/</dc:title>
     </cc:Agent>
    </dc:creator>
   </cc:Work>
  </rdf:RDF>
 </metadata>
 <defs>
  <style type="text/css">*{stroke-linejoin: round; stroke-linecap: butt}</style>
 </defs>
 <g id="figure_1">
  <g id="patch_1">
   <path d="M 0 562.7875 
L 1059.4875 562.7875 
L 1059.4875 0 
L 0 0 
z
" style="fill: #ffffff"/>
  </g>
  <g id="axes_1">
   <g id="patch_2">
    <path d="M 51.4875 520.7175 
L 1055.8875 520.7175 
L 1055.8875 21.7575 
L 51.4875 21.7575 
z
" style="fill: #ffffff"/>
   </g>
   <g id="matplotlib.axis_1">
    <g id="xtick_1">
     <g id="line2d_1">
      <path d="M 97.142045 520.7175 
L 97.142045 21.7575 
" clip-path="url(#p041d079a73)" style="fill: none; stroke-dasharray: 1.85,0.8; stroke-dashoffset: 0; stroke: #000000; stroke-opacity: 0.5; stroke-width: 0.5"/>
     </g>
     <g id="line2d_2">
      <defs>
       <path id="m2fc2b2822e" d="M 0 0 
L 0 -6 
" style="stroke: #000000"/>
      </defs>
      <g>
       <use xlink:href="#m2fc2b2822e" x="97.142045" y="520.7175" style="stroke: #000000"/>
      </g>
     </g>
     <g id="line2d_3">
      <defs>
       <path id="m5fcf593704" d="M 0 0 
L 0 6 
" style="stroke: #000000"/>
      </defs>
      <g>
       <use xlink:href="#m5fcf593704" x="97.142045" y="21.7575" style="stroke: #000000"/>
      </g>
     </g>
     <g id="text_1">
      <!-- 0.0 -->
      <g transform="translate(84.419545 536.375) scale(0.16 -0.16)">
       <defs>
        <path id="DejaVuSans-30" d="M 2034 4250 
Q 1547 4250 1301 3770 
Q 1056 3291 1056 2328 
Q 1056 1369 1301 889 
Q 1547 409 2034 409 
Q 2525 409 2770 889 
Q 3016 1369 3016 2328 
Q 3016 3291 2770 3770 
Q 2525 4250 2034 4250 
z
M 2034 4750 
Q 2819 4750 3233 4129 
Q 3647 3509 3647 2328 
Q 3647 1150 3233 529 
Q 2819 -91 2034 -91 
Q 1250 -91 836 529 
Q 422 1150 422 2328 
Q 422 3509 836 4129 
Q 1250 4750 2034 4750 
z
" transform="scale(0.015625)"/>
        <path id="DejaVuSans-2e" d="M 684 794 
L 1344 794 
L 1344 0 
L 684 0 
L 684 794 
z
" transform="scale(0.015625)"/>
       </defs>
       <use xlink:href="#DejaVuSans-30"/>
       <use xlink:href="#DejaVuSans-2e" x="63.623047"/>
       <use xlink:href="#DejaVuSans-30" x="95.410156"/>
      </g>
     </g>
    </g>
    <g id="xtick_2">
     <g id="line2d_4">
      <path d="M 211.39266 520.7175 
L 211.39266 21.7575 
" clip-path="url(#p041d079a73)" style="fill: none; stroke-dasharray: 1.85,0.8; stroke-dashoffset: 0; stroke: #000000; stroke-opacity: 0.5; stroke-width: 0.5"/>
     </g>
     <g id="line2d_5">
      <g>
       <use xlink:href="#m2fc2b2822e" x="211.39266" y="520.7175" style="stroke: #000000"/>
      </g>
     </g>
     <g id="line2d_6">
      <g>
       <use xlink:href="#m5fcf593704" x="211.39266" y="21.7575" style="stroke: #000000"/>
      </g>
     </g>
     <g id="text_2">
      <!-- 2.5 -->
      <g transform="translate(198.67016 536.375) scale(0.16 -0.16)">
       <defs>
        <path id="DejaVuSans-32" d="M 1228 531 
L 3431 531 
L 3431 0 
L 469 0 
L 469 531 
Q 828 903 1448 1529 
Q 2069 2156 2228 2338 
Q 2531 2678 2651 2914 
Q 2772 3150 2772 3378 
Q 2772 3750 2511 3984 
Q 2250 4219 1831 4219 
Q 1534 4219 1204 4116 
Q 875 4013 500 3803 
L 500 4441 
Q 881 4594 1212 4672 
Q 1544 4750 1819 4750 
Q 2544 4750 2975 4387 
Q 3406 4025 3406 3419 
Q 3406 3131 3298 2873 
Q 3191 2616 2906 2266 
Q 2828 2175 2409 1742 
Q 1991 1309 1228 531 
z
" transform="scale(0.015625)"/>
        <path id="DejaVuSans-35" d="M 691 4666 
L 3169 4666 
L 3169 4134 
L 1269 4134 
L 1269 2991 
Q 1406 3038 1543 3061 
Q 1681 3084 1819 3084 
Q 2600 3084 3056 2656 
Q 3513 2228 3513 1497 
Q 3513 744 3044 326 
Q 2575 -91 1722 -91 
Q 1428 -91 1123 -41 
Q 819 9 494 109 
L 494 744 
Q 775 591 1075 516 
Q 1375 441 1709 441 
Q 2250 441 2565 725 
Q 2881 1009 2881 1497 
Q 2881 1984 2565 2268 
Q 2250 2553 1709 2553 
Q 1456 2553 1204 2497 
Q 953 2441 691 2322 
L 691 4666 
z
" transform="scale(0.015625)"/>
       </defs>
       <use xlink:href="#DejaVuSans-32"/>
       <use xlink:href="#DejaVuSans-2e" x="63.623047"/>
       <use xlink:href="#DejaVuSans-35" x="95.410156"/>
      </g>
     </g>
    </g>
    <g id="xtick_3">
     <g id="line2d_7">
      <path d="M 325.643274 520.7175 
L 325.643274 21.7575 
" clip-path="url(#p041d079a73)" style="fill: none; stroke-dasharray: 1.85,0.8; stroke-dashoffset: 0; stroke: #000000; stroke-opacity: 0.5; stroke-width: 0.5"/>
     </g>
     <g id="line2d_8">
      <g>
       <use xlink:href="#m2fc2b2822e" x="325.643274" y="520.7175" style="stroke: #000000"/>
      </g>
     </g>
     <g id="line2d_9">
      <g>
       <use xlink:href="#m5fcf593704" x="325.643274" y="21.7575" style="stroke: #000000"/>
      </g>
     </g>
     <g id="text_3">
      <!-- 5.0 -->
      <g transform="translate(312.920774 536.375) scale(0.16 -0.16)">
       <use xlink:href="#DejaVuSans-35"/>
       <use xlink:href="#DejaVuSans-2e" x="63.623047"/>
       <use xlink:href="#DejaVuSans-30" x="95.410156"/>
      </g>
     </g>
    </g>
    <g id="xtick_4">
     <g id="line2d_10">
      <path d="M 439.893888 520.7175 
L 439.893888 21.7575 
" clip-path="url(#p041d079a73)" style="fill: none; stroke-dasharray: 1.85,0.8; stroke-dashoffset: 0; stroke: #000000; stroke-opacity: 0.5; stroke-width: 0.5"/>
     </g>
     <g id="line2d_11">
      <g>
       <use xlink:href="#m2fc2b2822e" x="439.893888" y="520.7175" style="stroke: #000000"/>
      </g>
     </g>
     <g id="line2d_12">
      <g>
       <use xlink:href="#m5fcf593704" x="439.893888" y="21.7575" style="stroke: #000000"/>
      </g>
     </g>
     <g id="text_4">
      <!-- 7.5 -->
      <g transform="translate(427.171388 536.375) scale(0.16 -0.16)">
       <defs>
        <path id="DejaVuSans-37" d="M 525 4666 
L 3525 4666 
L 3525 4397 
L 1831 0 
L 1172 0 
L 2766 4134 
L 525 4134 
L 525 4666 
z
" transform="scale(0.015625)"/>
       </defs>
       <use xlink:href="#DejaVuSans-37"/>
       <use xlink:href="#DejaVuSans-2e" x="63.623047"/>
       <use xlink:href="#DejaVuSans-35" x="95.410156"/>
      </g>
     </g>
    </g>
    <g id="xtick_5">
     <g id="line2d_13">
      <path d="M 554.144502 520.7175 
L 554.144502 21.7575 
" clip-path="url(#p041d079a73)" style="fill: none; stroke-dasharray: 1.85,0.8; stroke-dashoffset: 0; stroke: #000000; stroke-opacity: 0.5; stroke-width: 0.5"/>
     </g>
     <g id="line2d_14">
      <g>
       <use xlink:href="#m2fc2b2822e" x="554.144502" y="520.7175" style="stroke: #000000"/>
      </g>
     </g>
     <g id="line2d_15">
      <g>
       <use xlink:href="#m5fcf593704" x="554.144502" y="21.7575" style="stroke: #000000"/>
      </g>
     </g>
     <g id="text_5">
      <!-- 10.0 -->
      <g transform="translate(536.332002 536.375) scale(0.16 -0.16)">
       <defs>
        <path id="DejaVuSans-31" d="M 794 531 
L 1825 531 
L 1825 4091 
L 703 3866 
L 703 4441 
L 1819 4666 
L 2450 4666 
L 2450 531 
L 3481 531 
L 3481 0 
L 794 0 
L 794 531 
z
" transform="scale(0.015625)"/>
       </defs>
       <use xlink:href="#DejaVuSans-31"/>
       <use xlink:href="#DejaVuSans-30" x="63.623047"/>
       <use xlink:href="#DejaVuSans-2e" x="127.246094"/>
       <use xlink:href="#DejaVuSans-30" x="159.033203"/>
      </g>
     </g>
    </g>
    <g id="xtick_6">
     <g id="line2d_16">
      <path d="M 668.395117 520.7175 
L 668.395117 21.7575 
" clip-path="url(#p041d079a73)" style="fill: none; stroke-dasharray: 1.85,0.8; stroke-dashoffset: 0; stroke: #000000; stroke-opacity: 0.5; stroke-width: 0.5"/>
     </g>
     <g id="line2d_17">
      <g>
       <use xlink:href="#m2fc2b2822e" x="668.395117" y="520.7175" style="stroke: #000000"/>
      </g>
     </g>
     <g id="line2d_18">
      <g>
       <use xlink:href="#m5fcf593704" x="668.395117" y="21.7575" style="stroke: #000000"/>
      </g>
     </g>
     <g id="text_6">
      <!-- 12.5 -->
      <g transform="translate(650.582617 536.375) scale(0.16 -0.16)">
       <use xlink:href="#DejaVuSans-31"/>
       <use xlink:href="#DejaVuSans-32" x="63.623047"/>
       <use xlink:href="#DejaVuSans-2e" x="127.246094"/>
       <use xlink:href="#DejaVuSans-35" x="159.033203"/>
      </g>
     </g>
    </g>
    <g id="xtick_7">
     <g id="line2d_19">
      <path d="M 782.645731 520.7175 
L 782.645731 21.7575 
" clip-path="url(#p041d079a73)" style="fill: none; stroke-dasharray: 1.85,0.8; stroke-dashoffset: 0; stroke: #000000; stroke-opacity: 0.5; stroke-width: 0.5"/>
     </g>
     <g id="line2d_20">
      <g>
       <use xlink:href="#m2fc2b2822e" x="782.645731" y="520.7175" style="stroke: #000000"/>
      </g>
     </g>
     <g id="line2d_21">
      <g>
       <use xlink:href="#m5fcf593704" x="782.645731" y="21.7575" style="stroke: #000000"/>
      </g>
     </g>
     <g id="text_7">
      <!-- 15.0 -->
      <g transform="translate(764.833231 536.375) scale(0.16 -0.16)">
       <use xlink:href="#DejaVuSans-31"/>
       <use xlink:href="#DejaVuSans-35" x="63.623047"/>
       <use xlink:href="#DejaVuSans-2e" x="127.246094"/>
       <use xlink:href="#DejaVuSans-30" x="159.033203"/>
      </g>
     </g>
    </g>
    <g id="xtick_8">
     <g id="line2d_22">
      <path d="M 896.896345 520.7175 
L 896.896345 21.7575 
" clip-path="url(#p041d079a73)" style="fill: none; stroke-dasharray: 1.85,0.8; stroke-dashoffset: 0; stroke: #000000; stroke-opacity: 0.5; stroke-width: 0.5"/>
     </g>
     <g id="line2d_23">
      <g>
       <use xlink:href="#m2fc2b2822e" x="896.896345" y="520.7175" style="stroke: #000000"/>
      </g>
     </g>
     <g id="line2d_24">
      <g>
       <use xlink:href="#m5fcf593704" x="896.896345" y="21.7575" style="stroke: #000000"/>
      </g>
     </g>
     <g id="text_8">
      <!-- 17.5 -->
      <g transform="translate(879.083845 536.375) scale(0.16 -0.16)">
       <use xlink:href="#DejaVuSans-31"/>
       <use xlink:href="#DejaVuSans-37" x="63.623047"/>
       <use xlink:href="#DejaVuSans-2e" x="127.246094"/>
       <use xlink:href="#DejaVuSans-35" x="159.033203"/>
      </g>
     </g>
    </g>
    <g id="xtick_9">
     <g id="line2d_25">
      <path d="M 1011.146959 520.7175 
L 1011.146959 21.7575 
" clip-path="url(#p041d079a73)" style="fill: none; stroke-dasharray: 1.85,0.8; stroke-dashoffset: 0; stroke: #000000; stroke-opacity: 0.5; stroke-width: 0.5"/>
     </g>
     <g id="line2d_26">
      <g>
       <use xlink:href="#m2fc2b2822e" x="1011.146959" y="520.7175" style="stroke: #000000"/>
      </g>
     </g>
     <g id="line2d_27">
      <g>
       <use xlink:href="#m5fcf593704" x="1011.146959" y="21.7575" style="stroke: #000000"/>
      </g>
     </g>
     <g id="text_9">
      <!-- 20.0 -->
      <g transform="translate(993.334459 536.375) scale(0.16 -0.16)">
       <use xlink:href="#DejaVuSans-32"/>
       <use xlink:href="#DejaVuSans-30" x="63.623047"/>
       <use xlink:href="#DejaVuSans-2e" x="127.246094"/>
       <use xlink:href="#DejaVuSans-30" x="159.033203"/>
      </g>
     </g>
    </g>
    <g id="xtick_10">
     <g id="line2d_28">
      <defs>
       <path id="mef1d3bcf48" d="M 0 0 
L 0 -3 
" style="stroke: #000000"/>
      </defs>
      <g>
       <use xlink:href="#mef1d3bcf48" x="74.291923" y="520.7175" style="stroke: #000000"/>
      </g>
     </g>
     <g id="line2d_29">
      <defs>
       <path id="mba936f0a7e" d="M 0 0 
L 0 3 
" style="stroke: #000000"/>
      </defs>
      <g>
       <use xlink:href="#mba936f0a7e" x="74.291923" y="21.7575" style="stroke: #000000"/>
      </g>
     </g>
    </g>
    <g id="xtick_11">
     <g id="line2d_30">
      <g>
       <use xlink:href="#mef1d3bcf48" x="119.992168" y="520.7175" style="stroke: #000000"/>
      </g>
     </g>
     <g id="line2d_31">
      <g>
       <use xlink:href="#mba936f0a7e" x="119.992168" y="21.7575" style="stroke: #000000"/>
      </g>
     </g>
    </g>
    <g id="xtick_12">
     <g id="line2d_32">
      <g>
       <use xlink:href="#mef1d3bcf48" x="142.842291" y="520.7175" style="stroke: #000000"/>
      </g>
     </g>
     <g id="line2d_33">
      <g>
       <use xlink:href="#mba936f0a7e" x="142.842291" y="21.7575" style="stroke: #000000"/>
      </g>
     </g>
    </g>
    <g id="xtick_13">
     <g id="line2d_34">
      <g>
       <use xlink:href="#mef1d3bcf48" x="165.692414" y="520.7175" style="stroke: #000000"/>
      </g>
     </g>
     <g id="line2d_35">
      <g>
       <use xlink:href="#mba936f0a7e" x="165.692414" y="21.7575" style="stroke: #000000"/>
      </g>
     </g>
    </g>
    <g id="xtick_14">
     <g id="line2d_36">
      <g>
       <use xlink:href="#mef1d3bcf48" x="188.542537" y="520.7175" style="stroke: #000000"/>
      </g>
     </g>
     <g id="line2d_37">
      <g>
       <use xlink:href="#mba936f0a7e" x="188.542537" y="21.7575" style="stroke: #000000"/>
      </g>
     </g>
    </g>
    <g id="xtick_15">
     <g id="line2d_38">
      <g>
       <use xlink:href="#mef1d3bcf48" x="234.242783" y="520.7175" style="stroke: #000000"/>
      </g>
     </g>
     <g id="line2d_39">
      <g>
       <use xlink:href="#mba936f0a7e" x="234.242783" y="21.7575" style="stroke: #000000"/>
      </g>
     </g>
    </g>
    <g id="xtick_16">
     <g id="line2d_40">
      <g>
       <use xlink:href="#mef1d3bcf48" x="257.092905" y="520.7175" style="stroke: #000000"/>
      </g>
     </g>
     <g id="line2d_41">
      <g>
       <use xlink:href="#mba936f0a7e" x="257.092905" y="21.7575" style="stroke: #000000"/>
      </g>
     </g>
    </g>
    <g id="xtick_17">
     <g id="line2d_42">
      <g>
       <use xlink:href="#mef1d3bcf48" x="279.943028" y="520.7175" style="stroke: #000000"/>
      </g>
     </g>
     <g id="line2d_43">
      <g>
       <use xlink:href="#mba936f0a7e" x="279.943028" y="21.7575" style="stroke: #000000"/>
      </g>
     </g>
    </g>
    <g id="xtick_18">
     <g id="line2d_44">
      <g>
       <use xlink:href="#mef1d3bcf48" x="302.793151" y="520.7175" style="stroke: #000000"/>
      </g>
     </g>
     <g id="line2d_45">
      <g>
       <use xlink:href="#mba936f0a7e" x="302.793151" y="21.7575" style="stroke: #000000"/>
      </g>
     </g>
    </g>
    <g id="xtick_19">
     <g id="line2d_46">
      <g>
       <use xlink:href="#mef1d3bcf48" x="348.493397" y="520.7175" style="stroke: #000000"/>
      </g>
     </g>
     <g id="line2d_47">
      <g>
       <use xlink:href="#mba936f0a7e" x="348.493397" y="21.7575" style="stroke: #000000"/>
      </g>
     </g>
    </g>
    <g id="xtick_20">
     <g id="line2d_48">
      <g>
       <use xlink:href="#mef1d3bcf48" x="371.34352" y="520.7175" style="stroke: #000000"/>
      </g>
     </g>
     <g id="line2d_49">
      <g>
       <use xlink:href="#mba936f0a7e" x="371.34352" y="21.7575" style="stroke: #000000"/>
      </g>
     </g>
    </g>
    <g id="xtick_21">
     <g id="line2d_50">
      <g>
       <use xlink:href="#mef1d3bcf48" x="394.193643" y="520.7175" style="stroke: #000000"/>
      </g>
     </g>
     <g id="line2d_51">
      <g>
       <use xlink:href="#mba936f0a7e" x="394.193643" y="21.7575" style="stroke: #000000"/>
      </g>
     </g>
    </g>
    <g id="xtick_22">
     <g id="line2d_52">
      <g>
       <use xlink:href="#mef1d3bcf48" x="417.043765" y="520.7175" style="stroke: #000000"/>
      </g>
     </g>
     <g id="line2d_53">
      <g>
       <use xlink:href="#mba936f0a7e" x="417.043765" y="21.7575" style="stroke: #000000"/>
      </g>
     </g>
    </g>
    <g id="xtick_23">
     <g id="line2d_54">
      <g>
       <use xlink:href="#mef1d3bcf48" x="462.744011" y="520.7175" style="stroke: #000000"/>
      </g>
     </g>
     <g id="line2d_55">
      <g>
       <use xlink:href="#mba936f0a7e" x="462.744011" y="21.7575" style="stroke: #000000"/>
      </g>
     </g>
    </g>
    <g id="xtick_24">
     <g id="line2d_56">
      <g>
       <use xlink:href="#mef1d3bcf48" x="485.594134" y="520.7175" style="stroke: #000000"/>
      </g>
     </g>
     <g id="line2d_57">
      <g>
       <use xlink:href="#mba936f0a7e" x="485.594134" y="21.7575" style="stroke: #000000"/>
      </g>
     </g>
    </g>
    <g id="xtick_25">
     <g id="line2d_58">
      <g>
       <use xlink:href="#mef1d3bcf48" x="508.444257" y="520.7175" style="stroke: #000000"/>
      </g>
     </g>
     <g id="line2d_59">
      <g>
       <use xlink:href="#mba936f0a7e" x="508.444257" y="21.7575" style="stroke: #000000"/>
      </g>
     </g>
    </g>
    <g id="xtick_26">
     <g id="line2d_60">
      <g>
       <use xlink:href="#mef1d3bcf48" x="531.29438" y="520.7175" style="stroke: #000000"/>
      </g>
     </g>
     <g id="line2d_61">
      <g>
       <use xlink:href="#mba936f0a7e" x="531.29438" y="21.7575" style="stroke: #000000"/>
      </g>
     </g>
    </g>
    <g id="xtick_27">
     <g id="line2d_62">
      <g>
       <use xlink:href="#mef1d3bcf48" x="576.994625" y="520.7175" style="stroke: #000000"/>
      </g>
     </g>
     <g id="line2d_63">
      <g>
       <use xlink:href="#mba936f0a7e" x="576.994625" y="21.7575" style="stroke: #000000"/>
      </g>
     </g>
    </g>
    <g id="xtick_28">
     <g id="line2d_64">
      <g>
       <use xlink:href="#mef1d3bcf48" x="599.844748" y="520.7175" style="stroke: #000000"/>
      </g>
     </g>
     <g id="line2d_65">
      <g>
       <use xlink:href="#mba936f0a7e" x="599.844748" y="21.7575" style="stroke: #000000"/>
      </g>
     </g>
    </g>
    <g id="xtick_29">
     <g id="line2d_66">
      <g>
       <use xlink:href="#mef1d3bcf48" x="622.694871" y="520.7175" style="stroke: #000000"/>
      </g>
     </g>
     <g id="line2d_67">
      <g>
       <use xlink:href="#mba936f0a7e" x="622.694871" y="21.7575" style="stroke: #000000"/>
      </g>
     </g>
    </g>
    <g id="xtick_30">
     <g id="line2d_68">
      <g>
       <use xlink:href="#mef1d3bcf48" x="645.544994" y="520.7175" style="stroke: #000000"/>
      </g>
     </g>
     <g id="line2d_69">
      <g>
       <use xlink:href="#mba936f0a7e" x="645.544994" y="21.7575" style="stroke: #000000"/>
      </g>
     </g>
    </g>
    <g id="xtick_31">
     <g id="line2d_70">
      <g>
       <use xlink:href="#mef1d3bcf48" x="691.24524" y="520.7175" style="stroke: #000000"/>
      </g>
     </g>
     <g id="line2d_71">
      <g>
       <use xlink:href="#mba936f0a7e" x="691.24524" y="21.7575" style="stroke: #000000"/>
      </g>
     </g>
    </g>
    <g id="xtick_32">
     <g id="line2d_72">
      <g>
       <use xlink:href="#mef1d3bcf48" x="714.095362" y="520.7175" style="stroke: #000000"/>
      </g>
     </g>
     <g id="line2d_73">
      <g>
       <use xlink:href="#mba936f0a7e" x="714.095362" y="21.7575" style="stroke: #000000"/>
      </g>
     </g>
    </g>
    <g id="xtick_33">
     <g id="line2d_74">
      <g>
       <use xlink:href="#mef1d3bcf48" x="736.945485" y="520.7175" style="stroke: #000000"/>
      </g>
     </g>
     <g id="line2d_75">
      <g>
       <use xlink:href="#mba936f0a7e" x="736.945485" y="21.7575" style="stroke: #000000"/>
      </g>
     </g>
    </g>
    <g id="xtick_34">
     <g id="line2d_76">
      <g>
       <use xlink:href="#mef1d3bcf48" x="759.795608" y="520.7175" style="stroke: #000000"/>
      </g>
     </g>
     <g id="line2d_77">
      <g>
       <use xlink:href="#mba936f0a7e" x="759.795608" y="21.7575" style="stroke: #000000"/>
      </g>
     </g>
    </g>
    <g id="xtick_35">
     <g id="line2d_78">
      <g>
       <use xlink:href="#mef1d3bcf48" x="805.495854" y="520.7175" style="stroke: #000000"/>
      </g>
     </g>
     <g id="line2d_79">
      <g>
       <use xlink:href="#mba936f0a7e" x="805.495854" y="21.7575" style="stroke: #000000"/>
      </g>
     </g>
    </g>
    <g id="xtick_36">
     <g id="line2d_80">
      <g>
       <use xlink:href="#mef1d3bcf48" x="828.345977" y="520.7175" style="stroke: #000000"/>
      </g>
     </g>
     <g id="line2d_81">
      <g>
       <use xlink:href="#mba936f0a7e" x="828.345977" y="21.7575" style="stroke: #000000"/>
      </g>
     </g>
    </g>
    <g id="xtick_37">
     <g id="line2d_82">
      <g>
       <use xlink:href="#mef1d3bcf48" x="851.1961" y="520.7175" style="stroke: #000000"/>
      </g>
     </g>
     <g id="line2d_83">
      <g>
       <use xlink:href="#mba936f0a7e" x="851.1961" y="21.7575" style="stroke: #000000"/>
      </g>
     </g>
    </g>
    <g id="xtick_38">
     <g id="line2d_84">
      <g>
       <use xlink:href="#mef1d3bcf48" x="874.046222" y="520.7175" style="stroke: #000000"/>
      </g>
     </g>
     <g id="line2d_85">
      <g>
       <use xlink:href="#mba936f0a7e" x="874.046222" y="21.7575" style="stroke: #000000"/>
      </g>
     </g>
    </g>
    <g id="xtick_39">
     <g id="line2d_86">
      <g>
       <use xlink:href="#mef1d3bcf48" x="919.746468" y="520.7175" style="stroke: #000000"/>
      </g>
     </g>
     <g id="line2d_87">
      <g>
       <use xlink:href="#mba936f0a7e" x="919.746468" y="21.7575" style="stroke: #000000"/>
      </g>
     </g>
    </g>
    <g id="xtick_40">
     <g id="line2d_88">
      <g>
       <use xlink:href="#mef1d3bcf48" x="942.596591" y="520.7175" style="stroke: #000000"/>
      </g>
     </g>
     <g id="line2d_89">
      <g>
       <use xlink:href="#mba936f0a7e" x="942.596591" y="21.7575" style="stroke: #000000"/>
      </g>
     </g>
    </g>
    <g id="xtick_41">
     <g id="line2d_90">
      <g>
       <use xlink:href="#mef1d3bcf48" x="965.446714" y="520.7175" style="stroke: #000000"/>
      </g>
     </g>
     <g id="line2d_91">
      <g>
       <use xlink:href="#mba936f0a7e" x="965.446714" y="21.7575" style="stroke: #000000"/>
      </g>
     </g>
    </g>
    <g id="xtick_42">
     <g id="line2d_92">
      <g>
       <use xlink:href="#mef1d3bcf48" x="988.296837" y="520.7175" style="stroke: #000000"/>
      </g>
     </g>
     <g id="line2d_93">
      <g>
       <use xlink:href="#mba936f0a7e" x="988.296837" y="21.7575" style="stroke: #000000"/>
      </g>
     </g>
    </g>
    <g id="xtick_43">
     <g id="line2d_94">
      <g>
       <use xlink:href="#mef1d3bcf48" x="1033.997082" y="520.7175" style="stroke: #000000"/>
      </g>
     </g>
     <g id="line2d_95">
      <g>
       <use xlink:href="#mba936f0a7e" x="1033.997082" y="21.7575" style="stroke: #000000"/>
      </g>
     </g>
    </g>
    <g id="text_10">
     <!-- Time(s) -->
     <g transform="translate(523.70375 555.86) scale(0.16 -0.16)">
      <defs>
       <path id="DejaVuSans-54" d="M -19 4666 
L 3928 4666 
L 3928 4134 
L 2272 4134 
L 2272 0 
L 1638 0 
L 1638 4134 
L -19 4134 
L -19 4666 
z
" transform="scale(0.015625)"/>
       <path id="DejaVuSans-69" d="M 603 3500 
L 1178 3500 
L 1178 0 
L 603 0 
L 603 3500 
z
M 603 4863 
L 1178 4863 
L 1178 4134 
L 603 4134 
L 603 4863 
z
" transform="scale(0.015625)"/>
       <path id="DejaVuSans-6d" d="M 3328 2828 
Q 3544 3216 3844 3400 
Q 4144 3584 4550 3584 
Q 5097 3584 5394 3201 
Q 5691 2819 5691 2113 
L 5691 0 
L 5113 0 
L 5113 2094 
Q 5113 2597 4934 2840 
Q 4756 3084 4391 3084 
Q 3944 3084 3684 2787 
Q 3425 2491 3425 1978 
L 3425 0 
L 2847 0 
L 2847 2094 
Q 2847 2600 2669 2842 
Q 2491 3084 2119 3084 
Q 1678 3084 1418 2786 
Q 1159 2488 1159 1978 
L 1159 0 
L 581 0 
L 581 3500 
L 1159 3500 
L 1159 2956 
Q 1356 3278 1631 3431 
Q 1906 3584 2284 3584 
Q 2666 3584 2933 3390 
Q 3200 3197 3328 2828 
z
" transform="scale(0.015625)"/>
       <path id="DejaVuSans-65" d="M 3597 1894 
L 3597 1613 
L 953 1613 
Q 991 1019 1311 708 
Q 1631 397 2203 397 
Q 2534 397 2845 478 
Q 3156 559 3463 722 
L 3463 178 
Q 3153 47 2828 -22 
Q 2503 -91 2169 -91 
Q 1331 -91 842 396 
Q 353 884 353 1716 
Q 353 2575 817 3079 
Q 1281 3584 2069 3584 
Q 2775 3584 3186 3129 
Q 3597 2675 3597 1894 
z
M 3022 2063 
Q 3016 2534 2758 2815 
Q 2500 3097 2075 3097 
Q 1594 3097 1305 2825 
Q 1016 2553 972 2059 
L 3022 2063 
z
" transform="scale(0.015625)"/>
       <path id="DejaVuSans-28" d="M 1984 4856 
Q 1566 4138 1362 3434 
Q 1159 2731 1159 2009 
Q 1159 1288 1364 580 
Q 1569 -128 1984 -844 
L 1484 -844 
Q 1016 -109 783 600 
Q 550 1309 550 2009 
Q 550 2706 781 3412 
Q 1013 4119 1484 4856 
L 1984 4856 
z
" transform="scale(0.015625)"/>
       <path id="DejaVuSans-73" d="M 2834 3397 
L 2834 2853 
Q 2591 2978 2328 3040 
Q 2066 3103 1784 3103 
Q 1356 3103 1142 2972 
Q 928 2841 928 2578 
Q 928 2378 1081 2264 
Q 1234 2150 1697 2047 
L 1894 2003 
Q 2506 1872 2764 1633 
Q 3022 1394 3022 966 
Q 3022 478 2636 193 
Q 2250 -91 1575 -91 
Q 1294 -91 989 -36 
Q 684 19 347 128 
L 347 722 
Q 666 556 975 473 
Q 1284 391 1588 391 
Q 1994 391 2212 530 
Q 2431 669 2431 922 
Q 2431 1156 2273 1281 
Q 2116 1406 1581 1522 
L 1381 1569 
Q 847 1681 609 1914 
Q 372 2147 372 2553 
Q 372 3047 722 3315 
Q 1072 3584 1716 3584 
Q 2034 3584 2315 3537 
Q 2597 3491 2834 3397 
z
" transform="scale(0.015625)"/>
       <path id="DejaVuSans-29" d="M 513 4856 
L 1013 4856 
Q 1481 4119 1714 3412 
Q 1947 2706 1947 2009 
Q 1947 1309 1714 600 
Q 1481 -109 1013 -844 
L 513 -844 
Q 928 -128 1133 580 
Q 1338 1288 1338 2009 
Q 1338 2731 1133 3434 
Q 928 4138 513 4856 
z
" transform="scale(0.015625)"/>
      </defs>
      <use xlink:href="#DejaVuSans-54"/>
      <use xlink:href="#DejaVuSans-69" x="57.958984"/>
      <use xlink:href="#DejaVuSans-6d" x="85.742188"/>
      <use xlink:href="#DejaVuSans-65" x="183.154297"/>
      <use xlink:href="#DejaVuSans-28" x="244.677734"/>
      <use xlink:href="#DejaVuSans-73" x="283.691406"/>
      <use xlink:href="#DejaVuSans-29" x="335.791016"/>
     </g>
    </g>
   </g>
   <g id="matplotlib.axis_2">
    <g id="ytick_1">
     <g id="line2d_96">
      <path d="M 51.4875 456.26112 
L 1055.8875 456.26112 
" clip-path="url(#p041d079a73)" style="fill: none; stroke-dasharray: 1.85,0.8; stroke-dashoffset: 0; stroke: #000000; stroke-opacity: 0.5; stroke-width: 0.5"/>
     </g>
     <g id="line2d_97">
      <defs>
       <path id="m8f2bd4f182" d="M 0 0 
L 6 0 
" style="stroke: #000000"/>
      </defs>
      <g>
       <use xlink:href="#m8f2bd4f182" x="51.4875" y="456.26112" style="stroke: #000000"/>
      </g>
     </g>
     <g id="line2d_98">
      <defs>
       <path id="m475ccc6a7a" d="M 0 0 
L -6 0 
" style="stroke: #000000"/>
      </defs>
      <g>
       <use xlink:href="#m475ccc6a7a" x="1055.8875" y="456.26112" style="stroke: #000000"/>
      </g>
     </g>
     <g id="text_11">
      <!-- −3 -->
      <g transform="translate(24.4 462.33987) scale(0.16 -0.16)">
       <defs>
        <path id="DejaVuSans-2212" d="M 678 2272 
L 4684 2272 
L 4684 1741 
L 678 1741 
L 678 2272 
z
" transform="scale(0.015625)"/>
        <path id="DejaVuSans-33" d="M 2597 2516 
Q 3050 2419 3304 2112 
Q 3559 1806 3559 1356 
Q 3559 666 3084 287 
Q 2609 -91 1734 -91 
Q 1441 -91 1130 -33 
Q 819 25 488 141 
L 488 750 
Q 750 597 1062 519 
Q 1375 441 1716 441 
Q 2309 441 2620 675 
Q 2931 909 2931 1356 
Q 2931 1769 2642 2001 
Q 2353 2234 1838 2234 
L 1294 2234 
L 1294 2753 
L 1863 2753 
Q 2328 2753 2575 2939 
Q 2822 3125 2822 3475 
Q 2822 3834 2567 4026 
Q 2313 4219 1838 4219 
Q 1578 4219 1281 4162 
Q 984 4106 628 3988 
L 628 4550 
Q 988 4650 1302 4700 
Q 1616 4750 1894 4750 
Q 2613 4750 3031 4423 
Q 3450 4097 3450 3541 
Q 3450 3153 3228 2886 
Q 3006 2619 2597 2516 
z
" transform="scale(0.015625)"/>
       </defs>
       <use xlink:href="#DejaVuSans-2212"/>
       <use xlink:href="#DejaVuSans-33" x="83.789062"/>
      </g>
     </g>
    </g>
    <g id="ytick_2">
     <g id="line2d_99">
      <path d="M 51.4875 385.52173 
L 1055.8875 385.52173 
" clip-path="url(#p041d079a73)" style="fill: none; stroke-dasharray: 1.85,0.8; stroke-dashoffset: 0; stroke: #000000; stroke-opacity: 0.5; stroke-width: 0.5"/>
     </g>
     <g id="line2d_100">
      <g>
       <use xlink:href="#m8f2bd4f182" x="51.4875" y="385.52173" style="stroke: #000000"/>
      </g>
     </g>
     <g id="line2d_101">
      <g>
       <use xlink:href="#m475ccc6a7a" x="1055.8875" y="385.52173" style="stroke: #000000"/>
      </g>
     </g>
     <g id="text_12">
      <!-- −2 -->
      <g transform="translate(24.4 391.60048) scale(0.16 -0.16)">
       <use xlink:href="#DejaVuSans-2212"/>
       <use xlink:href="#DejaVuSans-32" x="83.789062"/>
      </g>
     </g>
    </g>
    <g id="ytick_3">
     <g id="line2d_102">
      <path d="M 51.4875 314.782339 
L 1055.8875 314.782339 
" clip-path="url(#p041d079a73)" style="fill: none; stroke-dasharray: 1.85,0.8; stroke-dashoffset: 0; stroke: #000000; stroke-opacity: 0.5; stroke-width: 0.5"/>
     </g>
     <g id="line2d_103">
      <g>
       <use xlink:href="#m8f2bd4f182" x="51.4875" y="314.782339" style="stroke: #000000"/>
      </g>
     </g>
     <g id="line2d_104">
      <g>
       <use xlink:href="#m475ccc6a7a" x="1055.8875" y="314.782339" style="stroke: #000000"/>
      </g>
     </g>
     <g id="text_13">
      <!-- −1 -->
      <g transform="translate(24.4 320.861089) scale(0.16 -0.16)">
       <use xlink:href="#DejaVuSans-2212"/>
       <use xlink:href="#DejaVuSans-31" x="83.789062"/>
      </g>
     </g>
    </g>
    <g id="ytick_4">
     <g id="line2d_105">
      <path d="M 51.4875 244.042948 
L 1055.8875 244.042948 
" clip-path="url(#p041d079a73)" style="fill: none; stroke-dasharray: 1.85,0.8; stroke-dashoffset: 0; stroke: #000000; stroke-opacity: 0.5; stroke-width: 0.5"/>
     </g>
     <g id="line2d_106">
      <g>
       <use xlink:href="#m8f2bd4f182" x="51.4875" y="244.042948" style="stroke: #000000"/>
      </g>
     </g>
     <g id="line2d_107">
      <g>
       <use xlink:href="#m475ccc6a7a" x="1055.8875" y="244.042948" style="stroke: #000000"/>
      </g>
     </g>
     <g id="text_14">
      <!-- 0 -->
      <g transform="translate(37.8075 250.121698) scale(0.16 -0.16)">
       <use xlink:href="#DejaVuSans-30"/>
      </g>
     </g>
    </g>
    <g id="ytick_5">
     <g id="line2d_108">
      <path d="M 51.4875 173.303557 
L 1055.8875 173.303557 
" clip-path="url(#p041d079a73)" style="fill: none; stroke-dasharray: 1.85,0.8; stroke-dashoffset: 0; stroke: #000000; stroke-opacity: 0.5; stroke-width: 0.5"/>
     </g>
     <g id="line2d_109">
      <g>
       <use xlink:href="#m8f2bd4f182" x="51.4875" y="173.303557" style="stroke: #000000"/>
      </g>
     </g>
     <g id="line2d_110">
      <g>
       <use xlink:href="#m475ccc6a7a" x="1055.8875" y="173.303557" style="stroke: #000000"/>
      </g>
     </g>
     <g id="text_15">
      <!-- 1 -->
      <g transform="translate(37.8075 179.382307) scale(0.16 -0.16)">
       <use xlink:href="#DejaVuSans-31"/>
      </g>
     </g>
    </g>
    <g id="ytick_6">
     <g id="line2d_111">
      <path d="M 51.4875 102.564167 
L 1055.8875 102.564167 
" clip-path="url(#p041d079a73)" style="fill: none; stroke-dasharray: 1.85,0.8; stroke-dashoffset: 0; stroke: #000000; stroke-opacity: 0.5; stroke-width: 0.5"/>
     </g>
     <g id="line2d_112">
      <g>
       <use xlink:href="#m8f2bd4f182" x="51.4875" y="102.564167" style="stroke: #000000"/>
      </g>
     </g>
     <g id="line2d_113">
      <g>
       <use xlink:href="#m475ccc6a7a" x="1055.8875" y="102.564167" style="stroke: #000000"/>
      </g>
     </g>
     <g id="text_16">
      <!-- 2 -->
      <g transform="translate(37.8075 108.642917) scale(0.16 -0.16)">
       <use xlink:href="#DejaVuSans-32"/>
      </g>
     </g>
    </g>
    <g id="ytick_7">
     <g id="line2d_114">
      <path d="M 51.4875 31.824776 
L 1055.8875 31.824776 
" clip-path="url(#p041d079a73)" style="fill: none; stroke-dasharray: 1.85,0.8; stroke-dashoffset: 0; stroke: #000000; stroke-opacity: 0.5; stroke-width: 0.5"/>
     </g>
     <g id="line2d_115">
      <g>
       <use xlink:href="#m8f2bd4f182" x="51.4875" y="31.824776" style="stroke: #000000"/>
      </g>
     </g>
     <g id="line2d_116">
      <g>
       <use xlink:href="#m475ccc6a7a" x="1055.8875" y="31.824776" style="stroke: #000000"/>
      </g>
     </g>
     <g id="text_17">
      <!-- 3 -->
      <g transform="translate(37.8075 37.903526) scale(0.16 -0.16)">
       <use xlink:href="#DejaVuSans-33"/>
      </g>
     </g>
    </g>
    <g id="ytick_8">
     <g id="line2d_117">
      <defs>
       <path id="m62293e1f14" d="M 0 0 
L 3 0 
" style="stroke: #000000"/>
      </defs>
      <g>
       <use xlink:href="#m62293e1f14" x="51.4875" y="512.852633" style="stroke: #000000"/>
      </g>
     </g>
     <g id="line2d_118">
      <defs>
       <path id="mce96797587" d="M 0 0 
L -3 0 
" style="stroke: #000000"/>
      </defs>
      <g>
       <use xlink:href="#mce96797587" x="1055.8875" y="512.852633" style="stroke: #000000"/>
      </g>
     </g>
    </g>
    <g id="ytick_9">
     <g id="line2d_119">
      <g>
       <use xlink:href="#m62293e1f14" x="51.4875" y="498.704755" style="stroke: #000000"/>
      </g>
     </g>
     <g id="line2d_120">
      <g>
       <use xlink:href="#mce96797587" x="1055.8875" y="498.704755" style="stroke: #000000"/>
      </g>
     </g>
    </g>
    <g id="ytick_10">
     <g id="line2d_121">
      <g>
       <use xlink:href="#m62293e1f14" x="51.4875" y="484.556877" style="stroke: #000000"/>
      </g>
     </g>
     <g id="line2d_122">
      <g>
       <use xlink:href="#mce96797587" x="1055.8875" y="484.556877" style="stroke: #000000"/>
      </g>
     </g>
    </g>
    <g id="ytick_11">
     <g id="line2d_123">
      <g>
       <use xlink:href="#m62293e1f14" x="51.4875" y="470.408999" style="stroke: #000000"/>
      </g>
     </g>
     <g id="line2d_124">
      <g>
       <use xlink:href="#mce96797587" x="1055.8875" y="470.408999" style="stroke: #000000"/>
      </g>
     </g>
    </g>
    <g id="ytick_12">
     <g id="line2d_125">
      <g>
       <use xlink:href="#m62293e1f14" x="51.4875" y="442.113242" style="stroke: #000000"/>
      </g>
     </g>
     <g id="line2d_126">
      <g>
       <use xlink:href="#mce96797587" x="1055.8875" y="442.113242" style="stroke: #000000"/>
      </g>
     </g>
    </g>
    <g id="ytick_13">
     <g id="line2d_127">
      <g>
       <use xlink:href="#m62293e1f14" x="51.4875" y="427.965364" style="stroke: #000000"/>
      </g>
     </g>
     <g id="line2d_128">
      <g>
       <use xlink:href="#mce96797587" x="1055.8875" y="427.965364" style="stroke: #000000"/>
      </g>
     </g>
    </g>
    <g id="ytick_14">
     <g id="line2d_129">
      <g>
       <use xlink:href="#m62293e1f14" x="51.4875" y="413.817486" style="stroke: #000000"/>
      </g>
     </g>
     <g id="line2d_130">
      <g>
       <use xlink:href="#mce96797587" x="1055.8875" y="413.817486" style="stroke: #000000"/>
      </g>
     </g>
    </g>
    <g id="ytick_15">
     <g id="line2d_131">
      <g>
       <use xlink:href="#m62293e1f14" x="51.4875" y="399.669608" style="stroke: #000000"/>
      </g>
     </g>
     <g id="line2d_132">
      <g>
       <use xlink:href="#mce96797587" x="1055.8875" y="399.669608" style="stroke: #000000"/>
      </g>
     </g>
    </g>
    <g id="ytick_16">
     <g id="line2d_133">
      <g>
       <use xlink:href="#m62293e1f14" x="51.4875" y="371.373851" style="stroke: #000000"/>
      </g>
     </g>
     <g id="line2d_134">
      <g>
       <use xlink:href="#mce96797587" x="1055.8875" y="371.373851" style="stroke: #000000"/>
      </g>
     </g>
    </g>
    <g id="ytick_17">
     <g id="line2d_135">
      <g>
       <use xlink:href="#m62293e1f14" x="51.4875" y="357.225973" style="stroke: #000000"/>
      </g>
     </g>
     <g id="line2d_136">
      <g>
       <use xlink:href="#mce96797587" x="1055.8875" y="357.225973" style="stroke: #000000"/>
      </g>
     </g>
    </g>
    <g id="ytick_18">
     <g id="line2d_137">
      <g>
       <use xlink:href="#m62293e1f14" x="51.4875" y="343.078095" style="stroke: #000000"/>
      </g>
     </g>
     <g id="line2d_138">
      <g>
       <use xlink:href="#mce96797587" x="1055.8875" y="343.078095" style="stroke: #000000"/>
      </g>
     </g>
    </g>
    <g id="ytick_19">
     <g id="line2d_139">
      <g>
       <use xlink:href="#m62293e1f14" x="51.4875" y="328.930217" style="stroke: #000000"/>
      </g>
     </g>
     <g id="line2d_140">
      <g>
       <use xlink:href="#mce96797587" x="1055.8875" y="328.930217" style="stroke: #000000"/>
      </g>
     </g>
    </g>
    <g id="ytick_20">
     <g id="line2d_141">
      <g>
       <use xlink:href="#m62293e1f14" x="51.4875" y="300.634461" style="stroke: #000000"/>
      </g>
     </g>
     <g id="line2d_142">
      <g>
       <use xlink:href="#mce96797587" x="1055.8875" y="300.634461" style="stroke: #000000"/>
      </g>
     </g>
    </g>
    <g id="ytick_21">
     <g id="line2d_143">
      <g>
       <use xlink:href="#m62293e1f14" x="51.4875" y="286.486583" style="stroke: #000000"/>
      </g>
     </g>
     <g id="line2d_144">
      <g>
       <use xlink:href="#mce96797587" x="1055.8875" y="286.486583" style="stroke: #000000"/>
      </g>
     </g>
    </g>
    <g id="ytick_22">
     <g id="line2d_145">
      <g>
       <use xlink:href="#m62293e1f14" x="51.4875" y="272.338704" style="stroke: #000000"/>
      </g>
     </g>
     <g id="line2d_146">
      <g>
       <use xlink:href="#mce96797587" x="1055.8875" y="272.338704" style="stroke: #000000"/>
      </g>
     </g>
    </g>
    <g id="ytick_23">
     <g id="line2d_147">
      <g>
       <use xlink:href="#m62293e1f14" x="51.4875" y="258.190826" style="stroke: #000000"/>
      </g>
     </g>
     <g id="line2d_148">
      <g>
       <use xlink:href="#mce96797587" x="1055.8875" y="258.190826" style="stroke: #000000"/>
      </g>
     </g>
    </g>
    <g id="ytick_24">
     <g id="line2d_149">
      <g>
       <use xlink:href="#m62293e1f14" x="51.4875" y="229.89507" style="stroke: #000000"/>
      </g>
     </g>
     <g id="line2d_150">
      <g>
       <use xlink:href="#mce96797587" x="1055.8875" y="229.89507" style="stroke: #000000"/>
      </g>
     </g>
    </g>
    <g id="ytick_25">
     <g id="line2d_151">
      <g>
       <use xlink:href="#m62293e1f14" x="51.4875" y="215.747192" style="stroke: #000000"/>
      </g>
     </g>
     <g id="line2d_152">
      <g>
       <use xlink:href="#mce96797587" x="1055.8875" y="215.747192" style="stroke: #000000"/>
      </g>
     </g>
    </g>
    <g id="ytick_26">
     <g id="line2d_153">
      <g>
       <use xlink:href="#m62293e1f14" x="51.4875" y="201.599314" style="stroke: #000000"/>
      </g>
     </g>
     <g id="line2d_154">
      <g>
       <use xlink:href="#mce96797587" x="1055.8875" y="201.599314" style="stroke: #000000"/>
      </g>
     </g>
    </g>
    <g id="ytick_27">
     <g id="line2d_155">
      <g>
       <use xlink:href="#m62293e1f14" x="51.4875" y="187.451435" style="stroke: #000000"/>
      </g>
     </g>
     <g id="line2d_156">
      <g>
       <use xlink:href="#mce96797587" x="1055.8875" y="187.451435" style="stroke: #000000"/>
      </g>
     </g>
    </g>
    <g id="ytick_28">
     <g id="line2d_157">
      <g>
       <use xlink:href="#m62293e1f14" x="51.4875" y="159.155679" style="stroke: #000000"/>
      </g>
     </g>
     <g id="line2d_158">
      <g>
       <use xlink:href="#mce96797587" x="1055.8875" y="159.155679" style="stroke: #000000"/>
      </g>
     </g>
    </g>
    <g id="ytick_29">
     <g id="line2d_159">
      <g>
       <use xlink:href="#m62293e1f14" x="51.4875" y="145.007801" style="stroke: #000000"/>
      </g>
     </g>
     <g id="line2d_160">
      <g>
       <use xlink:href="#mce96797587" x="1055.8875" y="145.007801" style="stroke: #000000"/>
      </g>
     </g>
    </g>
    <g id="ytick_30">
     <g id="line2d_161">
      <g>
       <use xlink:href="#m62293e1f14" x="51.4875" y="130.859923" style="stroke: #000000"/>
      </g>
     </g>
     <g id="line2d_162">
      <g>
       <use xlink:href="#mce96797587" x="1055.8875" y="130.859923" style="stroke: #000000"/>
      </g>
     </g>
    </g>
    <g id="ytick_31">
     <g id="line2d_163">
      <g>
       <use xlink:href="#m62293e1f14" x="51.4875" y="116.712045" style="stroke: #000000"/>
      </g>
     </g>
     <g id="line2d_164">
      <g>
       <use xlink:href="#mce96797587" x="1055.8875" y="116.712045" style="stroke: #000000"/>
      </g>
     </g>
    </g>
    <g id="ytick_32">
     <g id="line2d_165">
      <g>
       <use xlink:href="#m62293e1f14" x="51.4875" y="88.416288" style="stroke: #000000"/>
      </g>
     </g>
     <g id="line2d_166">
      <g>
       <use xlink:href="#mce96797587" x="1055.8875" y="88.416288" style="stroke: #000000"/>
      </g>
     </g>
    </g>
    <g id="ytick_33">
     <g id="line2d_167">
      <g>
       <use xlink:href="#m62293e1f14" x="51.4875" y="74.26841" style="stroke: #000000"/>
      </g>
     </g>
     <g id="line2d_168">
      <g>
       <use xlink:href="#mce96797587" x="1055.8875" y="74.26841" style="stroke: #000000"/>
      </g>
     </g>
    </g>
    <g id="ytick_34">
     <g id="line2d_169">
      <g>
       <use xlink:href="#m62293e1f14" x="51.4875" y="60.120532" style="stroke: #000000"/>
      </g>
     </g>
     <g id="line2d_170">
      <g>
       <use xlink:href="#mce96797587" x="1055.8875" y="60.120532" style="stroke: #000000"/>
      </g>
     </g>
    </g>
    <g id="ytick_35">
     <g id="line2d_171">
      <g>
       <use xlink:href="#m62293e1f14" x="51.4875" y="45.972654" style="stroke: #000000"/>
      </g>
     </g>
     <g id="line2d_172">
      <g>
       <use xlink:href="#mce96797587" x="1055.8875" y="45.972654" style="stroke: #000000"/>
      </g>
     </g>
    </g>
    <g id="text_18">
     <!-- Absolute Roof Acceleration (m/s$^2$) -->
     <g transform="translate(17.0725 406.6775) rotate(-90) scale(0.16 -0.16)">
      <defs>
       <path id="DejaVuSans-41" d="M 2188 4044 
L 1331 1722 
L 3047 1722 
L 2188 4044 
z
M 1831 4666 
L 2547 4666 
L 4325 0 
L 3669 0 
L 3244 1197 
L 1141 1197 
L 716 0 
L 50 0 
L 1831 4666 
z
" transform="scale(0.015625)"/>
       <path id="DejaVuSans-62" d="M 3116 1747 
Q 3116 2381 2855 2742 
Q 2594 3103 2138 3103 
Q 1681 3103 1420 2742 
Q 1159 2381 1159 1747 
Q 1159 1113 1420 752 
Q 1681 391 2138 391 
Q 2594 391 2855 752 
Q 3116 1113 3116 1747 
z
M 1159 2969 
Q 1341 3281 1617 3432 
Q 1894 3584 2278 3584 
Q 2916 3584 3314 3078 
Q 3713 2572 3713 1747 
Q 3713 922 3314 415 
Q 2916 -91 2278 -91 
Q 1894 -91 1617 61 
Q 1341 213 1159 525 
L 1159 0 
L 581 0 
L 581 4863 
L 1159 4863 
L 1159 2969 
z
" transform="scale(0.015625)"/>
       <path id="DejaVuSans-6f" d="M 1959 3097 
Q 1497 3097 1228 2736 
Q 959 2375 959 1747 
Q 959 1119 1226 758 
Q 1494 397 1959 397 
Q 2419 397 2687 759 
Q 2956 1122 2956 1747 
Q 2956 2369 2687 2733 
Q 2419 3097 1959 3097 
z
M 1959 3584 
Q 2709 3584 3137 3096 
Q 3566 2609 3566 1747 
Q 3566 888 3137 398 
Q 2709 -91 1959 -91 
Q 1206 -91 779 398 
Q 353 888 353 1747 
Q 353 2609 779 3096 
Q 1206 3584 1959 3584 
z
" transform="scale(0.015625)"/>
       <path id="DejaVuSans-6c" d="M 603 4863 
L 1178 4863 
L 1178 0 
L 603 0 
L 603 4863 
z
" transform="scale(0.015625)"/>
       <path id="DejaVuSans-75" d="M 544 1381 
L 544 3500 
L 1119 3500 
L 1119 1403 
Q 1119 906 1312 657 
Q 1506 409 1894 409 
Q 2359 409 2629 706 
Q 2900 1003 2900 1516 
L 2900 3500 
L 3475 3500 
L 3475 0 
L 2900 0 
L 2900 538 
Q 2691 219 2414 64 
Q 2138 -91 1772 -91 
Q 1169 -91 856 284 
Q 544 659 544 1381 
z
M 1991 3584 
L 1991 3584 
z
" transform="scale(0.015625)"/>
       <path id="DejaVuSans-74" d="M 1172 4494 
L 1172 3500 
L 2356 3500 
L 2356 3053 
L 1172 3053 
L 1172 1153 
Q 1172 725 1289 603 
Q 1406 481 1766 481 
L 2356 481 
L 2356 0 
L 1766 0 
Q 1100 0 847 248 
Q 594 497 594 1153 
L 594 3053 
L 172 3053 
L 172 3500 
L 594 3500 
L 594 4494 
L 1172 4494 
z
" transform="scale(0.015625)"/>
       <path id="DejaVuSans-20" transform="scale(0.015625)"/>
       <path id="DejaVuSans-52" d="M 2841 2188 
Q 3044 2119 3236 1894 
Q 3428 1669 3622 1275 
L 4263 0 
L 3584 0 
L 2988 1197 
Q 2756 1666 2539 1819 
Q 2322 1972 1947 1972 
L 1259 1972 
L 1259 0 
L 628 0 
L 628 4666 
L 2053 4666 
Q 2853 4666 3247 4331 
Q 3641 3997 3641 3322 
Q 3641 2881 3436 2590 
Q 3231 2300 2841 2188 
z
M 1259 4147 
L 1259 2491 
L 2053 2491 
Q 2509 2491 2742 2702 
Q 2975 2913 2975 3322 
Q 2975 3731 2742 3939 
Q 2509 4147 2053 4147 
L 1259 4147 
z
" transform="scale(0.015625)"/>
       <path id="DejaVuSans-66" d="M 2375 4863 
L 2375 4384 
L 1825 4384 
Q 1516 4384 1395 4259 
Q 1275 4134 1275 3809 
L 1275 3500 
L 2222 3500 
L 2222 3053 
L 1275 3053 
L 1275 0 
L 697 0 
L 697 3053 
L 147 3053 
L 147 3500 
L 697 3500 
L 697 3744 
Q 697 4328 969 4595 
Q 1241 4863 1831 4863 
L 2375 4863 
z
" transform="scale(0.015625)"/>
       <path id="DejaVuSans-63" d="M 3122 3366 
L 3122 2828 
Q 2878 2963 2633 3030 
Q 2388 3097 2138 3097 
Q 1578 3097 1268 2742 
Q 959 2388 959 1747 
Q 959 1106 1268 751 
Q 1578 397 2138 397 
Q 2388 397 2633 464 
Q 2878 531 3122 666 
L 3122 134 
Q 2881 22 2623 -34 
Q 2366 -91 2075 -91 
Q 1284 -91 818 406 
Q 353 903 353 1747 
Q 353 2603 823 3093 
Q 1294 3584 2113 3584 
Q 2378 3584 2631 3529 
Q 2884 3475 3122 3366 
z
" transform="scale(0.015625)"/>
       <path id="DejaVuSans-72" d="M 2631 2963 
Q 2534 3019 2420 3045 
Q 2306 3072 2169 3072 
Q 1681 3072 1420 2755 
Q 1159 2438 1159 1844 
L 1159 0 
L 581 0 
L 581 3500 
L 1159 3500 
L 1159 2956 
Q 1341 3275 1631 3429 
Q 1922 3584 2338 3584 
Q 2397 3584 2469 3576 
Q 2541 3569 2628 3553 
L 2631 2963 
z
" transform="scale(0.015625)"/>
       <path id="DejaVuSans-61" d="M 2194 1759 
Q 1497 1759 1228 1600 
Q 959 1441 959 1056 
Q 959 750 1161 570 
Q 1363 391 1709 391 
Q 2188 391 2477 730 
Q 2766 1069 2766 1631 
L 2766 1759 
L 2194 1759 
z
M 3341 1997 
L 3341 0 
L 2766 0 
L 2766 531 
Q 2569 213 2275 61 
Q 1981 -91 1556 -91 
Q 1019 -91 701 211 
Q 384 513 384 1019 
Q 384 1609 779 1909 
Q 1175 2209 1959 2209 
L 2766 2209 
L 2766 2266 
Q 2766 2663 2505 2880 
Q 2244 3097 1772 3097 
Q 1472 3097 1187 3025 
Q 903 2953 641 2809 
L 641 3341 
Q 956 3463 1253 3523 
Q 1550 3584 1831 3584 
Q 2591 3584 2966 3190 
Q 3341 2797 3341 1997 
z
" transform="scale(0.015625)"/>
       <path id="DejaVuSans-6e" d="M 3513 2113 
L 3513 0 
L 2938 0 
L 2938 2094 
Q 2938 2591 2744 2837 
Q 2550 3084 2163 3084 
Q 1697 3084 1428 2787 
Q 1159 2491 1159 1978 
L 1159 0 
L 581 0 
L 581 3500 
L 1159 3500 
L 1159 2956 
Q 1366 3272 1645 3428 
Q 1925 3584 2291 3584 
Q 2894 3584 3203 3211 
Q 3513 2838 3513 2113 
z
" transform="scale(0.015625)"/>
       <path id="DejaVuSans-2f" d="M 1625 4666 
L 2156 4666 
L 531 -594 
L 0 -594 
L 1625 4666 
z
" transform="scale(0.015625)"/>
      </defs>
      <use xlink:href="#DejaVuSans-41" transform="translate(0 0.765625)"/>
      <use xlink:href="#DejaVuSans-62" transform="translate(68.408203 0.765625)"/>
      <use xlink:href="#DejaVuSans-73" transform="translate(131.884766 0.765625)"/>
      <use xlink:href="#DejaVuSans-6f" transform="translate(183.984375 0.765625)"/>
      <use xlink:href="#DejaVuSans-6c" transform="translate(245.166016 0.765625)"/>
      <use xlink:href="#DejaVuSans-75" transform="translate(272.949219 0.765625)"/>
      <use xlink:href="#DejaVuSans-74" transform="translate(336.328125 0.765625)"/>
      <use xlink:href="#DejaVuSans-65" transform="translate(375.537109 0.765625)"/>
      <use xlink:href="#DejaVuSans-20" transform="translate(437.060547 0.765625)"/>
      <use xlink:href="#DejaVuSans-52" transform="translate(468.847656 0.765625)"/>
      <use xlink:href="#DejaVuSans-6f" transform="translate(538.330078 0.765625)"/>
      <use xlink:href="#DejaVuSans-6f" transform="translate(599.511719 0.765625)"/>
      <use xlink:href="#DejaVuSans-66" transform="translate(660.693359 0.765625)"/>
      <use xlink:href="#DejaVuSans-20" transform="translate(695.898438 0.765625)"/>
      <use xlink:href="#DejaVuSans-41" transform="translate(727.685547 0.765625)"/>
      <use xlink:href="#DejaVuSans-63" transform="translate(796.09375 0.765625)"/>
      <use xlink:href="#DejaVuSans-63" transform="translate(851.074219 0.765625)"/>
      <use xlink:href="#DejaVuSans-65" transform="translate(906.054688 0.765625)"/>
      <use xlink:href="#DejaVuSans-6c" transform="translate(967.578125 0.765625)"/>
      <use xlink:href="#DejaVuSans-65" transform="translate(995.361328 0.765625)"/>
      <use xlink:href="#DejaVuSans-72" transform="translate(1056.884766 0.765625)"/>
      <use xlink:href="#DejaVuSans-61" transform="translate(1097.998047 0.765625)"/>
      <use xlink:href="#DejaVuSans-74" transform="translate(1159.277344 0.765625)"/>
      <use xlink:href="#DejaVuSans-69" transform="translate(1198.486328 0.765625)"/>
      <use xlink:href="#DejaVuSans-6f" transform="translate(1226.269531 0.765625)"/>
      <use xlink:href="#DejaVuSans-6e" transform="translate(1287.451172 0.765625)"/>
      <use xlink:href="#DejaVuSans-20" transform="translate(1350.830078 0.765625)"/>
      <use xlink:href="#DejaVuSans-28" transform="translate(1382.617188 0.765625)"/>
      <use xlink:href="#DejaVuSans-6d" transform="translate(1421.630859 0.765625)"/>
      <use xlink:href="#DejaVuSans-2f" transform="translate(1519.042969 0.765625)"/>
      <use xlink:href="#DejaVuSans-73" transform="translate(1552.734375 0.765625)"/>
      <use xlink:href="#DejaVuSans-32" transform="translate(1605.791016 39.046875) scale(0.7)"/>
      <use xlink:href="#DejaVuSans-29" transform="translate(1653.061523 0.765625)"/>
     </g>
    </g>
   </g>
   <g id="line2d_173">
    <path d="M 97.142045 244.042948 
L 98.05605 243.305865 
L 98.970055 243.157835 
L 99.88406 243.951199 
L 100.798065 239.898819 
L 101.71207 234.796599 
L 102.626075 232.943372 
L 103.54008 242.78474 
L 104.454085 260.667947 
L 105.36809 261.865289 
L 106.282095 242.480574 
L 107.1961 229.127622 
L 108.110104 234.864668 
L 109.024109 250.377445 
L 109.938114 255.658903 
L 111.766124 211.257924 
L 112.680129 220.817329 
L 113.594134 251.737626 
L 114.508139 271.301616 
L 115.422144 276.799981 
L 116.336149 266.051459 
L 117.250154 237.660266 
L 118.164158 217.469702 
L 119.078163 220.691412 
L 119.992168 232.689177 
L 120.906173 234.49727 
L 121.820178 251.267047 
L 122.734183 281.260003 
L 123.648188 269.042352 
L 124.562193 229.444175 
L 125.476198 220.985773 
L 126.390203 233.588584 
L 127.304208 236.32081 
L 128.218213 234.047655 
L 129.132217 239.675191 
L 130.960227 268.529988 
L 131.874232 253.576138 
L 132.788237 224.593359 
L 133.702242 224.687943 
L 134.616247 251.657014 
L 135.530252 265.156319 
L 136.444257 248.449954 
L 137.358262 225.768183 
L 138.272267 230.279838 
L 139.186271 254.529097 
L 140.100276 256.833738 
L 141.014281 235.802472 
L 141.928286 226.176061 
L 142.842291 251.49702 
L 143.756296 273.16793 
L 144.670301 253.649256 
L 145.584306 222.511483 
L 146.498311 216.796137 
L 147.412316 225.355342 
L 148.326321 230.391411 
L 150.15433 291.172265 
L 151.068335 278.580918 
L 151.98234 241.802666 
L 152.896345 229.013829 
L 153.81035 243.593759 
L 154.724355 235.991803 
L 155.63836 230.75203 
L 157.46637 277.37801 
L 158.380375 261.924087 
L 159.29438 229.520659 
L 160.208385 226.591291 
L 161.122389 241.143711 
L 162.950399 232.413946 
L 164.778409 267.210118 
L 165.692414 264.836169 
L 166.606419 238.58898 
L 167.520424 219.329018 
L 168.434429 239.859399 
L 169.348434 267.032849 
L 170.262439 259.420602 
L 172.090448 231.426773 
L 173.918458 256.810227 
L 175.746468 231.714902 
L 176.660473 240.213431 
L 177.574478 252.143897 
L 178.488483 255.490938 
L 179.402488 257.333224 
L 180.316493 241.79199 
L 181.230498 219.317279 
L 182.144502 209.400783 
L 183.972512 294.171346 
L 184.886517 275.178036 
L 185.800522 229.853575 
L 186.714527 208.280611 
L 187.628532 227.053511 
L 188.542537 252.36106 
L 189.456542 260.640896 
L 190.370547 244.07495 
L 191.284552 230.213737 
L 192.198557 253.183215 
L 193.112561 280.886593 
L 194.026566 288.134034 
L 194.940571 261.926782 
L 195.854576 224.914509 
L 196.768581 204.492576 
L 197.682586 209.533485 
L 199.510596 280.077662 
L 200.424601 281.797026 
L 201.338606 252.48006 
L 202.252611 231.863271 
L 203.166615 236.530019 
L 204.08062 253.814507 
L 204.994625 254.346814 
L 205.90863 237.455985 
L 206.822635 229.515453 
L 207.73664 231.764767 
L 208.650645 235.198236 
L 209.56465 246.689728 
L 210.478655 270.060144 
L 211.39266 275.910108 
L 213.22067 217.742014 
L 214.134674 219.390144 
L 215.048679 248.658966 
L 215.962684 263.476915 
L 216.876689 251.006907 
L 217.790694 234.679675 
L 218.704699 223.565384 
L 219.618704 230.702681 
L 220.532709 263.029275 
L 221.446714 271.382522 
L 222.360719 243.449572 
L 223.274724 221.275505 
L 224.188729 224.104081 
L 225.102733 249.768393 
L 226.016738 262.717568 
L 226.930743 247.144249 
L 227.844748 237.872711 
L 228.758753 257.955049 
L 229.672758 283.908021 
L 230.586763 273.927168 
L 231.500768 244.176463 
L 232.414773 232.488843 
L 233.328778 240.220911 
L 234.242783 262.97159 
L 235.156787 280.467798 
L 236.070792 264.963043 
L 236.984797 229.725921 
L 237.898802 229.80107 
L 238.812807 260.025971 
L 239.726812 270.775749 
L 240.640817 248.395665 
L 242.468827 155.090863 
L 243.382832 146.833454 
L 245.210842 199.731199 
L 246.124846 196.840443 
L 247.038851 161.383293 
L 247.952856 142.751061 
L 248.866861 163.236199 
L 249.780866 168.354956 
L 250.694871 147.961492 
L 251.608876 133.199099 
L 252.522881 135.820915 
L 253.436886 163.89377 
L 254.350891 342.570035 
L 255.264896 472.535496 
L 256.1789 376.800116 
L 257.092905 257.714575 
L 258.00691 303.245951 
L 258.920915 410.925113 
L 259.83492 398.439992 
L 260.748925 308.730141 
L 261.66293 298.732983 
L 262.576935 368.525653 
L 263.49094 388.098508 
L 264.404945 254.500277 
L 265.31895 61.6932 
L 266.232955 44.4375 
L 267.146959 183.003351 
L 268.060964 224.940297 
L 268.974969 125.298392 
L 269.888974 68.128378 
L 271.716984 196.933772 
L 272.630989 156.287059 
L 273.544994 97.921755 
L 274.458999 160.759564 
L 275.373004 425.693166 
L 276.287009 498.0375 
L 277.201014 320.900763 
L 278.115018 222.71317 
L 279.029023 340.282389 
L 279.943028 364.617995 
L 280.857033 143.124945 
L 281.771038 53.132607 
L 282.685043 250.221793 
L 283.599048 494.85439 
L 284.513053 447.432224 
L 285.427058 251.087914 
L 286.341063 241.569382 
L 287.255068 351.865624 
L 288.169072 377.40152 
L 289.083077 280.788763 
L 289.997082 151.475598 
L 290.911087 79.303201 
L 291.825092 126.447766 
L 292.739097 185.727324 
L 293.653102 194.904874 
L 294.567107 216.669178 
L 295.481112 255.221851 
L 296.395117 299.825025 
L 297.309122 314.564243 
L 298.223127 283.249093 
L 299.137131 246.946428 
L 300.051136 246.843368 
L 300.965141 274.995929 
L 301.879146 288.60457 
L 302.793151 247.441956 
L 303.707156 193.510238 
L 304.621161 193.463398 
L 305.535166 235.646621 
L 307.363176 356.186168 
L 308.277181 346.05478 
L 310.10519 167.891279 
L 311.019195 151.901949 
L 311.9332 220.240476 
L 312.847205 276.700518 
L 313.76121 268.219535 
L 314.675215 239.351188 
L 315.58922 234.668153 
L 316.503225 231.619958 
L 317.41723 223.593153 
L 318.331235 240.752266 
L 319.24524 278.603793 
L 320.159244 301.373996 
L 321.073249 279.286832 
L 321.987254 226.767858 
L 322.901259 219.8523 
L 324.729269 355.841527 
L 325.643274 350.198404 
L 327.471284 189.658997 
L 328.385289 196.401629 
L 329.299294 270.260744 
L 330.213299 314.347596 
L 331.127303 270.099817 
L 332.041308 188.769948 
L 332.955313 156.688633 
L 333.869318 194.769551 
L 334.783323 242.962401 
L 335.697328 272.061497 
L 336.611333 259.589994 
L 338.439343 171.148701 
L 339.353348 162.565967 
L 340.267353 191.774042 
L 341.181357 227.672996 
L 342.095362 235.41503 
L 343.009367 205.905646 
L 343.923372 187.0931 
L 344.837377 213.932759 
L 345.751382 266.49776 
L 346.665387 301.160179 
L 347.579392 276.215482 
L 348.493397 203.774098 
L 349.407402 164.964672 
L 350.321407 196.615199 
L 351.235412 247.138917 
L 352.149416 277.493186 
L 353.063421 290.556597 
L 353.977426 296.22928 
L 354.891431 281.221339 
L 355.805436 261.353704 
L 356.719441 277.997364 
L 357.633446 300.959446 
L 358.547451 290.816942 
L 359.461456 261.991395 
L 360.375461 246.521608 
L 361.289466 236.666461 
L 362.203471 242.08255 
L 363.117475 257.043905 
L 364.03148 260.202476 
L 364.945485 235.512647 
L 365.85949 192.664751 
L 366.773495 201.822847 
L 367.6875 257.221229 
L 368.601505 287.180589 
L 369.51551 274.469148 
L 370.429515 253.783412 
L 371.34352 247.105789 
L 372.257525 252.180383 
L 373.171529 258.69413 
L 374.085534 257.495583 
L 375.913544 247.616453 
L 376.827549 248.715114 
L 377.741554 258.701551 
L 378.655559 266.708388 
L 379.569564 270.550718 
L 380.483569 263.653633 
L 381.397574 247.923805 
L 383.225584 201.382139 
L 384.139588 199.757928 
L 385.053593 216.836171 
L 385.967598 214.222567 
L 386.881603 180.468947 
L 387.795608 162.409234 
L 389.623618 204.803263 
L 390.537623 205.933629 
L 391.451628 200.912431 
L 392.365633 207.439111 
L 393.279638 209.494837 
L 394.193643 193.886475 
L 395.107647 175.262776 
L 396.021652 161.043471 
L 396.935657 144.308694 
L 397.849662 134.089897 
L 398.763667 141.535608 
L 401.505682 198.814941 
L 402.419687 224.894184 
L 403.333692 235.854979 
L 404.247697 230.480782 
L 405.161701 231.264206 
L 406.075706 242.936749 
L 406.989711 264.164317 
L 407.903716 276.687071 
L 408.817721 281.031179 
L 409.731726 317.361671 
L 410.645731 374.621817 
L 411.559736 374.485146 
L 412.473741 332.947525 
L 413.387746 323.305862 
L 414.301751 354.40085 
L 415.215756 369.391795 
L 416.12976 347.596431 
L 417.043765 330.574574 
L 417.95777 339.751903 
L 418.871775 295.057398 
L 419.78578 243.51362 
L 420.699785 247.936389 
L 421.61379 282.670036 
L 422.527795 291.568215 
L 424.355805 229.118041 
L 425.26981 242.844276 
L 426.183814 266.977653 
L 427.097819 254.233367 
L 428.011824 216.000201 
L 428.925829 194.15315 
L 429.839834 212.049036 
L 430.753839 250.229559 
L 431.667844 274.02254 
L 432.581849 262.116919 
L 433.495854 222.661963 
L 434.409859 192.374754 
L 435.323864 197.505931 
L 436.237869 217.738517 
L 437.151873 207.969339 
L 438.065878 176.591405 
L 438.979883 167.655497 
L 439.893888 192.459958 
L 440.807893 226.887795 
L 441.721898 256.386418 
L 442.635903 300.041386 
L 443.549908 336.99997 
L 444.463913 313.985343 
L 446.291923 171.977205 
L 447.205928 156.565796 
L 448.119932 206.212162 
L 449.033937 264.494803 
L 449.947942 270.383495 
L 450.861947 229.624229 
L 451.775952 195.475447 
L 452.689957 208.887903 
L 453.603962 251.748328 
L 454.517967 279.562211 
L 455.431972 277.24228 
L 456.345977 251.97659 
L 457.259982 221.77292 
L 458.173986 196.879758 
L 459.087991 189.82416 
L 460.001996 213.389083 
L 460.916001 253.462102 
L 461.830006 279.065332 
L 462.744011 268.325815 
L 463.658016 230.779565 
L 464.572021 205.076529 
L 465.486026 215.077394 
L 466.400031 245.074142 
L 467.314036 265.414976 
L 468.228041 271.776508 
L 469.142045 283.458967 
L 470.05605 297.806907 
L 470.970055 298.203106 
L 471.88406 286.313331 
L 472.798065 270.092998 
L 474.626075 218.637328 
L 475.54008 231.173587 
L 476.454085 266.454469 
L 477.36809 269.023112 
L 478.282095 243.090691 
L 479.1961 240.943959 
L 480.110104 270.774622 
L 481.024109 287.394109 
L 481.938114 261.504262 
L 482.852119 211.461395 
L 483.766124 191.301782 
L 484.680129 210.349578 
L 485.594134 232.766819 
L 486.508139 248.168569 
L 487.422144 243.661138 
L 488.336149 229.834238 
L 489.250154 221.524588 
L 490.164158 226.262125 
L 491.078163 251.049082 
L 491.992168 281.108948 
L 492.906173 303.469264 
L 493.820178 301.04757 
L 494.734183 269.138113 
L 495.648188 232.429162 
L 496.562193 227.285884 
L 497.476198 258.616438 
L 498.390203 280.917106 
L 499.304208 267.332491 
L 500.218213 238.93752 
L 501.132217 216.284519 
L 502.046222 222.155688 
L 502.960227 249.426888 
L 503.874232 269.668741 
L 504.788237 259.738461 
L 505.702242 238.152489 
L 506.616247 231.483883 
L 507.530252 238.778374 
L 508.444257 240.223335 
L 509.358262 228.284017 
L 510.272267 219.713645 
L 511.186271 215.438305 
L 512.100276 216.856815 
L 513.014281 216.579735 
L 513.928286 226.898225 
L 515.756296 283.997325 
L 516.670301 278.582345 
L 517.584306 247.83806 
L 518.498311 228.338915 
L 519.412316 236.599721 
L 520.326321 259.30188 
L 521.240326 266.007946 
L 522.15433 246.724605 
L 523.068335 223.755983 
L 523.98234 220.447138 
L 525.81035 242.129805 
L 526.724355 242.130398 
L 528.552365 220.003575 
L 529.46637 220.968992 
L 530.380375 225.977268 
L 531.29438 227.334731 
L 532.208385 229.978703 
L 533.122389 243.199354 
L 534.036394 263.992263 
L 534.950399 267.632648 
L 536.778409 220.883908 
L 537.692414 226.543372 
L 538.606419 255.674137 
L 539.520424 272.446922 
L 540.434429 262.467634 
L 541.348434 238.540014 
L 542.262439 222.270956 
L 543.176443 225.107083 
L 544.090448 237.649925 
L 545.004453 243.455162 
L 545.918458 245.835473 
L 546.832463 249.630563 
L 547.746468 248.92866 
L 548.660473 246.71121 
L 549.574478 249.208359 
L 550.488483 257.223173 
L 551.402488 257.727364 
L 552.316493 242.218904 
L 553.230498 229.252215 
L 554.144502 239.496636 
L 555.058507 259.730114 
L 555.972512 267.427143 
L 556.886517 257.048036 
L 557.800522 241.984872 
L 558.714527 243.477262 
L 560.542537 275.01759 
L 561.456542 269.975911 
L 562.370547 244.548302 
L 563.284552 215.566918 
L 564.198557 210.969124 
L 566.026566 267.807498 
L 566.940571 271.581645 
L 567.854576 249.110154 
L 568.768581 221.528764 
L 569.682586 212.437539 
L 570.596591 229.410154 
L 571.510596 256.719314 
L 572.424601 265.319272 
L 573.338606 245.437355 
L 574.252611 221.434113 
L 575.166615 223.950672 
L 576.08062 246.283194 
L 576.994625 253.667404 
L 578.822635 230.947866 
L 579.73664 235.564601 
L 580.650645 246.907591 
L 581.56465 244.90899 
L 582.478655 235.669815 
L 583.39266 237.33053 
L 584.306665 245.579397 
L 585.22067 243.883898 
L 586.134674 232.277525 
L 587.048679 225.551961 
L 587.962684 232.222456 
L 588.876689 245.419129 
L 589.790694 253.697852 
L 590.704699 252.22329 
L 591.618704 243.283845 
L 593.446714 221.376888 
L 594.360719 217.97968 
L 595.274724 227.313671 
L 596.188729 241.007628 
L 597.102733 245.903148 
L 598.016738 241.250098 
L 598.930743 233.288723 
L 599.844748 233.839085 
L 600.758753 246.76602 
L 601.672758 261.346218 
L 602.586763 264.187881 
L 604.414773 240.360881 
L 605.328778 245.567535 
L 606.242783 258.946652 
L 607.156787 261.196524 
L 608.070792 249.593922 
L 608.984797 236.394806 
L 609.898802 234.259771 
L 611.726812 250.999643 
L 612.640817 252.476705 
L 613.554822 249.163464 
L 614.468827 246.793805 
L 616.296837 242.546398 
L 617.210842 243.804995 
L 618.124846 246.289962 
L 619.952856 231.860171 
L 620.866861 237.092415 
L 621.780866 250.721662 
L 622.694871 256.350382 
L 623.608876 245.533262 
L 624.522881 233.186476 
L 625.436886 234.853471 
L 626.350891 245.633939 
L 627.264896 249.424716 
L 628.1789 241.717042 
L 629.092905 235.791947 
L 630.00691 239.364499 
L 631.83492 254.970545 
L 632.748925 256.123074 
L 633.66293 252.023864 
L 634.576935 245.602943 
L 635.49094 240.46881 
L 636.404945 243.177917 
L 637.31895 246.439985 
L 640.060964 239.480531 
L 640.974969 235.946921 
L 641.888974 238.010947 
L 643.716984 252.439363 
L 644.630989 254.179632 
L 645.544994 246.64184 
L 646.458999 234.128851 
L 647.373004 229.66958 
L 648.287009 239.762771 
L 649.201014 252.452389 
L 650.115018 253.222169 
L 651.029023 244.978011 
L 651.943028 240.620661 
L 652.857033 245.711282 
L 653.771038 253.714831 
L 654.685043 253.627587 
L 655.599048 247.085763 
L 656.513053 243.984506 
L 657.427058 245.419846 
L 659.255068 250.039338 
L 660.169072 250.045453 
L 661.083077 246.208326 
L 661.997082 243.956041 
L 662.911087 255.111268 
L 663.825092 269.53214 
L 664.739097 263.662904 
L 665.653102 242.398949 
L 666.567107 231.678925 
L 667.481112 238.669667 
L 668.395117 248.783237 
L 669.309122 251.081053 
L 670.223127 246.294975 
L 671.137131 240.526786 
L 672.051136 241.091415 
L 673.879146 260.292181 
L 674.793151 259.190973 
L 676.621161 237.411188 
L 677.535166 236.837527 
L 679.363176 252.698086 
L 680.277181 249.642685 
L 681.191186 237.196123 
L 682.10519 228.660499 
L 683.019195 233.807734 
L 683.9332 245.185036 
L 684.847205 250.737279 
L 685.76121 246.588252 
L 686.675215 239.702408 
L 687.58922 238.993785 
L 688.503225 243.527254 
L 689.41723 249.603349 
L 690.331235 251.64378 
L 691.24524 245.33161 
L 692.159244 234.315218 
L 693.073249 230.93647 
L 693.987254 238.296471 
L 694.901259 247.724577 
L 695.815264 251.246271 
L 696.729269 248.658223 
L 697.643274 244.42889 
L 698.557279 241.241915 
L 699.471284 239.811337 
L 700.385289 240.203955 
L 701.299294 242.453319 
L 702.213299 242.770252 
L 703.127303 238.304809 
L 704.041308 233.010273 
L 704.955313 232.891948 
L 706.783323 243.188032 
L 707.697328 242.913822 
L 708.611333 237.649078 
L 709.525338 233.267748 
L 710.439343 234.000319 
L 712.267353 240.32586 
L 713.181357 246.207921 
L 714.095362 253.824033 
L 715.009367 257.967991 
L 715.923372 256.293451 
L 716.837377 252.020486 
L 717.751382 248.926332 
L 718.665387 245.126209 
L 719.579392 239.409413 
L 720.493397 238.210825 
L 721.407402 248.767514 
L 722.321407 266.258888 
L 723.235412 270.952882 
L 724.149416 255.263725 
L 725.063421 230.880369 
L 725.977426 215.53663 
L 726.891431 222.068505 
L 727.805436 243.041895 
L 728.719441 259.584899 
L 729.633446 259.040176 
L 731.461456 239.175267 
L 732.375461 234.609831 
L 733.289466 236.228311 
L 734.203471 240.20388 
L 735.117475 239.638297 
L 736.03148 235.020568 
L 736.945485 233.127773 
L 737.85949 236.478458 
L 738.773495 243.278877 
L 739.6875 245.555073 
L 740.601505 238.550421 
L 741.51551 230.596249 
L 742.429515 235.108206 
L 743.34352 248.87091 
L 744.257525 254.77473 
L 745.171529 244.730718 
L 746.085534 230.733334 
L 746.999539 231.23406 
L 747.913544 245.848962 
L 748.827549 256.735539 
L 749.741554 250.969332 
L 750.655559 236.229373 
L 751.569564 232.422948 
L 752.483569 242.930765 
L 753.397574 255.193451 
L 754.311579 257.01524 
L 756.139588 231.413106 
L 757.053593 234.204862 
L 757.967598 247.008276 
L 758.881603 254.220577 
L 759.795608 248.702965 
L 760.709613 238.154217 
L 761.623618 238.376505 
L 762.537623 249.143556 
L 763.451628 255.748616 
L 764.365633 249.542077 
L 765.279638 239.118598 
L 766.193643 239.267707 
L 767.107647 246.008757 
L 768.021652 247.986162 
L 768.935657 243.174152 
L 769.849662 241.198875 
L 770.763667 245.605185 
L 771.677672 250.848498 
L 772.591677 251.640805 
L 774.419687 244.988349 
L 775.333692 244.619181 
L 776.247697 248.139113 
L 777.161701 252.554747 
L 778.075706 252.650533 
L 779.903716 242.550746 
L 780.817721 241.294925 
L 781.731726 243.75613 
L 782.645731 244.838874 
L 783.559736 242.693473 
L 784.473741 239.878476 
L 785.387746 239.294711 
L 786.301751 240.817867 
L 787.215756 244.016536 
L 788.12976 249.197222 
L 789.043765 252.064087 
L 789.95777 247.982115 
L 790.871775 240.233597 
L 791.78578 235.689035 
L 792.699785 238.029384 
L 793.61379 244.394688 
L 794.527795 248.246362 
L 795.4418 247.238819 
L 796.355805 241.834089 
L 797.26981 237.777264 
L 798.183814 238.486423 
L 799.097819 244.347847 
L 800.011824 251.590915 
L 800.925829 254.450524 
L 801.839834 250.118648 
L 802.753839 242.290204 
L 803.667844 240.784697 
L 805.495854 246.761744 
L 806.409859 245.910307 
L 807.323864 242.539051 
L 808.237869 244.874032 
L 809.151873 251.744688 
L 810.065878 254.039834 
L 810.979883 248.938446 
L 811.893888 242.600908 
L 812.807893 240.054703 
L 813.721898 238.954978 
L 814.635903 241.288342 
L 816.463913 253.844169 
L 817.377918 253.769161 
L 819.205928 243.590483 
L 820.119932 244.843261 
L 821.033937 249.803705 
L 821.947942 249.754987 
L 822.861947 245.998604 
L 823.775952 222.621247 
L 824.689957 207.124976 
L 825.603962 225.027368 
L 826.517967 252.192129 
L 827.431972 259.96574 
L 829.259982 232.45977 
L 830.173986 235.286976 
L 831.087991 248.621868 
L 832.001996 254.59684 
L 832.916001 248.956856 
L 833.830006 239.583535 
L 834.744011 237.413291 
L 835.658016 243.825383 
L 836.572021 251.979601 
L 837.486026 252.701408 
L 839.314036 240.116762 
L 840.228041 239.368177 
L 842.05605 247.321639 
L 842.970055 247.213359 
L 843.88406 241.434625 
L 844.798065 234.463156 
L 845.71207 233.63648 
L 846.626075 238.246021 
L 847.54008 239.946948 
L 848.454085 233.873351 
L 849.36809 228.679101 
L 850.282095 236.215561 
L 851.1961 249.93717 
L 852.110104 252.292671 
L 853.024109 242.415814 
L 853.938114 235.510806 
L 854.852119 240.005815 
L 855.766124 248.084776 
L 856.680129 249.011567 
L 857.594134 242.427414 
L 858.508139 239.150982 
L 859.422144 244.627606 
L 860.336149 251.053074 
L 861.250154 251.324267 
L 863.078163 242.186908 
L 863.992168 240.266056 
L 864.906173 240.309333 
L 865.820178 241.572557 
L 866.734183 241.826707 
L 867.648188 241.404888 
L 868.562193 243.175153 
L 869.476198 246.811986 
L 870.390203 247.305925 
L 871.304208 245.105316 
L 872.218213 246.142463 
L 873.132217 250.469648 
L 874.046222 250.016054 
L 874.960227 243.120038 
L 875.874232 238.399381 
L 876.788237 239.239556 
L 878.616247 252.202587 
L 879.530252 252.699145 
L 881.358262 241.85479 
L 882.272267 241.078962 
L 883.186271 243.091152 
L 884.100276 244.312158 
L 885.014281 242.76285 
L 885.928286 244.03622 
L 886.842291 247.001833 
L 887.756296 247.86046 
L 888.670301 244.712555 
L 889.584306 240.483445 
L 890.498311 240.526103 
L 892.326321 249.29822 
L 893.240326 250.559721 
L 894.15433 249.278166 
L 895.068335 247.160983 
L 895.98234 246.504231 
L 896.896345 246.027984 
L 897.81035 246.718527 
L 898.724355 248.273747 
L 899.63836 247.565304 
L 900.552365 246.118898 
L 901.46637 247.01276 
L 902.380375 250.1965 
L 903.29438 250.714931 
L 905.122389 243.287986 
L 906.036394 242.776946 
L 906.950399 247.437804 
L 907.864404 251.421764 
L 908.778409 250.092885 
L 909.692414 244.49507 
L 910.606419 240.164235 
L 911.520424 242.474837 
L 912.434429 246.422629 
L 913.348434 247.714735 
L 914.262439 245.479142 
L 915.176443 241.23042 
L 916.090448 238.491511 
L 917.004453 240.648181 
L 917.918458 244.274956 
L 918.832463 243.433728 
L 919.746468 239.702245 
L 920.660473 237.203004 
L 921.574478 237.99334 
L 922.488483 241.460355 
L 923.402488 242.948762 
L 924.316493 238.69431 
L 925.230498 231.940745 
L 926.144502 231.96394 
L 927.058507 239.139638 
L 927.972512 244.394641 
L 928.886517 243.137394 
L 929.800522 238.603214 
L 930.714527 236.309233 
L 931.628532 238.246702 
L 932.542537 242.03724 
L 933.456542 243.883957 
L 934.370547 242.813583 
L 935.284552 240.819969 
L 936.198557 240.419936 
L 937.112561 242.30207 
L 938.026566 245.335555 
L 938.940571 245.339966 
L 939.854576 241.898947 
L 940.768581 240.18736 
L 941.682586 242.648482 
L 942.596591 247.914985 
L 943.510596 250.110231 
L 944.424601 247.49374 
L 945.338606 245.400347 
L 946.252611 246.294971 
L 947.166615 248.236161 
L 948.08062 249.633113 
L 948.994625 248.783993 
L 949.90863 246.175545 
L 950.822635 244.379979 
L 951.73664 245.48832 
L 952.650645 247.560171 
L 953.56465 248.621827 
L 954.478655 247.758764 
L 955.39266 245.15413 
L 956.306665 243.779894 
L 957.22067 245.248923 
L 958.134674 247.797125 
L 959.048679 247.3562 
L 959.962684 243.827478 
L 960.876689 241.774351 
L 961.790694 243.431569 
L 962.704699 246.24952 
L 963.618704 246.931966 
L 964.532709 245.495324 
L 965.446714 244.545396 
L 967.274724 244.715778 
L 969.102733 243.631687 
L 970.016738 243.820424 
L 970.930743 244.393187 
L 971.844748 244.820783 
L 972.758753 244.371475 
L 973.672758 243.314026 
L 974.586763 242.612232 
L 975.500768 242.830586 
L 976.414773 243.892994 
L 977.328778 244.747367 
L 978.242783 244.430911 
L 979.156787 243.397059 
L 980.070792 242.841607 
L 980.984797 243.218242 
L 981.898802 243.970868 
L 982.812807 244.223168 
L 984.640817 243.179373 
L 985.554822 243.076007 
L 987.382832 243.605201 
L 988.296837 243.460869 
L 989.210842 243.192467 
L 990.124846 243.174009 
L 991.952856 243.499925 
L 993.780866 243.432411 
L 994.694871 243.437723 
L 996.522881 243.654091 
L 1002.00691 244.002298 
L 1003.83492 244.092907 
L 1005.66293 244.093119 
L 1009.31895 244.345798 
L 1010.232955 244.322453 
L 1010.232955 244.322453 
" clip-path="url(#p041d079a73)" style="fill: none; stroke: #0c5da5; stroke-width: 2; stroke-linecap: square"/>
   </g>
   <g id="patch_3">
    <path d="M 51.4875 520.7175 
L 51.4875 21.7575 
" style="fill: none; stroke: #000000; stroke-linejoin: miter; stroke-linecap: square"/>
   </g>
   <g id="patch_4">
    <path d="M 1055.8875 520.7175 
L 1055.8875 21.7575 
" style="fill: none; stroke: #000000; stroke-linejoin: miter; stroke-linecap: square"/>
   </g>
   <g id="patch_5">
    <path d="M 51.4875 520.7175 
L 1055.8875 520.7175 
" style="fill: none; stroke: #000000; stroke-linejoin: miter; stroke-linecap: square"/>
   </g>
   <g id="patch_6">
    <path d="M 51.4875 21.7575 
L 1055.8875 21.7575 
" style="fill: none; stroke: #000000; stroke-linejoin: miter; stroke-linecap: square"/>
   </g>
   <g id="text_19">
    <!-- Northridge-01 Record no. 1050 -->
    <g transform="translate(429.6575 15.7575) scale(0.16 -0.16)">
     <defs>
      <path id="DejaVuSans-4e" d="M 628 4666 
L 1478 4666 
L 3547 763 
L 3547 4666 
L 4159 4666 
L 4159 0 
L 3309 0 
L 1241 3903 
L 1241 0 
L 628 0 
L 628 4666 
z
" transform="scale(0.015625)"/>
      <path id="DejaVuSans-68" d="M 3513 2113 
L 3513 0 
L 2938 0 
L 2938 2094 
Q 2938 2591 2744 2837 
Q 2550 3084 2163 3084 
Q 1697 3084 1428 2787 
Q 1159 2491 1159 1978 
L 1159 0 
L 581 0 
L 581 4863 
L 1159 4863 
L 1159 2956 
Q 1366 3272 1645 3428 
Q 1925 3584 2291 3584 
Q 2894 3584 3203 3211 
Q 3513 2838 3513 2113 
z
" transform="scale(0.015625)"/>
      <path id="DejaVuSans-64" d="M 2906 2969 
L 2906 4863 
L 3481 4863 
L 3481 0 
L 2906 0 
L 2906 525 
Q 2725 213 2448 61 
Q 2172 -91 1784 -91 
Q 1150 -91 751 415 
Q 353 922 353 1747 
Q 353 2572 751 3078 
Q 1150 3584 1784 3584 
Q 2172 3584 2448 3432 
Q 2725 3281 2906 2969 
z
M 947 1747 
Q 947 1113 1208 752 
Q 1469 391 1925 391 
Q 2381 391 2643 752 
Q 2906 1113 2906 1747 
Q 2906 2381 2643 2742 
Q 2381 3103 1925 3103 
Q 1469 3103 1208 2742 
Q 947 2381 947 1747 
z
" transform="scale(0.015625)"/>
      <path id="DejaVuSans-67" d="M 2906 1791 
Q 2906 2416 2648 2759 
Q 2391 3103 1925 3103 
Q 1463 3103 1205 2759 
Q 947 2416 947 1791 
Q 947 1169 1205 825 
Q 1463 481 1925 481 
Q 2391 481 2648 825 
Q 2906 1169 2906 1791 
z
M 3481 434 
Q 3481 -459 3084 -895 
Q 2688 -1331 1869 -1331 
Q 1566 -1331 1297 -1286 
Q 1028 -1241 775 -1147 
L 775 -588 
Q 1028 -725 1275 -790 
Q 1522 -856 1778 -856 
Q 2344 -856 2625 -561 
Q 2906 -266 2906 331 
L 2906 616 
Q 2728 306 2450 153 
Q 2172 0 1784 0 
Q 1141 0 747 490 
Q 353 981 353 1791 
Q 353 2603 747 3093 
Q 1141 3584 1784 3584 
Q 2172 3584 2450 3431 
Q 2728 3278 2906 2969 
L 2906 3500 
L 3481 3500 
L 3481 434 
z
" transform="scale(0.015625)"/>
      <path id="DejaVuSans-2d" d="M 313 2009 
L 1997 2009 
L 1997 1497 
L 313 1497 
L 313 2009 
z
" transform="scale(0.015625)"/>
     </defs>
     <use xlink:href="#DejaVuSans-4e"/>
     <use xlink:href="#DejaVuSans-6f" x="74.804688"/>
     <use xlink:href="#DejaVuSans-72" x="135.986328"/>
     <use xlink:href="#DejaVuSans-74" x="177.099609"/>
     <use xlink:href="#DejaVuSans-68" x="216.308594"/>
     <use xlink:href="#DejaVuSans-72" x="279.6875"/>
     <use xlink:href="#DejaVuSans-69" x="320.800781"/>
     <use xlink:href="#DejaVuSans-64" x="348.583984"/>
     <use xlink:href="#DejaVuSans-67" x="412.060547"/>
     <use xlink:href="#DejaVuSans-65" x="475.537109"/>
     <use xlink:href="#DejaVuSans-2d" x="537.060547"/>
     <use xlink:href="#DejaVuSans-30" x="573.144531"/>
     <use xlink:href="#DejaVuSans-31" x="636.767578"/>
     <use xlink:href="#DejaVuSans-20" x="700.390625"/>
     <use xlink:href="#DejaVuSans-52" x="732.177734"/>
     <use xlink:href="#DejaVuSans-65" x="797.160156"/>
     <use xlink:href="#DejaVuSans-63" x="858.683594"/>
     <use xlink:href="#DejaVuSans-6f" x="913.664062"/>
     <use xlink:href="#DejaVuSans-72" x="974.845703"/>
     <use xlink:href="#DejaVuSans-64" x="1014.208984"/>
     <use xlink:href="#DejaVuSans-20" x="1077.685547"/>
     <use xlink:href="#DejaVuSans-6e" x="1109.472656"/>
     <use xlink:href="#DejaVuSans-6f" x="1172.851562"/>
     <use xlink:href="#DejaVuSans-2e" x="1232.283203"/>
     <use xlink:href="#DejaVuSans-20" x="1264.070312"/>
     <use xlink:href="#DejaVuSans-31" x="1295.857422"/>
     <use xlink:href="#DejaVuSans-30" x="1359.480469"/>
     <use xlink:href="#DejaVuSans-35" x="1423.103516"/>
     <use xlink:href="#DejaVuSans-30" x="1486.726562"/>
    </g>
   </g>
  </g>
 </g>
 <defs>
  <clipPath id="p041d079a73">
   <rect x="51.4875" y="21.7575" width="1004.4" height="498.96"/>
  </clipPath>
 </defs>
</svg>
