<?xml version="1.0" encoding="utf-8" standalone="no"?>
<!DOCTYPE svg PUBLIC "-//W3C//DTD SVG 1.1//EN"
  "http://www.w3.org/Graphics/SVG/1.1/DTD/svg11.dtd">
<svg xmlns:xlink="http://www.w3.org/1999/xlink" width="1074.7525pt" height="562.7875pt" viewBox="0 0 1074.7525 562.7875" xmlns="http://www.w3.org/2000/svg" version="1.1">
 <metadata>
  <rdf:RDF xmlns:dc="http://purl.org/dc/elements/1.1/" xmlns:cc="http://creativecommons.org/ns#" xmlns:rdf="http://www.w3.org/1999/02/22-rdf-syntax-ns#">
   <cc:Work>
    <dc:type rdf:resource="http://purl.org/dc/dcmitype/StillImage"/>
    <dc:date>2023-05-16T14:58:41.931774</dc:date>
    <dc:format>image/svg+xml</dc:format>
    <dc:creator>
     <cc:Agent>
      <dc:title>Matplotlib v3.7.1, https://matplotlib.org/</dc:title>
     </cc:Agent>
    </dc:creator>
   </cc:Work>
  </rdf:RDF>
 </metadata>
 <defs>
  <style type="text/css">*{stroke-linejoin: round; stroke-linecap: butt}</style>
 </defs>
 <g id="figure_1">
  <g id="patch_1">
   <path d="M 0 562.7875 
L 1074.7525 562.7875 
L 1074.7525 0 
L 0 0 
z
" style="fill: #ffffff"/>
  </g>
  <g id="axes_1">
   <g id="patch_2">
    <path d="M 66.7525 520.7175 
L 1071.1525 520.7175 
L 1071.1525 21.7575 
L 66.7525 21.7575 
z
" style="fill: #ffffff"/>
   </g>
   <g id="matplotlib.axis_1">
    <g id="xtick_1">
     <g id="line2d_1">
      <path d="M 112.407045 520.7175 
L 112.407045 21.7575 
" clip-path="url(#padc3fbf3ab)" style="fill: none; stroke-dasharray: 1.85,0.8; stroke-dashoffset: 0; stroke: #000000; stroke-opacity: 0.5; stroke-width: 0.5"/>
     </g>
     <g id="line2d_2">
      <defs>
       <path id="m0ed390fd74" d="M 0 0 
L 0 -6 
" style="stroke: #000000"/>
      </defs>
      <g>
       <use xlink:href="#m0ed390fd74" x="112.407045" y="520.7175" style="stroke: #000000"/>
      </g>
     </g>
     <g id="line2d_3">
      <defs>
       <path id="m1f092c6e2d" d="M 0 0 
L 0 6 
" style="stroke: #000000"/>
      </defs>
      <g>
       <use xlink:href="#m1f092c6e2d" x="112.407045" y="21.7575" style="stroke: #000000"/>
      </g>
     </g>
     <g id="text_1">
      <!-- 0 -->
      <g transform="translate(107.317045 536.375) scale(0.16 -0.16)">
       <defs>
        <path id="DejaVuSans-30" d="M 2034 4250 
Q 1547 4250 1301 3770 
Q 1056 3291 1056 2328 
Q 1056 1369 1301 889 
Q 1547 409 2034 409 
Q 2525 409 2770 889 
Q 3016 1369 3016 2328 
Q 3016 3291 2770 3770 
Q 2525 4250 2034 4250 
z
M 2034 4750 
Q 2819 4750 3233 4129 
Q 3647 3509 3647 2328 
Q 3647 1150 3233 529 
Q 2819 -91 2034 -91 
Q 1250 -91 836 529 
Q 422 1150 422 2328 
Q 422 3509 836 4129 
Q 1250 4750 2034 4750 
z
" transform="scale(0.015625)"/>
       </defs>
       <use xlink:href="#DejaVuSans-30"/>
      </g>
     </g>
    </g>
    <g id="xtick_2">
     <g id="line2d_4">
      <path d="M 229.530046 520.7175 
L 229.530046 21.7575 
" clip-path="url(#padc3fbf3ab)" style="fill: none; stroke-dasharray: 1.85,0.8; stroke-dashoffset: 0; stroke: #000000; stroke-opacity: 0.5; stroke-width: 0.5"/>
     </g>
     <g id="line2d_5">
      <g>
       <use xlink:href="#m0ed390fd74" x="229.530046" y="520.7175" style="stroke: #000000"/>
      </g>
     </g>
     <g id="line2d_6">
      <g>
       <use xlink:href="#m1f092c6e2d" x="229.530046" y="21.7575" style="stroke: #000000"/>
      </g>
     </g>
     <g id="text_2">
      <!-- 5 -->
      <g transform="translate(224.440046 536.375) scale(0.16 -0.16)">
       <defs>
        <path id="DejaVuSans-35" d="M 691 4666 
L 3169 4666 
L 3169 4134 
L 1269 4134 
L 1269 2991 
Q 1406 3038 1543 3061 
Q 1681 3084 1819 3084 
Q 2600 3084 3056 2656 
Q 3513 2228 3513 1497 
Q 3513 744 3044 326 
Q 2575 -91 1722 -91 
Q 1428 -91 1123 -41 
Q 819 9 494 109 
L 494 744 
Q 775 591 1075 516 
Q 1375 441 1709 441 
Q 2250 441 2565 725 
Q 2881 1009 2881 1497 
Q 2881 1984 2565 2268 
Q 2250 2553 1709 2553 
Q 1456 2553 1204 2497 
Q 953 2441 691 2322 
L 691 4666 
z
" transform="scale(0.015625)"/>
       </defs>
       <use xlink:href="#DejaVuSans-35"/>
      </g>
     </g>
    </g>
    <g id="xtick_3">
     <g id="line2d_7">
      <path d="M 346.653046 520.7175 
L 346.653046 21.7575 
" clip-path="url(#padc3fbf3ab)" style="fill: none; stroke-dasharray: 1.85,0.8; stroke-dashoffset: 0; stroke: #000000; stroke-opacity: 0.5; stroke-width: 0.5"/>
     </g>
     <g id="line2d_8">
      <g>
       <use xlink:href="#m0ed390fd74" x="346.653046" y="520.7175" style="stroke: #000000"/>
      </g>
     </g>
     <g id="line2d_9">
      <g>
       <use xlink:href="#m1f092c6e2d" x="346.653046" y="21.7575" style="stroke: #000000"/>
      </g>
     </g>
     <g id="text_3">
      <!-- 10 -->
      <g transform="translate(336.473046 536.375) scale(0.16 -0.16)">
       <defs>
        <path id="DejaVuSans-31" d="M 794 531 
L 1825 531 
L 1825 4091 
L 703 3866 
L 703 4441 
L 1819 4666 
L 2450 4666 
L 2450 531 
L 3481 531 
L 3481 0 
L 794 0 
L 794 531 
z
" transform="scale(0.015625)"/>
       </defs>
       <use xlink:href="#DejaVuSans-31"/>
       <use xlink:href="#DejaVuSans-30" x="63.623047"/>
      </g>
     </g>
    </g>
    <g id="xtick_4">
     <g id="line2d_10">
      <path d="M 463.776046 520.7175 
L 463.776046 21.7575 
" clip-path="url(#padc3fbf3ab)" style="fill: none; stroke-dasharray: 1.85,0.8; stroke-dashoffset: 0; stroke: #000000; stroke-opacity: 0.5; stroke-width: 0.5"/>
     </g>
     <g id="line2d_11">
      <g>
       <use xlink:href="#m0ed390fd74" x="463.776046" y="520.7175" style="stroke: #000000"/>
      </g>
     </g>
     <g id="line2d_12">
      <g>
       <use xlink:href="#m1f092c6e2d" x="463.776046" y="21.7575" style="stroke: #000000"/>
      </g>
     </g>
     <g id="text_4">
      <!-- 15 -->
      <g transform="translate(453.596046 536.375) scale(0.16 -0.16)">
       <use xlink:href="#DejaVuSans-31"/>
       <use xlink:href="#DejaVuSans-35" x="63.623047"/>
      </g>
     </g>
    </g>
    <g id="xtick_5">
     <g id="line2d_13">
      <path d="M 580.899046 520.7175 
L 580.899046 21.7575 
" clip-path="url(#padc3fbf3ab)" style="fill: none; stroke-dasharray: 1.85,0.8; stroke-dashoffset: 0; stroke: #000000; stroke-opacity: 0.5; stroke-width: 0.5"/>
     </g>
     <g id="line2d_14">
      <g>
       <use xlink:href="#m0ed390fd74" x="580.899046" y="520.7175" style="stroke: #000000"/>
      </g>
     </g>
     <g id="line2d_15">
      <g>
       <use xlink:href="#m1f092c6e2d" x="580.899046" y="21.7575" style="stroke: #000000"/>
      </g>
     </g>
     <g id="text_5">
      <!-- 20 -->
      <g transform="translate(570.719046 536.375) scale(0.16 -0.16)">
       <defs>
        <path id="DejaVuSans-32" d="M 1228 531 
L 3431 531 
L 3431 0 
L 469 0 
L 469 531 
Q 828 903 1448 1529 
Q 2069 2156 2228 2338 
Q 2531 2678 2651 2914 
Q 2772 3150 2772 3378 
Q 2772 3750 2511 3984 
Q 2250 4219 1831 4219 
Q 1534 4219 1204 4116 
Q 875 4013 500 3803 
L 500 4441 
Q 881 4594 1212 4672 
Q 1544 4750 1819 4750 
Q 2544 4750 2975 4387 
Q 3406 4025 3406 3419 
Q 3406 3131 3298 2873 
Q 3191 2616 2906 2266 
Q 2828 2175 2409 1742 
Q 1991 1309 1228 531 
z
" transform="scale(0.015625)"/>
       </defs>
       <use xlink:href="#DejaVuSans-32"/>
       <use xlink:href="#DejaVuSans-30" x="63.623047"/>
      </g>
     </g>
    </g>
    <g id="xtick_6">
     <g id="line2d_16">
      <path d="M 698.022046 520.7175 
L 698.022046 21.7575 
" clip-path="url(#padc3fbf3ab)" style="fill: none; stroke-dasharray: 1.85,0.8; stroke-dashoffset: 0; stroke: #000000; stroke-opacity: 0.5; stroke-width: 0.5"/>
     </g>
     <g id="line2d_17">
      <g>
       <use xlink:href="#m0ed390fd74" x="698.022046" y="520.7175" style="stroke: #000000"/>
      </g>
     </g>
     <g id="line2d_18">
      <g>
       <use xlink:href="#m1f092c6e2d" x="698.022046" y="21.7575" style="stroke: #000000"/>
      </g>
     </g>
     <g id="text_6">
      <!-- 25 -->
      <g transform="translate(687.842046 536.375) scale(0.16 -0.16)">
       <use xlink:href="#DejaVuSans-32"/>
       <use xlink:href="#DejaVuSans-35" x="63.623047"/>
      </g>
     </g>
    </g>
    <g id="xtick_7">
     <g id="line2d_19">
      <path d="M 815.145046 520.7175 
L 815.145046 21.7575 
" clip-path="url(#padc3fbf3ab)" style="fill: none; stroke-dasharray: 1.85,0.8; stroke-dashoffset: 0; stroke: #000000; stroke-opacity: 0.5; stroke-width: 0.5"/>
     </g>
     <g id="line2d_20">
      <g>
       <use xlink:href="#m0ed390fd74" x="815.145046" y="520.7175" style="stroke: #000000"/>
      </g>
     </g>
     <g id="line2d_21">
      <g>
       <use xlink:href="#m1f092c6e2d" x="815.145046" y="21.7575" style="stroke: #000000"/>
      </g>
     </g>
     <g id="text_7">
      <!-- 30 -->
      <g transform="translate(804.965046 536.375) scale(0.16 -0.16)">
       <defs>
        <path id="DejaVuSans-33" d="M 2597 2516 
Q 3050 2419 3304 2112 
Q 3559 1806 3559 1356 
Q 3559 666 3084 287 
Q 2609 -91 1734 -91 
Q 1441 -91 1130 -33 
Q 819 25 488 141 
L 488 750 
Q 750 597 1062 519 
Q 1375 441 1716 441 
Q 2309 441 2620 675 
Q 2931 909 2931 1356 
Q 2931 1769 2642 2001 
Q 2353 2234 1838 2234 
L 1294 2234 
L 1294 2753 
L 1863 2753 
Q 2328 2753 2575 2939 
Q 2822 3125 2822 3475 
Q 2822 3834 2567 4026 
Q 2313 4219 1838 4219 
Q 1578 4219 1281 4162 
Q 984 4106 628 3988 
L 628 4550 
Q 988 4650 1302 4700 
Q 1616 4750 1894 4750 
Q 2613 4750 3031 4423 
Q 3450 4097 3450 3541 
Q 3450 3153 3228 2886 
Q 3006 2619 2597 2516 
z
" transform="scale(0.015625)"/>
       </defs>
       <use xlink:href="#DejaVuSans-33"/>
       <use xlink:href="#DejaVuSans-30" x="63.623047"/>
      </g>
     </g>
    </g>
    <g id="xtick_8">
     <g id="line2d_22">
      <path d="M 932.268046 520.7175 
L 932.268046 21.7575 
" clip-path="url(#padc3fbf3ab)" style="fill: none; stroke-dasharray: 1.85,0.8; stroke-dashoffset: 0; stroke: #000000; stroke-opacity: 0.5; stroke-width: 0.5"/>
     </g>
     <g id="line2d_23">
      <g>
       <use xlink:href="#m0ed390fd74" x="932.268046" y="520.7175" style="stroke: #000000"/>
      </g>
     </g>
     <g id="line2d_24">
      <g>
       <use xlink:href="#m1f092c6e2d" x="932.268046" y="21.7575" style="stroke: #000000"/>
      </g>
     </g>
     <g id="text_8">
      <!-- 35 -->
      <g transform="translate(922.088046 536.375) scale(0.16 -0.16)">
       <use xlink:href="#DejaVuSans-33"/>
       <use xlink:href="#DejaVuSans-35" x="63.623047"/>
      </g>
     </g>
    </g>
    <g id="xtick_9">
     <g id="line2d_25">
      <path d="M 1049.391047 520.7175 
L 1049.391047 21.7575 
" clip-path="url(#padc3fbf3ab)" style="fill: none; stroke-dasharray: 1.85,0.8; stroke-dashoffset: 0; stroke: #000000; stroke-opacity: 0.5; stroke-width: 0.5"/>
     </g>
     <g id="line2d_26">
      <g>
       <use xlink:href="#m0ed390fd74" x="1049.391047" y="520.7175" style="stroke: #000000"/>
      </g>
     </g>
     <g id="line2d_27">
      <g>
       <use xlink:href="#m1f092c6e2d" x="1049.391047" y="21.7575" style="stroke: #000000"/>
      </g>
     </g>
     <g id="text_9">
      <!-- 40 -->
      <g transform="translate(1039.211047 536.375) scale(0.16 -0.16)">
       <defs>
        <path id="DejaVuSans-34" d="M 2419 4116 
L 825 1625 
L 2419 1625 
L 2419 4116 
z
M 2253 4666 
L 3047 4666 
L 3047 1625 
L 3713 1625 
L 3713 1100 
L 3047 1100 
L 3047 0 
L 2419 0 
L 2419 1100 
L 313 1100 
L 313 1709 
L 2253 4666 
z
" transform="scale(0.015625)"/>
       </defs>
       <use xlink:href="#DejaVuSans-34"/>
       <use xlink:href="#DejaVuSans-30" x="63.623047"/>
      </g>
     </g>
    </g>
    <g id="xtick_10">
     <g id="line2d_28">
      <defs>
       <path id="m8ba933f1e7" d="M 0 0 
L 0 -3 
" style="stroke: #000000"/>
      </defs>
      <g>
       <use xlink:href="#m8ba933f1e7" x="88.982445" y="520.7175" style="stroke: #000000"/>
      </g>
     </g>
     <g id="line2d_29">
      <defs>
       <path id="mfc1c368061" d="M 0 0 
L 0 3 
" style="stroke: #000000"/>
      </defs>
      <g>
       <use xlink:href="#mfc1c368061" x="88.982445" y="21.7575" style="stroke: #000000"/>
      </g>
     </g>
    </g>
    <g id="xtick_11">
     <g id="line2d_30">
      <g>
       <use xlink:href="#m8ba933f1e7" x="135.831645" y="520.7175" style="stroke: #000000"/>
      </g>
     </g>
     <g id="line2d_31">
      <g>
       <use xlink:href="#mfc1c368061" x="135.831645" y="21.7575" style="stroke: #000000"/>
      </g>
     </g>
    </g>
    <g id="xtick_12">
     <g id="line2d_32">
      <g>
       <use xlink:href="#m8ba933f1e7" x="159.256246" y="520.7175" style="stroke: #000000"/>
      </g>
     </g>
     <g id="line2d_33">
      <g>
       <use xlink:href="#mfc1c368061" x="159.256246" y="21.7575" style="stroke: #000000"/>
      </g>
     </g>
    </g>
    <g id="xtick_13">
     <g id="line2d_34">
      <g>
       <use xlink:href="#m8ba933f1e7" x="182.680846" y="520.7175" style="stroke: #000000"/>
      </g>
     </g>
     <g id="line2d_35">
      <g>
       <use xlink:href="#mfc1c368061" x="182.680846" y="21.7575" style="stroke: #000000"/>
      </g>
     </g>
    </g>
    <g id="xtick_14">
     <g id="line2d_36">
      <g>
       <use xlink:href="#m8ba933f1e7" x="206.105446" y="520.7175" style="stroke: #000000"/>
      </g>
     </g>
     <g id="line2d_37">
      <g>
       <use xlink:href="#mfc1c368061" x="206.105446" y="21.7575" style="stroke: #000000"/>
      </g>
     </g>
    </g>
    <g id="xtick_15">
     <g id="line2d_38">
      <g>
       <use xlink:href="#m8ba933f1e7" x="252.954646" y="520.7175" style="stroke: #000000"/>
      </g>
     </g>
     <g id="line2d_39">
      <g>
       <use xlink:href="#mfc1c368061" x="252.954646" y="21.7575" style="stroke: #000000"/>
      </g>
     </g>
    </g>
    <g id="xtick_16">
     <g id="line2d_40">
      <g>
       <use xlink:href="#m8ba933f1e7" x="276.379246" y="520.7175" style="stroke: #000000"/>
      </g>
     </g>
     <g id="line2d_41">
      <g>
       <use xlink:href="#mfc1c368061" x="276.379246" y="21.7575" style="stroke: #000000"/>
      </g>
     </g>
    </g>
    <g id="xtick_17">
     <g id="line2d_42">
      <g>
       <use xlink:href="#m8ba933f1e7" x="299.803846" y="520.7175" style="stroke: #000000"/>
      </g>
     </g>
     <g id="line2d_43">
      <g>
       <use xlink:href="#mfc1c368061" x="299.803846" y="21.7575" style="stroke: #000000"/>
      </g>
     </g>
    </g>
    <g id="xtick_18">
     <g id="line2d_44">
      <g>
       <use xlink:href="#m8ba933f1e7" x="323.228446" y="520.7175" style="stroke: #000000"/>
      </g>
     </g>
     <g id="line2d_45">
      <g>
       <use xlink:href="#mfc1c368061" x="323.228446" y="21.7575" style="stroke: #000000"/>
      </g>
     </g>
    </g>
    <g id="xtick_19">
     <g id="line2d_46">
      <g>
       <use xlink:href="#m8ba933f1e7" x="370.077646" y="520.7175" style="stroke: #000000"/>
      </g>
     </g>
     <g id="line2d_47">
      <g>
       <use xlink:href="#mfc1c368061" x="370.077646" y="21.7575" style="stroke: #000000"/>
      </g>
     </g>
    </g>
    <g id="xtick_20">
     <g id="line2d_48">
      <g>
       <use xlink:href="#m8ba933f1e7" x="393.502246" y="520.7175" style="stroke: #000000"/>
      </g>
     </g>
     <g id="line2d_49">
      <g>
       <use xlink:href="#mfc1c368061" x="393.502246" y="21.7575" style="stroke: #000000"/>
      </g>
     </g>
    </g>
    <g id="xtick_21">
     <g id="line2d_50">
      <g>
       <use xlink:href="#m8ba933f1e7" x="416.926846" y="520.7175" style="stroke: #000000"/>
      </g>
     </g>
     <g id="line2d_51">
      <g>
       <use xlink:href="#mfc1c368061" x="416.926846" y="21.7575" style="stroke: #000000"/>
      </g>
     </g>
    </g>
    <g id="xtick_22">
     <g id="line2d_52">
      <g>
       <use xlink:href="#m8ba933f1e7" x="440.351446" y="520.7175" style="stroke: #000000"/>
      </g>
     </g>
     <g id="line2d_53">
      <g>
       <use xlink:href="#mfc1c368061" x="440.351446" y="21.7575" style="stroke: #000000"/>
      </g>
     </g>
    </g>
    <g id="xtick_23">
     <g id="line2d_54">
      <g>
       <use xlink:href="#m8ba933f1e7" x="487.200646" y="520.7175" style="stroke: #000000"/>
      </g>
     </g>
     <g id="line2d_55">
      <g>
       <use xlink:href="#mfc1c368061" x="487.200646" y="21.7575" style="stroke: #000000"/>
      </g>
     </g>
    </g>
    <g id="xtick_24">
     <g id="line2d_56">
      <g>
       <use xlink:href="#m8ba933f1e7" x="510.625246" y="520.7175" style="stroke: #000000"/>
      </g>
     </g>
     <g id="line2d_57">
      <g>
       <use xlink:href="#mfc1c368061" x="510.625246" y="21.7575" style="stroke: #000000"/>
      </g>
     </g>
    </g>
    <g id="xtick_25">
     <g id="line2d_58">
      <g>
       <use xlink:href="#m8ba933f1e7" x="534.049846" y="520.7175" style="stroke: #000000"/>
      </g>
     </g>
     <g id="line2d_59">
      <g>
       <use xlink:href="#mfc1c368061" x="534.049846" y="21.7575" style="stroke: #000000"/>
      </g>
     </g>
    </g>
    <g id="xtick_26">
     <g id="line2d_60">
      <g>
       <use xlink:href="#m8ba933f1e7" x="557.474446" y="520.7175" style="stroke: #000000"/>
      </g>
     </g>
     <g id="line2d_61">
      <g>
       <use xlink:href="#mfc1c368061" x="557.474446" y="21.7575" style="stroke: #000000"/>
      </g>
     </g>
    </g>
    <g id="xtick_27">
     <g id="line2d_62">
      <g>
       <use xlink:href="#m8ba933f1e7" x="604.323646" y="520.7175" style="stroke: #000000"/>
      </g>
     </g>
     <g id="line2d_63">
      <g>
       <use xlink:href="#mfc1c368061" x="604.323646" y="21.7575" style="stroke: #000000"/>
      </g>
     </g>
    </g>
    <g id="xtick_28">
     <g id="line2d_64">
      <g>
       <use xlink:href="#m8ba933f1e7" x="627.748246" y="520.7175" style="stroke: #000000"/>
      </g>
     </g>
     <g id="line2d_65">
      <g>
       <use xlink:href="#mfc1c368061" x="627.748246" y="21.7575" style="stroke: #000000"/>
      </g>
     </g>
    </g>
    <g id="xtick_29">
     <g id="line2d_66">
      <g>
       <use xlink:href="#m8ba933f1e7" x="651.172846" y="520.7175" style="stroke: #000000"/>
      </g>
     </g>
     <g id="line2d_67">
      <g>
       <use xlink:href="#mfc1c368061" x="651.172846" y="21.7575" style="stroke: #000000"/>
      </g>
     </g>
    </g>
    <g id="xtick_30">
     <g id="line2d_68">
      <g>
       <use xlink:href="#m8ba933f1e7" x="674.597446" y="520.7175" style="stroke: #000000"/>
      </g>
     </g>
     <g id="line2d_69">
      <g>
       <use xlink:href="#mfc1c368061" x="674.597446" y="21.7575" style="stroke: #000000"/>
      </g>
     </g>
    </g>
    <g id="xtick_31">
     <g id="line2d_70">
      <g>
       <use xlink:href="#m8ba933f1e7" x="721.446646" y="520.7175" style="stroke: #000000"/>
      </g>
     </g>
     <g id="line2d_71">
      <g>
       <use xlink:href="#mfc1c368061" x="721.446646" y="21.7575" style="stroke: #000000"/>
      </g>
     </g>
    </g>
    <g id="xtick_32">
     <g id="line2d_72">
      <g>
       <use xlink:href="#m8ba933f1e7" x="744.871246" y="520.7175" style="stroke: #000000"/>
      </g>
     </g>
     <g id="line2d_73">
      <g>
       <use xlink:href="#mfc1c368061" x="744.871246" y="21.7575" style="stroke: #000000"/>
      </g>
     </g>
    </g>
    <g id="xtick_33">
     <g id="line2d_74">
      <g>
       <use xlink:href="#m8ba933f1e7" x="768.295846" y="520.7175" style="stroke: #000000"/>
      </g>
     </g>
     <g id="line2d_75">
      <g>
       <use xlink:href="#mfc1c368061" x="768.295846" y="21.7575" style="stroke: #000000"/>
      </g>
     </g>
    </g>
    <g id="xtick_34">
     <g id="line2d_76">
      <g>
       <use xlink:href="#m8ba933f1e7" x="791.720446" y="520.7175" style="stroke: #000000"/>
      </g>
     </g>
     <g id="line2d_77">
      <g>
       <use xlink:href="#mfc1c368061" x="791.720446" y="21.7575" style="stroke: #000000"/>
      </g>
     </g>
    </g>
    <g id="xtick_35">
     <g id="line2d_78">
      <g>
       <use xlink:href="#m8ba933f1e7" x="838.569646" y="520.7175" style="stroke: #000000"/>
      </g>
     </g>
     <g id="line2d_79">
      <g>
       <use xlink:href="#mfc1c368061" x="838.569646" y="21.7575" style="stroke: #000000"/>
      </g>
     </g>
    </g>
    <g id="xtick_36">
     <g id="line2d_80">
      <g>
       <use xlink:href="#m8ba933f1e7" x="861.994246" y="520.7175" style="stroke: #000000"/>
      </g>
     </g>
     <g id="line2d_81">
      <g>
       <use xlink:href="#mfc1c368061" x="861.994246" y="21.7575" style="stroke: #000000"/>
      </g>
     </g>
    </g>
    <g id="xtick_37">
     <g id="line2d_82">
      <g>
       <use xlink:href="#m8ba933f1e7" x="885.418846" y="520.7175" style="stroke: #000000"/>
      </g>
     </g>
     <g id="line2d_83">
      <g>
       <use xlink:href="#mfc1c368061" x="885.418846" y="21.7575" style="stroke: #000000"/>
      </g>
     </g>
    </g>
    <g id="xtick_38">
     <g id="line2d_84">
      <g>
       <use xlink:href="#m8ba933f1e7" x="908.843446" y="520.7175" style="stroke: #000000"/>
      </g>
     </g>
     <g id="line2d_85">
      <g>
       <use xlink:href="#mfc1c368061" x="908.843446" y="21.7575" style="stroke: #000000"/>
      </g>
     </g>
    </g>
    <g id="xtick_39">
     <g id="line2d_86">
      <g>
       <use xlink:href="#m8ba933f1e7" x="955.692646" y="520.7175" style="stroke: #000000"/>
      </g>
     </g>
     <g id="line2d_87">
      <g>
       <use xlink:href="#mfc1c368061" x="955.692646" y="21.7575" style="stroke: #000000"/>
      </g>
     </g>
    </g>
    <g id="xtick_40">
     <g id="line2d_88">
      <g>
       <use xlink:href="#m8ba933f1e7" x="979.117246" y="520.7175" style="stroke: #000000"/>
      </g>
     </g>
     <g id="line2d_89">
      <g>
       <use xlink:href="#mfc1c368061" x="979.117246" y="21.7575" style="stroke: #000000"/>
      </g>
     </g>
    </g>
    <g id="xtick_41">
     <g id="line2d_90">
      <g>
       <use xlink:href="#m8ba933f1e7" x="1002.541847" y="520.7175" style="stroke: #000000"/>
      </g>
     </g>
     <g id="line2d_91">
      <g>
       <use xlink:href="#mfc1c368061" x="1002.541847" y="21.7575" style="stroke: #000000"/>
      </g>
     </g>
    </g>
    <g id="xtick_42">
     <g id="line2d_92">
      <g>
       <use xlink:href="#m8ba933f1e7" x="1025.966447" y="520.7175" style="stroke: #000000"/>
      </g>
     </g>
     <g id="line2d_93">
      <g>
       <use xlink:href="#mfc1c368061" x="1025.966447" y="21.7575" style="stroke: #000000"/>
      </g>
     </g>
    </g>
    <g id="text_10">
     <!-- Time(s) -->
     <g transform="translate(538.96875 555.86) scale(0.16 -0.16)">
      <defs>
       <path id="DejaVuSans-54" d="M -19 4666 
L 3928 4666 
L 3928 4134 
L 2272 4134 
L 2272 0 
L 1638 0 
L 1638 4134 
L -19 4134 
L -19 4666 
z
" transform="scale(0.015625)"/>
       <path id="DejaVuSans-69" d="M 603 3500 
L 1178 3500 
L 1178 0 
L 603 0 
L 603 3500 
z
M 603 4863 
L 1178 4863 
L 1178 4134 
L 603 4134 
L 603 4863 
z
" transform="scale(0.015625)"/>
       <path id="DejaVuSans-6d" d="M 3328 2828 
Q 3544 3216 3844 3400 
Q 4144 3584 4550 3584 
Q 5097 3584 5394 3201 
Q 5691 2819 5691 2113 
L 5691 0 
L 5113 0 
L 5113 2094 
Q 5113 2597 4934 2840 
Q 4756 3084 4391 3084 
Q 3944 3084 3684 2787 
Q 3425 2491 3425 1978 
L 3425 0 
L 2847 0 
L 2847 2094 
Q 2847 2600 2669 2842 
Q 2491 3084 2119 3084 
Q 1678 3084 1418 2786 
Q 1159 2488 1159 1978 
L 1159 0 
L 581 0 
L 581 3500 
L 1159 3500 
L 1159 2956 
Q 1356 3278 1631 3431 
Q 1906 3584 2284 3584 
Q 2666 3584 2933 3390 
Q 3200 3197 3328 2828 
z
" transform="scale(0.015625)"/>
       <path id="DejaVuSans-65" d="M 3597 1894 
L 3597 1613 
L 953 1613 
Q 991 1019 1311 708 
Q 1631 397 2203 397 
Q 2534 397 2845 478 
Q 3156 559 3463 722 
L 3463 178 
Q 3153 47 2828 -22 
Q 2503 -91 2169 -91 
Q 1331 -91 842 396 
Q 353 884 353 1716 
Q 353 2575 817 3079 
Q 1281 3584 2069 3584 
Q 2775 3584 3186 3129 
Q 3597 2675 3597 1894 
z
M 3022 2063 
Q 3016 2534 2758 2815 
Q 2500 3097 2075 3097 
Q 1594 3097 1305 2825 
Q 1016 2553 972 2059 
L 3022 2063 
z
" transform="scale(0.015625)"/>
       <path id="DejaVuSans-28" d="M 1984 4856 
Q 1566 4138 1362 3434 
Q 1159 2731 1159 2009 
Q 1159 1288 1364 580 
Q 1569 -128 1984 -844 
L 1484 -844 
Q 1016 -109 783 600 
Q 550 1309 550 2009 
Q 550 2706 781 3412 
Q 1013 4119 1484 4856 
L 1984 4856 
z
" transform="scale(0.015625)"/>
       <path id="DejaVuSans-73" d="M 2834 3397 
L 2834 2853 
Q 2591 2978 2328 3040 
Q 2066 3103 1784 3103 
Q 1356 3103 1142 2972 
Q 928 2841 928 2578 
Q 928 2378 1081 2264 
Q 1234 2150 1697 2047 
L 1894 2003 
Q 2506 1872 2764 1633 
Q 3022 1394 3022 966 
Q 3022 478 2636 193 
Q 2250 -91 1575 -91 
Q 1294 -91 989 -36 
Q 684 19 347 128 
L 347 722 
Q 666 556 975 473 
Q 1284 391 1588 391 
Q 1994 391 2212 530 
Q 2431 669 2431 922 
Q 2431 1156 2273 1281 
Q 2116 1406 1581 1522 
L 1381 1569 
Q 847 1681 609 1914 
Q 372 2147 372 2553 
Q 372 3047 722 3315 
Q 1072 3584 1716 3584 
Q 2034 3584 2315 3537 
Q 2597 3491 2834 3397 
z
" transform="scale(0.015625)"/>
       <path id="DejaVuSans-29" d="M 513 4856 
L 1013 4856 
Q 1481 4119 1714 3412 
Q 1947 2706 1947 2009 
Q 1947 1309 1714 600 
Q 1481 -109 1013 -844 
L 513 -844 
Q 928 -128 1133 580 
Q 1338 1288 1338 2009 
Q 1338 2731 1133 3434 
Q 928 4138 513 4856 
z
" transform="scale(0.015625)"/>
      </defs>
      <use xlink:href="#DejaVuSans-54"/>
      <use xlink:href="#DejaVuSans-69" x="57.958984"/>
      <use xlink:href="#DejaVuSans-6d" x="85.742188"/>
      <use xlink:href="#DejaVuSans-65" x="183.154297"/>
      <use xlink:href="#DejaVuSans-28" x="244.677734"/>
      <use xlink:href="#DejaVuSans-73" x="283.691406"/>
      <use xlink:href="#DejaVuSans-29" x="335.791016"/>
     </g>
    </g>
   </g>
   <g id="matplotlib.axis_2">
    <g id="ytick_1">
     <g id="line2d_94">
      <path d="M 66.7525 444.147727 
L 1071.1525 444.147727 
" clip-path="url(#padc3fbf3ab)" style="fill: none; stroke-dasharray: 1.85,0.8; stroke-dashoffset: 0; stroke: #000000; stroke-opacity: 0.5; stroke-width: 0.5"/>
     </g>
     <g id="line2d_95">
      <defs>
       <path id="m3b77037eec" d="M 0 0 
L 6 0 
" style="stroke: #000000"/>
      </defs>
      <g>
       <use xlink:href="#m3b77037eec" x="66.7525" y="444.147727" style="stroke: #000000"/>
      </g>
     </g>
     <g id="line2d_96">
      <defs>
       <path id="m59ea558e2e" d="M 0 0 
L -6 0 
" style="stroke: #000000"/>
      </defs>
      <g>
       <use xlink:href="#m59ea558e2e" x="1071.1525" y="444.147727" style="stroke: #000000"/>
      </g>
     </g>
     <g id="text_11">
      <!-- −1.0 -->
      <g transform="translate(24.4 450.226477) scale(0.16 -0.16)">
       <defs>
        <path id="DejaVuSans-2212" d="M 678 2272 
L 4684 2272 
L 4684 1741 
L 678 1741 
L 678 2272 
z
" transform="scale(0.015625)"/>
        <path id="DejaVuSans-2e" d="M 684 794 
L 1344 794 
L 1344 0 
L 684 0 
L 684 794 
z
" transform="scale(0.015625)"/>
       </defs>
       <use xlink:href="#DejaVuSans-2212"/>
       <use xlink:href="#DejaVuSans-31" x="83.789062"/>
       <use xlink:href="#DejaVuSans-2e" x="147.412109"/>
       <use xlink:href="#DejaVuSans-30" x="179.199219"/>
      </g>
     </g>
    </g>
    <g id="ytick_2">
     <g id="line2d_97">
      <path d="M 66.7525 351.176406 
L 1071.1525 351.176406 
" clip-path="url(#padc3fbf3ab)" style="fill: none; stroke-dasharray: 1.85,0.8; stroke-dashoffset: 0; stroke: #000000; stroke-opacity: 0.5; stroke-width: 0.5"/>
     </g>
     <g id="line2d_98">
      <g>
       <use xlink:href="#m3b77037eec" x="66.7525" y="351.176406" style="stroke: #000000"/>
      </g>
     </g>
     <g id="line2d_99">
      <g>
       <use xlink:href="#m59ea558e2e" x="1071.1525" y="351.176406" style="stroke: #000000"/>
      </g>
     </g>
     <g id="text_12">
      <!-- −0.5 -->
      <g transform="translate(24.4 357.255156) scale(0.16 -0.16)">
       <use xlink:href="#DejaVuSans-2212"/>
       <use xlink:href="#DejaVuSans-30" x="83.789062"/>
       <use xlink:href="#DejaVuSans-2e" x="147.412109"/>
       <use xlink:href="#DejaVuSans-35" x="179.199219"/>
      </g>
     </g>
    </g>
    <g id="ytick_3">
     <g id="line2d_100">
      <path d="M 66.7525 258.205086 
L 1071.1525 258.205086 
" clip-path="url(#padc3fbf3ab)" style="fill: none; stroke-dasharray: 1.85,0.8; stroke-dashoffset: 0; stroke: #000000; stroke-opacity: 0.5; stroke-width: 0.5"/>
     </g>
     <g id="line2d_101">
      <g>
       <use xlink:href="#m3b77037eec" x="66.7525" y="258.205086" style="stroke: #000000"/>
      </g>
     </g>
     <g id="line2d_102">
      <g>
       <use xlink:href="#m59ea558e2e" x="1071.1525" y="258.205086" style="stroke: #000000"/>
      </g>
     </g>
     <g id="text_13">
      <!-- 0.0 -->
      <g transform="translate(37.8075 264.283836) scale(0.16 -0.16)">
       <use xlink:href="#DejaVuSans-30"/>
       <use xlink:href="#DejaVuSans-2e" x="63.623047"/>
       <use xlink:href="#DejaVuSans-30" x="95.410156"/>
      </g>
     </g>
    </g>
    <g id="ytick_4">
     <g id="line2d_103">
      <path d="M 66.7525 165.233765 
L 1071.1525 165.233765 
" clip-path="url(#padc3fbf3ab)" style="fill: none; stroke-dasharray: 1.85,0.8; stroke-dashoffset: 0; stroke: #000000; stroke-opacity: 0.5; stroke-width: 0.5"/>
     </g>
     <g id="line2d_104">
      <g>
       <use xlink:href="#m3b77037eec" x="66.7525" y="165.233765" style="stroke: #000000"/>
      </g>
     </g>
     <g id="line2d_105">
      <g>
       <use xlink:href="#m59ea558e2e" x="1071.1525" y="165.233765" style="stroke: #000000"/>
      </g>
     </g>
     <g id="text_14">
      <!-- 0.5 -->
      <g transform="translate(37.8075 171.312515) scale(0.16 -0.16)">
       <use xlink:href="#DejaVuSans-30"/>
       <use xlink:href="#DejaVuSans-2e" x="63.623047"/>
       <use xlink:href="#DejaVuSans-35" x="95.410156"/>
      </g>
     </g>
    </g>
    <g id="ytick_5">
     <g id="line2d_106">
      <path d="M 66.7525 72.262445 
L 1071.1525 72.262445 
" clip-path="url(#padc3fbf3ab)" style="fill: none; stroke-dasharray: 1.85,0.8; stroke-dashoffset: 0; stroke: #000000; stroke-opacity: 0.5; stroke-width: 0.5"/>
     </g>
     <g id="line2d_107">
      <g>
       <use xlink:href="#m3b77037eec" x="66.7525" y="72.262445" style="stroke: #000000"/>
      </g>
     </g>
     <g id="line2d_108">
      <g>
       <use xlink:href="#m59ea558e2e" x="1071.1525" y="72.262445" style="stroke: #000000"/>
      </g>
     </g>
     <g id="text_15">
      <!-- 1.0 -->
      <g transform="translate(37.8075 78.341195) scale(0.16 -0.16)">
       <use xlink:href="#DejaVuSans-31"/>
       <use xlink:href="#DejaVuSans-2e" x="63.623047"/>
       <use xlink:href="#DejaVuSans-30" x="95.410156"/>
      </g>
     </g>
    </g>
    <g id="ytick_6">
     <g id="line2d_109">
      <defs>
       <path id="m9d251ab0bb" d="M 0 0 
L 3 0 
" style="stroke: #000000"/>
      </defs>
      <g>
       <use xlink:href="#m9d251ab0bb" x="66.7525" y="518.524783" style="stroke: #000000"/>
      </g>
     </g>
     <g id="line2d_110">
      <defs>
       <path id="mbb45d2b824" d="M 0 0 
L -3 0 
" style="stroke: #000000"/>
      </defs>
      <g>
       <use xlink:href="#mbb45d2b824" x="1071.1525" y="518.524783" style="stroke: #000000"/>
      </g>
     </g>
    </g>
    <g id="ytick_7">
     <g id="line2d_111">
      <g>
       <use xlink:href="#m9d251ab0bb" x="66.7525" y="499.930519" style="stroke: #000000"/>
      </g>
     </g>
     <g id="line2d_112">
      <g>
       <use xlink:href="#mbb45d2b824" x="1071.1525" y="499.930519" style="stroke: #000000"/>
      </g>
     </g>
    </g>
    <g id="ytick_8">
     <g id="line2d_113">
      <g>
       <use xlink:href="#m9d251ab0bb" x="66.7525" y="481.336255" style="stroke: #000000"/>
      </g>
     </g>
     <g id="line2d_114">
      <g>
       <use xlink:href="#mbb45d2b824" x="1071.1525" y="481.336255" style="stroke: #000000"/>
      </g>
     </g>
    </g>
    <g id="ytick_9">
     <g id="line2d_115">
      <g>
       <use xlink:href="#m9d251ab0bb" x="66.7525" y="462.741991" style="stroke: #000000"/>
      </g>
     </g>
     <g id="line2d_116">
      <g>
       <use xlink:href="#mbb45d2b824" x="1071.1525" y="462.741991" style="stroke: #000000"/>
      </g>
     </g>
    </g>
    <g id="ytick_10">
     <g id="line2d_117">
      <g>
       <use xlink:href="#m9d251ab0bb" x="66.7525" y="425.553463" style="stroke: #000000"/>
      </g>
     </g>
     <g id="line2d_118">
      <g>
       <use xlink:href="#mbb45d2b824" x="1071.1525" y="425.553463" style="stroke: #000000"/>
      </g>
     </g>
    </g>
    <g id="ytick_11">
     <g id="line2d_119">
      <g>
       <use xlink:href="#m9d251ab0bb" x="66.7525" y="406.959199" style="stroke: #000000"/>
      </g>
     </g>
     <g id="line2d_120">
      <g>
       <use xlink:href="#mbb45d2b824" x="1071.1525" y="406.959199" style="stroke: #000000"/>
      </g>
     </g>
    </g>
    <g id="ytick_12">
     <g id="line2d_121">
      <g>
       <use xlink:href="#m9d251ab0bb" x="66.7525" y="388.364935" style="stroke: #000000"/>
      </g>
     </g>
     <g id="line2d_122">
      <g>
       <use xlink:href="#mbb45d2b824" x="1071.1525" y="388.364935" style="stroke: #000000"/>
      </g>
     </g>
    </g>
    <g id="ytick_13">
     <g id="line2d_123">
      <g>
       <use xlink:href="#m9d251ab0bb" x="66.7525" y="369.77067" style="stroke: #000000"/>
      </g>
     </g>
     <g id="line2d_124">
      <g>
       <use xlink:href="#mbb45d2b824" x="1071.1525" y="369.77067" style="stroke: #000000"/>
      </g>
     </g>
    </g>
    <g id="ytick_14">
     <g id="line2d_125">
      <g>
       <use xlink:href="#m9d251ab0bb" x="66.7525" y="332.582142" style="stroke: #000000"/>
      </g>
     </g>
     <g id="line2d_126">
      <g>
       <use xlink:href="#mbb45d2b824" x="1071.1525" y="332.582142" style="stroke: #000000"/>
      </g>
     </g>
    </g>
    <g id="ytick_15">
     <g id="line2d_127">
      <g>
       <use xlink:href="#m9d251ab0bb" x="66.7525" y="313.987878" style="stroke: #000000"/>
      </g>
     </g>
     <g id="line2d_128">
      <g>
       <use xlink:href="#mbb45d2b824" x="1071.1525" y="313.987878" style="stroke: #000000"/>
      </g>
     </g>
    </g>
    <g id="ytick_16">
     <g id="line2d_129">
      <g>
       <use xlink:href="#m9d251ab0bb" x="66.7525" y="295.393614" style="stroke: #000000"/>
      </g>
     </g>
     <g id="line2d_130">
      <g>
       <use xlink:href="#mbb45d2b824" x="1071.1525" y="295.393614" style="stroke: #000000"/>
      </g>
     </g>
    </g>
    <g id="ytick_17">
     <g id="line2d_131">
      <g>
       <use xlink:href="#m9d251ab0bb" x="66.7525" y="276.79935" style="stroke: #000000"/>
      </g>
     </g>
     <g id="line2d_132">
      <g>
       <use xlink:href="#mbb45d2b824" x="1071.1525" y="276.79935" style="stroke: #000000"/>
      </g>
     </g>
    </g>
    <g id="ytick_18">
     <g id="line2d_133">
      <g>
       <use xlink:href="#m9d251ab0bb" x="66.7525" y="239.610822" style="stroke: #000000"/>
      </g>
     </g>
     <g id="line2d_134">
      <g>
       <use xlink:href="#mbb45d2b824" x="1071.1525" y="239.610822" style="stroke: #000000"/>
      </g>
     </g>
    </g>
    <g id="ytick_19">
     <g id="line2d_135">
      <g>
       <use xlink:href="#m9d251ab0bb" x="66.7525" y="221.016558" style="stroke: #000000"/>
      </g>
     </g>
     <g id="line2d_136">
      <g>
       <use xlink:href="#mbb45d2b824" x="1071.1525" y="221.016558" style="stroke: #000000"/>
      </g>
     </g>
    </g>
    <g id="ytick_20">
     <g id="line2d_137">
      <g>
       <use xlink:href="#m9d251ab0bb" x="66.7525" y="202.422294" style="stroke: #000000"/>
      </g>
     </g>
     <g id="line2d_138">
      <g>
       <use xlink:href="#mbb45d2b824" x="1071.1525" y="202.422294" style="stroke: #000000"/>
      </g>
     </g>
    </g>
    <g id="ytick_21">
     <g id="line2d_139">
      <g>
       <use xlink:href="#m9d251ab0bb" x="66.7525" y="183.82803" style="stroke: #000000"/>
      </g>
     </g>
     <g id="line2d_140">
      <g>
       <use xlink:href="#mbb45d2b824" x="1071.1525" y="183.82803" style="stroke: #000000"/>
      </g>
     </g>
    </g>
    <g id="ytick_22">
     <g id="line2d_141">
      <g>
       <use xlink:href="#m9d251ab0bb" x="66.7525" y="146.639501" style="stroke: #000000"/>
      </g>
     </g>
     <g id="line2d_142">
      <g>
       <use xlink:href="#mbb45d2b824" x="1071.1525" y="146.639501" style="stroke: #000000"/>
      </g>
     </g>
    </g>
    <g id="ytick_23">
     <g id="line2d_143">
      <g>
       <use xlink:href="#m9d251ab0bb" x="66.7525" y="128.045237" style="stroke: #000000"/>
      </g>
     </g>
     <g id="line2d_144">
      <g>
       <use xlink:href="#mbb45d2b824" x="1071.1525" y="128.045237" style="stroke: #000000"/>
      </g>
     </g>
    </g>
    <g id="ytick_24">
     <g id="line2d_145">
      <g>
       <use xlink:href="#m9d251ab0bb" x="66.7525" y="109.450973" style="stroke: #000000"/>
      </g>
     </g>
     <g id="line2d_146">
      <g>
       <use xlink:href="#mbb45d2b824" x="1071.1525" y="109.450973" style="stroke: #000000"/>
      </g>
     </g>
    </g>
    <g id="ytick_25">
     <g id="line2d_147">
      <g>
       <use xlink:href="#m9d251ab0bb" x="66.7525" y="90.856709" style="stroke: #000000"/>
      </g>
     </g>
     <g id="line2d_148">
      <g>
       <use xlink:href="#mbb45d2b824" x="1071.1525" y="90.856709" style="stroke: #000000"/>
      </g>
     </g>
    </g>
    <g id="ytick_26">
     <g id="line2d_149">
      <g>
       <use xlink:href="#m9d251ab0bb" x="66.7525" y="53.668181" style="stroke: #000000"/>
      </g>
     </g>
     <g id="line2d_150">
      <g>
       <use xlink:href="#mbb45d2b824" x="1071.1525" y="53.668181" style="stroke: #000000"/>
      </g>
     </g>
    </g>
    <g id="ytick_27">
     <g id="line2d_151">
      <g>
       <use xlink:href="#m9d251ab0bb" x="66.7525" y="35.073917" style="stroke: #000000"/>
      </g>
     </g>
     <g id="line2d_152">
      <g>
       <use xlink:href="#mbb45d2b824" x="1071.1525" y="35.073917" style="stroke: #000000"/>
      </g>
     </g>
    </g>
    <g id="text_16">
     <!-- Absolute Roof Acceleration (m/s$^2$) -->
     <g transform="translate(17.0725 406.6775) rotate(-90) scale(0.16 -0.16)">
      <defs>
       <path id="DejaVuSans-41" d="M 2188 4044 
L 1331 1722 
L 3047 1722 
L 2188 4044 
z
M 1831 4666 
L 2547 4666 
L 4325 0 
L 3669 0 
L 3244 1197 
L 1141 1197 
L 716 0 
L 50 0 
L 1831 4666 
z
" transform="scale(0.015625)"/>
       <path id="DejaVuSans-62" d="M 3116 1747 
Q 3116 2381 2855 2742 
Q 2594 3103 2138 3103 
Q 1681 3103 1420 2742 
Q 1159 2381 1159 1747 
Q 1159 1113 1420 752 
Q 1681 391 2138 391 
Q 2594 391 2855 752 
Q 3116 1113 3116 1747 
z
M 1159 2969 
Q 1341 3281 1617 3432 
Q 1894 3584 2278 3584 
Q 2916 3584 3314 3078 
Q 3713 2572 3713 1747 
Q 3713 922 3314 415 
Q 2916 -91 2278 -91 
Q 1894 -91 1617 61 
Q 1341 213 1159 525 
L 1159 0 
L 581 0 
L 581 4863 
L 1159 4863 
L 1159 2969 
z
" transform="scale(0.015625)"/>
       <path id="DejaVuSans-6f" d="M 1959 3097 
Q 1497 3097 1228 2736 
Q 959 2375 959 1747 
Q 959 1119 1226 758 
Q 1494 397 1959 397 
Q 2419 397 2687 759 
Q 2956 1122 2956 1747 
Q 2956 2369 2687 2733 
Q 2419 3097 1959 3097 
z
M 1959 3584 
Q 2709 3584 3137 3096 
Q 3566 2609 3566 1747 
Q 3566 888 3137 398 
Q 2709 -91 1959 -91 
Q 1206 -91 779 398 
Q 353 888 353 1747 
Q 353 2609 779 3096 
Q 1206 3584 1959 3584 
z
" transform="scale(0.015625)"/>
       <path id="DejaVuSans-6c" d="M 603 4863 
L 1178 4863 
L 1178 0 
L 603 0 
L 603 4863 
z
" transform="scale(0.015625)"/>
       <path id="DejaVuSans-75" d="M 544 1381 
L 544 3500 
L 1119 3500 
L 1119 1403 
Q 1119 906 1312 657 
Q 1506 409 1894 409 
Q 2359 409 2629 706 
Q 2900 1003 2900 1516 
L 2900 3500 
L 3475 3500 
L 3475 0 
L 2900 0 
L 2900 538 
Q 2691 219 2414 64 
Q 2138 -91 1772 -91 
Q 1169 -91 856 284 
Q 544 659 544 1381 
z
M 1991 3584 
L 1991 3584 
z
" transform="scale(0.015625)"/>
       <path id="DejaVuSans-74" d="M 1172 4494 
L 1172 3500 
L 2356 3500 
L 2356 3053 
L 1172 3053 
L 1172 1153 
Q 1172 725 1289 603 
Q 1406 481 1766 481 
L 2356 481 
L 2356 0 
L 1766 0 
Q 1100 0 847 248 
Q 594 497 594 1153 
L 594 3053 
L 172 3053 
L 172 3500 
L 594 3500 
L 594 4494 
L 1172 4494 
z
" transform="scale(0.015625)"/>
       <path id="DejaVuSans-20" transform="scale(0.015625)"/>
       <path id="DejaVuSans-52" d="M 2841 2188 
Q 3044 2119 3236 1894 
Q 3428 1669 3622 1275 
L 4263 0 
L 3584 0 
L 2988 1197 
Q 2756 1666 2539 1819 
Q 2322 1972 1947 1972 
L 1259 1972 
L 1259 0 
L 628 0 
L 628 4666 
L 2053 4666 
Q 2853 4666 3247 4331 
Q 3641 3997 3641 3322 
Q 3641 2881 3436 2590 
Q 3231 2300 2841 2188 
z
M 1259 4147 
L 1259 2491 
L 2053 2491 
Q 2509 2491 2742 2702 
Q 2975 2913 2975 3322 
Q 2975 3731 2742 3939 
Q 2509 4147 2053 4147 
L 1259 4147 
z
" transform="scale(0.015625)"/>
       <path id="DejaVuSans-66" d="M 2375 4863 
L 2375 4384 
L 1825 4384 
Q 1516 4384 1395 4259 
Q 1275 4134 1275 3809 
L 1275 3500 
L 2222 3500 
L 2222 3053 
L 1275 3053 
L 1275 0 
L 697 0 
L 697 3053 
L 147 3053 
L 147 3500 
L 697 3500 
L 697 3744 
Q 697 4328 969 4595 
Q 1241 4863 1831 4863 
L 2375 4863 
z
" transform="scale(0.015625)"/>
       <path id="DejaVuSans-63" d="M 3122 3366 
L 3122 2828 
Q 2878 2963 2633 3030 
Q 2388 3097 2138 3097 
Q 1578 3097 1268 2742 
Q 959 2388 959 1747 
Q 959 1106 1268 751 
Q 1578 397 2138 397 
Q 2388 397 2633 464 
Q 2878 531 3122 666 
L 3122 134 
Q 2881 22 2623 -34 
Q 2366 -91 2075 -91 
Q 1284 -91 818 406 
Q 353 903 353 1747 
Q 353 2603 823 3093 
Q 1294 3584 2113 3584 
Q 2378 3584 2631 3529 
Q 2884 3475 3122 3366 
z
" transform="scale(0.015625)"/>
       <path id="DejaVuSans-72" d="M 2631 2963 
Q 2534 3019 2420 3045 
Q 2306 3072 2169 3072 
Q 1681 3072 1420 2755 
Q 1159 2438 1159 1844 
L 1159 0 
L 581 0 
L 581 3500 
L 1159 3500 
L 1159 2956 
Q 1341 3275 1631 3429 
Q 1922 3584 2338 3584 
Q 2397 3584 2469 3576 
Q 2541 3569 2628 3553 
L 2631 2963 
z
" transform="scale(0.015625)"/>
       <path id="DejaVuSans-61" d="M 2194 1759 
Q 1497 1759 1228 1600 
Q 959 1441 959 1056 
Q 959 750 1161 570 
Q 1363 391 1709 391 
Q 2188 391 2477 730 
Q 2766 1069 2766 1631 
L 2766 1759 
L 2194 1759 
z
M 3341 1997 
L 3341 0 
L 2766 0 
L 2766 531 
Q 2569 213 2275 61 
Q 1981 -91 1556 -91 
Q 1019 -91 701 211 
Q 384 513 384 1019 
Q 384 1609 779 1909 
Q 1175 2209 1959 2209 
L 2766 2209 
L 2766 2266 
Q 2766 2663 2505 2880 
Q 2244 3097 1772 3097 
Q 1472 3097 1187 3025 
Q 903 2953 641 2809 
L 641 3341 
Q 956 3463 1253 3523 
Q 1550 3584 1831 3584 
Q 2591 3584 2966 3190 
Q 3341 2797 3341 1997 
z
" transform="scale(0.015625)"/>
       <path id="DejaVuSans-6e" d="M 3513 2113 
L 3513 0 
L 2938 0 
L 2938 2094 
Q 2938 2591 2744 2837 
Q 2550 3084 2163 3084 
Q 1697 3084 1428 2787 
Q 1159 2491 1159 1978 
L 1159 0 
L 581 0 
L 581 3500 
L 1159 3500 
L 1159 2956 
Q 1366 3272 1645 3428 
Q 1925 3584 2291 3584 
Q 2894 3584 3203 3211 
Q 3513 2838 3513 2113 
z
" transform="scale(0.015625)"/>
       <path id="DejaVuSans-2f" d="M 1625 4666 
L 2156 4666 
L 531 -594 
L 0 -594 
L 1625 4666 
z
" transform="scale(0.015625)"/>
      </defs>
      <use xlink:href="#DejaVuSans-41" transform="translate(0 0.765625)"/>
      <use xlink:href="#DejaVuSans-62" transform="translate(68.408203 0.765625)"/>
      <use xlink:href="#DejaVuSans-73" transform="translate(131.884766 0.765625)"/>
      <use xlink:href="#DejaVuSans-6f" transform="translate(183.984375 0.765625)"/>
      <use xlink:href="#DejaVuSans-6c" transform="translate(245.166016 0.765625)"/>
      <use xlink:href="#DejaVuSans-75" transform="translate(272.949219 0.765625)"/>
      <use xlink:href="#DejaVuSans-74" transform="translate(336.328125 0.765625)"/>
      <use xlink:href="#DejaVuSans-65" transform="translate(375.537109 0.765625)"/>
      <use xlink:href="#DejaVuSans-20" transform="translate(437.060547 0.765625)"/>
      <use xlink:href="#DejaVuSans-52" transform="translate(468.847656 0.765625)"/>
      <use xlink:href="#DejaVuSans-6f" transform="translate(538.330078 0.765625)"/>
      <use xlink:href="#DejaVuSans-6f" transform="translate(599.511719 0.765625)"/>
      <use xlink:href="#DejaVuSans-66" transform="translate(660.693359 0.765625)"/>
      <use xlink:href="#DejaVuSans-20" transform="translate(695.898438 0.765625)"/>
      <use xlink:href="#DejaVuSans-41" transform="translate(727.685547 0.765625)"/>
      <use xlink:href="#DejaVuSans-63" transform="translate(796.09375 0.765625)"/>
      <use xlink:href="#DejaVuSans-63" transform="translate(851.074219 0.765625)"/>
      <use xlink:href="#DejaVuSans-65" transform="translate(906.054688 0.765625)"/>
      <use xlink:href="#DejaVuSans-6c" transform="translate(967.578125 0.765625)"/>
      <use xlink:href="#DejaVuSans-65" transform="translate(995.361328 0.765625)"/>
      <use xlink:href="#DejaVuSans-72" transform="translate(1056.884766 0.765625)"/>
      <use xlink:href="#DejaVuSans-61" transform="translate(1097.998047 0.765625)"/>
      <use xlink:href="#DejaVuSans-74" transform="translate(1159.277344 0.765625)"/>
      <use xlink:href="#DejaVuSans-69" transform="translate(1198.486328 0.765625)"/>
      <use xlink:href="#DejaVuSans-6f" transform="translate(1226.269531 0.765625)"/>
      <use xlink:href="#DejaVuSans-6e" transform="translate(1287.451172 0.765625)"/>
      <use xlink:href="#DejaVuSans-20" transform="translate(1350.830078 0.765625)"/>
      <use xlink:href="#DejaVuSans-28" transform="translate(1382.617188 0.765625)"/>
      <use xlink:href="#DejaVuSans-6d" transform="translate(1421.630859 0.765625)"/>
      <use xlink:href="#DejaVuSans-2f" transform="translate(1519.042969 0.765625)"/>
      <use xlink:href="#DejaVuSans-73" transform="translate(1552.734375 0.765625)"/>
      <use xlink:href="#DejaVuSans-32" transform="translate(1605.791016 39.046875) scale(0.7)"/>
      <use xlink:href="#DejaVuSans-29" transform="translate(1653.061523 0.765625)"/>
     </g>
    </g>
   </g>
   <g id="line2d_153">
    <path d="M 112.407045 258.205086 
L 112.875537 258.041966 
L 113.344029 257.689219 
L 113.812521 257.506268 
L 114.749505 257.858196 
L 115.217997 257.770358 
L 116.154981 257.357921 
L 116.623473 257.360411 
L 117.091965 257.659852 
L 117.560457 258.340264 
L 118.497441 260.319435 
L 118.965933 260.65504 
L 119.434425 259.650592 
L 120.371409 255.180972 
L 120.839901 256.167418 
L 121.308393 258.96032 
L 121.776885 259.690623 
L 122.713869 256.732201 
L 123.182361 257.085521 
L 123.650853 259.599311 
L 124.119345 263.424748 
L 124.587837 265.375045 
L 125.056329 261.758906 
L 125.524821 254.709424 
L 125.993313 249.928736 
L 126.461805 248.794284 
L 126.930297 251.715438 
L 127.867281 267.459496 
L 128.335773 268.093409 
L 129.272757 260.694015 
L 129.741249 258.372231 
L 130.209741 255.39409 
L 130.678233 251.274009 
L 131.146725 248.45138 
L 131.615217 250.714525 
L 132.552201 268.031461 
L 133.020693 270.427612 
L 133.489185 265.015183 
L 133.957677 257.709409 
L 134.426169 254.372812 
L 135.363153 257.386769 
L 135.831645 253.096665 
L 136.300137 246.679228 
L 136.768629 248.611264 
L 137.705613 268.454103 
L 138.174105 268.149632 
L 138.642597 263.091702 
L 139.111089 261.354105 
L 139.579581 271.016725 
L 140.048073 283.193585 
L 140.516565 275.692689 
L 141.453549 228.949408 
L 141.922041 227.191261 
L 142.390533 246.259087 
L 142.859025 277.624666 
L 143.327517 298.284676 
L 143.796009 288.41713 
L 144.264501 262.060876 
L 144.732993 242.155891 
L 145.201485 230.282102 
L 145.669977 221.427523 
L 146.138469 221.816196 
L 146.606961 241.827357 
L 147.075453 273.88945 
L 147.543945 295.11787 
L 148.012437 293.97314 
L 148.480929 277.622175 
L 148.949421 253.916845 
L 149.417913 236.890531 
L 149.886405 239.800275 
L 150.354897 257.050855 
L 150.82339 267.932772 
L 151.291882 257.533048 
L 151.760374 235.837507 
L 152.228866 223.989401 
L 152.697358 233.193927 
L 153.634342 273.95177 
L 154.102834 284.022751 
L 154.571326 283.459479 
L 155.039818 274.112579 
L 155.976802 248.177603 
L 156.913786 215.497428 
L 157.382278 211.419662 
L 157.85077 229.698809 
L 158.787754 295.70416 
L 159.256246 309.186841 
L 159.724738 295.572395 
L 161.130214 205.641738 
L 161.598706 209.782586 
L 163.004182 308.525078 
L 163.472674 306.388178 
L 163.941166 270.047493 
L 164.409658 224.336899 
L 164.87815 211.655608 
L 165.346642 234.823904 
L 165.815134 263.578839 
L 166.283626 278.31484 
L 166.752118 277.583745 
L 167.689102 256.964676 
L 168.157594 254.618555 
L 168.626086 258.589982 
L 169.094578 259.921673 
L 169.56307 251.63473 
L 170.031562 247.625762 
L 170.968546 264.577481 
L 171.437038 265.478659 
L 171.90553 255.191929 
L 172.374022 240.240188 
L 172.842514 235.031983 
L 173.311006 249.076893 
L 173.779498 268.761502 
L 174.24799 281.175634 
L 174.716482 285.678061 
L 175.184974 275.272751 
L 175.653466 254.429514 
L 176.121958 241.194187 
L 176.59045 242.264388 
L 177.058942 252.6992 
L 177.527434 269.874825 
L 177.995926 279.787419 
L 178.464418 265.735626 
L 178.93291 243.133336 
L 179.401402 234.882975 
L 179.869894 242.01015 
L 180.338386 254.577456 
L 181.27537 270.475051 
L 182.212354 302.389941 
L 182.680846 290.722036 
L 183.61783 223.58278 
L 184.086322 212.010827 
L 184.554814 222.502782 
L 185.491798 264.529931 
L 186.428782 298.487367 
L 186.897274 302.490101 
L 187.365766 288.528165 
L 187.834258 268.59658 
L 188.30275 254.014009 
L 188.771242 250.692349 
L 189.239734 256.278661 
L 189.708226 263.403209 
L 190.176718 264.93086 
L 190.64521 253.346248 
L 191.113702 233.934081 
L 191.582194 223.318012 
L 192.050686 233.622322 
L 192.519178 259.668381 
L 192.98767 277.915764 
L 193.456162 276.498031 
L 194.393146 257.064933 
L 194.861638 254.654067 
L 195.798622 260.045754 
L 196.267114 260.930163 
L 196.735606 260.998418 
L 197.204098 261.546467 
L 197.67259 263.248331 
L 198.141082 265.469602 
L 198.609574 266.441847 
L 199.078066 264.72326 
L 199.546558 258.153441 
L 200.01505 253.983726 
L 200.483542 265.697641 
L 200.952034 287.781999 
L 201.420526 303.18457 
L 201.889018 299.759753 
L 202.35751 271.742066 
L 202.826002 232.677337 
L 203.294494 212.348663 
L 203.762986 228.861983 
L 204.231478 259.544547 
L 204.69997 274.787289 
L 205.168462 277.693236 
L 205.636954 279.491203 
L 206.105446 280.440802 
L 206.573938 280.123487 
L 207.04243 273.602038 
L 207.510922 246.708143 
L 207.979414 205.007868 
L 208.447906 188.950218 
L 208.916398 232.77922 
L 209.38489 301.312585 
L 209.853382 344.563761 
L 210.321874 335.442508 
L 211.258858 219.431583 
L 211.72735 198.721736 
L 212.195842 213.18334 
L 213.132826 273.650035 
L 213.601318 283.299407 
L 214.06981 270.728154 
L 214.538302 264.118728 
L 215.475286 289.005021 
L 215.943778 277.526005 
L 216.41227 254.960207 
L 216.880762 238.98269 
L 217.349254 232.637938 
L 217.817746 234.143302 
L 218.75473 247.422737 
L 219.223222 250.201033 
L 219.691714 249.391518 
L 220.160206 248.917188 
L 220.628698 253.409404 
L 221.09719 267.167371 
L 221.565682 285.247202 
L 222.034174 297.624879 
L 222.502666 297.399875 
L 222.971158 282.127848 
L 223.43965 261.134506 
L 223.908142 249.616879 
L 224.376634 252.005893 
L 224.845126 263.717663 
L 225.313618 279.319936 
L 225.78211 282.180389 
L 226.250602 265.096815 
L 226.719094 242.610761 
L 227.187586 232.215318 
L 227.656078 240.037496 
L 228.593062 278.623978 
L 229.061554 278.599787 
L 230.46703 254.225735 
L 230.935522 248.105446 
L 231.404014 246.966155 
L 231.872506 246.225778 
L 232.340998 248.841038 
L 232.80949 262.001328 
L 233.277982 280.661409 
L 233.746474 288.253981 
L 234.214966 278.325606 
L 235.15195 229.374472 
L 235.620442 239.585362 
L 236.088934 270.623854 
L 236.557426 278.682591 
L 237.49441 249.637551 
L 237.962902 250.365491 
L 238.431394 257.360074 
L 238.899886 260.515613 
L 239.368378 253.220739 
L 239.83687 243.209443 
L 240.305362 240.817737 
L 241.242346 248.926751 
L 241.710838 251.72699 
L 242.17933 258.642028 
L 242.647822 269.135146 
L 243.116314 276.054729 
L 243.584806 276.404478 
L 244.053298 271.432209 
L 245.927266 232.610219 
L 246.395758 232.602543 
L 246.86425 243.774102 
L 247.332742 265.485338 
L 247.801234 282.000731 
L 248.269726 279.226764 
L 249.20671 231.844467 
L 249.675202 222.043782 
L 250.143694 234.161221 
L 250.612186 253.10775 
L 251.080678 263.147085 
L 252.017662 277.12393 
L 252.486154 273.850586 
L 253.423138 233.745079 
L 253.89163 229.447269 
L 254.360122 237.071868 
L 254.828614 248.788839 
L 255.765598 282.668406 
L 256.23409 281.858402 
L 256.702582 270.474125 
L 257.639566 238.779772 
L 258.108058 230.535709 
L 258.57655 234.455212 
L 259.513534 269.679701 
L 259.982026 274.448608 
L 260.450518 254.486302 
L 260.91901 227.483409 
L 261.387502 220.936689 
L 262.324486 265.98271 
L 262.792978 267.692526 
L 263.26147 248.813692 
L 263.729962 235.724077 
L 264.198454 249.736229 
L 264.666946 268.628484 
L 265.135438 264.81059 
L 265.60393 249.61783 
L 266.072422 250.878572 
L 267.009406 306.133454 
L 267.477898 297.906051 
L 268.414882 193.960968 
L 268.883374 170.5949 
L 269.351866 195.997537 
L 269.820358 249.862707 
L 270.28885 283.073238 
L 270.757342 279.848796 
L 271.225834 267.964425 
L 271.694326 266.666693 
L 272.63131 284.191526 
L 273.099802 268.019712 
L 274.036786 198.563533 
L 274.505278 192.626921 
L 274.97377 217.565365 
L 275.442262 255.39248 
L 275.910754 282.980798 
L 276.379246 292.371827 
L 276.847738 288.711752 
L 277.31623 275.894479 
L 278.253214 225.638602 
L 278.721706 216.951439 
L 279.190198 220.933416 
L 280.127182 234.345995 
L 281.064166 272.496726 
L 281.532658 280.653728 
L 282.00115 273.260881 
L 282.938134 238.914465 
L 283.406626 235.225331 
L 284.812102 251.926825 
L 285.280594 251.72329 
L 286.217578 232.486002 
L 286.68607 230.858613 
L 287.154562 238.472575 
L 287.623054 248.308758 
L 288.091546 254.549109 
L 288.560038 256.631052 
L 289.02853 260.630038 
L 289.497022 271.861442 
L 289.965514 271.705805 
L 291.37099 223.555423 
L 291.839482 221.987731 
L 292.776466 266.725643 
L 293.244958 277.366994 
L 294.181942 275.116424 
L 294.650434 275.91703 
L 295.118926 270.263407 
L 296.05591 225.69278 
L 296.524402 219.15087 
L 296.992894 229.24047 
L 297.929878 258.297645 
L 298.39837 258.215672 
L 298.866862 247.436753 
L 299.335354 249.522404 
L 299.803846 265.948689 
L 300.272338 274.404746 
L 300.74083 256.553404 
L 301.209322 224.199731 
L 301.677814 201.954259 
L 302.146306 212.216196 
L 303.08329 294.010681 
L 303.551782 304.690473 
L 304.020274 282.161382 
L 304.488766 251.647372 
L 304.957258 239.451384 
L 305.894242 253.090523 
L 306.362734 242.271264 
L 306.831226 210.432777 
L 307.299718 192.794292 
L 307.76821 228.370778 
L 308.236702 293.572476 
L 308.705194 333.349559 
L 309.173686 319.565446 
L 309.642178 276.005161 
L 310.11067 247.787913 
L 310.579162 249.213837 
L 311.516146 288.529045 
L 311.984638 283.929929 
L 312.45313 266.888792 
L 312.921622 265.412796 
L 313.858606 303.956558 
L 314.327098 292.778249 
L 315.264082 233.217712 
L 315.732574 231.105764 
L 316.669558 291.910712 
L 317.13805 298.613702 
L 317.606542 288.717998 
L 318.075034 287.254997 
L 318.543526 300.859105 
L 319.012018 309.256985 
L 319.48051 295.190953 
L 320.417494 220.851728 
L 320.885986 205.666105 
L 321.354478 225.627204 
L 321.82297 263.260432 
L 322.291462 287.449378 
L 322.759954 285.873229 
L 323.228446 271.9707 
L 323.696938 261.6507 
L 324.16543 261.37967 
L 324.633922 266.781765 
L 325.102414 265.842267 
L 326.039398 244.942678 
L 326.50789 253.267253 
L 326.976382 282.626036 
L 327.444874 304.671647 
L 327.913366 296.436559 
L 328.381858 272.933442 
L 328.85035 263.910622 
L 329.787334 292.990228 
L 330.255826 291.943151 
L 330.724318 283.252314 
L 331.19281 268.343765 
L 331.661302 257.14999 
L 332.129794 258.544894 
L 332.598286 260.74141 
L 333.066778 258.233816 
L 333.53527 257.817618 
L 334.003762 264.081641 
L 335.409238 299.819187 
L 335.87773 289.231763 
L 336.346222 260.362151 
L 336.814714 239.626189 
L 337.283206 238.764925 
L 338.22019 257.36475 
L 338.688682 260.308433 
L 339.157174 260.70916 
L 339.625666 271.395999 
L 340.094158 291.086764 
L 340.56265 295.654657 
L 341.499634 249.515033 
L 341.968126 241.68067 
L 342.436618 243.861466 
L 342.90511 244.49298 
L 343.373602 249.171495 
L 343.842094 267.411588 
L 344.310586 299.968134 
L 344.779078 316.747402 
L 345.24757 290.82381 
L 345.716062 247.967505 
L 346.184554 225.017598 
L 346.653046 229.690721 
L 347.59003 293.132267 
L 348.058522 306.784792 
L 348.527014 296.244767 
L 349.463998 260.478326 
L 349.93249 246.685419 
L 350.400982 239.372232 
L 350.869474 235.868645 
L 351.337966 229.873736 
L 351.806458 231.708968 
L 352.743442 257.562237 
L 353.211934 263.858986 
L 353.680426 266.990341 
L 354.148918 266.919303 
L 354.61741 265.017754 
L 355.085902 264.707992 
L 355.554394 266.770672 
L 356.022886 264.977276 
L 356.491378 247.99065 
L 356.95987 224.101461 
L 357.428362 216.822287 
L 357.896854 235.149711 
L 358.365346 260.491437 
L 358.833838 264.323935 
L 359.770822 223.971845 
L 360.239314 222.32733 
L 361.176298 277.633763 
L 361.64479 281.620973 
L 362.113282 265.094831 
L 362.581774 253.246734 
L 363.050266 258.744409 
L 363.518758 276.641751 
L 363.98725 286.676613 
L 364.455742 275.550888 
L 364.924234 260.389395 
L 365.392726 258.487907 
L 365.861218 261.674526 
L 366.32971 253.710851 
L 366.798202 242.226758 
L 367.266694 243.971517 
L 368.203678 277.663354 
L 368.67217 278.546161 
L 370.077646 225.344138 
L 370.546138 237.915644 
L 371.01463 256.481897 
L 371.483122 254.096453 
L 372.420106 223.067586 
L 372.888598 219.006814 
L 373.35709 227.86425 
L 373.825582 257.487948 
L 374.294074 297.171881 
L 374.762566 312.490302 
L 375.231058 290.328187 
L 375.69955 259.207107 
L 376.168042 245.870363 
L 376.636534 245.927212 
L 377.105026 242.675936 
L 377.573518 240.357896 
L 378.978994 274.279209 
L 379.447486 274.268957 
L 379.915978 258.731784 
L 380.38447 228.383022 
L 380.852962 208.330104 
L 381.321454 229.794651 
L 381.789946 272.503464 
L 382.258438 290.142174 
L 382.72693 278.160711 
L 383.195422 261.664886 
L 383.663914 254.695258 
L 384.132406 257.226307 
L 384.600898 256.418926 
L 385.537882 201.80929 
L 386.006374 212.335491 
L 386.943358 313.689473 
L 387.41185 336.657067 
L 387.880342 317.03056 
L 388.817326 217.858776 
L 389.285818 200.51704 
L 389.75431 213.123894 
L 390.222802 234.20564 
L 390.691294 246.927811 
L 391.159786 247.094468 
L 391.628278 245.60093 
L 392.565262 278.512763 
L 393.033754 279.029471 
L 393.502246 260.143082 
L 393.970738 236.389799 
L 394.43923 236.124795 
L 395.376214 273.673695 
L 395.844706 274.779994 
L 396.78169 240.185092 
L 397.250182 237.750321 
L 397.718674 245.825372 
L 398.187166 258.136794 
L 398.655658 280.915205 
L 399.12415 293.761518 
L 399.592642 277.075878 
L 400.061134 248.028129 
L 400.529626 231.743178 
L 400.998118 232.517077 
L 401.46661 242.350198 
L 402.403594 270.110495 
L 402.872086 276.599175 
L 403.340578 269.586006 
L 404.277562 233.064603 
L 404.746054 235.25569 
L 405.683038 284.480253 
L 406.15153 290.472543 
L 407.557006 251.602413 
L 408.49399 223.16094 
L 408.962482 229.285869 
L 410.367958 304.932968 
L 410.83645 317.625613 
L 411.304942 300.665444 
L 412.241926 214.80896 
L 412.710418 191.224583 
L 413.17891 190.325123 
L 413.647402 205.498415 
L 415.052878 301.661706 
L 415.52137 311.668196 
L 415.989862 307.053774 
L 416.458354 280.838119 
L 417.395338 198.79202 
L 417.86383 179.90532 
L 418.332322 181.18603 
L 418.800814 217.168455 
L 419.737798 343.146223 
L 420.20629 361.104348 
L 420.674782 338.830463 
L 421.611766 245.625371 
L 422.080258 218.383936 
L 422.54875 203.676396 
L 423.017242 203.508646 
L 423.485734 236.210648 
L 423.954226 287.107111 
L 424.422718 321.491998 
L 424.89121 324.412075 
L 425.359702 298.39 
L 425.828194 263.293693 
L 426.296686 242.745833 
L 426.765178 240.391426 
L 427.23367 243.564255 
L 427.702162 241.588338 
L 428.170654 238.153534 
L 428.639146 249.871835 
L 429.107638 277.053341 
L 429.57613 294.390555 
L 430.044622 288.119207 
L 430.513114 270.744049 
L 430.981606 260.387211 
L 431.450098 260.389356 
L 431.91859 260.957652 
L 432.855574 254.607775 
L 433.324066 255.489847 
L 433.792558 259.351632 
L 434.26105 261.724093 
L 434.729542 265.121272 
L 435.198034 275.676166 
L 435.666526 276.897664 
L 436.60351 238.974612 
L 437.072002 229.416671 
L 437.540494 231.989494 
L 438.008986 240.959914 
L 438.477478 257.484708 
L 439.414462 312.537058 
L 439.882954 313.791416 
L 440.819938 235.584138 
L 441.28843 219.016149 
L 441.756922 229.722794 
L 442.693906 266.410552 
L 443.63089 294.706086 
L 444.099382 289.105633 
L 444.567874 266.690237 
L 445.036366 250.626285 
L 445.504858 251.667549 
L 445.97335 260.703861 
L 446.441842 267.037106 
L 446.910334 268.089274 
L 448.31581 261.538591 
L 448.784302 249.837944 
L 449.721286 208.201563 
L 450.189778 219.499036 
L 451.126762 287.807965 
L 451.595254 297.196734 
L 452.063746 290.185799 
L 452.532238 279.747823 
L 453.469222 269.575843 
L 453.937714 244.018784 
L 454.406206 205.780791 
L 454.874698 186.409396 
L 455.34319 193.782566 
L 456.280174 230.332245 
L 457.68565 323.631211 
L 458.154142 325.929257 
L 458.622634 300.203987 
L 459.559618 219.910623 
L 460.02811 195.959762 
L 460.496602 190.991419 
L 460.965094 210.897146 
L 461.902078 270.308953 
L 462.37057 285.298152 
L 462.839062 289.47003 
L 463.307554 279.2015 
L 464.244538 226.318253 
L 464.71303 211.034738 
L 465.181522 212.021111 
L 465.650014 227.34744 
L 466.586998 282.027641 
L 467.992474 333.656738 
L 468.460966 317.53536 
L 469.39795 219.354744 
L 469.866442 199.195365 
L 470.334934 209.955177 
L 470.803426 232.049093 
L 471.271918 245.324767 
L 471.74041 251.802234 
L 472.208902 266.065213 
L 472.677394 285.817478 
L 473.145886 291.178243 
L 473.614378 270.891609 
L 474.08287 242.50564 
L 474.551362 229.842635 
L 475.019854 233.547834 
L 475.488346 241.483474 
L 475.956838 246.193651 
L 476.42533 248.754613 
L 476.893822 254.985819 
L 477.362314 263.247367 
L 478.76779 279.440959 
L 479.236282 281.918906 
L 479.704774 276.752175 
L 480.173266 268.667562 
L 480.641758 265.517036 
L 481.11025 263.704983 
L 481.578742 245.81891 
L 482.047234 214.612689 
L 482.515726 192.818822 
L 482.984218 193.048001 
L 483.921202 225.6112 
L 484.389694 256.816013 
L 485.326678 361.588371 
L 485.79517 372.721053 
L 486.263662 342.321977 
L 486.732154 265.414929 
L 487.200646 164.356303 
L 487.669138 104.726135 
L 488.13763 121.339661 
L 489.074614 272.451685 
L 489.543106 343.68617 
L 490.011598 376.065023 
L 490.48009 362.593043 
L 490.948582 317.368123 
L 491.885566 172.360042 
L 492.354058 147.713395 
L 492.82255 168.49232 
L 493.291042 226.640179 
L 494.228026 402.107049 
L 494.696518 412.273578 
L 495.16501 365.839746 
L 496.570486 128.362692 
L 497.038978 133.051723 
L 497.975962 209.39767 
L 498.912946 297.572465 
L 499.381438 328.579015 
L 499.84993 335.037992 
L 501.255406 289.772242 
L 501.723898 261.63156 
L 502.19239 220.899819 
L 502.660882 199.088657 
L 503.129374 207.539008 
L 503.597866 227.837507 
L 504.066358 240.608874 
L 504.53485 240.933924 
L 505.003342 239.880143 
L 505.940326 269.566346 
L 506.408818 269.498551 
L 507.345802 226.962308 
L 507.814294 217.682203 
L 508.282786 224.03058 
L 508.751278 236.275189 
L 510.156754 290.821901 
L 510.625246 297.103348 
L 511.093738 299.566735 
L 511.56223 301.214349 
L 512.030722 293.930933 
L 512.499214 275.96263 
L 513.90469 203.249388 
L 514.373182 210.758716 
L 515.310166 288.454809 
L 515.778658 310.209125 
L 516.24715 322.235101 
L 516.715642 325.197942 
L 517.184134 311.10475 
L 518.121118 245.113331 
L 518.58961 201.170897 
L 519.058102 171.349245 
L 519.526594 180.61553 
L 520.93207 278.016746 
L 521.400562 289.890538 
L 521.869054 285.769754 
L 522.337546 279.450538 
L 522.806038 270.659719 
L 523.27453 252.40376 
L 524.211514 233.392548 
L 524.680006 222.690828 
L 525.61699 245.164625 
L 526.085482 235.956483 
L 526.553974 229.093288 
L 527.022466 246.806161 
L 527.95945 323.09109 
L 528.427942 322.154317 
L 529.364926 262.533362 
L 529.833418 257.230919 
L 530.30191 268.162374 
L 530.770402 264.578865 
L 531.707386 164.551899 
L 532.175878 171.894659 
L 533.581354 380.449959 
L 534.049846 391.079576 
L 534.518338 354.804358 
L 535.923814 145.025055 
L 536.392306 138.043113 
L 536.860798 163.297514 
L 537.32929 203.703129 
L 538.266274 328.487535 
L 538.734766 339.388989 
L 539.203258 305.8703 
L 539.67175 254.708732 
L 540.140242 218.080413 
L 540.608734 226.691735 
L 541.545718 304.481685 
L 542.01421 317.884162 
L 542.482702 325.362696 
L 542.951194 312.755621 
L 543.888178 226.501941 
L 544.35667 212.201539 
L 544.825162 228.188464 
L 545.293654 249.597747 
L 546.230638 281.419657 
L 546.69913 286.478392 
L 547.167622 256.332955 
L 547.636114 216.0719 
L 548.104606 214.141702 
L 549.04159 302.340812 
L 549.510082 310.280807 
L 549.978574 269.998766 
L 550.447066 217.522045 
L 550.915558 201.022989 
L 551.38405 226.573283 
L 551.852542 269.819118 
L 552.321034 300.026436 
L 552.789526 285.054201 
L 553.258018 243.129688 
L 553.72651 217.116143 
L 554.195002 214.082319 
L 554.663494 224.488709 
L 555.131986 249.754552 
L 556.06897 329.654613 
L 556.537462 342.492253 
L 557.005954 328.673792 
L 558.41143 224.929633 
L 558.879922 230.82668 
L 559.348414 249.212707 
L 559.816906 262.076009 
L 560.285398 266.534399 
L 560.75389 266.080144 
L 561.690874 261.526173 
L 562.159366 261.051465 
L 562.627858 258.867714 
L 563.09635 246.255653 
L 563.564842 225.326623 
L 564.033334 209.509928 
L 564.501826 205.009834 
L 564.970318 208.544982 
L 565.43881 223.529802 
L 565.907302 259.237069 
L 566.844286 367.752289 
L 567.312778 377.572611 
L 567.78127 329.741207 
L 568.718254 197.356524 
L 569.186746 177.685494 
L 569.655238 192.968592 
L 570.12373 220.995359 
L 570.592222 238.625702 
L 571.060714 242.397286 
L 571.529206 256.097469 
L 571.997698 287.068337 
L 572.46619 298.431875 
L 572.934682 266.364188 
L 573.403174 209.431193 
L 573.871666 173.60934 
L 574.340158 183.299342 
L 574.80865 239.804911 
L 575.277142 325.068212 
L 575.745634 388.06717 
L 576.214126 399.25933 
L 576.682618 375.139359 
L 577.15111 336.320405 
L 578.088094 225.718088 
L 579.025078 119.463589 
L 579.49357 100.914282 
L 579.962062 131.085172 
L 581.367538 311.320921 
L 581.83603 333.475034 
L 582.304522 340.987479 
L 582.773014 336.855846 
L 583.241506 306.01923 
L 584.17849 192.742534 
L 584.646982 173.798571 
L 585.115474 194.676886 
L 586.052458 294.894656 
L 586.52095 314.31621 
L 586.989442 304.71044 
L 587.926426 248.207171 
L 588.394918 231.915017 
L 588.86341 235.644808 
L 590.268886 279.894911 
L 590.737378 261.654807 
L 591.20587 226.12342 
L 591.674362 202.645849 
L 592.142854 199.838547 
L 592.611346 210.423661 
L 593.079838 229.288115 
L 594.485314 299.285873 
L 594.953806 305.906015 
L 595.422298 279.847555 
L 595.89079 235.215504 
L 596.359282 205.865329 
L 596.827774 199.607712 
L 597.296266 199.740256 
L 597.764758 190.60741 
L 598.23325 190.049645 
L 598.701742 244.343725 
L 599.170234 334.824069 
L 599.638726 381.610528 
L 600.107218 357.070199 
L 601.044202 231.619794 
L 601.512694 203.280639 
L 601.981186 208.819342 
L 602.449678 229.598726 
L 602.91817 257.312657 
L 603.386662 292.37163 
L 603.855154 315.070625 
L 604.792138 317.278043 
L 605.26063 311.715432 
L 606.197614 266.501435 
L 606.666106 253.98036 
L 607.60309 198.059286 
L 608.071582 199.810845 
L 609.477058 292.622379 
L 609.94555 301.999333 
L 611.351026 259.764218 
L 611.819518 245.264613 
L 612.28801 244.291565 
L 612.756502 251.486006 
L 613.224994 253.158809 
L 613.693486 247.219391 
L 614.161978 250.013297 
L 615.098962 308.406203 
L 615.567454 306.933742 
L 616.504438 256.993479 
L 616.97293 261.214267 
L 617.441422 275.488213 
L 617.909914 274.390629 
L 619.31539 224.108048 
L 619.783882 222.64214 
L 620.252374 230.065196 
L 620.720866 240.670455 
L 621.189358 247.132846 
L 621.65785 239.219003 
L 622.126342 223.834625 
L 622.594834 220.10818 
L 623.063326 239.477859 
L 624.00031 309.761143 
L 624.468802 324.078045 
L 624.937294 324.94378 
L 625.405786 317.460654 
L 625.874278 284.043037 
L 626.811262 190.215047 
L 627.279754 176.719092 
L 627.748246 195.344848 
L 628.68523 274.163174 
L 629.153722 314.968201 
L 629.622214 334.51526 
L 630.090706 323.421302 
L 631.02769 283.857455 
L 631.964674 242.834869 
L 632.433166 245.433611 
L 633.37015 299.20687 
L 633.838642 308.718445 
L 634.307134 281.743376 
L 634.775626 238.673966 
L 635.244118 214.989033 
L 635.71261 216.870899 
L 636.181102 226.412336 
L 636.649594 232.075842 
L 637.118086 235.935776 
L 637.586578 243.377177 
L 638.05507 253.394464 
L 638.523562 268.392971 
L 638.992054 291.126374 
L 639.460546 294.852104 
L 639.929038 262.486939 
L 640.39753 221.172291 
L 640.866022 201.33977 
L 641.334514 205.906745 
L 641.803006 224.167625 
L 642.73999 270.033728 
L 643.208482 284.958912 
L 643.676974 288.660271 
L 644.145466 282.694299 
L 644.613958 273.902275 
L 645.08245 261.710653 
L 646.487926 199.066255 
L 646.956418 199.459353 
L 647.42491 222.694824 
L 648.361894 293.351977 
L 648.830386 314.693624 
L 649.298878 316.891296 
L 650.704354 281.052666 
L 651.641338 252.506302 
L 652.10983 244.6754 
L 652.578322 224.224306 
L 653.046814 190.677995 
L 653.515306 171.976848 
L 653.983798 186.24075 
L 654.45229 226.891093 
L 654.920782 277.220273 
L 655.389274 309.824834 
L 655.857766 304.678873 
L 656.326258 277.064135 
L 656.79475 257.492869 
L 657.263242 255.901308 
L 658.200226 268.870323 
L 658.668718 270.136664 
L 659.13721 267.603817 
L 659.605702 255.765571 
L 660.074194 235.467933 
L 660.542686 223.306261 
L 661.011178 230.490741 
L 661.47967 262.269618 
L 661.948162 312.215471 
L 662.416654 337.00108 
L 662.885146 303.195783 
L 663.353638 242.834453 
L 663.82213 209.906108 
L 664.290622 214.668881 
L 665.227606 258.564934 
L 666.16459 307.562303 
L 666.633082 318.287494 
L 667.101574 309.703457 
L 667.570066 263.898484 
L 668.038558 191.482291 
L 668.50705 140.91204 
L 668.975542 141.838923 
L 669.444034 184.441696 
L 670.381018 313.047171 
L 670.84951 352.275762 
L 671.318002 349.630643 
L 671.786494 315.348375 
L 672.254986 271.729573 
L 672.723478 242.316003 
L 673.19197 239.613391 
L 674.597446 283.989211 
L 675.065938 288.866279 
L 675.53443 279.291734 
L 676.002922 247.389195 
L 676.471414 199.521386 
L 676.939906 164.50313 
L 677.408398 161.574848 
L 677.87689 184.062725 
L 678.813874 259.188701 
L 679.282366 281.364371 
L 679.750858 265.918648 
L 680.21935 234.828172 
L 680.687842 227.981751 
L 681.156334 249.762393 
L 682.093318 307.676983 
L 682.56181 327.845673 
L 683.030302 329.0041 
L 683.498794 297.926183 
L 683.967286 257.890508 
L 684.435778 234.89027 
L 684.90427 228.833821 
L 685.372762 239.53296 
L 686.309746 313.127933 
L 686.778238 318.651565 
L 687.24673 287.690115 
L 687.715222 241.116229 
L 688.183714 208.250478 
L 688.652206 216.811235 
L 689.58919 299.473451 
L 690.057682 316.413467 
L 690.526174 307.237141 
L 692.400142 209.189676 
L 692.868634 208.079431 
L 693.337126 215.911947 
L 693.805618 232.807689 
L 694.27411 274.60429 
L 694.742602 333.011232 
L 695.211094 364.112508 
L 695.679586 331.136168 
L 696.61657 195.768357 
L 697.085062 184.740039 
L 697.553554 218.777939 
L 698.022046 267.591381 
L 698.490538 294.731109 
L 698.95903 288.902163 
L 699.427522 268.254018 
L 699.896014 254.614315 
L 700.364506 255.203424 
L 701.30149 279.27023 
L 701.769982 281.944965 
L 702.238474 277.419189 
L 702.706966 278.29396 
L 703.175458 296.067501 
L 703.64395 298.642691 
L 704.112442 261.510606 
L 704.580934 212.907931 
L 705.049426 191.429328 
L 705.517918 202.001022 
L 705.98641 217.822083 
L 706.454902 226.356788 
L 706.923394 243.313727 
L 707.391886 280.446373 
L 707.860378 331.634761 
L 708.32887 368.384703 
L 708.797362 361.571861 
L 709.265854 297.303658 
L 709.734346 202.583414 
L 710.202838 134.654854 
L 710.67133 131.956723 
L 711.608314 249.236095 
L 712.076806 274.296461 
L 712.545298 270.968282 
L 713.01379 264.115562 
L 713.482282 260.774082 
L 713.950774 259.887544 
L 714.419266 268.450863 
L 715.35625 306.755784 
L 715.824742 313.718155 
L 716.293234 311.446826 
L 716.761726 297.880004 
L 717.69871 230.463494 
L 718.167202 233.69057 
L 719.104186 305.205051 
L 719.572678 313.497618 
L 720.04117 270.773476 
L 720.509662 201.382607 
L 720.978154 164.120888 
L 721.915138 208.783509 
L 722.38363 209.175006 
L 722.852122 220.923942 
L 724.257598 346.692958 
L 724.72609 342.122524 
L 725.194582 290.754464 
L 725.663074 219.792482 
L 726.131566 175.01097 
L 726.600058 175.98559 
L 727.537042 259.827674 
L 728.005534 267.326551 
L 728.474026 245.185448 
L 728.942518 228.427659 
L 729.41101 241.211155 
L 730.347994 312.378988 
L 730.816486 323.813337 
L 731.284978 316.590749 
L 731.75347 296.760185 
L 732.221962 260.028795 
L 733.158946 173.267059 
L 733.627438 156.010608 
L 734.09593 162.834201 
L 734.564422 189.950557 
L 735.969898 356.997054 
L 736.43839 344.486076 
L 737.843866 199.58101 
L 738.312358 185.497081 
L 738.78085 188.239304 
L 739.249342 211.571959 
L 740.186326 285.195798 
L 740.654818 304.887036 
L 741.12331 318.556774 
L 741.591802 338.052746 
L 742.060294 346.163501 
L 742.528786 317.635285 
L 743.46577 203.06841 
L 743.934262 165.981857 
L 744.402754 153.499557 
L 744.871246 176.759258 
L 745.339738 246.29358 
L 745.80823 298.825493 
L 746.276722 293.045014 
L 746.745214 271.652078 
L 747.213706 273.923803 
L 748.15069 329.558133 
L 748.619182 310.56958 
L 749.556166 180.087871 
L 750.024658 170.473254 
L 750.49315 215.34331 
L 750.961642 279.582506 
L 751.430134 318.487233 
L 751.898626 309.006091 
L 752.367118 283.981748 
L 752.83561 274.850046 
L 753.304102 273.743594 
L 753.772594 273.095628 
L 754.241086 272.926681 
L 754.709578 268.395346 
L 755.17807 270.718176 
L 755.646562 284.551785 
L 756.115054 275.083911 
L 757.052038 163.8077 
L 757.52053 135.925142 
L 757.989022 158.51 
L 758.926006 275.523984 
L 759.394498 308.215416 
L 759.86299 329.426096 
L 760.331482 360.615166 
L 760.799974 401.968083 
L 761.268466 400.215594 
L 761.736958 319.325001 
L 762.673942 92.950717 
L 763.142434 45.131384 
L 763.610926 81.231586 
L 764.54791 284.412076 
L 765.953386 432.016761 
L 766.421878 417.069374 
L 766.89037 328.982424 
L 767.358862 216.095891 
L 767.827354 132.159512 
L 768.295846 93.228733 
L 768.764338 109.907065 
L 769.23283 187.706488 
L 769.701322 292.648832 
L 770.169814 371.864621 
L 770.638306 397.465796 
L 771.106798 355.687803 
L 772.043782 157.744087 
L 772.512274 103.342289 
L 772.980766 88.668484 
L 773.449258 105.700811 
L 773.91775 159.9122 
L 775.323226 377.811951 
L 775.791718 398.907353 
L 776.26021 368.946992 
L 776.728702 321.587912 
L 777.197194 291.736913 
L 777.665686 270.400632 
L 778.60267 202.4114 
L 779.071162 200.803273 
L 779.539654 243.19453 
L 780.008146 304.916024 
L 780.476638 344.035788 
L 780.94513 346.514093 
L 781.413622 324.53867 
L 781.882114 278.350692 
L 782.819098 162.482825 
L 783.28759 128.755406 
L 783.756082 125.345163 
L 784.224574 162.309749 
L 785.63005 376.872428 
L 786.098542 386.423771 
L 786.567034 346.887829 
L 787.97251 91.289437 
L 788.441002 44.4375 
L 788.909494 72.408883 
L 789.846478 286.879423 
L 790.31497 390.673163 
L 790.783462 465.32711 
L 791.251954 498.0375 
L 791.720446 469.722742 
L 792.188938 365.7188 
L 792.65743 231.026889 
L 793.125922 136.225582 
L 793.594414 113.435277 
L 794.062906 156.088984 
L 794.99989 324.986932 
L 795.468382 379.086585 
L 795.936874 371.210098 
L 797.34235 172.995103 
L 797.810842 176.292127 
L 798.747826 222.774403 
L 799.216318 229.878501 
L 799.68481 229.032385 
L 800.153302 243.655861 
L 801.090286 320.094057 
L 801.558778 337.162662 
L 802.02727 311.16269 
L 802.964254 198.782707 
L 803.432746 187.264213 
L 803.901238 218.593123 
L 804.838222 293.258337 
L 805.306714 321.209616 
L 805.775206 326.147963 
L 807.180682 248.539131 
L 807.649174 232.459657 
L 808.586158 209.393978 
L 809.05465 206.847337 
L 809.523142 236.675217 
L 810.460126 338.480273 
L 810.928618 351.728198 
L 811.39711 319.984904 
L 811.865602 272.885143 
L 812.334094 248.600641 
L 812.802586 254.335614 
L 813.271078 274.666771 
L 813.73957 288.102861 
L 814.208062 272.720843 
L 815.613538 153.928542 
L 816.08203 155.927397 
L 818.892982 336.016105 
L 819.361474 350.748947 
L 819.829966 346.595796 
L 820.298458 313.408035 
L 821.703934 157.381577 
L 822.172426 149.263447 
L 822.640918 173.749902 
L 823.577902 259.405693 
L 824.514886 371.189681 
L 824.983378 374.919809 
L 825.45187 322.945373 
L 825.920362 256.098378 
L 826.388854 212.645125 
L 826.857346 205.355331 
L 827.325838 226.059078 
L 827.79433 254.703628 
L 828.262822 271.072769 
L 828.731314 271.717899 
L 829.199806 273.758921 
L 829.668298 282.479508 
L 830.13679 280.462921 
L 831.073774 246.498274 
L 831.542266 245.101079 
L 832.010758 256.476999 
L 832.47925 278.512394 
L 832.947742 292.540409 
L 833.416234 278.647391 
L 834.353218 196.659065 
L 834.82171 179.348252 
L 835.290202 202.416998 
L 836.227186 308.314726 
L 836.695678 341.532606 
L 837.16417 355.574182 
L 837.632662 363.479637 
L 838.101154 361.354388 
L 838.569646 323.548316 
L 839.50663 196.440374 
L 839.975122 173.60523 
L 840.443614 184.397879 
L 840.912106 209.146343 
L 842.317582 306.618636 
L 842.786074 327.246972 
L 843.254566 331.493807 
L 843.723058 324.590206 
L 844.660042 304.082155 
L 845.128534 278.442296 
L 845.597026 241.440309 
L 846.065518 215.034295 
L 846.53401 209.815784 
L 847.002502 216.207604 
L 847.470994 220.9151 
L 847.939486 218.995442 
L 848.407978 218.613876 
L 848.87647 239.089259 
L 849.344962 276.390738 
L 849.813454 304.811333 
L 850.281946 307.39131 
L 850.750438 280.568356 
L 851.21893 241.657428 
L 851.687422 216.493916 
L 852.155914 216.768787 
L 852.624406 238.417065 
L 853.092898 267.317248 
L 853.56139 284.014738 
L 854.029882 277.878218 
L 854.498374 268.188907 
L 854.966866 284.589798 
L 855.435358 313.544982 
L 855.90385 319.919797 
L 856.372342 282.813263 
L 856.840834 221.593416 
L 857.309326 182.808787 
L 857.777818 182.859974 
L 858.714802 230.081579 
L 859.183294 235.489933 
L 859.651786 231.192103 
L 860.120278 249.48685 
L 860.58877 279.746413 
L 861.057262 291.826739 
L 861.525754 275.708112 
L 861.994246 248.192154 
L 862.462738 234.050758 
L 862.93123 243.160262 
L 863.868214 301.32477 
L 864.336706 307.072391 
L 864.805198 278.230989 
L 865.742182 177.266755 
L 866.210674 162.75102 
L 866.679166 189.765662 
L 868.084642 319.31203 
L 868.553134 329.28922 
L 869.021626 294.055904 
L 869.490118 240.360636 
L 869.95861 214.983694 
L 870.427102 226.725493 
L 870.895594 249.504191 
L 871.832578 281.060114 
L 872.30107 304.610029 
L 872.769562 318.413513 
L 873.238054 299.000174 
L 874.175038 215.877782 
L 874.64353 198.03478 
L 875.112022 205.149339 
L 876.049006 279.394045 
L 876.517498 297.370243 
L 876.98599 297.832622 
L 877.922974 255.690097 
L 878.391466 269.975472 
L 878.859958 302.216543 
L 879.32845 311.809292 
L 879.796942 294.08502 
L 880.265434 271.830082 
L 880.733926 259.753051 
L 881.202418 255.274098 
L 881.67091 246.415782 
L 882.139402 232.544943 
L 882.607894 222.279903 
L 883.076386 218.56941 
L 883.544878 224.240096 
L 884.481862 283.812923 
L 884.950354 288.945976 
L 885.418846 281.132151 
L 885.887338 266.810404 
L 886.824322 211.877118 
L 887.292814 199.3182 
L 887.761306 205.358163 
L 888.69829 253.093568 
L 889.166782 264.166526 
L 890.103766 272.251757 
L 890.572258 271.035371 
L 891.509242 254.978162 
L 891.977734 244.236721 
L 892.446226 237.24582 
L 892.914718 244.631267 
L 893.851702 283.164415 
L 894.320194 282.99183 
L 895.257178 258.218713 
L 895.72567 252.587824 
L 896.194162 252.437104 
L 896.662654 258.379808 
L 897.599638 288.952373 
L 898.06813 285.731202 
L 899.005114 216.924931 
L 899.473606 211.647301 
L 899.942098 231.274817 
L 900.879082 305.778501 
L 901.347574 323.913003 
L 901.816066 311.068502 
L 902.75305 197.299453 
L 903.221542 177.150824 
L 903.690034 198.2318 
L 904.627018 255.159936 
L 905.09551 275.783498 
L 906.032494 297.307553 
L 906.500986 308.175685 
L 906.969478 298.708215 
L 907.906462 208.428624 
L 908.374954 196.216634 
L 908.843446 227.366917 
L 909.311938 268.838672 
L 909.78043 289.97721 
L 910.248922 290.683194 
L 910.717414 288.600884 
L 911.185906 288.269027 
L 911.654398 268.559447 
L 912.12289 229.402421 
L 912.591382 199.853691 
L 913.059874 193.881249 
L 913.528366 193.95286 
L 913.996858 200.419142 
L 914.46535 236.526218 
L 915.402334 352.703423 
L 915.870826 365.187749 
L 916.339318 326.533521 
L 917.276302 223.580931 
L 917.744794 193.132679 
L 918.213286 178.340562 
L 918.681778 194.3447 
L 919.618762 290.385289 
L 920.087254 291.037711 
L 920.555746 273.454811 
L 921.024238 269.135986 
L 921.961222 294.610113 
L 922.429714 281.617994 
L 923.366698 220.300483 
L 923.83519 199.617843 
L 924.303682 203.023472 
L 924.772174 233.327898 
L 925.709158 311.591416 
L 926.17765 323.838402 
L 926.646142 313.534856 
L 927.114634 281.586885 
L 928.051618 203.1438 
L 928.52011 188.566371 
L 928.988602 189.883812 
L 929.457094 201.660746 
L 929.925586 222.932537 
L 930.86257 273.484355 
L 931.331062 286.061241 
L 931.799554 284.754013 
L 932.736538 237.261831 
L 933.20503 231.975749 
L 933.673522 247.99802 
L 934.610506 300.740766 
L 935.078998 313.398281 
L 935.54749 306.676778 
L 936.952966 252.789907 
L 937.88995 187.56739 
L 938.358442 187.482815 
L 938.826934 237.478843 
L 939.295426 299.599845 
L 939.763918 330.185629 
L 940.23241 321.355934 
L 941.637886 189.772327 
L 942.106378 192.045196 
L 942.57487 218.77972 
L 943.043362 254.585146 
L 943.511854 277.746717 
L 943.980346 280.377819 
L 944.448838 278.798862 
L 944.91733 284.67287 
L 945.385822 293.136304 
L 945.854314 286.470744 
L 946.791298 220.657469 
L 947.25979 220.221193 
L 948.196774 253.65702 
L 948.665266 256.376434 
L 949.133758 252.965307 
L 949.60225 254.672583 
L 951.007726 288.499985 
L 951.476218 304.527715 
L 951.94471 316.484735 
L 952.413202 300.086389 
L 953.350186 218.055072 
L 953.818678 194.575597 
L 954.28717 185.260529 
L 954.755662 192.319181 
L 955.224154 225.192638 
L 955.692646 271.138401 
L 956.161138 304.491315 
L 956.62963 320.272995 
L 957.098122 321.816218 
L 957.566614 304.166204 
L 958.035106 255.862215 
L 958.503598 195.870279 
L 958.97209 165.720705 
L 959.440582 186.36846 
L 960.377566 278.3385 
L 960.846058 290.124593 
L 961.31455 287.613156 
L 961.783042 296.714249 
L 962.251534 297.61714 
L 962.720026 269.962299 
L 963.188518 231.474945 
L 963.65701 207.747464 
L 964.125502 211.720254 
L 965.062486 275.750513 
L 965.530978 292.499747 
L 965.99947 291.127325 
L 966.467962 283.649687 
L 967.404946 262.806812 
L 967.873438 260.850461 
L 968.34193 262.474057 
L 968.810422 252.744334 
L 969.278914 236.287911 
L 969.747406 229.806673 
L 970.215898 239.03676 
L 971.152882 274.958467 
L 971.621374 276.791442 
L 972.089866 269.353004 
L 973.02685 246.629286 
L 973.495342 241.943934 
L 973.963834 248.25405 
L 974.900818 279.854175 
L 975.36931 283.528576 
L 975.837802 280.339268 
L 976.306294 271.751397 
L 977.243278 228.753697 
L 977.71177 226.941295 
L 978.648754 266.928453 
L 979.117246 277.89125 
L 979.585738 278.644091 
L 980.05423 271.564863 
L 980.991214 243.638095 
L 981.459706 237.213648 
L 981.928198 241.354106 
L 982.39669 251.347796 
L 983.333674 282.738335 
L 983.802166 290.722457 
L 984.270658 288.556858 
L 984.73915 281.213252 
L 986.144626 244.962434 
L 986.613118 241.667259 
L 987.08161 245.020465 
L 988.018595 269.651244 
L 988.487087 276.840949 
L 988.955579 278.315744 
L 989.424071 276.730086 
L 989.892563 270.539724 
L 990.829547 240.441412 
L 991.298039 238.162977 
L 992.703515 263.715821 
L 993.172007 267.516043 
L 993.640499 267.216109 
L 994.577483 265.373222 
L 995.045975 263.060461 
L 995.514467 260.030818 
L 995.982959 258.386924 
L 996.451451 257.917134 
L 996.919943 257.114693 
L 997.388435 256.710851 
L 997.856927 257.28587 
L 998.325419 258.721091 
L 999.262403 264.020558 
L 999.730895 264.234598 
L 1000.199387 262.677058 
L 1001.136371 258.278496 
L 1001.604863 256.602673 
L 1002.541847 252.623023 
L 1003.010339 253.270475 
L 1004.415815 260.23738 
L 1004.884307 260.439246 
L 1005.821291 258.94291 
L 1007.226767 256.465611 
L 1007.695259 256.110409 
L 1008.163751 256.235821 
L 1009.100735 257.164484 
L 1009.569227 257.401571 
L 1012.380179 257.46992 
L 1013.317163 257.164177 
L 1014.254147 257.22359 
L 1015.191131 257.410779 
L 1016.128115 257.369152 
L 1017.533591 257.257323 
L 1025.497955 257.740515 
L 1025.497955 257.740515 
" clip-path="url(#padc3fbf3ab)" style="fill: none; stroke: #0c5da5; stroke-width: 2; stroke-linecap: square"/>
   </g>
   <g id="patch_3">
    <path d="M 66.7525 520.7175 
L 66.7525 21.7575 
" style="fill: none; stroke: #000000; stroke-linejoin: miter; stroke-linecap: square"/>
   </g>
   <g id="patch_4">
    <path d="M 1071.1525 520.7175 
L 1071.1525 21.7575 
" style="fill: none; stroke: #000000; stroke-linejoin: miter; stroke-linecap: square"/>
   </g>
   <g id="patch_5">
    <path d="M 66.7525 520.7175 
L 1071.1525 520.7175 
" style="fill: none; stroke: #000000; stroke-linejoin: miter; stroke-linecap: square"/>
   </g>
   <g id="patch_6">
    <path d="M 66.7525 21.7575 
L 1071.1525 21.7575 
" style="fill: none; stroke: #000000; stroke-linejoin: miter; stroke-linecap: square"/>
   </g>
   <g id="text_17">
    <!-- Tabas_ Iran Record no. 137 -->
    <g transform="translate(461.26375 15.7575) scale(0.16 -0.16)">
     <defs>
      <path id="DejaVuSans-5f" d="M 3263 -1063 
L 3263 -1509 
L -63 -1509 
L -63 -1063 
L 3263 -1063 
z
" transform="scale(0.015625)"/>
      <path id="DejaVuSans-49" d="M 628 4666 
L 1259 4666 
L 1259 0 
L 628 0 
L 628 4666 
z
" transform="scale(0.015625)"/>
      <path id="DejaVuSans-64" d="M 2906 2969 
L 2906 4863 
L 3481 4863 
L 3481 0 
L 2906 0 
L 2906 525 
Q 2725 213 2448 61 
Q 2172 -91 1784 -91 
Q 1150 -91 751 415 
Q 353 922 353 1747 
Q 353 2572 751 3078 
Q 1150 3584 1784 3584 
Q 2172 3584 2448 3432 
Q 2725 3281 2906 2969 
z
M 947 1747 
Q 947 1113 1208 752 
Q 1469 391 1925 391 
Q 2381 391 2643 752 
Q 2906 1113 2906 1747 
Q 2906 2381 2643 2742 
Q 2381 3103 1925 3103 
Q 1469 3103 1208 2742 
Q 947 2381 947 1747 
z
" transform="scale(0.015625)"/>
      <path id="DejaVuSans-37" d="M 525 4666 
L 3525 4666 
L 3525 4397 
L 1831 0 
L 1172 0 
L 2766 4134 
L 525 4134 
L 525 4666 
z
" transform="scale(0.015625)"/>
     </defs>
     <use xlink:href="#DejaVuSans-54"/>
     <use xlink:href="#DejaVuSans-61" x="44.583984"/>
     <use xlink:href="#DejaVuSans-62" x="105.863281"/>
     <use xlink:href="#DejaVuSans-61" x="169.339844"/>
     <use xlink:href="#DejaVuSans-73" x="230.619141"/>
     <use xlink:href="#DejaVuSans-5f" x="282.71875"/>
     <use xlink:href="#DejaVuSans-20" x="332.71875"/>
     <use xlink:href="#DejaVuSans-49" x="364.505859"/>
     <use xlink:href="#DejaVuSans-72" x="393.998047"/>
     <use xlink:href="#DejaVuSans-61" x="435.111328"/>
     <use xlink:href="#DejaVuSans-6e" x="496.390625"/>
     <use xlink:href="#DejaVuSans-20" x="559.769531"/>
     <use xlink:href="#DejaVuSans-52" x="591.556641"/>
     <use xlink:href="#DejaVuSans-65" x="656.539062"/>
     <use xlink:href="#DejaVuSans-63" x="718.0625"/>
     <use xlink:href="#DejaVuSans-6f" x="773.042969"/>
     <use xlink:href="#DejaVuSans-72" x="834.224609"/>
     <use xlink:href="#DejaVuSans-64" x="873.587891"/>
     <use xlink:href="#DejaVuSans-20" x="937.064453"/>
     <use xlink:href="#DejaVuSans-6e" x="968.851562"/>
     <use xlink:href="#DejaVuSans-6f" x="1032.230469"/>
     <use xlink:href="#DejaVuSans-2e" x="1091.662109"/>
     <use xlink:href="#DejaVuSans-20" x="1123.449219"/>
     <use xlink:href="#DejaVuSans-31" x="1155.236328"/>
     <use xlink:href="#DejaVuSans-33" x="1218.859375"/>
     <use xlink:href="#DejaVuSans-37" x="1282.482422"/>
    </g>
   </g>
  </g>
 </g>
 <defs>
  <clipPath id="padc3fbf3ab">
   <rect x="66.7525" y="21.7575" width="1004.4" height="498.96"/>
  </clipPath>
 </defs>
</svg>
