<?xml version="1.0" encoding="utf-8" standalone="no"?>
<!DOCTYPE svg PUBLIC "-//W3C//DTD SVG 1.1//EN"
  "http://www.w3.org/Graphics/SVG/1.1/DTD/svg11.dtd">
<svg xmlns:xlink="http://www.w3.org/1999/xlink" width="1058.1725pt" height="562.7875pt" viewBox="0 0 1058.1725 562.7875" xmlns="http://www.w3.org/2000/svg" version="1.1">
 <metadata>
  <rdf:RDF xmlns:dc="http://purl.org/dc/elements/1.1/" xmlns:cc="http://creativecommons.org/ns#" xmlns:rdf="http://www.w3.org/1999/02/22-rdf-syntax-ns#">
   <cc:Work>
    <dc:type rdf:resource="http://purl.org/dc/dcmitype/StillImage"/>
    <dc:date>2023-05-16T14:57:30.440650</dc:date>
    <dc:format>image/svg+xml</dc:format>
    <dc:creator>
     <cc:Agent>
      <dc:title>Matplotlib v3.7.1, https://matplotlib.org/</dc:title>
     </cc:Agent>
    </dc:creator>
   </cc:Work>
  </rdf:RDF>
 </metadata>
 <defs>
  <style type="text/css">*{stroke-linejoin: round; stroke-linecap: butt}</style>
 </defs>
 <g id="figure_1">
  <g id="patch_1">
   <path d="M 0 562.7875 
L 1058.1725 562.7875 
L 1058.1725 0 
L 0 0 
z
" style="fill: #ffffff"/>
  </g>
  <g id="axes_1">
   <g id="patch_2">
    <path d="M 50.1725 520.7175 
L 1054.5725 520.7175 
L 1054.5725 21.7575 
L 50.1725 21.7575 
z
" style="fill: #ffffff"/>
   </g>
   <g id="matplotlib.axis_1">
    <g id="xtick_1">
     <g id="line2d_1">
      <path d="M 95.827045 520.7175 
L 95.827045 21.7575 
" clip-path="url(#pe873ed8059)" style="fill: none; stroke-dasharray: 1.85,0.8; stroke-dashoffset: 0; stroke: #000000; stroke-opacity: 0.5; stroke-width: 0.5"/>
     </g>
     <g id="line2d_2">
      <defs>
       <path id="m45c2d205b1" d="M 0 0 
L 0 -6 
" style="stroke: #000000"/>
      </defs>
      <g>
       <use xlink:href="#m45c2d205b1" x="95.827045" y="520.7175" style="stroke: #000000"/>
      </g>
     </g>
     <g id="line2d_3">
      <defs>
       <path id="m4507fadaf0" d="M 0 0 
L 0 6 
" style="stroke: #000000"/>
      </defs>
      <g>
       <use xlink:href="#m4507fadaf0" x="95.827045" y="21.7575" style="stroke: #000000"/>
      </g>
     </g>
     <g id="text_1">
      <!-- 0.0 -->
      <g transform="translate(83.104545 536.375) scale(0.16 -0.16)">
       <defs>
        <path id="DejaVuSans-30" d="M 2034 4250 
Q 1547 4250 1301 3770 
Q 1056 3291 1056 2328 
Q 1056 1369 1301 889 
Q 1547 409 2034 409 
Q 2525 409 2770 889 
Q 3016 1369 3016 2328 
Q 3016 3291 2770 3770 
Q 2525 4250 2034 4250 
z
M 2034 4750 
Q 2819 4750 3233 4129 
Q 3647 3509 3647 2328 
Q 3647 1150 3233 529 
Q 2819 -91 2034 -91 
Q 1250 -91 836 529 
Q 422 1150 422 2328 
Q 422 3509 836 4129 
Q 1250 4750 2034 4750 
z
" transform="scale(0.015625)"/>
        <path id="DejaVuSans-2e" d="M 684 794 
L 1344 794 
L 1344 0 
L 684 0 
L 684 794 
z
" transform="scale(0.015625)"/>
       </defs>
       <use xlink:href="#DejaVuSans-30"/>
       <use xlink:href="#DejaVuSans-2e" x="63.623047"/>
       <use xlink:href="#DejaVuSans-30" x="95.410156"/>
      </g>
     </g>
    </g>
    <g id="xtick_2">
     <g id="line2d_4">
      <path d="M 221.770619 520.7175 
L 221.770619 21.7575 
" clip-path="url(#pe873ed8059)" style="fill: none; stroke-dasharray: 1.85,0.8; stroke-dashoffset: 0; stroke: #000000; stroke-opacity: 0.5; stroke-width: 0.5"/>
     </g>
     <g id="line2d_5">
      <g>
       <use xlink:href="#m45c2d205b1" x="221.770619" y="520.7175" style="stroke: #000000"/>
      </g>
     </g>
     <g id="line2d_6">
      <g>
       <use xlink:href="#m4507fadaf0" x="221.770619" y="21.7575" style="stroke: #000000"/>
      </g>
     </g>
     <g id="text_2">
      <!-- 2.5 -->
      <g transform="translate(209.048119 536.375) scale(0.16 -0.16)">
       <defs>
        <path id="DejaVuSans-32" d="M 1228 531 
L 3431 531 
L 3431 0 
L 469 0 
L 469 531 
Q 828 903 1448 1529 
Q 2069 2156 2228 2338 
Q 2531 2678 2651 2914 
Q 2772 3150 2772 3378 
Q 2772 3750 2511 3984 
Q 2250 4219 1831 4219 
Q 1534 4219 1204 4116 
Q 875 4013 500 3803 
L 500 4441 
Q 881 4594 1212 4672 
Q 1544 4750 1819 4750 
Q 2544 4750 2975 4387 
Q 3406 4025 3406 3419 
Q 3406 3131 3298 2873 
Q 3191 2616 2906 2266 
Q 2828 2175 2409 1742 
Q 1991 1309 1228 531 
z
" transform="scale(0.015625)"/>
        <path id="DejaVuSans-35" d="M 691 4666 
L 3169 4666 
L 3169 4134 
L 1269 4134 
L 1269 2991 
Q 1406 3038 1543 3061 
Q 1681 3084 1819 3084 
Q 2600 3084 3056 2656 
Q 3513 2228 3513 1497 
Q 3513 744 3044 326 
Q 2575 -91 1722 -91 
Q 1428 -91 1123 -41 
Q 819 9 494 109 
L 494 744 
Q 775 591 1075 516 
Q 1375 441 1709 441 
Q 2250 441 2565 725 
Q 2881 1009 2881 1497 
Q 2881 1984 2565 2268 
Q 2250 2553 1709 2553 
Q 1456 2553 1204 2497 
Q 953 2441 691 2322 
L 691 4666 
z
" transform="scale(0.015625)"/>
       </defs>
       <use xlink:href="#DejaVuSans-32"/>
       <use xlink:href="#DejaVuSans-2e" x="63.623047"/>
       <use xlink:href="#DejaVuSans-35" x="95.410156"/>
      </g>
     </g>
    </g>
    <g id="xtick_3">
     <g id="line2d_7">
      <path d="M 347.714193 520.7175 
L 347.714193 21.7575 
" clip-path="url(#pe873ed8059)" style="fill: none; stroke-dasharray: 1.85,0.8; stroke-dashoffset: 0; stroke: #000000; stroke-opacity: 0.5; stroke-width: 0.5"/>
     </g>
     <g id="line2d_8">
      <g>
       <use xlink:href="#m45c2d205b1" x="347.714193" y="520.7175" style="stroke: #000000"/>
      </g>
     </g>
     <g id="line2d_9">
      <g>
       <use xlink:href="#m4507fadaf0" x="347.714193" y="21.7575" style="stroke: #000000"/>
      </g>
     </g>
     <g id="text_3">
      <!-- 5.0 -->
      <g transform="translate(334.991693 536.375) scale(0.16 -0.16)">
       <use xlink:href="#DejaVuSans-35"/>
       <use xlink:href="#DejaVuSans-2e" x="63.623047"/>
       <use xlink:href="#DejaVuSans-30" x="95.410156"/>
      </g>
     </g>
    </g>
    <g id="xtick_4">
     <g id="line2d_10">
      <path d="M 473.657766 520.7175 
L 473.657766 21.7575 
" clip-path="url(#pe873ed8059)" style="fill: none; stroke-dasharray: 1.85,0.8; stroke-dashoffset: 0; stroke: #000000; stroke-opacity: 0.5; stroke-width: 0.5"/>
     </g>
     <g id="line2d_11">
      <g>
       <use xlink:href="#m45c2d205b1" x="473.657766" y="520.7175" style="stroke: #000000"/>
      </g>
     </g>
     <g id="line2d_12">
      <g>
       <use xlink:href="#m4507fadaf0" x="473.657766" y="21.7575" style="stroke: #000000"/>
      </g>
     </g>
     <g id="text_4">
      <!-- 7.5 -->
      <g transform="translate(460.935266 536.375) scale(0.16 -0.16)">
       <defs>
        <path id="DejaVuSans-37" d="M 525 4666 
L 3525 4666 
L 3525 4397 
L 1831 0 
L 1172 0 
L 2766 4134 
L 525 4134 
L 525 4666 
z
" transform="scale(0.015625)"/>
       </defs>
       <use xlink:href="#DejaVuSans-37"/>
       <use xlink:href="#DejaVuSans-2e" x="63.623047"/>
       <use xlink:href="#DejaVuSans-35" x="95.410156"/>
      </g>
     </g>
    </g>
    <g id="xtick_5">
     <g id="line2d_13">
      <path d="M 599.60134 520.7175 
L 599.60134 21.7575 
" clip-path="url(#pe873ed8059)" style="fill: none; stroke-dasharray: 1.85,0.8; stroke-dashoffset: 0; stroke: #000000; stroke-opacity: 0.5; stroke-width: 0.5"/>
     </g>
     <g id="line2d_14">
      <g>
       <use xlink:href="#m45c2d205b1" x="599.60134" y="520.7175" style="stroke: #000000"/>
      </g>
     </g>
     <g id="line2d_15">
      <g>
       <use xlink:href="#m4507fadaf0" x="599.60134" y="21.7575" style="stroke: #000000"/>
      </g>
     </g>
     <g id="text_5">
      <!-- 10.0 -->
      <g transform="translate(581.78884 536.375) scale(0.16 -0.16)">
       <defs>
        <path id="DejaVuSans-31" d="M 794 531 
L 1825 531 
L 1825 4091 
L 703 3866 
L 703 4441 
L 1819 4666 
L 2450 4666 
L 2450 531 
L 3481 531 
L 3481 0 
L 794 0 
L 794 531 
z
" transform="scale(0.015625)"/>
       </defs>
       <use xlink:href="#DejaVuSans-31"/>
       <use xlink:href="#DejaVuSans-30" x="63.623047"/>
       <use xlink:href="#DejaVuSans-2e" x="127.246094"/>
       <use xlink:href="#DejaVuSans-30" x="159.033203"/>
      </g>
     </g>
    </g>
    <g id="xtick_6">
     <g id="line2d_16">
      <path d="M 725.544914 520.7175 
L 725.544914 21.7575 
" clip-path="url(#pe873ed8059)" style="fill: none; stroke-dasharray: 1.85,0.8; stroke-dashoffset: 0; stroke: #000000; stroke-opacity: 0.5; stroke-width: 0.5"/>
     </g>
     <g id="line2d_17">
      <g>
       <use xlink:href="#m45c2d205b1" x="725.544914" y="520.7175" style="stroke: #000000"/>
      </g>
     </g>
     <g id="line2d_18">
      <g>
       <use xlink:href="#m4507fadaf0" x="725.544914" y="21.7575" style="stroke: #000000"/>
      </g>
     </g>
     <g id="text_6">
      <!-- 12.5 -->
      <g transform="translate(707.732414 536.375) scale(0.16 -0.16)">
       <use xlink:href="#DejaVuSans-31"/>
       <use xlink:href="#DejaVuSans-32" x="63.623047"/>
       <use xlink:href="#DejaVuSans-2e" x="127.246094"/>
       <use xlink:href="#DejaVuSans-35" x="159.033203"/>
      </g>
     </g>
    </g>
    <g id="xtick_7">
     <g id="line2d_19">
      <path d="M 851.488487 520.7175 
L 851.488487 21.7575 
" clip-path="url(#pe873ed8059)" style="fill: none; stroke-dasharray: 1.85,0.8; stroke-dashoffset: 0; stroke: #000000; stroke-opacity: 0.5; stroke-width: 0.5"/>
     </g>
     <g id="line2d_20">
      <g>
       <use xlink:href="#m45c2d205b1" x="851.488487" y="520.7175" style="stroke: #000000"/>
      </g>
     </g>
     <g id="line2d_21">
      <g>
       <use xlink:href="#m4507fadaf0" x="851.488487" y="21.7575" style="stroke: #000000"/>
      </g>
     </g>
     <g id="text_7">
      <!-- 15.0 -->
      <g transform="translate(833.675987 536.375) scale(0.16 -0.16)">
       <use xlink:href="#DejaVuSans-31"/>
       <use xlink:href="#DejaVuSans-35" x="63.623047"/>
       <use xlink:href="#DejaVuSans-2e" x="127.246094"/>
       <use xlink:href="#DejaVuSans-30" x="159.033203"/>
      </g>
     </g>
    </g>
    <g id="xtick_8">
     <g id="line2d_22">
      <path d="M 977.432061 520.7175 
L 977.432061 21.7575 
" clip-path="url(#pe873ed8059)" style="fill: none; stroke-dasharray: 1.85,0.8; stroke-dashoffset: 0; stroke: #000000; stroke-opacity: 0.5; stroke-width: 0.5"/>
     </g>
     <g id="line2d_23">
      <g>
       <use xlink:href="#m45c2d205b1" x="977.432061" y="520.7175" style="stroke: #000000"/>
      </g>
     </g>
     <g id="line2d_24">
      <g>
       <use xlink:href="#m4507fadaf0" x="977.432061" y="21.7575" style="stroke: #000000"/>
      </g>
     </g>
     <g id="text_8">
      <!-- 17.5 -->
      <g transform="translate(959.619561 536.375) scale(0.16 -0.16)">
       <use xlink:href="#DejaVuSans-31"/>
       <use xlink:href="#DejaVuSans-37" x="63.623047"/>
       <use xlink:href="#DejaVuSans-2e" x="127.246094"/>
       <use xlink:href="#DejaVuSans-35" x="159.033203"/>
      </g>
     </g>
    </g>
    <g id="xtick_9">
     <g id="line2d_25">
      <defs>
       <path id="ma4d5e8df52" d="M 0 0 
L 0 -3 
" style="stroke: #000000"/>
      </defs>
      <g>
       <use xlink:href="#ma4d5e8df52" x="70.638331" y="520.7175" style="stroke: #000000"/>
      </g>
     </g>
     <g id="line2d_26">
      <defs>
       <path id="m5e8500ca14" d="M 0 0 
L 0 3 
" style="stroke: #000000"/>
      </defs>
      <g>
       <use xlink:href="#m5e8500ca14" x="70.638331" y="21.7575" style="stroke: #000000"/>
      </g>
     </g>
    </g>
    <g id="xtick_10">
     <g id="line2d_27">
      <g>
       <use xlink:href="#ma4d5e8df52" x="121.01576" y="520.7175" style="stroke: #000000"/>
      </g>
     </g>
     <g id="line2d_28">
      <g>
       <use xlink:href="#m5e8500ca14" x="121.01576" y="21.7575" style="stroke: #000000"/>
      </g>
     </g>
    </g>
    <g id="xtick_11">
     <g id="line2d_29">
      <g>
       <use xlink:href="#ma4d5e8df52" x="146.204475" y="520.7175" style="stroke: #000000"/>
      </g>
     </g>
     <g id="line2d_30">
      <g>
       <use xlink:href="#m5e8500ca14" x="146.204475" y="21.7575" style="stroke: #000000"/>
      </g>
     </g>
    </g>
    <g id="xtick_12">
     <g id="line2d_31">
      <g>
       <use xlink:href="#ma4d5e8df52" x="171.39319" y="520.7175" style="stroke: #000000"/>
      </g>
     </g>
     <g id="line2d_32">
      <g>
       <use xlink:href="#m5e8500ca14" x="171.39319" y="21.7575" style="stroke: #000000"/>
      </g>
     </g>
    </g>
    <g id="xtick_13">
     <g id="line2d_33">
      <g>
       <use xlink:href="#ma4d5e8df52" x="196.581904" y="520.7175" style="stroke: #000000"/>
      </g>
     </g>
     <g id="line2d_34">
      <g>
       <use xlink:href="#m5e8500ca14" x="196.581904" y="21.7575" style="stroke: #000000"/>
      </g>
     </g>
    </g>
    <g id="xtick_14">
     <g id="line2d_35">
      <g>
       <use xlink:href="#ma4d5e8df52" x="246.959334" y="520.7175" style="stroke: #000000"/>
      </g>
     </g>
     <g id="line2d_36">
      <g>
       <use xlink:href="#m5e8500ca14" x="246.959334" y="21.7575" style="stroke: #000000"/>
      </g>
     </g>
    </g>
    <g id="xtick_15">
     <g id="line2d_37">
      <g>
       <use xlink:href="#ma4d5e8df52" x="272.148049" y="520.7175" style="stroke: #000000"/>
      </g>
     </g>
     <g id="line2d_38">
      <g>
       <use xlink:href="#m5e8500ca14" x="272.148049" y="21.7575" style="stroke: #000000"/>
      </g>
     </g>
    </g>
    <g id="xtick_16">
     <g id="line2d_39">
      <g>
       <use xlink:href="#ma4d5e8df52" x="297.336763" y="520.7175" style="stroke: #000000"/>
      </g>
     </g>
     <g id="line2d_40">
      <g>
       <use xlink:href="#m5e8500ca14" x="297.336763" y="21.7575" style="stroke: #000000"/>
      </g>
     </g>
    </g>
    <g id="xtick_17">
     <g id="line2d_41">
      <g>
       <use xlink:href="#ma4d5e8df52" x="322.525478" y="520.7175" style="stroke: #000000"/>
      </g>
     </g>
     <g id="line2d_42">
      <g>
       <use xlink:href="#m5e8500ca14" x="322.525478" y="21.7575" style="stroke: #000000"/>
      </g>
     </g>
    </g>
    <g id="xtick_18">
     <g id="line2d_43">
      <g>
       <use xlink:href="#ma4d5e8df52" x="372.902908" y="520.7175" style="stroke: #000000"/>
      </g>
     </g>
     <g id="line2d_44">
      <g>
       <use xlink:href="#m5e8500ca14" x="372.902908" y="21.7575" style="stroke: #000000"/>
      </g>
     </g>
    </g>
    <g id="xtick_19">
     <g id="line2d_45">
      <g>
       <use xlink:href="#ma4d5e8df52" x="398.091622" y="520.7175" style="stroke: #000000"/>
      </g>
     </g>
     <g id="line2d_46">
      <g>
       <use xlink:href="#m5e8500ca14" x="398.091622" y="21.7575" style="stroke: #000000"/>
      </g>
     </g>
    </g>
    <g id="xtick_20">
     <g id="line2d_47">
      <g>
       <use xlink:href="#ma4d5e8df52" x="423.280337" y="520.7175" style="stroke: #000000"/>
      </g>
     </g>
     <g id="line2d_48">
      <g>
       <use xlink:href="#m5e8500ca14" x="423.280337" y="21.7575" style="stroke: #000000"/>
      </g>
     </g>
    </g>
    <g id="xtick_21">
     <g id="line2d_49">
      <g>
       <use xlink:href="#ma4d5e8df52" x="448.469052" y="520.7175" style="stroke: #000000"/>
      </g>
     </g>
     <g id="line2d_50">
      <g>
       <use xlink:href="#m5e8500ca14" x="448.469052" y="21.7575" style="stroke: #000000"/>
      </g>
     </g>
    </g>
    <g id="xtick_22">
     <g id="line2d_51">
      <g>
       <use xlink:href="#ma4d5e8df52" x="498.846481" y="520.7175" style="stroke: #000000"/>
      </g>
     </g>
     <g id="line2d_52">
      <g>
       <use xlink:href="#m5e8500ca14" x="498.846481" y="21.7575" style="stroke: #000000"/>
      </g>
     </g>
    </g>
    <g id="xtick_23">
     <g id="line2d_53">
      <g>
       <use xlink:href="#ma4d5e8df52" x="524.035196" y="520.7175" style="stroke: #000000"/>
      </g>
     </g>
     <g id="line2d_54">
      <g>
       <use xlink:href="#m5e8500ca14" x="524.035196" y="21.7575" style="stroke: #000000"/>
      </g>
     </g>
    </g>
    <g id="xtick_24">
     <g id="line2d_55">
      <g>
       <use xlink:href="#ma4d5e8df52" x="549.223911" y="520.7175" style="stroke: #000000"/>
      </g>
     </g>
     <g id="line2d_56">
      <g>
       <use xlink:href="#m5e8500ca14" x="549.223911" y="21.7575" style="stroke: #000000"/>
      </g>
     </g>
    </g>
    <g id="xtick_25">
     <g id="line2d_57">
      <g>
       <use xlink:href="#ma4d5e8df52" x="574.412625" y="520.7175" style="stroke: #000000"/>
      </g>
     </g>
     <g id="line2d_58">
      <g>
       <use xlink:href="#m5e8500ca14" x="574.412625" y="21.7575" style="stroke: #000000"/>
      </g>
     </g>
    </g>
    <g id="xtick_26">
     <g id="line2d_59">
      <g>
       <use xlink:href="#ma4d5e8df52" x="624.790055" y="520.7175" style="stroke: #000000"/>
      </g>
     </g>
     <g id="line2d_60">
      <g>
       <use xlink:href="#m5e8500ca14" x="624.790055" y="21.7575" style="stroke: #000000"/>
      </g>
     </g>
    </g>
    <g id="xtick_27">
     <g id="line2d_61">
      <g>
       <use xlink:href="#ma4d5e8df52" x="649.97877" y="520.7175" style="stroke: #000000"/>
      </g>
     </g>
     <g id="line2d_62">
      <g>
       <use xlink:href="#m5e8500ca14" x="649.97877" y="21.7575" style="stroke: #000000"/>
      </g>
     </g>
    </g>
    <g id="xtick_28">
     <g id="line2d_63">
      <g>
       <use xlink:href="#ma4d5e8df52" x="675.167484" y="520.7175" style="stroke: #000000"/>
      </g>
     </g>
     <g id="line2d_64">
      <g>
       <use xlink:href="#m5e8500ca14" x="675.167484" y="21.7575" style="stroke: #000000"/>
      </g>
     </g>
    </g>
    <g id="xtick_29">
     <g id="line2d_65">
      <g>
       <use xlink:href="#ma4d5e8df52" x="700.356199" y="520.7175" style="stroke: #000000"/>
      </g>
     </g>
     <g id="line2d_66">
      <g>
       <use xlink:href="#m5e8500ca14" x="700.356199" y="21.7575" style="stroke: #000000"/>
      </g>
     </g>
    </g>
    <g id="xtick_30">
     <g id="line2d_67">
      <g>
       <use xlink:href="#ma4d5e8df52" x="750.733629" y="520.7175" style="stroke: #000000"/>
      </g>
     </g>
     <g id="line2d_68">
      <g>
       <use xlink:href="#m5e8500ca14" x="750.733629" y="21.7575" style="stroke: #000000"/>
      </g>
     </g>
    </g>
    <g id="xtick_31">
     <g id="line2d_69">
      <g>
       <use xlink:href="#ma4d5e8df52" x="775.922343" y="520.7175" style="stroke: #000000"/>
      </g>
     </g>
     <g id="line2d_70">
      <g>
       <use xlink:href="#m5e8500ca14" x="775.922343" y="21.7575" style="stroke: #000000"/>
      </g>
     </g>
    </g>
    <g id="xtick_32">
     <g id="line2d_71">
      <g>
       <use xlink:href="#ma4d5e8df52" x="801.111058" y="520.7175" style="stroke: #000000"/>
      </g>
     </g>
     <g id="line2d_72">
      <g>
       <use xlink:href="#m5e8500ca14" x="801.111058" y="21.7575" style="stroke: #000000"/>
      </g>
     </g>
    </g>
    <g id="xtick_33">
     <g id="line2d_73">
      <g>
       <use xlink:href="#ma4d5e8df52" x="826.299773" y="520.7175" style="stroke: #000000"/>
      </g>
     </g>
     <g id="line2d_74">
      <g>
       <use xlink:href="#m5e8500ca14" x="826.299773" y="21.7575" style="stroke: #000000"/>
      </g>
     </g>
    </g>
    <g id="xtick_34">
     <g id="line2d_75">
      <g>
       <use xlink:href="#ma4d5e8df52" x="876.677202" y="520.7175" style="stroke: #000000"/>
      </g>
     </g>
     <g id="line2d_76">
      <g>
       <use xlink:href="#m5e8500ca14" x="876.677202" y="21.7575" style="stroke: #000000"/>
      </g>
     </g>
    </g>
    <g id="xtick_35">
     <g id="line2d_77">
      <g>
       <use xlink:href="#ma4d5e8df52" x="901.865917" y="520.7175" style="stroke: #000000"/>
      </g>
     </g>
     <g id="line2d_78">
      <g>
       <use xlink:href="#m5e8500ca14" x="901.865917" y="21.7575" style="stroke: #000000"/>
      </g>
     </g>
    </g>
    <g id="xtick_36">
     <g id="line2d_79">
      <g>
       <use xlink:href="#ma4d5e8df52" x="927.054632" y="520.7175" style="stroke: #000000"/>
      </g>
     </g>
     <g id="line2d_80">
      <g>
       <use xlink:href="#m5e8500ca14" x="927.054632" y="21.7575" style="stroke: #000000"/>
      </g>
     </g>
    </g>
    <g id="xtick_37">
     <g id="line2d_81">
      <g>
       <use xlink:href="#ma4d5e8df52" x="952.243346" y="520.7175" style="stroke: #000000"/>
      </g>
     </g>
     <g id="line2d_82">
      <g>
       <use xlink:href="#m5e8500ca14" x="952.243346" y="21.7575" style="stroke: #000000"/>
      </g>
     </g>
    </g>
    <g id="xtick_38">
     <g id="line2d_83">
      <g>
       <use xlink:href="#ma4d5e8df52" x="1002.620776" y="520.7175" style="stroke: #000000"/>
      </g>
     </g>
     <g id="line2d_84">
      <g>
       <use xlink:href="#m5e8500ca14" x="1002.620776" y="21.7575" style="stroke: #000000"/>
      </g>
     </g>
    </g>
    <g id="xtick_39">
     <g id="line2d_85">
      <g>
       <use xlink:href="#ma4d5e8df52" x="1027.809491" y="520.7175" style="stroke: #000000"/>
      </g>
     </g>
     <g id="line2d_86">
      <g>
       <use xlink:href="#m5e8500ca14" x="1027.809491" y="21.7575" style="stroke: #000000"/>
      </g>
     </g>
    </g>
    <g id="xtick_40">
     <g id="line2d_87">
      <g>
       <use xlink:href="#ma4d5e8df52" x="1052.998205" y="520.7175" style="stroke: #000000"/>
      </g>
     </g>
     <g id="line2d_88">
      <g>
       <use xlink:href="#m5e8500ca14" x="1052.998205" y="21.7575" style="stroke: #000000"/>
      </g>
     </g>
    </g>
    <g id="text_9">
     <!-- Time (s) -->
     <g transform="translate(519.84625 555.86) scale(0.16 -0.16)">
      <defs>
       <path id="DejaVuSans-54" d="M -19 4666 
L 3928 4666 
L 3928 4134 
L 2272 4134 
L 2272 0 
L 1638 0 
L 1638 4134 
L -19 4134 
L -19 4666 
z
" transform="scale(0.015625)"/>
       <path id="DejaVuSans-69" d="M 603 3500 
L 1178 3500 
L 1178 0 
L 603 0 
L 603 3500 
z
M 603 4863 
L 1178 4863 
L 1178 4134 
L 603 4134 
L 603 4863 
z
" transform="scale(0.015625)"/>
       <path id="DejaVuSans-6d" d="M 3328 2828 
Q 3544 3216 3844 3400 
Q 4144 3584 4550 3584 
Q 5097 3584 5394 3201 
Q 5691 2819 5691 2113 
L 5691 0 
L 5113 0 
L 5113 2094 
Q 5113 2597 4934 2840 
Q 4756 3084 4391 3084 
Q 3944 3084 3684 2787 
Q 3425 2491 3425 1978 
L 3425 0 
L 2847 0 
L 2847 2094 
Q 2847 2600 2669 2842 
Q 2491 3084 2119 3084 
Q 1678 3084 1418 2786 
Q 1159 2488 1159 1978 
L 1159 0 
L 581 0 
L 581 3500 
L 1159 3500 
L 1159 2956 
Q 1356 3278 1631 3431 
Q 1906 3584 2284 3584 
Q 2666 3584 2933 3390 
Q 3200 3197 3328 2828 
z
" transform="scale(0.015625)"/>
       <path id="DejaVuSans-65" d="M 3597 1894 
L 3597 1613 
L 953 1613 
Q 991 1019 1311 708 
Q 1631 397 2203 397 
Q 2534 397 2845 478 
Q 3156 559 3463 722 
L 3463 178 
Q 3153 47 2828 -22 
Q 2503 -91 2169 -91 
Q 1331 -91 842 396 
Q 353 884 353 1716 
Q 353 2575 817 3079 
Q 1281 3584 2069 3584 
Q 2775 3584 3186 3129 
Q 3597 2675 3597 1894 
z
M 3022 2063 
Q 3016 2534 2758 2815 
Q 2500 3097 2075 3097 
Q 1594 3097 1305 2825 
Q 1016 2553 972 2059 
L 3022 2063 
z
" transform="scale(0.015625)"/>
       <path id="DejaVuSans-20" transform="scale(0.015625)"/>
       <path id="DejaVuSans-28" d="M 1984 4856 
Q 1566 4138 1362 3434 
Q 1159 2731 1159 2009 
Q 1159 1288 1364 580 
Q 1569 -128 1984 -844 
L 1484 -844 
Q 1016 -109 783 600 
Q 550 1309 550 2009 
Q 550 2706 781 3412 
Q 1013 4119 1484 4856 
L 1984 4856 
z
" transform="scale(0.015625)"/>
       <path id="DejaVuSans-73" d="M 2834 3397 
L 2834 2853 
Q 2591 2978 2328 3040 
Q 2066 3103 1784 3103 
Q 1356 3103 1142 2972 
Q 928 2841 928 2578 
Q 928 2378 1081 2264 
Q 1234 2150 1697 2047 
L 1894 2003 
Q 2506 1872 2764 1633 
Q 3022 1394 3022 966 
Q 3022 478 2636 193 
Q 2250 -91 1575 -91 
Q 1294 -91 989 -36 
Q 684 19 347 128 
L 347 722 
Q 666 556 975 473 
Q 1284 391 1588 391 
Q 1994 391 2212 530 
Q 2431 669 2431 922 
Q 2431 1156 2273 1281 
Q 2116 1406 1581 1522 
L 1381 1569 
Q 847 1681 609 1914 
Q 372 2147 372 2553 
Q 372 3047 722 3315 
Q 1072 3584 1716 3584 
Q 2034 3584 2315 3537 
Q 2597 3491 2834 3397 
z
" transform="scale(0.015625)"/>
       <path id="DejaVuSans-29" d="M 513 4856 
L 1013 4856 
Q 1481 4119 1714 3412 
Q 1947 2706 1947 2009 
Q 1947 1309 1714 600 
Q 1481 -109 1013 -844 
L 513 -844 
Q 928 -128 1133 580 
Q 1338 1288 1338 2009 
Q 1338 2731 1133 3434 
Q 928 4138 513 4856 
z
" transform="scale(0.015625)"/>
      </defs>
      <use xlink:href="#DejaVuSans-54"/>
      <use xlink:href="#DejaVuSans-69" x="57.958984"/>
      <use xlink:href="#DejaVuSans-6d" x="85.742188"/>
      <use xlink:href="#DejaVuSans-65" x="183.154297"/>
      <use xlink:href="#DejaVuSans-20" x="244.677734"/>
      <use xlink:href="#DejaVuSans-28" x="276.464844"/>
      <use xlink:href="#DejaVuSans-73" x="315.478516"/>
      <use xlink:href="#DejaVuSans-29" x="367.578125"/>
     </g>
    </g>
   </g>
   <g id="matplotlib.axis_2">
    <g id="ytick_1">
     <g id="line2d_89">
      <path d="M 50.1725 503.389536 
L 1054.5725 503.389536 
" clip-path="url(#pe873ed8059)" style="fill: none; stroke-dasharray: 1.85,0.8; stroke-dashoffset: 0; stroke: #000000; stroke-opacity: 0.5; stroke-width: 0.5"/>
     </g>
     <g id="line2d_90">
      <defs>
       <path id="m79bbc07db9" d="M 0 0 
L 6 0 
" style="stroke: #000000"/>
      </defs>
      <g>
       <use xlink:href="#m79bbc07db9" x="50.1725" y="503.389536" style="stroke: #000000"/>
      </g>
     </g>
     <g id="line2d_91">
      <defs>
       <path id="mf466e1c1c8" d="M 0 0 
L -6 0 
" style="stroke: #000000"/>
      </defs>
      <g>
       <use xlink:href="#mf466e1c1c8" x="1054.5725" y="503.389536" style="stroke: #000000"/>
      </g>
     </g>
     <g id="text_10">
      <!-- −6 -->
      <g transform="translate(23.085 509.468286) scale(0.16 -0.16)">
       <defs>
        <path id="DejaVuSans-2212" d="M 678 2272 
L 4684 2272 
L 4684 1741 
L 678 1741 
L 678 2272 
z
" transform="scale(0.015625)"/>
        <path id="DejaVuSans-36" d="M 2113 2584 
Q 1688 2584 1439 2293 
Q 1191 2003 1191 1497 
Q 1191 994 1439 701 
Q 1688 409 2113 409 
Q 2538 409 2786 701 
Q 3034 994 3034 1497 
Q 3034 2003 2786 2293 
Q 2538 2584 2113 2584 
z
M 3366 4563 
L 3366 3988 
Q 3128 4100 2886 4159 
Q 2644 4219 2406 4219 
Q 1781 4219 1451 3797 
Q 1122 3375 1075 2522 
Q 1259 2794 1537 2939 
Q 1816 3084 2150 3084 
Q 2853 3084 3261 2657 
Q 3669 2231 3669 1497 
Q 3669 778 3244 343 
Q 2819 -91 2113 -91 
Q 1303 -91 875 529 
Q 447 1150 447 2328 
Q 447 3434 972 4092 
Q 1497 4750 2381 4750 
Q 2619 4750 2861 4703 
Q 3103 4656 3366 4563 
z
" transform="scale(0.015625)"/>
       </defs>
       <use xlink:href="#DejaVuSans-2212"/>
       <use xlink:href="#DejaVuSans-36" x="83.789062"/>
      </g>
     </g>
    </g>
    <g id="ytick_2">
     <g id="line2d_92">
      <path d="M 50.1725 433.289797 
L 1054.5725 433.289797 
" clip-path="url(#pe873ed8059)" style="fill: none; stroke-dasharray: 1.85,0.8; stroke-dashoffset: 0; stroke: #000000; stroke-opacity: 0.5; stroke-width: 0.5"/>
     </g>
     <g id="line2d_93">
      <g>
       <use xlink:href="#m79bbc07db9" x="50.1725" y="433.289797" style="stroke: #000000"/>
      </g>
     </g>
     <g id="line2d_94">
      <g>
       <use xlink:href="#mf466e1c1c8" x="1054.5725" y="433.289797" style="stroke: #000000"/>
      </g>
     </g>
     <g id="text_11">
      <!-- −5 -->
      <g transform="translate(23.085 439.368547) scale(0.16 -0.16)">
       <use xlink:href="#DejaVuSans-2212"/>
       <use xlink:href="#DejaVuSans-35" x="83.789062"/>
      </g>
     </g>
    </g>
    <g id="ytick_3">
     <g id="line2d_95">
      <path d="M 50.1725 363.190059 
L 1054.5725 363.190059 
" clip-path="url(#pe873ed8059)" style="fill: none; stroke-dasharray: 1.85,0.8; stroke-dashoffset: 0; stroke: #000000; stroke-opacity: 0.5; stroke-width: 0.5"/>
     </g>
     <g id="line2d_96">
      <g>
       <use xlink:href="#m79bbc07db9" x="50.1725" y="363.190059" style="stroke: #000000"/>
      </g>
     </g>
     <g id="line2d_97">
      <g>
       <use xlink:href="#mf466e1c1c8" x="1054.5725" y="363.190059" style="stroke: #000000"/>
      </g>
     </g>
     <g id="text_12">
      <!-- −4 -->
      <g transform="translate(23.085 369.268809) scale(0.16 -0.16)">
       <defs>
        <path id="DejaVuSans-34" d="M 2419 4116 
L 825 1625 
L 2419 1625 
L 2419 4116 
z
M 2253 4666 
L 3047 4666 
L 3047 1625 
L 3713 1625 
L 3713 1100 
L 3047 1100 
L 3047 0 
L 2419 0 
L 2419 1100 
L 313 1100 
L 313 1709 
L 2253 4666 
z
" transform="scale(0.015625)"/>
       </defs>
       <use xlink:href="#DejaVuSans-2212"/>
       <use xlink:href="#DejaVuSans-34" x="83.789062"/>
      </g>
     </g>
    </g>
    <g id="ytick_4">
     <g id="line2d_98">
      <path d="M 50.1725 293.090321 
L 1054.5725 293.090321 
" clip-path="url(#pe873ed8059)" style="fill: none; stroke-dasharray: 1.85,0.8; stroke-dashoffset: 0; stroke: #000000; stroke-opacity: 0.5; stroke-width: 0.5"/>
     </g>
     <g id="line2d_99">
      <g>
       <use xlink:href="#m79bbc07db9" x="50.1725" y="293.090321" style="stroke: #000000"/>
      </g>
     </g>
     <g id="line2d_100">
      <g>
       <use xlink:href="#mf466e1c1c8" x="1054.5725" y="293.090321" style="stroke: #000000"/>
      </g>
     </g>
     <g id="text_13">
      <!-- −3 -->
      <g transform="translate(23.085 299.169071) scale(0.16 -0.16)">
       <defs>
        <path id="DejaVuSans-33" d="M 2597 2516 
Q 3050 2419 3304 2112 
Q 3559 1806 3559 1356 
Q 3559 666 3084 287 
Q 2609 -91 1734 -91 
Q 1441 -91 1130 -33 
Q 819 25 488 141 
L 488 750 
Q 750 597 1062 519 
Q 1375 441 1716 441 
Q 2309 441 2620 675 
Q 2931 909 2931 1356 
Q 2931 1769 2642 2001 
Q 2353 2234 1838 2234 
L 1294 2234 
L 1294 2753 
L 1863 2753 
Q 2328 2753 2575 2939 
Q 2822 3125 2822 3475 
Q 2822 3834 2567 4026 
Q 2313 4219 1838 4219 
Q 1578 4219 1281 4162 
Q 984 4106 628 3988 
L 628 4550 
Q 988 4650 1302 4700 
Q 1616 4750 1894 4750 
Q 2613 4750 3031 4423 
Q 3450 4097 3450 3541 
Q 3450 3153 3228 2886 
Q 3006 2619 2597 2516 
z
" transform="scale(0.015625)"/>
       </defs>
       <use xlink:href="#DejaVuSans-2212"/>
       <use xlink:href="#DejaVuSans-33" x="83.789062"/>
      </g>
     </g>
    </g>
    <g id="ytick_5">
     <g id="line2d_101">
      <path d="M 50.1725 222.990583 
L 1054.5725 222.990583 
" clip-path="url(#pe873ed8059)" style="fill: none; stroke-dasharray: 1.85,0.8; stroke-dashoffset: 0; stroke: #000000; stroke-opacity: 0.5; stroke-width: 0.5"/>
     </g>
     <g id="line2d_102">
      <g>
       <use xlink:href="#m79bbc07db9" x="50.1725" y="222.990583" style="stroke: #000000"/>
      </g>
     </g>
     <g id="line2d_103">
      <g>
       <use xlink:href="#mf466e1c1c8" x="1054.5725" y="222.990583" style="stroke: #000000"/>
      </g>
     </g>
     <g id="text_14">
      <!-- −2 -->
      <g transform="translate(23.085 229.069333) scale(0.16 -0.16)">
       <use xlink:href="#DejaVuSans-2212"/>
       <use xlink:href="#DejaVuSans-32" x="83.789062"/>
      </g>
     </g>
    </g>
    <g id="ytick_6">
     <g id="line2d_104">
      <path d="M 50.1725 152.890844 
L 1054.5725 152.890844 
" clip-path="url(#pe873ed8059)" style="fill: none; stroke-dasharray: 1.85,0.8; stroke-dashoffset: 0; stroke: #000000; stroke-opacity: 0.5; stroke-width: 0.5"/>
     </g>
     <g id="line2d_105">
      <g>
       <use xlink:href="#m79bbc07db9" x="50.1725" y="152.890844" style="stroke: #000000"/>
      </g>
     </g>
     <g id="line2d_106">
      <g>
       <use xlink:href="#mf466e1c1c8" x="1054.5725" y="152.890844" style="stroke: #000000"/>
      </g>
     </g>
     <g id="text_15">
      <!-- −1 -->
      <g transform="translate(23.085 158.969594) scale(0.16 -0.16)">
       <use xlink:href="#DejaVuSans-2212"/>
       <use xlink:href="#DejaVuSans-31" x="83.789062"/>
      </g>
     </g>
    </g>
    <g id="ytick_7">
     <g id="line2d_107">
      <path d="M 50.1725 82.791106 
L 1054.5725 82.791106 
" clip-path="url(#pe873ed8059)" style="fill: none; stroke-dasharray: 1.85,0.8; stroke-dashoffset: 0; stroke: #000000; stroke-opacity: 0.5; stroke-width: 0.5"/>
     </g>
     <g id="line2d_108">
      <g>
       <use xlink:href="#m79bbc07db9" x="50.1725" y="82.791106" style="stroke: #000000"/>
      </g>
     </g>
     <g id="line2d_109">
      <g>
       <use xlink:href="#mf466e1c1c8" x="1054.5725" y="82.791106" style="stroke: #000000"/>
      </g>
     </g>
     <g id="text_16">
      <!-- 0 -->
      <g transform="translate(36.4925 88.869856) scale(0.16 -0.16)">
       <use xlink:href="#DejaVuSans-30"/>
      </g>
     </g>
    </g>
    <g id="ytick_8">
     <g id="line2d_110">
      <defs>
       <path id="m181619b936" d="M 0 0 
L 3 0 
" style="stroke: #000000"/>
      </defs>
      <g>
       <use xlink:href="#m181619b936" x="50.1725" y="517.409483" style="stroke: #000000"/>
      </g>
     </g>
     <g id="line2d_111">
      <defs>
       <path id="m60d25b3cea" d="M 0 0 
L -3 0 
" style="stroke: #000000"/>
      </defs>
      <g>
       <use xlink:href="#m60d25b3cea" x="1054.5725" y="517.409483" style="stroke: #000000"/>
      </g>
     </g>
    </g>
    <g id="ytick_9">
     <g id="line2d_112">
      <g>
       <use xlink:href="#m181619b936" x="50.1725" y="489.369588" style="stroke: #000000"/>
      </g>
     </g>
     <g id="line2d_113">
      <g>
       <use xlink:href="#m60d25b3cea" x="1054.5725" y="489.369588" style="stroke: #000000"/>
      </g>
     </g>
    </g>
    <g id="ytick_10">
     <g id="line2d_114">
      <g>
       <use xlink:href="#m181619b936" x="50.1725" y="475.34964" style="stroke: #000000"/>
      </g>
     </g>
     <g id="line2d_115">
      <g>
       <use xlink:href="#m60d25b3cea" x="1054.5725" y="475.34964" style="stroke: #000000"/>
      </g>
     </g>
    </g>
    <g id="ytick_11">
     <g id="line2d_116">
      <g>
       <use xlink:href="#m181619b936" x="50.1725" y="461.329693" style="stroke: #000000"/>
      </g>
     </g>
     <g id="line2d_117">
      <g>
       <use xlink:href="#m60d25b3cea" x="1054.5725" y="461.329693" style="stroke: #000000"/>
      </g>
     </g>
    </g>
    <g id="ytick_12">
     <g id="line2d_118">
      <g>
       <use xlink:href="#m181619b936" x="50.1725" y="447.309745" style="stroke: #000000"/>
      </g>
     </g>
     <g id="line2d_119">
      <g>
       <use xlink:href="#m60d25b3cea" x="1054.5725" y="447.309745" style="stroke: #000000"/>
      </g>
     </g>
    </g>
    <g id="ytick_13">
     <g id="line2d_120">
      <g>
       <use xlink:href="#m181619b936" x="50.1725" y="419.26985" style="stroke: #000000"/>
      </g>
     </g>
     <g id="line2d_121">
      <g>
       <use xlink:href="#m60d25b3cea" x="1054.5725" y="419.26985" style="stroke: #000000"/>
      </g>
     </g>
    </g>
    <g id="ytick_14">
     <g id="line2d_122">
      <g>
       <use xlink:href="#m181619b936" x="50.1725" y="405.249902" style="stroke: #000000"/>
      </g>
     </g>
     <g id="line2d_123">
      <g>
       <use xlink:href="#m60d25b3cea" x="1054.5725" y="405.249902" style="stroke: #000000"/>
      </g>
     </g>
    </g>
    <g id="ytick_15">
     <g id="line2d_124">
      <g>
       <use xlink:href="#m181619b936" x="50.1725" y="391.229954" style="stroke: #000000"/>
      </g>
     </g>
     <g id="line2d_125">
      <g>
       <use xlink:href="#m60d25b3cea" x="1054.5725" y="391.229954" style="stroke: #000000"/>
      </g>
     </g>
    </g>
    <g id="ytick_16">
     <g id="line2d_126">
      <g>
       <use xlink:href="#m181619b936" x="50.1725" y="377.210007" style="stroke: #000000"/>
      </g>
     </g>
     <g id="line2d_127">
      <g>
       <use xlink:href="#m60d25b3cea" x="1054.5725" y="377.210007" style="stroke: #000000"/>
      </g>
     </g>
    </g>
    <g id="ytick_17">
     <g id="line2d_128">
      <g>
       <use xlink:href="#m181619b936" x="50.1725" y="349.170111" style="stroke: #000000"/>
      </g>
     </g>
     <g id="line2d_129">
      <g>
       <use xlink:href="#m60d25b3cea" x="1054.5725" y="349.170111" style="stroke: #000000"/>
      </g>
     </g>
    </g>
    <g id="ytick_18">
     <g id="line2d_130">
      <g>
       <use xlink:href="#m181619b936" x="50.1725" y="335.150164" style="stroke: #000000"/>
      </g>
     </g>
     <g id="line2d_131">
      <g>
       <use xlink:href="#m60d25b3cea" x="1054.5725" y="335.150164" style="stroke: #000000"/>
      </g>
     </g>
    </g>
    <g id="ytick_19">
     <g id="line2d_132">
      <g>
       <use xlink:href="#m181619b936" x="50.1725" y="321.130216" style="stroke: #000000"/>
      </g>
     </g>
     <g id="line2d_133">
      <g>
       <use xlink:href="#m60d25b3cea" x="1054.5725" y="321.130216" style="stroke: #000000"/>
      </g>
     </g>
    </g>
    <g id="ytick_20">
     <g id="line2d_134">
      <g>
       <use xlink:href="#m181619b936" x="50.1725" y="307.110269" style="stroke: #000000"/>
      </g>
     </g>
     <g id="line2d_135">
      <g>
       <use xlink:href="#m60d25b3cea" x="1054.5725" y="307.110269" style="stroke: #000000"/>
      </g>
     </g>
    </g>
    <g id="ytick_21">
     <g id="line2d_136">
      <g>
       <use xlink:href="#m181619b936" x="50.1725" y="279.070373" style="stroke: #000000"/>
      </g>
     </g>
     <g id="line2d_137">
      <g>
       <use xlink:href="#m60d25b3cea" x="1054.5725" y="279.070373" style="stroke: #000000"/>
      </g>
     </g>
    </g>
    <g id="ytick_22">
     <g id="line2d_138">
      <g>
       <use xlink:href="#m181619b936" x="50.1725" y="265.050426" style="stroke: #000000"/>
      </g>
     </g>
     <g id="line2d_139">
      <g>
       <use xlink:href="#m60d25b3cea" x="1054.5725" y="265.050426" style="stroke: #000000"/>
      </g>
     </g>
    </g>
    <g id="ytick_23">
     <g id="line2d_140">
      <g>
       <use xlink:href="#m181619b936" x="50.1725" y="251.030478" style="stroke: #000000"/>
      </g>
     </g>
     <g id="line2d_141">
      <g>
       <use xlink:href="#m60d25b3cea" x="1054.5725" y="251.030478" style="stroke: #000000"/>
      </g>
     </g>
    </g>
    <g id="ytick_24">
     <g id="line2d_142">
      <g>
       <use xlink:href="#m181619b936" x="50.1725" y="237.01053" style="stroke: #000000"/>
      </g>
     </g>
     <g id="line2d_143">
      <g>
       <use xlink:href="#m60d25b3cea" x="1054.5725" y="237.01053" style="stroke: #000000"/>
      </g>
     </g>
    </g>
    <g id="ytick_25">
     <g id="line2d_144">
      <g>
       <use xlink:href="#m181619b936" x="50.1725" y="208.970635" style="stroke: #000000"/>
      </g>
     </g>
     <g id="line2d_145">
      <g>
       <use xlink:href="#m60d25b3cea" x="1054.5725" y="208.970635" style="stroke: #000000"/>
      </g>
     </g>
    </g>
    <g id="ytick_26">
     <g id="line2d_146">
      <g>
       <use xlink:href="#m181619b936" x="50.1725" y="194.950687" style="stroke: #000000"/>
      </g>
     </g>
     <g id="line2d_147">
      <g>
       <use xlink:href="#m60d25b3cea" x="1054.5725" y="194.950687" style="stroke: #000000"/>
      </g>
     </g>
    </g>
    <g id="ytick_27">
     <g id="line2d_148">
      <g>
       <use xlink:href="#m181619b936" x="50.1725" y="180.93074" style="stroke: #000000"/>
      </g>
     </g>
     <g id="line2d_149">
      <g>
       <use xlink:href="#m60d25b3cea" x="1054.5725" y="180.93074" style="stroke: #000000"/>
      </g>
     </g>
    </g>
    <g id="ytick_28">
     <g id="line2d_150">
      <g>
       <use xlink:href="#m181619b936" x="50.1725" y="166.910792" style="stroke: #000000"/>
      </g>
     </g>
     <g id="line2d_151">
      <g>
       <use xlink:href="#m60d25b3cea" x="1054.5725" y="166.910792" style="stroke: #000000"/>
      </g>
     </g>
    </g>
    <g id="ytick_29">
     <g id="line2d_152">
      <g>
       <use xlink:href="#m181619b936" x="50.1725" y="138.870897" style="stroke: #000000"/>
      </g>
     </g>
     <g id="line2d_153">
      <g>
       <use xlink:href="#m60d25b3cea" x="1054.5725" y="138.870897" style="stroke: #000000"/>
      </g>
     </g>
    </g>
    <g id="ytick_30">
     <g id="line2d_154">
      <g>
       <use xlink:href="#m181619b936" x="50.1725" y="124.850949" style="stroke: #000000"/>
      </g>
     </g>
     <g id="line2d_155">
      <g>
       <use xlink:href="#m60d25b3cea" x="1054.5725" y="124.850949" style="stroke: #000000"/>
      </g>
     </g>
    </g>
    <g id="ytick_31">
     <g id="line2d_156">
      <g>
       <use xlink:href="#m181619b936" x="50.1725" y="110.831001" style="stroke: #000000"/>
      </g>
     </g>
     <g id="line2d_157">
      <g>
       <use xlink:href="#m60d25b3cea" x="1054.5725" y="110.831001" style="stroke: #000000"/>
      </g>
     </g>
    </g>
    <g id="ytick_32">
     <g id="line2d_158">
      <g>
       <use xlink:href="#m181619b936" x="50.1725" y="96.811054" style="stroke: #000000"/>
      </g>
     </g>
     <g id="line2d_159">
      <g>
       <use xlink:href="#m60d25b3cea" x="1054.5725" y="96.811054" style="stroke: #000000"/>
      </g>
     </g>
    </g>
    <g id="ytick_33">
     <g id="line2d_160">
      <g>
       <use xlink:href="#m181619b936" x="50.1725" y="68.771158" style="stroke: #000000"/>
      </g>
     </g>
     <g id="line2d_161">
      <g>
       <use xlink:href="#m60d25b3cea" x="1054.5725" y="68.771158" style="stroke: #000000"/>
      </g>
     </g>
    </g>
    <g id="ytick_34">
     <g id="line2d_162">
      <g>
       <use xlink:href="#m181619b936" x="50.1725" y="54.751211" style="stroke: #000000"/>
      </g>
     </g>
     <g id="line2d_163">
      <g>
       <use xlink:href="#m60d25b3cea" x="1054.5725" y="54.751211" style="stroke: #000000"/>
      </g>
     </g>
    </g>
    <g id="ytick_35">
     <g id="line2d_164">
      <g>
       <use xlink:href="#m181619b936" x="50.1725" y="40.731263" style="stroke: #000000"/>
      </g>
     </g>
     <g id="line2d_165">
      <g>
       <use xlink:href="#m60d25b3cea" x="1054.5725" y="40.731263" style="stroke: #000000"/>
      </g>
     </g>
    </g>
    <g id="ytick_36">
     <g id="line2d_166">
      <g>
       <use xlink:href="#m181619b936" x="50.1725" y="26.711315" style="stroke: #000000"/>
      </g>
     </g>
     <g id="line2d_167">
      <g>
       <use xlink:href="#m60d25b3cea" x="1054.5725" y="26.711315" style="stroke: #000000"/>
      </g>
     </g>
    </g>
    <g id="text_17">
     <!-- Base Displacement -->
     <g transform="translate(15.7575 348.2575) rotate(-90) scale(0.16 -0.16)">
      <defs>
       <path id="DejaVuSans-42" d="M 1259 2228 
L 1259 519 
L 2272 519 
Q 2781 519 3026 730 
Q 3272 941 3272 1375 
Q 3272 1813 3026 2020 
Q 2781 2228 2272 2228 
L 1259 2228 
z
M 1259 4147 
L 1259 2741 
L 2194 2741 
Q 2656 2741 2882 2914 
Q 3109 3088 3109 3444 
Q 3109 3797 2882 3972 
Q 2656 4147 2194 4147 
L 1259 4147 
z
M 628 4666 
L 2241 4666 
Q 2963 4666 3353 4366 
Q 3744 4066 3744 3513 
Q 3744 3084 3544 2831 
Q 3344 2578 2956 2516 
Q 3422 2416 3680 2098 
Q 3938 1781 3938 1306 
Q 3938 681 3513 340 
Q 3088 0 2303 0 
L 628 0 
L 628 4666 
z
" transform="scale(0.015625)"/>
       <path id="DejaVuSans-61" d="M 2194 1759 
Q 1497 1759 1228 1600 
Q 959 1441 959 1056 
Q 959 750 1161 570 
Q 1363 391 1709 391 
Q 2188 391 2477 730 
Q 2766 1069 2766 1631 
L 2766 1759 
L 2194 1759 
z
M 3341 1997 
L 3341 0 
L 2766 0 
L 2766 531 
Q 2569 213 2275 61 
Q 1981 -91 1556 -91 
Q 1019 -91 701 211 
Q 384 513 384 1019 
Q 384 1609 779 1909 
Q 1175 2209 1959 2209 
L 2766 2209 
L 2766 2266 
Q 2766 2663 2505 2880 
Q 2244 3097 1772 3097 
Q 1472 3097 1187 3025 
Q 903 2953 641 2809 
L 641 3341 
Q 956 3463 1253 3523 
Q 1550 3584 1831 3584 
Q 2591 3584 2966 3190 
Q 3341 2797 3341 1997 
z
" transform="scale(0.015625)"/>
       <path id="DejaVuSans-44" d="M 1259 4147 
L 1259 519 
L 2022 519 
Q 2988 519 3436 956 
Q 3884 1394 3884 2338 
Q 3884 3275 3436 3711 
Q 2988 4147 2022 4147 
L 1259 4147 
z
M 628 4666 
L 1925 4666 
Q 3281 4666 3915 4102 
Q 4550 3538 4550 2338 
Q 4550 1131 3912 565 
Q 3275 0 1925 0 
L 628 0 
L 628 4666 
z
" transform="scale(0.015625)"/>
       <path id="DejaVuSans-70" d="M 1159 525 
L 1159 -1331 
L 581 -1331 
L 581 3500 
L 1159 3500 
L 1159 2969 
Q 1341 3281 1617 3432 
Q 1894 3584 2278 3584 
Q 2916 3584 3314 3078 
Q 3713 2572 3713 1747 
Q 3713 922 3314 415 
Q 2916 -91 2278 -91 
Q 1894 -91 1617 61 
Q 1341 213 1159 525 
z
M 3116 1747 
Q 3116 2381 2855 2742 
Q 2594 3103 2138 3103 
Q 1681 3103 1420 2742 
Q 1159 2381 1159 1747 
Q 1159 1113 1420 752 
Q 1681 391 2138 391 
Q 2594 391 2855 752 
Q 3116 1113 3116 1747 
z
" transform="scale(0.015625)"/>
       <path id="DejaVuSans-6c" d="M 603 4863 
L 1178 4863 
L 1178 0 
L 603 0 
L 603 4863 
z
" transform="scale(0.015625)"/>
       <path id="DejaVuSans-63" d="M 3122 3366 
L 3122 2828 
Q 2878 2963 2633 3030 
Q 2388 3097 2138 3097 
Q 1578 3097 1268 2742 
Q 959 2388 959 1747 
Q 959 1106 1268 751 
Q 1578 397 2138 397 
Q 2388 397 2633 464 
Q 2878 531 3122 666 
L 3122 134 
Q 2881 22 2623 -34 
Q 2366 -91 2075 -91 
Q 1284 -91 818 406 
Q 353 903 353 1747 
Q 353 2603 823 3093 
Q 1294 3584 2113 3584 
Q 2378 3584 2631 3529 
Q 2884 3475 3122 3366 
z
" transform="scale(0.015625)"/>
       <path id="DejaVuSans-6e" d="M 3513 2113 
L 3513 0 
L 2938 0 
L 2938 2094 
Q 2938 2591 2744 2837 
Q 2550 3084 2163 3084 
Q 1697 3084 1428 2787 
Q 1159 2491 1159 1978 
L 1159 0 
L 581 0 
L 581 3500 
L 1159 3500 
L 1159 2956 
Q 1366 3272 1645 3428 
Q 1925 3584 2291 3584 
Q 2894 3584 3203 3211 
Q 3513 2838 3513 2113 
z
" transform="scale(0.015625)"/>
       <path id="DejaVuSans-74" d="M 1172 4494 
L 1172 3500 
L 2356 3500 
L 2356 3053 
L 1172 3053 
L 1172 1153 
Q 1172 725 1289 603 
Q 1406 481 1766 481 
L 2356 481 
L 2356 0 
L 1766 0 
Q 1100 0 847 248 
Q 594 497 594 1153 
L 594 3053 
L 172 3053 
L 172 3500 
L 594 3500 
L 594 4494 
L 1172 4494 
z
" transform="scale(0.015625)"/>
      </defs>
      <use xlink:href="#DejaVuSans-42"/>
      <use xlink:href="#DejaVuSans-61" x="68.603516"/>
      <use xlink:href="#DejaVuSans-73" x="129.882812"/>
      <use xlink:href="#DejaVuSans-65" x="181.982422"/>
      <use xlink:href="#DejaVuSans-20" x="243.505859"/>
      <use xlink:href="#DejaVuSans-44" x="275.292969"/>
      <use xlink:href="#DejaVuSans-69" x="352.294922"/>
      <use xlink:href="#DejaVuSans-73" x="380.078125"/>
      <use xlink:href="#DejaVuSans-70" x="432.177734"/>
      <use xlink:href="#DejaVuSans-6c" x="495.654297"/>
      <use xlink:href="#DejaVuSans-61" x="523.4375"/>
      <use xlink:href="#DejaVuSans-63" x="584.716797"/>
      <use xlink:href="#DejaVuSans-65" x="639.697266"/>
      <use xlink:href="#DejaVuSans-6d" x="701.220703"/>
      <use xlink:href="#DejaVuSans-65" x="798.632812"/>
      <use xlink:href="#DejaVuSans-6e" x="860.15625"/>
      <use xlink:href="#DejaVuSans-74" x="923.535156"/>
     </g>
    </g>
    <g id="text_18">
     <!-- 1e−5 -->
     <g transform="translate(50.1725 18.7575) scale(0.16 -0.16)">
      <use xlink:href="#DejaVuSans-31"/>
      <use xlink:href="#DejaVuSans-65" x="63.623047"/>
      <use xlink:href="#DejaVuSans-2212" x="125.146484"/>
      <use xlink:href="#DejaVuSans-35" x="208.935547"/>
     </g>
    </g>
   </g>
   <g id="line2d_168">
    <path d="M 95.827045 82.791106 
L 100.612901 82.680242 
L 110.4365 82.31618 
L 111.695936 82.32758 
L 112.955371 82.063198 
L 115.474243 81.401788 
L 118.496889 81.126054 
L 119.504437 80.684185 
L 121.267647 79.782477 
L 122.023309 79.688971 
L 123.030857 79.859652 
L 124.290293 80.065888 
L 125.801616 80.132798 
L 126.557277 80.438253 
L 127.312939 81.082455 
L 129.579923 83.459706 
L 130.083697 83.67975 
L 130.839359 83.704422 
L 132.350682 83.59543 
L 133.106343 83.872809 
L 134.113892 84.578466 
L 135.12144 85.237703 
L 135.877102 85.446479 
L 136.380876 85.349891 
L 136.88465 85.046055 
L 138.395973 83.883429 
L 138.899748 83.812562 
L 139.403522 84.008621 
L 139.907296 84.482075 
L 140.914845 85.945581 
L 141.670506 86.902116 
L 142.174281 87.159131 
L 142.678055 87.056821 
L 143.181829 86.606245 
L 144.189378 85.111529 
L 144.945039 84.243352 
L 145.448813 84.008966 
L 145.952588 84.046297 
L 147.715798 84.638041 
L 148.219572 84.320004 
L 148.975234 83.369614 
L 149.982782 82.060446 
L 150.486556 81.83325 
L 150.738444 81.888368 
L 151.242218 82.339453 
L 151.745992 83.165606 
L 153.005428 85.562336 
L 153.509202 86.087508 
L 154.012976 86.21894 
L 154.516751 86.019014 
L 155.272412 85.350706 
L 156.279961 84.478422 
L 157.035622 84.193195 
L 158.546945 84.020818 
L 159.050719 83.706601 
L 159.554494 83.165667 
L 160.310155 81.9316 
L 162.073365 78.824295 
L 162.829027 77.983184 
L 163.332801 77.679861 
L 163.836575 77.636 
L 164.34035 77.874221 
L 164.844124 78.394632 
L 166.355447 80.514385 
L 166.607334 80.616292 
L 166.859221 80.548669 
L 167.111108 80.279117 
L 167.614882 79.043371 
L 168.118657 76.870054 
L 169.62998 69.282754 
L 169.881867 68.765759 
L 170.133754 68.629751 
L 170.385641 68.901491 
L 170.637528 69.596408 
L 171.141303 72.202549 
L 172.400738 80.97729 
L 172.652625 81.952482 
L 172.904513 82.437657 
L 173.1564 82.398441 
L 173.408287 81.825679 
L 173.660174 80.723439 
L 174.163948 77.070865 
L 175.423384 66.031516 
L 175.675271 64.863484 
L 175.927158 64.233775 
L 176.179045 64.14928 
L 176.430933 64.610425 
L 176.68282 65.607137 
L 177.186594 68.98902 
L 178.697917 81.140684 
L 179.201691 82.725477 
L 179.453578 82.966097 
L 179.705466 82.926408 
L 180.20924 82.341432 
L 180.713014 81.680753 
L 180.964901 81.540667 
L 181.216788 81.62016 
L 181.468676 81.967796 
L 181.720563 82.61578 
L 182.224337 84.866852 
L 182.728111 88.329797 
L 183.987547 98.369339 
L 184.491321 100.776195 
L 184.743208 101.441572 
L 184.995096 101.760631 
L 185.246983 101.770049 
L 185.49887 101.510719 
L 186.002644 100.36674 
L 187.010193 97.434563 
L 187.26208 96.991422 
L 187.513967 96.779456 
L 187.765854 96.811237 
L 188.017741 97.079915 
L 188.521516 98.203955 
L 189.529064 101.046072 
L 189.780951 101.471544 
L 190.032839 101.678006 
L 190.284726 101.642049 
L 190.536613 101.360785 
L 191.040387 100.143242 
L 191.796049 97.190742 
L 192.803597 93.30535 
L 193.307371 92.283029 
L 193.559259 92.050189 
L 193.811146 91.982067 
L 194.063033 92.058813 
L 194.566807 92.557981 
L 196.07813 94.605601 
L 196.330017 94.653777 
L 196.581904 94.524953 
L 196.833792 94.195461 
L 197.337566 92.891007 
L 197.84134 90.798536 
L 199.100776 85.153742 
L 199.352663 84.561279 
L 199.60455 84.281844 
L 199.856437 84.344855 
L 200.108324 84.759703 
L 200.612099 86.55982 
L 202.123422 93.845486 
L 202.627196 94.862546 
L 202.879083 95.00318 
L 203.13097 94.933582 
L 203.634745 94.355575 
L 204.642293 92.916662 
L 205.146067 92.658301 
L 205.649842 92.817271 
L 206.405503 93.315136 
L 206.65739 93.321333 
L 206.909277 93.153085 
L 207.161165 92.760722 
L 207.413052 92.093515 
L 207.916826 89.739549 
L 208.4206 85.705755 
L 208.924375 79.714695 
L 209.931923 63.584377 
L 210.687585 52.699105 
L 211.191359 47.927611 
L 211.695133 45.238151 
L 211.94702 44.613619 
L 212.198908 44.4375 
L 212.450795 44.691928 
L 212.702682 45.353514 
L 213.206456 47.67879 
L 214.214005 53.065227 
L 214.717779 54.369378 
L 214.969666 54.60659 
L 215.221553 54.632828 
L 215.725328 54.319256 
L 216.229102 54.001585 
L 216.480989 54.004583 
L 216.732876 54.162403 
L 217.23665 54.882472 
L 217.992312 56.064934 
L 218.244199 56.17088 
L 218.496086 56.003237 
L 218.747973 55.515148 
L 219.251748 53.647405 
L 220.007409 50.404478 
L 220.259296 49.889759 
L 220.511183 49.940191 
L 220.763071 50.728774 
L 221.014958 52.488739 
L 221.266845 55.629004 
L 221.518732 61.075133 
L 221.770619 71.249986 
L 222.022506 93.907111 
L 222.274393 147.856828 
L 223.030055 467.763631 
L 223.281942 487.981756 
L 223.533829 493.830862 
L 223.785716 496.802128 
L 224.037603 498.0375 
L 224.289491 497.879863 
L 224.541378 496.277014 
L 224.793265 492.748015 
L 225.045152 485.848853 
L 225.297039 471.161069 
L 225.548926 436.126425 
L 225.800813 362.502392 
L 226.304588 155.892696 
L 226.556475 123.472109 
L 226.808362 116.029812 
L 227.060249 112.116465 
L 227.312136 110.084997 
L 227.564024 109.362598 
L 227.815911 109.768673 
L 228.067798 111.288625 
L 228.319685 114.004374 
L 228.823459 123.216438 
L 229.579121 140.068889 
L 230.082895 146.812634 
L 230.586669 149.737229 
L 230.838556 150.104897 
L 231.090444 149.906213 
L 231.594218 148.400396 
L 232.097992 146.691064 
L 232.349879 146.246784 
L 232.601766 146.266844 
L 232.853654 146.841965 
L 233.105541 148.039217 
L 233.609315 152.455797 
L 235.372525 173.323711 
L 235.624412 174.399804 
L 235.876299 174.934692 
L 236.128187 175.011407 
L 236.380074 174.732664 
L 237.639509 172.231912 
L 237.891397 172.148295 
L 238.143284 172.259821 
L 239.150832 173.278432 
L 239.402719 173.212184 
L 239.654607 172.816077 
L 239.906494 171.98439 
L 240.158381 170.610147 
L 240.662155 165.864591 
L 241.417817 154.021363 
L 242.173478 143.111574 
L 242.677252 139.424391 
L 242.929139 138.679289 
L 243.181027 138.600786 
L 243.432914 139.145809 
L 243.936688 141.888219 
L 245.196124 151.647894 
L 245.699898 153.630047 
L 245.951785 153.989043 
L 246.203672 153.948116 
L 246.45556 153.549939 
L 246.959334 152.009412 
L 247.714995 149.516969 
L 247.966882 149.027694 
L 248.21877 148.783952 
L 248.470657 148.765983 
L 248.974431 149.147102 
L 249.478205 149.565236 
L 249.730092 149.591563 
L 249.98198 149.398568 
L 250.233867 148.922895 
L 250.737641 146.92492 
L 251.241415 143.428531 
L 252.752738 130.467676 
L 253.256513 128.451338 
L 253.5084 128.105319 
L 253.760287 128.183449 
L 254.012174 128.653046 
L 254.515948 130.542809 
L 255.775384 136.393603 
L 256.279158 137.715204 
L 256.531045 138.06286 
L 256.782933 138.20046 
L 257.03482 138.137433 
L 257.538594 137.511445 
L 258.294255 135.889405 
L 260.56124 130.325796 
L 262.32445 124.880445 
L 262.576337 124.577995 
L 262.828224 124.513346 
L 263.080111 124.703175 
L 263.331998 125.150873 
L 263.835773 126.695466 
L 264.843321 130.449406 
L 265.347096 131.399555 
L 265.598983 131.497569 
L 265.85087 131.359255 
L 266.354644 130.576113 
L 266.858418 129.663209 
L 267.110306 129.394033 
L 267.362193 129.369369 
L 267.61408 129.666945 
L 267.865967 130.350356 
L 268.369741 133.008082 
L 268.873516 137.322399 
L 270.384839 152.027915 
L 270.888613 154.124427 
L 271.1405 154.443084 
L 271.392387 154.304854 
L 271.644274 153.74355 
L 272.148049 151.554087 
L 273.659371 142.919351 
L 274.163146 141.518464 
L 274.415033 141.18559 
L 274.66692 141.043732 
L 275.170694 141.108461 
L 275.674469 141.225884 
L 276.178243 141.044102 
L 276.682017 140.421052 
L 278.445227 137.450013 
L 278.697114 137.386759 
L 279.200889 137.610898 
L 279.704663 138.212057 
L 280.712212 140.031356 
L 281.71976 142.231895 
L 282.475422 144.626858 
L 283.231083 147.957797 
L 284.238632 152.649092 
L 284.742406 154.212039 
L 284.994293 154.646838 
L 285.24618 154.823668 
L 285.498067 154.739899 
L 285.749955 154.410109 
L 286.253729 153.154263 
L 288.016939 147.446577 
L 288.520713 146.586424 
L 289.024487 146.217658 
L 289.528262 146.214408 
L 290.032036 146.44514 
L 291.795246 147.777237 
L 292.550908 148.482395 
L 293.054682 149.242392 
L 293.810343 150.857607 
L 294.817892 153.09427 
L 295.321666 153.598164 
L 295.573553 153.584807 
L 295.82544 153.38785 
L 296.329215 152.494662 
L 297.840538 148.943963 
L 298.344312 148.629597 
L 298.848086 148.839317 
L 299.603748 149.356469 
L 299.855635 149.347213 
L 300.107522 149.171217 
L 300.359409 148.80571 
L 300.863183 147.483481 
L 301.618845 144.301089 
L 302.626393 140.117922 
L 303.130168 139.057781 
L 303.382055 138.889674 
L 303.633942 138.951461 
L 304.137716 139.596554 
L 304.893378 140.900157 
L 305.145265 141.119398 
L 305.397152 141.110078 
L 305.649039 140.834048 
L 305.900926 140.27172 
L 306.404701 138.292125 
L 307.916024 130.087725 
L 308.167911 129.406894 
L 308.419798 129.113078 
L 308.671685 129.239309 
L 308.923572 129.800526 
L 309.427346 132.195097 
L 310.183008 138.263 
L 310.938669 144.484018 
L 311.442444 147.000854 
L 311.694331 147.584309 
L 311.946218 147.700049 
L 312.198105 147.357472 
L 312.449992 146.583476 
L 312.953766 143.963838 
L 314.213202 136.08391 
L 314.716976 134.702428 
L 314.968864 134.614368 
L 315.220751 134.937321 
L 315.472638 135.660734 
L 315.976412 138.161571 
L 317.487735 147.26579 
L 317.739622 147.945367 
L 317.991509 148.248553 
L 318.243397 148.17617 
L 318.495284 147.744091 
L 318.999058 145.950924 
L 320.258494 139.877822 
L 320.762268 138.722194 
L 321.014155 138.601478 
L 321.266042 138.789336 
L 321.517929 139.274499 
L 322.021704 141.042138 
L 323.029252 146.383004 
L 323.784914 150.003928 
L 324.288688 151.683107 
L 324.792462 152.670351 
L 325.04435 152.871867 
L 325.296237 152.881648 
L 325.548124 152.707187 
L 326.051898 151.824855 
L 326.555672 150.294799 
L 327.311334 147.095578 
L 328.822657 140.388522 
L 329.326431 138.909072 
L 329.830205 138.001166 
L 330.33398 137.665852 
L 330.585867 137.691191 
L 331.089641 138.061261 
L 331.845303 139.06359 
L 332.852851 140.400819 
L 333.356625 140.808697 
L 334.112287 141.069889 
L 335.119835 141.359162 
L 335.875497 141.881104 
L 337.38682 143.144824 
L 337.890594 143.269666 
L 338.394368 143.160164 
L 338.898143 142.854876 
L 339.401917 142.339887 
L 340.157578 141.196575 
L 341.668901 138.64832 
L 342.172676 138.223546 
L 342.424563 138.197945 
L 342.67645 138.33004 
L 342.928337 138.638367 
L 343.432111 139.80687 
L 343.935886 141.64589 
L 345.699096 149.345853 
L 346.20287 150.219861 
L 346.454757 150.278825 
L 346.706644 150.085912 
L 347.210418 148.995837 
L 347.96608 146.164126 
L 348.721741 143.304361 
L 349.225516 142.124474 
L 349.477403 141.844788 
L 349.72929 141.776114 
L 349.981177 141.907862 
L 350.484951 142.703718 
L 351.240613 144.857778 
L 351.996274 147.065132 
L 352.500049 148.002606 
L 352.751936 148.228922 
L 353.003823 148.282678 
L 353.25571 148.173994 
L 353.759484 147.564006 
L 355.270807 145.134357 
L 355.774582 144.987851 
L 356.278356 145.294041 
L 357.789679 147.005329 
L 358.293453 147.029349 
L 358.797227 146.616399 
L 359.301002 145.812341 
L 361.064212 142.495106 
L 361.567986 142.282764 
L 362.07176 142.574061 
L 362.575534 143.259611 
L 364.338745 146.138571 
L 364.842519 146.467102 
L 365.346293 146.574644 
L 366.101955 146.484998 
L 367.109503 146.16652 
L 367.865165 145.679479 
L 369.376487 144.474661 
L 369.880262 144.448481 
L 370.384036 144.763834 
L 372.147246 146.593947 
L 372.399133 146.597994 
L 372.902908 146.26164 
L 373.406682 145.52234 
L 374.666118 143.33485 
L 375.169892 142.931878 
L 375.673666 142.921565 
L 376.17744 143.195646 
L 377.436876 144.072099 
L 377.94065 144.173966 
L 379.451973 144.200129 
L 380.207635 144.525384 
L 381.467071 145.179339 
L 381.970845 145.090668 
L 382.474619 144.664472 
L 383.985942 142.718095 
L 384.237829 142.704981 
L 384.489716 142.874264 
L 384.993491 143.795337 
L 385.497265 145.387125 
L 386.504813 148.930866 
L 387.008588 149.8488 
L 387.260475 149.922641 
L 387.512362 149.714524 
L 387.764249 149.224682 
L 388.268024 147.480586 
L 390.031234 139.679005 
L 390.535008 138.843945 
L 390.786895 138.746424 
L 391.038782 138.835454 
L 391.542556 139.44845 
L 392.550105 141.474158 
L 393.557654 143.250262 
L 394.061428 143.789498 
L 394.565202 143.982216 
L 395.068976 143.830117 
L 395.572751 143.366458 
L 397.335961 141.173398 
L 397.587848 141.135504 
L 397.839735 141.23872 
L 398.343509 141.883433 
L 398.847284 143.035286 
L 400.610494 147.808042 
L 400.862381 148.07223 
L 401.114268 148.147333 
L 401.366155 148.021971 
L 401.618042 147.693875 
L 402.121817 146.472008 
L 402.877478 143.618635 
L 403.885027 139.874543 
L 404.388801 138.947107 
L 404.640688 138.826209 
L 404.892575 138.943826 
L 405.144462 139.290162 
L 405.648237 140.542018 
L 406.907672 144.303858 
L 407.15956 144.676157 
L 407.411447 144.828215 
L 407.663334 144.755484 
L 407.915221 144.467215 
L 408.418995 143.335462 
L 410.182205 138.304951 
L 410.68598 137.82039 
L 410.937867 137.828188 
L 411.189754 138.001408 
L 411.693528 138.801796 
L 412.44919 140.801964 
L 413.456738 143.511608 
L 413.960513 144.234175 
L 414.2124 144.348776 
L 414.464287 144.283296 
L 414.716174 144.038216 
L 415.219948 143.05821 
L 416.227497 139.997242 
L 416.983158 138.038975 
L 417.486933 137.476875 
L 417.73882 137.469748 
L 417.990707 137.656838 
L 418.494481 138.599248 
L 419.250143 141.026445 
L 420.257691 144.429737 
L 420.761466 145.452047 
L 421.013353 145.697833 
L 421.26524 145.750707 
L 421.517127 145.610993 
L 422.020901 144.806451 
L 422.776563 142.666444 
L 423.784111 139.666108 
L 424.287886 138.839686 
L 424.539773 138.692558 
L 424.79166 138.73665 
L 425.043547 138.964873 
L 425.547321 139.90068 
L 427.562418 144.901436 
L 428.066193 145.262232 
L 428.569967 145.201602 
L 429.829403 144.608835 
L 430.333177 144.67762 
L 430.836951 145.05534 
L 431.592613 146.087088 
L 433.60771 149.242375 
L 434.363371 149.831449 
L 435.119033 150.099684 
L 437.889792 150.493198 
L 438.393566 150.212496 
L 438.89734 149.635294 
L 439.401114 148.713361 
L 440.66055 145.64288 
L 441.416212 144.057818 
L 441.919986 143.46549 
L 442.42376 143.309539 
L 442.927534 143.526129 
L 443.935083 144.48992 
L 444.438857 144.882883 
L 444.942632 145.000461 
L 445.446406 144.7717 
L 445.95018 144.20376 
L 446.705842 142.872813 
L 447.71339 141.021178 
L 448.217165 140.515059 
L 448.469052 140.437626 
L 448.720939 140.489134 
L 449.224713 140.977986 
L 449.728487 141.924673 
L 451.23981 145.309489 
L 451.743585 145.737833 
L 451.995472 145.731814 
L 452.247359 145.579887 
L 452.751133 144.892439 
L 454.514343 141.552914 
L 455.018118 141.242566 
L 455.521892 141.343692 
L 456.277553 141.944841 
L 457.033215 142.537439 
L 457.536989 142.663975 
L 458.040763 142.495188 
L 459.552086 141.387114 
L 460.055861 141.47352 
L 460.559635 141.952362 
L 462.322845 144.379127 
L 462.574732 144.457221 
L 463.078506 144.267386 
L 463.582281 143.691503 
L 464.841716 141.924385 
L 465.345491 141.631998 
L 465.849265 141.679845 
L 466.604926 142.166365 
L 467.360588 142.648779 
L 467.864362 142.693559 
L 468.368136 142.454473 
L 469.123798 141.722486 
L 469.879459 140.994887 
L 470.383234 140.813795 
L 470.635121 140.878968 
L 471.138895 141.358488 
L 471.642669 142.281238 
L 473.153992 145.710226 
L 473.657766 146.201781 
L 473.909654 146.208861 
L 474.161541 146.040629 
L 474.665315 145.205793 
L 475.420976 143.062193 
L 476.428525 140.066596 
L 476.932299 139.134273 
L 477.184187 138.894816 
L 477.436074 138.809593 
L 477.687961 138.86818 
L 478.191735 139.350567 
L 479.199284 141.058882 
L 479.954945 142.062047 
L 480.458719 142.30518 
L 480.962494 142.179268 
L 481.466268 141.743359 
L 482.725704 140.436125 
L 482.977591 140.363745 
L 483.229478 140.419815 
L 483.481365 140.625467 
L 483.985139 141.529201 
L 484.488914 143.063725 
L 486.252124 149.509181 
L 486.755898 150.29689 
L 487.007785 150.402826 
L 487.259672 150.328005 
L 487.763447 149.738639 
L 489.778544 146.343368 
L 490.282318 146.00851 
L 491.03798 145.823822 
L 492.045528 145.617872 
L 493.053077 145.145117 
L 493.808738 144.803933 
L 494.312513 144.766813 
L 494.816287 144.971442 
L 495.320061 145.43931 
L 496.075723 146.548321 
L 497.083271 147.997964 
L 497.587045 148.279342 
L 497.838933 148.235822 
L 498.342707 147.772952 
L 499.098368 146.417242 
L 500.357804 143.943442 
L 500.861578 143.353873 
L 501.365353 143.071694 
L 503.128563 142.636651 
L 504.136111 141.946999 
L 505.14366 141.302383 
L 505.899321 141.113238 
L 506.654983 141.228929 
L 507.410644 141.589138 
L 508.166306 142.186646 
L 509.425741 143.589123 
L 510.181403 144.307552 
L 510.685177 144.510426 
L 511.188951 144.433134 
L 511.692726 144.080449 
L 512.448387 143.18154 
L 513.707823 141.636445 
L 514.211597 141.342118 
L 514.715371 141.384847 
L 515.219146 141.800481 
L 515.72292 142.566354 
L 517.48613 145.796163 
L 517.989904 146.204491 
L 518.493679 146.264308 
L 519.24934 145.926517 
L 520.005002 145.572408 
L 520.760663 145.459669 
L 522.020099 145.370064 
L 523.027647 144.932515 
L 523.783309 144.616068 
L 524.287083 144.562997 
L 524.790857 144.716237 
L 525.546519 145.262395 
L 526.554067 146.073508 
L 527.057842 146.280093 
L 527.561616 146.286809 
L 528.317277 145.967175 
L 529.8286 144.873129 
L 531.339923 143.617672 
L 531.843697 143.003677 
L 532.347472 142.127584 
L 532.851246 140.895794 
L 533.606908 138.427192 
L 534.866343 134.143924 
L 535.370118 133.197888 
L 535.622005 133.021777 
L 535.873892 133.066825 
L 536.125779 133.336187 
L 536.629553 134.509594 
L 537.385215 137.381397 
L 538.392763 141.411189 
L 538.896538 142.824563 
L 539.400312 143.609087 
L 539.652199 143.762171 
L 539.904086 143.776479 
L 540.407861 143.486494 
L 541.919183 142.138524 
L 542.422958 142.022151 
L 544.186168 141.977845 
L 544.689942 141.531435 
L 545.445603 140.390493 
L 546.201265 139.248752 
L 546.705039 138.851171 
L 546.956926 138.817305 
L 547.208813 138.911971 
L 547.712588 139.497701 
L 548.216362 140.521726 
L 549.979572 144.74402 
L 550.483346 145.432427 
L 550.987121 145.80925 
L 551.742782 146.01185 
L 552.750331 146.259497 
L 553.505992 146.772754 
L 554.765428 148.142337 
L 555.772976 149.068655 
L 556.276751 149.305799 
L 556.780525 149.348687 
L 557.284299 149.204315 
L 558.039961 148.706071 
L 559.803171 147.240593 
L 560.558832 146.957148 
L 563.077704 146.453221 
L 563.833365 145.875845 
L 564.589027 144.93954 
L 565.596575 143.255269 
L 567.359785 140.08226 
L 567.86356 139.505115 
L 568.367334 139.213278 
L 568.871108 139.24161 
L 569.374882 139.55553 
L 570.130544 140.399595 
L 571.38998 142.236462 
L 572.901303 145.003784 
L 574.412625 147.71942 
L 575.168287 148.669155 
L 575.923948 149.189865 
L 576.427723 149.308176 
L 577.183384 149.19472 
L 578.190933 148.92397 
L 578.946594 149.009395 
L 579.702255 149.372906 
L 580.709804 149.958184 
L 581.213578 149.997487 
L 581.717353 149.769652 
L 582.221127 149.293521 
L 583.228676 147.907496 
L 584.236224 146.670745 
L 584.991886 146.184165 
L 586.755096 145.467864 
L 587.25887 144.976512 
L 588.014531 143.859024 
L 589.525854 140.949953 
L 590.533403 139.250282 
L 591.289064 138.457013 
L 591.792839 138.212706 
L 592.296613 138.19619 
L 592.800387 138.374033 
L 594.563597 139.27699 
L 595.319259 139.219617 
L 596.326807 138.830642 
L 598.090017 138.056829 
L 598.593792 138.045861 
L 599.349453 138.250473 
L 600.105114 138.675479 
L 601.36455 139.456305 
L 602.120212 139.628768 
L 603.379647 139.712613 
L 603.883422 139.932198 
L 604.387196 140.333417 
L 606.402293 142.411736 
L 606.906067 142.395432 
L 607.409842 142.090096 
L 608.669277 141.042011 
L 609.173052 140.968621 
L 609.676826 141.235983 
L 610.1806 141.830033 
L 612.195697 144.869246 
L 612.699472 145.072868 
L 613.203246 144.982477 
L 614.966456 144.135717 
L 615.47023 144.23382 
L 616.225892 144.766553 
L 616.981553 145.358905 
L 617.485328 145.512906 
L 617.989102 145.32023 
L 618.492876 144.739541 
L 618.99665 143.791055 
L 620.759861 139.826483 
L 621.263635 139.31292 
L 621.515522 139.237888 
L 622.019296 139.430072 
L 622.523071 139.965397 
L 623.782506 141.515157 
L 624.286281 141.803129 
L 624.790055 141.805147 
L 625.293829 141.556713 
L 626.805152 140.407783 
L 627.308926 140.36632 
L 627.812701 140.671923 
L 628.316475 141.36974 
L 629.072136 143.063343 
L 630.835346 147.577615 
L 631.339121 148.362959 
L 631.842895 148.757994 
L 632.346669 148.786827 
L 632.850444 148.550929 
L 635.117428 147.042842 
L 636.376864 146.639118 
L 636.880638 146.279437 
L 637.636299 145.366231 
L 638.895735 143.66764 
L 639.399509 143.464279 
L 639.651397 143.550783 
L 640.155171 144.129464 
L 640.658945 145.216131 
L 641.414607 147.518627 
L 642.674042 151.453145 
L 643.429704 152.977257 
L 643.933478 153.590547 
L 644.437252 153.938297 
L 645.192914 154.188974 
L 647.711785 154.596144 
L 648.21556 154.324258 
L 648.719334 153.771676 
L 649.223108 152.920721 
L 649.97877 151.096376 
L 651.74198 146.240873 
L 652.245754 145.330176 
L 652.749528 144.737443 
L 653.50519 144.281092 
L 654.512738 143.877757 
L 655.520287 143.129664 
L 656.275948 142.69037 
L 656.779723 142.672388 
L 657.283497 142.967051 
L 657.787271 143.577093 
L 659.550481 146.318692 
L 660.054255 146.599245 
L 660.55803 146.475363 
L 661.061804 145.975758 
L 661.817466 144.721639 
L 663.328788 141.890347 
L 664.08445 140.921226 
L 666.855208 137.969758 
L 669.625967 133.927569 
L 670.129741 133.634034 
L 670.633516 133.537791 
L 671.389177 133.668515 
L 672.9005 134.053717 
L 673.656161 133.962068 
L 675.167484 133.618218 
L 675.671259 133.821688 
L 676.175033 134.33572 
L 676.678807 135.170161 
L 677.686356 137.528999 
L 678.442017 139.181472 
L 678.945792 139.854768 
L 679.449566 140.07282 
L 679.95334 139.888323 
L 681.212776 139.007422 
L 681.71655 139.074115 
L 682.220324 139.572958 
L 682.724099 140.476907 
L 684.235422 143.676083 
L 684.739196 144.22618 
L 685.24297 144.385828 
L 685.746745 144.238692 
L 686.754293 143.813428 
L 687.258067 143.982319 
L 687.761842 144.570589 
L 688.265616 145.569957 
L 690.280713 150.236164 
L 690.784487 150.740895 
L 691.288262 150.936982 
L 692.547697 151.11973 
L 693.051472 151.514523 
L 693.555246 152.203869 
L 695.570343 155.559186 
L 696.074118 155.715184 
L 696.577892 155.475822 
L 697.081666 154.919661 
L 699.096763 152.182497 
L 699.600538 151.900732 
L 700.104312 151.812428 
L 700.859973 151.946559 
L 701.615635 152.067692 
L 702.119409 151.917948 
L 702.623183 151.510852 
L 703.126958 150.82953 
L 703.882619 149.361065 
L 706.149603 144.474756 
L 706.905265 143.532149 
L 707.409039 143.216062 
L 707.912813 143.150763 
L 708.416588 143.300312 
L 709.676024 144.064542 
L 710.431685 144.353901 
L 710.935459 144.265064 
L 711.439234 143.900627 
L 712.194895 142.92935 
L 713.454331 141.060667 
L 714.209992 140.351239 
L 715.217541 139.802801 
L 715.973202 139.325625 
L 716.728864 138.534495 
L 717.988299 137.077896 
L 718.492074 136.744185 
L 718.995848 136.656636 
L 719.499622 136.776494 
L 721.010945 137.396819 
L 721.514719 137.242778 
L 722.018494 136.822373 
L 723.781704 134.994613 
L 724.285478 134.958921 
L 724.789252 135.306646 
L 725.293027 136.020912 
L 726.048688 137.560821 
L 727.308124 140.853655 
L 729.323221 146.278532 
L 730.078882 147.665601 
L 730.582657 148.168307 
L 731.086431 148.312754 
L 731.590205 148.130344 
L 732.345867 147.425065 
L 733.353415 146.472223 
L 733.85719 146.284405 
L 734.360964 146.361625 
L 735.872287 147.010747 
L 736.376061 146.814425 
L 736.879835 146.259704 
L 737.635497 144.836988 
L 738.643045 142.846344 
L 739.14682 142.337422 
L 739.398707 142.291759 
L 739.650594 142.40096 
L 740.154368 143.061198 
L 740.658143 144.209186 
L 742.421353 149.018098 
L 742.925127 149.781748 
L 743.428901 150.161212 
L 743.932676 150.240428 
L 745.695886 150.122211 
L 746.955321 150.303138 
L 747.459096 150.098133 
L 747.96287 149.49757 
L 748.466644 148.37349 
L 748.970418 146.697899 
L 749.977967 142.242631 
L 750.733629 139.133872 
L 751.237403 137.830634 
L 751.48929 137.478407 
L 751.741177 137.333748 
L 751.993064 137.391782 
L 752.244951 137.63771 
L 752.748726 138.581581 
L 754.260049 142.075415 
L 754.763823 142.52609 
L 755.267597 142.48838 
L 755.771371 142.104435 
L 756.77892 141.207888 
L 757.282694 141.162797 
L 757.786469 141.60087 
L 758.290243 142.513083 
L 760.053453 146.520538 
L 760.557227 146.912717 
L 760.809114 146.899665 
L 761.312889 146.481546 
L 762.06855 145.182231 
L 762.824212 143.815547 
L 763.327986 143.257223 
L 763.83176 143.119697 
L 764.335534 143.385764 
L 765.343083 144.524402 
L 765.846857 144.995424 
L 766.350632 145.15693 
L 766.854406 144.905859 
L 767.35818 144.27397 
L 768.365729 142.364869 
L 769.12139 141.156602 
L 769.625165 140.805909 
L 769.877052 140.819175 
L 770.128939 140.968581 
L 770.632713 141.651153 
L 771.388375 143.418307 
L 773.151585 148.258135 
L 773.655359 149.141854 
L 774.159133 149.653415 
L 774.662908 149.801319 
L 775.166682 149.594653 
L 775.670456 149.050793 
L 776.17423 148.220748 
L 776.929892 146.50596 
L 779.196876 140.705347 
L 779.952538 139.582939 
L 780.456312 139.145427 
L 781.211973 138.844242 
L 784.486506 138.064682 
L 785.745942 137.691818 
L 786.249716 137.773313 
L 786.753491 138.137198 
L 787.257265 138.804897 
L 788.012926 140.239493 
L 789.272362 142.746305 
L 789.776136 143.40984 
L 790.279911 143.786202 
L 790.783685 143.888636 
L 791.287459 143.759035 
L 795.065766 141.998618 
L 795.821428 141.94883 
L 796.325202 142.095836 
L 796.828976 142.440172 
L 797.332751 143.034167 
L 798.088412 144.379479 
L 799.599735 147.41228 
L 800.103509 147.959297 
L 800.607284 148.088634 
L 801.111058 147.819563 
L 801.866719 146.894248 
L 802.622381 145.92446 
L 803.126155 145.525883 
L 803.629929 145.435939 
L 804.133704 145.647293 
L 805.896914 146.928433 
L 806.400688 146.916681 
L 806.904462 146.647991 
L 808.667672 145.238614 
L 809.171447 145.140492 
L 809.675221 145.25583 
L 810.68277 145.878521 
L 811.438431 146.282284 
L 812.194092 146.395359 
L 812.949754 146.205051 
L 819.246933 143.557648 
L 820.758255 143.543871 
L 821.513917 143.718985 
L 822.017691 143.979614 
L 822.521466 144.435094 
L 823.02524 145.153317 
L 825.292224 149.031435 
L 825.795998 149.373245 
L 826.299773 149.483819 
L 829.070531 149.370227 
L 829.574306 149.093916 
L 830.07808 148.475086 
L 830.581854 147.506303 
L 831.337516 145.536513 
L 832.345064 142.782487 
L 832.848839 141.8785 
L 833.352613 141.449406 
L 833.856387 141.492269 
L 834.360161 141.871018 
L 835.36771 142.709458 
L 835.871484 142.745491 
L 836.375259 142.364782 
L 836.879033 141.599567 
L 838.642243 138.33146 
L 839.146017 137.967936 
L 839.649792 138.008683 
L 840.153566 138.399238 
L 842.168663 140.715867 
L 842.672437 140.946912 
L 843.428099 141.037759 
L 844.687534 141.104132 
L 845.94697 141.528173 
L 846.954519 141.798798 
L 849.47339 142.158493 
L 849.977165 142.514593 
L 850.480939 143.092495 
L 851.2366 144.353101 
L 852.99981 147.745296 
L 853.503585 148.348967 
L 854.007359 148.609943 
L 854.511133 148.50751 
L 855.014908 148.091735 
L 855.770569 147.103308 
L 857.281892 144.96795 
L 860.05265 141.731993 
L 862.571522 137.370061 
L 863.075296 137.196833 
L 863.579071 137.452741 
L 864.082845 138.118627 
L 864.838506 139.698033 
L 866.349829 143.177981 
L 867.105491 144.362017 
L 867.861152 145.093734 
L 869.372475 146.076401 
L 870.380024 146.528374 
L 870.883798 146.600464 
L 871.387572 146.500421 
L 871.891346 146.218696 
L 872.898895 145.288937 
L 873.654556 144.661129 
L 874.158331 144.438831 
L 874.662105 144.432389 
L 875.417766 144.749005 
L 876.425315 145.245141 
L 876.929089 145.295132 
L 877.432864 145.134187 
L 878.188525 144.560506 
L 879.447961 143.535614 
L 879.951735 143.369224 
L 880.455509 143.430094 
L 880.959284 143.712166 
L 881.714945 144.499833 
L 883.981929 147.534079 
L 884.485704 147.769065 
L 884.989478 147.745916 
L 885.493252 147.488565 
L 886.248914 146.793107 
L 887.50835 145.578775 
L 888.264011 145.179154 
L 889.019672 145.091283 
L 890.027221 145.297254 
L 891.286657 145.572397 
L 892.042318 145.467383 
L 893.049867 144.997767 
L 894.057415 144.568615 
L 894.813077 144.499051 
L 897.331948 144.574003 
L 898.591384 144.11015 
L 899.85082 143.707172 
L 900.606481 143.664688 
L 901.362143 143.826576 
L 902.369691 144.338915 
L 903.881014 145.190949 
L 904.636676 145.295929 
L 905.644224 145.129456 
L 907.155547 144.85537 
L 909.422531 144.885939 
L 909.926306 144.65154 
L 910.681967 143.993218 
L 912.948951 141.742742 
L 913.704613 141.340432 
L 914.712161 141.062182 
L 917.48292 140.724058 
L 918.238582 140.7174 
L 919.24613 140.973775 
L 920.757453 141.457477 
L 921.513114 141.432004 
L 922.268776 141.1681 
L 923.780099 140.451547 
L 924.283873 140.419996 
L 924.787647 140.602808 
L 925.291422 141.019385 
L 926.047083 142.028467 
L 928.06218 145.188735 
L 928.817842 145.822129 
L 929.573503 146.083233 
L 930.329165 146.127387 
L 931.5886 145.906933 
L 932.848036 145.476511 
L 935.11502 144.631453 
L 936.374456 144.038316 
L 937.633892 143.121986 
L 939.648989 141.549377 
L 940.40465 141.203708 
L 941.160312 141.108266 
L 941.915973 141.30031 
L 942.923522 141.884746 
L 944.434845 142.843462 
L 945.442393 143.196069 
L 947.457491 143.751925 
L 948.213152 144.241766 
L 949.220701 145.228644 
L 950.983911 147.082127 
L 951.739572 147.481685 
L 952.495234 147.549677 
L 954.762218 147.3892 
L 956.021654 147.354767 
L 956.777315 147.048806 
L 957.784864 146.251609 
L 959.548074 144.67063 
L 960.303735 144.307477 
L 961.311284 144.098956 
L 962.822607 143.8407 
L 966.600914 142.741911 
L 968.112237 142.402025 
L 971.134882 141.369749 
L 971.890544 141.426403 
L 972.898092 141.74437 
L 978.691497 144.082883 
L 980.454707 144.389232 
L 982.721691 144.582498 
L 990.026418 144.494391 
L 995.567936 144.167464 
L 1000.605679 143.993841 
L 1008.666067 143.966724 
L 1008.917955 143.9681 
L 1008.917955 143.9681 
" clip-path="url(#pe873ed8059)" style="fill: none; stroke: #0c5da5; stroke-width: 2; stroke-linecap: square"/>
   </g>
   <g id="patch_3">
    <path d="M 50.1725 520.7175 
L 50.1725 21.7575 
" style="fill: none; stroke: #000000; stroke-linejoin: miter; stroke-linecap: square"/>
   </g>
   <g id="patch_4">
    <path d="M 1054.5725 520.7175 
L 1054.5725 21.7575 
" style="fill: none; stroke: #000000; stroke-linejoin: miter; stroke-linecap: square"/>
   </g>
   <g id="patch_5">
    <path d="M 50.1725 520.7175 
L 1054.5725 520.7175 
" style="fill: none; stroke: #000000; stroke-linejoin: miter; stroke-linecap: square"/>
   </g>
   <g id="patch_6">
    <path d="M 50.1725 21.7575 
L 1054.5725 21.7575 
" style="fill: none; stroke: #000000; stroke-linejoin: miter; stroke-linecap: square"/>
   </g>
   <g id="text_19">
    <!-- Imperial Valley-07 Record no. 196 -->
    <g transform="translate(417.34875 15.7575) scale(0.16 -0.16)">
     <defs>
      <path id="DejaVuSans-49" d="M 628 4666 
L 1259 4666 
L 1259 0 
L 628 0 
L 628 4666 
z
" transform="scale(0.015625)"/>
      <path id="DejaVuSans-72" d="M 2631 2963 
Q 2534 3019 2420 3045 
Q 2306 3072 2169 3072 
Q 1681 3072 1420 2755 
Q 1159 2438 1159 1844 
L 1159 0 
L 581 0 
L 581 3500 
L 1159 3500 
L 1159 2956 
Q 1341 3275 1631 3429 
Q 1922 3584 2338 3584 
Q 2397 3584 2469 3576 
Q 2541 3569 2628 3553 
L 2631 2963 
z
" transform="scale(0.015625)"/>
      <path id="DejaVuSans-56" d="M 1831 0 
L 50 4666 
L 709 4666 
L 2188 738 
L 3669 4666 
L 4325 4666 
L 2547 0 
L 1831 0 
z
" transform="scale(0.015625)"/>
      <path id="DejaVuSans-79" d="M 2059 -325 
Q 1816 -950 1584 -1140 
Q 1353 -1331 966 -1331 
L 506 -1331 
L 506 -850 
L 844 -850 
Q 1081 -850 1212 -737 
Q 1344 -625 1503 -206 
L 1606 56 
L 191 3500 
L 800 3500 
L 1894 763 
L 2988 3500 
L 3597 3500 
L 2059 -325 
z
" transform="scale(0.015625)"/>
      <path id="DejaVuSans-2d" d="M 313 2009 
L 1997 2009 
L 1997 1497 
L 313 1497 
L 313 2009 
z
" transform="scale(0.015625)"/>
      <path id="DejaVuSans-52" d="M 2841 2188 
Q 3044 2119 3236 1894 
Q 3428 1669 3622 1275 
L 4263 0 
L 3584 0 
L 2988 1197 
Q 2756 1666 2539 1819 
Q 2322 1972 1947 1972 
L 1259 1972 
L 1259 0 
L 628 0 
L 628 4666 
L 2053 4666 
Q 2853 4666 3247 4331 
Q 3641 3997 3641 3322 
Q 3641 2881 3436 2590 
Q 3231 2300 2841 2188 
z
M 1259 4147 
L 1259 2491 
L 2053 2491 
Q 2509 2491 2742 2702 
Q 2975 2913 2975 3322 
Q 2975 3731 2742 3939 
Q 2509 4147 2053 4147 
L 1259 4147 
z
" transform="scale(0.015625)"/>
      <path id="DejaVuSans-6f" d="M 1959 3097 
Q 1497 3097 1228 2736 
Q 959 2375 959 1747 
Q 959 1119 1226 758 
Q 1494 397 1959 397 
Q 2419 397 2687 759 
Q 2956 1122 2956 1747 
Q 2956 2369 2687 2733 
Q 2419 3097 1959 3097 
z
M 1959 3584 
Q 2709 3584 3137 3096 
Q 3566 2609 3566 1747 
Q 3566 888 3137 398 
Q 2709 -91 1959 -91 
Q 1206 -91 779 398 
Q 353 888 353 1747 
Q 353 2609 779 3096 
Q 1206 3584 1959 3584 
z
" transform="scale(0.015625)"/>
      <path id="DejaVuSans-64" d="M 2906 2969 
L 2906 4863 
L 3481 4863 
L 3481 0 
L 2906 0 
L 2906 525 
Q 2725 213 2448 61 
Q 2172 -91 1784 -91 
Q 1150 -91 751 415 
Q 353 922 353 1747 
Q 353 2572 751 3078 
Q 1150 3584 1784 3584 
Q 2172 3584 2448 3432 
Q 2725 3281 2906 2969 
z
M 947 1747 
Q 947 1113 1208 752 
Q 1469 391 1925 391 
Q 2381 391 2643 752 
Q 2906 1113 2906 1747 
Q 2906 2381 2643 2742 
Q 2381 3103 1925 3103 
Q 1469 3103 1208 2742 
Q 947 2381 947 1747 
z
" transform="scale(0.015625)"/>
      <path id="DejaVuSans-39" d="M 703 97 
L 703 672 
Q 941 559 1184 500 
Q 1428 441 1663 441 
Q 2288 441 2617 861 
Q 2947 1281 2994 2138 
Q 2813 1869 2534 1725 
Q 2256 1581 1919 1581 
Q 1219 1581 811 2004 
Q 403 2428 403 3163 
Q 403 3881 828 4315 
Q 1253 4750 1959 4750 
Q 2769 4750 3195 4129 
Q 3622 3509 3622 2328 
Q 3622 1225 3098 567 
Q 2575 -91 1691 -91 
Q 1453 -91 1209 -44 
Q 966 3 703 97 
z
M 1959 2075 
Q 2384 2075 2632 2365 
Q 2881 2656 2881 3163 
Q 2881 3666 2632 3958 
Q 2384 4250 1959 4250 
Q 1534 4250 1286 3958 
Q 1038 3666 1038 3163 
Q 1038 2656 1286 2365 
Q 1534 2075 1959 2075 
z
" transform="scale(0.015625)"/>
     </defs>
     <use xlink:href="#DejaVuSans-49"/>
     <use xlink:href="#DejaVuSans-6d" x="29.492188"/>
     <use xlink:href="#DejaVuSans-70" x="126.904297"/>
     <use xlink:href="#DejaVuSans-65" x="190.380859"/>
     <use xlink:href="#DejaVuSans-72" x="251.904297"/>
     <use xlink:href="#DejaVuSans-69" x="293.017578"/>
     <use xlink:href="#DejaVuSans-61" x="320.800781"/>
     <use xlink:href="#DejaVuSans-6c" x="382.080078"/>
     <use xlink:href="#DejaVuSans-20" x="409.863281"/>
     <use xlink:href="#DejaVuSans-56" x="441.650391"/>
     <use xlink:href="#DejaVuSans-61" x="502.308594"/>
     <use xlink:href="#DejaVuSans-6c" x="563.587891"/>
     <use xlink:href="#DejaVuSans-6c" x="591.371094"/>
     <use xlink:href="#DejaVuSans-65" x="619.154297"/>
     <use xlink:href="#DejaVuSans-79" x="680.677734"/>
     <use xlink:href="#DejaVuSans-2d" x="738.107422"/>
     <use xlink:href="#DejaVuSans-30" x="774.191406"/>
     <use xlink:href="#DejaVuSans-37" x="837.814453"/>
     <use xlink:href="#DejaVuSans-20" x="901.4375"/>
     <use xlink:href="#DejaVuSans-52" x="933.224609"/>
     <use xlink:href="#DejaVuSans-65" x="998.207031"/>
     <use xlink:href="#DejaVuSans-63" x="1059.730469"/>
     <use xlink:href="#DejaVuSans-6f" x="1114.710938"/>
     <use xlink:href="#DejaVuSans-72" x="1175.892578"/>
     <use xlink:href="#DejaVuSans-64" x="1215.255859"/>
     <use xlink:href="#DejaVuSans-20" x="1278.732422"/>
     <use xlink:href="#DejaVuSans-6e" x="1310.519531"/>
     <use xlink:href="#DejaVuSans-6f" x="1373.898438"/>
     <use xlink:href="#DejaVuSans-2e" x="1433.330078"/>
     <use xlink:href="#DejaVuSans-20" x="1465.117188"/>
     <use xlink:href="#DejaVuSans-31" x="1496.904297"/>
     <use xlink:href="#DejaVuSans-39" x="1560.527344"/>
     <use xlink:href="#DejaVuSans-36" x="1624.150391"/>
    </g>
   </g>
   <g id="legend_1">
    <g id="patch_7">
     <path d="M 683.16 58.0425 
L 1043.3725 58.0425 
Q 1046.5725 58.0425 1046.5725 54.8425 
L 1046.5725 32.9575 
Q 1046.5725 29.7575 1043.3725 29.7575 
L 683.16 29.7575 
Q 679.96 29.7575 679.96 32.9575 
L 679.96 54.8425 
Q 679.96 58.0425 683.16 58.0425 
z
" style="fill: #ffffff; stroke: #cccccc; stroke-linejoin: miter"/>
    </g>
    <g id="line2d_169">
     <path d="M 686.36 42.715 
L 702.36 42.715 
L 718.36 42.715 
" style="fill: none; stroke: #0c5da5; stroke-width: 2; stroke-linecap: square"/>
    </g>
    <g id="text_20">
     <!-- Residual Displacement = -0.000009 m -->
     <g transform="translate(731.16 48.315) scale(0.16 -0.16)">
      <defs>
       <path id="DejaVuSans-75" d="M 544 1381 
L 544 3500 
L 1119 3500 
L 1119 1403 
Q 1119 906 1312 657 
Q 1506 409 1894 409 
Q 2359 409 2629 706 
Q 2900 1003 2900 1516 
L 2900 3500 
L 3475 3500 
L 3475 0 
L 2900 0 
L 2900 538 
Q 2691 219 2414 64 
Q 2138 -91 1772 -91 
Q 1169 -91 856 284 
Q 544 659 544 1381 
z
M 1991 3584 
L 1991 3584 
z
" transform="scale(0.015625)"/>
       <path id="DejaVuSans-3d" d="M 678 2906 
L 4684 2906 
L 4684 2381 
L 678 2381 
L 678 2906 
z
M 678 1631 
L 4684 1631 
L 4684 1100 
L 678 1100 
L 678 1631 
z
" transform="scale(0.015625)"/>
      </defs>
      <use xlink:href="#DejaVuSans-52"/>
      <use xlink:href="#DejaVuSans-65" x="64.982422"/>
      <use xlink:href="#DejaVuSans-73" x="126.505859"/>
      <use xlink:href="#DejaVuSans-69" x="178.605469"/>
      <use xlink:href="#DejaVuSans-64" x="206.388672"/>
      <use xlink:href="#DejaVuSans-75" x="269.865234"/>
      <use xlink:href="#DejaVuSans-61" x="333.244141"/>
      <use xlink:href="#DejaVuSans-6c" x="394.523438"/>
      <use xlink:href="#DejaVuSans-20" x="422.306641"/>
      <use xlink:href="#DejaVuSans-44" x="454.09375"/>
      <use xlink:href="#DejaVuSans-69" x="531.095703"/>
      <use xlink:href="#DejaVuSans-73" x="558.878906"/>
      <use xlink:href="#DejaVuSans-70" x="610.978516"/>
      <use xlink:href="#DejaVuSans-6c" x="674.455078"/>
      <use xlink:href="#DejaVuSans-61" x="702.238281"/>
      <use xlink:href="#DejaVuSans-63" x="763.517578"/>
      <use xlink:href="#DejaVuSans-65" x="818.498047"/>
      <use xlink:href="#DejaVuSans-6d" x="880.021484"/>
      <use xlink:href="#DejaVuSans-65" x="977.433594"/>
      <use xlink:href="#DejaVuSans-6e" x="1038.957031"/>
      <use xlink:href="#DejaVuSans-74" x="1102.335938"/>
      <use xlink:href="#DejaVuSans-20" x="1141.544922"/>
      <use xlink:href="#DejaVuSans-3d" x="1173.332031"/>
      <use xlink:href="#DejaVuSans-20" x="1257.121094"/>
      <use xlink:href="#DejaVuSans-2d" x="1288.908203"/>
      <use xlink:href="#DejaVuSans-30" x="1324.992188"/>
      <use xlink:href="#DejaVuSans-2e" x="1388.615234"/>
      <use xlink:href="#DejaVuSans-30" x="1420.402344"/>
      <use xlink:href="#DejaVuSans-30" x="1484.025391"/>
      <use xlink:href="#DejaVuSans-30" x="1547.648438"/>
      <use xlink:href="#DejaVuSans-30" x="1611.271484"/>
      <use xlink:href="#DejaVuSans-30" x="1674.894531"/>
      <use xlink:href="#DejaVuSans-39" x="1738.517578"/>
      <use xlink:href="#DejaVuSans-20" x="1802.140625"/>
      <use xlink:href="#DejaVuSans-6d" x="1833.927734"/>
     </g>
    </g>
   </g>
  </g>
 </g>
 <defs>
  <clipPath id="pe873ed8059">
   <rect x="50.1725" y="21.7575" width="1004.4" height="498.96"/>
  </clipPath>
 </defs>
</svg>
